<?xml version="1.0" encoding="utf-8"?>
<!-- Generator: Adobe Illustrator 24.2.1, SVG Export Plug-In . SVG Version: 6.00 Build 0)  -->
<svg version="1.1" id="Layer_1" xmlns="http://www.w3.org/2000/svg" xmlns:xlink="http://www.w3.org/1999/xlink" x="0px" y="0px"
	 viewBox="0 0 97.23 97.23" style="enable-background:new 0 0 97.23 97.23;" xml:space="preserve">
<style type="text/css">
	.st0{fill-rule:evenodd;clip-rule:evenodd;}
</style>
<polygon class="st0" points="76.7,1.28 76.92,1.5 77.14,1.72 77.36,1.94 77.58,1.94 77.79,1.94 78.01,2.16 78.01,2.37 78.23,2.59 
	78.45,2.59 78.45,2.81 78.67,3.03 78.67,3.25 80.2,4.77 80.85,5.21 81.07,5.43 81.07,5.65 81.29,6.08 81.5,6.3 81.5,6.52 81.5,6.74 
	81.5,6.96 81.5,7.17 81.5,7.39 81.29,7.83 81.29,8.05 81.29,8.26 81.29,8.48 81.07,8.92 81.07,9.14 81.07,9.57 80.85,10.01 
	80.85,10.66 80.85,11.1 80.85,11.32 80.85,11.54 80.85,11.76 80.85,11.97 80.85,12.19 81.07,12.63 81.29,13.06 81.5,13.28 
	81.72,13.5 81.72,13.72 81.94,13.94 81.94,14.16 81.94,14.37 82.16,14.81 82.16,15.03 82.38,15.25 82.59,15.68 82.81,15.9 
	82.81,16.12 82.81,16.34 82.81,16.77 82.81,16.99 82.81,17.21 83.03,17.43 83.25,17.65 83.47,17.86 83.47,18.08 83.69,18.3 
	83.69,18.52 83.69,18.74 83.9,18.96 83.9,19.17 83.9,19.39 84.12,19.39 84.12,19.61 84.12,19.83 84.12,20.05 84.34,20.26 
	84.34,20.48 84.34,20.7 84.34,20.92 84.56,20.92 84.56,21.14 84.34,21.14 84.34,21.35 84.56,21.57 84.56,21.79 84.78,21.79 
	84.78,22.01 84.78,22.45 84.78,22.66 84.78,22.88 84.99,22.88 84.99,23.1 85.21,23.1 85.21,23.32 85.43,23.32 85.43,23.54 
	85.65,23.54 85.65,23.75 85.87,23.75 86.09,23.75 86.3,23.75 86.52,23.97 86.74,23.97 86.96,23.97 87.18,23.97 87.39,24.19 
	87.18,24.19 87.18,24.41 87.18,24.63 86.96,24.63 86.74,24.63 86.3,24.63 85.43,24.63 85.21,24.63 84.99,24.63 84.99,24.85 
	84.78,24.85 84.78,25.06 84.78,25.28 84.78,25.5 84.56,25.5 84.56,25.72 84.56,25.94 84.34,25.94 84.34,26.16 84.34,26.37 
	84.34,26.59 84.12,26.81 84.12,27.03 83.9,27.03 83.69,27.03 83.69,27.25 83.69,27.46 83.47,27.46 83.47,27.68 83.47,27.9 
	83.47,28.34 83.25,28.34 83.25,28.56 83.03,28.56 83.03,28.77 83.03,28.99 83.03,29.21 83.25,29.43 83.25,29.65 83.03,29.86 
	83.03,30.08 82.81,30.52 82.59,30.95 82.38,31.17 82.16,31.39 82.16,31.61 81.94,31.83 81.94,32.05 81.72,32.05 81.72,32.26 
	81.5,32.26 81.29,32.48 81.07,32.7 81.07,32.92 80.85,33.14 80.85,33.57 80.85,33.79 80.63,34.01 80.63,34.23 80.63,34.45 
	80.63,34.66 80.63,34.88 80.63,35.1 80.63,35.32 80.85,35.54 80.85,35.97 81.07,35.97 81.07,36.19 81.29,36.41 81.29,36.63 
	81.29,36.85 81.07,37.06 81.07,37.28 81.07,37.5 81.07,37.72 81.07,37.94 81.07,38.16 81.07,38.37 81.29,38.81 81.5,39.25 
	81.5,39.46 81.5,39.68 81.5,40.12 81.5,40.34 81.5,40.55 81.5,40.77 81.5,40.99 81.5,41.21 81.5,41.65 81.29,41.86 81.07,42.08 
	80.85,42.52 80.63,42.74 80.41,42.96 79.98,43.61 79.76,43.83 79.1,44.05 78.67,44.26 78.45,44.26 78.23,44.48 78.01,44.48 
	77.79,44.7 77.58,44.92 77.58,45.14 77.58,45.36 77.58,45.57 77.36,45.79 77.36,46.01 77.36,46.23 77.36,46.66 77.36,46.88 
	77.14,47.1 77.14,47.32 77.14,47.54 77.14,47.76 77.14,47.97 77.36,47.97 77.36,48.19 77.58,48.19 77.79,48.19 78.01,48.19 
	78.23,48.41 78.45,48.41 78.67,48.19 78.89,48.19 79.1,48.19 79.32,48.19 79.32,48.41 79.1,48.63 78.89,48.85 78.89,49.06 
	78.67,49.06 78.45,49.5 78.45,49.72 78.45,49.94 78.45,50.15 78.23,50.15 78.23,50.37 78.01,50.59 78.23,50.59 78.01,50.59 
	78.01,50.81 78.23,50.81 78.01,51.03 78.01,51.25 78.01,51.46 78.01,51.68 77.79,51.68 77.79,51.9 77.79,52.12 77.58,52.12 
	77.58,52.34 77.58,52.56 77.58,52.77 77.58,52.99 77.36,52.99 77.36,53.21 77.14,53.21 76.92,53.65 76.7,53.86 76.49,54.08 
	76.49,54.3 76.49,54.52 76.27,54.52 76.27,54.74 76.27,54.96 76.27,55.17 76.27,55.61 76.27,55.83 76.27,56.05 76.27,56.26 
	76.27,56.48 76.27,56.7 76.27,56.92 76.27,57.14 76.27,57.57 76.27,57.79 76.49,58.01 76.49,58.23 76.49,58.45 76.49,58.66 
	76.49,58.88 76.27,58.88 76.49,58.88 76.49,59.1 76.49,59.32 76.49,59.54 76.7,59.54 76.49,59.54 76.49,59.76 76.7,59.76 
	76.7,59.97 76.7,60.19 76.7,60.63 76.7,60.85 76.7,61.06 76.7,61.28 76.7,61.5 76.49,61.72 76.49,62.16 76.49,62.37 76.49,62.59 
	76.49,62.81 76.27,63.03 76.27,63.25 76.27,63.46 76.05,63.68 76.05,63.9 75.83,64.34 75.61,64.34 75.39,64.56 75.18,64.77 
	74.96,64.77 74.74,64.99 74.52,65.21 74.3,65.21 74.09,65.43 73.87,65.43 73.87,65.65 73.65,65.65 73.21,65.86 72.99,66.08 
	72.56,66.3 72.34,66.3 71.9,66.52 71.47,66.74 71.25,66.74 70.81,66.96 70.59,67.17 70.38,67.17 70.16,67.39 69.94,67.39 
	69.72,67.39 69.72,67.61 69.72,67.83 69.72,68.05 69.5,68.05 69.5,68.26 69.5,68.48 69.5,68.7 69.29,68.7 69.29,68.92 69.5,69.14 
	69.5,69.36 69.5,69.57 69.5,69.79 69.72,70.23 69.72,70.45 69.72,70.66 69.72,71.1 69.72,71.32 69.72,71.54 69.72,71.76 
	69.72,71.97 69.72,72.41 69.5,72.63 69.29,72.85 69.29,73.06 69.07,73.28 69.07,73.5 68.85,73.72 68.85,73.94 68.85,74.16 
	68.85,74.37 68.85,74.59 68.85,74.81 68.85,75.03 68.85,75.25 68.63,75.46 68.63,75.68 68.63,75.9 68.41,76.12 68.41,76.34 
	68.19,76.56 67.98,76.77 67.98,76.99 67.98,77.21 67.98,77.43 68.19,77.43 68.19,77.86 68.19,78.08 68.19,78.3 68.19,78.74 
	68.19,78.96 68.19,79.17 68.41,79.39 68.41,79.61 68.41,79.83 68.41,80.05 68.41,80.26 68.41,80.48 68.41,80.7 68.41,80.92 
	68.41,81.14 68.41,81.36 68.63,81.57 68.63,81.79 69.29,81.79 69.5,82.01 69.72,82.01 69.94,82.23 70.16,82.23 70.38,82.23 
	70.81,82.45 71.03,82.45 71.25,82.45 71.47,82.45 71.69,82.66 71.9,82.66 72.12,82.66 72.34,82.88 72.78,82.66 72.99,82.88 
	72.99,83.1 73.21,83.1 73.43,83.1 73.43,83.32 73.21,83.32 73.21,83.54 72.99,83.54 72.78,83.54 72.78,83.76 72.99,83.97 
	72.99,84.19 72.99,84.41 72.78,84.41 72.78,84.63 72.56,84.85 72.56,85.06 72.78,85.06 72.78,85.28 72.99,85.28 72.99,85.5 
	73.21,85.5 72.99,85.5 72.99,85.72 72.99,85.94 72.78,85.94 72.56,85.94 72.34,85.94 72.34,86.16 72.12,86.37 72.34,86.37 
	72.34,86.59 72.56,86.81 72.34,86.81 72.34,87.03 72.34,87.25 72.56,87.46 72.56,87.68 72.56,87.9 72.34,88.12 72.12,88.12 
	71.9,88.12 71.69,88.12 71.47,88.12 71.47,88.34 71.25,88.34 71.03,88.34 71.03,88.56 71.03,88.77 70.81,88.77 70.59,88.77 
	70.59,88.56 70.38,88.56 70.38,88.77 70.38,88.99 70.16,89.21 69.94,89.21 69.94,89.43 69.94,89.65 69.72,89.65 69.5,89.65 
	69.5,89.86 69.29,89.86 69.07,89.86 69.07,90.08 68.85,90.3 68.85,90.52 68.63,90.52 68.63,90.74 68.41,90.74 68.41,90.96 
	68.41,91.17 68.19,91.39 67.98,91.39 67.76,91.39 67.76,91.61 67.76,91.83 67.54,91.83 67.54,92.05 67.54,92.26 67.54,92.05 
	67.76,92.05 67.76,91.83 67.98,91.83 67.98,92.26 68.19,92.26 68.19,92.48 68.41,92.48 68.63,92.7 68.85,92.7 68.85,92.92 
	68.85,93.14 68.63,93.14 68.41,93.14 68.41,93.36 68.41,93.57 68.19,93.57 68.19,93.79 68.41,94.01 68.19,94.23 68.19,94.45 
	67.98,94.45 67.98,94.66 67.98,94.88 68.19,94.88 68.19,95.1 67.98,95.1 67.98,94.88 67.76,94.88 67.76,95.1 67.76,95.32 
	67.98,95.32 67.76,95.32 67.54,95.32 67.32,95.1 67.32,95.32 67.1,95.54 67.1,95.76 67.1,95.97 67.32,96.19 67.1,96.19 66.89,96.41 
	66.67,96.41 66.67,96.19 66.45,96.19 66.23,96.19 66.01,96.41 65.79,96.41 65.79,96.19 65.79,95.97 65.79,95.76 66.01,95.76 
	66.01,95.54 66.23,95.54 66.23,95.32 66.23,95.1 66.01,95.1 66.01,94.88 65.79,94.88 65.58,94.66 65.58,94.88 65.36,94.88 
	65.36,95.1 65.14,95.1 65.14,94.88 65.14,94.66 65.14,94.45 65.36,94.23 65.36,94.01 65.14,94.01 64.92,94.01 64.92,93.79 
	65.14,93.79 65.14,93.57 65.14,93.36 65.36,93.36 65.58,93.36 65.79,93.36 66.01,93.36 66.23,93.36 66.23,93.14 66.45,93.14 
	66.45,93.36 66.45,93.14 66.67,93.14 66.45,93.14 66.45,92.92 66.23,92.92 66.23,92.7 66.01,92.7 65.79,92.7 65.58,92.48 
	65.36,92.48 65.36,92.26 65.36,92.05 65.36,91.83 65.36,91.61 65.14,91.61 64.92,91.61 64.92,91.39 64.7,91.39 64.7,91.17 
	64.7,90.96 64.49,90.96 64.49,91.17 64.49,91.39 64.27,91.39 64.27,91.17 64.05,91.17 64.05,91.39 64.05,91.17 63.83,91.17 
	63.61,91.17 63.61,91.39 63.39,91.39 63.18,91.39 63.18,91.17 62.96,91.17 62.96,91.39 62.96,91.61 62.96,91.83 62.74,91.83 
	62.74,91.61 62.52,91.39 62.52,91.17 62.52,90.96 62.52,90.74 62.52,90.52 62.3,90.52 62.3,90.74 62.08,90.74 61.87,90.74 
	61.87,90.96 61.65,90.96 61.43,90.96 61.43,90.74 61.65,90.74 61.65,90.52 61.65,90.3 61.65,90.08 61.65,89.86 61.65,89.65 
	61.43,89.65 61.21,89.65 60.99,89.65 60.78,89.65 60.78,89.86 60.56,89.86 60.56,90.08 60.56,90.3 60.78,90.3 60.99,90.3 
	60.99,90.52 60.78,90.52 60.56,90.52 60.34,90.52 60.12,90.52 59.9,90.52 59.68,90.52 59.68,90.3 59.68,90.08 59.68,89.86 
	59.47,89.86 59.25,89.86 59.25,89.65 59.25,89.43 59.03,89.43 58.81,89.43 58.81,89.21 58.59,89.21 58.59,88.99 58.81,88.99 
	58.81,89.21 59.03,89.21 58.81,89.21 58.81,88.99 59.03,88.99 58.81,88.99 58.81,88.77 58.81,88.56 58.59,88.56 58.38,88.56 
	58.38,88.34 58.38,88.12 58.59,88.12 58.38,88.12 58.38,87.9 58.16,87.9 58.16,88.12 57.94,88.12 57.72,88.12 57.72,88.34 
	57.72,88.56 57.5,88.56 57.29,88.56 57.29,88.77 57.5,88.77 57.72,88.77 57.5,88.77 57.5,88.99 57.29,88.99 57.07,88.99 
	57.07,89.21 57.29,89.21 57.29,88.99 57.29,89.21 57.5,89.21 57.5,89.43 57.29,89.43 57.07,89.43 56.85,89.43 56.63,89.43 
	56.41,89.43 56.41,89.21 56.41,88.99 56.19,88.99 56.19,88.77 55.98,88.77 56.19,88.56 56.19,88.34 55.98,88.34 55.98,88.56 
	55.76,88.56 55.54,88.56 55.76,88.56 55.76,88.34 55.54,88.34 55.32,88.12 55.32,87.9 55.54,87.9 55.54,87.68 55.32,87.68 
	55.32,87.46 55.32,87.25 55.1,87.25 55.1,87.03 55.1,86.81 55.32,86.81 55.32,86.59 55.32,86.37 55.32,86.16 55.32,85.94 
	55.32,86.16 55.32,85.94 55.1,85.94 54.89,85.94 54.89,86.16 55.1,86.16 55.1,86.37 54.89,86.37 54.89,86.16 54.67,86.16 
	54.67,86.37 54.45,86.37 54.45,86.16 54.23,86.16 54.23,85.94 54.23,85.72 54.23,85.5 54.01,85.28 54.01,85.06 53.79,85.06 
	53.58,85.06 53.58,84.85 53.36,84.85 53.36,85.06 53.14,85.06 53.14,84.85 52.92,84.85 52.92,84.63 52.92,84.41 52.7,84.63 
	52.7,84.41 52.48,84.41 52.48,84.19 52.27,84.19 52.05,84.19 51.83,84.19 51.83,84.41 52.05,84.41 52.05,84.63 51.83,84.63 
	51.83,84.41 51.61,84.41 51.39,84.41 51.39,84.19 51.39,83.97 51.18,83.76 50.96,83.76 50.96,83.54 50.74,83.54 50.52,83.54 
	50.74,83.54 50.52,83.54 50.52,83.32 50.52,83.54 50.3,83.54 50.08,83.54 50.08,83.32 50.08,83.1 50.08,82.88 49.87,82.88 
	49.87,82.66 49.87,82.45 49.87,82.23 49.65,82.23 49.43,82.23 49.43,82.01 49.43,81.79 49.43,81.57 49.65,81.57 49.43,81.36 
	49.21,81.36 49.43,81.57 49.21,81.57 48.99,81.57 48.99,81.79 48.78,81.79 48.56,81.79 48.56,82.01 48.78,82.01 48.78,82.23 
	48.56,82.45 48.56,82.66 48.34,82.66 48.12,82.66 48.12,82.88 47.9,82.88 47.9,82.66 47.9,82.45 47.68,82.45 47.47,82.45 
	47.25,82.45 47.03,82.45 47.03,82.23 47.25,82.23 47.25,82.01 47.03,81.79 47.03,81.57 46.81,81.57 46.59,81.57 46.38,81.57 
	46.38,81.36 46.16,81.36 46.16,81.14 45.94,81.14 45.94,81.36 45.72,81.36 45.72,81.57 45.5,81.57 45.28,81.57 45.28,81.36 
	45.07,81.36 45.07,81.57 44.85,81.57 44.85,81.79 44.63,81.79 44.41,81.79 44.41,81.57 44.19,81.57 43.98,81.57 43.98,81.79 
	43.98,81.57 43.76,81.57 43.54,81.57 43.54,81.36 43.54,81.14 43.32,81.14 43.32,80.92 43.1,80.92 43.1,80.7 42.88,80.7 
	42.88,80.48 42.67,80.48 42.45,80.26 42.45,80.05 42.23,80.05 42.01,80.05 42.01,79.83 41.79,79.83 41.79,80.05 41.58,79.83 
	41.36,79.83 41.36,79.61 41.14,79.61 40.92,79.61 40.92,79.39 40.92,79.61 40.7,79.61 40.48,79.39 40.27,79.39 40.27,79.61 
	40.05,79.61 39.83,79.61 39.83,79.83 39.83,79.61 39.61,79.61 39.61,79.83 39.39,79.83 39.39,79.61 39.39,79.39 39.39,79.61 
	39.18,79.61 39.18,79.39 39.18,79.17 38.96,79.17 38.96,79.39 38.74,79.61 38.74,79.39 38.52,79.39 38.3,79.39 38.3,79.17 
	38.08,79.17 37.87,79.17 37.87,79.39 37.65,79.39 37.65,79.17 37.65,78.96 37.43,78.96 37.43,78.74 37.43,78.52 37.21,78.52 
	37.21,78.3 36.99,78.3 36.99,78.08 36.99,78.3 36.77,78.3 36.56,78.3 36.56,78.08 36.34,78.08 36.34,77.86 36.12,77.86 36.12,78.08 
	35.9,78.08 35.9,77.86 35.68,77.86 35.68,78.08 35.47,78.08 35.47,77.86 35.47,78.08 35.25,78.08 35.25,77.86 35.03,77.86 
	35.03,78.08 34.81,78.08 34.81,77.86 34.81,78.08 34.59,78.08 34.38,78.08 34.38,78.3 33.94,78.52 33.5,78.74 33.28,78.74 
	33.07,78.96 32.85,79.17 32.63,79.17 32.63,79.39 32.41,79.61 32.19,79.83 32.19,80.05 32.19,80.26 32.41,80.26 32.41,80.48 
	32.63,80.7 32.85,80.92 33.07,80.92 33.28,81.14 33.5,81.14 33.5,81.36 33.72,81.36 33.94,81.36 34.81,81.14 35.03,81.14 
	35.25,81.14 35.47,81.14 35.68,81.36 35.68,81.57 35.9,81.57 35.9,81.79 36.12,82.01 36.12,82.23 36.34,82.23 36.34,82.45 
	36.34,82.66 36.34,82.88 36.56,82.88 36.56,83.1 36.56,83.32 36.34,83.32 36.12,83.54 35.9,83.54 35.9,83.76 35.68,83.76 
	35.9,83.76 35.9,83.54 35.68,83.54 35.47,83.54 35.25,83.54 35.03,83.54 35.03,83.76 35.03,83.97 34.81,83.97 34.59,83.97 
	34.59,83.76 34.81,83.76 34.59,83.76 34.59,83.97 34.38,83.97 34.16,83.97 34.16,84.19 33.94,84.19 33.72,84.41 33.72,84.63 
	33.72,84.85 33.5,84.85 33.5,85.06 33.5,85.28 33.5,85.5 33.72,85.5 33.94,85.5 33.94,85.72 34.16,85.72 34.16,85.94 34.16,86.16 
	34.16,86.37 33.94,86.37 33.94,86.59 33.94,86.81 33.72,86.81 33.72,86.59 33.5,86.59 33.5,86.81 33.28,86.81 33.28,87.03 
	33.07,87.25 32.85,87.46 32.63,87.68 32.41,87.68 32.19,87.9 31.32,88.12 30.88,88.12 30.67,88.34 30.45,88.34 30.23,88.34 
	30.01,88.56 29.79,88.56 29.79,88.77 29.58,88.77 29.58,88.99 29.58,89.21 29.36,89.43 29.36,89.65 29.58,89.86 29.58,90.08 
	29.79,90.3 30.01,90.52 30.23,90.74 30.23,90.96 30.45,91.83 30.45,92.05 30.45,92.92 30.67,93.14 30.67,93.36 30.67,93.57 
	30.45,93.57 30.45,93.79 30.23,93.79 30.01,93.79 30.01,94.01 29.79,94.01 29.79,93.79 29.79,94.01 29.58,94.01 29.36,94.01 
	29.14,94.01 29.14,94.23 28.92,94.23 28.7,94.45 28.48,94.66 28.27,94.66 28.27,94.88 28.05,94.88 27.83,94.88 27.83,95.1 
	27.61,95.1 27.39,95.1 26.96,95.1 26.74,95.1 26.52,95.32 26.52,95.54 26.3,95.76 26.3,95.97 26.08,95.97 26.08,96.19 26.08,96.41 
	26.08,96.63 25.87,96.85 25.65,96.85 25.43,96.85 25.43,96.63 25.21,96.63 24.99,96.41 24.77,96.19 24.77,95.97 24.56,95.76 
	24.34,95.76 24.34,95.54 24.12,95.76 23.9,95.76 23.68,95.76 23.68,95.97 23.47,95.97 23.47,95.76 23.25,95.76 23.25,95.54 
	23.25,95.32 23.03,95.32 23.25,95.32 23.25,95.1 23.25,94.88 23.03,94.88 22.81,94.88 22.59,94.88 22.37,94.88 22.16,94.66 
	21.94,94.66 21.94,94.45 21.72,94.45 21.5,94.66 21.5,94.88 21.28,94.88 21.28,94.66 21.28,94.45 21.28,94.23 21.5,94.23 
	21.5,94.01 21.07,93.79 21.07,93.57 21.28,93.57 21.28,93.36 21.07,93.14 21.07,92.92 20.85,92.7 20.85,92.48 20.63,92.48 
	20.63,92.05 20.63,91.83 20.63,91.39 20.41,91.39 19.97,91.17 19.76,91.17 19.76,90.96 19.54,90.96 19.32,90.96 19.1,90.96 
	19.1,91.17 19.1,91.39 18.88,91.39 18.88,91.61 18.88,91.39 18.67,91.39 18.67,91.17 18.67,90.96 18.67,90.52 18.45,90.52 
	18.23,90.52 18.23,90.74 18.01,90.74 17.79,90.74 17.57,90.96 17.57,91.17 17.79,91.17 18.01,91.17 18.01,91.39 17.79,91.61 
	17.57,91.61 17.36,91.61 17.36,91.39 17.14,91.39 16.92,91.39 16.92,91.17 16.7,91.17 16.7,91.39 16.48,91.39 16.48,91.17 
	16.27,91.17 16.05,91.17 15.83,91.39 15.61,91.39 15.39,91.39 15.39,91.17 15.17,91.17 15.17,90.96 14.96,90.74 14.74,90.74 
	14.74,90.52 14.74,90.3 14.52,90.3 14.74,90.3 14.96,90.3 15.17,90.3 15.17,90.08 15.39,90.08 15.61,89.86 15.83,89.65 15.83,89.43 
	15.83,89.21 15.61,88.99 15.39,88.99 15.17,88.99 15.17,88.77 14.96,88.56 14.96,88.34 15.17,88.34 15.17,88.12 15.39,88.12 
	15.61,87.9 15.61,87.68 15.61,87.46 15.61,87.25 15.61,87.03 15.61,86.81 15.61,86.59 15.39,86.59 15.39,86.37 15.39,86.16 
	15.17,86.16 14.96,86.16 14.96,86.37 14.74,86.37 14.74,86.59 14.52,86.59 14.3,86.81 14.08,87.03 13.87,87.03 13.65,87.25 
	13.65,87.46 13.65,87.68 13.43,87.68 13.43,87.46 13.43,87.25 13.21,87.25 12.99,87.25 12.99,87.03 12.77,87.03 12.77,87.25 
	12.56,87.46 12.34,87.46 12.34,87.25 12.56,87.03 12.56,86.81 12.56,86.59 12.56,86.37 12.77,86.37 12.77,86.16 12.56,86.16 
	12.77,85.94 12.77,85.72 12.99,85.72 12.99,85.5 13.21,85.5 13.21,85.28 13.21,85.06 12.99,85.06 12.99,84.85 12.77,84.85 
	12.56,84.85 12.56,84.63 12.34,84.63 12.12,84.63 12.12,84.41 12.34,84.19 12.56,84.19 12.56,83.97 12.34,83.97 12.34,83.76 
	12.12,83.76 11.9,83.76 11.9,83.54 12.12,83.32 12.34,83.32 12.34,83.54 12.34,83.76 12.56,83.76 12.56,83.54 12.77,83.54 
	12.77,83.32 12.56,83.32 12.56,83.1 12.77,83.1 12.99,83.1 12.99,82.88 12.99,82.45 12.77,82.45 12.77,82.23 12.99,82.23 
	12.99,82.01 12.77,82.01 12.56,82.01 12.34,81.79 12.34,81.57 12.34,81.36 12.12,81.36 12.12,81.57 11.9,81.36 11.68,81.36 
	11.68,81.14 11.9,81.14 12.12,81.14 12.12,80.92 12.34,80.92 12.56,80.92 12.77,80.92 12.77,80.7 12.77,80.48 12.77,80.26 
	12.56,80.26 12.56,80.05 12.56,80.26 12.34,80.26 12.12,80.26 12.12,80.05 12.12,79.83 12.34,79.83 12.34,79.61 12.34,79.39 
	12.56,79.39 12.56,79.17 12.34,79.17 12.34,78.96 12.12,78.96 11.9,78.96 11.68,78.96 11.68,78.74 11.9,78.74 12.12,78.74 
	12.12,78.52 12.12,78.3 11.9,78.3 11.68,78.3 11.68,78.08 11.9,78.08 11.9,77.86 11.9,77.65 12.12,77.65 12.12,77.43 12.34,77.43 
	12.12,77.43 12.12,77.21 12.12,76.99 11.9,76.99 11.9,77.21 11.68,77.21 11.47,77.21 11.47,76.99 11.25,76.99 11.25,77.21 
	11.03,77.21 10.81,77.21 10.59,77.21 10.59,77.43 10.37,77.43 10.37,77.65 10.16,77.65 10.16,77.86 9.94,77.86 9.94,77.65 
	9.72,77.65 9.5,77.65 9.5,77.43 9.72,77.43 9.94,77.43 9.94,77.21 9.94,76.99 9.72,76.99 9.5,76.99 9.5,76.77 9.5,76.56 9.5,76.34 
	9.72,76.34 9.72,76.12 9.94,76.12 10.16,76.12 10.16,75.9 9.94,75.9 9.94,75.68 9.94,75.46 9.72,75.46 9.94,75.46 10.16,75.46 
	10.16,75.25 10.16,75.03 10.16,74.81 10.37,74.81 10.16,74.81 10.16,74.59 10.37,74.59 10.16,74.59 10.16,74.37 9.94,74.37 
	9.72,74.37 9.72,74.16 9.94,74.16 10.16,74.16 10.16,73.94 10.37,73.94 10.59,73.94 10.37,73.72 10.59,73.72 10.37,73.72 
	10.37,73.5 10.59,73.5 10.37,73.28 10.59,73.28 10.81,73.28 10.81,73.06 10.59,73.06 10.59,73.28 10.59,73.06 10.37,73.06 
	10.59,73.06 10.59,72.85 10.81,72.85 10.59,72.63 10.81,72.63 10.81,72.41 10.81,72.19 10.81,72.41 10.59,72.41 10.59,72.19 
	10.37,72.19 10.16,72.19 10.16,71.97 9.94,71.97 9.94,71.76 9.94,71.97 9.72,71.97 9.72,71.76 9.72,71.54 9.72,71.32 9.5,71.32 
	9.28,71.32 9.28,71.1 9.28,70.88 9.5,70.88 9.5,71.1 9.5,70.88 9.72,70.88 9.72,70.66 9.94,70.66 9.94,70.45 10.16,70.45 
	10.16,70.66 10.37,70.66 10.59,70.66 10.59,70.88 10.81,70.88 10.81,70.66 11.03,70.66 11.03,70.45 11.25,70.45 11.03,70.23 
	11.25,70.23 11.25,70.01 11.03,70.01 11.03,69.79 10.81,69.79 10.81,69.57 10.59,69.57 10.59,69.36 10.81,69.36 10.81,69.14 
	10.81,68.92 10.81,68.7 10.59,68.7 10.37,68.7 10.59,68.48 10.59,68.26 10.59,68.05 10.37,68.05 10.16,68.05 10.16,67.83 
	10.37,67.83 10.37,67.61 10.37,67.39 10.59,67.39 10.59,67.17 10.81,67.17 11.03,66.96 10.81,66.96 10.81,66.74 10.81,66.52 
	10.81,66.3 10.81,66.08 11.03,66.08 10.81,65.86 10.81,65.65 10.81,65.43 10.59,65.43 10.59,65.21 10.81,65.21 11.03,65.21 
	11.03,64.99 11.25,64.99 11.25,64.77 11.25,64.56 11.25,64.34 11.47,64.34 11.47,64.12 11.68,64.12 11.68,63.9 11.9,63.9 
	11.9,63.68 11.9,63.46 11.68,63.46 11.47,63.46 11.47,63.25 11.25,63.25 11.25,63.03 11.25,62.81 11.47,62.81 11.68,62.81 
	11.68,62.59 11.68,62.37 11.68,62.16 11.9,62.16 12.12,62.16 12.12,61.94 12.34,61.94 12.34,61.72 12.56,61.72 12.56,61.5 
	12.56,61.28 12.56,61.06 12.56,60.85 12.56,60.63 12.56,60.41 12.77,60.19 12.77,59.97 12.77,59.76 12.99,59.76 13.21,59.54 
	13.21,59.32 13.43,59.32 13.43,59.1 13.65,59.1 14.08,58.88 14.08,58.66 14.08,58.45 13.87,58.23 13.65,58.01 13.65,57.79 
	13.65,57.57 13.65,57.36 13.65,57.14 13.65,56.92 13.65,56.7 13.43,56.7 13.43,56.48 13.21,56.48 13.21,56.26 12.99,56.26 
	12.77,56.05 12.56,55.83 12.56,55.61 12.56,55.39 12.77,55.17 13.21,54.96 13.43,54.74 13.65,54.74 13.65,54.52 13.43,54.52 
	13.43,54.3 13.21,54.08 12.99,54.08 12.99,53.86 13.21,53.65 13.21,53.43 13.21,53.21 13.43,53.21 13.43,52.99 13.65,52.56 
	13.65,52.34 13.87,52.12 13.87,51.9 13.65,51.9 13.65,52.12 13.43,52.12 13.43,51.9 13.21,51.68 13.21,51.46 13.21,51.25 
	13.65,51.25 13.87,51.25 14.08,51.25 14.3,51.03 14.52,51.03 14.52,51.25 14.74,51.25 14.74,51.03 14.96,51.03 14.96,50.81 
	14.96,50.59 14.96,50.37 15.17,50.37 15.17,50.15 14.96,50.15 14.74,49.94 14.52,49.94 14.52,49.72 14.74,49.72 14.74,49.5 
	14.74,49.28 14.96,49.28 14.96,49.06 15.17,48.85 15.39,48.63 15.39,48.41 15.61,48.41 15.61,48.19 15.83,48.19 16.05,47.97 
	16.05,47.76 16.27,47.76 16.27,47.54 16.27,47.32 16.48,47.1 16.48,46.88 16.7,47.1 16.92,47.1 17.14,46.88 16.92,46.88 
	16.92,46.66 17.14,46.66 17.14,46.45 17.14,46.23 17.36,46.23 17.36,46.01 17.57,46.01 17.79,46.01 18.01,45.79 18.23,45.79 
	18.45,45.36 18.23,45.14 18.67,45.14 18.67,44.92 18.88,44.92 19.1,44.92 19.32,44.7 19.1,44.48 19.1,44.26 19.1,43.83 19.1,43.61 
	18.88,43.61 18.88,43.39 18.88,43.17 19.1,43.17 19.1,42.96 19.32,42.96 19.32,42.74 19.1,42.52 18.88,42.52 19.1,42.3 19.1,42.08 
	18.88,42.08 18.88,41.86 18.67,41.65 18.88,41.43 19.1,41.21 19.1,40.99 19.32,40.99 19.54,40.77 19.76,40.55 19.76,40.77 
	19.97,40.77 20.19,40.77 20.41,40.55 20.85,40.55 21.07,40.55 21.07,40.34 21.28,40.12 21.28,39.9 21.28,39.68 21.5,39.68 
	21.5,39.46 21.5,39.03 21.72,39.03 21.94,38.81 21.94,38.59 21.72,38.59 21.72,38.37 21.94,38.37 22.16,38.37 22.16,38.59 
	22.37,38.81 22.37,38.59 22.59,38.59 22.59,38.37 22.37,38.37 22.37,38.16 22.37,37.94 22.16,37.94 22.16,37.72 21.94,37.72 
	21.94,37.5 21.72,37.5 21.5,37.5 21.5,37.28 21.28,37.28 21.28,37.06 21.5,37.06 21.5,36.85 21.5,36.63 21.28,36.63 21.5,36.63 
	21.5,36.41 21.28,36.41 21.07,36.41 21.07,36.19 20.85,36.19 20.85,35.97 20.63,35.97 20.63,35.76 20.63,35.54 20.41,35.54 
	20.41,35.32 20.19,35.32 20.41,35.32 20.41,35.1 20.63,35.1 20.63,34.88 20.63,34.66 20.85,34.66 21.07,34.66 21.07,34.45 
	21.28,34.45 21.28,34.23 21.5,34.23 21.5,34.01 21.5,33.79 21.72,33.79 21.5,33.79 21.5,33.57 21.5,33.79 21.5,33.57 21.72,33.57 
	21.94,33.57 21.94,33.79 22.16,33.79 22.16,33.57 22.16,33.35 22.16,33.14 22.16,32.92 22.37,32.92 22.59,32.92 22.81,32.92 
	22.81,32.7 22.81,32.48 22.81,32.26 22.59,32.26 22.81,32.26 22.81,32.05 22.59,32.05 22.81,32.05 22.81,31.83 22.81,32.05 
	23.03,32.05 23.03,31.83 22.81,31.83 23.03,31.83 23.03,31.61 22.81,31.61 22.81,31.39 22.81,31.17 23.03,31.17 23.03,30.95 
	23.03,30.74 23.03,30.52 23.25,30.52 23.25,30.3 23.47,30.3 23.47,30.08 23.25,29.86 23.47,29.86 23.47,29.65 23.47,29.43 
	23.68,29.43 23.68,29.21 23.9,29.21 24.12,28.99 24.12,28.77 24.34,28.77 24.34,28.56 24.34,28.34 24.56,28.34 24.56,28.12 
	24.77,28.12 24.56,27.9 24.77,27.9 24.56,27.9 24.56,27.68 24.77,27.68 24.77,27.46 24.99,27.46 25.21,27.46 25.21,27.25 
	25.43,27.25 25.43,27.03 25.43,26.81 25.43,26.59 25.43,26.37 25.43,26.16 25.65,26.16 25.65,25.94 25.65,25.72 25.87,25.72 
	26.08,25.72 26.3,25.72 26.52,25.5 26.74,25.5 27.39,25.5 27.61,25.5 27.83,25.5 28.05,25.5 28.27,25.5 28.7,25.28 28.7,25.06 
	28.92,25.06 29.14,24.85 29.36,24.85 29.36,24.63 29.58,24.63 29.79,24.63 30.01,24.63 30.23,24.63 30.45,24.41 30.67,24.41 
	30.88,24.41 30.88,24.19 30.67,24.19 30.88,24.19 31.1,24.19 31.1,24.41 31.1,24.19 31.32,24.19 31.1,24.19 31.1,23.97 31.32,23.97 
	31.32,23.75 31.54,23.75 31.76,23.75 31.98,23.75 31.98,23.54 32.19,23.54 32.19,23.32 32.41,23.32 32.41,23.1 32.63,23.1 
	32.63,22.88 32.85,22.88 32.85,22.66 33.07,22.66 33.07,22.45 33.28,22.45 33.5,22.45 33.5,22.66 33.72,22.66 33.72,22.88 
	33.94,22.88 33.94,22.66 34.16,22.66 34.38,22.66 34.59,22.66 34.59,22.45 34.59,22.66 34.59,22.45 34.81,22.45 34.81,22.66 
	35.03,22.66 35.25,22.66 35.25,22.45 35.47,22.45 35.68,22.45 35.9,22.45 36.12,22.45 36.34,22.45 36.34,22.66 36.56,22.66 
	36.77,22.66 36.99,22.66 37.21,22.66 37.43,22.66 37.65,22.66 38.08,22.45 38.3,22.45 38.3,22.66 38.52,22.66 38.52,22.88 
	38.74,22.88 38.74,22.66 38.74,22.88 38.96,22.88 39.18,22.88 39.39,22.88 39.61,22.88 39.83,22.88 39.83,22.66 40.05,22.66 
	40.27,22.66 40.27,22.88 40.48,22.88 40.7,23.1 40.92,23.1 41.14,23.1 41.14,23.32 41.36,23.32 41.58,23.32 41.79,23.32 
	42.01,23.54 42.23,23.54 42.45,23.54 42.67,23.54 42.67,23.32 42.88,23.32 43.1,23.32 43.1,23.54 43.1,23.75 43.1,23.97 
	43.32,23.97 43.32,24.19 43.54,24.19 43.76,24.19 43.98,24.19 44.19,24.19 44.41,24.19 44.63,24.19 44.85,24.41 44.85,24.63 
	45.07,24.63 45.28,24.63 45.5,24.63 45.72,24.85 45.94,24.63 46.16,24.63 46.16,24.85 46.38,24.85 46.59,24.85 46.81,24.85 
	47.03,24.85 47.25,24.85 47.47,24.85 47.68,25.06 47.9,25.06 48.12,25.06 48.34,25.06 48.56,25.06 48.99,25.06 49.21,25.06 
	49.43,25.28 49.65,25.06 49.87,25.06 50.08,25.06 50.3,25.06 50.74,25.06 50.96,25.06 51.39,24.63 51.61,24.63 51.83,24.41 
	52.05,24.19 52.27,23.97 52.48,23.97 52.7,23.75 52.92,23.75 52.92,23.54 53.14,23.54 53.36,23.54 53.36,23.75 53.58,23.75 
	53.58,23.97 53.79,24.19 54.01,24.19 54.01,24.41 54.23,24.41 54.45,24.41 54.45,24.63 54.67,24.63 54.89,24.85 55.1,25.06 
	55.32,25.06 55.54,25.28 55.54,25.5 55.76,25.5 55.76,25.28 55.98,25.5 56.19,25.5 56.19,25.28 56.41,25.5 56.63,25.5 56.63,25.28 
	56.85,25.28 56.85,25.06 57.07,25.06 57.07,24.85 56.85,24.63 56.85,24.41 56.85,24.19 56.85,23.97 56.85,23.75 56.63,23.75 
	56.63,23.54 56.85,23.54 56.85,23.32 56.85,23.1 56.85,22.88 57.07,22.88 57.07,22.66 57.07,22.45 57.07,22.23 57.07,22.01 
	57.07,21.79 57.29,21.79 57.07,21.79 57.07,21.57 57.07,21.35 57.07,21.14 57.07,20.92 56.85,20.92 57.07,20.7 57.07,20.48 
	57.29,20.26 57.5,20.05 57.72,20.05 57.72,19.83 57.72,19.61 57.94,19.39 57.94,19.17 57.94,18.96 57.72,18.74 57.94,18.52 
	57.94,18.3 57.72,18.3 57.94,18.3 57.94,18.08 57.72,18.08 57.72,17.86 57.94,17.86 57.72,17.43 57.5,17.43 57.29,17.43 
	57.29,17.21 57.07,17.21 56.85,17.21 56.63,17.21 56.41,17.21 56.41,17.43 56.19,17.21 55.98,17.21 55.76,16.99 55.54,16.77 
	55.32,16.77 55.1,16.77 55.1,16.99 54.89,16.99 54.89,17.21 54.67,17.21 54.45,17.21 54.23,17.21 54.23,17.43 54.01,17.43 
	53.79,17.43 53.79,17.65 53.58,17.43 53.58,17.21 53.36,17.21 53.36,16.99 53.36,16.77 53.36,16.56 53.14,16.34 53.14,16.12 
	52.92,16.12 52.92,15.9 52.92,15.68 52.7,15.46 52.7,15.25 52.48,15.03 52.48,14.81 52.27,14.59 52.27,14.37 52.05,14.16 
	52.05,13.94 51.83,13.94 51.83,13.72 51.61,13.72 51.39,13.72 51.18,13.72 50.96,13.72 50.74,13.5 50.74,13.28 50.74,13.06 
	50.52,12.85 50.52,12.63 50.96,12.63 51.18,12.41 51.39,12.41 51.61,12.41 51.83,12.41 52.05,12.41 52.27,12.19 52.48,12.19 
	52.7,12.19 52.92,12.19 53.14,12.19 53.36,12.19 53.58,12.19 53.79,12.19 54.01,12.41 54.23,12.41 54.45,12.63 54.45,12.85 
	54.45,13.06 54.45,13.28 54.45,13.5 54.67,13.5 54.89,13.5 55.1,13.5 55.32,13.5 55.54,13.5 55.76,13.5 55.98,13.5 56.19,13.72 
	56.41,13.72 56.63,13.72 56.85,13.72 57.07,13.5 57.29,13.5 57.5,13.28 57.5,13.06 57.72,13.06 57.72,12.85 57.72,12.41 
	57.94,12.19 57.94,11.97 57.94,11.76 57.94,11.54 58.16,11.32 58.38,11.54 58.59,11.54 58.81,11.76 59.03,11.76 59.03,11.97 
	59.25,11.97 59.47,11.97 59.68,11.76 59.9,11.76 60.12,11.54 60.34,11.54 60.56,11.54 60.78,11.54 60.99,11.54 61.21,11.76 
	61.43,11.76 61.65,11.76 61.65,11.54 61.87,11.54 62.08,11.32 62.3,11.32 62.3,11.1 62.52,11.1 62.74,11.1 62.74,10.88 62.74,10.66 
	62.96,10.66 63.18,10.66 63.39,10.66 63.83,10.66 64.05,10.66 64.27,10.66 64.27,10.45 64.49,10.45 64.49,10.23 64.7,10.23 
	64.7,10.01 64.92,10.01 64.92,9.79 64.92,9.36 64.92,9.14 64.92,9.36 65.14,9.36 65.36,9.36 65.58,9.36 65.79,9.36 65.79,9.14 
	65.58,8.92 65.36,8.7 65.36,8.48 65.14,8.48 65.14,8.26 65.14,8.05 65.14,7.83 65.14,7.61 65.14,7.39 65.14,7.17 65.36,7.17 
	65.58,7.17 65.79,7.17 65.79,6.96 66.01,6.96 66.01,6.74 66.23,6.74 66.23,6.52 66.45,6.52 66.67,6.52 66.89,6.52 66.89,6.3 
	66.89,6.08 67.32,6.08 67.54,6.08 67.54,5.86 67.76,5.86 67.98,5.86 67.98,5.65 68.19,5.43 68.19,5.21 68.41,4.99 68.41,4.77 
	68.63,4.56 68.85,4.56 69.07,4.56 69.29,4.56 69.5,4.56 69.72,4.77 69.94,4.77 70.16,4.77 70.38,4.77 70.59,4.77 70.81,4.77 
	70.81,4.56 71.03,4.56 71.25,4.34 71.47,4.34 71.47,4.12 71.69,4.12 71.9,4.12 72.12,4.12 72.12,3.9 72.34,3.9 72.34,3.68 
	72.56,3.68 72.78,3.68 72.78,3.46 72.99,3.25 72.99,3.03 72.99,2.81 73.21,2.81 73.21,3.03 73.43,3.03 73.65,2.81 73.87,2.59 
	74.09,2.37 74.09,2.16 74.3,2.16 74.3,1.94 74.09,1.94 74.09,1.72 73.87,1.72 73.87,1.5 73.65,1.5 73.65,1.28 73.87,1.28 
	73.87,1.06 73.87,0.85 74.09,0.85 74.3,0.85 74.52,1.06 74.74,1.28 75.83,1.94 76.05,1.94 76.05,1.72 76.05,1.5 76.27,1.5 
	76.49,1.5 "/>
</svg>
