<?xml version="1.0" encoding="utf-8"?>
<!-- Generator: Adobe Illustrator 24.2.1, SVG Export Plug-In . SVG Version: 6.00 Build 0)  -->
<svg version="1.1" id="Layer_1" xmlns="http://www.w3.org/2000/svg" xmlns:xlink="http://www.w3.org/1999/xlink" x="0px" y="0px"
	 viewBox="0 0 97.23 97.23" style="enable-background:new 0 0 97.23 97.23;" xml:space="preserve">
<style type="text/css">
	.st0{fill-rule:evenodd;clip-rule:evenodd;}
</style>
<polygon class="st0" points="21.35,16.64 21.53,16.82 21.53,17 21.71,17 21.89,17 21.89,17.18 22.07,17.18 22.25,17.36 22.43,17.36 
	22.61,17.36 22.79,17.36 23.33,17.18 23.51,17 23.69,17 23.87,17 24.05,17 24.23,17 24.41,17 24.59,17.18 24.77,17.18 26.2,17.36 
	26.38,17.18 26.56,17.18 26.74,17.18 26.92,17 27.1,17 27.28,17 27.46,17 27.64,17 28,17 28.18,17 28.36,17 28.54,17 28.72,17 
	28.9,17 29.26,17 29.44,17 29.62,17.18 29.8,17.18 29.98,17.18 30.34,17.18 30.52,17.36 30.7,17.36 30.88,17.36 31.06,17.54 
	31.24,17.54 31.42,17.72 31.6,17.72 31.78,17.9 31.96,17.9 32.14,18.08 32.32,18.08 32.49,18.26 32.67,18.44 32.85,18.62 
	33.03,18.8 33.21,18.8 33.39,18.98 33.57,18.98 33.75,18.98 33.93,18.98 34.11,19.16 34.29,19.16 34.47,19.16 34.65,19.16 
	34.83,19.16 35.01,18.98 35.37,18.98 35.55,18.98 35.91,18.98 36.09,18.98 36.27,18.98 36.45,18.98 36.81,18.98 36.99,18.98 
	37.17,18.98 37.35,18.98 37.53,19.16 37.71,19.16 37.89,19.16 38.07,19.34 38.43,19.52 38.61,19.52 38.61,19.7 38.79,19.7 
	38.97,19.88 39.15,20.06 39.51,20.24 39.68,20.24 39.86,20.42 40.04,20.42 40.22,20.42 40.4,20.6 40.76,20.78 41.12,21.14 
	41.48,21.32 41.84,21.5 42.56,22.22 43.28,22.76 44,23.11 44.18,23.29 44.36,23.47 44.54,23.65 44.72,23.83 44.9,24.01 45.08,24.19 
	45.26,24.37 45.44,24.73 45.8,24.91 46.16,25.09 46.34,25.27 46.7,25.27 46.88,25.27 47.05,25.27 47.59,25.27 47.95,25.27 
	48.31,25.27 49.03,25.27 49.57,25.27 50.11,25.09 50.47,25.09 50.83,25.09 51.37,25.09 51.55,25.09 51.55,25.27 51.55,25.45 
	51.73,25.45 52.09,25.45 52.45,25.45 52.63,25.45 52.81,25.45 52.99,25.27 53.17,25.27 53.35,25.27 53.53,25.27 53.71,25.09 
	53.89,25.09 54.24,25.09 54.42,25.09 54.78,25.09 54.96,25.09 55.14,25.09 55.5,25.09 55.68,25.09 55.86,25.09 56.04,25.09 
	56.22,25.09 56.58,25.09 56.94,25.09 57.12,25.09 57.3,25.09 57.48,25.09 57.66,25.27 57.84,25.27 58.38,25.27 58.56,25.45 
	58.74,25.45 58.92,25.63 59.1,25.63 59.46,25.81 59.64,25.99 59.82,26.17 60,26.17 60.18,26.35 60.36,26.53 60.54,26.89 
	60.72,27.07 60.9,27.43 60.9,27.61 61.08,27.97 61.26,28.33 61.43,28.51 61.43,28.87 61.61,29.41 61.79,29.59 61.79,29.77 
	61.79,29.95 61.97,30.12 61.97,30.3 61.97,30.48 62.15,30.66 62.33,30.84 62.51,30.84 62.51,31.02 62.69,31.02 62.87,31.02 
	63.05,31.02 63.41,31.02 63.77,30.84 63.95,30.84 64.13,30.66 64.49,30.66 64.85,30.48 65.21,30.12 65.57,29.95 65.75,29.77 
	65.93,29.59 66.11,29.41 67.55,27.97 68.09,27.25 68.27,27.07 68.62,26.89 68.8,26.53 69.16,26.35 69.34,26.17 69.88,25.99 
	70.24,25.81 70.6,25.63 70.96,25.45 71.32,25.27 71.5,25.27 71.68,25.09 71.86,25.09 72.04,25.09 72.22,25.09 72.4,24.91 
	72.58,24.91 72.94,24.91 73.12,24.91 73.48,24.91 73.66,25.09 74.02,25.09 74.38,25.27 74.56,25.45 74.74,25.63 74.92,25.99 
	75.28,26.17 75.46,26.35 75.64,26.53 75.81,26.71 76,26.89 76,27.07 76.17,27.43 76.35,27.79 76.53,28.15 76.71,28.33 76.71,28.51 
	76.89,28.69 77.25,29.05 77.61,29.59 77.97,30.12 78.51,30.84 78.69,31.02 78.87,31.2 79.05,31.38 79.23,31.74 79.23,31.92 
	79.41,32.1 79.59,32.28 79.77,32.46 79.77,32.64 79.95,32.82 80.13,33 80.13,33.18 80.31,33.36 80.49,33.36 80.85,34.08 
	81.21,34.44 81.21,34.62 81.39,34.8 81.57,34.8 81.57,34.98 81.75,35.16 81.93,35.34 81.93,35.52 82.11,35.7 82.29,35.7 
	82.29,35.88 82.47,36.06 82.65,36.24 82.65,36.42 82.83,36.6 83.01,36.78 83.01,36.96 83.18,37.14 83.18,37.31 83.36,37.49 
	83.54,37.67 83.54,37.85 83.54,38.03 83.54,38.39 83.54,38.57 83.54,38.93 83.72,38.93 83.72,39.11 83.9,39.29 83.9,39.47 
	84.08,39.65 84.08,39.83 84.08,40.01 84.26,40.19 84.26,40.37 84.44,40.55 84.62,40.73 84.62,40.91 84.8,41.09 84.98,41.27 
	84.98,41.45 85.16,41.63 85.34,41.63 85.34,41.81 85.52,41.81 85.7,41.99 85.7,42.17 85.88,42.35 85.88,42.53 86.06,42.71 
	86.06,42.89 86.24,43.07 86.24,43.25 86.42,43.43 86.42,43.61 86.42,43.79 86.6,43.97 86.6,44.15 86.6,44.32 86.78,44.5 
	86.78,44.68 86.96,44.86 86.96,45.04 86.96,45.22 86.96,45.4 87.14,45.58 87.14,45.76 87.14,45.94 87.32,46.12 87.32,46.3 
	87.32,46.48 87.5,46.66 87.5,46.84 87.68,47.02 87.68,47.2 87.86,47.56 87.86,47.74 88.04,47.92 88.22,48.1 88.4,48.28 88.4,48.46 
	88.58,48.64 88.76,48.64 88.76,48.82 88.94,49 89.12,49.18 89.12,49.36 89.3,49.36 89.48,49.54 89.66,49.72 89.84,49.9 89.84,50.08 
	90.02,50.26 90.2,50.44 90.37,50.62 90.55,50.8 90.73,50.98 90.73,51.16 90.91,51.16 91.09,51.33 91.09,51.51 91.27,51.69 
	91.45,51.69 91.63,51.87 91.81,52.05 91.99,52.23 91.99,52.41 92.17,52.41 92.35,52.59 92.53,52.77 92.71,52.95 92.71,53.13 
	92.89,53.31 93.07,53.31 93.07,53.49 93.25,53.67 93.43,53.85 93.61,54.03 93.61,54.21 93.79,54.21 93.97,54.39 94.15,54.57 
	94.33,54.75 94.51,54.75 94.69,54.93 94.69,55.11 94.87,55.29 95.05,55.29 95.23,55.47 95.23,55.65 95.41,55.83 95.59,56.01 
	95.77,56.19 95.95,56.37 96.13,56.55 96.31,56.73 96.49,56.91 96.85,57.45 96.31,57.81 96.13,57.81 96.13,57.99 95.95,57.99 
	95.95,58.17 95.95,58.34 96.13,58.34 95.95,58.34 95.95,58.52 95.77,58.52 95.77,58.7 95.59,58.7 95.59,58.52 95.59,58.34 
	95.41,58.34 95.23,58.52 95.41,58.52 95.23,58.52 95.23,58.7 95.23,58.88 95.23,59.06 95.23,59.24 95.23,59.42 95.23,59.6 
	95.23,59.78 95.05,59.78 94.87,59.6 94.69,59.6 94.69,59.42 94.69,59.24 94.51,59.24 94.51,59.06 94.51,58.88 94.33,58.7 
	94.15,58.7 94.15,58.52 93.97,58.52 93.97,58.34 93.97,58.17 93.79,58.17 93.79,57.99 93.61,57.99 93.61,57.81 93.43,57.81 
	93.25,57.81 93.25,57.63 93.43,57.63 93.43,57.45 93.25,57.45 93.25,57.27 93.25,57.09 93.07,57.09 92.89,57.09 92.71,57.09 
	92.53,57.09 92.35,57.09 92.35,57.27 92.53,57.27 92.35,57.27 92.35,57.45 92.17,57.45 92.17,57.63 92.17,57.81 91.99,57.81 
	91.99,57.99 91.99,58.17 91.99,58.34 91.81,58.34 91.81,58.52 91.99,58.52 91.81,58.52 91.81,58.7 91.63,58.7 91.63,58.88 
	91.45,58.88 91.27,58.88 91.27,59.06 91.09,59.06 90.91,59.06 90.91,59.24 90.73,59.24 90.55,59.24 90.37,59.24 90.2,59.24 
	90.2,59.42 90.2,59.6 90.2,59.78 90.02,59.78 89.84,59.78 89.66,59.78 89.66,59.6 89.48,59.6 89.48,59.78 89.3,59.78 89.12,59.78 
	89.12,59.96 89.12,60.14 89.12,60.32 89.12,60.5 89.3,60.5 89.3,60.68 89.48,60.68 89.48,60.86 89.48,61.04 89.66,61.22 89.66,61.4 
	89.66,61.58 89.48,61.76 89.3,61.94 89.3,62.12 89.3,62.3 89.3,62.48 89.48,62.66 89.66,62.84 89.66,63.02 89.84,63.2 89.84,63.38 
	89.84,63.56 89.84,63.74 90.02,63.74 90.02,63.92 90.2,63.92 90.37,63.92 90.55,64.1 90.73,64.28 90.73,64.46 90.91,64.46 
	91.09,64.46 91.09,64.64 91.27,64.64 91.45,64.64 91.45,64.82 91.45,65 91.45,65.18 91.45,65.35 91.27,65.35 91.27,65.54 
	91.27,65.71 91.27,65.89 91.27,66.07 91.09,66.25 91.09,66.43 90.91,66.61 90.91,66.79 90.73,66.97 90.73,67.15 90.55,67.33 
	90.37,67.51 90.2,67.69 90.02,67.87 89.84,68.05 89.66,68.05 89.48,68.23 89.3,68.41 89.12,68.41 89.12,68.59 88.94,68.59 
	88.94,68.77 88.76,68.95 88.58,68.95 88.58,69.13 88.4,69.31 88.22,69.49 88.04,69.85 87.86,70.21 87.86,70.39 87.68,70.57 
	87.68,70.75 87.5,70.75 87.5,70.93 87.32,70.93 87.14,70.93 87.14,71.11 86.96,71.29 86.78,71.47 86.78,71.65 86.6,71.65 
	86.6,71.83 86.24,72.37 85.88,72.72 85.52,72.9 85.52,73.08 85.34,73.08 85.16,73.08 84.98,73.08 84.62,72.72 84.44,72.72 
	84.26,72.55 84.08,72.55 83.9,72.37 83.72,72.37 83.54,72.19 83.18,72.01 83.01,71.65 82.83,71.47 82.83,71.29 82.83,71.11 
	83.01,70.93 83.18,70.57 83.01,70.21 82.83,70.03 82.65,70.03 81.93,70.03 81.39,69.85 81.21,69.85 80.85,70.21 80.67,70.39 
	80.49,70.39 80.49,70.57 80.31,70.57 80.13,70.57 80.13,70.75 80.13,70.93 79.95,70.93 79.77,70.93 79.59,70.93 79.77,71.11 
	79.59,71.11 79.59,71.29 79.59,71.47 79.77,71.47 79.59,71.47 79.59,71.65 79.41,71.65 79.41,71.83 79.41,71.65 79.23,71.65 
	79.23,71.83 79.05,71.83 78.87,71.83 78.69,71.83 78.69,72.01 78.69,71.83 78.51,71.83 78.33,71.83 78.15,71.83 77.97,71.83 
	77.79,71.83 77.97,71.83 77.97,72.01 77.79,72.01 77.97,72.01 77.97,72.19 77.79,72.19 77.61,72.37 77.43,72.37 77.43,72.55 
	77.61,72.55 77.61,72.72 77.61,72.9 77.61,73.08 77.61,72.9 77.43,72.9 77.43,73.08 77.43,73.26 77.25,73.44 77.25,73.62 
	77.07,73.62 77.25,73.62 77.25,73.8 77.07,73.8 76.89,73.8 76.71,73.8 76.71,73.98 76.71,74.16 76.71,73.98 76.89,73.98 
	77.07,73.98 77.07,74.16 76.89,74.16 76.89,74.34 76.89,74.16 76.71,74.16 76.71,74.34 76.71,74.52 76.89,74.52 77.07,74.7 
	76.89,74.7 76.89,74.52 76.71,74.52 76.71,74.7 76.89,75.06 76.89,75.24 76.71,75.24 76.53,75.24 76.35,75.42 76.53,75.42 
	76.53,75.6 76.71,75.6 76.71,75.42 76.89,75.42 76.89,75.6 76.89,75.78 77.07,75.78 77.25,75.96 77.43,75.96 77.61,75.96 
	77.61,75.78 77.61,75.96 77.61,76.14 77.79,76.14 77.97,76.14 78.15,76.32 78.15,76.5 78.33,76.5 78.33,76.32 78.51,76.32 
	78.51,76.5 78.51,76.68 78.33,76.68 78.33,76.5 78.33,76.68 78.15,76.68 78.33,76.68 78.33,76.86 78.15,76.86 78.33,76.86 
	78.33,77.04 78.15,77.04 78.15,77.22 78.15,77.4 78.33,77.4 78.51,77.4 78.69,77.4 78.69,77.58 78.69,77.76 78.69,77.94 
	78.87,77.94 79.05,77.94 79.23,78.12 79.05,78.12 79.05,78.3 79.23,78.3 79.41,78.3 79.59,78.3 79.59,78.48 79.77,78.48 
	79.77,78.66 79.59,78.66 79.41,78.66 79.41,78.84 79.59,78.84 79.59,79.02 79.77,79.02 79.77,79.2 79.77,79.38 79.59,79.38 
	79.41,79.38 79.41,79.56 79.41,79.74 79.41,79.56 79.59,79.56 79.77,79.56 79.77,79.74 79.95,79.74 79.95,79.91 79.77,79.91 
	79.77,80.09 79.59,80.09 79.59,80.27 79.59,80.45 79.41,80.45 79.05,80.45 78.87,80.45 78.69,80.45 78.69,80.63 78.51,80.63 
	78.51,80.81 78.33,80.99 78.33,81.17 78.33,81.35 78.51,81.53 78.51,81.71 78.51,81.89 78.51,82.07 78.51,82.25 78.51,82.43 
	78.51,82.61 78.51,82.79 78.33,82.79 78.15,82.79 77.97,82.61 77.79,82.61 77.61,82.43 77.43,82.61 77.25,82.61 77.25,82.79 
	77.07,82.79 77.07,82.97 77.25,83.15 77.25,83.33 77.25,83.51 77.07,83.51 77.07,83.69 76.89,83.87 76.71,83.87 76.53,84.05 
	76.53,84.23 76.53,84.41 76.53,84.59 76.35,84.59 76.17,84.59 76.17,84.41 76,84.41 75.81,84.05 75.64,83.87 75.46,83.87 
	75.46,83.69 75.46,83.51 75.64,83.51 75.81,83.51 75.81,83.33 76,83.33 75.81,83.33 75.81,83.15 75.64,83.15 75.46,83.15 
	75.28,83.15 75.1,83.33 74.92,83.33 74.92,83.51 74.74,83.51 74.74,83.69 74.74,83.87 74.56,84.05 74.56,84.23 74.38,84.23 
	74.2,84.23 73.84,84.05 73.84,83.87 73.66,83.69 73.48,83.51 73.3,83.51 73.12,83.33 72.76,83.33 72.58,83.15 72.4,82.97 
	72.4,82.79 72.22,82.79 72.22,82.61 72.4,82.61 72.4,82.43 72.58,82.25 72.4,82.25 72.4,82.07 72.22,81.89 72.04,81.71 72.04,81.53 
	72.04,81.35 71.86,81.17 71.86,80.99 71.68,80.99 71.68,80.81 71.5,80.63 71.32,80.63 71.32,80.45 71.32,80.27 71.14,80.27 
	71.14,80.09 70.96,80.09 70.78,80.09 70.6,80.09 70.42,79.91 70.24,79.91 70.06,79.74 70.06,79.56 70.24,79.38 70.24,79.2 
	70.42,79.02 70.42,78.84 70.6,78.66 70.6,78.48 70.78,78.3 70.78,78.12 70.78,77.94 70.6,77.76 70.6,77.58 70.6,77.4 70.6,77.22 
	70.42,77.04 70.42,76.68 70.42,76.5 70.42,76.32 70.42,76.14 70.42,75.96 70.6,75.96 70.42,75.96 70.24,75.78 70.06,75.6 
	69.88,75.6 69.7,75.6 69.52,75.6 69.7,75.78 69.7,75.96 69.52,75.96 69.52,76.14 69.34,76.32 69.34,76.5 69.16,76.5 68.98,76.5 
	68.98,76.32 68.8,76.32 68.8,76.5 68.62,76.68 68.62,76.86 68.45,76.86 68.27,76.86 68.27,76.68 68.27,76.5 68.45,76.14 
	68.45,75.96 68.45,75.6 68.45,75.42 68.45,75.24 68.27,75.06 68.27,74.7 68.27,74.52 68.27,74.34 68.27,74.16 68.45,74.16 
	68.62,73.98 68.8,73.98 68.8,73.8 68.8,73.62 68.8,73.44 68.62,73.26 68.45,73.26 68.27,73.44 68.09,73.44 67.91,73.44 67.73,73.44 
	67.55,73.44 67.37,73.44 67.19,73.44 67.01,73.44 66.83,73.44 66.65,73.62 66.29,73.62 66.11,73.62 66.11,73.8 65.93,73.8 
	65.75,73.8 65.57,73.98 65.39,73.98 65.39,74.16 65.39,74.34 65.21,74.52 65.21,74.88 65.21,75.06 65.03,75.06 64.85,75.06 
	64.67,75.06 64.49,75.06 64.49,74.88 64.49,74.7 64.67,74.52 64.85,74.16 64.85,73.98 65.03,73.8 65.03,73.62 64.85,73.44 
	64.67,73.44 64.67,73.26 64.49,73.26 64.31,73.26 64.13,73.26 63.95,73.26 63.77,73.26 63.59,73.26 63.59,73.08 63.41,73.08 
	63.23,73.26 63.05,73.26 62.87,73.44 62.69,73.62 62.69,73.8 62.51,73.98 62.51,74.16 62.33,74.16 62.33,74.34 62.15,74.34 
	61.97,74.52 61.79,74.52 61.61,74.52 61.43,74.52 61.26,74.7 61.08,74.52 60.9,74.52 60.72,74.52 60.54,74.52 60.36,74.52 
	60.18,74.52 60,74.52 59.82,74.52 59.64,74.52 59.46,74.52 59.28,74.52 59.1,74.52 58.92,74.52 58.74,74.52 58.38,74.34 58.2,74.16 
	58.2,73.98 58.02,73.98 57.84,73.98 57.66,73.98 57.48,74.16 57.48,74.34 57.48,74.52 57.48,74.7 57.66,74.7 57.84,74.7 
	58.02,74.88 58.2,75.06 58.38,75.24 58.56,75.6 58.74,75.6 58.92,75.6 59.1,75.78 59.28,75.78 59.28,75.96 59.1,75.96 59.1,76.32 
	58.92,76.68 58.92,76.86 58.74,76.86 58.56,77.04 58.38,77.04 58.2,77.04 58.2,77.22 58.02,77.22 58.02,77.4 57.84,77.4 
	57.84,77.58 57.66,77.58 57.66,77.76 57.66,77.58 57.48,77.58 57.48,77.4 57.3,77.22 57.12,77.22 57.12,77.04 56.94,76.86 
	56.76,76.68 56.76,76.5 56.76,76.32 56.76,76.14 56.76,75.96 56.58,75.96 56.4,75.96 56.22,75.78 56.04,75.78 55.86,75.6 
	55.68,75.6 55.68,75.42 55.5,75.24 55.5,75.06 55.5,74.7 55.32,74.7 55.32,74.52 55.32,74.34 54.96,74.16 54.96,73.98 54.78,73.8 
	54.6,73.62 54.6,73.44 54.42,73.26 54.42,73.08 54.42,72.9 54.6,72.9 54.6,72.72 54.78,72.72 54.78,72.55 54.96,72.55 55.14,72.55 
	55.32,72.55 55.5,72.55 55.86,72.55 56.04,72.55 56.22,72.72 56.4,72.72 56.58,72.72 56.76,72.55 56.76,72.37 56.76,72.19 
	56.58,72.19 56.4,72.01 56.4,71.83 56.22,71.65 56.04,71.47 55.86,71.29 55.68,71.11 55.5,70.93 55.5,70.75 55.5,70.57 55.5,70.39 
	55.5,70.21 55.5,70.03 55.68,70.03 55.68,69.67 55.86,69.49 56.04,69.13 56.22,68.77 56.22,68.59 56.22,68.41 56.22,68.23 
	56.04,68.23 55.86,68.23 55.68,68.41 55.5,68.41 55.32,68.77 55.14,68.95 54.96,69.13 54.78,69.31 54.42,69.49 54.24,69.49 
	54.07,69.67 53.89,69.67 53.89,69.49 53.71,69.49 53.71,69.31 53.53,69.13 53.53,68.95 53.71,68.77 53.71,68.59 53.71,68.41 
	53.71,68.23 53.89,68.05 53.89,67.87 54.07,67.69 54.24,67.69 54.24,67.51 54.42,67.15 54.42,66.97 54.42,66.79 54.42,66.43 
	54.42,66.07 54.42,65.89 54.42,65.71 54.24,65.71 54.24,65.89 54.07,65.89 54.07,66.07 53.89,66.07 53.89,66.25 53.71,66.43 
	53.71,66.61 53.71,66.79 53.53,66.97 53.53,67.15 53.53,67.33 53.53,67.69 53.35,68.05 53.35,68.23 53.17,68.23 53.17,68.41 
	52.99,68.59 52.99,68.77 52.81,68.95 52.81,69.13 52.81,69.31 52.99,69.31 53.17,69.31 53.17,69.49 53.35,69.67 53.35,70.03 
	53.17,70.03 53.17,70.21 52.99,70.21 52.81,70.39 52.63,70.39 52.63,70.57 52.63,70.39 52.45,70.39 52.45,70.21 52.27,70.21 
	52.27,70.03 52.09,69.85 51.91,69.67 51.73,69.67 51.55,69.49 51.37,69.49 51.19,69.31 51.01,69.31 50.83,69.13 50.65,69.13 
	50.47,69.13 50.29,69.13 50.11,69.13 50.11,68.95 49.93,68.95 49.93,68.77 49.75,68.77 49.75,68.59 49.75,68.41 49.75,68.05 
	49.75,67.87 49.75,67.69 49.57,67.51 49.57,67.33 49.39,67.33 49.21,67.33 48.49,67.69 48.31,67.69 48.13,67.51 48.31,67.33 
	48.31,67.15 48.13,67.15 47.95,66.97 47.77,66.79 47.59,66.79 47.59,66.61 47.41,66.43 47.05,66.43 46.88,66.25 46.7,66.25 
	46.52,66.07 46.34,66.07 46.16,66.07 46.16,65.89 45.98,65.89 45.98,66.07 45.8,66.07 45.62,66.25 45.44,66.43 45.26,66.43 
	45.08,66.61 44.9,66.79 44.72,66.79 44.54,66.79 44.36,66.79 44,66.61 43.82,66.61 43.82,66.43 43.82,66.07 44,65.89 44,65.71 
	44,65.54 44.18,65.54 44.36,65.35 44.36,65.18 44.54,65 44.54,64.82 44.36,64.64 44.36,64.46 44.18,64.46 44.18,64.28 44,64.28 
	44,64.1 43.82,64.1 43.64,64.1 43.64,64.28 43.46,64.28 43.46,64.46 43.46,64.64 43.28,64.82 43.28,65 43.1,65.18 42.92,65.35 
	42.74,65.35 42.56,65.18 42.38,65.35 42.02,65.35 41.84,65.35 41.66,65.35 41.66,65.18 41.66,65 41.84,65 41.84,64.82 41.84,64.64 
	41.84,64.46 41.66,64.28 41.66,63.92 41.48,63.92 41.3,63.92 40.94,64.1 40.76,64.1 40.58,64.1 40.58,64.28 40.58,64.46 
	40.58,64.64 40.4,64.82 40.22,64.82 40.22,64.64 40.04,64.46 40.04,64.28 40.04,64.1 40.22,64.1 40.22,63.92 40.4,63.74 40.4,63.56 
	40.22,63.38 40.22,63.2 40.04,63.02 39.86,62.84 39.86,62.66 39.86,62.48 39.86,62.3 39.86,62.12 39.86,61.94 39.86,61.76 
	39.68,61.4 39.68,61.22 39.86,61.04 40.04,60.86 40.22,60.86 40.4,60.86 40.76,61.04 40.94,61.04 40.94,60.86 41.12,60.68 
	41.12,60.5 41.3,60.32 41.48,60.32 41.66,60.14 41.66,59.96 41.48,59.96 41.3,59.96 41.12,59.96 40.94,59.78 40.76,59.78 
	40.58,59.96 40.4,59.96 40.22,60.14 40.04,60.14 39.86,60.14 39.51,60.14 39.33,59.96 39.15,59.96 38.97,60.14 38.79,60.14 
	38.61,59.96 38.43,59.6 38.43,59.42 38.43,59.24 38.25,59.06 38.25,58.88 38.25,58.7 38.25,58.52 38.25,58.17 38.25,57.99 
	38.25,57.81 38.07,57.81 38.07,57.63 37.89,57.63 37.71,57.45 37.53,57.45 37.35,57.27 37.17,57.09 36.99,57.09 36.99,56.91 
	36.99,56.73 37.17,56.73 36.99,56.55 36.99,56.37 36.81,56.19 36.63,56.37 36.45,56.37 36.27,56.55 36.27,56.73 36.27,56.91 
	36.27,57.09 36.27,57.27 36.45,57.27 36.27,57.45 36.27,57.63 36.09,57.63 35.91,57.63 35.73,57.63 35.37,57.45 35.19,57.27 
	35.19,57.09 35.19,56.91 35.19,56.73 34.83,56.37 34.65,56.19 34.47,56.19 34.29,56.01 34.11,56.01 33.93,55.83 33.75,55.65 
	33.75,55.47 33.57,55.29 33.39,55.29 33.39,55.11 33.21,55.11 33.03,55.11 32.85,55.11 32.67,55.11 32.49,55.29 32.32,55.29 
	32.32,55.11 32.14,55.11 31.96,54.93 31.78,54.93 31.6,54.75 31.42,54.57 31.42,54.39 31.24,54.21 31.24,54.03 31.42,54.03 
	31.6,53.85 31.78,53.85 31.96,53.67 32.14,53.67 32.14,53.49 31.96,53.31 31.78,53.31 31.78,53.13 31.6,52.95 31.6,52.77 
	31.6,52.59 31.6,52.41 31.42,52.41 31.24,52.41 31.24,52.59 31.06,52.77 31.06,52.95 31.06,53.13 31.06,53.31 31.06,53.49 
	31.06,53.67 30.88,53.85 30.88,54.03 31.06,54.03 31.06,54.21 31.06,54.39 31.06,54.57 30.88,54.57 30.88,54.39 30.7,54.39 
	30.52,54.39 30.52,54.57 30.34,54.57 30.34,54.75 30.16,54.75 30.16,54.57 30.16,54.39 29.98,54.39 29.8,54.39 29.62,54.39 
	29.44,54.39 29.44,54.21 29.26,54.21 29.08,54.03 28.9,54.03 28.72,54.03 28.72,54.21 28.54,54.21 28.36,54.21 28.18,54.39 
	28,54.57 27.82,54.57 27.82,54.75 27.82,54.93 28,55.11 28,55.29 28,55.47 28,55.65 27.82,55.65 27.64,55.65 27.64,55.47 
	27.64,55.29 27.46,55.29 27.46,55.47 27.46,55.29 27.28,55.29 27.28,55.11 27.1,54.93 27.1,55.11 26.92,55.11 26.92,55.29 
	26.92,55.47 26.74,55.47 26.74,55.65 26.92,55.65 27.1,55.83 27.1,56.01 26.92,56.01 26.92,55.83 26.92,55.65 26.92,55.83 
	26.92,56.01 26.74,56.01 26.74,56.19 26.92,56.19 27.1,56.19 26.92,56.19 26.92,56.37 26.92,56.55 27.1,56.55 27.1,56.73 
	27.28,56.73 27.28,56.91 27.28,57.09 27.28,57.27 27.28,57.45 27.1,57.45 26.92,57.45 26.92,57.63 26.92,57.81 27.1,57.81 
	26.92,57.81 26.74,57.81 26.56,57.81 26.74,57.81 26.74,57.99 26.92,57.99 26.92,58.17 26.92,58.34 27.1,58.34 27.28,58.52 
	27.28,58.7 27.28,58.88 27.28,59.06 27.28,59.24 27.28,59.42 27.46,59.42 27.46,59.6 27.46,59.78 27.28,59.78 27.28,59.6 27.1,59.6 
	27.1,59.78 27.1,59.96 27.1,60.14 27.1,59.96 27.28,59.96 27.28,60.14 27.28,60.32 27.46,60.32 27.46,60.5 27.46,60.68 27.64,60.68 
	27.64,60.86 27.64,61.04 27.64,61.22 27.82,61.22 27.82,61.4 28,61.4 28,61.58 28,61.76 28,61.94 28,62.12 28,62.3 27.82,62.3 
	27.82,62.12 27.64,62.12 27.46,62.12 27.46,61.94 27.46,62.12 27.28,62.12 27.46,62.3 27.28,62.3 27.1,62.48 27.28,62.48 
	27.46,62.66 27.46,62.84 27.28,62.84 27.1,63.02 26.92,63.02 26.74,63.02 26.56,62.84 26.56,62.66 26.38,62.48 26.2,62.48 
	26.02,62.3 25.84,62.3 25.84,62.12 25.66,61.94 25.66,61.76 25.66,61.58 25.48,61.58 25.48,61.4 25.3,61.4 25.13,61.4 25.13,61.22 
	24.95,61.22 24.77,61.22 24.77,61.4 24.77,61.58 24.95,61.58 24.95,61.76 24.95,61.94 24.95,62.12 24.77,62.12 24.77,61.94 
	24.59,61.76 24.41,61.76 24.41,61.94 24.41,62.12 24.41,62.3 24.23,62.48 24.41,62.66 24.23,62.66 24.23,62.84 24.05,63.02 
	23.87,63.02 23.69,63.02 23.51,63.02 23.33,62.84 23.15,62.84 22.97,62.84 22.97,62.66 22.79,62.66 22.61,62.48 22.43,62.48 
	22.43,62.66 22.25,62.66 22.07,62.66 22.07,62.84 21.89,62.84 21.89,63.02 21.89,63.2 21.71,63.2 21.71,63.38 21.53,63.38 
	21.53,63.56 21.53,63.74 21.35,63.92 21.53,63.92 21.53,64.1 21.71,64.1 21.89,64.1 22.07,64.1 22.07,64.28 22.07,64.46 
	22.25,64.46 22.43,64.46 22.61,64.28 22.79,64.28 22.79,64.46 22.79,64.82 22.61,64.82 22.61,65 22.43,65.18 22.25,65.18 
	22.25,65.35 22.07,65.35 21.89,65.35 21.71,65.18 21.53,65.18 21.53,65 21.53,64.82 21.71,64.82 21.71,64.64 21.53,64.64 
	21.53,64.46 21.35,64.46 21.17,64.46 20.99,64.46 20.81,64.46 20.63,64.46 20.45,64.46 20.27,64.46 20.27,64.28 20.27,64.1 
	20.45,64.1 20.63,63.92 20.63,63.74 20.45,63.74 20.27,63.74 19.91,63.74 19.73,63.74 19.55,63.74 19.55,63.56 19.19,63.56 
	19.01,63.56 19.01,63.38 18.83,63.38 18.65,63.38 18.47,63.38 18.47,63.2 18.47,63.02 18.47,62.84 18.29,62.84 18.29,62.66 
	18.11,62.84 17.76,62.84 17.58,62.66 17.76,62.48 17.76,62.12 17.94,62.12 18.11,61.94 18.29,61.76 18.11,61.58 17.94,61.4 
	17.76,61.4 17.58,61.22 17.4,61.22 17.22,61.22 17.04,61.04 17.04,60.86 16.86,60.68 16.86,60.5 16.68,60.32 16.68,60.14 
	16.68,59.96 16.68,59.78 16.68,59.6 16.5,59.42 16.32,59.42 16.14,59.42 15.96,59.42 15.78,59.24 15.6,59.06 15.42,58.88 
	15.24,58.88 15.06,58.88 14.88,58.88 14.7,58.7 14.34,58.7 14.34,58.88 14.16,58.88 13.98,58.88 13.62,58.88 13.44,59.06 
	13.26,59.06 13.08,59.24 12.9,59.24 12.72,59.24 12.72,59.06 12.9,58.88 13.08,58.88 12.9,58.7 13.08,58.52 12.9,58.52 12.9,58.34 
	12.9,58.17 12.72,57.99 12.72,57.81 12.54,57.63 12.54,57.45 12.36,57.27 12.18,57.27 12,57.09 11.82,57.09 11.64,57.09 
	11.46,57.09 11.28,56.91 11.1,56.91 10.92,56.73 10.75,56.73 10.57,56.91 10.39,56.91 10.39,56.73 10.21,56.73 10.03,56.55 
	9.85,56.55 9.49,56.55 9.31,56.55 9.13,56.37 8.95,56.37 8.77,56.37 8.59,56.19 8.59,56.01 8.59,55.83 8.59,55.65 8.41,55.47 
	8.41,55.11 8.23,54.93 8.05,54.75 7.87,54.57 7.51,54.21 7.51,54.03 7.33,54.03 7.33,53.85 7.33,53.49 7.33,53.31 7.33,53.13 
	7.33,52.95 7.51,52.77 7.51,52.59 7.69,52.59 7.87,52.41 7.87,52.23 8.23,52.05 8.41,51.87 8.59,51.87 8.59,51.51 8.41,51.51 
	8.23,51.33 8.05,51.16 7.87,51.16 7.69,51.16 7.69,51.33 7.51,51.33 7.33,51.51 7.15,51.33 6.97,51.33 6.79,51.33 6.61,51.16 
	6.43,50.98 6.43,50.8 6.61,50.62 6.43,50.44 6.61,50.26 6.61,50.08 6.79,49.72 6.61,49.54 6.61,49.18 6.79,48.82 6.79,48.1 
	6.79,47.92 6.61,47.74 6.61,47.56 6.97,47.38 6.97,47.2 6.97,47.02 6.97,46.84 6.97,46.66 6.79,46.48 6.97,46.12 7.33,45.94 
	8.05,45.94 8.77,45.94 9.13,46.12 9.31,46.12 9.49,46.3 9.49,46.66 9.49,46.84 9.49,47.2 9.49,47.38 9.31,47.74 9.49,47.92 
	9.49,48.1 9.67,48.28 9.85,48.28 10.21,48.28 10.39,48.1 10.57,47.74 10.57,47.38 10.75,47.02 10.75,46.66 10.92,46.48 11.1,46.48 
	11.1,46.3 11.28,46.12 11.46,45.94 11.64,45.76 11.82,45.76 12,45.58 12.18,45.4 12.36,45.4 12.54,45.22 12.54,45.04 12.72,45.04 
	12.72,44.86 12.72,44.68 12.72,44.5 12.72,44.32 12.54,43.97 12.36,43.61 12.18,43.61 11.64,43.07 11.28,42.89 10.57,42.35 
	10.03,41.99 9.85,41.81 9.67,41.63 9.67,41.27 9.67,40.91 9.49,40.73 8.77,40.19 8.59,40.01 8.41,39.83 6.97,39.11 5.89,38.57 
	5.35,38.03 5.35,37.85 4.81,37.67 4.09,37.67 3.73,37.85 3.56,38.03 3.38,38.03 3.38,37.85 3.38,37.67 3.38,37.49 3.38,37.31 
	3.38,37.14 3.38,36.96 3.38,36.78 3.2,36.6 3.2,36.42 3.2,36.24 3.02,36.24 2.84,36.06 2.84,35.88 2.84,35.7 2.84,35.52 2.84,35.34 
	2.84,35.16 2.84,34.98 2.84,34.8 2.84,34.62 3.02,34.62 3.2,34.62 3.38,34.62 3.38,34.8 3.56,34.98 3.73,34.98 3.91,34.8 
	4.09,34.62 4.27,34.8 4.45,34.8 4.45,34.62 4.27,34.44 4.27,34.26 4.45,34.08 4.63,34.26 4.63,34.44 4.81,34.62 4.81,34.44 
	4.99,34.26 4.99,34.08 5.17,34.08 5.35,34.26 5.35,34.44 5.53,34.44 5.53,34.26 5.53,34.08 5.53,33.9 5.35,33.9 5.53,33.72 
	5.71,33.72 5.71,33.9 6.07,33.9 6.07,33.72 6.25,33.54 6.25,33.36 6.07,33.36 6.07,33.18 6.07,33 6.25,33 6.43,33 6.43,32.82 
	6.43,32.64 6.43,32.46 6.43,32.28 6.25,32.1 6.43,31.92 6.61,31.92 6.79,31.74 6.79,31.56 6.61,31.56 6.43,31.38 6.43,31.2 
	6.43,31.02 6.61,31.02 6.61,30.84 6.61,30.66 6.79,30.48 6.61,30.12 6.61,29.95 6.61,29.77 6.61,29.59 6.61,29.41 6.43,29.23 
	6.43,29.05 6.25,28.87 6.07,28.69 5.89,28.51 5.89,28.33 5.71,28.33 5.53,28.15 5.35,27.97 5.17,27.97 4.99,27.97 4.81,27.79 
	4.63,27.79 4.45,27.61 4.27,27.43 4.09,27.43 3.91,27.43 3.73,27.43 3.56,27.43 3.38,27.25 3.2,27.25 3.02,27.25 2.84,27.25 
	2.66,27.25 2.48,27.25 2.3,27.25 2.12,27.07 1.94,27.07 1.94,26.89 1.22,25.81 1.04,25.63 1.04,25.45 1.04,25.27 1.04,25.09 
	1.04,24.91 1.04,24.55 1.04,24.37 1.04,24.19 1.04,23.83 1.22,23.47 1.58,23.11 2.3,22.76 2.48,22.58 3.02,22.04 3.2,21.86 
	3.2,21.68 3.38,21.5 4.81,20.06 4.81,19.88 4.99,19.7 5.53,18.8 5.53,18.62 5.53,18.44 5.71,18.26 5.71,18.08 6.07,17.72 
	6.07,17.54 6.25,17.54 6.43,17.54 6.61,17.36 6.79,17.18 6.97,17 7.15,17 7.33,16.82 7.51,16.82 7.69,16.64 7.87,16.64 8.05,16.64 
	8.95,16.64 9.67,16.64 9.85,16.64 10.03,16.64 10.21,16.64 10.39,16.64 11.1,16.64 11.28,16.64 11.46,16.46 11.64,16.46 
	11.82,16.46 12,16.46 12.18,16.28 12.36,16.28 12.54,16.28 12.72,16.1 12.9,16.1 13.08,16.1 13.8,15.93 13.98,15.93 14.16,15.75 
	14.34,15.75 14.52,15.75 16.32,15.03 16.5,15.03 16.68,15.03 16.86,14.85 17.04,14.85 17.22,14.85 17.4,14.85 17.58,15.03 
	17.76,15.03 17.94,15.03 18.11,15.03 18.83,15.39 19.01,15.57 19.19,15.57 19.37,15.57 19.55,15.75 20.09,16.1 20.27,16.1 
	20.45,16.28 20.63,16.28 20.81,16.46 20.99,16.46 21.17,16.64 "/>
</svg>
