<?xml version="1.0" encoding="utf-8"?>
<!-- Generator: Adobe Illustrator 24.2.1, SVG Export Plug-In . SVG Version: 6.00 Build 0)  -->
<svg version="1.1" id="Layer_1" xmlns="http://www.w3.org/2000/svg" xmlns:xlink="http://www.w3.org/1999/xlink" x="0px" y="0px"
	 viewBox="0 0 97.23 97.23" style="enable-background:new 0 0 97.23 97.23;" xml:space="preserve">
<style type="text/css">
	.st0{fill-rule:evenodd;clip-rule:evenodd;}
</style>
<polygon class="st0" points="55.92,18.05 56.02,18.15 56.02,18.25 55.92,18.25 55.92,18.35 56.02,18.35 56.02,18.45 56.02,18.54 
	56.02,18.64 56.02,18.74 56.11,18.74 56.11,18.84 56.11,18.94 56.02,18.94 55.92,18.94 55.92,19.04 55.82,19.04 55.82,18.94 
	55.82,19.04 55.72,19.04 55.82,19.04 55.72,19.04 55.72,19.14 55.72,19.24 55.72,19.34 55.62,19.34 55.62,19.44 55.72,19.44 
	55.62,19.44 55.62,19.54 55.72,19.54 55.72,19.63 55.82,19.63 55.72,19.63 55.82,19.63 55.82,19.73 55.92,19.73 55.92,19.83 
	55.92,19.93 55.82,19.93 55.82,20.03 55.72,20.03 55.72,20.13 55.82,20.13 55.72,20.13 55.72,20.23 55.72,20.33 55.62,20.33 
	55.62,20.43 55.62,20.53 55.52,20.53 55.52,20.63 55.42,20.63 55.42,20.73 55.32,20.73 55.32,20.82 55.32,20.92 55.32,21.02 
	55.32,21.12 55.22,21.12 55.12,21.12 55.02,21.12 55.02,21.22 54.93,21.22 54.93,21.32 54.83,21.42 54.73,21.42 54.73,21.52 
	54.73,21.62 54.73,21.72 54.83,21.72 54.83,21.82 54.93,21.82 55.02,21.82 55.12,21.82 55.22,21.82 55.22,21.91 55.32,21.91 
	55.42,22.01 55.52,22.01 55.62,22.01 55.62,21.91 55.72,21.91 55.82,21.91 55.82,22.01 55.72,22.01 55.72,22.11 55.72,22.21 
	55.72,22.31 55.82,22.31 55.92,22.31 56.02,22.21 56.11,22.21 56.21,22.31 56.21,22.41 56.21,22.51 56.21,22.61 56.31,22.61 
	56.31,22.71 56.41,22.71 56.51,22.71 56.51,22.61 56.61,22.61 56.71,22.61 56.71,22.71 56.81,22.71 56.81,22.61 56.91,22.61 
	57.01,22.61 57.01,22.71 57.11,22.71 57.2,22.71 57.3,22.71 57.4,22.71 57.4,22.61 57.4,22.51 57.4,22.41 57.3,22.41 57.3,22.31 
	57.2,22.31 57.2,22.21 57.3,22.21 57.3,22.11 57.4,22.11 57.4,22.01 57.5,22.01 57.5,22.11 57.6,22.11 57.6,22.21 57.7,22.31 
	57.8,22.41 57.8,22.51 57.9,22.51 57.9,22.61 58,22.61 58,22.71 57.9,22.71 57.9,22.81 57.9,22.91 57.8,23 57.7,23 57.7,23.1 
	57.7,23.2 57.7,23.3 57.7,23.4 57.7,23.5 57.8,23.5 57.9,23.5 58,23.5 58,23.6 58,23.7 58.1,23.8 58.2,23.8 58.2,23.7 58.1,23.7 
	58.1,23.6 58.2,23.6 58.2,23.5 58.3,23.5 58.39,23.6 58.39,23.7 58.39,23.8 58.39,23.9 58.49,23.9 58.49,24 58.39,24 58.3,24 
	58.2,23.9 58.2,24 58.2,24.1 58.1,24.1 58.1,24.19 58.2,24.29 58.3,24.29 58.49,24.19 58.59,24.29 58.59,24.39 58.59,24.49 
	58.69,24.59 58.59,24.59 58.49,24.69 58.49,24.79 58.59,24.79 58.69,24.79 58.79,24.79 58.89,24.79 58.99,24.79 58.99,24.89 
	58.99,24.99 58.89,24.99 58.79,24.99 58.79,24.89 58.69,24.89 58.69,24.99 58.69,25.09 58.69,25.19 58.69,25.28 58.59,25.28 
	58.59,25.38 58.59,25.48 58.69,25.48 58.79,25.48 58.89,25.48 58.99,25.38 58.99,25.28 59.09,25.28 59.09,25.19 59.19,25.09 
	59.29,25.09 59.29,24.99 59.39,24.99 59.29,24.89 59.39,24.89 59.39,24.79 59.48,24.79 59.58,24.89 59.68,24.99 59.68,25.09 
	59.78,25.09 59.78,24.99 59.88,24.99 59.88,24.89 59.88,24.79 59.78,24.79 59.78,24.69 59.88,24.69 59.88,24.59 59.98,24.59 
	59.98,24.49 60.08,24.49 60.08,24.59 60.18,24.59 60.18,24.69 60.28,24.69 60.38,24.69 60.48,24.69 60.48,24.79 60.58,24.79 
	60.58,24.69 60.67,24.69 60.77,24.69 60.87,24.79 60.87,24.89 60.87,24.99 60.87,25.09 60.77,25.09 60.77,25.19 60.67,25.19 
	60.67,25.09 60.58,25.09 60.48,24.99 60.38,24.99 60.38,25.09 60.28,25.09 60.28,25.19 60.38,25.19 60.38,25.28 60.48,25.28 
	60.48,25.38 60.58,25.38 60.67,25.48 60.67,25.58 60.67,25.68 60.77,25.78 60.77,25.88 60.77,25.98 60.77,26.08 60.77,26.18 
	60.87,26.28 60.87,26.37 60.87,26.47 60.97,26.47 61.07,26.37 61.17,26.28 61.07,26.18 61.07,26.08 61.07,25.98 61.17,25.98 
	61.27,25.98 61.37,26.08 61.37,26.18 61.47,26.18 61.57,26.18 61.57,26.08 61.57,25.98 61.67,25.98 61.76,25.98 61.76,26.08 
	61.76,26.18 61.67,26.28 61.67,26.37 61.67,26.47 61.57,26.57 61.67,26.67 61.76,26.67 61.76,26.57 61.86,26.57 61.86,26.47 
	61.96,26.47 62.06,26.37 62.16,26.37 62.16,26.47 62.16,26.57 62.26,26.57 62.36,26.57 62.36,26.67 62.36,26.77 62.26,26.77 
	62.16,26.77 62.16,26.87 62.16,26.97 62.26,26.97 62.26,27.07 62.26,27.17 62.16,27.17 62.06,27.17 62.16,27.17 62.16,27.27 
	62.26,27.27 62.26,27.17 62.36,27.17 62.46,27.07 62.56,27.07 62.66,27.17 62.66,27.27 62.56,27.37 62.66,27.37 62.76,27.37 
	62.76,27.46 62.85,27.46 62.85,27.37 62.85,27.27 62.76,27.27 62.76,27.17 62.76,27.07 62.85,27.07 62.95,27.07 62.95,27.17 
	62.95,27.27 63.05,27.27 63.15,27.27 63.25,27.27 63.35,27.37 63.55,27.37 63.55,27.46 63.55,27.37 63.75,27.27 63.85,27.27 
	63.85,27.17 63.95,27.17 64.04,27.17 64.04,27.27 64.04,27.37 64.14,27.46 64.14,27.56 64.04,27.66 63.95,27.76 63.85,27.86 
	63.75,27.86 63.75,27.96 63.85,27.96 63.85,28.06 63.95,28.06 63.95,27.96 64.04,27.96 64.14,27.86 64.24,27.86 64.24,27.76 
	64.34,27.66 64.34,27.56 64.44,27.56 64.54,27.56 64.64,27.56 64.64,27.66 64.74,27.76 64.84,27.76 64.74,27.66 64.74,27.56 
	64.64,27.56 64.74,27.46 64.74,27.37 64.84,27.37 65.04,27.37 65.23,27.37 65.33,27.37 65.33,27.46 65.33,27.56 65.43,27.56 
	65.53,27.56 65.63,27.46 65.73,27.46 65.83,27.46 65.83,27.56 65.73,27.66 65.73,27.76 65.63,27.86 65.63,27.96 65.63,28.06 
	65.73,28.06 65.83,28.06 65.83,28.16 65.93,28.16 66.03,28.16 66.03,28.26 66.03,28.36 66.03,28.46 66.13,28.46 66.32,28.36 
	66.52,28.16 66.62,28.06 66.72,27.86 66.82,27.76 66.82,27.66 66.92,27.46 66.92,27.37 67.02,27.27 67.12,27.27 67.22,27.27 
	67.32,27.27 67.41,27.27 67.51,27.27 67.61,27.27 67.61,27.17 67.61,27.07 67.61,26.97 67.41,26.87 67.41,26.77 67.51,26.77 
	67.61,26.77 67.71,26.77 67.81,26.77 67.81,26.67 67.91,26.67 68.01,26.47 68.01,26.37 68.11,26.37 68.11,26.47 68.21,26.47 
	68.31,26.47 68.31,26.57 68.31,26.47 68.31,26.37 68.21,26.37 68.21,26.28 68.21,26.18 68.31,26.18 68.41,26.18 68.5,26.18 
	68.6,26.18 68.7,26.28 68.8,26.28 68.9,26.28 68.9,26.18 68.9,25.98 69,25.98 69,25.88 69,25.78 69.1,25.78 69.1,25.88 69.2,25.98 
	69.2,26.08 69.3,26.08 69.4,26.08 69.4,25.98 69.5,25.98 69.5,25.88 69.4,25.68 69.4,25.58 69.5,25.58 69.5,25.68 69.6,25.68 
	69.6,25.78 69.69,25.78 69.79,25.78 69.89,25.78 69.99,25.68 70.09,25.68 70.09,25.78 69.99,25.98 70.09,26.08 70.19,26.08 
	70.29,26.08 70.39,26.08 70.49,25.98 70.59,25.98 70.69,25.98 70.78,25.98 70.88,26.08 70.98,26.08 70.98,26.18 71.08,26.28 
	71.08,26.47 71.18,26.47 71.18,26.57 71.28,26.67 71.38,26.67 71.48,26.67 71.48,26.77 71.58,26.77 71.58,26.67 71.58,26.57 
	71.58,26.47 71.58,26.37 71.68,26.37 71.78,26.37 71.87,26.28 71.97,26.28 72.07,26.28 72.17,26.28 72.17,26.37 72.17,26.47 
	72.27,26.47 72.27,26.57 72.17,26.67 72.07,26.67 71.97,26.77 71.87,26.77 71.78,26.77 71.68,26.77 71.58,26.87 71.58,26.97 
	71.58,27.07 71.48,27.07 71.48,27.17 71.58,27.17 71.58,27.27 71.68,27.27 71.78,27.37 71.87,27.37 71.97,27.37 71.97,27.46 
	72.07,27.46 72.17,27.46 72.27,27.46 72.27,27.37 72.37,27.37 72.37,27.46 72.37,27.56 72.47,27.56 72.47,27.66 72.47,27.76 
	72.57,27.76 72.67,27.66 72.77,27.56 72.77,27.46 72.87,27.37 72.97,27.37 72.97,27.46 73.06,27.56 73.06,27.66 73.16,27.66 
	73.16,27.56 73.26,27.46 73.26,27.37 73.26,27.27 73.36,27.27 73.46,27.27 73.56,27.27 73.66,27.27 73.66,27.37 73.76,27.37 
	73.76,27.46 73.76,27.56 73.76,27.66 73.76,27.76 73.86,27.76 73.96,27.76 73.96,27.66 74.06,27.66 74.06,27.56 74.06,27.46 
	74.06,27.37 74.06,27.27 73.96,27.17 73.86,27.07 73.96,27.07 73.96,26.97 74.06,26.97 74.15,26.97 74.25,26.97 74.25,26.87 
	74.35,26.87 74.35,26.77 74.25,26.77 74.25,26.67 74.15,26.67 74.15,26.57 74.06,26.57 74.06,26.47 74.15,26.47 74.15,26.37 
	74.25,26.28 74.25,26.18 74.35,26.18 74.45,26.18 74.55,26.18 74.55,26.28 74.55,26.37 74.65,26.37 74.65,26.47 74.75,26.47 
	74.75,26.37 74.85,26.28 74.95,26.18 75.05,26.18 75.15,26.18 75.15,26.08 75.05,26.08 75.05,25.98 74.95,25.98 74.85,25.98 
	74.75,25.98 74.65,25.98 74.55,25.88 74.65,25.88 74.65,25.78 74.75,25.68 74.75,25.58 74.85,25.58 74.95,25.58 75.05,25.58 
	75.15,25.68 75.15,25.88 75.24,25.98 75.24,26.08 75.34,26.08 75.44,26.08 75.54,26.08 75.64,26.08 75.74,26.08 75.74,25.98 
	75.84,25.98 75.84,25.88 75.94,25.88 75.94,25.98 75.94,26.08 76.04,26.08 76.04,25.98 76.14,25.98 76.24,25.98 76.34,25.98 
	76.34,26.08 76.34,26.18 76.34,26.28 76.34,26.37 76.43,26.37 76.43,26.47 76.43,26.57 76.34,26.57 76.24,26.67 76.14,26.67 
	76.14,26.77 76.24,26.77 76.24,26.87 76.34,26.97 76.43,26.97 76.43,27.07 76.53,27.07 76.63,27.07 76.73,27.07 76.73,26.97 
	76.83,26.97 76.93,26.97 76.93,27.07 77.03,27.07 77.13,27.17 77.13,27.37 77.13,27.46 77.23,27.46 77.33,27.46 77.33,27.37 
	77.33,27.27 77.43,27.17 77.52,27.17 77.52,27.27 77.62,27.27 77.62,27.37 77.62,27.46 77.62,27.56 77.72,27.66 77.82,27.66 
	77.92,27.66 77.92,27.56 77.92,27.37 77.92,27.27 78.02,27.27 78.12,27.27 78.12,27.37 78.12,27.46 78.12,27.56 78.12,27.66 
	78.12,27.76 78.02,27.76 78.02,27.86 77.92,27.86 77.82,27.86 77.82,27.96 77.82,28.06 77.82,28.16 77.82,28.26 77.92,28.36 
	78.02,28.46 78.12,28.46 78.12,28.36 78.22,28.36 78.22,28.46 78.22,28.56 78.02,28.65 77.92,28.65 77.92,28.56 77.82,28.56 
	77.72,28.56 77.72,28.46 77.62,28.46 77.62,28.56 77.52,28.56 77.52,28.65 77.43,28.65 77.33,28.65 77.23,28.65 77.23,28.56 
	77.13,28.56 77.03,28.56 76.93,28.56 76.93,28.46 76.83,28.46 76.83,28.56 76.73,28.56 76.63,28.65 76.63,28.75 76.73,28.85 
	76.63,28.95 76.53,28.95 76.43,28.85 76.34,28.85 76.24,28.85 76.24,28.95 76.24,29.05 76.34,29.05 76.24,29.25 76.24,29.35 
	76.24,29.25 76.14,29.25 76.04,29.15 75.94,29.15 75.84,29.15 75.84,29.25 75.84,29.35 75.94,29.45 75.94,29.55 75.94,29.65 
	75.84,29.65 75.84,29.74 75.84,29.84 75.74,29.94 75.64,30.14 75.64,30.24 75.74,30.34 75.84,30.34 75.84,30.44 75.84,30.54 
	75.74,30.54 75.74,30.64 75.74,30.74 75.64,30.74 75.54,30.74 75.44,30.74 75.34,30.74 75.24,30.64 75.24,30.54 75.15,30.54 
	75.05,30.44 74.95,30.44 74.85,30.34 74.75,30.34 74.65,30.34 74.65,30.44 74.75,30.54 74.75,30.64 74.85,30.64 74.95,30.64 
	75.05,30.64 75.05,30.74 75.05,30.83 74.95,30.83 74.95,30.93 74.85,30.93 74.75,30.93 74.75,31.03 74.65,31.03 74.65,31.13 
	74.55,31.23 74.45,31.43 74.45,31.53 74.45,31.63 74.35,31.83 74.35,31.93 74.35,32.02 74.35,32.12 74.35,32.22 74.35,32.32 
	74.35,32.42 74.45,32.42 74.45,32.52 74.45,32.62 74.55,32.62 74.55,32.72 74.55,32.82 74.45,32.92 74.35,32.92 74.25,33.02 
	74.15,33.02 74.06,33.11 74.06,33.21 74.06,33.31 74.15,33.41 74.25,33.41 74.35,33.41 74.45,33.41 74.45,33.51 74.45,33.61 
	74.45,33.71 74.35,33.71 74.25,33.71 74.15,33.71 74.15,33.61 74.06,33.61 73.96,33.51 73.86,33.51 73.76,33.61 73.66,33.71 
	73.56,33.81 73.56,33.91 73.56,34.01 73.56,34.11 73.56,34.2 73.56,34.3 73.56,34.4 73.56,34.5 73.46,34.6 73.46,34.7 73.56,34.7 
	73.56,34.8 73.66,34.7 73.76,34.7 73.86,34.7 74.06,34.8 74.06,34.9 74.06,35 74.06,35.1 74.06,35.2 74.06,35.3 73.96,35.3 
	73.96,35.39 73.86,35.49 73.76,35.49 73.76,35.59 73.76,35.69 73.66,35.79 73.66,35.89 73.76,35.89 73.76,35.99 73.76,36.09 
	73.86,36.09 73.86,36.19 73.96,36.19 74.06,36.19 74.06,36.29 74.15,36.39 74.15,36.48 74.06,36.48 73.96,36.58 73.96,36.78 
	73.86,36.78 73.76,36.78 73.66,36.78 73.66,36.88 73.76,36.88 73.76,36.98 73.86,36.98 73.96,37.18 73.96,37.28 74.06,37.28 
	74.15,37.38 74.15,37.48 74.15,37.57 74.06,37.57 73.96,37.57 73.86,37.57 73.96,37.57 73.96,37.67 73.96,37.77 73.96,37.87 
	73.96,37.97 73.96,38.07 73.86,38.07 73.96,38.17 73.96,38.27 74.06,38.27 74.06,38.17 74.15,38.17 74.25,38.17 74.25,38.27 
	74.25,38.37 74.35,38.47 74.45,38.47 74.45,38.57 74.35,38.67 74.25,38.67 74.15,38.67 74.15,38.76 74.06,38.76 74.06,38.86 
	74.06,38.96 74.15,38.96 74.15,39.06 74.06,39.16 74.06,39.36 73.96,39.36 74.06,39.46 74.06,39.56 74.15,39.46 74.25,39.46 
	74.35,39.36 74.45,39.26 74.55,39.26 74.65,39.26 74.85,39.36 74.95,39.46 74.85,39.56 74.85,39.66 74.85,39.76 74.85,39.85 
	74.75,39.85 74.65,39.85 74.55,39.85 74.45,39.76 74.35,39.76 74.35,39.85 74.35,39.95 74.35,40.15 74.35,40.25 74.35,40.35 
	74.35,40.45 74.35,40.55 74.25,40.55 74.25,40.65 74.15,40.75 74.15,40.85 74.25,40.85 74.35,40.85 74.35,40.75 74.35,40.65 
	74.45,40.65 74.55,40.65 74.55,40.55 74.65,40.55 74.65,40.45 74.75,40.45 74.75,40.35 74.85,40.35 74.85,40.45 74.95,40.45 
	74.95,40.55 74.95,40.65 74.85,40.65 74.75,40.75 74.65,40.85 74.65,40.94 74.55,41.04 74.55,41.14 74.55,41.24 74.45,41.24 
	74.45,41.34 74.45,41.44 74.35,41.44 74.15,41.44 74.15,41.54 74.06,41.54 73.96,41.54 73.96,41.64 73.86,41.84 73.96,41.94 
	74.06,42.03 74.15,42.03 74.25,42.13 74.35,42.03 74.45,42.03 74.55,42.03 74.55,42.13 74.75,42.23 74.95,42.43 75.05,42.53 
	75.15,42.53 75.15,42.63 75.15,42.73 75.24,42.83 75.34,42.93 75.34,43.03 75.24,43.03 75.15,43.13 75.15,43.22 75.05,43.22 
	75.05,43.32 75.05,43.42 75.05,43.52 75.05,43.62 74.95,43.62 74.95,43.72 74.85,43.72 74.75,43.92 74.65,43.92 74.45,44.02 
	74.35,44.02 74.25,43.92 74.15,43.92 73.96,43.82 73.86,43.82 73.86,43.92 73.86,44.02 73.96,44.02 74.06,43.92 74.06,44.02 
	74.06,44.12 73.86,44.12 73.86,44.22 73.76,44.31 73.76,44.41 73.76,44.51 73.76,44.61 73.66,44.61 73.66,44.51 73.56,44.51 
	73.56,44.61 73.66,44.61 73.66,44.71 73.66,44.81 73.66,44.91 73.56,45.01 73.56,45.21 73.46,45.31 73.46,45.4 73.26,45.4 
	73.16,45.4 73.26,45.5 73.36,45.5 73.46,45.5 73.66,45.5 73.76,45.5 73.96,45.8 74.06,45.9 74.06,46 74.15,46 74.25,46 74.25,46.1 
	74.25,46.3 74.15,46.4 74.06,46.3 74.06,46.2 73.96,46.2 73.86,46.3 73.86,46.4 73.86,46.5 73.96,46.5 74.06,46.59 74.15,46.59 
	74.15,46.5 74.25,46.59 74.35,46.59 74.35,46.69 74.45,46.79 74.45,46.89 74.45,46.99 74.35,46.99 74.25,46.99 74.15,46.99 
	74.06,46.99 74.06,46.89 73.96,46.89 73.86,46.89 73.86,46.99 73.86,47.09 73.86,47.19 73.96,47.29 74.06,47.29 74.25,47.29 
	74.35,47.19 74.35,47.29 74.35,47.39 74.25,47.39 74.15,47.39 74.06,47.49 73.96,47.49 73.86,47.49 73.76,47.68 73.76,47.78 
	73.66,47.98 73.66,48.18 73.76,48.18 73.86,48.18 73.96,48.18 74.06,48.28 73.96,48.48 73.96,48.58 74.06,48.68 74.06,48.77 
	74.06,48.87 74.15,48.97 74.15,48.87 74.25,48.87 74.35,48.97 74.35,49.07 74.25,49.07 74.25,49.17 74.15,49.17 74.06,49.17 
	74.06,49.27 74.15,49.27 74.25,49.37 74.15,49.47 74.15,49.57 74.15,49.67 74.25,49.77 74.15,49.77 74.06,49.77 74.06,49.87 
	73.96,49.87 73.96,49.96 73.96,50.06 73.86,50.06 73.76,50.16 73.86,50.26 73.76,50.26 73.76,50.36 73.66,50.36 73.56,50.36 
	73.46,50.36 73.46,50.46 73.36,50.36 73.26,50.36 73.16,50.36 73.16,50.26 73.06,50.16 73.06,50.26 72.97,50.26 72.87,50.26 
	72.87,50.36 72.87,50.46 72.77,50.56 72.77,50.66 72.87,50.66 72.97,50.66 73.06,50.66 72.97,50.76 72.87,50.86 72.97,50.96 
	72.97,51.05 72.97,51.15 72.87,51.15 72.87,51.05 72.77,51.05 72.77,51.15 72.77,51.25 72.67,51.25 72.67,51.35 72.77,51.35 
	72.77,51.45 72.77,51.35 72.87,51.35 72.87,51.45 72.97,51.45 73.06,51.45 73.06,51.55 72.97,51.55 72.87,51.65 72.87,51.75 
	72.87,51.85 72.67,51.85 72.57,51.75 72.47,51.75 72.17,51.75 72.17,51.85 72.27,51.85 72.27,51.95 72.27,52.05 72.37,52.14 
	72.37,52.24 72.27,52.24 72.17,52.24 72.07,52.24 72.07,52.34 72.07,52.44 71.97,52.44 71.87,52.44 71.87,52.54 71.87,52.64 
	71.78,52.64 71.68,52.74 71.68,52.84 71.68,52.94 71.78,52.94 71.78,53.04 71.87,53.04 71.97,53.04 71.97,53.14 71.87,53.14 
	71.78,53.14 71.68,53.14 71.58,53.14 71.48,53.14 71.48,53.24 71.58,53.24 71.68,53.24 71.68,53.33 71.68,53.43 71.58,53.43 
	71.58,53.53 71.48,53.63 71.48,53.73 71.48,53.83 71.38,53.83 71.38,53.73 71.38,53.63 71.28,53.63 71.18,53.63 71.08,53.63 
	71.08,53.73 70.98,53.73 70.98,53.83 70.88,53.83 70.78,53.83 70.69,54.03 70.59,54.13 70.59,54.23 70.59,54.33 70.59,54.42 
	70.49,54.42 70.49,54.52 70.39,54.52 70.29,54.62 70.29,54.72 70.29,54.82 70.19,54.82 70.19,54.92 70.09,54.92 70.09,55.02 
	69.99,54.92 69.79,54.92 69.6,55.02 69.5,55.02 69.5,55.12 69.6,55.12 69.69,55.12 69.79,55.32 69.89,55.42 69.79,55.51 
	69.69,55.42 69.69,55.51 69.6,55.61 69.5,55.61 69.3,55.61 69.2,55.51 69.3,55.51 69.3,55.42 69.2,55.42 69.1,55.42 69.1,55.32 
	69,55.32 69,55.42 68.9,55.42 68.8,55.42 68.6,55.51 68.6,55.61 68.5,55.61 68.5,55.71 68.41,55.71 68.31,55.71 68.31,55.81 
	68.31,55.91 68.31,56.01 68.21,56.11 68.21,56.21 68.21,56.31 68.31,56.31 68.31,56.41 68.21,56.31 68.11,56.31 68.01,56.31 
	68.01,56.41 67.91,56.51 68.01,56.51 68.01,56.6 68.01,56.7 67.91,56.7 67.91,56.6 67.91,56.51 67.81,56.51 67.71,56.51 67.71,56.6 
	67.71,56.7 67.71,56.8 67.61,56.8 67.61,56.9 67.61,56.8 67.61,56.7 67.51,56.7 67.51,56.8 67.41,56.8 67.32,56.8 67.22,56.7 
	67.22,56.8 67.12,56.8 67.22,56.8 67.22,56.9 67.12,56.9 67.02,56.9 67.02,56.8 67.02,56.7 66.92,56.7 66.92,56.6 66.82,56.7 
	66.72,56.7 66.62,56.8 66.62,56.9 66.52,56.9 66.62,56.9 66.72,56.9 66.72,57 66.72,57.1 66.82,57.1 66.82,57.2 66.82,57.3 
	66.82,57.5 66.82,57.6 66.82,57.7 66.82,57.89 66.82,57.99 66.72,58.09 66.72,58.19 66.82,58.19 66.72,58.29 66.62,58.29 
	66.72,58.29 66.62,58.29 66.52,58.29 66.42,58.29 66.32,58.29 66.23,58.29 66.23,58.39 66.32,58.49 66.23,58.69 66.13,58.79 
	66.03,58.79 65.93,58.79 65.93,58.88 65.93,58.98 65.93,59.08 65.83,59.08 65.73,59.08 65.83,58.98 65.73,58.98 65.63,58.98 
	65.53,59.08 65.53,59.18 65.43,59.18 65.43,59.28 65.53,59.28 65.53,59.38 65.53,59.48 65.63,59.58 65.63,59.68 65.53,59.78 
	65.53,59.88 65.53,59.97 65.53,60.07 65.63,60.07 65.63,59.97 65.73,60.07 65.73,60.17 65.83,60.17 65.93,60.17 65.93,60.27 
	65.93,60.37 65.93,60.47 65.83,60.47 65.83,60.57 65.83,60.77 65.83,60.67 65.73,60.67 65.63,60.67 65.63,60.77 65.73,60.77 
	65.83,60.87 65.93,60.97 65.93,61.07 65.83,61.07 65.83,60.97 65.73,60.97 65.73,61.07 65.83,61.07 65.83,61.16 65.83,61.26 
	65.83,61.36 65.73,61.46 65.73,61.56 65.73,61.66 65.73,61.76 65.73,61.86 65.63,61.86 65.63,61.96 65.73,62.06 65.73,62.16 
	65.73,62.25 65.73,62.35 65.63,62.25 65.63,62.35 65.63,62.45 65.53,62.55 65.53,62.65 65.53,62.75 65.53,62.85 65.63,62.85 
	65.63,62.75 65.73,62.85 65.63,62.85 65.63,62.95 65.53,62.95 65.43,62.95 65.43,63.05 65.33,63.05 65.43,63.05 65.43,63.15 
	65.43,63.25 65.43,63.34 65.33,63.34 65.33,63.44 65.43,63.44 65.43,63.54 65.33,63.54 65.23,63.54 65.23,63.64 65.13,63.64 
	65.13,63.74 65.04,63.74 65.04,63.84 65.04,63.94 65.13,64.04 65.13,63.94 65.13,63.84 65.23,63.84 65.23,63.94 65.23,64.04 
	65.13,64.04 65.13,64.14 65.23,64.14 65.23,64.24 65.23,64.14 65.13,64.14 65.04,64.14 64.94,64.14 65.04,64.24 65.04,64.34 
	65.04,64.44 65.04,64.53 65.04,64.63 65.04,64.73 65.13,64.73 65.13,64.83 65.04,64.83 65.04,64.93 64.94,64.93 64.94,64.83 
	64.94,64.93 64.84,64.93 64.74,64.93 64.84,64.93 64.84,65.03 64.84,65.13 64.84,65.23 64.74,65.23 64.64,65.23 64.64,65.13 
	64.64,65.23 64.54,65.33 64.54,65.43 64.54,65.53 64.44,65.53 64.44,65.43 64.44,65.53 64.34,65.53 64.34,65.62 64.34,65.72 
	64.24,65.82 64.34,65.82 64.24,65.82 64.24,65.92 64.24,66.02 64.14,66.02 64.04,66.02 63.95,66.02 63.95,66.12 63.85,66.12 
	63.85,66.22 63.75,66.22 63.75,66.32 63.85,66.32 63.85,66.42 63.75,66.42 63.75,66.32 63.75,66.42 63.65,66.42 63.75,66.42 
	63.75,66.52 63.65,66.52 63.75,66.52 63.75,66.62 63.65,66.62 63.75,66.62 63.75,66.71 63.65,66.62 63.65,66.71 63.65,66.81 
	63.75,66.81 63.75,66.91 63.65,66.91 63.65,67.01 63.55,67.01 63.55,67.11 63.65,67.11 63.65,67.21 63.75,67.21 63.75,67.31 
	63.85,67.31 63.85,67.41 63.75,67.41 63.85,67.41 63.85,67.51 63.95,67.51 63.85,67.51 63.85,67.61 63.95,67.61 63.95,67.71 
	63.95,67.81 63.95,67.9 64.04,67.9 63.95,68 63.85,68 63.85,68.1 63.85,68.2 63.75,68.2 63.85,68.2 63.85,68.3 63.75,68.3 
	63.75,68.4 63.65,68.4 63.65,68.5 63.55,68.5 63.55,68.4 63.65,68.4 63.55,68.4 63.45,68.4 63.45,68.5 63.35,68.5 63.35,68.6 
	63.35,68.5 63.25,68.6 63.35,68.6 63.25,68.6 63.15,68.6 63.05,68.6 63.05,68.7 63.05,68.8 62.95,68.8 62.95,68.9 62.85,68.9 
	62.95,68.9 62.95,68.99 62.85,68.99 62.85,69.09 62.95,69.09 62.85,69.09 62.85,69.19 62.85,69.09 62.76,69.09 62.76,69.19 
	62.76,69.29 62.66,69.29 62.76,69.29 62.66,69.29 62.56,69.29 62.56,69.39 62.66,69.39 62.66,69.49 62.66,69.59 62.66,69.69 
	62.56,69.69 62.56,69.79 62.56,69.89 62.56,69.99 62.56,70.08 62.46,70.08 62.46,70.18 62.56,70.18 62.56,70.28 62.46,70.28 
	62.46,70.38 62.56,70.38 62.66,70.38 62.76,70.48 62.66,70.48 62.76,70.48 62.76,70.58 62.85,70.58 62.85,70.68 62.76,70.68 
	62.76,70.78 62.85,70.78 62.85,70.88 62.95,70.88 62.95,70.98 63.05,70.98 63.15,70.98 63.15,71.08 63.15,71.18 63.05,71.18 
	63.05,71.27 63.05,71.37 63.05,71.47 63.05,71.57 63.05,71.67 63.05,71.77 63.15,71.77 63.15,71.87 63.15,71.97 63.15,72.07 
	63.25,72.07 63.15,72.07 63.15,72.17 63.15,72.07 63.05,72.07 63.05,72.17 62.95,72.17 62.85,72.17 62.95,72.17 62.85,72.17 
	62.95,72.17 62.85,72.17 62.76,72.17 62.66,72.17 62.66,72.27 62.56,72.27 62.56,72.36 62.56,72.46 62.56,72.56 62.66,72.46 
	62.66,72.56 62.66,72.66 62.66,72.76 62.66,72.86 62.76,72.86 62.76,72.96 62.66,72.96 62.76,72.96 62.76,73.06 62.66,73.06 
	62.76,73.06 62.66,73.06 62.66,73.16 62.76,73.16 62.76,73.26 62.85,73.26 62.85,73.36 62.85,73.45 62.95,73.45 62.95,73.55 
	63.05,73.55 63.05,73.65 63.15,73.65 63.15,73.75 63.15,73.85 63.05,73.85 63.05,73.95 62.95,73.95 62.95,74.05 62.95,74.15 
	62.95,74.25 62.95,74.35 62.85,74.35 62.76,74.35 62.76,74.45 62.76,74.54 62.85,74.54 62.76,74.54 62.76,74.64 62.85,74.64 
	62.85,74.74 62.95,74.74 62.95,74.84 62.95,74.74 63.05,74.74 63.05,74.84 63.15,74.84 63.15,74.74 63.15,74.84 63.25,74.84 
	63.15,74.84 63.25,74.84 63.25,74.94 63.35,74.94 63.45,75.04 63.35,75.04 63.35,75.14 63.35,75.24 63.35,75.34 63.45,75.34 
	63.45,75.44 63.55,75.44 63.45,75.44 63.55,75.44 63.55,75.54 63.65,75.54 63.75,75.54 63.75,75.64 63.85,75.64 63.95,75.73 
	63.95,75.83 63.85,75.83 63.95,75.83 64.04,75.83 63.95,75.93 64.04,75.93 63.95,75.93 63.95,76.03 63.95,76.13 63.95,76.23 
	63.95,76.33 63.95,76.23 63.95,76.33 63.95,76.43 63.95,76.53 63.85,76.53 63.95,76.53 63.95,76.63 64.04,76.63 64.04,76.73 
	64.04,76.82 64.04,76.92 64.04,76.82 64.14,76.92 64.14,76.82 64.14,76.92 64.24,76.92 64.24,77.02 64.24,77.12 64.24,77.22 
	64.24,77.32 64.14,77.32 64.14,77.42 64.24,77.42 64.24,77.52 64.34,77.52 64.34,77.62 64.44,77.62 64.44,77.72 64.54,77.72 
	64.44,77.72 64.54,77.72 64.54,77.82 64.64,77.92 64.64,78.01 64.64,78.11 64.64,78.21 64.64,78.11 64.54,78.11 64.54,78.21 
	64.54,78.31 64.64,78.41 64.54,78.41 64.54,78.51 64.64,78.51 64.64,78.61 64.54,78.61 64.54,78.71 64.64,78.71 64.54,78.71 
	64.54,78.81 64.54,78.91 64.44,78.91 64.44,79.01 64.34,79.01 64.34,79.1 64.34,79.2 64.34,79.3 64.24,79.3 64.24,79.4 64.24,79.5 
	64.14,79.6 64.14,79.7 64.14,79.8 64.04,79.8 64.14,79.8 64.04,79.9 64.14,79.9 64.04,79.9 63.55,80.1 63.45,80.1 63.25,80.1 
	63.25,80.19 63.25,80.49 63.35,80.59 63.65,80.69 63.75,80.69 63.85,80.79 63.95,80.79 64.04,80.89 63.95,80.99 63.85,81.19 
	63.85,81.28 63.85,81.38 63.65,81.48 63.55,81.58 63.45,81.68 63.45,81.78 63.35,81.78 63.35,81.88 63.25,81.98 63.25,82.08 
	63.25,82.18 63.35,82.18 63.35,82.28 63.35,82.38 63.35,82.47 63.35,82.57 63.35,82.67 63.25,82.77 63.25,82.87 63.35,82.87 
	63.35,83.17 63.35,83.27 63.35,83.37 63.35,83.47 63.35,83.56 63.45,83.56 63.45,83.76 63.45,83.86 63.45,83.96 63.55,84.06 
	63.55,84.16 63.55,84.26 63.65,84.26 63.65,84.36 63.65,84.46 63.65,84.56 63.65,84.65 63.65,84.75 63.55,84.85 63.45,84.85 
	63.35,84.95 63.25,85.05 63.15,85.05 63.15,84.95 63.15,84.85 63.15,84.75 63.05,84.65 62.95,84.56 62.85,84.56 62.76,84.56 
	62.56,84.65 62.46,84.65 62.36,84.65 62.16,84.65 62.06,84.65 61.96,84.56 61.86,84.56 61.76,84.46 61.67,84.36 61.57,84.36 
	61.47,84.36 61.27,84.26 61.17,84.26 61.07,84.26 60.97,84.26 60.87,84.26 60.77,84.26 60.67,84.26 60.58,84.26 60.48,84.26 
	60.38,84.26 60.28,84.36 60.18,84.46 60.18,84.56 60.08,84.56 59.98,84.75 59.88,84.85 59.88,84.95 59.78,85.05 59.78,85.15 
	59.68,85.25 59.68,85.45 59.58,85.55 59.48,85.55 59.39,85.45 59.29,85.35 59.19,85.35 59.09,85.25 58.99,85.15 58.89,85.15 
	58.89,85.05 58.79,85.05 58.49,85.15 58.39,85.15 58.3,85.25 58.2,85.35 58.1,85.35 58.1,85.45 58.1,85.55 58.1,85.65 58.2,85.75 
	58.2,85.84 58.3,85.94 58.3,86.04 58.2,86.14 58.2,86.24 58.1,86.24 58,86.34 57.9,86.34 57.8,86.34 57.7,86.34 57.6,86.34 
	57.5,86.44 57.4,86.44 57.3,86.54 57.2,86.64 57.11,86.64 57.11,86.74 57.01,86.74 57.01,86.84 56.91,86.84 56.81,86.74 
	56.71,86.64 56.71,86.54 56.61,86.54 56.51,86.54 56.51,86.64 56.41,86.64 56.31,86.64 56.21,86.74 56.02,86.74 55.92,86.74 
	55.72,86.74 55.62,86.74 55.42,86.74 55.32,86.74 55.32,86.84 55.32,86.93 55.32,87.03 55.32,87.13 55.22,87.13 55.22,87.23 
	55.12,87.33 55.02,87.33 54.93,87.33 54.83,87.33 54.63,87.33 54.53,87.33 54.43,87.33 54.33,87.33 54.23,87.33 54.13,87.33 
	54.03,87.33 54.03,87.43 54.03,87.53 54.03,87.63 54.13,87.73 54.13,87.83 54.13,87.93 54.13,88.02 54.03,88.02 54.03,88.12 
	53.93,88.32 53.83,88.42 53.74,88.52 53.64,88.72 53.54,88.82 53.44,88.92 53.34,89.02 53.24,89.02 53.14,89.11 53.04,89.11 
	52.94,89.11 52.84,89.11 52.74,89.11 52.74,89.21 52.74,89.31 52.74,89.51 52.74,89.61 52.74,89.71 52.74,89.81 52.74,89.91 
	52.84,90.01 52.74,90.01 52.74,90.11 52.65,90.11 52.55,90.21 52.45,90.3 52.45,90.4 52.35,90.4 52.35,90.5 52.25,90.6 52.15,90.6 
	52.15,90.7 52.05,90.6 52.05,90.5 51.95,90.5 51.85,90.5 51.75,90.5 51.65,90.5 51.65,90.6 51.65,90.7 51.65,90.8 51.56,90.8 
	51.56,90.9 51.46,90.9 51.46,91 51.36,91 51.36,91.1 51.26,91.1 51.16,91.2 51.06,91.2 51.06,91.3 50.96,91.39 50.96,91.49 
	50.86,91.49 50.86,91.59 50.76,91.59 50.66,91.59 50.46,91.59 50.37,91.59 50.27,91.49 50.17,91.49 50.07,91.49 50.07,91.59 
	49.97,91.59 49.87,91.69 49.77,91.69 49.67,91.59 49.67,91.69 49.57,91.69 49.47,91.79 49.37,91.79 49.28,91.79 49.18,91.79 
	49.08,91.79 49.08,91.69 48.98,91.69 48.88,91.69 48.78,91.69 48.78,91.79 48.68,91.79 48.58,91.89 48.48,91.89 48.38,91.99 
	48.28,91.99 48.28,92.09 48.28,92.19 48.38,92.29 48.48,92.39 48.58,92.49 48.58,92.58 48.48,92.58 48.38,92.68 48.28,92.68 
	48.19,92.58 48.09,92.58 47.99,92.68 47.99,92.78 47.99,92.88 47.89,92.98 47.69,93.18 47.69,93.28 47.59,93.28 47.49,93.38 
	47.39,93.48 47.39,93.58 47.29,93.58 47.19,93.58 47.19,93.67 47.09,93.67 47.09,93.77 47,93.77 47,93.87 46.9,93.87 46.9,93.97 
	46.8,93.97 46.7,93.97 46.6,93.97 46.5,94.07 46.4,94.07 46.3,94.17 46.1,94.17 46,94.27 46,94.37 45.91,94.37 45.81,94.37 
	45.71,94.37 45.61,94.37 45.51,94.47 45.41,94.47 45.31,94.47 45.21,94.47 45.11,94.47 45.11,94.37 45.01,94.27 44.91,94.17 
	44.82,94.17 44.72,94.07 44.52,93.97 44.42,93.97 44.32,93.97 44.22,93.97 44.12,93.97 44.02,93.97 43.92,94.07 43.82,94.07 
	43.82,94.17 43.82,94.27 43.82,94.37 43.82,94.47 43.72,94.47 43.72,94.57 43.72,94.76 43.72,94.86 43.72,94.96 43.72,95.06 
	43.72,95.26 43.72,95.36 43.63,95.36 43.53,95.46 43.43,95.46 43.23,95.46 43.13,95.36 43.03,95.36 42.93,95.26 42.83,95.16 
	42.73,95.06 42.54,94.96 42.44,94.86 42.34,94.86 42.24,94.86 42.14,94.86 42.04,94.76 41.94,94.67 41.94,94.57 41.84,94.57 
	41.74,94.47 41.54,94.37 41.45,94.37 41.45,94.47 41.45,94.57 41.45,94.76 41.54,94.76 41.54,94.86 41.54,94.96 41.45,94.96 
	41.35,94.96 41.25,94.86 41.05,94.76 41.05,94.67 40.95,94.57 40.85,94.37 40.75,94.27 40.65,94.17 40.55,94.17 40.35,94.17 
	40.26,94.17 40.16,94.17 40.06,94.17 40.06,94.27 39.96,94.37 39.96,94.47 39.96,94.57 39.96,94.67 39.96,94.76 40.06,94.76 
	40.06,94.86 39.96,94.86 39.96,94.96 39.76,94.96 39.76,94.86 39.66,94.86 39.66,94.76 39.56,94.67 39.56,94.57 39.46,94.37 
	39.46,94.27 39.36,94.17 39.36,94.07 39.26,94.17 39.17,94.27 39.17,94.37 39.17,94.57 39.07,94.67 39.07,94.76 38.97,94.86 
	38.97,94.96 38.87,95.06 38.77,95.16 38.67,95.16 38.67,95.06 38.77,94.96 38.77,94.86 38.77,94.76 38.77,94.67 38.67,94.67 
	38.57,94.67 38.47,94.76 38.37,94.76 38.37,94.86 38.27,95.06 38.27,95.16 38.27,95.26 38.17,95.46 38.08,95.56 38.08,95.66 
	38.08,95.76 37.98,95.76 37.98,95.86 37.88,95.95 37.78,96.05 37.68,96.05 37.58,96.15 37.48,96.15 37.38,96.15 37.28,96.15 
	37.08,96.15 36.98,96.15 36.79,96.05 36.69,95.95 36.19,95.95 36.09,95.95 35.99,96.05 35.89,96.05 35.8,96.05 35.7,96.15 
	35.6,96.15 35.4,96.15 35.3,96.15 35.2,96.25 35.1,96.25 35,96.25 35,96.35 34.9,96.35 34.8,96.45 34.71,96.45 34.51,96.55 
	34.41,96.55 34.31,96.55 34.21,96.55 34.11,96.55 34.01,96.65 33.91,96.65 33.81,96.65 33.71,96.55 33.61,96.55 33.61,96.45 
	33.52,96.35 33.52,96.25 33.61,96.15 33.61,96.05 33.61,95.95 33.61,95.86 33.52,95.86 33.42,95.76 33.32,95.66 33.32,95.56 
	33.22,95.56 33.12,95.46 33.02,95.46 32.92,95.36 32.82,95.36 32.72,95.26 32.62,95.26 32.52,95.16 32.43,95.16 32.43,95.06 
	32.33,95.06 32.23,94.96 32.13,94.96 32.03,94.96 31.93,94.86 31.83,94.86 31.73,94.76 31.63,94.76 31.63,94.67 31.53,94.67 
	31.43,94.76 31.34,94.76 31.24,94.86 31.14,94.86 31.04,94.96 30.94,95.06 30.94,95.16 30.84,95.26 30.84,95.36 30.74,95.46 
	30.74,95.56 30.64,95.56 30.54,95.66 30.44,95.66 30.34,95.66 30.24,95.56 30.15,95.56 30.05,95.46 29.95,95.36 29.85,95.26 
	29.75,95.16 29.65,95.06 29.65,94.96 29.55,94.96 29.55,94.86 29.45,94.76 29.35,94.67 29.25,94.57 29.15,94.47 29.06,94.47 
	29.06,94.37 28.96,94.37 28.86,94.37 28.76,94.37 28.66,94.47 28.56,94.47 28.46,94.47 28.36,94.57 28.26,94.57 28.16,94.57 
	28.06,94.67 27.96,94.76 27.96,94.86 27.87,94.96 27.87,95.06 27.77,95.06 27.77,95.16 27.67,95.26 27.57,95.26 27.47,95.36 
	27.37,95.36 27.27,95.46 27.17,95.46 27.07,95.56 26.97,95.56 26.87,95.66 26.78,95.66 26.68,95.76 26.58,95.76 26.48,95.86 
	26.38,95.95 26.28,96.05 26.18,96.05 26.08,96.15 26.08,96.25 25.98,96.25 25.88,96.35 25.78,96.45 25.69,96.55 25.59,96.55 
	25.49,96.45 25.39,96.45 25.29,96.45 25.19,96.45 25.09,96.35 24.99,96.35 24.89,96.35 24.79,96.35 24.69,96.35 24.59,96.35 
	24.5,96.25 24.4,96.25 24.3,96.15 24.2,96.15 24.2,96.05 24.1,96.05 24,96.05 23.9,96.15 23.8,96.15 23.7,96.25 23.6,96.35 
	23.5,96.45 23.5,96.55 23.41,96.65 23.31,96.65 23.21,96.75 23.11,96.75 23.01,96.75 22.91,96.75 22.81,96.65 22.81,96.55 
	22.81,96.45 22.71,96.45 22.61,96.45 22.32,96.55 22.22,96.55 22.12,96.35 21.92,96.25 21.92,96.15 21.82,96.15 21.82,96.25 
	21.72,96.25 21.62,96.45 21.52,96.65 21.42,96.75 21.32,96.85 21.13,96.75 21.03,96.75 20.93,96.65 20.83,96.65 20.73,96.65 
	20.63,96.55 20.43,96.55 20.33,96.55 20.23,96.45 20.23,96.25 20.23,96.15 20.13,96.15 20.04,96.15 19.84,96.25 19.74,96.15 
	19.54,96.15 19.34,96.15 19.14,96.15 19.04,95.95 19.04,95.86 19.04,95.76 18.95,95.66 19.04,95.56 19.14,95.46 19.24,95.16 
	19.34,94.96 19.34,94.86 19.34,94.76 19.34,94.57 19.44,94.37 19.54,94.27 19.64,94.17 19.64,93.97 19.74,93.87 19.84,93.67 
	19.94,93.48 20.04,93.28 20.13,93.18 20.23,93.18 20.43,93.18 20.53,93.18 20.63,93.18 20.93,93.28 21.03,93.28 21.13,93.18 
	21.22,93.08 21.32,92.88 21.42,92.88 21.42,92.78 21.52,92.88 21.82,93.18 21.92,93.28 22.02,93.38 22.12,93.48 22.22,93.48 
	22.41,93.48 22.61,93.58 22.81,93.58 22.91,93.58 23.01,93.48 23.11,93.38 23.11,93.28 23.11,93.18 23.21,93.08 23.31,92.98 
	23.31,92.88 23.41,92.78 23.5,92.78 23.6,92.68 23.7,92.68 23.8,92.68 23.9,92.68 24,92.68 24.1,92.68 24.2,92.68 24.3,92.68 
	24.5,92.68 24.59,92.68 24.69,92.68 24.79,92.68 24.89,92.68 24.99,92.58 25.09,92.58 25.19,92.49 25.19,92.39 25.29,92.29 
	25.29,92.19 25.39,92.09 25.39,91.99 25.49,91.89 25.49,91.79 25.59,91.79 25.69,91.79 25.78,91.79 25.88,91.79 25.98,91.79 
	26.08,91.69 26.18,91.69 26.28,91.59 26.38,91.59 26.48,91.59 26.58,91.49 26.68,91.49 26.78,91.49 26.87,91.39 26.97,91.39 
	27.07,91.3 27.17,91.2 27.27,91.1 27.37,91.1 27.37,91 27.47,90.9 27.57,90.8 27.67,90.8 27.67,90.7 27.77,90.6 27.87,90.6 
	27.96,90.6 28.06,90.5 28.16,90.5 28.16,90.4 28.26,90.4 28.36,90.3 28.46,90.11 28.56,90.11 28.66,90.01 28.66,89.91 28.76,89.81 
	28.86,89.81 28.86,89.71 28.96,89.61 29.06,89.51 29.15,89.41 29.25,89.41 29.25,89.31 29.35,89.21 29.45,89.11 29.55,89.02 
	29.65,88.92 29.75,88.92 29.85,88.92 29.95,88.92 30.05,88.92 30.15,88.92 30.24,88.82 30.34,88.72 30.34,88.52 30.44,88.32 
	30.44,88.22 30.44,87.93 30.44,87.83 30.54,87.73 30.54,87.63 30.64,87.43 30.74,87.33 30.84,87.23 30.94,87.13 31.04,87.03 
	31.14,86.93 31.24,86.84 31.34,86.84 31.53,86.74 31.83,86.64 31.93,86.64 32.03,86.64 32.13,86.54 32.23,86.54 32.33,86.54 
	32.33,86.44 32.33,86.34 32.23,86.24 32.13,86.14 32.03,86.14 31.93,86.04 31.73,85.94 31.34,85.84 31.14,85.75 30.84,85.65 
	30.74,85.65 30.74,85.55 30.64,85.55 30.44,85.45 30.34,85.45 30.24,85.45 30.15,85.45 30.05,85.45 29.95,85.45 29.85,85.55 
	29.75,85.65 29.65,85.75 29.55,85.75 29.45,85.75 29.35,85.75 29.15,85.65 29.06,85.65 28.96,85.65 28.76,85.75 28.66,85.75 
	28.56,85.75 28.46,85.75 28.46,85.65 28.36,85.55 28.26,85.45 28.26,85.35 28.16,85.35 27.96,85.25 27.87,85.15 27.67,85.15 
	27.57,85.05 27.47,84.95 27.47,84.85 27.37,84.85 27.37,84.75 27.47,84.65 27.47,84.56 27.57,84.46 27.57,84.26 27.67,84.16 
	27.67,84.06 27.57,84.06 27.57,83.96 27.47,83.96 27.47,83.86 27.37,83.86 27.37,83.76 27.27,83.76 27.27,83.66 27.27,83.56 
	27.17,83.56 27.07,83.47 26.97,83.37 26.87,83.27 26.78,83.27 26.68,83.27 26.58,83.37 26.48,83.37 26.38,83.37 26.28,83.27 
	26.28,83.17 26.18,83.07 26.18,82.97 26.18,82.87 26.08,82.77 25.98,82.67 25.98,82.57 25.88,82.38 25.78,82.18 25.69,81.88 
	25.69,81.68 25.69,81.38 25.69,81.28 25.69,81.19 25.69,81.09 25.78,81.09 25.88,80.99 26.08,80.89 26.18,80.89 26.28,80.79 
	26.28,80.69 26.38,80.69 26.38,80.59 26.38,80.49 26.38,80.39 26.38,80.29 26.48,80.19 26.48,80.1 26.48,80 26.38,79.9 26.38,79.8 
	26.48,79.8 26.58,79.7 26.78,79.5 26.78,79.4 26.87,79.4 26.87,79.2 26.78,79.01 26.78,78.91 26.87,78.71 26.97,78.61 27.07,78.61 
	27.27,78.61 27.47,78.61 27.57,78.51 27.67,78.51 27.77,78.41 27.77,78.31 27.87,78.21 27.87,78.11 27.87,78.01 27.96,77.62 
	27.96,77.52 28.06,77.32 28.06,77.22 28.06,77.12 27.96,76.92 27.96,76.73 27.96,76.63 27.96,76.53 27.96,76.43 28.06,76.23 
	28.06,76.03 28.06,75.93 28.06,75.83 28.16,75.73 28.16,75.64 28.16,75.54 28.16,75.44 28.06,75.44 26.78,75.44 26.68,75.44 
	26.58,75.44 26.48,75.44 26.38,75.34 26.28,75.34 26.18,75.34 26.08,75.34 25.98,75.34 25.59,75.34 25.29,75.24 25.09,75.24 
	24.99,75.24 24.79,75.14 24.69,75.14 24.59,75.14 24.5,75.14 24.4,75.14 24.2,75.14 24.1,75.04 24,75.04 23.8,75.04 23.7,75.04 
	23.6,75.04 23.5,75.04 23.41,75.04 23.31,75.04 23.21,75.04 23.01,75.04 22.91,75.14 22.81,75.14 22.71,75.14 22.61,75.14 
	22.51,75.14 22.41,75.14 22.32,75.14 22.12,75.14 22.02,75.04 21.92,75.04 21.82,74.94 21.72,74.94 21.62,74.84 21.52,74.74 
	21.52,74.64 21.42,74.54 21.42,74.45 21.52,74.35 21.52,74.25 21.52,74.15 21.62,74.05 21.72,73.95 21.72,73.85 21.82,73.85 
	21.82,73.75 21.92,73.75 21.92,73.65 22.02,73.65 22.02,73.55 22.02,73.45 22.02,73.36 22.02,73.26 22.12,73.26 22.12,73.16 
	22.12,73.06 22.12,72.96 22.12,72.86 22.12,72.76 22.12,72.66 22.12,72.56 22.02,72.56 22.12,72.56 22.12,72.46 22.12,72.36 
	22.12,72.27 22.12,72.17 22.12,72.07 22.12,71.97 22.12,71.87 22.12,71.77 22.12,71.57 22.02,71.47 22.02,71.27 21.92,71.18 
	21.92,70.98 21.82,70.98 21.82,70.88 21.72,70.78 21.72,70.58 21.62,70.48 21.62,70.38 21.52,70.28 21.52,70.18 21.52,70.08 
	21.42,69.89 21.32,69.69 21.32,69.59 21.22,69.49 21.22,69.39 21.13,69.19 21.13,69.09 21.03,68.99 21.03,68.9 20.93,68.8 
	20.83,68.8 20.73,68.7 20.73,68.6 20.83,68.6 20.83,68.5 20.83,68.4 20.93,68.3 20.93,68.2 20.93,68.1 20.93,68 20.93,67.9 
	21.03,67.81 21.03,67.61 21.03,67.51 21.03,67.31 21.03,67.21 21.03,67.11 21.03,67.01 21.03,66.81 21.03,66.71 21.03,66.52 
	20.93,66.52 20.93,66.32 20.93,66.22 20.83,66.12 20.83,65.92 20.73,65.82 20.73,65.72 20.73,65.62 20.63,65.53 20.63,65.43 
	20.63,65.33 20.63,65.13 20.63,65.03 20.53,64.93 20.53,64.83 20.53,64.73 20.53,64.53 20.43,64.44 20.43,64.34 20.33,64.24 
	20.23,64.14 20.13,64.04 20.04,63.94 20.04,63.84 20.04,63.74 20.13,63.64 20.23,63.54 20.33,63.34 20.53,63.05 20.63,62.85 
	20.73,62.75 20.83,62.55 21.03,62.45 21.13,62.35 21.22,62.16 21.32,62.06 21.32,61.96 21.32,61.86 21.22,61.76 21.22,61.66 
	21.22,61.56 21.13,61.56 21.13,61.46 21.03,61.46 20.93,61.26 20.83,61.07 20.83,60.87 20.73,60.67 20.53,60.47 20.43,60.37 
	20.33,60.27 20.33,60.17 20.23,60.17 20.13,60.17 20.04,60.17 20.04,60.07 19.94,60.07 19.84,60.17 19.84,60.07 19.84,59.97 
	19.74,59.97 19.64,59.97 19.74,59.88 19.64,59.88 19.64,59.97 19.54,59.88 19.54,59.78 19.44,59.78 19.44,59.68 19.44,59.58 
	19.34,59.58 19.34,59.48 19.24,59.48 19.24,59.38 19.14,59.38 19.04,59.28 19.14,59.18 19.04,58.98 19.04,58.88 19.14,58.79 
	19.14,58.69 19.04,58.49 18.95,58.39 18.85,58.29 18.85,58.19 18.95,58.09 19.04,58.09 19.14,58.09 19.14,57.99 19.14,57.89 
	19.24,57.7 19.24,57.6 19.24,57.5 19.24,57.3 19.24,57.1 19.24,57 19.34,56.9 19.34,56.8 19.44,56.6 19.54,56.6 19.54,56.41 
	19.64,56.31 19.74,56.21 19.84,56.21 19.94,56.21 20.04,56.21 20.13,56.41 20.13,56.51 20.23,56.6 20.33,56.7 20.43,56.7 
	20.43,56.8 20.53,56.8 20.53,56.9 20.63,57.1 20.73,57.1 20.83,57.2 20.93,57.3 21.03,57.4 21.13,57.4 21.92,57.5 22.02,57.5 
	22.12,57.5 22.41,57.89 22.51,57.89 23.31,57.3 23.6,57.2 24,57 24.2,57 24.2,56.9 24.3,56.9 24.3,56.8 24.4,56.8 24.4,56.7 
	24.5,56.7 24.5,56.6 24.59,56.6 24.59,56.51 25.09,55.81 25.19,55.71 25.29,55.61 25.29,55.51 25.29,55.42 25.19,55.02 24.99,54.62 
	24.89,54.13 24.79,54.13 24.79,53.93 24.69,53.83 24.79,53.73 25.09,53.43 25.29,53.24 25.49,52.94 25.39,52.64 25.39,52.54 
	25.39,52.44 25.39,52.34 25.39,52.24 25.29,52.14 25.29,52.05 25.39,51.95 25.29,51.95 25.29,51.85 25.39,51.85 25.39,51.75 
	25.29,51.75 25.39,51.75 25.39,51.65 25.39,51.55 25.39,51.45 25.49,51.45 25.49,51.35 25.49,51.25 25.59,51.25 25.59,51.15 
	25.59,51.05 25.69,51.05 25.69,50.96 25.78,50.96 25.78,50.86 25.78,50.76 25.88,50.76 25.88,50.66 25.88,50.56 25.88,50.46 
	25.78,50.46 25.78,50.36 25.78,50.26 25.78,50.16 25.69,50.06 25.59,50.06 25.49,50.06 25.39,50.06 25.39,49.96 25.29,49.96 
	25.19,49.96 25.19,49.87 25.09,49.87 24.99,49.87 24.99,49.77 24.89,49.77 24.89,49.67 24.99,49.67 25.29,49.37 25.49,49.17 
	25.59,49.07 25.78,49.07 26.28,48.97 26.28,49.07 26.97,49.47 27.96,50.16 28.06,50.16 28.16,50.16 28.86,50.26 28.96,50.26 
	29.65,50.26 30.34,50.26 31.24,50.16 31.63,50.16 32.13,50.16 33.22,50.16 33.32,50.16 33.32,50.06 33.71,49.37 33.91,48.87 
	33.91,48.77 33.91,48.68 33.91,48.58 33.81,48.38 33.71,47.88 33.61,47.78 33.61,47.68 33.71,47.68 33.81,47.59 33.91,47.59 
	33.91,47.49 34.01,47.49 34.01,47.39 34.01,47.29 34.11,47.29 34.11,47.19 34.21,47.19 34.31,47.19 34.41,47.19 34.41,47.09 
	34.51,47.09 34.51,46.99 34.61,46.99 34.61,46.89 34.71,46.89 34.71,46.79 34.8,46.79 34.8,46.69 34.8,46.79 34.8,46.69 34.9,46.69 
	35,46.69 35,46.59 35,46.5 35.1,46.5 35.2,46.5 35.2,46.4 35.3,46.4 35.3,46.5 35.3,46.4 35.3,46.3 35.4,46.3 35.4,46.2 35.4,46.1 
	35.4,46.2 35.4,46.1 35.4,46 35.4,46.1 35.4,46 35.3,46 35.4,46 35.3,46 35.4,46 35.4,45.9 35.5,45.9 35.5,45.8 35.5,45.7 
	35.6,45.7 35.6,45.6 35.7,45.6 35.7,45.5 35.8,45.5 35.89,45.5 35.99,45.5 35.99,45.4 36.09,45.4 36.09,45.31 35.99,45.31 
	36.09,45.31 35.99,45.31 35.99,45.21 36.09,45.21 36.09,45.11 36.09,45.01 36.09,44.91 36.19,44.91 36.09,44.91 36.19,44.91 
	36.19,44.81 36.09,44.81 36.09,44.71 36.09,44.61 36.19,44.61 36.19,44.71 36.19,44.61 36.29,44.61 36.29,44.51 36.39,44.51 
	36.49,44.51 36.49,44.41 36.49,44.51 36.49,44.41 36.59,44.41 36.59,44.31 36.59,44.22 36.69,44.22 36.69,44.12 36.69,44.22 
	36.79,44.22 36.79,44.12 36.69,44.12 36.79,44.12 36.79,44.02 36.89,44.02 36.98,44.02 36.98,43.92 36.89,43.92 36.98,43.92 
	36.98,43.82 36.98,43.92 37.08,43.92 37.08,43.82 36.98,43.82 36.98,43.72 37.08,43.72 36.98,43.72 36.98,43.62 37.08,43.62 
	37.08,43.52 37.18,43.52 37.08,43.52 37.18,43.52 37.18,43.42 37.18,43.32 37.18,43.22 37.08,43.22 37.08,43.13 37.18,43.13 
	37.18,43.03 37.28,43.03 37.38,43.03 37.28,43.03 37.28,42.93 37.38,42.93 37.28,42.93 37.38,42.93 37.38,42.83 37.38,42.73 
	37.38,42.63 37.48,42.63 37.48,42.53 37.58,42.53 37.58,42.43 37.48,42.43 37.48,42.33 37.38,42.23 37.38,42.13 37.28,42.13 
	37.28,42.03 37.18,42.03 37.28,42.03 37.28,41.94 37.18,41.94 37.08,41.94 37.08,42.03 37.08,42.13 36.98,42.13 36.89,42.13 
	36.79,42.13 36.79,42.03 36.89,42.03 36.89,41.94 36.89,41.84 36.89,41.74 36.79,41.74 36.69,41.84 36.69,41.74 36.69,41.64 
	36.79,41.64 36.89,41.54 36.98,41.54 36.98,41.44 37.08,41.44 37.18,41.44 37.18,41.34 37.28,41.34 37.38,41.24 37.48,41.14 
	37.58,41.14 37.68,41.14 37.68,41.04 37.78,41.04 37.78,40.94 37.78,40.85 37.88,40.85 37.88,40.75 37.98,40.75 37.98,40.65 
	37.98,40.55 37.98,40.45 38.08,40.45 38.08,40.35 38.08,40.25 38.08,40.15 38.17,40.15 38.17,40.05 38.27,40.05 38.37,39.95 
	38.47,39.95 38.47,39.85 38.47,39.76 38.57,39.76 38.57,39.66 38.57,39.56 38.67,39.56 38.67,39.46 38.77,39.46 38.77,39.36 
	38.87,39.36 38.87,39.26 38.97,39.16 39.07,39.06 39.17,38.96 39.17,38.86 39.26,38.86 39.26,38.76 39.36,38.76 39.36,38.67 
	39.46,38.57 39.56,38.47 39.66,38.37 39.66,38.27 39.76,38.27 39.86,38.17 40.16,37.97 40.26,37.97 40.35,37.87 40.45,37.77 
	40.55,37.67 40.55,37.57 40.65,37.48 40.65,37.38 40.75,37.18 40.85,37.08 40.85,36.98 40.95,36.98 40.95,36.88 41.05,36.88 
	41.05,36.78 41.25,36.68 41.35,36.68 41.35,36.58 41.45,36.58 41.45,36.48 41.45,36.39 41.64,36.39 41.84,36.29 41.94,36.29 
	42.14,36.29 42.44,36.19 42.54,36.19 42.73,36.19 42.83,36.19 42.93,36.19 43.03,36.19 43.03,36.09 43.13,36.09 43.13,35.99 
	43.23,35.89 43.33,35.89 43.33,35.79 43.53,35.69 43.53,35.59 43.63,35.59 43.72,35.49 43.82,35.49 43.92,35.49 43.92,35.39 
	44.02,35.39 44.12,35.3 44.12,35.2 44.22,35.3 44.32,35.3 44.52,35.3 44.62,35.3 44.82,35.3 44.91,35.3 45.01,35.3 45.11,35.3 
	45.21,35.3 45.31,35.3 45.31,35.2 45.41,35.3 45.31,35.3 45.31,35.39 45.41,35.39 45.31,35.39 45.31,35.49 45.31,35.59 45.41,35.59 
	45.41,35.49 45.51,35.49 45.61,35.49 45.71,35.49 45.61,35.49 45.61,35.39 45.71,35.39 45.81,35.39 45.91,35.39 46,35.39 46,35.49 
	46,35.59 46.1,35.59 46.2,35.59 46.2,35.49 46.3,35.49 46.4,35.49 46.5,35.49 46.6,35.49 46.6,35.39 46.7,35.39 46.7,35.3 
	46.8,35.3 46.9,35.3 46.9,35.2 47,35.2 47.09,35.2 47.19,35.2 47.29,35.2 47.29,35.1 47.29,35.2 47.39,35.2 47.39,35.1 47.49,35.1 
	47.49,35 47.59,35 47.69,35 47.69,34.9 47.79,34.9 47.89,34.9 47.99,34.9 47.99,35 47.99,34.9 48.09,34.9 48.09,34.7 48.19,34.6 
	48.28,34.5 48.38,34.4 48.48,34.2 48.58,34.11 48.38,34.01 47.99,33.51 47.89,33.41 47.69,33.21 47.69,33.11 47.69,33.02 
	47.69,32.92 47.69,32.82 47.69,32.62 47.69,32.42 47.69,32.32 47.69,32.22 47.39,31.63 47.39,31.53 47.49,31.43 47.59,31.43 
	47.69,31.33 47.69,31.23 47.69,31.13 47.69,31.03 47.69,30.93 47.69,30.83 47.59,30.74 47.49,30.64 47.39,30.64 47.39,30.54 
	47.29,30.44 47.29,30.34 47.39,30.24 47.49,30.14 47.49,29.94 47.59,29.84 47.59,29.74 47.69,29.65 47.69,29.55 47.79,29.55 
	47.89,29.45 47.99,29.35 47.99,29.25 48.09,29.15 47.99,29.05 47.99,28.95 47.99,28.85 47.89,28.85 47.89,28.75 47.79,28.65 
	47.69,28.56 47.59,28.46 47.49,28.36 47.39,28.36 47.29,28.26 47.19,28.16 47.19,27.96 47.19,27.86 47.19,27.76 47.19,27.66 
	47.29,27.56 47.29,27.46 47.29,27.37 47.29,27.27 47.29,27.17 47.19,27.07 47.19,26.97 47.09,26.87 47.09,26.77 47.19,26.67 
	47.19,26.57 47.39,26.37 47.49,26.37 47.59,26.28 47.69,26.18 47.89,25.98 47.99,25.98 48.09,25.88 48.19,25.88 48.28,25.88 
	48.38,25.78 48.58,25.68 48.78,25.58 48.88,25.58 48.98,25.48 49.08,25.48 49.08,25.38 49.08,25.28 49.18,25.28 49.18,25.09 
	49.18,24.99 49.18,24.89 49.18,24.79 49.18,24.69 49.08,24.59 48.98,24.49 48.88,24.39 48.78,24.39 48.68,24.39 48.58,24.39 
	48.48,24.39 48.38,24.39 48.28,24.39 48.19,24.39 47.99,24.39 47.89,24.29 47.79,24.29 47.69,24.29 47.49,24.19 47.39,24.1 
	47.29,24 47.19,24 47.29,23.9 47.19,23.9 47.19,23.8 47.19,23.7 47.19,23.6 47.19,23.5 47.09,23.5 47.09,23.4 47.09,23.3 
	47.09,23.2 47,23.2 47,23.1 47,23 47.09,23 47.19,22.91 47.19,22.81 47.09,22.81 47,22.81 47.09,22.81 47.09,22.71 47.09,22.61 
	47.19,22.61 47.29,22.61 47.29,22.51 47.29,22.41 47.29,22.31 47.39,22.31 47.49,22.31 47.49,22.41 47.59,22.41 47.59,22.51 
	47.59,22.61 47.49,22.61 47.39,22.61 47.39,22.71 47.49,22.71 47.59,22.71 47.69,22.71 47.69,22.61 47.69,22.51 47.79,22.51 
	47.89,22.51 47.89,22.41 47.79,22.41 47.79,22.31 47.89,22.31 47.89,22.21 47.89,22.11 47.79,22.11 47.79,22.01 47.89,22.01 
	47.89,21.91 47.79,21.91 47.79,21.82 47.89,21.82 47.99,21.82 48.09,21.82 48.09,21.72 48.09,21.62 48.09,21.52 48.09,21.42 
	48.09,21.32 48.28,21.32 48.38,21.32 48.38,21.22 48.48,21.22 48.58,21.22 48.58,21.32 48.58,21.42 48.58,21.52 48.48,21.62 
	48.38,21.62 48.38,21.72 48.48,21.82 48.48,21.91 48.58,21.91 48.58,22.01 48.68,22.01 48.78,22.01 48.78,21.91 48.78,21.82 
	48.78,21.72 48.68,21.72 48.68,21.62 48.58,21.52 48.68,21.42 48.68,21.32 48.78,21.32 48.88,21.32 48.88,21.42 48.88,21.52 
	48.98,21.52 49.08,21.52 49.08,21.62 48.98,21.72 48.98,21.82 48.98,21.91 49.08,21.91 49.18,21.91 49.18,22.01 49.28,22.11 
	49.37,22.11 49.37,22.01 49.47,21.91 49.57,21.82 49.57,21.72 49.67,21.72 49.67,21.62 49.67,21.52 49.77,21.52 49.77,21.42 
	49.77,21.32 49.87,21.32 49.97,21.32 50.07,21.22 50.17,21.22 50.27,21.22 50.37,21.22 50.46,21.12 50.37,21.02 50.27,21.02 
	50.17,21.02 50.07,21.02 50.07,20.92 50.27,20.82 50.27,20.73 50.27,20.63 50.17,20.63 50.17,20.73 50.17,20.63 50.17,20.73 
	50.07,20.73 50.07,20.63 50.07,20.53 49.97,20.53 49.97,20.43 49.87,20.43 49.87,20.33 49.97,20.33 49.87,20.33 49.77,20.23 
	49.77,20.13 49.77,20.03 49.67,20.03 49.67,19.93 49.57,19.93 49.47,19.93 49.47,19.83 49.47,19.73 49.37,19.73 49.37,19.63 
	49.37,19.54 49.47,19.54 49.57,19.54 49.57,19.44 49.47,19.44 49.37,19.34 49.28,19.34 49.28,19.24 49.28,19.14 49.28,19.04 
	49.28,18.94 49.18,18.94 49.18,19.04 49.08,19.04 48.98,19.04 48.88,19.04 48.88,18.94 48.78,18.94 48.68,18.74 48.68,18.64 
	48.58,18.54 48.58,18.45 48.58,18.35 48.48,18.35 48.48,18.25 48.48,18.15 48.38,18.15 48.28,18.25 48.28,18.35 48.28,18.45 
	48.19,18.45 48.09,18.45 47.99,18.45 47.89,18.45 47.79,18.45 47.79,18.35 47.79,18.25 47.69,18.25 47.59,18.25 47.59,18.15 
	47.69,18.15 47.79,18.15 47.79,18.05 47.79,17.95 47.69,17.95 47.59,18.05 47.49,17.95 47.49,17.85 47.59,17.85 47.59,17.95 
	47.69,17.95 47.69,17.85 47.59,17.85 47.59,17.75 47.49,17.75 47.39,17.65 47.29,17.75 47.39,17.75 47.39,17.85 47.39,17.95 
	47.29,17.95 47.29,18.05 47.29,18.15 47.39,18.25 47.49,18.25 47.49,18.35 47.39,18.35 47.29,18.35 47.19,18.35 47.09,18.45 
	47.09,18.35 47,18.35 47,18.45 46.9,18.45 46.8,18.45 46.8,18.35 46.8,18.25 46.8,18.15 46.7,18.15 46.6,18.15 46.6,18.25 
	46.5,18.25 46.5,18.35 46.6,18.35 46.6,18.45 46.5,18.45 46.5,18.35 46.4,18.35 46.3,18.45 46.4,18.54 46.4,18.64 46.3,18.64 
	46.2,18.54 46.1,18.54 46.1,18.45 46.2,18.35 46.3,18.35 46.3,18.25 46.3,18.15 46.2,18.05 46.3,18.05 46.3,17.95 46.4,17.95 
	46.5,17.95 46.6,17.95 46.6,17.85 46.5,17.75 46.5,17.65 46.4,17.65 46.4,17.55 46.3,17.55 46.3,17.45 46.3,17.36 46.2,17.36 
	46.1,17.36 46.1,17.45 46.1,17.55 46.1,17.45 46.2,17.45 46.2,17.55 46.2,17.65 46.1,17.65 46,17.65 45.91,17.65 45.91,17.75 
	46,17.75 45.91,17.85 45.81,17.85 45.71,17.75 45.61,17.75 45.61,17.65 45.71,17.65 45.71,17.55 45.61,17.55 45.61,17.45 
	45.51,17.36 45.41,17.36 45.31,17.36 45.31,17.26 45.31,17.16 45.31,17.06 45.41,17.06 45.41,17.16 45.51,17.16 45.51,17.06 
	45.51,16.96 45.61,16.96 45.61,17.06 45.71,17.06 45.81,17.06 45.81,16.96 45.81,16.86 45.81,16.76 45.71,16.76 45.71,16.66 
	45.61,16.66 45.51,16.56 45.41,16.56 45.31,16.56 45.31,16.66 45.21,16.66 45.21,16.76 45.11,16.86 45.01,16.86 44.91,16.76 
	44.82,16.76 44.72,16.76 44.62,16.66 44.62,16.56 44.52,16.56 44.52,16.46 44.62,16.46 44.62,16.36 44.62,16.26 44.52,16.36 
	44.42,16.36 44.42,16.26 44.32,16.26 44.32,16.17 44.22,16.17 44.12,16.17 44.02,16.17 44.02,16.07 43.92,16.07 43.82,16.07 
	43.82,15.97 43.72,15.97 43.72,16.07 43.63,16.07 43.53,16.07 43.53,16.17 43.43,16.17 43.43,16.26 43.43,16.36 43.53,16.36 
	43.53,16.46 43.43,16.46 43.33,16.46 43.33,16.36 43.23,16.36 43.23,16.26 43.33,16.26 43.23,16.26 43.13,16.26 43.13,16.17 
	43.23,16.17 43.23,16.07 43.23,16.17 43.33,16.17 43.33,16.07 43.23,16.07 43.23,15.97 43.13,15.97 43.03,15.87 42.93,15.97 
	42.83,15.97 42.73,15.97 42.73,16.07 42.63,16.07 42.54,16.07 42.44,16.07 42.44,16.17 42.44,16.26 42.44,16.36 42.54,16.36 
	42.54,16.46 42.54,16.56 42.44,16.56 42.44,16.46 42.34,16.46 42.44,16.46 42.44,16.56 42.34,16.56 42.34,16.46 42.24,16.46 
	42.14,16.46 42.14,16.56 42.14,16.66 42.14,16.76 42.04,16.76 41.94,16.76 41.84,16.76 41.84,16.66 41.84,16.56 41.74,16.56 
	41.64,16.56 41.64,16.46 41.54,16.46 41.45,16.46 41.45,16.56 41.35,16.56 41.35,16.66 41.35,16.56 41.25,16.56 41.25,16.66 
	41.25,16.56 41.25,16.46 41.15,16.46 41.15,16.56 41.05,16.56 40.95,16.56 40.95,16.46 40.85,16.46 40.75,16.46 40.65,16.46 
	40.55,16.46 40.55,16.36 40.45,16.36 40.45,16.26 40.45,16.36 40.35,16.36 40.35,16.46 40.26,16.46 40.26,16.36 40.16,16.36 
	40.16,16.46 40.26,16.46 40.26,16.56 40.26,16.66 40.16,16.66 40.06,16.76 40.06,16.86 40.16,16.86 40.06,16.86 40.06,16.96 
	40.16,16.96 40.06,16.96 40.06,16.86 39.96,16.86 39.86,16.76 39.96,16.76 39.96,16.66 39.86,16.66 39.86,16.56 39.96,16.56 
	39.86,16.56 39.86,16.46 39.76,16.46 39.66,16.46 39.66,16.56 39.56,16.56 39.46,16.56 39.36,16.56 39.26,16.56 39.17,16.46 
	39.26,16.46 39.17,16.46 39.17,16.36 39.17,16.26 39.17,16.17 39.17,16.07 39.07,16.07 39.07,15.97 38.97,15.97 39.07,15.97 
	39.07,15.87 38.97,15.87 38.97,15.77 38.87,15.87 38.87,15.77 38.77,15.77 38.67,15.77 38.67,15.67 38.57,15.67 38.57,15.77 
	38.47,15.67 38.57,15.67 38.47,15.57 38.47,15.67 38.37,15.67 38.37,15.57 38.27,15.57 38.27,15.47 38.17,15.47 38.27,15.47 
	38.27,15.37 38.27,15.27 38.37,15.27 38.27,15.27 38.27,15.17 38.17,15.17 38.27,15.08 38.37,14.98 38.27,14.98 38.17,14.98 
	38.17,14.88 38.08,14.88 38.08,14.98 37.98,14.88 38.08,14.88 38.08,14.78 38.08,14.68 38.17,14.68 38.08,14.68 38.08,14.78 
	37.98,14.78 37.98,14.68 37.98,14.58 37.88,14.58 37.88,14.68 37.78,14.68 37.78,14.58 37.78,14.48 37.78,14.38 37.78,14.28 
	37.88,14.28 37.98,14.28 37.98,14.18 37.98,14.08 37.88,14.08 37.78,14.08 37.68,14.08 37.68,14.18 37.68,14.08 37.58,14.08 
	37.58,13.99 37.48,13.99 37.48,13.89 37.58,13.89 37.58,13.79 37.48,13.79 37.38,13.79 37.28,13.79 37.38,13.79 37.38,13.69 
	37.28,13.69 37.28,13.59 37.28,13.49 37.28,13.39 37.28,13.29 37.28,13.39 37.38,13.39 37.38,13.29 37.48,13.29 37.48,13.19 
	37.38,13.19 37.48,13.19 37.38,13.19 37.28,13.19 37.28,13.09 37.28,12.99 37.28,13.09 37.28,12.99 37.38,12.99 37.48,12.99 
	37.48,12.89 37.48,12.8 37.38,12.8 37.28,12.8 37.28,12.7 37.28,12.6 37.38,12.6 37.38,12.5 37.38,12.4 37.48,12.4 37.38,12.4 
	37.38,12.3 37.28,12.3 37.28,12.2 37.28,12.1 37.38,12.1 37.38,12 37.28,12 37.18,12 37.18,12.1 37.28,12.1 37.18,12.1 37.18,12 
	37.08,12 36.98,12 36.98,11.9 37.08,11.9 37.18,11.8 37.18,11.9 37.28,11.9 37.28,11.8 37.18,11.8 37.18,11.71 37.28,11.71 
	37.28,11.61 37.28,11.51 37.28,11.41 37.18,11.41 37.18,11.31 37.08,11.31 37.08,11.21 36.98,11.21 36.98,11.11 36.98,11.01 
	36.89,11.01 36.98,11.01 36.98,10.91 36.89,10.81 36.98,10.81 36.98,10.71 36.89,10.71 36.89,10.62 36.79,10.62 36.79,10.71 
	36.79,10.62 36.79,10.52 36.69,10.52 36.69,10.62 36.59,10.52 36.69,10.52 36.69,10.42 36.69,10.32 36.69,10.22 36.59,10.22 
	36.69,10.22 36.69,10.12 36.79,10.12 36.89,10.12 36.89,10.02 36.98,10.02 37.08,9.92 37.08,9.82 36.98,9.82 36.98,9.72 36.98,9.62 
	36.89,9.62 36.89,9.53 36.98,9.53 36.98,9.43 37.08,9.43 37.18,9.43 37.18,9.33 37.18,9.23 37.18,9.13 37.08,9.13 36.98,9.13 
	36.98,9.03 37.08,9.03 37.08,8.93 37.18,9.03 37.28,9.03 37.38,9.13 37.58,9.13 37.68,9.23 37.78,9.33 37.98,9.33 38.08,9.43 
	38.17,9.43 38.17,9.53 38.27,9.53 38.37,9.53 38.47,9.62 38.57,9.62 38.57,9.72 38.67,9.72 38.67,9.62 38.97,9.62 39.07,9.62 
	39.17,9.62 39.26,9.62 39.36,9.62 39.56,9.62 39.66,9.53 39.76,9.53 39.86,9.53 40.06,9.43 40.16,9.43 40.26,9.43 40.35,9.33 
	40.55,9.23 40.75,9.13 41.05,9.03 41.25,8.93 41.54,8.83 41.64,8.73 41.84,8.63 41.94,8.63 42.04,8.53 42.04,8.43 42.14,8.34 
	42.14,8.24 42.14,8.14 42.24,7.84 42.34,7.54 42.34,7.44 42.44,7.34 42.44,7.15 42.44,7.05 42.54,6.85 42.54,6.75 42.63,6.55 
	42.63,6.35 42.63,6.25 42.73,6.16 42.73,6.06 42.63,5.96 42.63,5.76 42.63,5.56 42.54,4.97 42.44,4.27 42.44,3.78 42.34,3.78 
	42.34,3.58 42.34,3.38 42.34,3.28 42.34,3.18 42.44,3.08 42.44,2.98 42.44,2.78 42.44,2.69 42.44,1.79 42.54,1.69 42.54,1.6 
	42.83,1.3 43.33,0.8 43.43,0.7 43.53,0.6 43.92,0.41 44.12,0.41 44.82,0.21 45.41,0.11 45.41,0.21 45.51,0.21 45.51,0.31 
	45.51,0.41 45.61,0.41 45.61,0.51 45.71,0.51 45.81,0.51 45.81,0.6 45.91,0.6 45.91,0.7 46,0.7 46,0.8 46,0.9 46,1 45.91,1 
	45.91,1.1 45.91,1.2 45.91,1.3 46,1.4 46,1.5 46,1.6 46.1,1.69 46.2,1.79 46.3,1.79 46.4,1.79 46.4,1.89 46.5,1.89 46.5,1.99 
	46.6,1.99 46.7,1.99 46.7,2.09 46.8,2.09 46.8,1.99 46.9,1.99 47,1.99 47,2.09 47,2.19 47,2.09 47.09,2.09 47.19,2.09 47.29,2.09 
	47.29,2.19 47.29,2.09 47.39,2.09 47.39,2.19 47.39,2.29 47.49,2.29 47.59,2.29 47.69,2.29 47.79,2.29 47.79,2.39 47.89,2.39 
	47.89,2.49 47.99,2.49 48.09,2.49 48.09,2.59 48.19,2.59 48.19,2.69 48.19,2.78 48.09,2.78 48.09,2.88 48.19,2.88 48.19,2.98 
	48.28,2.98 48.19,2.98 48.28,3.08 48.28,3.18 48.38,3.18 48.38,3.08 48.48,3.08 48.48,3.18 48.48,3.28 48.58,3.28 48.48,3.28 
	48.48,3.38 48.58,3.38 48.68,3.38 48.68,3.48 48.58,3.48 48.58,3.58 48.68,3.58 48.68,3.68 48.78,3.68 48.78,3.58 48.88,3.58 
	48.98,3.58 48.98,3.68 48.98,3.58 48.98,3.48 49.08,3.48 49.08,3.58 49.18,3.58 49.28,3.68 49.28,3.58 49.37,3.58 49.37,3.68 
	49.47,3.68 49.47,3.78 49.47,3.88 49.57,3.88 49.57,3.78 49.67,3.88 49.67,3.97 49.77,4.07 49.77,4.17 49.67,4.17 49.67,4.27 
	49.67,4.37 49.57,4.37 49.57,4.47 49.57,4.57 49.67,4.57 49.77,4.57 49.77,4.67 49.67,4.67 49.77,4.67 49.87,4.67 49.87,4.77 
	49.77,4.77 49.77,4.87 49.77,4.97 49.77,5.06 49.87,5.06 49.87,4.97 49.87,5.06 49.97,5.06 49.97,5.16 49.97,5.26 49.97,5.16 
	49.97,5.26 50.07,5.26 50.07,5.36 49.97,5.36 49.97,5.46 49.97,5.36 49.87,5.36 49.87,5.46 49.87,5.56 49.77,5.56 49.77,5.66 
	49.87,5.76 49.87,5.66 49.87,5.76 49.87,5.86 49.77,5.86 49.87,5.96 49.87,6.06 49.87,6.16 49.77,6.16 49.77,6.25 49.77,6.35 
	49.77,6.45 49.67,6.45 49.67,6.55 49.57,6.55 49.57,6.45 49.47,6.45 49.47,6.55 49.37,6.55 49.28,6.55 49.28,6.65 49.18,6.65 
	49.18,6.75 49.08,6.75 49.08,6.85 48.98,6.85 48.98,6.95 48.88,6.95 48.88,6.85 48.88,6.95 48.88,7.05 48.78,7.05 48.78,6.95 
	48.78,7.05 48.68,7.05 48.68,6.95 48.58,6.95 48.58,7.05 48.48,6.95 48.38,6.95 48.38,7.05 48.38,7.15 48.38,7.05 48.38,7.15 
	48.38,7.25 48.28,7.25 48.19,7.25 48.09,7.25 48.09,7.34 48.19,7.34 48.09,7.34 48.09,7.44 47.99,7.44 47.89,7.44 47.99,7.44 
	47.99,7.54 47.99,7.64 48.09,7.64 48.09,7.74 48.09,7.84 48.19,7.84 48.19,7.94 48.19,8.04 48.28,7.94 48.38,7.94 48.38,8.04 
	48.28,8.04 48.28,8.14 48.38,8.14 48.38,8.04 48.48,8.04 48.48,8.14 48.58,8.14 48.58,8.24 48.68,8.34 48.68,8.43 48.78,8.43 
	48.78,8.34 48.88,8.34 48.88,8.43 48.78,8.43 48.78,8.53 48.88,8.63 48.98,8.63 49.08,8.63 49.08,8.53 49.18,8.53 49.18,8.63 
	49.18,8.73 49.28,8.73 49.28,8.83 49.18,8.83 49.18,8.93 49.08,8.93 49.08,9.03 49.18,9.03 49.28,9.03 49.28,8.93 49.28,9.03 
	49.37,9.03 49.47,9.13 49.57,9.13 49.57,9.23 49.67,9.33 49.67,9.23 49.67,9.33 49.77,9.33 49.77,9.43 49.77,9.53 49.87,9.53 
	49.87,9.62 49.97,9.62 50.07,9.62 50.17,9.62 50.17,9.72 50.17,9.82 50.17,9.72 50.07,9.72 50.07,9.82 50.07,9.92 50.17,9.92 
	50.27,9.92 50.27,10.02 50.17,10.12 50.17,10.22 50.27,10.22 50.27,10.32 50.27,10.42 50.37,10.42 50.37,10.32 50.37,10.42 
	50.37,10.52 50.46,10.52 50.46,10.62 50.56,10.62 50.56,10.71 50.66,10.71 50.66,10.81 50.66,10.71 50.76,10.81 50.76,10.91 
	50.76,11.01 50.86,11.01 50.86,11.11 50.96,11.11 51.06,11.11 51.06,11.01 51.06,11.11 51.06,11.21 50.96,11.21 50.96,11.31 
	51.06,11.31 51.16,11.31 51.16,11.41 51.26,11.31 51.36,11.31 51.46,11.21 51.46,11.31 51.46,11.41 51.56,11.41 51.65,11.41 
	51.65,11.31 51.75,11.31 51.85,11.31 51.85,11.41 51.95,11.41 52.05,11.41 52.15,11.41 52.15,11.51 52.05,11.51 52.05,11.61 
	52.05,11.71 52.15,11.71 52.25,11.71 52.35,11.71 52.25,11.71 52.25,11.61 52.35,11.61 52.35,11.51 52.35,11.61 52.35,11.71 
	52.45,11.71 52.55,11.71 52.55,11.8 52.55,11.9 52.45,11.9 52.45,12 52.45,12.1 52.45,12.2 52.35,12.2 52.35,12.3 52.25,12.3 
	52.25,12.4 52.25,12.5 52.15,12.5 52.15,12.6 52.25,12.6 52.25,12.7 52.25,12.6 52.35,12.6 52.45,12.6 52.35,12.7 52.25,12.7 
	52.15,12.7 52.15,12.8 52.15,12.89 52.25,12.99 52.25,13.09 52.15,13.09 52.25,13.09 52.35,13.19 52.25,13.19 52.25,13.29 
	52.15,13.29 52.15,13.39 52.25,13.39 52.35,13.39 52.45,13.39 52.45,13.49 52.45,13.59 52.55,13.49 52.65,13.49 52.65,13.59 
	52.55,13.59 52.55,13.69 52.55,13.79 52.65,13.79 52.65,13.69 52.74,13.69 52.84,13.69 52.94,13.69 53.04,13.69 53.04,13.79 
	52.94,13.89 53.04,13.89 53.04,13.99 53.14,13.99 53.14,13.89 53.24,13.89 53.34,13.99 53.54,14.08 53.54,14.18 53.64,14.18 
	53.64,14.28 53.74,14.28 53.74,14.38 53.83,14.38 53.93,14.38 53.93,14.48 53.93,14.58 54.03,14.58 54.13,14.58 54.13,14.48 
	54.13,14.38 54.03,14.38 54.13,14.28 54.13,14.38 54.23,14.38 54.23,14.48 54.33,14.58 54.33,14.68 54.43,14.68 54.43,14.78 
	54.53,14.78 54.53,14.88 54.53,14.98 54.63,14.98 54.63,15.08 54.73,15.08 54.73,15.17 54.73,15.27 54.63,15.27 54.53,15.37 
	54.53,15.47 54.63,15.47 54.63,15.57 54.53,15.57 54.53,15.47 54.43,15.47 54.33,15.47 54.33,15.57 54.33,15.67 54.43,15.67 
	54.33,15.77 54.23,15.77 54.23,15.87 54.33,15.87 54.33,15.97 54.33,16.07 54.33,15.97 54.23,15.97 54.13,15.97 54.13,16.07 
	54.13,16.17 54.13,16.26 54.03,16.26 54.03,16.17 53.93,16.17 53.93,16.26 53.83,16.26 53.83,16.36 53.83,16.46 53.74,16.46 
	53.74,16.56 53.74,16.66 53.74,16.76 53.64,16.86 53.74,16.86 53.74,16.96 53.74,17.06 53.83,17.06 53.74,17.06 53.74,17.16 
	53.83,17.16 53.93,17.16 53.93,17.26 53.93,17.16 53.93,17.06 54.03,17.06 54.03,17.16 54.03,17.26 54.03,17.36 54.03,17.45 
	54.13,17.45 54.13,17.36 54.23,17.36 54.23,17.26 54.23,17.36 54.33,17.36 54.43,17.36 54.43,17.45 54.53,17.45 54.63,17.55 
	54.53,17.55 54.63,17.55 54.73,17.55 54.73,17.65 54.83,17.65 54.93,17.65 55.02,17.65 55.02,17.75 55.12,17.75 55.22,17.75 
	55.32,17.75 55.42,17.75 55.42,17.85 55.52,17.85 55.62,17.85 55.62,17.95 55.72,17.95 55.72,17.85 55.82,17.85 55.92,17.85 
	55.92,17.95 55.82,17.95 55.92,17.95 "/>
</svg>
