<?xml version="1.0" encoding="utf-8"?>
<!-- Generator: Adobe Illustrator 24.2.1, SVG Export Plug-In . SVG Version: 6.00 Build 0)  -->
<svg version="1.1" id="Layer_1" xmlns="http://www.w3.org/2000/svg" xmlns:xlink="http://www.w3.org/1999/xlink" x="0px" y="0px"
	 viewBox="0 0 97.23 97.23" style="enable-background:new 0 0 97.23 97.23;" xml:space="preserve">
<style type="text/css">
	.st0{fill-rule:evenodd;clip-rule:evenodd;}
</style>
<polygon class="st0" points="38.92,3.44 38.92,3.56 38.92,3.68 38.92,3.79 38.92,3.91 39.03,3.91 39.03,4.03 38.92,4.03 38.92,4.15 
	38.92,4.27 38.92,4.38 39.03,4.38 39.03,4.5 39.15,4.5 39.15,4.62 39.15,4.5 39.27,4.5 39.39,4.5 39.51,4.5 39.51,4.62 39.62,4.62 
	39.62,4.5 39.74,4.38 39.86,4.38 39.98,4.5 40.09,4.5 40.21,4.5 40.21,4.62 40.33,4.62 40.33,4.5 40.33,4.62 40.45,4.62 40.33,4.74 
	40.33,4.86 40.45,4.86 40.57,4.86 40.68,4.86 40.68,4.97 40.68,4.86 40.8,4.86 40.8,4.97 40.68,4.97 40.68,5.09 40.68,5.21 
	40.57,5.21 40.57,5.33 40.57,5.45 40.57,5.56 40.45,5.56 40.45,5.68 40.45,5.8 40.45,5.92 40.45,6.04 40.45,6.15 40.57,6.15 
	40.57,6.04 40.68,5.92 40.8,5.8 40.92,5.8 40.92,5.68 41.04,5.68 41.16,5.68 41.16,5.56 41.27,5.56 41.27,5.45 41.27,5.33 
	41.39,5.33 41.51,5.33 41.63,5.33 41.75,5.33 41.75,5.21 41.86,5.21 41.86,5.09 41.86,4.97 41.98,4.97 42.1,4.97 42.22,4.86 
	42.22,4.74 42.34,4.74 42.34,4.86 42.45,4.86 42.45,4.74 42.57,4.74 42.57,4.62 42.45,4.5 42.57,4.5 42.69,4.5 42.69,4.62 
	42.81,4.62 42.93,4.62 42.93,4.5 43.04,4.5 43.04,4.38 43.16,4.5 43.28,4.38 43.28,4.5 43.4,4.5 43.4,4.38 43.52,4.38 43.63,4.38 
	43.63,4.5 43.63,4.62 43.75,4.62 43.63,4.62 43.63,4.5 43.75,4.5 43.75,4.38 43.87,4.38 43.87,4.27 43.99,4.27 43.87,4.27 
	43.87,4.15 43.99,4.15 44.1,4.15 44.22,4.15 44.22,4.03 44.34,4.03 44.46,4.15 44.58,4.15 44.69,4.15 44.69,4.27 44.81,4.27 
	44.93,4.38 44.93,4.27 45.05,4.27 45.05,4.38 45.05,4.27 45.17,4.27 45.28,4.27 45.4,4.27 45.52,4.15 45.64,4.15 45.76,4.15 
	45.76,4.27 45.64,4.27 45.64,4.38 45.76,4.38 45.64,4.38 45.76,4.5 45.87,4.5 45.87,4.62 45.76,4.62 45.87,4.62 45.99,4.62 
	46.11,4.62 46.11,4.74 46.11,4.62 46.23,4.62 46.23,4.74 46.35,4.74 46.46,4.74 46.46,4.86 46.58,4.86 46.58,4.74 46.7,4.74 
	46.7,4.62 46.82,4.62 46.82,4.74 46.82,4.86 46.82,4.97 46.94,4.97 46.94,5.09 47.05,5.09 47.05,5.21 47.17,5.21 47.17,5.09 
	47.17,4.97 47.29,4.97 47.41,4.97 47.53,4.86 47.64,4.97 47.76,4.97 47.88,4.97 48,4.97 48.11,4.97 48.23,4.97 48.23,5.09 
	48.23,5.21 48.35,5.21 48.35,5.33 48.47,5.33 48.47,5.21 48.59,5.33 48.7,5.33 48.82,5.33 48.7,5.33 48.7,5.45 48.7,5.56 
	48.82,5.45 48.82,5.33 48.94,5.45 49.06,5.45 48.94,5.56 48.94,5.45 48.94,5.56 49.06,5.68 49.06,5.56 49.18,5.56 49.18,5.68 
	49.18,5.8 49.18,5.92 49.18,6.04 49.18,5.92 49.29,5.92 49.41,5.92 49.41,6.04 49.53,6.04 49.53,5.92 49.41,5.8 49.41,5.68 
	49.53,5.68 49.65,5.68 49.77,5.68 49.77,5.8 49.88,5.8 50,5.92 50,6.04 50.12,6.04 50.12,5.92 50.12,5.8 50.24,5.8 50.24,5.92 
	50.24,5.8 50.36,5.92 50.36,5.8 50.47,5.8 50.47,5.68 50.59,5.68 50.71,5.68 50.83,5.68 50.83,5.8 50.95,5.8 51.06,5.8 51.06,5.68 
	51.18,5.8 51.3,5.8 51.3,5.68 51.42,5.68 51.42,5.56 51.3,5.56 51.3,5.45 51.42,5.45 51.42,5.56 51.54,5.56 51.65,5.56 51.77,5.56 
	51.89,5.68 52.01,5.8 52.01,5.68 52.12,5.68 52.24,5.68 52.24,5.8 52.36,5.92 52.48,5.92 52.48,6.04 52.6,6.04 52.6,6.15 
	52.48,6.15 52.36,6.15 52.36,6.27 52.24,6.27 52.24,6.39 52.12,6.39 52.24,6.39 52.36,6.39 52.48,6.39 52.48,6.51 52.48,6.63 
	52.36,6.63 52.36,6.74 52.48,6.74 52.48,6.86 52.6,6.86 52.6,6.74 52.71,6.74 52.71,6.63 52.83,6.74 52.83,6.86 52.95,6.86 
	52.95,6.74 53.07,6.74 53.19,6.74 53.3,6.74 53.42,6.74 53.42,6.86 53.54,6.86 53.42,6.86 53.42,6.98 53.3,6.98 53.3,7.1 53.42,7.1 
	53.54,7.1 53.54,6.98 53.66,6.98 53.66,7.1 53.78,7.1 53.89,7.1 53.89,7.21 54.01,7.21 54.01,7.33 54.01,7.45 53.89,7.57 
	53.89,7.69 53.89,7.8 53.89,7.69 54.01,7.69 54.01,7.8 54.13,7.8 54.13,7.92 54.25,8.04 54.37,8.16 54.25,8.16 54.37,8.16 
	54.37,8.28 54.25,8.28 54.25,8.39 54.13,8.39 54.13,8.51 54.25,8.51 54.25,8.63 54.13,8.63 54.13,8.75 54.13,8.87 54.25,8.87 
	54.25,8.98 54.37,8.98 54.37,9.1 54.48,9.1 54.6,9.1 54.72,9.1 54.84,9.1 54.96,9.1 54.96,8.98 54.96,9.1 54.96,9.22 54.84,9.22 
	54.84,9.34 54.72,9.34 54.72,9.46 54.6,9.46 54.6,9.57 54.72,9.57 54.84,9.57 54.72,9.57 54.72,9.69 54.72,9.81 54.84,9.81 
	54.84,9.69 54.96,9.69 54.96,9.81 54.84,9.93 54.84,10.05 54.72,10.16 54.72,10.28 54.84,10.28 54.84,10.4 54.96,10.4 55.07,10.4 
	55.19,10.4 55.19,10.52 55.19,10.63 55.19,10.52 55.31,10.52 55.31,10.4 55.31,10.28 55.43,10.28 55.43,10.4 55.43,10.52 
	55.55,10.4 55.55,10.52 55.66,10.52 55.78,10.52 55.66,10.52 55.55,10.52 55.55,10.63 55.66,10.63 55.78,10.63 55.9,10.63 
	55.9,10.75 55.9,10.87 56.02,10.87 56.02,10.75 56.13,10.75 56.25,10.75 56.25,10.63 56.25,10.75 56.37,10.75 56.49,10.75 
	56.49,10.87 56.61,10.87 56.61,10.75 56.72,10.75 56.72,10.63 56.84,10.63 56.84,10.75 56.72,10.75 56.84,10.75 56.84,10.87 
	56.96,10.87 57.08,10.87 56.96,10.87 57.08,10.75 57.08,10.87 57.2,10.87 57.08,10.87 57.08,10.99 57.08,11.11 56.96,11.11 
	57.08,11.11 57.08,11.22 57.08,11.34 57.08,11.46 57.2,11.46 57.2,11.58 57.31,11.58 57.31,11.7 57.2,11.7 57.31,11.7 57.31,11.58 
	57.31,11.7 57.43,11.7 57.43,11.81 57.55,11.81 57.67,11.93 57.67,12.17 57.67,12.29 57.67,12.4 57.79,12.4 57.67,12.52 
	57.79,12.52 57.79,12.64 57.67,12.76 57.67,12.88 57.55,12.88 57.55,12.99 57.55,13.11 57.67,13.11 57.67,13.23 57.67,13.35 
	57.79,13.35 57.79,13.47 57.79,13.58 57.9,13.58 58.02,13.7 58.02,13.82 58.02,13.94 58.14,13.94 58.14,14.06 58.26,14.06 
	58.38,14.06 58.38,14.17 58.49,14.17 58.61,14.17 58.49,14.17 58.49,14.06 58.61,14.06 58.61,14.17 58.73,14.17 58.73,14.29 
	58.85,14.29 58.97,14.29 58.97,14.17 59.08,14.17 59.08,14.29 59.2,14.29 59.2,14.41 59.32,14.41 59.32,14.29 59.32,14.41 
	59.44,14.41 59.44,14.29 59.56,14.29 59.67,14.41 59.56,14.41 59.56,14.53 59.67,14.53 59.67,14.41 59.79,14.29 59.79,14.41 
	59.91,14.41 60.03,14.41 60.14,14.53 60.26,14.53 60.14,14.53 60.14,14.64 60.26,14.64 60.26,14.53 60.38,14.53 60.5,14.53 
	60.5,14.64 60.38,14.64 60.26,14.64 60.26,14.76 60.14,14.88 60.26,14.88 60.38,14.88 60.26,14.88 60.26,15 60.14,15 60.03,15.12 
	60.14,15.12 60.14,15.23 60.26,15.12 60.38,15.12 60.5,15.23 60.62,15.23 60.62,15.12 60.73,15.12 60.73,15 60.85,15 60.97,15 
	60.97,15.12 60.97,15.23 61.09,15.12 61.09,15.23 61.21,15.23 61.32,15.23 61.32,15.12 61.44,15.12 61.56,15.12 61.68,15.12 
	61.68,15 61.8,15 61.8,14.88 61.8,14.76 61.91,14.76 61.91,14.88 62.03,14.88 62.15,15 62.15,15.12 62.27,15.12 62.27,15 62.39,15 
	62.5,15 62.5,14.88 62.62,14.88 62.74,14.88 62.86,14.88 62.86,15 62.98,15 62.98,15.12 62.98,15 63.09,15 63.21,15 63.21,14.88 
	63.33,14.88 63.33,15 63.45,15 63.56,15 63.68,15 63.68,15.12 63.8,15.12 63.8,15 63.92,15 64.04,15 64.04,14.88 64.15,14.88 
	64.27,15 64.39,15 64.39,14.88 64.39,15 64.51,15 64.51,14.88 64.63,14.88 64.63,14.76 64.51,14.76 64.63,14.76 64.74,14.76 
	64.63,14.76 64.74,14.76 64.86,14.76 64.74,14.76 64.74,14.64 64.86,14.64 64.98,14.64 64.98,14.53 64.98,14.41 65.1,14.41 
	65.1,14.53 65.22,14.53 65.22,14.64 65.22,14.76 65.33,14.76 65.33,14.64 65.45,14.64 65.45,14.76 65.57,14.76 65.57,14.64 
	65.69,14.53 65.81,14.53 65.92,14.41 65.92,14.53 66.04,14.53 66.04,14.41 66.16,14.41 66.04,14.41 66.04,14.53 66.04,14.64 
	66.04,14.76 66.16,14.76 66.16,14.64 66.28,14.64 66.28,14.53 66.4,14.53 66.4,14.64 66.4,14.53 66.51,14.53 66.51,14.64 
	66.63,14.64 66.51,14.64 66.51,14.76 66.4,14.76 66.51,14.76 66.51,14.88 66.63,14.88 66.63,14.76 66.75,14.76 66.63,14.88 
	66.75,14.88 66.87,14.88 66.87,15 66.99,15 66.99,15.12 66.99,15.23 67.1,15.23 67.1,15.12 67.22,15.12 67.22,15 67.34,15 
	67.34,14.88 67.34,14.76 67.46,14.76 67.46,14.64 67.34,14.64 67.46,14.64 67.46,14.53 67.57,14.53 67.57,14.41 67.57,14.29 
	67.57,14.17 67.57,14.06 67.69,14.06 67.69,14.17 67.81,14.17 67.81,14.29 67.93,14.29 68.05,14.29 68.05,14.41 68.16,14.41 
	68.28,14.41 68.28,14.53 68.16,14.53 68.28,14.53 68.28,14.64 68.4,14.64 68.52,14.64 68.4,14.53 68.52,14.53 68.64,14.53 
	68.64,14.64 68.52,14.64 68.64,14.64 68.64,14.53 68.64,14.41 68.64,14.53 68.75,14.53 68.75,14.41 68.75,14.29 68.87,14.41 
	68.87,14.29 68.99,14.29 69.11,14.29 69.23,14.41 69.23,14.53 69.11,14.53 69.11,14.64 69.23,14.64 69.23,14.53 69.23,14.64 
	69.34,14.64 69.34,14.76 69.34,14.64 69.46,14.64 69.46,14.76 69.46,14.64 69.58,14.64 69.58,14.53 69.7,14.53 69.7,14.41 
	69.82,14.53 69.82,14.64 69.7,14.64 69.82,14.64 69.93,14.64 69.93,14.76 70.05,14.76 70.05,14.88 70.05,15 70.17,15 70.17,15.12 
	70.29,15.12 70.29,15.23 70.41,15.23 70.52,15.23 70.52,15.35 70.52,15.47 70.64,15.47 70.76,15.47 70.76,15.59 70.76,15.71 
	70.88,15.71 70.88,15.59 71,15.59 71.11,15.59 71.11,15.47 71.23,15.47 71.23,15.59 71.35,15.59 71.35,15.71 71.47,15.71 
	71.47,15.82 71.58,15.82 71.58,15.94 71.7,15.94 71.58,15.94 71.58,16.06 71.7,16.06 71.7,16.18 71.7,16.3 71.7,16.41 71.82,16.41 
	71.82,16.53 71.82,16.65 71.94,16.65 72.06,16.65 72.06,16.77 72.17,16.77 72.29,16.77 72.41,16.77 72.53,16.77 72.65,16.89 
	72.65,17 72.65,17.12 72.65,17.24 72.76,17.24 72.88,17.24 73,17.24 73,17.12 73.12,17.12 73.24,17.12 73.24,17.24 73.35,17.24 
	73.24,17.24 73.24,17.36 73.35,17.36 73.47,17.36 73.35,17.36 73.35,17.48 73.47,17.48 73.47,17.59 73.59,17.59 73.59,17.48 
	73.59,17.59 73.59,17.48 73.71,17.48 73.83,17.59 73.83,17.48 73.94,17.59 74.06,17.59 74.06,17.48 73.94,17.48 73.94,17.36 
	74.06,17.36 74.06,17.24 74.18,17.24 74.06,17.24 74.06,17.36 74.06,17.48 74.18,17.48 74.18,17.36 74.3,17.36 74.42,17.36 
	74.42,17.48 74.53,17.48 74.42,17.48 74.42,17.59 74.53,17.59 74.65,17.59 74.65,17.71 74.77,17.71 74.77,17.59 74.77,17.71 
	74.89,17.71 74.89,17.83 75.01,17.83 75.01,17.95 75.01,18.06 75.12,17.95 75.12,18.06 75.12,18.18 75.24,18.18 75.36,18.18 
	75.24,18.18 75.36,18.18 75.48,18.18 75.59,18.3 75.59,18.18 75.59,18.06 75.71,18.06 75.83,18.06 75.95,18.06 75.95,17.95 
	75.95,17.83 76.07,17.83 76.18,17.83 76.3,17.83 76.3,17.71 76.3,17.59 76.42,17.59 76.42,17.71 76.54,17.71 76.54,17.59 
	76.66,17.48 76.77,17.48 76.77,17.59 76.77,17.71 76.77,17.83 76.77,17.71 76.89,17.71 76.89,17.83 76.77,17.83 76.77,17.95 
	76.77,18.06 76.77,17.95 76.77,18.06 76.89,18.06 76.89,18.18 76.77,18.18 76.89,18.18 77.01,18.18 77.01,18.06 77.13,18.06 
	77.13,18.18 77.01,18.18 77.13,18.18 77.25,18.18 77.25,18.06 77.36,18.06 77.36,18.18 77.36,18.06 77.48,18.06 77.48,17.95 
	77.48,17.83 77.6,17.83 77.6,17.95 77.6,18.06 77.48,18.18 77.6,18.18 77.6,18.06 77.72,18.06 77.72,18.18 77.72,18.3 77.72,18.18 
	77.84,18.18 77.95,18.18 77.84,18.18 77.84,18.3 77.95,18.3 77.95,18.18 77.95,18.06 78.07,18.06 78.07,18.18 78.19,18.18 
	78.31,18.18 78.31,18.06 78.43,18.18 78.43,18.06 78.31,18.06 78.31,17.95 78.43,17.95 78.54,17.95 78.54,17.83 78.66,17.83 
	78.78,17.83 78.78,17.71 78.9,17.71 79.02,17.83 79.02,17.71 79.02,17.59 79.13,17.71 79.25,17.59 79.37,17.59 79.37,17.71 
	79.25,17.71 79.13,17.71 79.13,17.83 79.25,17.95 79.25,17.83 79.37,17.83 79.37,17.95 79.37,18.06 79.49,17.95 79.49,17.83 
	79.6,17.95 79.72,17.83 79.72,17.71 79.84,17.71 79.96,17.71 79.84,17.71 79.96,17.71 79.96,17.83 79.84,17.83 79.84,17.95 
	79.96,17.95 80.08,17.95 80.08,18.06 79.96,18.06 79.96,18.18 79.96,18.06 79.96,18.18 79.96,18.3 79.96,18.42 79.96,18.54 
	79.96,18.65 80.08,18.65 80.19,18.65 80.31,18.65 80.31,18.77 80.43,18.77 80.43,18.89 80.55,18.89 80.67,18.89 80.67,18.77 
	80.55,18.77 80.55,18.65 80.67,18.65 80.78,18.65 80.67,18.54 80.78,18.54 80.9,18.54 80.9,18.42 80.78,18.42 80.9,18.42 80.9,18.3 
	81.02,18.3 81.02,18.18 81.14,18.18 81.14,18.3 81.14,18.42 81.26,18.3 81.26,18.18 81.14,18.18 81.26,18.18 81.26,18.3 81.37,18.3 
	81.37,18.18 81.49,18.18 81.49,18.3 81.37,18.3 81.49,18.3 81.61,18.3 81.61,18.18 81.73,18.18 81.73,18.06 81.85,18.06 
	81.85,18.18 81.85,18.06 81.96,18.06 81.96,18.18 82.08,18.18 82.08,18.06 82.2,18.06 82.2,17.95 82.08,17.95 82.2,17.95 
	82.2,17.83 82.08,17.95 82.08,17.83 82.2,17.83 82.2,17.71 82.08,17.71 82.08,17.59 82.08,17.71 81.96,17.71 81.96,17.83 
	81.96,17.71 81.85,17.71 81.85,17.59 81.96,17.59 81.85,17.59 81.85,17.48 81.85,17.36 81.96,17.36 82.08,17.36 82.08,17.24 
	81.96,17.24 81.85,17.24 81.85,17.12 81.96,17.12 81.96,17.24 82.08,17.24 82.08,17.12 82.08,17 82.2,17 82.08,17 81.96,17 
	81.85,17 81.85,16.89 81.96,16.89 82.08,16.89 81.96,16.89 81.96,16.77 81.96,16.65 82.08,16.65 82.08,16.77 82.08,16.65 
	82.2,16.65 82.2,16.77 82.32,16.77 82.44,16.77 82.44,16.89 82.32,16.89 82.32,17 82.44,17 82.44,16.89 82.55,17 82.44,17 
	82.44,17.12 82.55,17.12 82.55,17.24 82.55,17.36 82.55,17.48 82.67,17.48 82.79,17.59 82.67,17.71 82.67,17.83 82.79,17.83 
	82.79,17.95 82.91,17.95 82.91,18.06 82.79,18.06 82.79,18.18 82.67,18.18 82.67,18.3 82.67,18.18 82.67,18.3 82.55,18.3 
	82.67,18.3 82.67,18.42 82.55,18.42 82.67,18.42 82.67,18.54 82.55,18.54 82.67,18.54 82.67,18.65 82.67,18.77 82.79,18.89 
	82.91,18.89 82.91,19.01 83.02,19.01 83.02,19.13 83.02,19.24 83.14,19.24 83.14,19.36 83.26,19.36 83.26,19.48 83.26,19.6 
	83.26,19.72 83.38,19.72 83.38,19.83 83.5,19.83 83.61,19.83 83.73,19.83 83.73,19.95 83.73,20.07 83.85,20.07 83.97,20.19 
	83.97,20.31 84.09,20.31 84.2,20.31 84.32,20.31 84.32,20.42 84.44,20.42 84.44,20.54 84.56,20.54 84.68,20.54 84.79,20.66 
	84.91,20.66 85.03,20.66 85.15,20.66 85.15,20.78 85.27,20.9 85.27,21.01 85.27,21.13 85.38,21.13 85.38,21.25 85.38,21.37 
	85.5,21.37 85.62,21.49 85.74,21.49 85.86,21.49 85.97,21.49 86.09,21.6 86.21,21.6 86.09,21.6 86.09,21.72 86.09,21.84 
	85.97,21.84 85.97,21.96 85.97,22.07 85.86,22.19 85.74,22.31 85.74,22.43 85.62,22.43 85.5,22.55 85.5,22.66 85.38,22.66 
	85.38,22.78 85.38,22.9 85.38,23.02 85.38,23.14 85.38,23.25 85.5,23.37 85.5,23.49 85.5,23.61 85.38,23.73 85.38,23.84 
	85.38,23.96 85.38,24.08 85.38,24.2 85.38,24.32 85.38,24.43 85.38,24.55 85.27,24.67 85.27,24.79 85.27,24.91 85.27,25.02 
	85.15,25.26 85.03,25.38 84.91,25.38 84.79,25.49 84.79,25.61 84.68,25.73 84.79,25.85 84.79,25.97 84.91,25.97 84.79,26.08 
	84.79,26.2 84.68,26.32 84.56,26.32 84.56,26.44 84.44,26.44 84.44,26.56 84.32,26.67 84.32,26.79 84.2,26.91 84.2,27.03 
	84.2,27.15 84.09,27.15 84.09,27.26 83.97,27.38 83.97,27.5 83.85,27.5 83.85,27.62 83.85,27.74 83.85,27.85 83.73,27.85 
	83.73,27.97 83.73,28.09 83.61,28.21 83.61,28.33 83.61,28.56 83.5,28.68 83.5,28.8 83.5,28.92 83.5,29.03 83.5,29.15 83.38,29.27 
	83.38,29.39 83.38,29.5 83.26,29.62 83.26,29.74 83.26,29.86 83.26,29.98 83.14,30.09 83.14,30.33 83.14,30.45 83.26,30.57 
	83.26,30.8 83.26,30.92 83.26,31.04 83.38,31.16 83.38,31.27 83.38,31.39 83.38,31.51 83.26,31.63 83.14,31.63 83.02,31.75 
	82.91,31.75 82.79,31.86 82.79,31.98 82.67,32.1 82.55,32.22 82.44,32.34 82.44,32.45 82.44,32.57 82.32,32.69 82.32,32.81 
	82.2,32.92 82.08,33.04 82.08,33.16 82.08,33.28 81.96,33.4 81.85,33.51 81.73,33.63 81.61,33.87 81.61,33.99 81.49,34.1 
	81.49,34.22 81.37,34.22 81.26,34.34 81.26,34.46 81.14,34.58 81.02,34.69 81.02,34.81 80.67,35.28 80.55,35.4 80.19,35.87 
	80.08,35.87 80.08,35.99 79.96,36.11 79.96,36.23 79.84,36.46 79.72,36.58 79.6,36.7 79.49,36.82 79.49,36.93 79.37,37.05 
	79.37,37.17 79.25,37.29 79.25,37.41 79.13,37.41 79.02,37.64 78.9,37.76 78.9,37.88 78.78,38 78.78,38.11 78.66,38.23 78.66,38.35 
	78.66,38.47 78.54,38.59 78.54,38.7 78.19,39.18 78.19,39.29 78.07,39.41 77.95,39.53 77.84,39.76 77.72,39.88 77.72,40 77.6,40 
	77.6,40.12 77.48,40.24 77.36,40.35 77.36,40.47 77.25,40.47 77.13,40.59 77.13,40.71 77.01,40.71 77.01,40.83 77.01,40.94 
	76.89,40.94 76.77,41.06 76.66,41.18 76.66,41.3 76.54,41.3 76.42,41.42 76.3,41.53 76.18,41.65 76.18,41.77 76.07,41.77 
	75.95,41.89 75.95,42.01 75.83,42.01 75.71,42.12 75.59,42.24 75.48,42.24 75.48,42.36 75.36,42.48 75.24,42.6 75.12,42.71 
	75.01,42.83 75.01,42.95 74.89,42.95 74.89,43.07 74.89,43.19 74.89,43.3 74.77,43.42 74.77,43.54 74.65,43.54 74.65,43.66 
	74.65,43.77 74.77,44.01 74.77,44.13 74.89,44.13 75.01,44.13 75.12,44.13 75.01,44.25 75.12,44.36 75.12,44.48 75.12,44.6 
	75.24,44.6 75.24,44.72 75.12,44.72 75.24,44.84 75.36,44.95 75.48,44.95 75.48,45.07 75.59,45.07 75.59,45.19 75.59,45.31 
	75.71,45.31 75.71,45.43 75.83,45.43 75.83,45.54 75.83,45.66 75.95,45.78 75.95,45.9 76.07,46.02 76.18,46.02 76.18,46.13 
	76.18,46.25 76.3,46.25 76.42,46.13 76.54,46.13 76.66,46.02 76.77,46.02 76.89,46.02 76.89,46.13 77.01,46.13 77.01,46.25 
	77.13,46.25 77.25,46.25 77.25,46.37 77.36,46.37 77.48,46.37 77.48,46.49 77.6,46.49 77.6,46.61 77.72,46.61 77.72,46.72 
	77.84,46.84 77.84,46.72 77.95,46.72 78.07,46.61 78.19,46.49 78.31,46.49 78.43,46.49 78.43,46.37 78.43,46.25 78.54,46.25 
	78.66,46.25 78.66,46.37 78.78,46.37 78.78,46.49 78.9,46.49 78.9,46.37 79.02,46.37 79.02,46.49 78.9,46.49 78.9,46.61 
	79.02,46.61 79.02,46.72 79.02,46.84 79.02,46.72 79.13,46.72 79.13,46.84 79.25,46.84 79.25,46.96 79.25,46.84 79.37,46.84 
	79.37,46.96 79.37,47.08 79.49,47.08 79.49,47.19 79.37,47.19 79.37,47.31 79.49,47.31 79.49,47.43 79.6,47.43 79.6,47.55 
	79.49,47.55 79.49,47.67 79.6,47.67 79.6,47.78 79.49,47.78 79.49,47.9 79.49,48.02 79.49,48.14 79.49,48.26 79.6,48.14 79.6,48.26 
	79.72,48.26 79.6,48.26 79.72,48.26 79.72,48.37 79.84,48.37 79.84,48.49 79.72,48.49 79.84,48.49 79.96,48.49 80.08,48.49 
	80.08,48.61 79.96,48.61 80.08,48.73 80.08,48.61 80.19,48.61 80.19,48.73 80.31,48.73 80.31,48.61 80.43,48.61 80.43,48.73 
	80.55,48.73 80.55,48.61 80.55,48.49 80.55,48.37 80.67,48.37 80.67,48.49 80.67,48.61 80.78,48.61 80.78,48.73 80.78,48.85 
	80.67,48.85 80.78,48.85 80.78,48.96 80.9,48.96 80.9,49.08 81.02,49.08 81.02,48.96 81.02,48.85 81.02,48.96 81.14,48.96 
	81.14,49.08 81.26,49.08 81.14,49.2 81.26,49.2 81.37,49.2 81.49,49.2 81.49,49.32 81.61,49.2 81.49,49.2 81.49,49.08 81.61,49.08 
	81.61,48.96 81.73,48.96 81.73,49.08 81.61,49.08 81.61,49.2 81.61,49.32 81.73,49.32 81.73,49.2 81.85,49.2 81.85,49.32 
	81.73,49.32 81.73,49.44 81.61,49.44 81.61,49.55 81.73,49.55 81.73,49.67 81.61,49.67 81.73,49.67 81.73,49.79 81.61,49.79 
	81.61,49.91 81.73,49.91 81.61,49.91 81.61,50.03 81.73,50.03 81.73,50.14 81.85,50.14 81.73,50.14 81.73,50.26 81.61,50.26 
	81.61,50.14 81.49,50.14 81.49,50.26 81.37,50.26 81.49,50.26 81.49,50.38 81.37,50.38 81.26,50.38 81.14,50.5 81.02,50.5 
	80.9,50.5 80.9,50.61 80.9,50.73 80.9,50.85 80.9,50.97 80.9,51.09 80.78,51.09 80.78,51.2 80.67,51.2 80.67,51.32 80.55,51.32 
	80.55,51.44 80.55,51.56 80.55,51.68 80.55,51.79 80.55,51.91 80.67,51.91 80.67,51.79 80.78,51.68 80.9,51.68 80.9,51.79 
	80.78,51.79 80.78,51.91 80.78,52.03 80.67,52.03 80.78,52.03 80.9,52.03 81.02,52.03 81.02,51.91 81.02,52.03 81.02,52.15 
	81.02,52.27 80.9,52.27 80.78,52.27 80.78,52.38 80.9,52.38 81.02,52.38 81.02,52.5 81.14,52.5 81.02,52.62 80.9,52.5 80.78,52.62 
	80.78,52.5 80.78,52.38 80.67,52.38 80.67,52.5 80.55,52.62 80.55,52.74 80.67,52.74 80.55,52.86 80.55,52.97 80.43,52.97 
	80.55,52.97 80.55,53.09 80.43,53.09 80.31,53.21 80.31,53.33 80.43,53.33 80.43,53.45 80.31,53.45 80.31,53.56 80.31,53.45 
	80.19,53.45 80.08,53.45 79.96,53.45 79.84,53.56 79.84,53.68 79.84,53.8 79.96,53.8 79.96,53.68 80.08,53.68 80.19,53.68 
	80.31,53.68 80.31,53.8 80.19,53.8 80.19,53.92 80.08,53.92 80.08,54.04 80.19,54.04 80.19,54.15 80.08,54.15 80.08,54.27 
	80.19,54.15 80.19,54.27 80.19,54.39 80.08,54.39 80.08,54.51 80.08,54.62 80.08,54.74 79.96,54.86 79.84,54.98 79.84,55.1 
	79.84,55.21 79.72,55.1 79.72,55.21 79.72,55.33 79.72,55.45 79.72,55.57 79.72,55.69 79.6,55.69 79.49,55.69 79.49,55.8 
	79.49,55.92 79.49,56.04 79.37,56.16 79.37,56.28 79.37,56.39 79.25,56.39 79.25,56.51 79.13,56.63 79.02,56.63 78.9,56.63 
	78.9,56.75 78.9,56.63 79.02,56.63 79.02,56.75 79.02,56.87 79.13,56.98 79.02,56.98 79.02,57.1 78.9,57.1 78.78,57.1 78.66,57.22 
	78.66,57.34 78.66,57.46 78.78,57.46 78.78,57.57 78.66,57.57 78.54,57.69 78.43,57.69 78.31,57.69 78.19,57.69 78.07,57.81 
	77.95,57.81 77.84,57.81 77.84,57.93 77.95,57.93 77.95,58.05 77.84,58.05 77.72,58.05 77.6,58.05 77.6,58.16 77.6,58.28 77.6,58.4 
	77.6,58.52 77.48,58.52 77.6,58.63 77.72,58.75 77.6,58.75 77.6,58.87 77.48,58.87 77.48,58.99 77.48,59.11 77.36,59.11 
	77.36,59.22 77.48,59.22 77.6,59.22 77.6,59.34 77.6,59.46 77.48,59.46 77.48,59.34 77.48,59.22 77.36,59.22 77.36,59.34 
	77.25,59.34 77.25,59.46 77.36,59.46 77.36,59.58 77.48,59.58 77.48,59.7 77.48,59.81 77.6,59.81 77.6,59.7 77.72,59.7 77.72,59.81 
	77.72,59.93 77.72,60.05 77.72,60.17 77.84,60.17 77.84,60.29 77.84,60.4 77.84,60.52 77.84,60.64 77.72,60.64 77.72,60.76 
	77.6,60.76 77.6,60.88 77.72,60.88 77.72,60.76 77.84,60.76 77.84,60.88 77.95,60.99 77.95,61.11 77.95,61.23 77.95,61.35 
	78.07,61.35 78.07,61.47 77.95,61.47 77.95,61.35 77.95,61.47 77.95,61.58 78.07,61.7 78.19,61.82 78.19,61.94 78.19,62.05 
	78.07,62.05 78.07,61.94 78.07,62.05 77.95,62.05 77.95,62.17 78.07,62.17 78.07,62.29 78.19,62.29 78.19,62.41 78.07,62.41 
	78.07,62.53 77.95,62.53 77.84,62.53 77.84,62.41 77.95,62.41 77.95,62.29 77.84,62.29 77.72,62.29 77.6,62.29 77.6,62.41 
	77.48,62.41 77.48,62.29 77.48,62.17 77.36,62.17 77.25,62.17 77.13,62.17 77.13,62.05 77.13,62.17 77.01,62.17 77.01,62.29 
	77.13,62.53 77.13,62.64 77.01,62.64 77.01,62.76 76.89,62.64 76.77,62.64 76.77,62.76 76.77,62.88 76.77,63 76.77,63.12 
	76.77,63.23 76.66,63.23 76.54,63.23 76.54,63.35 76.42,63.35 76.3,63.35 76.18,63.35 76.07,63.35 76.07,63.47 75.95,63.47 
	75.95,63.59 75.83,63.71 75.71,63.71 75.59,63.59 75.48,63.59 75.36,63.59 75.24,63.59 75.24,63.71 75.36,63.71 75.36,63.82 
	75.24,63.82 75.12,63.82 75.01,63.82 75.01,63.71 75.01,63.82 74.89,63.82 74.89,63.94 74.77,63.94 74.77,64.06 74.65,64.06 
	74.65,63.94 74.53,63.94 74.53,63.82 74.42,63.82 74.3,63.71 74.18,63.71 74.18,63.82 74.18,63.94 74.06,63.82 73.94,63.82 
	73.94,63.94 73.94,64.06 73.83,64.06 73.83,63.94 73.71,63.94 73.71,63.82 73.71,63.94 73.59,63.94 73.59,64.06 73.59,63.94 
	73.47,63.94 73.35,63.94 73.35,64.06 73.35,64.18 73.47,64.18 73.47,64.3 73.35,64.3 73.35,64.41 73.35,64.53 73.47,64.53 
	73.59,64.53 73.59,64.65 73.47,64.65 73.47,64.77 73.35,64.77 73.24,64.77 73.12,64.77 73.12,64.89 73.12,65 73.12,65.12 
	73.12,65.24 73,65.24 73,65.36 73.12,65.36 73.12,65.47 73,65.47 72.88,65.47 72.88,65.59 72.76,65.59 72.76,65.71 72.88,65.71 
	73,65.83 73.12,65.83 73.24,65.83 73.24,65.95 73.12,65.95 73.12,66.06 73,66.18 72.88,66.18 72.76,66.06 72.65,66.06 72.53,66.06 
	72.53,66.18 72.41,66.3 72.29,66.3 72.17,66.3 72.06,66.42 72.06,66.54 71.94,66.54 71.82,66.65 71.7,66.65 71.7,66.54 71.58,66.54 
	71.47,66.54 71.47,66.42 71.47,66.3 71.35,66.3 71.23,66.3 71.11,66.42 71,66.42 71,66.3 71.11,66.3 71.23,66.3 71.23,66.18 
	71.23,66.06 71.11,66.06 71,66.06 70.88,66.06 70.76,66.18 70.64,66.06 70.64,65.95 70.64,65.83 70.52,65.83 70.41,65.83 
	70.29,65.83 70.29,65.95 70.17,65.95 70.17,65.83 70.05,65.71 69.93,65.71 69.93,65.83 69.93,65.95 69.93,66.06 69.82,66.06 
	69.82,66.18 69.7,66.18 69.7,66.3 69.82,66.3 69.82,66.18 69.93,66.18 70.05,66.18 70.05,66.3 70.05,66.42 69.93,66.54 69.93,66.65 
	69.82,66.77 69.82,66.89 69.82,67.01 69.7,67.01 69.7,66.89 69.58,66.89 69.46,67.01 69.34,67.01 69.34,66.89 69.23,66.77 
	69.23,66.89 69.11,67.01 68.99,67.01 68.87,67.01 68.87,66.89 68.75,66.89 68.64,66.89 68.52,66.77 68.52,66.65 68.64,66.65 
	68.75,66.65 68.87,66.54 68.87,66.42 68.75,66.42 68.64,66.42 68.64,66.54 68.52,66.54 68.52,66.65 68.4,66.65 68.4,66.54 
	68.4,66.42 68.28,66.42 68.28,66.54 68.28,66.65 68.16,66.65 68.16,66.54 68.05,66.54 68.05,66.42 68.05,66.54 67.93,66.65 
	67.81,66.65 67.69,66.65 67.57,66.65 67.46,66.65 67.34,66.65 67.22,66.65 67.22,66.77 67.34,66.77 67.46,66.77 67.46,66.89 
	67.34,67.01 67.34,67.13 67.22,67.13 67.22,67.01 67.22,66.89 67.1,66.89 66.99,66.89 66.99,66.77 66.87,66.77 66.75,66.89 
	66.75,67.01 66.87,67.01 66.87,67.13 66.75,67.13 66.75,67.24 66.87,67.24 66.87,67.36 66.75,67.36 66.63,67.36 66.75,67.36 
	66.75,67.48 66.75,67.6 66.87,67.6 66.87,67.72 66.99,67.6 67.1,67.6 67.1,67.72 67.22,67.72 67.22,67.83 67.22,67.95 67.1,67.95 
	66.99,67.95 66.87,67.95 66.87,68.07 66.75,68.07 66.75,67.95 66.63,67.95 66.63,67.83 66.63,67.95 66.75,67.95 66.75,68.07 
	66.75,68.19 66.75,68.31 66.75,68.42 66.63,68.42 66.63,68.31 66.63,68.19 66.51,68.19 66.4,68.19 66.4,68.31 66.51,68.31 
	66.51,68.42 66.51,68.54 66.63,68.54 66.51,68.54 66.51,68.66 66.51,68.78 66.4,68.78 66.4,68.9 66.51,68.9 66.51,69.01 66.4,69.01 
	66.28,69.01 66.16,69.01 66.28,69.13 66.28,69.01 66.4,69.01 66.4,69.13 66.4,69.25 66.28,69.25 66.16,69.25 66.04,69.25 
	65.92,69.25 65.92,69.37 65.92,69.48 66.04,69.48 66.04,69.6 66.04,69.72 66.04,69.84 65.92,69.84 65.92,69.96 65.92,70.07 
	65.92,70.19 65.92,70.31 66.04,70.31 66.04,70.43 66.04,70.55 66.04,70.66 66.16,70.66 66.16,70.78 66.04,70.78 66.04,70.9 
	65.92,70.9 65.92,71.02 66.04,71.02 66.04,71.14 65.92,71.14 65.81,71.14 65.92,71.25 65.92,71.37 65.81,71.25 65.81,71.37 
	65.81,71.49 65.69,71.49 65.69,71.61 65.57,71.61 65.57,71.73 65.45,71.73 65.45,71.61 65.45,71.49 65.33,71.49 65.22,71.49 
	65.22,71.61 65.22,71.73 65.1,71.73 64.98,71.73 65.1,71.84 65.22,71.84 65.22,71.96 65.22,72.08 65.22,71.96 65.1,71.96 
	64.98,72.08 64.86,72.08 64.74,72.08 64.86,72.08 64.86,72.2 64.98,72.2 64.86,72.32 64.74,72.32 64.74,72.43 64.74,72.55 
	64.86,72.55 64.98,72.55 64.98,72.43 64.98,72.55 64.98,72.67 64.98,72.79 64.98,72.91 64.98,73.02 64.98,73.14 64.86,73.14 
	64.86,73.02 64.74,73.02 64.74,72.91 64.74,72.79 64.63,72.79 64.63,72.91 64.51,72.91 64.39,72.91 64.39,73.02 64.51,73.02 
	64.51,73.14 64.51,73.26 64.51,73.38 64.51,73.49 64.51,73.38 64.39,73.38 64.27,73.38 64.27,73.49 64.27,73.38 64.15,73.38 
	64.04,73.38 64.04,73.49 64.04,73.61 64.15,73.61 64.15,73.73 64.04,73.73 64.04,73.85 63.92,73.97 63.92,73.85 63.92,73.73 
	63.92,73.61 63.92,73.49 63.8,73.49 63.8,73.61 63.92,73.61 63.8,73.61 63.68,73.61 63.68,73.73 63.56,73.73 63.56,73.85 
	63.45,73.85 63.45,73.97 63.33,73.97 63.21,73.97 63.21,74.08 63.33,74.08 63.45,74.08 63.45,73.97 63.56,73.97 63.56,74.08 
	63.45,74.08 63.45,74.2 63.56,74.2 63.56,74.32 63.45,74.32 63.33,74.32 63.21,74.32 63.21,74.2 63.09,74.2 63.09,74.32 
	63.09,74.44 63.21,74.44 63.21,74.56 63.09,74.56 62.98,74.56 62.86,74.67 62.86,74.56 62.98,74.56 62.98,74.44 62.98,74.32 
	62.86,74.32 62.86,74.44 62.74,74.44 62.74,74.56 62.62,74.56 62.62,74.67 62.62,74.79 62.5,74.79 62.5,74.67 62.5,74.56 
	62.5,74.44 62.5,74.32 62.39,74.32 62.27,74.44 62.27,74.56 62.15,74.56 62.27,74.56 62.27,74.67 62.39,74.67 62.39,74.79 
	62.5,74.79 62.39,74.79 62.27,74.79 62.15,74.79 62.03,74.79 62.03,74.91 62.15,74.91 62.15,74.79 62.27,74.79 62.27,74.91 
	62.27,75.03 62.15,75.03 62.15,75.15 62.03,75.15 62.03,75.03 62.15,75.03 62.15,74.91 62.03,74.91 61.91,74.91 61.8,74.91 
	61.8,75.03 61.91,75.03 61.91,75.15 61.8,75.15 61.68,75.03 61.56,75.03 61.44,75.03 61.44,75.15 61.44,75.26 61.32,75.26 
	61.32,75.38 61.32,75.5 61.32,75.74 61.32,75.85 61.32,75.97 61.32,76.09 61.32,76.21 61.21,76.44 61.21,76.56 61.09,76.68 
	61.09,76.91 60.97,77.03 60.97,77.15 60.97,77.27 60.85,77.27 60.73,77.27 60.62,77.39 60.62,77.5 60.62,77.62 60.5,77.62 
	60.62,77.62 60.62,77.74 60.62,77.86 60.62,77.98 60.5,78.09 60.5,78.21 60.38,78.33 60.14,78.45 60.14,78.57 60.03,78.68 
	60.03,78.8 59.91,78.92 59.91,79.04 59.79,79.27 59.67,79.39 59.67,79.63 59.56,79.63 59.56,79.75 59.44,79.86 59.32,80.1 
	59.2,80.22 59.2,80.33 59.08,80.33 59.08,80.45 59.2,80.57 59.2,80.69 59.32,80.81 59.32,80.92 59.44,81.04 59.44,81.28 59.44,81.4 
	59.44,81.63 59.44,81.75 59.44,81.87 59.32,82.1 59.32,82.22 59.32,82.34 59.32,82.46 59.2,82.46 59.2,82.58 59.2,82.69 
	59.08,82.81 59.08,82.93 58.97,83.05 58.97,83.17 58.97,83.28 58.85,83.4 58.85,83.52 58.73,83.64 58.73,83.76 58.73,83.87 
	58.73,83.99 58.85,84.11 58.85,84.34 58.85,84.46 58.97,84.7 58.97,84.82 58.97,84.93 58.97,85.05 58.97,85.17 58.85,85.17 
	58.85,85.29 58.73,85.41 58.49,85.52 58.38,85.52 58.26,85.64 58.14,85.64 58.14,85.76 58.02,85.76 58.02,85.88 57.9,86 57.79,86 
	57.67,86.11 57.55,86.23 57.43,86.35 57.31,86.47 57.2,86.47 57.08,86.47 56.96,86.35 56.84,86.35 56.72,86.35 56.61,86.23 
	56.49,86.11 56.49,86 56.37,86 56.25,86 56.13,86 55.9,86.11 55.78,86.11 55.66,86.11 55.55,86.11 55.43,86.23 55.31,86.23 
	55.19,86.35 55.07,86.35 54.96,86.47 54.84,86.47 54.72,86.59 54.6,86.59 54.48,86.59 54.37,86.7 54.13,86.7 54.01,86.7 53.89,86.7 
	53.78,86.7 53.66,86.82 53.54,86.82 53.42,86.82 53.19,86.82 53.07,86.82 52.95,86.82 52.71,86.7 52.6,86.7 52.48,86.7 52.36,86.7 
	52.24,86.7 52.12,86.7 52.01,86.7 51.89,86.82 51.89,86.94 51.77,86.94 51.77,87.06 51.77,87.18 51.77,87.29 51.77,87.53 
	51.77,87.65 51.65,87.65 51.54,87.77 51.42,87.77 51.3,87.88 51.18,88 51.06,88 50.95,88.12 50.83,88.12 50.71,88.24 50.71,88.35 
	50.71,88.47 50.71,88.59 50.59,88.71 50.59,88.83 50.47,89.06 50.47,89.18 50.47,89.3 50.36,89.3 50.36,89.42 50.24,89.53 
	50.24,89.65 50.12,89.65 50.12,89.77 50,89.89 49.88,90.01 49.88,90.12 49.77,90.24 49.77,90.36 49.65,90.36 49.65,90.48 
	49.53,90.48 49.41,90.6 49.29,90.6 49.18,90.71 49.06,90.71 49.06,90.83 48.94,90.83 48.82,90.83 48.7,90.83 48.7,90.95 
	48.59,90.95 48.59,91.07 48.59,91.19 48.59,91.3 46.46,89.89 45.99,89.65 45.87,89.53 45.28,89.65 44.81,89.53 44.34,89.06 
	44.22,88.94 43.75,88.47 43.63,88.71 43.52,88.83 43.4,88.94 43.28,88.94 43.16,89.06 43.16,89.18 43.16,89.42 43.16,89.53 
	43.04,89.65 43.04,89.77 42.93,90.01 42.93,90.12 42.93,90.24 42.81,90.36 42.81,90.48 42.81,90.6 42.69,90.83 42.57,90.95 
	42.57,91.07 42.45,91.19 42.34,91.3 42.22,91.42 42.1,91.54 41.98,91.66 41.86,91.77 41.75,91.77 41.63,91.89 41.51,91.89 
	41.27,91.89 41.04,92.01 40.92,92.01 40.8,92.01 40.68,92.01 40.45,92.01 40.33,92.01 40.21,91.89 39.74,91.89 39.62,91.89 
	39.27,91.89 38.8,92.01 38.68,92.01 38.68,91.89 38.56,91.89 38.44,91.89 38.33,91.89 38.21,91.77 38.09,91.77 37.85,91.66 
	37.85,91.54 37.74,91.42 37.62,91.3 37.38,91.3 37.26,91.3 37.15,91.3 37.03,91.19 36.91,91.07 36.79,91.07 36.56,91.07 36.2,91.19 
	35.85,91.3 35.73,91.3 35.61,91.3 35.5,91.3 35.26,91.19 35.14,91.19 34.91,91.07 34.91,90.95 34.79,90.95 34.43,90.83 34.32,90.71 
	34.2,90.71 34.08,90.71 33.96,90.71 33.84,90.71 33.73,90.71 33.61,90.71 33.49,90.83 33.37,90.83 33.25,90.95 33.14,90.95 
	32.9,91.07 32.78,91.07 32.66,91.19 32.43,91.42 32.43,91.54 32.43,92.01 32.31,92.13 32.31,92.25 32.19,92.36 32.08,92.48 
	31.96,92.84 31.84,92.95 31.84,93.19 31.72,93.19 31.6,93.19 31.49,93.19 31.49,93.07 31.37,93.07 31.25,93.07 31.25,92.95 
	31.13,92.95 31.01,92.95 31.01,92.84 30.9,92.84 30.9,92.95 30.78,92.95 30.66,92.95 30.66,92.84 30.54,92.84 30.42,92.84 
	30.42,92.72 30.31,92.6 30.19,92.48 29.83,92.25 29.72,92.25 29.72,92.36 29.6,92.36 29.48,92.36 29.36,92.36 29.36,92.48 
	29.24,92.48 29.24,92.6 29.24,92.72 29.13,92.72 29.13,92.6 29.01,92.6 28.89,92.6 28.77,92.6 28.66,92.72 28.54,92.72 28.42,92.72 
	28.3,92.72 28.18,92.72 28.07,92.72 27.95,92.72 27.83,92.72 27.83,92.84 27.71,92.84 27.59,92.72 27.48,92.72 27.36,92.72 
	27.24,92.6 27.12,92.6 27,92.6 27,92.48 26.89,92.48 26.77,92.6 26.65,92.6 26.53,92.6 26.41,92.6 26.3,92.6 26.3,92.48 
	26.18,92.48 26.18,92.6 26.06,92.6 25.94,92.6 25.82,92.6 25.71,92.6 25.59,92.6 25.47,92.6 25.35,92.6 25.35,92.72 25.23,92.72 
	25.12,92.72 25,92.72 24.88,92.72 24.88,92.6 24.76,92.6 24.65,92.6 24.65,92.72 24.65,92.84 24.53,92.84 24.65,92.84 24.53,92.84 
	24.53,92.95 24.41,92.95 24.29,92.95 24.29,93.07 24.29,93.19 24.17,93.19 24.06,93.31 23.94,93.31 23.82,93.31 23.82,93.43 
	23.7,93.43 23.58,93.54 23.47,93.66 23.35,93.66 23.35,93.78 23.23,93.78 23.11,93.78 23.11,93.9 22.99,93.9 22.88,93.9 
	21.93,93.31 21.81,93.19 21.58,93.07 21.46,93.07 21.34,93.07 21.22,93.07 21.11,93.07 21.11,93.19 20.99,93.19 20.87,93.19 
	20.75,93.19 20.64,93.19 20.52,93.19 20.4,93.07 20.28,93.07 20.16,93.07 20.05,93.07 19.93,93.19 19.81,93.19 19.69,93.19 
	19.57,93.19 19.46,93.19 19.46,93.07 19.34,93.07 19.22,93.07 19.22,92.95 19.1,92.95 18.98,92.95 18.75,93.19 18.63,93.43 
	18.39,93.66 18.28,93.9 18.28,94.02 18.16,94.25 17.92,94.49 17.92,94.61 18.04,94.72 18.04,94.84 18.04,94.96 18.16,94.96 
	18.16,95.08 18.04,95.08 18.04,95.19 18.16,95.19 18.16,95.31 18.16,95.43 18.04,95.43 18.04,95.55 17.92,95.55 17.92,95.67 
	17.92,95.55 17.8,95.55 17.8,95.67 17.92,95.67 17.92,95.78 17.92,95.9 17.8,95.9 17.69,95.9 17.69,96.02 17.8,96.02 17.8,96.14 
	17.69,96.14 17.57,96.14 17.57,96.26 17.45,96.26 17.33,96.26 17.33,96.37 17.33,96.49 17.45,96.61 17.45,96.73 17.45,96.85 
	17.33,96.85 17.33,96.73 17.21,96.73 17.1,96.85 17.1,96.73 16.98,96.73 16.86,96.61 16.63,96.49 16.51,96.49 16.15,96.49 
	16.04,96.37 15.92,96.37 15.8,96.26 15.8,96.14 15.8,96.02 15.68,95.9 15.68,95.78 15.56,95.67 15.56,95.55 15.45,95.43 
	15.45,95.31 15.45,95.19 15.45,95.08 15.56,95.08 15.56,94.96 15.68,94.84 15.68,94.72 15.68,94.61 15.56,94.72 15.45,94.72 
	15.45,94.84 15.45,94.72 15.33,94.72 15.33,94.61 15.21,94.49 15.21,94.37 15.21,94.25 15.21,94.13 15.21,94.02 15.33,93.9 
	15.33,93.78 15.21,93.66 15.21,93.54 15.09,93.54 15.09,93.43 15.09,93.31 15.09,93.19 15.09,92.95 15.09,92.84 15.09,92.6 
	15.09,92.48 15.09,92.36 15.21,92.25 15.21,92.13 15.33,92.13 15.33,92.01 15.33,91.89 15.33,91.77 15.21,91.77 15.21,91.66 
	15.21,91.54 15.21,91.42 15.21,91.3 15.21,91.19 15.09,91.07 15.09,90.95 15.09,90.83 15.09,90.71 15.21,90.6 15.21,90.48 
	15.21,90.36 15.21,90.24 15.21,90.01 15.09,89.77 15.09,89.53 15.21,89.3 15.09,88.83 15.09,88.71 15.21,88.59 15.21,88.47 
	15.21,88.35 15.21,88.12 15.21,87.88 15.33,87.65 15.33,87.41 15.33,87.29 15.45,87.18 15.56,86.7 15.56,86.35 15.68,86.11 
	15.68,85.88 15.68,85.76 15.68,85.52 15.68,85.29 15.56,85.05 15.56,84.82 15.56,84.7 15.45,84.46 15.45,84.34 15.45,84.23 
	15.45,84.11 15.33,83.99 15.33,83.87 15.33,83.76 15.21,83.64 15.21,83.4 15.21,83.28 15.09,83.05 15.09,82.93 14.97,82.69 
	14.97,82.58 14.86,82.46 14.86,82.34 14.86,82.22 14.86,82.1 14.86,81.99 14.86,81.87 14.86,81.75 14.86,81.63 14.86,81.51 
	14.86,81.4 14.74,81.4 14.74,81.28 14.74,81.16 14.74,81.04 14.74,80.92 14.74,80.81 14.74,80.69 14.74,80.57 14.74,80.33 
	14.74,80.22 14.74,79.98 14.62,79.86 14.62,79.75 14.62,79.51 14.62,79.39 14.62,79.27 14.5,79.16 14.5,79.04 14.62,78.8 
	14.5,78.57 14.62,78.45 14.62,78.33 14.62,78.09 14.62,77.86 14.74,77.62 14.74,77.5 14.74,77.39 14.86,77.15 14.86,77.03 
	14.86,76.91 14.86,76.8 14.86,76.68 14.86,76.56 14.86,76.44 14.97,76.44 14.97,76.33 14.97,76.09 15.09,75.97 15.21,75.85 
	15.33,75.85 15.33,75.74 15.33,75.62 15.21,75.5 15.21,75.38 15.33,75.26 15.33,75.15 15.45,75.03 15.45,74.91 15.45,74.79 
	15.45,74.56 15.45,74.44 15.45,74.32 15.45,74.2 15.45,74.08 15.56,73.97 15.68,73.85 15.8,73.49 15.8,73.26 15.92,73.02 
	15.92,72.91 15.92,72.79 15.92,72.67 15.92,72.43 16.04,72.32 16.04,72.08 16.04,71.96 16.04,71.84 16.04,71.73 16.04,71.61 
	16.04,71.49 16.04,71.37 16.04,71.25 16.15,71.14 16.15,71.02 16.15,70.9 16.15,70.78 16.27,70.78 16.27,70.55 16.39,70.55 
	16.39,70.43 16.39,70.19 16.39,69.96 16.39,69.84 16.39,69.72 16.39,69.6 16.39,69.37 16.39,69.25 16.39,69.13 16.39,69.01 
	16.39,68.9 16.39,68.78 16.39,68.66 16.51,68.54 16.51,68.42 16.51,68.31 16.63,68.07 16.74,67.95 16.74,67.83 16.63,67.72 
	16.51,67.6 16.39,67.48 16.27,67.48 16.15,67.36 16.04,67.36 15.92,67.24 15.8,67.24 15.68,67.24 15.68,67.36 15.56,67.36 
	15.45,67.48 15.45,67.6 15.45,67.72 15.33,67.83 15.21,67.83 15.09,67.83 14.97,67.83 14.86,67.72 14.74,67.72 14.62,67.72 
	14.38,67.6 14.27,67.6 14.27,67.48 14.15,67.48 13.91,67.48 13.79,67.48 13.79,67.36 13.79,67.24 13.68,67.24 13.44,67.24 
	13.32,67.24 13.2,67.13 13.09,67.13 13.09,67.01 13.09,66.89 12.97,66.89 12.73,66.77 12.62,66.77 12.5,66.65 12.5,66.54 
	12.38,66.54 12.26,66.65 12.14,66.65 12.14,66.77 12.03,66.77 12.03,66.65 12.14,66.54 12.14,66.42 12.14,66.3 12.14,66.18 
	12.14,66.06 12.14,65.95 12.14,65.83 12.26,65.83 12.26,65.71 12.14,65.71 12.03,65.71 12.03,65.59 12.03,65.47 11.91,65.47 
	11.79,65.36 11.79,65.24 11.91,65.24 11.91,65.12 11.91,65 11.79,65 11.67,64.89 11.67,64.77 11.67,64.65 11.55,64.65 11.55,64.53 
	11.44,64.53 11.32,64.53 11.32,64.41 11.2,64.41 11.08,64.3 10.96,64.41 10.85,64.41 10.85,64.3 10.85,64.18 10.96,64.06 
	10.96,63.82 11.08,63.82 11.08,63.71 11.2,63.59 11.32,63.59 11.44,63.59 11.55,63.47 11.67,63.47 11.67,63.35 11.79,63.35 
	11.79,63.23 11.67,63.23 11.67,63.12 11.55,63.12 11.55,63.23 11.44,63.23 11.44,63.12 11.44,63 11.44,62.88 11.44,62.76 
	11.44,62.64 11.44,62.53 11.44,62.41 11.55,62.29 11.55,62.17 11.67,62.05 11.67,61.94 11.79,61.94 11.79,61.82 11.79,61.7 
	11.79,61.58 11.79,61.47 11.67,61.47 11.55,61.47 11.44,61.47 11.32,61.47 11.32,61.35 11.32,61.23 11.32,61.11 11.32,60.99 
	11.32,60.88 11.44,60.88 11.55,60.76 11.55,60.64 11.67,60.52 11.67,60.4 11.79,60.17 11.79,60.05 11.67,60.05 11.55,60.05 
	11.44,60.05 11.44,59.93 11.44,59.81 11.44,59.7 11.55,59.58 11.55,59.46 11.55,59.34 11.55,59.22 11.55,59.11 11.67,59.11 
	11.67,58.99 11.67,58.87 11.67,58.75 11.79,58.52 11.79,58.4 11.79,58.28 11.67,58.05 11.79,58.05 11.79,57.93 12.03,57.69 
	12.14,57.57 12.26,57.46 12.38,57.46 12.5,57.34 12.62,57.46 12.62,57.34 12.73,57.46 12.85,57.46 12.97,57.46 13.09,57.46 
	13.09,57.34 13.2,57.34 13.2,57.22 13.32,57.1 13.32,56.98 13.32,56.87 13.44,56.87 13.56,56.75 13.68,56.63 13.68,56.51 
	13.68,56.39 13.68,56.28 13.68,56.16 13.79,56.16 13.79,56.04 13.91,56.04 14.15,56.04 14.15,55.92 14.27,55.8 14.27,55.57 
	14.38,55.57 14.38,55.45 14.5,55.45 14.5,55.33 14.5,55.21 14.5,55.1 14.38,55.1 14.27,55.1 14.15,55.1 14.03,55.1 13.79,55.1 
	13.68,55.1 13.56,55.1 13.56,54.98 13.68,54.98 13.68,54.86 13.79,54.62 13.79,54.51 13.68,54.39 13.79,54.39 13.91,54.27 
	14.03,54.15 14.15,54.04 14.27,54.04 14.27,53.92 14.27,53.8 14.27,53.68 14.27,53.56 14.27,53.45 14.27,53.33 14.38,53.09 
	14.27,52.97 14.27,52.86 14.38,52.86 14.5,52.62 14.5,52.5 14.5,52.27 14.5,52.15 14.5,52.03 14.5,51.91 14.38,51.91 14.27,51.91 
	14.15,51.91 14.03,51.91 13.91,52.03 13.79,52.15 13.68,52.15 13.44,52.27 13.32,52.27 13.32,52.15 13.32,52.03 13.32,51.91 
	13.2,51.91 13.2,51.79 13.09,51.79 12.97,51.79 13.09,51.68 13.09,51.56 12.97,51.56 12.97,51.44 12.97,51.32 12.85,51.2 
	12.85,51.32 12.73,51.2 12.62,51.09 12.73,51.09 12.62,51.09 12.73,51.09 12.73,50.97 12.62,50.97 12.73,50.97 12.62,50.97 
	12.62,50.85 12.62,50.97 12.5,50.97 12.5,50.85 12.5,50.73 12.5,50.61 12.5,50.73 12.38,50.73 12.26,50.73 12.26,50.61 12.26,50.5 
	12.14,50.5 12.14,50.38 12.14,50.26 12.03,50.26 12.03,50.14 12.03,50.03 12.14,49.91 12.14,49.79 12.26,49.79 12.38,49.67 
	12.38,49.55 12.38,49.44 12.38,49.32 12.26,49.32 12.14,49.2 12.14,49.08 12.26,49.08 12.26,48.96 12.26,48.85 12.14,48.85 
	12.14,48.73 12.03,48.61 11.91,48.49 11.79,48.49 11.91,48.37 11.79,48.37 11.79,48.26 11.67,48.26 11.55,48.26 11.55,48.14 
	11.55,48.02 11.55,47.9 11.55,47.78 11.55,47.67 11.55,47.55 11.55,47.43 11.44,47.43 11.44,47.31 11.32,47.31 11.2,47.31 
	11.08,47.31 11.08,47.19 11.08,47.08 10.96,46.96 11.08,46.96 11.08,46.84 11.08,46.72 11.08,46.61 11.08,46.49 11.2,46.49 
	11.2,46.37 11.2,46.25 11.32,46.25 11.44,46.25 11.44,46.13 11.44,46.02 11.44,45.9 11.32,45.9 11.2,45.9 11.2,45.78 11.2,45.66 
	11.2,45.54 11.2,45.43 11.32,45.43 11.32,45.31 11.32,45.19 11.32,45.07 11.32,44.95 11.32,44.84 11.44,44.84 11.44,44.72 
	11.55,44.6 11.44,44.48 11.55,44.36 11.55,44.25 11.55,44.13 11.55,44.01 11.55,43.89 11.44,43.77 11.55,43.66 11.67,43.66 
	11.67,43.54 11.55,43.54 11.67,43.54 11.67,43.42 11.67,43.3 11.79,43.3 11.79,43.19 11.91,43.19 11.91,43.07 11.79,42.83 
	11.79,42.71 11.91,42.71 12.03,42.71 12.03,42.6 12.03,42.48 12.03,42.36 12.03,42.24 12.03,42.12 11.91,42.12 11.91,42.01 
	11.79,41.89 11.79,41.77 11.79,41.65 11.79,41.53 11.91,41.53 11.91,41.42 11.91,41.3 12.03,41.3 12.03,41.18 12.03,41.06 
	12.03,40.94 12.03,40.83 12.03,40.71 12.03,40.59 12.14,40.47 12.14,40.35 12.14,40.24 12.14,40.12 12.14,40 12.26,40 12.38,40 
	12.38,39.88 12.26,39.88 12.26,39.76 12.14,39.65 12.26,39.65 12.26,39.53 12.26,39.41 12.14,39.41 12.14,39.29 12.14,39.18 
	12.26,39.18 12.38,39.18 12.38,39.06 12.38,38.94 12.38,38.82 12.38,38.7 12.5,38.7 12.62,38.7 12.73,38.7 12.73,38.59 12.85,38.59 
	12.85,38.47 12.97,38.47 12.97,38.35 13.09,38.35 13.09,38.23 13.09,38.11 13.09,38 13.09,37.88 13.09,37.76 13.2,37.76 
	13.32,37.76 13.32,37.64 13.44,37.64 13.56,37.64 13.56,37.52 13.44,37.52 13.44,37.41 13.56,37.41 13.56,37.29 13.56,37.17 
	13.56,37.05 13.68,36.93 13.79,36.93 13.91,36.93 14.03,36.93 14.03,36.82 14.15,36.82 14.27,36.82 14.38,36.93 14.5,36.93 
	14.62,36.93 14.62,36.82 14.62,36.7 14.5,36.46 14.38,36.34 14.38,36.23 14.27,36.23 14.27,36.11 14.27,35.99 14.27,35.87 
	14.15,35.75 14.15,35.64 14.15,35.52 14.27,35.4 14.27,35.28 14.38,35.17 14.27,35.05 14.27,34.93 14.15,34.81 14.03,34.81 
	14.03,34.69 14.03,34.58 13.91,34.58 13.91,34.46 13.79,34.34 13.79,34.22 13.79,34.1 13.91,33.99 13.91,33.87 13.91,33.63 
	13.91,33.51 14.03,33.51 14.03,33.4 14.15,33.4 14.15,33.28 14.15,33.16 14.15,33.04 14.15,32.92 14.03,32.92 13.91,32.92 
	13.79,32.92 13.68,32.92 13.56,32.81 13.56,32.69 13.56,32.57 13.44,32.57 13.32,32.57 13.32,32.45 13.32,32.34 13.2,32.22 
	13.09,32.22 12.97,32.1 12.97,31.98 12.85,31.98 12.85,31.86 12.97,31.75 12.97,31.63 13.09,31.51 13.09,31.39 13.09,31.27 
	13.2,31.27 13.32,31.27 13.44,31.27 13.56,31.27 13.56,31.16 13.68,31.16 13.68,31.04 13.79,30.92 13.91,30.92 14.03,30.92 
	13.91,30.8 13.91,30.68 13.91,30.57 14.03,30.45 13.91,30.45 13.91,30.33 13.79,30.33 13.79,30.21 13.79,30.09 13.79,29.98 
	13.79,29.86 13.79,29.74 13.79,29.62 13.79,29.5 13.91,29.27 13.91,29.15 14.03,29.15 14.03,29.03 14.15,29.03 14.15,28.92 
	14.15,28.8 14.15,28.68 14.27,28.68 14.27,28.56 14.27,28.44 14.27,28.33 14.27,28.21 14.38,28.21 14.38,28.09 14.5,27.97 
	14.5,27.85 14.5,27.74 14.5,27.62 14.38,27.62 14.38,27.5 14.38,27.38 14.38,27.26 14.5,27.15 14.38,27.15 14.38,27.03 14.27,27.03 
	14.38,27.03 14.38,26.91 14.38,26.79 14.38,26.67 14.38,26.56 14.38,26.44 14.38,26.32 14.5,26.2 14.5,26.08 14.38,25.97 
	14.38,25.85 14.38,25.73 14.5,25.73 14.5,25.61 14.5,25.49 14.62,25.49 14.62,25.38 14.74,25.38 14.74,25.26 14.74,25.14 
	14.62,25.14 14.62,25.02 14.74,25.02 14.74,24.91 14.86,24.91 14.97,24.91 14.97,24.79 15.09,24.79 15.09,24.67 15.21,24.67 
	15.33,24.67 15.33,24.55 15.45,24.43 15.45,24.32 15.33,24.32 15.33,24.2 15.33,24.08 15.45,24.08 15.45,23.96 15.56,23.96 
	15.68,23.96 15.68,23.84 15.8,23.84 15.92,23.73 16.04,23.73 16.15,23.73 16.27,23.73 16.27,23.61 16.39,23.61 16.39,23.49 
	16.39,23.37 16.39,23.25 16.39,23.14 16.39,23.02 16.51,23.02 16.51,22.9 16.39,22.9 16.39,22.78 16.39,22.66 16.27,22.66 
	16.15,22.55 16.04,22.43 15.92,22.43 15.8,22.43 15.8,22.31 15.8,22.19 15.92,22.19 15.92,22.07 16.04,22.07 16.15,21.96 
	16.15,21.84 16.15,21.72 16.27,21.72 16.39,21.6 16.51,21.6 16.51,21.49 16.51,21.37 16.63,21.37 16.63,21.49 16.74,21.49 
	16.86,21.49 16.98,21.49 16.98,21.37 16.98,21.25 16.86,21.13 16.98,21.13 16.98,21.01 17.1,21.01 17.1,20.9 16.98,20.9 17.1,20.9 
	17.1,20.78 16.98,20.66 17.1,20.54 17.21,20.54 17.33,20.54 17.33,20.42 17.33,20.31 17.33,20.19 17.45,20.19 17.57,20.19 
	17.57,20.07 17.69,19.95 17.8,19.95 17.8,19.83 17.92,19.83 18.04,19.83 18.16,19.83 18.28,19.72 18.39,19.72 18.51,19.6 
	18.63,19.6 18.75,19.48 18.87,19.36 18.98,19.24 18.98,19.13 19.1,19.01 19.1,18.89 19.1,18.77 19.1,18.65 19.1,18.54 19.1,18.42 
	19.22,18.3 19.34,18.18 19.34,18.06 19.46,18.06 19.57,18.06 19.69,17.95 19.81,17.95 19.81,17.83 19.93,17.83 19.93,17.71 
	20.05,17.59 20.05,17.48 20.16,17.36 20.16,17.24 20.16,17.12 20.28,17.12 20.28,17 20.4,17 20.52,16.89 20.64,16.89 20.64,16.77 
	20.64,16.65 20.64,16.53 20.64,16.41 20.64,16.18 20.64,16.06 20.52,15.94 20.4,15.94 20.4,15.82 20.4,15.71 20.28,15.71 
	20.28,15.59 20.16,15.59 20.16,15.47 20.16,15.35 20.16,15.23 20.16,15.12 20.16,15 20.16,14.88 20.16,14.76 20.16,14.64 
	20.16,14.53 20.05,14.41 20.16,14.29 20.16,14.17 20.16,14.06 20.16,13.94 20.28,13.82 20.4,13.7 20.52,13.7 20.52,13.58 
	20.52,13.47 20.52,13.35 20.64,13.35 20.64,13.23 20.75,13.23 20.75,13.35 20.87,13.47 20.87,13.58 20.99,13.58 21.11,13.58 
	21.11,13.47 20.99,13.35 21.11,13.35 21.22,13.47 21.22,13.58 21.34,13.58 21.34,13.47 21.34,13.35 21.46,13.23 21.58,13.11 
	21.7,13.11 21.81,12.99 21.93,12.99 22.05,12.99 22.05,12.88 22.05,12.76 22.05,12.64 22.17,12.52 22.17,12.64 22.29,12.64 
	22.4,12.64 22.4,12.76 22.52,12.76 22.52,12.64 22.52,12.52 22.64,12.52 22.64,12.64 22.76,12.64 22.76,12.52 22.64,12.52 
	22.64,12.4 22.52,12.52 22.52,12.4 22.64,12.4 22.64,12.29 22.52,12.29 22.52,12.17 22.64,12.17 22.64,12.29 22.76,12.29 
	22.88,12.29 22.88,12.17 22.99,12.29 23.11,12.29 23.23,12.29 23.35,12.29 23.47,12.29 23.35,12.29 23.35,12.17 23.47,12.05 
	23.47,11.93 23.58,11.93 23.7,11.93 23.7,11.81 23.58,11.81 23.47,11.81 23.47,11.7 23.35,11.7 23.35,11.58 23.35,11.46 
	23.23,11.46 23.23,11.34 23.11,11.34 22.99,11.34 22.99,11.22 22.99,11.34 22.99,11.46 22.88,11.46 22.88,11.34 22.76,11.34 
	22.64,11.34 22.64,11.22 22.64,11.11 22.52,11.11 22.4,11.11 22.4,10.99 22.29,10.99 22.29,11.11 22.17,11.11 22.17,10.99 
	22.29,10.99 22.29,10.87 22.29,10.75 22.17,10.75 22.17,10.63 22.29,10.63 22.29,10.52 22.29,10.4 22.29,10.28 22.29,10.4 
	22.17,10.4 22.17,10.52 22.05,10.52 22.05,10.4 22.05,10.28 22.17,10.28 22.17,10.16 22.17,10.05 22.29,10.05 22.29,9.93 
	22.29,9.81 22.29,9.69 22.29,9.57 22.29,9.46 22.29,9.34 22.4,9.34 22.4,9.22 22.4,8.98 22.4,8.87 22.4,8.75 22.4,8.63 22.4,8.51 
	22.4,8.39 22.4,8.28 22.4,8.16 22.4,8.04 22.4,7.92 22.29,7.92 22.29,7.8 22.29,7.69 22.4,7.57 22.52,7.57 22.52,7.45 22.64,7.45 
	22.64,7.33 22.76,7.21 22.88,7.21 22.88,7.33 22.99,7.33 22.99,7.21 23.11,7.21 23.23,7.21 23.23,7.1 23.35,7.1 23.47,7.1 
	23.47,6.98 23.58,7.1 23.58,7.21 23.7,7.21 23.82,7.1 23.94,7.1 24.06,7.1 24.06,6.98 24.06,6.86 23.94,6.74 23.94,6.63 23.94,6.51 
	23.94,6.39 23.82,6.39 23.82,6.27 23.82,6.15 23.82,6.04 23.7,6.04 23.7,5.92 23.58,5.8 23.47,5.68 23.35,5.68 23.35,5.56 
	23.23,5.56 23.23,5.45 23.23,5.33 23.23,5.21 23.23,5.09 23.11,4.97 23.11,4.86 23.11,4.74 22.99,4.74 22.99,4.62 22.88,4.62 
	22.88,4.5 22.88,4.38 22.99,4.27 22.99,4.15 23.11,4.03 23.11,3.91 23.11,3.79 22.99,3.68 23.11,3.56 23.11,3.44 23.11,3.32 
	22.99,3.2 22.99,3.09 22.99,2.97 22.99,2.85 23.11,2.85 23.11,2.73 23.23,2.73 23.35,2.85 23.47,2.85 23.58,2.85 23.7,2.85 
	23.82,2.85 23.94,2.85 24.06,2.97 24.17,3.09 24.29,3.09 24.41,3.09 24.53,3.09 24.65,3.09 24.65,3.2 24.76,3.2 24.76,3.32 
	24.88,3.32 24.88,3.44 24.88,3.56 25,3.56 25.12,3.68 25.23,3.68 25.35,3.79 25.47,3.79 25.47,3.91 25.59,3.91 25.59,4.03 
	25.59,4.15 25.71,4.27 25.71,4.38 25.82,4.38 25.82,4.5 25.94,4.5 26.06,4.5 26.18,4.5 26.3,4.62 26.41,4.62 26.53,4.62 26.53,4.5 
	26.53,4.38 26.53,4.27 26.41,4.27 26.41,4.15 26.3,4.15 26.3,4.03 26.41,3.91 26.41,3.79 26.53,3.79 26.53,3.68 26.53,3.56 
	26.65,3.56 26.65,3.44 26.77,3.44 26.77,3.32 26.77,3.2 26.89,3.09 27,2.97 27,2.85 27,2.73 27,2.62 27,2.5 27,2.38 26.89,2.38 
	26.89,2.26 27,2.14 26.89,2.03 27,2.03 27,1.91 27,1.79 27.12,1.79 27.24,1.79 27.36,1.91 27.36,1.79 27.48,1.79 27.48,1.67 
	27.59,1.67 27.71,1.67 27.83,1.79 27.95,1.79 27.95,1.91 28.07,1.91 28.18,1.91 28.18,1.79 28.18,1.67 28.3,1.67 28.42,1.67 
	28.42,1.55 28.54,1.44 28.66,1.32 28.66,1.2 28.66,1.08 28.66,0.96 28.66,0.85 28.77,0.85 28.89,0.85 29.01,0.96 29.13,0.96 
	29.24,0.96 29.24,1.08 29.24,1.2 29.36,1.2 29.36,1.32 29.48,1.32 29.48,1.44 29.6,1.55 29.6,1.67 29.6,1.79 29.72,1.91 29.72,2.03 
	29.83,2.03 29.95,2.14 29.95,2.26 30.07,2.38 30.19,2.5 30.31,2.5 30.31,2.38 30.42,2.5 30.54,2.5 30.66,2.5 30.78,2.5 30.9,2.5 
	30.9,2.62 31.01,2.62 31.01,2.73 31.13,2.73 31.25,2.73 31.37,2.73 31.37,2.62 31.49,2.73 31.49,2.62 31.6,2.62 31.72,2.62 
	31.84,2.5 31.96,2.5 31.96,2.38 32.08,2.38 32.19,2.26 32.31,2.26 32.43,2.26 32.43,2.14 32.55,2.14 32.66,2.14 32.66,2.26 
	32.78,2.26 32.78,2.14 32.9,2.14 33.02,2.14 33.14,2.14 33.14,2.26 33.14,2.38 33.25,2.38 33.25,2.26 33.37,2.26 33.49,2.26 
	33.61,2.26 33.61,2.14 33.61,2.26 33.73,2.26 33.73,2.14 33.84,2.14 33.84,2.26 33.96,2.14 34.08,2.14 34.08,2.26 34.08,2.38 
	34.2,2.38 34.2,2.26 34.2,2.14 34.32,2.14 34.32,2.26 34.43,2.26 34.43,2.38 34.55,2.38 34.67,2.38 34.67,2.26 34.79,2.26 
	34.79,2.38 34.91,2.5 35.02,2.5 35.14,2.5 35.14,2.62 35.14,2.73 35.26,2.73 35.38,2.73 35.38,2.85 35.5,2.85 35.5,2.73 35.61,2.73 
	35.61,2.85 35.61,2.97 35.61,3.09 35.73,3.09 35.73,3.2 35.73,3.32 35.61,3.32 35.73,3.44 35.73,3.56 35.73,3.44 35.85,3.44 
	35.85,3.32 35.97,3.32 35.97,3.44 35.97,3.56 36.09,3.68 36.2,3.68 36.2,3.79 36.32,3.79 36.32,3.91 36.44,3.91 36.44,4.03 
	36.56,4.03 36.67,4.15 36.67,4.27 36.79,4.27 36.79,4.38 36.91,4.38 36.91,4.5 37.03,4.5 37.15,4.62 37.26,4.62 37.38,4.62 
	37.5,4.62 37.62,4.62 37.62,4.5 37.62,4.38 37.62,4.27 37.62,4.15 37.74,4.15 37.85,4.15 37.97,4.03 37.97,3.91 38.09,4.03 
	38.21,4.03 38.33,4.03 38.33,3.91 38.33,3.79 38.33,3.68 38.33,3.56 38.44,3.56 38.44,3.44 38.56,3.44 38.8,3.44 "/>
</svg>
