<?xml version="1.0" encoding="utf-8"?>
<!-- Generator: Adobe Illustrator 24.2.1, SVG Export Plug-In . SVG Version: 6.00 Build 0)  -->
<svg version="1.1" id="Layer_1" xmlns="http://www.w3.org/2000/svg" xmlns:xlink="http://www.w3.org/1999/xlink" x="0px" y="0px"
	 viewBox="0 0 97.23 97.23" style="enable-background:new 0 0 97.23 97.23;" xml:space="preserve">
<style type="text/css">
	.st0{fill-rule:evenodd;clip-rule:evenodd;}
</style>
<polygon class="st0" points="47.52,15.57 47.66,15.57 47.81,15.57 47.81,15.42 47.96,15.42 48.11,15.42 48.26,15.42 48.4,15.57 
	48.4,15.42 48.4,15.27 48.4,15.12 48.55,14.97 48.7,14.83 48.7,14.68 48.85,14.68 48.99,14.53 49.14,14.38 49.14,14.53 49.29,14.68 
	49.44,14.83 49.58,14.68 49.58,14.53 49.73,14.53 49.73,14.38 49.88,14.38 50.03,14.24 50.18,14.24 50.32,14.24 50.32,14.38 
	50.47,14.38 50.47,14.53 50.62,14.53 50.62,14.68 50.77,14.68 50.91,14.83 50.91,14.97 51.06,14.97 51.06,15.12 51.21,15.27 
	51.21,15.42 51.21,15.57 51.36,15.57 51.5,15.42 51.65,15.42 51.8,15.57 51.95,15.71 52.24,15.71 52.39,15.71 52.54,15.71 
	52.69,15.71 52.69,15.86 52.83,15.86 52.83,16.01 52.98,16.16 53.13,16.6 53.28,16.75 53.28,16.89 53.28,17.04 53.28,17.19 
	53.13,17.34 52.98,17.34 52.83,17.49 52.83,17.63 52.69,17.63 52.54,17.78 52.54,17.93 52.54,18.08 52.54,18.22 52.54,18.37 
	52.39,18.37 52.39,18.52 52.39,18.67 52.39,18.81 52.54,18.81 52.69,18.81 52.83,18.81 52.98,18.67 53.13,18.67 53.28,18.52 
	53.42,18.37 53.57,18.22 53.72,18.37 53.87,18.37 53.87,18.22 54.02,18.22 54.16,18.22 54.16,18.37 54.31,18.52 54.46,18.67 
	54.46,18.81 54.46,18.96 54.61,19.11 54.61,19.26 54.46,19.26 54.46,19.41 54.31,19.55 54.46,19.55 54.61,19.55 54.75,19.41 
	54.9,19.41 55.05,19.26 55.2,19.41 55.34,19.55 55.49,19.55 55.64,19.7 55.79,19.85 55.79,20 55.94,20 55.94,20.14 56.08,20.14 
	56.23,20 56.38,20 56.38,19.85 56.53,19.85 56.67,19.85 56.97,20 57.71,20.44 57.71,20.59 57.86,20.88 57.86,21.18 57.86,21.33 
	57.86,21.47 57.86,21.62 57.86,21.77 57.86,21.92 58,21.92 58.3,22.21 58.3,22.36 58.15,22.36 58,22.36 58,22.51 57.86,22.51 
	57.71,22.51 57.56,22.51 57.56,22.65 57.56,22.8 57.56,22.95 57.56,23.1 57.41,23.1 57.41,23.24 57.26,23.24 57.12,23.24 
	56.97,23.39 56.82,23.39 56.82,23.54 56.82,23.69 56.97,23.69 57.12,23.69 57.41,23.69 57.56,23.69 57.71,23.69 57.71,23.84 
	57.71,23.98 57.71,24.13 57.71,24.43 57.71,24.57 57.86,24.72 57.86,24.87 57.86,25.02 58,25.02 58.15,25.02 58.3,25.16 
	58.45,25.31 58.45,25.46 58.45,25.61 58.59,25.61 58.59,25.76 58.59,25.9 58.74,25.9 58.74,26.05 58.59,26.2 58.59,26.35 
	58.45,26.49 58.45,26.64 58.45,26.79 58.59,26.79 58.74,26.79 58.89,26.79 59.04,26.79 59.18,26.79 59.33,26.94 59.78,26.79 
	59.92,26.79 60.07,26.79 60.07,26.94 59.92,27.08 59.92,27.23 59.92,27.38 60.07,27.53 60.22,27.53 60.22,27.68 60.37,27.68 
	60.51,27.68 60.66,27.53 60.81,27.53 60.96,27.53 60.96,27.68 61.1,27.68 61.25,27.97 61.25,28.12 61.4,28.27 61.4,28.41 
	61.55,28.41 61.7,28.41 61.99,28.27 62.14,28.27 62.29,28.27 62.43,28.41 62.58,28.41 62.58,28.56 62.58,28.71 62.58,28.86 
	62.58,29 62.58,29.15 62.58,29.3 62.58,29.6 62.43,29.74 62.43,29.89 62.58,30.04 62.73,30.04 62.88,30.04 62.88,30.19 63.02,30.48 
	63.02,30.63 63.17,30.63 63.32,30.78 63.47,30.78 63.62,30.78 63.76,30.78 63.91,30.92 64.21,30.92 64.35,31.07 64.5,31.07 
	64.5,31.22 64.65,31.22 64.8,31.22 64.94,31.22 65.09,31.22 65.24,31.37 65.39,31.37 65.39,31.52 65.54,31.52 65.54,31.66 
	65.54,31.81 65.54,31.96 65.54,32.11 65.54,32.25 65.54,32.4 65.54,32.55 65.68,32.55 65.83,32.4 65.98,32.4 66.13,32.4 66.27,32.4 
	66.42,32.7 66.57,32.7 66.72,32.7 66.86,32.7 66.86,32.84 67.01,32.84 67.16,32.99 67.16,33.14 67.31,33.29 67.46,33.29 67.6,33.29 
	67.6,33.44 67.75,33.44 67.75,33.58 67.9,33.58 67.9,33.73 68.05,33.73 68.19,33.73 68.34,33.88 68.49,33.88 68.64,33.88 
	68.78,34.03 68.93,34.03 68.93,34.17 69.08,34.17 69.23,34.17 69.38,34.17 69.52,34.32 69.67,34.47 69.67,34.62 69.67,34.76 
	69.67,34.91 69.82,35.06 69.97,35.21 70.11,35.21 70.41,35.21 70.56,35.21 70.56,35.36 70.7,35.36 70.85,35.36 70.85,35.5 
	70.85,35.65 71,35.65 71,35.8 71,35.95 71,36.09 71,36.24 71.15,36.24 71.15,36.39 71.3,36.39 71.44,36.24 71.59,36.24 71.59,36.09 
	71.74,36.09 71.89,36.09 72.03,35.95 72.18,35.95 72.18,35.8 72.33,35.8 72.33,35.65 72.33,35.5 72.18,35.5 72.03,35.36 
	72.03,35.21 71.89,35.21 71.89,35.06 72.03,34.91 72.03,34.76 72.03,34.62 72.18,34.47 72.18,34.17 72.33,34.03 72.33,33.88 
	72.33,33.73 72.33,33.58 72.33,33.44 72.18,33.29 72.33,33.14 72.33,32.99 72.33,32.84 72.33,32.7 72.48,32.55 72.48,32.4 
	72.48,32.25 72.48,32.11 72.62,31.96 72.62,31.81 72.77,31.81 72.77,31.96 72.92,31.96 72.92,32.11 72.92,32.25 73.07,32.4 
	73.22,32.55 73.36,32.55 73.36,32.7 73.36,32.84 73.51,32.99 73.66,32.84 73.81,32.84 73.81,32.7 73.95,32.55 73.95,32.4 
	74.1,32.25 74.1,32.11 74.25,31.96 74.25,31.81 74.25,31.66 74.25,31.52 74.25,31.37 74.25,31.22 74.25,31.07 74.4,31.07 
	74.4,30.92 74.4,30.78 74.54,30.78 74.69,30.78 74.84,30.78 74.99,30.78 75.73,30.78 75.87,30.63 76.02,30.48 76.17,30.33 
	76.17,30.19 76.32,30.04 76.46,30.04 76.61,30.04 76.76,30.04 76.76,29.89 76.91,29.89 76.91,29.74 76.91,29.6 76.91,29.45 
	77.06,29.45 77.2,29.45 77.35,29.3 77.5,29.15 77.65,29 77.65,28.86 77.79,28.86 78.09,28.86 78.24,28.86 78.38,28.86 78.53,28.86 
	78.53,29 78.68,29 78.83,29.15 78.83,29.3 78.83,29.45 78.68,29.74 78.68,29.89 78.83,29.89 78.98,30.04 79.12,30.04 79.12,30.19 
	79.27,30.19 79.42,30.19 79.42,30.04 79.57,30.04 79.57,29.89 79.71,29.89 79.86,30.04 80.01,30.04 80.16,30.04 80.3,30.04 
	80.45,30.04 80.6,30.04 80.75,30.04 80.9,30.19 81.04,30.19 81.19,30.19 81.34,30.19 81.49,30.19 81.63,30.19 81.78,30.33 
	81.78,30.48 81.93,30.48 81.93,30.63 81.78,30.78 81.78,30.92 81.78,31.07 81.78,31.22 81.78,31.37 81.78,31.52 81.78,31.66 
	81.93,31.81 82.08,31.96 82.22,32.25 82.37,32.4 82.52,32.55 82.67,32.7 82.82,32.7 82.96,32.84 83.11,32.84 83.26,32.84 
	83.41,32.84 83.55,32.7 83.7,32.7 83.85,32.7 83.85,32.84 83.7,32.99 83.7,33.14 83.7,33.29 83.7,33.44 83.7,33.58 83.85,33.58 
	83.7,33.58 83.7,33.73 83.7,33.88 83.7,34.03 83.85,34.03 83.85,34.17 83.85,34.32 84,34.32 84,34.47 84.14,34.62 84.29,34.76 
	84.29,34.91 84.44,34.91 84.44,35.06 84.59,35.21 84.74,35.21 84.88,35.21 84.88,35.36 85.03,35.36 85.03,35.5 85.18,35.65 
	85.18,35.8 85.33,35.8 85.33,35.95 85.47,35.95 85.47,36.09 85.62,36.24 85.77,36.39 85.77,36.54 85.92,36.54 86.06,36.54 
	86.21,36.54 86.51,36.39 86.66,36.39 86.66,36.24 86.8,36.24 86.8,36.09 86.95,36.09 87.1,36.09 87.1,36.24 87.25,36.24 
	87.39,36.24 87.39,36.39 87.54,36.39 87.54,36.54 87.69,36.54 87.84,36.54 87.98,36.68 88.13,36.68 88.13,36.83 88.13,36.98 
	88.13,37.13 87.98,37.13 87.84,37.28 87.69,37.28 87.54,37.42 87.54,37.57 87.25,37.87 87.1,38.01 87.25,38.16 87.1,38.31 
	87.25,38.46 87.1,38.6 87.1,38.75 87.25,38.75 87.25,38.9 87.25,39.05 87.39,39.34 87.54,39.49 87.69,39.64 87.84,39.64 
	87.98,39.79 88.13,39.93 88.28,39.93 88.28,40.08 88.43,40.23 88.58,40.38 88.58,40.52 88.72,40.52 88.72,40.67 88.87,40.67 
	88.87,40.82 88.87,40.97 88.87,41.12 88.87,41.26 88.87,41.41 88.87,41.56 88.87,41.71 88.87,41.85 88.87,42 89.02,42.15 
	89.17,42.15 89.17,42.3 89.31,42.3 89.46,42.15 89.61,42.15 89.76,42.3 89.9,42.3 90.05,42.3 90.2,42.3 90.35,42.3 90.5,42.3 
	90.5,42.44 90.5,42.59 90.35,42.74 90.35,42.89 90.35,43.04 90.05,43.18 90.05,43.33 89.9,43.33 89.9,43.48 89.9,43.63 89.9,43.77 
	89.9,43.92 90.05,44.07 90.2,44.22 90.35,44.22 90.35,44.36 90.5,44.36 90.64,44.36 90.79,44.36 91.09,44.51 91.23,44.66 
	91.38,44.66 91.53,44.66 91.68,44.51 91.68,44.66 91.82,44.66 91.97,44.66 91.97,44.81 92.27,44.96 92.27,45.1 92.42,45.25 
	92.42,45.4 92.56,45.55 92.56,45.84 92.71,46.14 92.71,46.28 92.56,46.43 92.42,46.43 92.27,46.58 92.12,46.58 92.12,46.73 
	91.97,46.73 91.82,46.88 91.82,47.02 91.82,47.17 91.82,47.32 91.82,47.47 91.68,47.47 91.53,47.47 91.38,47.47 91.09,47.47 
	91.23,47.61 91.38,48.06 91.38,48.2 91.53,48.35 91.53,48.5 91.53,48.79 91.53,48.94 91.53,49.09 91.38,49.24 91.38,49.39 
	91.38,49.53 91.23,49.68 91.09,49.68 91.09,49.83 91.09,49.98 91.38,50.42 91.38,50.57 91.38,50.71 91.38,50.86 91.38,51.01 
	91.53,51.01 91.68,51.01 91.82,51.01 91.97,51.01 92.27,51.01 92.27,50.86 92.42,50.86 92.56,50.86 92.56,51.01 92.71,51.01 
	92.71,51.16 92.86,51.16 93.01,51.31 93.15,51.45 93.3,51.75 93.45,51.9 93.45,52.04 93.6,52.04 93.74,52.19 93.74,52.34 
	93.74,52.49 93.6,52.49 93.6,52.63 93.74,52.63 93.74,52.78 93.6,52.78 93.74,52.78 93.74,52.93 93.6,52.93 93.6,53.08 93.74,53.08 
	93.74,53.23 93.74,53.37 93.89,53.37 93.74,53.37 93.89,53.37 93.74,53.52 93.89,53.52 93.74,53.52 93.74,53.67 93.89,53.67 
	94.04,53.67 94.19,53.67 94.34,53.82 94.63,53.82 94.78,53.82 94.78,53.96 94.63,54.11 94.63,54.26 94.78,54.26 94.93,54.41 
	95.07,54.41 95.22,54.55 95.37,54.7 95.37,54.85 95.37,55 95.37,55.15 95.37,55.29 95.22,55.44 95.22,55.59 95.07,55.59 
	95.07,55.74 95.07,55.88 95.22,56.03 95.22,56.18 95.22,56.33 95.22,56.47 95.22,56.62 95.37,56.62 95.66,56.77 95.96,56.92 
	96.11,56.92 96.11,57.07 96.26,57.07 96.4,57.21 96.55,57.21 96.7,57.21 96.7,57.36 96.7,57.51 96.7,57.66 96.85,57.66 96.85,57.8 
	96.85,57.95 96.85,58.1 96.7,58.54 96.7,58.69 96.7,58.84 96.7,58.99 96.7,59.13 96.7,59.28 96.7,59.43 96.7,59.58 96.7,59.72 
	96.7,59.87 96.55,60.02 96.55,60.17 96.4,60.31 96.26,60.46 96.26,60.61 96.11,60.76 95.96,61.05 95.81,61.2 95.66,61.2 
	95.66,61.35 95.66,61.5 95.81,61.5 95.81,61.79 95.81,62.09 95.96,62.23 95.96,62.38 96.11,62.38 96.26,62.53 96.4,62.68 
	96.55,62.83 96.7,62.83 96.7,62.97 96.85,63.12 96.85,63.27 96.85,63.56 96.85,63.71 96.7,64.01 96.7,64.15 96.7,64.45 96.7,64.6 
	96.7,64.75 96.7,64.89 96.7,65.04 96.7,65.19 96.7,65.34 96.55,65.34 96.4,65.34 96.4,65.19 96.26,65.19 96.11,65.19 96.11,65.04 
	95.96,65.04 95.81,65.04 95.81,64.89 95.81,64.75 95.66,64.75 95.52,64.75 95.37,64.75 95.37,64.6 95.22,64.75 95.22,64.6 
	95.07,64.6 94.93,64.6 94.93,64.75 94.93,64.89 94.78,64.89 94.63,64.89 94.63,65.04 94.48,65.04 94.34,65.04 94.19,65.04 
	94.19,65.19 94.04,65.19 94.04,65.34 93.89,65.34 93.74,65.34 93.6,65.34 93.6,65.19 93.45,65.19 93.3,65.19 93.3,65.34 
	93.15,65.34 93.01,65.34 93.01,65.19 92.86,65.19 92.86,65.34 92.71,65.34 92.71,65.19 92.71,65.34 92.56,65.34 92.56,65.19 
	92.42,65.19 92.42,65.04 92.27,65.04 92.27,64.89 92.12,64.89 92.27,64.89 92.12,64.89 92.12,64.75 92.12,64.89 92.12,64.75 
	92.12,64.6 91.97,64.6 91.97,64.45 91.82,64.45 91.82,64.3 91.68,64.3 91.53,64.3 91.38,64.3 91.38,64.15 91.38,64.01 91.23,64.01 
	91.09,64.01 91.09,64.15 90.94,64.15 90.79,64.15 90.79,64.3 90.64,64.3 90.5,64.3 90.5,64.45 90.35,64.45 90.35,64.3 90.35,64.45 
	90.2,64.45 90.05,64.45 90.05,64.3 90.05,64.45 89.9,64.45 89.9,64.6 89.76,64.6 89.76,64.45 89.76,64.6 89.61,64.6 89.76,64.6 
	89.76,64.75 89.61,64.75 89.46,64.75 89.31,64.75 89.31,64.89 89.31,64.75 89.17,64.75 89.02,64.75 89.02,64.89 89.02,65.04 
	89.02,65.19 89.02,65.34 89.02,65.48 89.17,65.48 89.02,65.48 89.02,65.63 88.87,65.63 88.72,65.63 88.58,65.63 88.58,65.78 
	88.43,65.78 88.28,65.78 88.28,65.93 88.43,65.93 88.28,65.93 88.13,65.93 88.13,65.78 87.98,65.78 87.84,65.78 87.69,65.78 
	87.69,65.63 87.54,65.63 87.54,65.78 87.54,65.63 87.54,65.78 87.39,65.78 87.25,65.78 87.25,65.93 87.1,65.93 87.1,65.78 
	86.95,65.93 86.8,65.93 86.66,65.93 86.51,65.93 86.51,66.07 86.36,66.07 86.21,66.07 86.21,66.22 86.21,66.07 86.06,66.07 
	85.92,66.07 85.92,66.22 85.77,66.22 85.77,66.37 85.77,66.22 85.62,66.22 85.62,66.37 85.62,66.22 85.47,66.22 85.33,66.22 
	85.33,66.37 85.18,66.37 85.03,66.37 85.03,66.52 85.03,66.37 84.88,66.37 85.03,66.52 84.88,66.52 84.88,66.67 84.88,66.81 
	84.74,66.81 84.74,66.96 84.59,66.96 84.59,66.81 84.59,66.96 84.44,66.96 84.44,66.81 84.29,66.81 84.14,66.81 84.29,66.81 
	84.29,66.96 84.14,66.96 84.14,67.11 84.29,67.11 84.14,67.11 84.14,67.26 84,67.26 84,67.4 84,67.26 83.85,67.4 83.7,67.4 
	83.7,67.26 83.55,67.26 83.41,67.26 83.41,67.4 83.26,67.4 83.26,67.55 83.26,67.4 83.11,67.4 82.96,67.4 82.82,67.4 82.96,67.4 
	82.82,67.4 82.82,67.55 82.82,67.4 82.67,67.4 82.67,67.55 82.67,67.7 82.67,67.85 82.52,67.85 82.67,67.85 82.52,67.99 
	82.67,67.99 82.67,68.14 82.67,68.29 82.52,68.29 82.52,68.14 82.52,68.29 82.37,68.29 82.37,68.44 82.52,68.44 82.37,68.44 
	82.22,68.44 82.22,68.59 82.22,68.44 82.08,68.44 82.08,68.59 81.93,68.59 81.93,68.44 81.78,68.44 81.78,68.59 81.78,68.44 
	81.78,68.59 81.63,68.59 81.63,68.44 81.63,68.59 81.49,68.59 81.49,68.73 81.49,68.59 81.34,68.59 81.19,68.59 81.19,68.73 
	81.19,68.88 81.04,68.88 80.9,69.03 80.75,69.03 80.6,69.03 80.6,68.88 80.6,68.73 80.45,68.73 80.3,68.73 80.3,68.59 80.3,68.44 
	80.45,68.29 80.45,68.14 80.3,67.99 80.3,67.85 80.3,67.7 80.3,67.55 80.3,67.4 80.3,67.26 80.3,67.11 80.3,66.96 80.16,66.96 
	80.16,67.11 80.01,67.11 80.01,66.96 79.86,66.96 79.86,66.81 80.01,66.81 80.01,66.67 80.01,66.52 80.01,66.37 80.16,66.37 
	80.16,66.22 80.16,66.07 80.16,65.93 80.3,65.93 80.16,65.78 80.16,65.63 80.16,65.48 80.16,65.34 80.01,65.34 80.01,65.19 
	80.01,65.04 79.86,65.04 79.86,65.19 79.86,65.04 79.71,65.04 79.71,64.89 79.71,64.75 79.57,64.75 79.57,64.6 79.42,64.6 
	79.27,64.6 79.12,64.6 79.12,64.75 79.12,64.6 78.98,64.6 78.98,64.75 78.83,64.75 78.68,64.75 78.53,64.75 78.38,64.75 
	78.24,64.75 78.09,64.75 77.94,64.75 77.79,64.75 77.65,64.75 77.65,64.6 77.5,64.6 77.5,64.45 77.5,64.6 77.35,64.6 77.2,64.45 
	77.2,64.6 77.2,64.45 77.06,64.45 76.91,64.45 76.91,64.6 76.76,64.6 76.61,64.6 76.46,64.6 76.46,64.45 76.32,64.45 76.32,64.6 
	76.17,64.6 76.17,64.75 76.17,64.89 76.02,64.89 76.02,65.04 75.87,65.19 75.73,65.34 75.58,65.48 75.43,65.63 75.28,65.63 
	75.14,65.63 74.99,65.63 74.84,65.63 74.69,65.63 74.54,65.63 74.4,65.63 74.25,65.48 74.1,65.48 74.1,65.34 73.95,65.34 
	73.95,65.48 73.95,65.34 73.95,65.19 73.81,65.19 73.66,65.19 73.81,65.34 73.66,65.34 73.66,65.19 73.66,65.34 73.66,65.19 
	73.51,65.19 73.36,65.19 73.22,65.19 73.22,65.04 73.22,64.89 73.07,64.89 72.92,64.89 72.77,64.89 72.77,64.75 72.62,64.75 
	72.62,64.6 72.48,64.6 72.48,64.75 72.33,64.75 72.18,64.75 72.03,64.75 72.18,64.75 72.03,64.75 72.03,64.89 71.89,64.89 
	71.89,65.04 71.74,65.04 71.74,65.19 71.59,65.19 71.44,65.19 71.44,65.34 71.3,65.34 71.3,65.48 71.15,65.48 71,65.48 70.85,65.48 
	70.85,65.34 70.7,65.34 70.56,65.34 70.56,65.19 70.41,65.19 70.41,65.04 70.26,65.04 70.26,65.19 70.11,65.19 69.97,65.19 
	69.97,65.04 69.97,65.19 69.82,65.19 69.82,65.04 69.82,64.89 69.67,64.89 69.82,64.75 69.82,64.6 69.67,64.6 69.67,64.45 
	69.67,64.3 69.52,64.15 69.52,64.01 69.38,64.01 69.38,63.86 69.38,64.01 69.23,64.01 69.23,64.15 69.08,64.15 69.08,64.3 
	68.93,64.3 68.93,64.45 68.78,64.45 68.64,64.45 68.49,64.45 68.49,64.3 68.49,64.15 68.34,64.15 68.19,64.15 68.05,64.15 
	68.05,64.01 67.9,64.01 67.75,64.01 67.6,64.01 67.46,64.01 67.31,64.01 67.31,63.86 67.31,63.71 67.31,63.56 67.16,63.56 
	67.16,63.42 67.01,63.42 67.01,63.27 66.86,63.27 66.72,63.27 66.72,63.12 66.57,63.12 66.42,63.12 66.42,62.97 66.27,62.97 
	66.27,62.83 66.13,62.83 66.13,62.68 65.98,62.68 65.98,62.53 65.83,62.53 65.68,62.53 65.54,62.53 65.39,62.68 65.09,62.68 
	64.94,62.83 64.8,62.97 64.65,63.12 64.5,63.12 64.35,63.27 64.21,63.27 64.06,63.27 63.91,63.27 63.76,63.27 63.47,63.27 
	63.17,63.27 63.17,63.12 63.02,63.12 62.88,63.12 62.73,62.97 62.73,62.83 62.58,62.83 62.58,62.68 62.43,62.68 62.29,62.68 
	62.14,62.68 61.84,62.68 61.7,62.83 61.4,62.83 61.4,62.97 61.25,62.97 61.25,63.12 61.1,63.27 61.1,63.42 61.1,63.56 60.96,63.71 
	60.96,63.86 60.96,64.01 60.81,64.01 60.81,64.15 60.66,64.15 60.51,64.3 60.37,64.3 60.22,64.3 60.07,64.45 59.92,64.45 
	59.78,64.45 59.78,64.6 59.63,64.6 59.63,64.75 59.63,64.89 59.48,64.89 59.63,64.89 59.48,64.89 59.48,65.04 59.33,65.04 
	59.33,64.89 59.33,65.04 59.18,65.04 59.04,65.04 59.04,65.19 59.04,65.34 58.89,65.34 58.89,65.48 58.74,65.63 58.59,65.63 
	58.45,65.63 58.3,65.63 58.15,65.63 58.15,65.78 58,65.78 58,65.93 58,66.07 57.86,66.07 57.86,66.22 57.71,66.22 57.56,66.22 
	57.56,66.37 57.71,66.37 57.71,66.52 57.71,66.67 57.56,66.67 57.56,66.81 57.41,66.81 57.26,66.81 57.26,66.96 57.12,66.96 
	56.97,66.96 56.82,66.96 56.82,67.11 56.67,67.26 56.53,67.4 56.38,67.4 56.23,67.4 56.23,67.55 56.08,67.55 56.08,67.7 55.94,67.7 
	55.79,67.7 55.64,67.85 55.49,67.85 55.49,67.99 55.34,67.99 55.2,68.14 55.05,68.14 55.05,68.29 54.9,68.44 54.9,68.59 54.9,68.73 
	54.9,68.88 54.9,69.03 54.75,69.18 54.61,69.32 54.46,69.32 54.31,69.32 54.16,69.32 54.16,69.47 54.02,69.62 53.87,69.62 
	53.87,69.77 53.72,69.91 53.57,69.91 53.42,70.06 53.28,70.06 53.13,70.06 52.98,70.06 52.83,70.06 52.69,70.06 52.54,70.06 
	52.54,70.21 52.39,70.21 52.1,70.8 51.95,71.1 52.54,71.54 52.69,71.69 52.69,71.83 52.83,71.98 52.98,72.13 52.98,72.28 
	53.13,72.28 53.28,72.28 53.28,72.43 53.28,72.57 53.42,72.57 53.42,72.72 53.57,72.72 53.72,72.87 53.87,72.87 53.87,73.02 
	54.02,73.02 54.02,73.16 54.16,73.16 54.02,73.31 54.02,73.46 54.16,73.46 54.16,73.61 54.31,73.61 54.31,73.75 54.46,73.9 
	54.46,74.05 54.46,74.2 54.31,74.35 54.31,74.49 54.16,74.64 54.16,74.79 54.02,74.79 54.02,74.94 54.16,74.94 54.16,75.08 
	54.16,75.23 54.31,75.23 54.46,75.38 54.61,75.53 54.75,75.53 54.9,75.67 55.05,75.67 55.05,75.82 55.2,75.97 55.34,75.97 
	55.49,76.12 55.64,76.12 56.08,76.56 56.23,76.71 56.38,76.86 56.53,77 56.67,77.15 56.82,77.15 56.82,77.3 56.82,77.45 
	56.82,77.59 56.82,77.74 56.82,77.89 56.82,78.04 56.82,78.19 56.67,78.19 56.53,78.19 56.53,78.33 56.53,78.48 56.53,78.63 
	56.38,78.63 56.53,78.63 56.53,78.78 56.53,78.92 56.67,79.07 56.67,79.22 56.67,79.37 56.82,79.37 56.82,79.51 56.67,79.51 
	56.67,79.66 56.53,79.66 56.53,79.81 56.67,79.81 56.67,79.96 56.82,79.96 56.82,80.1 56.82,80.25 56.67,80.25 56.82,80.25 
	56.67,80.25 56.67,80.4 56.67,80.55 56.53,80.7 56.67,80.7 56.53,80.7 56.53,80.84 56.53,80.99 56.53,80.84 56.53,80.99 
	56.38,80.99 56.38,81.14 56.23,81.14 56.08,81.29 55.94,81.29 55.79,81.43 55.79,81.58 55.64,81.58 55.49,81.58 55.49,81.73 
	55.34,81.73 55.34,81.88 55.2,81.88 55.2,82.02 55.2,82.17 55.2,82.32 55.2,82.47 55.2,82.62 55.2,82.76 55.05,82.76 55.05,82.91 
	55.05,83.06 54.9,83.06 54.9,83.21 55.05,83.21 55.05,83.35 54.9,83.35 54.9,83.5 55.05,83.5 55.2,83.5 55.2,83.65 55.2,83.8 
	55.05,83.8 55.05,83.94 55.2,84.09 55.2,84.24 55.05,84.24 54.9,84.24 54.75,84.24 54.61,84.24 54.46,84.24 54.31,84.24 
	54.31,84.39 54.16,84.39 54.02,84.39 53.87,84.54 53.72,84.54 53.57,84.54 53.42,84.54 53.28,84.54 53.13,84.54 52.98,84.39 
	52.83,84.39 52.69,84.39 52.54,84.24 52.39,84.24 52.24,84.24 52.1,84.24 51.95,84.24 51.8,84.24 51.8,84.09 51.65,84.09 
	51.5,84.09 51.5,84.24 51.5,84.39 51.65,84.39 51.8,84.39 51.95,84.39 52.1,84.54 52.1,84.68 52.1,84.83 52.1,84.98 51.95,84.98 
	51.8,84.98 51.65,84.83 51.65,84.68 51.5,84.68 51.5,84.83 51.5,84.98 51.36,85.13 51.36,85.27 51.21,85.27 51.06,85.27 
	51.06,85.13 51.21,84.83 51.21,84.68 51.06,84.68 50.91,84.83 50.77,84.83 50.47,84.83 50.47,84.98 50.32,84.98 50.32,85.13 
	50.32,85.27 50.18,85.27 50.03,85.13 49.88,85.13 49.88,84.98 49.73,84.98 49.88,84.83 49.88,84.68 50.03,84.68 50.03,84.54 
	49.88,84.54 49.73,84.54 49.73,84.39 49.58,84.39 49.44,84.39 49.44,84.54 49.29,84.54 49.29,84.68 49.14,84.83 49.14,84.98 
	49.14,85.13 49.29,85.27 49.29,85.42 49.29,85.57 49.44,85.57 49.44,85.42 49.44,85.27 49.58,85.27 49.73,85.42 49.58,85.57 
	49.58,85.72 49.73,85.72 49.88,85.86 50.03,85.86 50.18,85.86 50.32,85.86 50.47,86.01 50.32,86.16 50.18,86.31 50.03,86.46 
	49.88,86.46 49.73,86.46 49.73,86.31 49.58,86.31 49.44,86.31 49.44,86.75 49.29,86.9 49.14,86.9 48.99,86.9 48.85,86.9 48.7,86.9 
	48.7,86.75 48.7,86.6 48.7,86.31 48.7,86.16 48.7,86.01 48.55,86.01 48.4,86.01 48.4,86.16 48.4,86.31 48.4,86.46 48.4,86.6 
	48.4,86.75 48.4,86.9 48.4,87.05 48.4,87.19 48.4,87.34 48.26,87.34 48.11,87.19 47.96,87.05 47.96,86.9 47.81,86.9 47.66,86.9 
	47.52,87.05 47.52,87.19 47.37,87.34 47.37,87.49 47.22,87.49 47.07,87.49 46.93,87.49 46.93,87.34 46.78,87.34 46.78,87.19 
	46.63,87.19 46.63,87.05 46.63,86.9 46.63,86.75 46.48,86.31 46.48,86.16 46.48,86.01 46.34,85.86 46.19,85.57 45.74,85.13 
	45.6,84.98 45.45,84.83 45.3,84.83 45.15,84.83 45.01,84.83 44.86,84.83 44.71,84.83 44.42,84.98 44.27,84.98 44.12,84.98 
	44.12,85.13 43.97,85.13 43.97,85.27 44.12,85.27 44.27,85.27 44.42,85.27 44.56,85.27 44.71,85.27 44.86,85.13 45.01,85.13 
	45.15,85.13 45.15,85.27 45.15,85.42 45.01,85.42 45.01,85.57 45.15,85.57 45.15,85.72 45.3,85.72 45.45,85.72 45.6,85.72 
	45.6,85.86 45.74,86.01 45.6,86.01 45.6,86.16 45.45,86.31 45.3,86.31 45.15,86.46 45.01,86.46 44.86,86.31 44.71,86.31 
	44.56,86.46 44.56,86.6 44.56,86.75 44.56,86.9 44.42,86.9 44.27,86.9 44.27,87.05 44.12,87.05 43.97,87.05 43.82,87.05 43.82,86.9 
	43.82,86.75 43.82,86.6 43.97,86.46 43.97,86.31 43.82,86.31 43.82,86.16 43.68,86.16 43.68,86.31 43.68,86.46 43.68,86.6 
	43.53,86.75 43.23,86.9 43.09,86.9 42.94,86.9 42.64,86.75 42.5,86.75 42.35,86.6 42.2,86.6 42.05,86.6 42.05,86.46 41.9,86.46 
	41.76,86.46 41.61,86.31 41.46,86.31 41.17,86.31 41.02,86.31 40.72,86.16 40.58,86.16 40.43,86.16 40.28,86.16 40.13,86.31 
	39.98,86.16 39.84,86.16 39.84,86.01 39.84,85.86 39.84,85.72 39.98,85.72 40.13,85.72 40.28,85.72 40.28,85.57 40.43,85.42 
	40.43,85.27 40.58,85.27 40.58,85.13 40.72,85.13 40.72,84.98 40.72,84.83 40.58,84.83 40.43,84.83 40.28,84.83 40.28,84.98 
	40.28,85.13 40.28,85.27 40.13,85.27 39.98,85.27 39.84,85.27 39.69,85.27 39.54,85.27 39.39,85.27 39.25,85.42 39.1,85.42 
	38.95,85.42 38.95,85.57 38.8,85.57 38.66,85.42 38.66,85.27 38.66,85.13 38.8,85.13 38.95,84.98 39.1,84.98 39.1,84.83 39.1,84.68 
	39.1,84.54 38.95,84.54 38.8,84.68 38.8,84.83 38.66,84.83 38.51,84.83 38.36,84.83 38.36,84.98 38.21,85.13 38.21,85.27 
	38.21,85.42 38.21,85.57 38.21,85.72 38.06,85.72 38.06,85.86 37.92,85.86 37.77,86.01 37.77,86.16 37.92,86.16 37.92,86.31 
	37.92,86.46 37.77,86.46 37.62,86.46 37.47,86.46 37.47,86.6 37.62,86.75 37.62,86.9 37.47,86.9 37.33,87.05 37.18,87.05 
	37.03,86.9 37.03,86.75 37.03,86.6 36.88,86.6 36.74,86.6 36.59,86.75 36.44,86.75 36.29,86.75 36.14,86.6 36,86.6 35.85,86.6 
	35.85,86.46 35.7,86.46 35.85,86.31 36,86.16 36,86.01 36,85.86 35.85,85.86 35.85,86.01 35.7,86.01 35.55,86.01 35.55,85.86 
	35.41,85.86 35.26,86.01 35.41,86.16 35.41,86.31 35.26,86.31 35.11,86.31 34.96,86.31 34.82,86.16 34.82,86.01 34.67,86.01 
	34.52,86.01 34.37,86.16 34.22,86.16 34.22,86.01 34.08,86.01 34.08,85.86 33.93,86.01 33.93,86.16 33.78,86.31 33.78,86.46 
	33.63,86.46 33.63,86.6 33.78,86.6 33.78,86.75 33.78,86.9 33.63,86.9 33.49,86.75 33.34,86.9 33.34,87.05 33.49,87.05 33.49,87.19 
	33.49,87.34 33.34,87.34 33.19,87.34 33.19,87.19 33.04,87.19 32.9,87.19 32.9,87.34 32.9,87.49 32.75,87.49 32.75,87.64 
	32.6,87.64 32.45,87.64 32.3,87.78 32.16,87.93 32.16,88.08 32.01,88.23 31.86,88.23 31.71,88.23 31.71,88.08 31.71,87.93 
	31.71,87.78 31.57,87.78 31.57,87.64 31.42,87.49 31.42,87.34 31.57,87.34 31.71,87.49 31.86,87.49 31.86,87.64 32.01,87.64 
	32.01,87.49 32.01,87.34 31.86,87.34 31.86,87.19 31.71,87.05 31.57,87.05 31.42,87.05 31.27,87.05 31.12,87.05 31.12,86.9 
	31.12,86.75 31.27,86.6 31.42,86.46 31.57,86.46 31.57,86.31 31.42,86.31 31.27,86.31 31.12,86.31 30.98,86.31 30.83,86.31 
	30.68,86.31 30.68,86.16 30.83,86.01 30.83,85.86 30.98,85.86 30.98,85.72 31.12,85.72 31.27,85.72 31.42,85.72 31.42,85.57 
	31.27,85.42 31.12,85.42 30.98,85.42 30.98,85.27 30.98,85.13 31.27,85.27 31.42,85.13 31.27,84.98 31.27,84.83 31.12,84.83 
	31.12,84.68 31.27,84.68 31.27,84.54 31.27,84.39 31.12,84.24 30.98,84.24 30.98,84.39 30.83,84.39 30.83,84.54 30.83,84.68 
	30.83,84.83 30.68,84.98 30.53,84.98 30.53,84.83 30.53,84.68 30.53,84.54 30.38,84.39 30.24,84.24 30.24,84.09 30.09,84.09 
	30.09,83.94 29.94,83.8 29.65,83.65 29.65,83.5 29.5,83.5 29.35,83.5 29.2,83.5 29.2,83.35 29.06,83.35 28.91,83.35 28.61,83.35 
	28.46,83.35 28.46,83.21 28.46,83.06 28.32,83.06 28.32,82.91 28.17,82.76 28.17,82.62 28.17,82.47 28.02,82.47 28.02,82.32 
	28.02,82.17 27.87,82.17 27.87,82.02 27.73,82.02 27.73,81.88 27.73,81.73 27.87,81.58 28.02,81.43 28.02,81.29 28.02,81.14 
	27.87,80.99 27.87,80.84 27.87,80.7 27.87,80.55 27.87,80.4 28.02,80.25 28.32,79.96 28.32,79.81 28.32,79.66 28.17,79.51 
	28.02,79.37 27.87,79.22 27.87,79.07 27.73,79.07 27.58,78.92 27.43,78.92 27.28,78.92 27.14,78.78 26.99,78.78 26.99,78.63 
	26.84,78.48 26.84,78.33 26.69,78.33 26.54,78.33 26.25,78.33 25.95,78.33 25.81,78.33 25.66,78.33 25.51,78.48 25.36,78.33 
	25.22,78.33 25.07,78.33 24.92,78.33 24.77,78.33 24.62,78.33 24.48,78.19 24.33,78.19 24.18,78.04 24.03,78.04 23.89,77.89 
	23.74,77.89 23.59,77.74 23.44,77.74 23.3,77.74 23.3,77.59 23.15,77.59 23.15,77.45 23,77.3 23,77.15 23,77 23,76.71 22.85,75.97 
	22.85,75.67 22.85,75.53 22.85,75.38 22.85,75.23 22.85,74.79 22.85,74.49 22.85,74.35 22.7,74.2 22.7,73.9 22.7,73.61 22.56,73.46 
	22.56,73.31 22.41,73.16 22.41,73.02 22.26,73.02 22.11,73.02 22.11,72.87 22.11,73.02 22.11,72.87 21.97,72.87 21.82,72.87 
	21.67,72.87 21.67,72.72 21.52,72.72 21.38,72.72 21.23,72.72 21.23,72.57 21.08,72.57 21.08,72.43 21.08,72.57 20.93,72.43 
	20.78,72.43 20.78,72.57 20.78,72.43 20.64,72.43 20.49,72.43 20.34,72.43 20.19,72.43 20.05,72.43 20.05,72.57 19.9,72.57 
	19.75,72.57 19.75,72.43 19.6,72.43 19.6,72.57 19.46,72.57 19.46,72.72 19.31,72.72 19.31,72.57 19.31,72.43 19.16,72.43 
	19.01,72.43 18.86,72.43 18.86,72.28 18.72,72.28 18.72,72.13 18.72,71.98 18.57,71.98 18.57,71.83 18.42,71.69 18.42,71.54 
	18.42,71.39 18.42,71.24 18.42,71.1 18.42,70.95 18.27,70.95 18.42,70.95 18.42,70.8 18.27,70.8 18.42,70.8 18.42,70.65 
	18.27,70.65 18.27,70.51 18.13,70.51 18.13,70.36 17.98,70.36 17.98,70.21 17.83,70.21 17.68,70.21 17.54,70.21 17.39,70.21 
	17.24,70.21 17.24,70.36 17.09,70.36 16.94,70.51 16.8,70.8 16.65,70.95 16.5,71.1 16.35,71.24 16.21,71.24 16.06,71.39 
	15.91,71.54 15.76,71.69 15.62,71.69 15.47,71.69 15.32,71.69 15.02,71.69 14.73,71.69 14.58,71.69 14.43,71.69 14.29,71.69 
	14.14,71.83 13.99,71.83 13.99,71.98 13.84,71.98 13.55,71.98 13.4,72.13 12.96,72.13 12.66,72.28 12.37,72.28 12.07,72.43 
	11.78,72.43 11.63,72.57 11.33,72.57 11.04,72.57 10.74,72.72 10.45,72.72 10.15,72.87 10,72.87 9.26,73.02 9.12,73.02 8.97,73.02 
	8.82,73.02 8.67,73.16 8.53,73.16 8.38,73.16 8.38,73.02 8.38,72.87 8.23,72.87 8.23,72.72 8.38,72.72 8.38,72.57 8.23,72.57 
	8.23,72.43 8.08,72.43 7.94,72.28 7.79,72.28 7.79,72.13 7.79,71.98 7.64,71.98 7.64,71.83 7.64,71.69 7.79,71.69 7.79,71.54 
	7.79,71.39 7.64,71.39 7.79,71.39 7.64,71.39 7.64,71.24 7.49,71.24 7.49,71.1 7.34,71.1 7.34,70.95 7.49,70.95 7.34,70.95 
	7.34,70.8 7.34,70.65 7.49,70.65 7.34,70.51 7.34,70.36 7.49,70.36 7.49,70.21 7.49,70.06 7.64,70.06 7.64,69.91 7.64,69.77 
	7.79,69.62 7.79,69.47 7.79,69.32 7.94,69.32 7.94,69.18 8.08,69.18 8.23,69.18 8.23,69.03 8.23,68.88 8.23,68.73 8.23,68.59 
	8.23,68.44 8.38,68.44 8.23,68.44 8.23,68.29 8.23,68.14 8.38,68.14 8.38,67.99 8.38,68.14 8.38,67.99 8.53,67.99 8.53,67.85 
	8.53,67.7 8.67,67.7 8.82,67.7 8.82,67.55 8.82,67.4 8.82,67.26 8.82,67.11 8.97,66.96 9.12,66.96 9.12,66.81 8.97,66.81 
	8.97,66.67 8.97,66.52 9.12,66.52 8.97,66.52 8.97,66.37 8.82,66.37 8.82,66.22 8.97,66.22 8.97,66.07 8.97,65.93 8.97,65.78 
	8.97,65.63 8.97,65.48 8.82,65.48 8.82,65.63 8.82,65.48 8.67,65.48 8.67,65.34 8.53,65.34 8.53,65.19 8.53,65.04 8.38,65.04 
	8.23,65.04 8.23,64.89 8.08,64.89 8.08,64.75 7.94,64.75 7.94,64.6 7.79,64.6 7.79,64.45 7.64,64.3 7.64,64.15 7.49,64.15 
	7.49,64.01 7.49,63.86 7.49,63.71 7.49,63.56 7.49,63.42 7.49,63.27 7.49,63.12 7.49,62.97 7.34,62.97 7.34,62.83 7.34,62.68 
	7.2,62.68 7.2,62.53 7.2,62.38 7.2,62.23 7.2,62.09 7.2,61.94 7.05,61.79 7.05,61.64 7.05,61.5 7.05,61.35 7.05,61.2 7.2,61.2 
	7.2,61.05 7.2,60.91 7.34,60.91 7.34,60.76 7.34,60.61 7.49,60.61 7.64,60.31 7.64,60.17 7.64,60.02 7.64,59.87 7.64,59.72 
	7.64,59.58 7.79,59.58 7.79,59.43 7.94,59.28 8.08,59.13 8.23,58.99 8.23,58.84 8.23,58.69 8.38,58.54 8.38,58.25 8.53,58.1 
	8.67,57.95 8.67,57.8 8.82,57.8 8.82,57.66 8.82,57.51 8.82,57.21 8.97,57.07 8.97,56.92 8.97,56.77 8.97,56.62 8.97,56.47 
	8.97,56.33 8.97,56.18 8.97,56.03 8.82,55.88 8.82,55.74 8.82,55.59 8.67,55.29 8.67,55.15 8.53,54.85 8.38,54.41 8.23,54.11 
	8.23,53.96 8.08,53.67 7.94,53.67 7.79,53.52 7.79,53.37 7.64,53.23 7.64,52.93 7.49,52.93 7.49,52.78 7.49,52.63 7.34,52.34 
	7.34,52.19 7.34,52.04 7.49,51.9 7.64,51.75 8.08,51.45 8.23,51.31 8.82,50.86 9.41,50.42 9.56,50.27 9.56,50.12 9.56,49.98 
	9.41,49.83 9.41,49.68 9.26,49.53 9.26,49.39 9.26,49.24 9.12,49.09 8.97,48.94 8.97,49.09 8.82,49.09 8.67,49.09 8.53,49.09 
	8.38,49.09 8.23,49.09 8.08,49.09 7.94,49.09 7.49,49.09 7.34,49.09 7.2,49.09 7.05,49.09 6.9,49.09 6.75,49.09 6.61,49.09 
	6.46,49.09 6.16,48.94 6.02,48.94 6.02,48.79 6.02,48.65 6.02,48.5 5.87,48.5 5.87,48.35 5.87,48.2 5.87,48.06 6.02,48.06 
	6.02,47.91 5.87,47.91 5.87,47.76 5.72,47.76 5.72,47.61 5.87,47.61 5.87,47.47 5.87,47.32 6.02,47.17 6.02,47.02 6.16,46.88 
	6.16,46.73 6.31,46.73 6.46,46.58 6.46,46.43 6.46,46.28 6.46,46.14 6.46,45.99 6.46,46.14 6.46,45.99 6.31,45.99 6.16,45.99 
	6.16,45.84 6.16,45.69 6.16,45.55 6.02,45.4 6.02,45.25 5.87,45.25 5.72,45.25 5.72,45.1 5.57,45.1 5.57,44.96 5.57,44.81 
	5.57,44.66 5.57,44.51 5.42,44.51 5.42,44.36 5.42,44.22 5.28,44.22 5.28,44.07 5.28,43.92 5.28,43.77 5.42,43.77 5.42,43.63 
	5.42,43.48 5.57,43.48 5.57,43.33 5.57,43.18 5.57,43.04 5.57,42.89 5.42,42.89 5.42,42.74 5.57,42.74 5.57,42.59 5.72,42.59 
	5.87,42.59 5.87,42.44 6.02,42.44 6.02,42.3 6.16,42.3 6.16,42.15 6.16,42 6.16,41.85 6.16,41.71 6.31,41.71 6.16,41.71 6.16,41.56 
	6.31,41.56 6.31,41.41 6.31,41.26 6.31,41.12 6.16,41.12 6.16,40.97 6.16,40.82 6.02,40.82 6.16,40.82 6.16,40.67 6.02,40.67 
	6.02,40.82 5.87,40.67 5.87,40.52 5.72,40.52 5.57,40.52 5.57,40.38 5.57,40.23 5.42,40.23 5.28,40.23 5.28,40.08 5.42,40.08 
	5.42,39.93 5.42,39.79 5.28,39.79 5.28,39.64 5.28,39.49 5.28,39.34 5.42,39.34 5.42,39.2 5.57,39.2 5.57,39.05 5.57,38.9 
	5.57,38.75 5.72,38.6 5.72,38.75 5.72,38.9 5.87,38.9 5.87,38.75 6.02,38.75 6.16,38.75 6.16,38.6 6.31,38.6 6.46,38.6 6.61,38.6 
	6.61,38.46 6.75,38.46 6.75,38.31 6.9,38.31 6.9,38.16 7.05,38.16 7.05,38.01 7.2,38.01 7.34,38.01 7.34,37.87 7.34,37.72 
	7.34,37.57 7.34,37.42 7.49,37.42 7.49,37.28 7.34,37.28 7.49,37.28 7.49,37.13 7.49,36.98 7.64,36.98 7.64,36.83 7.49,36.83 
	7.64,36.83 7.64,36.68 7.79,36.68 7.94,36.68 7.94,36.54 8.08,36.54 8.08,36.39 8.08,36.24 8.08,36.09 7.94,36.09 8.08,36.09 
	8.08,35.95 7.94,35.95 7.94,35.8 8.08,35.8 8.08,35.65 8.23,35.65 8.08,35.65 8.23,35.65 8.08,35.65 8.08,35.5 7.94,35.5 
	7.94,35.36 7.94,35.21 7.94,35.06 8.08,35.06 8.08,34.91 8.23,34.91 8.23,34.76 8.08,34.76 8.23,34.76 8.23,34.62 8.23,34.47 
	8.08,34.47 8.08,34.32 8.23,34.17 8.23,34.03 8.23,33.88 8.23,33.73 8.23,33.58 8.38,33.73 8.38,33.58 8.23,33.58 8.38,33.58 
	8.23,33.58 8.23,33.44 8.08,33.29 8.08,33.14 7.94,33.14 7.79,33.14 7.79,32.99 7.79,32.84 7.79,32.7 7.79,32.55 7.79,32.4 
	7.79,32.25 7.79,32.11 7.79,31.96 7.79,31.81 7.79,31.66 7.64,31.66 7.49,31.52 7.34,31.52 7.2,31.52 7.2,31.37 7.2,31.22 
	7.05,31.07 7.05,30.92 7.05,30.78 7.2,30.63 7.2,30.48 7.34,30.33 7.34,30.19 7.49,30.04 7.34,29.89 7.2,29.89 7.05,29.89 
	6.9,29.89 6.75,29.89 6.61,29.89 6.46,29.89 6.46,29.74 6.31,29.74 6.16,29.89 6.02,29.89 5.87,29.89 5.72,29.74 5.57,29.74 
	5.42,29.74 5.28,29.74 5.13,29.74 4.98,29.74 4.83,29.74 4.83,29.6 4.69,29.6 4.54,29.6 4.39,29.45 4.24,29.45 4.1,29.45 4.1,29.6 
	4.24,29.6 4.24,29.89 4.24,30.19 4.39,30.33 4.39,30.63 4.39,30.78 4.54,31.07 4.54,31.22 4.54,31.52 4.54,31.66 4.54,31.81 
	4.54,32.11 4.54,32.25 4.54,32.4 4.39,32.4 4.39,32.55 4.39,32.7 4.39,32.84 4.39,32.99 4.24,32.99 4.24,32.84 4.24,32.99 
	4.1,32.99 4.1,33.14 3.95,33.14 3.95,33.29 3.8,33.29 3.8,33.44 3.65,33.44 3.65,33.58 3.5,33.58 3.5,33.73 3.36,33.73 3.36,33.88 
	3.36,33.73 3.36,33.88 3.21,33.88 3.06,33.88 2.91,33.88 2.91,33.73 2.77,33.73 2.77,33.88 2.62,33.88 2.47,33.88 2.32,33.88 
	2.32,33.73 2.18,33.58 2.18,33.44 2.03,33.44 1.88,33.44 1.88,33.29 1.73,33.29 1.73,33.14 1.73,32.99 1.58,32.99 1.73,32.99 
	1.73,32.84 1.88,32.84 1.88,32.7 1.88,32.55 1.73,32.55 1.58,32.4 1.58,32.25 1.44,32.25 1.44,32.11 1.44,31.96 1.58,31.96 
	1.58,31.81 1.73,31.81 1.58,31.81 1.58,31.66 1.73,31.66 1.73,31.81 1.88,31.81 1.88,31.66 1.73,31.52 1.88,31.52 1.73,31.52 
	1.73,31.37 1.73,31.22 1.88,31.22 2.03,31.22 2.03,31.07 2.18,31.07 2.32,31.07 2.32,30.92 2.47,30.92 2.47,30.78 2.47,30.63 
	2.32,30.63 2.32,30.48 2.18,30.48 2.18,30.33 2.18,30.19 2.32,30.19 2.32,30.04 2.32,29.89 2.32,29.74 2.47,29.74 2.47,29.6 
	2.62,29.6 2.77,29.6 2.77,29.45 2.91,29.45 2.91,29.3 2.91,29.15 2.91,29 2.77,29 2.77,28.86 2.91,28.86 2.77,28.86 2.77,28.71 
	2.77,28.56 2.91,28.56 2.91,28.71 3.06,28.71 3.06,28.56 2.91,28.56 2.91,28.41 3.06,28.41 3.06,28.27 2.91,28.27 2.91,28.12 
	2.77,28.12 2.77,27.97 2.77,27.82 2.91,27.82 2.91,27.68 2.91,27.53 3.06,27.53 3.21,27.53 3.06,27.53 3.06,27.38 3.21,27.38 
	3.06,27.38 3.06,27.23 2.91,27.23 2.91,27.08 3.06,27.08 3.06,26.94 2.91,26.94 2.91,26.79 2.77,26.79 2.77,26.64 2.62,26.64 
	2.62,26.49 2.47,26.49 2.32,26.49 2.32,26.35 2.18,26.35 2.03,26.35 1.88,26.35 1.88,26.2 1.73,26.2 1.73,26.05 1.58,26.05 
	1.58,26.2 1.58,26.05 1.58,25.9 1.44,25.9 1.29,25.9 1.14,25.9 1.29,25.76 1.14,25.76 0.99,25.76 0.99,25.9 0.99,25.76 0.99,25.61 
	0.85,25.76 0.85,25.61 0.99,25.61 0.99,25.46 0.85,25.61 0.85,25.46 0.99,25.46 0.85,25.46 0.85,25.31 0.99,25.31 0.99,25.16 
	0.99,25.02 0.85,25.02 0.85,24.87 0.85,24.72 0.99,24.72 0.85,24.72 0.99,24.57 1.14,24.57 1.14,24.43 0.99,24.43 0.99,24.28 
	1.14,24.28 1.14,24.13 1.29,24.13 1.44,23.98 1.29,23.98 1.29,23.84 1.29,23.69 1.29,23.54 1.44,23.54 1.58,23.54 1.73,23.54 
	1.73,23.39 1.73,23.24 1.88,23.24 1.88,23.39 2.03,23.39 2.03,23.24 1.88,23.24 1.88,23.1 1.88,22.95 1.88,22.8 1.88,22.65 
	2.03,22.65 2.03,22.51 2.03,22.36 2.18,22.36 2.18,22.21 2.03,22.21 2.18,22.21 2.18,22.06 2.18,22.21 2.32,22.06 2.32,21.92 
	2.18,21.92 2.18,21.77 2.32,21.77 2.32,21.62 2.47,21.62 2.47,21.47 2.62,21.47 2.62,21.62 2.77,21.62 2.77,21.47 2.91,21.47 
	2.91,21.62 2.91,21.77 3.06,21.77 3.06,21.92 3.21,21.92 3.36,21.92 3.36,22.06 3.5,22.06 3.65,22.06 3.65,21.92 3.8,21.92 
	3.8,22.06 3.95,22.06 3.95,22.21 4.1,22.21 4.1,22.06 4.24,22.06 4.24,22.21 4.39,22.21 4.54,22.21 4.54,22.36 4.69,22.36 
	4.83,22.36 4.83,22.51 4.98,22.51 4.98,22.36 5.13,22.36 5.13,22.51 5.13,22.65 5.28,22.65 5.42,22.65 5.57,22.65 5.72,22.65 
	5.72,22.51 5.72,22.65 5.87,22.65 6.02,22.65 6.02,22.8 6.16,22.8 6.16,22.65 6.31,22.65 6.46,22.65 6.31,22.51 6.31,22.36 
	6.46,22.36 6.61,22.36 6.75,22.36 6.75,22.51 6.9,22.51 6.9,22.36 7.05,22.36 7.05,22.21 7.2,22.21 7.2,22.36 7.2,22.21 7.34,22.21 
	7.49,22.21 7.34,22.21 7.34,22.06 7.34,21.92 7.49,22.06 7.49,22.21 7.49,22.06 7.64,22.06 7.64,22.21 7.79,22.21 7.94,22.21 
	7.94,22.36 7.94,22.51 7.94,22.65 8.08,22.65 8.23,22.65 8.38,22.51 8.53,22.51 8.67,22.51 8.82,22.51 8.97,22.51 8.97,22.36 
	9.12,22.36 9.26,22.51 9.12,22.51 9.12,22.65 9.26,22.65 9.26,22.51 9.41,22.51 9.41,22.36 9.56,22.36 9.56,22.21 9.56,22.06 
	9.56,21.92 9.56,21.77 9.71,21.77 9.71,21.62 9.86,21.62 9.86,21.47 10,21.62 10.15,21.62 10.15,21.77 10.3,21.77 10.3,21.62 
	10.45,21.62 10.45,21.47 10.45,21.33 10.45,21.18 10.59,21.18 10.74,21.03 10.89,21.03 10.89,20.88 11.04,20.88 11.04,21.03 
	11.18,21.03 11.33,21.03 11.48,21.03 11.48,21.18 11.63,21.33 11.63,21.47 11.78,21.47 11.78,21.62 11.92,21.62 12.07,21.62 
	12.07,21.47 12.22,21.62 12.37,21.62 12.37,21.47 12.51,21.47 12.51,21.62 12.66,21.62 12.66,21.47 12.81,21.47 12.96,21.47 
	13.1,21.47 13.25,21.47 13.25,21.62 13.4,21.62 13.4,21.77 13.55,21.77 13.55,21.92 13.7,21.92 13.7,21.77 13.7,21.92 13.84,21.92 
	13.99,21.92 13.99,22.06 13.84,22.06 13.99,22.06 14.14,22.06 14.29,22.21 14.43,22.21 14.29,22.21 14.43,22.21 14.43,22.36 
	14.58,22.51 14.58,22.65 14.73,22.65 14.73,22.8 14.88,22.8 14.73,22.8 14.88,22.8 15.02,22.8 15.17,22.8 15.17,22.65 15.32,22.65 
	15.32,22.8 15.32,22.95 15.32,22.8 15.47,22.8 15.47,22.95 15.62,22.95 15.62,22.8 15.76,22.95 15.76,23.1 15.91,23.1 16.06,23.1 
	15.91,23.1 15.91,23.24 16.06,23.24 16.06,23.39 15.91,23.24 15.91,23.39 16.06,23.39 16.21,23.39 16.21,23.54 16.06,23.54 
	16.06,23.69 16.06,23.84 16.21,23.84 16.35,23.84 16.5,23.84 16.65,23.84 16.65,23.98 16.5,24.13 16.35,24.13 16.35,24.28 
	16.5,24.28 16.65,24.28 16.65,24.13 16.8,24.28 16.94,24.28 17.09,24.28 17.09,24.43 17.09,24.57 17.24,24.57 17.24,24.43 
	17.39,24.43 17.54,24.43 17.68,24.43 17.83,24.43 17.83,24.57 17.98,24.57 18.13,24.57 18.13,24.72 18.27,24.72 18.42,24.57 
	18.57,24.57 18.72,24.57 18.86,24.57 19.01,24.57 19.16,24.57 19.31,24.43 19.46,24.43 19.6,24.43 19.75,24.43 19.9,24.43 
	20.05,24.43 20.19,24.43 20.19,24.57 20.34,24.57 20.49,24.57 20.64,24.57 20.78,24.57 20.93,24.57 21.08,24.43 21.23,24.43 
	21.23,24.57 21.08,24.57 21.08,24.43 21.08,24.57 20.93,24.57 21.08,24.57 21.08,24.72 21.23,24.72 21.38,24.72 21.52,24.72 
	21.67,24.72 21.82,24.57 21.97,24.72 22.11,24.72 22.11,24.87 22.11,25.02 22.26,25.02 22.26,25.16 22.41,25.16 22.56,25.16 
	22.7,25.16 22.56,25.31 22.7,25.31 22.85,25.31 22.85,25.46 23,25.46 23,25.61 23.15,25.61 23.15,25.76 23.3,25.76 23.3,25.9 
	23.44,25.9 23.44,26.05 23.44,26.2 23.59,26.2 23.74,26.35 23.89,26.35 24.03,26.35 24.03,26.49 24.03,26.35 24.18,26.35 
	24.18,26.2 24.03,26.2 24.03,26.05 24.18,26.05 24.33,26.05 24.48,26.05 24.62,26.05 24.77,26.05 24.77,26.2 24.62,26.2 
	24.77,26.35 24.92,26.35 25.07,26.35 25.07,26.49 25.07,26.64 25.07,26.79 25.22,26.79 25.22,26.64 25.36,26.64 25.51,26.64 
	25.66,26.79 25.66,26.94 25.66,27.08 25.81,27.23 25.81,27.38 25.95,27.53 25.95,27.68 26.1,27.68 26.25,27.68 26.25,27.82 
	26.4,27.82 26.4,27.97 26.54,27.97 26.54,28.12 26.54,28.27 26.54,28.41 26.54,28.56 26.69,28.71 26.84,28.86 26.99,29 26.99,29.15 
	27.14,29.3 27.14,29.45 27.14,29.6 26.99,29.74 26.99,29.89 26.69,29.89 26.54,30.04 26.54,30.19 26.54,30.33 26.4,30.33 
	26.25,30.33 26.25,30.48 26.4,30.48 26.54,30.63 26.69,30.63 26.84,30.63 26.99,30.63 26.99,30.92 26.99,31.07 26.99,31.22 
	26.99,31.37 26.99,31.52 27.14,31.52 27.43,32.11 27.43,32.25 27.58,32.25 27.58,32.4 27.58,32.7 27.73,32.84 27.87,32.84 
	28.02,32.84 28.17,32.99 28.17,33.14 28.17,33.29 28.02,33.29 28.02,33.44 27.87,33.44 27.73,33.44 27.58,33.58 27.43,33.73 
	27.43,33.88 27.14,34.03 27.14,34.17 27.14,34.32 27.28,34.47 27.43,34.62 27.58,34.62 27.73,34.76 27.87,34.76 28.02,34.76 
	28.32,34.62 28.46,34.32 28.76,34.17 28.76,34.03 28.91,33.88 29.2,33.58 29.35,33.44 29.5,33.29 29.5,33.14 29.65,32.99 
	29.65,32.84 29.65,32.7 29.79,32.7 29.94,32.55 30.09,32.55 30.09,32.4 30.09,32.25 30.24,32.11 30.38,32.11 30.38,31.96 
	30.38,31.81 30.24,31.81 30.24,31.66 30.09,31.66 30.09,31.52 29.94,31.37 29.79,31.22 29.79,31.07 29.79,30.92 29.65,30.78 
	29.79,30.78 29.94,30.78 30.09,30.48 30.24,30.48 30.38,30.48 30.38,30.19 30.38,30.04 30.53,29.89 30.53,29.74 30.68,29.74 
	30.68,29.6 30.68,29.45 30.68,29.3 30.83,29.3 30.83,29.15 30.98,29.15 30.98,29 31.12,29 31.12,28.86 31.12,28.71 31.27,28.56 
	31.27,28.41 31.42,28.41 31.57,28.41 31.57,28.56 31.86,28.56 32.01,28.56 32.01,28.41 32.01,28.27 32.01,28.12 32.01,27.97 
	32.01,27.82 32.01,27.68 32.01,27.53 32.16,27.53 32.16,27.68 32.3,27.68 32.3,27.53 32.45,27.53 32.45,27.38 32.6,27.38 
	32.6,27.23 32.6,27.08 32.6,26.94 32.6,26.79 32.75,26.64 32.9,26.49 32.9,26.35 33.04,26.2 33.04,26.05 33.04,25.9 33.19,25.9 
	33.34,26.05 33.49,26.05 33.63,26.05 33.63,25.9 33.63,25.76 33.63,25.61 33.63,25.46 33.49,25.46 33.34,25.31 33.34,25.16 
	33.49,25.16 33.49,25.02 33.63,25.02 33.63,24.87 33.49,24.72 33.49,24.57 33.49,24.43 33.63,24.43 33.63,24.28 33.78,24.28 
	33.78,24.13 33.78,23.98 33.78,23.84 33.78,23.69 33.63,23.69 33.49,23.69 33.34,23.69 33.34,23.54 33.34,23.39 33.19,23.39 
	33.19,23.24 33.19,23.1 33.19,22.95 33.19,22.8 33.19,22.65 33.19,22.51 33.34,22.51 33.49,22.36 33.49,22.21 33.63,22.21 
	33.63,22.06 33.63,21.92 33.78,21.77 33.78,21.62 33.78,21.47 33.63,21.47 33.63,21.33 33.49,21.33 33.63,21.33 33.63,21.18 
	33.63,21.03 33.63,20.88 33.78,20.88 33.78,20.73 33.93,20.73 33.93,20.59 33.78,20.44 33.93,20.44 33.93,20.29 33.78,20.29 
	33.78,20.14 33.93,20.14 34.08,20.14 34.08,20.29 34.22,20.29 34.22,20.14 34.08,20 34.22,20 34.37,20 34.37,19.85 34.37,19.7 
	34.52,19.7 34.37,19.55 34.37,19.41 34.52,19.41 34.52,19.26 34.52,19.11 34.37,19.11 34.37,18.96 34.52,18.96 34.67,18.96 
	34.67,18.81 34.82,18.67 34.96,18.67 35.11,18.52 35.26,18.52 35.26,18.37 35.26,18.22 35.41,18.22 35.41,18.08 35.41,17.93 
	35.41,17.78 35.55,17.78 35.7,17.78 35.85,17.63 35.85,17.49 35.7,17.34 35.7,17.19 35.7,17.04 35.7,16.89 35.7,16.6 35.7,16.45 
	35.7,16.3 35.55,16.16 35.55,16.01 35.55,15.86 35.41,15.86 35.55,15.86 35.55,15.71 35.55,15.42 35.55,15.27 35.41,15.27 
	35.41,15.12 35.41,14.97 35.55,14.83 35.7,14.68 35.7,14.53 35.55,14.53 35.41,14.53 35.41,14.38 35.26,14.38 35.11,14.38 
	35.11,14.24 35.26,14.09 35.41,13.94 35.26,13.79 35.11,13.79 34.96,13.79 34.82,13.79 34.67,13.79 34.67,13.65 34.82,13.65 
	34.96,13.5 34.96,13.35 34.96,13.2 35.11,13.2 35.26,13.2 35.41,13.2 35.41,13.35 35.55,13.35 35.7,13.2 35.7,13.05 35.55,13.05 
	35.41,13.05 35.41,12.91 35.55,12.91 35.55,12.76 35.7,12.76 35.7,12.61 35.7,12.46 35.85,12.46 36,12.46 36.14,12.46 36.14,12.32 
	36.29,12.32 36.14,12.32 36.29,12.32 36.29,12.17 36.29,12.02 36.44,12.02 36.44,12.17 36.59,12.17 36.59,12.02 36.74,12.02 
	36.88,12.02 37.03,11.87 37.18,11.87 37.18,11.73 37.03,11.73 37.03,11.58 36.88,11.43 37.03,11.43 37.03,11.28 37.18,11.28 
	37.18,11.13 37.33,11.13 37.33,10.99 37.18,10.99 37.18,10.84 37.33,10.69 37.47,10.69 37.62,10.69 37.62,10.54 37.77,10.54 
	37.92,10.69 37.92,10.54 37.92,10.4 38.06,10.25 38.06,10.1 38.06,9.95 37.92,9.95 37.92,9.81 38.06,9.81 38.21,9.81 38.36,9.81 
	38.51,9.81 38.66,9.95 38.8,9.95 38.95,9.95 38.95,9.81 38.95,9.66 39.1,9.66 39.1,9.51 39.1,9.36 39.25,9.36 39.39,9.36 
	39.39,9.51 39.54,9.51 39.54,9.36 39.69,9.36 39.84,9.36 39.84,9.51 39.98,9.51 40.13,9.51 40.13,9.36 40.13,9.51 40.28,9.51 
	40.28,9.36 40.28,9.21 40.43,9.21 40.43,9.07 40.43,8.92 40.28,8.92 40.28,8.77 40.43,8.77 40.43,8.62 40.58,8.62 40.72,8.62 
	40.72,8.77 40.87,8.77 41.02,8.77 41.17,8.77 41.17,8.92 41.31,9.07 41.31,9.21 41.46,9.21 41.61,9.21 41.76,9.21 41.76,9.07 
	41.9,9.07 42.05,9.07 42.2,9.07 42.35,9.07 42.35,8.92 42.35,8.77 42.5,8.77 42.5,8.92 42.5,9.07 42.35,9.07 42.5,9.07 42.35,9.07 
	42.5,9.07 42.5,9.21 42.64,9.21 42.64,9.07 42.64,8.92 42.79,8.92 42.79,8.77 42.94,8.77 42.94,8.92 43.09,8.92 43.09,9.07 
	43.23,9.07 43.23,9.21 43.09,9.21 43.23,9.21 43.38,9.21 43.53,9.21 43.68,9.21 43.68,9.36 43.82,9.36 43.97,9.36 43.97,9.51 
	43.97,9.66 44.12,9.81 44.12,9.95 44.27,9.95 44.27,10.1 44.42,10.1 44.42,10.25 44.56,10.25 44.42,10.4 44.56,10.4 44.56,10.54 
	44.71,10.54 44.56,10.54 44.56,10.69 44.71,10.69 44.71,10.84 44.86,10.69 45.01,10.69 45.01,10.84 45.01,10.99 45.15,10.99 
	45.3,11.13 45.45,11.13 45.45,11.28 45.45,11.43 45.6,11.58 45.45,11.73 45.6,11.73 45.6,11.87 45.6,12.02 45.6,12.17 45.6,12.32 
	45.74,12.32 45.74,12.46 45.89,12.46 46.04,12.61 46.19,12.61 46.34,12.76 46.48,12.76 46.48,12.91 46.63,13.05 46.78,13.2 
	46.78,13.35 46.78,13.5 46.63,13.65 46.63,13.79 46.63,13.94 46.63,14.09 46.63,14.38 46.48,14.53 46.48,14.83 46.34,14.97 
	46.34,15.12 46.34,15.27 46.48,15.42 46.63,15.42 46.78,15.42 46.93,15.42 47.07,15.42 47.22,15.57 47.37,15.57 "/>
</svg>
