<?xml version="1.0" encoding="utf-8"?>
<!-- Generator: Adobe Illustrator 24.2.1, SVG Export Plug-In . SVG Version: 6.00 Build 0)  -->
<svg version="1.1" id="Layer_1" xmlns="http://www.w3.org/2000/svg" xmlns:xlink="http://www.w3.org/1999/xlink" x="0px" y="0px"
	 viewBox="0 0 97.23 97.23" style="enable-background:new 0 0 97.23 97.23;" xml:space="preserve">
<style type="text/css">
	.st0{fill-rule:evenodd;clip-rule:evenodd;}
</style>
<path class="st0" d="M39.82,82.95h-0.11v0.11v0.11h0.11v-0.11V82.95L39.82,82.95z M44,42.63h-0.11v0.11H44V42.63L44,42.63z
	 M62.63,0.96V0.85h0.11h0.11v0.11h0.11l0.11,0.11v0.11V1.3v0.11l0.11,0.11l0.11,0.11l0.11,0.11v0.11v0.11v0.11V2.2h0.11v0.11
	l0.11,0.11v0.11l-0.11,0.11v0.11v0.11h0.11v0.11v0.11h0.11l0.11,0.11v0.11h0.11v0.11h0.11h0.11h0.11h0.11v0.11h0.11h0.11h0.11h0.11
	h0.11v0.11h0.11v0.11h0.11h0.11V3.9h0.11h0.11v0.11h0.11V3.9h0.11v0.11h0.11h0.11v0.11h0.11v0.11v0.11h0.11h0.11v0.11v0.11h0.11
	v0.11V4.8h0.11v0.11h0.11h0.11v0.11h0.11h0.11h0.11h0.11v0.11l0.11-0.11v0.11h0.11v0.11h0.11v0.11h0.11v0.11h0.11h0.11l0.11,0.11
	h0.11V5.7h0.11l0.11,0.11h0.11v0.11v0.11h0.11v0.11v0.11v0.11h0.11v0.11v0.11v0.11l0.11-0.11v0.11v0.11v0.11v0.11h0.11v0.11h0.11
	v0.11V7.4h0.11h0.11v0.11h0.11h0.11v0.11h0.11h0.11v0.11v0.11h0.11h0.11h0.11v0.11v0.11v0.11h0.11V8.3h0.11h0.11v0.11v0.11h-0.11
	H70.2v0.11h-0.11v0.11h-0.11v0.11h-0.11v0.11h-0.11h-0.11v0.11V9.2h-0.11h-0.11v0.11H69.3v0.11v0.11v0.11v0.11h0.11l0.11,0.11v0.11
	h0.11v0.11h0.11h0.11h0.11v0.11v0.11h0.11v0.11h0.11v0.11h0.11v0.11v0.11v0.11H70.2v0.11v0.11v0.11v0.11v0.11h-0.11v0.11h-0.11
	h-0.11v0.11v0.11v0.11v0.11h-0.11h-0.11v0.11v0.11h0.11v0.11v0.11v0.11v0.11h0.11v0.11v0.11v0.11v0.11v0.11v0.11v0.11h-0.11v0.11
	v0.11h0.11v0.11v0.11h0.11v0.11h0.11v0.11v0.11h0.11v0.11h0.11h0.11v0.11h-0.11v0.11h0.11v0.11h0.11v0.11v0.11v0.11h-0.11v0.11v0.11
	l0.11,0.11h0.11v0.11v0.11h0.11v-0.11h0.11h0.11v-0.11h0.11V15.3l0.11-0.11h0.11v-0.11h0.11h0.11v0.11h0.11h0.11h0.11l-0.11-0.11
	v-0.11h0.11l0.11-0.11h0.11h0.11v-0.11v-0.11h0.11v-0.11V14.4h0.11h0.11v-0.11h0.11h0.11h0.11h0.11l0.11,0.11h0.11l0.11,0.11V14.4
	h0.11v-0.11h0.11v0.11h0.11v-0.11h0.11v0.11h0.11v0.11h-0.11v0.11h0.11v0.11v0.11h0.11h0.11h0.11v-0.11h0.11h0.11v0.11v0.11h0.11
	v0.11h0.11l-0.11,0.11h0.11h0.11l-0.11,0.11v0.11h0.11l0.11,0.11h0.11h0.11v0.11h0.11l0.11,0.23h0.11v0.11v0.11v0.11l0.11,0.11
	l0.11,0.11l0.11,0.11l0.11,0.11h0.11v0.11h0.11l0.11,0.11V17v0.11v0.11h0.11l0.11,0.11h0.11h0.11h0.11h0.11l0.11-0.11h0.11
	l0.11-0.11V17h0.11l0.11,0.11h0.11h0.11h0.11h0.11h0.11L78.22,17h0.23l0.11-0.11h0.11V17h0.11h0.11v-0.11h0.11v-0.11h0.11h0.11h0.11
	v-0.11l0.11-0.11h0.11l0.11-0.11h0.11h0.11h0.11h0.11h0.11h0.11l0.11-0.23l0.11-0.11v-0.11h0.11v-0.11h0.23l0.11-0.11h0.11h0.11
	v-0.11h0.11h0.11v-0.11h0.11v-0.11V15.3v-0.45v-0.11h0.11v0.11l0.11,0.11h0.11v0.11h0.11v0.11h0.11h0.11l0.11-0.11v-0.11l0.11-0.11
	v-0.11l0.11,0.11l0.23-0.11h0.11h0.11l0.11-0.11h0.11l0.11-0.11h0.11V14.4l0.11-0.11v-0.11h0.11h0.11l0.11-0.11v-0.11l0.11-0.11
	l0.11-0.11h0.11h0.11h0.11h0.11l0.11-0.11l0.11,0.11H85h0.11h0.11v-0.11l0.11-0.11l0.11,0.11l0.11-0.11h0.11v-0.11h0.11v-0.11
	l0.11-0.11l0.11-0.11l0.11-0.11l0.11-0.11h0.11v-0.11h0.11h0.11l0.11,0.11h0.11l0.11,0.11h0.11l0.11-0.11v-0.11l0.11-0.11v-0.11
	h0.11v-0.11h0.11l0.11-0.11l0.11-0.11v-0.11h0.11h0.11h0.11v-0.11h0.11h0.11l-0.11,0.11h0.11h0.11h0.11v0.11h0.11v0.11h0.11v0.11
	h0.11h0.11h0.11v0.11h0.11h0.11v0.11h0.11v0.11h0.11v0.11h0.11v0.11h-0.11v0.11h0.11v0.11v0.11h-0.11v0.11v0.11H89.4v0.11v0.11h0.11
	v0.11h0.11v0.11h-0.11v0.11H89.4v0.11v0.11v0.11h0.11v0.11v0.11v0.11H89.4v0.11h-0.11h-0.11v0.11h-0.11v0.11v0.11v0.11h-0.11v0.11
	v0.11h0.11v0.11h0.11v0.11v0.11h-0.11v0.11h-0.11h-0.11v0.11h-0.11h-0.11v0.11v0.11l0.11,0.11v0.11h-0.11v-0.11H88.5v0.11v0.11
	h-0.11v0.11v0.11h0.11V17l0.11,0.11h0.11v0.11v0.11h-0.11v0.11v0.11v0.11h0.11v0.11h0.11h0.11v0.11l0.11,0.11v0.11h0.11h0.11h0.11
	v-0.11h0.11v0.11h0.11h0.11h0.11v-0.11h0.11V17.9h0.11v-0.11h0.11v-0.11h0.11v-0.11h0.11v-0.11h0.11h0.11v-0.11v-0.11v-0.11V17h0.11
	v-0.11v-0.11v-0.23v-0.11v-0.11v-0.23v-0.11l-0.11-0.23v-0.11v-0.23l-0.11-0.11v-0.23v-0.23h-0.11v-0.11h0.11h0.11l0.11,0.11h0.11
	h0.11v0.11h0.11h0.11h0.11h0.11h0.11h0.11l0.11,0.11h0.11H92l0.11-0.11h0.11v0.11h0.11h0.11h0.11h0.11h0.11h0.11l0.11,0.11
	L92.9,15.3v0.11l-0.11,0.11v0.11l-0.11,0.11v0.11v0.11l0.11,0.11v0.11v0.11h0.11h0.11l0.11,0.11h0.11v0.11v0.11v0.11v0.11V17v0.11
	v0.11v0.11v0.11v0.11h0.11h0.11v0.11l0.11,0.11v0.11v0.11v0.11v0.11v0.11l-0.11,0.11v0.11h0.11v0.11v0.11v0.11h-0.11v0.11h-0.11
	v0.11v0.11v0.11h0.11v0.11v0.11h-0.11v0.11h0.11v0.11v0.11v0.11v0.11h-0.11v0.11h-0.11h-0.11v0.11v0.11h-0.11v0.11v0.11v0.11H92.9
	v0.11v0.11v0.11v0.11h-0.11h-0.11v0.11h-0.11v0.11h-0.11v0.11h-0.11v0.11h-0.11h-0.11H92v0.11h-0.11h-0.11v0.11h-0.11v-0.11v-0.11
	l-0.11,0.11v0.11v0.11v0.11h-0.11v0.11h-0.11v0.11v0.11v0.11h0.11v0.11v0.11h-0.11v0.11h0.11h0.11v0.11v0.11h0.11h0.11v0.11
	l0.11,0.11v-0.11H92v0.11v0.11v0.11h0.11v0.11v0.11V24H92v0.11v0.11v0.11v0.11v0.11h-0.11v0.11h-0.11v0.11h-0.11h-0.11v0.11h-0.11
	v0.11h0.11v0.11v0.11v0.11v0.11h-0.11v0.11v0.11h-0.11v0.11v0.11v0.11h0.11v0.11v0.11h0.11v0.11v0.11v0.11v0.11h0.11v0.11h0.11h0.11
	v0.11L92,27.05v0.11v0.11v0.11h0.11h0.11v0.11v0.11v0.11v0.11l-0.11,0.11H92v0.11l-0.11,0.11v0.11l-0.11,0.11v0.11v0.11h-0.11v0.11
	h0.11v0.11h0.11v0.11h-0.11v0.11v0.11v0.11h0.11v0.11v0.11v0.11v0.11h-0.11h-0.11l0.11,0.11h-0.11v0.11h0.11v0.11v0.11v0.11v0.11
	v0.11v0.11v0.11v0.11V31h0.11l-0.11,0.11v0.11h0.11L92,31.34v0.11v0.11h-0.11v0.11v0.11v0.11h-0.11h-0.11v0.11v0.11h-0.11v0.11
	h-0.11v0.11h-0.11h-0.11v0.11H91.1v0.11h-0.11h-0.11h-0.11h-0.11v0.11h-0.11h-0.11v0.11h-0.11h-0.11h-0.11v0.11h-0.11v0.11h-0.11
	v0.11v0.11v0.11h0.11v0.11h-0.11v0.11v0.11v0.11h0.11v0.11h-0.11v0.11h-0.11v0.11v0.11h0.11v0.11h-0.11v0.11h0.11v0.11h-0.11v0.11
	v0.11v0.11h-0.11h-0.11v0.11v0.11H89.4v0.11h-0.11v0.11h-0.11v0.11h-0.11h-0.11v0.11v0.11v0.11h-0.11v0.11v0.11v0.11h-0.11v0.11
	v0.11v0.11v0.11h-0.11v0.11v0.11H88.5h-0.11v0.11h-0.11v0.11v0.11h-0.11h-0.11h-0.11v0.11h-0.11v0.11v0.11h0.11v0.11v0.11h-0.11
	v0.11V38v0.11h-0.11v0.11h-0.11v0.11l-0.11,0.11h-0.11h-0.11h-0.11v0.11v0.11h-0.11v0.11h-0.11v0.11H86.8v0.11h-0.11h-0.11h-0.11
	h-0.11v0.11v0.11h-0.11v0.11h-0.11v-0.11h-0.11H85.9v0.11v0.11h-0.11h-0.11h-0.11h-0.11h-0.11v0.11h-0.11v0.11h-0.11v0.11v0.11H85
	h-0.11v-0.11h-0.11V39.7v-0.11v-0.11h-0.11v-0.11v-0.11v-0.11h-0.11v0.11h-0.11h-0.11v0.11v0.11v0.11v0.11h-0.11h-0.11v0.11h-0.11
	v0.11v0.11h-0.11v0.11v0.11h-0.11v0.11l-0.11,0.11v0.11h0.11v0.11v0.11h-0.11v0.11l-0.11,0.11h-0.11H83.3v0.11h-0.11h-0.11v0.11
	h-0.11v0.11h-0.11v0.11h-0.11v-0.11h-0.11h-0.11v0.11H82.4v0.11h-0.11h-0.11h-0.11l-0.11,0.11h-0.11h-0.11h-0.11H81.5h-0.11h-0.11
	l-0.11,0.11l-0.11,0.11l-0.11,0.11h-0.11h-0.11l-0.11,0.11h-0.11l-0.11,0.11h-0.23v0.11h-0.11h-0.11l-0.11,0.11h-0.11h-0.11h-0.11
	h-0.11v0.11v0.11h0.11v0.11h0.11v0.11h0.11v0.11v0.11h0.11v0.11l0.11,0.11v0.11h0.11v0.11v0.11v0.11v0.11h0.11h0.11h0.11h0.11v0.11
	l0.11,0.11v0.11h0.11v-0.11h0.11v0.11v0.11h-0.11v0.11h-0.11h-0.11l-0.11-0.11h-0.23l-0.23-0.11H79.8l-0.11,0.11h0.11v0.11v0.11
	l-0.11,0.11v0.11h-0.11l-0.11,0.11h0.11h0.11v0.11l-0.11,0.11l-0.11,0.11h-0.11h-0.11h-0.11h-0.11v0.11l0.11,0.11v0.11h-0.11v0.11
	h0.11h0.11h0.11h0.11h0.11h0.11v0.11v0.11v0.11h-0.11v-0.11h-0.11v0.11v0.11h-0.11v0.11v0.11v0.11v0.11h-0.11l-0.11-0.11h-0.11
	L78.9,46.7l-0.11-0.11l0.11-0.11h-0.11h-0.11v0.11v0.11v0.11v0.11h-0.11l-0.11-0.11V46.7l-0.11,0.11h0.11v0.11h-0.11v0.11v0.11v0.11
	h0.11v0.11l0.11,0.11h-0.11h-0.11h-0.11h-0.11h-0.11l-0.11-0.11h-0.11v-0.11l-0.11,0.11l-0.11,0.11h-0.11v0.11v0.11v0.11h0.11h0.11
	v0.11v0.11h0.11h0.11v0.11v0.11h-0.11h-0.11v-0.11h-0.11v0.11h-0.11h-0.11v-0.11v-0.11H77.2v0.11l-0.11,0.11v0.11v0.11h-0.11h-0.11
	h-0.11h-0.11v0.11h-0.11v0.11v0.11v0.11h0.11v0.11v0.11h0.11v0.11v0.11h-0.11h-0.11h-0.11H76.3h-0.11h-0.11l-0.11-0.11v0.11v0.11
	l-0.11,0.11v0.11h0.11l0.11,0.11v0.11v0.11h-0.11v0.11v0.11v0.11l-0.11,0.11v0.11h0.11v0.11v0.11v0.11v0.11h-0.11v0.11v0.11h0.11
	l-0.11,0.11v0.11v0.11h-0.11h-0.11v0.11h-0.11v0.11H75.4v0.11h-0.11h-0.11v0.11h-0.11v0.11h-0.11h-0.11v0.11h-0.11v0.11h-0.11
	l-0.11,0.11h-0.11l-0.11,0.11l-0.11,0.11v0.11v0.11h-0.11v0.11v0.11l-0.11,0.11l-0.11,0.11H73.7l-0.11,0.11l-0.11,0.11l-0.23,0.11
	l-0.11,0.11v0.11l-0.11,0.11l-0.11,0.11v0.11l-0.11,0.11v0.11v0.11v0.11v0.11v0.11v0.11l0.11,0.11v0.11v0.11h0.11v0.11v0.11v0.11
	v0.11l-0.11,0.11l-0.11,0.11v0.11v0.11v0.23v0.11v0.11v0.11v0.11l0.11,0.11l0.11,0.11v0.11l0.11,0.23v0.11v0.11v0.11h-0.11h-0.11
	v0.11v0.11H72.8v0.11v0.11h-0.11v0.11h0.11v0.11v0.11l0.11,0.11l0.11,0.11v0.11v0.11h0.11v0.11h-0.11v0.11v0.11l-0.11,0.11v0.11
	v0.11l0.11,0.11v0.11v0.11v0.11v0.11v0.11h0.11v0.11l0.11,0.11v0.23l0.11,0.11h0.11v0.11l0.11,0.11h0.11v0.11v0.11v0.11v0.11v0.11
	v0.11v0.11h-0.11v0.11h-0.11l-0.11,0.11h-0.11v0.11h-0.11l-0.11,0.11v0.11h-0.11v0.11v0.11h0.11v0.11l0.11,0.11v0.11h0.11v0.23
	l0.11,0.11v0.11l0.11,0.11v0.11h0.11v0.11h0.11l0.11,0.11h0.11h0.11h0.11l0.11,0.11v-0.11h0.11v0.11v0.11v0.11v0.11v0.11h-0.11v0.11
	L74.15,65v0.11v0.11v0.11l-0.11,0.11v0.11l-0.11,0.11v0.11v0.11v0.11v0.11l0.11,0.11v0.11h-0.11l-0.11,0.11H73.7v0.11v0.11v0.11
	v0.11v0.11v0.11l-0.11,0.11h-0.11v0.11h-0.11v0.11h-0.11v0.11v0.11v0.11v0.11h0.11v0.11l0.11,0.11l0.11,0.11h0.11l0.11,0.11h0.11
	v0.11h0.11v0.11l0.11,0.11v0.11v0.11h-0.11l-0.11,0.11h-0.11v0.11v0.11v0.11v0.11v0.11v0.11h0.11l0.11,0.11h0.11l0.11-0.11h0.11
	h0.11h0.11l0.11,0.11h0.11v0.11l0.11,0.11l0.11,0.11h0.11h0.11l0.11,0.11h0.11l0.11,0.11h0.11l0.11,0.11h0.11v0.11h0.11l0.11,0.11
	v0.11l-0.11,0.11h-0.11v0.11l-0.11,0.11l-0.11,0.11v0.11h-0.11v0.11h0.11v0.11h-0.11l0.11,0.11h0.11v0.11V72h0.11l0.11,0.11h0.11
	v0.11h0.11h0.11v0.11h0.11l0.11,0.11v0.11l0.11,0.23v0.23l0.11,0.11v0.11v0.11h0.11v0.11l-0.11,0.11v0.11v0.11v0.11v0.11v0.11h-0.11
	v0.11v0.11v0.11h0.11v0.11l-0.11,0.11v0.11h-0.11v0.11h-0.11v0.11h-0.11v0.11H76.3l0.11,0.11v0.11v0.11v0.11h0.11v0.11l-0.11,0.11
	v0.11v0.11H76.3v0.11h-0.11v0.11h-0.11v0.11v0.11v0.11v0.11v0.11h0.11l-0.11,0.11h0.11v0.11l0.11,0.11h0.11h0.11v0.11v0.11h-0.11
	v0.11h0.11v0.11h-0.11v0.11h0.11v0.11h0.11v0.11h0.11l-0.11,0.11l0.11,0.11v0.11h0.11v0.11v0.11v0.11h0.11v0.11v0.11h0.11V79v0.11
	v0.11h0.11l0.11,0.11v0.11h0.11v0.11h0.11l0.11,0.11v0.11v0.11h0.11v0.11h0.11h0.11h0.11l0.11,0.11v0.11v0.11h0.11v0.11v0.11v0.11
	v0.11v0.11v0.11h0.11v0.11v0.11v0.11v0.11v0.11h0.11l0.11,0.11h0.11v0.11v0.11v0.11v0.11h-0.11h-0.11h-0.11l-0.11,0.11v0.11v0.11
	v0.23v0.23h0.11v0.11h-0.11h-0.11v0.11v0.11h-0.11v0.11h0.11h0.11v0.11h-0.11v0.11v0.11h-0.11v0.11v0.11v0.11h0.11h0.11v0.11h0.11
	v0.11h0.11v0.11v0.11h0.11h0.11v0.11v0.11v0.11h0.11v0.11v0.11v0.11h-0.11v0.11h0.11v0.11v0.11h-0.11h-0.11l0.11,0.11v0.11v0.11
	L78.11,86l-0.79,0.23h-0.23l-0.45,0.23l-0.11,0.11l-0.11,0.11l-0.56,0.56l-0.34,0.34v0.11l-0.11,0.11v1.02v0.11v0.23v0.11
	l-0.11,0.11v0.11v0.11v0.23v0.23h0.11v0.56l0.11,0.79l0.11,0.68v0.23v0.23l0.11,0.11v0.11l-0.11,0.11v0.11v0.23l-0.11,0.23v0.11
	L75.4,93.8v0.11v0.23l-0.11,0.11v0.11l-0.11,0.34l-0.11,0.34v0.11v0.11l-0.11,0.11v0.11l-0.11,0.11h-0.11l-0.23,0.11l-0.11,0.11
	l-0.34,0.11l-0.23,0.11l-0.34,0.11l-0.23,0.11l-0.23,0.11l-0.11,0.11H72.8h-0.11l-0.23,0.11h-0.11h-0.11l-0.11,0.11H71.9h-0.11
	h-0.11h-0.11h-0.11H71.1v0.11h-0.11v-0.11h-0.11l-0.11-0.11h-0.11h-0.11v-0.11h-0.11l-0.11-0.11h-0.23l-0.11-0.11l-0.11-0.11h-0.23
	l-0.11-0.11h-0.11l-0.11-0.11v-0.11v-0.11h-0.11V95.6h-0.11h-0.11h-0.11v-0.11v-0.11h-0.11v0.11h-0.11v-0.11h-0.11h-0.11v0.11h-0.11
	h-0.11v-0.11h-0.11v-0.11h-0.11v-0.11h-0.11v-0.11l-0.11-0.11H67.6h-0.11v-0.11l-0.11,0.11h-0.11v-0.11h0.11V94.7v-0.11h-0.11v-0.11
	v-0.11h-0.11h-0.11h-0.11h-0.11v0.11h-0.23l-0.11,0.11h-0.11v-0.11l-0.11,0.11v-0.11h-0.11v0.11v0.11h-0.11h-0.11v-0.11H65.8h-0.11
	h-0.11h-0.11h-0.11h-0.11v-0.11v-0.11v-0.11h-0.11v-0.11h0.11v-0.11h-0.11v-0.11h-0.11h-0.11V93.8v-0.11h-0.11v-0.11v-0.11v-0.11
	h-0.11h-0.11v-0.11v-0.11h-0.11h-0.11h-0.11v-0.11v-0.11l-0.11-0.11v-0.11h-0.11h-0.11v-0.11h-0.11v-0.11h-0.11v-0.11h-0.11v-0.11
	V92.1h-0.11l0.11-0.11h0.11h0.11v-0.11h-0.11v-0.11v-0.11h-0.11v-0.11h0.11h0.11v-0.11h0.11v-0.11V91.2h0.11h0.11v-0.11l-0.11-0.11
	v-0.11h-0.11v-0.11h-0.11h-0.11v0.11h-0.11h-0.11v-0.11h-0.11H63.2l-0.11-0.11v-0.11h-0.11v0.11h-0.11h-0.11v0.11h-0.11v0.11h-0.11
	v0.11h-0.11v0.11v0.11v0.11H62.3h-0.11v0.11h-0.11h-0.11h-0.11h-0.11v-0.11h-0.11H61.5h-0.11h-0.11v0.11h-0.11l-0.11,0.11h-0.11
	v-0.11h-0.11v0.11h-0.11v-0.11H60.6h-0.11h-0.11h-0.11v0.11h-0.11v-0.11v-0.11h-0.11h-0.11h-0.11V91.2H59.7h-0.11v-0.11h-0.11h-0.11
	h-0.11v-0.11h-0.11v-0.11l-0.11,0.11v-0.11h-0.11h-0.11v-0.11h-0.11h-0.11v-0.11h-0.11v0.11h-0.11h-0.11v0.11h-0.11H58v0.11h-0.11
	v0.11v0.11h-0.11v0.11v0.11h-0.11v0.11v0.11v0.11h-0.11v-0.11h-0.11v0.11h-0.11v0.11h-0.11H57.1h-0.11h-0.11v0.11h-0.11v0.11h-0.11
	h-0.11v-0.11h-0.11h-0.11v-0.11H56.2v0.11h-0.11h-0.11h-0.11v0.11h-0.11h-0.11h-0.11h-0.11v0.11l-0.11-0.11h-0.11h-0.11h-0.23h-0.11
	h-0.11H54.5v-0.11l-0.11-0.11l-0.11-0.11h-0.11l-0.11,0.11h-0.11h-0.11h-0.11H53.6h-0.11v-0.11v-0.11l-0.11-0.11h-0.11h-0.11h-0.23
	l-0.11-0.11h-0.11v-0.11l-0.11-0.11l-0.11-0.11l-0.11-0.11v-0.11h-0.11h-0.11h-0.11H51.9l-0.45,0.11h-0.23h-0.11v0.11H51l-0.45,0.34
	h-0.11l-0.11,0.11h-0.11H50.1h-0.23h-0.11h-0.11h-0.23h-0.11h-0.11h-0.11h-0.11h-0.11h-0.23h-0.11H48.4l-0.11,0.11h-0.11l-0.11,0.11
	l-0.11,0.11v0.11l-0.11,0.11h-0.11v0.11h-0.11v0.11H47.5h-0.11l-0.11,0.11h-0.11h-0.11l-0.11,0.11h-0.11l-0.11,0.11v0.11v0.11H46.6
	v0.11h-0.11h-0.11h-0.11h-0.11h-0.11h-0.11h-0.11h-0.11v-0.11h-0.11v-0.11h-0.11h-0.11v-0.11h-0.11v-0.11v-0.11h-0.11v-0.11v-0.11
	V92.1h-0.11H44.9v-0.11v-0.11h-0.11v-0.11h-0.11v-0.11h-0.11v-0.11h-0.11v-0.11h-0.11v-0.11h-0.11V91.2v-0.11h-0.11H44v-0.11h-0.11
	l-0.11-0.11l-0.11-0.11v-0.11h-0.11h-0.11h-0.11v0.11h-0.11l-0.11-0.11h-0.11h-0.11v0.11h-0.11v0.11h-0.11v-0.11l-0.11,0.11v-0.11
	l-0.11-0.11v-0.11H42.3v-0.11V90.3v-0.11v-0.11v-0.11v-0.11h0.11v-0.11H42.3l0.11-0.11V89.5h0.11v-0.11v-0.11v-0.11v-0.11h-0.11
	v-0.11v-0.11h0.11h0.11v-0.11V88.6v-0.11v-0.11h-0.11v-0.11h-0.11H42.3h-0.11v-0.11v-0.11h-0.11h-0.11v-0.11h-0.11h-0.11l-0.11-0.11
	l-0.11-0.23l-0.23-0.23v-0.11l-0.56-0.56l-0.11-0.11H40.5v-0.11h-0.11v-0.11h-0.11v-0.11v-0.11V86h0.11v-0.11h-0.11v-0.11h-0.11
	v-0.11h0.11h0.11v-0.11v-0.11l-0.11-0.11l-0.11-0.11V85.1h0.11v-0.11h-0.11v-0.11v-0.11v-0.11l-0.11-0.11v-0.11h-0.11v0.11h-0.11
	v-0.11h0.11v-0.11h0.11V84.2v-0.11v-0.11v-0.11h-0.11v-0.11v-0.11v-0.11v-0.11h-0.11v0.11h-0.11v-0.11v-0.11h-0.11v-0.11h-0.11
	v-0.11h0.11v-0.11v-0.11h0.11v-0.11v-0.11h0.11V82.5h0.11l-0.11-0.11l-0.11-0.11h0.11v-0.11v-0.11v-0.11v-0.11h0.11h0.11h0.11v-0.11
	h-0.11V81.6h0.11h0.11l0.11-0.11h0.11h0.11h0.11l0.11-0.11h0.11v-0.11h-0.11v-0.11v-0.11l0.11-0.11h0.11h0.11v-0.11h0.11l-0.11-0.11
	v-0.11v-0.11h0.11l0.11-0.11v-0.11h0.11v-0.11v-0.11l0.11-0.11v-0.11v-0.11v-0.11h0.11h0.11v-0.11v-0.11v-0.11v-0.11V79l0.11,0.11
	V79v-0.11l0.11-0.11l0.11-0.11v-0.11v-0.11v-0.11h0.11v-0.11V78.1v-0.11h-0.11v-0.11h0.11v-0.11h0.11v-0.11H42.3h-0.11h-0.11v0.11
	h-0.11v-0.11v-0.11l0.11-0.11h0.11h0.11h0.11h0.11v-0.11h-0.11v-0.11l0.11-0.11h0.11v-0.11v-0.11l0.11-0.11h-0.11v-0.11l0.11-0.11
	V76.4h0.11v0.11v0.11l0.11-0.11l0.11,0.11l0.11-0.11h-0.11V76.4h-0.11h-0.11v-0.11h0.11h0.11v-0.11v-0.11h-0.11h-0.11v-0.11v-0.11
	h0.11v-0.11h-0.11l-0.11,0.11v0.11h-0.11v-0.11v-0.11v-0.11V75.5v-0.11h0.11v-0.11h0.11v-0.11h0.11v-0.11v-0.11v-0.11v-0.11V74.6
	h0.11h0.11l0.11-0.11h0.11h0.11v-0.11v-0.11h0.11v0.11h0.11v-0.11v-0.11h-0.11v-0.11v-0.11h0.11v-0.11v-0.11h-0.11v-0.11h0.11v-0.11
	h0.11v-0.11h-0.11v0.11h-0.11v-0.11v-0.11h0.11v-0.11h-0.11v0.11h-0.11v0.11h-0.11h-0.11h-0.11l0.11-0.11h-0.11v-0.11h-0.11v0.11
	h-0.11v-0.11h-0.11v-0.11V72.9v-0.11h-0.11v-0.11v-0.11h-0.11v0.11v0.11v0.11h-0.11v-0.11h-0.11v0.11H42.3v-0.11h-0.11v0.11
	l-0.11-0.11h0.11v-0.11h-0.11h-0.11v-0.11h-0.11v-0.11h-0.11v-0.11l-0.11,0.11v-0.11v-0.11v-0.11V72h0.11v-0.11h-0.11v-0.11h0.11
	v-0.11h-0.11v-0.11h-0.11v-0.11h0.11v-0.11h-0.11v-0.11V71.1H41.4h-0.11v-0.11h-0.11v-0.11h-0.11v-0.11h0.11v-0.11h-0.11v0.11h-0.11
	v-0.11h-0.11v-0.11h-0.11h-0.11v0.11v0.11H40.5h-0.11l-0.11,0.11l-0.11,0.11h-0.11v0.11l-0.11-0.11v-0.11h-0.11v-0.11h-0.11v-0.11
	h-0.11h-0.11v-0.11h-0.11h-0.11v-0.11h-0.11V70.3h-0.11h-0.11l-0.11,0.11h-0.11l-0.11,0.11h-0.11v-0.11V70.3h-0.11l-0.11-0.11v-0.11
	l-0.11-0.11v-0.11v-0.11h-0.11v-0.11H37.9v-0.11V69.4h-0.11v-0.11h-0.11l-0.11-0.11l-0.11-0.11h0.11v-0.11h-0.11v-0.11v-0.11
	l-0.11-0.11l0.11-0.11h-0.11h-0.11h-0.11v-0.11L37,68.16v-0.11v-0.11h0.11v-0.11l0.11-0.11v-0.11v-0.11v-0.11h0.11v-0.11l0.11-0.11
	l0.11-0.11l0.11-0.11l0.11-0.11v-0.11h0.11l0.11-0.11l0.11-0.11h0.11v-0.11l0.11-0.11h0.11v-0.11l0.11-0.11l0.11-0.11l0.11-0.11
	h0.11v-0.11l0.11-0.11l0.11-0.11h0.11v-0.11v-0.11h0.11v-0.11L39.48,65h0.11v-0.11l0.11-0.11l0.11-0.11v-0.11h0.11v-0.11l0.11-0.11
	l0.11-0.23l0.11-0.11l0.11-0.11v-0.11l0.34-0.45v-0.11l0.11-0.11v-0.11v-0.11l0.11-0.11v-0.11l0.11-0.11V62.4l0.11-0.11l0.11-0.23
	h0.11v-0.11l0.11-0.11v-0.11l0.11-0.11V61.5l0.11-0.11l0.11-0.11l0.11-0.11l0.11-0.23v-0.11l0.11-0.11v-0.11h0.11l0.34-0.45
	l0.11-0.11l0.34-0.45v-0.11l0.11-0.11l0.11-0.11v-0.11l0.11-0.11h0.11V58.9l0.11-0.11v-0.11l0.11-0.23l0.11-0.11L44,58.22l0.11-0.11
	v-0.11v-0.11l0.11-0.11l0.11-0.11v-0.11l0.11-0.11v-0.11V57.2l0.11-0.11l0.11-0.11l0.11-0.11v-0.11l0.11-0.11h0.11l0.11-0.11h0.11
	l0.11-0.11V56.3v-0.11v-0.11l-0.11-0.11v-0.11v-0.11v-0.23l-0.11-0.11v-0.11v-0.23l0.11-0.11v-0.11v-0.11v-0.11l0.11-0.11v-0.11
	v-0.11l0.11-0.11v-0.11v-0.11v-0.11V53.7l0.11-0.11v-0.23v-0.11l0.11-0.11v-0.11v-0.11h0.11V52.8v-0.11v-0.11h0.11v-0.11l0.11-0.11
	v-0.11h0.11v-0.11v-0.11l0.11-0.11v-0.11l0.11-0.11v-0.11h0.11v-0.11h0.11l0.11-0.11v-0.11l0.11-0.11h-0.11v-0.11l-0.11-0.11
	l0.11-0.11v-0.11l0.11-0.11h0.11l0.11-0.11l0.11-0.23v-0.11v-0.11v-0.11l0.11-0.11v-0.11v-0.11v-0.11V49.3v-0.11v-0.11v-0.11
	l0.11-0.11v-0.11v-0.11l-0.11-0.11v-0.11v-0.11v-0.11v-0.11v-0.11h0.11v-0.11l0.11-0.11h0.11V47.6l0.11-0.11l0.11-0.11v-0.11v-0.11
	h0.11v-0.11v-0.11l-0.11-0.11h-0.11h-0.11H47.5l-0.11-0.11h-0.11v-0.11v-0.11h-0.11v-0.11v-0.11l-0.11-0.11v-0.11h-0.11h-0.11h-0.11
	l-0.11-0.11h-0.11h-0.11V45.8h-0.11v-0.11h-0.11h-0.11h-0.11v-0.11l-0.11-0.11h-0.11v-0.11v-0.11h-0.11h-0.11h-0.11v-0.11h-0.11
	v-0.11v-0.11v-0.11h-0.11v-0.11h-0.11v-0.11v-0.11H44.9v-0.11h-0.11l-0.11-0.11V44.1v-0.11v-0.11v-0.11v-0.11h0.11v-0.11h0.11v-0.11
	h-0.11v-0.11h-0.11V43.2l0.11-0.11l-0.11-0.11h-0.11v-0.11v-0.11v-0.11h-0.11v-0.11h0.11l-0.11-0.11V42.3h-0.11h-0.11v-0.11h-0.11
	H44v0.11v0.11h-0.11v0.11H44h0.11v0.11v0.11v0.11H44h-0.11v0.11v0.11v0.11H44h0.11h0.11v0.11h-0.11v0.11l0.11-0.11v0.11v0.11h-0.11
	v0.11H44v-0.11h-0.11h-0.11v0.11h-0.11v0.11h-0.11v-0.11h-0.11v0.11h-0.11l-0.11,0.11v-0.11v-0.11h-0.11v0.11h-0.11v0.11v0.11h-0.11
	h-0.11l0.11,0.11h-0.11h-0.11v0.11h0.11v0.11h-0.11h-0.11v-0.11h-0.11V44.1H42.3h-0.11h-0.11v-0.11v-0.11v-0.11v-0.11v-0.11h0.11
	v-0.11h-0.11h-0.11v-0.11h0.11V43.2h-0.11h-0.11v0.11l-0.11,0.11l-0.11-0.11v0.11l-0.11,0.11v-0.11v-0.11H41.4v0.11l-0.11-0.11V43.2
	h0.11h0.11v-0.11H41.4l-0.11,0.11l-0.11-0.11v0.11v0.11l-0.11-0.11h-0.11v0.11h-0.11h-0.11v0.11h-0.11H40.5v0.11v0.11h-0.11h-0.11
	v-0.11h-0.11v0.11v0.11h-0.11v-0.11h-0.11v-0.11h-0.11v0.11h-0.11l0.11-0.11v-0.11v-0.11h-0.11v0.11v0.11h-0.11h-0.11v0.11h-0.11
	v-0.11h-0.11v0.11h-0.11v-0.11h-0.11v-0.11v-0.11h0.11V43.2h-0.11v-0.11v-0.11h-0.11l-0.11,0.11v0.11h-0.11v-0.11h-0.11v0.11v0.11
	h-0.11h-0.11h-0.11v0.11v0.11h-0.11h-0.11H37.9v0.11v0.11l-0.11-0.11h-0.11h-0.11h-0.11v-0.11v-0.11l-0.11,0.11v-0.11v-0.11h-0.11
	V43.2h-0.11H37v-0.11h-0.11h-0.11v-0.11v-0.11h-0.11h-0.11v0.11h-0.11v-0.11h-0.11v0.11h0.11v0.11h-0.11l-0.11-0.11v0.11l-0.11-0.11
	h-0.11v0.11h-0.11v-0.11h-0.11v-0.11h-0.11v-0.11v-0.11h-0.11h-0.11v0.11H35.3h-0.11h-0.11v-0.11v-0.11v-0.11l-0.11-0.11h-0.11
	h-0.11h-0.11h-0.11v-0.11H34.4h-0.11v-0.11v-0.11h-0.11v-0.11v-0.11v-0.11h-0.11v-0.11v-0.11h-0.11v-0.11h-0.11v-0.11h-0.11v-0.11
	h-0.11v0.11h-0.11h-0.11v0.11h-0.11v-0.11v-0.11h-0.11h-0.11v-0.11v-0.11h-0.11h-0.11v-0.11H32.7V40.6h-0.11v-0.11v-0.11h-0.11
	v-0.11h-0.11v-0.11l-0.11-0.11v0.11h-0.11v0.11h-0.11h-0.11H31.8h-0.11v-0.11h0.11v-0.11l-0.11-0.11h-0.11h-0.11v0.11l-0.11-0.11
	v0.11v0.11h-0.11h-0.11h-0.11l0.11,0.11h-0.11H30.9v-0.11v-0.11h-0.11h-0.11v-0.11h-0.11h-0.11v-0.11h-0.11V39.7h-0.11v0.11v0.11
	v0.11h-1.58l-0.11,0.11h-0.11l-0.11,0.11v0.11h-0.11v-0.11h-0.11v0.11h-0.11v-0.11v-0.11h-0.11v-0.11h-0.11v0.11v0.11h-0.11h-0.11
	v0.11H27.4v0.11h-0.11v0.11h-0.11h-0.11l-0.11-0.11h-0.11v0.11h-0.11H26.6v0.11h-0.11V40.6h-0.11h-0.11h-0.11v-0.11h-0.11v0.11
	h-0.11h-0.11H25.7v-0.11h-0.11h-0.11h-0.11v0.11h-0.11h-0.11v0.11h-0.11V40.6l-0.11-0.11H24.8v-0.11h-0.11v0.11v0.11h-0.11v0.11
	h-0.11h-0.11h-0.11v0.11h-0.11h-0.11v-0.11l-0.11,0.11v-0.11V40.6h-0.11h-0.11v0.11h-0.11v0.11h-0.11l-0.11-0.11h-0.11l-0.11,0.11
	v-0.11h-0.11l0.11-0.11h0.11v-0.11H23.1l0.11-0.11v-0.11h0.11h0.11v-0.11h-0.11h-0.11v0.11H23.1v-0.11l-0.11-0.11h-0.11h-0.11v-0.11
	l-0.11,0.11v0.11h-0.11v-0.11h0.11l-0.11-0.11h-0.11v0.11h-0.11H22.2v-0.11h-0.11v-0.11h-0.11v0.11h-0.11h-0.11v-0.11h-0.11V39.7
	h-0.11v0.11h-0.11V39.7H21.3h-0.11v-0.11h-0.11v-0.11v-0.11l-0.11-0.11h-0.11v-0.11v-0.11h-0.11v-0.11v-0.11h-0.11v-0.11v-0.11h0.11
	v-0.11l0.11-0.11v-0.11h-0.11l0.11-0.11h-0.11V38v-0.11v-0.23l-0.11-0.11h-0.11v-0.11h-0.11v-0.11h-0.11v-0.11h-0.11V37.1v-0.11
	v-0.11v-0.11v-0.11v-0.11l-0.11,0.11h-0.11v-0.11v-0.11h-0.11v0.11h-0.11v0.11H19.6v-0.11h-0.11h-0.11h-0.11h-0.11v0.11h-0.11v-0.11
	v-0.11h-0.11h-0.11H18.7v-0.11V36.2l-0.11,0.11V36.2v-0.11h-0.11v0.11v0.11h-0.11V36.2h-0.11h-0.11h-0.11v-0.11h-0.11v-0.11
	l0.11-0.11v-0.11l0.11-0.11v-0.11h-0.11v0.11h-0.11v-0.11v-0.11H17.8v-0.11h0.11v-0.11h0.11v-0.11h0.11v-0.11h-0.11h-0.11H17.8
	h-0.11h-0.11v-0.11h-0.11v-0.11h-0.11v-0.11V34.5h0.11v-0.11h-0.11v-0.11h0.11v-0.11h0.11v-0.11l-0.11-0.11l-0.11-0.11v-0.11h-0.11
	V33.6h-0.11v-0.11l0.11-0.11v-0.11v-0.11h-0.11v-0.11H17h-0.11v-0.11h-0.11v0.11h-0.11h-0.11v-0.11h0.11v-0.11V32.7h-0.11h-0.11
	h-0.11h-0.11v0.11H16.1V32.7l-0.11-0.11v0.11h-0.11v0.11h-0.11V32.7h-0.11v-0.11h0.11v-0.11v-0.11h-0.11h-0.11v-0.11h0.11v-0.11
	h0.11h0.11v-0.11h-0.11v-0.11h-0.11l-0.11-0.11v-0.11h-0.11h-0.11v0.11l-0.11-0.11l-0.11-0.11h-0.11h-0.11h-0.11v-0.11h-0.11v0.11
	h0.11v0.11h-0.11v0.11h-0.11l-0.11-0.11v0.11h-0.11h-0.11v-0.11h-0.11h-0.11h-0.11v0.11h-0.11v0.11l-0.11-0.11H13.5v0.11v0.11h-0.11
	v-0.11l-0.11-0.11h-0.11v-0.11h-0.11h-0.11h-0.11v0.11l0.11,0.11v0.11h-0.11v-0.11h-0.11H12.6v-0.11v-0.11v-0.11h-0.11v0.11
	l-0.11-0.11l0.11-0.11h-0.11l-0.11-0.11v0.11l-0.11,0.11v-0.11v-0.11h-0.11l-0.11-0.11v0.11h-0.11v-0.11H11.7v-0.11V31h-0.11h-0.11
	h-0.11h-0.11h-0.11l-0.11-0.11L10.91,31h-0.11h-0.11v0.11v0.11h-0.11v-0.11h-0.11V31h-0.11v-0.11v-0.11v-0.11h-0.11v0.11h-0.11v0.11
	H10v-0.11H9.89H9.78v-0.11H9.66H9.55H9.44v-0.11H9.32l-0.11-0.11v-0.11h0.11v-0.11H9.21H9.1l-0.11,0.11H8.87H8.76H8.65H8.53v0.11
	l-0.11-0.11H8.31v-0.11H8.19H8.08L7.97,30.1H7.86v0.11H7.74H7.63H7.52v0.11v0.11H7.4v0.11H7.29v-0.11H7.18H7.07v0.11H6.95v-0.11
	l-0.11,0.11l-0.11-0.11v0.11H6.61v0.11H6.5H6.39v-0.11H6.27H6.16l0.11,0.11v0.11H6.16v0.11H6.05v-0.11H5.94v0.11L5.82,31H5.71H5.6
	v0.11v0.11H5.48v0.11H5.37H5.26H5.15H5.03v0.11v0.11H4.92v0.11H4.81H4.69v0.11H4.58l-0.11,0.11l-0.11,0.11v0.11H4.24v-0.11v-0.11
	v-0.11v-0.11v-0.11h0.11v-0.11v-0.11v-0.11h0.11v-0.11V31h0.11v-0.11H4.47H4.35H4.24H4.13v-0.11l0.11-0.11H4.13H4.02v-0.11H3.9H3.79
	l-0.11-0.11H3.56l-0.11,0.11v0.11H3.34v-0.11H3.23H3.11H3H2.89v-0.11H2.77v-0.11v-0.11V30.1h0.11v-0.11H2.77v-0.11v-0.11v-0.11
	v-0.11h0.11v-0.11v-0.11H2.77v-0.11H2.66l0.11-0.11v-0.11h0.11H3h0.11l0.11-0.11h0.11h0.11h0.11h0.11l0.11-0.11v-0.11l0.11-0.11
	l0.11-0.11l0.11-0.11v-0.11v-0.11v-0.11l0.11-0.11v-0.11H4.13l0.11-0.11L4.13,27.5v-0.11l-0.11-0.11h0.11h0.11v-0.11l0.11-0.11
	v-0.11v-0.11v-0.11V26.6h0.11v-0.11l0.11-0.11v-0.11v-0.11h0.11v-0.11h0.11h0.11h0.11v-0.11v-0.11v-0.11h0.11h0.11l0.11-0.11v-0.11
	l0.11-0.11v-0.11H5.6v-0.11v-0.11H5.48V24.9l-0.11-0.11H5.26l-0.11-0.11l-0.11-0.11v-0.11v-0.11v-0.11v-0.11V24l-0.11-0.11v-0.11
	v-0.11v-0.11l0.11-0.11v-0.11v-0.11V23.1h0.11h0.11h0.11l0.11-0.11l0.11-0.11h0.11h0.11h0.11l0.11-0.11l0.23-0.11h0.11H6.5
	l0.23-0.11l0.23-0.23l0.11-0.11h0.23h0.23h0.11l0.11-0.11v-0.11h0.11l0.11-0.11h0.11h0.11l0.23-0.11h0.11h0.11h0.11h0.23l0.11-0.11
	l0.11-0.11V21.4h0.11h0.11h0.23l0.11-0.11h0.11v-0.11H10v-0.11l0.11-0.11v-0.11l0.11-0.23V20.5l0.11-0.11h0.11l0.11-0.11l0.11-0.11
	l0.11-0.11l0.11-0.11h0.11h0.11h0.11h0.11h0.11h0.11h0.23h0.11h0.11l0.23-0.11h0.11l0.11-0.11l0.11-0.11v-0.11l0.11-0.11h0.23
	l0.11-0.11h0.11l0.11-0.11v-0.11h0.11l0.11-0.11l0.11-0.11l0.11-0.11l0.11-0.11h0.11l0.11-0.11l0.23-0.11h0.11l0.11-0.11l0.11-0.11
	h0.11l0.23-0.11h0.11h0.11V17.9h-0.11v-0.11h-0.11v-0.11h-0.11v-0.11v-0.11v-0.11v-0.11h0.11v0.11v0.11h0.11h0.11h0.11h0.11h0.11
	v0.11h0.11h0.11v-0.11v-0.11h0.11v-0.11h0.11v0.11h0.11v0.11l-0.11,0.11h0.11h0.11v0.11h0.11h0.11v-0.11l0.11,0.11h-0.11v0.11v0.11
	h0.11h0.11l0.11,0.11l0.11-0.11v-0.11L17,17.67h0.11v0.11H17v0.11v0.11h0.11l0.11-0.11v-0.11h0.11h0.11h0.11v0.11v0.11h0.11
	l0.11-0.11v0.11h0.11h0.11h0.11V17.9v-0.11v-0.11h0.11v0.11h0.11v-0.11v-0.11l-0.11-0.11h-0.11v-0.11h0.11h0.11v0.11h0.11v-0.11
	l0.11-0.11l0.11-0.11L18.81,17H18.7h-0.11l-0.11-0.11l0.11-0.11h-0.11h-0.11v-0.11l0.11-0.11h0.11h0.11v-0.11h0.11v-0.11l0.11-0.11
	v-0.11l0.11-0.11h0.11v0.11l0.11,0.11v0.11h0.11v0.11h0.11v-0.11h0.11v-0.11v-0.11l0.11,0.11h0.11v0.11l0.11,0.11l0.11,0.11h0.11
	v-0.11h0.11h0.11h0.11v0.11h0.11v0.11h0.11h0.11v0.11h0.11l0.11-0.11h0.11v-0.11h0.11v-0.11h-0.11v-0.11h-0.11l0.11-0.11v-0.11h0.11
	l0.11,0.11l0.11-0.11h0.11v-0.11h0.11v0.11h0.11h0.11v-0.11h0.11h0.11v-0.11h-0.11v-0.11h-0.11l-0.11-0.11v-0.11h0.11h0.11
	l0.11-0.11V15.3h0.11v-0.11h0.11v-0.11h-0.11v-0.11v-0.11h0.11h0.11h0.11v-0.11l0.11-0.11v0.11v0.11v0.11h0.11h0.11h0.11v-0.11h0.11
	h0.11l0.11-0.11v-0.11h0.11v0.11h0.11l0.11,0.11v0.11h0.11h0.11h0.11h0.11l0.11,0.11h0.11h0.11h0.11v-0.11h-0.11v-0.11l-0.11-0.11
	v-0.11v-0.11h0.11h0.11V14.4v-0.11v-0.11h0.11h0.11h0.11h0.11v0.11h0.11h0.11v0.11l0.11,0.11h0.11l-0.11,0.11v0.11h0.11h0.11h0.11
	v-0.11l0.11,0.11l0.23,0.23v0.11l0.11,0.11h0.11v-0.11h0.11h0.11h0.11l0.11,0.11v0.11h0.11h0.11h0.11l0.11-0.11v0.11v0.11h0.11
	l0.11,0.11v-0.11V15.3v-0.11h0.11h0.11h0.11h0.11h0.11v-0.11h0.11h0.11v0.11l0.11,0.11v0.11v0.11v0.11v0.11h0.11h0.11h0.11
	l0.11,0.11h0.11h0.11v0.11l-0.11,0.11h0.11l0.11,0.11h0.11h0.11v-0.11h0.11v-0.11l0.11-0.11v-0.11h0.11h0.11v0.11l0.11,0.11h0.11
	v0.11v0.11h0.11v0.11h-0.11v0.11h0.11v0.11l0.11,0.11l0.11-0.11h0.11h0.11h0.11h0.11h0.11v-0.11h0.11l0.11-0.11h0.11l0.11,0.11h0.11
	h0.11h0.11h0.11v-0.11h0.11v-0.11h0.11h0.11l0.11-0.11h0.11v-0.23h0.11h0.11v-0.11h-0.11l0.11-0.11h0.11h0.11v-0.11h-0.11v-0.11
	h0.11l0.11-0.11v0.11h0.11h0.11V15.3h-0.11v-0.11h0.11v-0.11h0.11h0.11v0.11h0.11h0.11v0.11h-0.11v0.11h0.11h0.11V15.3h0.11v-0.11
	h-0.11v-0.11l0.11-0.11v0.11h0.11v0.11h0.11v-0.11v-0.11v-0.11v-0.11v-0.11v-0.11V14.4h0.11h0.11h0.11v-0.11l-0.11-0.11h0.11h0.11
	h0.11h0.11v0.11h0.11h0.11h0.11h0.11h0.11v-0.11h0.11l0.11,0.11h0.11l0.11-0.11h0.11h0.11v0.11h0.11h0.11l0.11,0.11l0.11-0.11v0.11
	h0.11h0.11h0.11H37v-0.11h0.11v0.11v0.11H37h-0.11v0.11v0.11v0.11H37l0.11-0.11h0.11v0.11h0.11l0.11-0.11h0.11h0.11h0.11l0.11,0.11
	v0.11h-0.11h-0.11h-0.11v0.11v0.11v0.11h0.11v0.11h0.11h0.11v0.11l0.11,0.11v0.11h0.11v0.11h0.11v-0.11h0.11l0.11,0.11h0.11h0.23
	h0.11h0.11v0.11h-0.11v0.11H38.8l-0.11,0.11v0.11h0.11l-0.11,0.11h-0.11v0.11l-0.11,0.11v0.11h0.11v-0.11h0.11l0.11,0.11h0.11h0.11
	h0.11l0.11-0.11h0.11v0.11l0.11,0.11V17v0.11h-0.11h-0.11h-0.11l-0.11,0.11h-0.11v0.11h0.11v-0.11l0.11,0.11h0.11h0.11v0.11v0.11
	h0.11v0.11h0.11h0.11v0.11h0.11h0.11v0.11h0.11v0.11h-0.11l-0.11,0.11l-0.11,0.11h0.11l0.11,0.11v0.11v0.11v0.11h0.11v0.11h0.11
	v0.11v0.11v0.11h0.11h0.11h0.11v-0.11l0.11-0.23v-0.11v-0.11v-0.11v-0.11v-0.11h0.11v0.11h0.11v0.11h0.11v0.11h0.11v0.11h-0.11v0.11
	h0.11h0.11v0.11l0.11,0.11l0.11,0.11h0.11h0.11h0.11v0.11h0.11v0.11h0.11h0.11h0.11v0.11v0.11h0.11h0.11l0.11-0.11v-0.11h-0.11H42.3
	v-0.11v-0.11h0.11l0.23,0.11L44,19.93l0.9,0.45l0.45,0.23l0.34,0.23h0.11h0.11l1.13-0.23l0.23-0.11h0.11l1.02-0.23l1.58-0.34
	l0.56,0.23L51,20.39l0.23,0.11l0.23,0.11l0.23,0.11l0.34,0.11l0.23,0.11h0.11l0.11,0.11l0.23,0.11h0.11h0.11l0.11,0.11h0.23h0.11
	h0.23l0.23,0.11h0.11h0.11h0.11h0.23l0.23,0.11h0.23h0.11h0.11l0.11,0.11h0.11h0.23h0.11l0.11,0.11h0.11h0.23h0.11h0.23l0.11,0.11
	h0.23h0.11h0.11h0.11h0.23l0.11-0.23h0.11v-0.11V21.4l-0.11-0.11v-0.11l-0.11-0.11v-0.23v-0.11v-0.11V20.5v-0.11l0.11-0.34v-0.11
	v-0.11v-0.11v-0.11v-0.11v-0.23l0.11-0.11v-0.11v-0.34l0.11-0.23v-0.11v-0.11l0.11-0.23l0.11-0.34v-0.11v-0.11L58,17.22v-0.11
	L58.12,17v-0.11l0.11-0.23v-0.11h0.11v-0.11v-0.11v-0.11l0.11-0.11v-0.11l0.11-0.11v-0.11l0.11-0.11v-0.11v-0.11V15.3h0.11v-0.11
	v-0.11h0.11v-0.11v-0.11v-0.11l0.11-0.11v-0.11V14.4h0.11v-0.11v-0.11l0.11-0.11l0.11-0.11v-0.11l0.11-0.11v-0.11h0.11V13.5v-0.11
	h0.11v-0.11v-0.11l0.11-0.11v-0.11l0.11-0.23l0.11-0.11l0.11-0.23l0.11-0.11v-0.11v-0.11l0.11-0.11V11.8h0.11v-0.11l0.11-0.11v-0.11
	v-0.11h0.11v-0.11l0.11-0.11v-0.11V10.9v-0.11l0.11-0.11v-0.11l0.11-0.11v-0.11v-0.11v-0.11h0.11V9.99V9.88l0.11-0.11V9.66V9.54
	h0.11V9.43V9.32V9.2V9.09V8.98V8.87l0.11-0.11V8.64V8.53h-0.11V8.41L61.28,8.3V8.19V8.07h-0.11V7.96V7.85h-0.11V7.74h-0.11V7.62
	V7.51h-0.11V7.4l-0.11-0.11V7.17l0.11-0.11l0.11-0.23V6.72V6.61l0.11-0.23l0.11-0.23l0.11-0.23V5.7l0.11-0.11l-0.11-0.11V5.36h-0.11
	V5.25V5.14l0.11-0.11V4.91h0.11V4.8h-0.11V4.69h-0.11V4.57V4.46V4.35l0.11-0.11V4.01V3.9V3.78V3.56V3.44V3.33h0.11l0.11-0.11V3.11
	l0.11-0.11l0.11-0.11V2.65l0.11-0.11l0.11-0.11h0.11h0.11V2.31l0.34-0.23V1.98V1.86l-0.11-0.11V1.64l0.11-0.11V1.41V1.18V0.96H62.63
	z"/>
</svg>
