<?xml version="1.0" encoding="utf-8"?>
<!-- Generator: Adobe Illustrator 24.2.1, SVG Export Plug-In . SVG Version: 6.00 Build 0)  -->
<svg version="1.1" id="Layer_1" xmlns="http://www.w3.org/2000/svg" xmlns:xlink="http://www.w3.org/1999/xlink" x="0px" y="0px"
	 viewBox="0 0 97.23 97.23" style="enable-background:new 0 0 97.23 97.23;" xml:space="preserve">
<style type="text/css">
	.st0{fill-rule:evenodd;clip-rule:evenodd;}
</style>
<polygon class="st0" points="85.59,1.12 85.47,1.12 85.47,1.23 85.47,1.34 85.47,1.46 85.36,1.46 85.47,1.46 85.47,1.57 85.47,1.68 
	85.47,1.79 85.36,1.79 85.36,1.91 85.25,1.91 85.36,2.02 85.36,2.13 85.36,2.24 85.25,2.24 85.25,2.35 85.36,2.35 85.36,2.47 
	85.36,2.58 85.36,2.69 85.36,2.8 85.36,2.91 85.36,3.03 85.36,3.14 85.36,3.25 85.25,3.25 85.36,3.36 85.25,3.36 85.36,3.36 
	85.36,3.47 85.36,3.59 85.36,3.7 85.36,3.81 85.36,3.92 85.36,4.03 85.36,4.26 85.36,4.37 85.36,4.48 85.25,4.48 85.14,4.48 
	85.03,4.6 84.91,4.6 84.8,4.6 84.69,4.6 84.58,4.6 84.47,4.6 84.35,4.6 84.35,4.71 84.24,4.71 84.24,4.82 84.13,4.82 84.02,4.93 
	83.91,5.04 83.79,5.16 83.79,5.27 83.68,5.38 83.57,5.38 83.46,5.6 83.34,5.6 83.34,5.72 83.23,5.72 83.23,5.83 83.34,6.05 
	83.34,6.16 83.34,6.28 83.34,6.39 83.23,6.5 83.23,6.61 83.23,6.73 83.23,6.84 83.23,6.95 83.12,7.06 83.12,7.17 83.12,7.29 
	83.12,7.4 83.12,7.51 83.12,7.62 83.01,7.73 83.01,7.85 82.9,7.96 82.9,8.07 82.9,8.18 82.9,8.29 82.9,8.41 82.78,8.52 82.67,8.52 
	82.67,8.63 82.56,8.74 82.56,8.85 82.56,8.97 82.56,9.08 82.56,9.19 82.56,9.42 82.56,9.53 82.45,9.64 82.45,9.75 82.45,9.98 
	82.45,10.2 82.45,10.31 82.45,10.42 82.56,10.54 82.56,10.65 82.56,10.76 82.56,10.98 82.56,11.1 82.56,11.21 82.56,11.32 
	82.56,11.43 82.45,11.54 82.45,11.66 82.45,11.77 82.45,11.99 82.45,12.11 82.45,12.22 82.45,12.33 82.56,12.33 82.56,12.44 
	82.56,12.55 82.56,12.67 82.45,12.78 82.34,12.78 82.22,12.89 82.22,13 82.11,13.11 82.11,13.23 82,13.34 81.89,13.34 81.89,13.45 
	81.78,13.45 81.66,13.56 81.55,13.56 81.55,13.67 81.55,13.79 81.55,13.9 81.66,13.9 81.66,14.01 81.66,14.12 81.66,14.24 
	81.66,14.35 81.55,14.57 81.55,14.68 81.55,14.8 81.55,14.91 81.55,15.02 81.66,15.24 81.66,15.36 81.66,15.47 81.66,15.58 
	81.78,15.69 81.78,15.8 81.66,15.8 81.55,15.69 81.44,15.69 81.33,15.69 81.1,15.69 80.99,15.69 80.88,15.69 80.77,15.69 
	80.77,15.8 80.65,15.92 80.65,16.03 80.54,16.03 80.43,16.14 80.32,16.25 80.32,16.36 80.43,16.48 80.54,16.48 80.65,16.59 
	80.77,16.59 80.77,16.7 80.77,16.81 80.77,16.93 80.77,17.04 80.88,17.15 80.88,17.26 80.77,17.26 80.77,17.37 80.65,17.49 
	80.65,17.6 80.77,17.71 80.77,17.82 80.77,17.93 80.77,18.05 80.77,18.16 80.88,18.27 80.88,18.38 80.88,18.49 80.99,18.61 
	80.99,18.72 81.1,18.83 81.1,18.94 81.1,19.05 81.1,19.17 81.1,19.28 81.1,19.39 81.21,19.5 81.21,19.62 81.21,19.73 81.33,19.84 
	81.33,19.95 81.33,20.06 81.21,20.06 81.21,20.18 81.33,20.29 81.33,20.4 81.44,20.51 81.44,20.62 81.44,20.74 81.55,20.74 
	81.55,20.96 81.66,21.07 81.66,21.3 81.66,21.41 81.78,21.52 81.78,21.63 81.78,21.75 81.78,21.86 81.89,21.97 81.89,22.08 
	81.89,22.19 81.78,22.31 81.78,22.42 81.66,22.53 81.66,22.64 81.78,22.64 81.78,22.75 81.89,22.75 82,22.87 82.11,22.98 
	82.22,23.09 82.34,23.2 82.45,23.31 82.45,23.43 82.45,23.54 82.56,23.65 82.45,23.76 82.45,23.87 82.45,23.99 82.45,24.1 
	82.45,24.21 82.45,24.32 82.45,24.44 82.34,24.55 82.34,24.77 82.45,24.88 82.45,25 82.56,25 82.56,25.11 82.56,25.33 82.45,25.33 
	82.45,25.44 82.45,25.56 82.45,25.67 82.45,25.78 82.45,25.89 82.56,26 82.45,26.12 82.45,26.23 82.56,26.23 82.45,26.23 
	82.45,26.34 82.45,26.45 82.34,26.57 82.34,26.68 82.34,26.79 82.34,26.9 82.34,27.01 82.22,27.01 82.22,27.13 82.11,27.13 
	82.11,27.24 82.11,27.35 82,27.35 81.89,27.46 81.78,27.57 81.78,27.69 81.66,27.8 81.78,27.91 81.78,28.02 81.89,28.02 
	81.89,28.13 81.89,28.25 81.89,28.36 82,28.47 82.11,28.58 82.22,28.58 82.22,28.69 82.22,28.81 82.22,28.92 82.11,29.03 82,29.03 
	81.89,29.14 81.78,29.14 81.66,29.14 81.55,29.14 81.44,29.14 81.33,29.14 81.33,29.26 81.21,29.26 81.21,29.37 81.21,29.48 
	81.21,29.59 81.21,29.7 81.21,29.82 81.21,29.93 81.1,29.93 81.1,30.04 81.1,30.15 81.1,30.26 80.99,30.26 80.99,30.38 80.99,30.49 
	80.88,30.6 80.88,30.71 80.88,30.82 80.88,31.05 80.88,31.16 80.88,31.27 80.77,31.27 80.65,31.27 80.54,31.27 80.54,31.39 
	80.54,31.5 80.54,31.61 80.54,31.72 80.54,31.83 80.65,31.95 80.77,32.17 80.88,32.62 80.88,32.84 80.88,32.95 80.88,33.18 
	80.88,33.29 80.88,33.4 80.99,33.63 80.99,33.74 80.99,33.85 81.1,33.96 81.1,34.08 81.1,34.19 81.1,34.41 81.1,34.52 81.21,34.64 
	81.21,34.75 81.21,34.97 81.21,35.08 81.21,35.2 81.21,35.31 81.21,35.42 81.21,35.53 81.21,35.64 81.21,35.87 81.21,35.98 
	81.21,36.09 81.33,36.32 81.33,36.43 81.33,36.54 81.44,36.65 81.55,36.77 81.55,36.88 81.44,36.99 81.44,37.1 81.44,37.33 
	81.55,37.44 81.89,38 82,38 82.11,38 82.22,38 82.22,38.11 82.34,38 82.45,38 82.56,38 82.56,37.89 82.67,37.89 82.67,37.77 
	82.78,37.77 82.9,37.77 82.9,37.66 82.9,37.55 83.01,37.55 83.12,37.55 83.34,37.66 83.46,37.77 83.57,37.77 83.57,37.89 83.68,38 
	83.68,38.11 83.79,38.22 83.91,38.22 83.91,38.33 84.02,38.33 84.13,38.33 84.35,38.22 84.47,38.22 84.47,38.33 84.47,38.45 
	84.47,38.56 84.58,38.56 84.58,38.67 84.69,38.67 84.69,38.78 84.8,39.01 84.8,39.12 84.91,39.34 85.03,39.34 85.03,39.46 
	85.14,39.46 85.25,39.57 85.25,39.68 85.36,39.68 85.36,39.79 85.36,39.9 85.47,40.02 85.47,40.13 85.59,40.13 85.59,40.24 
	85.7,40.24 85.7,40.35 85.81,40.35 85.92,40.35 85.92,40.46 86.03,40.46 86.15,40.58 86.26,40.69 86.26,40.8 86.37,40.91 
	86.37,41.14 86.48,41.14 86.48,41.25 86.48,41.36 86.48,41.47 86.6,41.59 86.71,41.7 86.71,41.81 86.82,41.81 86.82,41.92 
	86.82,42.03 86.82,42.15 86.93,42.15 86.93,42.26 86.82,42.26 86.82,42.37 86.82,42.48 86.82,42.59 86.82,42.71 86.93,42.82 
	87.04,42.93 87.16,43.04 87.16,43.15 87.16,43.27 87.27,43.38 87.38,43.49 87.49,43.49 87.6,43.49 87.94,43.83 88.05,43.83 
	88.16,44.05 88.16,44.16 88.16,44.39 88.16,44.5 88.16,44.61 88.16,44.72 88.05,44.84 88.05,44.95 88.05,45.06 88.16,45.28 
	88.16,45.4 88.28,45.51 88.28,45.62 88.39,45.62 88.39,45.73 88.39,45.84 88.39,45.96 88.39,46.07 88.39,46.18 88.39,46.29 
	88.39,46.41 88.39,46.52 88.28,46.52 88.28,46.63 88.16,46.63 88.16,46.74 88.16,46.85 88.16,46.97 88.16,47.08 88.16,47.19 
	88.05,47.19 87.94,47.19 87.83,47.19 87.72,47.19 87.6,47.19 87.6,47.3 87.6,47.41 87.6,47.53 87.6,47.64 87.6,47.75 87.72,47.75 
	87.72,47.86 87.83,47.86 87.83,47.97 87.83,48.2 87.83,48.31 87.94,48.31 87.83,48.42 87.72,48.53 87.6,48.65 87.49,48.65 
	87.38,48.65 87.27,48.65 87.16,48.65 87.04,48.76 86.93,48.76 86.93,48.87 86.82,48.87 86.71,48.98 86.6,48.98 86.48,48.98 
	86.48,49.1 86.48,49.21 86.37,49.32 86.26,49.32 86.26,49.43 86.15,49.54 85.92,49.54 85.81,49.66 85.7,49.77 85.59,49.88 
	85.59,49.99 85.47,49.99 85.47,50.1 85.36,50.1 85.25,50.22 85.14,50.33 85.03,50.33 84.91,50.33 84.8,50.44 84.69,50.44 
	84.58,50.44 84.35,50.55 84.24,50.55 84.13,50.55 84.02,50.66 83.79,50.66 83.79,50.78 83.68,50.78 83.57,50.89 83.46,50.89 
	83.46,51 83.34,51 83.23,51 83.12,51.11 83.01,51.11 82.9,51.11 82.78,51 82.78,50.89 82.67,50.78 82.56,50.78 82.45,50.78 
	82.34,50.78 82.22,50.78 82.22,50.66 82.11,50.66 82,50.66 81.89,50.55 81.78,50.55 81.66,50.55 81.55,50.55 81.44,50.55 
	81.33,50.55 81.21,50.55 81.1,50.55 80.99,50.55 80.99,50.66 80.88,50.66 80.77,50.66 80.65,50.66 80.54,50.66 80.43,50.66 
	80.32,50.66 80.21,50.66 80.21,50.55 80.09,50.55 79.98,50.55 79.87,50.55 79.76,50.55 79.76,50.66 79.65,50.66 79.65,50.55 
	79.53,50.55 79.53,50.44 79.42,50.44 79.42,50.55 79.31,50.55 79.2,50.55 79.2,50.66 79.2,50.78 79.2,50.89 79.2,51 79.31,51 
	79.2,51.11 79.09,51.11 79.09,51.23 79.09,51.34 79.09,51.23 78.97,51.23 78.97,51.34 78.86,51.34 78.86,51.45 78.97,51.45 
	78.86,51.56 78.97,51.56 78.97,51.45 78.97,51.56 78.97,51.67 78.86,51.67 78.97,51.67 78.97,51.79 78.86,51.79 78.86,51.9 
	78.86,52.01 78.75,52.01 78.86,52.01 78.86,52.12 78.75,52.12 78.86,52.12 78.86,52.01 78.86,52.12 78.97,52.12 78.97,52.23 
	78.86,52.23 78.86,52.35 78.97,52.35 78.86,52.35 78.86,52.46 78.97,52.46 78.86,52.46 78.97,52.46 78.97,52.57 78.97,52.68 
	79.09,52.68 79.09,52.57 79.09,52.68 79.2,52.68 79.31,52.68 79.31,52.57 79.31,52.68 79.31,52.79 79.2,52.91 79.31,52.91 
	79.31,53.02 79.31,53.13 79.2,53.13 79.09,53.24 78.97,53.24 78.86,53.24 78.86,53.35 78.75,53.35 78.75,53.47 78.64,53.58 
	78.64,53.69 78.75,53.8 78.86,53.92 78.97,54.03 79.09,54.03 79.09,54.14 79.09,54.25 79.2,54.25 79.2,54.36 79.31,54.36 
	79.42,54.48 79.53,54.7 79.65,54.81 79.76,54.81 79.87,54.92 79.98,55.04 79.98,55.15 80.09,55.15 80.21,55.26 80.21,55.37 
	80.32,55.37 80.43,55.37 80.43,55.48 80.54,55.48 80.54,55.6 80.65,55.6 80.65,55.71 80.65,55.82 80.77,55.82 80.77,55.93 
	80.88,56.05 80.99,56.05 80.99,56.16 80.99,56.27 80.99,56.38 80.99,56.49 80.99,56.61 80.88,56.72 80.77,56.72 80.77,56.83 
	80.65,56.83 80.65,56.94 80.65,57.05 80.77,57.17 80.77,57.28 80.88,57.39 80.99,57.61 80.99,57.73 81.1,57.73 81.1,57.84 
	81.1,57.95 81.21,57.95 81.21,58.17 81.21,58.29 81.1,58.29 81.1,58.4 80.99,58.51 80.88,58.51 80.88,58.62 80.77,58.62 
	80.65,58.62 80.54,58.62 80.43,58.74 80.32,58.74 80.21,58.74 80.09,58.74 79.98,58.74 79.87,58.74 79.76,58.74 79.65,58.74 
	79.65,58.85 79.65,58.96 79.65,59.07 79.53,59.07 79.53,59.18 79.53,59.3 79.42,59.3 79.42,59.41 79.31,59.41 79.31,59.52 
	79.31,59.63 79.31,59.74 79.31,59.86 79.31,59.97 79.31,60.08 79.31,60.19 79.42,60.3 79.53,60.3 79.53,60.42 79.65,60.53 
	79.65,60.64 79.65,60.75 79.76,60.98 79.87,61.09 80.09,61.2 80.21,61.31 80.32,61.31 80.32,61.43 80.54,61.43 80.88,61.65 
	80.88,61.76 80.88,61.87 80.88,61.99 80.77,62.1 80.77,62.21 80.88,62.21 80.99,62.21 81.33,62.1 81.44,62.1 81.55,62.21 
	81.66,62.21 81.66,62.32 81.66,62.43 81.66,62.55 81.78,62.66 81.78,62.77 81.89,62.88 81.89,62.99 82,63.11 82,63.22 82.11,63.33 
	82.22,63.33 82.34,63.33 82.45,63.33 82.56,63.33 82.67,63.33 82.67,63.44 82.67,63.33 82.67,63.44 82.67,63.33 82.78,63.33 
	82.78,63.44 82.9,63.44 82.9,63.56 82.78,63.56 82.78,63.44 82.78,63.56 82.9,63.56 82.9,63.67 83.01,63.67 83.01,63.78 82.9,63.78 
	83.01,63.78 83.01,63.89 83.12,63.89 83.12,64 83.12,63.89 83.12,64 83.23,64 83.23,64.12 83.34,64.12 83.46,64.12 83.46,64 
	83.57,64 83.46,64 83.46,63.89 83.57,63.89 83.68,63.89 83.79,63.89 83.91,63.89 83.91,63.78 83.91,63.89 83.91,63.78 84.02,63.78 
	84.02,63.67 84.02,63.78 84.02,63.67 84.13,63.67 84.24,63.56 84.24,63.67 84.24,63.78 84.24,63.89 84.24,64 84.13,64 84.13,64.12 
	84.02,64.12 84.02,64.23 84.02,64.34 83.91,64.34 83.91,64.45 83.79,64.45 83.79,64.56 83.79,64.68 83.79,64.79 83.79,64.9 
	83.91,64.9 83.91,65.01 83.91,65.12 83.91,65.24 84.02,65.24 84.02,65.35 84.02,65.46 84.02,65.57 83.91,65.57 83.91,65.68 
	83.91,65.8 83.91,65.91 83.91,66.02 83.91,66.13 83.91,66.02 83.91,66.13 83.91,66.25 84.02,66.25 84.02,66.36 84.02,66.47 
	84.13,66.47 84.13,66.58 84.24,66.58 84.24,66.69 84.24,66.81 84.13,66.81 84.13,66.92 84.24,66.92 84.24,67.03 84.13,67.03 
	84.13,67.14 84.02,67.14 84.02,67.03 83.68,67.14 83.46,67.14 83.01,66.92 82.67,66.92 82.45,66.69 82.11,66.58 81.66,66.58 
	81.33,66.58 80.99,66.58 80.77,66.47 80.54,66.36 80.43,66.36 80.32,66.47 80.21,66.58 79.98,66.69 79.98,66.81 79.87,66.92 
	79.87,67.03 79.87,67.14 79.98,67.25 80.32,67.48 81.1,67.59 82.34,67.81 83.01,67.81 83.91,67.7 84.47,67.7 84.58,67.7 
	84.69,67.81 84.69,67.93 84.69,68.04 84.69,68.15 84.58,68.26 84.58,68.38 84.47,68.38 84.47,68.49 84.35,68.49 84.35,68.6 
	84.24,68.49 84.13,68.49 84.13,68.6 84.02,68.71 83.91,68.82 83.91,68.94 83.91,69.05 83.79,69.16 83.57,69.16 83.46,69.27 
	83.34,69.27 83.23,69.38 83.12,69.5 83.01,69.61 83.01,69.72 82.9,69.94 82.9,70.28 82.78,70.39 82.67,70.39 82.56,70.39 
	82.45,70.5 82.34,70.5 82.22,70.5 82.22,70.39 82.11,70.5 82.11,70.39 82.22,70.39 82.11,70.39 82.11,70.28 82.11,70.39 
	82.11,70.28 82,70.28 82,70.17 81.89,70.17 82,70.17 81.89,70.17 81.89,70.06 81.89,69.94 81.78,69.94 81.78,69.83 81.66,69.83 
	81.55,69.83 81.55,69.72 81.44,69.72 81.44,69.83 81.44,69.72 81.44,69.61 81.33,69.61 81.21,69.61 81.1,69.61 80.99,69.72 
	80.99,69.83 80.99,69.94 80.99,70.06 80.99,70.17 80.88,70.17 80.99,70.17 80.99,70.28 80.99,70.39 80.88,70.39 80.99,70.39 
	80.99,70.5 80.99,70.62 80.88,70.62 80.88,70.73 80.99,70.73 80.88,70.73 80.99,70.73 80.99,70.84 80.88,70.84 80.88,70.95 
	80.99,70.95 80.99,71.07 80.88,71.07 80.99,71.07 80.99,71.18 80.88,71.18 80.99,71.18 80.88,71.18 80.88,71.29 80.88,71.4 
	80.99,71.4 81.1,71.4 81.1,71.51 81.1,71.4 81.21,71.4 81.21,71.51 81.33,71.51 81.33,71.63 81.33,71.74 81.44,71.74 81.44,71.85 
	81.44,71.96 81.55,71.96 81.66,71.96 81.78,71.96 81.89,71.96 81.89,72.07 81.78,72.07 81.89,72.07 82,72.07 82,71.96 82.11,71.96 
	82.22,71.96 82.34,71.96 82.34,71.85 82.45,71.85 82.45,71.96 82.56,71.96 82.45,71.96 82.56,71.96 82.56,72.07 82.67,72.07 
	82.78,72.07 82.78,72.19 82.9,72.19 82.9,72.3 82.9,72.19 83.01,72.19 82.9,72.19 82.9,72.3 83.01,72.3 83.12,72.3 83.12,72.19 
	83.23,72.19 83.23,72.3 83.23,72.19 83.34,72.19 83.34,72.3 83.34,72.19 83.46,72.19 83.46,72.3 83.57,72.3 83.57,72.19 83.57,72.3 
	83.68,72.3 83.68,72.19 83.68,72.3 83.68,72.41 83.79,72.41 83.79,72.52 83.91,72.52 84.02,72.63 83.91,72.63 84.02,72.63 
	84.13,72.63 84.24,72.63 84.24,72.52 84.24,72.63 84.24,72.75 84.35,72.75 84.35,72.86 84.35,72.97 84.47,72.97 84.58,72.97 
	84.47,72.97 84.58,72.97 84.58,73.08 84.69,73.08 84.69,73.2 84.69,73.08 84.69,73.2 84.8,73.2 84.69,73.08 84.8,73.08 84.8,73.2 
	84.91,73.2 84.91,73.08 85.03,73.08 85.14,73.08 85.14,73.2 85.14,73.08 85.14,73.2 85.25,73.2 85.25,73.08 85.25,73.2 85.36,73.2 
	85.36,73.31 85.47,73.2 85.59,73.2 85.59,73.08 85.59,73.2 85.7,73.2 85.7,73.08 85.7,73.2 85.81,73.2 85.81,73.31 85.81,73.42 
	85.81,73.53 85.81,73.64 85.92,73.64 85.92,73.76 86.03,73.76 86.15,73.76 86.26,73.76 86.26,73.87 86.37,73.87 86.48,73.87 
	86.37,73.98 86.37,74.09 86.37,74.2 86.37,74.32 86.37,74.2 86.37,74.32 86.48,74.32 86.37,74.32 86.37,74.43 86.37,74.54 
	86.48,74.54 86.48,74.65 86.48,74.76 86.37,74.76 86.48,74.76 86.6,74.76 86.6,74.88 86.6,74.99 86.71,74.99 86.71,75.1 86.82,75.1 
	86.82,75.21 86.71,75.21 86.71,75.32 86.71,75.44 86.6,75.44 86.6,75.55 86.48,75.55 86.48,75.44 86.48,75.55 86.6,75.55 
	86.6,75.66 86.6,75.77 86.48,75.77 86.6,75.77 86.6,75.89 86.48,75.89 86.6,75.89 86.6,76 86.48,76.11 86.6,76.11 86.6,76.22 
	86.6,76.11 86.6,76.22 86.71,76.22 86.71,76.11 86.71,76.22 86.82,76.22 86.71,76.22 86.82,76.22 86.82,76.33 86.71,76.33 
	86.82,76.33 86.82,76.45 86.93,76.33 86.93,76.45 87.04,76.45 87.16,76.45 87.16,76.56 87.27,76.56 87.27,76.67 87.38,76.67 
	87.49,76.67 87.49,76.78 87.49,76.67 87.6,76.67 87.72,76.67 87.72,76.78 87.72,76.89 87.72,77.01 87.83,77.01 87.83,77.12 
	87.83,77.23 87.94,77.23 87.94,77.34 87.94,77.45 88.05,77.45 88.05,77.57 88.05,77.68 88.05,77.79 88.16,77.79 88.28,77.79 
	88.28,77.9 88.39,77.9 88.39,78.02 88.5,78.02 88.61,78.02 88.73,78.02 88.73,78.13 88.73,78.24 88.84,78.13 88.95,78.13 
	89.06,78.13 89.17,78.13 89.17,78.24 89.29,78.24 89.29,78.35 89.4,78.35 89.51,78.24 89.51,78.13 89.51,78.24 89.62,78.24 
	89.73,78.35 89.73,78.46 89.85,78.58 89.73,78.58 89.62,78.58 89.62,78.69 89.62,78.8 89.62,78.91 89.51,78.91 89.51,79.02 
	89.51,79.14 89.4,79.25 89.29,79.25 89.29,79.36 89.17,79.36 89.17,79.47 89.06,79.58 89.06,79.7 88.95,79.7 88.95,79.58 
	88.84,79.58 88.84,79.7 88.73,79.7 88.73,79.81 88.61,79.92 88.5,79.92 88.5,80.03 88.39,80.03 88.28,80.03 88.16,80.03 
	87.94,80.03 87.94,80.14 87.83,80.14 87.72,80.26 87.6,80.26 87.49,80.26 87.38,80.14 87.27,80.14 87.16,80.03 87.04,80.03 
	87.04,80.14 86.82,80.14 86.71,80.26 86.6,80.26 86.48,80.26 86.37,80.26 86.26,80.26 86.26,80.37 86.26,80.48 86.15,80.48 
	86.15,80.59 86.15,80.71 86.26,80.82 86.26,80.93 86.26,81.04 86.26,81.15 86.26,81.27 86.26,81.38 86.15,81.38 86.15,81.49 
	86.15,81.6 86.03,81.6 86.03,81.71 85.92,81.71 86.03,81.71 85.92,81.83 85.92,81.94 85.81,81.94 85.81,82.05 85.81,82.16 
	85.7,82.16 85.59,82.16 85.47,82.16 85.36,82.27 85.25,82.27 85.25,82.39 85.14,82.39 85.03,82.39 85.03,82.5 85.03,82.61 
	85.03,82.72 84.91,82.83 84.8,82.83 84.8,82.95 84.69,82.95 84.58,82.95 84.47,82.95 84.35,82.95 84.24,82.95 84.13,82.83 
	84.13,82.72 84.02,82.72 83.91,82.72 83.79,82.72 83.68,82.83 83.57,82.83 83.46,82.95 83.34,82.95 83.23,83.06 83.12,83.17 
	83.01,83.17 82.78,83.28 82.67,83.4 82.56,83.4 82.34,83.51 82.22,83.62 82.11,83.73 82.11,83.84 82.22,83.96 82.22,84.07 
	82.34,84.18 82.34,84.29 82.45,84.4 82.45,84.52 82.56,84.63 82.56,84.85 82.56,84.96 82.67,84.96 82.67,85.08 82.78,85.19 
	82.78,85.3 82.9,85.64 83.01,85.86 83.12,85.97 83.12,86.09 83.12,86.2 83.12,86.31 83.12,86.42 83.23,86.53 83.23,86.65 
	83.23,86.76 83.34,86.76 83.46,86.76 83.57,86.87 83.68,86.98 84.02,87.09 84.24,87.21 84.35,87.32 84.47,87.32 84.58,87.43 
	84.58,87.54 84.69,87.54 84.69,87.77 84.69,87.65 84.58,87.77 84.58,87.88 84.47,87.88 84.35,87.88 84.24,87.88 84.24,87.99 
	84.24,88.1 84.35,88.1 84.35,88.22 84.24,88.22 84.24,88.33 84.13,88.33 84.13,88.44 84.02,88.55 83.91,88.55 83.79,88.55 
	83.79,88.66 83.91,88.78 84.02,88.78 84.02,88.89 84.13,88.89 84.13,89 84.02,89 83.91,89 83.91,89.11 83.79,89.11 83.68,89.11 
	83.68,89 83.57,89 83.57,89.11 83.46,89.11 83.34,89.22 83.23,89.11 83.12,89.11 83.12,89.22 83.01,89.34 83.12,89.34 83.12,89.45 
	83.23,89.45 83.23,89.56 83.12,89.56 83.12,89.67 83.01,89.67 82.9,89.78 82.78,89.78 82.78,89.67 82.67,89.67 82.56,89.67 
	82.56,89.56 82.45,89.56 82.45,89.45 82.34,89.45 82.22,89.45 82.11,89.45 82.11,89.56 82,89.56 81.89,89.45 81.78,89.34 
	81.78,89.22 81.66,89.22 81.55,89.11 81.55,89.22 81.55,89.34 81.44,89.34 81.44,89.45 81.33,89.45 81.33,89.34 81.21,89.34 
	81.21,89.22 81.1,89.11 81.1,89 80.99,89 80.88,89.11 80.88,89.22 80.77,89.34 80.77,89.45 80.65,89.45 80.65,89.56 80.54,89.56 
	80.43,89.56 80.32,89.67 80.32,89.78 80.43,89.78 80.54,89.78 80.43,89.9 80.54,90.01 80.65,90.01 80.65,89.9 80.65,90.01 
	80.77,90.01 80.65,90.12 80.54,90.23 80.43,90.34 80.43,90.46 80.32,90.46 80.32,90.34 80.21,90.34 80.21,90.23 80.21,90.34 
	80.09,90.34 80.09,90.46 80.21,90.46 80.32,90.57 80.32,90.68 80.32,90.79 80.21,90.79 80.21,90.68 80.09,90.68 80.09,90.79 
	80.09,90.91 80.09,91.02 79.98,91.02 79.87,91.02 79.76,91.02 79.76,90.91 79.65,91.02 79.53,91.02 79.53,90.91 79.53,90.79 
	79.42,90.79 79.31,90.79 79.2,90.79 79.2,90.91 79.09,91.02 78.97,91.02 78.97,90.91 78.97,90.79 79.09,90.79 79.09,90.68 
	78.97,90.68 78.86,90.79 78.86,90.91 78.75,91.02 78.64,90.91 78.52,90.91 78.41,90.91 78.41,90.79 78.41,90.68 78.52,90.68 
	78.41,90.57 78.41,90.68 78.3,90.68 78.19,90.68 78.19,90.57 78.08,90.57 77.96,90.57 78.08,90.46 78.08,90.34 77.96,90.34 
	77.96,90.23 77.85,90.23 77.85,90.34 77.74,90.34 77.74,90.46 77.74,90.57 77.63,90.57 77.52,90.57 77.52,90.46 77.4,90.46 
	77.29,90.46 77.18,90.46 77.07,90.46 76.96,90.46 76.96,90.34 76.96,90.23 76.84,90.23 76.84,90.34 76.84,90.46 76.84,90.57 
	76.84,90.68 76.96,90.68 76.96,90.79 77.07,90.79 77.07,90.91 77.18,90.91 77.18,91.02 77.07,91.02 76.96,91.02 76.73,91.13 
	76.62,91.13 76.51,91.24 76.39,91.35 76.28,91.35 76.06,91.47 75.95,91.58 75.83,91.58 75.72,91.69 75.61,91.8 75.5,91.91 
	75.39,92.03 75.27,92.03 75.27,92.14 75.16,92.25 75.05,92.25 74.94,92.36 74.71,92.36 74.6,92.47 74.6,92.59 74.49,92.7 
	74.38,92.81 74.27,92.81 74.04,92.92 73.93,92.92 73.82,92.92 73.59,92.92 73.48,92.92 73.37,92.92 73.26,92.92 73.14,92.92 
	73.03,92.92 72.92,92.92 72.81,93.04 72.7,93.15 72.58,93.26 72.47,93.37 72.36,93.37 72.25,93.48 72.25,93.6 72.14,93.82 
	72.14,93.93 72.02,94.04 72.02,94.16 71.91,94.16 71.91,94.27 71.8,94.27 71.69,94.38 71.46,94.38 71.35,94.38 71.24,94.38 
	71.24,94.49 71.13,94.6 71.01,94.72 70.79,94.72 70.68,94.72 70.57,94.72 70.45,94.72 70.23,94.83 70.12,94.83 70.01,94.83 
	69.89,94.94 69.78,94.94 69.78,95.05 69.67,95.16 69.56,95.16 69.33,95.16 69.11,95.16 69,95.28 68.77,95.5 68.55,95.61 
	68.44,95.61 68.32,95.61 68.1,95.73 67.99,95.84 67.88,95.84 67.76,95.84 67.65,95.84 67.54,95.95 67.43,96.06 67.32,96.06 
	67.2,96.06 67.09,96.06 67.09,96.17 66.98,96.17 66.98,96.29 66.87,96.29 66.64,96.4 66.53,96.4 66.42,96.4 66.31,96.51 
	66.19,96.51 66.08,96.51 65.97,96.51 65.86,96.51 65.75,96.51 65.63,96.62 65.63,96.73 65.52,96.73 65.41,96.73 65.3,96.73 
	65.19,96.73 65.07,96.73 64.85,96.73 64.74,96.73 64.63,96.73 64.51,96.73 64.4,96.73 64.29,96.73 64.06,96.73 63.95,96.73 
	63.84,96.85 63.73,96.85 63.62,96.85 63.39,96.85 63.28,96.85 63.17,96.85 63.06,96.85 62.94,96.73 62.83,96.62 62.72,96.62 
	62.61,96.51 62.5,96.29 62.5,96.17 62.38,96.06 62.27,95.95 62.16,95.84 62.16,95.61 62.05,95.5 62.05,95.39 61.93,95.28 
	61.93,95.16 61.82,95.05 61.82,94.94 61.71,94.94 61.6,94.83 61.49,94.72 61.37,94.6 61.26,94.49 61.15,94.38 61.04,94.27 
	60.93,94.27 60.7,94.16 60.7,94.04 60.81,93.93 60.93,93.82 61.04,93.71 61.04,93.6 61.15,93.48 61.26,93.48 61.37,93.37 
	61.49,93.37 61.6,93.37 61.71,93.37 61.93,93.48 62.05,93.6 62.16,93.6 62.16,93.71 62.38,93.71 62.5,93.82 62.61,93.82 
	62.72,93.93 62.72,93.82 62.72,93.71 62.72,93.6 62.83,93.48 62.83,93.37 62.72,93.37 62.61,93.37 62.61,93.26 62.72,93.15 
	62.72,93.04 62.72,92.92 62.61,92.92 62.61,92.81 62.5,92.81 62.27,92.59 62.16,92.47 62.05,92.47 62.05,92.36 61.93,92.25 
	61.82,92.25 61.82,92.14 61.93,92.03 61.82,91.91 61.71,92.03 61.6,92.03 61.49,92.03 61.37,92.03 61.37,91.91 61.49,91.91 
	61.49,91.8 61.37,91.69 61.26,91.69 61.26,91.58 61.15,91.58 61.04,91.58 61.04,91.47 60.93,91.47 60.93,91.35 60.81,91.24 
	60.81,91.13 60.93,91.02 60.81,91.02 60.81,90.91 60.81,90.79 60.81,90.68 60.81,90.79 60.7,90.79 60.7,90.91 60.7,91.02 
	60.59,90.91 60.48,90.79 60.48,90.68 60.48,90.57 60.48,90.46 60.48,90.34 60.59,90.34 60.59,90.23 60.7,90.23 60.7,90.12 
	60.59,90.12 60.48,90.12 60.37,90.12 60.37,90.23 60.25,90.23 60.25,90.12 60.14,90.12 60.14,90.01 60.14,89.9 60.14,89.78 
	60.14,89.67 60.03,89.56 60.03,89.45 60.14,89.45 60.25,89.45 60.37,89.45 60.37,89.34 60.25,89.34 60.14,89.34 60.14,89.22 
	60.14,89.11 60.25,89.11 60.37,89.11 60.37,89 60.37,88.78 60.37,88.66 60.25,88.66 60.25,88.55 60.14,88.55 60.03,88.44 
	60.03,88.33 60.14,88.33 60.14,88.22 60.14,88.1 60.14,87.99 60.25,87.88 60.25,87.77 60.25,87.65 60.25,87.54 60.37,87.54 
	60.37,87.43 60.37,87.32 60.48,87.32 60.48,87.21 60.48,87.09 60.37,86.98 60.37,86.87 60.37,86.76 60.25,86.65 60.37,86.53 
	60.37,86.42 60.37,86.31 60.48,86.31 60.48,86.2 60.48,86.09 60.59,86.09 60.48,86.09 60.48,85.97 60.48,85.86 60.59,85.86 
	60.7,85.86 60.7,85.97 60.81,85.97 60.93,85.97 60.93,85.86 60.81,85.86 60.7,85.75 60.7,85.64 60.7,85.52 60.59,85.52 60.59,85.41 
	60.59,85.3 60.7,85.19 60.7,85.08 60.81,85.08 60.93,85.08 60.93,84.96 60.81,84.96 60.7,84.96 60.59,84.96 60.48,84.96 
	60.37,84.96 60.37,84.85 60.37,84.74 60.25,84.63 60.25,84.52 60.14,84.52 60.03,84.52 60.03,84.4 59.92,84.4 59.92,84.29 
	59.92,84.18 59.81,84.07 59.81,83.96 59.81,83.84 59.81,83.73 59.81,83.62 59.69,83.62 59.69,83.51 59.69,83.4 59.58,83.4 
	59.47,83.4 59.47,83.28 59.58,83.28 59.58,83.17 59.69,83.17 59.69,83.06 59.69,82.95 59.69,82.83 59.81,82.72 59.81,82.61 
	59.81,82.5 59.81,82.39 59.69,82.39 59.69,82.27 59.58,82.27 59.47,82.16 59.36,82.16 59.36,82.05 59.36,81.94 59.36,81.83 
	59.36,81.71 59.24,81.71 59.24,81.6 59.13,81.6 59.13,81.49 59.02,81.49 59.02,81.38 58.91,81.27 58.8,81.15 58.68,81.04 
	58.68,80.93 58.68,80.82 58.57,80.71 58.57,80.59 58.46,80.59 58.46,80.48 58.46,80.37 58.46,80.26 58.57,80.26 58.46,80.14 
	58.46,80.03 58.35,80.03 58.35,79.92 58.35,79.81 58.24,79.81 58.12,79.7 58.12,79.58 58.12,79.47 58.12,79.36 58.01,79.36 
	58.01,79.25 58.01,79.14 57.9,79.02 57.9,78.91 57.9,78.8 57.9,78.69 57.9,78.58 57.9,78.46 58.01,78.46 58.01,78.35 58.12,78.35 
	58.12,78.24 58.12,78.13 58.01,78.24 57.9,78.24 57.9,78.35 57.79,78.35 57.68,78.24 57.56,78.13 57.45,78.02 57.34,78.02 
	57.34,77.9 57.34,78.02 57.34,78.13 57.23,78.13 57.11,78.13 57,78.13 56.89,78.02 56.89,77.9 56.78,77.9 56.78,78.02 56.78,78.13 
	56.78,78.24 56.78,78.35 56.67,78.35 56.67,78.46 56.55,78.46 56.55,78.58 56.55,78.69 56.44,78.8 56.33,79.02 56.33,79.14 
	56.33,79.25 56.22,79.25 56.11,79.25 56.11,79.36 55.99,79.47 55.99,79.58 55.99,79.7 55.99,79.81 56.11,79.81 56.11,79.92 
	55.99,80.03 55.99,80.14 55.99,80.26 55.88,80.26 55.88,80.37 55.88,80.48 55.88,80.59 55.77,80.71 55.66,80.82 55.55,80.93 
	55.55,81.04 55.43,81.04 55.32,81.04 55.21,80.93 55.1,80.93 54.99,80.93 54.87,80.93 54.87,81.04 54.87,81.15 54.76,81.15 
	54.65,81.27 54.54,81.27 54.42,81.27 54.42,81.15 54.31,81.15 54.2,81.15 54.2,81.27 54.2,81.38 54.09,81.38 54.09,81.49 
	53.98,81.49 53.98,81.6 53.98,81.71 53.98,81.83 53.86,81.83 53.75,81.83 53.64,81.94 53.53,81.94 53.53,82.05 53.42,82.05 
	53.42,81.94 53.3,81.94 53.19,81.94 53.08,81.94 52.97,81.94 52.86,81.83 52.74,81.71 52.74,81.6 52.63,81.49 52.63,81.38 
	52.52,81.38 52.41,81.38 52.29,81.38 52.18,81.27 52.07,81.38 51.96,81.38 51.96,81.27 51.85,81.15 51.73,81.04 51.73,80.93 
	51.73,80.82 51.62,80.82 51.62,80.71 51.62,80.59 51.62,80.48 51.62,80.37 51.51,80.37 51.51,80.26 51.51,80.14 51.51,80.03 
	51.51,79.92 51.4,79.92 51.4,79.81 51.29,79.81 51.29,79.7 51.17,79.7 51.06,79.58 50.95,79.58 50.95,79.47 50.84,79.47 
	50.84,79.36 50.95,79.36 50.95,79.25 50.95,79.02 50.95,78.91 50.95,78.8 50.95,78.69 50.84,78.58 50.73,78.46 50.61,78.46 
	50.61,78.35 50.61,78.24 50.73,78.24 50.73,78.13 50.84,78.13 50.84,78.02 50.84,77.9 50.73,77.79 50.73,77.68 50.73,77.57 
	50.61,77.45 50.5,77.45 50.39,77.45 50.28,77.45 50.17,77.34 50.17,77.23 50.05,77.23 50.05,77.34 50.17,77.34 50.17,77.45 
	50.05,77.45 49.94,77.45 49.83,77.45 49.72,77.45 49.72,77.34 49.6,77.34 49.49,77.23 49.38,77.23 49.38,77.34 49.27,77.34 
	49.27,77.23 49.27,77.12 49.27,77.01 49.16,77.01 49.16,76.89 49.04,76.89 49.04,76.78 48.93,76.67 48.82,76.67 48.82,76.56 
	48.71,76.45 48.6,76.45 48.48,76.45 48.37,76.33 48.37,76.22 48.26,76.22 48.15,76.11 48.04,76.11 48.04,76 47.92,76 48.04,76 
	47.92,76 47.81,76.11 47.7,76.22 47.59,76.33 47.47,76.22 47.36,76 47.36,75.89 47.36,75.77 47.36,75.66 47.36,75.44 47.25,75.32 
	47.14,75.21 47.03,75.1 46.91,74.99 46.91,74.88 46.8,74.99 46.69,74.99 46.69,74.88 46.58,74.88 46.47,74.88 46.35,74.76 
	46.24,74.88 46.13,74.88 46.13,74.99 46.02,74.99 46.02,75.21 46.13,75.21 46.13,75.44 46.02,75.44 45.91,75.44 45.68,75.44 
	45.57,75.44 45.46,75.66 45.35,75.66 45.23,75.66 45.23,75.77 45.12,75.89 45.12,76 45.01,76.11 44.9,76.22 44.78,76.33 
	44.67,76.33 44.56,76.33 44.45,76.33 44.34,76.33 44.22,76.33 44.11,76.22 44,76.11 44,75.89 43.89,75.89 43.78,75.77 43.66,75.77 
	43.44,75.77 43.33,75.66 43.22,75.55 43.1,75.44 42.88,75.32 42.88,75.21 42.77,75.1 42.65,74.99 42.54,74.99 42.32,75.1 
	42.21,75.21 42.09,75.21 41.98,75.32 41.87,75.44 41.76,75.55 41.76,75.77 41.65,75.89 41.53,75.89 41.31,75.89 41.2,75.77 
	41.09,75.77 40.86,75.66 40.75,75.55 40.75,75.44 40.64,75.32 40.52,75.32 40.41,75.32 40.19,75.32 40.08,75.44 40.08,75.55 
	39.85,75.66 39.74,75.66 39.63,75.66 39.52,75.66 39.4,75.66 39.18,75.66 39.07,75.66 38.96,75.55 38.73,75.44 38.73,75.55 
	38.62,75.66 38.62,75.77 38.62,75.89 38.51,76 38.4,76.22 38.4,76.45 38.28,76.45 38.17,76.45 37.95,76.45 37.83,76.45 37.72,76.45 
	37.5,76.11 37.5,76 37.39,76 37.27,75.89 37.16,75.77 37.16,75.66 37.05,75.55 37.05,75.44 36.94,75.32 36.94,75.21 36.71,75.1 
	36.6,75.1 36.49,75.21 36.38,75.21 36.15,75.32 36.04,75.32 35.82,75.1 35.7,75.21 35.59,75.32 35.48,75.44 35.37,75.55 
	35.26,75.55 35.14,75.66 34.92,75.77 34.81,75.77 34.81,75.66 34.81,75.55 34.81,75.32 34.81,75.21 34.81,75.1 34.7,74.99 
	34.58,74.99 34.47,74.99 34.36,75.1 34.25,75.21 34.14,75.32 34.02,75.44 33.8,75.44 33.57,75.32 33.46,75.21 33.35,75.1 
	33.24,74.99 33.13,74.88 33.13,74.76 33.24,74.65 33.13,74.54 33.01,74.54 32.9,74.43 32.68,74.32 32.68,74.2 32.45,74.2 
	32.23,73.98 31.89,73.64 31.78,73.31 31.67,72.97 31.56,72.97 31.33,72.63 31.11,72.63 30.66,72.97 29.88,73.2 29.65,73.42 
	29.65,73.87 29.88,74.09 29.99,74.43 29.88,74.65 29.76,74.76 29.76,74.88 29.76,74.99 29.76,75.32 29.43,75.66 29.09,76.22 
	28.87,76.78 28.19,77.68 28.19,77.79 28.08,77.9 27.97,78.02 27.97,78.13 27.97,78.24 27.97,78.35 27.97,78.46 27.97,78.58 
	27.97,78.69 27.86,78.8 26.85,79.14 26.74,79.14 26.63,79.14 26.51,79.14 26.4,79.14 26.18,79.14 26.06,79.14 25.95,79.25 
	25.84,79.36 25.84,79.47 25.73,79.47 25.62,79.47 25.5,79.58 25.39,79.58 25.17,79.58 25.06,79.58 25.06,79.7 24.94,79.7 
	24.83,79.81 24.72,79.92 24.72,80.03 24.61,80.03 24.61,80.26 24.5,80.26 24.5,80.37 24.5,80.59 24.38,80.59 24.38,80.71 
	24.5,80.71 24.5,80.82 24.38,80.82 24.27,80.93 24.27,81.04 24.27,81.15 24.38,81.15 24.5,81.15 24.5,81.27 24.5,81.15 24.38,81.15 
	24.27,81.27 24.38,81.38 24.38,81.49 24.5,81.49 24.5,81.38 24.5,81.49 24.5,81.6 24.38,81.6 24.38,81.71 24.5,81.71 24.5,81.83 
	24.5,81.94 24.5,82.16 24.5,82.27 24.5,82.39 24.5,82.5 24.5,82.61 24.5,82.72 24.5,82.83 24.5,82.95 24.61,83.06 24.61,83.17 
	24.61,83.28 24.61,83.4 24.61,83.51 24.61,83.62 24.61,83.73 24.61,83.84 24.61,83.96 24.61,84.07 24.61,84.18 24.61,84.29 
	24.61,84.4 24.61,84.52 24.61,84.74 24.72,84.74 24.72,84.85 24.72,84.96 24.72,85.08 24.72,85.19 24.72,85.3 24.61,85.41 
	24.61,85.52 24.72,85.64 24.72,85.75 24.61,85.75 24.61,85.86 24.5,85.86 24.5,85.97 24.38,85.97 24.38,86.09 24.38,86.2 
	24.27,86.2 24.27,86.31 24.27,86.42 24.27,86.53 24.27,86.65 24.27,86.76 24.16,86.87 24.05,86.98 24.05,87.09 24.05,87.32 
	24.05,87.43 23.93,87.43 23.82,87.43 23.71,87.54 23.6,87.65 23.49,87.65 23.37,87.77 23.26,87.77 23.15,87.77 23.04,87.77 
	22.93,87.77 22.81,87.77 22.81,87.88 22.7,87.88 22.59,87.88 22.48,87.88 22.37,87.88 22.37,87.77 22.25,87.77 22.14,87.65 
	22.03,87.65 21.92,87.65 21.81,87.65 21.69,87.77 21.58,87.65 21.69,87.65 21.69,87.54 21.69,87.43 21.81,87.21 21.81,87.09 
	21.81,86.98 21.81,86.87 21.92,86.76 21.92,86.53 21.92,86.42 21.92,86.31 21.81,86.2 21.69,86.09 21.58,86.09 21.47,85.97 
	21.36,85.97 21.24,85.97 21.02,85.97 20.91,85.97 20.8,85.86 20.68,85.86 20.57,85.86 20.46,85.86 20.35,85.97 20.24,85.97 
	20.12,85.97 20.01,85.86 20.01,85.97 19.9,85.97 19.79,85.97 19.79,85.86 19.68,85.86 19.56,85.75 19.45,85.75 19.34,85.64 
	19.23,85.52 19.11,85.41 19.11,85.3 19.11,85.19 19.11,85.08 19.11,84.96 19.23,84.96 19.34,84.96 19.45,84.85 19.56,84.85 
	19.68,84.85 19.68,84.74 19.79,84.63 19.9,84.52 20.12,84.4 20.24,84.4 20.35,84.29 20.46,84.29 20.46,84.4 20.57,84.4 20.68,84.4 
	20.68,84.29 20.57,84.18 20.57,84.07 20.57,83.96 20.35,83.84 20.35,83.73 20.24,83.62 20.12,83.51 20.12,83.4 20.12,83.28 
	20.24,83.17 20.24,83.06 20.35,83.06 20.46,83.06 20.46,82.95 20.35,82.95 20.35,82.83 20.12,82.72 20.01,82.5 20.01,82.39 
	20.01,82.27 20.12,82.27 20.12,82.16 20.24,82.16 20.24,82.05 20.24,81.94 20.12,81.71 20.24,81.6 20.24,81.49 20.24,81.38 
	20.24,81.27 20.35,81.04 20.46,80.93 20.46,80.82 20.57,80.71 20.57,80.48 20.68,80.48 20.68,80.37 20.8,80.26 20.8,80.14 
	20.8,80.03 20.68,79.92 20.68,79.7 20.8,79.58 20.91,79.58 21.02,79.47 21.02,79.36 21.02,79.25 20.91,79.14 20.91,79.02 
	20.8,78.91 20.8,78.8 20.8,78.69 20.8,78.46 20.91,78.24 20.91,78.13 20.91,78.02 20.8,77.9 20.68,77.79 20.8,77.79 20.91,77.68 
	20.91,77.34 20.91,77.23 20.91,77.12 20.8,77.01 20.8,76.78 20.8,76.67 20.57,76.56 20.46,76.45 20.46,76.33 20.46,76.22 
	20.35,76.11 20.46,76.11 20.46,76 20.46,75.89 20.57,75.77 20.68,75.66 20.68,75.55 20.8,75.44 20.8,75.32 20.8,75.21 20.8,75.1 
	20.68,75.1 20.57,75.1 20.46,74.99 20.57,74.88 20.68,74.65 20.8,74.54 20.8,74.43 20.8,74.32 20.8,74.2 20.68,74.2 20.57,73.98 
	20.46,73.87 20.46,73.76 20.57,73.76 20.68,73.76 20.8,73.87 21.02,73.98 21.13,73.98 21.24,73.87 21.36,73.87 21.47,73.87 
	21.58,73.87 21.69,73.76 21.69,73.64 21.69,73.42 21.69,73.31 21.69,73.2 21.81,72.86 21.81,72.75 21.92,72.63 21.92,72.52 
	22.03,72.52 22.03,72.41 22.14,72.41 22.14,72.3 22.14,72.19 22.14,72.07 22.14,71.74 22.25,71.29 22.14,71.18 22.14,71.07 
	22.03,71.07 22.03,70.95 22.03,70.84 22.03,70.73 22.03,70.62 22.14,70.5 22.25,70.39 22.25,70.28 22.14,70.28 22.14,70.17 
	22.14,70.06 22.14,69.94 22.03,69.83 22.03,69.72 22.03,69.61 22.03,69.5 22.14,69.38 22.14,69.27 22.25,69.16 22.25,69.05 
	22.25,68.94 22.37,68.82 22.48,68.71 22.48,68.6 22.59,68.6 22.93,68.49 23.15,68.26 23.26,68.15 23.26,68.04 23.37,67.7 
	23.49,67.48 23.71,67.37 23.82,67.37 23.82,67.25 23.93,67.25 23.93,67.14 23.93,67.03 24.05,66.58 24.05,66.47 24.05,66.25 
	24.05,66.02 24.05,65.91 23.93,65.91 23.82,65.8 23.71,65.57 23.49,65.35 23.37,65.24 23.26,65.12 23.04,64.9 23.04,64.79 
	22.93,64.68 22.81,64.56 22.81,64.45 22.81,64.34 22.81,64.23 22.81,64.12 22.7,64 22.7,63.89 22.59,63.89 22.59,63.78 22.48,63.67 
	22.37,63.56 22.37,63.44 22.25,63.44 22.25,63.33 22.25,63.22 22.25,63.11 22.37,62.99 22.37,62.88 22.25,62.88 22.14,62.88 
	22.03,62.88 21.92,62.88 21.69,62.88 21.58,62.99 21.47,62.88 21.24,62.99 21.13,62.99 21.02,62.88 20.91,62.99 20.68,62.88 
	20.57,62.88 20.24,62.77 20.24,62.66 20.12,62.66 20.12,62.55 20.01,62.43 19.34,61.87 19.34,61.76 18.78,61.09 18.78,60.98 
	18.67,60.98 18.55,60.98 18.44,60.98 18.33,60.98 18.22,60.98 18.11,60.98 18.11,60.86 17.99,60.86 17.88,60.75 17.77,60.64 
	17.77,60.53 17.66,60.42 17.66,60.3 17.55,60.3 17.55,60.19 17.66,60.08 17.66,59.97 17.66,59.86 17.66,59.74 17.55,59.74 
	17.55,59.52 17.43,59.52 17.43,59.41 17.32,59.41 17.21,59.41 17.1,59.3 16.99,59.3 16.87,59.3 16.65,59.07 16.54,59.07 
	16.42,59.07 16.31,59.18 16.2,59.3 16.2,59.18 16.09,59.18 15.98,59.18 15.86,59.18 15.75,59.18 15.64,59.18 15.53,59.18 
	15.42,59.18 15.3,59.07 15.19,59.07 15.08,59.07 14.86,59.3 14.74,59.3 14.63,59.3 14.52,59.3 14.29,59.41 14.18,59.41 14.18,59.3 
	14.07,59.3 13.96,59.3 13.85,59.3 13.73,59.18 13.62,59.07 13.51,59.07 13.51,59.18 13.4,59.18 13.4,59.3 13.4,59.41 13.29,59.41 
	13.17,59.41 13.06,59.41 12.95,59.41 12.84,59.41 12.73,59.41 12.61,59.52 12.61,59.41 12.5,59.41 12.5,59.3 12.39,59.3 12.28,59.3 
	12.17,59.3 12.05,59.3 12.05,59.18 11.94,59.18 11.94,59.07 11.83,59.07 11.72,59.07 11.72,58.96 11.72,58.85 11.72,58.74 
	11.72,58.62 11.72,58.51 11.72,58.4 11.83,58.17 11.83,57.95 11.83,57.84 11.83,57.73 11.83,57.61 11.83,57.5 11.72,57.5 
	11.72,57.39 11.72,57.28 11.83,57.17 11.83,57.05 11.83,56.94 11.72,56.94 11.6,56.83 11.6,56.72 11.6,56.61 11.72,56.61 
	11.72,56.49 11.72,56.38 11.72,56.27 11.83,56.27 11.83,56.16 11.83,56.05 11.94,55.93 11.94,55.82 11.83,55.82 11.83,55.71 
	11.83,55.6 11.83,55.48 11.83,55.26 11.94,55.15 11.94,55.04 12.05,55.04 12.05,55.15 12.17,55.15 12.17,55.04 12.17,54.92 
	12.05,54.81 12.05,54.7 12.17,54.59 12.17,54.48 12.17,54.36 12.05,54.36 12.05,54.25 12.17,54.14 12.17,54.03 12.28,54.03 
	12.28,53.92 12.17,53.92 12.05,53.8 12.05,53.69 12.17,53.69 12.17,53.58 12.05,53.47 12.05,53.35 12.05,53.24 11.94,53.13 
	11.83,53.13 11.83,53.02 11.72,53.02 11.72,52.91 11.72,52.79 11.72,52.68 11.72,52.57 11.83,52.46 11.83,52.35 11.72,52.23 
	11.72,52.12 11.72,51.9 11.6,51.9 11.49,51.9 11.38,51.9 11.27,51.79 11.27,51.67 11.16,51.67 11.04,51.67 11.04,51.56 10.93,51.56 
	10.82,51.56 10.71,51.45 10.6,51.34 10.48,51.23 10.37,51.23 10.37,51.11 10.37,51 10.37,51.11 10.26,51.23 10.15,51.23 
	10.15,51.34 10.04,51.34 9.92,51.34 9.81,51.45 9.81,51.56 9.7,51.67 9.59,51.79 9.47,51.79 9.47,51.9 9.36,51.9 9.25,51.9 
	9.25,52.01 9.14,52.01 9.03,52.01 8.91,52.01 8.8,51.9 8.69,51.9 8.47,51.79 8.35,51.79 8.13,51.9 8.02,52.01 7.91,52.01 7.91,51.9 
	7.91,51.79 7.91,51.67 7.79,51.67 7.68,51.67 7.68,51.79 7.57,51.79 7.57,51.67 7.46,51.45 7.35,51.34 7.12,51.23 7.01,51.23 
	7.01,51.11 7.01,51 6.9,51 6.78,51 6.67,51 6.67,50.89 6.67,50.78 6.56,50.66 6.56,50.44 6.56,50.33 6.56,50.1 6.56,49.99 
	6.67,49.88 6.78,49.77 6.9,49.77 6.9,49.66 7.01,49.54 7.12,49.54 7.12,49.43 7.23,49.43 7.23,49.32 7.12,49.1 7.12,48.98 
	7.23,48.87 7.23,48.76 7.23,48.65 7.35,48.65 7.35,48.53 7.57,48.42 7.68,48.31 7.91,48.09 8.13,47.97 8.35,47.75 8.58,47.64 
	8.69,47.3 8.69,47.08 8.91,46.85 8.8,46.74 8.58,46.63 8.47,46.41 8.47,46.18 8.35,45.84 8.24,45.73 8.24,45.51 8.35,45.28 
	8.58,44.39 8.8,43.94 9.03,43.71 9.25,43.49 9.47,43.15 9.7,43.04 9.81,43.04 9.92,43.04 10.15,42.93 10.37,42.82 10.6,42.71 
	10.82,42.71 10.93,42.71 10.93,42.82 11.04,42.93 11.04,43.04 11.04,43.15 11.16,43.15 11.27,43.15 11.27,43.27 11.38,43.27 
	11.49,43.27 11.49,43.38 11.6,43.38 11.6,43.27 11.72,43.27 11.72,43.38 11.72,43.49 11.72,43.6 11.6,43.6 11.6,43.71 11.49,43.71 
	11.49,43.83 11.6,43.83 11.72,43.83 12.05,43.94 12.17,44.05 12.17,44.16 12.39,44.16 12.5,44.16 12.5,44.05 12.61,44.05 
	12.61,44.16 12.61,44.28 12.73,44.28 12.73,44.16 12.84,44.16 12.95,44.16 13.06,44.16 13.06,44.05 13.17,43.94 13.29,43.94 
	13.4,43.94 13.51,43.94 13.62,43.94 13.73,43.83 13.85,43.83 13.85,43.94 13.96,43.94 13.96,43.83 14.07,43.83 14.07,43.94 
	14.18,43.94 14.29,43.83 14.41,43.83 14.52,43.83 14.63,43.83 14.74,43.83 14.74,43.94 14.74,44.05 14.86,44.05 14.97,44.05 
	15.08,44.16 15.19,44.16 15.3,44.16 15.3,44.05 15.3,43.94 15.42,43.94 15.53,43.94 15.53,44.05 15.64,44.05 15.64,44.16 
	15.75,44.28 15.86,44.39 15.98,44.39 16.09,44.39 16.2,44.28 16.31,44.39 16.42,44.39 16.54,44.5 16.65,44.5 16.76,44.61 
	16.76,44.72 16.76,44.84 16.87,44.84 16.99,44.84 17.1,44.84 17.1,44.95 17.21,44.95 17.32,44.95 17.43,44.95 17.55,44.95 
	17.66,44.95 17.66,44.84 17.77,44.84 17.77,44.95 17.88,44.95 17.99,44.95 17.99,44.84 18.11,44.84 18.11,44.95 18.22,44.95 
	18.33,44.95 18.44,44.95 18.33,44.95 18.33,45.06 18.33,45.17 18.44,45.28 18.55,45.28 18.55,45.4 18.67,45.4 18.78,45.4 
	18.89,45.51 19,45.51 19.11,45.51 19.11,45.62 19.23,45.62 19.34,45.62 19.34,45.73 19.45,45.84 19.45,45.96 19.56,45.96 
	19.56,45.84 19.56,45.73 19.68,45.73 19.68,45.62 19.79,45.73 19.79,45.84 19.79,45.96 19.79,46.07 19.79,46.18 19.79,46.29 
	19.79,46.41 19.79,46.52 19.79,46.63 19.9,46.74 20.01,46.74 20.12,46.74 20.24,46.74 20.35,46.74 20.35,46.85 20.46,46.85 
	20.57,46.85 20.68,46.85 20.68,46.97 20.68,47.08 20.68,47.19 20.68,47.41 20.68,47.53 20.8,47.64 20.8,47.75 20.8,47.86 
	20.91,47.75 20.91,47.64 21.02,47.64 21.13,47.75 21.24,47.86 21.36,47.97 21.47,48.09 21.58,48.2 21.58,48.31 21.69,48.31 
	21.81,48.31 21.92,48.42 22.03,48.42 22.03,48.31 22.14,48.31 22.25,48.31 22.25,48.2 22.37,48.2 22.48,48.2 22.59,48.2 
	22.59,48.09 22.7,48.09 22.81,48.09 22.93,48.09 23.15,47.97 23.26,47.97 23.37,47.97 23.37,48.09 23.37,48.2 23.26,48.2 
	23.15,48.31 23.04,48.31 23.04,48.42 23.15,48.42 23.26,48.42 23.26,48.53 23.15,48.53 23.15,48.65 23.04,48.65 22.93,48.65 
	22.93,48.76 22.81,48.76 22.81,48.87 22.93,48.87 22.93,48.98 22.93,48.87 23.04,48.87 23.15,48.98 23.26,48.98 23.26,49.1 
	23.37,49.1 23.49,49.1 23.6,49.1 23.71,49.1 23.71,49.21 23.71,49.32 23.82,49.32 23.82,49.43 23.93,49.54 23.93,49.66 23.82,49.77 
	23.82,49.88 23.93,49.88 23.93,49.99 24.05,49.99 24.16,49.99 24.27,49.99 24.27,49.88 24.38,49.88 24.38,49.77 24.5,49.77 
	24.5,49.66 24.61,49.66 24.72,49.66 24.72,49.77 24.83,49.77 24.94,49.77 25.06,49.77 25.17,49.77 25.28,49.66 25.39,49.66 
	25.5,49.66 25.5,49.77 25.5,49.88 25.39,49.88 25.28,49.88 25.17,49.88 25.06,49.88 25.17,49.99 25.17,50.1 25.17,50.22 
	25.17,50.33 25.28,50.33 25.39,50.33 25.5,50.33 25.62,50.33 25.62,50.22 25.73,50.22 25.84,50.22 25.95,50.22 25.95,50.1 
	25.95,49.99 26.06,49.99 26.18,49.99 26.18,50.1 26.18,50.22 26.18,50.33 26.18,50.44 26.18,50.55 26.29,50.66 26.29,50.78 
	26.4,50.78 26.51,50.78 26.63,50.78 26.74,50.78 26.85,50.78 26.96,50.78 27.07,50.78 27.07,50.66 27.19,50.66 27.19,50.55 
	27.3,50.55 27.19,50.44 27.19,50.33 27.19,50.22 27.3,50.1 27.3,49.99 27.41,49.88 27.52,49.88 27.52,49.77 27.41,49.77 27.3,49.77 
	27.19,49.66 27.19,49.54 27.3,49.54 27.3,49.43 27.19,49.32 27.19,49.21 27.19,49.1 27.3,49.1 27.41,49.1 27.52,49.1 27.52,48.98 
	27.63,48.98 27.75,48.98 27.86,48.98 27.86,48.87 27.97,48.87 28.08,48.87 28.19,48.87 28.31,48.76 28.42,48.65 28.42,48.53 
	28.42,48.42 28.53,48.42 28.42,48.31 28.31,48.31 28.31,48.42 28.19,48.42 28.19,48.31 28.31,48.2 28.31,48.09 28.19,48.09 
	28.19,47.97 28.19,47.86 28.31,47.86 28.31,47.75 28.19,47.75 28.08,47.75 28.19,47.64 28.19,47.53 28.08,47.53 28.08,47.41 
	28.08,47.3 28.08,47.19 27.97,47.08 27.97,46.97 28.08,46.85 28.19,46.85 28.31,46.85 28.42,46.85 28.42,46.74 28.42,46.63 
	28.53,46.63 28.64,46.63 28.64,46.52 28.75,46.52 28.87,46.52 28.98,46.52 29.09,46.52 29.2,46.52 29.32,46.52 29.43,46.52 
	29.54,46.52 29.65,46.52 29.76,46.52 29.88,46.52 29.99,46.52 30.1,46.52 30.21,46.52 30.32,46.52 30.32,46.41 30.44,46.41 
	30.55,46.29 30.66,46.29 30.77,46.29 30.88,46.29 31,46.29 31.11,46.29 31.22,46.18 31.33,46.18 31.33,46.07 31.33,45.96 
	31.33,45.84 31.33,45.73 31.45,45.62 31.45,45.51 31.45,45.4 31.45,45.28 31.56,45.28 31.56,45.17 31.45,45.06 31.45,44.95 
	31.56,44.95 31.67,44.95 31.78,45.06 31.89,45.06 32.01,45.06 32.12,45.06 32.12,44.95 32.23,44.84 32.23,44.72 32.23,44.61 
	32.34,44.61 32.34,44.5 32.45,44.5 32.45,44.39 32.45,44.28 32.45,44.16 32.45,44.05 32.45,43.94 32.45,43.83 32.45,43.71 
	32.57,43.6 32.57,43.49 32.57,43.38 32.68,43.27 32.79,43.15 32.9,43.15 32.9,43.04 33.01,42.93 33.01,42.82 33.13,42.71 
	33.13,42.59 33.24,42.59 33.24,42.48 33.24,42.37 33.24,42.26 33.13,42.26 33.13,42.15 33.13,42.03 33.24,42.03 33.35,41.92 
	33.46,41.81 33.46,41.7 33.57,41.7 33.57,41.59 33.69,41.59 33.8,41.47 33.91,41.47 33.91,41.36 34.02,41.36 34.02,41.25 
	34.14,41.25 34.14,41.14 34.25,41.14 34.25,41.25 34.36,41.25 34.36,41.36 34.47,41.47 34.47,41.36 34.58,41.25 34.58,41.14 
	34.81,40.8 34.81,40.69 34.81,40.58 34.92,40.46 34.92,40.35 35.03,40.35 35.14,40.35 35.14,40.24 35.14,40.13 35.14,40.02 
	35.26,40.02 35.37,39.9 35.48,39.9 35.48,39.79 35.59,39.79 35.7,39.68 35.82,39.68 35.93,39.79 36.04,39.79 36.15,39.79 
	36.27,39.68 36.27,39.57 36.38,39.46 36.38,39.34 36.38,39.23 36.38,39.12 36.27,39.12 36.15,39.01 36.04,38.9 36.04,38.78 
	36.04,38.67 36.04,38.56 36.15,38.56 36.27,38.56 36.38,38.56 36.49,38.56 36.6,38.45 36.71,38.45 36.83,38.45 36.94,38.45 
	36.94,38.33 37.05,38.33 37.05,38.22 37.16,38.22 37.27,38.22 37.39,38.22 37.39,38.33 37.5,38.33 37.61,38.33 37.72,38.33 
	37.83,38.22 37.95,38.22 37.95,38.11 37.95,38 38.06,38 38.17,38 38.28,38 38.4,38 38.51,38 38.62,38 38.73,37.89 38.73,37.77 
	38.84,37.66 38.96,37.55 39.07,37.44 39.18,37.33 39.29,37.1 39.29,36.99 39.29,36.88 39.4,36.77 39.4,36.65 39.52,36.54 
	39.63,36.54 39.63,36.65 39.74,36.65 39.85,36.77 39.96,36.65 40.08,36.65 40.3,36.54 40.41,36.54 40.52,36.54 40.52,36.43 
	40.52,36.2 40.52,36.09 40.52,35.98 40.52,35.87 40.52,35.76 40.64,35.64 40.64,35.53 40.75,35.42 40.86,35.53 41.09,35.53 
	41.2,35.64 41.31,35.76 41.42,35.76 41.53,35.87 41.65,35.87 41.76,35.98 41.76,36.09 41.87,36.2 41.87,36.32 41.87,36.43 
	41.98,36.43 42.09,36.43 42.09,36.32 42.21,36.32 42.21,36.2 42.21,36.09 42.32,36.09 42.43,36.09 42.43,35.98 42.43,35.87 
	42.43,35.76 42.32,35.64 42.32,35.53 42.21,35.42 42.21,35.31 42.32,35.2 42.43,35.08 42.54,34.97 42.65,34.86 42.65,34.75 
	42.77,34.64 42.88,34.64 42.99,34.64 43.1,34.64 43.22,34.52 43.33,34.52 43.55,34.52 43.66,34.52 43.78,34.41 43.78,34.3 
	43.78,34.19 43.66,34.08 43.55,33.96 43.44,33.96 43.33,33.85 43.22,33.74 42.99,33.74 42.88,33.63 42.77,33.63 42.65,33.63 
	42.54,33.74 42.43,33.74 42.32,33.74 42.32,33.85 42.09,33.85 41.98,33.85 41.98,33.74 41.87,33.63 41.76,33.63 41.65,33.51 
	41.65,33.4 41.76,33.29 41.87,33.29 41.87,33.18 41.98,33.07 42.09,32.95 42.21,32.95 42.32,32.95 42.43,32.95 42.54,32.95 
	42.77,32.95 42.88,32.95 42.88,33.07 42.99,33.07 42.88,33.07 42.88,33.18 42.88,33.29 42.99,33.4 43.1,33.29 43.22,33.29 
	43.1,33.18 43.1,33.07 43.22,32.95 43.22,32.84 43.33,32.84 43.44,32.84 43.55,32.95 43.66,32.95 43.78,33.07 43.89,33.07 44,33.07 
	44.11,33.18 44.22,33.18 44.34,33.18 44.45,33.07 44.56,33.07 44.56,33.18 44.56,33.29 44.67,33.29 44.67,33.4 44.78,33.4 
	44.78,33.29 44.78,33.18 44.78,33.07 44.78,32.95 44.9,32.84 45.01,32.84 45.12,32.84 45.23,32.73 45.23,32.62 45.23,32.51 
	45.23,32.39 45.23,32.28 45.35,32.28 45.35,32.17 45.46,32.17 45.57,32.17 45.68,32.17 45.79,32.28 45.91,32.28 45.91,32.17 
	46.02,32.17 46.02,32.06 46.02,31.95 45.91,31.95 45.79,31.83 45.79,31.72 45.91,31.72 46.02,31.72 46.13,31.72 46.24,31.61 
	46.35,31.61 46.47,31.61 46.58,31.61 46.58,31.5 46.69,31.5 46.8,31.39 46.91,31.39 46.91,31.27 47.03,31.27 47.03,31.39 
	47.14,31.39 47.14,31.5 47.14,31.61 47.03,31.61 47.03,31.72 46.91,31.72 46.8,31.83 46.69,31.83 46.58,31.83 46.58,31.95 
	46.58,32.06 46.58,32.17 46.58,32.28 46.69,32.28 46.69,32.39 46.8,32.39 46.91,32.39 47.03,32.39 47.14,32.28 47.25,32.28 
	47.36,32.17 47.47,32.17 47.47,32.28 47.59,32.28 47.59,32.39 47.47,32.39 47.47,32.51 47.36,32.62 47.25,32.73 47.25,32.84 
	47.25,32.95 47.25,33.07 47.25,33.18 47.25,33.29 47.25,33.4 47.14,33.4 47.14,33.51 47.25,33.51 47.25,33.63 47.36,33.63 
	47.47,33.63 47.59,33.63 47.7,33.51 47.7,33.4 47.7,33.29 47.7,33.18 47.81,33.07 47.81,32.95 47.81,32.84 47.81,32.73 47.81,32.62 
	47.92,32.51 48.04,32.39 48.15,32.39 48.26,32.39 48.26,32.28 48.26,32.17 48.15,32.06 48.04,32.06 48.04,31.95 47.92,31.95 
	47.92,31.83 47.92,31.72 48.04,31.61 48.15,31.61 48.15,31.72 48.26,31.72 48.26,31.61 48.37,31.61 48.37,31.5 48.37,31.39 
	48.37,31.27 48.48,31.27 48.6,31.16 48.71,31.16 48.71,31.05 48.82,31.05 48.93,30.94 48.93,30.82 49.04,30.82 49.16,30.71 
	49.16,30.6 49.27,30.6 49.38,30.6 49.38,30.49 49.49,30.49 49.49,30.38 49.49,30.26 49.49,30.15 49.6,30.15 49.6,30.26 49.72,30.26 
	49.83,30.38 49.94,30.38 50.05,30.38 50.17,30.38 50.28,30.38 50.39,30.38 50.5,30.26 50.61,30.26 50.73,30.15 50.73,30.04 
	50.84,29.93 50.84,29.82 50.95,29.7 51.06,29.59 51.06,29.48 51.17,29.48 51.29,29.37 51.4,29.37 51.51,29.37 51.62,29.37 
	51.85,29.37 51.96,29.37 52.07,29.48 52.18,29.48 52.29,29.48 52.41,29.59 52.52,29.59 52.63,29.59 52.74,29.7 52.74,29.59 
	52.74,29.48 52.74,29.37 52.74,29.26 52.74,29.14 52.63,29.14 52.63,29.03 52.52,28.92 52.52,28.81 52.41,28.69 52.29,28.47 
	52.29,28.36 52.18,28.36 52.07,28.25 51.96,28.13 51.85,28.13 51.85,28.02 51.73,28.02 51.62,28.02 51.62,28.13 51.51,28.13 
	51.4,28.13 51.29,28.13 51.29,28.02 51.29,27.91 51.29,27.8 51.29,27.69 51.4,27.57 51.4,27.46 51.4,27.35 51.29,27.35 51.29,27.24 
	51.4,27.13 51.4,27.01 51.51,27.01 51.51,26.9 51.62,26.79 51.62,26.68 51.73,26.68 51.73,26.57 51.85,26.45 51.85,26.34 
	51.96,26.23 52.07,26.12 52.07,25.89 52.18,25.78 52.18,25.56 52.29,25.44 52.29,25.22 52.29,25.11 52.29,25 52.29,24.88 
	52.29,24.77 52.29,24.55 52.41,24.44 52.52,24.32 52.52,24.21 52.63,24.1 52.74,24.1 52.86,24.1 52.97,24.21 53.08,24.21 
	53.08,24.32 53.19,24.44 53.19,24.55 53.19,24.77 53.3,24.88 53.3,25 53.42,25.22 53.53,25.33 53.64,25.44 53.75,25.44 53.86,25.33 
	53.98,25.33 54.09,25.22 54.2,25.22 54.31,25.11 54.42,25 54.42,24.88 54.54,24.77 54.54,24.66 54.54,24.55 54.65,24.44 
	54.65,24.21 54.76,24.21 54.76,23.99 54.87,23.87 54.99,23.76 54.99,23.65 54.99,23.43 54.99,23.31 54.99,23.2 54.99,22.98 
	54.99,22.87 54.99,22.75 55.1,22.64 55.21,22.64 55.21,22.53 55.32,22.53 55.32,22.42 55.43,22.42 55.43,22.53 55.55,22.53 
	55.66,22.53 55.77,22.53 55.88,22.53 55.99,22.53 56.11,22.42 56.22,22.31 56.33,22.31 56.55,22.31 56.67,22.31 56.78,22.31 
	56.89,22.31 57,22.31 57.11,22.31 57.23,22.31 57.34,22.31 57.45,22.19 57.56,22.19 57.68,22.19 57.79,22.08 57.9,22.08 
	58.01,21.97 58.12,21.97 58.35,21.86 58.46,21.86 58.57,21.86 58.68,21.75 58.91,21.75 59.02,21.63 59.13,21.52 59.24,21.52 
	59.47,21.41 59.58,21.3 59.69,21.3 59.81,21.18 60.03,21.18 60.14,21.18 60.25,21.18 60.37,21.18 60.48,21.18 60.59,21.18 
	60.7,21.3 60.81,21.41 60.81,21.63 60.93,21.75 61.04,21.86 61.15,21.86 61.37,21.75 61.6,21.52 61.71,21.41 61.82,21.3 
	61.93,21.18 62.05,21.07 62.16,20.96 62.27,20.85 62.38,20.74 62.38,20.62 62.5,20.51 62.5,20.4 62.61,20.29 62.61,20.06 
	62.5,19.95 62.5,19.84 62.5,19.73 62.38,19.5 62.38,19.39 62.27,19.17 62.27,19.05 62.27,18.94 62.27,18.72 62.38,18.61 62.5,18.49 
	62.5,18.38 62.61,18.16 62.72,18.05 62.72,17.93 62.83,17.71 62.83,17.6 62.94,17.49 62.94,17.37 63.06,17.26 63.06,17.15 
	63.17,17.04 63.17,16.81 63.17,16.7 63.17,16.59 63.17,16.48 63.17,16.36 63.17,16.25 63.17,16.14 63.28,15.92 63.39,15.69 
	63.5,15.58 63.5,15.47 63.62,15.36 63.73,15.13 63.73,15.02 63.84,14.91 63.84,14.8 63.84,14.68 63.84,14.57 63.84,14.46 
	63.84,14.35 63.84,14.24 63.84,14.12 63.84,14.01 63.84,13.9 63.84,13.79 63.84,13.67 63.84,13.45 63.95,13.34 63.84,13.23 
	63.95,13.11 63.95,13 64.06,12.89 64.18,12.78 64.18,12.67 64.29,12.55 64.29,12.44 64.4,12.44 64.4,12.33 64.4,12.11 64.4,11.99 
	64.51,11.88 64.63,11.77 64.74,11.66 64.85,11.54 64.85,11.43 64.96,11.32 65.07,11.21 65.19,11.1 65.3,11.1 65.3,10.98 
	65.41,10.87 65.52,10.87 65.63,10.76 65.75,10.65 65.86,10.76 65.97,10.87 66.08,10.87 66.08,10.98 66.19,11.1 66.31,11.1 
	66.42,11.1 66.64,11.1 66.75,11.21 66.87,11.21 66.98,11.21 67.09,11.32 67.2,11.32 67.32,11.43 67.43,11.43 67.65,11.43 
	67.76,11.43 67.88,11.43 67.99,11.32 68.1,11.43 68.21,11.43 68.32,11.54 68.44,11.54 68.55,11.66 68.66,11.77 68.66,11.88 
	68.77,11.88 68.88,11.99 69.11,11.99 69.22,11.99 69.33,12.11 69.44,12.11 69.56,12.22 69.67,12.22 69.89,12.33 70.01,12.33 
	70.12,12.44 70.23,12.44 70.34,12.55 70.45,12.67 70.57,12.67 70.68,12.78 70.68,12.89 70.79,13 70.79,13.11 70.9,13.11 
	71.01,13.23 71.13,13.34 71.24,13.34 71.35,13.45 71.46,13.45 71.57,13.45 71.69,13.45 71.8,13.45 71.91,13.45 72.02,13.45 
	72.14,13.34 72.25,13.45 72.36,13.45 72.47,13.45 72.58,13.45 72.81,13.45 72.92,13.34 73.14,13.34 73.26,13.23 73.37,13.23 
	73.48,13.11 73.48,13 73.59,12.89 73.7,12.78 73.7,12.67 73.7,12.55 73.82,12.44 73.82,12.33 73.82,12.22 73.93,12.22 74.04,12.11 
	74.04,11.99 74.15,11.88 74.27,11.77 74.27,11.66 74.38,11.54 74.38,11.43 74.49,11.32 74.6,11.21 74.6,11.1 74.71,10.98 
	74.83,10.87 74.94,10.87 74.94,10.76 75.05,10.65 75.16,10.54 75.16,10.42 75.16,10.31 75.16,10.2 75.16,9.98 75.27,9.86 
	75.27,9.75 75.39,9.75 75.5,9.75 75.61,9.64 75.72,9.53 75.83,9.53 75.95,9.42 75.95,9.3 76.06,9.3 76.17,9.19 76.28,9.08 
	76.28,8.97 76.17,8.85 76.17,8.63 76.17,8.52 76.28,8.41 76.39,8.41 76.51,8.41 76.62,8.41 76.73,8.52 76.73,8.41 76.84,8.29 
	76.84,8.18 76.96,8.07 76.96,7.96 77.07,7.96 77.18,7.85 77.29,7.85 77.4,7.73 77.52,7.73 77.52,7.62 77.63,7.51 77.74,7.51 
	77.85,7.4 77.96,7.29 77.96,7.17 78.08,7.17 78.19,7.06 78.3,7.06 78.41,7.06 78.52,7.06 78.64,7.06 78.75,6.95 78.86,6.95 
	78.97,6.84 79.2,6.73 79.2,6.61 79.31,6.39 79.42,6.39 79.53,6.16 79.65,6.05 79.76,5.94 79.87,5.83 79.98,5.72 79.98,5.6 
	80.09,5.6 80.21,5.49 80.32,5.38 80.54,5.27 80.65,5.27 80.77,5.16 80.77,5.04 80.99,4.93 80.99,4.82 81.1,4.71 81.21,4.6 
	81.21,4.48 81.21,4.26 81.33,4.15 81.33,4.03 81.33,3.81 81.33,3.7 81.44,3.59 81.44,3.36 81.55,3.25 81.55,3.03 81.55,2.91 
	81.66,2.8 81.66,2.58 81.66,2.47 81.66,2.35 81.78,2.13 81.89,2.02 82,2.02 82.22,1.91 82.34,1.91 82.34,1.79 82.45,1.79 
	82.56,1.68 82.67,1.68 82.67,1.57 82.78,1.46 83.01,1.34 83.23,1.23 83.46,1.12 83.79,0.9 84.02,0.78 84.24,0.67 84.35,0.67 
	84.47,0.67 84.58,0.67 84.8,0.78 84.91,0.9 85.03,0.9 85.14,0.9 85.36,1.01 85.47,1.01 "/>
</svg>
