<?xml version="1.0" encoding="utf-8"?>
<!-- Generator: Adobe Illustrator 24.2.1, SVG Export Plug-In . SVG Version: 6.00 Build 0)  -->
<svg version="1.1" id="Layer_1" xmlns="http://www.w3.org/2000/svg" xmlns:xlink="http://www.w3.org/1999/xlink" x="0px" y="0px"
	 viewBox="0 0 97.23 97.23" style="enable-background:new 0 0 97.23 97.23;" xml:space="preserve">
<style type="text/css">
	.st0{fill-rule:evenodd;clip-rule:evenodd;}
</style>
<polygon class="st0" points="73.08,34.8 72.95,34.8 72.95,34.93 72.95,35.07 73.08,35.07 73.08,35.2 72.95,35.2 72.95,35.33 
	72.95,35.2 72.82,35.33 72.82,35.2 72.82,35.33 72.68,35.2 72.68,35.33 72.68,35.46 72.68,35.33 72.55,35.33 72.68,35.33 
	72.68,35.46 72.55,35.46 72.68,35.46 72.68,35.6 72.55,35.6 72.42,35.73 72.42,35.6 72.29,35.6 72.29,35.46 72.15,35.46 72.15,35.6 
	72.15,35.73 72.02,35.73 71.89,35.86 72.02,35.86 72.02,36 71.89,36 71.75,36 71.75,36.13 71.89,36.13 72.02,36.13 72.02,36.26 
	72.02,36.4 72.15,36.53 72.02,36.53 71.89,36.66 71.89,36.8 72.02,36.8 72.15,36.8 72.15,36.93 72.15,37.06 72.15,37.2 72.02,37.2 
	71.89,37.33 71.75,37.46 71.75,37.59 71.62,37.73 71.75,37.86 71.62,37.86 71.75,37.86 71.75,37.99 71.62,37.99 71.62,38.13 
	71.62,38.26 71.49,38.26 71.49,38.39 71.62,38.39 71.62,38.53 71.49,38.53 71.49,38.66 71.49,38.79 71.49,38.93 71.49,39.06 
	71.35,39.06 71.35,39.19 71.22,39.19 71.09,39.19 70.95,39.19 70.95,39.33 70.82,39.46 70.82,39.59 70.82,39.73 70.82,39.86 
	70.69,39.86 70.55,39.86 70.42,39.86 70.42,39.99 70.42,40.12 70.42,40.26 70.29,40.26 70.29,40.39 70.15,40.39 70.15,40.52 
	70.02,40.52 69.89,40.52 69.89,40.66 69.89,40.79 69.76,40.92 69.76,41.06 69.89,41.06 69.89,41.19 69.76,41.19 69.62,41.19 
	69.62,41.32 69.62,41.46 69.62,41.59 69.62,41.72 69.76,41.86 69.76,41.99 69.76,42.12 69.76,42.26 69.76,42.52 69.62,42.65 
	69.62,42.79 69.62,42.92 69.76,43.19 69.62,43.19 69.62,43.45 69.62,43.59 69.49,43.72 69.49,43.85 69.49,43.99 69.49,44.12 
	69.62,44.12 69.76,44.25 69.76,44.39 69.89,44.39 69.89,44.52 69.89,44.65 69.89,44.79 70.02,44.79 70.02,44.92 70.15,44.92 
	70.15,45.05 70.29,45.05 70.29,45.18 70.42,45.18 70.42,45.32 70.29,45.45 70.29,45.58 70.42,45.58 70.42,45.72 70.42,45.85 
	70.55,45.85 70.42,45.85 70.55,45.98 70.55,46.12 70.69,46.12 70.55,46.25 70.55,46.38 70.69,46.38 70.69,46.52 70.82,46.65 
	70.82,46.78 70.95,46.78 70.82,46.78 70.82,46.92 70.82,47.05 70.82,47.18 70.82,47.31 70.69,47.45 70.69,47.58 70.69,47.71 
	70.69,47.85 70.55,47.85 70.55,47.98 70.42,48.11 70.42,48.25 70.29,48.25 70.29,48.38 70.29,48.51 70.15,48.51 70.15,48.65 
	70.15,48.78 70.15,48.91 70.29,49.05 70.29,49.18 70.42,49.18 70.42,49.31 70.42,49.45 70.42,49.58 70.42,49.71 70.42,49.84 
	70.29,49.84 70.29,49.98 70.15,49.98 70.29,49.98 70.29,50.11 70.29,50.24 70.15,50.24 70.15,50.38 70.15,50.51 70.15,50.64 
	70.29,50.78 70.29,50.91 70.29,51.04 70.42,51.18 70.29,51.18 70.29,51.31 70.42,51.31 70.29,51.31 70.42,51.31 70.42,51.44 
	70.29,51.44 70.42,51.44 70.29,51.58 70.29,51.71 70.42,51.71 70.42,51.84 70.42,51.97 70.42,52.11 70.42,52.24 70.42,52.37 
	70.55,52.37 70.55,52.51 70.42,52.51 70.42,52.64 70.55,52.64 70.55,52.77 70.69,52.77 70.69,52.91 70.69,53.04 70.69,53.17 
	70.69,53.31 70.82,53.31 70.82,53.44 70.82,53.31 70.95,53.44 70.95,53.57 71.22,53.71 71.49,53.97 71.62,54.11 71.75,54.11 
	71.75,54.24 71.75,54.5 71.62,54.64 71.62,54.77 71.62,54.9 71.62,55.04 71.62,55.3 71.62,55.44 71.62,55.57 71.75,55.57 
	71.75,55.7 71.89,55.84 71.89,55.97 71.75,56.1 71.62,56.1 71.62,56.24 71.49,56.37 71.35,56.5 71.35,56.64 71.22,56.64 
	71.22,56.77 71.09,56.77 70.95,56.9 70.82,56.9 70.69,57.17 70.55,57.17 70.55,57.3 70.42,57.3 70.29,57.43 70.15,57.43 
	70.15,57.57 70.15,57.7 70.15,57.83 70.15,57.97 70.15,58.1 70.29,58.23 70.29,58.37 70.15,58.37 70.15,58.5 70.15,58.63 
	70.02,58.77 69.89,58.77 69.89,58.9 69.89,59.03 69.89,59.17 69.89,59.3 69.76,59.56 69.76,59.7 69.76,59.83 69.76,59.96 
	69.76,60.1 69.62,60.1 69.62,60.23 69.49,60.23 69.49,60.36 69.36,60.36 69.36,60.5 69.22,60.5 69.22,60.63 69.22,60.76 69.22,60.9 
	69.09,61.03 69.09,61.16 69.09,61.3 69.09,61.43 69.09,61.56 69.22,61.56 69.22,61.69 69.09,61.69 69.09,61.83 69.09,61.96 
	69.09,62.09 69.09,62.23 69.09,62.36 68.96,62.36 68.96,62.49 68.96,62.63 68.96,62.76 68.96,62.89 68.82,62.89 68.82,63.03 
	68.69,63.03 68.82,63.03 68.82,63.16 68.69,63.16 68.69,63.29 68.69,63.43 68.82,63.43 68.82,63.56 68.96,63.56 69.09,63.56 
	69.09,63.69 68.96,63.69 69.09,63.83 68.96,63.83 68.96,63.96 68.82,63.96 68.82,64.09 68.82,64.22 68.82,64.36 68.96,64.36 
	68.96,64.49 68.96,64.62 68.96,64.76 68.96,64.89 68.96,65.02 68.82,65.02 68.82,65.16 68.82,65.29 68.69,65.29 68.56,65.29 
	68.56,65.42 68.56,65.56 68.69,65.56 68.69,65.69 68.69,65.82 68.82,65.82 68.96,65.82 68.82,65.96 68.96,65.96 68.96,66.09 
	68.96,66.22 68.82,66.36 68.69,66.49 68.69,66.62 68.56,66.62 68.56,66.75 68.56,66.89 68.42,67.15 68.29,67.29 68.16,67.42 
	68.16,67.55 68.16,67.69 68.02,67.82 68.02,67.95 68.02,68.09 68.02,68.22 68.02,68.35 68.02,68.49 68.02,68.62 68.02,68.89 
	68.02,69.02 68.02,69.15 68.02,69.28 68.02,69.55 68.02,69.82 68.02,70.22 68.02,70.35 67.89,70.62 67.89,70.75 67.89,70.88 
	67.89,71.15 67.76,71.28 67.76,71.41 67.76,71.68 67.76,71.81 67.63,72.08 67.63,72.21 67.49,72.35 67.36,72.48 67.23,72.61 
	67.23,72.75 67.09,72.88 66.96,72.88 66.83,72.88 66.69,72.88 66.56,72.88 66.56,73.01 66.43,73.01 66.43,72.88 66.29,72.88 
	66.16,72.88 66.16,73.01 66.16,73.15 66.03,73.15 65.89,73.15 65.76,73.15 65.76,73.01 65.63,73.15 65.63,73.01 65.49,73.01 
	65.49,73.15 65.36,73.15 65.36,73.01 65.23,73.15 65.23,73.01 65.1,73.01 64.96,73.01 64.96,72.88 64.83,72.88 64.83,72.75 
	64.7,72.75 64.56,72.75 64.43,72.75 64.3,72.75 64.3,72.61 64.16,72.61 64.03,72.48 63.9,72.48 63.76,72.48 63.76,72.35 
	63.63,72.35 63.5,72.35 63.36,72.35 63.36,72.21 63.23,72.21 63.1,72.21 63.1,72.08 62.96,72.08 62.83,72.08 62.7,72.08 62.7,71.95 
	62.57,71.95 62.43,71.95 62.3,71.95 62.3,72.08 62.3,72.21 62.3,72.35 62.17,72.48 62.03,72.61 61.9,72.75 61.77,72.88 61.63,73.01 
	61.5,73.15 60.97,73.28 60.3,73.41 59.5,73.55 59.1,73.68 58.84,73.81 58.3,74.48 58.04,75.01 57.51,75.54 57.11,75.94 56.57,76.87 
	56.71,76.87 56.84,77.01 57.11,77.01 57.51,77.14 57.77,77.01 58.04,77.01 59.37,76.74 59.37,76.87 59.37,77.01 59.24,77.01 
	59.1,77.14 58.97,77.14 58.84,77.14 58.84,77.27 58.7,77.27 58.7,77.41 58.7,77.54 58.7,77.67 58.7,77.81 58.7,77.94 58.7,78.07 
	58.57,78.07 58.57,78.21 58.44,78.34 58.3,78.6 58.3,78.74 58.3,78.87 58.3,79 58.3,79.14 58.3,79.27 58.17,79.27 58.17,79.4 
	58.17,79.54 58.04,79.67 58.04,79.8 58.04,79.94 57.9,80.07 57.9,80.2 57.77,80.47 57.77,80.6 57.64,80.6 57.51,80.74 57.37,80.87 
	57.24,81 57.11,81 56.97,81 56.84,81 56.84,81.13 56.84,81.27 56.97,81.27 56.84,81.4 56.84,81.53 56.84,81.67 56.84,81.8 
	56.84,81.93 56.97,81.93 56.97,82.07 57.11,82.07 57.24,82.07 57.24,82.2 57.37,82.2 57.37,82.33 57.51,82.33 57.64,82.33 
	57.77,82.33 57.77,82.2 57.77,82.07 57.9,82.07 57.9,82.2 58.04,82.2 58.17,82.2 58.17,82.33 58.3,82.33 58.3,82.47 58.44,82.47 
	58.44,82.6 58.44,82.73 58.57,82.73 58.57,82.87 58.44,82.87 58.44,83 58.57,83 58.44,83 58.44,83.13 58.3,83.13 58.3,83.26 
	58.44,83.4 58.3,83.4 58.44,83.4 58.44,83.53 58.44,83.66 58.57,83.66 58.57,83.8 58.7,83.8 58.57,83.8 58.7,83.8 58.84,83.8 
	58.97,83.8 59.1,83.8 59.1,83.93 58.97,83.93 58.97,84.06 58.97,84.2 58.84,84.2 58.97,84.2 58.84,84.2 58.84,84.33 58.97,84.33 
	58.97,84.46 58.97,84.6 58.97,84.73 59.1,84.73 59.24,84.73 59.24,84.86 59.24,84.73 59.37,84.73 59.5,84.73 59.5,84.86 
	59.64,84.86 59.5,84.86 59.5,85 59.64,85 59.77,85 59.77,85.13 59.77,85.26 59.9,85.26 60.04,85.26 60.17,85.26 60.3,85.13 
	60.3,85.26 60.43,85.26 60.43,85.4 60.57,85.4 60.57,85.53 60.7,85.53 60.7,85.4 60.7,85.53 60.83,85.53 60.83,85.66 60.97,85.66 
	60.97,85.79 61.1,85.79 61.1,85.66 61.1,85.79 61.23,85.79 61.37,85.79 61.5,85.79 61.63,85.79 61.77,85.79 61.77,85.93 61.9,85.93 
	61.9,85.79 62.03,85.79 62.03,85.93 62.03,85.79 62.17,85.79 62.17,85.93 62.3,85.93 62.3,86.06 62.43,86.06 62.43,85.93 
	62.57,86.06 62.7,86.06 62.7,86.19 62.83,86.19 62.83,86.33 62.96,86.33 62.96,86.19 62.96,86.33 62.96,86.46 63.1,86.59 
	63.23,86.59 63.23,86.73 63.23,86.86 63.23,86.99 63.36,86.99 63.36,87.13 63.36,87.26 63.36,87.39 63.5,87.39 63.63,87.39 
	63.63,87.26 63.76,87.26 63.9,87.13 63.9,87.26 64.03,87.26 64.03,87.13 64.03,87.26 64.16,87.26 64.16,87.13 64.3,87.13 
	64.3,86.99 64.43,87.13 64.43,86.99 64.43,86.86 64.56,86.86 64.56,86.73 64.56,86.59 64.7,86.59 64.83,86.59 64.83,86.73 
	64.96,86.73 64.96,86.59 65.1,86.59 65.1,86.46 65.23,86.46 65.36,86.46 65.49,86.46 65.63,86.46 65.76,86.46 65.76,86.33 
	65.76,86.46 65.89,86.46 66.03,86.59 66.03,86.46 66.16,86.46 66.29,86.46 66.29,86.59 66.43,86.59 66.56,86.59 66.69,86.59 
	66.83,86.59 66.83,86.46 66.96,86.46 66.96,86.33 67.09,86.33 67.09,86.46 67.23,86.46 67.23,86.33 67.36,86.33 67.49,86.33 
	67.49,86.46 67.36,86.46 67.36,86.59 67.49,86.59 67.63,86.59 67.63,86.73 67.76,86.99 67.89,87.13 67.89,87.26 68.02,87.39 
	68.02,87.53 68.02,87.66 68.02,87.79 68.02,87.93 68.02,88.06 68.02,88.19 68.02,88.32 68.02,88.46 68.02,88.59 68.02,88.72 
	68.02,88.86 68.02,88.99 68.02,89.12 68.02,89.26 67.63,90.06 67.23,91.52 66.69,93.25 66.69,93.65 66.56,94.45 66.43,94.45 
	66.43,94.58 66.29,94.58 66.43,94.58 66.43,94.72 66.29,94.72 66.16,94.72 66.16,94.85 66.03,94.85 65.89,94.85 65.89,94.98 
	65.76,94.98 65.76,94.85 65.63,94.85 65.63,94.98 65.49,94.98 65.36,94.98 65.23,94.98 65.1,94.98 64.96,95.12 64.83,95.12 
	64.83,95.25 64.7,95.25 64.56,95.25 64.56,95.38 64.56,95.51 64.43,95.51 64.43,95.65 64.3,95.78 64.16,95.91 64.03,95.91 
	64.03,96.05 63.9,96.18 63.76,96.18 63.76,96.31 63.63,96.31 63.5,96.31 63.36,96.31 63.23,96.31 63.23,96.45 63.1,96.31 
	62.96,96.45 62.83,96.45 62.7,96.45 62.7,96.58 62.7,96.45 62.57,96.45 62.57,96.58 62.43,96.58 62.3,96.58 62.3,96.71 62.3,96.85 
	62.17,96.85 62.17,96.71 62.03,96.58 62.17,96.58 62.03,96.58 62.03,96.45 61.63,96.45 61.5,96.45 61.5,96.31 61.37,96.31 
	61.37,96.18 61.23,96.31 61.23,96.18 61.1,96.31 61.1,96.18 61.1,96.31 60.97,96.31 60.83,96.31 60.7,96.31 60.57,96.31 
	60.43,96.18 60.3,96.18 60.3,96.31 60.17,96.31 60.04,96.31 60.04,96.18 59.77,96.18 59.64,96.18 59.64,96.05 59.5,96.05 
	59.37,96.05 59.24,96.05 59.1,96.05 58.97,96.05 58.97,95.91 58.84,95.91 58.84,95.78 58.7,95.78 58.57,95.78 58.44,95.78 
	58.44,95.65 58.3,95.65 58.17,95.65 58.04,95.65 57.9,95.65 57.77,95.65 57.64,95.65 57.51,95.65 57.51,95.51 57.37,95.51 
	57.24,95.51 57.11,95.51 56.97,95.51 56.84,95.51 56.71,95.51 56.57,95.51 56.57,95.38 56.44,95.38 56.31,95.38 56.31,95.25 
	56.31,95.12 56.17,95.12 56.17,94.98 56.17,94.85 56.31,94.85 56.31,94.72 56.31,94.58 56.31,94.45 56.17,94.32 56.04,94.32 
	55.91,94.32 55.91,94.18 55.77,94.18 55.64,94.18 55.64,94.05 55.51,94.05 55.38,94.05 55.51,93.92 55.38,93.92 55.38,93.78 
	55.38,93.65 55.24,93.65 55.11,93.65 54.98,93.65 54.84,93.65 54.71,93.65 54.71,93.52 54.58,93.52 54.44,93.52 54.31,93.52 
	54.18,93.65 54.04,93.65 53.91,93.65 53.78,93.78 53.64,93.78 53.51,93.65 53.38,93.65 53.24,93.65 53.24,93.52 53.24,93.38 
	53.38,93.38 53.38,93.25 53.24,93.25 53.24,93.12 53.11,93.12 52.98,93.12 52.98,92.98 52.84,92.98 52.71,92.98 52.58,92.98 
	52.58,92.85 52.58,92.72 52.45,92.72 52.31,92.72 52.18,92.72 52.05,92.72 51.78,92.72 51.65,92.72 51.51,92.72 51.25,92.72 
	50.85,92.59 50.58,92.45 50.32,92.45 50.18,92.45 50.05,92.32 49.92,92.32 49.65,92.32 49.52,92.32 49.25,92.19 48.98,92.05 
	48.58,92.05 48.45,92.05 48.18,91.92 47.92,91.92 47.79,91.79 47.25,91.65 47.12,91.65 46.85,91.52 46.59,91.52 46.19,91.39 
	46.05,91.39 45.92,91.39 45.79,91.39 45.52,91.25 45.26,91.25 45.12,91.12 44.99,91.12 44.86,91.12 44.72,91.25 44.72,91.12 
	44.59,91.12 44.72,91.12 44.72,90.99 44.59,90.99 44.46,90.99 44.46,91.12 44.32,91.12 44.32,90.99 44.19,90.99 44.06,90.99 
	44.06,90.85 43.92,90.85 43.79,90.85 43.66,90.85 43.52,90.85 43.52,90.72 43.39,90.72 43.26,90.72 43.13,90.72 43.13,90.59 
	42.99,90.59 42.86,90.59 42.99,90.59 42.86,90.46 42.73,90.46 42.73,90.32 42.59,90.32 42.46,90.32 42.46,90.19 42.46,90.32 
	42.33,90.32 42.33,90.46 42.19,90.46 42.19,90.32 42.19,90.19 42.19,90.06 42.19,89.92 42.06,89.92 42.06,90.06 42.06,90.19 
	42.06,90.06 41.93,90.06 41.79,90.06 41.79,89.92 41.93,89.92 41.79,89.92 41.79,89.79 41.79,89.66 41.66,89.66 41.79,89.52 
	41.79,89.39 41.79,89.26 41.79,89.12 41.93,89.12 41.93,88.99 41.93,88.86 42.06,88.86 42.06,88.72 42.19,88.72 42.19,88.86 
	42.33,88.86 42.33,88.72 42.33,88.59 42.33,88.46 42.46,88.46 42.59,88.46 42.59,88.59 42.59,88.46 42.59,88.32 42.46,88.32 
	42.46,88.19 42.59,88.19 42.73,88.06 42.59,88.06 42.59,87.93 42.59,87.79 42.73,87.79 42.86,87.79 42.86,87.93 42.99,87.93 
	42.99,87.79 42.86,87.79 42.86,87.66 42.99,87.53 43.13,87.53 43.13,87.39 43.13,87.26 42.99,87.26 42.99,87.13 42.86,87.13 
	42.86,86.99 42.86,86.86 42.73,86.86 42.73,86.73 42.59,86.73 42.59,86.59 42.46,86.46 42.46,86.33 42.33,86.33 42.33,86.19 
	42.19,86.33 42.33,86.33 42.33,86.46 42.33,86.59 42.19,86.59 42.06,86.59 42.06,86.46 42.06,86.33 41.93,86.33 41.79,86.33 
	41.79,86.19 41.66,86.19 41.66,86.06 41.53,86.06 41.53,85.93 41.26,85.79 41.13,85.66 40.99,85.66 40.99,85.79 40.86,85.79 
	40.86,85.66 40.73,85.66 40.86,85.53 40.86,85.4 40.73,85.4 40.6,85.4 40.46,85.4 40.33,85.4 40.33,85.53 40.2,85.53 40.2,85.4 
	40.2,85.26 40.33,85.26 40.33,85.13 40.2,85.13 40.06,85.26 40.06,85.13 40.06,85 39.93,85 39.8,85 39.66,85 39.66,84.86 
	39.8,84.86 39.8,84.73 39.93,84.73 39.8,84.6 39.66,84.6 39.8,84.6 39.8,84.46 39.66,84.33 39.66,84.2 39.66,84.06 39.8,84.06 
	39.93,84.06 40.06,83.93 39.93,83.93 39.8,83.93 39.8,84.06 39.8,83.93 39.66,83.93 39.66,83.8 39.8,83.8 39.8,83.66 39.8,83.53 
	39.93,83.53 39.93,83.4 40.06,83.4 40.06,83.26 40.06,83.13 40.06,83 40.2,83 40.2,82.87 40.2,82.73 40.06,82.73 39.93,82.73 
	39.93,82.6 39.93,82.47 39.93,82.6 39.8,82.6 39.8,82.73 39.93,82.73 39.8,82.73 39.66,82.73 39.53,82.73 39.53,82.6 39.53,82.47 
	39.66,82.47 39.66,82.33 39.53,82.33 39.4,82.33 39.26,82.33 39.26,82.2 39.13,82.2 39,82.2 39,82.33 38.86,82.33 38.73,82.33 
	38.73,82.2 38.73,82.07 38.6,82.2 38.46,82.2 38.33,82.33 38.33,82.2 38.2,82.2 38.07,82.2 38.07,82.07 38.2,82.07 38.2,81.93 
	38.2,81.8 38.2,81.93 38.07,81.93 37.93,81.93 37.93,81.8 37.8,81.8 37.8,81.67 37.8,81.53 37.67,81.4 37.67,81.53 37.67,81.4 
	37.53,81.4 37.53,81.27 37.4,81.27 37.4,81.13 37.27,81.13 37.27,81 37.27,80.87 37.27,81 37.13,81 37.13,80.87 37.13,80.74 
	37,80.74 37,80.6 37.13,80.47 37.13,80.34 37,80.34 36.87,80.34 36.87,80.2 36.87,80.07 37,80.07 37,80.2 37,80.07 37,79.94 
	36.87,79.94 36.73,79.94 36.6,79.94 36.6,79.8 36.47,79.8 36.47,79.67 36.47,79.54 36.33,79.54 36.33,79.4 36.33,79.54 36.2,79.4 
	36.2,79.27 36.07,79.27 35.93,79.14 35.8,79.14 35.8,79 35.8,79.14 35.67,79.14 35.54,79.14 35.54,79 35.67,79 35.67,78.87 
	35.8,78.87 35.8,78.74 35.67,78.74 35.67,78.6 35.67,78.47 35.54,78.47 35.54,78.6 35.4,78.6 35.27,78.6 35.14,78.47 35.14,78.34 
	35.27,78.34 35.27,78.21 35.14,78.21 35.14,78.34 35,78.34 35,78.21 34.87,78.07 34.87,77.94 34.74,77.94 34.74,77.81 34.6,77.81 
	34.6,77.94 34.47,77.94 34.47,77.81 34.6,77.81 34.6,77.67 34.47,77.67 34.34,77.81 34.34,77.67 34.34,77.54 34.2,77.54 34.2,77.41 
	34.2,77.27 34.07,77.27 34.07,77.14 34.07,77.01 33.94,77.01 34.07,77.01 34.2,77.01 34.2,76.87 34.34,76.87 34.2,76.87 34.2,76.74 
	34.34,76.74 34.47,76.74 34.6,76.74 34.6,76.61 34.6,76.47 34.6,76.61 34.6,76.47 34.6,76.34 34.74,76.34 34.87,76.47 34.87,76.34 
	35,76.34 35,76.47 35.14,76.47 35.14,76.34 35.14,76.47 35.27,76.47 35.27,76.34 35.27,76.21 35.27,76.34 35.4,76.34 35.4,76.21 
	35.54,76.21 35.54,76.08 35.67,76.08 35.67,75.94 35.8,75.94 35.8,75.81 35.93,75.81 36.07,75.81 36.07,75.68 36.2,75.68 
	36.2,75.81 36.33,75.81 36.33,75.68 36.47,75.68 36.47,75.54 36.47,75.41 36.47,75.28 36.6,75.28 36.6,75.14 36.6,75.01 
	36.47,74.88 36.6,74.88 36.6,74.74 36.6,74.61 36.6,74.74 36.47,74.61 36.47,74.48 36.6,74.48 36.6,74.34 36.6,74.21 36.73,74.21 
	36.73,74.34 36.73,74.21 36.87,74.21 36.87,74.08 36.73,74.08 36.73,73.94 36.73,74.08 36.73,73.94 36.73,73.81 36.6,73.81 
	36.6,73.68 36.6,73.81 36.47,73.81 36.47,73.68 36.47,73.55 36.47,73.41 36.6,73.41 36.6,73.28 36.47,73.28 36.33,73.28 
	36.47,73.28 36.47,73.15 36.33,73.15 36.2,73.15 36.2,73.01 36.2,72.88 36.33,72.88 36.33,72.75 36.33,72.61 36.47,72.61 
	36.47,72.48 36.33,72.35 36.33,72.21 36.2,72.08 36.2,72.21 36.07,72.21 36.07,72.08 36.07,71.95 35.93,71.95 35.93,71.81 
	35.8,71.81 35.8,71.95 35.67,71.81 35.54,71.81 35.54,71.68 35.4,71.68 35.4,71.81 35.4,71.95 35.4,71.81 35.27,71.81 35.14,71.81 
	35.14,71.95 35,71.95 35,71.81 34.87,71.81 34.87,71.68 35,71.68 35,71.55 34.87,71.55 34.74,71.55 34.74,71.41 34.87,71.41 
	34.74,71.41 34.74,71.28 34.74,71.15 34.6,71.15 34.6,71.28 34.47,71.28 34.47,71.15 34.34,71.02 34.47,71.02 34.34,71.02 
	34.34,70.88 34.2,70.88 34.2,70.75 34.34,70.75 34.34,70.62 34.34,70.48 34.2,70.48 34.2,70.35 34.07,70.35 33.94,70.35 
	33.94,70.22 33.8,70.22 33.8,70.08 33.67,70.08 33.54,70.08 33.4,70.08 33.27,70.08 33.27,69.95 33.27,69.82 33.14,69.82 
	33.14,69.95 33.14,69.82 33.01,69.82 32.87,69.82 32.74,69.82 32.74,69.95 32.74,69.82 32.74,69.68 32.61,69.68 32.47,69.68 
	32.47,69.82 32.34,69.82 32.34,69.68 32.21,69.68 32.07,69.68 32.07,69.55 31.94,69.55 31.94,69.42 31.81,69.42 31.67,69.42 
	31.54,69.28 31.41,69.15 31.41,69.02 31.41,68.89 31.27,68.75 31.27,68.62 31.27,68.49 31.27,68.35 31.41,68.35 31.41,68.22 
	31.41,68.09 31.41,67.95 31.27,67.95 31.27,67.82 31.14,67.82 31.14,67.69 31.01,67.69 30.87,67.69 30.87,67.55 30.74,67.55 
	30.74,67.42 30.74,67.29 30.61,67.29 30.61,67.15 30.61,67.02 30.61,66.89 30.48,66.75 30.61,66.75 30.74,66.75 30.74,66.62 
	30.74,66.49 30.61,66.49 30.61,66.36 30.74,66.36 30.74,66.22 30.74,66.09 30.61,66.09 30.74,66.09 30.74,65.96 30.61,65.96 
	30.61,65.82 30.61,65.69 30.74,65.69 30.61,65.69 30.61,65.56 30.48,65.56 30.34,65.56 30.34,65.42 30.21,65.42 30.34,65.42 
	30.34,65.29 30.21,65.29 30.21,65.16 30.08,65.16 30.08,65.02 29.94,65.02 29.94,65.16 29.94,65.02 29.81,65.02 29.81,64.89 
	29.81,64.76 29.81,64.62 29.94,64.62 29.94,64.49 29.94,64.36 30.08,64.36 30.08,64.22 29.94,64.22 29.81,64.22 29.81,64.09 
	29.94,64.09 29.94,64.22 29.94,64.09 29.94,63.96 29.94,63.83 30.08,63.83 30.21,63.83 30.21,63.69 30.08,63.69 30.08,63.43 
	30.08,63.16 30.08,63.03 30.08,62.89 30.21,62.76 30.34,62.76 30.48,62.76 30.61,62.76 30.61,62.63 30.61,62.49 30.61,62.36 
	30.61,62.23 30.48,62.23 30.34,62.09 30.21,62.09 30.21,61.96 30.21,61.83 30.21,61.69 30.21,61.56 30.21,61.43 30.08,61.43 
	30.08,61.3 30.08,61.16 30.08,61.03 30.08,60.9 30.08,60.76 30.08,60.63 29.94,60.63 29.94,60.5 30.08,60.5 29.94,60.5 29.94,60.36 
	29.81,60.23 29.68,60.23 29.54,60.23 29.41,60.23 29.41,60.1 29.28,60.1 29.28,59.96 29.28,59.83 29.14,59.7 29.01,59.7 
	29.01,59.56 28.88,59.56 28.88,59.43 28.74,59.3 28.61,59.3 28.61,59.17 28.74,59.17 28.61,59.17 28.61,59.03 28.74,59.03 
	28.61,59.03 28.61,58.9 28.48,58.9 28.48,58.77 28.34,58.77 28.48,58.77 28.48,58.63 28.34,58.63 28.34,58.5 28.34,58.37 
	28.34,58.23 28.21,58.23 28.21,58.1 28.08,57.97 28.21,57.83 28.08,57.83 28.08,57.7 27.95,57.7 27.95,57.57 27.81,57.57 
	27.81,57.43 27.95,57.43 27.95,57.3 27.81,57.3 27.81,57.17 27.95,57.17 27.95,57.03 27.95,56.9 27.81,56.9 27.68,56.9 27.55,56.77 
	27.55,56.64 27.41,56.64 27.55,56.5 27.41,56.5 27.41,56.37 27.41,56.24 27.41,56.1 27.41,55.97 27.41,55.84 27.55,55.84 
	27.55,55.7 27.68,55.7 27.68,55.57 27.81,55.57 27.81,55.44 27.81,55.3 27.95,55.17 27.95,55.04 27.81,55.04 27.81,54.9 
	27.81,54.77 27.81,54.64 27.68,54.5 27.81,54.5 27.81,54.37 27.95,54.37 27.95,54.24 28.08,54.24 28.08,54.11 28.21,54.11 
	28.21,53.97 28.34,53.84 28.34,53.71 28.21,53.71 28.21,53.57 28.21,53.44 28.21,53.31 28.34,53.31 28.34,53.17 28.34,53.04 
	28.34,52.91 28.34,52.77 28.34,52.64 28.48,52.51 28.48,52.37 28.34,52.37 28.34,52.24 28.34,52.11 28.21,51.97 28.21,51.71 
	28.08,51.44 28.08,51.31 27.95,51.18 27.81,51.18 27.81,51.04 27.68,51.04 27.55,51.04 27.55,50.91 27.41,50.91 27.28,50.78 
	27.15,50.78 27.15,50.64 27.15,50.51 27.01,50.51 26.88,50.38 27.01,50.38 27.01,50.24 26.88,50.24 26.88,50.11 27.01,50.11 
	27.01,49.98 27.15,49.84 27.28,49.71 27.28,49.58 27.41,49.58 27.55,49.45 27.55,49.31 27.41,49.18 27.28,49.18 27.28,49.05 
	27.15,49.05 27.01,48.91 26.88,48.91 26.75,48.78 26.61,48.78 26.48,48.65 26.35,48.65 26.21,48.65 26.08,48.51 25.95,48.38 
	25.95,48.25 25.82,48.25 25.68,48.11 25.55,48.11 25.42,48.11 25.28,48.11 25.15,48.25 25.02,48.25 24.88,48.11 24.75,48.11 
	24.75,47.98 24.75,47.85 24.75,47.71 24.75,47.58 24.75,47.45 24.75,47.31 24.88,47.31 25.02,47.18 25.15,47.18 25.15,47.05 
	25.15,46.92 25.02,46.78 25.02,46.65 24.88,46.65 24.88,46.52 24.75,46.52 24.62,46.38 24.48,46.38 24.35,46.25 24.22,46.12 
	24.22,45.98 24.08,45.98 24.08,45.85 24.08,45.72 24.08,45.58 24.08,45.45 24.22,45.45 24.22,45.32 24.35,45.32 24.35,45.18 
	24.48,45.18 24.62,45.05 24.62,44.92 24.62,44.79 24.62,44.65 24.62,44.52 24.62,44.39 24.62,44.25 24.75,44.25 24.88,44.12 
	25.02,44.12 25.02,43.99 24.88,43.85 24.88,43.72 24.88,43.59 24.88,43.45 24.88,43.32 25.02,43.19 25.02,43.05 25.15,42.92 
	25.15,42.79 25.15,42.65 25.15,42.52 25.28,42.39 25.28,42.26 25.42,42.26 25.42,42.12 25.42,41.99 25.42,41.86 25.42,41.72 
	25.42,41.59 25.42,41.46 25.42,41.59 25.28,41.59 25.28,41.72 25.15,41.59 25.02,41.59 24.88,41.59 24.75,41.59 24.62,41.46 
	24.48,41.46 24.48,41.32 24.35,41.32 24.35,41.19 24.22,41.06 24.22,40.92 24.08,40.79 24.08,40.52 23.95,40.52 23.95,40.39 
	23.82,40.26 23.82,40.12 23.68,40.12 23.68,39.99 23.68,39.86 23.82,39.86 23.82,39.73 23.95,39.59 24.08,39.59 24.08,39.46 
	24.22,39.46 24.35,39.33 24.48,39.33 24.48,39.19 24.62,39.19 24.62,39.06 24.62,38.93 24.62,38.79 24.62,38.66 24.62,38.53 
	24.62,38.39 24.62,38.26 24.48,38.26 24.35,38.13 24.35,37.99 24.22,37.99 24.08,37.86 24.08,37.59 23.95,37.46 23.95,37.33 
	23.82,37.33 23.82,37.2 23.82,37.06 23.82,36.93 23.82,36.8 23.82,36.66 23.68,36.53 23.68,36.4 23.68,36.26 23.82,36.13 23.82,36 
	23.82,35.86 23.95,35.86 23.95,35.73 23.82,35.73 23.82,35.6 23.82,35.46 23.68,35.33 23.55,35.2 23.55,35.07 23.55,34.93 
	23.42,34.93 23.42,34.8 23.55,34.8 23.55,34.67 23.55,34.53 23.68,34.53 23.68,34.4 23.68,34.27 23.82,34.27 23.95,34.27 
	23.95,34.13 23.95,34 23.95,33.87 23.82,33.6 23.82,33.47 23.68,33.33 23.55,33.2 23.55,33.07 23.55,32.93 23.55,32.8 23.55,32.67 
	23.55,32.4 23.55,32.27 23.55,32.14 23.68,32 23.82,31.87 23.82,31.74 23.82,31.6 23.82,31.47 23.82,31.34 23.68,31.34 23.68,31.2 
	23.68,31.07 23.55,30.94 23.55,30.8 23.55,30.67 23.55,30.54 23.55,30.41 23.55,30.27 23.55,30.14 23.68,30.01 23.68,29.87 
	23.82,29.74 23.95,29.61 23.95,29.47 24.08,29.34 24.35,29.21 24.48,29.07 24.62,28.94 24.75,28.94 24.88,28.81 25.02,28.67 
	25.02,28.54 25.02,28.41 25.15,28.41 25.15,28.28 25.15,28.14 25.28,28.01 25.42,27.88 25.55,27.88 25.68,27.74 25.82,27.74 
	25.82,27.61 25.95,27.61 25.95,27.48 26.08,27.48 26.21,27.48 26.21,27.34 26.35,27.34 26.35,27.21 26.48,27.21 26.61,27.21 
	26.61,27.08 26.75,27.08 26.75,26.94 26.88,26.94 26.88,26.81 27.01,26.81 27.15,26.81 27.15,26.68 27.15,26.54 27.28,26.41 
	27.15,26.41 27.15,26.28 27.15,26.14 27.28,26.14 27.28,26.01 27.28,25.88 27.28,25.75 27.28,25.61 27.15,25.61 27.15,25.48 
	27.28,25.35 27.28,25.21 27.28,25.08 27.28,24.95 27.41,24.95 27.41,24.81 27.41,24.68 27.28,24.55 27.15,24.55 27.15,24.41 
	27.28,24.28 27.28,24.15 27.28,24.01 27.41,24.15 27.55,24.15 27.68,24.15 27.81,24.15 27.95,24.15 28.08,24.15 28.21,24.15 
	28.21,24.01 28.21,23.88 28.08,23.88 28.08,23.75 28.08,23.61 27.95,23.61 27.95,23.48 27.95,23.35 27.95,23.22 28.08,23.22 
	28.08,23.08 28.21,23.08 28.34,23.08 28.48,23.08 28.61,23.08 28.61,22.95 28.61,22.82 28.74,22.68 28.74,22.55 28.88,22.55 
	28.88,22.68 28.88,22.82 29.01,22.82 29.14,22.82 29.14,22.68 29.28,22.68 29.28,22.82 29.41,22.82 29.54,22.82 29.54,22.68 
	29.54,22.55 29.41,22.55 29.28,22.55 29.28,22.42 29.28,22.28 29.14,22.28 29.01,22.28 29.01,22.15 29.01,22.02 29.01,21.88 
	29.14,21.88 29.28,21.75 29.41,21.62 29.41,21.75 29.54,21.75 29.68,21.88 29.81,21.88 29.94,21.88 30.08,21.88 30.21,21.88 
	30.34,21.88 30.21,21.75 30.21,21.62 30.08,21.62 30.08,21.48 30.08,21.35 30.08,21.22 30.21,21.22 30.21,21.08 30.08,21.08 
	30.21,20.95 30.21,21.08 30.34,21.22 30.48,21.22 30.48,21.08 30.48,20.95 30.48,20.82 30.48,20.69 30.61,20.69 30.74,20.69 
	30.61,20.82 30.74,20.95 30.87,20.82 31.01,20.82 31.14,20.95 31.27,20.95 31.27,20.82 31.27,20.69 31.27,20.55 31.27,20.42 
	31.41,20.42 31.41,20.29 31.41,20.15 31.54,20.15 31.54,20.29 31.67,20.29 31.67,20.15 31.67,20.02 31.67,19.89 31.54,19.89 
	31.41,19.89 31.27,19.89 31.14,19.89 31.01,19.89 30.87,19.89 30.87,19.75 31.01,19.75 31.01,19.62 30.87,19.49 30.87,19.35 
	31.01,19.35 31.14,19.35 31.27,19.35 31.41,19.35 31.54,19.22 31.67,19.09 31.67,18.95 31.54,18.95 31.41,18.95 31.54,18.82 
	31.67,18.82 31.67,18.69 31.81,18.56 31.81,18.42 31.81,18.29 31.67,18.29 31.81,18.16 31.94,18.16 32.21,18.29 32.47,18.29 
	32.61,18.42 32.74,18.42 32.87,18.42 32.87,18.56 32.87,18.42 32.87,18.29 33.01,18.29 33.01,18.16 33.14,18.16 33.01,18.16 
	33.01,18.02 32.87,18.02 32.87,18.16 32.74,18.16 32.74,18.02 32.61,18.02 32.74,18.02 32.61,17.89 32.61,17.76 32.47,17.76 
	32.34,17.76 32.21,17.76 32.07,17.76 32.07,17.62 32.07,17.49 32.07,17.36 32.07,17.22 31.94,17.22 31.94,17.09 31.81,16.96 
	31.81,16.82 31.67,16.82 31.67,16.69 31.67,16.56 31.54,16.56 31.54,16.42 31.41,16.42 31.41,16.29 31.27,16.29 31.27,16.16 
	31.27,16.03 31.41,16.03 31.54,16.03 31.67,16.03 31.81,16.03 31.94,15.89 32.07,15.89 32.21,15.89 32.21,15.76 32.47,15.76 
	32.61,15.63 32.74,15.63 32.87,15.49 33.01,15.49 33.14,15.49 33.27,15.36 33.4,15.23 33.54,15.09 33.67,15.09 33.8,15.09 
	33.94,15.09 34.07,15.09 34.2,15.09 34.34,15.09 34.47,14.96 34.6,14.96 34.74,14.96 34.74,14.83 34.74,14.96 34.87,14.96 
	34.87,14.83 35,14.83 35,14.69 35.14,14.69 35.27,14.69 35.27,14.83 35.4,14.83 35.4,14.69 35.54,14.69 35.54,14.56 35.67,14.56 
	35.67,14.43 35.8,14.43 35.8,14.56 35.8,14.43 35.93,14.43 35.93,14.29 36.07,14.29 36.2,14.29 36.33,14.29 36.2,14.29 36.33,14.16 
	36.33,14.03 36.47,14.03 36.47,13.89 36.47,13.76 36.33,13.76 36.33,13.63 36.47,13.5 36.47,13.36 36.6,13.36 36.6,13.23 36.6,13.1 
	36.73,13.1 36.73,12.96 36.73,12.83 36.87,12.83 36.87,12.7 37,12.7 37.13,12.7 37.13,12.56 37.13,12.43 37.13,12.3 37.13,12.16 
	37.27,12.16 37.27,12.03 37.27,12.16 37.4,12.16 37.4,12.03 37.53,12.03 37.53,12.16 37.53,12.3 37.53,12.43 37.67,12.43 
	37.67,12.56 37.67,12.7 37.67,12.83 37.67,12.96 37.67,12.83 37.8,12.83 37.8,12.96 37.8,12.83 37.8,12.96 37.93,12.96 38.07,12.96 
	38.07,12.83 38.07,12.7 38.2,12.7 38.2,12.56 38.2,12.7 38.2,12.56 38.2,12.7 38.2,12.56 38.33,12.56 38.33,12.43 38.46,12.43 
	38.6,12.43 38.73,12.43 38.86,12.43 38.86,12.3 38.86,12.43 39,12.43 39,12.3 39,12.16 39.13,12.16 39.13,12.3 39.13,12.16 
	39.26,12.16 39.26,12.3 39.4,12.3 39.4,12.16 39.53,12.16 39.53,12.03 39.66,12.03 39.53,12.03 39.53,11.9 39.66,11.9 39.8,11.9 
	39.8,12.03 39.8,11.9 39.93,11.9 40.06,11.9 40.06,11.76 40.2,11.76 40.2,11.63 40.33,11.63 40.33,11.5 40.46,11.5 40.46,11.36 
	40.33,11.36 40.46,11.36 40.46,11.23 40.6,11.23 40.73,11.23 40.73,11.36 40.73,11.23 40.86,11.23 40.99,11.1 40.99,10.97 
	41.13,10.97 41.13,10.83 41.26,10.83 41.26,10.7 41.26,10.57 41.26,10.43 41.39,10.43 41.39,10.3 41.39,10.17 41.26,10.17 
	41.26,10.03 41.39,10.03 41.26,10.03 41.26,9.9 41.39,9.9 41.39,9.77 41.53,9.77 41.66,9.77 41.79,9.77 41.79,9.63 41.79,9.5 
	41.93,9.5 41.93,9.37 42.06,9.37 42.19,9.37 42.19,9.23 42.19,9.37 42.19,9.23 42.19,9.1 42.33,9.1 42.33,8.97 42.33,8.84 
	42.33,8.7 42.33,8.57 42.46,8.57 42.46,8.44 42.46,8.3 42.59,8.3 42.46,8.3 42.46,8.17 42.59,8.17 42.59,8.04 42.59,7.9 42.59,7.77 
	42.73,7.77 42.86,7.77 42.86,7.64 42.99,7.64 42.99,7.5 43.13,7.5 43.13,7.37 43.26,7.37 43.26,7.24 43.39,7.24 43.26,7.24 
	43.26,7.1 43.39,7.1 43.52,7.1 43.52,6.97 43.52,6.84 43.52,6.97 43.52,6.84 43.66,6.84 43.52,6.84 43.52,6.7 43.66,6.7 43.66,6.57 
	43.52,6.57 43.52,6.44 43.66,6.44 43.66,6.31 43.52,6.31 43.52,6.17 43.52,6.04 43.66,6.04 43.52,6.04 43.66,6.04 43.66,5.91 
	43.79,5.91 43.79,5.77 43.66,5.77 43.79,5.77 43.66,5.77 43.66,5.64 43.66,5.51 43.79,5.51 43.66,5.51 43.66,5.37 43.79,5.37 
	43.79,5.24 43.66,5.24 43.66,5.11 43.66,4.97 43.66,4.84 43.79,4.84 43.79,4.71 43.92,4.71 43.92,4.57 44.06,4.57 44.19,4.57 
	44.32,4.57 44.32,4.44 44.46,4.44 44.59,4.44 44.59,4.31 44.72,4.31 44.86,4.31 44.99,4.31 45.12,4.31 45.12,4.18 45.26,4.18 
	45.26,4.04 45.39,4.04 45.39,3.91 45.39,4.04 45.52,4.04 45.52,3.91 45.65,3.91 45.65,3.78 45.79,3.78 45.79,3.64 45.79,3.51 
	45.92,3.51 46.05,3.51 46.05,3.38 46.05,3.24 46.05,3.11 46.19,3.11 46.19,2.98 46.05,2.98 46.19,2.98 46.19,2.84 46.05,2.71 
	46.05,2.84 46.05,2.71 45.92,2.71 45.92,2.58 46.05,2.44 45.92,2.44 45.92,2.31 46.05,2.31 45.92,2.31 45.92,2.18 45.92,2.04 
	45.92,1.91 45.92,1.78 45.92,1.65 45.92,1.51 45.92,1.38 45.92,1.25 45.79,1.25 45.79,1.11 45.92,1.11 45.79,0.98 45.79,0.85 
	45.79,0.98 45.92,0.98 45.92,0.85 45.92,0.98 46.05,0.98 46.05,0.85 46.19,0.85 46.45,0.98 46.59,0.98 46.72,0.98 46.85,0.98 
	46.99,0.98 47.12,0.98 47.25,0.98 47.39,0.98 47.79,0.98 47.92,0.98 48.05,0.98 48.18,0.98 48.32,0.98 48.45,0.98 48.58,0.98 
	48.72,0.98 48.72,0.85 48.85,0.98 48.98,1.11 48.98,1.25 48.98,1.38 49.12,1.51 49.12,1.65 49.25,1.78 49.25,1.91 49.25,2.04 
	49.12,2.18 48.58,2.58 48.05,2.98 47.92,3.11 47.52,3.38 47.39,3.51 47.25,3.64 47.25,3.78 47.25,3.91 47.39,4.18 47.39,4.31 
	47.39,4.44 47.52,4.44 47.52,4.71 47.65,4.84 47.65,4.97 47.79,5.11 47.92,5.11 48.05,5.37 48.05,5.51 48.18,5.77 48.32,6.17 
	48.45,6.44 48.45,6.57 48.58,6.84 48.58,6.97 48.58,7.1 48.72,7.24 48.72,7.37 48.72,7.5 48.72,7.64 48.72,7.77 48.72,7.9 
	48.72,8.04 48.72,8.17 48.58,8.3 48.58,8.57 48.58,8.7 48.58,8.84 48.45,8.84 48.45,8.97 48.32,9.1 48.18,9.23 48.18,9.5 
	48.05,9.63 48.05,9.77 48.05,9.9 47.92,10.03 47.79,10.17 47.65,10.3 47.65,10.43 47.52,10.43 47.52,10.57 47.52,10.7 47.52,10.83 
	47.52,10.97 47.52,11.1 47.39,11.36 47.25,11.36 47.25,11.5 47.25,11.63 47.12,11.63 47.12,11.76 47.12,11.9 46.99,11.9 
	46.99,12.03 46.99,12.16 46.99,12.3 46.99,12.43 47.12,12.56 47.12,12.7 47.12,12.83 47.12,12.96 47.12,13.1 47.12,13.23 
	47.25,13.23 47.25,13.36 47.25,13.5 47.39,13.5 47.39,13.63 47.39,13.76 47.39,13.89 47.39,14.03 47.39,14.16 47.39,14.29 
	47.39,14.43 47.39,14.56 47.52,14.56 47.52,14.69 47.65,14.83 47.65,14.96 47.79,14.96 47.79,15.09 47.92,15.09 47.92,15.23 
	48.05,15.23 48.05,15.36 48.18,15.36 48.32,15.36 48.32,15.49 48.32,15.63 48.45,15.63 48.45,15.76 48.58,15.76 48.58,15.89 
	48.58,15.76 48.72,15.76 48.72,15.89 48.72,16.03 48.72,16.16 48.72,16.29 48.72,16.42 48.58,16.42 48.58,16.56 48.72,16.56 
	48.72,16.69 48.85,16.69 48.72,16.69 48.72,16.82 48.72,16.96 48.85,16.96 48.85,17.09 48.72,17.09 48.58,17.22 48.58,17.36 
	48.58,17.49 48.58,17.62 48.58,17.76 48.45,17.76 48.32,17.76 48.32,17.89 48.32,18.02 48.18,18.02 48.18,18.16 48.18,18.02 
	48.18,18.16 48.05,18.16 48.05,18.29 48.05,18.42 48.18,18.42 48.05,18.42 48.05,18.56 48.05,18.69 48.05,18.82 48.05,18.95 
	48.05,19.09 47.92,19.09 47.79,19.09 47.79,19.22 47.65,19.22 47.65,19.35 47.65,19.49 47.52,19.62 47.52,19.75 47.52,19.89 
	47.39,19.89 47.39,20.02 47.39,20.15 47.25,20.15 47.25,20.29 47.39,20.42 47.25,20.42 47.25,20.55 47.25,20.69 47.39,20.69 
	47.25,20.69 47.25,20.82 47.39,20.82 47.39,20.95 47.52,20.95 47.52,21.08 47.65,21.08 47.52,21.08 47.65,21.08 47.65,21.22 
	47.65,21.35 47.52,21.35 47.52,21.48 47.52,21.62 47.65,21.62 47.65,21.75 47.65,21.88 47.79,21.88 47.92,22.02 48.05,22.02 
	48.05,22.15 48.18,22.15 48.18,22.28 48.05,22.28 48.05,22.42 48.18,22.42 48.18,22.55 48.18,22.68 48.32,22.68 48.45,22.68 
	48.58,22.55 48.72,22.55 48.85,22.55 48.98,22.55 49.65,22.42 49.78,22.42 50.05,22.28 50.32,22.28 50.58,22.15 50.85,22.15 
	51.11,22.15 51.25,22.02 51.51,22.02 51.78,21.88 52.05,21.88 52.31,21.75 52.71,21.75 52.84,21.62 53.11,21.62 53.24,21.62 
	53.24,21.48 53.38,21.48 53.51,21.35 53.64,21.35 53.78,21.35 53.91,21.35 54.18,21.35 54.44,21.35 54.58,21.35 54.71,21.35 
	54.84,21.35 54.98,21.22 55.11,21.08 55.24,20.95 55.38,20.95 55.51,20.82 55.64,20.69 55.77,20.55 55.91,20.29 56.04,20.15 
	56.17,20.15 56.17,20.02 56.31,20.02 56.44,20.02 56.57,20.02 56.71,20.02 56.84,20.02 56.84,20.15 56.97,20.15 56.97,20.29 
	57.11,20.29 57.11,20.42 57.24,20.42 57.24,20.55 57.11,20.55 57.24,20.55 57.24,20.69 57.11,20.69 57.24,20.69 57.24,20.82 
	57.24,20.95 57.24,21.08 57.24,21.22 57.24,21.35 57.37,21.48 57.37,21.62 57.51,21.62 57.51,21.75 57.51,21.88 57.64,21.88 
	57.64,22.02 57.77,22.02 57.9,22.02 58.04,22.02 58.04,22.15 58.04,22.28 58.17,22.28 58.17,22.15 58.3,22.15 58.3,22.02 
	58.44,22.02 58.44,22.15 58.57,22.15 58.7,22.15 58.7,22.02 58.84,22.02 58.97,22.02 59.1,22.02 59.24,22.02 59.37,22.02 
	59.37,22.15 59.37,22.02 59.5,22.02 59.64,22.15 59.64,22.02 59.64,22.15 59.77,22.15 59.77,22.28 59.9,22.28 60.04,22.28 
	60.17,22.28 60.17,22.42 60.3,22.42 60.43,22.42 60.57,22.42 60.57,22.55 60.57,22.42 60.57,22.55 60.7,22.55 60.83,22.55 
	60.83,22.68 60.97,22.82 60.97,22.95 61.1,23.08 61.1,23.35 61.1,23.61 61.23,23.75 61.23,23.88 61.23,24.15 61.23,24.55 
	61.23,24.68 61.23,24.81 61.23,24.95 61.23,25.21 61.37,25.88 61.37,26.14 61.37,26.28 61.37,26.41 61.5,26.54 61.5,26.68 
	61.63,26.68 61.63,26.81 61.77,26.81 61.9,26.81 62.03,26.94 62.17,26.94 62.3,27.08 62.43,27.08 62.57,27.21 62.7,27.21 
	62.83,27.34 62.96,27.34 63.1,27.34 63.23,27.34 63.36,27.34 63.5,27.34 63.63,27.48 63.76,27.34 63.9,27.34 64.03,27.34 
	64.3,27.34 64.56,27.34 64.7,27.34 64.83,27.34 64.83,27.48 64.96,27.61 64.96,27.74 65.1,27.74 65.23,27.88 65.36,27.88 
	65.49,27.88 65.63,28.01 65.76,28.01 65.76,28.14 65.89,28.28 66.03,28.41 66.16,28.54 66.16,28.67 66.16,28.81 65.89,29.07 
	65.76,29.21 65.76,29.34 65.76,29.47 65.76,29.61 65.76,29.74 65.89,29.87 65.89,30.01 65.89,30.14 65.76,30.27 65.63,30.41 
	65.63,30.54 65.63,30.67 65.76,30.67 65.76,30.8 65.89,30.8 65.89,30.94 65.89,31.07 66.03,31.07 66.03,31.2 66.03,31.34 
	66.16,31.47 66.16,31.6 66.29,31.6 66.29,31.74 66.29,31.87 66.43,31.87 66.69,31.87 66.83,31.87 66.96,31.87 66.96,32 67.09,32 
	67.23,32 67.36,32 67.36,32.14 67.63,32.27 67.76,32.4 67.76,32.54 67.89,32.54 67.89,32.67 68.02,32.8 68.16,32.93 68.16,33.07 
	68.16,33.2 68.16,33.33 68.29,33.33 68.42,33.2 68.42,33.07 68.42,32.93 68.42,32.8 68.56,32.8 68.56,32.67 68.69,32.67 68.82,32.8 
	68.82,32.93 68.82,33.07 68.69,33.07 68.69,33.2 68.82,33.2 68.82,33.33 68.96,33.47 68.82,33.6 68.56,33.47 68.56,33.6 
	68.56,33.73 68.69,33.73 68.82,33.73 68.96,33.87 68.96,34 68.82,34 68.69,34 68.56,34 68.56,34.13 68.42,34.13 68.42,34.27 
	68.29,34.4 68.29,34.53 68.42,34.53 68.56,34.53 68.69,34.53 68.82,34.53 68.96,34.53 69.09,34.53 69.09,34.67 68.96,34.67 
	68.82,34.8 68.69,34.93 68.69,35.07 68.69,35.2 68.82,35.2 68.96,35.2 69.09,35.2 69.22,35.2 69.36,35.33 69.36,35.46 69.49,35.46 
	69.49,35.6 69.49,35.73 69.36,35.73 69.36,35.6 69.22,35.6 69.09,35.46 68.96,35.46 68.96,35.6 69.09,35.73 69.09,35.86 
	69.22,35.86 69.22,36 69.22,36.13 69.22,36.26 69.36,36.26 69.49,36.26 69.62,36.13 69.62,36 69.76,35.86 69.89,35.73 70.02,35.73 
	70.15,35.73 70.15,35.6 70.29,35.6 70.29,35.46 70.29,35.33 70.42,35.33 70.55,35.33 70.55,35.46 70.69,35.46 70.82,35.46 
	70.82,35.33 70.82,35.2 70.69,35.2 70.69,35.07 70.82,34.93 70.95,35.07 71.09,35.07 71.09,34.93 71.09,34.8 70.95,34.8 
	70.95,34.67 71.09,34.67 71.09,34.53 71.22,34.4 71.22,34.27 71.35,34.13 71.35,34.27 71.49,34.27 71.49,34.4 71.62,34.4 
	71.75,34.27 71.89,34.27 72.02,34.27 72.02,34.4 72.15,34.53 72.29,34.53 72.42,34.53 72.55,34.53 72.55,34.4 72.42,34.27 
	72.55,34.13 72.68,34.13 72.68,34.27 72.82,34.27 72.95,34.27 72.95,34.13 73.08,34.13 73.08,34.27 73.08,34.4 72.95,34.53 
	72.82,34.67 72.95,34.67 72.95,34.8 "/>
</svg>
