<?xml version="1.0" encoding="utf-8"?>
<!-- Generator: Adobe Illustrator 24.2.1, SVG Export Plug-In . SVG Version: 6.00 Build 0)  -->
<svg version="1.1" id="Layer_1" xmlns="http://www.w3.org/2000/svg" xmlns:xlink="http://www.w3.org/1999/xlink" x="0px" y="0px"
	 viewBox="0 0 97.23 97.23" style="enable-background:new 0 0 97.23 97.23;" xml:space="preserve">
<style type="text/css">
	.st0{fill-rule:evenodd;clip-rule:evenodd;}
</style>
<polygon class="st0" points="70,20.61 70,20.79 70,20.98 70.18,21.16 70.18,21.34 70.18,21.71 70.18,21.89 70.18,22.08 70.36,22.45 
	70.36,22.63 70.36,22.81 70.55,23.18 70.55,23.37 70.73,23.55 70.73,23.73 70.73,23.92 71.1,24.84 71.28,25.02 71.28,25.21 
	71.65,25.76 71.65,25.94 71.83,26.12 72.2,26.49 72.2,26.68 72.2,26.86 72.39,26.86 72.39,27.04 72.39,27.23 72.39,27.41 
	72.57,27.6 72.57,27.78 72.39,27.96 72.39,28.33 72.39,28.52 72.39,28.7 72.39,28.88 72.39,29.07 72.39,29.25 72.39,29.43 
	72.57,29.62 72.57,29.99 72.57,30.17 72.57,30.35 72.75,30.54 72.75,30.72 72.75,30.91 72.94,31.09 72.94,31.27 73.12,31.46 
	73.12,31.64 73.12,31.83 73.12,32.01 73.12,32.19 73.12,32.38 73.12,32.75 72.94,32.93 72.94,33.11 72.94,33.3 72.75,33.48 
	72.75,33.66 72.75,33.85 72.75,34.03 72.57,34.22 72.57,34.4 72.57,34.58 72.39,34.77 72.39,34.95 72.39,35.14 72.2,35.32 
	72.2,35.5 72.02,35.69 72.02,35.87 72.02,36.06 72.02,36.24 72.02,36.42 71.83,36.61 71.83,36.79 71.83,36.97 71.83,37.16 
	71.65,37.34 71.65,37.53 71.47,37.71 71.47,37.89 71.28,38.45 71.28,38.63 71.28,38.81 71.1,39 71.1,39.18 71.1,39.37 71.1,39.55 
	71.1,39.73 71.1,39.92 71.1,40.1 71.1,40.28 70.91,40.47 70.91,40.65 70.91,40.84 70.91,41.02 70.91,41.2 70.91,41.39 70.91,41.57 
	70.91,41.76 70.91,41.94 70.91,42.12 70.91,42.31 70.91,42.49 70.91,42.68 70.91,42.86 70.91,43.04 70.91,43.23 70.91,43.41 
	70.73,43.6 70.73,43.78 70.73,43.96 70.73,44.15 70.73,44.33 70.73,44.51 70.55,44.51 70.55,44.7 70.55,44.88 70.55,45.25 
	70.36,45.43 70.36,45.62 70.36,46.17 70.36,46.54 70.36,46.72 70.36,47.27 70.55,47.46 70.55,47.83 70.55,48.01 70.55,48.19 
	70.55,48.38 70.55,48.56 70.73,48.56 70.73,48.74 71.1,49.48 71.28,49.85 71.28,50.03 71.47,50.22 71.47,50.4 71.65,50.58 
	71.83,50.58 72.02,50.77 72.2,50.95 72.2,51.14 72.94,51.87 73.12,52.05 73.12,52.24 73.31,52.42 73.49,52.61 73.86,52.97 
	74.04,52.97 74.04,53.16 74.23,53.34 74.41,53.53 74.59,53.53 74.78,53.71 75.14,53.89 75.88,54.45 76.25,54.63 76.43,54.81 
	76.98,55.18 77.35,55.37 78.09,55.73 78.46,55.92 79.01,56.1 79.19,56.28 79.56,56.28 80.11,56.65 80.48,56.65 80.66,56.65 
	80.66,56.84 80.85,56.84 81.03,57.02 81.4,57.2 81.77,57.57 82.32,58.31 82.69,58.68 83.05,58.86 83.24,59.23 83.24,59.41 
	83.42,59.59 83.6,59.78 83.6,59.96 83.79,60.15 83.79,60.33 83.97,60.7 83.97,60.88 84.16,61.07 84.16,61.25 84.16,61.43 
	84.16,61.62 84.34,61.8 84.34,61.99 84.34,62.35 84.16,62.72 84.16,62.91 84.16,63.27 84.16,63.46 84.34,63.64 84.34,63.82 
	84.52,64.01 84.71,64.19 84.89,64.38 84.89,64.74 85.08,64.93 85.26,65.3 85.44,65.48 85.63,65.66 85.81,65.85 86,66.03 
	86.18,66.22 86.36,66.4 86.55,66.77 86.73,66.95 86.73,67.13 86.73,67.32 86.73,67.5 86.73,67.69 86.73,67.87 86.73,68.24 
	86.73,68.42 86.92,68.61 87.1,68.79 87.28,68.97 87.28,69.16 87.47,69.34 87.47,69.53 87.65,69.53 87.83,69.71 88.02,69.89 
	88.2,69.89 88.39,70.08 88.57,70.26 88.94,70.26 89.12,70.26 89.31,70.08 89.67,70.08 89.86,70.08 90.04,70.08 90.23,70.08 
	90.41,70.26 90.78,70.26 90.96,70.45 91.14,70.63 91.33,70.81 91.51,71 91.7,71.18 91.7,71.36 91.7,71.55 91.88,71.73 91.88,71.92 
	92.06,72.1 92.25,72.28 92.43,72.47 92.62,72.65 92.8,72.84 92.98,73.02 93.17,73.39 93.35,73.57 93.54,73.76 93.72,73.94 
	93.72,74.12 93.9,74.31 94.09,74.49 94.09,74.67 94.27,74.86 94.46,75.04 94.82,75.23 95.01,75.41 95.19,75.41 95.37,75.59 
	95.56,75.59 95.74,75.78 96.11,75.96 96.48,76.15 96.66,76.33 96.85,76.33 96.66,76.51 96.48,76.51 96.29,76.51 96.29,76.7 
	96.29,76.88 96.11,76.88 95.19,76.33 95.01,76.15 94.82,75.96 94.64,75.96 94.46,75.96 94.46,76.15 94.46,76.33 94.27,76.33 
	94.27,76.51 94.46,76.51 94.46,76.7 94.64,76.7 94.64,76.88 94.82,76.88 94.82,77.07 94.64,77.07 94.64,77.25 94.46,77.43 
	94.27,77.62 94.09,77.8 93.9,77.8 93.9,77.62 93.72,77.62 93.72,77.8 93.72,77.99 93.54,78.17 93.54,78.35 93.35,78.35 93.17,78.35 
	93.17,78.54 92.98,78.54 92.98,78.72 92.8,78.72 92.62,78.72 92.43,78.72 92.43,78.9 92.25,78.9 92.06,79.09 91.88,79.09 
	91.88,79.27 91.7,79.27 91.51,79.27 91.33,79.27 91.14,79.27 90.96,79.27 90.78,79.09 90.59,79.09 90.41,79.09 90.23,79.09 
	90.04,79.09 89.86,79.27 89.86,79.46 89.67,79.64 89.67,79.82 89.49,80.01 89.49,80.19 89.31,80.19 89.12,80.19 89.12,80.38 
	88.94,80.38 88.57,80.38 88.57,80.56 88.57,80.74 88.39,80.74 88.2,80.74 88.02,80.74 88.02,80.93 87.83,80.93 87.83,81.11 
	87.65,81.11 87.65,81.3 87.47,81.3 87.28,81.3 87.1,81.3 87.1,81.48 87.1,81.66 87.1,81.85 87.1,82.03 87.1,82.21 87.1,82.4 
	87.28,82.4 87.28,82.58 87.47,82.77 87.65,82.95 87.65,83.13 87.47,83.13 87.28,83.13 87.1,83.13 86.92,83.13 86.92,82.95 
	86.92,83.13 86.92,83.5 86.92,83.69 86.73,83.69 86.73,83.87 86.55,83.87 86.55,84.05 86.36,84.05 86.36,84.24 86.18,84.24 
	86,84.24 85.63,84.24 85.44,84.24 85.26,84.24 85.08,84.24 85.08,84.42 85.08,84.61 84.89,84.61 84.71,84.61 84.71,84.79 
	84.52,84.79 84.34,84.97 84.16,84.97 84.16,85.16 83.97,85.16 83.79,85.16 83.6,84.97 83.42,84.97 83.24,84.97 83.05,84.97 
	82.87,84.97 82.69,85.16 82.5,85.16 82.32,85.34 82.13,85.34 81.95,85.34 81.95,85.16 81.77,85.16 81.58,84.97 81.4,84.97 
	81.21,84.79 81.03,84.97 81.03,85.16 81.03,85.34 81.03,85.53 80.85,85.71 80.85,86.08 80.85,86.26 80.66,86.26 80.66,86.44 
	80.48,86.63 80.29,86.63 80.11,86.81 79.93,86.81 79.74,86.81 79.56,86.81 79.37,86.63 79.19,86.63 79.01,86.63 78.82,86.63 
	78.64,86.63 78.46,86.63 78.27,86.63 78.09,86.63 78.09,86.44 78.09,86.26 78.09,86.08 78.09,85.89 77.9,85.71 77.72,85.71 
	77.54,85.53 77.35,85.53 77.17,85.53 76.98,85.53 76.8,85.53 76.62,85.53 76.43,85.53 76.25,85.53 76.06,85.71 75.88,85.71 
	75.7,85.71 75.51,85.71 75.33,85.71 75.14,85.89 74.78,85.89 74.59,85.71 74.41,85.53 74.23,85.53 74.04,85.53 73.86,85.53 
	73.67,85.89 73.49,85.89 73.31,85.71 73.31,85.53 73.12,85.34 72.94,85.34 72.94,85.16 72.75,85.16 72.57,85.34 72.39,85.34 
	72.02,85.34 71.83,85.34 71.47,85.34 71.28,85.34 71.1,85.34 70.73,85.34 70.55,85.34 70.36,85.34 70,85.34 69.81,85.34 
	69.63,85.34 69.63,85.16 69.44,85.16 69.44,84.97 69.44,84.79 69.26,84.79 69.08,84.79 69.08,84.61 68.89,84.61 68.71,84.61 
	68.71,84.79 68.52,84.79 68.52,84.97 68.34,84.97 68.16,84.79 67.97,84.61 67.97,84.42 67.79,84.42 67.79,84.24 67.6,84.24 
	67.42,84.24 67.24,84.24 67.24,84.05 67.05,84.05 67.05,83.87 67.24,83.69 67.24,83.32 67.24,83.13 67.05,83.13 67.05,82.95 
	66.87,82.95 66.69,82.95 66.5,82.95 66.13,83.13 65.95,83.13 65.95,82.95 65.58,82.77 65.4,82.77 65.03,82.58 64.85,82.4 
	64.66,82.21 64.66,82.03 64.48,81.85 64.48,81.66 64.48,81.48 64.29,81.3 64.11,81.48 63.93,81.66 63.93,81.85 63.93,82.03 
	63.93,82.21 63.93,82.4 63.74,82.4 63.74,82.58 63.74,82.77 63.56,83.13 63.37,83.32 63.19,83.32 63.01,83.32 63.01,83.5 
	62.82,83.5 62.64,83.69 62.46,83.87 62.09,84.24 61.9,84.24 61.72,84.42 61.35,84.42 61.17,84.61 60.98,84.61 60.8,84.61 
	60.62,84.79 60.43,84.79 60.25,84.61 60.06,84.61 59.88,84.42 59.7,84.42 59.33,84.42 59.15,84.24 58.96,84.24 58.96,84.05 
	58.78,84.05 58.78,83.87 58.59,83.69 58.59,83.5 58.41,83.5 58.41,83.32 58.04,83.32 57.86,83.32 57.67,83.32 57.67,83.13 
	57.67,82.95 57.67,82.77 57.67,82.58 57.67,82.4 57.67,82.21 57.49,82.03 57.49,81.85 57.49,81.66 57.31,81.66 57.12,81.48 
	56.94,81.48 56.75,81.48 56.57,81.66 56.39,81.66 56.2,81.85 56.02,81.85 56.02,82.03 55.83,81.85 55.65,81.85 55.65,81.66 
	55.47,81.48 55.1,81.11 54.92,80.74 54.92,80.56 54.92,80.38 54.92,80.19 54.92,80.01 54.92,79.82 54.92,79.64 54.92,79.46 
	54.92,79.27 54.73,79.09 54.73,78.9 54.55,78.9 54.36,78.72 54.18,78.54 54,78.35 54,78.17 53.81,78.17 53.81,77.99 53.63,77.8 
	53.44,77.8 53.44,77.62 53.44,77.43 53.63,77.25 53.63,77.07 53.44,76.88 53.26,76.7 53.26,76.51 53.08,76.51 52.89,76.33 
	52.89,76.15 52.71,75.96 52.71,75.78 52.52,75.59 52.34,75.41 52.34,75.04 52.16,74.86 52.16,74.67 51.97,74.67 51.97,74.49 
	52.16,74.31 52.16,74.12 51.97,74.12 51.79,74.12 51.6,74.12 51.42,74.12 51.42,73.94 51.24,73.94 51.05,73.76 50.87,73.57 
	50.69,73.57 50.5,73.39 50.32,73.39 50.13,73.57 49.95,73.57 49.77,73.57 49.58,73.57 49.4,73.57 49.4,73.76 49.21,73.76 
	49.21,73.57 49.03,73.57 48.85,73.57 48.66,73.57 48.48,73.76 48.29,73.76 47.93,73.76 47.74,73.57 47.74,73.39 47.56,73.02 
	47.74,72.84 47.74,72.65 47.74,72.47 47.74,72.28 47.56,72.28 47.56,72.1 47.37,72.1 47.37,71.92 47.19,71.73 47.19,71.55 
	47.01,71.36 46.82,71.18 46.64,71.18 46.46,71.18 46.27,71 46.09,71 45.9,71 45.72,71 45.54,71 45.35,71 45.17,71 44.98,71 44.8,71 
	44.8,71.18 44.62,71.18 44.43,71.18 44.25,71.18 44.06,71.18 43.88,71.18 43.88,71 43.7,71 43.7,70.81 43.51,70.81 43.33,70.81 
	43.15,70.81 42.96,70.81 42.96,71 42.78,71 42.59,71.18 42.41,71.18 42.41,71 42.23,71 42.04,71 41.86,71 41.67,71 41.49,71 
	41.31,71 41.12,71 41.12,70.81 40.94,70.81 40.75,70.81 40.57,70.81 40.39,70.81 40.2,70.81 40.02,70.81 39.83,70.81 39.65,70.81 
	39.47,70.81 39.28,70.81 39.1,70.81 38.73,70.81 38.55,70.81 38.36,70.81 38.18,70.81 38,71 37.81,70.81 37.63,70.81 37.08,70.63 
	37.08,70.45 36.71,70.63 36.16,70.63 35.97,70.63 35.79,70.63 35.24,70.63 35.05,70.81 34.87,70.81 34.69,70.81 34.5,71 34.32,71 
	34.13,71 33.95,71 33.77,71.18 33.58,71.18 33.4,71.36 33.21,71.36 33.03,71.55 32.85,71.55 32.66,71.73 32.66,71.92 32.48,72.1 
	32.29,72.28 32.11,72.28 32.11,72.47 31.93,72.65 31.74,72.84 31.74,73.02 31.56,73.02 31.37,73.2 31.01,73.2 30.82,73.2 
	30.64,73.2 30.46,73.2 30.46,73.39 30.27,73.2 30.09,73.2 29.9,73.02 29.72,73.02 29.54,73.02 29.35,72.84 29.17,72.84 28.98,72.84 
	28.8,72.84 28.62,72.84 28.43,72.65 28.25,72.65 28.25,72.47 28.43,72.47 28.43,72.28 28.62,72.1 28.8,71.92 28.98,71.92 
	29.17,71.73 29.17,71.55 29.17,71.36 28.98,71.18 28.8,71 28.8,70.81 28.8,70.63 28.8,70.45 28.8,70.26 28.8,70.08 28.62,69.89 
	28.43,69.71 28.25,69.53 28.25,69.34 28.06,69.16 28.06,68.97 28.06,68.79 28.06,68.61 28.06,68.42 28.06,68.24 28.06,68.05 
	28.06,67.87 27.88,67.87 27.88,67.69 27.88,67.5 28.06,67.32 27.88,67.13 27.88,66.95 27.7,66.77 27.7,66.58 27.51,66.4 
	27.51,66.22 27.51,66.03 27.51,65.85 27.51,65.66 27.51,65.48 27.51,65.11 27.7,64.93 27.7,64.74 27.7,64.56 27.7,64.38 27.7,64.19 
	27.7,64.01 27.7,63.82 27.7,63.64 27.7,63.46 27.88,63.27 27.88,63.09 27.88,62.91 27.7,62.91 27.7,62.72 27.7,62.54 27.33,62.17 
	27.14,61.99 27.14,61.8 27.14,61.62 27.14,61.43 27.14,61.25 27.14,61.07 27.14,60.88 27.14,60.7 26.96,60.51 26.96,60.33 
	26.96,60.15 26.96,59.96 26.96,59.78 26.78,59.59 26.41,59.04 25.86,58.31 25.67,58.31 25.49,58.12 25.49,57.94 25.31,57.76 
	25.12,57.76 25.12,57.57 24.94,57.57 24.75,57.57 24.57,57.57 24.57,57.94 24.39,58.12 24.39,58.31 24.39,58.49 24.39,58.68 
	24.39,58.86 24.39,59.04 24.39,59.23 24.2,59.23 24.2,59.41 24.2,59.59 24.2,59.78 24.2,59.96 24.02,59.96 23.28,60.51 23.1,60.51 
	22.92,60.7 22.92,60.88 22.73,61.07 22.73,61.25 22.55,61.25 22.55,61.43 22.36,61.43 22.18,61.43 22,61.43 21.81,61.43 
	21.63,61.43 21.44,61.43 21.26,61.43 21.08,61.62 20.89,61.8 20.71,61.8 20.52,61.8 20.34,61.8 20.34,61.62 20.16,61.62 
	19.97,61.62 19.97,61.8 19.79,61.8 19.79,61.99 19.6,61.99 19.6,62.17 19.6,62.35 19.42,62.35 19.24,62.35 19.24,62.17 19.24,61.99 
	19.24,61.8 19.24,61.62 19.24,61.43 19.24,61.25 19.24,60.88 19.24,60.7 19.42,60.33 19.42,60.15 19.42,59.78 19.42,59.59 
	19.24,59.41 19.24,59.23 19.05,59.23 18.87,59.04 18.69,58.86 18.5,58.68 18.32,58.68 18.32,58.49 18.13,58.31 18.13,57.94 
	18.13,57.57 17.95,57.57 17.95,57.39 17.95,57.2 18.13,57.2 18.32,57.02 18.5,56.65 18.69,56.47 18.69,56.28 18.87,56.1 
	19.05,55.92 19.05,55.73 19.24,55.55 19.24,55.37 19.24,55.18 19.24,55 19.24,54.81 19.24,54.63 19.24,54.45 19.24,54.26 
	19.24,54.08 19.24,53.89 19.42,53.34 19.42,53.16 19.42,52.97 19.42,52.79 19.24,52.79 19.24,52.61 19.24,52.42 19.24,52.24 
	19.05,52.24 18.87,52.24 18.69,52.05 18.5,52.05 18.5,51.87 18.32,51.87 17.95,51.69 17.58,51.5 17.4,51.5 17.4,51.32 17.4,51.14 
	17.4,50.95 17.4,50.77 17.21,50.58 17.21,50.4 17.21,50.22 17.4,50.22 17.4,50.03 17.58,49.85 17.58,49.66 17.58,49.48 17.58,49.3 
	17.58,49.11 17.4,48.93 17.21,48.74 17.03,48.74 16.85,48.56 16.66,48.56 16.66,48.38 16.85,48.19 16.85,48.01 16.66,48.01 
	16.29,48.01 16.11,47.83 15.93,47.83 15.74,47.83 15.56,47.83 15.56,47.64 15.74,47.64 15.56,47.64 15.74,47.46 15.56,47.46 
	15.74,47.46 15.56,47.46 15.56,47.27 15.56,47.09 15.37,47.09 15.37,46.91 15.56,46.91 15.56,46.72 15.37,46.72 15.56,46.72 
	15.56,46.54 15.37,46.54 15.37,46.35 15.56,46.35 15.56,46.17 15.56,45.99 15.37,45.8 15.19,45.8 15.19,45.62 15.01,45.43 
	14.82,45.07 14.64,44.88 14.46,44.7 14.27,44.7 14.27,44.51 14.09,44.51 14.09,44.33 13.9,44.33 13.72,44.33 13.72,44.51 
	13.35,44.51 13.17,44.51 12.98,44.51 12.8,44.51 12.62,44.51 12.62,44.33 12.62,44.15 12.62,43.96 12.62,43.78 12.25,43.23 
	12.25,43.04 12.25,42.86 12.43,42.86 12.62,42.68 12.62,42.49 12.62,42.31 12.8,42.12 12.8,41.94 12.8,41.76 12.8,41.39 12.8,41.2 
	12.62,41.02 12.62,40.84 12.43,40.28 12.25,40.1 12.62,40.1 12.8,40.1 12.98,40.1 13.17,40.1 13.17,39.92 13.17,39.73 13.17,39.55 
	13.17,39.37 13.35,39.18 13.54,39.18 13.54,39 13.72,39 13.9,38.81 14.09,38.81 14.27,38.63 14.27,38.45 14.09,38.08 14.09,37.71 
	13.9,37.53 13.9,37.34 13.72,37.16 13.72,36.97 13.35,36.79 13.35,36.61 13.17,36.61 12.98,36.61 12.98,36.42 12.8,36.61 
	12.62,36.61 12.43,36.61 12.25,36.42 11.88,36.24 11.7,36.24 11.51,36.24 11.33,36.24 11.33,36.06 11.15,36.06 10.96,35.87 
	10.78,35.69 10.78,35.5 10.78,35.32 10.78,35.14 10.78,34.95 10.96,34.95 10.96,34.77 11.33,34.58 11.33,34.4 11.33,34.22 
	11.51,34.03 11.51,33.85 11.51,33.66 11.33,33.66 11.15,33.66 10.96,33.66 10.78,33.66 10.59,33.66 10.41,33.48 10.23,33.48 
	10.04,33.66 9.86,33.66 9.86,33.48 9.67,33.48 9.49,33.3 9.49,33.11 9.49,32.93 9.49,32.75 9.49,32.56 9.49,32.38 9.49,32.19 
	9.49,32.01 9.49,31.83 9.49,31.64 9.31,31.64 9.31,31.46 9.12,31.46 9.12,31.27 8.94,31.09 8.75,30.91 8.75,30.72 8.57,30.72 
	8.39,30.54 8.2,30.35 8.02,30.35 7.83,30.17 7.65,29.99 7.47,29.62 7.47,29.43 7.47,29.25 7.28,29.25 7.28,29.07 7.47,28.88 
	7.28,28.7 7.47,28.52 7.28,28.33 7.47,28.15 7.83,27.78 7.83,27.6 8.02,27.41 8.2,27.41 8.39,27.23 8.57,27.23 8.57,27.04 
	8.57,26.86 8.57,26.68 8.39,26.68 8.2,26.49 8.02,26.49 7.83,26.49 7.83,26.31 7.65,26.31 7.65,26.12 7.47,26.12 7.28,26.12 
	7.28,25.94 7.1,25.94 6.91,25.94 6.91,26.12 6.73,26.12 6.73,26.31 6.55,26.31 6.18,26.49 6,26.49 5.81,26.49 5.63,26.49 
	5.63,26.31 5.44,26.12 5.26,25.94 5.26,25.76 5.08,25.76 5.08,25.57 4.89,25.57 4.89,25.39 4.71,25.21 4.71,25.02 4.52,25.02 
	4.52,24.84 4.34,24.84 4.16,24.84 3.97,24.65 3.97,24.47 3.79,24.47 3.79,24.29 3.6,24.1 3.42,23.92 3.42,23.73 3.24,23.73 
	3.24,23.55 3.24,23.37 3.05,23.37 3.05,23.18 3.05,23 3.05,22.81 3.24,22.81 3.05,22.81 3.05,22.63 3.05,22.45 3.05,22.26 
	3.05,22.08 3.24,21.89 3.24,21.71 3.05,21.71 2.87,21.71 2.68,21.89 2.5,21.89 2.32,21.89 2.13,21.89 1.95,21.71 1.77,21.71 
	1.58,21.53 1.4,21.34 1.21,21.16 1.03,20.79 0.85,20.61 1.03,20.42 1.4,20.24 1.77,20.24 1.95,20.06 2.32,19.87 2.68,19.87 
	2.87,19.69 3.24,19.69 3.42,19.5 3.79,19.5 4.16,19.32 4.34,19.32 4.34,19.14 4.52,18.95 4.71,18.4 4.71,17.67 4.71,17.48 
	4.89,17.48 4.89,17.3 5.08,17.3 5.63,17.11 5.81,16.93 6,16.75 6.18,16.38 6.36,16.19 6.36,16.01 6.18,15.64 6.18,15.46 6.18,15.09 
	6.18,14.91 6.18,14.72 6.18,14.54 6,14.35 6,14.17 6,13.99 5.81,13.99 6,13.8 6,13.62 6.18,13.62 6.36,13.44 6.55,13.44 6.73,13.44 
	6.91,13.44 7.1,13.44 7.47,13.25 7.83,13.25 8.02,13.25 8.39,13.25 8.75,13.25 9.12,13.25 9.31,13.25 9.49,13.25 9.67,13.25 
	9.86,13.07 10.04,13.07 10.23,13.07 10.41,13.25 10.96,13.25 11.15,13.25 11.33,13.25 11.51,13.25 11.7,13.07 11.88,13.07 
	12.06,13.07 12.25,13.07 12.25,13.25 12.25,13.44 12.25,13.62 12.06,13.62 12.25,13.62 12.25,13.8 12.43,13.8 12.62,13.8 12.8,13.8 
	12.8,13.99 12.98,13.99 13.17,13.99 13.17,14.17 13.35,14.17 13.35,14.35 13.54,14.35 13.72,14.35 13.9,14.35 14.09,14.35 
	14.09,14.54 14.09,14.35 14.27,14.35 14.46,14.35 14.46,14.54 14.46,14.35 14.46,14.54 14.46,14.35 14.64,14.35 14.64,14.54 
	14.82,14.54 15.01,14.54 15.01,14.35 15.01,14.17 15.19,13.99 15.19,13.8 15.37,13.62 15.37,13.44 15.56,13.25 15.56,13.07 
	15.56,13.25 15.74,13.25 15.74,13.07 15.93,12.88 15.93,12.7 16.11,12.7 16.29,12.7 16.29,12.52 16.48,12.52 16.66,12.52 
	16.85,12.52 17.03,12.52 17.21,12.52 17.4,12.52 17.58,12.52 17.77,12.52 18.13,12.33 18.32,12.52 18.5,12.52 18.69,12.52 
	18.69,12.33 18.69,11.96 18.69,11.78 18.69,11.6 18.69,11.41 18.87,11.41 19.05,11.41 19.24,11.23 19.6,10.86 19.6,11.04 
	19.79,11.23 19.79,11.41 19.97,11.6 19.97,11.78 20.16,11.78 20.16,11.96 20.16,12.33 20.34,12.52 20.34,12.7 20.34,12.88 
	20.34,13.07 20.34,13.25 20.52,13.44 20.52,13.62 20.89,13.99 21.08,13.99 21.08,14.17 21.44,14.35 21.63,14.54 21.63,14.72 
	21.63,14.91 21.81,14.91 21.81,15.09 22,15.09 22.18,15.09 22.18,15.27 22.36,15.27 22.36,15.46 22.36,15.64 22.36,15.83 
	22.36,16.01 22.36,16.19 22.18,16.19 22.36,16.38 22.36,16.19 22.55,16.19 22.73,16.19 22.73,16.38 22.92,16.38 22.92,16.19 
	23.1,16.19 23.28,16.19 23.28,16.01 23.47,16.01 23.28,16.01 23.28,15.83 23.28,15.64 23.47,15.64 23.47,15.46 23.47,15.27 
	23.65,15.27 23.65,15.09 23.65,14.91 23.83,14.72 23.83,14.54 24.02,14.54 24.02,14.35 24.2,14.35 24.39,14.17 24.39,13.99 
	24.57,13.99 24.57,13.8 24.57,13.62 24.75,13.44 24.75,13.25 24.75,13.07 24.94,13.07 25.12,12.88 25.12,12.7 25.49,12.7 
	25.67,12.52 25.86,12.52 26.04,12.33 26.23,12.15 26.41,11.96 26.59,11.78 26.78,11.6 26.96,11.41 27.14,11.04 27.33,10.86 
	27.51,10.86 27.88,10.86 28.06,11.04 28.25,11.04 28.43,11.04 28.62,11.04 28.98,11.23 29.17,11.23 29.54,11.23 29.72,11.23 
	30.09,11.23 30.27,11.41 30.09,11.6 30.27,11.78 30.27,11.96 30.46,12.15 30.64,12.15 31.01,12.33 31.19,12.52 31.37,12.52 
	31.37,12.7 31.56,12.52 31.74,12.33 32.11,12.15 32.29,12.15 32.48,12.15 32.66,12.33 32.85,12.7 33.03,12.88 33.21,12.88 
	33.21,13.07 33.4,13.07 33.4,13.25 33.58,13.25 33.58,13.07 33.77,13.07 33.77,12.88 33.95,12.88 34.13,12.88 34.32,12.88 
	34.5,13.07 34.69,13.25 34.69,13.44 34.87,13.62 35.05,13.62 35.05,13.44 35.24,13.44 35.42,13.25 35.42,13.07 35.42,12.88 
	35.42,12.7 35.6,12.7 35.6,12.52 35.79,12.33 35.79,12.15 35.97,12.15 35.97,11.96 36.16,11.96 36.34,11.96 36.52,12.15 
	36.71,12.15 36.89,12.15 37.08,12.33 37.26,12.52 37.44,12.7 37.63,12.7 37.63,13.07 37.81,13.07 37.81,13.25 38,13.25 38.18,13.25 
	38.36,13.25 38.55,13.44 38.55,13.62 38.73,13.62 38.92,13.8 39.1,13.8 39.1,13.99 39.1,14.17 39.28,14.35 39.28,14.54 39.47,14.72 
	39.65,14.72 39.83,14.72 40.2,14.54 40.39,14.54 40.75,14.72 40.94,14.72 41.12,14.72 41.31,14.72 41.49,14.54 41.67,14.54 
	41.86,14.72 42.04,14.72 42.23,14.54 42.41,14.72 42.59,14.91 42.78,15.09 42.96,15.27 43.15,15.46 43.15,15.64 43.51,15.83 
	44.06,16.01 44.25,16.19 44.43,16.19 44.62,16.19 44.8,16.19 45.9,15.83 46.64,15.27 47.93,14.54 48.66,14.35 48.85,14.35 
	49.4,14.54 49.58,14.54 49.77,14.72 49.95,14.72 50.13,14.72 50.13,14.54 50.5,14.35 50.69,14.17 50.69,14.35 50.87,14.35 
	51.05,14.54 51.24,14.72 51.6,14.72 51.79,14.72 51.97,14.91 52.16,14.91 52.52,14.54 52.71,14.54 52.89,14.72 53.08,14.72 
	53.26,14.72 53.44,14.72 53.81,14.72 54,14.72 54,14.54 54.18,14.54 54.36,14.35 54.55,14.35 54.73,14.35 55.1,14.54 55.28,14.54 
	55.47,14.54 55.47,14.72 55.65,14.72 56.02,14.72 56.2,14.91 56.39,14.91 56.57,14.91 56.75,14.91 56.94,14.72 57.12,14.72 
	57.31,14.72 57.49,14.54 57.67,14.54 57.86,14.72 58.04,14.72 58.23,14.72 58.41,14.54 58.59,14.72 58.59,14.91 58.59,15.09 
	58.78,15.27 58.96,15.46 58.96,15.64 59.15,15.83 59.33,16.01 59.51,16.01 59.51,16.19 59.51,16.75 59.51,17.11 59.51,17.3 
	59.51,17.48 59.33,17.67 59.33,17.85 59.33,18.03 59.33,18.22 59.33,18.4 59.51,18.58 59.51,18.77 59.7,18.95 59.88,19.14 
	60.06,19.14 60.06,19.32 60.06,19.5 60.06,19.69 60.25,19.69 60.25,19.87 60.25,19.69 60.43,19.87 60.43,20.06 60.43,20.24 
	60.62,20.06 60.62,20.24 60.8,20.24 60.8,20.42 60.8,20.61 60.98,20.61 60.98,20.42 61.17,20.42 61.17,20.61 61.35,20.61 
	61.54,20.61 61.54,20.79 61.35,20.79 61.35,20.98 61.54,20.98 61.54,21.16 61.54,21.34 61.72,21.34 61.9,21.34 61.9,21.53 
	61.9,21.71 62.09,21.71 62.09,21.89 62.09,22.08 62.09,22.26 62.27,22.26 62.27,22.08 62.27,22.26 62.27,22.45 62.46,22.26 
	62.46,22.45 62.64,22.45 62.64,22.26 62.64,22.45 62.82,22.45 62.82,22.63 63.01,22.63 63.01,22.45 63.01,22.26 63.01,22.08 
	63.19,22.08 63.19,21.89 63.19,22.08 63.19,21.89 63.37,21.89 63.37,21.71 63.56,21.71 63.56,21.89 63.56,21.71 63.74,21.71 
	63.93,21.16 64.48,20.42 64.66,20.42 64.85,20.24 65.03,20.06 65.21,19.87 65.4,19.69 65.58,19.5 65.77,19.32 65.95,18.95 
	65.95,18.77 66.13,18.58 66.13,18.4 66.13,18.22 66.32,18.22 66.5,18.22 66.69,18.22 66.87,18.03 67.05,18.03 67.24,18.03 
	67.42,17.85 67.6,17.85 67.79,17.85 67.79,18.03 67.79,18.22 67.79,18.4 67.79,18.58 67.97,18.58 67.97,18.77 68.16,18.77 
	68.16,18.95 67.97,18.95 68.16,19.14 68.16,19.32 68.34,19.5 68.34,19.69 68.34,19.87 68.34,20.06 68.52,20.06 68.71,20.06 
	68.71,20.24 68.89,20.24 68.89,20.42 69.08,20.42 69.08,20.24 69.08,20.42 69.26,20.42 69.44,20.42 69.63,20.42 69.81,20.42 "/>
</svg>
