<?xml version="1.0" encoding="utf-8"?>
<!-- Generator: Adobe Illustrator 24.2.1, SVG Export Plug-In . SVG Version: 6.00 Build 0)  -->
<svg version="1.1" id="Layer_1" xmlns="http://www.w3.org/2000/svg" xmlns:xlink="http://www.w3.org/1999/xlink" x="0px" y="0px"
	 viewBox="0 0 97.23 97.23" style="enable-background:new 0 0 97.23 97.23;" xml:space="preserve">
<style type="text/css">
	.st0{fill-rule:evenodd;clip-rule:evenodd;}
</style>
<polygon class="st0" points="28.89,0.85 29.02,0.85 29.16,0.85 29.16,0.98 29.16,1.11 29.29,1.11 29.29,1.25 29.16,1.25 29.16,1.38 
	29.29,1.38 29.42,1.38 29.42,1.51 29.56,1.51 29.56,1.65 29.69,1.65 29.69,1.78 29.69,1.91 29.82,1.91 29.82,2.05 29.96,2.05 
	30.09,2.18 30.09,2.31 30.09,2.45 30.22,2.45 30.22,2.58 30.22,2.71 30.36,2.71 30.49,2.85 30.62,2.85 30.62,2.71 30.62,2.58 
	30.62,2.45 30.62,2.31 30.62,2.18 30.62,2.05 30.62,1.91 30.76,1.91 30.62,1.91 30.76,1.78 30.89,1.78 30.89,1.91 30.89,2.05 
	31.02,2.05 31.02,1.91 31.16,1.91 31.16,1.78 31.29,1.78 31.16,1.78 31.16,1.65 31.16,1.51 31.29,1.51 31.29,1.38 31.42,1.38 
	31.82,1.11 31.96,1.25 31.96,1.38 32.09,1.38 32.22,1.51 32.36,1.65 32.36,1.78 32.49,1.78 32.49,1.91 32.62,1.91 32.76,2.05 
	32.89,2.18 33.02,2.31 33.16,2.31 33.29,2.45 33.56,2.85 34.22,3.78 34.22,3.91 34.36,4.05 34.49,4.18 34.49,4.31 34.49,4.45 
	34.62,4.58 34.76,4.71 34.76,4.85 34.76,4.98 34.89,5.11 34.89,5.25 34.89,5.38 35.02,5.51 35.02,5.65 35.16,5.78 35.16,5.92 
	35.16,6.05 35.29,6.18 35.29,6.32 35.42,6.45 35.42,6.58 35.42,6.72 35.56,6.85 35.56,6.98 35.69,7.12 35.69,7.25 35.69,7.38 
	35.82,7.52 35.82,7.65 36.09,7.92 36.23,8.18 36.36,8.32 36.36,8.58 36.49,8.72 36.49,8.85 36.63,8.98 36.63,9.25 36.76,9.38 
	36.76,9.52 36.89,9.78 36.89,9.92 37.03,10.05 37.03,10.18 37.16,10.18 37.16,10.32 37.29,10.58 37.29,10.72 37.43,10.85 
	37.43,10.98 37.43,11.12 37.56,11.25 37.56,11.38 37.69,11.52 37.69,11.65 37.83,11.92 37.83,12.05 37.96,12.18 37.96,12.32 
	38.09,12.45 38.09,12.58 38.23,12.72 38.23,12.85 38.23,12.98 38.36,13.12 38.49,13.25 38.49,13.39 38.63,13.52 38.76,13.65 
	38.76,13.79 38.89,13.92 39.03,13.92 39.29,14.05 39.43,14.19 39.56,14.32 39.69,14.45 39.83,14.45 39.96,14.59 40.09,14.59 
	40.23,14.72 40.49,14.72 40.49,14.85 40.76,14.99 40.89,14.99 41.03,14.99 41.29,14.99 41.43,14.99 41.69,15.12 41.83,15.12 
	41.96,15.12 42.09,15.25 42.23,15.25 42.36,15.25 42.49,15.39 42.63,15.39 42.9,15.39 43.03,15.39 43.16,15.39 43.3,15.52 
	43.43,15.52 43.56,15.65 43.7,15.79 43.83,15.79 43.96,15.92 44.1,16.05 44.23,16.05 44.36,16.19 44.5,16.32 44.63,16.45 
	44.76,16.59 44.76,16.72 44.9,16.85 45.03,16.99 45.16,17.12 45.16,17.25 45.3,17.39 45.3,17.52 46.1,18.72 46.23,18.85 
	46.23,18.99 46.23,19.12 46.36,19.25 46.5,19.39 46.5,19.52 46.63,19.65 46.76,19.79 46.9,19.92 46.9,20.05 47.03,20.19 
	47.03,20.32 47.16,20.45 47.3,20.59 47.43,20.72 47.43,20.86 47.56,20.99 47.7,21.26 47.7,21.39 47.83,21.52 47.83,21.79 
	47.96,21.92 48.1,22.06 48.1,22.19 48.23,22.32 48.23,22.46 48.36,22.59 48.63,22.99 48.9,23.39 49.16,23.79 49.43,24.06 
	49.57,24.19 49.7,24.46 49.97,24.72 50.23,24.99 50.5,25.26 50.77,25.52 50.9,25.92 51.17,26.06 51.3,26.32 51.43,26.46 
	51.43,26.59 51.57,26.72 51.7,26.86 51.83,26.99 51.97,27.26 51.97,27.39 52.1,27.52 52.23,27.92 52.5,28.19 52.77,28.59 
	53.03,28.86 53.17,28.99 53.43,29.26 53.7,29.39 53.7,29.53 53.83,29.66 53.97,29.66 54.23,29.66 54.37,29.79 54.63,29.93 
	54.77,30.06 54.9,30.19 55.03,30.33 55.17,30.33 55.3,30.46 55.43,30.46 55.43,30.59 55.57,30.59 55.57,30.73 55.7,30.86 
	55.83,30.86 55.97,30.86 56.1,30.86 56.23,30.99 56.37,30.99 56.5,31.13 56.63,31.13 56.77,31.13 56.9,31.26 57.04,31.26 
	57.17,31.39 57.3,31.39 57.3,31.53 57.44,31.53 57.57,31.66 57.7,31.66 57.84,31.79 57.97,31.79 58.1,31.93 58.24,31.93 
	58.37,32.06 58.5,32.19 58.64,32.19 58.77,32.33 58.9,32.33 59.04,32.46 59.17,32.46 59.17,32.59 59.44,32.59 59.57,32.73 
	59.7,32.73 59.84,32.86 59.97,32.86 60.1,32.99 60.24,32.99 60.37,33.13 60.5,33.13 60.64,33.26 60.77,33.26 60.9,33.39 
	61.04,33.39 61.17,33.53 61.3,33.53 61.44,33.53 61.57,33.66 61.7,33.79 61.84,33.79 61.97,33.93 62.1,33.93 62.24,34.06 
	62.37,34.06 62.5,34.19 62.64,34.33 62.77,34.33 62.9,34.46 63.04,34.46 63.17,34.59 63.3,34.59 63.44,34.73 63.57,34.73 
	63.71,34.86 63.84,34.99 63.97,34.99 64.11,35.13 64.24,35.13 64.37,34.99 64.51,34.99 64.64,34.99 64.77,34.99 64.91,35.13 
	65.04,35.13 65.17,35.26 65.31,35.26 65.44,35.39 65.57,35.53 65.71,35.66 65.84,35.66 65.97,35.8 66.11,35.8 66.24,35.93 
	66.37,36.06 66.51,36.06 66.64,36.2 66.77,36.2 66.91,36.33 67.04,36.46 67.17,36.6 67.31,36.6 67.44,36.73 67.57,36.86 
	67.71,36.86 67.84,37 67.97,37 68.11,37.13 68.24,37.13 68.24,37.26 68.51,37.26 68.51,37.4 68.64,37.53 68.77,37.53 68.91,37.66 
	69.04,37.66 69.17,37.8 69.31,37.8 69.31,37.93 69.44,37.93 69.57,38.06 69.71,38.06 69.84,38.06 69.97,38.2 70.11,38.2 
	70.24,38.33 70.37,38.33 70.51,38.46 70.64,38.46 70.78,38.6 70.91,38.73 71.04,38.73 71.18,38.86 71.31,39 71.44,39 71.58,39.13 
	71.71,39.26 71.84,39.4 71.98,39.4 72.11,39.53 72.11,39.66 72.24,39.8 72.38,39.8 72.51,39.93 72.51,40.06 72.64,40.2 73.04,40.73 
	73.18,41.26 73.31,41.4 73.31,41.53 73.31,41.66 73.44,41.93 73.58,42.2 73.71,42.33 73.71,42.46 73.84,42.6 73.84,42.73 
	73.98,42.86 74.11,43 74.24,43.13 74.24,43.27 74.78,43.67 74.78,43.8 75.04,44.2 75.04,44.33 75.18,44.33 75.18,44.47 75.31,44.6 
	75.31,44.73 75.44,44.87 75.44,45 75.58,45 75.58,45.13 75.71,45.27 75.84,45.27 75.98,45.4 76.38,45.8 76.51,45.8 76.64,46.07 
	76.78,46.07 76.78,46.2 76.91,46.2 76.91,46.33 77.04,46.33 77.04,46.47 77.18,46.47 77.18,46.6 77.31,46.6 77.31,46.73 
	77.44,46.87 77.58,47 77.58,47.13 77.71,47.13 77.71,47.27 77.84,47.27 77.84,47.4 77.98,47.53 78.11,47.67 78.11,47.8 78.25,47.8 
	78.25,47.93 78.38,47.93 78.38,48.07 78.51,48.2 78.51,48.33 78.65,48.33 78.65,48.47 78.78,48.47 78.78,48.6 78.78,48.73 
	78.91,48.73 78.91,48.87 78.91,49 79.05,49 79.05,49.13 79.05,49.27 79.05,49.4 79.05,49.53 79.18,49.53 79.18,49.67 79.18,49.8 
	79.18,49.93 79.18,50.07 79.18,50.2 79.18,50.33 79.18,50.47 79.31,50.47 79.31,50.6 79.31,50.74 79.31,50.87 79.31,51 79.31,51.14 
	79.31,51.27 79.31,51.4 79.31,51.54 79.31,51.67 79.31,51.8 79.31,51.94 79.31,52.07 79.31,52.2 79.31,52.34 79.31,52.47 
	79.31,52.6 79.31,52.74 79.31,52.87 79.31,53 79.31,53.14 79.31,53.27 79.45,53.4 79.45,53.54 79.45,53.67 79.45,53.8 79.45,53.94 
	79.45,54.07 79.58,56.47 79.58,56.6 79.58,56.74 79.58,56.87 79.58,57 79.45,57.54 79.45,57.8 79.45,57.94 79.45,58.07 79.45,58.21 
	79.45,58.34 79.45,58.47 79.45,58.61 79.45,58.74 79.45,58.87 79.58,59.27 79.58,59.41 79.58,59.67 79.58,59.81 79.71,59.94 
	79.71,60.07 79.71,60.34 79.71,60.47 79.71,60.61 79.71,60.74 79.71,60.87 79.71,61.01 79.71,61.14 79.71,61.27 79.71,61.41 
	79.71,61.54 79.71,61.67 79.71,61.81 79.85,61.94 79.71,62.07 79.71,62.21 79.71,62.47 79.71,62.74 79.71,63.27 79.71,63.54 
	79.58,64.74 79.58,64.87 79.58,65.01 79.58,65.14 79.58,65.27 79.58,65.54 79.58,65.68 79.45,65.68 79.45,65.81 79.45,65.94 
	78.91,67.14 78.65,67.81 78.25,69.14 78.25,69.28 78.11,69.41 78.11,69.54 78.11,69.68 78.11,69.81 78.11,69.94 78.11,70.08 
	78.11,70.21 78.11,70.34 78.11,70.48 78.11,70.61 78.11,70.74 77.98,70.88 77.98,71.01 77.98,71.14 77.84,71.28 77.84,71.41 
	77.84,71.54 77.84,71.68 77.71,71.81 77.71,71.94 77.71,72.08 77.58,72.21 77.58,72.34 77.58,72.48 77.44,72.61 77.44,72.74 
	77.31,72.88 77.31,73.01 77.18,73.28 77.18,73.41 77.04,73.55 77.04,73.81 76.91,73.81 76.91,73.95 76.91,74.08 76.78,74.08 
	76.78,74.21 76.64,74.35 76.64,74.48 76.64,74.61 76.51,74.75 76.51,74.88 76.38,74.88 76.38,75.01 76.24,75.15 76.24,75.28 
	76.11,75.41 76.11,75.55 75.98,75.68 75.98,75.81 75.84,75.81 75.84,75.95 75.71,76.08 75.58,76.35 75.58,76.48 75.44,76.61 
	75.44,76.75 75.31,76.88 75.18,77.01 75.18,77.15 75.04,77.41 74.91,77.55 74.91,77.68 74.91,77.81 74.78,77.95 74.78,78.21 
	74.64,78.35 74.64,78.61 74.64,78.75 74.51,78.88 74.51,79.15 74.51,79.28 74.51,79.55 74.51,79.68 74.51,79.95 74.64,80.22 
	74.64,80.35 74.64,80.48 74.64,80.62 74.64,80.75 74.64,80.88 74.64,81.02 74.64,81.15 74.64,81.28 74.78,81.55 74.78,81.68 
	74.78,81.82 74.91,81.95 74.91,82.08 74.91,82.22 75.04,82.35 75.04,82.48 75.04,82.75 75.04,82.88 75.04,83.02 75.04,83.15 
	75.04,83.42 75.04,83.55 75.18,83.82 75.18,83.95 75.18,84.22 75.18,84.35 75.18,84.48 75.18,84.75 75.18,84.88 75.18,85.02 
	75.18,85.15 75.18,85.42 75.18,85.55 75.18,85.68 75.18,85.82 75.18,86.08 75.18,86.22 75.18,86.35 75.31,86.48 75.31,86.62 
	75.31,86.75 75.44,86.88 75.44,87.15 75.44,87.29 75.58,87.42 75.71,87.55 75.71,87.69 75.71,87.82 75.84,87.95 75.84,88.09 
	75.98,88.22 75.98,88.35 76.11,89.29 76.11,89.55 76.24,89.69 76.38,89.82 76.38,89.95 76.51,90.09 76.64,90.22 76.78,90.35 
	76.78,90.49 76.91,90.62 76.91,90.75 77.04,90.89 77.04,91.15 77.18,91.29 77.18,91.42 77.18,91.69 77.18,91.82 77.18,91.95 
	77.18,92.09 77.18,92.22 77.04,92.35 77.04,92.49 76.91,92.49 76.78,92.62 76.64,92.75 76.64,92.89 76.51,93.02 76.38,93.02 
	76.38,93.15 76.24,93.29 75.84,93.82 75.84,93.95 75.71,94.22 75.58,94.62 75.58,94.76 75.58,94.89 75.58,95.02 75.58,95.16 
	75.44,95.02 75.31,95.02 75.18,95.02 75.04,95.02 74.91,95.02 74.91,94.89 74.91,95.02 74.78,95.02 74.78,94.89 74.64,94.89 
	74.64,94.76 74.51,94.76 74.38,94.76 74.38,94.62 74.38,94.49 74.38,94.35 74.24,94.22 74.24,94.09 74.11,93.95 74.24,93.95 
	74.24,93.82 74.11,93.82 74.11,93.69 73.98,93.69 73.98,93.55 73.98,93.42 73.98,93.29 73.98,93.15 73.84,93.15 73.71,93.15 
	73.58,93.29 73.44,93.29 73.31,93.29 73.18,93.42 73.04,93.42 72.91,93.42 72.78,93.42 72.78,93.55 72.78,93.69 72.64,93.82 
	72.64,93.95 72.51,94.22 72.38,94.35 72.24,94.49 72.11,94.62 71.98,94.76 71.84,94.89 71.71,95.02 71.58,95.02 71.18,95.56 
	71.04,95.96 70.91,95.96 70.91,96.09 70.91,95.96 70.78,95.96 70.78,96.09 70.64,96.09 70.64,96.22 70.64,96.09 70.64,96.22 
	70.51,96.22 70.51,96.36 70.51,96.49 70.51,96.62 70.37,96.62 70.37,96.49 70.24,96.49 70.24,96.36 70.24,96.49 70.11,96.49 
	70.11,96.36 69.97,96.49 69.97,96.36 69.97,96.22 69.97,96.36 69.84,96.36 69.84,96.22 69.84,96.09 69.84,95.96 69.71,95.96 
	69.71,95.82 69.71,95.69 69.57,95.69 69.44,95.69 69.44,95.56 69.44,95.42 69.31,95.42 69.31,95.29 69.44,95.29 69.44,95.16 
	69.31,95.16 69.17,95.16 69.17,95.02 69.04,95.02 69.04,95.16 68.91,95.16 68.91,95.02 68.91,94.89 68.77,94.89 68.77,94.76 
	68.64,94.89 68.64,94.76 68.64,94.62 68.51,94.49 68.51,94.62 68.51,94.49 68.37,94.49 68.37,94.35 68.37,94.22 68.37,94.09 
	68.24,94.09 68.11,93.95 67.97,93.82 67.97,93.69 67.84,93.55 67.84,93.42 67.84,93.29 67.84,93.15 67.84,93.02 67.97,92.89 
	67.97,92.75 67.97,92.62 67.97,92.35 67.97,91.95 67.97,91.82 67.84,91.82 67.71,91.69 67.57,91.55 67.57,91.42 67.44,91.29 
	67.31,91.15 67.31,91.02 67.31,90.89 67.17,90.75 67.04,90.89 66.91,90.89 66.77,90.89 66.64,90.75 66.51,90.75 66.37,90.89 
	66.24,90.89 66.11,90.89 65.97,91.02 65.84,91.02 65.71,91.02 65.57,91.02 65.44,90.89 65.17,90.89 65.04,90.89 65.04,90.75 
	64.91,90.75 64.77,90.75 64.51,90.62 64.37,90.62 64.24,90.62 64.11,90.75 63.97,90.75 63.97,90.89 63.84,90.89 63.57,90.89 
	63.44,90.89 63.3,90.89 63.17,90.89 63.04,90.75 62.9,90.75 62.64,91.02 62.5,91.02 62.37,90.89 62.24,90.89 61.97,90.89 
	61.84,90.75 61.7,90.62 61.57,90.62 61.57,90.49 61.44,90.62 61.17,90.75 61.17,90.89 61.04,90.89 60.9,90.89 60.77,90.75 
	60.64,90.75 60.24,90.62 60.1,90.62 59.57,90.75 58.64,91.29 58.1,91.69 57.3,91.95 57.17,91.95 57.04,91.95 56.9,91.95 
	56.77,91.82 56.37,91.69 56.1,91.55 56.1,91.42 55.97,91.29 55.83,91.15 55.7,91.02 55.57,90.89 55.43,90.75 55.3,90.89 
	55.17,90.89 55.03,90.75 54.9,90.75 54.77,90.89 54.63,90.89 54.5,90.89 54.37,90.89 54.1,90.75 53.97,90.75 53.7,90.89 
	53.57,90.89 53.43,90.89 53.3,90.75 53.3,90.62 53.17,90.49 53.17,90.35 53.17,90.22 53.03,90.22 52.9,90.09 52.77,90.09 
	52.77,89.95 52.63,89.82 52.5,89.82 52.37,89.82 52.23,89.82 52.23,89.69 52.1,89.69 52.1,89.42 51.97,89.42 51.83,89.29 
	51.7,89.15 51.57,89.02 51.43,89.02 51.3,89.02 51.17,88.89 51.03,88.89 50.9,88.89 50.9,89.02 50.77,89.02 50.77,89.15 
	50.63,89.29 50.63,89.42 50.5,89.42 50.5,89.55 50.5,89.69 50.5,89.82 50.37,89.95 50.23,89.95 50.23,90.09 50.1,90.09 49.97,89.95 
	49.97,89.82 49.83,89.69 49.7,89.55 49.57,89.55 49.43,89.55 49.3,89.55 49.3,89.69 49.16,89.69 49.16,89.82 49.03,89.82 
	49.03,89.69 48.9,89.69 48.9,89.55 48.76,89.55 48.63,89.42 48.5,89.15 48.36,89.02 48.23,89.02 48.1,89.02 47.83,89.15 47.7,89.29 
	47.56,89.42 47.56,89.29 47.43,89.29 47.3,89.15 47.03,89.02 46.9,89.02 46.76,88.89 46.76,88.75 46.63,88.62 46.76,88.49 
	46.63,88.35 46.36,88.35 46.23,88.35 45.96,88.35 45.83,88.35 45.56,88.22 45.43,88.22 45.3,88.22 45.16,88.22 45.03,88.09 
	44.76,88.09 44.63,88.09 44.5,88.22 44.36,88.49 44.23,88.62 44.1,88.75 43.96,88.89 43.83,89.02 43.7,89.15 43.56,89.29 
	43.43,89.29 43.3,89.42 43.03,89.42 43.03,89.55 42.9,89.69 42.76,89.69 42.76,89.82 42.76,89.95 42.63,90.09 42.63,90.22 
	42.63,90.35 42.49,90.35 42.49,90.49 42.36,90.62 42.23,90.62 42.23,90.75 42.09,90.75 42.09,90.89 41.96,91.02 41.96,91.15 
	41.96,91.29 41.83,91.29 41.83,91.42 41.83,91.55 41.69,91.55 41.69,91.69 41.69,91.82 41.83,91.82 41.69,91.82 41.69,91.95 
	41.56,91.95 41.43,91.95 41.43,92.09 41.29,92.09 41.29,91.95 41.16,91.95 41.03,91.95 41.03,92.09 40.89,91.95 41.03,91.95 
	41.03,91.82 41.03,91.69 41.03,91.55 41.03,91.42 41.03,91.29 40.89,91.29 40.89,91.15 40.76,91.15 40.63,91.15 40.63,91.02 
	40.49,91.02 40.49,90.89 40.49,90.75 40.36,90.62 40.09,90.49 40.09,90.35 39.96,90.35 39.69,90.09 39.69,89.95 39.56,89.82 
	39.56,89.69 39.56,89.55 39.56,89.42 39.56,89.29 39.43,89.15 39.43,88.89 39.43,88.75 39.29,88.75 39.29,88.62 39.16,88.49 
	39.16,88.35 39.03,88.22 39.03,88.09 39.69,87.55 39.69,87.42 39.83,87.29 39.96,87.15 40.09,87.15 40.09,87.02 40.23,87.02 
	40.36,87.02 40.36,86.88 40.63,86.75 40.76,86.75 40.89,86.62 41.03,86.62 41.16,86.62 41.29,86.48 41.43,86.48 41.43,86.35 
	41.56,86.35 41.69,86.48 41.83,86.35 41.96,86.35 42.09,86.35 42.23,86.35 42.23,86.48 42.36,86.48 42.49,86.48 42.63,86.48 
	42.63,86.35 42.76,86.35 42.76,86.22 42.63,86.22 42.63,86.08 42.76,86.08 42.9,85.95 42.9,85.82 42.9,85.68 42.9,85.55 
	43.03,85.55 43.03,85.42 43.03,85.28 43.16,85.15 43.16,85.02 43.3,84.88 43.3,84.75 43.43,84.48 43.43,84.35 43.56,84.22 
	43.56,84.08 43.56,83.95 43.56,83.82 43.56,83.68 43.7,83.68 43.7,83.55 43.83,83.55 43.83,83.42 43.83,83.28 43.96,83.28 
	43.96,83.15 43.83,83.15 43.83,83.02 43.83,82.88 43.7,82.88 43.7,82.75 43.7,82.62 43.7,82.48 43.83,82.48 43.83,82.62 
	43.96,82.62 43.96,82.48 43.96,82.62 44.1,82.62 44.1,82.48 44.23,82.48 44.36,82.48 44.36,82.62 44.36,82.48 44.36,82.62 
	44.5,82.62 44.63,82.62 44.76,82.62 44.9,82.62 44.9,82.48 44.9,82.35 44.9,82.48 44.9,82.35 45.03,82.35 45.03,82.22 45.03,82.35 
	45.03,82.22 45.03,82.08 45.16,82.08 45.03,82.08 45.16,82.08 45.3,82.08 45.43,82.08 45.43,81.95 45.43,82.08 45.43,81.95 
	45.56,81.95 45.56,82.08 45.56,81.95 45.56,81.82 45.7,81.82 45.83,81.82 45.7,81.82 45.83,81.82 45.96,81.82 46.1,81.82 
	46.1,81.95 46.1,81.82 46.23,81.82 46.23,81.68 46.23,81.55 46.23,81.68 46.36,81.68 46.36,81.55 46.36,81.42 46.36,81.28 
	46.23,81.28 46.23,81.15 46.36,81.15 46.36,81.02 46.5,81.02 46.5,80.88 46.36,80.88 46.5,80.88 46.5,80.75 46.5,80.62 46.36,80.62 
	46.36,80.48 46.5,80.48 46.5,80.35 46.63,80.35 46.63,80.22 46.5,80.22 46.63,80.22 46.63,80.08 46.76,80.08 46.76,80.22 
	46.76,80.08 46.9,80.08 46.9,79.95 46.9,80.08 47.03,80.08 47.03,79.95 47.03,80.08 47.16,80.08 47.3,80.08 47.43,79.95 
	47.56,79.82 47.7,79.95 47.7,79.82 47.83,79.82 47.83,79.68 47.96,79.68 47.96,79.55 47.83,79.55 47.83,79.41 47.96,79.41 
	48.1,79.41 48.1,79.28 48.23,79.28 48.36,79.28 48.36,79.41 48.5,79.41 48.63,79.41 48.63,79.28 48.76,79.28 48.9,79.28 
	48.76,79.15 48.9,79.15 48.9,79.28 49.03,79.28 49.16,79.28 49.16,79.15 49.16,79.01 49.16,78.88 49.3,78.88 49.43,78.88 
	49.57,78.88 49.7,78.75 49.57,78.75 49.57,78.61 49.7,78.61 49.7,78.48 49.7,78.35 49.57,78.35 49.57,78.48 49.43,78.48 
	49.43,78.35 49.3,78.35 49.43,78.35 49.43,78.21 49.43,78.35 49.43,78.21 49.43,78.08 49.57,78.08 49.43,78.08 49.43,77.95 
	49.43,78.08 49.43,77.95 49.43,77.81 49.43,77.68 49.3,77.68 49.16,77.68 49.03,77.68 49.03,77.81 49.16,77.81 49.03,77.81 
	49.03,77.95 49.03,77.81 48.9,77.81 48.76,77.81 48.76,77.95 48.63,77.95 48.63,77.81 48.5,77.81 48.5,77.68 48.63,77.68 
	48.63,77.55 48.5,77.55 48.63,77.55 48.63,77.41 48.63,77.28 48.5,77.28 48.5,77.15 48.63,77.15 48.5,77.15 48.5,77.01 48.36,77.01 
	48.23,77.01 48.23,76.88 48.1,76.88 48.1,77.01 47.96,77.01 47.96,76.88 47.96,76.75 47.83,76.88 47.83,76.75 47.83,76.61 
	47.7,76.61 47.83,76.61 47.83,76.48 47.7,76.48 47.7,76.61 47.56,76.61 47.56,76.48 47.56,76.35 47.56,76.48 47.43,76.48 
	47.3,76.35 47.16,76.35 47.03,76.21 46.9,76.21 46.9,76.08 47.03,75.95 46.9,75.95 46.9,75.81 46.9,75.68 46.76,75.68 46.76,75.55 
	46.76,75.68 46.63,75.68 46.5,75.68 46.5,75.81 46.63,75.81 46.63,75.95 46.5,75.95 46.5,76.08 46.36,76.08 46.36,75.95 
	46.23,75.95 46.23,76.08 46.1,76.08 46.1,75.95 46.1,75.81 46.1,75.68 46.1,75.55 45.96,75.55 46.1,75.41 45.96,75.41 45.96,75.28 
	46.1,75.28 46.1,75.15 46.23,75.15 46.36,75.15 46.5,75.15 46.36,75.15 46.5,75.15 46.5,75.28 46.5,75.15 46.63,75.15 46.63,75.01 
	46.76,75.01 46.76,74.88 46.76,74.75 46.76,74.61 46.76,74.48 46.63,74.48 46.76,74.48 46.9,74.48 46.9,74.35 46.9,74.21 
	46.76,74.35 46.63,74.21 46.63,74.08 46.63,73.95 46.76,73.95 46.76,74.08 46.76,73.95 46.76,73.81 46.63,73.68 46.76,73.68 
	46.76,73.55 46.63,73.55 46.63,73.41 46.63,73.28 46.5,73.28 46.5,73.15 46.63,73.15 46.76,73.15 46.76,73.01 46.76,72.88 
	46.9,72.74 46.9,72.61 46.9,72.48 47.03,72.48 47.16,72.48 47.3,72.48 47.43,72.48 47.43,72.61 47.56,72.61 47.7,72.61 47.7,72.48 
	47.83,72.48 47.96,72.34 48.1,72.21 48.1,72.08 48.23,71.94 48.36,71.81 48.36,71.68 48.5,71.54 48.5,71.41 48.5,71.28 48.63,71.01 
	48.63,70.88 48.76,70.74 48.9,70.61 49.03,70.48 49.57,70.08 49.57,69.94 49.57,69.81 49.57,69.68 49.43,69.54 49.3,69.54 
	49.16,69.41 48.9,69.41 48.76,69.41 48.76,69.28 48.63,69.14 48.63,69.01 48.63,68.88 48.76,68.74 48.76,68.61 48.76,68.48 
	48.76,68.34 48.76,67.94 48.76,67.81 48.76,67.41 48.76,67.28 48.76,66.74 48.76,66.61 48.9,66.48 48.9,66.34 49.03,66.21 
	49.16,66.21 49.3,66.08 49.43,65.94 49.57,65.81 49.7,65.68 49.83,65.54 49.83,65.41 49.83,65.27 49.83,65.14 49.83,65.01 
	49.83,64.87 49.97,64.74 50.1,64.61 50.1,64.47 50.23,64.34 50.23,64.21 50.23,64.07 50.37,63.94 50.5,63.81 50.5,63.67 
	50.63,63.54 50.77,63.14 50.9,63.14 50.9,63.01 51.03,62.87 51.17,62.74 51.3,62.61 51.43,62.47 51.43,62.34 51.43,62.21 
	51.57,62.07 51.7,61.94 51.83,61.94 51.97,61.81 51.97,61.67 51.83,61.67 51.83,61.54 51.7,61.54 51.57,61.54 51.57,61.41 
	51.43,61.41 51.3,61.41 51.3,61.27 51.17,61.14 51.17,61.27 51.17,61.14 51.17,61.27 51.17,61.14 51.03,61.14 51.17,61.14 
	51.17,61.01 51.17,60.87 51.17,60.74 51.17,60.61 51.17,60.47 51.03,60.47 51.03,60.34 50.9,60.34 50.9,60.47 50.9,60.34 
	50.77,60.21 50.9,60.21 50.77,60.21 50.77,60.07 50.63,60.07 50.5,60.07 50.5,59.94 50.37,59.94 50.37,59.81 50.37,59.67 
	50.23,59.67 50.23,59.54 50.1,59.54 50.1,59.41 50.1,59.27 49.97,59.27 49.97,59.14 49.83,59.14 49.83,59.01 49.83,58.87 
	49.7,58.87 49.83,58.87 49.7,58.87 49.7,58.74 49.57,58.74 49.7,58.74 49.7,58.61 49.57,58.61 49.7,58.61 49.57,58.61 49.57,58.47 
	49.7,58.47 49.57,58.47 49.57,58.34 49.7,58.34 49.7,58.21 49.57,58.21 49.57,58.07 49.57,57.94 49.57,57.8 49.57,57.67 
	49.57,57.54 49.43,57.4 49.43,57.27 49.43,57.14 49.43,57 49.43,56.74 49.43,56.6 49.57,56.47 49.7,56.34 49.83,56.2 49.97,56.2 
	50.1,56.2 50.23,56.2 50.37,56.07 50.5,56.07 50.5,55.94 50.5,55.8 50.37,55.67 50.37,55.54 50.37,55.4 50.5,55.27 50.63,55.14 
	50.63,55 50.77,55 50.77,54.87 50.77,54.74 50.77,54.47 50.77,54.34 50.77,54.07 50.77,53.94 50.77,53.8 50.63,53.67 50.63,53.54 
	50.63,53.4 50.5,53.4 50.5,53.27 50.37,53.27 50.5,53.27 50.37,53.27 50.37,53.14 50.23,53.14 50.23,53 50.1,53 50.1,52.87 
	49.97,52.87 50.1,52.87 50.1,52.74 49.97,52.74 50.1,52.74 50.1,52.6 49.97,52.6 49.97,52.47 49.97,52.34 49.97,52.2 50.1,52.2 
	49.97,52.2 49.97,52.07 49.97,51.94 49.83,51.94 49.97,51.94 49.97,51.8 49.83,51.8 49.97,51.8 49.83,51.8 49.83,51.67 49.7,51.54 
	49.7,51.4 49.57,51.4 49.7,51.27 49.7,51.14 49.57,51.14 49.43,51 49.43,50.87 49.43,50.74 49.57,50.74 49.7,50.6 49.7,50.47 
	49.7,50.33 49.7,50.2 49.7,50.07 49.83,50.07 49.83,49.93 49.97,49.93 49.97,49.8 49.97,49.93 49.97,49.8 49.97,49.67 49.97,49.53 
	49.97,49.4 49.97,49.27 49.83,49.27 49.83,49.13 49.7,49 49.7,48.87 49.83,48.87 49.7,48.73 49.7,48.6 49.83,48.6 49.83,48.47 
	49.97,48.47 49.97,48.33 50.1,48.33 50.1,48.2 50.1,48.07 50.1,47.93 50.1,47.8 50.1,47.67 50.1,47.53 49.97,47.4 49.97,47.27 
	49.97,47.13 49.83,47.13 49.83,47 49.7,47 49.57,47.13 49.43,47.13 49.3,47.27 49.16,47.27 49.03,47.27 48.9,47.27 48.5,47.27 
	48.36,47.27 48.1,47.27 47.96,47.27 47.83,47.4 47.7,47.4 47.56,47.4 47.43,47.4 47.16,47.4 46.9,47.53 46.76,47.53 46.63,47.53 
	46.36,47.4 45.96,47.4 45.83,47.4 45.7,47.4 45.56,47.4 45.43,47.53 45.3,47.4 45.03,47.4 44.9,47.4 44.63,47.4 44.5,47.4 
	44.23,47.4 44.1,47.27 43.96,47.13 43.83,47.13 43.56,47.13 43.3,47.13 43.16,47.13 43.03,47.13 42.9,47 42.63,47 42.49,47 
	42.36,47.13 42.23,47.13 41.96,47.13 41.83,47.13 41.69,47.13 41.69,47.27 41.56,47.27 41.43,47.27 41.16,47.27 40.89,47.27 
	40.76,47.27 40.63,47.27 40.49,47.27 40.36,47.27 40.23,47.4 39.69,47.8 39.56,47.93 39.43,47.93 39.43,48.07 39.29,48.2 
	39.16,48.33 39.03,48.47 38.89,48.47 38.76,48.47 38.63,48.47 38.49,48.47 38.49,48.6 38.36,48.6 38.23,48.6 38.09,48.6 
	37.96,48.47 37.83,48.47 37.69,48.47 37.56,48.47 37.43,48.47 37.29,48.47 37.16,48.47 37.03,48.47 36.89,48.6 36.76,48.6 
	36.63,48.6 36.36,48.73 36.23,48.87 35.96,49 35.82,49 35.69,49 35.56,49 35.42,48.87 35.29,48.87 35.29,48.73 35.16,48.73 
	35.02,48.6 34.89,48.6 34.76,48.6 34.76,48.47 34.62,48.47 34.62,48.6 34.49,48.6 34.49,48.47 34.36,48.33 34.36,48.47 34.36,48.33 
	34.22,48.33 34.36,48.33 34.22,48.33 34.22,48.2 34.36,48.07 34.22,48.07 34.22,47.93 34.36,47.93 34.22,47.93 34.22,47.8 
	34.22,47.93 34.09,47.93 34.09,47.8 34.09,47.67 33.96,47.67 33.96,47.53 33.82,47.53 33.69,47.53 33.69,47.67 33.56,47.67 
	33.56,47.8 33.42,47.8 33.42,47.67 33.42,47.8 33.42,47.93 33.29,47.93 33.16,47.93 33.16,48.07 33.16,47.93 33.02,47.93 
	33.02,47.8 33.02,47.67 32.89,47.67 33.02,47.8 32.89,47.8 32.89,47.93 32.76,47.93 32.76,48.07 32.62,48.07 32.49,48.07 
	32.49,47.93 32.62,47.93 32.62,47.8 32.49,47.8 32.36,47.8 32.49,47.8 32.49,47.67 32.49,47.8 32.49,47.67 32.49,47.53 32.36,47.53 
	32.36,47.67 32.22,47.67 32.09,47.67 31.96,47.67 31.82,47.53 31.69,47.67 31.69,47.8 31.82,47.8 31.82,47.93 31.69,47.93 
	31.69,48.07 31.82,48.2 31.82,48.33 31.69,48.33 31.69,48.47 31.82,48.47 31.82,48.6 31.96,48.6 32.09,48.6 32.22,48.6 32.09,48.73 
	31.96,48.73 31.82,48.73 31.69,48.6 31.56,48.6 31.42,48.6 31.29,48.6 31.16,48.6 31.02,48.6 30.89,48.6 30.76,48.47 30.76,48.6 
	30.49,48.73 30.36,48.87 30.36,49 30.49,49 30.36,49.13 30.36,49.27 30.36,49.13 30.49,49.13 30.49,49.27 30.62,49.27 30.49,49.27 
	30.49,49.4 30.36,49.4 30.22,49.4 30.09,49.53 30.09,49.4 30.09,49.27 29.96,49.27 29.96,49.13 29.82,49.13 29.69,49.27 29.69,49.4 
	29.69,49.53 29.69,49.67 29.82,49.67 29.96,49.67 29.96,49.8 30.09,49.8 30.22,49.67 30.36,49.8 30.36,49.93 30.49,49.93 
	30.49,50.07 30.49,50.2 30.49,50.33 30.36,50.33 30.36,50.47 30.22,50.47 30.09,50.47 29.96,50.47 29.96,50.33 29.96,50.2 
	29.82,50.07 29.69,50.07 29.56,50.2 29.42,50.33 29.56,50.47 29.69,50.6 29.69,50.74 29.69,50.87 29.56,51.14 29.42,51.14 
	29.29,51.14 29.16,51.27 29.02,51.27 29.02,51.4 28.89,51.4 28.89,51.54 28.76,51.54 28.76,51.4 28.62,51.4 28.49,51.27 
	28.62,51.14 28.62,51 28.62,50.87 28.49,50.87 28.49,50.74 28.35,50.6 28.35,50.47 28.49,50.33 28.49,50.2 28.49,50.07 28.35,50.07 
	28.35,49.93 28.35,50.07 28.22,50.07 28.22,50.2 28.09,50.2 27.95,50.2 27.82,50.2 27.82,50.07 27.82,50.2 27.69,50.2 27.69,50.33 
	27.69,50.47 27.55,50.47 27.55,50.6 27.42,50.6 27.29,50.6 27.15,50.6 27.02,50.47 27.15,50.47 27.15,50.33 27.29,50.2 27.29,50.07 
	27.29,49.93 27.29,49.8 27.15,49.8 27.02,49.8 26.89,49.8 26.75,49.8 26.62,49.93 26.62,50.07 26.49,50.07 26.49,49.93 26.35,49.8 
	26.22,49.8 26.22,49.67 26.09,49.67 26.09,49.8 25.95,49.8 25.82,49.8 25.82,49.93 25.95,49.93 25.95,50.07 26.09,50.07 
	26.22,50.07 26.22,50.2 26.22,50.33 26.09,50.33 25.95,50.6 25.95,50.74 25.95,50.87 26.09,50.87 26.22,50.87 26.22,50.74 
	26.22,50.6 26.35,50.6 26.49,50.6 26.49,50.74 26.62,50.74 26.62,50.87 26.49,51 26.49,51.14 26.49,51.27 26.49,51.4 26.49,51.54 
	26.35,51.54 26.35,51.67 26.22,51.8 26.22,51.94 26.09,51.94 25.95,51.94 25.82,51.94 25.69,51.94 25.69,51.8 25.55,51.8 
	25.55,51.67 25.69,51.54 25.82,51.4 25.82,51.27 25.82,51.14 25.69,51.14 25.55,51.14 25.55,51 25.42,51 25.29,50.87 25.15,50.74 
	25.15,50.6 25.02,50.6 24.89,50.6 24.89,50.47 24.75,50.47 24.75,50.6 24.75,50.74 24.75,50.87 24.89,51 24.75,51 24.75,51.14 
	24.62,51.14 24.62,51.27 24.49,51.27 24.49,51.4 24.49,51.54 24.49,51.67 24.62,51.67 24.75,51.67 24.75,51.8 24.62,51.8 
	24.49,51.94 24.49,51.8 24.49,51.67 24.35,51.67 24.35,51.54 24.22,51.54 24.09,51.54 24.09,51.4 24.09,51.27 24.09,51 23.95,51 
	23.95,50.87 23.82,50.87 23.82,51 23.82,50.87 23.69,50.87 23.69,51 23.55,51 23.55,50.87 23.42,50.87 23.29,50.87 23.29,50.6 
	23.42,50.6 23.42,50.47 23.42,50.33 23.29,50.33 23.29,50.2 23.29,50.33 23.15,50.33 23.15,50.2 23.02,50.2 23.02,50.07 
	23.02,49.93 22.89,49.93 22.89,49.8 22.75,49.8 22.75,49.67 22.75,49.53 22.62,49.53 22.62,49.4 22.62,49.27 22.49,49.27 
	22.35,49.27 22.35,49.13 22.35,49 22.22,49 22.22,48.87 22.09,48.87 22.09,48.73 21.95,48.73 21.95,48.6 21.82,48.6 21.82,48.47 
	21.69,48.47 21.82,48.47 21.69,48.33 21.82,48.33 21.82,48.2 21.69,48.2 21.82,48.07 21.69,48.07 21.69,47.93 21.69,47.8 
	21.55,47.67 21.55,47.53 21.42,47.53 21.28,47.4 21.15,47.4 21.15,47.27 21.02,47.27 21.02,47.13 21.02,47 21.15,47 21.15,46.87 
	21.02,46.87 21.02,46.73 21.15,46.73 21.15,46.6 21.02,46.6 21.02,46.47 20.88,46.33 20.75,46.33 20.88,46.33 20.75,46.33 
	20.75,46.2 20.75,46.07 20.62,46.07 20.48,46.07 20.62,46.07 20.62,45.93 20.48,45.93 20.48,45.8 20.35,45.8 20.22,45.8 
	20.22,45.67 20.22,45.53 20.08,45.53 20.08,45.4 20.08,45.27 20.08,45.13 19.95,45 19.95,44.87 19.82,44.73 19.82,44.6 19.82,44.47 
	19.68,44.33 19.68,44.2 19.68,44.07 19.68,43.93 19.68,43.8 19.55,43.67 19.55,43.53 19.55,43.4 19.68,43.4 19.82,43.4 19.95,43.4 
	20.08,43.4 20.08,43.27 20.08,43.13 20.08,43 20.08,42.86 20.08,42.6 20.08,42.46 20.22,42.46 20.22,42.33 20.35,42.33 20.48,42.2 
	20.62,42.2 20.62,42.06 20.75,42.06 20.88,41.93 20.88,41.8 21.02,41.8 21.02,41.66 21.15,41.66 21.15,41.53 21.15,41.4 
	21.15,41.26 21.15,41.13 21.28,41.13 21.28,41 21.28,40.86 21.28,40.73 21.28,40.6 21.42,40.6 21.55,40.46 21.55,40.33 21.69,40.33 
	21.82,40.2 21.82,40.06 21.69,39.93 21.69,39.8 21.69,39.66 21.55,39.4 21.42,39 21.42,38.86 21.42,38.6 21.42,38.2 21.28,38.06 
	21.28,37.93 21.28,37.8 21.28,37.66 21.28,37.53 21.28,37.4 21.28,37.26 21.42,37.13 21.55,37 21.69,37 21.82,36.86 21.95,36.86 
	22.09,36.86 22.09,36.73 22.22,36.73 22.35,36.73 22.35,36.6 22.49,36.6 22.49,36.46 22.49,36.33 22.49,36.2 22.49,36.06 
	22.49,35.93 22.62,35.93 22.62,35.8 22.62,35.66 22.62,35.53 22.62,35.39 22.62,35.26 22.62,35.13 22.62,34.99 22.49,34.99 
	22.49,34.86 22.35,34.73 22.35,34.59 22.35,34.46 22.22,34.46 22.22,34.33 22.09,34.33 22.09,34.19 22.09,34.06 21.82,33.93 
	21.69,33.93 21.55,33.93 21.42,33.93 21.42,33.79 21.42,33.53 21.42,33.39 21.28,33.39 21.28,33.26 21.15,33.26 21.02,33.26 
	21.02,33.13 20.88,32.99 20.88,32.46 21.02,32.33 20.88,32.33 21.02,32.33 21.02,32.19 21.02,32.06 21.15,32.06 21.15,32.19 
	21.15,32.06 21.15,31.93 21.15,31.79 21.28,31.79 21.15,31.79 21.15,31.66 21.02,31.66 21.02,31.53 21.15,31.66 21.15,31.53 
	21.02,31.53 21.02,31.39 20.88,31.39 20.88,31.53 20.75,31.53 20.62,31.53 20.62,31.39 20.75,31.39 20.88,31.39 20.88,31.26 
	20.88,31.13 20.88,31.26 21.02,31.26 21.02,31.39 21.15,31.39 21.28,31.39 21.42,31.39 21.42,31.26 21.55,31.26 21.42,31.26 
	21.28,31.26 21.42,31.26 21.42,31.13 21.42,31.26 21.55,31.26 21.55,31.13 21.55,30.99 21.69,30.99 21.69,30.86 21.82,30.99 
	21.95,30.99 21.95,31.13 21.82,31.13 21.82,31.26 21.95,31.26 21.95,31.39 22.09,31.53 22.22,31.53 22.22,31.39 22.35,31.39 
	22.49,31.39 22.49,31.26 22.62,31.13 22.62,31.26 22.75,31.26 22.75,31.13 22.89,31.13 22.89,30.99 23.02,31.13 23.15,30.99 
	23.15,30.86 23.29,30.86 23.29,30.99 23.42,30.99 23.42,30.86 23.42,30.99 23.55,30.99 23.55,30.86 23.55,30.73 23.42,30.86 
	23.42,30.73 23.42,30.59 23.55,30.73 23.55,30.59 23.55,30.46 23.55,30.59 23.69,30.59 23.82,30.59 23.69,30.59 23.82,30.46 
	23.69,30.46 23.69,30.33 23.69,30.19 23.82,30.19 23.82,30.06 23.82,29.93 23.95,29.93 23.82,29.93 23.82,29.79 23.69,29.79 
	23.69,29.66 23.82,29.66 23.82,29.53 23.69,29.53 23.69,29.39 23.82,29.39 23.82,29.26 23.82,29.13 23.95,29.26 24.09,29.26 
	24.09,29.13 23.95,29.13 23.95,28.99 23.95,28.86 24.09,28.86 24.09,28.73 24.22,28.73 24.35,28.86 24.22,28.86 24.22,28.99 
	24.35,28.99 24.49,28.99 24.49,28.86 24.35,28.86 24.49,28.86 24.62,28.86 24.75,28.86 24.62,28.73 24.49,28.73 24.35,28.73 
	24.22,28.73 24.22,28.59 24.35,28.59 24.49,28.46 24.49,28.33 24.62,28.33 24.62,28.19 24.75,28.19 24.62,28.19 24.62,28.06 
	24.62,27.92 24.75,27.92 24.62,27.92 24.49,28.06 24.49,28.19 24.35,28.19 24.22,28.19 24.09,28.19 24.09,28.33 23.95,28.19 
	23.82,28.19 23.82,28.33 23.69,28.33 23.69,28.19 23.69,28.06 23.69,27.92 23.55,27.92 23.55,27.79 23.55,27.66 23.42,27.52 
	23.42,27.39 23.42,27.26 23.42,27.12 23.55,27.12 23.82,27.12 23.95,27.12 24.09,27.12 24.22,26.99 24.22,26.86 24.09,26.72 
	23.95,26.59 23.82,26.72 23.69,26.72 23.55,26.59 23.69,26.46 23.95,26.46 24.09,26.46 24.22,26.46 24.22,26.32 24.09,26.19 
	24.09,25.92 23.82,25.79 23.55,25.52 23.42,25.52 23.29,25.39 23.29,25.26 23.02,24.86 22.89,24.86 22.89,24.72 22.75,24.72 
	22.75,24.59 22.75,24.46 22.89,24.46 23.02,24.46 23.02,24.72 23.15,24.86 23.29,24.86 23.42,24.86 23.42,24.72 23.42,24.59 
	23.42,24.46 23.42,24.32 23.42,24.19 23.42,23.92 23.29,23.79 23.29,23.66 23.15,23.26 23.15,23.12 23.15,22.99 23.02,22.99 
	22.89,22.99 22.89,23.26 22.89,23.39 22.75,23.39 22.75,23.52 22.62,23.52 22.49,23.66 22.35,23.66 22.22,23.79 22.09,23.79 
	21.95,23.66 21.95,23.52 22.09,23.39 22.09,23.26 22.09,23.12 21.95,22.99 21.95,22.86 22.09,22.86 22.49,22.86 22.62,22.86 
	22.62,22.72 22.62,22.59 22.62,22.46 22.62,22.32 22.62,22.19 22.49,22.19 22.49,22.06 22.35,22.06 22.35,21.92 22.22,21.79 
	22.09,21.79 21.95,21.66 21.82,21.52 21.69,21.52 21.42,21.39 21.28,21.39 21.15,21.26 21.02,21.26 20.88,21.39 20.75,21.39 
	20.62,21.39 20.48,21.39 20.35,21.39 20.35,21.52 20.48,21.66 20.48,21.79 20.48,21.92 20.35,21.92 20.35,22.06 20.48,22.19 
	20.35,22.19 20.35,22.32 20.22,22.32 20.08,22.19 19.95,22.19 19.95,22.06 19.95,21.92 19.95,21.79 19.82,21.66 19.82,21.52 
	19.82,21.39 19.68,21.26 19.68,21.12 19.68,20.99 19.55,20.86 19.42,20.72 19.28,20.72 19.28,20.59 19.28,20.45 19.28,20.32 
	19.28,20.19 19.28,20.05 19.02,19.92 19.02,19.79 18.88,19.65 18.88,19.52 18.88,19.39 19.02,19.39 19.02,19.25 19.15,19.25 
	19.28,19.25 19.42,19.25 19.55,19.25 19.68,19.25 19.68,19.12 19.68,18.99 19.68,18.85 19.68,18.72 19.55,18.59 19.55,18.45 
	19.42,18.45 19.42,18.32 19.42,18.19 19.28,18.19 19.15,18.19 19.02,18.19 19.02,18.05 19.02,17.92 19.15,17.92 19.15,17.79 
	19.28,17.79 19.28,17.65 19.15,17.65 19.15,17.52 19.02,17.52 18.88,17.52 18.88,17.65 18.88,17.52 18.88,17.39 19.02,17.39 
	19.15,17.39 19.15,17.25 19.15,17.12 19.02,17.12 19.02,16.99 18.88,16.99 18.88,16.85 19.02,16.85 19.15,16.85 19.15,16.72 
	19.02,16.72 19.02,16.59 18.88,16.59 18.75,16.59 18.62,16.59 18.62,16.45 18.75,16.45 18.62,16.32 18.48,16.32 18.35,16.32 
	18.35,16.19 18.35,16.05 18.35,15.92 18.22,15.92 18.08,15.92 17.95,15.92 17.95,15.79 17.95,15.65 18.08,15.65 18.08,15.52 
	17.95,15.52 18.08,15.52 18.08,15.39 17.95,15.39 18.08,15.39 18.08,15.25 18.08,15.39 18.22,15.39 18.22,15.25 18.22,15.12 
	18.08,15.12 18.08,15.25 17.95,15.25 17.95,15.12 17.82,14.99 17.68,14.99 17.55,14.99 17.55,14.85 17.55,14.72 17.55,14.85 
	17.42,14.85 17.28,14.85 17.15,14.72 17.02,14.72 17.02,14.59 17.02,14.45 16.88,14.45 16.88,14.59 16.75,14.59 16.75,14.45 
	16.62,14.45 16.75,14.32 16.88,14.32 17.02,14.32 17.02,14.19 16.88,13.92 16.88,13.79 17.02,13.79 17.02,13.92 17.15,13.92 
	17.02,13.79 16.88,13.79 16.88,13.65 16.88,13.52 17.02,13.52 17.02,13.65 17.02,13.52 17.15,13.52 17.15,13.39 17.02,13.39 
	16.88,13.39 16.88,13.52 16.88,13.39 16.88,13.25 17.02,13.25 17.15,13.25 17.28,13.25 17.28,13.12 17.15,13.12 17.28,13.12 
	17.28,12.98 17.42,12.85 17.42,12.72 17.42,12.58 17.55,12.58 17.55,12.72 17.55,12.58 17.55,12.45 17.55,12.32 17.42,12.32 
	17.42,12.18 17.55,12.18 17.68,12.05 17.82,12.05 17.82,11.92 17.68,11.92 17.82,11.92 17.82,11.78 17.68,11.78 17.82,11.78 
	17.95,11.78 18.08,11.78 18.22,11.78 18.35,11.78 18.35,11.92 18.35,11.78 18.48,11.78 18.62,11.78 18.75,11.78 18.75,11.65 
	18.88,11.65 18.88,11.78 18.88,11.65 19.02,11.65 19.02,11.52 19.15,11.52 19.02,11.52 19.02,11.38 19.02,11.25 19.15,11.25 
	19.02,11.12 19.15,11.12 19.28,11.12 19.42,11.12 19.42,10.98 19.42,10.85 19.55,10.85 19.68,10.85 19.68,10.72 19.82,10.72 
	19.95,10.58 20.22,10.32 20.35,10.32 20.75,10.45 21.28,10.45 21.42,10.45 21.55,10.58 21.69,10.85 21.55,11.12 21.42,11.25 
	21.42,11.38 21.42,11.52 21.55,11.65 21.69,11.92 21.95,12.05 22.09,12.18 22.22,12.18 22.35,12.32 22.49,12.32 22.62,12.45 
	22.75,12.45 23.02,12.72 23.15,12.72 23.29,12.72 23.42,12.72 23.42,12.58 23.69,12.45 23.95,12.18 24.22,11.78 24.22,11.65 
	24.35,11.65 24.35,11.52 24.49,11.38 24.62,11.25 24.62,11.12 24.75,11.12 24.89,11.12 24.89,10.98 25.02,10.98 25.02,10.85 
	25.15,10.72 25.15,10.58 25.29,10.32 25.42,10.05 25.55,9.92 25.69,9.78 25.69,9.65 25.82,9.65 25.95,9.52 25.95,9.38 26.09,9.38 
	26.09,9.25 26.22,9.25 26.35,9.12 26.49,8.98 26.62,8.98 26.75,8.85 26.89,8.72 27.02,8.58 27.15,8.45 27.29,8.32 27.29,8.18 
	27.42,8.05 27.42,7.92 27.55,7.78 27.55,7.65 27.69,7.52 27.69,7.38 27.69,7.25 27.69,7.12 27.69,6.98 27.82,6.98 27.82,6.85 
	27.82,6.72 27.82,6.58 27.82,6.45 27.69,6.45 27.55,6.45 27.55,6.32 27.42,6.32 27.29,6.32 27.29,6.18 27.15,6.05 27.02,6.05 
	27.02,5.92 26.89,5.92 26.75,5.92 26.75,5.78 26.62,5.78 26.62,5.65 26.62,5.51 26.62,5.38 26.49,5.25 26.49,5.11 26.35,4.98 
	26.22,4.85 26.22,4.71 26.22,4.58 26.22,4.45 26.35,4.31 26.49,4.18 26.49,4.05 26.49,3.91 26.35,3.78 26.35,3.65 26.35,3.51 
	26.22,3.51 26.22,3.38 26.09,3.38 26.09,3.25 26.09,3.11 26.09,2.98 26.09,2.85 26.22,2.85 26.35,2.85 26.35,2.71 26.49,2.71 
	26.49,2.85 26.62,2.85 26.75,2.85 26.89,2.85 26.89,2.71 26.89,2.58 26.89,2.45 27.02,2.45 27.15,2.45 27.29,2.45 27.42,2.45 
	27.42,2.31 27.55,2.31 27.69,2.31 27.69,2.18 27.82,2.18 27.95,2.18 27.95,2.05 28.09,2.05 28.09,1.91 28.22,1.91 28.09,1.91 
	28.09,1.78 28.22,1.78 28.22,1.65 28.22,1.51 28.22,1.38 28.35,1.38 28.35,1.25 28.35,1.11 28.49,1.11 28.49,0.98 28.62,0.98 
	28.49,0.98 28.49,0.85 28.62,0.85 28.76,0.85 "/>
</svg>
