<?xml version="1.0" encoding="utf-8"?>
<!-- Generator: Adobe Illustrator 24.2.1, SVG Export Plug-In . SVG Version: 6.00 Build 0)  -->
<svg version="1.1" id="Layer_1" xmlns="http://www.w3.org/2000/svg" xmlns:xlink="http://www.w3.org/1999/xlink" x="0px" y="0px"
	 viewBox="0 0 97.23 97.23" style="enable-background:new 0 0 97.23 97.23;" xml:space="preserve">
<style type="text/css">
	.st0{fill-rule:evenodd;clip-rule:evenodd;}
</style>
<polygon class="st0" points="87.75,25.21 87.75,25.34 87.5,25.34 87.5,25.21 87.37,25.21 87.25,25.34 87.37,25.34 87.37,25.47 
	87.37,25.59 87.37,25.72 87.25,25.72 87.25,25.59 87.12,25.47 86.99,25.47 86.99,25.59 86.87,25.72 86.87,25.85 86.74,25.72 
	86.74,25.59 86.61,25.47 86.49,25.59 86.49,25.72 86.61,25.85 86.61,25.97 86.49,25.97 86.36,25.85 86.24,25.97 86.11,26.1 
	85.98,26.1 85.86,25.97 85.86,25.85 85.73,25.85 85.6,25.85 85.48,25.85 85.48,25.97 85.48,26.1 85.48,26.22 85.48,26.35 
	85.48,26.48 85.48,26.6 85.48,26.73 85.48,26.86 85.6,26.98 85.73,26.98 85.73,27.11 85.73,27.24 85.86,27.36 85.86,27.49 
	85.86,27.61 85.86,27.74 85.86,27.87 85.86,27.99 85.86,28.12 85.86,28.25 85.98,28.25 86.11,28.12 86.36,27.99 86.87,27.99 
	87.25,28.12 87.25,28.25 87.63,28.62 88.38,29 89.39,29.51 89.52,29.63 89.65,29.76 90.15,30.14 90.28,30.27 90.28,30.52 
	90.28,30.77 90.4,30.9 90.53,31.02 90.91,31.28 91.41,31.66 91.67,31.78 92.05,32.16 92.17,32.16 92.3,32.41 92.43,32.67 
	92.43,32.79 92.43,32.92 92.43,33.05 92.43,33.17 92.3,33.17 92.3,33.3 92.17,33.42 92.05,33.42 91.92,33.55 91.79,33.68 
	91.67,33.68 91.54,33.8 91.41,33.93 91.29,34.06 91.29,34.18 91.16,34.18 91.04,34.31 91.04,34.56 90.91,34.81 90.91,35.07 
	90.78,35.32 90.66,35.45 90.4,35.45 90.28,35.45 90.15,35.32 90.15,35.19 90.03,35.07 90.15,34.81 90.15,34.69 90.15,34.43 
	90.15,34.31 90.15,34.06 90.03,33.93 89.9,33.93 89.65,33.8 89.14,33.8 88.64,33.8 88.38,33.93 88.26,34.18 88.38,34.31 
	88.38,34.43 88.38,34.56 88.38,34.69 88.38,34.81 88.13,34.94 88.13,35.07 88.26,35.19 88.26,35.32 88.26,35.82 88.13,36.08 
	88.13,36.33 88.26,36.46 88.13,36.71 88.13,36.83 88,36.96 88.13,37.09 88,37.21 88,37.34 88.13,37.47 88.26,37.59 88.38,37.59 
	88.51,37.59 88.64,37.72 88.76,37.59 88.89,37.59 88.89,37.47 89.01,37.47 89.14,37.47 89.27,37.59 89.39,37.72 89.52,37.72 
	89.52,37.97 89.39,37.97 89.27,38.1 89.01,38.22 89.01,38.35 88.89,38.48 88.76,38.48 88.76,38.6 88.64,38.73 88.64,38.86 
	88.64,38.98 88.64,39.11 88.64,39.36 88.64,39.49 88.76,39.49 88.76,39.61 89.01,39.87 89.14,39.99 89.27,40.12 89.39,40.25 
	89.39,40.5 89.52,40.62 89.52,40.75 89.52,40.88 89.52,41 89.65,41.13 89.77,41.13 89.9,41.13 90.03,41.26 90.15,41.26 90.4,41.26 
	90.53,41.26 90.66,41.38 90.78,41.38 90.78,41.51 90.91,41.51 91.04,41.38 91.16,41.38 91.29,41.51 91.41,41.51 91.54,41.63 
	91.67,41.63 91.79,41.63 91.92,41.63 92.05,41.76 92.17,41.76 92.3,41.89 92.3,42.01 92.43,42.14 92.43,42.27 92.55,42.39 
	92.55,42.52 92.55,42.65 92.68,42.65 92.55,42.77 92.68,42.9 92.55,42.9 92.43,43.02 92.43,43.15 92.55,43.15 92.68,43.15 
	92.8,43.02 92.93,43.02 93.06,42.9 93.31,42.9 93.44,42.9 93.56,42.9 93.56,42.77 93.81,42.77 93.94,42.9 94.07,42.9 94.19,42.9 
	94.32,42.9 94.45,43.02 94.57,43.15 94.7,43.28 94.82,43.28 94.95,43.28 95.08,43.28 95.2,43.4 95.2,43.53 95.2,43.66 95.2,43.78 
	95.2,43.91 95.33,44.03 95.33,44.16 95.46,44.29 95.46,44.41 95.58,44.54 95.71,44.54 95.84,44.54 95.96,44.67 96.09,44.67 
	96.21,44.79 96.34,44.92 96.21,45.05 96.09,45.17 95.96,45.17 95.96,45.42 95.84,45.55 95.96,45.68 96.21,45.68 95.96,45.8 
	95.96,45.93 95.84,46.06 95.84,46.18 95.96,46.31 95.84,46.31 95.84,46.43 95.71,46.43 95.58,46.43 95.46,46.43 95.46,46.31 
	95.33,46.18 95.2,46.06 95.2,46.18 95.08,46.31 95.08,46.43 94.95,46.43 94.95,46.56 94.95,46.69 95.08,46.69 95.08,46.56 
	95.2,46.56 95.33,46.69 95.2,46.69 95.2,46.81 95.2,46.94 95.08,47.07 95.08,47.19 95.08,47.32 95.08,47.57 95.08,47.7 95.08,47.82 
	95.08,47.95 95.08,48.08 95.08,48.2 95.08,48.33 95.2,48.33 95.33,48.33 95.46,48.33 95.71,48.2 95.84,48.2 95.84,48.33 
	96.09,48.46 96.21,48.46 96.34,48.71 96.47,48.71 96.59,48.83 96.59,48.96 96.59,49.09 96.47,49.09 96.34,49.09 96.34,49.21 
	96.21,49.21 96.21,49.34 96.34,49.34 96.47,49.34 96.59,49.34 96.72,49.47 96.72,49.59 96.72,49.72 96.72,49.84 96.85,49.97 
	96.85,50.1 96.85,50.22 96.72,50.22 96.59,50.22 96.47,50.1 96.47,50.22 96.34,50.22 96.34,50.35 96.21,50.35 96.09,50.22 
	96.09,50.35 95.96,50.35 95.84,50.35 95.84,50.22 95.71,50.1 95.58,50.1 95.58,50.22 95.46,50.22 95.46,50.35 95.58,50.35 
	95.71,50.35 95.71,50.48 95.58,50.48 95.58,50.6 95.58,50.73 95.58,50.86 95.71,50.86 95.71,50.73 95.84,50.73 95.96,50.86 
	95.96,50.98 95.84,50.98 95.96,50.98 95.96,51.11 95.96,51.23 95.96,51.36 95.96,51.49 95.84,51.61 95.84,51.74 95.71,51.87 
	95.71,51.99 95.84,51.99 95.84,52.12 95.96,52.12 95.96,52.24 95.84,52.24 95.84,52.12 95.71,52.12 95.71,52.24 95.84,52.24 
	95.84,52.37 95.71,52.37 95.58,52.37 95.58,52.5 95.71,52.5 95.71,52.62 95.58,52.62 95.58,52.75 95.46,52.75 95.46,52.88 
	95.33,52.88 95.2,52.88 95.2,53 94.95,53.26 94.82,53.26 94.7,53.38 94.57,53.51 94.45,53.63 94.32,53.63 94.19,53.76 94.07,53.76 
	93.94,53.89 93.81,53.89 93.69,53.89 93.56,54.01 93.44,54.01 93.31,54.14 93.18,54.14 92.3,54.27 92.17,54.27 92.05,54.27 
	91.92,54.27 91.79,54.14 91.67,54.01 91.67,53.89 91.67,53.76 91.54,53.76 91.41,53.76 91.16,53.89 91.04,53.89 90.91,54.01 
	90.78,54.14 90.66,54.39 90.53,54.39 90.4,54.52 90.15,54.77 90.03,54.77 89.9,54.9 89.77,54.9 89.52,54.9 89.39,54.9 89.14,55.02 
	89.14,55.15 89.01,55.28 89.14,55.28 89.14,55.4 89.14,55.53 89.39,55.66 89.39,55.78 89.52,55.91 89.52,56.03 89.77,56.16 
	89.77,56.29 89.77,56.41 89.9,57.04 89.9,57.17 89.77,57.3 89.65,57.42 89.52,57.55 89.52,57.68 89.39,57.93 89.39,58.06 
	89.27,58.06 89.14,58.06 89.01,58.06 88.89,58.06 88.64,57.93 88.26,57.68 88.13,57.68 88,57.68 87.88,57.68 87.75,57.68 
	87.5,57.68 87.37,57.68 87.37,57.55 87.25,57.42 87.25,57.3 87.12,57.3 87.12,57.17 87.12,57.04 86.99,56.79 86.87,56.67 
	86.74,56.41 86.61,56.03 86.49,55.78 86.36,55.53 86.36,55.4 86.24,55.15 85.86,54.52 85.73,54.39 85.6,54.39 85.48,54.27 
	85.35,54.27 85.35,54.14 85.22,54.14 85.1,54.01 84.97,54.01 84.97,53.89 84.85,53.76 84.72,53.76 84.72,53.89 84.59,53.89 
	84.59,54.01 84.72,54.01 84.59,54.14 84.72,54.14 84.72,54.27 84.59,54.27 84.59,54.39 84.47,54.39 84.34,54.39 84.21,54.39 
	84.21,54.52 84.21,54.64 84.09,54.64 83.96,54.64 83.84,54.77 83.71,54.77 83.71,54.9 83.71,54.77 83.58,54.77 83.46,54.9 
	83.46,55.02 83.33,55.02 83.33,54.9 83.2,55.02 83.2,54.9 83.08,54.9 82.95,54.9 82.83,54.9 82.7,54.9 82.7,54.77 82.57,54.77 
	82.45,54.77 82.45,54.9 82.45,55.02 82.32,55.02 82.19,55.02 82.19,55.15 82.07,55.15 82.19,55.15 82.07,55.15 82.07,55.28 
	81.94,55.28 81.94,55.4 81.81,55.28 81.81,55.4 81.81,55.28 81.69,55.28 81.69,55.15 81.56,55.15 81.56,55.28 81.56,55.15 
	81.44,55.15 81.44,55.02 81.44,55.15 81.31,55.15 81.31,55.02 81.18,55.15 81.06,55.15 80.93,55.15 80.93,55.28 81.06,55.28 
	81.18,55.28 81.18,55.4 80.93,55.66 80.93,55.53 80.8,55.53 80.8,55.66 80.93,55.66 80.8,55.78 80.8,55.66 80.68,55.66 80.68,55.78 
	80.8,55.78 80.8,55.91 80.68,55.91 80.55,55.91 80.17,56.29 80.3,56.41 80.43,56.41 80.43,56.54 80.43,56.67 80.3,56.67 80.3,56.79 
	80.3,56.92 80.3,56.79 80.17,56.79 80.17,56.92 80.05,56.92 80.17,56.92 80.17,57.04 80.3,57.04 80.3,57.17 80.17,57.17 80.17,57.3 
	80.05,57.3 79.92,57.3 79.92,57.42 80.05,57.55 80.17,57.68 80.05,57.68 80.05,57.8 80.17,57.8 80.05,57.93 79.92,57.93 
	79.92,58.06 79.92,58.18 79.79,58.18 79.67,58.31 79.79,58.31 79.79,58.43 79.92,58.43 79.79,58.43 79.79,58.56 79.79,58.69 
	79.92,58.81 79.92,58.94 79.79,58.94 79.79,59.07 79.67,59.07 79.67,59.19 79.79,59.19 79.79,59.32 79.67,59.32 79.67,59.44 
	79.67,59.57 79.67,59.7 79.54,59.82 79.41,59.82 79.41,59.7 79.29,59.7 79.29,59.82 79.16,59.82 79.16,59.95 79.04,59.95 
	78.91,59.95 78.78,59.95 78.66,59.95 78.53,59.95 78.53,60.08 78.4,60.08 78.28,59.95 78.28,59.82 78.15,59.82 78.02,59.82 
	78.15,59.57 78.02,59.57 78.02,59.44 78.02,59.32 77.9,59.32 77.9,59.44 77.77,59.44 77.77,59.32 77.65,59.32 77.65,59.19 
	77.52,59.07 77.39,59.07 77.39,59.19 77.27,59.19 77.27,59.07 77.39,58.94 77.39,58.81 77.27,58.81 77.27,58.69 77.27,58.56 
	77.14,58.56 77.14,58.43 77.27,58.43 77.14,58.31 77.14,58.43 77.01,58.43 77.01,58.31 76.89,58.31 76.76,58.31 76.89,58.31 
	76.89,58.18 76.89,58.06 76.76,58.06 76.64,58.06 76.64,57.93 76.51,57.93 76.64,57.8 76.76,57.8 76.76,57.68 76.89,57.68 
	76.89,57.55 77.01,57.55 76.76,57.42 76.76,57.3 76.89,57.3 76.89,57.17 76.89,57.04 76.76,57.04 76.64,56.92 76.51,56.92 
	76.38,56.92 76.26,57.04 76.13,57.04 76,56.92 76.13,56.92 76.13,56.79 76.26,56.79 76.26,56.67 76.13,56.67 76,56.67 76,56.54 
	76,56.41 76,56.29 76,56.16 75.88,56.16 75.88,56.03 75.88,55.91 75.88,55.78 75.75,55.78 75.5,55.78 75.37,55.78 75.37,55.91 
	75.37,56.03 75.37,56.16 75.5,56.16 75.5,56.29 75.25,56.29 75.25,56.16 75.25,56.03 75.12,56.03 74.99,56.03 74.99,56.16 
	74.87,56.16 74.87,56.03 74.99,56.03 74.99,55.91 74.99,55.78 74.99,55.66 74.87,55.53 74.87,55.4 74.87,55.28 74.87,55.15 
	74.74,55.15 74.61,55.28 74.61,55.4 74.61,55.53 74.49,55.53 74.49,55.4 74.36,55.4 74.36,55.28 74.24,55.15 74.24,55.02 
	74.11,55.02 73.98,55.02 73.98,54.9 73.86,54.77 73.73,54.9 73.6,54.9 73.48,54.9 73.48,54.77 73.6,54.64 73.6,54.52 73.48,54.52 
	73.48,54.39 73.35,54.27 73.23,54.14 73.23,54.01 73.23,53.89 73.35,53.76 72.97,53.76 72.85,53.76 72.72,53.76 72.47,53.63 
	72.09,53.63 71.96,53.51 71.84,53.51 71.33,53.51 71.2,53.51 71.08,53.51 70.95,53.51 70.95,53.63 70.82,53.63 70.7,53.63 
	70.57,53.63 70.45,53.63 70.45,53.76 70.32,53.76 70.45,53.89 70.57,53.89 70.57,54.01 70.45,54.01 70.57,54.01 70.57,54.14 
	70.57,54.27 70.7,54.27 70.7,54.39 70.57,54.39 70.57,54.52 70.57,54.64 70.45,54.64 70.45,54.77 70.32,54.77 70.19,54.77 
	70.19,54.9 70.19,54.77 70.19,54.9 70.07,54.9 69.94,54.9 69.94,55.02 69.94,54.9 69.81,54.9 69.69,54.9 69.69,54.77 69.56,54.9 
	69.56,54.77 69.44,54.77 69.44,54.9 69.44,54.77 69.31,54.77 69.31,54.9 69.18,54.9 69.06,54.9 68.93,54.9 68.93,54.77 68.8,54.77 
	68.8,54.9 68.68,54.9 68.68,55.02 68.68,55.15 68.68,55.28 68.55,55.28 68.55,55.4 68.42,55.66 68.42,55.91 68.42,56.03 
	67.92,56.16 67.79,56.29 67.67,56.41 67.54,56.54 67.41,56.67 67.41,56.79 67.41,56.92 67.41,57.04 67.41,57.17 67.29,57.17 
	67.29,57.3 67.16,57.3 67.04,57.3 67.04,57.42 66.91,57.42 66.91,57.55 66.78,57.55 66.78,57.68 66.66,57.68 66.66,57.8 
	66.66,57.93 66.53,57.93 66.66,57.93 66.66,58.06 66.53,58.06 66.66,58.06 66.66,58.18 66.53,58.18 66.66,58.18 66.66,58.31 
	66.53,58.31 66.53,58.43 66.4,58.43 66.28,58.43 66.28,58.56 66.15,58.56 66.03,58.56 66.03,58.69 65.9,58.69 65.77,58.81 
	65.65,58.81 65.65,58.69 65.52,58.69 65.52,58.56 65.39,58.56 65.27,58.56 65.14,58.56 65.01,58.43 65.01,58.31 64.89,58.18 
	64.89,58.06 64.89,57.93 64.89,57.8 64.89,57.42 64.89,57.3 64.76,56.92 64.76,56.79 64.76,56.67 64.64,56.54 64.51,56.54 
	64.51,56.41 64.26,56.41 64.26,56.29 64.26,56.16 63.75,56.03 63.75,55.91 63.75,55.78 63.75,55.66 63.75,55.53 63.75,55.4 
	63.63,55.4 63.63,55.28 63.5,55.28 63.5,55.15 63.37,55.15 63.37,55.02 63.37,54.9 63.25,54.9 63.25,54.77 63.12,54.64 62.99,54.64 
	62.99,54.52 62.99,54.39 62.99,54.27 62.74,54.14 62.61,54.14 62.61,54.01 62.74,54.01 62.74,53.89 62.61,53.89 62.61,53.76 
	62.49,53.76 62.49,53.89 62.36,53.76 62.24,53.89 62.24,53.76 62.11,53.76 62.11,53.89 61.98,53.89 61.98,54.01 61.86,53.89 
	61.86,54.01 61.73,54.01 61.73,53.89 61.73,54.01 61.6,54.01 61.48,54.14 61.48,54.01 61.48,54.14 61.35,54.14 61.35,54.01 
	61.22,54.01 60.85,54.01 60.59,54.01 60.34,54.01 60.21,54.01 60.09,53.89 59.96,53.89 59.84,53.76 59.96,53.63 59.96,53.51 
	59.84,53.51 59.84,53.63 59.71,53.51 59.58,53.51 59.46,53.51 59.46,53.63 59.46,53.76 59.33,53.76 59.33,53.63 59.33,53.76 
	59.2,53.76 59.2,53.63 58.95,53.63 58.95,53.76 59.08,53.76 59.08,53.89 58.95,53.89 58.83,53.89 58.83,54.01 58.7,54.01 
	58.83,54.01 58.7,54.01 58.7,54.14 58.7,54.27 58.57,54.27 58.57,54.39 58.57,54.52 58.57,54.39 58.7,54.52 58.7,54.64 58.7,54.52 
	58.7,54.64 58.57,54.64 58.7,54.64 58.57,54.64 58.45,54.77 58.45,54.9 58.57,54.9 58.57,55.02 58.45,54.9 58.45,55.02 58.45,55.15 
	58.45,55.28 58.57,55.28 58.57,55.15 58.57,55.28 58.57,55.15 58.7,55.15 58.7,55.28 58.83,55.28 58.83,55.4 58.7,55.4 58.7,55.53 
	58.83,55.53 58.83,55.66 58.95,55.78 58.83,55.78 58.83,55.91 58.83,55.78 58.95,55.78 58.95,55.91 58.83,55.91 58.7,56.03 
	58.83,56.03 58.83,56.16 58.83,56.41 58.83,56.54 58.83,56.41 58.7,56.41 58.7,56.54 58.7,56.67 58.57,56.67 58.57,56.54 
	58.7,56.54 58.57,56.54 58.57,56.41 58.45,56.41 58.45,56.54 58.32,56.54 58.32,56.67 58.32,56.79 58.32,56.67 58.45,56.67 
	58.45,56.79 58.45,56.92 58.32,56.92 58.45,56.92 58.45,57.04 58.32,57.04 58.32,57.17 58.32,57.3 58.45,57.17 58.45,57.3 
	58.57,57.3 58.57,57.42 58.45,57.42 58.32,57.42 58.32,57.55 58.32,57.42 58.19,57.42 58.19,57.55 58.07,57.42 58.07,57.55 
	57.94,57.55 57.94,57.68 57.81,57.68 57.81,57.55 57.69,57.55 57.69,57.68 57.69,57.8 57.69,57.68 57.69,57.8 57.56,57.8 
	57.44,57.8 57.44,57.93 57.44,58.06 57.31,58.06 57.31,57.93 57.44,57.93 57.31,57.93 57.31,57.8 57.18,57.8 57.18,57.93 
	57.06,57.93 57.06,58.06 56.93,58.06 56.8,58.06 56.93,58.06 56.93,58.18 56.93,58.31 57.06,58.31 57.06,58.43 57.18,58.43 
	57.31,58.56 57.31,58.69 57.31,58.81 57.18,58.81 57.06,58.94 56.93,58.94 56.8,58.81 56.68,58.81 56.55,58.94 56.43,58.94 
	56.43,59.07 56.3,59.07 56.3,59.19 56.3,59.32 56.43,59.19 56.55,59.19 56.68,59.19 56.68,59.32 56.55,59.32 56.43,59.44 
	56.3,59.44 56.3,59.57 56.43,59.57 56.55,59.57 56.55,59.7 56.55,59.82 56.55,59.95 56.43,59.95 56.43,59.82 56.3,59.82 56.3,59.7 
	56.17,59.82 56.17,59.95 56.05,59.95 56.05,59.82 55.92,59.95 55.92,59.82 55.79,59.82 55.67,59.7 55.54,59.82 55.67,59.82 
	55.67,59.95 55.67,60.08 55.79,60.08 55.92,60.08 56.05,60.08 56.05,60.2 56.05,60.33 56.17,60.33 56.3,60.33 56.43,60.33 
	56.55,60.33 56.55,60.2 56.68,60.2 56.8,60.33 56.8,60.45 56.8,60.58 56.68,60.71 56.68,60.83 56.8,60.83 56.68,60.83 56.68,60.96 
	56.8,60.96 56.68,60.96 56.55,60.96 56.55,61.09 56.68,61.09 56.55,61.09 56.55,61.21 56.68,61.21 56.8,61.21 56.8,61.34 
	56.68,61.34 56.68,61.47 56.8,61.47 56.8,61.34 56.93,61.47 57.18,61.59 57.31,61.72 57.44,61.84 57.31,61.84 57.31,61.97 
	57.18,61.97 57.06,61.84 56.93,61.84 56.93,61.97 56.93,62.1 56.93,62.22 57.06,62.22 57.06,62.35 57.18,62.35 57.31,62.35 
	57.44,62.35 57.44,62.48 57.56,62.48 57.69,62.48 57.56,62.6 57.56,62.73 57.56,62.86 57.56,62.98 57.44,62.98 57.31,62.86 
	57.31,62.98 57.18,62.98 57.31,62.98 57.31,63.11 57.44,63.11 57.44,63.23 57.44,63.36 57.31,63.36 57.31,63.49 57.18,63.49 
	57.06,63.49 57.06,63.61 57.18,63.61 57.18,63.74 57.18,63.87 57.18,63.99 57.18,63.87 57.18,63.99 57.31,63.99 57.31,64.12 
	57.18,64.12 57.31,64.12 57.31,64.24 57.44,64.24 57.44,64.37 57.44,64.5 57.31,64.5 57.18,64.5 57.18,64.62 57.06,64.62 
	57.06,64.75 56.93,64.75 56.93,64.88 56.8,64.88 56.8,65 56.93,65 57.06,65 56.93,65 56.93,65.13 57.06,65.13 57.18,65.25 
	57.18,65.38 57.31,65.38 57.31,65.51 57.18,65.51 57.06,65.63 57.18,65.63 57.31,65.63 57.31,65.76 57.31,65.89 57.44,65.89 
	57.44,66.01 57.31,66.01 57.31,66.14 57.18,66.14 57.06,66.27 57.06,66.39 56.93,66.39 57.06,66.52 57.06,66.64 56.93,66.52 
	56.93,66.64 56.8,66.64 56.68,66.77 56.55,66.77 56.55,66.9 56.43,66.9 56.3,66.9 56.43,66.9 56.43,67.02 56.3,66.9 56.3,67.02 
	56.17,67.02 56.3,67.02 56.3,67.15 56.3,67.28 56.43,67.28 56.3,67.4 56.43,67.4 56.43,67.53 56.43,67.65 56.43,67.78 56.43,67.91 
	56.43,68.03 56.3,68.03 56.43,68.03 56.3,68.03 56.3,68.16 56.3,68.29 56.17,68.29 56.17,68.41 56.05,68.41 56.05,68.54 
	56.05,68.67 55.92,68.67 55.92,68.79 55.79,68.79 55.79,68.67 55.79,68.79 55.67,68.79 55.54,68.79 55.54,68.92 55.41,68.92 
	55.41,68.79 55.41,68.92 55.29,68.92 55.29,69.04 55.16,69.04 55.04,69.04 55.04,69.17 55.04,69.04 55.04,69.17 55.04,69.04 
	54.91,69.04 54.91,69.17 54.78,69.17 54.66,69.17 54.66,69.3 54.53,69.3 54.4,69.3 54.28,69.3 54.15,69.3 54.02,69.3 53.9,69.3 
	53.9,69.17 53.77,69.17 53.77,69.3 53.65,69.3 53.52,69.3 53.52,69.17 53.52,69.3 53.39,69.3 53.39,69.42 53.27,69.42 53.14,69.42 
	53.14,69.55 53.01,69.55 53.01,69.42 52.89,69.42 52.89,69.55 52.76,69.55 52.76,69.68 52.76,69.8 52.64,69.8 52.64,69.93 
	52.76,69.93 52.76,70.05 52.64,70.05 52.64,70.18 52.64,70.05 52.51,70.18 52.64,70.18 52.64,70.31 52.51,70.31 52.51,70.43 
	52.51,70.31 52.51,70.43 52.64,70.43 52.51,70.43 52.38,70.43 52.38,70.56 52.26,70.56 52.26,70.69 52.38,70.69 52.38,70.81 
	52.26,70.81 52.13,70.81 52.13,70.94 52.13,70.81 52.13,70.94 52.26,70.94 52.13,70.94 52.26,70.94 52.13,71.07 52.26,71.07 
	52.26,71.19 52.13,71.19 52.26,71.19 52.26,71.32 52.26,71.44 52.38,71.44 52.26,71.44 52.26,71.57 52.38,71.57 52.26,71.57 
	52.26,71.7 52.26,71.82 52.13,71.82 52.13,71.95 52.26,71.95 52.26,72.08 52.13,72.08 52.13,72.2 52,72.2 51.88,72.2 52,72.2 
	52,72.33 51.88,72.33 51.75,72.45 51.75,72.33 51.63,72.33 51.63,72.2 51.5,72.2 51.5,72.33 51.37,72.33 51.25,72.33 51.25,72.45 
	51.25,72.58 51.37,72.58 51.37,72.71 51.25,72.71 51.25,72.83 51.37,72.83 51.25,72.83 51.37,72.83 51.37,72.96 51.37,73.09 
	51.5,73.09 51.5,73.21 51.5,73.09 51.5,73.21 51.5,73.34 51.5,73.47 51.5,73.59 51.63,73.59 51.63,73.72 51.63,73.84 51.75,73.84 
	51.75,73.97 51.75,74.1 51.63,74.1 51.5,74.1 51.37,74.1 51.25,74.1 51.12,74.1 50.99,74.1 50.87,74.1 50.74,74.1 50.61,74.22 
	50.49,74.22 50.49,74.1 50.36,74.1 50.36,74.22 50.36,74.35 50.24,74.35 50.11,74.35 49.98,74.35 49.98,74.22 49.98,74.1 
	49.86,74.1 49.86,74.22 49.73,74.22 49.73,74.35 49.6,74.35 49.6,74.48 49.6,74.6 49.6,74.73 49.48,74.73 49.48,74.85 49.48,74.98 
	49.48,75.11 49.35,75.11 49.23,75.11 49.23,75.23 49.35,75.23 49.35,75.11 49.35,75.23 49.35,75.36 49.23,75.36 49.1,75.36 
	48.97,75.36 48.72,75.36 48.59,75.36 48.47,75.36 48.34,75.36 48.21,75.36 48.09,75.36 47.96,75.36 47.96,75.23 47.46,74.85 
	47.33,74.73 47.2,74.6 47.08,74.48 46.95,74.48 46.82,74.35 46.82,74.22 46.7,74.22 46.57,74.22 46.45,74.22 46.32,74.48 
	46.32,74.6 46.19,74.73 46.19,74.85 46.07,74.85 45.94,74.98 45.81,74.98 45.69,75.11 45.44,75.11 45.18,75.36 45.06,75.36 
	45.06,75.49 44.93,75.61 44.93,75.74 44.93,75.87 44.8,75.99 44.68,75.99 44.68,76.12 44.55,76.12 44.42,76.12 44.3,76.24 
	44.17,76.24 43.92,76.24 43.79,76.24 43.67,76.24 43.54,76.24 43.41,76.37 43.29,76.37 43.29,76.24 43.29,76.12 43.29,75.99 
	43.29,75.87 43.29,75.74 43.29,75.61 43.41,75.61 43.41,75.49 43.41,75.36 43.29,75.36 43.29,75.23 43.29,75.11 43.16,75.11 
	43.16,74.98 43.16,74.85 43.16,74.73 43.04,74.6 42.78,74.6 42.53,74.48 42.15,74.35 41.77,74.22 41.65,74.22 41.52,74.22 
	41.39,74.1 41.27,74.1 41.14,74.1 41.01,73.97 40.76,73.97 40.51,73.97 40.38,73.97 40.26,73.97 40,73.97 39.88,74.1 39.75,74.1 
	39.75,74.22 39.63,74.22 39.63,74.1 39.5,74.1 39.63,74.1 39.63,73.97 39.63,73.84 39.63,73.72 39.63,73.59 39.75,73.59 
	39.88,73.59 39.88,73.47 39.75,73.47 39.88,73.47 39.88,73.34 40,73.34 40,73.21 40,73.09 40,72.96 40,72.83 40,72.71 40.13,72.71 
	40.13,72.58 40,72.58 40,72.45 40.13,72.45 40,72.45 40,72.33 40.13,72.33 40,72.33 40,72.2 40,72.08 40,71.95 40,71.82 40,71.7 
	39.88,71.7 39.88,71.57 39.88,71.44 39.88,71.32 39.75,71.32 39.75,71.19 39.75,71.07 39.63,71.07 39.63,70.94 39.63,70.81 
	39.5,70.69 39.5,70.56 39.5,70.43 39.5,70.31 39.63,70.18 39.63,70.05 39.75,69.93 39.75,69.8 39.88,69.8 40,69.8 40.13,69.8 
	40.26,69.8 40.38,69.8 40.38,69.68 40.51,69.68 40.51,69.55 40.64,69.55 40.64,69.42 40.76,69.42 40.64,69.3 40.51,69.17 
	40.26,69.04 40.13,68.92 40,68.79 39.63,68.67 39.5,68.67 39.37,68.54 39.25,68.54 39.12,68.41 38.99,68.29 38.87,68.29 
	38.74,68.16 38.61,68.03 38.49,67.91 38.36,67.78 38.24,67.65 38.11,67.65 37.98,67.53 37.98,67.4 37.98,67.28 37.48,67.02 
	37.1,66.77 37.1,66.64 36.97,66.52 36.85,66.39 36.72,66.39 36.59,66.27 36.47,66.14 36.34,66.01 36.21,65.89 36.09,65.89 
	35.96,65.76 35.96,65.63 35.84,65.63 35.71,65.63 35.58,65.51 35.46,65.38 35.33,65.25 35.33,65.13 35.33,65 35.33,64.88 
	35.33,64.75 35.33,64.62 35.2,64.5 35.2,64.37 35.08,64.37 35.08,64.24 34.95,64.12 34.83,64.12 34.7,63.99 34.57,63.99 
	34.45,63.99 34.32,63.87 34.19,63.87 34.07,63.99 33.94,63.99 33.69,63.99 33.56,63.99 33.44,63.99 33.31,64.12 33.18,64.12 
	33.06,64.24 32.93,64.24 32.93,64.37 32.8,64.37 32.68,64.37 32.55,64.24 32.43,64.24 32.3,64.24 32.3,64.37 32.17,64.37 
	32.17,64.5 32.05,64.5 31.92,64.5 31.79,64.5 31.67,64.5 31.54,64.5 31.41,64.5 31.29,64.5 31.04,64.62 30.91,64.62 30.78,64.62 
	30.66,64.62 30.66,64.75 30.53,64.75 30.4,64.75 30.28,64.62 30.28,64.5 30.15,64.5 30.15,64.37 30.02,64.37 29.9,64.37 29.9,64.24 
	29.77,64.24 29.77,64.37 29.65,64.37 29.65,64.24 29.52,64.24 29.39,64.24 29.27,64.12 29.27,63.99 29.27,63.87 29.27,63.74 
	29.27,63.61 29.14,63.61 29.14,63.49 29.01,63.49 29.01,63.36 28.89,63.36 28.89,63.49 28.89,63.61 28.76,63.61 28.76,63.49 
	28.76,63.61 28.76,63.74 28.64,63.74 28.64,63.61 28.64,63.74 28.51,63.74 28.51,63.61 28.51,63.74 28.38,63.74 28.38,63.61 
	28.38,63.49 28.26,63.49 28.26,63.36 28.26,63.23 28.38,63.23 28.26,63.23 28.26,63.11 28.13,63.11 28.13,62.98 28.13,62.86 
	28.26,62.86 28.26,62.73 28.26,62.6 28.38,62.6 28.38,62.73 28.38,62.6 28.38,62.48 28.51,62.48 28.38,62.48 28.38,62.35 
	28.26,62.35 28.26,62.48 28.26,62.35 28.13,62.35 28.13,62.22 28,62.22 27.88,62.22 28,62.1 27.88,62.1 27.88,61.97 28,61.97 
	27.88,61.97 27.88,61.84 27.88,61.72 27.75,61.72 27.88,61.72 27.75,61.72 27.75,61.84 27.63,61.84 27.75,61.84 27.75,61.97 
	27.63,61.97 27.63,61.84 27.63,61.72 27.63,61.59 27.5,61.59 27.63,61.59 27.63,61.47 27.75,61.47 27.75,61.59 27.75,61.47 
	27.88,61.47 27.88,61.34 27.75,61.34 27.63,61.34 27.75,61.34 27.75,61.21 27.63,61.21 27.63,61.09 27.75,61.09 27.88,61.09 
	27.88,60.96 27.88,60.83 27.88,60.71 27.75,60.71 27.75,60.58 27.88,60.58 27.88,60.45 28,60.45 27.88,60.45 28,60.45 28,60.58 
	28,60.45 28.13,60.58 28.13,60.45 28,60.45 28.13,60.33 28.26,60.33 28.13,60.33 28.13,60.2 28.26,60.2 28.26,60.08 28.13,60.08 
	28.26,59.95 28.26,60.08 28.26,59.95 28.26,60.08 28.38,60.08 28.26,60.08 28.38,60.08 28.38,59.95 28.38,59.82 28.38,59.7 
	28.26,59.7 28.26,59.82 28.13,59.82 28.13,59.7 28,59.7 27.88,59.7 27.88,59.82 27.88,59.7 27.75,59.7 27.63,59.7 27.63,59.82 
	27.63,59.7 27.63,59.82 27.5,59.82 27.37,59.82 27.37,59.7 27.37,59.82 27.37,59.7 27.25,59.7 27.25,59.82 27.12,59.7 27.12,59.57 
	26.99,59.57 27.12,59.57 27.12,59.44 27.12,59.57 27.12,59.44 26.99,59.44 26.87,59.44 26.87,59.32 26.74,59.44 26.74,59.32 
	26.61,59.19 26.61,59.07 26.49,59.07 26.36,59.07 26.36,58.94 26.36,59.07 26.24,58.94 26.36,58.94 26.24,58.94 26.11,58.94 
	26.11,58.81 26.11,58.69 26.24,58.69 26.24,58.56 26.11,58.43 26.11,58.31 25.98,58.31 25.86,58.31 25.86,58.18 25.73,58.18 
	25.6,58.18 25.48,58.18 25.48,58.06 25.35,58.06 25.35,57.93 25.48,57.93 25.48,57.8 25.35,57.8 25.48,57.8 25.6,57.8 25.48,57.8 
	25.48,57.68 25.6,57.68 25.48,57.68 25.48,57.55 25.6,57.55 25.73,57.55 25.73,57.42 25.6,57.42 25.6,57.3 25.6,57.17 25.48,57.17 
	25.6,57.17 25.6,57.04 25.48,57.04 25.48,56.92 25.48,56.79 25.35,56.67 25.23,56.67 25.1,56.67 25.1,56.54 25.23,56.54 
	25.23,56.41 25.35,56.41 25.23,56.41 25.1,56.29 25.1,56.16 25.23,56.16 25.35,56.03 25.35,55.91 25.35,56.03 25.35,55.91 
	25.48,55.91 25.48,55.78 25.35,55.78 25.35,55.66 25.35,55.53 25.23,55.53 25.23,55.4 25.1,55.4 25.1,55.28 25.1,55.15 24.97,55.15 
	24.85,55.02 24.85,54.9 24.85,54.77 24.72,54.77 24.72,54.64 24.72,54.52 24.72,54.39 24.59,54.39 24.59,54.27 24.47,54.27 
	24.47,54.14 24.21,54.27 24.09,54.27 23.96,54.27 23.84,54.14 23.84,54.01 23.71,54.01 23.71,53.89 23.58,53.89 23.46,53.89 
	23.46,53.76 23.33,53.76 23.2,53.63 23.08,53.76 23.08,53.63 23.08,53.51 22.95,53.51 22.83,53.51 22.83,53.38 22.95,53.38 
	22.95,53.26 22.83,53.26 22.95,53.26 23.08,53.26 23.08,53.13 23.08,53 22.95,53 22.95,52.88 22.83,52.88 22.83,52.75 22.7,52.75 
	22.7,52.62 22.57,52.62 22.45,52.62 22.45,52.75 22.57,52.75 22.57,52.88 22.45,52.88 22.45,52.75 22.32,52.75 22.32,52.62 
	22.19,52.5 22.32,52.5 22.32,52.37 22.19,52.37 22.19,52.24 22.07,52.24 21.94,52.24 21.81,52.24 21.69,52.24 21.56,52.24 
	21.56,52.12 21.31,52.12 21.31,51.99 21.18,51.87 21.18,51.74 21.06,51.74 21.06,51.61 20.93,51.61 20.93,51.49 20.8,51.49 
	20.68,51.49 20.42,51.49 20.3,51.49 20.17,51.49 20.05,51.36 19.92,51.36 19.67,51.23 19.67,51.11 19.54,51.11 19.54,50.98 
	19.41,50.86 19.16,50.86 19.04,50.73 18.91,50.73 18.91,50.6 18.78,50.48 18.66,50.35 18.66,50.22 18.53,50.1 18.4,49.97 
	18.28,49.84 18.15,49.84 18.15,49.72 18.15,49.59 18.15,49.47 18.15,49.34 18.03,49.21 18.03,49.09 17.9,49.09 17.77,48.96 
	17.77,48.83 17.77,48.71 17.77,48.58 17.77,48.46 17.77,48.2 17.65,48.08 17.65,47.95 17.52,47.7 17.39,47.57 17.27,47.44 
	17.14,47.44 17.14,47.32 17.01,47.32 16.89,47.32 16.89,47.44 16.89,47.57 16.76,47.7 16.76,47.82 16.76,47.95 16.76,48.08 
	16.64,48.2 16.51,48.2 16.38,48.2 16.26,48.08 16.13,48.08 16.13,47.95 16,47.95 15.88,47.95 15.75,47.95 15.63,47.95 15.5,47.95 
	15.5,47.82 15.37,47.82 15.25,47.7 14.99,47.57 14.99,47.44 14.87,47.44 14.87,47.57 14.87,47.44 14.74,47.44 14.74,47.57 
	14.74,47.44 14.61,47.44 14.61,47.32 14.49,47.32 14.49,47.44 14.49,47.32 14.49,47.44 14.36,47.44 14.36,47.32 14.36,47.19 
	14.36,47.07 14.24,47.07 14.24,46.94 14.11,46.94 13.98,46.94 13.98,46.81 13.86,46.81 13.86,46.69 13.73,46.69 13.73,46.81 
	13.6,46.69 13.6,46.56 13.6,46.43 13.48,46.43 13.35,46.43 13.22,46.43 13.1,46.43 13.1,46.31 13.1,46.43 12.97,46.43 12.97,46.31 
	12.97,46.43 12.85,46.43 12.85,46.31 12.72,46.31 12.72,46.18 12.59,46.18 12.59,46.31 12.47,46.31 12.34,46.31 12.34,46.43 
	12.21,46.43 12.09,46.43 12.09,46.31 12.09,46.43 11.96,46.31 11.84,46.31 11.71,46.31 11.71,46.18 11.58,46.18 11.46,46.18 
	11.46,46.06 11.33,46.06 11.33,45.93 11.33,45.8 11.2,45.8 11.33,45.8 11.33,45.68 11.33,45.55 11.33,45.42 11.46,45.42 11.58,45.3 
	11.58,45.17 11.46,45.17 10.95,45.55 10.57,45.8 10.45,45.8 10.19,45.93 10.07,45.93 9.44,45.55 9.44,45.42 9.31,45.42 9.31,45.55 
	9.18,45.55 9.18,45.68 9.18,45.8 9.06,46.06 8.93,46.18 8.8,46.43 8.68,46.69 8.68,46.81 8.55,46.81 8.68,46.81 8.68,46.94 
	8.55,47.19 8.43,47.32 8.43,47.44 8.43,47.57 8.3,47.57 8.17,47.57 8.05,47.57 7.92,47.57 8.05,47.57 7.92,47.44 7.79,47.44 
	7.67,47.44 7.54,47.44 7.41,47.44 7.41,47.32 7.41,47.19 7.41,47.07 7.29,47.07 7.29,46.94 7.29,46.81 7.29,46.69 7.29,46.56 
	7.16,46.56 7.04,46.56 7.04,46.43 6.91,46.43 6.91,46.31 6.91,46.18 7.04,46.18 7.04,46.06 7.04,45.93 7.04,45.8 6.91,45.8 
	6.91,45.68 6.91,45.55 6.91,45.42 7.04,45.42 7.04,45.3 7.16,45.17 7.16,45.05 7.16,44.92 7.16,44.79 7.16,44.67 7.16,44.54 
	7.16,44.41 7.04,44.29 6.91,44.41 6.78,44.29 6.66,44.29 6.66,44.41 6.53,44.41 6.4,44.41 6.28,44.41 6.15,44.41 6.02,44.41 
	5.9,44.41 5.77,44.54 5.65,44.54 5.52,44.67 5.39,44.67 5.27,44.79 5.14,44.79 5.01,44.92 4.89,44.92 4.76,45.05 4.64,45.05 
	4.51,45.05 4.38,44.92 4.38,44.79 4.26,44.67 4.26,44.54 4.38,44.54 4.38,44.41 4.51,44.29 4.64,44.16 4.64,44.03 4.76,44.03 
	4.89,43.91 4.89,43.66 4.89,43.53 4.89,43.28 4.89,43.15 4.89,43.02 4.76,42.9 4.76,42.77 4.64,42.65 4.64,42.52 4.51,42.39 
	4.38,42.39 4.13,42.39 4.13,42.52 4,42.52 3.75,42.39 3.75,42.52 3.62,42.52 3.5,42.52 3.5,42.65 3.37,42.65 3.37,42.77 3.37,42.9 
	3.25,42.9 3.12,42.9 2.99,42.77 2.99,42.65 2.87,42.65 2.87,42.52 2.74,42.52 2.61,42.39 2.49,42.39 2.36,42.39 2.36,42.27 
	2.24,42.27 2.24,42.14 2.11,42.01 2.11,41.89 1.98,41.76 1.98,41.63 1.86,41.51 1.86,41.38 1.73,41.26 1.6,41.26 1.48,41.13 
	1.35,41 1.23,41 1.1,40.88 0.97,40.75 0.85,40.75 0.85,40.62 0.85,40.37 0.85,40.25 0.85,40.12 0.85,39.99 0.85,39.87 0.97,39.74 
	0.97,39.61 1.1,39.61 1.23,39.49 1.23,39.36 1.23,39.23 1.23,39.11 1.23,38.98 1.35,38.86 1.35,38.73 1.48,38.6 1.48,38.48 
	1.48,38.35 1.48,38.22 1.48,38.1 1.48,37.97 1.6,37.85 1.6,37.72 1.6,37.59 1.6,37.47 1.6,37.34 1.73,37.21 1.73,37.09 1.73,36.96 
	1.73,36.83 1.6,36.58 1.6,36.46 1.73,36.46 1.73,36.33 1.86,36.33 1.98,36.08 2.11,36.08 2.24,35.95 2.24,35.82 2.36,35.7 
	2.49,35.57 2.61,35.45 2.74,35.45 2.74,35.32 2.87,35.32 2.87,35.19 2.99,35.19 3.12,35.19 3.25,35.19 3.37,35.19 3.5,35.19 
	3.62,35.19 3.75,35.07 3.88,35.07 4,35.07 4,34.94 4,34.81 4,34.56 4,34.43 4,34.31 4,34.18 4,34.06 4,33.93 4,33.8 3.88,33.8 
	4,33.8 3.88,33.68 4,33.68 4,33.55 4,33.42 4,33.3 4,33.17 4,33.05 4,32.92 4,32.79 4,32.67 3.88,32.67 3.88,32.54 4,32.54 4,32.41 
	4,32.29 3.88,32.16 4,32.16 4,32.03 4.13,32.03 4.13,31.91 4.13,31.78 4.13,31.66 4,31.66 4.13,31.66 4.13,31.53 4.13,31.4 
	4.13,31.28 4.26,31.28 4.38,31.28 4.51,31.4 4.64,31.4 4.76,31.4 4.89,31.4 5.01,31.28 5.14,31.28 5.52,31.28 5.65,31.28 
	5.77,31.15 5.9,31.15 6.02,31.02 6.28,31.02 6.4,31.15 6.53,31.15 6.66,31.28 6.78,31.4 6.91,31.4 6.91,31.53 6.91,31.66 
	6.91,31.78 7.16,31.78 7.29,31.78 7.41,31.78 7.67,31.91 7.79,31.91 7.92,31.91 8.05,31.78 8.17,31.78 8.3,31.91 8.43,32.03 
	8.43,32.16 8.43,32.29 8.55,32.54 8.55,32.67 8.68,32.79 8.68,32.92 8.8,33.05 8.8,33.17 8.93,33.42 8.93,33.55 8.93,33.68 
	9.06,33.8 9.06,33.93 9.06,34.06 9.18,34.18 9.31,34.31 9.31,34.43 9.44,34.56 9.44,34.81 9.56,34.94 9.56,35.19 9.56,35.32 
	9.69,35.32 9.69,35.57 9.69,35.7 9.81,35.82 9.94,35.95 10.07,36.08 10.19,36.08 10.32,36.2 10.45,36.33 10.57,36.46 10.7,36.58 
	10.83,36.71 10.83,36.83 10.83,36.96 10.95,36.96 11.2,37.09 11.46,37.21 11.58,37.21 11.84,37.34 11.96,37.47 12.21,37.59 
	12.21,37.72 12.34,37.85 12.47,37.85 12.59,37.97 12.59,38.1 12.72,38.22 12.97,38.35 13.1,38.48 13.22,38.6 13.35,38.6 
	13.48,38.73 13.6,38.86 13.73,38.98 13.86,38.98 13.98,39.23 14.11,39.23 14.11,39.36 14.24,39.36 14.36,39.36 14.49,39.61 
	14.87,39.99 14.99,40.25 15.25,40.5 15.5,40.75 16.13,41.26 16.13,41.38 16.64,41.76 17.01,42.14 17.14,42.27 17.27,42.39 
	17.52,42.52 17.77,42.65 18.03,42.77 18.4,42.9 18.78,43.02 19.04,43.02 19.16,43.02 19.41,43.02 19.67,43.02 19.79,43.02 
	19.92,43.02 20.05,43.15 20.17,43.15 20.3,43.15 20.42,43.15 20.55,43.15 20.8,43.15 20.93,43.15 21.18,43.28 21.44,43.4 
	21.69,43.53 22.19,43.78 22.7,44.16 23.46,44.79 23.84,45.05 24.34,45.42 24.47,45.42 24.72,45.68 25.1,46.06 25.23,46.31 
	25.48,46.43 25.48,46.56 25.73,46.69 25.98,46.81 26.11,46.94 26.24,47.07 26.36,47.07 26.49,47.19 26.61,47.19 26.74,47.32 
	26.87,47.44 26.99,47.44 27.12,47.57 27.25,47.57 27.5,47.7 27.63,47.82 27.75,47.82 28,47.95 28.26,48.08 28.38,48.08 28.51,48.2 
	28.64,48.33 28.76,48.33 29.01,48.46 29.14,48.46 29.27,48.58 29.39,48.58 29.52,48.71 29.77,48.71 29.9,48.83 30.02,48.83 
	30.15,48.83 30.4,48.96 30.53,48.96 30.78,48.96 30.91,48.96 31.04,48.96 31.16,48.96 31.41,48.96 31.54,48.96 31.79,48.96 
	32.05,48.83 32.3,48.71 32.55,48.71 32.8,48.58 32.93,48.58 33.06,48.58 33.18,48.71 33.44,48.71 33.69,48.83 33.81,48.96 
	33.94,48.96 34.07,49.09 34.19,49.09 34.32,49.09 34.45,49.09 34.83,49.09 35.08,49.09 35.2,49.09 35.33,49.09 35.46,48.96 
	35.58,48.83 35.71,48.83 35.84,48.71 35.96,48.71 36.09,48.71 36.21,48.71 36.34,48.71 36.59,48.71 36.72,48.71 36.97,48.83 
	37.1,48.83 37.35,48.96 37.48,48.96 37.6,49.09 37.73,49.09 37.86,49.09 38.11,49.09 38.24,49.09 38.36,49.09 38.49,49.09 
	38.74,49.21 38.99,49.34 39.37,49.47 39.63,49.59 39.75,49.72 39.88,49.97 40,50.1 40.26,50.35 40.38,50.6 40.38,50.73 40.38,50.86 
	40.38,50.98 40.38,51.49 40.51,51.99 40.51,52.12 40.51,52.5 40.38,52.75 40.38,52.88 40.38,53 40.38,53.13 40.38,53.38 
	40.26,53.51 40.13,53.76 40.13,53.89 40.13,54.01 40.13,54.27 40.13,54.39 40,54.52 39.88,55.02 39.75,55.28 39.5,55.91 
	39.25,56.16 39.12,56.41 38.99,56.67 38.99,56.79 38.99,57.04 38.87,57.17 38.87,57.3 38.74,57.55 38.74,57.68 38.74,57.8 
	38.87,57.93 38.87,58.06 38.99,58.18 39.12,58.31 39.25,58.43 39.5,58.56 39.75,58.56 39.88,58.69 40,58.69 40.13,58.69 
	40.38,58.69 40.64,58.69 40.89,58.69 41.14,58.69 41.27,58.69 41.65,58.69 41.77,58.69 41.9,58.69 42.15,58.69 42.28,58.81 
	42.4,58.81 42.53,58.94 42.78,59.19 43.04,59.32 43.16,59.44 43.41,59.82 43.67,59.95 43.79,60.08 43.92,60.2 44.05,60.33 
	44.3,60.58 44.42,60.71 44.68,60.71 44.8,60.71 45.18,60.71 45.31,60.71 45.44,60.71 45.56,60.71 45.69,60.71 45.81,60.58 
	45.94,60.45 46.07,60.33 46.19,60.08 46.32,59.95 46.45,59.82 46.45,59.7 46.57,59.57 46.57,59.44 46.45,59.44 46.45,59.32 
	46.32,59.19 46.19,59.07 46.19,58.94 45.94,58.69 45.81,58.69 45.69,58.56 45.44,58.43 45.31,58.31 45.18,58.18 45.06,58.06 
	45.06,57.93 44.93,57.68 44.93,57.55 44.93,57.3 45.06,57.04 45.06,56.92 45.18,56.67 45.18,56.54 45.31,56.41 45.44,56.29 
	45.56,56.03 45.69,55.91 45.81,55.78 45.94,55.66 46.19,55.53 46.32,55.4 46.7,55.28 46.82,55.15 46.95,55.15 47.08,55.15 
	47.33,55.15 47.33,55.02 47.46,55.02 47.71,55.02 47.96,55.02 48.21,54.9 48.34,54.9 48.59,54.9 48.97,54.77 49.23,54.77 
	49.35,54.77 49.48,54.77 49.48,54.64 49.6,54.64 49.73,54.52 49.86,54.39 50.36,54.14 50.49,54.01 50.61,54.01 50.74,53.89 
	50.87,53.76 50.99,53.76 51.12,53.63 51.25,53.51 51.25,53.38 51.37,53.26 51.5,53.13 51.63,52.88 51.63,52.75 51.75,52.62 
	51.75,52.5 51.88,52.37 51.88,52.24 51.88,51.99 52,51.74 52,51.61 52.13,51.49 52.13,51.36 52.26,51.36 52.38,51.23 52.51,50.98 
	52.64,50.86 52.89,50.73 53.01,50.73 53.14,50.6 53.27,50.6 53.39,50.6 53.52,50.6 53.52,50.48 53.65,50.48 53.9,50.48 54.15,50.48 
	54.28,50.48 54.4,50.48 54.53,50.48 54.66,50.48 54.91,50.35 55.04,50.22 55.16,50.22 55.29,50.1 55.41,49.97 55.54,49.84 
	55.67,49.84 55.79,49.72 55.92,49.59 55.92,49.47 56.05,49.34 56.17,49.21 56.43,49.09 56.55,48.96 56.68,48.83 56.8,48.71 
	56.93,48.58 57.06,48.46 57.18,48.33 57.31,48.2 57.44,48.08 57.69,48.08 57.81,47.95 58.07,47.82 58.19,47.82 58.45,47.7 
	58.57,47.7 58.7,47.7 58.83,47.57 59.33,47.57 59.46,47.57 59.58,47.57 59.71,47.57 59.96,47.44 60.09,47.44 60.21,47.44 
	60.34,47.32 60.47,47.32 60.59,47.32 60.72,47.19 60.85,47.19 60.97,47.07 61.1,47.07 61.22,46.94 61.35,46.94 61.48,46.81 
	61.6,46.69 61.73,46.56 61.86,46.56 61.98,46.43 62.11,46.43 62.24,46.31 62.36,46.18 62.49,46.18 62.61,46.06 62.74,45.93 
	62.87,45.93 62.99,45.8 63.25,45.8 63.88,45.68 64.26,45.55 64.64,45.55 65.14,45.55 65.77,45.68 65.9,45.8 66.03,45.8 66.15,45.8 
	66.28,45.93 66.4,46.06 66.66,46.06 66.91,46.31 67.29,46.56 67.54,46.81 67.79,47.07 68.3,47.44 68.68,47.7 68.8,47.82 
	68.93,47.82 69.06,47.82 69.18,47.95 69.44,47.82 69.81,47.57 69.94,47.57 70.19,47.44 70.32,47.32 71.08,46.43 71.71,45.55 
	71.96,45.17 72.09,45.05 72.21,44.79 72.34,44.67 72.34,44.54 72.47,44.41 72.47,44.29 72.59,44.16 72.72,44.03 72.72,43.91 
	72.85,43.78 72.85,43.66 72.97,43.53 72.97,43.4 72.97,43.28 73.1,43.15 73.1,42.9 73.1,42.77 73.23,42.65 73.23,42.52 73.23,42.39 
	73.23,42.27 73.23,42.01 73.23,41.89 73.1,41.76 73.1,41.51 73.1,41.38 72.97,41.38 72.97,41.26 72.97,41 72.85,41 72.72,40.75 
	72.72,40.62 72.59,40.5 72.59,40.37 72.59,40.25 72.59,40.12 72.59,39.99 72.59,39.74 72.59,39.61 72.72,39.49 72.72,39.36 
	72.72,39.23 72.72,39.11 72.85,38.86 72.85,38.73 72.97,38.6 72.97,38.48 72.97,38.22 72.97,37.97 72.97,37.85 72.97,37.72 
	72.97,37.59 72.85,37.47 72.85,37.21 72.85,37.09 72.85,36.96 72.97,36.83 72.97,36.71 73.1,36.58 73.1,36.33 73.1,36.2 73.23,36.2 
	73.35,36.08 73.35,35.95 73.48,35.82 73.6,35.7 73.73,35.7 73.98,35.57 74.11,35.57 74.24,35.45 74.36,35.32 74.49,35.32 
	74.61,35.19 74.74,35.07 74.87,34.94 74.99,34.94 74.99,34.81 75.12,34.81 75.25,34.69 75.37,34.69 75.5,34.56 75.63,34.56 
	75.75,34.43 75.88,34.31 76,34.18 76.13,34.18 76.38,34.06 76.51,33.93 76.64,33.93 76.76,33.8 76.89,33.68 77.01,33.55 
	77.14,33.55 77.27,33.3 77.39,33.3 77.52,33.05 77.65,33.05 77.77,32.92 77.77,32.67 77.9,32.54 77.9,32.41 78.02,32.29 
	78.02,32.03 78.02,31.91 78.15,31.78 78.15,31.53 78.15,31.4 78.28,31.28 78.28,31.02 78.28,30.9 78.28,30.65 78.15,30.52 
	78.15,30.39 78.15,30.27 78.02,30.01 78.02,29.89 78.02,29.76 77.9,29.63 77.9,29.51 77.9,29.38 77.77,29.26 77.77,29.13 77.77,29 
	77.77,28.75 77.9,28.62 77.9,28.5 78.02,28.37 78.02,28.25 78.02,28.12 78.15,27.99 78.28,27.87 78.4,27.61 78.66,26.98 79.04,26.6 
	79.04,26.48 79.29,26.22 79.41,26.22 79.54,26.1 79.67,25.97 79.79,25.97 79.92,25.85 80.05,25.85 80.17,25.72 80.43,25.72 
	80.55,25.72 80.68,25.72 80.8,25.72 81.06,25.59 81.18,25.59 81.44,25.47 81.56,25.47 81.69,25.47 81.94,25.34 82.07,25.34 
	82.19,25.21 82.32,25.21 82.57,25.09 82.7,25.09 82.83,24.96 82.95,24.96 83.08,24.96 83.08,24.84 83.2,24.84 83.33,24.84 
	83.58,24.58 83.71,24.58 83.84,24.58 83.96,24.46 84.47,24.33 85.1,24.33 85.22,24.2 85.48,24.2 85.6,24.08 85.73,24.08 
	85.86,24.08 85.98,23.95 86.11,23.95 86.24,23.95 86.36,23.82 86.49,23.82 86.61,23.82 86.74,23.7 86.87,23.7 86.99,23.57 
	87.12,23.57 87.25,23.45 87.37,23.45 87.5,23.32 87.63,23.32 87.75,23.32 87.75,23.19 87.88,23.19 88,23.07 88,22.94 88.13,22.81 
	88.13,22.69 88.26,22.94 88.13,23.07 88.13,23.19 88.13,23.32 88,23.32 88,23.45 88,23.57 88.13,23.7 88.26,23.7 88.26,23.82 
	88.13,23.95 88,23.95 87.88,24.08 88,24.2 88,24.33 88,24.46 88,24.58 88,24.71 87.88,24.71 87.75,24.71 87.75,24.84 87.75,24.96 
	87.88,24.96 87.88,25.09 "/>
</svg>
