<?xml version="1.0" encoding="utf-8"?>
<!-- Generator: Adobe Illustrator 24.2.1, SVG Export Plug-In . SVG Version: 6.00 Build 0)  -->
<svg version="1.1" id="Layer_1" xmlns="http://www.w3.org/2000/svg" xmlns:xlink="http://www.w3.org/1999/xlink" x="0px" y="0px"
	 viewBox="0 0 97.23 97.23" style="enable-background:new 0 0 97.23 97.23;" xml:space="preserve">
<style type="text/css">
	.st0{fill-rule:evenodd;clip-rule:evenodd;}
</style>
<polygon class="st0" points="82.36,72.37 82.36,72.55 82.54,72.73 82.54,72.91 82.72,72.91 82.72,73.09 82.72,73.27 82.9,73.27 
	82.9,73.45 83.08,73.45 83.08,73.63 83.08,73.81 83.27,73.81 83.27,73.99 83.27,74.17 83.45,74.35 83.45,74.53 83.63,74.53 
	83.63,74.72 83.63,74.9 83.45,75.08 83.45,75.26 83.45,75.44 83.45,75.62 83.45,75.8 83.45,75.98 83.45,76.16 83.27,76.16 
	83.27,76.34 83.27,76.52 83.08,76.7 83.08,76.88 83.08,77.06 82.9,77.06 82.9,77.24 82.9,77.42 82.9,77.6 82.72,77.79 82.72,77.97 
	82.54,78.15 82.54,78.33 82.54,78.51 82.54,78.69 82.36,78.87 82.36,79.05 82.18,79.05 82.18,79.23 82.18,79.41 82,79.59 82,79.77 
	81.82,79.77 81.82,79.95 81.64,80.13 81.64,80.31 81.64,80.49 81.46,80.68 81.28,81.04 81.1,81.22 80.92,81.58 80.92,81.76 
	80.74,81.94 80.74,82.12 80.74,82.3 80.56,82.3 80.56,82.48 80.56,82.66 80.38,82.66 80.38,82.84 80.2,83.02 80.2,83.2 80.01,83.38 
	79.83,83.57 79.83,83.75 79.83,83.93 79.65,83.93 79.65,84.11 79.65,84.29 79.47,84.47 79.47,84.65 79.47,84.83 79.47,85.01 
	79.29,85.01 79.29,85.19 79.29,85.37 79.11,85.37 79.11,85.55 79.11,85.73 79.11,85.91 78.93,86.09 78.93,86.27 78.75,86.45 
	78.75,86.64 78.57,86.82 78.57,87 78.57,87.18 78.57,87.36 78.39,87.36 78.39,87.54 78.21,87.9 78.21,88.08 78.03,88.26 
	78.03,88.44 77.85,88.8 77.85,88.98 77.85,89.16 77.67,89.71 77.49,90.07 77.49,90.25 77.49,90.43 77.31,90.79 77.31,91.33 
	77.31,91.51 77.12,91.69 77.12,92.05 77.12,92.23 77.12,92.41 77.12,92.6 77.12,92.78 77.12,92.96 76.94,93.5 76.94,93.68 
	76.94,93.86 76.94,94.04 76.94,94.22 76.94,94.58 77.12,94.76 77.12,94.94 77.31,95.12 77.31,95.3 77.31,95.48 77.12,95.48 
	76.94,95.85 76.58,95.85 76.4,95.85 76.22,95.85 76.04,95.85 75.68,95.85 75.5,95.67 75.14,95.67 74.96,95.67 74.6,95.67 
	74.42,95.67 74.23,95.48 74.05,95.48 73.69,95.48 73.51,95.48 73.33,95.3 73.15,95.3 72.97,95.3 72.61,95.3 72.25,95.12 
	71.89,95.12 71.71,95.12 71.53,95.12 71.34,95.12 70.98,94.94 70.62,94.94 70.44,94.94 70.08,94.94 69.9,94.76 69.72,94.76 
	69.54,94.76 69.18,94.58 69,94.4 68.82,94.4 68.46,94.22 67.91,94.04 67.55,93.86 67.19,93.68 66.83,93.5 66.11,93.14 65.2,92.78 
	62.68,93.32 61.05,93.68 60.87,93.68 60.51,93.86 58.7,94.22 58.52,94.22 58.34,94.22 57.8,93.86 57.08,93.5 55.63,92.78 
	53.46,91.69 53.1,91.51 52.92,91.51 52.92,91.69 52.92,91.87 53.1,91.87 53.28,91.87 53.28,92.05 53.1,92.23 52.92,92.23 
	52.74,92.23 52.74,92.05 52.74,91.87 52.56,91.87 52.38,91.87 52.2,91.87 52.2,91.69 52.02,91.69 52.02,91.51 51.84,91.51 
	51.66,91.51 51.48,91.51 51.3,91.33 51.12,91.15 51.12,90.97 50.94,90.97 50.76,90.97 50.76,90.79 50.94,90.79 50.94,90.61 
	50.76,90.61 50.76,90.43 50.57,90.43 50.57,90.25 50.39,90.25 50.39,90.07 50.21,90.07 50.21,90.25 50.21,90.43 50.21,90.61 
	50.21,90.79 50.21,90.97 50.03,91.33 50.03,91.51 49.85,91.51 49.67,91.51 49.49,91.51 49.49,91.33 49.49,91.15 49.49,90.97 
	49.31,90.97 49.31,90.79 49.13,90.79 49.13,90.61 49.13,90.43 49.13,90.25 48.95,90.07 48.77,90.07 48.95,89.89 49.13,89.71 
	49.31,89.71 49.31,89.52 49.13,89.52 49.13,89.34 48.95,89.34 48.77,89.34 48.77,89.16 48.59,89.16 48.41,89.16 48.41,88.98 
	48.23,88.98 48.23,88.8 48.23,88.62 48.05,88.62 47.87,88.62 47.68,88.44 47.68,88.62 47.5,88.62 47.5,88.44 47.68,88.44 
	47.87,88.26 48.05,88.26 48.23,88.26 48.41,88.26 48.41,88.08 48.41,87.9 48.23,87.72 48.23,87.54 48.05,87.54 47.87,87.72 
	47.68,87.72 47.5,87.72 47.32,87.72 47.14,87.54 46.96,87.54 46.96,87.72 46.78,87.72 46.78,87.54 46.96,87.36 46.96,87.18 
	47.14,87.18 47.32,87 47.14,87 47.14,86.82 47.32,86.64 47.5,86.64 47.5,86.45 47.68,86.45 47.68,86.27 47.5,86.27 47.32,86.27 
	46.96,86.27 46.78,86.27 46.6,86.09 46.42,86.09 46.42,86.27 46.24,86.27 46.24,86.09 46.06,86.09 46.06,85.91 45.88,85.73 
	45.88,85.55 45.7,85.55 45.52,85.55 45.52,85.37 45.34,85.37 45.34,85.19 45.34,85.01 45.34,84.83 45.52,84.83 45.7,84.83 
	45.88,84.83 45.88,84.65 45.7,84.47 45.52,84.47 45.34,84.47 45.16,84.47 44.98,84.65 44.8,84.65 44.8,84.47 44.61,84.47 
	44.43,84.65 44.25,84.65 44.25,84.47 44.25,84.29 44.25,84.11 44.43,84.11 44.61,84.11 44.61,83.93 44.61,83.75 44.43,83.75 
	44.43,83.93 44.25,83.93 44.07,83.93 43.89,83.93 43.71,83.93 43.71,83.75 43.53,83.93 43.35,83.75 43.17,83.75 42.99,83.75 
	42.99,83.57 42.81,83.57 42.63,83.57 42.45,83.75 42.27,83.75 42.09,83.57 41.91,83.57 41.91,83.75 41.72,83.75 41.54,83.75 
	41.36,83.75 41.18,83.75 41,83.75 41,83.57 40.82,83.57 40.64,83.57 40.46,83.57 40.28,83.57 40.46,83.75 40.46,83.93 40.28,83.93 
	40.1,83.93 39.92,83.93 39.92,84.11 40.1,84.11 39.92,84.11 39.92,84.29 39.92,84.47 39.92,84.65 39.92,84.83 39.92,85.01 
	39.92,85.19 39.74,85.19 39.74,85.01 39.56,85.01 39.56,84.83 39.38,85.01 39.38,85.19 39.56,85.19 39.56,85.37 39.38,85.37 
	39.38,85.55 39.2,85.55 39.02,85.55 39.02,85.37 39.2,85.37 39.2,85.19 39.02,85.19 38.83,85.19 38.83,85.01 38.65,85.01 
	38.47,85.01 38.47,85.19 38.29,85.19 38.29,85.37 38.47,85.37 38.47,85.55 38.29,85.55 38.29,85.73 38.29,85.55 38.11,85.55 
	38.11,85.37 37.93,85.55 37.75,85.55 37.75,85.73 37.93,85.73 37.93,85.91 37.75,85.91 37.57,85.91 37.39,86.09 37.57,86.09 
	37.57,86.27 37.39,86.27 37.21,86.27 37.21,86.64 37.03,86.64 36.85,86.82 36.67,86.82 36.49,86.82 36.49,87 36.31,87 36.31,87.18 
	36.13,87.18 35.94,87.18 35.76,87.18 35.58,87.18 35.4,87 35.22,87 35.04,87.18 34.86,87.18 34.86,87.36 34.68,87.36 34.5,87.36 
	34.32,87.36 34.14,87.36 33.96,87.36 33.78,87.54 33.6,87.36 33.6,87.18 33.42,87.18 33.42,87 33.6,87 33.6,86.82 33.42,86.82 
	33.42,86.64 33.42,86.45 33.24,86.45 33.06,86.27 33.06,86.09 32.87,86.09 32.69,86.09 32.69,86.27 32.51,86.45 32.51,86.64 
	32.33,86.64 32.33,86.82 32.15,86.82 31.97,86.82 31.79,86.64 31.61,86.64 31.79,86.45 31.79,86.27 31.61,86.27 31.43,86.27 
	31.25,86.09 31.07,86.09 30.89,86.09 30.71,86.09 30.71,85.91 30.71,85.73 30.71,85.55 30.71,85.37 30.53,85.19 30.53,85.01 
	30.35,85.01 30.17,85.01 30.17,85.19 29.98,85.19 29.8,85.19 29.62,85.19 29.44,85.19 29.26,85.19 29.26,85.37 29.26,85.55 
	29.26,85.73 29.08,85.55 28.9,85.55 28.9,85.37 28.9,85.19 28.72,85.37 28.54,85.37 28.36,85.37 28.18,85.37 28.18,85.19 28,85.01 
	27.82,85.01 27.64,85.01 27.46,85.01 27.46,85.19 27.28,85.19 27.09,85.01 27.09,84.83 26.73,84.47 26.55,84.29 26.55,84.47 
	26.37,84.47 26.19,84.47 26.01,84.47 26.01,84.29 26.19,84.11 26.01,84.11 25.83,83.93 25.83,83.75 25.65,83.75 25.47,83.75 
	25.47,83.57 25.29,83.57 25.11,83.57 24.93,83.57 24.75,83.57 24.75,83.75 24.75,83.93 24.75,84.11 24.57,84.11 24.39,84.11 
	24.39,84.29 24.39,84.47 24.57,84.65 24.57,84.83 24.75,84.83 24.75,85.01 24.57,85.01 24.39,85.01 24.2,85.01 24.02,84.83 
	23.84,84.83 23.66,84.83 23.48,84.83 23.3,84.83 23.3,84.65 23.12,84.47 22.94,84.47 22.94,84.29 22.76,84.29 22.76,84.47 
	22.58,84.65 22.4,84.65 22.22,84.65 22.22,84.83 22.04,84.83 21.86,84.83 21.68,84.83 21.68,84.65 21.68,84.47 21.68,84.11 
	21.5,84.11 21.5,83.93 21.32,83.75 21.13,83.75 20.95,83.57 20.59,83.38 20.05,83.2 19.87,83.02 19.69,82.84 19.51,82.84 
	19.33,82.84 19.33,82.66 19.33,82.48 19.15,82.3 19.15,82.12 19.15,81.94 19.15,81.76 19.15,81.58 18.97,81.4 18.79,81.04 
	18.61,80.49 18.61,80.31 18.43,80.13 18.43,79.95 18.24,79.95 18.24,79.77 18.24,79.41 18.06,79.23 18.06,79.05 17.88,78.87 
	17.88,78.69 17.7,78.51 17.7,78.33 17.52,78.15 17.52,77.97 17.7,77.79 17.88,77.6 18.24,77.42 18.43,77.42 18.61,77.24 
	18.97,77.06 19.15,77.06 19.33,76.88 19.51,76.7 19.69,76.7 19.87,76.52 20.05,76.52 20.23,76.34 20.41,76.34 20.59,76.34 
	20.77,76.34 20.77,76.52 20.95,76.7 21.13,76.7 21.32,76.7 21.5,76.7 21.68,76.7 21.86,76.7 21.86,76.52 22.04,76.52 22.22,76.34 
	22.22,76.16 22.22,75.98 22.22,75.8 22.4,75.8 22.58,75.8 22.58,75.62 22.76,75.62 22.94,75.44 23.12,75.44 23.3,75.44 23.48,75.44 
	23.48,75.26 23.48,75.08 23.66,75.08 23.66,74.9 23.84,74.72 23.66,74.72 23.84,74.72 23.84,74.53 24.02,74.53 24.02,74.35 
	24.02,74.17 24.2,74.17 24.2,73.99 24.2,73.81 24.2,73.63 24.2,73.45 24.2,73.27 24.02,73.09 24.02,72.91 24.02,72.73 24.2,72.73 
	24.2,72.55 24.2,72.37 24.39,72.37 24.57,72.37 24.75,72.37 24.93,72.37 25.11,72.19 25.47,72.19 25.47,72.01 25.65,72.01 
	25.83,72.19 26.01,72.19 26.19,72.37 26.37,72.37 26.55,72.37 26.73,72.19 26.91,72.19 26.91,72.01 27.28,72.01 27.46,72.01 
	27.64,72.01 27.82,72.01 27.82,71.83 28,71.83 28.18,71.64 28.18,71.46 28.36,71.46 28.36,71.28 28.54,71.28 28.54,71.46 
	28.72,71.46 28.72,71.28 28.9,71.1 28.9,70.92 29.08,70.92 29.08,70.74 29.26,70.74 29.44,70.56 29.44,70.38 29.44,70.2 29.62,70.2 
	29.62,70.02 29.62,69.84 29.62,69.66 29.8,69.66 29.98,69.66 29.8,69.48 29.8,69.3 29.62,69.12 29.44,69.12 29.44,68.94 
	29.44,69.12 29.26,69.3 29.08,69.3 29.08,69.12 28.9,69.12 28.9,68.94 28.72,68.94 28.54,68.94 28.36,68.94 28.18,69.12 
	28.18,68.94 28.18,68.76 28,68.76 27.82,68.76 27.64,68.76 27.64,68.57 27.46,68.57 27.46,68.39 27.28,68.39 27.09,68.39 
	27.09,68.21 27.09,68.03 27.09,67.85 26.91,67.85 26.91,67.67 26.91,67.49 26.73,67.49 26.73,67.31 26.73,67.13 26.55,67.13 
	26.55,66.95 26.55,66.77 26.55,66.59 26.37,66.59 26.19,66.59 26.19,66.77 26.19,66.59 26.01,66.59 25.83,66.59 25.83,66.41 
	25.65,66.41 25.65,66.23 25.47,66.23 25.29,66.23 25.29,66.05 25.11,66.23 25.11,66.05 24.93,66.05 25.11,66.05 25.11,65.87 
	24.93,65.87 25.11,65.87 24.93,65.87 24.93,65.68 24.93,65.87 24.75,65.87 24.75,65.68 24.75,65.87 24.75,65.68 24.57,65.68 
	24.75,65.5 24.75,65.32 24.57,65.32 24.75,65.32 24.75,65.14 24.57,65.14 24.75,65.14 24.75,64.96 24.75,64.78 24.57,64.78 
	24.57,64.6 24.57,64.78 24.75,64.78 24.75,64.6 24.93,64.6 24.93,64.42 24.93,64.24 25.11,64.24 25.11,64.06 24.93,64.06 
	24.93,63.88 24.75,63.88 24.75,63.7 24.75,63.52 24.57,63.52 24.39,63.52 24.57,63.52 24.57,63.34 24.57,63.16 24.39,63.16 
	24.39,62.98 24.39,62.79 24.57,62.79 24.39,62.79 24.39,62.61 24.39,62.79 24.39,62.61 24.39,62.43 24.39,62.25 24.57,62.07 
	24.39,62.07 24.2,62.07 24.2,61.89 24.02,61.89 23.84,61.89 23.66,61.89 23.66,61.71 23.48,61.71 23.48,61.53 23.48,61.35 
	23.48,61.17 23.48,60.99 23.3,60.99 23.3,60.81 23.3,60.99 23.12,60.99 23.12,60.81 23.12,60.99 22.94,60.99 22.76,61.17 
	22.76,60.99 22.58,60.99 22.58,60.81 22.58,60.99 22.4,60.99 22.4,60.81 22.4,60.99 22.4,60.81 22.22,60.81 22.04,60.81 
	22.04,60.99 21.86,60.99 21.86,60.81 21.68,60.81 21.86,60.99 21.68,60.99 21.68,60.81 21.68,60.99 21.68,60.81 21.5,60.81 
	21.5,60.63 21.32,60.63 21.5,60.63 21.32,60.63 21.13,60.63 21.13,60.45 21.13,60.27 20.95,60.27 20.95,60.09 20.95,59.91 
	20.95,60.09 20.77,60.09 20.59,60.09 20.41,60.09 20.59,60.09 20.41,59.91 20.23,59.91 20.23,59.72 20.05,59.72 20.05,59.54 
	20.05,59.36 20.05,59.54 19.87,59.54 19.87,59.36 19.87,59.54 19.69,59.54 19.69,59.36 19.51,59.36 19.51,59.54 19.51,59.36 
	19.33,59.36 19.33,59.54 19.33,59.36 19.15,59.36 19.15,59.54 18.97,59.54 18.79,59.54 18.79,59.36 18.97,59.36 18.79,59.36 
	18.79,59.54 18.79,59.36 18.61,59.36 18.61,59.18 18.43,59.18 18.24,59.18 18.24,59 18.06,59 18.24,59 18.06,59 18.06,58.82 
	17.88,58.82 17.88,59 17.7,59 17.52,59 17.34,59 17.34,59.18 17.16,59.18 16.98,59.18 17.16,59.18 17.16,59 16.98,59 16.8,59 
	16.62,59 16.44,59 16.44,58.82 16.44,58.64 16.26,58.64 16.26,58.46 16.26,58.28 16.08,58.28 16.08,58.1 15.9,58.1 15.9,58.28 
	15.9,58.1 15.72,58.1 15.54,58.1 15.54,57.92 15.54,57.74 15.72,57.74 15.54,57.74 15.72,57.74 15.72,57.56 15.54,57.56 
	15.72,57.56 15.72,57.38 15.54,57.38 15.54,57.2 15.72,57.2 15.72,57.02 15.54,57.02 15.72,57.02 15.54,57.02 15.54,56.83 
	15.72,56.83 15.72,56.65 15.72,56.47 15.54,56.47 15.72,56.47 15.72,56.29 15.72,56.11 15.54,56.11 15.72,56.11 15.72,55.93 
	15.72,55.75 15.72,55.57 15.72,55.39 15.9,55.21 16.08,55.21 16.26,55.21 16.44,55.21 16.44,55.39 16.44,55.57 16.44,55.39 
	16.62,55.39 16.62,55.57 16.8,55.57 16.98,55.57 16.98,55.75 17.16,55.75 17.16,55.93 17.16,56.11 17.34,56.11 17.16,56.11 
	17.34,56.11 17.34,56.29 17.52,56.29 17.52,56.47 17.52,56.29 17.52,56.47 17.7,56.47 17.52,56.47 17.52,56.65 17.7,56.47 
	17.7,56.65 17.88,56.65 18.06,56.65 18.24,56.47 18.43,56.47 18.61,56.47 18.79,56.29 18.79,55.75 18.97,55.39 18.97,55.21 
	19.15,55.03 19.33,54.85 19.51,54.67 19.69,54.67 19.87,54.49 20.23,54.49 20.41,54.31 20.41,54.13 20.41,53.95 20.59,53.76 
	20.77,53.58 20.77,53.4 20.95,53.4 21.13,53.58 21.13,53.4 21.32,53.4 21.32,53.22 21.5,53.22 21.5,53.04 21.68,52.86 21.68,52.68 
	21.68,52.5 21.68,52.32 21.5,52.14 21.32,52.14 20.41,52.14 18.97,52.32 17.88,52.32 15.9,51.96 14.63,51.78 14.09,51.42 
	13.91,51.24 13.91,51.06 13.91,50.87 14.09,50.69 14.09,50.51 14.45,50.33 14.63,50.15 14.81,49.97 14.99,49.97 15.35,50.15 
	15.72,50.33 16.26,50.33 16.8,50.33 17.52,50.33 18.06,50.51 18.43,50.87 18.97,50.87 19.69,51.24 20.05,51.24 20.59,51.06 
	20.59,51.24 20.77,51.24 20.77,51.06 20.95,51.06 20.95,50.87 20.77,50.87 20.77,50.69 20.95,50.69 20.95,50.51 20.95,50.33 
	20.77,50.33 20.77,50.15 20.59,50.15 20.59,49.97 20.59,49.79 20.41,49.79 20.41,49.61 20.41,49.43 20.41,49.61 20.41,49.43 
	20.41,49.25 20.41,49.07 20.41,48.89 20.41,48.71 20.59,48.71 20.59,48.53 20.59,48.35 20.59,48.17 20.41,48.17 20.41,47.98 
	20.41,47.8 20.41,47.62 20.23,47.62 20.23,47.44 20.23,47.26 20.23,47.08 20.23,46.9 20.41,46.9 20.41,46.72 20.59,46.72 
	20.59,46.54 20.59,46.36 20.77,46.36 20.77,46.18 20.95,46.18 20.95,46 20.95,45.82 20.95,45.64 20.95,45.46 20.77,45.64 
	20.59,45.64 20.59,45.82 20.59,45.64 20.59,45.82 20.41,45.82 20.41,46 20.41,45.82 20.41,46 20.23,46 20.05,46 19.87,46 19.69,46 
	19.69,46.18 19.87,46.18 19.69,46.18 19.69,46.36 19.51,46.36 19.33,46.36 19.33,46.18 19.15,46.18 19.15,46 19.15,46.18 19.15,46 
	18.97,46 18.97,45.82 18.79,45.82 18.97,45.82 18.97,45.64 18.79,45.64 18.79,45.46 18.61,45.46 18.61,45.28 18.61,45.46 
	18.79,45.46 18.79,45.28 18.61,45.28 18.61,45.1 18.43,45.1 18.43,45.28 18.43,45.1 18.43,45.28 18.43,45.1 18.24,45.1 18.06,45.1 
	17.88,45.1 17.7,45.1 17.52,45.1 17.34,44.91 17.34,44.73 17.16,44.55 17.16,44.37 16.98,44.19 16.98,44.01 16.8,43.83 16.8,43.65 
	16.8,43.47 16.8,43.29 16.62,43.29 16.44,43.11 16.26,43.11 15.72,43.29 15.54,43.29 15.35,43.29 15.35,43.11 15.54,42.93 
	15.54,42.75 15.54,42.57 15.54,42.39 14.99,42.02 14.63,42.02 14.63,41.84 14.45,41.84 14.27,41.66 13.91,41.48 13.73,41.3 
	13.55,40.94 13.55,40.76 13.55,40.58 13.37,40.4 13.37,40.22 13.19,40.22 13.01,40.04 13.01,39.86 13.01,39.68 13.01,39.5 
	13.01,39.32 13.01,39.14 13.01,38.95 13.01,38.77 13.19,38.77 13.19,38.59 13.37,38.59 13.37,38.41 13.37,38.23 13.55,38.23 
	13.55,38.05 13.55,37.87 13.55,37.69 13.73,37.69 13.91,37.69 14.09,37.69 14.27,37.69 14.45,37.69 14.63,37.69 14.81,37.69 
	14.99,37.51 15.17,37.51 15.35,37.51 15.54,37.51 15.54,37.33 15.72,37.33 15.9,37.15 15.9,36.97 16.08,36.97 16.08,36.79 
	16.08,36.43 15.9,36.43 15.9,36.25 15.9,36.06 15.72,36.06 15.72,35.88 15.54,35.52 15.35,35.34 15.35,35.16 15.17,34.98 
	15.17,34.8 15.17,34.62 15.35,34.62 15.35,34.44 15.54,34.44 15.72,34.26 15.72,34.08 15.72,33.9 15.72,33.72 15.72,33.54 
	15.72,33.36 15.54,33.36 15.35,33.17 15.35,32.99 15.17,32.99 15.17,32.81 15.17,32.63 14.99,32.63 14.99,32.45 14.81,32.45 
	14.81,32.27 14.63,32.27 14.45,32.27 14.45,32.09 14.27,31.91 14.09,31.91 14.09,31.73 13.91,31.55 13.73,31.37 13.55,31.37 
	13.37,31.19 13.19,30.83 13.01,30.65 12.83,30.65 12.83,30.47 12.65,30.47 12.65,30.29 12.65,30.11 12.46,30.11 12.28,29.92 
	12.1,29.74 11.92,29.56 11.92,29.38 12.1,29.2 12.1,29.02 12.28,29.02 12.28,28.84 12.46,28.84 12.65,28.84 12.83,28.66 
	13.01,28.66 13.01,28.48 13.01,28.3 12.83,28.3 13.01,28.12 13.01,27.94 13.01,27.76 13.01,27.94 12.83,27.94 12.65,27.94 
	12.65,27.76 12.65,27.94 12.46,27.94 12.46,27.76 12.46,27.58 12.28,27.58 12.46,27.58 12.28,27.58 12.28,27.4 12.46,27.4 
	12.28,27.4 12.28,27.22 12.46,27.22 12.46,27.03 12.28,27.03 12.28,26.85 12.28,27.03 12.1,27.03 12.28,27.03 12.28,26.85 
	12.1,26.85 12.28,26.85 12.28,26.67 12.28,26.49 12.46,26.49 12.46,26.31 12.28,26.31 12.46,26.31 12.46,26.13 12.46,25.95 
	12.46,26.13 12.28,26.13 12.46,25.95 12.28,25.95 12.28,25.77 12.46,25.77 12.46,25.59 12.65,25.59 12.65,25.77 12.65,25.59 
	12.65,25.41 12.83,25.41 13.01,25.23 12.83,25.23 12.83,25.05 12.83,24.87 12.83,24.69 12.83,24.51 13.01,24.51 13.19,24.51 
	13.19,24.33 13.37,24.33 13.37,24.51 13.55,24.51 13.55,24.69 13.73,24.69 13.73,24.51 13.91,24.51 14.09,24.51 14.27,24.51 
	14.45,24.51 14.45,24.69 14.63,24.69 14.81,24.69 14.99,24.69 15.17,24.69 15.35,24.69 15.54,24.69 15.72,24.69 15.72,24.51 
	15.9,24.51 16.08,24.51 16.26,24.51 16.44,24.51 16.62,24.51 16.8,24.51 16.98,24.51 17.16,24.51 17.34,24.69 17.52,24.69 
	17.7,24.69 17.7,24.87 17.88,24.87 18.06,24.87 18.24,24.87 18.43,24.87 18.61,25.05 18.61,25.23 18.79,25.41 18.97,25.41 
	19.15,25.41 19.33,25.23 19.51,25.23 19.69,25.23 19.69,25.05 19.87,25.05 20.05,24.87 20.23,24.87 20.23,24.69 20.59,24.69 
	20.77,24.51 20.95,24.51 21.13,24.51 21.5,24.33 21.68,24.33 21.86,24.33 22.04,24.14 22.22,24.14 22.4,24.14 22.58,23.96 
	22.76,23.78 22.94,23.78 22.94,23.6 23.12,23.6 23.12,23.42 23.3,23.24 23.48,23.06 23.66,22.88 24.02,22.88 24.2,22.7 24.2,22.52 
	24.39,22.52 24.57,22.34 24.57,22.16 24.57,21.98 24.75,21.98 24.93,21.98 25.11,21.8 25.29,21.8 25.29,21.62 25.47,21.62 
	25.65,21.44 25.83,21.44 26.01,21.44 26.19,21.44 26.37,21.44 26.55,21.26 26.73,21.07 26.91,20.89 26.73,20.89 26.73,20.71 
	26.73,20.35 26.73,20.17 26.55,20.17 26.55,19.99 26.37,19.99 26.37,19.81 26.37,19.63 26.37,19.45 26.37,19.27 26.37,19.09 
	26.55,19.09 26.73,19.09 26.91,19.09 27.09,19.09 27.28,19.09 27.28,18.91 27.28,18.73 27.28,18.55 27.28,18.37 27.28,18.18 
	27.46,18.18 27.46,18 27.64,18 27.64,17.82 27.64,17.64 27.64,17.46 27.64,17.28 27.64,17.1 27.64,16.92 27.64,16.74 27.64,16.56 
	27.46,16.56 27.46,16.38 27.28,16.2 27.28,16.02 27.09,15.66 27.09,15.48 27.09,15.3 27.28,15.11 27.28,14.93 27.28,14.75 
	27.28,14.57 27.28,14.21 27.28,14.03 27.09,13.67 26.91,13.67 26.37,13.13 26.19,13.13 26.01,13.13 25.83,12.95 25.65,12.77 
	25.65,12.59 25.65,12.41 25.47,12.22 25.29,12.04 25.11,11.86 25.11,11.68 25.11,11.5 25.11,11.32 25.11,11.14 25.29,11.14 
	25.29,10.96 25.11,10.96 25.11,10.78 25.11,10.6 25.11,10.42 24.93,10.42 24.93,10.24 24.75,10.06 24.57,9.88 24.57,9.7 24.57,9.52 
	24.57,9.33 24.39,9.33 24.39,8.97 24.2,8.79 24.2,8.61 24.02,8.43 23.84,8.25 23.66,8.25 23.66,8.07 23.48,8.07 23.3,8.07 
	23.3,7.89 23.12,7.89 23.12,7.71 22.94,7.71 22.94,7.53 22.76,7.35 22.76,7.17 22.76,6.99 22.58,6.99 22.58,6.81 22.4,6.63 
	22.22,6.63 22.22,6.45 22.04,6.45 21.86,6.08 21.86,5.9 21.86,5.72 22.22,5.72 22.22,5.54 22.4,5.54 22.58,5.54 22.58,5.36 
	22.58,5.18 22.76,5.18 22.76,5 22.94,5 23.12,5 23.12,4.82 23.3,4.82 23.3,4.64 23.48,4.64 23.66,4.64 23.84,4.64 23.84,4.46 
	24.02,4.46 24.02,4.64 24.02,4.82 24.02,5 24.2,5 24.39,5 24.39,5.18 24.57,5.36 24.75,5.36 24.75,5.54 24.93,5.54 25.11,5.54 
	25.11,5.72 25.11,5.54 25.29,5.54 25.29,5.72 25.29,5.9 25.47,5.9 25.65,5.9 25.83,5.9 26.01,5.72 26.19,5.72 26.37,5.72 
	26.55,5.72 26.55,5.54 26.55,5.36 26.73,5.36 26.55,5.36 26.55,5.18 26.73,5.18 26.91,5.18 26.91,5 26.73,5 26.91,4.82 26.73,4.82 
	26.91,4.82 26.91,4.64 26.73,4.64 26.73,4.46 26.91,4.46 27.09,4.46 27.09,4.28 27.28,4.28 27.46,4.28 27.46,4.1 27.46,3.92 
	27.46,3.74 27.64,3.74 27.64,3.56 27.64,3.37 27.82,3.37 27.82,3.19 28,3.19 28,3.01 28,2.83 28.18,2.83 28.36,2.83 28.36,2.65 
	28.54,2.65 28.72,2.65 28.9,2.65 28.9,2.47 29.08,2.47 29.08,2.29 29.26,2.29 29.26,2.47 29.44,2.47 29.62,2.47 29.8,2.47 
	29.98,2.47 29.98,2.65 30.17,2.65 30.35,2.65 30.53,2.65 30.71,2.65 30.71,2.83 30.71,2.65 30.89,2.83 30.89,2.65 31.07,2.65 
	31.07,2.47 31.25,2.47 31.25,2.29 31.25,2.11 31.43,2.11 31.61,2.11 31.79,2.11 31.97,2.11 32.15,2.29 32.33,2.29 32.69,2.29 
	32.87,2.47 33.06,2.47 33.42,2.47 33.6,2.65 33.78,2.65 34.14,2.83 34.5,2.83 34.68,2.83 35.04,3.01 35.22,2.83 35.58,2.83 
	35.94,2.83 36.13,2.83 36.31,2.83 36.49,2.65 36.67,2.65 36.85,2.65 37.21,2.47 37.39,2.29 37.57,2.29 37.93,2.29 38.11,2.29 
	38.29,2.29 38.47,2.29 38.65,2.29 38.83,2.11 39.02,2.11 39.2,1.93 39.56,1.75 39.74,1.75 39.92,1.75 40.46,1.57 40.64,1.57 
	40.82,1.57 41.54,1.39 41.91,1.39 42.27,1.39 42.45,1.39 43.17,1.39 43.35,1.39 43.53,1.39 43.71,1.39 44.25,1.21 44.61,1.03 
	45.52,0.85 45.52,1.03 45.52,1.39 45.52,1.57 45.52,1.75 45.52,1.93 45.52,2.11 45.52,2.29 45.7,2.65 45.7,2.83 45.7,3.19 
	45.7,3.56 45.7,3.92 45.7,4.1 45.7,4.46 45.88,4.64 45.88,5 46.06,5.18 46.06,5.36 46.06,5.54 46.06,5.72 46.06,5.9 46.24,6.08 
	46.24,6.26 46.24,6.63 46.24,6.99 46.24,7.17 46.24,7.35 46.24,7.53 46.42,7.53 46.42,7.71 46.42,7.89 46.42,8.25 46.42,8.43 
	46.42,8.79 46.42,8.97 46.42,9.15 46.42,9.33 46.42,9.52 46.42,9.7 46.6,9.88 46.6,10.24 46.78,10.42 46.78,10.6 46.96,10.78 
	47.14,10.96 47.14,11.14 47.32,11.32 47.14,11.5 47.32,12.04 47.32,12.22 47.32,12.41 47.32,12.77 47.32,12.95 47.32,13.13 
	47.14,13.31 47.14,13.49 47.14,13.67 47.14,14.03 47.14,14.21 47.32,14.57 47.5,14.75 47.68,14.93 47.87,15.11 48.05,15.3 
	48.23,15.48 48.41,15.84 48.59,16.2 48.77,16.38 48.77,16.56 48.95,16.74 49.13,16.92 49.13,17.1 49.31,17.1 49.31,17.28 
	49.49,17.46 49.85,17.82 50.03,18 50.39,18.55 50.39,18.73 50.39,18.91 50.57,18.91 50.57,19.09 50.57,19.27 50.76,19.27 
	50.76,19.45 50.94,19.63 51.12,19.81 51.12,20.17 51.3,20.35 51.48,20.89 51.48,21.26 51.66,21.44 51.66,21.62 51.84,21.8 
	51.84,22.16 52.02,22.52 52.02,22.7 52.2,22.88 52.2,23.06 52.38,23.24 52.38,23.42 52.38,23.78 52.38,23.96 52.56,24.14 
	52.56,24.33 52.74,24.51 52.74,24.87 52.92,25.05 52.92,25.23 52.92,25.41 53.1,25.59 53.1,25.77 53.28,25.95 53.28,26.13 
	53.28,26.31 53.46,26.49 53.46,26.67 53.64,27.03 53.64,27.22 53.83,27.58 53.83,27.76 53.83,27.94 54.01,28.12 54.01,28.3 
	54.19,28.48 54.19,28.66 54.37,29.02 54.55,29.02 54.55,29.38 54.73,29.56 54.73,29.74 54.91,29.92 55.09,30.11 55.09,30.29 
	55.27,30.47 55.45,30.65 55.45,30.83 55.63,31.01 55.81,31.19 55.81,31.37 55.81,31.55 55.99,31.73 56.17,32.09 56.35,32.27 
	56.53,32.63 56.53,32.81 56.9,33.17 56.9,33.36 57.08,33.54 57.26,33.72 57.26,33.9 57.44,34.26 57.44,34.44 57.44,34.8 
	57.62,34.98 57.62,35.16 57.8,35.34 57.98,35.7 57.98,35.88 58.16,36.06 58.16,36.43 58.16,36.79 58.34,36.97 58.34,37.15 
	58.52,37.51 58.52,37.69 58.52,37.87 58.7,38.23 58.7,38.77 58.52,39.5 58.52,39.68 58.52,39.86 58.52,40.22 58.52,40.4 
	58.52,40.58 58.52,40.76 58.52,41.3 58.52,41.48 58.52,41.66 58.52,41.84 58.52,42.02 58.52,42.21 58.34,42.39 58.52,42.39 
	58.7,42.39 58.88,42.39 59.24,42.39 59.42,42.57 59.6,42.57 59.79,42.57 60.15,42.57 60.33,42.39 60.51,42.39 60.69,42.21 
	61.05,42.21 61.23,42.21 61.41,42.21 61.59,42.21 61.59,42.02 61.77,42.02 61.95,42.02 62.13,42.02 62.31,42.02 62.49,42.02 
	62.68,42.02 62.68,42.21 62.86,42.21 63.04,42.21 63.22,42.21 63.4,42.21 63.58,42.02 63.76,42.02 63.94,42.02 64.12,42.02 
	64.3,42.02 64.48,42.02 64.66,41.84 64.84,41.84 65.02,41.84 65.02,41.66 65.2,41.48 66.29,41.66 66.65,41.66 67.37,42.39 69,42.57 
	69.36,42.75 70.62,43.11 70.98,43.29 71.34,43.47 72.07,43.47 72.25,43.47 72.25,43.65 72.43,43.65 72.61,43.47 72.79,43.47 
	72.79,43.29 72.97,43.29 72.97,43.11 73.69,43.47 73.87,43.47 73.87,43.65 74.05,43.83 74.05,44.01 74.23,44.01 74.23,44.19 
	74.05,44.19 74.05,44.37 73.87,44.37 73.87,44.55 73.87,44.73 73.87,44.55 73.87,44.73 73.87,44.91 73.87,45.1 73.87,45.28 
	73.69,45.28 73.69,45.46 73.69,45.64 73.69,45.46 73.51,45.46 73.51,45.64 73.69,45.64 73.51,45.64 73.33,45.64 73.33,45.82 
	73.33,46 73.33,46.18 73.33,46.36 73.15,46.36 72.97,46.54 72.79,46.54 72.79,46.72 72.97,46.72 72.79,46.72 72.79,46.9 
	72.79,47.08 72.61,47.08 72.61,47.26 72.43,47.26 72.25,47.26 72.25,47.44 72.07,47.44 72.07,47.62 71.89,47.62 71.71,47.62 
	71.71,47.44 71.53,47.44 71.34,47.62 71.16,47.62 70.98,47.62 70.98,47.8 70.8,47.8 70.62,47.98 70.44,47.98 69.72,48.17 
	69.18,48.71 68.82,48.89 68.27,49.25 67.73,49.61 67.55,49.79 66.11,49.97 65.02,49.97 63.58,50.15 63.4,50.33 63.22,50.33 
	63.04,50.33 62.86,50.51 62.68,50.51 62.49,50.69 62.13,50.69 61.95,50.69 61.95,50.87 62.13,51.06 62.13,51.24 62.31,51.42 
	62.49,51.6 62.49,51.78 62.68,52.14 62.68,52.32 62.86,52.5 62.86,52.68 63.04,52.86 63.04,53.04 63.04,53.22 63.22,53.4 
	63.4,53.58 63.76,54.13 63.94,54.31 63.94,54.49 64.3,54.85 64.3,55.03 64.3,55.21 64.48,55.21 64.66,55.21 64.66,55.39 
	64.84,55.57 65.02,55.75 65.02,56.11 65.2,56.29 65.2,56.47 65.38,56.65 65.38,56.83 65.38,57.02 65.57,57.2 65.57,57.38 
	65.57,57.56 65.75,57.74 65.75,57.92 65.75,58.1 65.93,58.28 65.93,58.46 65.93,58.64 65.93,58.82 66.11,59 66.11,59.18 
	66.11,59.36 66.29,59.54 66.29,59.72 66.47,60.09 66.47,60.27 66.47,60.45 66.65,60.45 66.65,60.63 66.83,60.63 66.83,60.81 
	66.83,60.99 67.01,61.17 67.01,61.35 67.01,61.53 67.19,61.71 67.19,61.89 67.37,62.07 67.55,62.25 67.73,62.43 67.73,62.61 
	67.91,62.79 68.09,62.98 68.27,63.16 68.46,63.52 68.46,63.7 68.64,63.88 68.82,64.06 69,64.24 69,64.42 69.18,64.6 69.36,64.78 
	69.54,64.78 69.72,64.96 69.72,65.14 69.9,65.32 70.26,65.5 70.44,65.68 70.62,65.68 70.62,65.87 70.8,66.05 71.71,66.41 
	71.71,66.59 71.89,66.77 72.07,66.95 72.43,67.13 72.61,67.31 72.97,67.49 73.15,67.49 73.51,67.85 75.32,68.57 75.5,68.57 
	75.68,68.76 75.86,68.76 76.04,68.94 76.22,68.94 76.4,69.12 76.58,69.12 76.76,69.3 76.94,69.48 77.12,69.66 77.31,69.66 
	77.49,69.84 77.67,69.84 77.85,70.02 78.21,70.38 78.39,70.38 78.39,70.56 78.57,70.56 78.75,70.74 79.11,70.92 79.65,71.46 
	80.01,71.46 80.01,71.64 80.2,71.64 80.38,71.64 80.56,71.83 80.74,71.83 80.92,71.83 81.28,72.01 81.46,72.01 81.64,72.01 
	81.82,72.01 82,72.19 82.18,72.19 "/>
</svg>
