<?xml version="1.0" encoding="utf-8"?>
<!-- Generator: Adobe Illustrator 24.2.1, SVG Export Plug-In . SVG Version: 6.00 Build 0)  -->
<svg version="1.1" id="Layer_1" xmlns="http://www.w3.org/2000/svg" xmlns:xlink="http://www.w3.org/1999/xlink" x="0px" y="0px"
	 viewBox="0 0 97.23 97.23" style="enable-background:new 0 0 97.23 97.23;" xml:space="preserve">
<style type="text/css">
	.st0{fill-rule:evenodd;clip-rule:evenodd;}
</style>
<polygon class="st0" points="93.85,13.57 93.7,13.72 93.7,14.03 93.7,14.18 93.7,14.34 93.7,14.49 93.7,14.64 93.54,14.64 
	93.54,14.8 93.39,14.95 93.24,14.95 93.24,15.1 93.08,15.26 93.24,15.41 93.24,15.56 93.08,15.56 93.08,15.71 93.08,15.87 
	92.93,16.02 93.08,16.17 93.08,16.33 93.24,16.48 93.24,16.63 93.24,16.79 93.08,16.79 93.08,16.94 92.93,17.09 92.78,17.09 
	92.62,17.25 92.62,17.4 92.62,17.55 92.62,17.7 92.47,17.86 92.47,18.01 92.47,18.16 92.32,18.32 92.17,18.32 92.01,18.47 
	91.86,18.47 91.86,18.62 91.71,18.78 91.71,18.93 91.55,19.08 91.4,19.08 91.25,19.08 91.09,19.24 91.09,19.39 90.94,19.39 
	90.79,19.54 90.63,19.54 90.63,19.69 90.63,19.85 90.48,19.85 90.48,20 90.33,20 90.33,19.85 90.18,19.85 90.18,19.69 90.02,19.85 
	89.72,19.85 89.56,20 89.41,20.15 89.26,20.31 89.26,20.46 89.26,20.61 89.26,20.77 89.41,20.77 89.41,20.92 89.41,21.07 
	89.41,21.23 89.41,21.38 89.26,21.38 88.95,21.68 88.8,21.84 88.64,21.84 88.49,21.99 88.34,21.99 88.18,22.14 87.73,22.6 
	87.57,22.76 87.42,22.76 87.27,22.76 86.96,22.6 86.81,22.6 86.65,22.76 86.5,22.76 86.35,22.76 86.2,22.76 86.2,22.91 86.04,22.91 
	85.89,22.91 85.89,23.06 85.74,23.06 85.58,23.06 85.58,23.22 85.43,23.22 85.43,23.37 85.28,23.37 85.28,23.52 85.43,23.52 
	85.43,23.67 85.28,23.67 85.28,23.83 85.43,23.98 85.28,23.98 85.43,23.98 85.28,23.98 85.28,24.13 85.28,24.29 85.43,24.29 
	85.28,24.29 85.43,24.29 85.43,24.44 85.28,24.44 85.43,24.44 85.28,24.44 85.28,24.59 85.28,24.75 85.12,24.9 85.12,25.05 
	85.12,25.21 84.97,25.21 85.12,25.21 85.12,25.36 85.12,25.51 85.28,25.51 85.12,25.51 85.12,25.66 85.12,25.82 84.97,25.82 
	84.82,25.82 84.82,25.97 84.66,25.97 84.51,25.97 84.36,25.97 84.36,26.12 84.51,26.12 84.36,26.28 84.36,26.43 84.36,26.58 
	84.2,26.58 84.2,26.74 84.36,26.74 84.36,26.89 84.2,26.89 84.05,26.89 84.05,27.04 84.05,27.2 83.9,27.2 83.9,27.35 83.75,27.35 
	83.75,27.5 83.59,27.5 83.59,27.65 83.75,27.65 83.75,27.81 83.75,27.96 83.59,27.96 83.44,27.96 83.44,28.11 83.59,28.11 
	83.44,28.11 83.29,28.11 83.29,28.27 83.13,28.27 83.13,28.42 82.98,28.42 82.98,28.57 82.83,28.57 82.98,28.57 82.98,28.73 
	82.83,28.73 82.83,28.57 82.83,28.73 82.67,28.73 82.67,28.88 82.52,28.88 82.37,28.88 82.22,28.88 82.37,28.88 82.22,28.88 
	82.06,28.88 82.06,28.73 81.91,28.73 81.91,28.57 81.91,28.42 81.91,28.27 81.76,28.27 81.76,28.42 81.6,28.42 81.45,28.57 
	81.45,28.73 81.3,28.73 81.3,28.88 81.45,28.88 81.45,28.73 81.45,28.88 81.3,28.88 81.14,28.88 81.14,29.03 80.99,29.03 
	80.99,29.19 81.14,29.19 80.99,29.19 80.99,29.34 81.14,29.34 80.99,29.34 81.14,29.34 81.14,29.49 80.99,29.49 80.99,29.64 
	80.99,29.49 80.84,29.49 80.84,29.64 80.68,29.64 80.84,29.64 80.68,29.64 80.53,29.8 80.38,29.8 80.22,29.8 80.22,29.95 
	80.22,29.8 80.07,29.8 79.92,29.64 79.92,29.8 79.77,29.8 79.61,29.8 79.61,29.64 79.46,29.64 79.46,29.8 79.31,29.8 79.31,29.64 
	79.31,29.8 79.15,29.8 79.15,29.95 79,29.95 78.85,29.95 78.85,30.1 78.69,30.1 78.54,30.1 78.54,30.26 78.39,30.26 78.23,30.26 
	78.23,30.41 78.23,30.56 78.23,30.72 78.23,30.87 78.23,31.02 78.08,31.02 78.08,31.17 78.08,31.33 77.93,31.33 77.78,31.33 
	77.62,31.33 77.62,31.48 77.62,31.33 77.47,31.33 77.47,31.48 77.62,31.48 77.47,31.48 77.32,31.48 77.16,31.63 77.32,31.63 
	77.32,31.79 77.32,31.94 77.32,32.09 77.16,32.09 77.32,32.09 77.32,32.25 77.16,32.25 77.16,32.4 77.01,32.4 77.01,32.55 
	77.01,32.71 77.01,32.55 76.86,32.55 76.86,32.71 76.86,32.55 76.86,32.71 76.7,32.71 76.7,32.86 76.55,32.86 76.4,32.86 
	76.4,33.01 76.24,33.01 76.09,33.01 76.09,33.17 75.94,33.17 75.94,33.32 75.79,33.32 75.79,33.17 75.63,33.17 75.48,33.17 
	75.48,33.01 75.33,33.01 75.17,33.01 75.02,33.01 74.87,33.01 74.87,33.17 74.71,33.17 74.71,33.01 74.56,33.01 74.41,33.01 
	74.41,32.86 74.25,32.86 74.1,32.86 73.95,33.01 73.95,33.17 73.8,33.17 73.95,33.17 73.8,33.17 73.8,33.32 73.64,33.32 73.8,33.32 
	73.8,33.47 73.64,33.47 73.64,33.62 73.49,33.62 73.34,33.62 73.34,33.78 73.34,33.93 73.34,34.08 73.18,34.08 73.34,34.08 
	73.18,34.08 73.18,34.24 73.18,34.39 73.34,34.39 73.34,34.54 73.18,34.54 73.18,34.7 73.03,34.7 73.03,34.54 73.03,34.7 
	72.88,34.7 72.88,34.54 72.88,34.7 72.88,34.54 72.88,34.7 72.72,34.7 72.72,34.85 72.72,35 72.72,35.16 72.88,35.16 72.88,35.31 
	72.88,35.46 72.72,35.61 72.72,35.77 72.57,35.77 72.57,35.92 72.57,36.07 72.42,36.23 72.42,36.38 72.26,36.53 72.26,36.69 
	72.42,36.69 72.26,36.69 72.42,36.69 72.42,36.84 72.57,36.84 72.57,36.99 72.57,37.15 72.57,37.3 72.57,37.45 72.57,37.6 
	72.57,37.76 72.57,37.91 72.57,38.06 72.72,38.06 72.72,38.22 72.88,38.22 72.88,38.37 72.88,38.52 72.88,38.68 72.88,38.83 
	73.03,38.83 73.03,38.68 73.03,38.83 73.18,38.83 73.18,38.98 73.34,38.98 73.49,38.98 73.49,39.14 73.64,39.14 73.64,39.29 
	73.49,39.29 73.64,39.29 73.49,39.29 73.64,39.29 73.64,39.44 73.8,39.44 73.95,39.44 73.8,39.44 73.8,39.59 73.95,39.59 
	73.8,39.59 73.95,39.59 73.95,39.75 73.8,39.75 73.95,39.75 73.95,39.9 73.95,40.05 73.95,40.21 73.95,40.36 73.8,40.36 73.8,40.51 
	73.8,40.36 73.8,40.51 73.8,40.36 73.64,40.51 73.64,40.67 73.64,40.82 73.8,40.82 73.8,40.97 73.8,41.13 73.8,41.28 73.8,41.43 
	73.64,41.43 73.64,41.58 73.8,41.58 73.8,41.74 73.64,41.74 73.64,41.89 73.49,41.89 73.64,41.89 73.49,41.89 73.49,42.04 
	73.49,42.2 73.34,42.2 73.34,42.35 73.34,42.5 73.18,42.5 73.03,42.5 73.03,42.66 73.18,42.66 73.03,42.66 73.03,42.81 73.03,42.96 
	73.18,42.96 73.18,43.12 73.18,42.96 73.18,43.12 73.18,43.27 73.34,43.27 73.34,43.42 73.18,43.42 73.34,43.42 73.34,43.27 
	73.34,43.42 73.49,43.42 73.49,43.57 73.49,43.73 73.49,43.88 73.34,43.88 73.49,43.88 73.49,44.03 73.49,44.19 73.34,44.19 
	73.34,44.03 73.18,44.03 73.18,44.19 73.34,44.19 73.34,44.03 73.34,44.19 73.34,44.34 73.18,44.34 73.18,44.49 73.18,44.65 
	73.03,44.8 72.88,44.8 72.72,44.8 72.72,44.95 72.88,44.95 72.72,44.95 72.57,44.95 72.57,45.11 72.42,45.11 72.42,45.26 
	72.42,45.11 72.42,45.26 72.26,45.26 72.11,45.26 71.96,45.11 71.81,45.11 71.65,45.11 71.5,45.11 71.5,45.26 71.35,45.26 
	71.35,45.11 71.35,45.26 71.35,45.11 71.19,45.11 71.35,45.11 71.35,44.95 71.19,44.95 71.19,44.8 71.04,44.8 71.04,44.95 
	70.89,44.95 70.89,44.8 70.89,44.95 70.73,44.95 70.73,44.8 70.58,44.8 70.58,44.65 70.43,44.65 70.43,44.8 70.43,44.95 
	70.27,44.95 70.27,44.8 70.12,44.8 69.97,44.8 69.97,44.65 69.82,44.65 69.82,44.8 69.82,44.65 69.66,44.65 69.66,44.49 
	69.66,44.34 69.51,44.34 69.51,44.49 69.51,44.65 69.51,44.49 69.36,44.49 69.2,44.49 69.2,44.65 69.2,44.8 69.05,44.65 68.9,44.65 
	68.74,44.65 68.74,44.49 68.59,44.49 68.59,44.65 68.44,44.65 68.44,44.8 68.28,44.8 68.13,44.8 67.98,44.8 67.82,44.8 67.67,44.8 
	67.52,44.8 67.37,44.8 67.21,44.8 67.21,44.95 67.06,44.95 66.91,44.95 66.75,44.95 66.75,44.8 66.6,44.8 66.6,44.95 66.75,44.95 
	66.75,45.11 66.75,45.26 66.6,45.26 66.6,45.41 66.45,45.56 66.45,45.41 66.29,45.41 66.29,45.56 66.14,45.56 65.99,45.41 
	65.99,45.56 65.99,45.72 66.14,45.72 66.14,45.87 66.14,46.02 66.14,46.18 65.99,46.18 65.83,46.18 65.83,46.33 65.83,46.48 
	65.68,46.48 65.53,46.64 65.68,46.64 65.68,46.79 65.53,46.79 65.53,46.94 65.68,46.94 65.53,46.94 65.38,46.94 65.38,47.1 
	65.22,47.1 65.22,47.25 65.38,47.25 65.38,47.4 65.38,47.55 65.38,47.71 65.53,47.71 65.53,47.86 65.68,48.01 65.68,47.86 
	65.83,47.86 65.68,47.71 65.83,47.71 65.83,47.55 65.99,47.55 65.99,47.71 66.14,47.71 66.14,47.55 65.99,47.55 65.99,47.4 
	66.14,47.4 66.29,47.4 66.29,47.25 66.29,47.1 66.45,47.1 66.45,46.94 66.6,46.94 66.6,47.1 66.75,47.25 66.91,47.25 66.91,47.4 
	66.75,47.4 66.75,47.55 66.91,47.55 66.91,47.71 66.91,47.86 66.91,48.01 67.06,48.01 67.21,48.01 67.21,48.17 67.06,48.17 
	67.06,48.32 67.21,48.32 67.21,48.47 67.21,48.63 67.21,48.78 67.37,48.78 67.37,48.63 67.52,48.63 67.52,48.78 67.37,48.78 
	67.37,48.93 67.21,48.93 67.21,49.09 67.21,49.24 67.37,49.24 67.37,49.39 67.21,49.39 67.21,49.54 67.21,49.7 67.21,49.85 
	67.06,49.85 66.91,49.85 66.91,50 66.91,50.16 66.75,50.16 66.75,50.31 66.6,50.31 66.75,50.46 66.75,50.62 66.91,50.62 
	66.75,50.62 66.75,50.77 66.6,50.77 66.45,50.92 66.45,51.08 66.45,51.23 66.45,51.38 66.29,51.38 66.14,51.38 65.99,51.38 
	65.83,51.38 65.68,51.38 65.68,51.53 65.83,51.69 65.99,51.69 65.99,51.84 66.14,51.84 65.99,51.99 65.99,52.15 65.83,52.15 
	65.83,52.3 65.83,52.45 65.83,52.61 65.83,52.76 65.68,52.91 65.68,53.07 65.83,53.07 65.83,53.22 65.99,53.22 65.99,53.07 
	66.14,53.07 66.29,53.07 66.29,53.22 66.14,53.22 65.99,53.22 65.99,53.37 65.83,53.37 65.83,53.52 65.68,53.52 65.68,53.68 
	65.83,53.68 65.99,53.68 66.14,53.68 66.14,53.83 66.29,53.83 66.29,53.98 66.45,53.98 66.45,54.14 66.29,54.14 66.29,54.29 
	66.45,54.29 66.6,54.29 66.91,54.44 67.06,54.44 67.21,54.6 67.21,54.75 67.06,54.75 67.06,54.6 66.91,54.75 66.75,54.75 
	66.6,54.75 66.6,54.9 66.45,54.9 66.45,55.06 66.6,55.06 66.75,55.06 66.75,55.21 66.91,55.21 67.06,55.21 67.21,55.21 67.21,55.06 
	67.37,55.06 67.37,54.9 67.52,54.9 67.52,55.06 67.67,55.06 67.67,55.21 67.67,55.36 67.52,55.36 67.52,55.21 67.37,55.36 
	67.21,55.36 67.06,55.36 66.91,55.36 66.91,55.51 66.75,55.51 66.6,55.51 66.45,55.51 66.29,55.36 66.14,55.36 66.14,55.51 
	66.29,55.67 66.45,55.67 66.6,55.82 66.75,55.97 66.75,55.82 66.91,55.82 67.06,55.82 67.06,55.97 67.06,56.13 66.91,56.13 
	66.91,56.28 66.75,56.28 66.75,56.43 66.91,56.59 66.91,56.74 66.75,56.74 66.6,56.74 66.6,56.89 66.45,56.89 66.29,56.89 
	66.29,57.05 66.14,57.05 66.14,57.2 66.29,57.2 66.29,57.35 66.29,57.5 66.29,57.66 66.45,57.66 66.45,57.81 66.29,57.81 
	66.14,57.81 65.99,57.81 65.99,57.96 65.99,57.81 65.83,57.81 65.83,57.66 65.83,57.5 65.83,57.35 65.68,57.35 65.68,57.5 
	65.53,57.66 65.53,57.81 65.68,57.81 65.68,57.96 65.68,58.12 65.83,58.27 65.99,58.27 65.99,58.42 66.14,58.42 66.14,58.58 
	65.99,58.58 65.83,58.58 65.68,58.58 65.53,58.58 65.53,58.42 65.38,58.42 65.22,58.42 65.22,58.58 65.22,58.73 65.38,58.73 
	65.38,58.88 65.53,58.88 65.53,59.04 65.38,59.04 65.38,59.34 65.38,59.49 65.53,59.49 65.83,59.65 65.83,59.8 65.68,59.8 
	65.53,59.8 65.38,59.8 65.22,59.8 65.07,59.8 65.07,59.95 65.22,59.95 65.22,60.11 65.22,60.26 65.07,60.26 64.92,60.26 
	64.76,60.26 64.61,60.26 64.61,60.11 64.46,60.11 64.46,60.26 64.61,60.26 64.61,60.41 64.76,60.41 64.76,60.57 64.76,60.72 
	64.76,60.87 64.92,60.87 64.92,61.03 64.92,61.18 64.76,61.18 64.76,61.33 64.76,61.48 64.61,61.48 64.61,61.64 64.61,61.79 
	64.76,61.79 64.92,61.79 65.07,61.79 65.22,61.79 65.38,61.94 65.38,61.79 65.53,61.79 65.68,61.79 65.83,61.64 65.99,61.64 
	66.29,61.48 66.75,61.48 66.75,61.33 66.91,61.33 67.06,61.48 67.21,61.48 67.52,61.64 67.67,61.64 67.82,61.64 67.82,61.48 
	68.13,61.33 68.44,61.18 68.59,61.03 68.74,60.87 68.9,60.72 69.2,60.72 69.2,60.57 69.36,60.57 69.51,60.57 69.51,60.41 
	69.66,60.26 69.82,60.26 69.82,60.11 69.97,60.11 70.27,60.11 70.43,60.11 70.58,59.95 70.73,59.8 71.19,59.49 71.35,59.49 
	71.5,59.34 71.5,59.19 71.5,59.04 71.35,58.88 71.19,59.04 71.04,59.04 70.89,59.04 70.73,59.04 70.73,58.88 70.58,58.73 
	70.58,58.58 70.58,58.42 70.58,58.12 70.58,57.96 70.73,57.81 70.89,57.81 70.89,57.66 71.04,57.66 71.19,57.81 71.35,57.81 
	71.5,57.96 71.81,58.27 72.26,58.58 72.42,58.58 72.57,58.73 72.72,58.88 72.88,58.88 73.03,58.88 73.03,59.04 73.18,59.04 
	73.34,59.34 73.49,59.49 73.64,59.65 73.8,59.8 73.8,59.95 73.95,59.95 73.95,60.11 73.95,60.26 74.1,60.26 74.1,60.41 74.25,60.57 
	74.41,60.57 74.56,60.72 74.87,60.72 75.02,60.72 75.17,60.72 75.33,60.87 75.48,60.87 75.48,61.03 75.63,61.03 75.79,61.03 
	75.94,61.03 76.09,61.03 76.24,61.18 76.4,61.33 76.4,61.48 76.55,61.64 76.55,61.79 76.55,61.94 76.55,62.1 76.7,62.1 76.7,62.25 
	76.7,62.4 76.7,62.56 76.55,62.56 76.55,62.71 76.4,62.86 76.24,63.02 76.24,63.17 76.24,63.32 76.24,63.47 76.09,63.63 
	75.94,63.63 75.79,63.78 75.79,63.93 75.79,64.09 76.09,64.55 76.09,64.7 76.09,64.85 76.09,65.01 76.24,65.16 76.4,65.16 
	76.55,65.16 76.7,65.16 76.86,65.16 77.01,65.31 77.01,65.46 77.01,65.62 76.86,65.77 76.7,65.77 76.55,65.77 76.4,65.92 
	76.24,66.08 76.24,66.23 76.24,66.54 76.4,66.84 76.4,67 76.55,67 77.01,67.3 77.01,67.45 77.16,67.45 77.01,67.45 77.01,67.61 
	76.86,67.61 76.7,67.61 76.09,67.76 75.94,67.91 75.94,68.07 75.94,68.37 75.94,68.53 75.94,68.99 75.94,69.14 76.09,69.29 
	76.09,69.45 76.24,69.45 76.09,69.45 76.09,69.6 75.94,69.6 75.79,69.6 75.33,69.6 75.17,69.6 75.02,69.75 75.17,69.9 75.33,70.06 
	75.48,70.36 75.63,70.36 75.79,70.36 75.94,70.36 76.09,70.36 76.09,70.21 76.4,69.9 76.55,69.75 76.55,69.6 76.7,69.6 76.7,69.45 
	76.7,69.29 76.7,69.14 76.86,69.14 76.86,68.99 77.01,68.99 77.47,68.83 77.62,68.83 77.62,68.99 77.62,69.14 77.32,69.14 
	77.16,69.29 77.16,69.45 77.16,69.6 77.32,69.6 77.32,69.75 77.62,69.9 77.78,70.06 77.93,70.06 77.93,70.21 78.08,70.36 
	78.08,70.52 78.08,70.67 78.08,70.82 78.23,70.82 78.23,70.98 78.39,70.98 78.54,70.98 78.69,70.98 78.85,70.98 78.85,71.13 
	79,71.13 79,71.28 79.15,71.28 79.15,71.59 79.31,71.74 79.46,71.74 79.46,71.89 79.46,72.2 79.46,72.35 79.61,72.35 79.77,72.51 
	79.92,72.35 80.07,72.35 80.07,72.51 80.22,72.51 80.22,72.66 80.22,72.81 80.07,72.97 80.07,73.12 80.22,73.27 80.22,73.12 
	80.38,73.12 80.53,72.97 80.53,72.81 80.68,72.81 80.84,72.81 80.99,72.81 81.14,72.97 81.14,73.12 81.14,73.43 81.14,73.58 
	81.14,73.73 80.99,73.73 80.84,73.88 80.68,73.88 80.53,73.73 80.38,73.73 80.22,73.43 80.07,73.43 79.92,73.43 79.92,73.58 
	79.77,73.58 79.77,73.73 79.77,73.88 79.77,74.04 79.92,74.19 79.92,74.34 79.92,74.5 80.07,74.65 80.07,74.8 80.07,74.96 
	80.22,74.96 80.38,75.26 80.38,75.42 80.38,75.57 80.22,75.57 80.22,75.72 80.07,75.72 79.92,75.72 79.77,75.72 79.77,75.87 
	79.77,76.03 79.92,76.03 79.92,76.18 80.07,76.18 80.38,76.18 80.53,76.18 80.68,76.18 80.99,76.03 81.3,75.87 81.45,75.87 
	81.45,76.03 81.6,76.03 81.6,76.18 81.45,76.33 81.3,76.49 81.14,76.64 80.84,76.79 80.84,76.95 80.84,77.1 80.99,77.25 81.3,77.4 
	81.3,77.56 81.3,77.71 81.14,77.86 81.14,78.02 81.3,78.02 81.45,78.02 81.6,77.86 81.76,77.71 81.91,77.56 82.06,77.56 
	82.37,77.56 82.52,77.56 82.67,77.4 82.83,77.4 82.98,77.25 83.13,77.25 83.29,77.25 83.44,77.25 83.44,77.4 83.44,77.56 
	83.44,77.71 83.29,77.86 83.29,78.02 83.13,78.02 82.98,78.02 82.83,78.02 82.52,78.17 82.37,78.17 82.22,78.17 82.06,78.17 
	81.76,78.32 81.14,78.48 80.84,78.48 80.68,78.48 80.53,78.48 80.07,78.48 79.31,78.63 79.15,78.63 79,78.63 79,78.78 78.85,78.78 
	78.39,79.24 78.23,79.24 77.47,79.85 77.32,79.85 77.16,80.01 76.86,80.31 76.7,80.31 76.55,80.47 76.09,80.77 75.94,80.77 
	75.79,80.93 75.63,81.08 75.63,81.23 75.63,81.38 75.63,81.54 75.79,81.54 75.63,81.54 75.63,81.69 75.79,81.69 75.79,81.84 
	75.79,82 75.79,82.15 75.79,82.3 75.63,82.3 75.63,82.46 75.48,82.46 75.33,82.46 75.17,82.46 75.02,82.46 75.02,82.3 74.87,82.15 
	74.71,82.15 74.71,82 74.56,82 74.41,82 74.41,81.84 74.25,81.84 74.1,82 74.1,81.84 74.1,82 73.95,82 74.1,82 73.95,82 73.8,82 
	73.64,82.15 73.64,82.3 73.64,82.46 73.8,82.46 73.8,82.61 73.8,82.76 73.95,82.92 73.95,83.07 73.95,83.22 74.1,83.22 74.25,83.22 
	74.25,83.38 74.1,83.38 74.25,83.38 74.25,83.53 74.41,83.68 74.25,83.68 74.25,83.83 74.41,83.83 74.25,83.83 74.1,83.83 
	74.1,83.99 73.95,83.99 73.95,83.83 73.8,83.83 73.64,83.83 73.64,83.68 73.64,83.83 73.49,83.83 73.49,83.68 73.34,83.68 
	73.49,83.68 73.49,83.53 73.34,83.53 73.18,83.53 73.18,83.38 73.34,83.38 73.18,83.38 73.03,83.38 73.03,83.53 72.88,83.53 
	72.72,83.53 72.72,83.68 72.72,83.53 72.57,83.53 72.57,83.68 72.42,83.68 72.42,83.83 72.26,83.83 72.26,83.99 72.26,84.14 
	72.26,83.99 72.11,83.99 72.11,84.14 72.11,83.99 71.96,83.99 71.96,84.14 71.96,84.29 71.81,84.29 71.81,84.45 71.65,84.45 
	71.65,84.6 71.5,84.6 71.65,84.6 71.65,84.75 71.81,84.75 71.81,84.91 71.81,85.06 71.81,84.91 71.96,85.06 71.96,85.21 
	71.81,85.21 71.96,85.21 71.96,85.37 71.81,85.37 71.81,85.52 71.81,85.67 71.65,85.82 71.65,85.98 71.65,86.13 71.5,85.98 
	71.5,86.13 71.35,86.13 71.19,86.13 71.19,85.98 71.04,85.98 70.89,85.98 70.89,86.13 70.73,86.13 70.73,86.28 70.89,86.28 
	70.73,86.28 70.58,86.28 70.58,86.44 70.58,86.59 70.58,86.44 70.43,86.44 70.43,86.59 70.43,86.74 70.43,86.59 70.27,86.59 
	70.27,86.74 70.27,86.59 70.27,86.74 70.12,86.74 70.12,86.9 70.12,87.05 70.12,87.2 70.12,87.36 70.27,87.36 70.27,87.51 
	70.43,87.66 70.43,87.81 70.43,87.97 70.58,87.97 70.58,88.12 69.51,88.43 69.05,88.58 68.9,88.73 68.74,88.73 68.59,88.73 
	68.44,88.89 68.28,88.89 67.98,89.04 67.98,89.19 67.82,89.19 67.67,89.35 67.52,89.5 67.52,89.8 67.37,89.8 67.37,89.96 
	67.21,90.11 67.21,90.26 67.06,90.57 66.91,90.72 66.75,90.88 66.75,91.03 66.6,91.34 66.45,91.49 66.29,91.64 66.14,91.79 
	66.14,91.95 65.99,92.1 65.83,92.1 65.68,92.25 65.53,92.41 65.38,92.41 65.07,92.71 65.07,92.87 64.92,93.02 64.92,93.17 
	64.92,93.63 64.76,94.24 64.76,94.55 64.46,96.54 64.3,96.54 64.3,96.69 64.15,96.69 64,96.85 63.84,96.85 63.69,96.69 63.54,96.69 
	63.23,96.69 63.08,96.69 63.08,96.54 62.93,96.54 62.93,96.39 62.93,96.23 63.08,96.08 63.08,95.93 63.23,95.77 63.23,95.62 
	63.23,95.47 63.39,95.47 63.39,95.32 63.39,95.16 63.39,95.01 63.23,95.01 63.23,94.86 63.08,94.86 62.93,94.86 62.62,95.01 
	62.47,95.16 62.31,95.16 62.16,95.16 62.01,95.32 62.01,95.47 62.16,95.47 62.16,95.62 62.31,95.77 62.31,95.93 62.16,95.93 
	62.01,95.93 61.85,95.77 61.7,95.77 61.55,95.93 61.4,96.08 61.24,96.08 61.09,96.08 60.94,95.93 60.94,95.77 60.94,95.62 
	60.78,95.47 60.63,95.32 60.48,95.01 60.48,94.86 60.32,94.86 60.32,94.7 60.48,94.7 60.48,94.55 60.63,94.55 60.78,94.4 
	60.94,94.24 60.94,94.09 60.78,94.09 60.78,93.94 60.63,93.78 60.48,93.78 60.32,93.78 60.32,93.94 60.17,93.94 60.02,94.09 
	59.86,94.09 59.71,94.09 59.56,94.09 59.56,94.24 59.41,94.4 59.25,94.4 58.95,94.09 58.95,93.94 58.79,93.78 58.64,93.78 
	58.49,93.78 58.33,93.78 58.18,93.78 58.03,93.94 57.87,93.94 57.72,94.09 57.57,94.09 57.42,94.09 57.26,94.09 57.26,93.94 
	57.26,93.78 57.26,93.63 57.11,93.63 57.11,93.48 56.96,93.48 56.8,93.63 56.65,93.63 56.5,93.48 56.65,93.48 56.65,93.17 
	56.8,93.02 56.65,92.87 56.65,92.71 56.5,92.56 56.5,92.41 56.34,92.25 56.19,91.79 56.04,91.79 56.04,91.64 56.04,91.49 
	56.04,91.34 55.88,91.34 55.88,91.18 55.73,91.18 55.73,91.34 55.88,91.64 55.88,91.79 55.88,91.95 55.88,92.1 55.73,92.25 
	55.73,92.41 55.58,92.56 55.43,92.56 55.27,92.56 55.27,92.41 55.27,91.95 55.27,91.79 55.27,91.64 55.12,91.64 55.12,91.49 
	54.97,91.34 54.81,91.34 54.66,91.34 54.51,91.49 54.51,91.64 54.35,91.64 54.35,91.79 54.2,91.79 53.89,91.79 53.74,91.95 
	53.59,92.1 53.59,92.25 53.74,92.41 53.74,92.56 53.74,92.71 53.59,92.87 53.59,93.02 53.44,93.02 53.28,93.02 53.13,93.02 
	52.98,93.02 52.98,92.87 52.98,92.71 52.98,92.56 53.13,92.41 53.13,92.25 53.13,92.1 52.98,91.95 52.98,91.79 52.82,91.64 
	52.67,91.64 52.67,91.49 52.52,91.49 52.52,91.64 52.36,91.64 52.36,91.79 52.21,92.1 52.21,92.25 52.06,92.41 51.9,92.41 
	51.75,92.41 51.6,92.25 51.45,92.25 51.45,92.1 51.29,92.1 51.14,92.1 50.99,92.1 50.83,92.1 50.68,92.1 50.53,92.25 50.53,92.41 
	50.37,92.56 50.37,92.71 50.22,92.87 50.07,93.02 49.91,93.02 49.91,92.87 49.76,92.87 49.61,93.02 49.46,93.17 49.3,93.17 
	49.15,93.17 49,93.33 49,93.48 48.84,93.33 48.69,93.33 48.69,93.17 48.54,93.17 48.69,93.33 48.69,93.48 48.54,93.48 48.38,93.48 
	48.38,93.33 48.38,93.48 48.38,93.63 48.23,93.48 48.23,93.63 48.23,93.78 48.23,93.63 48.08,93.63 48.08,93.78 47.92,93.78 
	47.92,93.63 47.92,93.48 47.77,93.48 47.77,93.63 47.62,93.63 47.62,93.94 47.46,93.94 47.31,93.94 47.31,93.78 47.31,93.63 
	47.16,93.63 47.16,93.78 47.01,93.78 47.01,93.94 47.01,93.78 46.85,93.78 46.85,93.94 46.7,93.94 46.55,93.94 46.55,93.78 
	46.39,93.78 46.39,93.94 46.39,94.09 46.24,94.09 46.24,94.24 46.24,94.4 46.24,94.24 46.09,94.24 46.09,94.4 46.24,94.4 
	46.09,94.4 45.93,94.4 45.78,94.4 45.78,94.55 45.78,94.4 45.78,94.24 45.63,94.24 45.63,94.4 45.63,94.24 45.47,94.24 45.47,94.09 
	45.32,94.24 45.32,94.4 45.32,94.24 45.17,94.24 45.32,94.24 45.32,94.09 45.17,94.09 45.02,94.09 44.86,94.09 44.86,94.24 
	44.71,94.24 44.71,94.4 44.56,94.4 44.56,94.24 44.56,94.4 44.4,94.4 44.4,94.24 44.25,94.24 44.1,94.24 43.94,94.09 43.79,93.94 
	43.64,93.94 43.64,93.78 43.64,93.63 43.48,93.63 43.33,93.63 43.33,93.48 43.18,93.48 43.18,93.63 43.03,93.63 43.03,93.78 
	42.87,93.78 42.87,93.94 42.72,93.94 42.72,94.09 42.57,94.09 42.41,94.09 42.41,93.94 42.26,93.94 42.26,93.78 42.11,93.78 
	42.11,93.94 42.26,93.94 42.11,93.94 42.11,94.09 41.95,94.24 41.8,94.09 41.65,94.09 41.49,94.09 41.49,94.24 41.49,94.4 
	41.34,94.4 41.34,94.24 41.19,94.24 41.19,94.09 41.19,93.94 41.04,93.94 41.04,93.78 40.88,93.78 40.73,93.63 40.73,93.48 
	40.58,93.63 40.58,93.78 40.58,93.94 40.42,93.78 40.27,93.63 40.12,93.48 39.96,93.63 40.12,93.63 40.12,93.78 40.12,93.94 
	39.96,93.94 39.81,93.94 39.66,94.09 39.66,93.94 39.5,93.94 39.5,93.78 39.5,93.63 39.35,93.63 39.35,93.78 39.2,93.78 
	39.05,93.94 38.89,93.94 38.89,93.78 38.89,93.63 38.74,93.63 38.59,93.63 38.59,93.78 38.74,93.78 38.59,93.78 38.43,93.78 
	38.43,93.63 38.28,93.63 38.43,93.63 38.43,93.48 38.43,93.33 38.28,93.33 38.28,93.48 38.28,93.63 38.13,93.63 38.28,93.63 
	38.13,93.63 38.13,93.48 37.97,93.48 37.97,93.63 37.82,93.63 37.67,93.63 37.67,93.78 37.67,93.63 37.67,93.48 37.51,93.48 
	37.51,93.63 37.36,93.48 37.21,93.48 37.21,93.63 37.36,93.63 37.21,93.63 37.21,93.78 37.06,93.78 36.9,93.78 36.9,93.63 
	36.75,93.63 36.6,93.63 36.6,93.48 36.44,93.48 36.44,93.63 36.44,93.78 36.44,93.63 36.29,93.63 36.29,93.48 36.44,93.48 
	36.29,93.48 36.29,93.33 36.14,93.33 36.14,93.17 35.98,93.17 35.98,93.33 35.98,93.48 35.83,93.48 35.68,93.33 35.52,93.33 
	35.37,93.33 35.37,93.17 35.22,93.17 35.22,93.02 35.22,93.17 35.22,93.02 35.07,93.02 35.07,92.87 34.91,92.87 34.91,92.71 
	34.76,92.71 34.61,92.87 34.61,92.71 34.45,92.71 34.45,92.87 34.45,92.71 34.45,92.87 34.3,92.87 34.15,92.87 34.15,92.71 
	34.3,92.71 34.15,92.71 34.15,92.56 33.99,92.56 33.99,92.71 34.15,92.71 33.99,92.71 33.84,92.71 33.69,92.71 33.69,92.87 
	33.53,92.87 33.53,92.71 33.38,92.71 33.23,92.71 33.08,92.71 33.08,92.56 33.08,92.41 32.92,92.41 32.92,92.25 32.77,92.25 
	32.77,92.1 32.62,92.1 32.62,91.95 32.46,91.95 32.46,92.1 32.31,92.1 32.16,92.1 32.31,91.95 32.16,91.95 32,91.95 32,91.79 
	31.85,91.79 31.85,91.95 31.85,92.1 31.7,92.1 31.7,91.95 31.7,91.79 31.54,91.79 31.54,91.95 31.39,91.95 31.39,91.79 31.24,91.79 
	31.24,91.95 31.09,91.95 31.09,91.79 31.09,91.95 30.93,91.95 30.78,91.95 30.78,92.1 30.63,92.1 30.47,92.1 30.47,91.95 
	30.32,92.1 30.32,91.95 30.17,91.95 30.01,91.95 29.86,91.95 29.86,92.1 29.86,92.25 29.86,92.1 29.71,92.1 29.55,92.1 29.4,92.1 
	29.55,91.95 29.4,91.95 29.25,91.95 29.25,92.1 29.4,92.1 29.4,92.25 29.25,92.25 29.09,92.25 29.09,92.1 28.94,92.1 28.79,92.1 
	28.79,92.25 28.64,92.25 28.48,92.25 28.33,92.25 28.33,92.41 28.18,92.41 28.18,92.56 28.02,92.56 27.87,92.71 27.87,92.56 
	27.72,92.56 27.72,92.71 27.56,92.71 27.56,92.87 27.41,92.87 27.41,93.02 27.41,93.17 27.41,93.33 27.26,93.33 27.1,93.33 
	26.95,93.33 26.8,93.33 26.8,93.17 26.65,93.17 26.65,93.33 26.65,93.48 26.49,93.63 26.49,93.78 26.49,93.94 26.34,93.94 
	26.34,94.09 26.19,94.09 26.19,94.24 26.19,94.4 26.34,94.4 26.34,94.24 26.34,94.4 26.34,94.55 26.19,94.55 26.03,94.4 25.88,94.4 
	25.73,94.55 25.73,94.7 25.73,94.86 25.57,94.86 25.57,95.01 25.42,95.01 25.42,95.16 25.27,95.16 25.27,95.32 25.27,95.47 
	25.11,95.47 24.96,95.47 24.96,95.62 24.81,95.62 24.81,95.77 24.81,95.62 24.66,95.62 24.5,95.62 24.35,95.62 24.2,95.47 
	24.04,95.47 23.89,95.47 23.89,95.62 23.89,95.47 23.74,95.47 23.58,95.47 23.58,95.32 23.58,95.47 23.43,95.47 23.28,95.47 
	23.28,95.32 23.12,95.32 23.28,95.32 23.28,95.16 23.12,95.32 23.12,95.16 22.97,95.16 22.97,95.01 22.82,95.01 22.67,95.01 
	22.67,94.86 22.51,94.86 22.51,94.7 22.36,94.7 22.36,94.55 22.21,94.55 22.21,94.7 22.05,94.7 21.9,94.7 21.75,94.7 21.59,94.7 
	21.44,94.7 21.29,94.7 21.29,94.55 20.98,94.55 20.98,94.4 20.83,94.4 20.83,94.24 20.83,94.09 20.83,93.94 20.68,93.78 
	20.68,93.63 20.52,93.63 20.37,93.63 20.37,93.48 20.22,93.48 20.22,93.63 20.06,93.63 20.06,93.48 19.91,93.48 19.76,93.48 
	19.6,93.48 19.45,93.48 19.3,93.48 18.99,93.48 18.84,93.48 18.69,93.48 18.69,93.33 18.53,93.48 18.38,93.48 18.38,93.33 
	18.23,93.33 18.07,93.33 17.92,93.33 17.77,93.33 17.61,93.33 17.61,93.17 17.46,93.17 17.46,93.33 17.31,93.33 17.31,93.17 
	17.15,93.17 17.15,93.33 17,93.33 16.85,93.33 16.85,93.48 16.7,93.48 16.7,93.33 16.54,93.33 16.54,93.48 16.39,93.48 16.24,93.48 
	16.24,93.33 16.24,93.48 16.08,93.48 16.08,93.63 16.08,93.78 15.93,93.78 15.78,93.78 15.78,93.94 15.62,93.78 15.47,93.78 
	15.47,93.94 15.47,94.09 15.32,94.09 15.32,94.24 15.16,94.24 15.01,94.24 14.86,94.24 14.86,94.4 14.71,94.4 14.71,94.55 
	14.55,94.55 14.4,94.55 14.4,94.7 14.25,94.7 14.09,94.7 13.94,94.7 13.94,94.86 13.79,94.86 13.79,95.01 13.63,95.01 13.63,95.16 
	13.48,95.16 13.33,95.16 13.48,94.24 13.48,93.78 14.09,91.79 14.55,90.11 15.01,89.19 15.01,89.04 15.01,88.89 15.01,88.73 
	15.01,88.58 15.01,88.43 15.01,88.27 15.01,88.12 15.01,87.97 15.01,87.81 15.01,87.66 15.01,87.51 15.01,87.36 15.01,87.2 
	15.01,87.05 14.86,86.9 14.86,86.74 14.71,86.59 14.55,86.28 14.55,86.13 14.4,86.13 14.25,86.13 14.25,85.98 14.4,85.98 
	14.4,85.82 14.25,85.82 14.09,85.82 14.09,85.98 13.94,85.98 13.94,85.82 13.79,85.82 13.79,85.98 13.63,85.98 13.63,86.13 
	13.48,86.13 13.33,86.13 13.17,86.13 13.02,86.13 13.02,85.98 12.87,85.98 12.72,85.98 12.72,86.13 12.56,85.98 12.41,85.98 
	12.41,85.82 12.41,85.98 12.26,85.98 12.1,85.98 11.95,85.98 11.8,85.98 11.64,85.98 11.64,86.13 11.49,86.13 11.49,86.28 
	11.34,86.28 11.34,86.13 11.18,86.13 11.03,86.13 11.03,86.28 11.03,86.44 10.88,86.44 10.88,86.59 10.88,86.74 10.73,86.59 
	10.73,86.74 10.57,86.74 10.57,86.9 10.42,86.9 10.42,86.74 10.42,86.9 10.27,86.9 10.27,86.74 10.11,86.9 9.96,86.9 9.96,87.05 
	9.81,87.05 9.65,87.05 9.65,86.9 9.65,86.74 9.65,86.59 9.5,86.59 9.5,86.44 9.5,86.28 9.5,86.13 9.35,86.13 9.19,85.98 9.19,85.82 
	9.19,85.67 9.19,85.82 9.04,85.82 9.04,85.67 8.89,85.67 8.89,85.52 8.73,85.52 8.58,85.37 8.58,85.52 8.43,85.52 8.43,85.37 
	8.28,85.37 8.28,85.21 8.12,85.21 8.12,85.37 8.12,85.21 7.97,85.21 7.97,85.37 7.82,85.37 7.82,85.21 7.66,85.21 7.51,85.21 
	7.36,85.21 7.2,85.21 7.05,85.21 7.05,85.06 7.05,85.21 6.9,85.21 6.9,85.06 6.75,85.06 6.75,84.91 6.59,84.91 6.59,84.75 
	6.59,84.91 6.44,84.91 6.44,84.75 6.29,84.75 6.29,84.6 6.13,84.6 6.13,84.45 5.98,84.6 5.83,84.6 5.67,84.6 5.52,84.6 5.52,84.45 
	5.52,84.29 5.37,84.29 5.21,84.29 5.21,84.14 5.37,84.14 5.21,84.14 5.21,83.99 5.06,83.99 4.91,83.99 4.91,84.14 4.91,83.99 
	4.75,83.99 4.6,83.99 4.6,83.83 4.6,83.68 4.6,83.53 4.45,83.53 4.45,83.38 4.6,83.38 4.45,83.38 4.6,83.38 4.6,83.22 4.6,83.07 
	4.75,83.07 4.75,82.92 4.6,82.92 4.45,82.92 4.3,82.92 4.14,82.92 4.3,82.92 4.14,82.92 4.14,82.76 3.99,82.76 3.99,82.61 
	3.99,82.46 3.84,82.46 3.99,82.46 3.84,82.3 3.84,82.15 3.99,82.15 3.99,82 4.14,82 3.99,82 3.99,81.84 4.14,81.84 4.14,81.69 
	3.99,81.69 3.99,81.54 3.99,81.38 3.84,81.38 3.84,81.23 3.68,81.23 3.68,81.08 3.53,81.08 3.38,81.08 3.38,80.93 3.22,80.93 
	3.22,81.08 3.22,81.23 3.07,81.23 2.92,81.23 2.76,81.23 2.76,81.08 2.61,81.08 2.61,80.93 2.46,80.93 2.31,80.93 2.31,80.77 
	2.15,80.77 2.15,80.62 2.15,80.47 2.15,80.31 2.15,80.16 2.31,80.01 2.15,80.01 2.15,79.85 2.15,79.7 2.31,79.7 2.46,79.7 
	2.61,79.7 2.76,79.55 2.92,79.4 3.07,79.24 3.22,79.24 3.22,79.09 3.38,78.78 3.38,78.63 3.53,78.48 3.53,78.32 3.53,78.17 
	3.68,78.02 3.68,77.86 3.68,77.71 3.84,77.71 3.84,77.56 3.84,77.4 3.84,77.25 3.84,77.1 3.84,76.95 3.99,76.64 4.14,76.49 
	4.14,76.33 4.3,76.33 4.3,76.18 4.3,76.03 4.3,75.87 4.3,75.72 4.3,75.57 4.3,75.42 4.45,75.42 4.45,75.26 4.6,75.26 4.75,75.26 
	4.91,75.11 5.06,75.11 5.06,74.96 5.06,74.8 3.53,75.11 3.22,75.11 2.92,75.26 2.46,75.11 2.15,75.11 2,74.96 1.85,74.96 
	2.46,73.88 2.92,73.43 3.53,72.81 3.84,72.2 4.45,71.43 4.75,71.28 5.21,71.13 6.13,70.98 6.9,70.82 7.51,70.67 7.66,70.52 
	7.82,70.36 7.97,70.21 8.12,70.06 8.28,69.9 8.43,69.75 8.43,69.6 8.43,69.45 8.43,69.29 8.58,69.29 8.73,69.29 8.89,69.29 
	8.89,69.45 9.04,69.45 9.19,69.45 9.35,69.45 9.35,69.6 9.5,69.6 9.65,69.6 9.65,69.75 9.81,69.75 9.96,69.75 10.11,69.75 
	10.11,69.9 10.27,69.9 10.42,69.9 10.57,70.06 10.73,70.06 10.73,70.21 10.88,70.21 11.03,70.21 11.18,70.21 11.34,70.21 
	11.34,70.36 11.49,70.36 11.49,70.52 11.64,70.52 11.8,70.52 11.8,70.67 11.95,70.52 11.95,70.67 12.1,70.67 12.1,70.52 
	12.26,70.52 12.26,70.67 12.41,70.52 12.41,70.67 12.56,70.67 12.72,70.67 12.87,70.67 12.87,70.52 12.87,70.36 13.02,70.36 
	13.17,70.36 13.17,70.52 13.33,70.52 13.33,70.36 13.48,70.36 13.63,70.36 13.79,70.36 13.94,70.36 14.09,70.21 14.09,70.06 
	14.25,69.9 14.4,69.75 14.55,69.6 14.55,69.45 14.71,69.14 14.71,68.99 14.71,68.68 14.71,68.53 14.86,68.37 14.86,68.07 
	14.86,67.91 14.86,67.76 15.01,67.45 15.01,67.3 15.01,66.84 15.01,66.54 15.01,66.23 15.01,66.08 15.01,65.92 15.01,65.77 
	15.01,65.46 15.01,65.31 15.01,65.16 15.01,65.01 15.01,64.85 15.01,64.7 15.01,64.55 15.16,64.39 15.16,64.24 15.16,64.09 
	15.32,63.93 15.47,63.78 15.62,63.47 15.62,63.32 15.62,63.17 15.78,63.17 15.78,63.02 15.93,62.86 16.08,62.71 16.08,62.56 
	16.08,62.4 15.93,62.4 16.08,62.25 15.93,62.25 15.78,62.25 15.78,62.1 15.78,61.94 15.62,61.94 15.62,61.79 15.62,61.64 
	15.78,61.64 15.93,61.64 15.93,61.48 15.93,61.33 16.08,61.33 16.08,61.18 16.08,61.03 16.08,60.87 16.08,60.72 16.08,60.57 
	15.93,60.57 15.93,60.41 15.93,60.26 15.93,60.11 16.08,60.11 16.08,59.95 16.24,59.95 16.08,59.8 16.24,59.8 16.24,59.65 
	16.08,59.65 15.93,59.65 15.93,59.49 15.78,59.49 15.78,59.34 15.78,59.19 15.93,59.19 15.93,59.04 15.78,59.04 15.93,59.04 
	15.93,58.88 16.08,58.88 16.08,58.73 16.08,58.58 16.08,58.42 16.08,58.27 16.24,58.27 16.24,58.12 16.24,57.96 16.24,57.81 
	16.24,57.66 16.24,57.5 16.39,57.5 16.39,57.35 16.24,57.35 16.24,57.2 16.24,57.05 16.24,56.89 16.24,56.74 16.39,56.59 
	16.39,56.43 16.39,56.28 16.39,56.13 16.54,56.13 16.54,55.97 16.7,55.97 16.7,55.82 16.85,55.82 16.85,55.67 17,55.67 17,55.51 
	17,55.36 17,55.21 17,55.06 17.15,54.75 17.15,54.6 17.15,54.44 17.15,54.29 17.15,54.14 17.31,54.14 17.46,53.98 17.46,53.83 
	17.46,53.68 17.61,53.68 17.61,53.52 17.46,53.37 17.46,53.22 17.46,53.07 17.46,52.91 17.46,52.76 17.46,52.61 17.61,52.61 
	17.77,52.45 17.92,52.45 17.92,52.3 18.07,52.3 18.23,51.99 18.38,51.99 18.53,51.84 18.69,51.84 18.69,51.69 18.84,51.69 
	18.84,51.53 18.99,51.38 19.14,51.23 19.14,51.08 19.3,51.08 19.45,50.92 19.45,50.77 19.3,50.62 19.3,50.46 19.14,50.46 
	19.14,50.31 19.14,50.16 19.14,49.85 19.14,49.7 19.14,49.54 19.14,49.39 19.3,49.24 19.3,48.93 19.3,48.78 19.14,48.78 
	18.99,48.63 18.69,48.32 18.38,48.17 18.38,48.01 18.23,47.86 18.23,48.01 18.23,47.86 18.07,47.86 18.07,47.71 18.07,47.55 
	18.07,47.4 18.07,47.25 17.92,47.25 17.92,47.1 17.77,47.1 17.77,46.94 17.92,46.94 17.92,46.79 17.77,46.79 17.77,46.64 
	17.77,46.48 17.77,46.33 17.77,46.18 17.77,46.02 17.61,46.02 17.61,45.87 17.77,45.72 17.61,45.72 17.77,45.72 17.77,45.56 
	17.61,45.56 17.77,45.56 17.61,45.56 17.61,45.41 17.77,45.41 17.61,45.26 17.61,45.11 17.61,44.95 17.46,44.8 17.46,44.65 
	17.46,44.49 17.46,44.34 17.61,44.34 17.61,44.19 17.61,44.03 17.46,44.03 17.61,44.03 17.61,43.88 17.77,43.88 17.77,43.73 
	17.77,43.57 17.77,43.42 17.77,43.27 17.77,43.12 17.61,43.12 17.61,42.96 17.46,42.81 17.46,42.66 17.46,42.5 17.46,42.35 
	17.61,42.35 17.61,42.2 17.61,42.04 17.77,42.04 17.77,41.89 17.92,41.74 17.92,41.58 18.07,41.58 18.07,41.43 18.07,41.28 
	18.07,41.13 18.23,40.97 18.23,40.82 18.23,40.67 18.23,40.51 18.23,40.36 18.38,40.36 18.23,40.36 18.23,40.21 18.07,40.05 
	18.07,39.9 17.92,39.9 17.92,39.75 18.07,39.59 17.92,39.59 17.92,39.44 17.77,39.29 17.92,39.29 17.77,39.29 17.77,39.14 
	17.77,38.98 17.61,38.98 17.61,38.83 17.77,38.68 17.77,38.52 17.61,38.52 17.61,38.37 17.46,38.37 17.46,38.22 17.31,38.22 
	17.31,38.06 17.15,38.06 17.15,37.91 17.15,37.76 17.15,37.6 17,37.6 17,37.45 16.85,37.3 16.7,37.3 16.7,37.15 16.7,36.99 
	16.7,36.84 16.85,36.69 16.85,36.53 16.85,36.23 17,36.23 16.85,35.92 16.85,35.77 16.85,35.61 17,35.46 17,35.16 17,35 17,34.85 
	17,34.7 16.85,34.54 16.85,34.39 16.85,34.24 16.85,34.08 16.85,33.93 17,33.93 17.15,33.93 17.15,33.78 17,33.78 17,33.62 
	17.15,33.47 17.15,33.32 17.15,33.17 17.31,33.17 17.46,33.17 17.46,33.01 17.61,33.01 17.61,32.86 17.77,32.86 17.77,32.71 
	17.77,32.55 17.77,32.4 17.92,32.4 18.07,32.4 18.23,32.4 18.23,32.25 18.23,32.09 18.23,31.94 18.38,31.79 18.38,31.63 
	18.53,31.63 18.69,31.63 18.84,31.63 18.84,31.48 18.99,31.48 18.99,31.33 18.99,31.17 18.99,31.02 18.99,30.87 19.14,30.87 
	19.14,30.72 18.99,30.72 18.99,30.56 19.14,30.56 19.14,30.41 19.14,30.26 19.3,30.26 19.3,30.1 19.14,30.1 19.3,30.1 19.14,29.95 
	19.3,29.8 19.3,29.64 19.45,29.49 19.6,29.34 19.76,29.34 19.76,29.19 19.76,29.03 19.76,28.88 19.6,28.88 19.45,28.88 19.45,28.73 
	19.6,28.57 19.76,28.57 19.6,28.42 19.6,28.27 19.6,28.11 19.45,28.11 19.3,28.11 19.3,27.96 19.45,27.96 19.6,27.96 19.6,27.81 
	19.45,27.81 19.6,27.65 19.76,27.65 19.76,27.5 19.76,27.35 19.91,27.35 19.91,27.5 20.06,27.5 20.06,27.65 20.22,27.5 20.37,27.5 
	20.37,27.35 20.22,27.35 20.37,27.35 20.37,27.2 20.22,27.2 20.37,27.2 20.37,27.35 20.37,27.2 20.37,27.04 20.52,27.2 20.52,27.04 
	20.52,27.2 20.68,27.04 20.68,27.2 20.68,27.04 20.83,27.04 20.83,26.89 20.68,26.89 20.68,26.74 20.68,26.58 20.83,26.58 
	20.98,26.58 21.13,26.74 21.29,26.74 21.44,26.74 21.59,26.58 21.75,26.58 21.9,26.58 21.9,26.74 21.9,26.89 22.05,27.04 
	22.21,27.04 22.36,26.89 22.51,26.89 22.51,26.74 22.36,26.58 22.36,26.43 22.51,26.43 22.67,26.43 22.82,26.43 22.82,26.28 
	22.82,26.12 22.67,26.12 22.67,25.97 22.82,25.82 22.97,25.82 22.97,25.66 23.12,25.66 23.12,25.51 23.12,25.36 23.12,25.21 
	23.12,25.05 23.28,24.9 23.28,24.75 23.43,24.75 23.58,24.75 23.74,24.75 23.74,24.59 23.89,24.44 24.04,24.44 24.04,24.59 
	24.04,24.75 24.04,24.9 23.89,24.9 23.74,25.05 23.58,25.05 23.58,25.21 23.58,25.36 23.74,25.51 23.89,25.51 23.89,25.36 
	24.04,25.36 24.2,25.36 24.35,25.21 24.5,25.21 24.66,25.21 24.81,25.21 24.96,25.21 25.11,25.21 25.27,25.21 25.27,25.05 
	25.27,24.9 25.27,24.75 25.42,24.75 25.57,24.75 25.73,24.75 25.73,24.9 25.73,25.05 25.57,25.05 25.57,25.21 25.42,25.21 
	25.42,25.36 25.27,25.51 25.27,25.66 25.11,25.66 24.96,25.66 24.81,25.66 24.81,25.82 24.81,25.97 24.81,26.12 24.96,26.12 
	25.11,26.28 25.27,26.12 25.42,26.12 25.57,26.12 25.73,26.12 26.03,26.28 26.19,26.28 26.49,26.28 26.65,26.28 26.8,26.43 
	26.95,26.43 27.1,26.43 27.1,26.58 27.26,26.58 27.41,26.58 27.56,26.74 27.72,26.74 28.02,26.89 28.18,26.89 28.33,26.89 
	28.64,26.74 28.79,26.58 28.79,26.43 28.79,26.28 28.79,26.12 28.94,26.12 28.94,26.28 29.09,26.28 29.09,26.43 28.94,26.58 
	28.94,26.74 28.94,26.89 28.94,27.04 29.09,27.04 29.25,27.04 29.4,27.04 29.4,26.89 29.55,26.89 29.71,26.89 29.71,26.74 
	29.71,26.58 29.71,26.43 29.86,26.28 30.01,26.28 30.17,26.43 30.32,26.43 30.47,26.28 30.63,26.28 30.78,26.12 30.78,25.97 
	30.93,25.97 30.78,25.82 30.78,25.66 30.63,25.66 30.47,25.66 30.32,25.66 30.32,25.51 30.17,25.51 30.17,25.36 30.32,25.36 
	30.32,25.21 30.32,25.05 30.17,25.05 30.01,25.05 29.86,25.21 29.71,25.21 29.55,25.21 29.4,25.21 29.25,25.21 29.09,25.21 
	29.09,25.05 29.25,25.05 29.25,24.9 29.4,24.9 29.55,24.9 29.86,24.75 30.01,24.75 30.17,24.75 30.32,24.75 30.47,24.75 
	30.63,24.75 30.78,24.9 30.93,25.05 31.39,25.51 31.54,25.82 31.7,25.97 31.7,26.12 31.7,26.28 31.85,26.74 31.85,26.89 
	31.85,27.04 31.85,27.2 32,27.2 32,27.35 32.16,27.35 32.16,27.5 32.31,27.5 32.46,27.5 32.62,27.5 32.62,27.35 32.77,27.2 
	32.77,27.04 32.92,26.89 33.08,26.89 33.23,26.89 33.23,27.04 33.38,27.2 33.53,27.35 33.69,27.35 33.69,27.2 33.69,27.04 
	33.69,26.89 33.69,26.74 33.69,26.58 33.69,26.43 33.69,26.28 33.69,26.12 33.69,25.97 33.84,25.97 33.99,25.97 33.99,26.12 
	33.99,26.28 33.99,26.58 33.99,26.74 33.99,26.89 34.15,26.89 34.3,26.89 34.45,26.89 34.61,26.89 34.76,26.74 34.76,26.28 
	34.91,26.28 35.07,26.28 35.07,26.43 35.22,26.43 35.37,26.43 35.52,26.28 35.68,26.12 35.83,25.97 35.68,25.82 35.52,25.82 
	35.37,25.82 35.22,25.82 35.07,25.66 34.91,25.66 34.91,25.51 35.07,25.36 34.91,25.21 34.76,25.21 34.76,25.36 34.76,25.51 
	34.61,25.51 34.61,25.36 34.61,25.21 34.45,25.05 34.45,24.9 34.45,24.75 34.61,24.59 34.61,24.44 34.76,24.44 34.76,24.29 
	34.91,24.29 35.07,24.29 35.07,24.44 35.22,24.44 35.37,24.44 35.37,24.59 35.22,24.59 35.22,24.75 35.07,24.9 35.22,24.9 
	35.22,25.05 35.37,25.05 35.52,25.21 35.68,25.21 35.68,25.05 35.68,24.9 35.83,24.9 35.83,24.75 36.14,24.75 36.29,24.75 
	36.44,24.59 36.6,24.59 36.6,24.75 36.44,25.05 36.44,25.21 36.6,25.21 36.75,25.21 36.75,25.05 36.9,24.9 36.9,24.75 36.9,24.59 
	37.06,24.59 37.06,24.75 37.21,24.9 37.36,24.9 37.51,24.9 37.51,24.75 37.51,24.59 37.51,24.44 37.36,24.29 37.21,24.29 
	37.06,24.29 36.9,24.29 36.9,24.13 36.9,23.98 37.06,23.98 37.21,23.98 37.21,24.13 37.36,24.13 37.51,24.13 37.67,24.13 
	37.82,24.13 37.97,24.13 38.13,24.29 38.28,24.29 38.43,24.29 38.59,24.44 38.74,24.44 38.89,24.44 39.05,24.44 39.2,24.44 
	39.35,24.44 39.5,24.29 39.66,24.29 39.81,24.29 39.81,24.13 39.96,24.13 40.12,24.13 40.27,24.13 40.42,24.13 40.58,24.13 
	40.73,24.13 40.73,23.98 40.58,23.83 40.58,23.67 40.73,23.67 40.73,23.52 40.73,23.37 40.58,23.37 40.42,23.37 40.42,23.22 
	40.58,23.22 40.58,23.06 40.42,23.06 40.42,22.91 40.58,22.91 40.58,22.76 40.58,22.6 40.73,22.6 40.73,22.45 40.73,22.3 
	40.73,22.14 40.73,21.99 40.73,21.84 40.73,21.68 40.88,21.68 40.88,21.53 41.04,21.53 41.04,21.38 41.19,21.38 41.34,21.38 
	41.34,21.23 41.49,21.07 41.65,21.07 41.8,20.92 41.95,20.92 41.95,20.77 42.11,20.77 42.11,20.61 42.11,20.77 42.11,20.61 
	42.11,20.46 42.26,20.46 42.11,20.46 42.26,20.31 42.26,20.15 42.26,20 42.41,20 42.26,20 42.41,20 42.41,19.85 42.41,19.69 
	42.26,19.69 42.26,19.54 42.11,19.54 42.11,19.39 42.26,19.39 42.26,19.24 42.41,19.24 42.41,19.08 42.26,19.08 42.26,18.93 
	42.26,18.78 42.11,18.62 42.11,18.47 42.11,18.32 41.95,18.32 42.11,18.32 42.11,18.16 42.11,18.01 42.11,17.86 42.26,17.86 
	42.41,17.86 42.41,17.7 42.41,17.55 42.41,17.4 42.41,17.25 42.41,17.09 42.41,16.94 42.41,16.79 42.26,16.79 42.11,16.63 
	41.95,16.48 41.8,16.33 41.65,16.17 41.19,15.71 41.04,15.71 40.88,15.56 40.73,15.56 40.58,15.41 40.58,15.26 40.42,15.26 
	40.27,15.1 40.12,15.1 39.96,14.95 39.81,14.8 39.66,14.8 39.66,14.64 39.66,14.49 39.5,14.49 39.5,14.34 39.66,14.34 39.66,14.18 
	39.81,14.03 39.81,13.88 39.96,13.72 39.96,13.57 39.96,13.42 39.81,13.27 39.81,13.11 39.66,13.11 39.66,12.96 39.5,12.96 
	39.5,12.81 39.66,12.65 39.5,12.65 39.5,12.5 39.35,12.5 39.35,12.35 39.2,12.35 39.05,12.19 38.89,12.19 38.89,12.04 38.74,12.04 
	38.74,11.89 38.74,11.73 38.59,11.73 38.43,11.73 38.43,11.58 38.28,11.43 38.13,11.28 38.13,11.12 37.97,10.97 37.36,10.51 
	37.51,10.2 37.82,9.59 37.97,9.59 37.97,9.44 38.13,9.44 38.28,9.44 38.43,9.44 38.59,9.44 38.74,9.44 38.89,9.44 39.05,9.29 
	39.2,9.29 39.35,9.13 39.35,8.98 39.5,8.98 39.66,8.83 39.66,8.67 39.81,8.67 39.96,8.67 40.12,8.67 40.27,8.52 40.42,8.37 
	40.42,8.21 40.42,8.06 40.42,7.91 40.42,7.75 40.58,7.6 40.58,7.45 40.73,7.45 40.88,7.3 41.04,7.3 41.04,7.14 41.19,7.14 
	41.34,6.99 41.49,6.99 41.65,6.99 41.65,6.84 41.8,6.84 41.8,6.68 41.95,6.68 42.11,6.68 42.26,6.53 42.41,6.38 42.41,6.22 
	42.57,6.22 42.72,6.22 42.87,6.22 42.87,6.07 43.03,6.07 43.18,6.07 43.18,5.92 43.33,5.92 43.33,5.76 43.33,5.61 43.18,5.61 
	43.18,5.46 43.33,5.46 43.48,5.46 43.48,5.31 43.64,5.31 43.64,5.15 43.64,5 43.79,5 43.79,4.85 43.94,4.85 44.1,4.85 44.25,4.85 
	44.4,4.85 44.56,4.69 44.56,4.54 44.71,4.54 44.71,4.39 44.71,4.23 44.86,4.23 45.02,4.23 45.02,4.08 45.02,4.23 45.17,4.23 
	45.17,4.08 45.32,4.08 45.17,4.08 45.32,4.08 45.32,3.93 45.32,3.77 45.47,3.77 45.47,3.62 45.63,3.62 45.78,3.62 45.93,3.47 
	46.09,3.47 46.24,3.47 46.39,3.32 46.55,3.32 46.55,3.16 46.7,3.16 46.7,3.01 46.7,2.86 46.85,2.7 46.85,2.55 46.85,2.4 47.01,2.24 
	47.01,2.09 47.16,2.09 47.16,1.94 47.46,1.94 47.62,1.78 47.92,1.78 48.08,1.78 48.23,1.78 48.38,1.78 48.38,1.94 48.54,1.94 
	48.54,2.09 48.69,2.24 48.84,2.24 49,2.24 49,2.4 49.3,2.4 49.61,2.4 49.76,2.4 49.91,2.4 50.07,2.4 50.22,2.4 50.37,2.24 
	50.53,2.24 50.68,2.09 50.83,1.94 50.99,1.78 51.29,1.78 51.45,1.63 51.6,1.63 51.75,1.63 51.9,1.63 51.9,1.78 52.06,1.78 
	52.06,1.94 52.21,1.94 52.21,2.09 52.36,2.09 52.36,2.24 52.52,2.24 52.67,2.24 52.67,2.4 52.82,2.4 52.98,2.4 52.98,2.55 
	53.13,2.55 53.13,2.7 53.28,2.7 53.28,2.86 53.28,3.01 53.28,3.16 53.44,3.16 53.59,3.16 53.74,3.16 53.89,3.16 54.05,3.16 
	54.05,3.32 54.2,3.32 54.35,3.32 54.51,3.32 54.51,3.47 54.51,3.62 54.66,3.62 54.81,3.62 54.97,3.62 54.97,3.47 55.12,3.47 
	55.12,3.32 55.27,3.32 55.27,3.16 55.43,3.16 55.43,3.01 55.43,3.16 55.58,3.16 55.58,3.32 55.73,3.47 55.73,3.62 55.73,3.77 
	55.88,3.77 55.88,3.93 55.73,4.08 55.88,4.08 55.88,4.23 55.88,4.39 56.04,4.39 56.04,4.23 56.04,4.39 56.19,4.39 56.34,4.39 
	56.34,4.23 56.5,4.23 56.5,4.39 56.65,4.39 56.65,4.54 56.8,4.54 56.96,4.54 56.96,4.69 57.11,4.69 57.26,4.69 57.42,4.69 
	57.42,4.54 57.57,4.54 57.57,4.39 57.72,4.39 57.87,4.39 57.87,4.23 58.03,4.23 58.03,4.08 58.18,4.08 58.18,3.93 58.33,3.93 
	58.18,3.93 58.33,3.93 58.49,3.93 58.64,3.93 58.64,3.77 58.79,3.77 58.79,3.93 58.95,3.93 58.95,4.08 59.1,4.08 59.25,4.08 
	59.41,4.08 59.41,4.23 59.41,4.39 59.56,4.39 59.71,4.39 59.86,4.39 59.86,4.54 59.86,4.39 59.86,4.54 60.02,4.54 59.86,4.39 
	60.02,4.39 60.17,4.39 60.17,4.54 60.17,4.69 60.17,4.54 60.32,4.54 60.32,4.69 60.48,4.69 60.63,4.85 60.78,4.85 60.94,4.85 
	61.09,4.85 61.24,4.85 61.4,4.85 61.55,4.85 61.7,4.85 61.85,4.69 62.01,4.54 62.16,4.39 62.31,4.23 62.31,4.08 62.47,4.08 
	62.47,3.93 62.47,3.77 62.62,3.77 62.62,3.62 62.77,3.62 62.77,3.77 62.93,3.77 63.08,3.77 63.23,3.77 63.23,3.62 63.39,3.62 
	63.54,3.62 63.54,3.77 63.54,3.62 63.69,3.77 63.84,3.77 63.84,3.62 63.84,3.77 64,3.77 64,3.93 64.15,3.93 64.3,3.93 64.46,3.93 
	64.61,3.93 64.76,3.93 64.92,3.93 65.07,3.93 65.22,3.93 65.38,3.93 65.38,3.77 65.53,3.77 65.53,3.93 65.53,3.77 65.68,3.77 
	65.83,3.77 65.99,3.77 65.99,3.93 66.14,3.93 66.14,4.08 66.14,4.23 66.29,4.23 66.29,4.39 66.29,4.23 66.45,4.23 66.45,4.39 
	66.45,4.54 66.6,4.54 66.6,4.69 66.6,4.85 66.6,5 66.75,5.15 66.6,5.15 66.6,5.31 66.6,5.46 66.6,5.61 66.45,5.61 66.45,5.76 
	66.45,5.92 66.45,6.07 66.29,6.07 66.29,6.22 66.45,6.22 66.45,6.38 66.6,6.38 66.6,6.22 66.75,6.22 66.75,6.38 66.75,6.53 
	66.75,6.68 66.75,6.84 66.75,6.99 66.75,7.14 66.75,7.3 66.91,7.45 66.91,7.6 66.75,7.75 66.75,7.91 66.75,8.06 66.91,8.06 
	67.06,8.06 67.06,8.21 67.06,8.37 67.21,8.37 67.37,8.37 67.52,8.21 67.67,8.21 67.67,8.06 67.67,7.91 67.82,7.91 67.98,7.91 
	67.98,8.06 67.98,7.91 68.13,7.91 68.13,7.75 68.13,7.91 68.28,7.91 68.28,7.75 68.28,7.91 68.28,7.75 68.44,7.75 68.44,7.91 
	68.59,7.91 68.59,7.75 68.74,7.75 68.74,7.91 68.74,7.75 68.9,7.75 69.05,7.75 68.9,7.75 68.9,7.6 69.05,7.6 69.05,7.45 69.05,7.6 
	69.2,7.6 69.2,7.45 69.2,7.3 69.05,7.3 69.2,7.14 69.05,7.14 69.2,7.14 69.2,6.99 69.2,6.84 69.2,6.68 69.36,6.68 69.36,6.84 
	69.36,6.68 69.51,6.68 69.36,6.68 69.51,6.68 69.66,6.68 69.82,6.68 69.82,6.84 69.82,6.68 69.97,6.68 69.97,6.53 70.12,6.53 
	70.27,6.53 70.27,6.68 70.43,6.68 70.58,6.53 70.58,6.68 70.58,6.53 70.73,6.53 70.73,6.38 70.89,6.38 70.73,6.38 70.73,6.22 
	70.89,6.22 70.89,6.07 70.73,6.07 70.89,6.07 71.04,6.07 71.04,6.22 71.19,6.22 71.19,6.07 71.19,6.22 71.35,6.22 71.35,6.07 
	71.5,6.07 71.5,5.92 71.5,5.76 71.65,5.76 71.5,5.61 71.65,5.61 71.65,5.76 71.65,5.61 71.81,5.61 71.96,5.61 71.96,5.46 
	72.11,5.46 72.26,5.46 72.26,5.61 72.26,5.46 72.42,5.46 72.42,5.61 72.42,5.46 72.57,5.46 72.57,5.31 72.72,5.31 72.88,5.31 
	72.88,5.46 72.88,5.31 73.03,5.31 73.18,5.31 73.18,5.15 73.34,5.15 73.49,5.15 73.64,5.15 73.8,5 73.8,5.15 73.95,5.15 73.95,5 
	74.1,5 74.25,5 74.25,4.85 74.25,5 74.25,4.85 74.41,4.85 74.41,5 74.56,5 74.71,5 74.87,5 74.87,5.15 75.02,5.15 75.17,5.15 
	75.02,5.15 75.02,5 75.17,5 75.33,5 75.33,4.85 75.48,4.85 75.63,4.85 75.79,4.85 75.79,4.69 75.94,4.69 75.79,4.69 75.79,4.54 
	75.79,4.39 75.79,4.23 75.79,4.08 75.79,3.93 75.94,3.93 76.09,3.93 76.09,4.08 76.09,3.93 76.24,3.93 76.4,3.93 76.55,3.93 
	76.55,3.77 76.4,3.77 76.55,3.77 76.55,3.62 76.55,3.77 76.7,3.77 76.7,3.62 76.86,3.62 76.86,3.47 76.86,3.62 77.01,3.62 
	77.16,3.62 77.16,3.47 77.16,3.62 77.32,3.62 77.32,3.47 77.47,3.47 77.62,3.47 77.62,3.32 77.78,3.32 77.93,3.32 77.93,3.16 
	78.08,3.16 78.23,3.16 78.23,3.32 78.23,3.47 78.39,3.47 78.54,3.47 78.69,3.47 78.69,3.62 78.85,3.62 78.85,3.77 79,3.77 79,3.93 
	79,4.08 79,3.93 79,4.08 79.15,4.08 79,4.08 79.15,4.08 79.15,4.23 79.31,4.23 79.31,4.39 79.46,4.39 79.46,4.54 79.61,4.54 
	79.61,4.39 79.61,4.54 79.77,4.54 79.77,4.39 79.92,4.39 79.92,4.54 80.07,4.54 80.22,4.54 80.22,4.39 80.38,4.39 80.53,4.39 
	80.53,4.54 80.68,4.54 80.84,4.54 80.99,4.54 80.99,4.39 81.14,4.39 81.14,4.23 81.3,4.23 81.45,4.23 81.6,4.23 81.6,4.08 
	81.76,4.08 81.91,4.08 81.91,3.93 81.91,3.77 82.06,3.77 82.22,3.77 82.22,3.93 82.37,3.77 82.37,3.93 82.52,3.93 82.67,3.93 
	82.83,3.93 82.83,4.08 82.83,4.23 82.98,4.23 83.13,4.23 83.13,4.39 83.29,4.39 83.44,4.39 83.44,4.54 83.59,4.54 83.75,4.54 
	83.9,4.54 84.05,4.54 84.05,4.39 84.05,4.23 84.2,4.23 84.2,4.08 84.36,4.08 84.36,3.93 84.51,3.93 84.66,3.93 84.66,4.08 
	84.82,4.08 84.97,4.08 85.12,4.08 85.28,3.93 85.43,3.77 85.58,3.77 85.74,3.77 85.89,3.77 86.04,3.77 86.2,3.77 86.35,3.77 
	86.5,3.77 86.5,3.62 86.65,3.62 86.65,3.47 86.81,3.32 86.81,3.16 86.96,3.01 87.11,3.01 87.73,2.55 87.88,2.55 87.88,2.4 
	87.88,2.24 87.88,2.09 87.88,1.94 88.03,1.94 88.03,1.78 88.03,1.63 88.03,1.48 88.03,1.33 88.03,1.17 88.03,1.02 88.18,0.87 
	88.18,0.56 88.34,0.56 88.49,0.56 88.64,0.56 88.64,0.71 88.8,0.71 88.95,0.87 88.95,1.02 89.1,1.17 89.26,1.17 89.72,1.78 
	90.02,2.24 90.18,2.4 90.18,2.55 90.18,2.7 90.18,2.86 90.18,3.01 90.33,3.16 90.33,3.32 90.33,3.47 90.33,3.62 90.33,3.77 
	90.33,3.93 90.33,4.08 90.33,4.23 90.48,4.39 90.79,4.69 90.79,4.85 90.79,5 90.94,5 90.94,5.15 90.94,5.31 90.79,5.46 90.79,5.61 
	90.79,5.76 90.79,5.92 90.79,6.07 90.79,6.22 90.79,6.38 90.79,6.53 90.79,6.68 90.63,6.84 90.63,7.14 90.63,7.3 90.63,7.45 
	90.63,7.6 90.63,7.75 90.63,7.91 90.79,8.06 90.79,8.21 90.94,8.37 90.94,8.52 91.09,8.67 90.94,8.83 90.94,8.98 90.94,9.13 
	91.09,9.13 91.09,9.29 91.09,9.44 91.09,9.59 91.09,9.74 91.09,9.9 91.09,10.05 91.09,10.2 91.25,10.36 91.25,10.51 91.4,10.66 
	91.55,10.82 91.71,10.97 91.71,11.12 91.71,11.28 91.71,11.43 91.71,11.58 91.71,11.73 91.86,11.89 92.01,12.04 92.01,12.19 
	92.01,12.35 91.86,12.5 91.71,12.5 91.55,12.65 91.4,12.81 91.4,12.96 91.25,12.96 91.25,13.11 91.4,13.11 91.55,13.27 91.71,13.27 
	91.86,13.27 92.01,13.27 92.17,13.27 92.32,13.42 92.47,13.42 92.62,13.42 92.78,13.57 92.93,13.57 93.08,13.72 93.08,13.57 
	93.24,13.57 93.39,13.57 93.54,13.57 "/>
</svg>
