<?xml version="1.0" encoding="utf-8"?>
<!-- Generator: Adobe Illustrator 24.2.1, SVG Export Plug-In . SVG Version: 6.00 Build 0)  -->
<svg version="1.1" id="Layer_1" xmlns="http://www.w3.org/2000/svg" xmlns:xlink="http://www.w3.org/1999/xlink" x="0px" y="0px"
	 viewBox="0 0 97.23 97.23" style="enable-background:new 0 0 97.23 97.23;" xml:space="preserve">
<style type="text/css">
	.st0{fill-rule:evenodd;clip-rule:evenodd;}
</style>
<polygon class="st0" points="25.16,0.85 25.16,0.97 25.16,1.09 25.16,1.22 25.28,1.34 25.28,1.47 25.41,1.47 25.53,1.59 25.53,1.72 
	25.41,1.72 25.28,1.84 25.16,1.84 25.03,1.97 24.91,1.97 24.91,2.09 25.03,2.21 25.03,2.34 25.16,2.46 25.28,2.59 25.41,2.59 
	25.53,2.71 25.66,2.71 25.66,2.84 25.78,2.84 25.9,2.71 26.03,2.71 26.15,2.71 26.28,2.71 26.4,2.71 26.4,2.84 26.53,2.84 
	26.65,2.96 26.65,3.08 26.77,3.21 26.9,3.33 27.02,3.33 27.15,3.46 27.27,3.46 27.4,3.58 27.65,3.83 27.65,3.95 27.65,4.08 
	27.65,4.2 27.77,4.33 28.02,4.45 28.14,4.45 28.27,4.45 28.39,4.45 28.39,4.33 28.52,4.2 28.39,4.2 28.39,4.08 28.39,3.95 
	28.39,3.83 28.39,3.71 28.52,3.58 28.64,3.58 28.76,3.46 28.89,3.58 28.89,3.71 29.01,3.83 28.89,3.83 28.89,3.95 28.89,4.08 
	29.01,4.08 29.14,4.2 29.26,4.33 29.39,4.33 29.51,4.45 29.63,4.45 29.63,4.58 29.76,4.58 29.76,4.7 29.76,4.83 29.76,5.07 
	29.76,5.2 29.76,5.32 29.76,5.45 29.76,5.57 29.88,5.57 29.88,5.7 29.88,5.82 30.01,6.07 30.13,6.19 30.26,6.19 30.38,6.07 
	30.51,6.07 30.63,6.19 30.88,6.19 31,6.19 31.13,6.19 31.25,6.07 31.38,6.07 31.5,5.94 31.62,5.94 31.75,6.07 31.87,6.07 32,6.07 
	32.12,6.07 32.12,6.19 32,6.32 31.87,6.32 31.75,6.44 31.75,6.57 31.62,6.69 31.62,6.81 31.5,6.81 31.25,6.69 31.13,6.69 31,6.69 
	30.88,6.81 30.75,6.94 30.75,7.06 30.88,7.31 30.88,7.44 30.88,7.56 30.88,7.69 30.88,7.81 30.88,7.93 30.88,8.06 31,8.18 
	31.13,8.31 31.13,8.43 31.25,8.56 31.25,8.68 31.13,8.8 31.13,8.93 31,8.93 31,9.05 31,9.18 31.13,9.3 31.13,9.43 31.25,9.43 
	31.38,9.3 31.38,9.18 31.38,9.05 31.38,8.93 31.5,8.93 31.62,8.93 31.87,8.8 32,8.8 32.12,8.8 32.12,9.05 32.25,9.18 32.25,9.3 
	32.25,9.43 32.25,9.55 32.12,9.55 32.12,9.67 32.12,9.8 32.25,9.8 32.37,9.8 32.62,9.8 32.74,9.67 32.87,9.8 32.99,9.8 33.12,9.67 
	33.24,9.55 33.24,9.43 33.37,9.3 33.37,9.18 33.37,9.05 33.49,9.05 33.49,8.93 33.61,8.93 33.74,8.93 33.74,9.05 33.86,9.05 
	33.86,9.18 33.99,9.18 33.99,9.3 34.11,9.43 34.11,9.55 33.99,9.67 33.99,9.8 33.86,9.92 33.74,9.92 33.74,10.05 33.74,10.17 
	33.61,10.3 33.61,10.54 33.61,10.67 33.74,10.67 33.99,10.79 34.11,10.79 34.24,10.79 34.36,10.79 34.48,10.67 34.61,10.54 
	34.73,10.54 34.86,10.42 34.98,10.3 35.11,10.3 35.11,10.17 35.23,10.17 35.23,10.3 35.35,10.3 35.48,10.3 35.6,10.42 35.73,10.42 
	35.85,10.54 36.1,10.54 36.23,10.67 36.23,10.79 36.35,10.79 36.47,10.92 36.6,11.04 36.72,11.04 36.72,11.17 36.6,11.29 
	36.72,11.42 36.85,11.42 37.34,11.17 37.47,11.17 37.59,11.17 37.59,11.29 37.72,11.42 37.72,11.54 37.72,11.66 37.72,11.91 
	37.72,12.04 37.72,12.16 37.84,12.16 37.84,12.29 37.97,12.29 37.97,12.41 38.09,12.41 38.21,12.41 38.34,12.41 38.46,12.41 
	38.59,12.53 38.71,12.53 38.84,12.66 38.96,12.66 39.09,12.78 39.21,12.78 39.33,12.91 39.46,13.03 39.46,13.16 39.58,13.16 
	39.58,13.28 39.71,13.28 39.71,13.4 39.71,13.28 39.83,13.28 39.96,13.16 40.08,13.16 40.08,13.03 40.2,13.03 40.2,12.78 
	40.08,12.66 40.08,12.53 39.96,12.53 39.83,12.53 39.83,12.41 39.83,12.29 39.96,12.16 39.96,12.04 40.08,11.91 40.08,11.79 
	40.2,11.79 40.2,11.66 40.33,11.42 40.33,11.17 40.33,11.04 40.33,10.92 40.45,10.79 40.45,10.67 40.45,10.54 40.58,10.42 
	40.58,10.3 40.7,10.3 40.7,10.17 40.83,10.17 40.83,10.05 40.95,10.05 40.95,10.17 40.95,10.3 40.95,10.54 40.95,10.79 40.95,10.92 
	40.95,11.04 40.83,11.29 40.83,11.42 40.7,11.42 40.58,11.54 40.58,11.66 40.45,11.79 40.45,11.91 40.45,12.04 40.45,12.16 
	40.33,12.29 40.33,12.41 40.45,12.53 40.45,12.66 40.58,12.66 40.58,12.78 40.7,12.78 40.83,12.66 40.95,12.66 41.2,12.53 
	41.32,12.41 41.45,12.29 41.57,12.16 41.7,11.91 41.82,11.91 41.95,11.79 42.07,11.79 42.19,11.79 42.19,11.91 42.19,12.04 
	42.19,12.16 42.07,12.41 41.95,12.66 41.82,12.78 41.82,13.03 41.7,13.03 41.7,13.16 41.7,13.28 41.7,13.4 41.7,13.53 41.7,13.65 
	41.82,13.78 41.95,13.9 42.07,14.03 42.19,14.15 42.32,14.28 42.32,14.4 42.44,14.52 42.57,14.52 42.57,14.65 42.57,14.77 
	42.44,14.9 42.32,14.9 42.19,14.9 42.07,14.77 41.95,14.77 41.7,14.77 41.57,14.77 41.45,14.77 41.32,14.77 41.2,14.77 41.2,14.9 
	41.07,14.9 41.07,15.02 40.95,15.02 40.95,15.15 40.95,15.27 41.07,15.39 41.07,15.52 41.2,15.64 41.32,15.77 41.32,15.89 
	41.57,16.02 41.57,16.14 41.57,16.26 41.7,16.26 41.7,16.51 41.7,16.64 41.82,16.76 41.82,16.89 41.95,16.89 42.07,17.01 
	42.19,17.01 42.32,17.14 42.44,17.14 42.57,17.14 42.57,17.26 42.57,17.38 42.57,17.51 42.57,17.63 42.69,17.76 42.82,17.88 
	42.82,18.01 42.94,18.01 43.06,18.13 43.06,18.25 43.19,18.25 43.19,18.38 43.19,18.25 43.31,18.25 43.31,18.13 43.44,18.13 
	43.44,18.01 43.56,18.01 43.56,17.88 43.69,17.88 43.81,17.88 43.93,17.76 44.06,17.76 44.06,17.63 44.18,17.38 44.18,17.14 
	44.31,17.14 44.31,17.01 44.18,17.01 44.06,16.89 43.93,16.89 43.81,16.89 43.69,16.64 43.56,16.51 43.44,16.39 43.31,16.26 
	43.19,16.26 43.06,16.26 43.06,16.14 43.06,16.02 43.06,15.89 43.19,15.77 43.31,15.77 43.44,15.77 43.56,15.77 43.56,15.89 
	43.69,16.02 43.93,16.14 44.06,16.14 44.18,16.14 44.31,16.14 44.43,16.14 44.56,16.14 44.68,16.14 44.81,16.14 44.93,16.14 
	45.05,16.14 45.18,16.14 45.3,16.14 45.43,16.14 45.55,16.14 45.68,16.26 45.8,16.14 45.92,16.14 46.05,16.14 46.17,16.14 
	46.3,16.02 46.42,16.02 46.42,15.89 46.55,15.89 46.55,15.77 46.67,15.64 46.67,15.52 46.79,15.39 46.92,15.27 47.04,15.27 
	47.17,15.15 47.29,15.15 47.29,15.27 47.42,15.27 47.54,15.27 47.67,15.27 47.79,15.27 47.91,15.27 48.04,15.27 48.04,15.39 
	48.16,15.39 48.29,15.52 48.29,15.64 48.16,15.77 48.16,15.89 48.04,16.14 47.91,16.26 47.91,16.39 47.91,16.51 48.04,16.51 
	48.16,16.51 48.29,16.51 48.41,16.51 48.41,16.39 48.41,16.14 48.54,16.02 48.54,15.89 48.54,15.77 48.66,15.77 48.78,15.64 
	48.91,15.64 49.03,15.64 49.03,15.52 49.16,15.52 49.41,15.52 49.53,15.39 49.65,15.39 49.78,15.39 49.9,15.39 50.03,15.39 
	50.15,15.39 50.28,15.39 50.4,15.39 50.53,15.39 50.65,15.27 50.77,15.27 50.9,15.39 50.9,15.52 50.9,15.64 50.9,15.77 50.77,15.77 
	50.65,15.89 50.53,15.89 50.53,16.02 50.53,16.14 50.53,16.26 50.53,16.51 50.65,16.64 50.65,16.76 50.65,16.89 50.65,17.14 
	50.65,17.26 50.53,17.51 50.53,17.63 50.53,17.76 50.65,17.76 50.77,17.76 50.77,17.63 50.9,17.51 50.9,17.38 51.02,17.38 
	51.02,17.51 51.15,17.51 51.27,17.51 51.27,17.38 51.4,17.26 51.4,17.14 51.52,17.14 51.52,17.01 51.4,16.89 51.52,16.89 
	51.64,16.89 51.77,16.89 51.89,17.01 52.02,17.14 52.14,17.14 52.02,17.14 52.02,17.26 52.02,17.38 52.02,17.51 52.02,17.63 
	52.02,17.88 52.14,18.01 52.14,18.13 52.14,18.25 52.14,18.38 52.27,18.5 52.27,18.63 52.27,18.75 52.14,18.88 52.14,19 
	52.02,19.12 52.02,19.25 51.89,19.37 51.89,19.5 51.77,19.62 51.77,19.75 51.89,19.87 52.02,19.87 52.14,20 52.27,20 52.39,20 
	52.51,20 52.51,20.12 52.64,20.12 52.64,20.24 52.64,20.37 52.76,20.37 52.89,20.49 52.89,20.62 53.01,20.62 53.01,20.74 
	53.14,20.87 53.14,20.99 53.14,21.11 53.26,21.24 53.39,21.36 53.39,21.49 53.51,21.49 53.39,21.61 53.39,21.74 53.26,21.74 
	53.26,21.86 53.39,21.86 53.39,21.98 53.51,22.11 53.63,22.23 53.88,22.23 54.01,22.36 54.13,22.36 54.26,22.48 54.38,22.61 
	54.38,22.73 54.63,22.86 54.75,22.86 54.88,22.86 54.88,22.73 55,22.61 55,22.48 55,22.36 55.13,22.36 55.13,22.23 55.25,22.23 
	55.37,22.11 55.5,22.11 55.62,22.11 55.75,22.11 55.75,22.23 55.87,22.23 55.75,22.23 55.75,22.36 55.62,22.36 55.5,22.36 
	55.5,22.48 55.5,22.61 55.62,22.61 55.75,22.73 55.87,22.98 56,22.98 56,23.1 56.12,23.1 56.25,23.1 56.25,22.98 56.25,22.86 
	56.25,22.73 56.37,22.61 56.49,22.61 56.62,22.48 56.62,22.36 56.74,22.36 56.74,22.23 56.74,22.11 56.62,21.98 56.62,21.86 
	56.74,21.86 56.74,21.74 56.87,21.74 56.99,21.61 57.12,21.74 57.24,21.74 57.36,21.86 57.49,21.86 57.61,21.86 57.61,21.74 
	57.61,21.61 57.61,21.49 57.61,21.36 57.61,21.24 57.61,21.11 57.61,20.99 57.49,20.87 57.49,20.74 57.49,20.62 57.61,20.49 
	57.61,20.37 57.74,20.37 57.74,20.24 57.86,20.24 57.99,20.24 58.23,20.24 58.36,20.24 58.48,20.24 58.61,20.24 58.73,20.24 
	58.73,20.37 58.73,20.49 58.86,20.49 58.86,20.62 58.98,20.74 58.98,20.87 58.98,20.99 58.98,21.11 58.98,21.24 58.86,21.24 
	58.73,21.24 58.61,21.24 58.48,21.24 58.36,21.24 58.36,21.36 58.23,21.36 58.23,21.49 58.23,21.61 58.36,21.74 58.36,21.86 
	58.61,21.98 58.61,22.11 58.61,22.23 58.61,22.36 58.61,22.48 58.61,22.61 58.73,22.61 58.86,22.73 58.98,22.86 58.98,22.98 
	58.98,23.1 59.11,23.23 59.11,23.35 59.11,23.48 59.23,23.6 59.23,23.73 59.23,23.85 59.23,23.97 59.35,23.97 59.48,24.1 59.6,24.1 
	59.6,23.97 59.73,23.97 59.6,23.85 59.6,23.73 59.73,23.73 59.73,23.6 59.73,23.48 59.6,23.35 59.6,23.23 59.73,23.23 59.85,23.23 
	59.98,23.23 60.1,23.23 60.22,23.1 60.35,23.1 60.47,23.23 60.6,23.23 60.85,23.35 60.97,23.35 61.1,23.48 61.22,23.6 61.34,23.6 
	61.47,23.73 61.47,23.85 61.59,23.85 61.59,23.97 61.72,23.97 61.72,24.1 61.72,24.22 61.72,24.35 61.72,24.47 61.72,24.6 
	61.59,24.6 61.22,24.6 61.1,24.6 61.1,24.72 61.22,24.84 61.22,24.97 61.22,25.09 61.1,25.22 61.1,25.34 61.22,25.47 61.34,25.47 
	61.47,25.34 61.59,25.34 61.72,25.22 61.84,25.22 61.84,25.09 61.97,25.09 61.97,24.97 61.97,24.72 62.09,24.72 62.21,24.72 
	62.21,24.84 62.21,24.97 62.34,25.34 62.34,25.47 62.46,25.59 62.46,25.84 62.46,25.96 62.46,26.09 62.46,26.21 62.46,26.34 
	62.46,26.46 62.34,26.46 62.21,26.46 62.09,26.34 62.09,26.09 61.97,26.09 61.84,26.09 61.84,26.21 61.84,26.34 61.97,26.34 
	61.97,26.46 62.09,26.46 62.34,26.83 62.34,26.96 62.46,27.08 62.59,27.08 62.84,27.33 63.08,27.46 63.08,27.7 63.21,27.83 
	63.21,27.95 63.08,27.95 62.96,27.95 62.71,27.95 62.59,28.08 62.71,28.2 62.84,28.2 62.96,28.08 63.08,28.2 63.21,28.33 
	63.21,28.45 63.08,28.58 62.96,28.58 62.84,28.58 62.59,28.58 62.46,28.58 62.46,28.7 62.46,28.82 62.46,28.95 62.59,29.07 
	62.59,29.2 62.59,29.32 62.71,29.32 62.71,29.45 62.71,29.57 62.71,29.69 62.84,29.69 62.84,29.57 62.96,29.57 63.08,29.69 
	63.08,29.57 63.21,29.57 63.33,29.57 63.46,29.57 63.46,29.45 63.58,29.32 63.71,29.32 63.58,29.32 63.58,29.45 63.58,29.57 
	63.71,29.57 63.58,29.57 63.58,29.69 63.46,29.69 63.46,29.82 63.33,29.94 63.21,29.94 63.21,30.07 63.33,30.07 63.46,30.07 
	63.58,30.07 63.71,30.19 63.58,30.19 63.46,30.19 63.33,30.19 63.46,30.19 63.46,30.32 63.33,30.32 63.21,30.32 63.21,30.19 
	63.33,30.19 63.21,30.07 63.08,30.07 63.08,30.19 62.96,30.19 62.96,30.32 62.96,30.44 63.08,30.44 63.08,30.56 62.96,30.56 
	62.84,30.44 62.84,30.56 62.84,30.69 62.71,30.69 62.71,30.81 62.84,30.81 62.84,30.94 62.71,30.94 62.71,31.06 62.84,31.06 
	62.84,31.19 62.96,31.19 62.84,31.19 62.84,31.31 62.84,31.44 62.71,31.44 62.71,31.56 62.71,31.68 62.84,31.68 62.71,31.81 
	62.84,31.81 62.71,31.81 62.59,31.81 62.59,31.68 62.59,31.81 62.59,31.93 62.46,31.81 62.46,31.93 62.46,32.06 62.59,31.93 
	62.59,32.06 62.59,32.18 62.46,32.18 62.46,32.06 62.46,32.18 62.34,32.18 62.34,32.06 62.21,32.06 62.21,32.18 62.09,32.31 
	61.97,32.18 61.97,32.31 61.84,32.31 61.84,32.43 61.72,32.43 61.72,32.31 61.59,32.43 61.59,32.55 61.47,32.55 61.34,32.55 
	61.34,32.68 61.22,32.68 61.1,32.55 61.1,32.43 60.97,32.43 60.97,32.31 61.1,32.31 61.1,32.18 60.97,32.18 60.85,32.06 
	60.85,32.18 60.72,32.18 60.72,32.31 60.72,32.43 60.6,32.43 60.6,32.31 60.6,32.43 60.47,32.43 60.6,32.43 60.72,32.43 60.6,32.43 
	60.6,32.55 60.47,32.55 60.35,32.55 60.22,32.55 60.22,32.43 60.1,32.43 60.1,32.31 60.1,32.43 60.1,32.55 59.98,32.55 59.85,32.55 
	59.85,32.68 59.98,32.68 60.1,32.68 60.1,32.55 60.22,32.55 60.22,32.68 60.35,32.68 60.35,32.8 60.22,32.68 60.22,32.8 60.35,32.8 
	60.35,32.93 60.47,32.93 60.35,32.93 60.35,33.05 60.35,33.18 60.35,33.3 60.35,33.18 60.22,33.18 60.22,33.3 60.22,33.42 
	60.1,33.42 60.22,33.42 60.1,33.55 60.1,34.05 60.22,34.17 60.22,34.29 60.35,34.29 60.47,34.29 60.47,34.42 60.6,34.42 60.6,34.54 
	60.6,34.79 60.6,34.92 60.72,34.92 60.85,34.92 60.97,34.92 61.22,35.04 61.22,35.17 61.22,35.29 61.34,35.29 61.34,35.41 
	61.47,35.41 61.47,35.54 61.47,35.66 61.59,35.79 61.59,35.91 61.72,35.91 61.72,36.04 61.72,36.16 61.72,36.28 61.72,36.41 
	61.72,36.53 61.72,36.66 61.72,36.78 61.59,36.78 61.59,36.91 61.59,37.03 61.59,37.15 61.59,37.28 61.59,37.4 61.47,37.4 
	61.47,37.53 61.34,37.53 61.22,37.53 61.22,37.65 61.1,37.65 60.97,37.65 60.85,37.78 60.72,37.78 60.6,37.9 60.47,38.03 
	60.47,38.15 60.47,38.27 60.47,38.4 60.47,38.52 60.47,38.65 60.47,38.77 60.6,38.9 60.6,39.27 60.6,39.52 60.6,39.64 60.72,40.01 
	60.85,40.26 60.85,40.39 60.85,40.51 60.97,40.64 60.97,40.76 60.85,40.89 60.72,40.89 60.72,41.01 60.6,41.13 60.47,41.13 
	60.47,41.26 60.47,41.38 60.47,41.51 60.47,41.63 60.35,41.63 60.35,41.76 60.35,41.88 60.35,42 60.35,42.13 60.22,42.13 
	60.22,42.25 60.1,42.25 60.1,42.38 59.98,42.5 59.85,42.5 59.85,42.63 59.73,42.63 59.6,42.75 59.48,42.75 59.48,42.87 59.35,42.87 
	59.35,43 59.35,43.25 59.35,43.37 59.35,43.5 59.35,43.62 59.35,43.75 59.23,43.75 59.11,43.75 58.98,43.75 58.86,43.75 
	58.86,43.87 58.86,43.99 58.98,44.12 58.98,44.24 58.98,44.37 58.98,44.49 58.98,44.62 59.11,44.74 59.11,44.86 59.11,44.99 
	59.23,45.11 59.23,45.24 59.35,45.36 59.35,45.49 59.35,45.61 59.35,45.73 59.48,45.73 59.48,45.86 59.48,45.98 59.6,45.98 
	59.73,45.98 59.73,46.11 59.85,46.11 59.85,46.23 59.73,46.23 59.85,46.23 59.98,46.23 59.98,46.36 59.98,46.48 60.1,46.48 
	59.98,46.48 60.1,46.48 60.22,46.61 60.22,46.73 60.35,46.73 60.35,46.85 60.22,46.85 60.22,46.98 60.35,46.98 60.35,47.1 
	60.22,47.1 60.22,47.23 60.22,47.35 60.35,47.35 60.35,47.48 60.47,47.48 60.6,47.6 60.72,47.6 60.72,47.72 60.85,47.85 
	60.85,47.97 60.85,48.1 60.97,48.1 60.85,48.22 60.97,48.22 60.97,48.35 60.85,48.35 60.97,48.47 60.85,48.47 60.97,48.47 
	60.97,48.59 61.1,48.59 61.1,48.72 61.22,48.72 61.22,48.84 61.34,48.84 61.34,48.97 61.47,48.97 61.47,49.09 61.47,49.22 
	61.59,49.22 61.72,49.22 61.72,49.34 61.72,49.47 61.84,49.47 61.84,49.59 61.84,49.71 61.97,49.71 61.97,49.84 62.09,49.84 
	62.09,49.96 62.09,50.09 62.21,50.09 62.21,50.21 62.34,50.21 62.34,50.09 62.34,50.21 62.46,50.21 62.46,50.34 62.46,50.46 
	62.34,50.46 62.34,50.71 62.46,50.71 62.59,50.71 62.59,50.83 62.71,50.83 62.71,50.71 62.84,50.71 62.84,50.83 62.84,50.71 
	62.96,50.71 62.96,50.83 63.08,50.83 63.08,51.08 63.08,51.21 63.08,51.33 63.21,51.33 63.33,51.33 63.33,51.45 63.46,51.45 
	63.46,51.58 63.46,51.7 63.58,51.58 63.71,51.58 63.71,51.45 63.58,51.45 63.46,51.45 63.46,51.33 63.46,51.21 63.46,51.08 
	63.58,51.08 63.58,50.96 63.71,50.96 63.71,50.83 63.83,50.83 63.71,50.71 63.71,50.58 63.71,50.46 63.71,50.34 63.83,50.34 
	63.83,50.46 63.96,50.46 64.08,50.46 64.08,50.58 64.2,50.71 64.33,50.83 64.45,50.83 64.45,50.96 64.58,50.96 64.7,50.96 
	64.7,51.08 64.7,51.21 64.58,51.33 64.45,51.45 64.45,51.58 64.58,51.58 64.58,51.7 64.7,51.7 64.83,51.7 64.95,51.7 65.07,51.7 
	65.07,51.58 65.2,51.45 65.2,51.33 65.32,51.33 65.32,51.21 65.32,51.08 65.32,50.96 65.32,50.83 65.45,50.71 65.45,50.58 
	65.32,50.58 65.32,50.46 65.2,50.46 65.07,50.46 65.07,50.58 65.07,50.71 64.95,50.71 64.83,50.71 64.83,50.58 64.83,50.46 
	64.95,50.21 65.07,50.21 65.07,50.09 65.07,49.96 64.95,49.96 64.83,49.96 64.83,49.84 64.7,49.84 64.7,49.71 64.83,49.71 
	64.95,49.71 64.95,49.59 65.07,49.59 65.07,49.71 65.2,49.71 65.32,49.84 65.32,49.96 65.45,49.96 65.45,49.84 65.57,49.71 
	65.7,49.71 65.82,49.71 65.94,49.71 66.07,49.71 66.07,49.84 66.07,49.96 66.07,50.09 65.94,50.21 65.94,50.34 65.82,50.34 
	65.94,50.46 66.07,50.46 66.19,50.46 66.32,50.46 66.32,50.34 66.44,50.34 66.44,50.21 66.44,50.09 66.57,50.09 66.57,49.96 
	66.57,50.09 66.69,50.09 66.82,50.09 66.94,50.09 66.94,49.96 67.06,49.96 67.06,49.84 67.06,49.96 67.19,49.96 67.19,50.09 
	67.19,50.21 67.06,50.34 67.06,50.46 67.19,50.58 67.19,50.71 67.31,50.71 67.31,50.83 67.31,50.96 67.19,51.08 67.31,51.21 
	67.44,51.21 67.44,51.33 67.56,51.33 67.56,51.21 67.69,51.21 67.69,51.08 67.81,51.08 67.93,50.96 68.06,50.96 68.18,50.96 
	68.31,50.71 68.31,50.58 68.31,50.46 68.18,50.34 68.06,50.21 68.18,50.09 68.31,49.96 68.43,49.96 68.56,50.09 68.56,50.21 
	68.56,50.34 68.68,50.34 68.8,50.34 68.93,50.34 68.93,50.21 69.05,50.21 69.05,50.09 69.05,49.96 69.05,49.84 68.93,49.84 
	68.93,49.71 68.8,49.59 68.68,49.71 68.56,49.71 68.56,49.59 68.43,49.59 68.31,49.59 68.31,49.47 68.31,49.34 68.31,49.22 
	68.43,49.09 68.56,49.09 68.56,49.22 68.68,49.22 68.68,49.34 68.68,49.47 68.8,49.34 68.93,49.34 69.05,49.34 69.05,49.22 
	69.18,49.22 69.05,49.22 69.05,49.09 68.93,49.09 68.93,49.22 68.93,49.09 69.05,48.97 68.93,48.97 68.93,48.84 69.05,48.72 
	69.3,48.59 69.3,48.47 69.43,48.59 69.55,48.59 69.68,48.59 69.8,48.59 69.92,48.59 70.05,48.59 70.17,48.59 70.3,48.72 
	70.42,48.72 70.55,48.72 70.67,48.59 70.55,48.59 70.42,48.59 70.3,48.59 70.3,48.47 70.17,48.47 70.17,48.35 70.3,48.35 
	70.3,48.22 70.17,48.1 70.17,47.97 70.3,47.97 70.3,47.85 70.17,47.85 70.17,47.72 70.3,47.6 70.42,47.72 70.55,47.72 70.67,47.72 
	70.79,47.72 70.79,47.6 70.92,47.6 70.92,47.72 70.92,47.85 70.92,47.72 70.92,47.85 70.79,47.85 70.92,47.85 71.04,47.85 
	71.04,47.97 70.92,47.97 70.92,48.1 71.04,48.1 71.17,48.1 71.17,47.97 71.29,47.97 71.29,47.85 71.42,47.85 71.29,47.72 
	71.42,47.72 71.42,47.85 71.42,47.97 71.54,47.97 71.54,48.1 71.54,47.97 71.66,47.97 71.79,47.97 71.79,47.85 71.79,47.72 
	71.79,47.85 71.91,47.85 71.91,47.72 72.04,47.72 72.04,47.6 72.16,47.6 72.29,47.6 72.29,47.72 72.41,47.72 72.41,47.85 
	72.41,47.97 72.54,47.97 72.54,47.85 72.54,47.97 72.66,47.97 72.54,47.97 72.54,48.1 72.66,48.1 72.54,48.22 72.54,48.35 
	72.66,48.35 72.54,48.35 72.66,48.35 72.66,48.47 72.66,48.35 72.78,48.47 72.78,48.59 72.91,48.59 72.91,48.47 73.03,48.47 
	73.03,48.59 73.16,48.59 73.28,48.59 73.41,48.72 73.53,48.72 73.53,48.84 73.65,48.84 73.78,48.97 73.9,48.97 74.03,48.97 
	74.15,48.97 74.4,48.84 74.52,48.72 74.77,48.59 74.9,48.59 75.02,48.59 75.15,48.47 75.27,48.47 75.4,48.47 75.52,48.47 
	75.64,48.47 75.77,48.47 75.89,48.47 76.02,48.47 76.14,48.59 76.27,48.59 76.39,48.59 76.51,48.59 76.51,48.47 76.64,48.47 
	76.76,48.47 76.89,48.47 77.01,48.47 77.14,48.35 77.26,48.22 77.38,48.1 77.38,47.97 77.51,47.97 77.63,47.85 78.13,47.48 
	78.26,47.35 78.38,47.35 78.5,47.35 78.63,47.35 78.75,47.35 79,47.35 79.25,47.35 79.37,47.35 79.5,47.35 79.5,47.23 79.62,47.23 
	79.75,47.23 80,47.23 80.12,47.23 80.24,47.1 80.37,47.1 80.62,47.1 80.74,47.23 80.87,47.23 80.99,47.23 81.24,47.23 81.49,47.23 
	81.61,47.23 81.74,47.35 81.86,47.48 82.11,47.48 82.23,47.48 82.48,47.48 82.61,47.48 82.86,47.48 82.98,47.6 83.1,47.48 
	83.23,47.48 83.35,47.48 83.48,47.48 83.85,47.48 84.1,47.6 84.22,47.6 84.35,47.6 84.6,47.48 84.85,47.48 84.97,47.48 85.09,47.48 
	85.22,47.48 85.34,47.35 85.47,47.35 85.72,47.35 85.84,47.35 86.21,47.35 86.34,47.35 86.46,47.35 86.59,47.35 86.71,47.23 
	86.84,47.23 86.96,47.1 87.08,47.1 87.08,47.23 87.21,47.23 87.21,47.35 87.21,47.48 87.33,47.6 87.33,47.72 87.33,47.85 
	87.33,47.97 87.33,48.1 87.33,48.22 87.33,48.35 87.21,48.35 87.21,48.47 87.08,48.47 87.08,48.59 86.96,48.59 86.96,48.72 
	87.08,48.84 86.96,48.84 86.96,48.97 87.08,49.09 87.08,49.22 87.21,49.22 87.21,49.34 87.21,49.47 87.21,49.59 87.21,49.71 
	87.21,49.84 87.21,49.71 87.21,49.84 87.08,49.84 87.08,49.96 86.96,49.96 86.96,50.09 86.96,50.21 86.96,50.34 86.96,50.46 
	86.84,50.58 86.71,50.58 86.71,50.71 86.71,50.83 86.84,50.96 86.96,50.96 86.96,51.08 86.84,51.21 86.96,51.21 86.96,51.33 
	87.08,51.45 87.08,51.58 87.21,51.58 87.08,51.58 87.21,51.58 87.21,51.7 87.08,51.7 87.21,51.7 87.21,51.83 87.21,51.95 
	87.33,51.95 87.21,51.95 87.21,52.08 87.21,52.2 87.21,52.33 87.33,52.33 87.33,52.45 87.21,52.45 87.33,52.45 87.33,52.57 
	87.21,52.57 87.33,52.57 87.33,52.7 87.46,52.7 87.46,52.82 87.58,52.82 87.58,52.95 87.71,52.95 87.58,52.95 87.71,52.95 
	87.71,53.07 87.83,53.07 87.83,53.2 87.83,53.32 87.95,53.44 87.95,53.57 87.95,53.69 87.95,53.94 87.95,54.07 87.95,54.31 
	87.95,54.44 87.95,54.56 87.83,54.56 87.83,54.69 87.71,54.81 87.58,54.94 87.58,55.06 87.58,55.19 87.71,55.31 87.71,55.43 
	87.71,55.56 87.58,55.56 87.46,55.68 87.33,55.68 87.21,55.68 87.08,55.68 86.96,55.81 86.84,55.93 86.71,56.06 86.71,56.18 
	86.71,56.43 86.71,56.55 86.71,56.68 86.71,56.8 86.84,56.93 86.84,57.05 86.84,57.17 86.84,57.3 86.84,57.42 86.84,57.55 
	86.96,57.55 86.96,57.67 86.84,57.67 86.84,57.8 86.96,57.8 86.84,57.8 86.84,57.92 86.96,57.92 86.84,57.92 86.96,57.92 
	86.96,58.05 86.84,58.05 86.96,58.05 86.96,58.17 87.08,58.17 86.96,58.17 87.08,58.17 87.08,58.29 87.08,58.42 87.21,58.42 
	87.21,58.54 87.33,58.54 87.33,58.67 87.33,58.79 87.46,58.79 87.46,58.92 87.58,58.92 87.58,59.04 87.58,59.16 87.71,59.16 
	87.71,59.29 87.83,59.29 87.95,59.29 87.95,59.41 88.08,59.41 87.95,59.41 88.08,59.54 88.08,59.66 88.08,59.54 88.2,59.54 
	88.2,59.66 88.33,59.66 88.33,59.79 88.33,59.91 88.33,60.03 88.33,60.16 88.33,60.28 88.2,60.28 88.33,60.28 88.33,60.41 
	88.33,60.28 88.33,60.41 88.33,60.28 88.45,60.41 88.45,60.53 88.58,60.53 88.7,60.53 88.7,60.66 88.82,60.66 88.95,60.66 
	88.95,60.78 89.07,60.78 89.07,60.9 88.95,61.03 88.82,61.03 88.7,61.15 88.58,61.28 88.58,61.4 88.58,61.53 88.45,61.65 
	88.33,61.78 88.2,61.9 88.08,62.02 88.08,62.15 87.95,62.15 87.83,62.52 87.71,62.65 87.71,62.77 87.58,62.89 87.46,63.02 
	87.46,63.14 87.46,63.27 87.33,63.39 87.33,63.52 87.21,63.64 87.08,63.76 87.08,63.89 87.08,64.01 87.08,64.14 87.08,64.26 
	87.08,64.39 86.96,64.51 86.84,64.64 86.71,64.76 86.59,64.88 86.46,65.01 86.34,65.01 86.21,65.13 86.21,65.26 86.09,65.38 
	86.09,65.51 86.09,66 86.09,66.13 86.09,66.5 86.09,66.62 86.09,67 86.09,67.12 86.09,67.25 86.09,67.37 85.96,67.5 85.96,67.62 
	85.96,67.74 86.09,67.87 86.09,67.99 86.21,67.99 86.46,67.99 86.59,68.12 86.71,68.12 86.84,68.24 86.84,68.37 86.84,68.49 
	86.84,68.61 86.34,68.99 86.21,69.11 86.09,69.24 85.96,69.36 85.96,69.48 85.84,69.73 85.84,69.86 85.84,69.98 85.72,70.11 
	85.72,70.23 85.59,70.36 85.47,70.48 85.47,70.6 85.34,70.73 85.22,70.85 85.09,70.85 85.09,70.98 84.97,70.98 84.85,70.98 
	84.85,70.85 84.72,70.85 84.6,70.85 84.47,70.85 84.35,70.85 84.35,70.98 84.35,71.1 84.22,71.23 84.22,71.35 84.22,71.47 
	84.1,71.47 83.98,71.47 83.98,71.6 84.1,71.6 84.1,71.72 84.1,71.85 84.22,71.85 84.22,71.97 84.1,71.97 84.22,72.1 84.22,72.22 
	84.22,72.34 84.22,72.22 84.1,72.22 84.1,72.34 84.1,72.47 84.22,72.59 84.35,72.47 84.35,72.59 84.35,72.72 84.22,72.72 
	84.1,72.72 84.22,72.72 84.22,72.84 84.22,72.97 84.22,73.09 84.22,73.22 84.1,73.22 84.1,73.34 83.98,73.34 83.98,73.46 
	83.98,73.34 83.85,73.34 83.98,73.34 83.85,73.34 83.73,73.34 83.6,73.34 83.6,73.46 83.48,73.46 83.48,73.59 83.6,73.59 
	83.48,73.71 83.6,73.71 83.6,73.84 83.6,73.96 83.6,74.09 83.6,74.21 83.73,74.21 83.73,74.09 83.85,74.09 83.85,74.21 83.98,74.21 
	83.98,74.09 84.1,74.09 84.1,73.96 83.98,73.96 83.98,73.84 84.1,73.84 84.22,73.84 84.22,73.71 84.22,73.84 84.35,73.84 
	84.35,73.96 84.35,74.09 84.47,74.09 84.35,74.21 84.35,74.33 84.47,74.33 84.6,74.46 84.72,74.46 84.85,74.58 84.97,74.58 
	84.97,74.46 84.97,74.58 84.97,74.71 85.09,74.71 85.09,74.58 85.22,74.58 85.22,74.71 85.09,74.71 85.22,74.71 85.22,74.83 
	85.22,74.96 85.34,74.83 85.34,74.96 85.34,75.08 85.47,75.08 85.47,74.96 85.59,74.96 85.59,75.08 85.72,75.08 85.84,75.08 
	85.84,75.2 85.96,75.2 85.84,75.2 85.84,75.33 85.96,75.33 85.96,75.45 85.96,75.58 85.84,75.58 85.96,75.58 85.96,75.7 85.84,75.7 
	85.84,75.83 85.96,75.83 85.96,75.95 86.09,75.95 86.09,75.83 86.21,75.83 86.34,75.83 86.34,75.95 86.34,75.83 86.46,75.83 
	86.34,75.83 86.34,75.7 86.46,75.7 86.59,75.7 86.71,75.7 86.71,75.83 86.71,75.95 86.71,76.08 86.71,75.95 86.71,76.08 
	86.84,76.08 86.71,76.08 86.71,76.2 86.71,76.32 86.71,76.2 86.71,76.32 86.59,76.32 86.71,76.32 86.71,76.45 86.84,76.45 
	86.84,76.32 86.96,76.32 86.96,76.45 86.96,76.57 86.84,76.57 86.84,76.7 86.96,76.7 86.84,76.82 86.71,76.82 86.59,76.82 
	86.46,76.82 86.46,76.95 86.46,77.07 86.46,77.19 86.34,77.19 86.21,77.19 86.21,77.07 86.09,77.07 86.21,77.19 86.09,77.19 
	85.96,77.19 85.96,77.32 85.84,77.32 85.72,77.32 85.72,77.19 85.59,77.19 85.47,77.19 85.47,77.32 85.34,77.32 85.22,77.32 
	85.22,77.44 85.34,77.44 85.34,77.57 85.22,77.57 85.22,77.69 85.09,77.69 85.09,77.82 84.97,77.69 84.85,77.82 84.72,77.94 
	84.6,77.94 84.47,77.94 84.47,77.82 84.47,77.94 84.35,77.94 84.35,77.82 84.35,77.94 84.22,77.94 84.22,78.06 84.22,77.94 
	84.1,77.94 84.1,78.06 83.98,78.06 84.1,78.06 84.1,78.19 83.98,78.19 83.98,78.31 83.85,78.31 83.85,78.44 83.98,78.44 
	83.98,78.56 83.98,78.69 83.85,78.69 83.98,78.69 83.98,78.81 83.85,78.81 83.85,78.94 83.73,78.94 83.73,79.06 83.85,79.06 
	83.85,79.18 83.85,79.31 83.85,79.43 83.73,79.43 83.73,79.31 83.73,79.43 83.73,79.56 83.6,79.56 83.6,79.68 83.6,79.56 
	83.48,79.56 83.35,79.56 83.23,79.56 83.35,79.56 83.23,79.56 83.1,79.56 83.1,79.68 83.1,79.81 83.1,79.68 82.98,79.68 
	82.98,79.81 82.98,79.68 82.98,79.81 82.86,79.81 82.73,79.81 82.61,79.81 82.73,79.81 82.61,79.81 82.61,79.93 82.61,80.05 
	82.61,79.93 82.61,80.05 82.48,80.05 82.48,80.18 82.48,80.05 82.48,80.18 82.48,80.3 82.36,80.3 82.23,80.3 82.11,80.3 81.99,80.3 
	81.99,80.18 81.99,80.3 81.99,80.18 81.86,80.18 81.74,80.18 81.74,80.3 81.61,80.3 81.61,80.18 81.61,80.3 81.49,80.3 81.49,80.18 
	81.36,80.18 81.36,80.3 81.36,80.43 81.36,80.55 81.49,80.55 81.49,80.68 81.49,80.8 81.61,80.8 81.61,80.92 81.49,80.92 
	81.49,81.05 81.49,81.17 81.36,81.17 81.36,81.3 81.24,81.3 81.24,81.42 81.24,81.55 81.24,81.67 81.24,81.8 81.12,81.92 
	81.12,82.04 80.99,82.29 80.99,82.42 80.87,82.54 80.87,82.67 80.74,82.79 80.74,82.91 80.74,83.04 80.62,83.04 80.62,83.16 
	80.62,83.29 80.62,83.41 80.49,83.54 80.37,83.54 80.37,83.66 80.49,83.66 80.49,83.78 80.37,83.78 80.37,83.91 80.24,83.91 
	80.12,83.91 80,83.91 80,83.78 79.87,83.78 79.75,83.78 79.62,83.78 79.5,83.91 79.37,83.78 79.25,83.78 79.25,83.91 79.13,83.91 
	79,84.03 78.88,84.03 78.75,84.03 78.63,84.16 78.5,84.16 78.26,84.28 78.26,84.41 78.13,84.41 78.01,84.41 78.01,84.53 
	77.88,84.53 77.76,84.66 77.63,84.78 77.63,84.9 77.01,85.4 76.76,85.65 76.64,85.77 76.51,85.77 76.39,85.77 76.39,85.9 
	76.39,86.02 76.39,86.15 76.39,86.4 76.39,86.52 76.27,86.52 76.14,86.52 76.02,86.4 75.77,86.52 75.64,86.52 75.52,86.52 
	75.4,86.52 75.27,86.52 75.15,86.52 75.02,86.52 74.9,86.52 74.77,86.52 74.77,86.64 74.65,86.64 74.52,86.64 74.52,86.77 
	74.4,86.89 74.4,87.02 74.28,87.02 74.28,86.89 74.28,87.02 74.15,87.14 74.15,87.27 74.03,87.39 74.03,87.51 73.9,87.64 
	73.9,87.76 73.9,87.89 73.78,87.89 73.65,87.89 73.65,87.76 73.53,87.76 73.53,87.89 73.53,87.76 73.53,87.89 73.53,87.76 
	73.41,87.76 73.28,87.76 73.28,87.89 73.28,87.76 73.16,87.76 73.03,87.76 72.91,87.76 72.78,87.76 72.78,87.64 72.66,87.64 
	72.66,87.51 72.54,87.51 72.41,87.51 72.41,87.39 72.29,87.39 72.16,87.39 72.04,87.39 72.04,87.27 71.91,87.27 72.04,87.27 
	72.04,87.14 72.04,87.02 72.04,86.89 71.91,86.89 71.79,86.89 71.66,86.89 71.54,87.02 71.42,87.02 71.29,87.02 71.17,87.02 
	70.79,87.02 70.67,86.89 70.55,86.89 70.42,86.89 70.3,87.02 70.17,87.02 70.05,87.02 69.92,87.02 69.68,87.02 69.43,87.02 
	69.18,87.02 69.05,87.02 68.8,87.02 68.56,87.14 68.43,87.14 68.31,87.14 68.18,87.14 68.06,87.14 67.93,87.27 67.81,87.27 
	67.81,87.39 67.69,87.51 67.81,87.51 67.81,87.64 67.81,87.76 67.93,87.89 67.93,88.01 67.93,88.14 67.93,88.26 67.93,88.51 
	67.93,88.63 68.06,88.88 68.06,89.01 67.93,89.13 67.81,89.38 67.69,89.5 67.56,89.63 67.19,89.75 67.06,89.75 67.06,89.88 
	66.94,89.88 66.94,90 66.94,90.5 66.82,90.87 66.69,91 66.69,91.12 66.57,91.12 66.32,91.25 66.07,91.25 65.94,91.37 65.7,91.37 
	65.57,91.49 65.32,91.49 65.07,91.62 64.95,91.74 64.7,91.74 64.45,91.87 64.33,91.99 64.2,91.87 64.2,91.74 64.2,91.62 64.2,91.49 
	64.2,91.37 64.2,91.25 64.2,91.12 64.33,91 64.33,90.87 64.2,90.87 64.2,90.75 64.08,90.62 63.96,90.62 63.83,90.62 63.71,90.62 
	63.58,90.62 63.46,90.62 63.33,90.5 63.21,90.5 63.08,90.5 62.96,90.5 62.84,90.5 62.71,90.5 62.59,90.5 62.46,90.37 62.34,90.37 
	62.34,90.5 62.21,90.5 62.21,90.62 62.09,90.62 61.97,90.62 61.97,90.5 61.84,90.5 61.72,90.37 61.59,90.37 61.59,90.25 61.72,90 
	61.72,89.88 61.72,89.75 61.59,89.63 61.47,89.63 61.47,89.5 61.34,89.5 61.22,89.5 61.1,89.5 60.85,89.5 60.72,89.5 60.72,89.63 
	60.6,89.75 60.47,89.88 60.35,90 60.22,90 60.1,90 60.1,90.13 60.1,90.25 60.1,90.37 59.98,90.37 59.98,90.5 59.85,90.5 59.73,90.5 
	59.6,90.5 59.48,90.62 59.48,90.75 59.35,90.87 59.23,91 59.11,91.12 58.48,91.12 58.36,91.12 58.23,91.12 58.11,91.12 57.99,91.12 
	57.99,91.25 57.99,91.37 57.86,91.37 57.86,91.49 57.86,91.62 57.86,91.74 57.86,91.87 57.86,91.99 57.86,92.12 57.74,92.24 
	57.74,92.36 57.61,92.49 57.61,92.61 57.49,92.74 57.49,92.86 57.36,92.86 57.24,92.99 57.12,92.86 57.12,92.74 57.12,92.61 
	56.99,92.61 56.87,92.49 56.74,92.36 56.74,92.24 56.74,92.12 56.62,92.12 56.62,91.99 56.49,91.99 56.49,92.12 56.37,92.24 
	56.37,92.36 56.37,92.49 56.37,92.61 56.25,92.74 56.25,92.86 56.25,92.99 56.25,93.11 56.12,93.23 56.25,93.36 56.25,93.48 
	56.25,93.61 56.25,93.73 56.25,93.86 56.12,93.98 56.12,94.23 56,94.35 56,94.48 56,94.6 55.87,94.73 55.87,94.85 56,94.85 
	56,94.98 56.12,95.1 56.25,95.1 56.25,95.22 56.25,95.35 56.12,95.35 56.12,95.47 56,95.47 55.87,95.6 55.75,95.6 55.62,95.6 
	55.62,95.72 55.5,95.72 55.37,95.85 55.25,95.85 55.25,95.72 55.13,95.72 55.13,95.6 55.13,95.47 55.13,95.35 55.13,95.22 55,95.22 
	55,95.1 55,94.98 54.88,94.98 54.75,94.98 54.75,94.85 54.63,94.85 54.38,94.85 54.26,94.85 54.13,94.73 54.01,94.6 54.01,94.48 
	54.01,94.35 54.01,94.23 53.88,94.11 53.76,93.98 53.63,93.98 53.51,93.98 53.39,93.98 53.39,93.86 53.26,93.86 53.14,93.73 
	53.01,93.73 52.89,93.73 52.76,93.61 52.64,93.61 52.51,93.61 52.51,93.48 52.39,93.48 52.39,93.36 52.27,93.36 52.27,93.23 
	52.14,93.23 52.02,93.23 51.89,93.11 51.89,92.99 51.77,92.86 51.64,92.86 51.64,92.74 51.52,92.74 51.4,92.74 51.27,92.74 
	51.15,92.49 51.02,92.49 50.9,92.49 50.77,92.49 50.65,92.61 50.53,92.61 50.53,92.49 50.53,92.36 50.53,92.24 50.53,92.12 
	50.53,91.99 50.53,91.87 50.53,91.74 50.4,91.74 50.4,91.62 50.28,91.62 50.15,91.49 50.03,91.49 49.9,91.49 49.78,91.49 
	49.65,91.49 49.65,91.37 49.53,91.37 49.41,91.25 49.16,91.25 49.03,91.12 48.91,91.12 48.78,91.12 48.66,91.12 48.54,91 48.41,91 
	48.41,90.87 48.29,90.62 48.29,90.5 48.16,90.5 48.04,90.5 47.91,90.37 47.91,90.25 48.04,90.13 48.04,89.88 48.04,89.75 
	48.04,89.63 48.04,89.5 48.04,89.38 48.04,89.26 48.04,89.13 47.91,89.13 47.79,89.01 47.67,89.01 47.54,89.01 47.29,89.13 
	47.17,89.13 47.04,89.13 47.04,89.01 46.92,88.88 46.92,88.76 46.79,88.51 46.67,88.51 46.67,88.39 46.55,88.39 46.42,88.39 
	46.3,88.51 46.17,88.51 46.05,88.51 46.05,88.39 45.92,88.39 45.8,88.26 45.8,88.14 45.8,88.01 45.92,87.89 45.92,87.76 45.8,87.76 
	45.68,87.76 45.3,87.89 45.18,87.76 45.05,87.76 44.93,87.76 44.81,87.76 44.68,87.76 44.56,87.76 44.56,87.64 44.56,87.51 
	44.68,87.39 44.68,87.27 44.81,87.14 44.81,87.02 44.68,87.02 44.68,86.89 44.68,86.77 44.56,86.77 44.56,86.64 44.56,86.52 
	44.43,86.4 44.31,86.27 44.18,86.27 44.06,86.27 44.06,86.15 44.06,86.02 43.93,85.9 43.93,85.77 43.93,85.53 43.93,85.4 
	43.93,85.28 43.93,85.15 43.81,85.15 43.69,85.15 43.44,85.15 43.31,85.15 43.19,85.15 43.19,85.03 43.19,84.9 43.31,84.9 
	43.44,84.78 43.56,84.78 43.69,84.78 43.69,84.66 43.81,84.66 43.81,84.53 43.81,84.41 43.81,84.28 43.81,84.16 43.93,84.16 
	44.06,84.16 44.18,84.16 44.18,84.03 44.31,84.03 44.43,84.03 44.43,83.91 44.18,83.66 44.06,83.66 44.06,83.54 44.06,83.41 
	44.06,83.29 44.06,83.16 44.06,83.04 44.06,82.79 43.93,82.54 43.93,82.42 43.31,82.04 43.06,81.92 42.94,81.92 42.82,81.92 
	42.82,82.04 42.69,82.04 42.57,82.17 42.44,82.17 42.44,82.04 42.32,82.04 42.32,81.92 42.19,81.8 42.07,81.67 41.95,81.67 
	41.82,81.55 41.7,81.42 41.57,81.55 41.45,81.55 41.32,81.67 41.2,81.67 41.07,81.67 41.2,81.55 41.2,81.42 41.32,81.42 41.32,81.3 
	41.2,81.17 41.2,81.05 41.2,80.92 41.07,80.8 40.95,80.68 40.95,80.55 40.83,80.55 40.7,80.55 40.7,80.68 40.58,80.68 40.45,80.55 
	40.33,80.68 40.2,80.8 40.08,80.92 39.96,80.92 39.83,81.05 39.71,81.05 39.58,81.05 39.46,81.05 39.46,80.92 39.46,80.8 
	39.46,80.68 39.58,80.68 39.58,80.55 39.58,80.43 39.58,80.3 39.58,80.18 39.71,80.05 39.83,80.05 39.83,79.93 39.96,79.81 
	40.08,79.81 40.2,79.68 40.2,79.56 40.2,79.43 40.2,79.31 40.08,79.18 39.96,78.81 39.83,78.69 39.83,78.56 39.71,78.56 
	39.71,78.44 39.58,78.44 39.46,78.44 39.33,78.44 39.09,78.44 38.96,78.31 38.84,78.19 38.71,78.19 38.59,78.31 38.46,78.31 
	38.46,78.19 38.46,78.06 38.34,77.94 38.34,77.82 38.21,77.82 38.21,77.69 38.09,77.57 37.97,77.57 37.97,77.44 37.84,77.44 
	37.84,77.32 37.72,77.32 37.72,77.19 37.59,77.19 37.47,77.19 37.34,77.32 37.22,77.32 37.22,77.44 37.1,77.44 37.1,77.57 
	36.97,77.69 36.85,77.57 36.72,77.44 36.72,77.32 36.6,77.44 36.47,77.57 36.35,77.57 36.35,77.69 36.23,77.82 36.1,77.94 
	36.1,78.06 36.1,78.19 36.1,78.31 35.98,78.19 35.85,78.19 35.73,78.19 35.6,78.19 35.6,78.31 35.48,78.31 35.35,78.31 35.35,78.19 
	35.23,77.82 35.23,77.57 35.11,77.44 35.23,77.32 35.23,77.19 35.23,77.07 35.23,76.7 35.35,76.45 35.35,76.32 35.48,76.08 
	35.6,75.95 35.6,75.83 35.6,75.7 35.48,75.58 35.35,75.58 35.35,75.45 35.35,75.33 35.35,75.2 35.35,75.08 35.35,74.96 35.23,74.96 
	35.11,74.83 35.11,74.71 34.98,74.71 34.86,74.46 34.86,74.33 34.86,74.21 34.86,74.09 34.86,73.96 35.11,73.59 35.23,73.34 
	35.35,73.09 35.48,72.84 35.48,72.72 35.48,72.47 35.6,72.47 35.6,72.34 35.6,72.22 35.6,72.1 35.48,71.97 35.48,71.85 35.35,71.85 
	35.11,71.6 34.98,71.6 34.86,71.47 34.73,71.47 34.61,71.47 34.48,71.47 34.36,71.47 34.24,71.35 34.11,71.35 33.99,71.47 
	33.86,71.47 33.86,71.6 33.74,71.6 33.61,71.6 33.49,71.6 33.49,71.47 33.49,71.23 33.49,71.1 33.37,70.98 33.37,70.73 33.24,70.48 
	33.12,70.23 32.99,70.11 32.99,69.98 32.87,69.98 32.87,69.86 32.74,69.86 32.74,69.73 32.62,69.73 32.49,69.61 32.49,69.48 
	32.49,69.36 32.37,69.36 32.37,69.11 32.37,68.99 32.25,68.99 32.25,68.86 32.12,68.86 32,68.86 31.87,68.86 31.75,68.86 
	31.75,68.74 31.62,68.49 31.5,68.37 31.5,68.24 31.38,68.24 31.25,68.24 31.25,68.12 31.13,68.12 31,67.99 30.88,67.74 30.88,67.62 
	30.75,67.5 30.63,67.5 30.51,67.5 30.38,67.37 30.26,67.37 30.13,67.37 30.13,67.5 30.13,67.62 30.26,67.62 30.13,67.62 
	30.01,67.74 29.88,67.87 29.63,67.99 29.51,68.12 29.26,68.24 29.14,68.24 29.14,68.37 29.01,68.37 28.89,68.49 28.76,68.37 
	28.39,68.12 28.14,67.99 28.02,67.99 27.89,67.87 27.77,67.74 27.77,67.62 27.77,67.5 27.65,67.5 27.4,67.37 27.27,67.37 
	27.15,67.37 27.15,67.25 27.02,67.25 26.9,67.12 26.77,67 26.65,67 26.65,66.87 26.53,66.87 26.4,66.75 26.28,66.75 26.28,66.62 
	26.15,66.62 26.03,66.5 25.9,66.5 25.9,66.38 25.66,66.25 25.53,66.13 25.41,66.13 25.28,66 25.16,65.88 24.91,65.75 24.66,65.63 
	24.54,65.63 24.41,65.51 24.29,65.51 24.29,65.38 24.16,65.38 24.04,65.26 23.91,65.13 23.79,65.13 23.67,65.01 23.54,65.01 
	23.42,65.01 23.42,64.88 23.29,64.88 23.17,64.76 23.04,64.76 22.92,64.76 22.8,64.64 22.67,64.51 22.42,64.51 22.3,64.39 
	22.17,64.39 22.05,64.26 21.93,64.26 21.93,64.14 21.8,64.14 21.8,64.01 21.8,63.89 21.8,63.76 21.8,63.64 21.8,63.52 21.68,63.39 
	21.68,63.27 21.68,63.39 21.55,63.39 21.55,63.52 21.43,63.64 21.43,63.76 21.43,63.89 21.3,64.01 21.3,64.14 21.18,64.14 
	21.18,64.26 21.05,64.26 20.93,64.26 20.81,64.26 20.81,64.39 20.68,64.39 20.68,64.51 20.56,64.51 20.43,64.51 20.43,64.64 
	20.31,64.64 20.31,64.51 20.31,64.39 20.18,64.39 20.18,64.26 20.06,64.26 19.94,64.26 19.94,64.39 19.81,64.39 19.81,64.51 
	19.69,64.51 19.56,64.51 19.44,64.64 19.44,64.51 19.31,64.51 19.19,64.51 19.07,64.51 19.07,64.39 18.94,64.39 18.94,64.26 
	18.94,64.14 18.82,64.14 18.69,64.14 18.69,64.01 18.57,64.14 18.44,64.14 18.32,64.14 18.32,64.26 18.19,64.26 18.19,64.39 
	18.19,64.51 18.07,64.51 18.07,64.64 17.95,64.64 17.95,64.76 17.95,64.64 17.82,64.64 17.82,64.51 17.7,64.51 17.57,64.51 
	17.57,64.39 17.45,64.39 17.32,64.39 17.2,64.39 17.2,64.26 17.08,64.26 17.08,64.14 16.95,64.14 16.83,64.14 16.95,64.01 
	16.95,63.89 16.83,63.89 16.83,63.76 16.7,63.76 16.7,63.89 16.58,63.89 16.45,63.89 16.33,63.89 16.33,63.76 16.21,63.76 
	16.21,63.64 16.08,63.64 16.08,63.52 15.96,63.52 15.96,63.64 15.96,63.52 15.83,63.52 15.71,63.64 15.58,63.64 15.46,63.64 
	15.46,63.52 15.33,63.52 15.33,63.39 15.33,63.27 15.21,63.27 15.21,63.14 15.21,63.02 15.09,63.02 14.96,63.02 14.96,63.14 
	14.84,63.14 14.84,63.02 14.71,63.02 14.71,62.89 14.71,63.02 14.59,63.02 14.71,63.02 14.71,62.89 14.59,62.89 14.59,63.02 
	14.59,63.14 14.59,63.02 14.46,63.02 14.46,63.14 14.34,63.14 14.22,63.14 14.22,63.02 14.22,63.14 14.09,63.14 14.09,63.02 
	14.09,63.14 13.97,63.14 13.97,63.02 14.09,63.02 13.97,63.02 13.97,62.89 13.84,62.89 13.84,62.77 13.84,62.89 13.84,62.77 
	13.72,62.77 13.72,62.65 13.84,62.65 13.72,62.65 13.84,62.65 13.72,62.65 13.72,62.52 13.59,62.52 13.59,62.65 13.59,62.52 
	13.47,62.4 13.47,62.52 13.47,62.4 13.47,62.52 13.35,62.52 13.47,62.4 13.35,62.4 13.47,62.4 13.47,62.27 13.47,62.15 13.47,62.02 
	13.59,62.02 13.59,61.9 13.47,61.9 13.47,61.78 13.35,61.78 13.35,61.65 13.22,61.65 13.1,61.65 12.97,61.65 12.97,61.78 
	12.85,61.78 12.85,61.65 12.72,61.78 12.72,61.65 12.85,61.65 12.72,61.65 12.72,61.78 12.72,61.65 12.6,61.65 12.47,61.65 
	12.35,61.65 12.35,61.78 12.35,61.65 12.35,61.53 12.23,61.53 12.1,61.53 11.98,61.53 11.98,61.65 11.85,61.65 11.73,61.65 
	11.73,61.53 11.6,61.53 11.73,61.53 11.73,61.4 11.6,61.4 11.6,61.28 11.48,61.28 11.48,61.15 11.36,61.15 11.48,61.15 11.48,61.03 
	11.36,61.03 11.36,61.15 11.23,61.15 11.11,61.15 10.98,61.15 10.86,61.15 10.73,61.15 10.73,61.03 10.61,61.03 10.61,60.9 
	10.73,60.9 10.61,60.9 10.61,60.78 10.49,60.78 10.49,60.9 10.49,60.78 10.49,60.9 10.36,60.9 10.24,60.9 10.24,60.78 10.24,60.66 
	10.11,60.66 9.99,60.66 9.99,60.78 9.99,60.66 9.99,60.78 9.86,60.78 9.74,60.78 9.61,60.78 9.49,60.78 9.61,60.78 9.49,60.78 
	9.61,60.78 9.61,60.66 9.49,60.66 9.37,60.66 9.24,60.66 9.24,60.78 9.12,60.78 9.12,60.9 8.99,60.9 8.87,60.9 8.99,60.78 
	8.87,60.78 8.87,60.66 8.74,60.66 8.62,60.66 8.62,60.78 8.62,60.9 8.62,61.03 8.5,61.03 8.5,60.9 8.5,61.03 8.37,61.03 8.37,60.9 
	8.37,60.78 8.25,60.78 8.12,60.78 8,60.66 7.87,60.66 8,60.53 7.87,60.53 7.87,60.41 7.75,60.41 7.87,60.41 7.75,60.41 7.87,60.28 
	7.75,60.28 7.87,60.16 7.87,60.03 7.87,59.91 7.87,60.03 7.75,60.03 7.75,59.91 7.63,59.91 7.63,59.79 7.5,59.79 7.5,59.66 
	7.38,59.66 7.38,59.54 7.25,59.54 7.25,59.41 7.13,59.41 7.13,59.29 7,59.29 7,59.16 7,59.04 7,58.92 7,59.04 7.13,59.04 
	7.13,58.92 7,58.92 7,58.79 7,58.92 6.88,58.92 6.88,58.79 6.88,58.67 6.75,58.67 6.88,58.54 6.75,58.54 6.75,58.42 6.63,58.42 
	6.63,58.29 6.75,58.29 6.75,58.17 6.75,58.29 6.75,58.17 6.75,58.05 6.63,58.05 6.75,58.05 6.63,58.05 6.63,57.92 6.51,57.92 
	6.51,57.8 6.51,57.92 6.51,57.8 6.38,57.8 6.26,57.8 6.26,57.67 6.13,57.67 6.26,57.67 6.26,57.55 6.38,57.55 6.38,57.42 6.38,57.3 
	6.38,57.17 6.51,57.17 6.51,57.05 6.51,56.93 6.63,56.93 6.51,56.93 6.51,56.8 6.51,56.68 6.63,56.68 6.63,56.55 6.63,56.68 
	6.75,56.55 6.88,56.55 7,56.55 7.13,56.55 7.25,56.55 7.38,56.55 7.38,56.43 7.25,56.43 7.25,56.3 7.38,56.3 7.5,56.3 7.5,56.18 
	7.5,56.3 7.5,56.18 7.63,56.18 7.5,56.18 7.5,56.06 7.38,56.06 7.38,55.93 7.5,55.93 7.63,55.93 7.63,55.81 7.5,55.81 7.63,55.81 
	7.75,55.81 7.63,55.81 7.63,55.68 7.75,55.68 7.63,55.68 7.63,55.56 7.63,55.43 7.63,55.31 7.63,55.19 7.63,55.06 7.75,55.06 
	7.63,55.06 7.63,54.94 7.75,54.94 7.87,54.94 7.87,54.81 7.87,54.94 7.87,54.81 7.87,54.69 7.87,54.56 7.87,54.69 8,54.69 8,54.56 
	8.12,54.56 8.12,54.44 8,54.44 8.12,54.44 8.12,54.31 8.25,54.31 8.25,54.19 8.37,54.19 8.25,54.19 8.25,54.07 8.37,54.07 
	8.25,53.94 8.37,53.94 8.25,53.94 8.37,53.94 8.37,53.82 8.37,53.69 8.37,53.57 8.37,53.44 8.5,53.44 8.62,53.44 8.62,53.32 
	8.62,53.44 8.74,53.32 8.62,53.32 8.74,53.32 8.74,53.2 8.62,53.2 8.74,53.2 8.74,53.07 8.74,53.2 8.74,53.07 8.87,53.07 8.87,53.2 
	8.87,53.07 8.99,53.07 8.99,52.95 8.87,52.95 8.87,52.82 8.99,52.82 8.99,52.7 9.12,52.7 9.12,52.57 9.12,52.45 9.12,52.33 
	9.24,52.33 9.24,52.2 9.24,52.08 9.37,52.08 9.49,52.08 9.49,51.95 9.61,51.95 9.61,51.83 9.61,51.7 9.61,51.58 9.49,51.58 
	9.49,51.45 9.37,51.45 9.37,51.58 9.37,51.45 9.24,51.45 9.24,51.33 9.12,51.45 9.12,51.33 9.12,51.21 8.99,51.21 8.99,51.08 
	8.99,50.96 8.87,50.96 8.74,50.96 8.62,50.96 8.62,50.83 8.62,50.71 8.62,50.58 8.62,50.46 8.62,50.34 8.5,50.34 8.37,50.34 
	8.5,50.34 8.5,50.21 8.37,50.21 8.5,50.21 8.37,50.21 8.37,50.09 8.25,50.09 8.25,50.21 8.12,50.21 8.12,50.09 8.25,50.09 
	8.25,49.96 8.25,49.84 8.12,49.84 8.12,49.71 8.12,49.84 8.25,49.84 8.25,49.71 8.12,49.71 8.12,49.59 8.25,49.59 8.25,49.47 
	8.25,49.34 8.12,49.34 8.12,49.22 8.12,49.09 8.12,48.97 8,48.97 8,48.84 7.87,48.84 7.87,48.72 7.75,48.72 7.75,48.59 7.87,48.59 
	7.87,48.47 7.75,48.47 7.63,48.47 7.63,48.35 7.75,48.35 7.63,48.35 7.75,48.35 7.75,48.22 7.63,48.22 7.75,48.22 7.63,48.22 
	7.63,48.1 7.75,48.1 7.63,48.1 7.63,47.97 7.75,47.97 7.87,47.97 8,47.97 7.87,47.85 7.87,47.72 8,47.72 8,47.6 8.12,47.6 
	8.12,47.48 8,47.48 8.12,47.48 8,47.35 8.12,47.23 8,47.23 8.12,47.23 8.12,47.1 8.12,46.98 8.25,46.98 8.37,46.98 8.25,47.1 
	8.37,47.1 8.5,47.1 8.5,46.98 8.5,46.85 8.37,46.85 8.37,46.98 8.37,46.85 8.37,46.73 8.5,46.73 8.5,46.61 8.5,46.48 8.5,46.36 
	8.62,46.36 8.74,46.36 8.62,46.36 8.62,46.23 8.5,46.23 8.5,46.11 8.5,45.98 8.5,45.86 8.5,45.73 8.5,45.61 8.5,45.49 8.37,45.49 
	8.37,45.36 8.5,45.24 8.5,45.11 8.62,45.11 8.74,45.11 8.62,45.11 8.62,44.99 8.62,44.86 8.74,44.99 8.74,44.86 8.62,44.86 
	8.62,44.74 8.62,44.86 8.5,44.74 8.5,44.62 8.5,44.49 8.5,44.37 8.62,44.37 8.62,44.24 8.5,44.24 8.5,44.37 8.37,44.37 8.37,44.24 
	8.37,44.12 8.5,44.12 8.62,44.12 8.62,43.99 8.5,43.99 8.62,43.87 8.74,43.87 8.87,43.87 8.99,43.87 8.99,43.75 9.12,43.75 
	9.12,43.62 9.24,43.62 9.37,43.62 9.37,43.5 9.49,43.5 9.49,43.37 9.49,43.25 9.37,43.25 9.37,43.12 9.49,43.12 9.49,43 9.61,43 
	9.74,43 9.74,42.87 9.86,42.87 9.86,42.75 9.99,42.75 9.99,42.63 10.11,42.5 10.24,42.5 10.24,42.38 10.36,42.38 10.24,42.38 
	10.36,42.38 10.36,42.25 10.49,42.25 10.49,42.13 10.36,42.13 10.49,42.13 10.49,42 10.36,42.13 10.36,42 10.49,42 10.49,41.88 
	10.36,41.88 10.36,41.76 10.49,41.76 10.36,41.76 10.36,41.63 10.49,41.63 10.49,41.51 10.36,41.51 10.36,41.38 10.49,41.51 
	10.49,41.38 10.49,41.26 10.49,41.13 10.61,41.13 10.61,41.01 10.61,40.89 10.61,40.76 10.61,40.89 10.61,40.76 10.49,40.76 
	10.61,40.76 10.49,40.76 10.61,40.76 10.61,40.64 10.73,40.64 10.73,40.51 10.73,40.39 10.61,40.39 10.73,40.39 10.73,40.26 
	10.86,40.26 10.73,40.26 10.73,40.14 10.86,40.14 10.73,40.14 10.73,40.01 10.86,40.01 10.98,40.01 10.98,40.14 11.11,40.14 
	11.11,40.26 11.23,40.39 11.36,40.26 11.48,40.26 11.36,40.14 11.36,40.01 11.48,40.01 11.36,40.01 11.36,39.89 11.48,39.89 
	11.48,39.77 11.48,39.64 11.48,39.77 11.6,39.77 11.73,39.77 11.73,39.64 11.6,39.64 11.6,39.52 11.73,39.52 11.73,39.39 
	11.73,39.27 11.73,39.14 11.85,39.14 11.73,39.14 11.73,39.02 11.85,39.02 11.98,39.02 11.98,38.9 11.98,38.77 11.98,38.65 
	11.85,38.65 11.85,38.52 11.85,38.4 11.73,38.4 11.85,38.4 11.85,38.27 11.85,38.4 11.98,38.4 11.85,38.27 11.98,38.15 11.98,38.27 
	11.98,38.15 12.1,38.27 12.23,38.27 12.23,38.15 12.35,38.15 12.35,38.03 12.47,38.03 12.47,37.9 12.47,37.78 12.47,37.65 
	12.6,37.65 12.6,37.78 12.6,37.9 12.6,37.78 12.72,37.78 12.72,37.65 12.6,37.65 12.6,37.53 12.72,37.53 12.72,37.65 12.85,37.65 
	12.85,37.78 12.97,37.78 12.97,37.65 12.97,37.53 12.97,37.4 13.1,37.4 13.1,37.28 13.22,37.4 13.35,37.4 13.35,37.28 13.47,37.28 
	13.47,37.4 13.35,37.4 13.47,37.4 13.47,37.53 13.47,37.4 13.59,37.28 13.59,37.4 13.72,37.53 13.84,37.53 13.97,37.53 13.97,37.65 
	14.09,37.65 14.09,37.78 14.22,37.78 14.22,37.9 14.22,38.03 14.34,38.03 14.34,38.15 14.46,38.15 14.46,38.03 14.59,38.03 
	14.59,37.9 14.59,37.78 14.46,37.78 14.59,37.65 14.71,37.65 14.59,37.65 14.59,37.53 14.59,37.65 14.46,37.65 14.46,37.53 
	14.46,37.4 14.46,37.28 14.46,37.15 14.59,37.15 14.71,37.15 14.84,37.15 14.84,37.28 14.84,37.4 14.84,37.28 14.96,37.28 
	15.09,37.28 15.09,37.15 15.09,37.03 15.21,37.03 15.33,37.03 15.46,37.03 15.58,37.03 15.58,37.15 15.71,37.15 15.71,37.03 
	15.83,36.91 15.96,36.91 15.96,37.03 15.96,36.91 16.08,36.91 16.08,37.03 15.96,37.03 16.08,37.15 16.21,37.15 16.33,37.15 
	16.33,37.28 16.33,37.15 16.45,37.15 16.45,37.03 16.45,37.15 16.58,37.15 16.58,37.03 16.7,37.03 16.7,37.15 16.83,37.15 
	16.83,37.03 16.7,37.03 16.7,36.91 16.83,36.91 16.95,36.91 16.95,36.78 16.83,36.78 16.83,36.66 16.7,36.66 16.83,36.66 
	16.83,36.53 16.7,36.53 16.58,36.66 16.58,36.53 16.58,36.41 16.7,36.41 16.58,36.41 16.58,36.28 16.45,36.28 16.33,36.28 
	16.45,36.28 16.33,36.28 16.21,36.28 16.21,36.16 16.33,36.16 16.33,36.04 16.21,36.04 16.21,35.91 16.08,35.91 16.08,35.79 
	15.96,35.79 16.08,35.79 16.08,35.66 16.21,35.66 16.08,35.66 16.08,35.54 15.96,35.41 15.96,35.29 15.96,35.17 16.08,35.17 
	16.21,35.04 16.21,34.92 16.08,34.92 16.08,34.79 15.96,34.79 15.96,34.67 15.96,34.54 16.08,34.54 16.08,34.42 16.08,34.29 
	16.21,34.17 16.21,34.05 16.21,33.92 16.21,33.8 16.08,33.8 16.08,33.67 16.08,33.55 15.96,33.55 15.96,33.42 15.96,33.3 
	15.96,33.18 16.08,33.18 15.96,33.18 15.96,33.05 16.08,33.05 16.08,32.93 15.96,32.93 15.96,32.8 16.08,32.8 16.08,32.68 
	16.21,32.68 16.21,32.55 16.21,32.68 16.21,32.55 16.08,32.55 16.21,32.43 16.08,32.43 16.21,32.43 16.08,32.43 16.08,32.31 
	16.08,32.18 16.21,32.18 16.33,32.18 16.33,32.06 16.33,31.93 16.33,31.81 16.33,31.68 16.45,31.68 16.45,31.56 16.58,31.56 
	16.45,31.56 16.45,31.44 16.45,31.31 16.33,31.31 16.33,31.19 16.33,31.31 16.21,31.31 16.21,31.19 16.33,31.19 16.45,31.19 
	16.45,31.06 16.33,31.06 16.21,31.06 16.33,30.94 16.21,30.94 16.21,30.81 16.21,30.69 16.21,30.56 16.21,30.69 16.21,30.56 
	16.21,30.44 16.21,30.32 16.08,30.32 16.08,30.44 16.08,30.32 16.08,30.19 16.21,30.19 16.21,30.07 16.08,30.07 16.08,29.94 
	16.21,29.94 16.33,29.94 16.21,29.94 16.21,29.82 16.33,29.82 16.33,29.69 16.33,29.57 16.21,29.57 16.21,29.69 16.21,29.57 
	16.21,29.45 16.33,29.45 16.33,29.32 16.21,29.45 16.21,29.32 16.21,29.2 16.21,29.07 16.33,29.07 16.33,28.95 16.33,28.82 
	16.21,28.82 16.21,28.7 16.33,28.7 16.33,28.58 16.21,28.58 16.21,28.45 16.33,28.45 16.33,28.58 16.33,28.45 16.33,28.33 
	16.21,28.33 16.33,28.33 16.33,28.2 16.21,28.2 16.21,28.33 16.21,28.45 16.08,28.45 16.08,28.33 16.21,28.33 16.21,28.2 
	16.08,28.2 16.08,28.08 15.96,27.95 16.08,27.95 16.21,27.83 16.08,27.83 16.21,27.83 16.21,27.7 16.33,27.7 16.45,27.7 
	16.45,27.58 16.33,27.58 16.21,27.58 16.21,27.46 16.33,27.46 16.45,27.33 16.58,27.21 16.58,27.33 16.58,27.21 16.7,27.21 
	16.58,27.08 16.45,27.08 16.45,26.96 16.45,26.83 16.33,26.83 16.33,26.96 16.21,26.96 16.21,26.83 16.33,26.83 16.45,26.83 
	16.58,26.83 16.58,26.71 16.45,26.71 16.45,26.59 16.45,26.46 16.45,26.34 16.33,26.34 16.33,26.21 16.33,26.09 16.33,25.96 
	16.21,25.96 16.21,25.84 16.21,25.72 16.08,25.59 16.08,25.47 15.96,25.34 15.96,25.22 15.96,25.09 15.83,25.09 15.71,25.09 
	15.71,25.22 15.71,25.34 15.58,25.34 15.46,25.34 15.46,25.22 15.33,25.22 15.33,25.34 15.46,25.34 15.46,25.47 15.33,25.47 
	15.33,25.34 15.21,25.34 15.09,25.34 15.09,25.47 14.96,25.47 14.84,25.47 14.71,25.47 14.71,25.34 14.59,25.34 14.59,25.22 
	14.46,25.09 14.46,24.97 14.34,24.97 14.34,24.84 14.34,24.72 14.22,24.72 14.34,24.6 14.34,24.47 14.34,24.35 14.46,24.35 
	14.46,24.22 14.34,24.22 14.34,24.1 14.22,24.1 14.22,23.97 14.22,23.85 14.09,23.85 13.97,23.85 13.97,23.73 14.09,23.73 
	13.97,23.73 13.97,23.6 13.97,23.73 13.84,23.73 13.72,23.6 13.72,23.73 13.59,23.6 13.59,23.48 13.72,23.48 13.84,23.48 
	13.72,23.35 13.72,23.23 13.59,23.23 13.59,23.1 13.72,23.1 13.72,22.98 13.59,22.98 13.72,22.86 13.59,22.86 13.47,22.86 
	13.47,22.73 13.59,22.73 13.59,22.61 13.59,22.48 13.72,22.48 13.72,22.61 13.84,22.61 13.84,22.73 13.72,22.73 13.72,22.86 
	13.84,22.86 13.84,22.73 13.97,22.73 13.97,22.61 13.84,22.61 13.97,22.48 13.97,22.61 14.09,22.61 14.22,22.61 14.22,22.48 
	14.09,22.48 14.09,22.36 14.22,22.36 14.22,22.48 14.22,22.36 14.34,22.36 14.22,22.23 14.09,22.11 14.09,21.98 13.97,21.98 
	13.97,21.86 14.09,21.74 14.09,21.86 14.22,21.86 14.22,21.74 14.09,21.74 14.09,21.61 14.22,21.61 14.22,21.49 14.22,21.36 
	14.34,21.49 14.46,21.49 14.34,21.36 14.46,21.36 14.46,21.49 14.46,21.36 14.46,21.24 14.46,21.11 14.34,21.11 14.22,21.11 
	14.09,21.11 14.09,21.24 14.09,21.11 13.97,21.11 14.09,21.11 14.09,20.99 14.22,20.99 14.22,20.87 14.34,20.87 14.34,20.99 
	14.34,20.87 14.34,20.74 14.34,20.62 14.34,20.49 14.46,20.49 14.46,20.62 14.59,20.62 14.71,20.49 14.84,20.49 14.96,20.37 
	14.96,20.24 14.96,20.12 14.96,20 15.09,20 15.09,19.87 14.96,19.75 14.84,19.62 14.71,19.5 14.59,19.5 14.59,19.37 14.46,19.37 
	14.34,19.37 14.34,19.25 14.34,19.12 14.46,19.12 14.59,19 14.71,19 14.84,19 14.96,18.88 15.09,18.88 15.21,19 15.21,18.88 
	15.33,18.88 15.46,18.88 15.58,18.88 15.58,19 15.71,19 15.71,19.12 15.58,19.12 15.58,19.25 15.46,19.37 15.46,19.5 15.33,19.5 
	15.33,19.62 15.46,19.75 15.71,19.75 15.71,19.87 15.83,19.75 15.83,19.62 15.96,19.5 16.08,19.37 16.08,19.25 15.96,19.25 
	15.96,19.12 15.83,19.12 15.83,19 15.83,18.88 15.96,18.88 15.96,19 16.08,19.12 16.21,19.12 16.33,19.25 16.33,19.37 16.45,19.5 
	16.58,19.5 16.7,19.5 16.83,19.5 16.83,19.37 16.95,19.37 16.95,19.25 16.95,19.12 17.08,19 17.2,19 17.32,19 17.32,18.88 
	17.2,18.88 17.08,18.88 16.95,18.88 16.7,18.88 16.58,18.88 16.45,18.75 16.33,18.75 16.33,18.63 16.08,18.38 15.96,18.5 
	15.83,18.63 15.71,18.63 15.71,18.75 15.58,18.75 15.58,18.63 15.58,18.5 15.58,18.38 15.46,18.25 15.46,18.13 15.33,18.13 
	15.33,18.01 15.21,18.01 15.33,17.88 15.46,17.88 15.58,17.88 15.71,17.88 15.83,17.88 15.96,17.88 16.08,17.76 16.21,17.76 
	16.21,17.63 16.21,17.51 16.08,17.38 15.96,17.14 15.96,17.01 15.96,16.89 15.96,16.76 15.96,16.64 16.08,16.64 16.08,16.51 
	16.08,16.39 16.08,16.26 16.21,16.26 16.21,16.39 16.33,16.39 16.33,16.26 16.45,16.26 16.58,16.26 16.58,16.14 16.7,16.14 
	16.7,16.26 16.83,16.26 16.83,16.14 16.83,16.02 16.83,15.89 16.7,15.89 16.7,15.77 16.58,15.64 16.58,15.52 16.58,15.39 
	16.45,15.39 16.45,15.27 16.33,15.15 16.45,15.02 16.45,14.9 16.58,14.9 16.58,14.77 16.58,14.65 16.45,14.65 16.33,14.65 
	16.21,14.65 16.21,14.52 16.21,14.4 16.08,14.4 15.96,14.4 15.83,14.4 15.71,14.52 15.58,14.4 15.46,14.4 15.46,14.28 15.33,14.28 
	15.33,14.15 15.46,14.03 15.46,13.9 15.58,13.78 15.58,13.65 15.58,13.53 15.58,13.4 15.58,13.28 15.46,13.28 15.58,13.28 
	15.58,13.16 15.46,13.03 15.33,13.03 15.33,13.16 15.21,13.16 15.21,13.03 15.21,12.91 15.21,12.78 15.33,12.78 15.33,12.66 
	15.21,12.66 15.09,12.66 15.09,12.53 15.21,12.53 15.21,12.41 15.33,12.41 15.46,12.53 15.46,12.66 15.58,12.66 15.71,12.66 
	15.71,12.53 15.83,12.66 15.96,12.66 15.96,12.53 16.08,12.53 16.08,12.41 16.21,12.53 16.33,12.53 16.45,12.53 16.45,12.41 
	16.45,12.29 16.33,12.16 16.33,12.04 16.33,11.91 16.33,11.79 16.21,11.66 16.08,11.66 15.96,11.66 15.83,11.66 15.83,11.54 
	15.96,11.54 15.96,11.42 16.08,11.42 16.21,11.42 16.21,11.29 16.21,11.17 16.08,11.04 15.96,11.04 15.83,10.79 15.71,10.79 
	15.46,10.67 15.46,10.54 15.33,10.54 15.09,10.67 14.96,10.67 14.84,10.67 14.71,10.67 14.71,10.54 14.71,10.42 14.71,10.3 
	14.71,10.17 14.71,10.05 14.71,9.92 14.71,9.67 14.71,9.55 14.71,9.43 14.84,9.3 14.84,9.18 14.84,9.05 14.96,9.05 14.84,8.93 
	14.71,8.93 14.71,9.05 14.59,9.05 14.59,8.93 14.59,8.8 14.71,8.8 14.71,8.68 14.84,8.56 14.84,8.43 14.96,8.56 15.09,8.68 
	15.09,8.8 15.21,8.8 15.33,8.8 15.46,8.8 15.46,8.68 15.58,8.68 15.46,8.56 15.46,8.43 15.58,8.31 15.58,8.18 15.83,8.06 
	15.96,7.93 15.96,8.06 16.08,8.06 16.08,8.18 16.08,8.31 16.08,8.43 16.21,8.43 16.33,8.43 16.45,8.43 16.45,8.56 16.58,8.56 
	16.83,8.56 16.83,8.68 16.95,8.68 17.08,8.68 17.32,8.68 17.45,8.68 17.57,8.68 17.57,8.8 17.45,8.93 17.32,8.93 17.32,9.05 
	17.32,9.18 17.45,9.18 17.57,9.18 17.7,9.18 17.82,9.18 17.95,9.18 18.07,9.18 18.19,9.18 18.19,9.3 18.32,9.3 18.32,9.43 
	18.19,9.43 18.19,9.55 18.19,9.67 18.32,9.67 18.44,9.8 18.57,9.8 18.69,9.8 18.69,9.67 18.82,9.67 18.94,9.55 18.94,9.43 
	19.07,9.43 19.07,9.18 19.07,9.05 18.94,9.05 18.82,9.18 18.69,9.18 18.57,9.18 18.57,9.05 18.57,8.93 18.44,8.93 18.32,8.93 
	18.19,8.93 18.19,8.8 18.07,8.8 18.19,8.68 18.19,8.56 18.19,8.43 18.32,8.43 18.32,8.31 18.44,8.31 18.44,8.18 18.44,8.06 
	18.57,8.06 18.57,7.93 18.69,7.93 18.82,7.93 18.82,7.81 18.94,7.81 19.07,7.93 19.19,7.93 19.19,8.06 19.31,8.06 19.44,8.06 
	19.56,8.18 19.69,8.18 19.81,8.18 19.94,8.18 20.06,8.06 20.06,7.93 20.18,7.93 20.06,7.81 20.18,7.69 20.18,7.56 20.18,7.44 
	20.18,7.31 20.31,7.31 20.43,7.44 20.43,7.56 20.56,7.56 20.56,7.44 20.56,7.31 20.56,7.19 20.43,7.19 20.43,7.06 20.43,6.94 
	20.56,6.94 20.68,6.94 20.68,7.06 20.81,7.06 20.93,7.06 20.93,7.19 21.05,7.19 21.05,7.31 21.05,7.44 21.18,7.56 21.18,7.69 
	21.3,7.69 21.43,7.81 21.55,7.81 21.68,7.93 21.68,8.06 21.8,8.18 21.93,8.18 22.05,8.18 22.17,8.06 22.3,8.06 22.3,7.93 
	22.17,7.81 22.05,7.81 22.17,7.69 22.3,7.69 22.17,7.56 22.3,7.56 22.3,7.44 22.3,7.56 22.42,7.56 22.55,7.56 22.55,7.69 
	22.67,7.69 22.67,7.56 22.67,7.44 22.67,7.31 22.67,7.19 22.67,7.06 22.55,7.06 22.55,6.94 22.42,6.94 22.42,6.81 22.42,6.69 
	22.42,6.57 22.3,6.57 22.3,6.44 22.3,6.32 22.17,6.32 22.17,6.19 22.17,6.07 22.05,6.07 22.05,6.19 22.05,6.07 22.05,5.94 
	22.05,5.82 22.17,5.82 22.17,5.94 22.3,5.94 22.3,5.82 22.3,5.7 22.17,5.7 22.17,5.57 22.17,5.45 22.17,5.32 22.17,5.2 22.17,5.07 
	22.05,4.95 21.93,4.95 21.93,4.83 21.93,4.7 21.8,4.7 21.8,4.58 21.68,4.58 21.8,4.58 21.93,4.58 22.05,4.58 21.93,4.58 21.93,4.45 
	21.93,4.33 22.05,4.33 22.17,4.33 22.17,4.2 22.17,4.08 22.17,3.95 22.17,3.83 22.05,3.83 22.05,3.71 21.93,3.71 21.93,3.58 
	21.93,3.46 22.05,3.46 21.93,3.46 21.8,3.46 21.8,3.33 21.93,3.33 21.93,3.21 21.93,3.08 21.93,3.21 21.93,3.33 22.05,3.33 
	22.05,3.21 21.93,3.08 21.8,3.08 21.8,2.96 21.93,2.96 21.93,2.84 21.93,2.71 22.05,2.71 22.05,2.59 22.17,2.71 22.17,2.84 
	22.3,2.84 22.3,2.96 22.3,2.84 22.42,2.84 22.42,2.96 22.42,3.08 22.55,3.08 22.67,3.08 22.67,2.96 22.67,2.84 22.67,2.71 
	22.55,2.59 22.55,2.46 22.55,2.34 22.67,2.34 22.8,2.21 22.92,2.09 23.04,2.09 23.17,2.09 23.17,1.97 23.29,1.97 23.42,1.97 
	23.54,2.09 23.67,2.09 23.67,2.21 23.79,2.21 23.91,2.21 24.04,2.21 24.16,2.21 24.16,2.34 24.16,2.46 24.29,2.46 24.29,2.34 
	24.41,2.34 24.41,2.21 24.54,2.21 24.66,2.21 24.66,2.34 24.79,2.34 24.79,2.21 24.79,2.09 24.79,1.97 24.66,1.97 24.66,1.84 
	24.79,1.72 24.79,1.59 24.79,1.47 24.79,1.34 24.79,1.22 24.79,1.09 24.91,0.97 24.91,0.85 25.03,0.85 "/>
</svg>
