<?xml version="1.0" encoding="utf-8"?>
<!-- Generator: Adobe Illustrator 24.2.1, SVG Export Plug-In . SVG Version: 6.00 Build 0)  -->
<svg version="1.1" id="Layer_1" xmlns="http://www.w3.org/2000/svg" xmlns:xlink="http://www.w3.org/1999/xlink" x="0px" y="0px"
	 viewBox="0 0 97.23 97.23" style="enable-background:new 0 0 97.23 97.23;" xml:space="preserve">
<style type="text/css">
	.st0{fill-rule:evenodd;clip-rule:evenodd;}
</style>
<polygon class="st0" points="25.27,1.08 25.54,1.21 25.67,1.35 25.81,1.48 25.94,1.61 25.94,1.75 26.08,2.02 26.08,2.15 26.21,2.42 
	26.34,2.55 26.48,2.82 26.48,2.96 26.48,3.09 26.61,3.09 26.61,3.22 26.61,3.36 26.61,3.49 26.61,3.76 26.48,3.89 26.48,4.03 
	26.48,4.16 26.34,4.43 26.21,4.56 26.21,4.7 26.21,4.83 26.34,4.97 26.48,5.24 26.48,5.37 26.61,5.5 26.75,5.64 27.15,5.91 
	27.28,5.91 27.28,6.04 27.42,6.04 27.69,6.04 27.95,6.04 28.09,6.04 28.09,6.17 28.22,6.17 28.22,6.31 28.49,6.31 28.49,6.44 
	28.62,6.58 28.76,6.58 28.89,6.71 29.03,6.85 29.16,6.98 29.3,7.11 29.43,7.11 29.7,7.38 29.83,7.52 29.97,7.52 30.1,7.78 
	30.23,7.92 30.37,8.05 30.5,8.32 30.5,8.45 30.64,8.59 30.77,8.72 30.77,8.86 30.9,9.13 30.9,9.26 31.04,9.26 31.04,9.39 
	31.17,9.53 31.31,9.66 31.44,9.8 31.58,10.06 31.71,10.2 31.84,10.33 31.98,10.47 32.11,10.6 32.25,10.74 32.38,11 32.51,11.14 
	32.51,11.27 32.65,11.41 32.78,11.54 32.92,11.67 33.05,11.94 33.19,11.94 33.19,12.08 33.32,12.21 33.45,12.21 33.59,12.21 
	33.72,12.34 33.86,12.34 33.99,12.48 33.99,12.61 34.12,12.75 34.12,12.88 34.12,13.02 34.12,13.15 34.12,13.28 34.12,13.42 
	34.12,13.69 34.12,13.82 34.26,13.95 34.26,14.09 34.39,14.36 34.39,14.49 34.53,14.62 34.66,14.76 34.79,15.3 34.93,15.43 
	34.93,15.56 35.06,15.56 35.06,15.7 35.2,15.7 35.2,15.83 35.33,15.83 35.47,15.83 35.6,15.83 35.73,15.83 35.87,15.83 36,15.83 
	36.14,15.83 36.27,15.83 36.4,15.83 36.54,15.83 36.67,15.97 36.67,16.1 36.81,16.1 36.94,16.1 37.07,16.23 37.07,16.37 
	37.21,16.37 37.21,16.23 37.34,16.23 37.34,16.37 37.48,16.37 37.48,16.5 37.61,16.64 37.48,16.64 37.61,16.64 37.61,16.77 
	37.75,16.77 37.75,16.91 37.88,16.91 38.01,16.91 38.15,16.91 38.28,17.04 38.42,17.04 38.42,17.17 38.55,17.17 38.68,17.31 
	38.68,17.44 38.82,17.44 38.82,17.58 38.82,17.71 38.95,17.71 38.95,17.84 39.09,17.84 39.22,17.84 39.36,17.84 39.49,17.84 
	39.36,17.84 39.36,17.98 39.49,17.98 39.62,17.98 39.62,18.11 39.76,18.11 39.76,17.98 39.89,17.98 40.03,17.98 40.16,17.98 
	40.29,17.98 40.29,18.11 40.43,18.11 40.43,17.98 40.56,17.98 40.56,17.84 40.7,17.84 40.7,17.71 40.83,17.71 40.97,17.71 
	40.97,17.84 41.1,17.71 41.1,17.84 41.23,17.84 41.37,17.84 41.5,17.84 41.64,17.84 41.77,17.84 41.9,17.84 42.04,17.84 
	42.17,17.84 42.31,17.84 42.31,17.71 42.44,17.71 42.44,17.84 42.57,17.84 42.57,17.71 42.57,17.84 42.71,17.84 42.84,17.84 
	42.84,17.98 42.98,17.98 42.98,17.84 43.11,17.84 43.25,17.84 43.38,17.84 43.51,17.84 43.51,17.98 43.51,18.11 43.65,18.11 
	43.65,18.25 43.78,18.25 43.78,18.38 43.92,18.38 43.78,18.51 43.92,18.51 43.92,18.65 44.05,18.51 44.05,18.65 44.05,18.78 
	44.18,18.78 44.18,18.92 44.32,18.92 44.45,18.92 44.45,19.05 44.32,19.05 44.45,19.05 44.45,19.19 44.59,19.19 44.59,19.32 
	44.45,19.45 44.59,19.45 44.59,19.59 44.72,19.59 44.85,19.59 44.99,19.59 44.99,19.72 45.12,19.86 45.12,19.99 45.26,19.99 
	45.26,20.12 45.26,20.26 45.39,20.39 45.39,20.53 45.39,20.66 45.53,20.79 45.53,20.93 45.53,21.2 45.53,21.33 45.53,21.47 
	45.66,21.6 45.66,21.73 45.79,21.73 45.93,21.73 46.06,21.87 46.2,21.87 46.33,21.87 46.46,21.87 46.6,21.87 46.87,21.87 47,22 
	47.14,22 47.27,22 47.54,22.14 47.67,22.14 47.81,22.14 48.07,22.14 48.21,22.27 48.34,22.27 48.48,22.27 48.61,22.27 48.74,22.4 
	49.15,22.4 49.28,22.4 49.42,22.54 49.55,22.54 49.68,22.54 49.82,22.54 49.95,22.54 50.09,22.67 50.22,22.67 50.35,22.67 
	50.49,22.67 50.62,22.81 50.76,22.81 50.89,22.81 51.02,22.81 51.16,22.94 51.29,22.94 51.43,22.94 51.56,23.07 51.7,23.07 
	51.7,23.21 51.83,23.34 51.96,23.34 52.1,23.48 52.23,23.48 52.37,23.61 52.5,23.61 52.63,23.61 52.77,23.61 52.9,23.61 
	53.04,23.61 53.17,23.61 53.31,23.61 53.57,23.61 53.71,23.61 53.84,23.61 53.98,23.61 54.11,23.61 54.38,23.61 54.78,23.61 
	54.91,23.61 55.05,23.61 55.05,23.75 55.18,23.88 55.32,24.01 55.45,24.01 55.59,24.15 55.72,24.28 55.85,24.42 55.99,24.55 
	56.12,24.55 56.26,24.68 56.39,24.68 56.52,24.68 56.79,24.68 56.93,24.68 57.06,24.68 57.2,24.68 57.33,24.68 57.46,24.68 
	57.6,24.68 57.73,24.68 57.87,24.68 58.13,24.68 58.27,24.68 58.54,24.68 59.34,24.68 59.48,24.55 60.41,24.55 60.68,24.55 
	60.82,24.55 60.82,24.42 60.68,24.42 60.55,24.42 60.55,24.28 60.41,24.28 60.55,24.15 60.82,24.28 60.95,24.28 60.95,24.15 
	60.95,24.01 61.09,24.01 61.22,23.88 61.35,23.75 61.35,23.61 61.49,23.61 61.49,23.48 61.49,23.34 61.62,23.34 61.62,23.48 
	61.76,23.48 61.76,23.34 61.89,23.34 62.02,23.34 62.16,23.34 62.29,23.34 62.43,23.34 62.43,23.21 62.56,23.07 62.69,22.94 
	62.83,22.94 62.83,23.07 62.83,23.21 62.83,23.34 62.83,23.61 62.83,23.75 62.83,23.88 62.96,24.01 63.1,24.01 63.23,24.01 
	63.5,23.88 63.63,23.88 63.77,23.88 64.04,24.01 64.17,24.01 64.3,24.01 64.44,23.75 64.57,23.75 64.57,23.88 64.71,23.88 
	64.84,23.88 64.97,24.01 64.97,24.15 65.11,24.15 65.11,24.28 65.24,24.28 65.38,24.28 65.51,24.28 65.65,24.28 65.78,24.15 
	65.78,24.55 65.78,24.68 65.78,24.82 65.78,24.95 65.78,25.09 65.78,25.22 65.78,25.36 65.91,25.49 66.05,25.49 66.05,25.62 
	66.18,25.62 66.45,25.49 66.58,25.49 66.72,25.49 66.85,25.62 66.99,25.62 66.99,25.76 67.12,25.76 67.12,26.03 67.26,26.03 
	67.39,26.03 67.39,25.89 67.26,25.76 67.26,25.62 67.26,25.49 67.12,25.36 66.99,25.22 66.85,25.22 66.72,25.22 66.58,25.22 
	66.45,25.22 66.45,25.09 66.32,25.09 66.32,24.95 66.32,24.82 66.45,24.68 66.58,24.68 66.72,24.55 66.85,24.55 66.85,24.42 
	66.85,24.28 66.72,24.15 66.72,24.01 66.85,23.88 66.85,24.01 67.12,24.01 67.26,24.01 67.39,24.01 67.52,24.15 67.52,24.28 
	67.66,24.42 67.79,24.42 67.79,24.55 67.79,24.68 67.79,24.82 67.93,24.95 67.93,25.09 68.06,25.22 68.19,25.36 68.33,25.49 
	68.33,25.62 68.33,25.76 68.33,25.89 68.33,26.03 68.33,26.16 68.33,26.29 68.33,26.43 68.46,26.43 68.6,26.56 68.73,26.56 
	68.86,26.56 69,26.56 69.13,26.56 69.27,26.56 69.4,26.43 69.54,26.43 69.67,26.56 69.8,26.7 69.67,26.83 69.54,26.96 69.4,26.96 
	69.27,26.96 69.13,26.96 69,26.96 68.86,26.96 68.73,27.1 68.6,27.23 68.6,27.37 68.73,27.5 68.86,27.64 69.13,27.77 69.27,27.77 
	69.27,27.9 69.13,28.04 69.13,28.17 69,28.17 68.73,28.04 68.6,28.04 68.6,28.17 68.6,28.31 68.6,28.44 68.73,28.44 68.86,28.57 
	69,28.57 69.13,28.57 69.13,28.44 69.27,28.44 69.4,28.31 69.54,28.17 69.67,28.17 69.8,28.17 70.21,28.31 70.34,28.44 70.34,28.57 
	70.34,28.71 70.21,28.84 70.07,28.98 70.07,29.11 69.94,29.11 69.94,29.24 70.07,29.38 70.07,29.51 70.21,29.51 70.34,29.65 
	70.47,29.65 70.61,29.51 70.74,29.38 70.88,28.98 71.01,28.84 71.14,28.84 71.28,28.84 71.28,28.98 71.41,29.11 71.41,29.24 
	71.41,29.38 71.28,29.38 71.28,29.65 71.14,29.65 71.14,29.78 71.01,29.78 70.88,29.78 70.74,29.92 70.47,30.05 70.34,30.18 
	70.21,30.32 70.07,30.59 70.07,30.72 70.07,30.85 69.94,30.99 69.94,31.66 70.07,31.79 70.21,31.79 70.34,31.79 70.47,31.79 
	70.61,31.66 70.74,31.66 70.88,31.53 71.01,31.39 71.14,31.39 71.28,31.26 71.41,31.12 71.41,30.99 71.82,30.72 71.95,30.72 
	72.08,30.72 72.22,30.72 72.35,30.72 72.49,30.85 72.62,30.85 72.75,30.99 72.89,31.26 72.89,31.39 72.89,31.53 72.75,31.66 
	72.62,31.79 72.49,31.93 72.35,32.06 72.08,32.2 71.95,32.33 71.82,32.46 71.55,32.6 71.41,32.87 71.28,33 71.14,33.13 70.88,33.4 
	70.74,33.67 70.61,33.81 70.34,33.94 70.21,34.07 69.8,34.07 69.54,34.07 69.4,34.07 69.4,34.21 69.13,34.48 68.86,34.48 
	68.73,34.48 68.6,34.48 68.6,34.61 68.73,34.74 68.73,34.88 68.6,35.15 68.46,35.28 68.46,35.41 68.73,35.55 68.73,35.68 
	68.73,35.82 68.6,35.82 68.33,35.95 68.19,35.95 68.19,36.09 68.06,36.22 68.06,36.35 68.06,36.49 67.93,36.49 68.06,36.49 
	68.06,36.62 68.06,36.76 68.19,36.76 68.19,36.89 68.46,36.89 68.6,36.89 68.6,36.76 68.73,36.76 68.6,36.49 68.73,36.49 
	68.73,36.35 68.86,36.35 69,36.22 69.13,36.22 69.27,36.35 69.4,36.35 69.54,36.49 69.54,36.62 69.4,36.62 69.4,36.76 69.27,36.76 
	69.13,36.76 69.13,36.89 69,37.02 68.86,37.02 68.86,37.16 68.73,37.16 68.6,37.29 68.46,37.43 68.46,37.56 68.6,37.56 68.6,37.69 
	68.73,37.69 68.73,37.56 68.86,37.56 69,37.43 69.13,37.43 69.27,37.56 69.4,37.56 69.67,37.56 69.8,37.56 69.8,37.69 69.67,37.83 
	69.54,38.1 69.4,38.23 69.27,38.37 69.27,38.5 69.27,38.63 69.27,38.77 69.27,39.04 69.27,39.17 69.4,39.17 69.4,39.3 69.54,39.3 
	69.54,39.44 69.54,39.57 69.4,39.71 69.27,39.71 69.27,39.84 69.27,39.98 69.27,40.11 69.13,40.11 69.13,40.24 69,40.24 
	68.86,40.24 68.86,40.38 68.86,40.51 69,40.51 69,40.65 69.13,40.65 69.27,40.65 69.27,40.78 69.4,40.78 69.27,40.91 69.13,40.91 
	69.13,41.05 69,41.05 69,41.18 69.13,41.18 69.13,41.32 69,41.32 69,41.45 68.86,41.45 68.86,41.32 68.73,41.32 68.73,41.18 
	68.6,41.05 68.46,41.05 68.33,41.18 68.33,41.32 68.46,41.32 68.46,41.45 68.6,41.58 68.46,41.58 68.33,41.58 68.19,41.58 
	68.06,41.72 68.19,41.85 68.33,41.85 68.46,41.85 68.46,41.99 68.33,42.12 68.33,42.26 68.33,42.39 68.33,42.52 68.33,42.66 
	68.46,42.66 68.46,42.79 68.46,42.93 68.46,42.79 68.6,42.93 68.73,42.93 68.73,43.06 68.73,43.19 68.73,43.33 68.86,43.33 
	68.86,43.46 69,43.46 69,43.33 69.13,43.33 69,43.46 69,43.6 69.13,43.46 69.13,43.6 69.27,43.73 69.13,43.73 69.27,43.73 
	69.27,43.86 69.27,44 69.27,44.13 69.27,44.27 69.27,44.4 69.27,44.54 69.4,44.54 69.4,44.67 69.27,44.67 69.27,44.8 69.13,44.8 
	69.13,44.94 69.13,45.07 69.13,45.21 69.27,45.34 69.27,45.47 69.27,45.61 69.27,45.74 69.27,45.88 69.13,45.88 69.13,46.01 
	69.27,46.01 69.4,46.28 69.4,46.41 69.54,46.41 69.54,46.55 69.67,46.55 69.67,46.68 69.67,46.82 69.54,46.82 69.54,46.95 
	69.4,46.95 69.4,47.08 69.4,47.22 69.54,47.22 69.4,47.22 69.4,47.35 69.4,47.49 69.4,47.62 69.27,47.62 69.27,47.75 69.4,47.75 
	69.4,47.89 69.4,48.02 69.4,48.16 69.54,48.16 69.54,48.29 69.67,48.29 69.67,48.43 69.8,48.56 69.94,48.56 69.94,48.69 
	70.07,48.69 70.21,48.69 70.21,48.83 70.34,48.83 70.47,48.96 70.47,49.1 70.61,49.1 70.61,49.23 70.74,49.23 70.88,49.23 
	70.88,49.1 71.01,49.1 71.14,49.23 71.28,49.23 71.41,49.23 71.68,49.36 71.82,49.36 71.95,49.5 72.22,49.5 72.49,49.63 
	72.62,49.63 72.75,49.63 72.89,49.77 73.02,49.77 73.16,49.77 73.29,49.77 73.43,49.77 73.56,49.77 73.69,49.77 73.83,49.9 
	73.96,50.03 74.1,50.17 74.77,50.3 74.9,50.44 75.03,50.44 75.17,50.44 75.3,50.44 75.44,50.57 75.57,50.57 75.71,50.71 
	75.97,50.71 76.11,50.71 76.24,50.84 76.38,50.97 76.51,50.97 76.64,51.11 76.78,51.11 76.91,51.24 77.18,51.38 77.31,51.51 
	77.45,51.51 77.72,51.64 77.85,51.64 78.12,51.78 78.25,51.91 78.39,51.91 78.66,52.05 78.66,52.18 78.79,52.18 78.66,52.18 
	78.79,52.18 78.79,52.32 78.66,52.32 78.66,52.45 78.79,52.45 78.79,52.58 78.79,52.72 78.92,52.85 78.92,52.99 79.06,52.99 
	79.06,53.12 79.19,53.12 79.19,53.25 79.19,53.39 79.19,53.52 79.19,53.66 79.19,53.79 79.19,53.92 79.19,54.06 79.19,54.19 
	79.19,54.33 79.33,54.33 79.33,54.46 79.33,54.6 79.33,54.73 79.33,54.86 79.33,55 79.46,55 79.46,55.13 79.6,55.13 79.6,55.27 
	79.73,55.4 79.73,55.53 80,55.67 80.13,55.8 80.13,55.94 80.27,55.94 80.27,56.07 80.4,56.34 80.4,56.47 80.4,56.61 80.4,56.74 
	80.27,56.74 80.13,56.74 80,56.74 80,56.88 79.86,56.88 79.73,56.88 79.73,57.01 79.73,56.88 79.6,56.88 79.6,57.01 79.46,57.01 
	79.33,57.01 79.19,57.01 79.19,57.14 79.06,57.14 79.06,57.28 78.92,57.28 78.92,57.41 78.92,57.55 78.79,57.55 78.79,57.68 
	78.66,57.68 78.52,57.81 78.52,57.95 78.25,58.48 78.25,58.62 78.25,58.75 78.39,58.89 78.39,59.02 78.52,59.16 78.52,59.29 
	78.79,59.42 78.92,59.69 79.06,59.83 79.19,59.83 79.33,59.96 79.46,60.09 79.6,60.23 79.73,60.36 79.73,60.63 79.86,60.77 
	79.86,61.03 79.86,61.17 79.86,61.3 79.86,61.44 80,61.7 80,61.97 79.86,62.11 79.86,62.37 79.86,62.51 79.86,62.64 80,62.78 
	80,63.18 80.13,63.18 80.13,63.31 80.27,63.45 80.67,63.85 81.07,64.12 81.47,64.39 81.74,64.52 81.88,64.52 81.88,64.65 
	82.01,64.65 82.01,64.79 82.01,65.06 82.01,65.19 82.01,65.33 82.01,65.46 82.14,65.59 82.14,65.73 82.55,66 82.68,66.13 
	82.81,66.26 82.95,66.4 83.35,66.67 83.35,66.8 83.49,66.8 83.62,66.94 83.75,67.07 83.89,67.2 84.02,67.2 84.16,67.2 84.29,67.34 
	84.42,67.34 84.56,67.47 84.56,67.61 84.56,67.74 84.56,67.87 84.56,68.01 84.56,68.14 84.69,68.14 84.69,68.28 84.69,68.41 
	84.56,68.54 84.56,68.68 84.56,68.81 84.56,68.95 84.56,69.08 84.69,69.08 84.56,69.08 84.56,69.22 84.69,69.22 84.69,69.35 
	84.69,69.48 84.69,69.62 84.83,69.62 84.96,69.89 84.96,70.02 84.96,70.15 85.09,70.15 85.23,70.29 85.36,70.29 85.36,70.42 
	85.36,70.56 85.5,70.56 85.5,70.69 85.5,70.83 85.63,70.83 85.63,70.96 85.77,70.96 85.77,71.09 85.63,71.09 85.63,71.23 
	85.5,71.23 85.5,71.09 85.5,70.96 85.36,70.96 85.23,70.83 85.09,70.83 84.96,70.83 84.83,70.83 84.83,70.69 84.69,70.69 
	84.69,70.56 84.69,70.42 84.56,70.42 84.56,70.56 84.56,70.42 84.42,70.42 84.42,70.56 84.42,70.42 84.29,70.42 84.16,70.42 
	84.16,70.29 84.02,70.29 83.89,70.42 83.89,70.29 83.75,70.29 83.75,70.42 83.62,70.42 83.62,70.29 83.49,70.42 83.35,70.42 
	83.35,70.56 83.22,70.56 83.22,70.69 83.08,70.69 82.95,70.69 82.95,70.56 82.95,70.42 82.81,70.56 82.68,70.56 82.55,70.56 
	82.55,70.69 82.41,70.69 82.55,70.83 82.68,70.83 82.68,70.96 82.55,70.96 82.55,71.09 82.41,71.09 82.41,71.23 82.55,71.36 
	82.41,71.36 82.41,71.5 82.41,71.63 82.28,71.63 82.28,71.76 82.14,71.76 82.14,71.9 82.14,72.03 82.01,72.03 82.01,71.9 
	82.01,72.03 81.88,72.03 82.01,72.03 82.01,72.17 82.01,72.03 82.01,72.17 81.88,72.17 81.88,72.3 81.74,72.43 81.61,72.43 
	81.74,72.43 81.74,72.57 81.74,72.7 81.88,72.7 81.88,72.84 81.74,72.84 81.61,72.84 81.74,72.84 81.74,72.97 81.61,72.97 
	81.61,73.1 81.74,73.1 81.61,73.1 81.74,73.1 81.61,73.1 81.61,73.24 81.74,73.24 81.74,73.37 81.74,73.24 81.61,73.37 81.61,73.51 
	81.74,73.51 81.74,73.64 81.61,73.64 81.74,73.78 81.74,73.91 81.61,73.91 81.61,74.04 81.47,74.04 81.61,74.04 81.47,74.04 
	81.47,74.18 81.34,74.18 81.47,74.18 81.47,74.31 81.34,74.31 81.2,74.45 81.07,74.45 81.07,74.58 81.07,74.71 80.94,74.71 
	80.94,74.85 80.94,74.98 80.94,75.12 80.94,75.25 80.94,75.39 80.94,75.52 81.07,75.52 81.07,75.65 81.2,75.79 81.2,75.92 
	81.07,75.92 81.07,75.79 81.07,75.92 81.07,75.79 80.94,75.79 80.94,75.92 80.94,76.06 81.07,76.06 81.07,76.19 81.07,76.32 
	80.94,76.32 80.94,76.46 81.07,76.46 80.94,76.46 81.07,76.46 80.94,76.46 81.07,76.59 81.2,76.59 81.2,76.73 81.07,76.73 
	81.07,76.86 81.2,76.86 81.07,76.86 81.07,76.99 81.07,77.13 80.94,77.13 80.8,77.13 80.8,77.26 80.94,77.26 80.8,77.26 80.8,77.4 
	80.8,77.53 80.94,77.53 80.94,77.67 80.8,77.67 80.67,77.67 80.67,77.8 80.8,77.8 80.8,77.93 80.67,77.93 80.53,77.93 80.53,78.07 
	80.53,78.2 80.53,78.34 80.53,78.47 80.53,78.6 80.4,78.47 80.4,78.6 80.4,78.74 80.53,78.74 80.4,78.74 80.4,78.87 80.4,78.74 
	80.4,78.87 80.27,78.87 80.27,79.01 80.27,79.14 80.27,79.28 80.4,79.28 80.53,79.28 80.53,79.41 80.67,79.54 80.67,79.68 
	80.67,79.81 80.67,79.95 80.67,80.08 80.8,80.21 80.94,80.21 81.07,80.21 81.07,80.35 81.07,80.48 81.2,80.48 81.2,80.62 
	81.2,80.75 81.34,80.75 81.34,80.88 81.47,80.88 81.47,80.75 81.47,80.88 81.61,80.88 81.61,81.02 81.74,81.15 81.88,81.15 
	81.88,81.29 81.88,81.42 82.01,81.42 82.01,81.56 82.01,81.42 82.01,81.56 82.14,81.56 82.14,81.69 82.14,81.56 82.28,81.69 
	82.28,81.82 82.41,81.82 82.41,81.69 82.41,81.82 82.55,81.82 82.55,81.96 82.68,81.96 82.68,82.09 82.81,82.09 82.81,82.23 
	82.81,82.36 82.95,82.36 82.95,82.49 83.08,82.49 83.22,82.63 83.35,82.63 83.49,82.63 83.49,82.76 83.62,83.03 83.75,83.03 
	83.89,83.16 83.89,83.3 83.89,83.43 83.89,83.57 83.89,83.7 83.75,83.84 83.62,83.97 83.62,84.1 83.75,84.24 83.75,84.37 
	83.62,84.51 83.62,84.64 83.75,84.64 83.75,84.77 83.75,84.91 83.75,85.04 83.75,85.18 83.75,85.31 83.62,85.45 83.49,85.45 
	83.35,85.45 83.22,85.58 83.08,85.85 83.08,85.98 83.08,86.12 82.95,86.25 82.81,86.25 82.81,86.38 82.81,86.52 82.68,86.65 
	82.68,86.79 82.55,86.79 82.28,86.92 82.14,87.05 82.01,87.05 81.88,87.05 81.88,87.19 81.74,87.19 81.61,87.32 81.47,87.59 
	81.47,87.73 81.47,87.86 81.61,87.99 81.61,88.13 81.74,88.13 81.88,88.26 81.88,88.4 82.01,88.4 82.01,88.53 82.01,88.66 
	82.14,88.8 82.14,88.93 82.28,88.93 82.41,88.93 82.55,88.93 82.68,88.93 82.81,88.93 82.95,88.93 82.95,89.07 83.08,89.07 
	83.08,88.93 83.22,88.93 83.22,89.07 83.35,89.07 83.35,88.93 83.49,88.8 83.62,88.8 83.75,88.66 83.89,88.66 84.02,88.53 
	84.16,88.53 84.29,88.53 84.42,88.53 84.42,88.4 84.56,88.26 84.69,88.13 84.83,88.13 84.96,88.13 84.96,87.99 85.09,87.99 
	85.09,88.13 85.23,88.13 85.23,88.26 85.36,88.26 85.5,88.4 85.5,88.53 85.63,88.53 85.63,88.66 85.77,88.66 85.77,88.8 85.9,88.93 
	86.44,89.33 86.57,89.47 86.7,89.6 86.84,89.6 86.84,89.74 86.97,89.74 87.24,89.87 87.38,89.87 87.38,90.01 87.51,90.01 
	87.51,90.14 87.51,90.27 87.64,90.27 87.64,90.41 87.51,90.54 87.51,90.68 87.51,90.81 87.51,90.94 87.38,90.94 87.24,90.81 
	87.11,90.81 87.11,90.68 86.97,90.68 86.97,90.54 86.84,90.54 86.84,90.41 86.7,90.41 86.7,90.54 86.57,90.54 86.44,90.41 
	86.3,90.41 86.3,90.27 86.17,90.27 86.03,90.27 85.9,90.14 85.77,90.14 85.63,90.01 85.5,90.01 85.36,90.01 85.23,90.01 
	85.23,89.87 85.09,89.87 85.09,89.74 84.96,89.74 84.96,89.6 84.83,89.6 84.69,89.6 84.56,89.6 84.56,89.74 84.42,89.74 
	84.42,89.87 84.42,90.01 84.29,90.01 84.29,90.14 84.16,90.14 84.02,90.27 83.89,90.27 83.89,90.14 83.75,90.14 83.75,90.01 
	83.62,90.01 83.62,90.14 83.62,90.27 83.49,90.27 83.49,90.41 83.35,90.41 83.22,90.41 83.22,90.54 83.08,90.54 82.95,90.54 
	82.95,90.68 82.81,90.68 82.68,90.68 82.55,90.68 82.41,90.68 82.41,90.54 82.55,90.41 82.41,90.41 82.41,90.27 82.28,90.14 
	82.28,90.01 82.28,89.87 82.14,89.87 82.01,89.87 81.88,89.87 81.88,89.74 81.74,89.74 81.74,89.6 81.61,89.6 81.47,89.6 
	81.34,89.6 81.2,89.6 81.07,89.6 80.94,89.6 80.8,89.6 80.67,89.6 80.67,89.47 80.67,89.33 80.67,89.2 80.67,89.07 80.53,88.93 
	80.53,88.8 80.53,88.66 80.4,88.66 80.27,88.66 80.13,88.53 80.13,88.4 80,88.26 79.86,88.26 79.86,88.13 79.73,88.13 79.6,88.13 
	79.46,88.13 79.33,88.26 79.19,88.26 79.06,88.26 78.92,88.26 78.79,88.26 78.66,88.4 78.52,88.4 78.39,88.4 78.25,88.53 
	78.12,88.66 77.99,88.66 77.85,88.8 77.85,88.93 77.72,88.93 77.72,89.07 77.58,89.07 77.45,89.2 77.31,89.2 77.18,89.2 77.05,89.2 
	76.91,89.33 76.78,89.33 76.64,89.33 76.64,89.47 76.51,89.6 76.38,89.6 76.38,89.74 76.24,89.74 76.24,89.87 76.11,89.87 
	75.97,90.01 75.97,90.14 75.97,90.27 75.97,90.41 75.84,90.41 75.84,90.54 75.84,90.68 75.71,90.68 75.71,90.81 75.71,90.68 
	75.57,90.68 75.57,90.54 75.44,90.54 75.3,90.41 75.17,90.41 75.03,90.27 74.9,90.14 74.77,90.14 74.63,90.14 74.5,90.14 
	74.36,90.14 74.23,90.14 74.23,90.27 74.1,90.27 74.1,90.41 73.96,90.41 73.96,90.54 73.96,90.68 73.83,90.68 73.83,90.81 
	73.69,90.81 73.56,90.94 73.43,90.94 73.43,90.81 73.29,90.68 73.29,90.54 73.29,90.41 73.29,90.27 73.29,90.14 73.43,90.14 
	73.56,90.01 73.56,89.87 73.56,89.74 73.56,89.6 73.43,89.6 73.43,89.47 73.29,89.33 73.29,89.2 73.16,89.2 73.02,89.2 72.89,89.07 
	72.75,89.07 72.75,88.93 72.75,88.8 72.62,88.66 72.49,88.66 72.35,88.66 72.22,88.66 72.08,88.66 72.08,88.8 71.95,88.8 
	71.82,88.8 71.82,88.93 71.68,89.07 71.55,89.07 71.55,89.2 71.55,89.33 71.41,89.47 71.28,89.47 71.28,89.6 71.14,89.74 
	71.14,89.87 71.14,90.01 71.01,90.01 70.88,90.14 70.88,90.27 70.88,90.41 70.88,90.54 70.88,90.68 70.88,90.81 70.74,90.81 
	70.61,90.94 70.61,91.08 70.47,91.35 70.47,91.48 70.47,91.62 70.34,91.62 70.21,91.62 70.07,91.62 70.07,91.75 70.07,91.88 
	70.07,92.02 69.94,91.88 69.8,91.88 69.8,91.75 69.67,91.62 69.54,91.48 69.4,91.48 69.27,91.48 69.13,91.48 69,91.48 68.86,91.35 
	68.73,91.35 68.6,91.35 68.46,91.35 68.46,91.21 68.33,91.08 68.19,90.94 68.06,90.81 68.06,90.68 68.06,90.54 68.06,90.14 
	68.06,90.01 68.06,89.87 67.93,89.87 67.93,89.74 67.93,89.6 67.79,89.6 67.66,89.47 67.52,89.47 67.39,89.6 67.26,89.6 
	67.12,89.74 67.12,89.87 66.99,89.87 66.99,90.01 66.85,90.01 66.72,90.14 66.58,90.27 66.45,90.41 66.32,90.54 66.18,90.68 
	66.18,90.81 66.18,90.94 66.05,90.94 66.05,91.08 65.91,91.08 65.78,91.08 65.78,91.21 65.65,91.21 65.51,91.21 65.38,91.35 
	65.38,91.48 65.24,91.48 65.24,91.62 65.11,91.62 64.97,91.75 64.84,91.75 64.71,91.75 64.57,91.75 64.44,91.75 64.3,91.75 
	64.3,91.88 64.17,91.88 64.04,92.02 63.9,92.15 63.77,92.29 63.63,92.29 63.63,92.42 63.5,92.55 63.37,92.69 63.37,92.82 
	63.23,92.82 63.23,92.96 63.23,93.09 63.1,93.09 62.83,93.22 62.69,93.36 62.56,93.49 62.43,93.63 62.43,93.76 62.43,93.9 
	62.43,94.03 62.29,94.03 62.29,94.16 62.43,94.3 62.43,94.43 62.43,94.57 62.56,94.7 62.43,94.83 62.29,94.83 62.16,94.7 
	62.02,94.7 61.89,94.7 61.76,94.7 61.62,94.7 61.62,94.83 61.62,94.97 61.49,94.97 61.49,95.1 61.49,95.24 61.35,95.24 61.22,95.24 
	61.09,95.24 60.95,95.24 60.82,95.24 60.68,95.24 60.55,95.24 60.41,95.24 60.28,95.1 60.15,95.1 60.01,94.97 59.88,94.97 
	59.74,94.97 59.61,95.1 59.48,95.1 59.34,95.24 59.21,95.24 59.07,95.24 59.07,95.1 58.94,94.97 58.94,94.83 58.8,94.83 58.8,94.7 
	58.67,94.7 58.54,94.7 58.4,94.7 58.27,94.7 58.13,94.57 58,94.57 58,94.43 58,94.3 57.87,94.16 57.73,94.03 57.6,93.9 57.46,93.9 
	57.33,93.9 57.2,93.76 57.06,93.76 56.93,93.76 56.79,93.63 56.66,93.63 56.52,93.49 56.39,93.63 56.26,93.63 56.12,93.76 
	55.85,93.9 55.72,93.9 55.59,94.03 55.45,94.03 55.32,94.03 55.18,94.16 55.05,94.16 55.05,94.3 54.91,94.43 54.78,94.43 
	54.78,94.57 54.65,94.7 54.65,94.83 54.65,94.97 54.78,94.97 54.78,95.1 54.78,95.24 54.78,95.37 54.78,95.5 54.65,95.5 
	54.51,95.64 54.38,95.64 54.38,95.77 54.24,95.91 54.11,95.91 53.98,95.91 53.84,95.91 53.71,96.04 53.57,95.91 53.44,95.77 
	53.57,95.77 53.57,95.64 53.57,95.5 53.71,95.5 53.71,95.37 53.71,95.24 53.71,95.1 53.57,94.97 53.44,94.83 53.31,94.7 53.17,94.7 
	53.04,94.83 52.9,94.83 52.9,94.97 52.77,94.97 52.77,95.1 52.63,95.1 52.5,95.1 52.37,95.1 52.23,94.97 52.1,94.97 51.96,94.97 
	51.83,94.97 51.7,94.97 51.56,94.97 51.43,94.97 51.29,94.97 51.29,94.83 51.16,94.83 51.16,94.7 51.02,94.57 50.89,94.57 
	50.76,94.57 50.76,94.43 50.76,94.3 50.62,94.3 50.49,94.16 50.35,94.16 50.09,94.03 49.95,94.03 49.82,94.03 49.68,94.03 
	49.68,94.16 49.55,94.16 49.55,94.3 49.42,94.43 49.28,94.43 49.15,94.43 49.01,94.43 49.01,94.3 48.88,94.3 48.88,94.16 
	48.88,94.03 48.74,94.03 48.74,93.9 48.61,93.9 48.48,93.9 48.21,93.9 48.07,93.9 47.94,93.9 47.81,94.03 47.67,94.16 47.54,94.16 
	47.54,94.3 47.4,94.3 47.27,94.3 47,94.3 46.87,94.3 46.73,94.3 46.6,94.3 46.46,94.3 46.33,94.3 46.2,94.3 46.06,94.3 45.93,94.3 
	45.79,94.3 45.79,94.16 45.66,94.16 45.53,94.03 45.39,94.03 45.39,94.16 45.26,94.16 45.26,94.3 45.12,94.3 44.99,94.3 44.85,94.3 
	44.72,94.43 44.59,94.3 44.45,94.3 44.32,94.43 44.18,94.43 44.05,94.43 43.92,94.43 43.78,94.43 43.65,94.43 43.51,94.3 
	43.38,94.3 43.38,94.16 43.25,94.16 43.11,94.03 42.98,94.03 42.84,94.03 42.71,93.9 42.57,93.76 42.57,93.63 42.44,93.63 
	42.44,93.49 42.31,93.49 42.17,93.49 42.17,93.36 42.04,93.36 41.9,93.36 41.77,93.36 41.64,93.36 41.64,93.22 41.5,93.22 
	41.37,93.09 41.37,92.96 41.23,92.96 41.1,92.82 40.97,92.69 40.83,92.55 40.7,92.42 40.7,92.29 40.56,92.15 40.43,92.15 
	40.43,92.02 40.29,92.02 40.16,92.02 40.03,92.02 40.03,92.15 40.03,92.02 39.89,92.02 39.89,91.88 39.76,91.88 39.76,91.75 
	39.62,91.75 39.62,91.62 39.49,91.62 39.49,91.48 39.36,91.35 39.22,91.35 39.09,91.35 38.95,91.48 38.95,91.62 38.82,91.62 
	38.82,91.75 38.68,91.75 38.68,91.88 38.68,92.02 38.55,92.02 38.55,92.15 38.42,92.15 38.28,92.15 38.15,92.15 38.01,92.15 
	38.01,92.29 37.88,92.42 37.88,92.55 37.75,92.55 37.75,92.69 37.61,92.69 37.48,92.69 37.34,92.69 37.34,92.82 37.48,92.96 
	37.48,93.09 37.48,93.22 37.34,93.22 37.34,93.36 37.21,93.49 37.21,93.63 36.94,93.9 36.81,94.03 36.67,94.16 36.54,94.16 
	36.27,94.16 36.14,94.3 36,94.3 35.87,94.3 35.73,94.3 35.73,94.16 35.73,94.03 35.73,93.9 35.6,93.76 35.47,93.76 35.33,93.63 
	35.2,93.36 34.93,93.36 34.79,93.22 34.66,93.22 34.53,93.22 34.53,93.09 34.39,92.96 34.26,92.96 34.26,92.82 34.26,92.69 
	34.39,92.55 34.53,92.42 34.53,92.29 34.66,92.15 34.66,92.02 34.53,92.15 34.39,92.15 34.26,92.15 34.12,92.02 33.99,91.88 
	33.86,91.88 33.72,91.88 33.59,91.88 33.45,92.02 33.32,92.02 33.19,92.02 33.05,92.02 32.92,92.02 32.78,92.02 32.78,92.15 
	32.92,92.15 33.05,92.15 33.19,92.15 33.19,92.29 33.19,92.42 33.05,92.42 32.92,92.55 32.78,92.55 32.65,92.69 32.65,92.82 
	32.51,92.82 32.51,92.96 32.51,93.09 32.51,93.22 32.51,93.36 32.51,93.49 32.38,93.49 32.25,93.49 32.25,93.63 32.11,93.63 
	31.98,93.76 31.84,93.76 31.84,93.9 31.71,93.9 31.44,94.03 31.31,94.03 31.31,94.16 31.31,94.3 31.44,94.3 31.44,94.43 
	31.44,94.57 31.44,94.7 31.44,94.83 31.31,94.97 31.44,95.1 31.44,95.24 31.58,95.24 31.44,95.37 31.31,95.5 31.17,95.5 31.04,95.5 
	30.9,95.64 30.64,95.64 30.5,95.64 30.37,95.64 30.23,95.64 30.1,95.64 29.97,95.77 29.83,95.77 29.7,95.77 29.56,95.91 
	29.43,95.91 29.3,96.04 29.16,96.04 29.03,96.04 28.89,95.91 28.89,95.77 28.76,95.64 28.62,95.5 28.62,95.37 28.76,95.24 
	28.76,95.1 28.89,94.97 28.89,94.83 28.89,94.7 28.76,94.57 28.76,94.43 28.76,94.3 28.76,94.16 28.62,94.03 28.49,94.03 
	28.36,94.03 28.09,94.16 27.95,94.3 27.82,94.3 27.69,94.43 27.55,94.43 27.42,94.43 27.28,94.43 27.15,94.57 26.88,94.57 
	26.75,94.57 26.61,94.57 26.48,94.57 26.34,94.7 26.21,94.7 26.08,94.83 25.94,94.83 25.81,94.97 25.81,95.1 25.67,95.24 
	25.67,95.37 25.54,95.5 25.54,95.64 25.41,95.77 25.41,95.91 25.41,96.18 25.27,96.31 25,96.44 24.87,96.58 24.73,96.58 24.6,96.58 
	24.47,96.58 24.33,96.71 24.06,96.71 23.93,96.85 23.8,96.85 23.66,96.85 23.39,96.85 23.26,96.85 23.13,96.85 23.13,96.71 
	23.13,96.58 22.99,96.44 22.99,96.31 22.86,96.18 22.72,96.04 22.72,95.91 22.59,95.91 22.45,95.91 22.32,95.91 22.19,95.91 
	22.05,95.91 22.05,95.77 21.92,95.77 21.78,95.64 21.65,95.64 21.65,95.5 21.65,95.24 21.65,95.1 21.78,94.97 21.78,94.83 
	21.78,94.7 21.92,94.57 21.92,94.43 21.92,94.3 22.05,94.16 22.05,94.03 21.92,93.9 21.92,93.76 21.78,93.63 21.78,93.49 
	21.78,93.36 21.78,93.22 21.78,93.09 21.78,92.96 21.92,92.82 21.92,92.69 21.92,92.42 21.92,92.29 21.78,92.15 21.78,92.02 
	21.78,91.88 21.92,91.75 22.05,91.62 22.19,91.48 22.19,91.21 22.19,91.08 22.19,90.94 22.05,90.81 22.05,90.68 21.92,90.54 
	21.92,90.41 22.05,90.27 22.05,90.14 22.05,90.01 22.05,89.87 22.05,89.74 22.05,89.47 22.19,89.47 22.19,89.33 22.19,89.2 
	22.32,88.93 22.32,88.8 22.32,88.66 22.32,88.53 22.45,88.4 22.45,88.26 22.32,88.26 22.32,88.13 22.45,88.13 22.45,87.99 
	22.45,87.86 22.59,87.86 22.45,87.73 22.45,87.59 22.45,87.46 22.32,87.32 22.19,87.32 22.19,87.19 22.19,87.05 22.19,86.92 
	22.05,86.92 21.92,86.79 21.78,86.79 21.78,86.65 21.65,86.52 21.65,86.38 21.65,86.25 21.78,86.12 21.78,85.98 21.92,85.98 
	22.05,85.98 22.05,85.85 21.92,85.58 21.92,85.45 22.05,85.31 21.92,85.18 21.92,85.04 21.78,84.91 21.65,84.91 21.52,84.77 
	21.38,84.77 21.25,84.77 20.98,84.64 20.71,84.51 20.58,84.51 20.71,84.37 20.71,83.57 20.71,83.43 20.71,83.16 20.71,83.03 
	20.71,82.9 20.71,82.63 20.58,82.49 20.58,82.36 20.44,82.23 20.44,82.09 20.44,81.96 20.58,81.82 20.58,81.69 20.44,81.56 
	20.44,81.42 20.31,81.29 20.31,81.15 20.31,81.02 20.44,81.02 20.58,80.88 20.71,80.75 20.85,80.75 20.98,80.62 21.11,80.48 
	21.38,80.35 21.38,80.21 21.52,80.21 21.52,80.08 21.52,79.81 21.38,79.68 21.38,79.54 21.38,79.41 21.38,79.28 21.52,79.14 
	21.65,79.01 21.78,78.87 21.92,78.74 21.92,78.6 22.05,78.47 22.05,78.34 22.05,78.2 22.05,78.07 22.05,77.93 22.05,77.8 
	22.05,77.53 22.05,77.4 22.19,76.99 22.19,76.86 22.32,76.73 22.32,76.59 22.32,76.46 22.32,76.32 22.19,76.19 22.19,76.06 
	22.05,75.92 22.05,75.65 22.05,75.52 22.05,75.39 22.19,75.25 22.19,75.12 22.19,74.98 22.19,74.85 22.05,74.85 22.05,74.58 
	22.05,74.45 21.92,74.45 21.92,74.31 21.78,74.31 21.78,74.18 21.65,74.18 21.65,74.04 21.78,74.04 21.78,74.18 21.78,74.04 
	21.65,74.04 21.65,73.91 21.52,73.91 21.52,73.78 21.65,73.78 21.65,73.64 21.78,73.64 21.78,73.51 21.65,73.37 21.78,73.37 
	21.78,73.24 21.92,73.24 21.92,73.1 21.78,73.1 21.92,73.1 21.92,72.97 21.78,72.97 21.92,72.97 21.92,72.84 21.92,72.7 22.05,72.7 
	21.92,72.7 21.78,72.7 21.78,72.57 21.78,72.43 21.78,72.57 21.65,72.57 21.65,72.43 21.78,72.43 21.65,72.43 21.65,72.3 
	21.78,72.3 21.78,72.17 21.78,72.03 21.65,71.76 21.65,71.63 21.65,71.5 21.52,71.23 21.52,71.09 21.38,70.96 21.38,70.83 
	21.25,70.83 21.11,70.69 20.98,70.56 20.71,70.42 20.58,70.29 20.44,70.02 20.17,69.89 19.91,69.62 19.64,69.48 19.64,69.35 
	19.5,69.22 19.37,69.08 19.24,69.08 19.1,68.95 18.97,68.81 18.3,67.87 18.03,67.61 17.89,67.34 17.76,67.07 17.63,66.94 
	17.49,66.53 17.49,66.4 17.49,66.26 17.49,66.13 17.49,66 17.49,65.86 17.63,65.73 17.63,65.59 17.76,65.46 17.89,65.33 
	18.03,65.19 18.03,65.06 18.03,64.92 18.16,64.79 18.16,64.65 18.16,64.52 18.16,64.39 18.16,64.25 18.03,63.98 18.03,63.85 
	17.89,63.72 17.89,63.58 17.76,63.45 17.76,63.31 17.76,63.18 17.63,62.91 17.63,62.78 17.49,62.64 17.49,62.51 17.36,62.24 
	17.36,62.11 17.36,61.97 17.22,61.7 17.22,61.57 17.22,61.44 17.09,61.17 16.95,61.17 16.95,61.03 16.82,61.03 16.69,60.9 
	16.42,60.77 16.28,60.63 16.02,60.63 15.88,60.63 15.75,60.5 15.61,60.5 15.48,60.5 15.48,60.36 15.35,60.36 15.08,60.23 
	14.94,60.09 14.81,60.09 14.67,60.09 14.54,59.96 14.14,59.96 14,59.96 13.47,59.83 13.33,59.83 13.2,59.83 13.07,59.83 
	12.93,59.83 12.53,59.69 12.13,59.56 11.99,59.42 11.86,59.42 11.72,59.29 11.59,59.16 11.46,59.16 11.46,59.02 11.32,59.02 
	11.19,58.89 11.05,58.89 11.05,58.75 10.92,58.62 10.92,58.48 10.78,58.48 10.78,58.35 10.65,58.35 10.52,58.48 10.38,58.48 
	10.38,58.35 10.38,58.22 10.25,58.22 10.25,58.08 10.11,58.08 10.11,57.95 9.98,57.95 9.98,57.81 9.98,57.68 9.98,57.55 9.85,57.55 
	9.85,57.41 9.98,57.41 9.98,57.28 9.98,57.14 10.11,57.14 10.25,57.14 10.25,57.01 10.25,56.88 10.25,57.01 10.11,56.88 
	10.25,56.88 10.25,56.74 10.25,56.61 10.25,56.47 10.38,56.47 10.52,56.47 10.38,56.34 10.52,56.34 10.65,56.34 10.65,56.2 
	10.65,56.07 10.65,55.94 10.65,56.07 10.78,56.07 10.78,55.94 10.78,55.8 10.92,55.8 11.05,55.8 11.19,55.8 11.19,55.67 
	11.32,55.67 11.19,55.53 11.19,55.4 11.32,55.4 11.19,55.27 11.05,55.27 11.05,55.13 11.05,55 10.92,54.86 10.92,54.73 11.05,54.73 
	11.19,54.73 11.19,54.6 11.19,54.46 11.19,54.33 11.32,54.19 11.46,54.06 11.59,53.92 11.59,53.79 11.59,53.66 11.72,53.66 
	11.59,53.52 11.59,53.39 11.72,53.39 11.72,53.25 11.72,53.12 11.86,53.12 11.99,52.99 12.13,52.99 12.13,52.85 12.26,52.85 
	12.39,52.72 12.53,52.72 12.53,52.58 12.66,52.45 12.53,52.45 12.53,52.32 12.39,52.32 12.39,52.18 12.66,51.91 12.93,51.64 
	12.93,51.51 12.93,51.38 12.8,51.38 12.8,51.24 12.93,51.24 13.07,51.24 13.07,51.11 13.07,50.97 13.07,50.84 13.07,50.71 
	13.07,50.57 12.93,50.57 12.93,50.44 13.07,50.44 13.07,50.3 13.07,50.17 13.07,50.03 13.07,49.9 13.2,49.9 13.33,50.03 
	13.47,50.03 13.6,50.03 13.87,49.77 14,49.77 14.14,49.77 14.27,49.77 14.27,49.63 14.41,49.63 14.41,49.5 14.54,49.5 14.67,49.5 
	14.81,49.5 14.94,49.5 14.94,49.36 14.81,49.36 14.67,49.36 14.67,49.23 14.67,49.1 14.81,49.1 14.81,48.96 14.67,48.96 
	14.67,48.83 14.67,48.69 14.81,48.83 14.81,48.69 14.81,48.56 14.81,48.43 14.81,48.29 14.81,48.02 14.67,48.02 14.67,47.89 
	14.54,47.89 14.54,47.75 14.67,47.75 14.67,47.62 14.67,47.49 14.81,47.49 14.94,47.49 15.08,47.35 15.21,47.22 15.21,47.08 
	15.35,47.22 15.21,47.35 15.21,47.49 15.35,47.49 15.35,47.35 15.48,47.35 15.48,47.49 15.48,47.35 15.61,47.35 15.75,47.49 
	15.75,47.35 15.75,47.22 15.61,47.22 15.61,47.08 15.75,47.08 15.75,46.95 15.88,46.95 15.88,46.82 16.02,46.82 15.88,46.82 
	16.02,46.82 16.15,46.82 16.15,46.68 16.28,46.55 16.42,46.55 16.42,46.68 16.55,46.68 16.69,46.55 16.69,46.41 16.69,46.28 
	16.82,46.28 16.82,46.15 16.95,46.15 17.09,46.15 17.09,46.01 16.95,46.01 16.95,45.88 17.09,45.88 17.22,45.74 17.22,45.61 
	17.09,45.61 16.95,45.47 17.09,45.47 17.09,45.34 17.09,45.21 17.09,45.07 16.95,45.07 16.95,44.94 16.95,44.8 16.95,44.67 
	16.95,44.54 17.09,44.4 16.95,44.27 16.95,44.4 16.82,44.4 16.69,44.27 16.69,44.13 16.69,44.27 16.82,44.13 16.82,44 16.95,44 
	16.95,43.86 17.09,43.86 17.22,43.86 17.36,43.86 17.36,43.73 17.36,43.86 17.49,43.86 17.63,43.86 17.76,44 17.89,44 17.89,43.86 
	17.89,43.73 17.89,43.6 17.89,43.46 18.03,43.46 18.03,43.33 17.89,43.33 17.89,43.19 17.89,43.06 18.03,43.06 18.03,42.93 
	18.16,42.93 18.3,42.93 18.3,42.79 18.16,42.79 18.16,42.66 18.03,42.52 17.89,42.52 17.89,42.39 18.03,42.39 18.03,42.26 
	18.03,42.12 17.89,42.12 18.03,42.12 18.16,42.12 18.3,42.12 18.43,42.12 18.3,42.12 18.43,42.12 18.56,42.12 18.56,41.99 
	18.56,41.85 18.56,41.72 18.56,41.58 18.43,41.58 18.3,41.58 18.3,41.45 18.16,41.45 18.16,41.32 18.03,41.18 18.03,41.05 
	18.03,40.91 17.89,40.91 17.76,40.78 17.63,40.78 17.63,40.91 17.49,40.91 17.36,40.91 17.36,40.78 17.49,40.78 17.49,40.65 
	17.63,40.65 17.76,40.65 17.76,40.51 17.89,40.38 18.03,40.24 17.89,40.24 17.89,40.11 17.76,39.98 17.63,39.84 17.76,39.84 
	17.76,39.71 17.76,39.57 17.89,39.57 17.89,39.71 18.03,39.71 18.03,39.84 18.16,39.84 18.3,39.98 18.43,39.84 18.43,39.71 
	18.43,39.57 18.43,39.44 18.56,39.44 18.56,39.3 18.43,39.3 18.43,39.17 18.3,39.17 18.3,39.04 18.16,39.04 18.03,39.04 
	17.89,39.04 17.76,39.04 17.63,39.17 17.49,39.17 17.36,39.17 17.22,39.17 17.22,39.3 17.09,39.3 16.95,39.17 16.82,39.17 
	16.82,39.04 16.95,38.9 16.95,38.77 17.09,38.77 17.09,38.63 16.95,38.63 16.82,38.63 16.82,38.77 16.69,38.77 16.55,38.77 
	16.55,38.9 16.42,38.9 16.42,38.77 16.42,38.63 16.42,38.5 16.42,38.37 16.28,38.37 16.42,38.37 16.55,38.5 16.69,38.5 16.69,38.37 
	16.69,38.23 16.82,38.23 16.82,38.1 16.69,38.1 16.69,37.96 16.55,37.96 16.55,37.83 16.55,37.69 16.69,37.69 16.69,37.56 
	16.69,37.43 16.55,37.43 16.55,37.29 16.55,37.16 16.55,37.02 16.42,37.02 16.42,36.89 16.55,36.89 16.55,36.76 16.55,36.62 
	16.55,36.76 16.42,36.76 16.28,36.76 16.28,36.62 16.28,36.49 16.42,36.49 16.42,36.35 16.42,36.22 16.55,36.22 16.69,36.22 
	16.82,36.22 16.82,36.09 16.95,36.09 16.95,35.95 16.82,35.95 16.69,35.95 16.55,35.95 16.55,35.82 16.55,35.68 16.42,35.68 
	16.28,35.68 16.15,35.68 16.15,35.82 16.02,35.82 16.02,35.68 16.15,35.68 16.15,35.55 16.02,35.55 16.02,35.41 15.88,35.41 
	15.88,35.28 16.02,35.28 16.02,35.15 16.02,35.01 16.02,34.88 16.15,34.88 16.28,34.88 16.42,34.88 16.42,35.01 16.42,34.88 
	16.42,34.74 16.55,34.74 16.55,34.88 16.69,34.88 16.82,34.74 16.82,34.61 16.82,34.48 16.82,34.34 16.69,34.34 16.69,34.21 
	16.69,34.07 16.69,33.94 16.82,33.94 16.82,33.81 16.82,33.67 16.69,33.67 16.69,33.81 16.55,33.81 16.42,33.81 16.42,33.67 
	16.28,33.67 16.28,33.54 16.15,33.54 16.02,33.54 15.88,33.54 15.88,33.4 15.75,33.4 15.61,33.4 15.61,33.27 15.48,33.27 
	15.61,33.27 15.61,33.13 15.61,33 15.48,33 15.48,32.73 15.35,32.73 15.35,32.87 15.21,32.87 15.21,33 15.08,33 14.94,32.87 
	14.81,32.87 14.67,32.87 14.67,32.73 14.54,32.73 14.54,32.6 14.41,32.6 14.41,32.73 14.27,32.6 14.27,32.46 14.41,32.46 
	14.54,32.46 14.54,32.33 14.41,32.2 14.54,32.06 14.54,31.93 14.41,31.93 14.41,31.79 14.41,31.66 14.54,31.66 14.54,31.53 
	14.54,31.39 14.54,31.26 14.41,31.26 14.27,31.12 14.14,30.99 14.27,30.99 14.27,30.85 14.41,30.85 14.41,30.72 14.54,30.72 
	14.67,30.59 14.81,30.59 14.94,30.59 15.08,30.59 15.08,30.45 14.94,30.45 14.94,30.32 15.08,30.32 15.08,30.18 15.08,30.05 
	14.94,30.05 14.94,29.92 14.94,29.78 15.08,29.78 15.21,29.78 15.21,29.92 15.35,29.92 15.35,29.78 15.48,29.78 15.48,29.65 
	15.35,29.65 15.21,29.65 15.21,29.51 15.08,29.51 14.94,29.51 14.94,29.38 14.81,29.24 14.94,29.24 14.94,29.11 15.08,29.11 
	15.08,28.98 15.08,28.84 14.94,28.84 14.94,28.71 14.81,28.71 14.81,28.57 14.67,28.57 14.54,28.44 14.41,28.31 14.41,28.17 
	14.54,28.17 14.67,28.04 14.67,27.9 14.81,27.9 14.81,27.77 14.94,27.77 15.08,27.77 15.21,27.77 15.35,27.77 15.48,27.9 
	15.61,27.9 15.75,27.9 15.75,27.77 15.88,27.77 15.88,27.64 15.75,27.64 15.61,27.5 15.48,27.37 15.48,27.23 15.61,27.23 
	15.75,27.23 15.75,27.37 15.88,27.37 15.88,27.23 16.02,27.1 16.02,26.96 16.02,26.83 15.88,26.7 15.88,26.56 15.75,26.56 
	15.75,26.43 15.61,26.29 15.61,26.16 15.61,26.03 15.75,26.03 15.75,26.16 15.75,26.03 15.88,26.03 16.02,25.89 16.15,25.89 
	16.28,25.89 16.42,25.89 16.42,25.76 16.42,25.62 16.28,25.49 16.15,25.36 16.02,25.36 15.88,25.22 15.75,25.09 15.61,25.09 
	15.48,25.09 15.35,24.95 15.21,24.95 15.08,24.95 14.94,24.95 14.94,24.82 14.81,24.68 14.81,24.55 14.81,24.42 14.67,24.28 
	14.67,24.15 14.54,24.15 14.54,24.01 14.54,23.88 14.54,23.75 14.54,23.61 14.54,23.48 14.67,23.48 14.81,23.48 14.94,23.48 
	14.94,23.75 14.94,23.88 14.81,23.88 14.94,23.88 14.94,24.01 15.08,24.01 15.21,24.01 15.35,24.01 15.48,24.15 15.75,24.42 
	15.88,24.42 16.02,24.42 16.15,24.28 16.28,24.15 16.42,24.15 16.55,24.01 16.42,23.88 16.28,23.88 16.28,23.75 16.28,23.61 
	16.28,23.34 16.28,23.21 16.28,23.07 16.42,22.94 16.42,22.81 16.28,22.81 16.15,22.81 16.28,22.54 16.28,22.4 16.28,22.27 
	16.42,22.27 16.55,22.4 16.69,22.4 16.69,22.54 16.69,22.67 16.69,22.81 16.82,22.81 16.95,22.81 17.09,22.67 17.22,22.67 
	17.22,22.54 17.36,22.54 17.36,22.67 17.49,22.67 17.49,22.81 17.63,22.81 17.76,22.81 17.76,22.67 17.76,22.54 17.63,22.54 
	17.63,22.4 17.49,22.27 17.49,22.14 17.49,22 17.49,21.87 17.49,21.73 17.49,21.6 17.49,21.47 17.49,21.33 17.49,21.2 17.49,21.06 
	17.36,20.93 17.36,20.79 17.36,20.66 17.49,20.66 17.49,20.79 17.63,20.79 17.76,20.79 17.89,20.79 18.03,20.66 18.16,20.66 
	18.16,20.79 18.3,20.79 18.43,20.66 18.56,20.53 18.7,20.53 18.7,20.39 18.56,20.39 18.56,20.26 18.56,20.12 18.56,19.99 
	18.7,19.99 18.83,19.99 18.83,19.86 18.7,19.86 18.56,19.86 18.43,19.86 18.43,19.72 18.43,19.59 18.3,19.45 18.16,19.45 
	18.3,19.45 18.43,19.45 18.56,19.45 18.7,19.45 18.83,19.32 18.97,19.32 18.97,19.45 19.1,19.59 19.1,19.72 19.24,19.72 
	19.37,19.72 19.5,19.45 19.5,19.32 19.37,19.32 19.37,19.19 19.5,19.19 19.64,19.32 19.77,19.32 19.91,19.19 19.91,19.05 
	19.91,18.78 19.91,18.65 19.91,18.51 20.04,18.51 20.04,18.65 20.17,18.65 20.31,18.65 20.44,18.65 20.58,18.65 20.58,18.51 
	20.71,18.51 20.71,18.38 20.71,18.25 20.71,18.11 20.85,18.11 20.98,18.25 20.85,18.38 20.98,18.51 21.11,18.51 21.11,18.38 
	21.25,18.38 21.25,18.11 21.25,17.98 21.38,17.98 21.52,17.98 21.52,18.11 21.65,18.11 22.05,17.71 22.19,17.58 22.32,17.58 
	22.32,17.71 22.45,17.84 22.45,17.98 22.59,17.98 22.72,17.98 22.86,17.98 22.86,17.84 22.99,17.84 23.13,17.84 23.26,17.98 
	23.39,17.98 23.26,17.98 23.26,17.84 23.26,17.71 23.26,17.58 23.26,17.44 23.39,17.44 23.39,17.31 23.39,17.17 23.26,17.17 
	23.26,17.31 23.13,17.44 22.99,17.44 22.86,17.44 22.86,17.31 22.86,17.17 22.99,17.04 23.13,16.91 23.26,16.91 23.26,16.77 
	23.26,16.64 23.13,16.64 23.13,16.77 22.99,16.77 22.86,16.77 22.86,16.64 22.86,16.5 22.99,16.37 22.86,16.37 22.86,16.23 
	22.72,16.1 22.59,16.1 22.45,15.97 22.45,15.83 22.32,15.83 22.45,15.7 22.45,15.56 22.72,15.56 22.72,15.43 22.86,15.43 
	22.86,15.3 22.72,15.16 22.59,15.16 22.19,15.43 22.05,15.43 21.92,15.43 21.92,15.3 21.92,15.16 22.05,15.03 22.05,14.89 
	22.05,14.76 22.05,14.62 22.05,14.49 21.92,14.49 21.52,14.22 21.11,13.95 20.98,13.95 20.98,13.82 20.98,13.69 20.85,13.69 
	20.85,13.55 20.71,13.55 20.71,13.69 20.58,13.82 20.58,13.95 20.58,14.09 20.44,14.22 20.31,14.22 20.31,14.36 20.17,14.36 
	20.17,14.22 20.17,14.09 20.17,13.95 20.17,13.82 20.04,13.82 19.91,13.82 19.77,13.82 19.64,13.82 19.5,13.82 19.5,13.69 
	19.24,13.55 18.97,13.42 18.83,13.42 18.7,13.42 18.7,13.55 18.56,13.69 18.43,13.69 18.3,13.69 18.16,13.55 18.03,13.42 
	17.89,13.28 17.89,13.15 17.76,13.15 17.63,13.28 17.63,13.42 17.63,13.55 17.63,13.69 17.49,13.69 17.49,13.82 17.36,13.82 
	17.22,13.82 17.22,13.69 17.09,13.69 16.95,13.42 16.82,13.42 16.82,13.28 16.69,13.42 16.55,13.42 16.55,13.55 16.55,13.95 
	16.69,13.95 16.69,14.09 16.55,14.22 16.28,14.36 16.15,14.62 16.02,14.62 15.88,14.62 15.88,14.49 15.88,14.36 15.88,14.22 
	15.88,14.09 15.88,13.95 15.75,13.82 15.61,13.82 15.61,13.69 15.48,13.55 15.75,11.81 15.75,11.54 15.88,11 15.88,10.6 
	15.88,10.47 16.02,10.33 16.02,10.2 16.28,9.93 16.42,9.93 16.55,9.8 16.69,9.66 16.82,9.66 16.95,9.53 16.95,9.39 17.09,9.26 
	17.22,9.13 17.36,8.99 17.49,8.72 17.49,8.59 17.63,8.45 17.76,8.32 17.89,8.05 17.89,7.92 18.03,7.78 18.03,7.65 18.16,7.65 
	18.16,7.38 18.3,7.25 18.43,7.11 18.56,7.11 18.56,6.98 18.83,6.85 18.97,6.85 19.1,6.71 19.24,6.71 19.37,6.71 19.5,6.58 
	19.91,6.44 20.85,6.17 20.85,6.04 20.71,6.04 20.71,5.91 20.71,5.77 20.58,5.64 20.58,5.5 20.44,5.5 20.44,5.37 20.44,5.24 
	20.44,5.1 20.44,4.97 20.58,4.97 20.58,4.83 20.58,4.97 20.58,4.83 20.71,4.83 20.71,4.97 20.71,4.83 20.71,4.7 20.85,4.7 
	20.85,4.83 20.85,4.7 20.85,4.56 20.98,4.56 21.11,4.56 20.98,4.56 20.98,4.43 21.11,4.43 21.11,4.3 21.25,4.3 21.38,4.3 
	21.38,4.43 21.52,4.43 21.65,4.43 21.65,4.3 21.78,4.43 21.78,4.3 21.78,4.16 21.92,4.03 21.92,3.89 21.92,3.76 22.05,3.76 
	22.05,3.63 21.92,3.63 22.05,3.63 22.05,3.49 21.92,3.36 21.92,3.49 21.92,3.36 21.92,3.22 21.78,3.22 21.78,3.09 21.65,3.09 
	21.78,3.09 21.78,2.96 21.92,2.96 21.92,2.82 22.05,2.82 22.05,2.69 22.05,2.55 22.19,2.55 22.19,2.69 22.19,2.55 22.32,2.55 
	22.32,2.69 22.32,2.55 22.32,2.42 22.45,2.42 22.45,2.28 22.59,2.28 22.59,2.15 22.72,2.15 22.72,2.28 22.72,2.15 22.86,2.15 
	22.99,2.15 22.99,2.02 23.13,2.02 23.26,2.02 23.13,2.02 23.13,2.15 23.26,2.15 23.39,2.15 23.39,2.28 23.26,2.28 23.39,2.28 
	23.39,2.42 23.53,2.42 23.53,2.28 23.53,2.42 23.66,2.42 23.8,2.42 23.8,2.55 23.93,2.55 23.93,2.42 24.06,2.42 24.2,2.42 
	24.06,2.42 24.06,2.28 24.2,2.28 24.06,2.15 24.06,2.02 23.93,2.02 24.06,2.02 24.06,1.88 23.93,1.88 23.8,1.88 23.8,1.75 
	23.8,1.61 23.66,1.48 23.66,1.35 23.66,1.21 23.53,1.21 23.53,1.08 23.53,0.94 23.66,0.81 23.8,0.81 23.93,0.81 23.8,0.81 
	23.93,0.81 23.93,0.68 23.93,0.81 24.06,0.68 24.2,0.68 24.2,0.81 24.33,0.81 24.47,0.81 24.47,0.94 24.6,0.94 24.73,1.08 
	24.73,1.21 24.87,1.21 25,1.21 25.14,1.21 25.27,1.21 "/>
</svg>
