<?xml version="1.0" encoding="utf-8"?>
<!-- Generator: Adobe Illustrator 24.2.1, SVG Export Plug-In . SVG Version: 6.00 Build 0)  -->
<svg version="1.1" id="Layer_1" xmlns="http://www.w3.org/2000/svg" xmlns:xlink="http://www.w3.org/1999/xlink" x="0px" y="0px"
	 viewBox="0 0 97.23 97.23" style="enable-background:new 0 0 97.23 97.23;" xml:space="preserve">
<style type="text/css">
	.st0{fill-rule:evenodd;clip-rule:evenodd;}
</style>
<polygon class="st0" points="80.88,5.82 81.02,5.97 81.02,6.11 81.17,6.11 81.31,6.25 81.31,6.39 81.31,6.54 81.31,6.68 81.31,6.82 
	81.31,6.96 81.45,6.96 81.59,6.96 81.74,6.68 82.02,6.54 82.16,6.39 82.16,6.25 82.02,6.25 82.02,5.82 82.02,5.68 82.16,5.68 
	82.3,5.54 82.3,5.68 82.45,5.68 82.59,5.97 82.73,5.97 82.73,6.11 82.87,6.11 83.02,6.11 83.02,5.97 83.16,5.97 83.16,5.82 
	83.16,5.68 83.16,5.54 83.3,5.4 83.44,5.4 83.44,5.54 83.58,5.68 83.73,5.82 83.87,5.97 84.01,5.97 84.15,5.97 84.3,5.82 84.3,5.68 
	84.44,5.68 84.58,5.68 84.86,5.82 85.15,5.97 85.15,6.11 85.29,6.11 85.43,6.11 85.58,6.11 85.72,6.11 85.86,6.11 85.86,6.25 
	85.86,6.39 85.86,6.54 85.86,6.68 86,6.68 86,6.54 86.14,6.54 86.29,6.39 86.29,6.25 86.29,6.11 86.43,5.97 86.43,5.82 86.57,5.82 
	86.57,5.97 86.71,5.97 86.71,6.11 86.71,6.25 86.86,6.25 87.28,6.54 87.71,6.82 87.85,6.82 87.85,6.96 87.85,7.1 87.85,7.25 
	87.85,7.39 87.71,7.53 87.71,7.67 87.71,7.82 87.85,7.82 87.99,7.82 88.42,7.53 88.56,7.53 88.7,7.67 88.7,7.82 88.56,7.82 
	88.56,7.96 88.28,7.96 88.28,8.1 88.14,8.24 88.28,8.24 88.28,8.38 88.42,8.53 88.56,8.53 88.7,8.67 88.7,8.81 88.85,8.81 
	88.7,8.95 88.7,9.1 88.7,9.24 88.85,9.24 88.99,9.24 88.99,9.1 89.13,9.1 89.13,9.24 89.13,9.38 88.99,9.38 88.85,9.52 88.7,9.66 
	88.7,9.81 88.7,9.95 88.85,9.95 88.99,9.95 89.13,9.81 89.13,9.66 89.27,9.66 89.27,9.81 89.27,9.95 89.13,9.95 89.13,10.09 
	89.13,10.23 89.13,10.38 89.13,10.52 89.27,10.52 89.13,10.52 88.99,10.38 88.85,10.38 88.7,10.38 88.7,10.52 88.56,10.52 
	88.42,10.52 88.28,10.52 88.28,10.38 88.14,10.23 88.14,10.09 87.99,10.09 87.85,10.23 87.42,10.66 87.28,10.66 87.28,10.52 
	87.14,10.52 87,10.52 87,10.66 87,10.94 86.86,10.94 86.86,11.09 86.71,11.09 86.57,10.94 86.71,10.8 86.57,10.66 86.43,10.66 
	86.43,10.8 86.43,10.94 86.43,11.09 86.29,11.09 86.29,11.23 86.14,11.23 86,11.23 85.86,11.23 85.72,11.23 85.72,11.09 
	85.58,11.09 85.58,11.23 85.58,11.37 85.58,11.66 85.58,11.8 85.43,11.94 85.29,11.94 85.15,11.8 85.01,11.8 85.01,11.94 
	85.15,11.94 85.15,12.08 85.01,12.37 84.86,12.37 84.72,12.37 84.72,12.22 84.58,12.08 84.58,11.94 84.44,11.94 84.3,12.08 
	84.15,12.08 84.01,12.08 83.87,12.08 83.73,12.08 83.87,12.08 84.01,12.22 84.01,12.37 84.01,12.51 84.15,12.51 84.3,12.51 
	84.44,12.51 84.44,12.65 84.3,12.65 84.15,12.65 84.15,12.79 84.15,12.94 84.15,13.08 84.3,13.08 84.3,13.22 84.15,13.22 
	84.01,13.36 83.87,13.5 83.73,13.5 83.73,13.36 83.58,13.36 83.44,13.5 83.3,13.5 83.16,13.5 83.02,13.5 83.02,13.36 82.87,13.36 
	82.87,13.5 82.87,13.65 83.02,13.79 83.02,13.93 83.02,14.07 83.02,14.22 83.02,14.36 83.02,14.5 83.02,14.64 83.02,14.78 
	83.02,14.93 83.02,15.07 83.16,15.21 83.16,15.35 83.3,15.35 83.3,15.5 83.3,15.64 83.16,15.64 83.02,15.64 83.02,15.5 82.87,15.5 
	82.87,15.35 82.73,15.35 82.73,15.5 82.59,15.5 82.45,15.64 82.3,15.64 82.16,15.64 82.16,15.5 82.16,15.35 82.16,15.21 
	82.02,15.21 81.88,15.07 81.74,15.07 81.74,15.21 81.74,15.35 81.59,15.64 81.74,15.64 81.88,15.64 81.88,15.78 81.74,15.92 
	81.74,16.06 81.74,16.21 81.74,16.49 81.74,16.63 81.74,16.78 81.88,16.78 82.02,16.92 81.88,17.06 81.74,17.06 81.59,17.2 
	81.45,17.34 81.31,17.34 81.17,17.34 80.88,17.06 80.74,16.92 80.6,16.92 80.46,16.92 80.31,16.92 80.31,16.78 80.17,16.78 
	80.31,16.78 80.31,16.63 80.31,16.35 80.17,16.35 80.03,16.35 79.89,16.35 79.89,16.49 79.89,16.63 79.89,16.78 79.89,16.92 
	79.89,17.06 80.03,17.06 80.03,17.2 80.17,17.34 80.17,17.49 80.17,17.63 80.31,17.77 80.31,17.91 80.46,17.91 80.6,17.91 
	80.74,17.91 80.88,18.05 81.02,18.05 81.17,18.05 81.31,18.2 81.45,18.34 81.59,18.34 81.74,18.48 81.88,18.62 81.88,18.77 
	81.88,18.91 81.74,18.91 81.59,18.91 81.45,18.91 81.31,19.05 81.17,19.05 81.17,19.19 81.17,19.05 81.02,19.05 81.02,19.19 
	81.02,19.33 81.17,19.48 81.17,19.62 81.31,19.62 81.31,19.76 81.45,19.9 81.45,20.05 81.45,20.19 81.31,20.33 81.31,20.47 
	81.17,20.47 81.17,20.33 81.02,20.33 80.88,20.33 80.88,20.47 81.02,20.62 81.17,20.76 81.31,20.76 81.31,20.9 81.17,20.9 
	81.17,21.04 81.02,21.04 80.88,21.04 80.74,20.9 80.6,20.9 80.46,20.9 80.31,20.9 80.17,20.9 80.17,21.04 80.03,21.04 80.03,21.18 
	79.89,21.33 79.74,21.33 79.74,21.47 79.89,21.61 80.03,21.75 80.17,21.75 80.17,21.9 80.31,21.9 80.31,22.04 80.46,22.04 
	80.46,22.18 80.46,22.32 80.31,22.32 80.31,22.46 80.17,22.46 80.31,22.61 80.31,22.75 80.46,22.75 80.6,22.75 80.6,22.89 
	80.74,22.89 80.88,22.89 80.88,23.03 80.74,23.03 80.74,23.18 80.6,23.18 80.6,23.03 80.46,23.03 80.31,23.03 80.31,23.18 
	80.31,23.32 80.46,23.32 80.46,23.46 80.46,23.6 80.31,23.6 80.31,23.74 80.46,23.74 80.46,23.89 80.31,23.89 80.17,23.89 
	80.03,23.89 79.89,24.03 79.74,24.03 79.74,24.17 79.6,24.17 79.6,24.31 79.46,24.31 79.6,24.46 79.74,24.6 79.89,24.6 79.89,24.74 
	79.89,24.88 79.89,25.02 79.74,25.02 79.74,25.17 79.74,25.31 79.89,25.31 79.89,25.45 79.74,25.59 79.89,25.74 79.89,25.88 
	79.74,25.88 79.6,25.88 79.6,26.02 79.74,26.16 79.74,26.02 79.89,26.02 79.89,26.16 80.03,26.16 80.03,26.3 80.17,26.3 80.31,26.3 
	80.46,26.45 80.6,26.45 80.6,26.3 80.74,26.3 80.74,26.16 80.88,26.16 80.88,26.45 81.02,26.45 81.02,26.59 81.02,26.73 
	80.88,26.73 81.02,26.73 81.02,26.87 81.17,26.87 81.31,26.87 81.31,27.02 81.45,27.02 81.59,27.02 81.74,27.02 81.74,27.16 
	81.88,27.16 81.88,27.3 82.02,27.3 82.16,27.3 82.16,27.16 82.3,27.16 82.3,27.3 82.3,27.44 82.16,27.44 82.16,27.58 82.16,27.73 
	82.16,27.87 82.3,27.87 82.3,28.01 82.3,28.15 82.3,28.3 82.16,28.44 82.02,28.44 82.02,28.3 81.88,28.3 81.88,28.44 81.88,28.58 
	81.88,28.44 81.74,28.44 81.59,28.44 81.45,28.44 81.45,28.58 81.45,28.72 81.45,28.86 81.31,28.86 81.31,29.01 81.45,29.01 
	81.45,29.15 81.59,29.15 81.59,29.29 81.45,29.29 81.45,29.43 81.59,29.43 81.59,29.29 81.74,29.29 81.88,29.29 82.02,29.29 
	82.02,29.43 82.02,29.58 82.16,29.58 82.3,29.58 82.45,29.58 82.45,29.72 82.3,29.72 82.3,29.86 82.16,29.86 82.02,29.86 
	81.88,29.86 81.88,30 81.88,30.14 81.74,30.14 81.74,30.29 81.74,30.43 81.88,30.43 82.02,30.43 82.02,30.29 82.02,30.43 
	82.02,30.57 81.88,30.57 81.88,30.71 82.02,30.71 82.02,30.85 82.02,31 82.02,31.14 82.16,31.14 82.16,31.28 82.16,31.42 
	82.02,31.42 82.02,31.57 82.02,31.71 82.16,31.71 82.16,31.85 82.3,31.85 82.3,31.99 82.16,31.99 82.16,32.13 82.16,32.28 
	82.02,32.28 81.88,32.13 81.74,32.13 81.88,32.13 81.88,32.28 81.88,32.42 81.88,32.56 81.88,32.7 82.02,32.7 82.02,32.56 
	82.16,32.56 82.3,32.56 82.3,32.42 82.45,32.42 82.59,32.42 82.59,32.56 82.45,32.56 82.45,32.7 82.3,32.85 82.3,32.99 82.45,32.99 
	82.59,33.13 82.73,33.13 82.73,32.99 82.87,32.99 83.02,32.99 83.16,32.99 83.3,32.85 83.44,32.85 83.58,32.85 83.73,32.85 
	83.87,32.85 83.87,32.99 84.01,32.99 84.01,33.13 84.15,33.13 84.15,33.27 84.01,33.27 84.01,33.41 84.01,33.56 84.01,33.7 
	83.87,33.84 83.73,33.7 83.58,33.7 83.58,33.56 83.44,33.56 83.44,33.41 83.3,33.41 83.3,33.56 83.3,33.7 83.16,33.7 83.3,33.84 
	83.44,33.98 83.44,34.13 83.58,34.13 83.44,34.27 83.3,34.41 83.3,34.55 83.16,34.55 83.02,34.55 83.02,34.69 82.87,34.69 
	82.87,34.84 83.02,34.84 83.16,34.84 83.16,34.69 83.3,34.69 83.44,34.84 83.58,34.84 83.58,34.98 83.58,35.12 83.73,35.26 
	83.73,35.41 83.87,35.41 83.87,35.55 84.01,35.55 84.15,35.55 84.15,35.69 84.15,35.83 84.15,35.97 84.15,36.12 84.01,36.12 
	83.87,36.12 84.01,36.12 83.87,36.12 83.73,36.12 83.58,36.12 83.44,36.12 83.58,36.12 83.58,36.26 83.58,36.4 83.44,36.4 
	83.44,36.54 83.58,36.54 83.73,36.69 83.73,36.83 83.87,36.83 83.87,36.97 83.73,36.97 83.58,36.97 83.58,37.11 83.44,37.11 
	83.44,37.25 83.44,37.4 83.58,37.4 83.58,37.54 83.44,37.54 83.44,37.68 83.44,37.82 83.44,37.97 83.44,38.11 83.3,38.11 
	83.16,37.97 83.02,37.97 82.87,37.97 82.87,37.82 82.87,37.97 82.73,37.97 82.59,37.97 82.45,37.97 82.45,38.11 82.3,38.11 
	82.3,38.25 82.16,38.39 82.16,38.25 82.16,38.39 82.3,38.54 82.45,38.54 82.45,38.39 82.59,38.54 82.45,38.68 82.45,38.82 
	82.45,38.96 82.45,39.1 82.45,39.25 82.59,39.25 82.59,39.39 82.59,39.53 82.59,39.67 82.45,39.67 82.59,39.82 82.73,39.82 
	82.73,39.96 82.59,40.1 82.45,40.1 82.45,40.24 82.59,40.24 82.59,40.38 82.45,40.38 82.3,40.38 82.3,40.53 82.16,40.53 
	82.16,40.67 82.16,40.81 82.02,40.95 81.88,40.95 81.88,40.81 81.74,40.81 81.59,40.95 81.59,41.1 81.45,41.1 81.31,41.1 
	81.45,41.1 81.31,41.1 81.31,41.24 81.17,41.24 81.17,41.38 81.02,41.38 81.02,41.52 81.17,41.52 81.17,41.66 81.17,41.81 
	81.02,41.66 80.88,41.66 80.88,41.81 80.88,41.66 80.74,41.66 80.74,41.81 80.6,41.81 80.6,41.66 80.74,41.52 80.6,41.38 
	80.6,41.52 80.46,41.66 80.31,41.81 80.17,41.81 80.03,41.81 80.03,41.95 80.03,42.09 79.89,42.09 79.89,42.23 80.03,42.23 
	80.03,42.38 80.17,42.38 80.17,42.66 80.17,42.8 80.17,42.94 80.17,43.09 80.17,43.23 80.03,43.09 80.03,43.23 80.03,43.37 
	80.17,43.37 80.17,43.51 80.03,43.51 80.03,43.66 80.03,43.8 80.17,43.8 80.31,43.8 80.31,43.94 80.17,43.94 80.03,43.94 
	79.89,43.94 79.74,43.94 79.74,44.08 79.6,44.08 79.6,44.22 79.46,44.22 79.32,44.22 79.18,44.22 78.89,44.51 78.75,44.51 
	78.61,44.51 78.46,44.37 78.32,44.37 78.32,44.51 78.32,44.65 78.32,44.79 78.32,44.94 78.18,44.94 78.18,45.08 78.32,45.08 
	78.32,45.22 78.32,45.36 78.32,45.5 78.32,45.65 78.32,45.79 78.18,45.79 78.04,45.79 78.04,45.93 78.18,45.93 78.18,46.07 
	78.18,46.22 77.9,46.5 77.61,46.78 77.61,46.93 77.75,46.93 77.75,47.07 77.9,47.07 77.75,47.21 77.75,47.35 77.61,47.35 
	77.47,47.5 77.33,47.5 77.33,47.64 77.18,47.64 77.04,47.78 76.9,47.78 76.9,47.92 76.9,48.06 76.76,48.06 76.76,48.21 76.9,48.35 
	76.76,48.35 76.76,48.49 76.76,48.63 76.62,48.78 76.47,48.92 76.33,49.06 76.33,49.2 76.33,49.34 76.33,49.49 76.19,49.49 
	76.05,49.49 76.05,49.63 76.19,49.77 76.19,49.91 76.19,50.06 76.33,50.06 76.47,50.2 76.33,50.2 76.33,50.34 76.47,50.48 
	76.33,50.48 76.33,50.62 76.19,50.62 76.05,50.62 75.9,50.62 75.9,50.77 75.9,50.91 75.76,50.91 75.76,50.77 75.76,50.91 
	75.76,51.05 75.76,51.19 75.62,51.19 75.48,51.19 75.62,51.33 75.48,51.33 75.34,51.33 75.34,51.48 75.34,51.62 75.34,51.76 
	75.19,51.76 75.34,51.9 75.34,51.76 75.34,51.9 75.34,52.05 75.19,52.05 75.05,52.05 75.05,52.19 75.05,52.33 74.91,52.33 
	74.91,52.47 75.05,52.47 75.05,52.61 75.05,52.76 75.05,52.9 75.19,52.9 75.19,53.04 75.34,53.04 75.34,53.18 75.48,53.18 
	75.48,53.33 75.48,53.47 75.62,53.47 75.76,53.33 75.9,53.33 75.9,53.47 76.05,53.47 76.05,53.61 76.19,53.75 76.19,53.89 
	76.33,53.89 76.47,54.04 76.62,54.04 76.62,54.18 76.76,54.18 76.9,54.32 77.04,54.46 77.18,54.46 77.33,54.61 77.75,54.75 
	78.18,54.89 78.32,54.89 78.46,54.89 78.61,54.89 78.75,54.89 79.32,55.03 79.46,55.03 79.89,55.03 80.03,55.17 80.17,55.17 
	80.31,55.17 80.46,55.32 80.74,55.46 80.88,55.46 80.88,55.6 81.02,55.6 81.17,55.6 81.31,55.74 81.45,55.74 81.74,55.74 
	81.88,55.89 82.16,56.03 82.3,56.17 82.45,56.17 82.45,56.31 82.59,56.31 82.73,56.6 82.73,56.74 82.73,56.88 82.87,57.17 
	82.87,57.31 82.87,57.45 83.02,57.74 83.02,57.88 83.16,58.02 83.16,58.16 83.3,58.45 83.3,58.59 83.3,58.73 83.44,58.87 
	83.44,59.02 83.58,59.16 83.58,59.3 83.73,59.58 83.73,59.73 83.73,59.87 83.73,60.01 83.73,60.15 83.58,60.3 83.58,60.44 
	83.58,60.58 83.44,60.72 83.3,60.86 83.16,61.01 83.16,61.15 83.02,61.29 83.02,61.43 83.02,61.58 83.02,61.72 83.02,61.86 
	83.02,62 83.16,62.43 83.3,62.57 83.44,62.86 83.58,63.14 83.87,63.42 84.58,64.42 84.72,64.56 84.86,64.7 85.01,64.7 85.15,64.85 
	85.29,64.99 85.29,65.13 85.58,65.27 85.86,65.56 86.14,65.7 86.29,65.98 86.43,66.13 86.71,66.27 86.86,66.41 87,66.55 
	87.14,66.55 87.14,66.7 87.28,66.84 87.28,66.98 87.42,67.26 87.42,67.41 87.42,67.55 87.57,67.83 87.57,67.98 87.57,68.12 
	87.42,68.12 87.42,68.26 87.57,68.26 87.42,68.26 87.42,68.4 87.57,68.4 87.57,68.26 87.57,68.4 87.57,68.54 87.71,68.54 
	87.85,68.54 87.71,68.54 87.71,68.69 87.71,68.83 87.57,68.83 87.71,68.83 87.71,68.97 87.57,68.97 87.71,68.97 87.71,69.11 
	87.57,69.11 87.57,69.26 87.42,69.26 87.57,69.4 87.57,69.54 87.42,69.54 87.42,69.68 87.28,69.68 87.28,69.82 87.42,69.82 
	87.42,69.97 87.57,69.97 87.57,70.11 87.57,69.97 87.42,69.97 87.42,70.11 87.57,70.11 87.57,70.25 87.71,70.25 87.71,70.39 
	87.85,70.39 87.85,70.54 87.85,70.82 87.99,70.82 87.99,70.96 87.99,71.1 87.99,71.25 87.85,71.39 87.85,71.53 87.85,71.67 
	87.85,71.96 87.99,72.1 87.99,72.24 88.14,72.38 88.14,72.53 88.14,72.67 88.14,72.81 87.99,72.95 87.99,73.09 87.85,73.52 
	87.85,73.66 87.85,73.95 87.85,74.09 87.85,74.23 87.85,74.37 87.85,74.52 87.85,74.66 87.71,74.8 87.71,74.94 87.57,75.09 
	87.42,75.23 87.28,75.37 87.14,75.51 87.14,75.66 87.14,75.8 87.14,75.94 87.28,76.08 87.28,76.37 87.28,76.51 87.14,76.51 
	87.14,76.65 86.86,76.79 86.71,76.94 86.57,77.08 86.43,77.08 86.29,77.22 86.14,77.36 86,77.36 86,77.5 86,77.65 86.14,77.79 
	86.14,77.93 86.29,78.07 86.29,78.22 86.14,78.36 86.14,78.5 86.14,78.64 86.29,78.78 86.29,78.93 86.43,79.07 86.43,79.35 
	86.43,79.5 86.43,79.64 86.43,79.92 86.43,80.06 86.43,80.92 86.29,81.06 86.43,81.06 86.71,81.2 87,81.34 87.14,81.34 87.28,81.34 
	87.42,81.49 87.57,81.49 87.71,81.63 87.71,81.77 87.85,81.91 87.71,82.06 87.71,82.2 87.85,82.48 87.85,82.62 87.71,82.62 
	87.57,82.62 87.57,82.77 87.42,82.91 87.42,83.05 87.42,83.19 87.57,83.34 87.57,83.48 87.71,83.48 87.85,83.62 87.99,83.62 
	87.99,83.76 87.99,83.9 87.99,84.05 88.14,84.05 88.28,84.19 88.28,84.33 88.28,84.47 88.42,84.62 88.28,84.62 88.28,84.76 
	88.28,84.9 88.14,84.9 88.14,85.04 88.28,85.04 88.28,85.18 88.14,85.33 88.14,85.47 88.14,85.61 88.14,85.75 87.99,86.04 
	87.99,86.18 87.99,86.32 87.85,86.32 87.85,86.61 87.85,86.75 87.85,86.89 87.85,87.03 87.85,87.18 87.71,87.32 87.71,87.46 
	87.85,87.6 87.85,87.74 87.99,87.89 87.99,88.03 87.99,88.17 87.99,88.46 87.85,88.6 87.71,88.74 87.57,88.88 87.57,89.02 
	87.57,89.17 87.71,89.31 87.71,89.45 87.71,89.74 87.71,89.88 87.57,90.02 87.57,90.16 87.57,90.3 87.57,90.45 87.57,90.59 
	87.57,90.73 87.71,90.87 87.71,91.02 87.85,91.16 87.85,91.3 87.71,91.44 87.71,91.58 87.71,91.73 87.57,91.87 87.57,92.01 
	87.57,92.15 87.42,92.3 87.42,92.44 87.42,92.72 87.42,92.86 87.57,92.86 87.71,93.01 87.85,93.01 87.85,93.15 87.99,93.15 
	88.14,93.15 88.28,93.15 88.42,93.15 88.56,93.15 88.56,93.29 88.7,93.43 88.85,93.58 88.85,93.72 88.99,93.86 88.99,94 
	88.99,94.14 88.85,94.14 88.7,94.14 88.42,94.14 88.28,94.14 88.14,94.14 87.99,94.14 87.85,94.29 87.71,94.29 87.57,94.43 
	87.42,94.43 87.28,94.43 87,94.43 86.86,94.43 86.71,94.43 86.57,94.43 86.43,94.43 86.29,94.43 86.14,94.57 86,94.43 85.86,94.43 
	85.72,94.43 85.58,94.43 85.43,94.43 85.29,94.43 85.15,94.43 85.01,94.29 84.86,94.14 84.86,94 84.72,93.86 84.72,93.58 
	84.72,93.43 84.72,93.29 84.58,93.15 84.44,93.15 84.3,93.15 84.15,93.15 84.01,93.15 83.87,93.29 83.87,93.43 83.87,93.58 
	83.73,93.72 83.73,93.86 83.73,94 83.58,94 83.58,94.14 83.44,94.14 83.3,94.14 83.16,94 83.02,94 82.87,94 82.73,94 82.73,93.86 
	82.59,93.86 82.59,93.72 82.59,93.58 82.45,93.43 82.3,93.43 82.16,93.29 82.16,93.43 82.02,93.43 81.88,93.43 81.88,93.58 
	81.74,93.58 81.74,93.72 81.59,93.72 81.45,93.72 81.45,93.86 81.31,93.86 81.31,93.72 81.17,93.72 81.02,93.72 80.88,93.72 
	80.74,93.72 80.46,93.72 80.31,93.72 80.17,93.72 80.03,93.72 79.89,93.72 79.74,93.72 79.6,93.86 79.6,94 79.46,94.14 79.46,94.29 
	79.46,94.43 79.46,94.57 79.46,94.71 79.46,94.86 79.6,95 79.6,95.14 79.6,95.28 79.46,95.28 79.46,95.42 79.32,95.42 79.18,95.42 
	79.03,95.42 78.89,95.42 78.75,95.42 78.46,95.42 78.32,95.28 78.18,95.28 78.04,95.28 77.9,95.28 77.75,95.28 77.61,95.28 
	77.47,95.28 77.33,95.28 77.33,95.14 77.18,95.14 77.18,95 77.04,95 76.9,95 76.76,95 76.62,94.86 76.47,94.86 76.33,94.86 
	76.19,94.86 76.05,94.86 75.9,94.86 75.76,94.86 75.76,95 75.76,94.86 75.62,94.86 75.76,94.71 75.76,94.57 75.76,94.43 
	75.76,94.29 75.62,94.29 75.48,94.29 75.48,94.43 75.34,94.43 75.19,94.43 75.05,94.43 74.91,94.43 74.77,94.43 74.62,94.43 
	74.48,94.43 74.48,94.57 74.48,94.71 74.34,94.86 74.2,94.86 74.06,94.71 74.06,94.57 73.91,94.57 73.91,94.43 73.77,94.29 
	73.63,94.29 73.63,94.14 73.49,94.14 73.34,94.14 73.34,94 73.34,93.86 73.2,93.72 73.06,93.58 72.92,93.43 72.77,93.43 
	72.63,93.43 72.49,93.43 72.49,93.29 72.49,93.15 72.49,93.01 72.49,92.86 72.63,92.86 72.63,92.72 72.49,92.58 72.35,92.58 
	72.35,92.44 72.21,92.44 72.06,92.44 71.92,92.44 71.78,92.44 71.64,92.44 71.49,92.3 71.35,92.3 71.21,92.3 71.07,92.3 
	70.93,92.15 70.78,92.15 70.64,92.15 70.5,92.3 70.36,92.3 70.36,92.44 70.22,92.44 70.22,92.58 70.07,92.72 70.07,92.86 
	69.93,93.01 69.93,93.15 69.79,93.29 69.79,93.43 69.93,93.43 69.93,93.58 70.07,93.58 70.07,93.72 69.93,93.72 69.79,93.72 
	69.65,93.72 69.5,93.72 69.36,93.72 69.22,93.58 69.08,93.58 68.94,93.58 68.79,93.58 68.65,93.58 68.51,93.58 68.22,93.58 
	68.08,93.58 67.94,93.58 67.8,93.58 67.8,93.43 67.8,93.29 67.8,93.15 67.8,93.01 67.94,92.86 67.94,92.72 67.8,92.58 67.8,92.44 
	67.66,92.44 67.51,92.58 67.37,92.58 67.23,92.58 67.23,92.72 67.09,92.72 66.94,92.72 66.8,92.72 66.66,92.72 66.52,92.72 
	66.38,92.72 66.23,92.72 66.09,92.86 66.09,93.01 65.95,93.01 65.95,93.15 65.81,93.15 65.66,93.15 65.52,93.15 65.38,93.15 
	65.52,93.01 65.52,92.86 65.38,92.86 65.24,92.72 65.09,92.72 64.95,92.58 64.95,92.44 64.81,92.44 64.67,92.3 64.67,92.15 
	64.53,92.15 64.53,92.01 64.38,92.01 64.24,91.87 64.1,91.87 63.96,92.01 63.81,92.15 63.67,92.3 63.53,92.3 63.39,92.15 
	63.25,92.01 63.25,91.87 63.1,91.87 62.96,91.87 62.82,91.87 62.68,91.87 62.53,91.87 62.53,91.73 62.39,91.73 62.25,91.73 
	62.11,91.73 61.97,91.73 61.82,91.73 61.68,91.73 61.54,91.73 61.4,91.73 61.25,91.73 61.11,91.73 61.11,91.87 60.97,91.87 
	60.83,91.87 60.69,91.87 60.54,91.87 60.4,92.01 60.26,92.01 60.12,91.87 59.97,91.87 59.97,91.73 59.83,91.73 59.83,91.58 
	59.69,91.44 59.69,91.3 59.55,91.3 59.55,91.16 59.55,91.02 59.55,90.87 59.41,90.87 59.41,90.73 59.55,90.59 59.55,90.45 
	59.69,90.3 59.69,90.16 59.69,90.02 59.69,89.88 59.69,89.74 59.55,89.74 59.55,89.59 59.69,89.45 59.69,89.31 59.83,89.17 
	59.97,89.02 59.97,88.88 59.97,88.74 59.97,88.6 60.12,88.46 60.12,88.31 60.12,88.17 60.12,88.03 60.12,87.89 60.12,87.74 
	60.12,87.6 60.12,87.46 60.12,87.32 59.97,87.32 59.83,87.32 59.69,87.32 59.69,87.18 59.55,87.18 59.41,87.03 59.26,87.03 
	58.98,86.89 58.84,86.89 58.69,86.89 58.55,86.89 58.41,86.89 58.41,86.75 58.27,86.75 58.13,86.89 57.98,86.89 57.98,87.03 
	57.84,87.03 57.84,87.18 57.7,87.18 57.56,87.18 57.27,87.18 56.99,87.18 56.7,87.18 56.56,87.18 56.42,87.18 56.42,87.03 
	56.28,87.03 56.13,87.03 55.99,87.03 55.85,87.03 55.71,87.03 55.57,87.18 55.42,87.18 55.42,87.32 55.42,87.46 55.28,87.46 
	55.14,87.46 55,87.6 54.85,87.74 54.85,87.89 54.85,88.03 54.71,88.03 54.71,88.17 54.71,88.31 54.71,88.46 54.85,88.46 55,88.46 
	55.14,88.46 55.28,88.46 55.42,88.46 55.57,88.46 55.71,88.6 55.85,88.6 55.85,88.74 55.85,88.88 55.85,89.02 55.71,89.17 
	55.71,89.31 55.57,89.31 55.42,89.17 55.28,89.17 55.14,89.17 55,89.31 54.85,89.31 54.71,89.31 54.57,89.31 54.57,89.45 
	54.43,89.59 54.29,89.59 54.14,89.74 54,89.74 53.86,89.88 53.72,89.88 53.57,90.02 53.57,90.16 53.43,90.16 53.43,90.3 53.29,90.3 
	53.15,90.3 53.01,90.3 52.86,90.3 52.72,90.16 52.58,90.02 52.58,89.88 52.58,89.74 52.44,89.74 52.44,89.59 52.29,89.59 
	52.29,89.45 52.29,89.31 52.15,89.02 52.15,88.88 52.15,88.74 52.15,88.6 52.01,88.6 52.01,88.74 51.87,88.74 51.87,88.88 
	51.73,88.88 51.58,88.88 51.44,88.88 51.3,88.88 51.16,88.88 51.16,88.74 51.01,88.74 50.87,88.74 50.87,88.6 50.59,88.31 
	50.45,88.17 50.3,88.17 50.16,88.17 50.02,88.17 49.88,88.17 49.73,88.03 49.59,88.03 49.45,88.03 49.31,88.17 49.31,88.31 
	49.02,88.31 48.88,88.17 48.74,88.17 48.45,88.31 48.31,88.31 48.17,88.31 48.03,88.31 47.89,88.31 47.74,88.31 47.6,88.46 
	47.46,88.6 47.32,88.6 47.32,88.74 47.03,88.74 46.89,88.74 46.75,88.88 46.46,88.88 46.32,89.02 46.18,89.02 46.04,89.02 
	46.04,89.17 45.89,89.31 45.75,89.31 45.61,89.45 45.47,89.59 45.33,89.59 45.33,89.74 45.33,89.88 45.33,90.02 45.33,90.16 
	45.18,90.3 45.04,90.3 44.9,90.16 44.76,90.02 44.61,89.88 44.47,90.02 44.19,90.02 43.9,90.16 43.62,90.16 43.33,90.3 43.19,90.3 
	43.05,90.45 43.05,90.59 43.05,90.73 42.91,90.87 42.91,91.02 42.91,91.16 42.91,91.3 42.77,91.44 42.77,91.58 42.62,91.58 
	42.48,91.58 42.34,91.58 42.34,91.44 42.2,91.44 42.05,91.44 41.91,91.44 41.77,91.58 41.77,91.73 41.77,91.87 41.77,92.01 
	41.63,92.15 41.49,92.3 41.34,92.3 41.2,92.3 41.06,92.44 40.92,92.58 40.92,92.72 40.92,92.86 40.92,93.01 40.77,93.15 
	40.77,93.29 40.49,93.43 40.35,93.29 40.21,93.29 40.06,93.15 39.92,93.15 39.64,93.15 39.49,93.15 39.35,93.15 39.21,93.15 
	39.21,93.01 39.07,92.86 39.07,92.72 38.93,92.58 38.93,92.3 38.78,92.15 38.64,92.15 38.5,92.3 38.36,92.3 38.36,92.15 
	38.21,92.15 38.21,91.87 38.36,91.87 38.36,91.73 38.21,91.58 38.21,91.44 38.21,91.3 38.07,91.3 37.93,91.3 37.79,91.3 
	37.65,91.44 37.5,91.58 37.36,91.58 37.22,91.73 37.08,91.73 36.93,91.73 36.79,91.87 36.65,92.01 36.51,92.15 36.37,92.3 
	36.37,92.44 36.22,92.58 36.22,92.72 36.08,92.86 35.94,92.86 35.94,93.01 35.94,93.15 35.94,93.29 36.08,93.43 36.08,93.58 
	36.08,93.72 36.08,93.86 36.08,94 35.94,94 35.8,94 35.65,94 35.51,94 35.37,94 35.37,94.14 35.23,94.14 35.09,94.14 34.94,94.14 
	34.8,94.14 34.52,94.14 34.37,94.14 34.23,94.29 34.09,94.29 33.95,94.29 33.81,94.43 33.66,94.43 33.52,94.57 33.38,94.57 
	33.24,94.57 33.09,94.57 32.95,94.57 32.81,94.57 32.67,94.57 32.38,94.57 32.24,94.57 32.1,94.57 31.81,94.57 31.67,94.57 
	31.39,94.57 31.24,94.57 31.1,94.43 30.96,94.43 30.82,94.43 30.68,94.43 30.53,94.57 30.39,94.57 30.25,94.57 30.25,94.71 
	30.11,94.71 30.11,94.57 29.96,94.57 29.96,94.71 29.82,94.71 29.68,94.71 29.54,94.71 29.4,94.71 29.11,94.71 28.97,94.57 
	28.83,94.57 28.68,94.29 28.54,94.29 28.4,94.29 28.26,94.29 27.97,94.43 27.69,94.43 27.55,94.43 27.55,94.57 27.4,94.57 
	27.26,94.57 27.12,94.57 26.98,94.71 26.69,94.71 26.55,94.71 26.41,94.86 26.27,94.86 26.12,94.86 25.98,94.86 25.84,95 25.7,95 
	25.56,95 25.41,95 25.13,95 24.99,94.86 24.85,94.86 24.7,94.86 24.56,94.86 24.42,94.86 24.28,94.86 24.13,94.86 23.99,95 
	23.85,95 23.71,95.14 23.71,95.28 23.56,95.28 23.42,95.42 23.28,95.57 23.14,95.57 22.71,95.85 22.71,95.99 22.57,95.99 
	22.43,95.99 22.28,95.99 22.14,95.99 22,95.99 22,96.14 21.86,96.14 21.72,96.28 21.57,96.42 21.43,96.56 21.43,96.7 21.29,96.7 
	21.29,96.85 21.15,96.85 21.15,96.7 21.15,96.56 21.15,96.42 21.15,96.28 21.15,96.14 21,96.14 21,95.99 21,95.85 20.86,95.71 
	20.86,95.57 20.86,95.42 20.86,95.14 20.72,95.14 20.72,95 20.72,94.86 20.72,94.71 20.72,94.57 20.72,94.14 20.58,94.14 20.58,94 
	20.72,93.86 20.72,93.72 20.72,93.58 20.72,93.43 20.72,93.29 20.72,93.15 20.58,93.15 20.58,93.01 20.58,92.86 20.72,92.72 
	20.72,92.58 20.86,92.58 20.86,92.44 21,92.3 21.15,92.15 21.43,92.01 21.43,91.87 21.43,91.73 21.57,91.44 21.72,91.3 21.57,91.16 
	21.43,91.16 21.29,91.02 21.15,91.02 20.72,90.87 20.58,90.73 20.58,90.3 20.58,90.16 20.86,90.16 21,90.16 21.72,89.88 
	21.86,89.88 21.72,89.88 21.86,89.74 21.72,89.74 21.86,89.74 21.86,89.59 21.86,89.45 22,89.31 22,89.17 22,89.02 22.14,89.02 
	22.14,88.88 22.14,88.74 22.14,88.6 22.28,88.6 22.28,88.46 22.43,88.46 22.43,88.31 22.43,88.17 22.57,88.17 22.43,88.17 
	22.43,88.03 22.57,88.03 22.57,87.89 22.43,87.89 22.43,87.74 22.57,87.74 22.43,87.6 22.43,87.46 22.43,87.32 22.57,87.32 
	22.57,87.46 22.57,87.32 22.57,87.18 22.57,87.03 22.43,86.89 22.43,86.75 22.28,86.75 22.43,86.75 22.28,86.75 22.28,86.61 
	22.14,86.61 22.14,86.46 22,86.46 22,86.32 21.86,86.32 21.86,86.18 22,86.18 22,86.04 22,85.9 22,85.75 22,85.61 21.86,85.61 
	21.86,85.47 21.86,85.61 21.72,85.47 21.72,85.61 21.72,85.47 21.72,85.33 21.72,85.18 21.57,85.18 21.57,85.04 21.43,85.04 
	21.57,85.04 21.57,84.9 21.57,84.76 21.57,84.62 21.57,84.76 21.57,84.62 21.57,84.47 21.57,84.33 21.57,84.19 21.72,84.19 
	21.57,84.19 21.72,84.05 21.57,84.05 21.43,84.05 21.57,84.05 21.57,83.9 21.43,83.76 21.29,83.76 21.29,83.62 21.15,83.62 
	21,83.62 21,83.48 20.86,83.48 21,83.48 20.86,83.48 20.86,83.34 20.72,83.34 20.72,83.19 20.72,83.05 20.72,82.91 20.86,82.91 
	20.72,82.77 20.58,82.77 20.58,82.62 20.44,82.62 20.58,82.62 20.44,82.62 20.44,82.48 20.44,82.62 20.29,82.62 20.29,82.48 
	20.15,82.48 20.15,82.62 20.15,82.48 20.01,82.48 20.01,82.34 19.87,82.34 19.87,82.2 20.01,82.2 19.87,82.2 19.87,82.06 
	19.87,81.91 20.01,81.91 20.15,81.91 20.15,81.77 20.15,81.63 20.15,81.49 20.15,81.34 20.29,81.34 20.29,81.2 20.44,81.2 
	20.44,81.06 20.44,80.92 20.29,80.92 20.29,80.78 20.15,80.78 20.15,80.63 20.01,80.63 20.01,80.49 20.01,80.35 19.87,80.35 
	19.87,80.21 19.72,80.21 19.72,80.06 19.87,80.06 19.72,80.06 19.87,80.06 19.87,79.92 19.72,79.92 19.87,79.92 19.87,79.78 
	19.72,79.78 19.72,79.64 19.72,79.5 19.72,79.35 19.72,79.21 19.58,79.35 19.58,79.21 19.58,79.07 19.58,78.93 19.72,78.93 
	19.72,78.78 19.87,78.78 20.01,78.78 20.15,78.78 20.01,78.78 20.15,78.78 20.01,78.78 20.15,78.78 20.29,78.78 20.29,78.64 
	20.44,78.64 20.44,78.78 20.44,78.64 20.58,78.64 20.44,78.64 20.44,78.5 20.44,78.36 20.44,78.22 20.29,78.22 20.29,78.07 
	20.29,77.93 20.29,77.79 20.29,77.65 20.29,77.5 20.29,77.36 20.44,77.36 20.44,77.22 20.44,77.08 20.29,77.08 20.15,77.08 
	20.15,76.94 20.01,76.94 20.01,76.79 19.87,76.79 19.87,76.65 20.01,76.65 20.01,76.51 19.87,76.51 19.87,76.37 19.72,76.37 
	19.87,76.37 19.72,76.22 19.58,76.22 19.44,76.22 19.44,76.08 19.58,76.08 19.58,75.94 19.44,75.94 19.44,75.8 19.58,75.8 
	19.58,75.66 19.58,75.51 19.58,75.37 19.58,75.23 19.72,75.23 19.72,75.09 19.72,74.94 19.72,74.8 19.58,74.8 19.58,74.66 
	19.72,74.66 19.87,74.66 19.72,74.66 19.87,74.66 19.87,74.52 19.87,74.37 20.01,74.37 20.01,74.52 20.01,74.37 20.15,74.37 
	20.01,74.37 20.01,74.23 20.15,74.23 20.15,74.09 20.01,74.09 20.15,74.09 20.15,73.95 20.29,73.95 20.29,73.81 20.29,73.66 
	20.44,73.66 20.58,73.66 20.72,73.66 20.58,73.66 20.72,73.52 20.72,73.66 20.72,73.52 20.86,73.52 20.86,73.38 21,73.38 
	21.15,73.38 21,73.38 21,73.52 21.15,73.52 21.15,73.38 21.29,73.38 21.29,73.24 21.43,73.24 21.43,73.09 21.29,73.09 21.43,73.09 
	21.43,72.95 21.43,72.81 21.57,72.81 21.72,72.67 21.57,72.67 21.57,72.53 21.57,72.38 21.57,72.24 21.43,72.24 21.43,72.1 
	21.57,72.1 21.43,72.1 21.43,71.96 21.29,71.96 21.43,71.96 21.43,71.82 21.29,71.82 21.29,71.67 21.15,71.67 21.15,71.53 21,71.53 
	21,71.39 21.15,71.39 21.15,71.25 21.29,71.25 21.29,71.1 21.15,71.1 21.15,70.96 21.15,70.82 21.29,70.96 21.29,70.82 21.15,70.82 
	21.29,70.82 21.29,70.68 21.15,70.68 21.29,70.68 21.29,70.54 21.15,70.54 21.29,70.54 21.29,70.39 21.29,70.54 21.43,70.54 
	21.43,70.39 21.29,70.39 21.29,70.25 21.43,70.25 21.43,70.11 21.57,70.11 21.57,69.97 21.72,69.97 21.86,69.97 22,69.97 22,69.82 
	22,69.68 22.14,69.68 22,69.68 22.14,69.54 22.14,69.4 22.14,69.26 22.28,69.26 22.28,69.11 22.28,69.26 22.43,69.26 22.43,69.11 
	22.43,68.97 22.57,68.83 22.57,68.69 22.57,68.83 22.71,68.83 22.85,68.83 22.85,68.69 22.85,68.54 22.85,68.4 22.71,68.4 
	22.85,68.4 23,68.4 23,68.26 23,68.4 23.14,68.4 23.14,68.26 23.28,68.26 23.28,68.12 23.14,68.12 23.14,67.98 23.14,67.83 
	23.14,67.69 23.14,67.55 23.14,67.41 23,67.26 23.14,67.26 23.28,67.26 23.42,67.26 23.42,67.41 23.42,67.26 23.28,67.26 
	23.28,67.12 23.42,67.12 23.42,66.98 23.42,66.84 23.28,66.84 23.28,66.98 23.28,67.12 23.14,66.98 23.14,66.84 23.14,66.7 
	23.28,66.7 23.28,66.55 23.42,66.55 23.42,66.41 23.56,66.41 23.71,66.41 23.71,66.27 23.56,66.27 23.56,66.13 23.71,66.13 
	23.71,65.98 23.71,65.84 23.71,65.7 23.56,65.7 23.71,65.7 23.71,65.56 23.85,65.56 23.99,65.56 23.99,65.42 24.13,65.42 
	23.99,65.27 23.99,65.42 23.85,65.42 23.85,65.27 23.85,65.13 23.85,64.99 23.99,64.85 23.99,64.7 23.99,64.56 24.13,64.7 
	24.13,64.56 24.13,64.42 24.13,64.28 23.99,64.14 23.99,63.99 24.13,63.99 24.13,63.85 24.13,63.71 24.13,63.57 24.13,63.42 
	24.28,63.28 24.28,63.14 24.28,63 24.28,62.86 24.13,62.86 24.13,62.71 24.28,62.71 24.28,62.86 24.42,62.86 24.42,62.71 
	24.28,62.57 24.13,62.43 23.99,62.43 23.99,62.29 24.13,62.29 24.28,62.29 24.28,62.43 24.28,62.14 24.28,62 24.42,62 24.42,61.86 
	24.42,61.72 24.42,61.58 24.28,61.58 24.13,61.58 24.13,61.43 23.99,61.29 23.99,61.43 23.85,61.43 23.85,61.29 23.85,61.15 
	23.85,61.01 23.99,60.86 23.99,60.72 23.85,60.58 23.85,60.44 23.85,60.3 23.71,60.3 23.71,60.15 23.85,60.15 23.85,60.01 
	23.99,59.87 24.13,59.87 24.28,59.87 24.13,60.01 24.28,60.01 24.42,60.01 24.42,59.87 24.42,59.73 24.42,59.58 24.56,59.58 
	24.7,59.58 24.85,59.44 24.99,59.16 24.85,59.02 24.85,58.87 24.99,58.87 25.13,58.87 25.27,58.87 25.41,58.87 25.56,58.87 
	25.41,58.87 25.56,58.87 25.7,58.73 25.56,58.73 25.56,58.59 25.7,58.45 25.7,58.3 25.7,58.02 25.7,57.88 25.7,57.74 25.7,57.45 
	25.7,57.31 25.7,57.17 25.56,57.17 25.56,57.02 25.56,56.88 25.41,56.88 25.27,56.88 25.41,56.88 25.41,56.74 25.56,56.6 25.7,56.6 
	25.84,56.45 25.84,56.6 25.98,56.6 25.98,56.74 25.98,56.88 26.12,56.88 26.27,56.88 26.27,56.74 26.12,56.74 26.27,56.74 
	26.27,56.6 26.41,56.74 26.55,56.74 26.69,56.74 26.69,56.6 26.84,56.6 26.84,56.74 26.84,56.88 26.84,56.74 26.98,56.74 
	26.98,56.6 26.98,56.45 26.98,56.31 27.12,56.31 27.26,56.31 27.26,56.45 27.26,56.6 27.4,56.6 27.4,56.45 27.4,56.31 27.26,56.31 
	27.4,56.17 27.4,56.03 27.55,56.03 27.69,56.03 27.83,56.17 27.83,56.03 27.69,56.03 27.69,55.89 27.69,55.74 27.83,55.6 
	27.83,55.46 27.83,55.32 27.83,55.17 27.97,55.17 28.12,55.17 28.12,55.03 28.26,55.03 28.26,54.89 28.54,54.75 28.68,54.75 
	28.83,54.75 28.83,54.61 28.97,54.61 28.97,54.75 29.11,54.75 29.25,54.75 29.25,54.89 29.11,54.89 29.25,55.03 29.54,55.03 
	29.68,55.03 29.82,54.89 29.82,54.75 29.96,54.89 30.11,54.75 29.96,54.61 29.82,54.32 29.68,54.32 29.54,54.32 29.54,54.18 
	29.68,54.18 29.96,54.04 30.25,54.04 30.39,54.18 30.39,54.04 30.53,54.04 30.53,53.89 30.68,53.89 30.68,53.75 30.68,53.61 
	30.82,53.47 30.96,53.47 30.96,53.33 31.1,53.33 31.1,53.18 31.1,53.04 31.1,52.9 31.24,52.76 31.39,52.47 31.53,52.47 31.67,52.47 
	31.67,52.33 31.81,52.33 31.81,52.19 31.96,52.19 32.1,52.19 32.24,52.19 32.24,52.33 32.24,52.47 32.38,52.47 32.38,52.33 
	32.38,52.19 32.53,52.05 32.53,51.9 32.67,51.9 32.67,51.76 32.67,51.62 32.53,51.62 32.38,51.62 32.38,51.48 32.53,51.48 
	32.67,51.48 32.81,51.48 32.95,51.48 33.09,51.48 33.09,51.33 32.95,51.33 32.81,51.33 32.81,51.19 32.67,51.19 32.67,51.05 
	32.67,50.91 32.81,50.77 32.95,50.77 32.95,50.62 32.95,50.48 33.09,50.48 33.24,50.48 33.24,50.34 33.24,50.2 33.38,50.2 
	33.52,50.2 33.66,50.2 33.66,50.06 33.52,49.91 33.52,49.77 33.52,49.63 33.38,49.63 33.38,49.49 33.81,49.49 33.95,49.49 
	34.09,49.63 34.37,49.63 34.37,49.49 34.37,49.34 34.52,49.2 34.66,49.2 34.66,49.06 34.52,49.06 34.37,49.06 34.37,48.92 
	34.23,48.92 34.23,49.06 34.23,48.92 34.09,48.92 34.09,48.78 34.23,48.78 34.23,48.63 34.23,48.49 34.37,48.49 34.37,48.63 
	34.52,48.63 34.52,48.49 34.52,48.35 34.37,48.21 34.52,48.06 34.66,47.92 34.52,47.92 34.37,47.92 34.23,47.92 34.23,47.78 
	34.37,47.64 34.37,47.5 34.37,47.35 34.52,47.35 34.66,47.35 34.66,47.21 34.8,47.35 34.8,47.5 34.94,47.5 35.09,47.5 35.23,47.64 
	35.23,47.5 35.37,47.5 35.51,47.5 35.65,47.5 35.65,47.35 35.8,47.35 35.65,47.21 35.8,47.07 35.94,47.07 35.94,46.93 35.94,46.78 
	36.08,46.78 36.08,46.64 36.22,46.64 36.37,46.64 36.22,46.5 36.22,46.36 36.22,46.22 36.37,46.07 36.22,45.93 36.08,45.93 
	36.08,45.79 36.22,45.79 36.37,45.79 36.37,45.65 36.51,45.65 36.51,45.5 36.37,45.36 36.22,45.36 36.22,45.5 36.08,45.36 
	36.08,45.22 36.08,45.08 35.94,44.94 35.94,44.79 36.08,44.51 35.94,44.37 35.8,44.37 35.65,44.37 35.51,44.37 35.51,44.08 
	35.65,43.8 35.65,43.66 35.8,43.37 35.94,43.37 36.08,43.37 36.22,43.23 36.37,43.23 36.51,43.23 36.51,43.09 36.51,42.94 
	36.37,43.09 36.08,43.09 35.94,43.09 35.8,42.94 35.8,42.8 35.8,42.66 35.8,42.52 35.94,42.52 36.08,42.52 36.08,42.66 36.22,42.66 
	36.37,42.66 36.51,42.66 36.65,42.66 36.65,42.52 36.65,42.38 36.51,42.23 36.51,42.09 36.37,42.09 36.22,41.95 36.22,42.09 
	36.08,42.09 35.94,41.95 35.8,41.95 35.8,41.81 35.8,41.66 35.94,41.52 36.08,41.52 36.08,41.66 36.22,41.81 36.37,41.66 
	36.37,41.38 36.37,41.24 36.22,41.24 36.08,41.24 36.08,41.1 35.94,40.95 35.65,40.53 35.51,40.53 35.23,40.53 35.09,40.53 
	34.94,40.53 34.8,40.38 34.94,40.38 35.23,40.38 35.23,40.24 35.37,40.1 35.37,39.82 35.51,39.67 35.51,39.53 35.51,39.39 
	35.51,39.25 35.37,39.25 35.37,39.1 35.51,39.1 35.51,39.25 35.65,39.25 35.65,39.1 35.65,38.96 35.65,38.82 35.8,38.68 35.8,38.54 
	36.08,38.54 36.08,38.39 36.08,38.25 35.94,38.39 35.8,38.39 35.8,38.25 35.8,38.11 35.94,38.11 36.22,38.25 36.37,38.25 
	36.51,38.39 36.65,38.39 36.93,38.25 37.08,38.25 37.22,37.97 37.36,37.97 37.36,37.82 37.5,37.82 37.5,37.68 37.5,37.54 37.5,37.4 
	37.5,37.25 37.65,37.25 37.65,37.11 37.79,36.97 37.93,36.97 37.93,36.83 37.79,36.69 37.65,36.54 37.65,36.4 37.65,36.26 
	37.5,36.26 37.36,36.12 37.08,35.83 36.79,35.69 36.79,35.55 36.65,35.55 36.51,35.55 36.37,35.69 36.22,35.55 36.08,35.55 
	35.94,35.41 35.8,35.26 35.94,34.98 35.94,34.84 36.08,34.84 36.22,34.84 36.22,34.69 36.51,34.69 36.65,34.69 36.65,34.55 
	36.65,34.41 36.79,34.41 36.79,34.27 36.79,34.13 36.93,33.98 36.93,33.84 37.08,33.7 37.22,33.56 37.36,33.56 37.36,33.41 
	37.36,33.27 37.22,33.27 37.22,33.13 37.08,33.13 37.08,33.27 36.93,33.27 36.93,33.41 36.79,33.41 36.79,33.56 36.65,33.56 
	36.51,33.56 36.51,33.7 36.51,33.84 36.37,33.84 36.22,33.84 36.22,33.7 36.37,33.56 36.37,33.41 36.51,33.41 36.51,33.27 
	36.51,33.13 36.51,32.99 36.51,32.85 36.51,32.56 36.51,32.42 36.51,32.28 36.65,32.28 36.79,32.42 36.93,32.42 37.08,32.42 
	37.22,32.42 37.22,32.28 37.22,32.13 37.22,31.99 37.36,31.85 37.22,31.71 36.93,31.57 36.79,31.57 36.65,31.57 36.51,31.71 
	36.37,31.85 36.22,31.85 36.08,31.99 36.08,31.85 35.94,31.71 36.08,31.71 36.08,31.42 36.22,31.28 36.22,31.14 36.08,31.14 
	36.08,31 36.08,30.85 36.22,30.85 36.22,30.71 36.37,30.71 36.51,30.71 36.65,30.57 36.65,30.43 36.51,30.43 36.37,30.29 
	36.37,30.14 36.37,30 36.22,30 36.08,30 36.08,30.14 35.94,30.14 35.94,30 35.8,29.86 35.94,29.86 35.94,29.72 35.94,29.58 
	35.94,29.43 35.94,29.29 35.94,29.15 35.8,29.15 35.94,29.15 36.08,29.15 36.22,29.15 36.22,29.01 36.22,28.86 36.08,28.72 
	35.94,28.72 35.94,28.58 35.8,28.3 35.65,28.3 35.65,28.15 35.51,28.15 35.51,28.01 35.65,28.01 35.8,28.01 35.94,28.01 
	35.94,27.73 36.08,27.58 36.22,27.58 36.22,27.44 36.08,27.3 36.08,27.16 35.94,27.16 35.8,27.16 35.8,27.02 35.65,27.02 
	35.65,26.87 35.65,26.73 35.51,26.73 35.51,26.59 35.65,26.45 35.65,26.3 35.65,26.16 35.8,26.16 35.94,26.02 35.94,25.88 
	36.08,25.88 36.08,25.74 36.08,25.59 36.08,25.45 36.08,25.31 36.08,25.17 35.8,25.02 35.65,25.02 35.51,25.02 35.37,25.17 
	35.37,25.02 35.23,25.02 35.23,24.88 35.37,24.74 35.37,24.6 35.37,24.46 35.37,24.31 35.37,24.17 35.37,24.03 35.37,23.89 
	35.37,23.74 35.51,23.6 35.65,23.46 35.8,23.32 35.94,23.32 36.08,23.46 36.22,23.46 36.22,23.6 36.37,23.6 36.51,23.6 36.65,23.6 
	36.65,23.46 36.65,23.32 36.65,23.18 36.51,23.18 36.37,23.18 36.22,23.18 36.08,23.03 36.08,22.89 36.08,22.75 36.22,22.61 
	36.37,22.61 36.51,22.46 36.65,22.46 36.79,22.32 36.79,22.18 36.79,22.04 36.65,22.04 36.65,21.9 36.65,21.75 36.51,21.75 
	36.51,21.61 36.51,21.47 36.51,21.33 36.51,21.18 36.51,21.04 36.51,20.9 36.65,20.62 36.65,20.47 36.65,20.33 36.79,20.05 
	36.93,19.9 36.93,19.76 37.08,19.76 37.08,19.62 37.22,19.62 37.36,19.62 37.36,19.48 37.5,19.48 37.5,19.33 37.5,19.19 
	37.36,19.19 37.22,19.19 37.08,19.19 37.08,19.05 36.93,18.91 36.93,18.77 37.08,18.77 37.22,18.77 37.36,18.91 37.5,18.91 
	37.65,19.05 37.79,19.05 37.79,19.19 37.93,19.33 38.07,19.33 38.21,19.33 38.36,19.33 38.5,19.33 38.5,19.19 38.5,19.05 
	38.64,19.05 38.64,18.91 38.64,18.77 38.5,18.77 38.36,18.62 38.36,18.48 38.5,18.2 38.64,18.05 38.64,17.91 38.64,17.77 
	38.78,17.77 38.78,17.63 38.78,17.49 38.64,17.34 38.64,17.2 38.64,17.06 38.78,17.06 38.93,17.06 39.07,17.2 39.21,17.2 
	39.21,17.34 39.21,17.2 39.35,16.92 39.21,16.92 39.21,16.78 39.21,16.63 39.35,16.63 39.49,16.63 39.64,16.78 39.78,16.78 
	39.92,16.63 39.78,16.49 39.78,16.35 39.92,16.21 40.06,16.21 40.06,16.06 40.21,16.06 40.21,16.21 40.35,16.21 40.49,16.21 
	40.63,16.21 40.63,16.35 40.77,16.35 40.92,16.35 41.06,16.35 41.06,16.21 41.2,16.21 41.2,16.06 41.34,16.06 41.34,16.21 
	41.49,16.21 41.63,16.21 41.63,16.35 41.77,16.35 42.05,16.21 42.05,16.06 42.05,15.92 41.91,15.92 41.91,16.06 41.77,16.06 
	41.63,15.92 41.49,15.78 41.49,15.64 41.49,15.5 41.49,15.35 41.49,15.21 41.63,15.21 41.77,15.21 41.77,15.07 41.91,15.07 
	41.91,14.93 41.91,14.78 41.91,14.64 41.91,14.5 41.91,14.36 41.77,14.36 41.63,14.36 41.63,14.5 41.63,14.78 41.63,14.93 
	41.49,14.93 41.34,14.93 41.2,14.78 41.2,14.64 41.2,14.5 41.2,14.36 41.06,14.36 41.06,14.22 40.92,14.22 40.77,14.36 40.77,14.5 
	40.77,14.64 40.63,14.64 40.49,14.64 40.49,14.5 40.49,14.22 40.35,14.07 40.21,14.07 40.21,13.93 40.06,13.93 39.92,13.93 
	39.92,14.07 39.78,14.07 39.64,14.07 39.49,14.07 39.49,13.93 39.35,13.93 39.21,13.79 39.21,13.65 39.07,13.65 39.07,13.5 
	39.21,13.5 39.35,13.36 39.49,13.36 39.49,13.22 39.49,13.08 39.35,13.08 39.35,12.94 39.35,12.79 39.35,12.65 39.35,12.51 
	39.21,12.51 39.07,12.51 38.93,12.51 38.93,12.65 38.78,12.65 38.78,12.51 38.78,12.37 38.64,12.37 38.64,12.51 38.5,12.51 
	38.5,12.65 38.36,12.65 38.21,12.65 38.07,12.65 37.93,12.65 37.79,12.65 37.79,12.51 37.65,12.37 37.65,12.08 37.5,11.94 
	37.36,11.94 37.22,11.94 37.08,11.94 37.08,12.08 36.93,12.22 36.93,12.37 36.79,12.37 36.93,12.51 37.08,12.51 37.22,12.51 
	37.36,12.51 37.5,12.51 37.5,12.65 37.65,12.65 37.65,12.79 37.5,12.79 37.36,12.79 37.22,12.94 37.08,13.08 37.08,13.22 
	36.93,13.22 36.93,13.08 36.79,13.08 36.79,12.94 36.79,12.79 36.65,12.79 36.51,12.79 36.37,12.79 36.37,12.94 36.22,13.08 
	36.22,13.22 36.08,13.22 36.08,13.36 36.22,13.36 36.22,13.5 36.37,13.5 36.37,13.65 36.51,13.65 36.51,13.79 36.37,13.79 
	36.37,13.93 36.22,13.93 36.08,13.93 35.94,13.93 35.94,14.07 35.8,14.07 35.94,14.22 36.08,14.36 36.08,14.5 36.08,14.64 
	36.08,14.78 36.08,14.93 35.94,14.93 35.94,15.07 35.8,15.07 35.65,15.07 35.65,14.93 35.65,14.78 35.65,14.64 35.65,14.5 
	35.51,14.5 35.51,14.36 35.37,14.36 35.23,14.36 35.09,14.36 34.94,14.36 34.94,14.5 34.94,14.64 34.8,14.78 34.8,14.93 
	34.66,14.93 34.66,14.78 34.52,14.64 34.52,14.5 34.37,14.5 34.23,14.64 34.23,14.78 34.09,14.93 33.95,15.07 33.81,15.07 
	33.81,14.93 33.81,14.78 33.66,14.78 33.66,14.64 33.66,14.5 33.52,14.5 33.52,14.64 33.38,14.64 33.24,14.64 33.09,14.64 
	33.09,14.5 32.95,14.5 32.81,14.5 32.67,14.36 32.53,14.36 32.53,14.22 32.38,14.22 32.38,14.07 32.53,14.07 32.53,13.93 
	32.53,13.79 32.67,13.65 32.81,13.65 32.95,13.65 33.09,13.65 33.24,13.5 33.38,13.5 33.52,13.36 33.52,13.22 33.38,13.22 
	33.38,13.08 33.38,12.94 33.24,12.94 33.09,12.94 32.95,12.94 32.81,13.08 32.67,13.08 32.53,13.08 32.53,13.22 32.53,13.36 
	32.53,13.5 32.53,13.65 32.38,13.65 32.38,13.5 32.24,13.5 32.1,13.5 31.96,13.36 31.96,13.22 31.81,13.22 31.81,12.94 31.67,12.79 
	31.67,12.65 31.53,12.65 31.39,12.51 31.24,12.51 31.1,12.51 30.96,12.51 30.82,12.65 30.68,12.65 30.53,12.65 30.39,12.65 
	30.25,12.51 30.39,12.22 30.39,12.08 30.25,12.08 30.11,12.22 29.96,12.22 29.82,12.22 29.68,12.22 29.68,12.08 29.54,12.08 
	29.54,11.94 29.4,11.94 29.4,12.08 29.54,12.37 29.54,12.51 29.4,12.51 29.4,12.65 29.25,12.65 29.11,12.65 29.11,12.51 
	28.97,12.37 28.97,12.22 28.83,12.22 28.83,12.37 28.83,12.51 28.68,12.51 28.68,12.79 28.68,12.94 28.54,12.94 28.4,12.94 
	28.26,12.79 28.12,12.79 27.97,12.79 27.83,12.79 27.69,12.79 27.69,12.94 27.69,13.08 27.83,13.08 27.83,13.22 27.83,13.36 
	27.83,13.22 27.69,13.22 27.55,13.22 27.55,13.08 27.4,13.08 27.4,13.22 27.26,13.5 27.12,13.5 27.12,13.65 26.98,13.65 
	26.84,13.65 26.69,13.65 26.55,13.65 26.55,13.79 26.84,13.93 26.84,14.07 26.84,14.22 26.84,14.36 26.69,14.36 26.55,14.36 
	26.41,14.36 26.27,14.36 26.12,14.36 25.98,14.36 25.84,14.5 25.84,14.64 25.7,14.93 25.7,15.07 25.56,15.21 25.41,15.5 
	25.27,15.64 24.99,15.92 24.7,16.06 24.56,16.06 24.56,15.92 24.56,15.78 24.56,15.64 24.42,15.64 24.28,15.64 24.28,15.5 
	24.13,15.5 23.99,15.5 23.99,15.35 23.99,15.21 24.13,15.07 24.13,14.93 24.28,14.78 24.28,14.64 24.13,14.64 23.99,14.64 
	23.85,14.78 23.71,14.78 23.56,14.78 23.56,14.64 23.56,14.5 23.42,14.5 23.14,14.5 22.85,14.5 22.71,14.5 22.71,14.64 22.57,14.78 
	22.71,14.78 22.71,14.93 22.85,15.07 22.71,15.07 22.57,14.93 22.57,14.78 22.43,14.78 22.28,14.78 22.14,14.78 22.14,14.93 
	22,15.07 22,15.21 21.86,15.21 21.72,15.35 21.57,15.35 21.57,15.5 21.43,15.5 21.43,15.35 21.29,15.35 21.29,15.21 21.43,15.21 
	21.57,15.07 21.72,14.93 21.86,14.78 21.86,14.64 21.72,14.5 21.72,14.36 21.72,14.22 21.57,14.22 21.43,14.22 21.43,14.36 
	21.29,14.36 21,14.5 21,14.64 21,14.5 20.72,14.5 20.58,14.36 20.44,14.36 20.29,14.36 20.15,14.36 20.15,14.22 20.15,14.07 
	20.01,14.07 19.87,14.07 19.87,14.22 19.87,14.36 20.01,14.36 20.01,14.5 20.01,14.64 19.87,14.64 19.87,14.5 19.72,14.5 
	19.58,14.5 19.72,14.36 19.72,14.22 19.58,14.07 19.44,14.07 19.3,14.22 19.16,14.22 19.16,14.36 19.01,14.36 19.01,14.22 
	18.87,14.22 19.01,14.22 19.16,14.22 19.16,14.07 19.16,13.93 19.01,13.93 19.01,13.79 19.01,13.65 19.16,13.65 19.3,13.65 
	19.3,13.5 19.3,13.36 19.16,13.36 19.01,13.36 19.01,13.22 19.01,13.08 18.87,13.08 18.73,13.22 18.59,13.22 18.59,13.36 
	18.44,13.36 18.44,13.5 18.3,13.5 18.16,13.36 18.3,13.22 18.3,13.08 18.3,12.94 18.44,12.79 18.44,12.65 18.44,12.51 18.3,12.51 
	18.16,12.51 18.16,12.65 18.16,12.79 18.02,12.79 17.88,12.79 17.88,12.65 17.73,12.51 17.59,12.51 17.45,12.51 17.45,12.65 
	17.45,12.79 17.59,12.94 17.45,13.08 17.31,13.22 17.16,13.22 17.16,13.08 17.16,12.94 17.02,12.79 17.02,12.65 17.02,12.51 
	17.02,12.37 17.02,12.22 16.88,12.08 16.88,11.94 16.88,11.8 16.74,11.66 16.6,11.66 16.6,11.51 16.45,11.51 16.45,11.37 
	16.31,11.37 16.31,11.23 16.45,11.23 16.45,11.09 16.6,11.09 16.74,11.23 16.88,11.23 16.88,11.37 17.02,11.37 17.02,11.23 
	17.16,11.23 17.16,11.09 17.16,10.94 17.16,10.8 17.02,10.66 16.88,10.66 16.74,10.66 16.74,10.8 16.6,10.8 16.6,10.66 16.45,10.66 
	16.31,10.66 16.17,10.66 16.17,10.52 16.03,10.52 16.03,10.38 15.88,10.38 15.88,10.52 15.74,10.52 15.74,10.66 15.6,10.66 
	15.6,10.8 15.74,10.8 15.74,10.94 15.74,11.09 15.6,11.09 15.6,11.23 15.46,11.23 15.46,11.09 15.32,10.94 15.17,10.8 15.03,10.8 
	15.03,10.94 14.89,10.94 15.03,11.09 14.89,11.09 14.89,11.23 14.75,11.23 14.6,11.37 14.6,11.51 14.46,11.51 14.46,11.66 
	14.32,11.8 14.18,11.8 14.04,11.8 13.89,11.8 13.89,11.66 13.89,11.51 14.04,11.51 14.04,11.37 14.04,11.23 14.04,11.09 
	14.04,10.94 14.18,10.94 14.18,11.09 14.32,11.09 14.46,11.09 14.46,10.94 14.46,10.8 14.32,10.8 14.18,10.8 14.04,10.8 13.89,10.8 
	13.75,10.8 13.75,10.66 13.89,10.52 14.04,10.52 13.89,10.38 13.89,10.23 13.89,10.09 13.75,9.95 13.47,10.09 13.32,10.09 
	13.18,9.95 13.18,9.81 13.32,9.81 13.32,9.66 13.32,9.52 13.47,9.66 13.61,9.66 13.75,9.66 13.75,9.52 13.61,9.52 13.61,9.38 
	13.61,9.24 13.61,9.1 13.47,8.95 13.32,8.95 13.32,9.1 13.18,9.1 13.18,9.24 13.32,9.24 13.32,9.38 13.18,9.38 13.04,9.24 
	13.04,9.1 13.04,8.95 12.9,8.95 12.76,8.95 12.61,8.95 12.61,8.81 12.61,8.67 12.61,8.53 12.61,8.38 12.61,8.24 12.76,8.24 
	12.9,8.1 12.9,7.96 12.9,7.82 13.04,7.82 13.04,7.67 12.9,7.67 12.9,7.53 12.76,7.53 12.76,7.39 12.61,7.25 12.47,7.1 12.47,6.96 
	12.33,6.96 12.33,6.82 12.19,6.82 12.19,6.96 12.04,6.96 12.04,7.1 11.9,7.1 11.9,7.25 12.04,7.25 12.04,7.39 12.19,7.39 
	12.19,7.53 12.19,7.67 12.19,7.82 12.04,7.82 11.9,7.82 11.76,7.82 11.62,7.82 11.62,7.67 11.48,7.67 11.33,7.67 11.33,7.82 
	11.19,7.82 11.19,7.67 11.05,7.67 10.91,7.67 10.91,7.82 10.76,7.82 10.62,7.82 10.62,7.67 10.48,7.67 10.48,7.53 10.48,7.39 
	10.48,7.25 10.34,7.1 10.2,7.1 10.05,7.25 9.91,7.25 9.77,7.25 9.77,7.1 9.77,6.96 9.77,6.82 9.91,6.82 9.91,6.68 9.77,6.68 
	9.63,6.68 9.63,6.82 9.48,6.82 9.34,6.82 9.2,6.68 9.06,6.68 9.06,6.54 8.92,6.54 8.77,6.54 8.63,6.54 8.49,6.54 8.49,6.39 
	8.35,6.39 8.35,6.25 8.35,6.11 8.35,5.97 8.49,5.97 8.63,5.82 8.63,5.68 8.77,5.68 8.77,5.54 8.92,5.54 9.06,5.54 9.2,5.54 9.2,5.4 
	9.2,5.26 9.2,5.11 9.2,4.97 9.34,4.97 9.34,4.83 9.48,4.83 9.48,4.69 9.63,4.69 9.63,4.54 9.63,4.4 9.77,4.4 9.77,4.26 9.77,4.12 
	9.91,4.12 9.77,4.12 9.77,3.98 9.91,3.98 9.91,3.83 10.05,3.83 10.05,3.69 10.05,3.55 9.91,3.55 9.91,3.41 9.77,3.41 9.91,3.41 
	9.77,3.41 9.77,3.26 9.63,3.26 9.63,3.12 9.77,3.12 9.63,3.12 9.63,2.98 9.77,2.98 9.77,2.84 9.77,2.7 9.77,2.55 9.91,2.55 
	9.77,2.55 9.91,2.55 9.91,2.41 9.91,2.55 10.05,2.55 10.05,2.41 10.2,2.41 10.34,2.41 10.34,2.27 10.34,2.13 10.2,2.13 10.2,1.98 
	10.2,1.84 10.2,1.7 10.2,1.56 10.05,1.56 10.05,1.42 10.2,1.42 10.2,1.27 10.05,1.13 10.2,0.99 10.34,0.99 10.48,0.99 10.62,1.13 
	10.91,1.13 11.19,1.27 11.33,1.27 11.48,1.27 11.62,1.27 12.04,1.42 12.33,1.42 12.61,1.56 12.76,1.56 13.32,1.7 13.47,1.84 
	13.75,1.84 14.04,1.98 14.18,1.98 14.6,1.98 14.89,2.13 15.17,2.27 15.32,2.27 15.6,2.27 15.74,2.27 15.88,2.41 16.03,2.41 
	16.31,2.41 16.6,2.55 17.02,2.7 17.31,2.7 17.45,2.7 17.59,2.7 17.88,2.7 18.02,2.7 18.16,2.7 18.3,2.7 18.44,2.7 18.44,2.84 
	18.44,2.98 18.59,2.98 18.73,2.98 18.87,2.98 18.87,3.12 19.01,3.12 19.16,3.12 19.16,3.26 19.3,3.26 19.3,3.41 19.16,3.41 
	19.16,3.55 19.16,3.69 19.3,3.69 19.44,3.69 19.58,3.83 19.72,3.83 19.87,3.69 20.01,3.69 20.15,3.69 20.29,3.55 20.44,3.55 
	20.58,3.55 20.72,3.55 20.72,3.69 20.86,3.69 21,3.69 21.15,3.69 21.29,3.69 21.43,3.69 21.43,3.83 21.43,3.98 21.57,3.98 
	21.43,4.12 21.57,4.12 21.72,4.12 21.72,4.26 21.86,4.26 22,4.26 22,4.4 22.14,4.4 22.28,4.4 22.43,4.54 22.43,4.69 22.43,4.83 
	22.43,4.97 22.28,4.97 22.28,5.11 22.28,5.26 22.43,5.26 22.43,5.4 22.43,5.54 22.57,5.54 22.71,5.54 22.71,5.68 22.85,5.68 
	23,5.68 23.14,5.68 23.28,5.68 23.42,5.68 23.56,5.68 23.71,5.68 23.71,5.82 23.85,5.82 23.99,5.82 24.13,5.82 24.28,5.82 
	24.42,5.82 24.56,5.82 24.7,5.82 24.7,5.97 24.85,5.97 24.99,5.97 25.13,5.97 25.13,6.11 25.27,6.11 25.27,6.25 25.41,6.25 
	25.56,6.25 25.7,6.25 25.84,6.25 25.98,6.25 25.98,6.39 26.12,6.39 26.41,6.39 26.41,6.54 26.55,6.54 26.69,6.54 26.69,6.39 
	26.84,6.39 26.98,6.54 27.12,6.54 27.26,6.54 27.4,6.54 27.55,6.54 27.55,6.39 27.55,6.54 27.69,6.39 27.69,6.54 27.83,6.39 
	27.83,6.54 27.97,6.54 27.97,6.68 28.12,6.68 28.54,6.68 28.54,6.82 28.68,6.82 28.54,6.82 28.68,6.96 28.68,7.1 28.83,7.1 
	28.83,6.96 28.83,6.82 28.97,6.82 29.11,6.82 29.11,6.68 29.25,6.68 29.25,6.82 29.25,6.68 29.4,6.68 29.54,6.68 29.68,6.54 
	29.82,6.68 29.82,6.54 29.96,6.54 30.11,6.54 30.25,6.54 30.39,6.54 30.39,6.39 30.53,6.39 30.68,6.25 30.68,6.11 30.82,6.11 
	30.96,5.97 31.1,5.82 31.1,5.68 31.24,5.68 31.24,5.54 31.24,5.4 31.39,5.4 31.53,5.4 31.53,5.26 31.67,5.26 31.81,5.11 31.96,5.11 
	32.1,5.11 32.24,5.11 32.38,5.11 32.38,4.97 32.53,4.97 32.53,5.11 32.67,5.11 32.67,4.97 32.81,4.97 32.95,4.97 32.95,4.83 
	33.09,4.83 33.24,4.83 33.24,4.69 33.09,4.69 33.24,4.69 33.24,4.54 33.38,4.54 33.52,4.54 33.66,4.54 33.66,4.4 33.81,4.4 
	33.81,4.26 33.95,4.26 33.95,4.12 34.09,4.12 34.23,4.12 34.37,4.12 34.37,3.98 34.52,3.98 34.66,3.98 34.66,3.83 34.8,3.83 
	34.8,3.69 34.94,3.69 35.09,3.69 35.23,3.69 35.23,3.55 35.37,3.55 35.37,3.41 35.37,3.26 35.51,3.26 35.65,3.41 35.65,3.26 
	35.8,3.26 35.94,3.26 35.94,3.12 35.94,2.98 36.08,2.98 36.08,2.84 36.08,2.98 36.22,2.98 36.37,2.98 36.37,2.84 36.51,2.84 
	36.51,2.98 36.65,2.98 36.65,2.84 36.79,2.84 36.93,2.84 36.93,2.7 37.08,2.7 37.08,2.84 37.22,2.84 37.22,2.7 37.36,2.7 
	37.36,2.84 37.5,2.84 37.65,2.84 37.79,2.84 37.93,2.84 38.07,2.84 38.07,2.98 38.21,2.98 38.36,2.84 38.36,2.98 38.5,2.98 
	38.64,2.98 38.93,2.98 39.07,2.98 39.21,2.98 39.35,2.98 39.49,2.98 39.64,2.98 39.64,3.12 39.78,3.12 39.78,2.98 39.92,2.98 
	39.92,3.12 40.06,3.12 40.21,3.12 40.21,3.26 40.35,3.41 40.35,3.55 40.35,3.69 40.35,3.83 40.49,3.83 40.49,3.98 40.77,3.98 
	40.77,4.12 40.92,4.12 41.06,4.12 41.2,4.12 41.34,4.12 41.49,4.12 41.63,4.12 41.63,3.98 41.77,3.98 41.77,4.12 41.91,4.12 
	41.91,4.26 42.05,4.26 42.05,4.4 42.2,4.4 42.34,4.4 42.34,4.54 42.48,4.54 42.48,4.69 42.62,4.54 42.62,4.69 42.48,4.69 
	42.62,4.69 42.62,4.83 42.77,4.83 42.91,4.83 42.91,4.69 42.91,4.83 43.05,4.83 43.19,4.83 43.19,4.97 43.19,4.83 43.33,4.83 
	43.48,4.83 43.62,4.97 43.76,4.97 43.9,4.97 44.05,4.97 44.05,5.11 44.05,4.97 44.19,4.97 44.19,4.83 44.33,4.83 44.47,4.83 
	44.47,4.69 44.47,4.54 44.61,4.54 44.61,4.4 44.76,4.4 44.76,4.26 44.9,4.26 44.9,4.12 44.9,3.98 45.04,3.83 45.18,3.83 45.33,3.98 
	45.47,3.98 45.47,3.83 45.47,3.69 45.47,3.83 45.33,3.83 45.33,3.69 45.33,3.55 45.47,3.55 45.47,3.41 45.61,3.41 45.61,3.26 
	45.61,3.12 45.75,2.98 45.75,2.84 45.75,2.7 45.89,2.7 45.89,2.84 46.04,2.84 46.18,2.84 46.32,2.84 46.46,2.84 46.46,2.7 
	46.46,2.55 46.46,2.41 46.61,2.41 46.61,2.27 46.75,2.27 46.75,2.13 46.89,2.13 46.89,2.27 47.03,2.13 47.17,2.13 47.17,1.98 
	47.32,1.98 47.32,1.84 47.46,1.84 47.6,1.84 47.74,1.84 47.74,1.7 47.89,1.7 48.03,1.7 48.03,1.84 48.17,1.84 48.31,1.84 48.31,1.7 
	48.17,1.7 48.17,1.56 48.31,1.56 48.45,1.56 48.31,1.7 48.45,1.7 48.6,1.7 48.74,1.7 48.74,1.84 48.74,1.7 48.74,1.56 48.88,1.56 
	49.02,1.56 49.17,1.56 49.17,1.7 49.31,1.56 49.31,1.7 49.45,1.7 49.59,1.7 49.59,1.56 49.73,1.56 49.88,1.56 49.88,1.42 
	49.88,1.56 50.02,1.56 50.02,1.42 50.16,1.42 50.16,1.56 50.3,1.56 50.3,1.42 50.45,1.42 50.45,1.56 50.45,1.7 50.59,1.7 
	50.59,1.56 50.59,1.42 50.73,1.42 50.73,1.56 50.87,1.56 51.01,1.56 50.87,1.7 51.01,1.7 51.16,1.7 51.16,1.56 51.3,1.56 51.3,1.7 
	51.44,1.7 51.44,1.84 51.58,1.84 51.58,1.98 51.73,1.98 51.73,2.13 51.73,2.27 51.87,2.27 52.01,2.27 52.15,2.27 52.15,2.41 
	52.29,2.41 52.29,2.27 52.44,2.27 52.58,2.27 52.72,2.27 52.58,2.27 52.58,2.13 52.72,2.13 52.72,2.27 52.86,2.27 52.72,2.27 
	52.72,2.41 52.86,2.41 53.01,2.41 53.01,2.27 53.01,2.41 53.01,2.27 53.15,2.27 53.15,2.41 53.29,2.27 53.43,2.27 53.43,2.41 
	53.57,2.41 53.57,2.55 53.72,2.55 53.72,2.7 53.72,2.55 53.72,2.7 53.86,2.7 53.86,2.84 54,2.84 54.14,2.84 54.29,2.98 54.43,2.98 
	54.43,2.84 54.43,2.7 54.57,2.7 54.57,2.84 54.71,2.84 54.71,2.98 54.85,2.98 54.71,2.98 54.71,3.12 54.85,3.12 54.85,3.26 
	54.85,3.12 54.85,2.98 55,2.98 55,3.12 55.14,3.12 55.28,3.12 55.28,3.26 55.42,3.26 55.57,3.26 55.57,3.12 55.71,3.12 55.57,3.12 
	55.57,2.98 55.71,2.98 55.85,3.12 55.85,2.98 55.99,2.98 55.99,3.12 55.99,3.26 55.99,3.12 56.13,3.12 56.28,3.12 56.28,2.98 
	56.42,2.98 56.42,3.12 56.56,3.12 56.42,3.12 56.56,3.12 56.56,2.98 56.56,2.84 56.7,2.84 56.7,2.98 56.7,3.12 56.56,3.12 
	56.7,3.12 56.7,3.26 56.85,3.26 56.99,3.26 56.85,3.26 56.85,3.12 56.99,3.12 57.13,3.12 57.13,3.26 57.13,3.41 57.27,3.41 
	57.41,3.26 57.56,3.26 57.56,3.12 57.7,3.12 57.7,3.26 57.7,3.41 57.84,3.41 57.84,3.55 57.98,3.41 58.13,3.41 58.27,3.41 
	58.27,3.26 58.27,3.12 58.13,3.12 58.27,2.98 58.41,3.12 58.55,3.26 58.69,3.41 58.69,3.26 58.69,3.12 58.84,2.98 58.84,3.12 
	58.98,3.26 59.12,3.26 59.12,3.41 59.26,3.41 59.26,3.55 59.26,3.69 59.41,3.69 59.41,3.83 59.55,3.83 59.55,3.69 59.55,3.55 
	59.69,3.55 59.83,3.55 59.97,3.69 60.12,3.55 60.12,3.41 60.26,3.41 60.12,3.41 60.12,3.26 60.26,3.26 60.26,3.41 60.4,3.41 
	60.4,3.55 60.54,3.55 60.69,3.55 60.69,3.41 60.83,3.41 60.83,3.26 60.97,3.26 60.97,3.12 61.11,3.12 61.11,2.98 61.25,2.98 
	61.25,3.12 61.4,3.12 61.54,3.12 61.54,3.26 61.54,3.41 61.68,3.41 61.82,3.55 61.97,3.69 62.11,3.69 62.25,3.69 62.25,3.83 
	62.39,3.83 62.39,3.69 62.39,3.83 62.53,3.83 62.53,3.69 62.68,3.69 62.68,3.55 62.82,3.55 62.96,3.55 63.1,3.55 63.1,3.69 
	62.96,3.69 63.1,3.69 63.1,3.83 63.1,3.69 63.25,3.55 63.25,3.69 63.39,3.69 63.39,3.83 63.39,3.69 63.53,3.69 63.53,3.83 
	63.53,3.98 63.53,3.83 63.67,3.83 63.81,3.83 63.96,3.83 63.81,3.83 63.81,3.69 63.96,3.69 63.96,3.83 63.96,3.69 63.96,3.55 
	64.1,3.55 64.1,3.41 64.1,3.26 64.24,3.26 64.24,3.41 64.38,3.41 64.53,3.41 64.53,3.26 64.67,3.26 64.67,3.41 64.67,3.26 
	64.81,3.26 64.81,3.12 64.95,3.12 64.95,3.26 64.95,3.41 65.09,3.41 65.24,3.41 65.24,3.12 65.38,3.12 65.38,2.98 65.52,2.98 
	65.52,3.12 65.52,3.26 65.66,3.26 65.66,3.12 65.81,3.12 65.81,3.26 65.81,3.12 65.81,2.98 65.95,3.12 65.95,2.98 65.95,2.84 
	65.95,2.98 66.09,2.98 66.23,2.98 66.23,2.84 66.09,2.7 66.23,2.7 66.23,2.84 66.38,2.84 66.52,2.98 66.52,2.84 66.66,2.7 66.8,2.7 
	66.94,2.7 67.09,2.55 67.23,2.41 67.37,2.41 67.37,2.55 67.51,2.55 67.66,2.41 67.8,2.27 67.8,2.13 67.94,1.98 67.94,1.84 
	68.08,1.7 68.22,1.7 68.37,1.7 68.51,1.7 68.65,1.7 68.79,1.7 68.79,1.84 68.94,1.84 69.08,1.98 69.22,1.98 69.36,1.98 69.5,1.84 
	69.5,1.7 69.65,1.42 69.65,1.27 69.79,1.27 69.79,1.13 69.93,1.13 69.93,1.27 70.07,1.27 70.22,1.42 70.22,1.56 70.36,1.7 
	70.36,1.84 70.36,1.98 70.22,2.13 70.22,2.27 70.22,2.41 70.22,2.55 70.36,2.55 70.5,2.55 70.64,2.55 70.78,2.55 70.78,2.41 
	70.93,2.27 70.93,2.13 70.93,1.98 70.78,1.84 70.78,1.7 70.93,1.56 71.07,1.42 71.35,1.42 71.49,1.42 71.49,1.27 71.64,1.27 
	71.64,1.13 71.78,0.99 71.92,0.99 72.06,0.99 72.21,1.13 72.21,1.27 72.35,1.27 72.35,1.42 72.35,1.56 72.35,1.98 72.35,2.13 
	72.49,2.13 72.63,2.13 72.77,1.98 72.77,1.84 72.92,1.7 72.92,1.56 72.92,1.42 72.92,1.27 72.77,0.99 72.77,0.85 72.92,0.85 
	72.92,0.99 73.06,0.99 73.06,1.13 73.06,1.27 73.06,1.42 73.2,1.42 73.34,1.84 73.49,1.98 73.49,2.13 73.63,2.27 73.63,2.41 
	73.77,2.55 73.63,2.7 73.63,2.98 73.49,2.98 73.63,3.12 73.77,3.12 73.91,2.98 74.06,2.98 74.06,3.12 74.2,3.12 74.2,3.26 
	74.2,3.41 74.2,3.55 74.34,3.55 74.48,3.55 74.62,3.55 74.77,3.41 74.91,3.41 75.05,3.26 75.19,3.26 75.34,3.26 75.48,3.26 
	75.62,3.26 75.76,3.41 75.76,3.55 76.05,3.83 76.19,3.83 76.33,3.69 76.33,3.55 76.47,3.55 76.62,3.55 76.76,3.55 76.9,3.41 
	77.04,3.41 77.04,3.26 77.18,3.26 77.33,3.26 77.47,3.41 77.47,3.55 77.61,3.55 77.61,3.69 77.47,3.83 77.33,3.98 77.18,3.98 
	77.18,4.12 77.04,4.12 77.04,4.26 77.18,4.26 77.18,4.4 77.33,4.69 77.47,4.83 77.61,4.97 77.61,5.11 77.61,5.26 77.75,5.4 
	77.9,5.4 78.04,5.4 78.18,5.26 78.32,5.11 78.46,5.11 78.61,5.26 78.75,5.26 78.89,5.26 78.89,5.11 78.75,4.97 78.75,4.83 
	78.61,4.83 78.61,4.69 78.75,4.54 78.89,4.54 79.03,4.54 79.18,4.4 79.46,4.26 79.6,4.26 79.74,4.26 79.74,4.4 79.89,4.4 
	79.89,4.54 79.89,4.69 79.89,4.83 79.74,4.83 79.74,4.97 79.74,5.11 79.6,5.26 79.6,5.4 79.46,5.54 79.46,5.68 79.46,5.82 
	79.6,5.82 79.6,5.97 79.74,5.97 80.03,5.97 80.17,5.97 80.31,6.11 80.46,6.11 80.6,5.97 80.74,5.97 80.74,5.82 "/>
</svg>
