<?xml version="1.0" encoding="utf-8"?>
<!-- Generator: Adobe Illustrator 24.2.1, SVG Export Plug-In . SVG Version: 6.00 Build 0)  -->
<svg version="1.1" id="Layer_1" xmlns="http://www.w3.org/2000/svg" xmlns:xlink="http://www.w3.org/1999/xlink" x="0px" y="0px"
	 viewBox="0 0 97.23 97.23" style="enable-background:new 0 0 97.23 97.23;" xml:space="preserve">
<style type="text/css">
	.st0{fill-rule:evenodd;clip-rule:evenodd;}
</style>
<polygon class="st0" points="45.29,87.46 45.29,87.38 45.29,87.29 45.29,87.2 45.38,87.12 45.38,87.03 45.29,87.03 45.29,86.94 
	45.29,86.86 45.2,86.86 45.2,86.77 45.12,86.77 44.94,86.68 44.86,86.68 44.86,86.59 44.77,86.59 44.68,86.51 44.6,86.42 
	44.25,86.16 44.16,86.07 44.16,85.99 44.07,85.99 44.07,85.9 43.99,85.9 43.99,85.81 43.9,85.73 43.81,85.73 43.81,85.64 
	43.73,85.64 43.73,85.55 43.64,85.55 43.64,85.64 43.55,85.64 43.47,85.64 43.38,85.73 43.29,85.81 43.29,85.9 43.21,85.9 
	43.12,85.9 43.03,85.9 42.94,85.99 42.86,85.99 42.77,86.07 42.68,86.07 42.6,86.16 42.6,86.25 42.51,86.25 42.51,86.16 
	42.42,86.16 42.42,86.25 42.34,86.25 42.34,86.16 42.25,86.16 42.16,86.16 42.08,86.16 41.99,86.16 41.9,86.16 41.82,86.16 
	41.82,86.07 41.73,85.99 41.73,85.9 41.73,85.81 41.64,85.81 41.64,85.73 41.55,85.64 41.47,85.64 41.47,85.55 41.38,85.47 
	41.38,85.38 41.38,85.29 41.47,85.12 41.55,85.03 41.64,85.03 41.64,84.94 41.73,84.94 41.82,84.94 41.9,84.86 42.08,84.77 
	42.16,84.77 42.16,84.68 42.25,84.6 42.25,84.51 42.25,84.42 42.34,84.42 42.42,84.34 42.42,84.25 42.42,84.16 42.51,83.99 
	42.6,83.9 42.68,83.9 42.77,83.9 42.86,83.81 42.86,83.73 42.86,83.64 42.86,83.55 42.86,83.47 42.86,83.38 42.77,83.38 
	42.77,83.29 42.86,83.21 42.86,83.12 42.77,83.03 42.77,82.95 42.86,82.86 42.94,82.77 42.94,82.68 42.94,82.6 42.94,82.51 
	42.94,82.42 42.86,82.34 42.77,82.34 42.68,82.16 42.68,82.08 42.6,82.08 42.51,82.08 42.42,81.99 42.34,81.99 42.34,81.9 
	42.25,81.9 42.25,81.82 42.25,81.73 42.16,81.73 42.16,81.64 42.08,81.64 42.08,81.56 41.99,81.56 41.99,81.47 41.99,81.56 
	41.9,81.56 41.9,81.47 41.82,81.38 41.82,81.47 41.82,81.38 41.73,81.38 41.73,81.3 41.73,81.38 41.73,81.3 41.64,81.3 41.64,81.21 
	41.64,81.12 41.55,81.12 41.47,81.03 41.47,80.95 41.38,80.95 41.38,80.86 41.38,80.95 41.29,80.95 41.29,80.86 41.21,80.86 
	41.21,80.77 41.21,80.69 41.12,80.69 41.12,80.6 41.12,80.51 41.03,80.51 40.95,80.51 40.86,80.43 40.86,80.34 40.86,80.25 
	40.86,80.17 40.86,80.08 40.77,79.99 40.77,79.9 40.69,79.9 40.6,79.9 40.6,79.82 40.6,79.73 40.6,79.64 40.69,79.64 40.69,79.56 
	40.69,79.64 40.69,79.56 40.77,79.56 40.69,79.56 40.69,79.47 40.69,79.38 40.77,79.47 40.77,79.38 40.77,79.3 40.77,79.21 
	40.77,79.12 40.77,79.04 40.86,79.04 40.95,79.04 40.95,78.95 40.86,78.95 40.86,78.86 40.95,78.86 41.03,78.86 41.03,78.78 
	40.95,78.78 40.95,78.69 40.95,78.6 41.03,78.6 40.95,78.6 40.95,78.51 41.03,78.51 41.12,78.51 41.12,78.43 41.12,78.34 
	41.21,78.34 41.12,78.34 41.12,78.25 41.21,78.25 41.21,78.17 41.12,78.17 41.03,78.08 41.12,78.08 41.03,78.08 41.12,78.08 
	41.03,78.08 41.03,77.99 41.12,77.99 41.12,77.91 41.12,77.82 41.03,77.82 41.03,77.73 41.03,77.65 41.12,77.65 41.12,77.73 
	41.12,77.65 41.12,77.73 41.21,77.73 41.21,77.65 41.12,77.56 41.12,77.47 41.03,77.47 41.03,77.39 41.03,77.3 41.03,77.21 
	41.03,77.12 41.03,77.04 41.03,76.95 41.12,76.95 41.12,76.86 41.12,76.78 41.21,76.78 41.29,76.69 41.38,76.69 41.38,76.6 
	41.29,76.6 41.38,76.6 41.38,76.52 41.47,76.52 41.38,76.52 41.47,76.52 41.47,76.43 41.55,76.43 41.55,76.34 41.47,76.26 
	41.55,76.26 41.55,76.17 41.47,76.17 41.47,76.08 41.55,76 41.55,76.08 41.55,76 41.47,76 41.47,75.91 41.55,75.91 41.47,75.91 
	41.55,75.91 41.47,75.91 41.47,75.82 41.55,75.82 41.55,75.73 41.47,75.73 41.55,75.73 41.64,75.73 41.64,75.65 41.55,75.65 
	41.55,75.56 41.55,75.47 41.47,75.47 41.55,75.47 41.64,75.39 41.64,75.3 41.73,75.3 41.73,75.21 41.73,75.3 41.73,75.21 
	41.64,75.21 41.73,75.21 41.73,75.13 41.73,75.21 41.82,75.21 41.82,75.13 41.82,75.04 41.9,75.04 41.9,74.95 41.99,74.95 
	41.99,74.87 41.99,74.78 42.08,74.78 41.99,74.69 41.99,74.61 42.08,74.61 42.08,74.52 42.16,74.52 42.16,74.43 42.08,74.43 
	41.99,74.34 42.08,74.34 42.08,74.26 42.16,74.26 42.25,74.26 42.34,74.17 42.34,74.26 42.34,74.34 42.42,74.34 42.51,74.34 
	42.51,74.26 42.6,74.26 42.6,74.17 42.68,74.17 42.77,74.08 42.77,74.17 42.86,74.17 42.86,74.08 42.94,74.08 42.94,74.17 
	43.03,74.08 43.12,74.08 43.12,74.17 43.21,74.17 43.29,74.17 43.29,74.26 43.29,74.17 43.38,74.17 43.38,74.26 43.38,74.17 
	43.47,74.17 43.47,74.26 43.47,74.34 43.55,74.34 43.55,74.43 43.64,74.43 43.73,74.43 43.81,74.43 43.9,74.52 43.99,74.52 
	43.99,74.61 43.99,74.69 44.07,74.69 44.07,74.61 44.16,74.61 44.16,74.52 44.07,74.52 44.07,74.43 43.99,74.43 43.99,74.34 
	43.99,74.26 43.9,74.26 43.9,74.17 43.9,74.08 43.81,74.08 43.73,74 43.64,74 43.64,73.91 43.64,73.82 43.55,73.65 43.47,73.65 
	43.47,73.56 43.47,73.48 43.47,73.39 43.38,73.39 43.38,73.3 43.47,73.3 43.38,73.3 43.38,73.22 43.38,73.13 43.38,73.04 
	43.38,72.95 43.47,72.87 43.47,72.78 43.47,72.69 43.38,72.69 43.38,72.61 43.38,72.52 43.38,72.43 43.38,72.35 43.38,72.26 
	43.29,72.17 43.21,72.17 43.12,72.09 43.03,72.09 42.94,72.09 42.86,72 42.77,71.91 42.68,71.83 42.6,71.83 42.6,71.74 42.34,71.56 
	42.25,71.48 42.16,71.39 42.08,71.3 41.82,71.13 41.82,71.04 41.73,70.96 41.73,70.87 41.73,70.78 41.73,70.7 41.73,70.52 
	41.73,70.44 41.64,70.44 41.64,70.35 41.55,70.35 41.38,70.26 41.12,70.09 40.86,69.91 40.6,69.65 40.51,69.57 40.51,69.48 
	40.43,69.48 40.43,69.22 40.34,69.13 40.34,69.05 40.34,68.96 40.34,68.78 40.43,68.7 40.43,68.52 40.34,68.35 40.34,68.26 
	40.34,68.18 40.34,68.09 40.34,67.92 40.25,67.83 40.25,67.66 40.16,67.57 40.08,67.48 39.99,67.39 39.9,67.31 39.82,67.31 
	39.73,67.22 39.64,67.05 39.47,66.96 39.47,66.87 39.38,66.79 39.38,66.7 39.3,66.61 39.3,66.53 39.3,66.44 39.47,66.09 39.47,66 
	39.56,65.92 39.64,65.92 39.64,65.83 39.73,65.83 39.73,65.74 39.73,65.66 39.82,65.66 39.82,65.57 39.9,65.57 39.9,65.48 
	39.99,65.48 40.08,65.48 40.16,65.48 40.16,65.4 40.25,65.4 40.25,65.48 40.25,65.4 40.34,65.4 40.43,65.4 40.43,65.31 40.51,65.31 
	40.6,65.31 40.69,65.31 40.69,65.22 40.69,65.14 40.69,65.05 40.6,64.87 40.6,64.79 40.51,64.79 40.51,64.7 40.43,64.61 
	40.25,64.53 40.25,64.44 40.16,64.35 40.16,64.27 40.08,64.27 40.08,64.18 39.99,64.18 39.99,64.09 39.99,64.01 39.99,63.92 
	39.99,63.83 39.99,63.75 39.9,63.75 39.9,63.66 39.9,63.57 39.9,63.49 39.9,63.4 39.9,63.31 39.9,63.22 39.9,63.14 39.9,63.05 
	39.9,62.96 39.82,62.96 39.82,62.88 39.73,62.88 39.73,62.79 39.64,62.7 39.64,62.62 39.64,62.53 39.56,62.53 39.56,62.44 
	39.64,62.44 39.64,62.36 39.56,62.36 39.64,62.36 39.56,62.36 39.56,62.27 39.38,62.18 39.3,62.18 39.21,62.09 39.04,62.01 
	38.95,62.01 38.77,61.92 38.69,61.92 38.6,61.83 38.43,61.75 38.34,61.66 38.25,61.66 38.17,61.57 38.08,61.57 37.99,61.49 
	37.91,61.4 37.82,61.4 37.65,61.4 37.56,61.31 37.47,61.31 37.38,61.23 37.3,61.23 37.21,61.23 37.12,61.23 37.04,61.14 36.6,61.05 
	36.52,60.97 36.43,60.88 36.34,60.79 36.25,60.79 36.17,60.79 36.08,60.79 35.99,60.79 35.91,60.79 35.82,60.79 35.73,60.7 
	35.65,60.7 35.56,60.7 35.39,60.62 35.21,60.62 35.13,60.53 35.04,60.53 34.86,60.44 34.78,60.44 34.69,60.44 34.6,60.36 
	34.52,60.36 34.52,60.44 34.43,60.44 34.34,60.44 34.34,60.36 34.26,60.36 34.26,60.27 34.17,60.18 34.08,60.18 34.08,60.1 34,60.1 
	33.91,60.1 33.91,60.01 33.82,60.01 33.74,59.92 33.74,59.84 33.65,59.84 33.65,59.75 33.56,59.75 33.56,59.66 33.56,59.58 
	33.56,59.49 33.47,59.49 33.47,59.4 33.56,59.4 33.56,59.31 33.56,59.23 33.56,59.14 33.65,59.14 33.56,59.14 33.56,59.05 
	33.56,58.97 33.65,58.97 33.65,58.88 33.74,58.88 33.74,58.79 33.74,58.71 33.65,58.71 33.65,58.62 33.56,58.62 33.56,58.53 
	33.47,58.36 33.39,58.36 33.39,58.27 33.47,58.27 33.47,58.19 33.47,58.1 33.47,58.01 33.47,57.92 33.39,57.84 33.39,57.75 
	33.39,57.66 33.39,57.58 33.47,57.58 33.47,57.49 33.56,57.49 33.56,57.4 33.47,57.4 33.47,57.32 33.47,57.23 33.47,57.14 
	33.47,57.06 33.47,56.97 33.47,56.88 33.39,56.88 33.47,56.88 33.39,56.8 33.39,56.71 33.3,56.8 33.3,56.71 33.39,56.62 33.3,56.62 
	33.3,56.71 33.21,56.71 33.21,56.62 33.13,56.62 33.13,56.53 33.13,56.45 33.13,56.36 33.04,56.36 32.95,56.27 32.95,56.36 
	32.95,56.27 32.95,56.19 32.87,56.19 32.87,56.1 32.87,56.01 32.87,55.93 32.87,55.84 32.95,55.75 32.95,55.67 32.87,55.67 
	32.78,55.67 32.69,55.58 32.78,55.49 32.87,55.49 32.95,55.49 33.04,55.49 32.95,55.41 32.95,55.32 32.87,55.32 32.87,55.23 
	32.95,55.14 33.04,55.14 33.13,55.23 33.13,55.32 33.21,55.32 33.21,55.41 33.3,55.41 33.3,55.32 33.39,55.32 33.39,55.23 
	33.3,55.23 33.3,55.14 33.39,55.14 33.39,55.06 33.47,55.06 33.56,54.97 33.47,54.97 33.47,54.88 33.39,54.88 33.3,54.88 33.3,54.8 
	33.21,54.8 33.21,54.71 33.21,54.62 33.3,54.62 33.39,54.62 33.39,54.54 33.47,54.54 33.47,54.45 33.47,54.36 33.47,54.28 
	33.56,54.28 33.65,54.19 33.65,54.1 33.65,54.02 33.56,54.02 33.56,53.93 33.47,53.93 33.47,53.84 33.47,53.67 33.47,53.58 
	33.47,53.49 33.47,53.41 33.56,53.32 33.65,53.23 33.74,53.06 33.82,52.97 33.82,52.89 33.74,52.89 33.56,52.89 33.47,52.89 
	33.39,52.8 33.3,52.8 33.21,52.89 33.13,52.89 33.13,52.97 33.04,52.97 33.04,52.89 32.95,52.89 32.95,52.8 33.04,52.71 
	33.13,52.63 33.21,52.63 33.21,52.54 33.3,52.54 33.39,52.45 33.39,52.36 33.47,52.36 33.56,52.36 33.56,52.28 33.65,52.28 
	33.65,52.19 33.56,52.1 33.47,52.1 33.39,52.02 33.3,52.02 33.21,52.1 33.13,52.1 33.13,52.19 33.04,52.19 33.13,52.36 33.04,52.36 
	33.04,52.45 32.95,52.45 32.78,52.45 32.78,52.36 32.69,52.36 32.69,52.28 32.69,52.19 32.61,52.19 32.69,52.19 32.69,52.1 
	32.69,52.02 32.78,51.93 32.78,51.84 32.87,51.84 33.04,51.76 33.13,51.76 33.13,51.67 33.13,51.58 32.95,51.5 32.95,51.41 
	33.04,51.32 33.13,51.15 33.13,51.06 33.04,50.97 33.04,50.89 33.13,50.89 33.21,50.89 33.39,50.89 33.56,50.71 33.56,50.63 
	33.65,50.63 33.82,50.63 34.08,50.63 34.17,50.54 34.34,50.45 34.43,50.37 34.52,50.19 34.69,50.02 34.78,49.93 34.86,49.85 
	34.95,49.67 35.13,49.58 35.21,49.5 35.3,49.41 35.47,49.32 35.56,49.24 35.65,49.15 35.73,49.06 35.82,48.98 35.82,48.89 
	35.82,48.8 35.73,48.63 35.65,48.54 35.56,48.54 35.47,48.46 35.39,48.46 35.3,48.46 35.21,48.46 35.13,48.46 34.86,48.63 
	34.86,48.72 34.78,48.8 34.69,48.89 34.6,48.89 34.52,48.98 34.43,49.06 34.34,49.06 34.26,49.15 34.17,49.15 34.08,49.15 34,49.15 
	33.91,49.06 33.91,48.63 34,48.54 34,48.46 34,48.37 34.08,48.19 34.17,48.11 34.26,48.02 34.43,47.93 34.52,47.85 34.6,47.85 
	34.69,47.85 34.69,47.76 34.78,47.76 34.78,47.59 34.86,47.59 34.86,47.5 34.86,47.41 34.78,47.33 34.78,47.24 34.69,47.24 
	34.6,47.24 34.52,47.33 34.43,47.59 34.34,47.67 34.26,47.76 34.17,47.76 34.08,47.67 34,47.67 34,47.59 33.91,47.5 33.91,47.41 
	34,47.41 34,47.33 34.08,47.24 34.17,47.15 34.17,47.07 34.17,46.98 34.08,46.89 33.82,46.8 33.74,46.8 33.65,46.8 33.56,46.89 
	33.47,46.98 33.39,46.98 33.39,47.07 33.3,47.07 33.21,47.07 33.13,46.98 33.04,46.98 33.04,46.89 33.04,46.8 33.04,46.72 
	33.13,46.72 33.3,46.8 33.39,46.8 33.39,46.72 33.47,46.63 33.47,46.54 33.39,46.54 33.21,46.46 33.13,46.37 33.04,46.28 
	33.04,46.2 33.13,46.11 33.21,46.02 33.3,46.02 33.39,46.02 33.47,46.02 33.56,46.02 33.65,46.02 33.74,45.94 33.82,45.85 
	33.74,45.76 33.65,45.68 33.56,45.68 33.47,45.76 33.39,45.76 33.3,45.76 33.21,45.76 33.13,45.76 33.04,45.76 32.95,45.68 
	32.87,45.68 32.87,45.59 32.87,45.5 32.87,45.41 32.87,45.33 32.87,45.24 32.87,45.15 32.87,45.07 32.78,44.98 32.69,44.89 
	32.61,44.81 32.61,44.72 32.52,44.63 32.52,44.55 32.52,44.46 32.52,44.37 32.43,44.37 32.35,44.28 32.35,44.2 32.26,44.11 
	32.17,44.11 32.08,44.11 31.91,44.11 31.91,44.02 31.82,44.11 31.82,44.2 31.91,44.28 31.91,44.37 31.91,44.46 31.82,44.46 
	31.74,44.55 31.65,44.55 31.56,44.63 31.56,44.72 31.56,44.81 31.65,44.81 31.65,44.89 31.74,44.89 31.82,44.89 31.91,44.89 
	32,44.89 32.08,44.98 32.17,45.07 32.17,45.15 32.17,45.24 32.26,45.33 32.26,45.41 32.17,45.41 32.08,45.41 32.08,45.24 32,45.24 
	32,45.15 31.91,45.15 31.82,45.07 31.74,45.07 31.65,45.07 31.48,45.15 31.39,45.15 31.39,45.07 31.3,45.07 31.22,44.98 
	31.22,44.89 31.22,44.81 31.22,44.72 31.22,44.63 31.22,44.55 31.22,44.46 31.22,44.2 31.13,44.28 31.04,44.28 30.96,44.28 
	30.87,44.28 30.78,44.28 30.78,44.2 30.69,44.2 30.69,44.11 30.61,44.02 30.52,44.02 30.43,44.02 30.43,43.94 30.35,43.94 
	30.26,44.11 30.17,44.11 30.09,44.11 29.91,44.02 29.83,44.02 29.74,44.02 29.57,44.11 29.48,44.11 29.39,44.11 29.3,44.02 
	29.3,43.94 29.3,43.85 29.3,43.68 29.3,43.59 29.3,43.5 29.3,43.42 29.22,43.42 29.13,43.5 29.04,43.59 29.04,43.68 28.96,43.68 
	28.87,43.68 28.78,43.68 28.7,43.68 28.61,43.68 28.61,43.76 28.52,43.76 28.52,43.68 28.44,43.68 28.44,43.76 28.44,43.85 
	28.35,43.85 28.35,43.94 28.26,44.02 28.18,44.11 28.09,44.11 28.09,44.2 28.09,44.28 28,44.28 27.83,44.2 27.74,44.28 27.83,44.28 
	27.83,44.37 27.91,44.37 28,44.37 28,44.46 27.91,44.46 27.74,44.46 27.13,44.46 27.05,44.55 26.52,44.55 26.35,44.55 26.26,44.55 
	26.09,44.55 26,44.55 25.92,44.55 25.83,44.55 25.74,44.55 25.66,44.55 25.57,44.55 25.48,44.55 25.39,44.55 25.22,44.55 
	25.13,44.55 25.05,44.55 24.96,44.46 24.87,44.46 24.79,44.37 24.7,44.28 24.61,44.2 24.53,44.11 24.44,44.11 24.35,44.02 
	24.27,43.94 24.27,43.85 24.18,43.85 24.09,43.85 23.83,43.85 23.66,43.85 23.57,43.85 23.48,43.85 23.4,43.85 23.31,43.85 
	23.14,43.85 23.05,43.85 22.96,43.85 22.88,43.85 22.79,43.85 22.7,43.85 22.61,43.85 22.53,43.85 22.44,43.76 22.35,43.76 
	22.27,43.68 22.18,43.68 22.09,43.59 22.09,43.5 22.01,43.5 21.92,43.42 21.83,43.42 21.75,43.42 21.66,43.33 21.57,43.33 
	21.49,43.33 21.4,43.33 21.31,43.24 21.22,43.24 21.14,43.24 21.05,43.24 20.96,43.16 20.88,43.16 20.79,43.16 20.7,43.16 
	20.62,43.16 20.53,43.07 20.44,43.07 20.18,43.07 20.1,42.98 20.01,42.98 19.92,42.98 19.83,42.98 19.75,42.9 19.57,42.9 
	19.49,42.9 19.4,42.9 19.57,42.03 19.66,41.77 19.75,41.59 19.75,41.42 19.83,41.07 19.83,40.98 19.92,40.9 19.83,40.9 19.75,40.9 
	19.66,40.81 19.66,40.72 19.66,40.64 19.75,40.55 19.83,40.55 19.83,40.46 19.92,40.38 19.83,40.29 19.75,40.29 19.75,40.2 
	19.75,40.11 19.83,40.11 19.92,40.11 19.92,40.03 20.01,39.94 20.01,39.85 20.01,39.77 20.01,39.68 20.01,39.59 20.01,39.51 
	19.92,39.42 19.92,39.33 19.92,39.25 19.92,39.16 19.92,39.07 19.92,38.99 19.83,38.9 19.83,38.81 19.75,38.72 19.75,38.64 
	19.66,38.55 19.66,38.46 19.57,38.38 19.57,38.29 19.57,38.12 19.49,38.03 19.4,37.94 19.31,37.86 19.23,37.77 19.14,37.77 
	19.05,37.77 18.97,37.86 18.88,37.86 18.79,37.94 18.71,37.94 18.62,37.94 18.53,37.94 18.44,37.86 18.36,37.86 18.27,37.77 
	18.18,37.68 18.18,37.6 18.1,37.51 18.01,37.33 18.1,37.25 18.1,37.16 18.18,37.16 18.27,37.07 18.36,37.07 18.44,37.07 
	18.44,36.99 18.53,36.99 18.53,36.9 18.53,36.81 18.44,36.73 18.36,36.64 18.36,36.47 18.27,36.47 18.27,36.38 18.27,36.29 
	18.27,36.21 18.27,36.12 18.27,36.03 18.27,35.94 18.27,35.86 18.27,35.77 18.27,35.68 18.27,35.6 18.18,35.51 18.18,35.42 
	18.18,35.34 18.18,35.25 18.18,35.16 18.18,35.08 18.1,34.99 18.1,34.9 18.01,34.82 17.92,34.82 17.84,34.73 17.84,34.64 
	17.75,34.55 17.66,34.47 17.58,34.38 17.49,34.29 17.58,34.29 17.75,33.86 17.92,33.43 17.92,33.34 18.01,33.25 18.01,33.16 
	18.18,32.73 18.27,32.73 18.27,32.64 18.27,32.56 18.18,32.56 18.1,32.56 18.1,32.47 18.01,32.38 18.01,32.3 18.1,32.21 18.1,32.12 
	18.1,32.04 18.1,31.95 18.1,31.86 18.1,31.69 18.18,31.51 18.27,31.43 18.27,31.34 18.36,31.25 18.44,31.08 18.53,30.82 
	18.53,30.73 18.62,30.56 18.79,29.86 18.88,29.86 18.97,30.04 19.05,30.12 19.14,30.12 19.23,30.21 19.31,30.21 19.4,30.3 
	19.49,30.3 19.57,30.3 19.66,30.3 19.75,30.3 19.83,30.21 19.92,30.21 20.01,30.12 20.1,30.12 20.1,30.04 20.1,30.12 20.18,30.12 
	20.27,30.21 20.36,30.21 20.36,30.12 20.36,30.04 20.44,30.04 20.53,30.04 20.62,30.04 20.7,30.04 20.79,30.04 20.96,30.04 
	21.05,30.04 21.14,30.04 21.31,30.04 21.4,29.95 21.57,29.95 21.66,29.95 21.75,29.95 21.83,29.95 21.92,29.95 22.27,29.95 
	22.35,29.95 22.35,30.04 22.44,30.04 22.53,30.04 22.53,30.12 22.61,30.12 22.7,30.12 22.79,30.12 22.88,30.12 22.88,30.04 
	22.96,30.04 22.96,29.95 22.96,29.78 22.88,29.78 22.88,29.69 22.88,29.6 22.96,29.6 23.05,29.6 23.05,29.52 23.14,29.52 
	23.22,29.43 23.31,29.34 23.31,29.26 23.4,29.17 23.48,29.17 23.57,29.08 23.66,29.08 23.74,29.08 23.74,28.99 23.83,28.99 
	23.92,28.99 23.92,28.91 24,28.91 24.09,28.82 24.18,28.82 24.18,28.91 24.18,28.99 24.27,28.99 24.27,28.91 24.35,28.82 
	24.44,28.82 24.44,28.91 24.53,28.91 24.61,28.99 24.7,28.99 24.79,28.99 24.87,28.99 24.96,28.99 24.96,29.08 24.96,29.17 
	24.87,29.17 24.96,29.17 24.96,29.26 24.96,29.34 25.05,29.34 25.05,29.43 25.13,29.43 25.13,29.34 25.22,29.34 25.31,29.34 
	25.39,29.26 25.39,29.34 25.48,29.34 25.57,29.43 25.57,29.52 25.66,29.6 25.74,29.69 25.83,29.69 25.83,29.78 25.92,29.78 
	26,29.78 26.09,29.69 26.09,29.6 26.09,29.52 26.09,29.43 26.18,29.43 26.18,29.34 26.26,29.26 26.26,29.17 26.35,29.08 
	26.44,29.08 26.61,29.08 26.7,29.08 26.78,29.08 26.78,28.99 26.87,28.99 26.96,28.99 26.96,28.91 27.05,28.91 27.13,28.82 
	27.22,28.73 27.31,28.73 27.31,28.65 27.39,28.65 27.48,28.65 27.57,28.65 27.57,28.56 27.57,28.65 27.65,28.65 27.65,28.56 
	27.74,28.56 27.83,28.56 27.83,28.47 27.91,28.47 27.91,28.39 27.91,28.3 27.83,28.21 27.83,27.87 27.83,27.78 27.74,27.43 
	27.74,27.34 27.65,27.26 27.57,27.17 27.48,27.08 27.48,27 27.39,26.91 27.39,26.82 27.48,26.74 27.48,26.65 27.48,26.56 
	27.57,26.56 27.57,26.47 27.65,26.47 27.74,26.39 27.83,26.39 27.91,26.39 28,26.3 28.18,26.3 28.52,26.21 28.61,26.13 28.7,26.13 
	28.78,26.04 28.87,25.95 28.96,25.87 28.96,25.78 29.04,25.78 29.04,25.69 29.13,25.69 29.13,25.78 29.22,25.78 29.22,25.69 
	29.22,25.61 29.3,25.61 29.3,25.52 29.3,25.43 29.3,25.35 29.22,25.35 29.22,25.26 29.13,25.26 29.04,25.26 29.04,25.17 
	29.04,25.09 29.04,25 29.13,25 29.13,24.91 29.13,24.82 29.22,24.74 29.3,24.74 29.3,24.65 29.39,24.65 29.48,24.65 29.48,24.56 
	29.57,24.56 29.48,24.56 29.48,24.65 29.57,24.65 29.65,24.65 29.65,24.56 29.65,24.48 29.74,24.48 29.83,24.48 29.91,24.48 
	30,24.48 30,24.56 29.91,24.56 30,24.56 30,24.48 30.09,24.48 30.17,24.39 30.26,24.39 30.26,24.3 30.26,24.22 30.17,24.22 
	30.17,24.13 30.17,24.04 30.17,23.96 30.09,23.96 30.09,23.87 30,23.78 30,23.7 29.91,23.7 29.91,23.61 29.83,23.52 29.74,23.52 
	29.65,23.52 29.57,23.52 29.22,23.61 29.13,23.61 29.04,23.61 29.04,23.52 28.96,23.52 28.87,23.43 28.78,23.43 28.7,23.35 
	28.61,23.26 28.61,23.17 28.52,23.17 28.52,23.09 28.52,23 28.61,22.91 28.7,22.83 28.7,22.74 28.78,22.74 28.87,22.65 28.96,22.57 
	29.04,22.57 29.22,22.48 29.39,22.39 29.39,22.3 29.48,22.3 29.57,22.3 29.57,22.22 29.57,22.3 29.65,22.3 29.65,22.22 29.74,22.22 
	29.74,22.3 29.83,22.3 29.83,22.22 29.83,22.3 29.91,22.3 29.91,22.22 30,22.22 30,22.3 30.09,22.3 30.09,22.22 30.17,22.22 
	30.17,22.3 30.26,22.3 30.26,22.39 30.35,22.39 30.43,22.39 30.43,22.3 30.43,22.39 30.52,22.39 30.52,22.48 30.61,22.48 
	30.61,22.57 30.61,22.65 30.69,22.65 30.69,22.74 30.69,22.83 30.78,22.83 30.78,22.74 30.87,22.74 30.96,22.74 30.96,22.83 
	31.04,22.83 31.13,22.83 31.13,22.91 31.22,22.83 31.22,22.74 31.3,22.74 31.3,22.83 31.3,22.91 31.39,22.91 31.39,22.83 
	31.39,22.91 31.39,23 31.48,23 31.48,22.91 31.56,22.91 31.56,23 31.56,22.91 31.65,22.91 31.74,22.91 31.74,22.83 31.82,22.83 
	31.91,22.91 32,22.91 32,22.83 32,22.91 32.08,22.91 32.17,22.91 32.17,23 32.26,23 32.35,23.09 32.35,23 32.43,23 32.43,23.09 
	32.52,23.09 32.61,23.09 32.61,23.17 32.69,23.26 32.78,23.26 32.78,23.35 32.87,23.35 32.87,23.43 32.95,23.43 32.95,23.52 
	33.04,23.52 33.04,23.61 33.04,23.7 33.13,23.7 33.21,23.7 33.21,23.78 33.21,23.7 33.3,23.7 33.39,23.7 33.39,23.78 33.47,23.78 
	33.56,23.78 33.56,23.7 33.65,23.7 33.65,23.61 33.74,23.61 33.74,23.7 33.82,23.7 33.91,23.7 33.91,23.61 34,23.61 34,23.52 
	34.08,23.52 34.08,23.61 34.17,23.61 34.17,23.7 34.26,23.7 34.34,23.7 34.43,23.7 34.43,23.78 34.52,23.87 34.52,23.96 
	34.43,23.96 34.43,24.04 34.52,24.04 34.6,24.04 34.69,24.04 34.78,24.04 34.78,24.13 34.78,24.22 34.86,24.22 34.86,24.13 
	34.95,24.13 35.04,24.13 35.04,24.04 35.13,23.96 35.13,23.87 35.04,23.87 35.04,23.78 35.13,23.78 35.21,23.78 35.21,23.7 
	35.3,23.7 35.39,23.7 35.3,23.61 35.39,23.61 35.47,23.7 35.39,23.7 35.39,23.78 35.39,23.87 35.39,23.96 35.47,23.96 35.56,23.96 
	35.56,24.04 35.56,24.13 35.56,24.22 35.65,24.22 35.65,24.3 35.65,24.39 35.65,24.48 35.73,24.48 35.82,24.48 35.82,24.39 
	35.82,24.48 35.91,24.48 35.82,24.48 35.91,24.48 35.99,24.48 35.99,24.56 36.08,24.56 36.17,24.65 36.17,24.74 36.17,24.82 
	36.25,24.82 36.34,24.82 36.34,24.91 36.43,24.91 36.43,24.82 36.34,24.82 36.34,24.74 36.43,24.74 36.52,24.74 36.6,24.74 
	36.6,24.82 36.69,24.82 36.69,24.91 36.78,24.82 36.78,24.91 36.78,25 36.86,25 36.86,25.09 36.95,25.09 36.95,25 37.04,25 
	37.04,25.09 37.12,25.09 37.21,25.09 37.21,25.17 37.3,25.26 37.3,25.35 37.3,25.43 37.3,25.52 37.38,25.52 37.38,25.61 
	37.47,25.61 37.47,25.52 37.56,25.52 37.56,25.61 37.65,25.61 37.65,25.52 37.56,25.52 37.56,25.43 37.65,25.43 37.73,25.43 
	37.73,25.52 37.73,25.43 37.73,25.52 37.73,25.61 37.73,25.69 37.73,25.78 37.65,25.78 37.65,25.87 37.65,25.95 37.73,25.95 
	37.73,26.04 37.73,26.13 37.82,26.13 37.82,26.21 37.73,26.21 37.73,26.3 37.82,26.39 37.91,26.39 37.91,26.47 37.82,26.47 
	37.91,26.47 37.99,26.47 37.99,26.39 38.08,26.39 38.08,26.47 37.99,26.56 38.08,26.56 38.08,26.65 38.17,26.65 38.17,26.74 
	38.17,26.82 38.25,26.82 38.34,26.82 38.43,26.82 38.51,26.82 38.6,26.82 38.6,26.74 38.51,26.74 38.51,26.65 38.51,26.74 
	38.43,26.74 38.43,26.65 38.51,26.65 38.6,26.65 38.6,26.56 38.69,26.56 38.6,26.56 38.51,26.56 38.51,26.47 38.6,26.47 
	38.69,26.47 38.69,26.39 38.69,26.3 38.77,26.3 38.86,26.3 38.86,26.21 38.95,26.21 38.95,26.3 39.04,26.3 38.95,26.3 38.95,26.39 
	38.95,26.47 39.04,26.47 39.12,26.47 39.12,26.56 39.12,26.65 39.21,26.65 39.12,26.65 39.12,26.74 39.21,26.74 39.12,26.74 
	39.12,26.65 39.04,26.65 39.04,26.74 39.12,26.74 39.12,26.82 39.21,26.82 39.3,26.82 39.3,26.91 39.3,27 39.38,27 39.47,27 
	39.47,27.08 39.47,27.17 39.47,27.26 39.56,27.26 39.64,27.26 39.73,27.26 39.82,27.26 39.9,27.26 39.99,27.26 39.99,27.17 
	39.9,27.17 39.82,27.17 39.82,27.08 39.82,27 39.9,27 39.9,26.91 39.99,26.91 40.08,26.91 40.16,26.91 40.25,26.91 40.25,27 
	40.25,27.08 40.25,27.17 40.25,27.26 40.25,27.34 40.16,27.34 40.16,27.43 40.25,27.43 40.34,27.43 40.34,27.34 40.43,27.34 
	40.51,27.34 40.51,27.26 40.6,27.26 40.6,27.34 40.6,27.43 40.6,27.52 40.6,27.6 40.69,27.69 40.69,27.78 40.77,27.78 40.77,27.69 
	40.77,27.6 40.77,27.52 40.86,27.52 40.86,27.6 40.95,27.6 41.03,27.6 41.03,27.52 41.12,27.52 41.21,27.52 41.21,27.6 41.21,27.52 
	41.29,27.52 41.29,27.6 41.38,27.6 41.38,27.52 41.38,27.43 41.47,27.43 41.47,27.52 41.47,27.6 41.55,27.6 41.55,27.69 
	41.64,27.69 41.73,27.69 41.73,27.78 41.73,27.87 41.73,27.95 41.73,28.04 41.82,28.04 41.9,28.13 41.99,28.13 42.08,28.13 
	42.08,28.21 42.16,28.21 42.16,28.3 42.25,28.3 42.16,28.3 42.16,28.39 42.16,28.3 42.08,28.3 42.08,28.39 41.99,28.39 41.9,28.39 
	41.82,28.39 41.73,28.39 41.64,28.39 41.64,28.47 41.64,28.56 41.55,28.56 41.55,28.65 41.64,28.65 41.73,28.65 41.73,28.73 
	41.64,28.82 41.64,28.91 41.64,28.99 41.64,29.08 41.73,29.08 41.73,28.99 41.82,28.99 41.82,28.91 41.9,28.99 41.99,28.99 
	41.99,29.08 42.08,29.08 42.08,29.17 42.08,29.26 41.99,29.26 41.99,29.34 41.9,29.34 41.9,29.43 41.9,29.52 41.9,29.6 41.99,29.6 
	42.08,29.52 42.16,29.52 42.25,29.52 42.25,29.6 42.34,29.6 42.42,29.52 42.51,29.52 42.42,29.43 42.42,29.34 42.42,29.26 
	42.51,29.17 42.51,29.08 42.6,29.17 42.68,29.17 42.77,29.17 42.68,29.17 42.68,29.08 42.68,28.99 42.77,28.99 42.77,29.08 
	42.86,29.08 42.86,28.99 42.77,28.99 42.77,28.91 42.77,28.82 42.86,28.82 42.86,28.73 42.94,28.65 42.86,28.56 42.86,28.47 
	42.94,28.47 42.94,28.39 42.94,28.3 43.03,28.3 43.12,28.3 43.12,28.21 43.12,28.13 43.03,28.13 42.94,28.04 42.86,28.04 
	42.86,27.95 42.77,27.95 42.77,27.78 42.68,27.78 42.68,27.87 42.6,27.87 42.6,27.95 42.6,27.87 42.6,27.78 42.68,27.78 
	42.68,27.69 42.68,27.6 42.77,27.6 42.86,27.6 42.94,27.52 42.94,27.43 42.94,27.34 43.03,27.34 43.03,27.26 43.12,27.26 
	43.12,27.17 43.21,27.08 43.21,27 43.29,27 43.38,27 43.38,26.91 43.47,26.91 43.55,26.91 43.55,26.82 43.55,26.74 43.64,26.74 
	43.73,26.65 43.73,26.56 43.73,26.47 43.81,26.47 43.81,26.56 43.9,26.56 43.99,26.56 43.99,26.47 43.99,26.39 44.07,26.39 
	44.16,26.39 44.16,26.3 44.25,26.3 44.33,26.3 44.42,26.3 44.51,26.3 44.6,26.21 44.6,26.13 44.6,26.04 44.51,25.95 44.51,25.87 
	44.51,25.78 44.6,25.78 44.51,25.69 44.51,25.61 44.42,25.61 44.51,25.52 44.51,25.43 44.6,25.43 44.68,25.43 44.77,25.43 
	44.77,25.35 44.77,25.26 44.86,25.26 44.77,25.26 44.77,25.17 44.68,25.17 44.68,25.09 44.6,25.09 44.6,25 44.68,24.91 44.68,24.82 
	44.77,24.82 44.77,24.74 44.77,24.65 44.68,24.56 44.68,24.48 44.77,24.48 44.86,24.48 44.86,24.39 44.94,24.39 44.94,24.3 
	44.86,24.3 44.77,24.3 44.77,24.22 44.68,24.13 44.51,24.22 44.42,24.13 44.33,24.13 44.25,24.13 44.16,24.04 44.07,24.04 
	43.99,24.04 43.9,24.04 43.73,23.96 43.64,23.96 43.55,23.96 43.47,23.87 43.38,23.87 43.29,23.78 43.03,23.78 43.03,23.7 
	42.94,23.61 42.94,23.52 42.94,23.43 42.94,23.35 42.94,23.26 42.94,23.17 42.94,23.09 42.94,23 42.94,22.91 42.94,22.83 
	42.86,22.74 42.86,22.65 42.86,22.57 42.86,22.39 42.86,22.3 42.86,22.22 42.86,22.04 42.77,22.04 42.77,21.96 42.77,21.87 
	42.77,21.78 42.86,21.7 42.94,21.61 42.94,21.52 43.03,21.44 43.03,21.35 43.03,21.26 43.12,21.18 43.12,21.09 43.12,21 
	43.12,20.91 43.12,20.83 43.12,20.74 43.12,20.65 43.12,20.57 43.21,20.48 43.21,20.39 43.29,20.31 43.29,20.22 43.38,20.13 
	43.47,20.05 43.47,19.87 43.47,19.79 43.47,19.7 43.47,19.61 43.47,19.52 43.47,19.35 43.47,19.26 43.47,19.18 43.38,19 
	43.38,18.92 43.38,18.83 43.38,18.74 43.29,18.66 43.29,18.57 43.38,18.57 43.38,18.48 43.38,18.4 43.38,18.31 43.47,18.31 
	43.47,18.22 43.47,18.13 43.47,18.05 43.55,18.05 43.64,18.05 43.73,17.96 43.81,17.96 43.9,17.87 44.07,17.79 44.16,17.79 
	44.33,17.7 44.51,17.61 44.6,17.61 44.77,17.53 44.86,17.44 45.03,17.35 45.12,17.35 45.12,17.27 45.2,17.27 45.29,17.18 
	45.38,17.18 45.46,17.09 45.55,17.01 45.64,17.01 45.72,16.92 45.81,16.83 45.9,16.83 45.99,16.66 45.99,16.57 46.07,16.48 
	46.07,16.4 46.07,16.31 46.16,16.22 46.16,16.14 46.16,16.05 46.16,15.96 46.16,15.79 46.25,15.7 46.25,15.62 46.25,15.53 
	46.25,15.44 46.25,15.35 46.25,15.18 46.25,15.09 46.25,15.01 46.16,15.01 46.16,14.92 46.25,14.92 46.16,14.92 46.16,14.83 
	46.16,14.75 46.16,14.66 46.07,14.66 46.16,14.66 46.16,14.57 46.16,14.49 46.16,14.4 46.16,14.31 46.07,14.23 46.07,14.14 
	46.07,13.96 46.07,13.88 46.07,13.79 46.07,13.7 46.07,13.62 46.07,13.53 46.07,13.44 46.07,13.36 46.07,13.18 46.07,13.1 
	46.07,13.01 46.07,12.92 46.16,12.92 46.16,12.84 46.16,12.75 46.25,12.66 46.33,12.57 46.42,12.4 46.51,12.4 46.51,12.31 
	46.59,12.31 46.59,12.23 46.59,12.14 46.59,12.05 46.59,11.97 46.68,11.97 46.68,11.88 46.68,11.79 46.77,11.79 46.77,11.71 
	46.77,11.62 46.77,11.53 46.85,11.45 46.77,11.45 46.77,11.36 46.85,11.36 46.77,11.36 46.85,11.27 46.85,11.18 46.94,11.18 
	46.94,11.1 46.94,11.01 46.94,10.92 47.03,10.75 47.11,10.75 47.11,10.66 47.2,10.58 47.29,10.49 47.29,10.4 47.2,10.4 47.11,10.4 
	47.03,10.4 46.94,10.49 46.85,10.49 46.77,10.4 46.68,10.4 46.59,10.4 46.51,10.4 46.51,10.32 46.42,10.32 46.42,10.23 46.42,10.14 
	46.42,10.06 46.42,9.97 46.51,9.88 46.51,9.79 46.51,9.62 46.51,9.53 46.51,9.45 46.59,9.36 46.59,9.27 46.59,9.19 46.59,9.1 
	46.68,9.01 46.77,8.93 46.85,8.93 46.94,8.84 47.03,8.84 47.2,8.75 47.46,8.67 47.55,8.58 47.72,8.32 47.81,8.23 47.9,8.14 
	47.98,7.97 48.07,7.88 48.16,7.8 48.16,7.62 48.16,7.54 48.16,7.45 48.16,7.36 48.16,7.28 48.16,7.19 48.16,7.01 48.16,6.93 
	48.16,6.84 48.07,6.67 47.98,6.49 47.98,6.41 47.98,6.32 47.98,6.23 47.98,6.15 47.98,6.06 47.98,5.97 48.07,5.89 48.07,5.8 
	48.07,5.71 47.98,5.62 47.98,5.54 47.9,5.54 47.9,5.36 47.81,5.28 47.81,5.19 47.81,5.1 47.81,5.02 47.81,4.93 47.81,4.84 
	47.81,4.76 47.9,4.67 47.9,4.58 47.9,4.41 47.98,4.32 47.98,4.23 48.07,4.15 48.16,4.06 48.24,4.06 48.24,3.97 48.33,3.97 
	48.33,3.89 48.42,3.8 48.42,3.71 48.51,3.63 48.59,3.54 48.68,3.37 48.77,3.19 48.77,3.11 48.85,3.02 48.85,2.93 48.77,2.84 
	48.77,2.76 48.77,2.67 48.77,2.58 48.85,2.58 48.85,2.5 48.94,2.5 48.94,2.32 48.94,2.24 48.94,2.15 49.03,2.15 49.03,2.06 
	49.03,1.98 49.11,1.98 49.2,1.98 49.2,1.89 49.29,1.8 49.29,1.71 49.29,1.63 49.29,1.54 49.37,1.54 49.37,1.45 49.37,1.37 
	49.46,1.37 49.46,1.28 49.46,1.19 49.46,1.11 49.55,1.11 49.55,1.02 49.63,1.02 49.72,1.02 50.07,1.02 50.24,1.02 50.33,1.02 
	50.42,1.02 50.42,0.93 50.42,0.85 50.5,0.85 50.59,0.85 50.59,0.93 50.68,0.93 50.76,0.93 50.76,1.02 50.85,1.02 50.94,1.11 
	51.02,1.11 51.11,1.11 51.11,1.19 51.2,1.19 51.2,1.28 51.29,1.28 51.37,1.28 51.46,1.37 51.55,1.37 51.63,1.45 51.72,1.45 
	51.81,1.37 51.72,1.37 51.72,1.28 51.81,1.28 51.81,1.19 51.89,1.19 51.98,1.19 52.07,1.19 52.15,1.19 52.24,1.19 52.24,1.11 
	52.33,1.11 52.41,1.11 52.5,1.11 52.59,1.19 52.76,1.28 52.85,1.37 53.02,1.45 53.11,1.54 53.2,1.54 53.2,1.63 53.28,1.71 
	53.37,1.71 53.37,1.8 53.46,1.8 53.54,1.8 53.54,1.71 53.63,1.71 53.63,1.63 53.72,1.63 53.8,1.63 53.98,1.63 54.07,1.63 
	54.15,1.63 54.15,1.71 54.24,1.71 54.24,1.8 54.33,1.8 54.33,1.89 54.41,1.89 54.5,1.89 54.67,1.89 54.76,1.89 54.85,1.89 
	54.85,1.98 54.93,1.98 55.02,2.06 55.11,2.15 55.19,2.15 55.28,2.15 55.37,2.15 55.54,2.24 55.63,2.24 55.72,2.24 55.8,2.32 
	55.89,2.32 55.98,2.41 56.06,2.41 56.24,2.5 56.32,2.5 56.41,2.58 56.5,2.58 56.67,2.67 56.85,2.67 56.85,2.76 57.02,2.76 
	57.11,2.76 57.19,2.84 57.28,2.84 57.37,2.84 57.45,2.93 57.54,2.93 57.63,3.02 57.8,3.02 57.98,3.02 58.06,3.11 58.15,3.11 
	58.24,3.11 58.41,3.19 58.5,3.19 58.58,3.19 58.67,3.19 58.76,3.19 58.84,3.19 58.93,3.28 59.02,3.28 59.19,3.28 59.28,3.28 
	59.45,3.28 59.54,3.28 59.63,3.28 59.89,3.28 59.97,3.28 60.06,3.28 60.23,3.28 60.32,3.28 60.41,3.28 60.49,3.28 60.58,3.28 
	60.76,3.28 60.84,3.28 60.93,3.28 61.02,3.37 61.1,3.37 61.28,3.37 61.36,3.45 61.45,3.45 61.54,3.45 61.62,3.45 61.71,3.54 
	61.8,3.54 61.88,3.54 61.97,3.54 62.06,3.45 62.15,3.45 62.23,3.45 62.32,3.45 62.32,3.54 62.41,3.54 62.49,3.54 62.58,3.63 
	62.67,3.63 62.67,3.71 62.75,3.71 62.84,3.71 62.84,3.8 62.93,3.8 62.93,3.89 62.93,3.97 63.01,3.97 63.1,3.97 63.19,3.97 
	63.27,3.89 63.36,3.89 63.54,3.89 63.62,3.89 63.71,3.89 63.8,3.89 63.97,3.89 64.06,3.89 64.14,3.89 64.23,3.89 64.4,3.89 
	64.49,3.89 64.58,3.89 64.66,3.89 64.84,3.89 64.93,3.89 65.01,3.89 65.1,3.97 65.1,4.06 65.19,4.06 65.27,4.15 65.36,4.23 
	65.53,4.32 65.62,4.32 65.71,4.32 65.79,4.32 65.97,4.32 66.05,4.32 66.14,4.32 66.23,4.32 66.32,4.32 66.4,4.32 66.49,4.32 
	66.58,4.41 66.75,4.41 66.84,4.41 67.01,4.41 67.1,4.41 67.18,4.41 67.27,4.41 67.36,4.49 67.53,4.49 67.71,4.49 67.79,4.49 
	67.88,4.49 67.97,4.58 68.05,4.58 68.14,4.67 68.23,4.67 68.23,4.76 68.31,4.84 68.4,4.93 68.49,4.93 68.49,5.02 68.49,5.1 
	68.49,5.19 68.57,5.28 68.57,5.45 68.66,5.62 68.57,5.71 68.57,5.8 68.4,5.97 68.31,5.97 68.14,6.06 67.97,5.97 67.79,5.97 
	67.62,5.97 67.44,5.89 67.36,5.89 67.1,5.8 67.01,5.8 66.92,5.8 66.84,5.89 66.75,5.97 66.58,6.06 66.4,6.06 66.23,6.15 66.23,6.23 
	66.14,6.32 66.14,6.41 66.14,6.49 66.14,6.58 66.14,6.67 66.05,6.75 65.97,6.84 65.88,6.93 65.79,6.93 65.79,7.01 65.71,7.19 
	65.62,7.45 65.53,7.71 65.45,7.8 65.45,7.88 65.27,7.97 65.19,8.06 65.1,8.14 65.01,8.23 65.01,8.32 64.93,8.32 64.93,8.4 
	64.93,8.49 64.84,8.67 64.84,8.84 64.84,8.93 64.75,9.01 64.66,9.19 64.66,9.27 64.66,9.36 64.58,9.45 64.66,9.71 64.66,9.79 
	64.75,9.97 64.84,9.97 64.93,10.06 65.01,10.06 65.1,10.14 65.19,10.32 65.27,10.32 65.27,10.4 65.27,10.49 65.27,10.58 
	65.36,10.66 65.36,10.75 65.45,10.92 65.53,11.01 65.62,11.18 65.71,11.27 65.71,11.45 65.79,11.53 65.88,11.62 65.88,11.71 
	65.88,11.79 65.97,11.88 65.97,11.97 66.05,12.05 66.05,12.14 66.14,12.23 66.14,12.31 66.14,12.49 66.23,12.66 66.32,12.75 
	66.4,12.84 66.4,12.92 66.49,13.01 66.49,13.1 66.58,13.18 66.66,13.36 66.75,13.44 66.75,13.53 66.84,13.53 66.92,13.62 
	66.92,13.7 66.92,13.79 67.01,13.88 67.1,13.96 67.1,14.14 67.1,14.31 67.1,14.4 67.1,14.49 67.1,14.66 67.18,14.75 67.18,14.92 
	67.18,15.01 67.18,15.09 67.27,15.27 67.36,15.35 67.44,15.44 67.44,15.53 67.62,15.62 67.62,15.7 67.71,15.7 67.71,15.79 
	67.79,15.79 67.88,15.79 67.97,15.79 67.97,15.7 68.05,15.79 68.14,15.79 68.23,15.79 68.31,15.79 68.4,15.88 68.49,15.88 
	68.57,15.96 68.66,15.96 68.66,16.05 68.66,16.14 68.66,16.22 68.66,16.4 68.66,16.48 68.66,16.57 68.66,16.66 68.66,16.74 
	68.66,16.83 68.75,16.83 68.75,16.92 68.84,17.01 68.92,17.09 69.01,17.18 69.1,17.27 69.1,17.35 69.18,17.44 69.27,17.53 
	69.27,17.61 69.36,17.7 69.44,17.79 69.53,17.79 69.62,17.79 69.7,17.79 69.79,17.79 69.88,17.87 70.14,17.96 70.23,17.96 
	70.31,17.96 70.4,18.05 70.49,18.05 70.57,18.13 70.75,18.13 70.83,18.13 70.92,18.13 71.01,18.22 71.09,18.13 71.18,18.05 
	71.27,17.96 71.27,17.87 71.35,17.87 71.44,17.79 71.53,17.7 71.62,17.7 71.7,17.61 71.79,17.61 71.88,17.53 71.88,17.44 
	71.96,17.44 72.05,17.35 72.14,17.35 72.22,17.18 72.31,17.18 72.4,17.09 72.57,17.01 72.66,17.01 72.74,17.01 72.83,17.01 
	72.92,17.01 73.01,17.01 73.09,17.09 73.18,17.09 73.27,17.18 73.27,17.27 73.35,17.35 73.35,17.44 73.44,17.53 73.53,17.53 
	73.61,17.53 73.7,17.53 73.79,17.53 73.87,17.61 73.96,17.61 74.05,17.79 74.13,17.79 74.22,17.87 74.31,17.96 74.4,17.96 
	74.48,17.96 74.57,17.87 74.74,17.87 74.83,17.87 74.92,17.79 75,17.79 75.09,17.79 75.18,17.79 75.26,17.79 75.35,17.87 
	75.44,17.96 75.52,18.05 75.52,18.13 75.52,18.22 75.61,18.31 75.61,18.4 75.7,18.4 75.79,18.48 75.87,18.48 76.05,18.48 
	76.13,18.57 76.31,18.57 76.39,18.57 76.39,18.66 76.48,18.66 76.57,18.66 76.65,18.74 76.74,18.74 76.83,18.83 76.92,18.83 
	77,18.83 77.09,18.92 77.18,18.92 77.26,18.92 77.35,19 77.44,19.09 77.52,19.09 77.61,19.18 77.7,19.18 77.7,19.26 77.78,19.35 
	77.78,19.44 77.78,19.52 77.87,19.61 77.87,19.7 77.87,19.79 77.87,19.96 77.96,20.05 77.96,20.13 78.04,20.31 78.04,20.39 
	78.04,20.48 78.13,20.57 78.22,20.65 78.22,20.74 78.3,20.83 78.39,20.91 78.48,21 78.57,21 78.65,21.09 78.74,21.18 78.83,21.26 
	78.91,21.26 78.91,21.35 79,21.44 79,21.52 79.09,21.61 79.17,21.61 79.17,21.7 79.26,21.78 79.26,21.87 79.35,21.96 79.43,22.04 
	79.43,22.13 79.43,22.22 79.52,22.3 79.52,22.39 79.52,22.48 79.52,22.57 79.52,22.65 79.61,22.74 79.61,22.83 79.61,23 
	79.61,23.09 79.61,23.17 79.52,23.26 79.52,23.35 79.52,23.43 79.61,23.52 79.61,23.61 79.61,23.7 79.61,23.78 79.52,23.87 
	79.52,23.96 79.43,24.04 79.43,24.13 79.43,24.22 79.43,24.3 79.35,24.39 79.35,24.48 79.35,24.56 79.35,24.65 79.26,24.74 
	79.26,24.82 79.26,24.91 79.26,25 79.26,25.09 79.26,25.17 79.26,25.26 79.17,25.35 79.17,25.43 79.17,25.52 79.17,25.61 
	79.17,25.69 79.26,25.78 79.26,25.87 79.26,25.95 79.26,26.04 79.26,26.13 79.26,26.21 79.26,26.3 79.26,26.39 79.26,26.47 
	79.17,26.56 79.17,26.65 79.17,26.74 79.17,26.82 79.17,26.91 79.17,27 79.17,27.08 79.09,27.17 79.09,27.26 79.09,27.34 79,27.43 
	79,27.52 78.91,27.52 78.83,27.6 78.65,27.78 78.57,27.87 78.39,27.95 78.39,28.04 78.3,28.13 78.3,28.21 78.3,28.3 78.3,28.39 
	78.3,28.47 78.22,28.47 78.22,28.56 78.13,28.65 78.13,28.73 78.13,28.82 78.13,28.91 78.04,28.99 77.96,29.17 77.96,29.26 
	77.87,29.34 77.87,29.43 77.78,29.52 77.78,29.6 77.7,29.69 77.7,29.78 77.61,29.86 77.61,29.95 77.61,30.04 77.61,30.12 
	77.61,30.21 77.7,30.3 77.7,30.38 77.78,30.56 77.87,30.65 77.87,30.82 77.96,30.91 77.96,30.99 78.04,31.17 78.04,31.25 
	78.13,31.43 78.13,31.51 78.13,31.6 78.13,31.77 78.13,31.95 78.04,32.04 78.04,32.12 77.96,32.21 77.96,32.3 77.96,32.38 
	77.96,32.56 77.87,32.56 77.87,32.64 77.87,32.73 77.87,32.82 77.96,32.82 77.96,32.9 77.96,32.99 77.96,33.08 77.96,33.16 
	77.96,33.25 77.96,33.43 77.87,33.51 77.87,33.6 77.87,33.69 77.87,33.77 77.78,33.95 77.78,34.03 77.78,34.12 77.7,34.21 
	77.7,34.29 77.61,34.38 77.61,34.47 77.52,34.55 77.52,34.64 77.44,34.73 77.35,34.82 77.35,34.9 77.26,34.99 77.18,34.99 
	77.18,35.08 77.09,35.16 77,35.25 76.92,35.25 76.83,35.34 76.74,35.42 76.65,35.42 76.57,35.51 76.48,35.51 76.39,35.6 76.31,35.6 
	76.31,35.68 76.22,35.68 76.13,35.68 76.05,35.68 75.96,35.68 75.87,35.77 75.79,35.77 75.7,35.86 75.61,35.86 75.52,35.86 
	75.52,35.94 75.44,35.94 75.35,35.94 75.35,36.03 75.26,36.03 75.18,36.03 75.09,36.03 75,36.03 74.92,36.03 74.83,36.03 
	74.74,36.03 74.66,36.03 74.57,36.03 74.48,36.03 74.31,36.03 74.22,36.03 74.13,36.12 74.05,36.12 73.96,36.12 73.87,36.12 
	73.79,36.21 73.7,36.21 73.61,36.21 73.53,36.21 73.44,36.29 73.27,36.29 73.01,36.38 72.92,36.38 72.92,36.47 72.83,36.47 
	72.74,36.55 72.66,36.64 72.66,36.73 72.57,36.81 72.57,36.9 72.48,36.99 72.4,37.07 72.31,37.07 72.22,37.16 72.14,37.25 
	72.05,37.33 72.05,37.42 72.05,37.51 71.96,37.6 71.96,37.68 71.88,37.77 71.88,37.86 71.79,37.94 71.79,38.03 71.7,38.12 
	71.7,38.2 71.7,38.29 71.7,38.38 71.7,38.46 71.7,38.55 71.79,38.64 71.79,38.72 71.88,38.81 71.88,38.9 71.96,38.99 72.05,39.07 
	72.14,39.07 72.22,39.16 72.31,39.16 72.48,39.25 72.57,39.25 72.66,39.33 72.74,39.42 72.83,39.42 72.92,39.51 73.01,39.59 
	73.09,39.68 73.18,39.77 73.27,39.77 73.35,39.77 73.44,39.77 73.44,39.85 73.44,39.94 73.53,40.03 73.61,40.03 73.61,39.94 
	73.7,39.94 73.79,39.94 73.87,39.94 73.96,39.85 74.05,39.85 74.05,39.77 74.13,39.77 74.22,39.68 74.31,39.68 74.4,39.68 
	74.48,39.68 74.57,39.59 74.66,39.59 74.74,39.59 74.83,39.59 74.92,39.59 75,39.51 75.18,39.51 75.26,39.51 75.35,39.51 
	75.52,39.51 75.61,39.51 75.7,39.59 75.79,39.59 75.87,39.59 75.96,39.59 76.05,39.59 76.13,39.59 76.22,39.59 76.31,39.51 
	76.39,39.51 76.48,39.51 76.65,39.42 76.74,39.33 76.83,39.33 76.92,39.25 77,39.25 77,39.33 77.09,39.33 77.09,39.42 77.09,39.51 
	77.09,39.59 77.18,39.59 77.18,39.68 77.26,39.68 77.35,39.77 77.44,39.77 77.52,39.85 77.52,39.94 77.52,40.03 77.44,40.03 
	77.52,40.11 77.44,40.11 77.44,40.2 77.44,40.29 77.44,40.38 77.44,40.46 77.44,40.55 77.52,40.64 77.52,40.72 77.52,40.81 
	77.52,40.9 77.52,40.98 77.61,40.98 77.61,41.07 77.61,41.16 77.61,41.24 77.61,41.33 77.7,41.33 77.7,41.42 77.7,41.5 77.78,41.5 
	77.78,41.59 77.87,41.68 77.87,41.77 77.96,41.77 77.96,41.85 77.96,41.94 77.96,42.03 77.87,42.11 77.87,42.2 77.78,42.29 
	77.7,42.37 77.7,42.46 77.61,42.46 77.61,42.55 77.52,42.63 77.52,42.72 77.44,42.72 77.35,42.72 77.35,42.81 77.26,42.81 
	77.18,42.81 77.09,42.81 77.09,42.72 77,42.72 76.92,42.72 76.83,42.72 76.74,42.72 76.74,42.63 76.65,42.63 76.57,42.63 
	76.48,42.63 76.39,42.63 76.31,42.72 76.22,42.81 76.13,42.9 76.13,42.98 76.13,43.07 76.22,43.16 76.31,43.24 76.22,43.24 
	76.22,43.33 76.22,43.24 76.13,43.24 76.13,43.16 76.05,43.16 75.96,43.16 75.87,43.07 75.79,43.07 75.7,43.07 75.61,43.07 
	75.52,43.07 75.44,43.16 75.35,43.24 75.26,43.33 75.18,43.42 75.18,43.5 75.09,43.59 75,43.59 75,43.68 74.92,43.76 74.92,43.85 
	74.83,43.85 74.74,44.02 74.66,44.11 74.66,44.2 74.57,44.2 74.57,44.28 74.48,44.28 74.48,44.37 74.48,44.46 74.4,44.55 
	74.4,44.63 74.31,44.63 74.31,44.72 74.31,44.81 74.31,44.89 74.22,44.89 74.22,44.98 74.13,44.98 74.05,44.98 74.05,45.07 
	74.05,45.15 73.96,45.15 73.96,45.24 73.96,45.33 73.87,45.33 73.79,45.33 73.7,45.33 73.7,45.41 73.61,45.41 73.53,45.5 
	73.44,45.5 73.44,45.59 73.35,45.59 73.27,45.68 73.18,45.68 73.18,45.76 73.18,45.85 73.18,45.94 73.09,45.94 73.09,46.02 
	73.09,46.11 73.18,46.11 73.27,46.11 73.27,46.2 73.27,46.28 73.27,46.37 73.18,46.37 73.18,46.28 73.09,46.28 73.09,46.2 
	73.01,46.2 73.01,46.28 72.92,46.28 72.92,46.37 72.92,46.46 72.83,46.46 72.83,46.54 72.74,46.54 72.66,46.54 72.57,46.63 
	72.57,46.72 72.48,46.72 72.48,46.8 72.48,46.89 72.4,46.89 72.4,46.98 72.31,46.98 72.31,47.07 72.22,47.07 72.31,47.15 
	72.4,47.24 72.4,47.33 72.48,47.41 72.48,47.5 72.48,47.59 72.4,47.59 72.31,47.59 72.22,47.59 72.14,47.67 72.14,47.76 
	72.14,47.85 72.05,47.93 72.05,48.02 72.05,48.11 72.14,48.11 72.14,48.19 72.22,48.19 72.31,48.19 72.4,48.19 72.4,48.28 
	72.48,48.28 72.57,48.28 72.66,48.37 72.74,48.37 72.83,48.37 72.92,48.46 72.83,48.46 72.74,48.54 72.74,48.63 72.74,48.72 
	72.66,48.72 72.57,48.8 72.57,48.89 72.57,48.98 72.48,48.98 72.48,49.06 72.4,49.06 72.31,49.15 72.22,49.15 72.14,49.24 
	72.05,49.24 72.05,49.32 71.96,49.32 72.05,49.41 72.05,49.5 72.05,49.58 72.05,49.67 72.05,49.76 71.96,49.76 71.96,49.85 
	71.88,49.85 71.88,49.93 71.79,50.02 71.79,50.11 71.7,50.19 71.7,50.28 71.79,50.28 71.79,50.37 71.88,50.37 71.96,50.45 
	71.96,50.54 72.05,50.63 72.05,50.71 72.05,50.8 72.14,50.89 72.14,50.97 72.22,50.97 72.22,51.06 72.31,51.06 72.31,51.15 
	72.4,51.15 72.48,51.24 72.57,51.24 72.66,51.32 72.74,51.41 72.83,51.41 72.92,51.41 73.01,51.41 73.09,51.41 73.18,51.32 
	73.27,51.32 73.35,51.32 73.44,51.32 73.53,51.32 73.61,51.41 73.79,51.5 73.87,51.5 73.96,51.58 74.05,51.58 74.13,51.58 
	74.22,51.67 74.31,51.67 74.4,51.67 74.4,51.76 74.48,51.76 74.48,51.84 74.4,51.93 74.4,52.02 74.4,52.1 74.4,52.19 74.4,52.28 
	74.4,52.36 74.4,52.45 74.4,52.54 74.4,52.63 74.4,52.71 74.4,52.8 74.4,52.89 74.48,52.89 74.48,52.8 74.57,52.8 74.66,52.8 
	74.74,52.8 74.83,52.8 74.92,52.8 75,52.89 75.09,52.89 75.18,52.8 75.26,52.8 75.26,52.71 75.35,52.71 75.44,52.71 75.52,52.8 
	75.61,52.8 75.61,52.71 75.61,52.63 75.61,52.54 75.7,52.54 75.79,52.54 75.87,52.54 75.96,52.54 75.96,52.63 76.05,52.71 
	76.13,52.8 76.13,52.71 76.22,52.71 76.31,52.71 76.39,52.71 76.39,52.8 76.39,52.89 76.39,52.97 76.48,52.97 76.48,53.06 
	76.48,53.15 76.48,53.23 76.39,53.23 76.39,53.32 76.39,53.41 76.39,53.49 76.31,53.49 76.31,53.58 76.31,53.67 76.22,53.67 
	76.13,53.67 76.05,53.75 76.05,53.84 76.13,53.84 76.05,53.93 76.05,54.02 76.05,54.1 76.13,54.1 76.13,54.19 76.22,54.19 
	76.22,54.28 76.31,54.36 76.31,54.45 76.39,54.45 76.48,54.54 76.57,54.54 76.65,54.54 76.74,54.45 76.83,54.45 76.92,54.45 
	77,54.54 77,54.62 77,54.71 77,54.8 77.09,54.8 77.18,54.8 77.26,54.88 77.35,54.88 77.35,54.97 77.44,54.97 77.44,55.06 
	77.44,55.14 77.44,55.23 77.44,55.32 77.44,55.41 77.44,55.49 77.44,55.58 77.44,55.67 77.44,55.75 77.44,55.84 77.44,55.93 
	77.52,56.01 77.52,56.1 77.61,56.1 77.7,56.1 77.78,56.1 77.87,56.01 77.96,56.01 78.13,56.1 78.3,56.19 78.39,56.19 78.57,56.19 
	78.65,56.19 78.74,56.19 78.83,56.19 78.91,56.27 79,56.27 79.09,56.27 79.17,56.36 79.26,56.36 79.26,56.45 79.35,56.53 
	79.35,56.62 79.43,56.62 79.43,56.71 79.52,56.8 79.61,56.8 79.7,56.88 79.78,56.97 79.78,57.06 79.87,57.06 79.87,57.14 
	79.96,57.14 80.04,57.14 79.96,57.23 79.87,57.23 79.78,57.32 79.7,57.32 79.61,57.32 79.52,57.32 79.43,57.32 79.35,57.32 
	79.35,57.4 79.26,57.4 79.17,57.4 79.09,57.4 79.09,57.49 79.09,57.58 79.09,57.66 79,57.75 78.91,57.75 78.83,57.75 78.74,57.75 
	78.74,57.84 78.65,57.84 78.57,57.84 78.57,57.92 78.57,58.01 78.48,58.1 78.48,58.19 78.48,58.27 78.39,58.27 78.39,58.36 
	78.3,58.45 78.3,58.53 78.22,58.53 78.22,58.62 78.13,58.71 78.04,58.71 78.04,58.79 78.04,58.88 78.04,58.97 77.96,58.97 
	77.87,58.88 77.87,58.79 77.78,58.79 77.7,58.79 77.7,58.71 77.61,58.71 77.52,58.71 77.52,58.62 77.44,58.62 77.44,58.53 
	77.35,58.53 77.35,58.45 77.35,58.36 77.26,58.36 77.26,58.27 77.18,58.27 77.09,58.27 77.09,58.36 77,58.36 76.92,58.36 
	76.83,58.36 76.83,58.27 76.74,58.27 76.65,58.27 76.57,58.36 76.48,58.45 76.48,58.53 76.48,58.62 76.48,58.71 76.48,58.79 
	76.57,58.88 76.57,58.97 76.48,59.05 76.48,59.14 76.39,59.23 76.39,59.31 76.31,59.4 76.31,59.49 76.31,59.58 76.31,59.66 
	76.22,59.75 76.22,59.84 76.31,59.84 76.39,59.84 76.39,59.92 76.48,59.92 76.57,59.92 76.65,59.84 76.74,59.84 76.83,59.84 
	76.83,59.92 76.83,60.01 76.92,60.01 76.92,60.1 77,60.18 77,60.27 77.09,60.36 77.09,60.44 77.09,60.53 77.18,60.53 77.26,60.62 
	77.26,60.7 77.35,60.7 77.44,60.79 77.52,60.88 77.52,60.97 77.61,60.97 77.7,61.05 77.7,61.14 77.78,61.23 77.78,61.31 77.78,61.4 
	77.87,61.4 77.87,61.49 77.87,61.57 77.87,61.66 77.87,61.83 77.87,61.92 77.96,61.92 77.96,62.01 77.96,62.09 77.96,62.18 
	77.87,62.18 77.87,62.09 77.7,62.09 77.61,62.09 77.52,62.09 77.52,62.01 77.44,62.09 77.35,62.09 77.26,62.09 77.26,62.18 
	77.18,62.18 77.09,62.18 77,62.27 76.92,62.36 76.83,62.36 76.74,62.36 76.65,62.36 76.57,62.36 76.48,62.36 76.39,62.44 
	76.39,62.53 76.39,62.62 76.31,62.62 76.22,62.7 76.13,62.79 76.13,62.88 76.13,62.96 76.13,63.05 76.22,63.14 76.31,63.14 
	76.31,63.22 76.39,63.31 76.39,63.4 76.48,63.49 76.48,63.57 76.48,63.66 76.57,63.75 76.57,63.83 76.57,63.92 76.65,63.92 
	76.74,63.92 76.83,63.92 76.92,64.01 77,64.01 77,64.09 77,64.18 76.92,64.18 76.83,64.18 76.83,64.27 76.74,64.35 76.74,64.44 
	76.65,64.44 76.57,64.44 76.48,64.53 76.39,64.61 76.31,64.61 76.22,64.7 76.13,64.79 76.13,64.87 76.05,64.96 75.96,65.14 
	75.96,65.22 75.87,65.22 75.87,65.14 75.79,65.14 75.7,65.14 75.61,65.14 75.52,65.14 75.44,65.14 75.44,65.05 75.35,65.05 
	75.26,65.05 75.26,64.96 75.18,64.96 75.09,64.96 75.09,65.05 75,65.05 75,65.14 75,65.22 75,65.31 75,65.57 75,65.66 75,65.74 
	74.92,65.74 74.92,65.83 74.92,65.92 74.83,66 74.83,66.09 74.74,66.09 74.74,66.18 74.66,66.27 74.66,66.35 74.74,66.35 
	74.83,66.44 74.92,66.44 75,66.44 75.09,66.44 75.09,66.53 75.09,66.61 75,66.61 74.92,66.61 74.92,66.7 74.92,66.79 75,66.79 
	75.09,66.79 75.09,66.87 75.18,66.87 75.26,66.96 75.35,66.96 75.35,67.05 75.35,67.13 75.35,67.22 75.26,67.22 75.18,67.31 
	75.18,67.39 75.09,67.39 75,67.48 74.92,67.48 74.92,67.57 74.83,67.57 74.83,67.66 74.83,67.74 74.83,67.83 74.83,67.92 74.83,68 
	74.83,68.09 74.92,68.09 75,68.09 75.09,68.18 75,68.18 75,68.26 74.92,68.35 74.92,68.44 74.83,68.44 74.83,68.52 74.83,68.61 
	74.92,68.7 75,68.78 75.09,68.78 75.18,68.78 75.26,68.87 75.35,68.96 75.35,69.05 75.44,69.05 75.52,69.13 75.61,69.22 75.7,69.22 
	75.79,69.31 75.87,69.31 75.96,69.31 75.96,69.22 76.05,69.22 76.13,69.22 76.22,69.22 76.31,69.22 76.31,69.31 76.39,69.31 
	76.39,69.39 76.39,69.48 76.48,69.57 76.48,69.65 76.48,69.74 76.39,69.74 76.31,69.65 76.13,69.65 76.05,69.65 76.05,69.74 
	75.96,69.74 75.87,69.74 75.79,69.74 75.7,69.74 75.61,69.74 75.52,69.83 75.44,69.83 75.35,69.83 75.26,69.91 75.18,69.91 
	75.18,70 75.26,70.09 75.26,70.17 75.35,70.26 75.35,70.35 75.26,70.44 75.26,70.52 75.26,70.61 75.26,70.7 75.35,70.7 75.44,70.78 
	75.44,70.87 75.44,70.96 75.52,71.13 75.44,71.13 75.44,71.22 75.44,71.3 75.35,71.3 75.26,71.3 75.18,71.3 75.09,71.39 75,71.48 
	75,71.56 75,71.65 75.09,71.74 75.18,71.83 75.26,71.83 75.26,71.91 75.35,71.91 75.35,72 75.44,72 75.44,72.09 75.52,72.17 
	75.52,72.26 75.61,72.26 75.61,72.35 75.61,72.43 75.52,72.43 75.52,72.52 75.44,72.61 75.35,72.69 75.35,72.78 75.26,72.78 
	75.18,72.87 75.18,72.95 75.09,73.04 75.09,73.13 75.18,73.13 75.18,73.22 75.18,73.3 75.09,73.3 75.09,73.39 75.18,73.48 
	75.26,73.56 75.26,73.65 75.18,73.74 75.26,73.74 75.26,73.82 75.35,73.82 75.44,73.91 75.52,73.91 75.61,73.91 75.7,74 
	75.79,74.08 75.79,74.17 75.87,74.26 75.87,74.34 75.87,74.43 75.79,74.43 75.7,74.52 75.61,74.61 75.61,74.69 75.61,74.78 
	75.7,74.78 75.7,74.87 75.79,74.95 75.79,75.04 75.87,75.13 75.87,75.21 75.96,75.21 76.05,75.21 76.13,75.21 76.22,75.21 
	76.39,75.3 76.48,75.3 76.48,75.39 76.39,75.47 76.31,75.47 76.31,75.56 76.22,75.65 76.22,75.73 76.13,75.73 76.05,75.82 
	75.96,75.82 75.96,75.91 75.87,75.91 75.87,76 75.87,76.08 75.87,76.34 75.87,76.52 75.87,76.6 75.87,76.69 75.96,76.69 
	75.96,76.78 76.05,76.78 76.13,76.78 76.22,76.78 76.22,76.86 76.31,76.95 76.31,77.04 76.31,77.12 76.39,77.21 76.31,77.3 
	76.31,77.39 76.22,77.39 76.22,77.47 76.13,77.47 76.13,77.56 76.05,77.56 76.05,77.65 75.96,77.65 75.96,77.73 75.87,77.73 
	75.87,77.82 75.87,77.91 75.96,77.99 75.96,78.08 76.05,78.17 76.05,78.25 76.13,78.43 76.22,78.43 76.22,78.51 76.13,78.51 
	76.22,78.6 76.13,78.6 76.13,78.69 76.13,78.78 76.05,78.78 75.96,78.78 75.87,78.78 75.79,78.78 75.7,78.78 75.7,78.86 75.7,78.95 
	75.61,78.95 75.7,79.04 75.7,79.12 75.7,79.21 75.7,79.3 75.7,79.38 75.79,79.47 75.79,79.56 75.79,79.64 75.7,79.56 75.61,79.56 
	75.52,79.47 75.44,79.47 75.35,79.47 75.35,79.56 75.26,79.56 75.26,79.64 75.26,79.73 75.26,79.82 75.18,79.82 75.18,79.9 
	75.09,79.9 75.09,79.99 75,80.08 75,80.17 74.92,80.25 74.92,80.34 74.83,80.34 74.74,80.34 74.66,80.43 74.57,80.43 74.57,80.51 
	74.57,80.6 74.57,80.69 74.57,80.77 74.57,80.86 74.48,80.86 74.4,80.86 74.31,80.86 74.31,80.95 74.22,80.95 74.22,81.03 
	74.13,81.03 74.05,81.03 73.96,81.03 73.87,81.12 73.79,81.12 73.79,81.21 73.7,81.21 73.7,81.3 73.61,81.21 73.61,81.3 
	73.61,81.38 73.7,81.38 73.79,81.38 73.79,81.47 73.96,81.47 73.96,81.56 73.79,81.64 73.79,81.73 73.7,81.82 73.61,81.82 
	73.53,81.9 73.61,81.99 73.53,82.08 73.53,82.16 73.53,82.25 73.44,82.42 73.35,82.51 73.27,82.51 73.27,82.6 73.27,82.68 
	73.18,82.86 73.09,83.03 73.09,83.12 73.01,83.12 72.92,83.21 72.83,83.21 72.74,83.29 72.66,83.29 72.57,83.38 72.57,83.47 
	72.48,83.55 72.48,83.64 72.48,83.73 72.48,83.81 72.4,83.9 72.4,83.99 72.31,83.99 72.22,83.99 72.14,83.99 72.14,84.08 
	72.14,84.16 72.14,84.25 72.05,84.25 71.96,84.34 71.88,84.51 71.88,84.6 71.79,84.77 71.79,84.86 71.79,84.94 71.79,85.03 
	71.79,85.12 71.79,85.2 71.7,85.2 71.7,85.29 71.62,85.29 71.53,85.29 71.44,85.29 71.35,85.29 71.35,85.38 71.27,85.38 
	71.27,85.47 71.18,85.47 71.18,85.55 71.18,85.64 71.18,85.73 71.18,85.81 71.18,85.9 71.09,85.9 71.01,85.9 70.92,85.9 
	70.83,85.81 70.83,85.73 70.83,85.64 70.75,85.64 70.57,85.55 70.49,85.47 70.49,85.38 70.4,85.38 70.4,85.29 70.31,85.29 
	70.23,85.2 70.14,85.2 70.05,85.29 70.05,85.38 70.05,85.47 70.05,85.55 69.96,85.55 69.96,85.64 69.88,85.64 69.88,85.73 
	69.88,85.81 69.88,85.9 69.96,85.9 69.96,85.99 69.88,85.99 69.88,86.07 69.79,86.16 69.79,86.25 69.7,86.33 69.53,86.33 
	69.53,86.42 69.44,86.42 69.36,86.42 69.27,86.42 69.27,86.33 69.18,86.33 69.18,86.25 69.1,86.25 69.1,86.33 69.1,86.42 
	69.1,86.59 69.1,86.68 69.1,86.77 69.1,86.86 69.1,86.94 69.01,86.94 69.01,86.86 68.92,86.77 68.84,86.77 68.75,86.77 68.75,86.86 
	68.66,86.86 68.57,86.86 68.49,86.86 68.4,86.86 68.31,86.86 68.23,86.94 68.23,87.03 68.14,87.03 68.14,87.12 68.05,87.2 
	67.97,87.29 67.88,87.38 67.79,87.38 67.79,87.46 67.71,87.46 67.62,87.46 67.53,87.46 67.44,87.46 67.36,87.46 67.27,87.46 
	67.1,87.55 67.01,87.55 66.92,87.64 66.84,87.64 66.84,87.55 66.75,87.55 66.75,87.46 66.66,87.46 66.58,87.29 66.49,87.2 
	66.4,87.2 66.23,87.12 66.14,87.03 65.97,86.94 65.88,86.94 65.79,87.03 65.71,87.03 65.71,87.12 65.71,87.2 65.62,87.29 
	65.53,87.38 65.45,87.46 65.45,87.55 65.36,87.55 65.36,87.64 65.36,87.72 65.27,87.72 65.27,87.81 65.19,87.9 65.19,87.98 
	65.19,88.07 65.1,88.07 65.1,88.16 65.1,88.25 65.1,88.33 65.01,88.33 65.01,88.42 65.01,88.51 65.01,88.59 64.93,88.59 
	64.84,88.59 64.75,88.51 64.66,88.51 64.58,88.51 64.49,88.51 64.4,88.51 64.4,88.59 64.32,88.68 64.23,88.68 64.14,88.68 
	64.06,88.68 63.97,88.68 63.97,88.77 63.97,89.03 63.97,89.11 63.97,89.2 63.97,89.29 63.88,89.29 63.8,89.29 63.71,89.29 
	63.62,89.29 63.54,89.2 63.45,89.2 63.45,89.11 63.36,89.11 63.36,89.03 63.27,89.03 63.19,88.94 63.1,88.94 63.01,88.94 
	63.01,88.85 62.93,88.85 62.84,88.85 62.67,88.85 62.49,88.94 62.41,89.03 62.32,89.11 62.23,89.2 62.15,89.29 62.06,89.29 
	62.06,89.37 61.97,89.46 61.88,89.55 61.71,89.55 61.62,89.55 61.62,89.64 61.62,89.72 61.54,89.81 61.54,89.9 61.62,90.07 
	61.62,90.16 61.54,90.24 61.45,90.33 61.36,90.33 61.28,90.42 61.19,90.42 61.19,90.33 61.1,90.33 61.02,90.24 60.93,90.24 
	60.84,90.24 60.84,90.33 60.76,90.33 60.67,90.16 60.58,90.07 60.49,89.98 60.41,89.9 60.32,89.9 60.23,89.9 60.15,89.9 
	60.06,89.81 59.97,89.81 59.8,89.72 59.71,89.64 59.63,89.72 59.54,89.72 59.45,89.81 59.36,89.9 59.28,89.98 59.1,90.07 
	59.02,90.07 58.93,89.98 58.84,89.98 58.76,89.9 58.67,89.9 58.58,89.98 58.58,90.07 58.5,90.16 58.5,90.24 58.41,90.33 
	58.41,90.42 58.41,90.5 58.32,90.59 58.24,90.68 58.24,90.76 58.32,90.76 58.32,90.94 58.41,90.94 58.5,91.03 58.58,91.03 
	58.67,91.03 58.76,91.11 58.76,91.2 58.84,91.29 58.84,91.37 58.76,91.46 58.76,91.55 58.76,91.63 58.58,91.72 58.5,91.72 
	58.5,91.81 58.5,91.98 58.41,91.98 58.41,92.07 58.24,92.07 58.15,92.07 58.06,92.07 58.06,92.15 57.98,92.24 57.98,92.33 
	57.98,92.42 57.98,92.5 57.98,92.59 57.98,92.76 57.89,92.76 57.8,92.85 57.71,92.85 57.63,92.85 57.54,92.94 57.54,93.11 
	57.54,93.2 57.54,93.28 57.54,93.37 57.54,93.46 57.54,93.54 57.63,93.63 57.71,93.72 57.71,93.81 57.63,93.89 57.54,93.89 
	57.45,93.98 57.37,93.98 57.37,94.07 57.28,94.07 57.19,94.15 57.19,94.24 57.28,94.24 57.37,94.24 57.45,94.33 57.54,94.33 
	57.63,94.33 57.71,94.33 57.71,94.41 57.71,94.5 57.71,94.59 57.45,95.02 57.37,95.11 57.37,95.2 57.28,95.28 57.19,95.28 
	57.19,95.37 57.11,95.46 57.02,95.46 56.93,95.54 56.85,95.63 56.76,95.63 56.67,95.72 56.67,95.8 56.58,95.89 56.5,95.98 
	56.41,96.06 56.24,96.06 56.15,96.06 56.15,96.15 55.98,96.15 55.89,96.15 55.8,96.24 55.8,96.32 55.72,96.41 55.63,96.5 
	55.63,96.59 55.54,96.59 55.46,96.67 55.37,96.67 55.28,96.67 55.19,96.67 55.11,96.59 55.02,96.59 54.93,96.59 54.85,96.59 
	54.76,96.59 54.67,96.67 54.59,96.67 54.5,96.76 54.41,96.85 54.24,96.85 54.15,96.85 54.15,96.76 54.07,96.76 53.98,96.67 
	53.89,96.67 53.8,96.67 53.72,96.67 53.63,96.67 53.54,96.67 53.46,96.67 53.37,96.67 53.2,96.67 53.11,96.67 53.02,96.67 
	52.94,96.67 52.85,96.67 52.76,96.67 52.68,96.67 52.59,96.67 52.59,96.59 52.5,96.5 52.5,96.41 52.5,96.32 52.41,96.32 
	52.41,96.24 52.41,96.15 52.41,96.06 52.33,95.98 52.24,95.98 52.15,95.98 52.07,95.89 51.98,95.89 51.89,95.8 51.81,95.8 
	51.81,95.72 51.72,95.72 51.63,95.63 51.63,95.54 51.55,95.54 51.46,95.54 51.37,95.46 51.29,95.46 51.29,95.37 51.2,95.28 
	51.2,95.2 51.2,95.11 51.11,95.02 51.11,94.93 51.11,94.85 51.11,94.76 51.2,94.67 51.2,94.59 51.2,94.5 51.2,94.41 51.2,94.33 
	51.2,94.24 51.2,94.15 51.11,94.15 51.02,94.15 51.02,94.07 50.94,93.98 50.85,93.89 50.85,93.81 50.85,93.72 50.85,93.63 
	50.85,93.54 50.76,93.46 50.68,93.46 50.68,93.37 50.59,93.28 50.59,93.2 50.5,93.11 50.42,93.11 50.42,93.02 50.33,92.94 
	50.24,92.85 50.24,92.76 50.24,92.68 50.16,92.5 50.16,92.42 50.16,92.33 50.16,92.24 50.16,92.15 50.07,92.07 49.98,91.98 
	49.9,91.98 49.81,91.98 49.72,91.89 49.63,91.81 49.55,91.81 49.46,91.72 49.46,91.63 49.37,91.63 49.37,91.55 49.29,91.55 
	49.29,91.46 49.2,91.46 49.2,91.37 49.29,91.37 49.29,91.29 49.37,91.29 49.46,91.29 49.55,91.29 49.55,91.2 49.63,91.11 
	49.63,91.03 49.63,90.94 49.63,90.85 49.63,90.76 49.63,90.68 49.63,90.59 49.63,90.5 49.63,90.42 49.63,90.33 49.63,90.24 
	49.63,90.16 49.63,90.07 49.72,90.07 49.72,89.98 49.81,89.81 49.9,89.72 49.9,89.55 49.98,89.46 49.98,89.29 49.98,89.2 
	50.07,89.11 49.98,89.03 49.98,88.94 49.9,88.85 49.81,88.85 49.81,88.77 49.72,88.77 49.72,88.68 49.63,88.59 49.63,88.51 
	49.55,88.51 49.63,88.42 49.63,88.33 49.55,88.33 49.46,88.33 49.37,88.33 49.29,88.25 49.2,88.16 49.11,88.07 49.03,88.07 
	48.94,88.07 48.94,87.98 48.85,87.98 48.77,87.98 48.77,87.9 48.68,87.81 48.59,87.81 48.51,87.81 48.42,87.81 48.33,87.9 
	48.24,87.9 48.16,87.9 48.07,87.9 47.98,87.81 47.9,87.81 47.81,87.81 47.81,87.9 47.72,87.9 47.72,87.98 47.72,88.07 47.72,88.16 
	47.72,88.25 47.72,88.33 47.64,88.33 47.55,88.33 47.46,88.33 47.38,88.33 47.29,88.25 47.2,88.25 47.11,88.16 47.03,88.16 
	47.03,88.07 46.94,87.98 46.94,87.9 46.85,87.9 46.77,87.81 46.68,87.72 46.59,87.72 46.51,87.64 46.42,87.64 46.33,87.55 
	46.25,87.55 46.16,87.46 46.16,87.38 46.07,87.38 45.99,87.38 45.9,87.38 45.9,87.46 45.81,87.46 45.72,87.46 45.64,87.46 
	45.55,87.46 45.38,87.46 "/>
</svg>
