<?xml version="1.0" encoding="utf-8"?>
<!-- Generator: Adobe Illustrator 24.2.1, SVG Export Plug-In . SVG Version: 6.00 Build 0)  -->
<svg version="1.1" id="Layer_1" xmlns="http://www.w3.org/2000/svg" xmlns:xlink="http://www.w3.org/1999/xlink" x="0px" y="0px"
	 viewBox="0 0 97.23 97.23" style="enable-background:new 0 0 97.23 97.23;" xml:space="preserve">
<style type="text/css">
	.st0{fill-rule:evenodd;clip-rule:evenodd;}
</style>
<path class="st0" d="M80.56,31.34h-0.1v0.1h0.1V31.34L80.56,31.34z M80.67,30.11h-0.1v0.1h0.1V30.11L80.67,30.11z M7.61,13.61v-0.1
	h0.1l0.1,0.1l0.1-0.1l0.1,0.1v0.1v0.1v0.1v0.1v0.1v0.1l-0.1,0.1v0.1h-0.1v0.1v0.1v0.1h0.1v0.1v0.1v0.1h-0.1v0.1v0.1h0.1v0.1h0.1h0.1
	v0.1v0.1v0.1v0.1h0.1v0.1v0.1v0.1h0.1h0.1h0.1h0.1l0.1,0.1h0.1h0.1h0.1v-0.1v-0.1l0.1-0.1l0.1-0.21v-0.1v-0.1l0.1-0.2l0.1-0.21
	l0.1-0.1l0.1-0.21v-0.1v-0.1h0.1v-0.1h0.1v0.1l0.51,0.31h0.1l0.21-0.1h0.1l0.31-0.21l0.41-0.31h0.1v0.1l-0.1,0.1h-0.1v0.1v0.1v0.1
	v0.1v0.1h0.1v0.1h0.1h0.1v0.1h0.1h0.1l0.1,0.1h0.1h0.1v-0.1h0.1h0.1v-0.1h0.1v0.1h0.1v0.1h0.1h0.1h0.1h0.1h0.1h0.1v0.1v0.1l0.1,0.1
	v-0.1h0.1v0.1h0.1v0.1h0.1h0.1v0.1h0.1v0.1v0.1v0.1h0.1v-0.1h0.1v0.1h0.1h0.1h0.1v0.1l0.21,0.1l0.1,0.1h0.1v0.1h0.1h0.1h0.1h0.1h0.1
	v0.1h0.1l0.1,0.1h0.1h0.1l0.1-0.1v-0.1v-0.1v-0.1l0.1-0.1v-0.1v-0.1h0.1h0.1v0.1h0.1l0.1,0.1l0.1,0.1l0.1,0.21v0.1l0.1,0.1v0.21v0.1
	v0.1v0.1v0.1l0.1,0.1h0.1v0.1l0.1,0.1v0.1v0.1v0.1v0.1h0.1l0.1,0.1l0.1,0.1l0.1,0.1v0.1l0.1,0.1l0.1,0.1v0.1h0.1l0.1,0.1h0.21
	l0.1,0.1v0.1h0.1v0.1l0.21,0.1h0.1l0.1,0.1h0.1h0.1h0.21h0.1h0.1v0.1h0.1v0.1h0.1v0.1l0.1,0.1v0.1h0.21v0.1h0.1h0.1h0.1h0.1h0.1v0.1
	h0.1v0.1h-0.1l0.1,0.1v0.1h0.1v0.1h0.1v-0.1h-0.1v-0.1h0.1h0.1v0.1h0.1v0.1h0.1v0.1h0.1v0.1v0.1h-0.1v0.1h-0.1v0.1h0.1h0.1v0.1v0.1
	l0.1-0.1l0.1,0.1h0.1v0.1h0.1h0.1v0.1h0.1v0.1l0.1,0.1h0.1h0.1l0.2-0.1v0.1h0.1v0.1h0.1v0.1v0.1v0.1h0.1v0.1v0.1l0.1,0.1h0.1v0.1
	v0.1h0.1v0.1h0.1v0.1v0.1h0.1v0.1h-0.1v0.1l-0.1,0.1h-0.1v0.1l0.1,0.1v0.1h-0.1v0.1h0.1h0.1l0.1,0.1v0.1v0.1h0.1v0.1v0.1v0.1h0.1
	v0.1h-0.1h-0.1v0.1v0.1v0.1h-0.1v0.1h0.1v0.1h0.1h0.1h0.1v0.1h0.1h0.1v0.1l0.1,0.1v0.1h-0.1v0.1v0.1h0.1l0.1,0.1h0.1h0.1v0.1
	l0.1,0.1v0.1l0.1-0.1v0.1h0.1h0.1v0.1v0.1l0.1,0.1v-0.1h0.1v0.1h0.1h0.1v-0.1h0.1h0.1h0.1h0.1v0.1h0.1v-0.1h0.1v0.1v0.1v0.1h-0.1
	v-0.1l-0.1,0.1h0.1v0.1h-0.1v0.1l-0.1,0.1h-0.1v0.1h-0.1v0.1h0.1v0.1v0.1v0.1h-0.1h-0.1v0.1h0.1v0.1h0.1v0.1h-0.1h-0.1v0.1v0.1v0.1
	v0.1h0.1v-0.1v-0.1h0.1v0.1v0.1v0.1h0.1l-0.1,0.1h0.1h0.1v0.1h0.1h0.1v0.1v0.1h-0.1v0.1v0.1h-0.1v0.1v0.1h0.1v0.1v0.1v0.1h0.1v0.1
	v0.1h0.1h0.1h0.1v-0.1h0.1v-0.1v-0.1h0.1v0.1h0.1v0.1h0.1v0.1v0.1v0.1v0.1l0.1,0.1h0.1h0.1v0.1h0.1v-0.1h0.1v0.1h0.1h0.1v0.1h0.1V30
	l0.1,0.1h0.1h0.1V30h0.1h0.1h0.1l0.21-0.1h0.1h0.1h0.1H28h0.1h0.1h0.1v-0.1h0.1v-0.1h0.1h0.1l0.1,0.1h0.1h0.1v-0.1h0.1l0.1-0.1h0.1
	l0.1-0.1h0.1h0.1h0.21h0.1l0.1-0.1h0.1l0.1,0.1h0.1h0.1l0.1,0.1h0.1l0.1,0.1v0.1h0.1v0.1l0.1,0.1v0.1v0.1v0.1v0.1v0.1l0.1,0.1
	l0.1,0.1l0.1,0.1h0.1h0.1v0.1l0.1,0.1h0.1l0.1,0.1l0.1,0.1l0.1,0.1l0.1,0.1h0.1l0.1,0.1l0.1,0.1v0.1l0.31,0.2l0.41,0.21v0.1v0.1
	l0.1,0.1h0.1l0.1,0.1l0.1,0.1l0.1,0.1l0.1,0.1l0.1,0.1h0.1l0.1,0.1l0.1,0.1h0.1l0.1,0.1h0.1l0.31,0.1l0.1,0.1l0.1,0.1l0.2,0.1
	l0.1,0.1l0.1,0.1h-0.1V34h-0.1v0.1h-0.1v0.1h-0.1h-0.1h-0.1h-0.1h-0.1v0.1l-0.1,0.1v0.1l-0.1,0.1v0.1v0.1v0.1l0.1,0.1v0.1v0.1h0.1
	v0.1v0.1h0.1v0.1v0.1v0.1h0.1v0.1v0.1v0.1v0.1v0.1v0.1v0.1h0.1v0.1h-0.1v0.1v0.1v0.1v0.1v0.1h-0.1v0.1v0.1h-0.1h-0.1v0.1v0.1v0.1
	v0.1v0.1h0.1v-0.1h0.1l0.1-0.1h0.21h0.1h0.1h0.21h0.21l0.1,0.1h0.1h0.1l0.1,0.1h0.1h0.1l0.31,0.1l0.31,0.1l0.21,0.1h0.21l0.1,0.1
	v0.1v0.1v0.1h0.1v0.1v0.1h0.1v0.1v0.1h-0.1v0.1v0.1v0.1v0.1v0.1v0.1h0.1l0.1-0.1h0.1h0.1h0.1h0.21h0.1l0.1-0.1h0.1h0.1v-0.1h0.1
	l0.1-0.1v-0.1v-0.1l0.1-0.1v-0.1h0.1l0.2-0.21h0.21l0.1-0.1h0.1l0.1-0.1h0.1v-0.1l0.1-0.1V38l0.1-0.2h0.1h0.1h0.1v0.1l0.1,0.1h0.1
	l0.1,0.1l0.1,0.1l0.1,0.1l0.41,0.31v0.1h0.1h0.1h0.1h0.1h0.1h0.1h0.21h0.1h0.1h0.1v-0.1h-0.1v-0.1h0.1h0.1v-0.1v-0.1v-0.1h0.1v-0.1
	V38v-0.1h0.1v-0.1h0.1v-0.1h0.1v0.1v0.1h0.1h0.1h0.1v-0.1v-0.1h0.1v0.1h0.1l0.1-0.1h0.1h0.1h0.1h0.1h0.1h0.1h0.1h0.1v-0.1v-0.1h-0.1
	v-0.1v-0.1h-0.1v-0.1v-0.1v-0.1v-0.1h-0.1v-0.1v-0.1h-0.1v-0.1h0.1v-0.1h-0.1v-0.1v-0.1h0.1h0.1v-0.1h0.1v0.1h0.1v0.1l0.1-0.1h0.1
	v-0.1h0.1v-0.1h0.1v-0.1h-0.1v-0.1h0.1v-0.1v-0.1v-0.1v-0.1v-0.1v-0.1h-0.1l0.1-0.1h-0.1v-0.1h0.1h0.1v-0.1h-0.1v-0.1h0.1v-0.1h0.1
	v-0.1h0.1v-0.1h-0.1l0.1-0.1h0.1v-0.1h-0.1v-0.1h0.1v-0.1V34h0.1v-0.1h0.1V34h0.1v-0.1h0.1h0.1v-0.1h0.1h0.1h0.1v-0.1h0.1v0.1h0.1
	h0.1h0.1h0.1h0.1h0.1v-0.1h0.1h0.1v-0.1h0.1h0.1h0.1v-0.1h0.1h0.1v-0.1h0.1h0.1h0.1v-0.1h0.1v-0.1v-0.1h0.1v-0.1h0.1v-0.1v-0.1h0.1
	v-0.1v-0.1v-0.1v-0.1v-0.1h-0.1l0.1-0.1h-0.1v-0.1v-0.1v-0.1l0.1,0.1v-0.1h0.1v-0.1h0.1l0.1-0.1h0.1v-0.1l0.1,0.1v-0.1l-0.1-0.1h0.1
	v-0.1l0.1-0.1h0.1v-0.1h0.1v-0.1h-0.1v-0.1v-0.1h-0.1h-0.1l0.1-0.1h0.1v-0.1h-0.1v-0.1l-0.1-0.1h-0.1v-0.1h-0.1v-0.1h0.1v-0.1h0.1
	V30h0.1v-0.1h0.1h0.1v-0.1v-0.1h-0.1v-0.1v-0.1h-0.1v-0.1v-0.1v-0.1h-0.1v-0.1h0.1h0.1v-0.1h0.1v-0.1v-0.1h-0.1v-0.1v-0.1l0.1,0.1
	h0.1v-0.1v-0.1v-0.1l0.1-0.1h-0.1h-0.1v-0.1h-0.1h-0.1h-0.1v-0.1h-0.1v-0.1v-0.1v-0.1h0.1l0.1,0.1h0.1v-0.1h0.1l-0.1-0.1l-0.1-0.1
	l-0.21-0.1l-0.1-0.1v-0.1h-0.1h-0.1v-0.1v-0.1h0.1v-0.1v-0.1l0.1-0.1v-0.1v-0.1l-0.1-0.1h-0.1v0.1h-0.1h-0.1h-0.1h-0.1v-0.1v-0.1
	h-0.1h-0.1h-0.1v-0.1v-0.1h-0.1l0.1-0.1l0.1,0.1h0.1v0.1l0.1-0.1v0.1h0.1v-0.1l0.1-0.1v0.1h0.1v0.1h0.1v-0.1v-0.1v-0.1h-0.1h-0.1
	v-0.1h0.1l0.1-0.1h0.1v-0.1h-0.1h-0.1l-0.1,0.1v-0.1v-0.1h0.1v-0.1h0.1l0.1-0.1h0.1l0.1,0.1h0.1l0.1-0.1h0.1v-0.1v-0.1l-0.1-0.1
	h-0.1v-0.1h-0.1v-0.1v-0.1h0.1v-0.1h0.1v-0.1h0.1v0.1v0.1h0.1v-0.1v-0.1h0.1H49v-0.1v-0.1h0.1v0.1h0.1v-0.1h0.1v-0.1l0.1,0.1v-0.1
	h0.1h0.1h0.1v-0.1h-0.1v-0.1l-0.1,0.1v-0.1v-0.1h0.1v-0.1v-0.1v-0.1h-0.1v-0.1h0.1v-0.1h0.1v0.1v0.1h0.1v-0.1v-0.1h0.1v-0.21v-0.1
	h-0.1l0.1-0.1h0.1v-0.1l-0.1-0.1v-0.1h-0.1v-0.1h0.1v-0.1h-0.1v-0.1h-0.1v0.1h-0.1v-0.1v-0.1v-0.1l0.1,0.1v-0.1h-0.1v-0.1l0.1-0.1
	h0.1v-0.1l-0.1-0.1v-0.1h0.1v-0.1v-0.1h0.1v-0.1h0.1h0.1v-0.1h-0.1v-0.1h0.21v0.1h0.1h0.1v-0.1v-0.1h0.1h0.1l0.1,0.1v-0.1h0.1v0.1
	l-0.1,0.1l0.1,0.1h0.1l0.1,0.1h0.1h0.21h0.2h0.31h0.1v0.1h0.1l0.1-0.1h0.1h0.1v-0.1l0.1,0.1v-0.1h0.1v-0.1h0.1v0.1l0.1-0.1l0.1,0.1
	v-0.1H53v0.1h0.1v0.1H53v0.1h0.1l0.2,0.1v0.1v0.1v0.1h0.1l0.1,0.1v0.1h0.1v0.1v0.1h0.1v0.1h0.1v0.1h0.1v0.1v0.1v0.1v0.1v0.1
	l0.41,0.1v0.1v0.1h0.21v0.1h0.1l0.1,0.1v0.1v0.1l0.1,0.31v0.1v0.31v0.1v0.1v0.1l0.1,0.1v0.1l0.1,0.1h0.1h0.1h0.1v0.1h0.1v0.1h0.1
	l0.1-0.1h0.1v-0.1h0.1h0.1v-0.1h0.1h0.1v-0.1h0.1v-0.1v-0.1v-0.1v-0.1v-0.1h0.1v-0.1h0.1v-0.1h0.1v-0.1h0.1h0.1v-0.1h0.1v-0.1v-0.1
	v-0.1v-0.1l0.1-0.1l0.1-0.1l0.1-0.1l0.1-0.1l0.41-0.1v-0.1v-0.2l0.1-0.21v-0.1h0.1v-0.1v-0.1v-0.1h0.1v-0.1h0.1v0.1h0.1h0.1h0.1
	v-0.1h0.1h0.1v0.1l0.1-0.1v0.1h0.1h0.1h0.1h0.1v-0.1h0.1h0.1v-0.1h0.1v-0.1v-0.1h0.1v-0.1h-0.1v-0.1v-0.1v-0.1h-0.1l-0.1-0.1h0.1
	v-0.1h0.1h0.1h0.1h0.1v-0.1h0.1h0.1h0.1h0.41h0.1l0.1,0.1h0.31l0.21,0.1h0.1h0.1h0.31l-0.1,0.1v0.1v0.1l0.1,0.1l0.1,0.1v0.1h0.1v0.1
	l-0.1,0.1v0.1h0.1h0.1l0.1-0.1l0.1,0.1v0.1h0.1h0.1v0.1l0.1,0.1v0.1h0.1v0.1h0.1v-0.1v-0.1l0.1-0.1h0.1v0.1v0.1v0.1l0.1,0.1v0.1v0.1
	v0.1h-0.1v0.1h0.1v-0.1h0.1h0.1v0.1v0.1h0.2v-0.1h-0.1v-0.1v-0.1v-0.1h0.1h0.21h0.1v0.1v0.1v0.1h0.1v0.1v0.1v0.1v0.1h0.1h0.1v0.1
	h-0.1v0.1h-0.1l0.1,0.1h0.1l0.1-0.1h0.1h0.1l0.1,0.1h0.1v0.1v0.1h-0.1v0.1l0.21,0.1h-0.1v0.1h-0.1v0.1h-0.1l-0.1,0.1h0.1v0.1h0.1
	h0.1v0.1v0.1h0.1v0.1h0.1v-0.1l0.1,0.1h-0.1v0.1h0.1v0.1v0.1h0.1v0.1l-0.1,0.1v0.1h0.1v-0.1h0.1l0.1,0.1v0.1h0.1v0.1h0.1v-0.1h0.1
	v0.1v0.1h0.1l-0.1,0.21h0.1h0.1v0.1l0.1,0.1h0.1v-0.1h0.1h0.1h0.1h0.1h0.1v-0.1h0.1v-0.1h0.1v0.1h0.1l0.1-0.1v-0.1v-0.1v-0.1h0.1
	v-0.1h-0.1v-0.1h0.1v-0.1h0.1v-0.1l-0.1-0.1v-0.1v-0.1v-0.1h-0.1l0.1-0.1h0.1v-0.1v-0.1h0.1l0.1-0.1h-0.1v-0.1h0.1l-0.1-0.1
	l-0.1-0.1v-0.1h0.1h0.1v-0.1h0.1v-0.1h-0.1v-0.1v-0.1h0.1v-0.1h0.1v-0.1v-0.1h-0.1l-0.1-0.1l0.31-0.31h0.1h0.1v-0.1l0.1-0.1
	l0.21-0.21v-0.1h-0.1h-0.1v-0.1h0.1h0.1l0.1-0.1v0.1h0.1h0.1h0.1v0.1h0.1l0.1,0.1v-0.1h0.1v-0.1h0.1v-0.1h0.1h0.1v-0.1v-0.1h0.1h0.1
	v0.1h0.1h0.1h0.1h0.1v0.1l0.1-0.1v0.1h0.1v-0.1l0.1-0.1h0.1h0.1l0.1-0.1h0.1h0.1v-0.1v-0.1h0.1h0.1h0.1v-0.1h0.1v-0.1h-0.1l0.1-0.1
	h-0.1v-0.1h0.1v-0.1h0.1l0.1,0.1v0.1h0.1l0.1,0.1h0.1v0.1h0.1l0.1,0.1h0.1l0.1,0.1l0.31,0.51l0.1,0.21v0.1l0.1,0.21l0.1,0.21
	l0.1,0.31l0.1,0.2l0.1,0.1l0.1,0.2v0.1v0.1h0.1v0.1l0.1,0.1v0.1h0.1h0.2h0.1h0.1h0.1h0.1l0.31,0.21l0.21,0.1h0.1h0.1h0.1h0.1v-0.1
	l0.1-0.21v-0.1l0.1-0.1l0.1-0.1l0.1-0.1v-0.1l-0.1-0.51v-0.1v-0.1l-0.21-0.1v-0.1l-0.1-0.1v-0.1l-0.21-0.1v-0.1v-0.1h-0.1l0.1-0.1
	v-0.1l0.21-0.1h0.1h0.21h0.1l0.1-0.1h0.1l0.21-0.21l0.1-0.1h0.1l0.1-0.21l0.1-0.1l0.1-0.1h0.1l0.21-0.1h0.1h0.1v0.1v0.1l0.1,0.1
	l0.1,0.1h0.1h0.1h0.1l0.72-0.1h0.1l0.1-0.1h0.1l0.1-0.1h0.1h0.1l0.1-0.1h0.1l0.1-0.1h0.1l0.1-0.1l0.1-0.1l0.1-0.1h0.1l0.2-0.21v-0.1
	h0.1h0.1v-0.1h0.1v-0.1h0.1v-0.1h-0.1v-0.1h0.1h0.1v-0.1h0.1v-0.1l0.1,0.1l0.1-0.1h0.1h0.1h0.1v0.1v0.1h0.1h0.1h0.1v0.1v0.1h-0.1
	v0.1l-0.1,0.1l0.1,0.1v0.1h0.1v0.1v0.1l0.1,0.1v0.1h0.1v0.1v0.1v0.1h-0.1v-0.1h-0.1v0.1h-0.1h-0.1v0.1h-0.1v-0.1h-0.1v0.1v0.1v0.1
	h-0.1v0.1v0.1v0.1v0.1l0.1,0.21l0.1,0.1v0.1v0.1h-0.1l-0.1,0.1h-0.1h-0.1h-0.1h-0.1h-0.1l-0.1,0.1h0.1v0.1h0.1v0.1l0.1,0.1v0.1v0.1
	v0.1h0.1v-0.1h0.1l0.1-0.1l0.1-0.1l0.21,0.21v0.1h0.1l0.1,0.1h0.1h0.2h0.1h0.1h0.1v0.1h-0.1h-0.1l-0.1,0.1v0.1v0.1h-0.1v0.1h-0.1
	h-0.1h-0.1l-0.1-0.1v-0.1l-0.1-0.1h-0.1l-0.1-0.1v-0.1h-0.1v0.1v0.1h0.1v0.1h0.1v0.1l-0.1,0.1l-0.1,0.1v0.1l-0.1,0.1v-0.1h-0.21
	l-0.1-0.1v-0.1h0.1v-0.1l0.1-0.1v-0.1h0.1v-0.1h-0.1v-0.1h-0.1h-0.1h-0.1v0.1l-0.1-0.1h-0.1l-0.1,0.1h-0.1h-0.1l-0.1,0.1h-0.1v0.1
	v0.1h0.1h0.1v0.1h0.1l0.1,0.1l0.1,0.1l0.1,0.1v0.1h-0.1v0.1v0.1v0.1l-0.1,0.1h-0.1l-0.1,0.1h-0.1v-0.1h-0.1v0.1v0.1v0.1h-0.1v0.1
	h-0.1v0.1h0.1h0.1h0.1v0.1v0.1h-0.1l0.1,0.1h-0.1l-0.1-0.1v0.1v0.1h-0.1v0.1l-0.1,0.1v0.1h0.1v0.1l0.1,0.1l0.1,0.1h-0.1h-0.1v0.1
	h0.1v0.1h-0.1h-0.1v-0.1l-0.1,0.1h-0.1v-0.1h-0.1v0.1v0.1h-0.1v0.1h0.1h0.1l-0.1,0.1h0.1v0.1h-0.1v0.1h0.1v0.1l0.1,0.1h-0.1h-0.1
	v0.1l0.1,0.1v-0.1l0.1,0.1h0.1v0.1h0.1h0.1v0.1v0.1h0.1v0.1h0.1v0.1h-0.1v0.1v0.1l-0.1,0.1h0.1v0.1v0.1h0.1v0.1l0.1,0.1v0.1h0.1v0.1
	h0.1h0.1h0.1v-0.1h0.1h0.1v0.1h0.1v-0.1h0.1h0.1v-0.1v-0.1h0.1h0.1v0.1v0.1l0.1,0.1v0.1l0.1,0.1v0.1v0.1h0.1v0.1v0.1v0.1h0.1v0.1
	v0.1V30h0.1v0.1h-0.1v0.1v0.1h0.1l0.1,0.1h-0.1l-0.1,0.1l-0.1,0.1h-0.1v0.1h0.1h0.1v0.1h-0.1h-0.1v0.1l-0.1,0.1h-0.1l0.1,0.1v0.1
	h0.1h0.1v0.1v0.1h-0.1v0.1h0.1v0.1h-0.1v0.1h0.1v0.1v0.1h-0.1v0.1v0.1v0.1l0.1-0.1v0.1h-0.1v0.1h0.1v0.1v0.1h-0.1v0.1h-0.1v0.1h0.1
	v0.1h-0.1v0.1h0.1v0.1v0.1v0.1v0.1v0.1h0.1l-0.1,0.1h0.1h0.1v0.1h-0.1h-0.1v0.1h0.1h0.1v0.1V34v0.1h-0.1v0.1v0.1v0.1v0.1h-0.1h-0.1
	v0.1v0.1h0.1l-0.1,0.1h0.1v0.1h-0.1v0.1h-0.1v0.1h0.1v0.1h-0.1v0.1v0.1v0.1v0.1h0.1v0.1v0.1h0.1v0.1v0.1v0.1l-0.1,0.1v0.1v0.1h-0.1
	v0.1v0.1h0.1v0.1h0.1v0.1l-0.1,0.1h-0.1v0.1v0.1l0.1,0.1v0.1v0.1v0.1h0.1v0.1h0.1v0.1h-0.1v0.1h0.1h0.1h0.1V38v0.1v0.1l0.1-0.1h0.1
	v0.1v0.1h0.1v0.1h-0.1h-0.1v0.1h-0.1v0.1h-0.1h-0.1h-0.1h-0.1l-0.1-0.1h0.1v-0.1h-0.1h-0.1l-0.1,0.1v0.1h-0.1v-0.1h-0.1h-0.1h-0.1
	h-0.1v0.1v0.1h-0.1h-0.1v-0.1h-0.1h-0.1h-0.1v0.1v0.1v0.1v0.1h0.1l-0.1,0.1h0.1v0.1v0.1h-0.1v0.1h-0.1v-0.1h-0.1v-0.1v-0.1h-0.1
	v-0.1h-0.1v-0.1h-0.1h-0.1l-0.1-0.1v-0.1l-0.1,0.1v-0.1h-0.1v0.1h-0.1l-0.1-0.1v0.1h-0.1v0.1v0.1v0.1h-0.1v-0.1h-0.1v-0.1h-0.1v0.1
	h-0.1v0.1v0.1v0.1h-0.1v0.1h-0.1v0.1h-0.1l-0.1-0.1l-0.1,0.1l0.1,0.1h-0.1v0.1v0.1h0.1v0.1v0.1v0.1h-0.1h-0.1v0.1v0.1v0.1v0.1h-0.1
	v0.1h0.1v0.1h-0.1h-0.1v0.1h-0.1v0.1v0.1l0.1,0.1h-0.1l-0.1,0.1l-0.1-0.1v-0.1h-0.1v-0.1h-0.1h-0.1v0.1v0.1v0.1v0.1v0.1h-0.1v0.1
	v0.1v0.1v0.1h-0.1v0.1v0.1v0.1l-0.1-0.1v0.1h0.1v0.1h-0.1v0.1v0.1h0.1v0.1h-0.1v0.1l0.1-0.1v0.1v0.1h-0.1v0.1h-0.1v0.1h-0.1
	l-0.1,0.1v0.1h-0.1v0.1h-0.1v0.1h-0.1h-0.1v0.1h-0.1v0.1h0.1v0.1v0.1h-0.1v0.1h-0.1h-0.1v0.1h-0.1v0.1h-0.1h-0.1h-0.1l-0.1,0.1h0.1
	v0.1h-0.1h-0.1v0.1v0.1h0.1v-0.1h0.1v0.1h-0.1v0.1v0.1v0.1l0.1,0.1v0.1v0.1h-0.1v0.1l-0.1,0.1v0.1h0.1v0.1v0.1v0.1v0.1v0.1v0.1h0.1
	v0.1h-0.1v0.1v0.1v0.1h-0.1v0.1h0.1v0.1v0.1h-0.1h-0.1l0.1-0.1h-0.1h-0.1v0.1v0.1l-0.1,0.1l0.1,0.1v0.1h-0.1v0.1h-0.1v0.1l0.1,0.1
	h-0.1h-0.1h-0.1v0.1v0.1h0.1v0.1h-0.1v0.1h0.1h0.1v0.1h-0.1v0.1h0.1v0.1h0.1v0.1h0.1v0.1v0.1v0.1h0.1v0.1v0.1h-0.1v0.1h0.1v0.1v0.1
	v0.1h-0.1v0.1h0.1v-0.1h0.1v0.1h0.1v0.1h0.1v0.1v0.1v0.1v0.1v0.1h0.1h0.1h0.1v0.1v0.1h0.1v0.1v0.1l0.1-0.1v0.1h0.1h0.1v0.1h0.1v0.1
	v0.1v0.1h-0.1v0.1h-0.1h-0.1v0.1v0.1h-0.1v0.1v0.1v0.1h-0.1v0.1h-0.1v0.1h0.1v0.1h-0.1h-0.1v0.1v0.1l-0.1,0.1h-0.1h-0.1v0.1v0.1v0.1
	v0.1h-0.1l0.1,0.1h-0.1v0.1v0.1h-0.1v0.1v0.1h-0.1v0.1h-0.1v0.1v0.1h-0.1h-0.1v0.1v0.1v0.1v0.1v0.1v0.1v0.1v0.1h-0.1h-0.1v0.1h0.1
	v0.1v0.1h-0.1h-0.1v0.1h0.1v0.1h-0.1h-0.1h-0.1h-0.1h-0.1l-0.1,0.1h-0.1v0.1v0.1v0.1v0.1h-0.1v0.1v0.1v0.1h-0.1v0.1v0.1h0.1h0.1v0.1
	h0.1v0.1h0.1v0.1v0.1h-0.1v0.1h0.1v0.1h0.1l-0.1,0.1h0.1v0.1v0.1h0.1h0.1v0.1h-0.1v0.1v0.1h0.1v0.1h0.1v0.1h0.1v0.1h0.1v0.1h0.1v0.1
	h0.1v0.1h0.1v0.1l-0.1,0.1h0.1l-0.1,0.1h0.1v0.1h0.1l-0.1,0.1h0.1l0.1,0.1h0.1h0.1v0.1v0.1h0.1h0.1v-0.1v-0.1v-0.1h0.1h0.1v0.1h0.1
	l-0.1,0.1h0.1h0.1v-0.1h0.1v-0.1h0.1h0.1h0.1v0.1h0.1h0.1h0.1v-0.1h0.1h0.1v0.1v0.1h0.1h0.1v-0.1h0.1v0.1v0.1h0.1v0.1h0.1h0.1h0.1
	h0.1h0.1v-0.1h0.1v0.1v0.1h0.1v0.1h0.1v0.1v0.1h0.1h0.1v-0.1h0.1h0.1h0.1v0.1h0.1h0.1h0.1v0.1l0.1-0.1v0.1h0.1v-0.1H78h0.1h0.1v0.1
	h0.1V59h0.1v0.1h-0.1v0.1v0.1v0.1l-0.1,0.1h0.1v-0.1l0.1,0.1h0.1v0.1v0.1h0.1v0.1h0.1v0.1v0.1h0.1h0.1h0.1h0.1v-0.1h0.1v-0.1h0.1
	v0.1h0.1v0.1h0.1v-0.1h0.1h0.1v0.1v0.1h0.1v0.1v0.1h0.1v0.1h0.1h0.1l0.1-0.1h0.1h0.1v0.1h0.1v0.1h0.1v0.1h0.1h0.1h0.1v-0.1h0.1v0.1
	h0.1v0.1l-0.1,0.1h0.1h0.1v0.1h0.1v0.1h0.1h0.1h0.1v0.1h0.1h0.1v0.1H82h0.1v-0.1h0.1v-0.1v-0.1h0.1v-0.1h0.1h0.1l0.1-0.1v0.1h0.1
	h0.1v0.1v0.1h0.1v0.1h0.1h0.1h0.1v0.1l0.1-0.1h0.1h0.1v-0.1h0.1v-0.1h0.1h0.1v0.1h0.1v0.1v0.1h0.1v-0.1h0.1h0.1v-0.1h0.1v-0.1h0.1
	h0.1h0.1v-0.1h0.1v-0.1l0.1-0.1v-0.1v-0.1l0.1-0.1v-0.1h0.1l0.1,0.1v0.1v0.1v0.1v0.1v0.1h0.1v0.1h0.1l0.1,0.1h0.1l0.1,0.1h0.21
	l0.1,0.1l0.1,0.1h0.1h0.1l0.1,0.1h0.1v0.1h0.1h0.1l0.1,0.1h0.1l0.1,0.1l0.1,0.1h0.1v0.1h0.1l0.1,0.1h0.1l0.21,0.1l0.21,0.1l0.1,0.1
	l0.1,0.1h0.1l0.1,0.1l0.21,0.1v0.1h0.1l0.1,0.1h0.1V63h0.1l0.1,0.1h0.1v0.1h0.1l0.1,0.1l0.1,0.1h0.1v0.1h0.1h0.1l0.21,0.1h0.1v0.1
	v0.1l0.1,0.1l0.1,0.1h0.1l0.21,0.1l0.31,0.21l0.1,0.1l0.1-0.1h0.1v-0.1h0.1l0.21-0.1l0.1-0.1l0.21-0.1l0.1-0.1l0.1-0.1v-0.1v-0.1
	h0.1h0.1l0.1,0.1h0.1h0.1l0.1,0.1v0.1l0.1,0.21l0.1,0.1h0.1v0.1h0.1h0.1v0.1l0.1,0.1l0.1,0.21v0.1h0.1h0.1h0.1h0.1v0.1h0.1v0.1v0.21
	h0.1v0.1v0.1l0.1,0.1h0.1v0.1h0.1v0.1h0.1v0.1l0.1,0.1l0.1,0.21l0.1,0.2v0.21l0.1,0.1v0.1v0.2v0.1h0.1h0.1h0.1v-0.1h0.1l0.1-0.1h0.1
	l0.1,0.1h0.1h0.1h0.1h0.1l0.1,0.1h0.1l0.21,0.2h0.1v0.1l0.1,0.1v0.1v0.1v0.1h-0.1v0.21v0.1l-0.1,0.21l-0.1,0.21l-0.1,0.2l-0.21,0.31
	v0.1v0.1v0.1v0.1l0.1,0.2h0.1v0.1l0.1,0.1h0.1v0.1v0.1v0.1v0.1v0.1h0.1l0.1,0.1v0.1v0.1l-0.1,0.1l-0.1,0.21v0.1l-0.1,0.21v0.31v0.1
	v0.1l-0.1,0.1l0.1,0.1v0.21l0.1,0.31v0.1h-0.1h-0.1l-0.1-0.1h-0.1h-0.1h-0.1h-0.1l-0.1-0.1v-0.1v-0.1l0.1-0.1v-0.21l0.1-0.1V71.5
	v-0.1v-0.1v-0.1l0.1-0.1v-0.1v-0.1l-0.1-0.1l-0.1-0.1v-0.1h-0.1l-0.1-0.1h-0.1l-0.1-0.1h-0.1v-0.1h-0.1v-0.1v-0.1v-0.1v-0.1h-0.1
	l0.1-0.1l-0.1-0.1v-0.1v-0.1h-0.1l-0.1-0.1h-0.1v-0.1v-0.1h-0.1l-0.1,0.1v-0.1h-0.1v-0.1v-0.1h-0.1l0.1-0.1h-0.1v-0.1h-0.1v-0.1
	h-0.1v-0.1l-0.1-0.1v-0.1v-0.1h-0.1h-0.1v-0.1h-0.1h-0.1h-0.1v-0.1h-0.1v-0.1h-0.1v-0.1h-0.1v0.1h-0.1v0.1v0.1h-0.1v-0.1v-0.1v-0.1
	h-0.1v0.1v0.1h-0.1h-0.1h-0.1h-0.1v0.1h-0.1h-0.1h-0.1v-0.1l-0.1-0.1v-0.1h-0.1h-0.1h-0.1v-0.1h-0.1h-0.1v0.1h-0.1v0.1h0.1v0.1v0.1
	h-0.1v0.1v0.1h-0.1h-0.1h-0.1v-0.1h-0.1h-0.1v0.1h-0.1v-0.1h-0.1h-0.1v0.1v0.1h-0.1v0.1v0.1h-0.1h-0.1l-0.1-0.1h-0.1h-0.1h-0.1h-0.1
	v0.1h0.1v0.1v0.1l-0.1,0.1v0.1v0.1l-0.1-0.1h-0.1v0.1h-0.1h-0.1l-0.1,0.1v0.1h0.1v0.1h-0.1v0.1h-0.1v0.1h-0.1l0.1,0.1v0.1h0.1v0.1
	h-0.1l-0.1,0.1h-0.1h-0.1v0.1h-0.1v-0.1h-0.1v0.1v0.1h-0.1v0.1h-0.1h-0.1h-0.1v0.1v0.1h-0.1v0.1h-0.1v0.1h0.1h0.1v0.1l-0.1,0.1h-0.1
	v-0.1h-0.1h-0.1h-0.1v0.1v0.1l-0.1,0.1h-0.1v0.1h0.1h0.1h0.1h0.1l0.1,0.1l-0.1,0.1l-0.1,0.1v0.1h0.1h0.1v0.1h0.1h0.1v0.1l-0.1,0.1
	l-0.1,0.1v0.1v0.1h0.1v0.1v0.21v0.1v0.1v0.1l0.1,0.1v0.1v0.1v0.2v0.1v0.1v0.1l0.1,0.1v0.1l-0.1,0.1h-0.1h-0.1v0.1v0.1v0.1h-0.1v0.1
	v0.1h-0.1l-0.1,0.1h-0.1l-0.1,0.1v0.1h-0.1h-0.1v0.1h0.1v0.1v0.1h-0.1v0.1l0.1,0.1h-0.1v0.1v0.1h-0.1h-0.1l0.1,0.1v0.1h-0.1v-0.1
	h-0.1h-0.1v0.1h0.1v0.1h-0.1l0.1,0.1v0.1h-0.1v0.1h-0.1v0.1v0.1v0.1v0.1h0.1v0.1v0.1l-0.1,0.1v0.1v0.1h-0.1v0.1l-0.1,0.1h-0.1v0.1
	v0.1v0.1v0.1v0.1v0.1h0.1v0.1v0.1h0.1h0.1h0.1v0.1v0.1v0.1v0.1h-0.1v0.1h-0.1v0.1v0.1l0.1,0.1v0.1h-0.1v0.1h-0.1v0.1l0.1,0.1h0.1
	v0.1v0.1v0.1v0.1h-0.1h-0.1l-0.1-0.1h-0.1v0.1v0.1l-0.1,0.1v0.1l-0.1,0.1l-0.1,0.1v0.1v0.1v0.1v0.1h-0.1v0.1h-0.1v0.1h-0.1v-0.1
	h-0.1v0.1v0.1v0.1v0.1v0.1v0.1v0.1h-0.1h-0.21v-0.1h-0.1h-0.1v0.1l-0.1,0.1v0.1v0.1h-0.1v0.1h-0.1v0.1h-0.1v0.1v0.1v0.1h-0.1v0.1
	l-0.1,0.1v0.1v0.21h-0.1h-0.1l-0.1,0.2h-0.1h-0.1l0.1,0.1v0.1v0.1l0.1,0.1l0.1,0.1v0.1h0.1v0.1h0.1v0.1V84h-0.1l-0.1,0.1v0.1v0.1
	h-0.1l-0.1,0.1h-0.1v0.1v0.1l-0.1,0.1v0.1l-0.1,0.1l-0.1,0.1l-0.21,0.2l-0.1,0.1v0.1l-0.21,0.1l-0.1,0.2l-0.21,0.1h-0.1h-0.1
	l-0.1-0.1h-0.1l-0.1-0.1l-0.1-0.1v-0.1v-0.1l0.21-0.1v-0.1l0.1-0.1l0.1-0.1h0.1h0.1v-0.1h0.1v-0.1v-0.1l-0.1-0.1h-0.1h-0.1l-0.1-0.1
	v-0.21v-0.1h-0.1V84l-0.21-0.41h-0.1v-0.1v-0.1v-0.1v-0.1v-0.21H82h-0.1h-0.1l-0.1-0.1h-0.1v-0.1h0.1h0.1v-0.1v-0.1l0.1-0.1h0.2
	v-0.1l0.1-0.1v-0.1v-0.1l-0.1-0.1v-0.1l-0.1-0.1l-0.1-0.1l-0.1-0.1v-0.1v-0.1v-0.1v-0.1h-0.1v-0.1h-0.1v-0.1h-0.1h-0.1v-0.1
	l-0.1-0.1v-0.1l-0.1-0.1v-0.1v-0.1l-0.1-0.1h-0.1h-0.1v0.1h-0.1v-0.1v-0.1v-0.1h-0.1h-0.1l-0.1-0.1h0.1v-0.1h-0.1h-0.1h-0.1h-0.1
	h-0.1v0.1h0.1v0.1h-0.1h-0.1h-0.1l-0.1-0.1h-0.1v-0.1v-0.1h-0.1v-0.1h-0.1v-0.1h-0.1v-0.1h-0.1v-0.1h-0.1h-0.1l0.1-0.1h-0.1h-0.1
	h-0.1v-0.1h-0.1v-0.1v-0.1h-0.1l-0.1-0.1l-0.1,0.1h-0.1h-0.1h-0.1H78v-0.1h0.1v-0.1H78l-0.1,0.1h-0.1h-0.1h-0.1h-0.1h-0.1v-0.1h-0.1
	h-0.1h-0.1h-0.1h-0.1h-0.1l-0.1,0.1h-0.1h-0.1h-0.1h-0.1h-0.1l-0.1,0.1h-0.1v-0.1h-0.1h-0.1v-0.1h-0.1h-0.1h-0.1h-0.1v0.1h-0.1v-0.1
	v-0.1h-0.1h-0.1l-0.1-0.1v0.1h-0.1h-0.1v-0.1h0.1l0.1-0.1v-0.1h-0.1h-0.1h-0.1h-0.1v-0.1v-0.1h0.1v-0.1h-0.1v-0.1h-0.1v-0.1h-0.1
	v-0.1l-0.1-0.1v0.1h-0.1v-0.1h-0.1v-0.1h-0.1v0.1h-0.1h-0.1h-0.1v-0.1h-0.1v-0.1l-0.1-0.1v-0.1h-0.1l-0.1-0.1h-0.1v-0.1h-0.1h-0.1
	h-0.1v-0.1h-0.1v-0.1h-0.1v-0.1h-0.1h-0.1h-0.1h-0.1v0.1h-0.1v-0.1h-0.1v0.1h-0.1l-0.1-0.1v0.1h-0.1h-0.1v-0.1h-0.1v-0.1l-0.1-0.1
	v-0.1h-0.1h-0.1h-0.1v-0.1h-0.1v0.1h-0.1l-0.1,0.1h-0.1v0.1v0.1v0.1h-0.1v0.1h-0.1v-0.1h-0.1l-0.1-0.1v0.1h-0.1v0.1h-0.1v0.1v0.1
	v0.1v0.1h-0.1v0.1h-0.1v0.1h-0.1v-0.1h0.1l-0.1-0.1h-0.1v0.1h-0.1h-0.1h-0.1h-0.1l-0.1,0.1h-0.1h-0.1v-0.1v-0.1v-0.1h-0.1h-0.1v-0.1
	h-0.1l-0.1-0.1v0.1v0.1h-0.1h-0.1v0.1h-0.1v0.1h-0.1v-0.1h-0.1h-0.1h-0.1v0.1l0.1,0.1h-0.1h-0.1v0.1h-0.1v-0.1h-0.1h-0.1h-0.1h-0.1
	h-0.1h-0.1v-0.1v-0.1h-0.1v0.1h-0.1v-0.1h-0.1h-0.1v-0.1h-0.1h-0.1v-0.1h-0.1v0.1h-0.1v-0.1h-0.1v-0.1h-0.1v0.1h-0.1h-0.1v-0.1h-0.1
	h-0.1v-0.1h-0.1v-0.1v-0.1h-0.1v0.1h-0.1v-0.1h-0.1v0.1h-0.1v0.1h-0.1v0.1h0.1v0.1l-0.1,0.1v0.1h-0.1v0.1v0.1h-0.1v0.1v0.1v0.1v0.1
	h-0.1v0.1v0.1h-0.1h-0.1h-0.1v0.1v0.1v0.1h0.1l-0.1,0.1h-0.1v0.1h-0.1v0.1h0.1v0.1h-0.1l-0.1,0.1v0.1v0.1h0.1v0.1v0.1h-0.1v0.1v0.1
	l0.1-0.1v0.1h-0.1v0.1l0.1-0.1v0.1v0.1h-0.1h-0.1h-0.1v0.1l-0.1,0.1l-0.1,0.1h-0.1v0.1h-0.1v0.1l-0.1,0.1v0.1l-0.1,0.1h-0.1
	l-0.1-0.1h-0.1l-0.1-0.1h-0.1h-0.1v0.1h-0.1l-0.1,0.1l-0.1,0.1l-0.1,0.1l-0.1,0.1v0.1h-0.1v0.1h-0.1l-0.1,0.1l-0.1-0.1l-0.1,0.1v0.1
	h-0.1h-0.1h-0.1l-0.1-0.1l-0.1,0.1h-0.1h-0.1h-0.1h-0.1l-0.1,0.1l-0.1,0.1v0.1l-0.1,0.1h-0.1h-0.1v0.1l-0.1,0.1v0.1h-0.1l-0.1,0.1
	h-0.1l-0.1,0.1h-0.1h-0.1l-0.21,0.1l-0.1-0.1v0.1l-0.1,0.1v0.1l-0.1,0.1h-0.1h-0.1v-0.1h-0.1v-0.1h-0.1l-0.1-0.1v-0.1h-0.1v0.1v0.41
	v0.1v0.1h-0.1v0.1h-0.1h-0.1v0.1h-0.1h-0.1l-0.1,0.1h-0.21v0.1h-0.1v0.1l-0.1,0.1l-0.1,0.2H57h-0.1h-0.1h-0.1h-0.1h-0.1l-0.1,0.1
	h-0.1l-0.1,0.1V84h-0.1h-0.1h-0.1v0.1h-0.1v0.1h-0.1h-0.1v-0.1h-0.1l-0.1,0.1h-0.2l-0.1,0.1h-0.1h-0.1h-0.1h-0.1h-0.1l-0.1-0.1h-0.1
	v0.1l-0.1,0.1h-0.1l-0.1,0.1h-0.1h-0.1h-0.1h-0.1l-0.1-0.1h-0.1v-0.1v-0.1v-0.1l-0.1-0.1h-0.1v-0.1h-0.1L53,83.8l-0.1-0.1l-0.1-0.1
	l-0.1-0.1v-0.1v-0.1v-0.1h-0.1l-0.1-0.21h-0.1v-0.1h-0.1h-0.1l-0.1-0.1h-0.1v-0.1l0.1-0.1h-0.1h-0.1l0.1-0.1h-0.1v-0.1h-0.1v-0.1
	v-0.1h-0.1h-0.1v0.1h-0.1h-0.1h-0.1v-0.1v-0.1h-0.1v-0.1h0.1v-0.1h-0.1v-0.1h-0.1v0.1h-0.1v-0.1h-0.1v0.1h-0.1v0.1l-0.1-0.1h-0.1
	l-0.1-0.1h-0.1h-0.1h-0.1h-0.1v0.1h-0.1h-0.1v0.1v0.1h-0.1v0.1v0.1h-0.1h-0.1l-0.1,0.1h-0.1v0.1l0.1,0.1h-0.1h-0.1h-0.1v-0.1H49
	h-0.1v0.1h-0.1l-0.1,0.1v0.1h-0.1v0.1h-0.1h-0.1v0.1h-0.1v-0.1v-0.1h-0.1l-0.1-0.1v-0.1v-0.1h0.1v-0.1v-0.1v-0.1h-0.1v-0.1h-0.1
	v-0.1h0.1v-0.1h-0.1h-0.1v-0.1h-0.1v-0.1v-0.1h-0.1v-0.1h-0.1v-0.1v-0.1h-0.1v-0.1v-0.1h0.1v-0.1v-0.1v-0.1v-0.1v-0.1v-0.1v-0.1
	h-0.1v-0.1v-0.1v-0.1v-0.1h-0.1v-0.1v-0.1h0.1h0.1v-0.1v-0.1v-0.1v-0.1h0.1h0.1v-0.1h0.1v-0.1v-0.1v-0.1v-0.1v-0.1h0.1v-0.1v-0.1
	v-0.1h-0.1v-0.1h-0.1v-0.1h-0.1v-0.1v-0.1h-0.1h-0.1h-0.1v-0.1h-0.1v-0.1l-0.1-0.1h-0.1v-0.1v-0.1v-0.1v-0.1h0.1v-0.1h0.1h0.1v-0.1
	v-0.1h0.1h0.1v-0.1h0.1v-0.1h0.1v-0.1h0.1v-0.1h0.1h0.1v-0.1v-0.1h-0.1h-0.1v-0.1h-0.1v-0.1v-0.1v-0.1h-0.1h-0.1h-0.1v-0.1v-0.1
	h-0.1h-0.1v-0.1h-0.1h-0.1v-0.1h-0.1h-0.1v-0.1v-0.1h-0.1v-0.1h-0.1v-0.1v-0.1v-0.1v-0.1l-0.1,0.1v-0.1v-0.1v-0.1h-0.1v-0.1v-0.1
	v-0.1h-0.1v-0.1v-0.1h-0.1l-0.1-0.1h-0.1v-0.1h-0.1l-0.1-0.1h-0.1h-0.1v-0.1h-0.1v-0.1h-0.1v-0.1h-0.1v-0.1l-0.1,0.1v-0.1h-0.1h-0.1
	h-0.1h-0.1v-0.1h-0.1h-0.1v-0.1h-0.1v-0.1v-0.1h-0.1v-0.1v-0.1h-0.1h-0.1v-0.1v-0.1h-0.1v-0.1h-0.1h-0.1v-0.1h-0.1v0.1h-0.1v-0.1
	h-0.1h-0.1v-0.1h-0.1h-0.1v-0.1h-0.1v-0.1h-0.1h-0.1h-0.1h-0.1h-0.1v-0.1h-0.1h-0.1h-0.1h-0.1v-0.1h-0.1v-0.1l-0.1-0.1h-0.1v-0.1
	v-0.1h-0.1v-0.1v-0.1l0.1-0.1v-0.1l-0.1-0.1v-0.1h-0.1v-0.1v-0.1v-0.1v-0.1l-0.1-0.1l-0.1-0.1l-0.1-0.1v-0.1v-0.1v-0.1l-0.1-0.1
	h-0.1v-0.1h-0.1h-0.1v0.1h-0.1v0.2v0.21v0.1l-0.1,0.1v0.1l0.1,0.1v0.1v0.1l-0.31,0.21v0.1h-0.1h-0.1l-0.1,0.1l-0.1,0.1v0.2l-0.1,0.1
	l-0.1,0.1v0.1l-0.1,0.1h-0.1v0.1v0.1v0.2v0.1v0.1v0.21l-0.1,0.1v0.1v0.1v0.1h0.1v0.1h0.1v0.1h-0.1v0.1l-0.1,0.1v0.1v0.1h0.1v0.1
	l0.1,0.1l-0.1,0.1v0.21l-0.1,0.2l-0.1,0.21l-0.1,0.21v0.1v0.1l-0.1,0.21l-0.1,0.1l-0.1-0.1h-0.1l-0.1-0.1h-0.1h-0.1h-0.1l-0.21-0.1
	h-0.1h-0.1l-0.1-0.1h-0.1h-0.1v-0.1h-0.2l-0.31-0.31l-0.21-0.1l-0.1-0.1h-0.1v-0.1h-0.1l-0.21-0.21l-0.1-0.1h-0.1l-0.1-0.1h-0.1
	l-0.1-0.1l-0.1-0.1l-0.1-0.1h-0.1l-0.1-0.1h-0.1l-0.1-0.1h-0.1l-0.1-0.1h-0.1l-1.02-0.41l-0.21-0.21h-0.1l-0.21-0.1l-0.1-0.1
	l-0.21-0.1l-0.1-0.1l-0.1-0.1v-0.1l-0.51-0.2l-0.1-0.1v-0.1h-0.1l-0.1-0.1l-0.2-0.1l-0.1-0.1v-0.1l-0.1-0.1h-0.1l-0.1-0.1l-0.1-0.1
	v-0.1l-0.1-0.1l-0.1-0.1l-0.1-0.1v-0.1l-0.1-0.21l-0.1-0.1l-0.1-0.1l-0.1-0.1v-0.1l-0.1-0.1l-0.1-0.1l-0.1-0.1v-0.1l-0.1-0.1v-0.1
	v-0.1l-0.1-0.1v-0.1v-0.1h-0.1v-0.1h-0.1v-0.1v-0.1l-0.1-0.2v-0.1l-0.1-0.1v-0.1v-0.1l-0.1-0.1v-0.1v-0.1v-0.1l-0.1-0.1v-0.1v-0.1
	l-0.1-0.1v-0.1v-0.1l-0.1-0.1v-0.1v-0.1l-0.1-0.1v-0.1l-0.1-0.1v-0.21l-0.1-0.1l-0.1-0.1v-0.1h-0.1h-0.1v-0.1v-0.1l-0.21-0.2v-0.1
	l-0.1-0.1l-0.21-0.31l-0.1-0.1l-0.1-0.1v-0.1v-0.1l-0.1-0.1v-0.1l-0.1-0.1v-0.1l-0.1-0.2v-0.1l-0.1-0.1l-0.1-0.1v-0.1l-0.1-0.1V63
	h0.1H28l0.1-0.1h0.1l0.1-0.1h0.1h0.1l0.1-0.1l0.82-0.1h0.61l0.82-0.1l0.1-0.1l0.31-0.2l0.31-0.21l0.2-0.1l0.31-0.31l0.41-0.1h0.1
	l0.1-0.1h0.1v-0.1h0.1h0.1l0.1-0.1h0.1v0.1h0.1h0.1v-0.1h0.1v-0.1h0.1h0.1v-0.1h0.1v-0.1v-0.1v-0.1h0.1l0.1-0.1h0.1v-0.1v-0.1v-0.1
	v-0.1h0.1v-0.1h0.1v-0.1h0.1v-0.1v-0.1v-0.1v-0.1v-0.1h0.1v-0.1h0.1v-0.1h-0.1v-0.1l-0.1-0.1v-0.1h-0.1l-0.41-0.21v0.1h-0.1v0.1
	h-0.1l-0.1,0.1h-0.1v-0.1h-0.1h-0.41l-0.2-0.1l-0.21-0.1l-0.72-0.2l-0.21-0.1l-0.92-0.1l-0.41-0.41h-0.2l-0.62-0.1l-0.1,0.1v0.1
	h-0.1h-0.1l-0.1,0.1h-0.1h-0.1h-0.1h-0.1h-0.1l-0.1,0.1h-0.1h-0.1h-0.1h-0.1v-0.1H28h-0.1h-0.1h-0.1h-0.1h-0.1v0.1h-0.1h-0.1h-0.1
	h-0.2l-0.1,0.1h-0.1l-0.1,0.1h-0.21h-0.1h-0.1l-0.1-0.1h-0.21h-0.1h-0.1h-0.1l0.1-0.1v-0.1v-0.1v-0.1v-0.1v-0.1v-0.31v-0.1v-0.1
	v-0.1v-0.21v-0.1v-0.1l0.1-0.41v-0.31l-0.1-0.21v-0.1v-0.1l-0.1-0.21v-0.1l-0.1-0.1v-0.2V54.7l-0.1-0.1v-0.1l-0.1-0.2l-0.1-0.1v-0.1
	l-0.1-0.1v-0.21v-0.1l-0.1-0.2v-0.1l-0.1-0.1l-0.1-0.1v-0.1l-0.2-0.2v-0.1l-0.1-0.2l-0.1-0.1l-0.1-0.2l-0.1-0.1v-0.1v-0.1l-0.1-0.1
	l-0.1-0.1v-0.1l-0.1-0.1l-0.1-0.1v-0.1l-0.1-0.1l-0.1-0.1v-0.1l-0.1-0.1v-0.2h-0.1l-0.1-0.21v-0.1l-0.1-0.1v-0.1l-0.1-0.1v-0.1v-0.1
	l-0.1-0.21v-0.1l-0.1-0.21v-0.1l-0.1-0.1v-0.1v-0.1l-0.1-0.1v-0.1l-0.1-0.1v-0.1v-0.1l-0.1-0.1v-0.21l-0.1-0.1v-0.1l-0.1-0.1v-0.1
	v-0.21v-0.1l-0.1-0.1v-0.1l-0.1-0.1v-0.1l-0.1-0.2V46.6l-0.1-0.1v-0.1l-0.1-0.1v-0.21l-0.1-0.31l-0.1-0.1v-0.21l-0.1-0.1l-0.1-0.1
	v-0.1h-0.1v-0.1v-0.1h-0.1v-0.1v-0.1l-0.2-0.31l-0.1-0.1l-0.2-0.2l-0.1-0.1v-0.1h-0.1v-0.1l-0.1-0.1l-0.1-0.1v-0.1l-0.1-0.1
	l-0.1-0.2l-0.1-0.21l-0.1-0.1l-0.1-0.1l-0.1-0.1l-0.1-0.1l-0.1-0.1l-0.1-0.2v-0.1v-0.2v-0.1v-0.1l0.1-0.1v-0.1v-0.1v-0.21v-0.1v-0.1
	l-0.1-0.31l0.1-0.1l-0.1-0.1v-0.1l-0.1-0.1l-0.1-0.1v-0.1l-0.1-0.1v-0.21l-0.1-0.1v-0.1v-0.1v-0.1v-0.1v-0.1v-0.2v-0.1v-0.2v-0.1
	v-0.1h-0.1v-0.1v-0.1v-0.1V38v-0.2v-0.1l-0.1-0.1v-0.1v-0.1v-0.1v-0.1l-0.1-0.1v-0.2l-0.1-0.1v-0.2v-0.1v-0.21v-0.2v-0.21v-0.1
	l-0.1-0.21v-0.1v-0.1v-0.1v-0.1v-0.1v-0.2v-0.1l-0.51,0.1l-0.2,0.1l-0.31,0.1h-0.1h-0.1h-0.1h-0.41h-0.1h-0.21h-0.21l-0.41,0.1h-0.1
	h-0.1l-0.31,0.1h-0.1h-0.1l-0.2,0.1l-0.1,0.1h-0.1l-0.1,0.1h-0.1h-0.1h-0.1h-0.1h-0.21h-0.1l-0.1,0.1l-0.21,0.1h-0.1h-0.1l-0.1,0.1
	h-0.1h-0.1h-0.2h-0.21l-0.1,0.1l-0.21-0.1h-0.1h-0.2l-0.21-0.1h-0.1l-0.1-0.1h-0.2h-0.1l-0.1-0.1h-0.21h-0.1l-0.1-0.1h-0.1h-0.1
	h-0.1h-0.1v0.1v0.1h-0.1v0.1h-0.1v0.1l-0.1-0.1h-0.1h-0.1h-0.1h-0.1v-0.1h-0.1h-0.1h-0.1h-0.1v-0.1h-0.1v0.1h-0.1v0.1h-0.1h-0.1
	h-0.1v0.1h-0.1h-0.1v0.1v0.1h-0.1v0.1h-0.1v0.1v0.1h-0.1v0.1v0.1v0.1h-0.1h-0.1v0.1h-0.1h-0.1v0.1h0.1v0.1l-0.1,0.1h0.1v0.1h-0.1
	h-0.1v0.1v0.1v0.1h-0.1H7.4H7.3l-0.1,0.1H7.1h-0.1h-0.1v-0.1v-0.1h-0.1h-0.1h-0.1v-0.1h-0.1l-0.1-0.1v-0.1h-0.1h-0.1v-0.1v-0.1v-0.1
	h-0.1v0.1h-0.1h-0.1h-0.1v0.1h-0.1v0.1h-0.1h-0.1v0.1h-0.1v0.1v0.1h-0.1h-0.1v0.1h-0.2v0.1l-0.1-0.21v-0.1h-0.1v-0.1h-0.1v-0.1v-0.1
	v-0.1h-0.1l-0.2,0.1h-0.1h-0.1v-0.1h-0.1l-0.1-0.1v-0.1l-0.1-0.1v-0.1h-0.1l-0.1-0.1l-0.21-0.1h-0.1H3.2v0.1v0.1H3.1H3v0.1H2.9v0.1
	h-0.1h-0.1l-0.1,0.1v-0.1h-0.1h-0.1h-0.1l-0.31-0.51l-0.1-0.1v-0.21v-0.1l0.1-0.1v-0.1l-0.1-0.1l-0.1-0.1v-0.1v-0.1l-0.1-0.21v-0.1
	v-0.1v-0.2v-0.1v-0.1v-0.1v-0.1V34v-0.1v-0.21v-0.1l-0.1-0.1v-0.1v-0.21v-0.1v-0.1l-0.1-0.1v-0.1v-0.1l-0.1-0.21v-0.1v-0.1v-0.2
	v-0.1v-0.2l-0.1-0.41l-0.1-0.21l-0.1-0.1v-0.1v-0.1v-0.1v-0.1v-0.1h0.1h0.1h0.1v-0.1v-0.1v-0.21V30v-0.1l0.1-0.1v-0.1v-0.1h0.1v-0.1
	v-0.1v-0.1h0.1v-0.1v-0.1v-0.1v-0.1v-0.1v-0.1h0.1v-0.1h0.1h0.1h0.1h0.1h0.1l0.1-0.1h0.1l0.1-0.1v-0.1v-0.1v-0.1h-0.1l-0.1-0.1
	l-0.1-0.1v-0.1v-0.1v-0.1h-0.1v-0.1l-0.1-0.1l0.1-0.1v-0.1l0.1-0.1l0.1-0.1h0.1v-0.1v-0.1h0.1v-0.1h0.1v-0.1v-0.1v-0.1v-0.1l0.1-0.1
	v-0.1v-0.1v-0.1l0.1-0.1l-0.1-0.1v-0.1v-0.1v-0.1v-0.1v-0.1h0.1v-0.2v-0.1h-0.1v-0.1l-0.1-0.1v-0.21l0.1-0.1v-0.1v-0.1v-0.1v-0.1
	v-0.1v-0.1l0.1-0.1l-0.1-0.1v-0.1v-0.1l-0.1-0.1l-0.1-0.1l-0.1-0.1l-0.1-0.1l-0.1-0.1h-0.1v-0.1h-0.1v-0.1l0.1-0.1v-0.1l0.1-0.1
	v-0.1v-0.1l-0.1-0.1v-0.1v-0.1v-0.1l-0.1-0.1v-0.1v-0.21l-0.1-0.1v-0.21h-0.1v-0.1v-0.1l-0.1-0.1v-0.1l-0.1-0.1v-0.1h0.1v-0.1v-0.1
	l-0.1-0.1v-0.1v-0.1l-0.1-0.1v-0.1v-0.1v-0.1v-0.1v-0.1l-0.1-0.1v-0.1l-0.1-0.1v-0.1v-0.1l-0.1-0.1v-0.1v-0.1v-0.1v-0.1l-0.1-0.1
	v-0.1l0.1-0.1v-0.1h0.1v-0.1l-0.1-0.1v-0.1v-0.1v-0.1v-0.1h-0.1l-0.1-0.1h-0.1l-0.1-0.1v-0.1l0.1-0.1l0.1-0.1h0.1v-0.1l0.1-0.1v-0.1
	h0.1h0.1h0.1h0.21h0.1h0.1l0.1,0.1h0.1v-0.1l-0.1-0.1v-0.1v-0.1v-0.1l-0.1-0.21v-0.1v-0.1v-0.1v-0.1l0.1-0.21v-0.1v-0.1v-0.1v-0.1
	h-0.1v-0.1v-0.1v-0.1h0.1l0.1-0.1h0.1v-0.1h0.1l0.1-0.1v-0.1l0.1-0.1v-0.1l0.1-0.1h0.1l0.1-0.1v-0.1v-0.1v-0.1h3.28l-0.1,0.1h-0.1
	v0.1l-0.1,0.1l-0.1,0.1v0.1h-0.1v0.1l0.1,0.1v0.1l0.1,0.1h0.1h0.1l0.1-0.1h0.1l0.1-0.1h0.1l0.1-0.1h0.1l0.1-0.1h0.1l0.1-0.1h0.1h0.1
	h0.1h0.1h0.1H7.61z"/>
</svg>
