<?xml version="1.0" encoding="utf-8"?>
<!-- Generator: Adobe Illustrator 24.2.1, SVG Export Plug-In . SVG Version: 6.00 Build 0)  -->
<svg version="1.1" id="Layer_1" xmlns="http://www.w3.org/2000/svg" xmlns:xlink="http://www.w3.org/1999/xlink" x="0px" y="0px"
	 viewBox="0 0 97.23 97.23" style="enable-background:new 0 0 97.23 97.23;" xml:space="preserve">
<style type="text/css">
	.st0{fill-rule:evenodd;clip-rule:evenodd;fill:#5CB252;}
</style>
<polygon class="st0" points="78.94,13.83 78.94,13.99 79.1,14.14 79.1,14.3 79.1,14.45 79.25,14.6 79.4,14.6 79.56,14.6 79.71,14.6 
	79.87,14.6 79.87,14.76 80.02,14.76 80.02,14.91 80.18,15.07 80.18,15.22 80.33,15.38 80.33,15.53 80.49,15.69 80.49,15.84 
	80.64,16 80.64,16.15 80.64,16.31 80.8,16.31 80.8,16.46 80.95,16.61 80.95,16.77 80.95,16.92 80.95,17.08 81.11,17.08 81.11,17.23 
	81.26,17.39 81.26,17.23 81.41,17.23 81.57,17.23 81.57,17.08 81.72,17.08 81.88,17.08 82.03,17.08 82.03,16.92 82.19,16.92 
	82.19,16.77 82.34,16.77 82.5,16.77 82.65,16.92 82.81,17.08 82.96,17.08 83.11,17.23 83.11,17.08 83.27,17.08 83.42,17.08 
	83.58,17.08 83.73,17.08 83.73,17.23 83.89,17.23 84.04,17.23 84.2,17.54 84.04,17.54 84.04,17.7 84.2,17.7 84.2,17.85 84.04,17.85 
	84.2,17.85 84.2,18.01 84.04,18.16 84.2,18.31 84.2,18.47 84.2,18.62 84.04,18.78 84.04,18.93 84.04,19.09 83.89,19.09 83.73,19.24 
	83.58,19.4 83.58,19.55 83.42,19.71 83.58,19.71 83.58,19.86 83.58,20.01 83.58,20.17 83.58,20.32 83.73,20.32 83.58,20.32 
	83.58,20.48 83.58,20.63 83.58,20.79 83.58,20.94 83.58,21.1 83.42,21.1 83.42,21.25 83.42,21.41 83.42,21.56 83.27,21.56 
	83.27,21.72 83.42,21.72 83.42,21.87 83.42,22.02 83.42,22.18 83.42,22.33 83.58,22.49 83.58,22.64 83.42,22.64 83.42,22.8 
	83.27,22.8 83.27,22.95 83.11,22.95 82.96,22.8 82.96,22.95 82.81,22.95 82.65,22.8 82.65,22.95 82.5,22.95 82.5,22.8 82.34,22.64 
	82.19,22.64 82.03,22.49 81.88,22.33 81.72,22.33 81.72,22.18 81.57,22.18 81.41,22.18 81.41,22.02 81.26,22.02 81.11,21.87 
	81.11,21.72 80.95,21.72 80.95,21.56 80.8,21.56 80.64,21.56 80.64,21.72 80.49,21.72 80.33,21.87 80.18,21.87 80.02,22.02 
	79.87,22.18 79.71,22.33 79.56,22.33 79.25,22.64 79.1,22.64 78.79,22.64 78.63,22.64 78.48,22.64 78.32,22.64 78.17,22.8 
	78.01,22.64 77.86,22.64 77.55,22.64 77.39,22.64 77.24,22.64 77.09,22.64 76.93,22.64 76.78,22.49 76.62,22.49 76.47,22.49 
	76.31,22.49 76.16,22.49 76,22.49 75.85,22.49 75.85,22.33 75.69,22.33 75.54,22.49 75.38,22.33 75.23,22.33 75.08,22.33 
	74.92,22.33 74.92,22.18 74.77,22.02 74.61,22.02 74.46,22.02 74.3,22.02 74.15,22.02 73.99,22.02 73.84,22.02 73.84,21.87 
	73.68,21.87 73.68,21.72 73.68,21.56 73.68,21.41 73.53,21.41 73.38,21.41 73.38,21.56 73.22,21.56 73.07,21.56 72.91,21.56 
	72.76,21.41 72.6,21.41 72.45,21.41 72.29,21.41 72.29,21.25 72.14,21.25 71.98,21.25 71.83,21.1 71.67,21.1 71.67,20.94 
	71.52,20.94 71.37,20.94 71.37,21.1 71.21,21.1 71.06,21.1 70.9,21.1 70.75,21.1 70.59,21.1 70.59,20.94 70.59,21.1 70.44,21.1 
	70.44,20.94 70.28,20.94 70.28,20.79 70.13,20.79 69.82,20.94 69.66,20.94 69.51,20.94 69.36,20.94 69.2,20.94 69.05,20.94 
	68.89,20.94 68.89,20.79 68.74,20.79 68.58,20.79 68.43,20.79 68.27,20.79 68.12,20.79 68.12,20.94 67.96,20.94 67.81,20.94 
	67.81,20.79 67.66,20.79 67.66,20.94 67.66,20.79 67.66,20.94 67.5,20.94 67.35,20.94 67.19,20.94 67.19,21.1 67.04,21.1 
	67.04,20.94 66.88,20.94 66.88,20.79 66.73,20.79 66.57,20.79 66.57,20.94 66.42,20.94 66.42,21.1 66.26,21.1 66.26,21.25 
	66.11,21.25 66.11,21.41 65.95,21.41 65.95,21.56 65.8,21.56 65.8,21.72 65.65,21.72 65.49,21.72 65.34,21.72 65.34,21.87 
	65.18,21.87 65.18,22.02 65.34,22.02 65.18,22.02 65.18,22.18 65.18,22.02 65.03,22.02 64.87,22.02 65.03,22.02 65.03,22.18 
	64.87,22.18 64.72,22.18 64.56,22.33 64.41,22.33 64.25,22.33 64.1,22.33 63.95,22.33 63.95,22.49 63.79,22.49 63.64,22.64 
	63.48,22.64 63.48,22.8 63.17,22.95 63.02,22.95 62.86,22.95 62.71,22.95 62.55,22.95 62.09,22.95 61.94,22.95 61.78,23.11 
	61.63,23.11 61.47,23.11 61.32,23.11 61.32,23.26 61.32,23.42 61.16,23.42 61.16,23.57 61.16,23.73 61.16,23.88 61.16,24.03 
	61.16,24.19 61.01,24.19 61.01,24.34 60.85,24.34 60.7,24.34 60.7,24.5 60.54,24.5 60.54,24.65 60.7,24.65 60.54,24.65 60.7,24.81 
	60.54,24.81 60.54,24.96 60.39,24.96 60.39,25.12 60.39,25.27 60.23,25.27 60.23,25.43 60.08,25.58 59.93,25.58 59.93,25.73 
	59.77,25.73 59.77,25.89 59.77,26.04 59.62,26.04 59.77,26.2 59.77,26.35 59.62,26.35 59.62,26.51 59.46,26.51 59.46,26.66 
	59.46,26.82 59.46,26.97 59.31,26.97 59.31,27.13 59.31,27.28 59.46,27.28 59.46,27.44 59.31,27.44 59.46,27.44 59.46,27.59 
	59.31,27.59 59.31,27.44 59.31,27.59 59.15,27.59 59.31,27.59 59.31,27.74 59.15,27.74 59.31,27.74 59.31,27.9 59.31,28.05 
	59.31,28.21 59.15,28.21 59,28.21 58.84,28.21 58.84,28.36 58.84,28.52 58.84,28.67 58.84,28.83 58.69,28.83 58.69,28.67 
	58.53,28.67 58.38,28.67 58.38,28.83 58.38,28.67 58.38,28.83 58.53,28.83 58.38,28.83 58.38,28.98 58.38,29.14 58.23,29.14 
	58.23,29.29 58.07,29.29 58.07,29.44 57.92,29.44 57.76,29.44 57.76,29.6 57.76,29.75 57.61,29.75 57.61,29.91 57.45,29.91 
	57.61,29.91 57.61,30.06 57.76,30.06 57.76,30.22 57.76,30.37 57.92,30.37 57.92,30.53 58.07,30.53 58.07,30.68 58.23,30.68 
	58.38,30.68 58.38,30.84 58.23,30.84 58.38,30.84 58.38,30.99 58.38,31.15 58.23,31.15 58.23,31.3 58.38,31.3 58.38,31.45 
	58.53,31.45 58.69,31.45 58.69,31.61 58.84,31.61 58.84,31.76 59,31.76 59,31.92 59,32.07 59.15,32.07 59.15,32.23 59,32.23 
	59,32.38 58.84,32.23 58.84,32.07 58.69,32.07 58.53,32.07 58.53,32.23 58.69,32.23 58.69,32.38 58.53,32.54 58.38,32.54 
	58.38,32.85 58.38,33 58.23,33 58.23,33.15 58.23,33.31 58.07,33.46 58.07,33.62 57.92,33.62 57.61,33.62 57.45,33.77 57.3,33.77 
	57.14,33.77 57.14,33.62 56.99,33.77 56.83,33.93 56.68,33.93 56.68,34.08 56.52,34.24 56.37,34.39 56.52,34.55 56.52,34.7 
	56.68,34.7 56.68,34.86 56.52,35.01 56.68,35.01 56.83,35.16 56.83,35.32 56.68,35.32 56.68,35.47 56.52,35.47 56.52,35.63 
	56.52,35.78 56.68,35.78 56.68,35.94 56.68,36.25 56.68,36.4 56.83,36.56 56.68,36.71 56.52,36.71 56.37,36.71 56.37,36.87 
	56.06,36.87 56.22,37.02 56.06,37.33 55.91,37.33 55.75,37.48 55.6,37.48 55.44,37.48 55.44,37.64 55.29,37.64 55.29,37.79 
	55.29,37.95 55.13,37.95 55.13,38.1 55.29,38.1 55.13,38.26 54.98,38.26 54.82,38.1 54.82,38.26 54.67,38.41 54.67,38.57 
	54.67,38.72 54.51,38.72 54.51,38.87 54.36,39.03 54.21,39.03 54.21,39.18 54.05,39.18 54.05,39.34 53.9,39.49 53.74,39.65 
	53.74,39.8 53.59,39.8 53.59,39.96 53.59,40.11 53.43,40.11 53.43,40.27 53.59,40.27 53.74,40.42 53.9,40.42 53.9,40.58 
	53.74,40.58 53.74,40.73 53.74,40.88 53.74,41.04 53.59,41.04 53.59,41.19 53.43,41.19 53.43,41.04 53.28,41.04 53.12,41.19 
	52.97,41.19 52.81,41.19 52.51,41.19 52.51,41.35 52.51,41.5 52.66,41.66 52.66,41.81 52.81,41.81 52.81,41.66 52.97,41.66 
	52.97,41.81 52.81,41.97 52.81,42.12 52.66,42.43 52.66,42.58 52.51,42.58 52.51,42.74 52.51,42.89 52.35,43.05 52.35,43.2 
	52.51,43.2 52.66,43.36 52.66,43.51 52.81,43.51 52.81,43.67 52.66,43.67 52.51,43.82 52.2,43.98 52.04,44.13 52.04,44.29 
	52.04,44.44 52.2,44.59 52.35,44.75 52.51,44.75 52.51,44.9 52.66,44.9 52.66,45.06 52.81,45.06 52.81,45.21 52.81,45.37 
	52.81,45.52 52.81,45.68 52.81,45.83 52.81,45.99 52.97,46.14 53.12,46.3 53.12,46.45 53.12,46.6 52.81,46.76 52.66,46.76 
	52.66,46.91 52.51,46.91 52.51,47.07 52.35,47.22 52.2,47.22 52.2,47.38 52.2,47.53 52.04,47.69 52.04,47.84 52.04,48 52.04,48.15 
	52.04,48.3 52.04,48.46 52.04,48.61 51.89,48.61 51.89,48.77 51.73,48.77 51.73,48.92 51.58,48.92 51.42,48.92 51.42,49.08 
	51.42,49.23 51.42,49.39 51.27,49.39 51.11,49.39 51.11,49.54 51.11,49.7 51.27,49.7 51.27,49.85 51.42,49.85 51.58,49.85 
	51.58,50.01 51.58,50.16 51.42,50.16 51.42,50.31 51.27,50.31 51.27,50.47 51.11,50.47 51.11,50.62 51.11,50.78 51.11,50.93 
	50.96,50.93 50.96,51.09 50.8,51.09 50.65,51.09 50.65,51.24 50.8,51.24 50.8,51.4 50.8,51.55 50.96,51.71 50.8,51.71 50.8,51.86 
	50.8,52.02 50.8,52.17 50.8,52.32 50.96,52.32 50.8,52.48 50.65,52.48 50.65,52.63 50.5,52.63 50.5,52.79 50.5,52.94 50.34,52.94 
	50.34,53.1 50.5,53.1 50.65,53.1 50.65,53.25 50.65,53.41 50.5,53.56 50.65,53.56 50.8,53.56 50.8,53.72 50.8,53.87 50.8,54.02 
	50.65,54.02 50.65,54.18 50.8,54.18 50.8,54.33 50.96,54.33 50.96,54.49 51.11,54.49 51.11,54.64 50.96,54.64 51.11,54.8 
	50.96,54.8 50.96,54.95 50.8,54.95 50.8,55.11 50.65,55.11 50.65,54.95 50.5,54.95 50.34,54.95 50.34,54.8 50.19,54.8 50.19,54.95 
	50.03,54.95 50.03,55.11 49.88,55.11 49.88,55.26 49.88,55.11 49.72,55.11 49.72,55.26 49.72,55.42 49.88,55.42 50.03,55.42 
	50.03,55.57 50.03,55.73 50.03,55.88 50.19,55.88 50.19,55.73 50.19,55.88 50.34,55.88 50.34,56.03 50.5,56.03 50.65,56.03 
	50.65,56.19 50.8,56.19 50.8,56.03 50.8,56.19 50.8,56.34 50.65,56.34 50.8,56.5 50.65,56.5 50.65,56.65 50.5,56.65 50.65,56.65 
	50.65,56.81 50.65,56.65 50.8,56.65 50.8,56.81 50.65,56.81 50.5,56.81 50.65,56.96 50.5,56.96 50.5,57.12 50.65,57.12 50.5,57.12 
	50.65,57.27 50.5,57.27 50.34,57.27 50.34,57.43 50.19,57.43 50.03,57.43 50.03,57.58 50.19,57.58 50.34,57.58 50.34,57.74 
	50.5,57.74 50.34,57.74 50.34,57.89 50.5,57.89 50.34,57.89 50.34,58.04 50.34,58.2 50.34,58.35 50.19,58.35 50.03,58.35 
	50.19,58.35 50.19,58.51 50.19,58.66 50.34,58.66 50.34,58.82 50.19,58.82 50.03,58.82 50.03,58.97 49.88,58.97 49.88,59.13 
	49.88,59.28 49.88,59.44 50.03,59.44 50.19,59.44 50.19,59.59 50.19,59.74 50.03,59.74 49.88,59.74 49.88,59.9 50.03,59.9 
	50.19,59.9 50.19,60.05 50.34,60.05 50.34,59.9 50.5,59.9 50.5,59.74 50.65,59.74 50.65,59.59 50.8,59.59 50.96,59.59 51.11,59.59 
	51.11,59.44 51.27,59.44 51.27,59.59 51.42,59.59 51.58,59.59 51.58,59.44 51.73,59.44 51.73,59.59 51.73,59.74 51.89,59.74 
	51.73,59.74 51.73,59.9 51.58,59.9 51.58,60.05 51.58,60.21 51.42,60.21 51.42,60.36 51.58,60.36 51.73,60.36 51.73,60.52 
	51.73,60.67 51.58,60.67 51.42,60.67 51.42,60.83 51.58,60.83 51.73,60.83 51.89,60.83 51.89,60.98 52.04,60.98 52.04,61.14 
	51.89,61.14 51.89,61.29 51.89,61.45 51.73,61.45 51.73,61.6 51.73,61.75 51.89,61.75 52.04,61.75 52.04,61.6 52.04,61.75 
	52.2,61.75 52.2,61.91 52.2,62.06 52.2,62.22 52.04,62.22 51.89,62.22 51.73,62.22 51.73,62.37 51.58,62.37 51.42,62.37 
	51.42,62.53 51.58,62.53 51.73,62.68 51.73,62.53 51.89,62.53 51.89,62.68 51.89,62.84 52.04,62.99 52.2,62.99 52.35,62.99 
	52.35,63.15 52.2,63.15 52.2,63.3 52.35,63.3 52.35,63.61 52.35,63.76 52.2,63.76 52.04,63.76 52.04,63.92 52.2,63.92 52.2,64.07 
	52.04,64.07 52.04,64.23 51.89,64.23 51.89,64.07 51.89,63.92 51.73,63.92 51.58,64.07 51.58,64.23 51.73,64.23 51.89,64.23 
	51.89,64.38 52.04,64.38 52.04,64.54 51.89,64.54 51.73,64.69 51.73,64.85 51.89,64.85 52.04,64.85 52.04,65 52.2,65 52.35,65 
	52.35,65.16 52.51,65.16 52.51,65.31 52.51,65.46 52.35,65.46 52.35,65.62 52.2,65.62 52.2,65.77 52.04,65.93 52.2,65.93 
	52.2,66.08 52.04,66.08 52.04,66.24 52.04,66.39 52.04,66.55 51.89,66.7 51.89,66.86 52.04,66.86 52.2,66.7 52.2,66.55 52.35,66.55 
	52.35,66.7 52.51,66.7 52.66,66.7 52.66,66.86 52.66,67.01 52.81,67.01 52.81,66.86 52.81,66.7 52.97,66.55 53.12,66.55 
	53.28,66.39 53.43,66.24 53.59,66.24 53.59,66.08 53.74,66.08 53.74,65.93 53.9,65.93 54.05,65.93 54.05,66.08 54.05,66.24 
	54.21,66.24 54.21,66.39 54.21,66.55 54.21,66.7 54.21,66.86 54.21,67.01 54.21,67.16 54.05,67.32 53.9,67.32 53.9,67.47 
	53.74,67.47 53.74,67.63 53.9,67.78 53.9,67.94 54.05,67.94 54.21,67.94 54.36,68.09 54.36,68.25 54.36,68.4 54.21,68.56 
	54.05,68.71 53.9,68.71 53.9,68.87 53.74,68.87 53.59,68.87 53.43,68.87 53.59,68.87 53.59,69.02 53.59,69.17 53.74,69.17 
	53.9,69.33 53.9,69.48 54.05,69.48 54.05,69.64 54.21,69.64 54.36,69.64 54.51,69.48 54.67,69.48 54.82,69.48 54.82,69.64 
	54.98,69.64 54.98,69.48 55.13,69.48 55.13,69.64 55.29,69.64 55.44,69.64 55.44,69.79 55.6,69.79 55.75,69.79 55.91,69.64 
	55.91,69.48 55.75,69.48 55.6,69.48 55.6,69.33 55.75,69.17 55.91,69.17 56.06,69.17 56.06,69.02 56.22,69.02 56.37,69.02 
	56.37,69.33 56.37,69.48 56.37,69.64 56.52,69.64 56.52,69.79 56.52,69.64 56.68,69.64 56.68,69.48 56.68,69.33 56.83,69.33 
	56.99,69.33 57.14,69.33 57.14,69.48 57.3,69.48 57.61,69.64 57.76,69.64 57.76,69.95 57.76,70.1 57.76,70.41 57.92,70.41 
	57.92,70.57 58.07,70.72 58.07,70.88 58.23,71.03 58.23,71.18 58.07,71.18 58.07,71.34 58.38,71.49 58.38,71.65 58.23,71.65 
	58.23,71.8 58.07,71.8 57.92,71.96 57.76,71.96 57.76,72.11 57.61,72.11 57.45,72.11 57.45,72.27 57.3,72.27 57.14,72.27 
	56.99,72.42 56.83,72.42 56.68,72.58 56.68,72.73 56.52,72.88 56.37,73.04 56.22,73.04 56.22,73.19 56.06,73.19 55.91,73.19 
	55.91,73.35 55.91,73.5 56.06,73.5 56.06,73.81 56.06,73.97 55.91,73.97 55.91,74.12 55.75,74.12 55.6,74.12 55.44,74.12 
	55.29,74.12 55.29,73.97 55.13,73.97 54.98,73.97 54.98,73.81 54.82,73.81 54.21,73.81 54.05,73.81 53.9,73.81 53.74,73.81 
	53.59,73.81 53.28,73.81 53.12,73.97 52.81,73.97 52.66,73.97 52.51,73.97 52.2,73.97 52.04,73.97 51.89,73.97 51.73,73.97 
	51.58,73.97 51.42,73.97 51.42,74.12 51.42,74.28 51.27,74.28 51.11,74.12 50.96,74.12 50.96,73.97 50.96,74.12 50.8,74.12 
	50.65,74.28 50.5,74.28 50.34,74.43 50.19,74.43 50.03,74.43 49.88,74.43 49.72,74.43 49.57,74.28 49.41,74.28 49.26,74.12 
	49.1,74.12 48.95,73.97 48.8,73.66 48.64,73.66 48.33,74.89 48.18,75.2 48.18,75.36 48.02,75.82 47.87,76.13 47.71,76.29 
	47.71,76.44 47.56,76.59 47.4,76.9 47.4,77.21 47.4,77.37 47.4,77.52 47.4,77.68 47.4,77.83 47.25,77.99 47.25,78.14 47.4,78.3 
	47.4,78.45 47.56,78.45 47.71,78.45 47.71,78.6 47.71,78.76 47.56,78.76 47.25,79.53 47.25,79.69 47.09,79.84 47.09,80 46.79,80.77 
	46.48,81.54 46.32,81.54 46.48,81.7 46.63,81.85 46.79,82.01 46.94,82.16 46.94,82.31 47.09,82.47 47.25,82.47 47.4,82.62 
	47.4,82.78 47.56,82.93 47.56,83.09 47.56,83.24 47.56,83.4 47.56,83.55 47.56,83.71 47.71,83.86 47.71,84.02 47.71,84.17 
	47.71,84.32 47.71,84.48 47.71,84.63 47.71,84.79 47.71,84.94 47.71,85.1 47.71,85.25 47.71,85.41 47.87,85.41 47.87,85.72 
	48.02,85.87 48.18,86.02 48.18,86.18 48.18,86.33 48.02,86.33 48.02,86.49 47.87,86.49 47.71,86.49 47.56,86.64 47.4,86.64 
	47.4,86.8 47.25,86.95 47.4,87.26 47.56,87.42 47.56,87.57 47.71,87.73 47.87,87.88 48.02,87.88 48.18,88.03 48.33,88.03 
	48.49,88.03 48.64,88.03 48.8,87.88 48.95,87.88 49.1,87.73 49.26,87.73 49.41,87.73 49.57,87.88 49.72,88.03 49.88,88.19 
	50.03,88.34 50.03,88.65 50.03,88.81 50.19,88.96 50.19,89.12 50.34,89.27 50.34,89.43 50.5,89.58 50.5,89.73 50.65,89.89 
	50.65,90.04 50.65,90.2 50.65,90.35 50.65,90.51 50.65,90.66 50.8,90.82 50.8,90.97 50.8,91.13 50.8,91.28 50.8,91.44 50.8,91.59 
	50.65,91.74 50.65,91.9 50.5,91.9 50.34,91.9 50.34,92.05 50.34,92.21 50.5,92.21 50.65,92.36 50.5,92.52 50.5,92.67 50.34,92.67 
	50.19,92.83 50.19,92.98 50.19,93.14 50.34,93.29 50.5,93.29 50.65,93.29 50.5,93.44 50.5,93.6 50.34,94.22 50.34,94.53 
	50.19,94.84 50.03,95.3 49.72,96.85 49.41,96.69 49.26,96.69 49.1,96.69 48.95,96.54 48.64,96.54 48.49,96.54 48.33,96.54 
	48.18,96.54 48.02,96.54 47.87,96.38 47.71,96.38 47.56,96.38 47.56,96.23 47.4,96.07 47.4,95.92 47.4,95.76 47.4,95.45 47.4,95.3 
	47.25,95.15 47.25,94.99 47.25,94.84 47.09,94.68 47.09,94.53 47.09,94.37 46.94,94.37 46.94,94.22 46.79,94.06 46.79,93.91 
	46.63,93.91 46.48,93.91 46.32,93.91 46.32,93.75 46.17,93.75 46.32,93.6 46.32,93.44 46.17,93.44 46.17,93.29 46.01,93.29 
	46.17,93.29 46.17,93.14 46.01,93.14 45.86,93.14 45.86,92.98 45.7,92.98 45.7,92.83 45.7,92.67 45.55,92.83 45.55,92.67 
	45.39,92.67 45.55,92.52 45.39,92.52 45.39,92.36 45.24,92.36 45.24,92.21 45.08,92.21 45.08,92.05 45.08,91.9 44.93,91.9 
	44.78,91.9 44.62,91.9 44.47,91.9 44.47,92.05 44.31,92.05 44.31,91.9 44.16,91.9 44,91.9 44,91.74 44,91.9 43.85,91.9 43.85,91.74 
	43.69,91.74 43.69,91.9 43.54,91.9 43.38,91.9 43.23,91.9 43.08,91.9 42.92,91.9 42.77,91.9 42.61,91.9 42.46,91.9 42.3,91.9 
	42.3,91.74 42.15,91.9 42.15,91.74 41.99,91.74 41.84,91.74 41.84,91.9 41.68,91.9 41.68,92.05 41.53,92.05 41.53,92.21 
	41.37,92.21 41.37,92.05 41.22,92.05 41.07,92.05 40.91,92.05 40.76,92.05 40.76,92.21 40.6,92.21 40.6,92.05 40.45,92.05 
	40.29,92.05 40.29,91.9 40.45,91.9 40.29,91.9 40.14,91.9 39.98,91.9 39.83,91.9 39.83,91.74 39.67,91.74 39.67,91.59 39.67,91.44 
	39.52,91.44 39.52,91.28 39.36,91.13 39.21,91.13 39.21,90.97 39.06,90.97 38.9,90.82 38.75,90.82 38.59,90.82 38.44,90.82 
	38.44,90.66 38.28,90.66 38.28,90.51 38.13,90.51 38.28,90.51 38.13,90.35 38.13,90.2 37.97,90.2 37.97,90.04 37.82,90.04 
	37.82,90.2 37.66,90.2 37.66,90.04 37.51,89.89 37.36,89.89 37.2,89.89 37.2,89.73 37.05,89.58 36.89,89.58 36.74,89.58 
	36.58,89.58 36.43,89.58 36.27,89.58 36.12,89.58 35.96,89.58 35.81,89.58 35.65,89.58 35.5,89.58 35.5,89.43 35.35,89.43 
	35.35,89.27 35.19,89.27 35.19,89.12 35.04,88.96 34.88,88.34 34.73,88.19 34.57,88.03 34.57,87.88 34.42,87.57 34.42,87.42 
	34.26,87.26 34.26,87.11 34.26,86.8 34.26,86.64 34.26,86.49 34.26,86.33 34.26,86.18 34.26,86.02 34.11,85.87 34.11,85.72 
	33.95,85.56 33.8,85.56 33.64,85.41 33.49,85.41 33.34,85.41 33.18,85.25 33.18,85.1 33.03,85.1 32.87,84.79 32.72,84.63 
	32.56,84.48 32.41,84.32 32.41,84.17 32.25,84.02 32.1,83.71 31.94,83.55 31.79,83.4 31.64,83.24 31.48,83.09 31.33,82.93 
	31.17,82.62 31.02,82.47 30.86,82.31 30.71,82.16 30.71,82.01 30.55,82.01 30.55,81.85 30.4,81.54 30.4,81.39 30.24,81.23 
	30.09,81.08 30.09,80.92 29.93,80.61 29.78,80.46 29.63,80.3 29.47,80 29.32,80 29.16,79.84 28.85,79.53 28.7,79.53 28.54,79.38 
	28.39,79.22 28.23,79.07 28.08,78.91 27.92,78.91 27.77,78.76 27.77,78.6 27.46,78.6 27.46,78.45 27.31,78.45 27.31,78.3 
	27.15,78.3 26.84,78.3 26.53,78.3 26.38,78.3 26.38,78.14 26.22,78.14 25.76,77.83 25.61,77.68 25.45,77.52 25.45,77.37 25.3,77.06 
	25.14,76.9 25.14,76.75 25.14,76.59 25.3,76.44 25.45,76.13 25.45,75.98 25.45,75.82 25.61,75.67 25.61,75.36 25.61,75.2 
	25.61,75.05 25.61,74.89 25.45,74.89 25.45,74.74 25.45,74.59 25.3,74.28 25.14,74.12 24.99,73.81 24.99,73.66 24.83,73.35 
	24.83,73.19 24.68,73.04 24.52,72.88 24.37,72.73 24.06,72.58 24.21,72.58 24.21,72.42 24.21,72.27 24.21,72.11 24.21,71.96 
	24.06,71.96 24.06,71.8 24.21,71.8 24.06,71.8 24.06,71.65 24.06,71.49 24.06,71.34 24.21,71.18 24.37,71.03 24.52,71.03 
	24.99,70.72 25.14,70.57 25.3,70.57 25.61,70.26 25.76,70.1 25.92,70.1 26.69,69.48 26.84,69.48 27.31,69.02 27.46,69.02 
	27.46,68.87 27.62,68.87 27.77,68.87 28.54,68.71 29.01,68.71 29.16,68.71 29.32,68.71 29.63,68.71 30.24,68.56 30.55,68.4 
	30.71,68.4 30.86,68.4 31.02,68.4 31.33,68.25 31.48,68.25 31.64,68.25 31.79,68.25 31.79,68.09 31.94,67.94 31.94,67.78 
	31.94,67.63 31.94,67.47 31.79,67.47 31.64,67.47 31.48,67.47 31.33,67.63 31.17,67.63 31.02,67.78 30.86,67.78 30.55,67.78 
	30.4,67.78 30.24,67.94 30.09,68.09 29.93,68.25 29.78,68.25 29.63,68.25 29.63,68.09 29.78,67.94 29.78,67.78 29.78,67.63 
	29.47,67.47 29.32,67.32 29.32,67.16 29.32,67.01 29.63,66.86 29.78,66.7 29.93,66.55 30.09,66.39 30.09,66.24 29.93,66.24 
	29.93,66.08 29.78,66.08 29.47,66.24 29.16,66.39 29.01,66.39 28.85,66.39 28.54,66.39 28.39,66.39 28.39,66.24 28.23,66.24 
	28.23,66.08 28.23,65.93 28.39,65.93 28.54,65.93 28.7,65.93 28.7,65.77 28.85,65.77 28.85,65.62 28.85,65.46 28.7,65.16 
	28.54,65.16 28.54,65 28.54,64.85 28.39,64.69 28.39,64.54 28.39,64.38 28.23,64.23 28.23,64.07 28.23,63.92 28.23,63.76 
	28.39,63.76 28.39,63.61 28.54,63.61 28.7,63.61 28.85,63.92 29.01,63.92 29.16,64.07 29.32,64.07 29.47,63.92 29.63,63.92 
	29.63,63.76 29.63,63.61 29.63,63.3 29.63,63.15 29.47,62.99 29.32,62.99 29.16,62.99 29.01,62.99 29.01,63.15 28.85,63.3 
	28.7,63.3 28.7,63.45 28.54,63.3 28.54,63.15 28.7,62.99 28.7,62.84 28.7,62.68 28.54,62.68 28.54,62.53 28.39,62.53 28.23,62.68 
	28.08,62.53 27.92,62.53 27.92,62.37 27.92,62.06 27.92,61.91 27.77,61.91 27.62,61.75 27.62,61.45 27.46,61.45 27.46,61.29 
	27.31,61.29 27.31,61.14 27.15,61.14 27,61.14 26.84,61.14 26.69,61.14 26.69,60.98 26.53,60.98 26.53,60.83 26.53,60.67 
	26.53,60.52 26.38,60.36 26.38,60.21 26.22,60.21 26.07,60.05 25.76,59.9 25.76,59.74 25.61,59.74 25.61,59.59 25.61,59.44 
	25.76,59.28 26.07,59.28 26.07,59.13 26.07,58.97 25.92,58.97 25.45,59.13 25.3,59.13 25.3,59.28 25.14,59.28 25.14,59.44 
	25.14,59.59 25.14,59.74 24.99,59.74 24.99,59.9 24.83,60.05 24.52,60.36 24.52,60.52 24.37,60.52 24.21,60.52 24.06,60.52 
	23.91,60.52 23.75,60.21 23.6,60.05 23.44,59.9 23.6,59.74 23.75,59.74 24.21,59.74 24.37,59.74 24.52,59.74 24.52,59.59 
	24.68,59.59 24.52,59.59 24.52,59.44 24.37,59.28 24.37,59.13 24.37,58.66 24.37,58.51 24.37,58.2 24.37,58.04 24.52,57.89 
	25.14,57.74 25.3,57.74 25.45,57.74 25.45,57.58 25.61,57.58 25.45,57.58 25.45,57.43 24.99,57.12 24.83,57.12 24.83,56.96 
	24.68,56.65 24.68,56.34 24.68,56.19 24.83,56.03 24.99,55.88 25.14,55.88 25.3,55.88 25.45,55.73 25.45,55.57 25.45,55.42 
	25.3,55.26 25.14,55.26 24.99,55.26 24.83,55.26 24.68,55.26 24.52,55.11 24.52,54.95 24.52,54.8 24.52,54.64 24.21,54.18 
	24.21,54.02 24.21,53.87 24.37,53.72 24.52,53.72 24.68,53.56 24.68,53.41 24.68,53.25 24.68,53.1 24.83,52.94 24.99,52.79 
	24.99,52.63 25.14,52.63 25.14,52.48 25.14,52.32 25.14,52.17 24.99,52.17 24.99,52.02 24.99,51.86 24.99,51.71 24.83,51.55 
	24.83,51.4 24.68,51.24 24.52,51.09 24.37,51.09 24.21,51.09 24.06,51.09 23.91,51.09 23.91,50.93 23.75,50.93 23.6,50.78 
	23.44,50.78 23.29,50.78 22.98,50.78 22.82,50.62 22.67,50.62 22.51,50.47 22.51,50.31 22.36,50.31 22.36,50.16 22.36,50.01 
	22.2,50.01 22.2,49.85 22.05,49.7 21.9,49.54 21.74,49.39 21.59,49.08 21.43,49.08 21.43,48.92 21.28,48.92 21.12,48.92 
	20.97,48.77 20.81,48.61 20.66,48.61 20.2,48.3 19.89,48 19.73,47.84 19.58,47.84 19.42,47.69 19.27,47.69 19.27,47.84 19.11,47.84 
	18.96,48 18.96,48.15 18.96,48.46 18.96,48.61 18.96,48.77 19.11,48.92 19.11,49.08 19.27,49.08 19.42,49.08 19.58,49.08 
	19.73,48.92 19.89,49.08 19.89,49.23 19.89,49.39 19.73,49.54 19.58,49.54 19.11,49.85 18.96,50.01 18.8,50.16 18.65,50.16 
	18.34,50.16 18.19,50.16 18.19,50.31 18.03,50.31 17.88,50.47 17.88,50.62 17.72,50.62 17.57,50.62 17.57,50.78 17.26,50.78 
	17.1,50.93 16.95,51.09 16.79,51.24 16.48,51.4 16.18,51.55 16.18,51.71 16.02,51.71 15.87,51.71 15.56,51.55 15.4,51.55 
	15.25,51.4 15.09,51.4 15.09,51.55 14.63,51.55 14.32,51.71 14.17,51.71 14.01,51.86 13.86,51.86 13.7,51.86 13.7,52.02 
	13.55,51.86 13.39,51.86 13.24,51.86 13.08,51.86 12.93,51.86 12.93,51.71 12.93,51.55 13.08,51.55 13.08,51.4 13.08,51.24 
	13.24,51.24 13.24,51.09 13.24,50.93 13.08,50.93 13.08,50.78 13.08,50.62 13.08,50.47 12.93,50.47 12.93,50.31 12.77,50.31 
	12.77,50.16 12.93,50.16 12.93,50.31 13.08,50.31 13.24,50.31 13.39,50.31 13.55,50.31 13.55,50.16 13.55,50.01 13.39,50.01 
	13.39,49.85 13.55,49.85 13.7,49.85 13.86,49.85 14.01,49.85 14.17,49.85 14.17,49.7 13.86,49.54 13.7,49.54 13.7,49.39 13.7,49.08 
	13.86,49.08 13.86,48.92 13.7,48.92 13.7,48.77 13.55,48.77 13.55,48.61 13.55,48.46 13.7,48.46 13.86,48.46 13.86,48.61 
	14.01,48.61 14.17,48.61 14.32,48.61 14.47,48.61 14.47,48.46 14.32,48.46 14.32,48.3 14.17,48.3 14.01,48.15 14.01,48 14.01,47.84 
	13.86,47.84 13.86,47.69 14.01,47.53 14.01,47.38 14.17,47.38 14.17,47.53 14.17,47.69 14.17,47.84 14.32,47.84 14.32,48 
	14.32,47.84 14.47,47.84 14.63,47.84 14.78,47.84 14.78,47.69 14.63,47.69 14.63,47.53 14.63,47.38 14.63,47.22 14.47,47.22 
	14.47,47.07 14.63,47.07 14.63,46.91 14.78,46.91 14.94,46.91 14.94,46.76 15.09,46.76 15.25,46.76 15.25,46.6 15.09,46.45 
	15.09,46.3 15.25,46.3 15.25,46.14 15.4,46.14 15.4,45.99 15.4,45.83 15.25,45.83 15.09,45.83 15.09,45.99 14.94,45.83 14.78,45.68 
	14.63,45.68 14.47,45.52 14.47,45.37 14.63,45.37 14.78,45.52 14.94,45.52 15.09,45.52 15.25,45.52 15.25,45.37 15.4,45.37 
	15.56,45.37 15.71,45.37 15.87,45.21 15.87,45.37 16.02,45.37 16.02,45.21 16.02,45.06 15.87,45.06 15.87,44.9 15.71,44.9 
	15.71,45.06 15.56,45.06 15.56,45.21 15.4,45.21 15.25,45.21 15.09,45.21 15.09,45.06 14.94,45.06 14.78,45.06 14.78,44.9 
	14.94,44.9 14.94,44.75 15.09,44.75 15.25,44.75 15.4,44.59 15.4,44.75 15.56,44.75 15.56,44.59 15.4,44.44 15.25,44.44 
	14.94,44.29 14.78,44.29 14.63,44.29 14.63,44.13 14.78,44.13 14.78,43.98 14.63,43.98 14.63,43.82 14.47,43.82 14.47,43.67 
	14.32,43.67 14.17,43.67 14.01,43.67 14.01,43.51 14.17,43.51 14.17,43.36 14.32,43.36 14.32,43.2 14.47,43.2 14.63,43.2 
	14.63,43.05 14.47,43.05 14.32,43.05 14.32,43.2 14.17,43.2 14.17,43.05 14.01,43.05 14.01,42.89 14.17,42.74 14.17,42.58 
	14.17,42.43 14.17,42.28 14.17,42.12 14.32,42.12 14.32,41.97 14.47,41.81 14.32,41.81 14.32,41.66 14.17,41.66 14.01,41.5 
	14.01,41.35 14.17,41.35 14.32,41.35 14.47,41.35 14.63,41.35 14.78,41.35 14.78,41.19 14.78,41.04 14.78,40.88 14.94,40.73 
	15.09,40.73 15.09,40.58 15.25,40.58 15.09,40.58 15.09,40.42 14.94,40.27 15.09,40.27 15.09,40.11 15.25,40.11 15.25,39.96 
	15.25,39.8 15.4,39.8 15.56,39.8 15.56,39.65 15.56,39.49 15.56,39.34 15.71,39.34 15.71,39.18 15.56,39.18 15.56,39.03 
	15.56,38.87 15.71,38.87 15.71,38.72 15.87,38.72 15.87,38.57 15.71,38.57 15.71,38.72 15.56,38.72 15.56,38.57 15.56,38.41 
	15.56,38.26 15.4,38.26 15.4,38.1 15.56,38.1 15.56,37.95 15.4,37.95 15.25,37.95 15.25,37.79 15.25,37.64 15.25,37.48 15.09,37.48 
	15.09,37.33 15.25,37.33 15.25,37.17 15.09,37.17 14.94,37.02 14.94,36.87 14.78,36.87 14.78,37.02 14.63,37.02 14.63,37.17 
	14.63,37.33 14.47,37.33 14.32,37.33 14.32,37.48 14.47,37.48 14.47,37.64 14.32,37.64 14.32,37.48 14.17,37.48 14.17,37.64 
	14.01,37.64 14.17,37.79 14.01,37.79 14.01,37.95 13.86,37.79 13.86,37.64 13.7,37.64 13.7,37.48 13.7,37.33 13.7,37.17 
	13.55,37.17 13.55,37.02 13.7,37.02 13.7,36.87 13.86,36.87 14.01,36.87 13.86,36.87 13.86,36.71 14.01,36.71 14.01,36.56 
	13.86,36.56 14.01,36.4 14.17,36.4 14.17,36.25 14.17,36.09 14.32,36.09 14.47,36.09 14.47,35.94 14.47,35.78 14.47,35.63 
	14.32,35.63 14.32,35.47 14.32,35.32 14.47,35.47 14.63,35.47 14.63,35.32 14.78,35.32 14.78,35.47 14.94,35.32 14.94,35.16 
	15.09,35.16 15.09,35.01 15.09,34.86 14.94,34.86 14.94,34.7 15.09,34.7 15.09,34.86 15.25,34.86 15.4,34.86 15.56,34.86 
	15.56,34.7 15.71,34.7 15.87,34.7 16.02,34.7 16.18,34.7 16.33,34.7 16.48,34.7 16.64,34.7 16.79,34.7 16.79,34.55 16.95,34.55 
	16.95,34.39 17.1,34.39 17.1,34.55 17.26,34.55 17.41,34.55 17.57,34.7 17.57,34.55 17.57,34.39 17.72,34.39 17.88,34.39 
	17.88,34.55 17.88,34.39 17.88,34.24 18.03,34.24 18.03,34.39 18.03,34.55 18.19,34.55 18.19,34.7 18.19,34.55 18.34,34.55 
	18.34,34.7 18.49,34.7 18.65,34.7 18.65,34.86 18.8,34.86 18.8,34.7 18.8,34.55 18.96,34.55 18.96,34.7 19.11,34.7 19.11,34.86 
	19.27,34.86 19.27,34.7 19.27,34.86 19.42,34.86 19.42,34.7 19.58,34.7 19.58,34.86 19.73,34.86 19.73,35.01 19.58,35.01 
	19.73,35.01 19.73,35.16 19.73,35.01 19.73,35.16 19.89,35.16 19.89,35.01 20.04,35.01 20.2,35.01 20.35,35.01 20.5,35.16 
	20.66,35.16 20.81,35.16 20.81,35.01 20.81,35.16 20.81,35.01 20.97,35.01 20.97,34.86 21.12,34.86 21.28,34.86 21.12,34.86 
	21.12,34.7 21.28,34.7 21.43,34.7 21.59,34.55 21.59,34.39 21.59,34.24 21.74,34.24 21.74,34.08 21.74,33.93 21.74,34.08 
	21.59,34.08 21.59,33.93 21.74,33.93 21.74,34.08 21.9,34.08 21.9,33.93 21.9,33.77 21.74,33.77 21.9,33.77 21.9,33.62 21.9,33.46 
	21.9,33.31 21.74,33.31 21.74,33.15 21.74,33.31 21.59,33.31 21.74,33.31 21.74,33.15 21.59,33.15 21.59,33 21.59,32.85 21.59,33 
	21.59,32.85 21.43,32.85 21.43,32.69 21.43,32.54 21.59,32.54 21.43,32.54 21.43,32.38 21.59,32.38 21.74,32.38 21.74,32.23 
	21.74,32.07 21.9,32.07 21.9,31.92 21.9,31.76 22.05,31.76 21.9,31.76 22.05,31.76 22.05,31.61 22.2,31.61 22.2,31.45 22.05,31.45 
	22.05,31.3 22.2,31.3 22.2,31.15 22.2,30.99 22.2,30.84 22.2,30.68 22.05,30.68 22.05,30.53 22.05,30.37 22.2,30.22 22.2,30.37 
	22.2,30.22 22.2,30.37 22.2,30.22 22.36,30.22 22.36,30.06 22.36,29.91 22.36,29.75 22.36,29.6 22.2,29.6 22.36,29.6 22.36,29.44 
	22.2,29.44 22.36,29.44 22.2,29.44 22.2,29.29 22.36,29.29 22.2,29.29 22.05,29.29 22.05,29.14 21.9,29.14 22.05,29.14 21.9,29.14 
	22.05,29.14 22.05,28.98 21.9,28.98 21.9,28.83 21.74,28.83 21.59,28.83 21.59,28.67 21.43,28.67 21.43,28.52 21.43,28.67 
	21.28,28.67 21.28,28.52 21.28,28.36 21.28,28.21 21.28,28.05 21.12,28.05 21.12,27.9 20.97,27.9 20.97,27.74 20.97,27.59 
	20.97,27.44 20.97,27.28 20.97,27.13 20.97,26.97 20.97,26.82 20.97,26.66 20.81,26.66 20.81,26.51 20.66,26.51 20.81,26.51 
	20.66,26.51 20.66,26.35 20.81,26.2 20.81,26.04 20.97,25.89 20.97,25.73 20.97,25.58 21.12,25.58 21.12,25.43 21.28,25.27 
	21.28,25.12 21.28,24.96 21.12,24.96 21.12,24.81 21.12,24.65 21.12,24.5 21.28,24.5 21.28,24.34 21.28,24.5 21.28,24.34 
	21.28,24.5 21.43,24.5 21.43,24.34 21.43,24.5 21.59,24.5 21.59,24.34 21.74,24.34 21.74,24.19 21.59,24.19 21.59,24.03 
	21.59,23.88 21.74,23.88 21.59,23.88 21.74,23.88 21.74,23.73 21.74,23.57 21.74,23.42 21.9,23.42 22.05,23.42 22.05,23.26 
	22.2,23.26 22.2,23.11 22.05,23.11 22.2,23.11 22.2,22.95 22.36,22.95 22.2,22.95 22.36,22.95 22.36,22.8 22.51,22.64 22.67,22.64 
	22.82,22.64 22.82,22.8 22.98,22.8 23.13,22.8 23.13,22.95 23.29,22.95 23.29,22.8 23.44,22.8 23.6,22.8 23.75,22.8 23.91,22.8 
	23.91,22.95 24.06,22.95 24.21,22.95 24.21,23.11 24.37,23.11 24.37,22.95 24.52,22.95 24.52,22.8 24.68,22.8 24.83,22.8 
	24.83,22.64 24.99,22.64 25.14,22.64 25.14,22.49 25.3,22.49 25.3,22.33 25.3,22.49 25.3,22.33 25.45,22.33 25.45,22.49 
	25.45,22.33 25.45,22.18 25.61,22.18 25.61,22.02 25.76,22.02 25.76,21.87 25.61,21.87 25.76,21.87 25.76,21.72 25.76,21.56 
	25.76,21.41 25.61,21.41 25.76,21.25 25.92,21.25 26.07,21.25 25.92,21.25 25.92,21.1 26.07,21.1 26.07,21.25 26.07,21.1 
	26.22,21.1 26.38,21.1 26.53,21.1 26.53,20.94 26.53,20.79 26.69,20.79 26.69,20.63 26.69,20.48 26.69,20.32 26.69,20.17 
	26.69,20.01 26.84,20.01 27,20.01 27,19.86 27.15,19.86 27.31,19.86 27.31,19.71 27.46,19.71 27.62,19.71 27.62,19.55 27.77,19.55 
	27.77,19.4 27.77,19.55 27.92,19.55 27.92,19.4 28.08,19.4 28.08,19.55 28.23,19.55 28.39,19.55 28.39,19.4 28.54,19.55 28.7,19.55 
	28.7,19.71 28.7,19.55 28.85,19.55 29.01,19.55 29.16,19.4 29.32,19.4 29.16,19.4 29.32,19.4 29.32,19.24 29.47,19.24 29.47,19.4 
	29.47,19.24 29.63,19.24 29.63,19.09 29.47,19.09 29.63,19.09 29.47,19.09 29.47,18.93 29.63,18.93 29.47,18.93 29.47,18.78 
	29.63,18.78 29.63,18.62 29.78,18.62 29.93,18.62 29.93,18.47 29.93,18.62 29.78,18.62 29.78,18.47 29.93,18.47 29.93,18.31 
	30.09,18.16 30.24,18.16 30.24,18.01 30.4,18.01 30.4,18.16 30.4,18.31 30.4,18.47 30.55,18.47 30.55,18.62 30.71,18.62 
	30.86,18.62 30.71,18.62 30.86,18.62 31.02,18.62 31.17,18.62 31.17,18.47 31.33,18.47 31.33,18.31 31.33,18.47 31.48,18.47 
	31.48,18.31 31.33,18.31 31.48,18.31 31.48,18.16 31.64,18.16 31.64,18.01 31.79,18.01 31.79,17.85 31.94,17.85 32.1,17.85 
	31.94,17.85 31.94,17.7 32.1,17.7 32.25,17.7 32.25,17.54 32.25,17.39 32.1,17.39 32.1,17.23 32.25,17.23 32.25,17.08 32.41,17.08 
	32.41,16.92 32.56,16.92 32.56,16.77 32.56,16.61 32.72,16.61 32.87,16.61 32.87,16.46 32.72,16.46 32.72,16.31 32.87,16.31 
	32.87,16.15 32.87,16 33.03,15.84 32.87,15.84 32.87,15.69 33.03,15.69 33.18,15.69 33.34,15.69 33.34,15.53 33.49,15.53 
	33.64,15.53 33.64,15.38 33.64,15.22 33.8,15.22 33.64,15.22 33.64,15.07 33.64,14.91 33.49,14.91 33.64,14.91 33.64,14.76 
	33.64,14.6 33.8,14.45 33.8,14.3 33.8,14.14 33.95,14.14 33.8,14.14 33.95,14.14 33.95,13.99 33.8,13.99 33.95,13.99 33.8,13.99 
	33.8,13.83 33.8,13.68 33.95,13.68 33.8,13.68 33.95,13.68 33.8,13.52 33.8,13.37 33.95,13.37 33.95,13.21 33.8,13.21 33.8,13.06 
	33.95,13.06 33.95,12.9 34.11,12.9 34.11,12.75 34.26,12.75 34.42,12.75 34.42,12.6 34.57,12.6 34.73,12.6 34.73,12.44 34.88,12.44 
	35.04,12.44 35.19,12.44 35.35,12.29 35.5,12.29 35.81,12.44 35.96,12.44 36.12,12.44 36.27,12.29 36.74,11.82 36.89,11.67 
	37.05,11.67 37.2,11.51 37.36,11.51 37.51,11.36 37.82,11.05 37.97,11.05 37.97,10.89 37.97,10.74 37.97,10.59 37.97,10.43 
	37.82,10.43 37.82,10.28 37.82,10.12 37.82,9.97 37.97,9.81 38.13,9.66 38.28,9.5 38.59,9.5 38.75,9.35 38.75,9.5 38.9,9.5 
	38.9,9.66 39.06,9.66 39.06,9.5 39.21,9.5 39.21,9.35 39.21,9.19 39.36,9.19 39.52,9.04 39.67,9.04 39.67,8.88 39.83,8.73 
	39.98,8.73 40.14,8.73 40.29,8.58 40.29,8.42 40.45,8.27 40.45,8.11 40.6,8.11 40.76,7.96 40.91,7.96 41.07,7.8 41.07,7.65 
	41.07,7.49 41.22,7.34 41.22,7.18 41.22,7.03 41.22,6.88 41.37,6.72 41.53,6.72 41.68,6.57 41.68,6.41 41.84,6.41 41.84,6.26 
	41.84,6.1 41.68,5.95 41.68,5.79 41.53,5.64 41.68,5.48 41.68,5.33 41.68,5.17 41.84,5.17 41.84,5.02 41.68,4.87 41.84,4.71 
	41.84,4.56 41.99,4.56 42.15,4.4 42.15,4.25 42.3,4.25 42.3,4.09 42.3,3.94 42.3,3.78 42.3,3.63 42.3,3.32 42.46,3.16 42.61,3.01 
	42.77,3.01 42.77,2.86 42.92,2.7 43.08,2.55 43.08,2.39 43.23,2.39 43.38,2.24 43.54,2.08 43.54,1.93 43.69,1.77 43.85,1.77 
	44,1.62 44.16,1.62 44.31,1.46 44.47,1.46 44.62,1.31 44.78,1.31 44.93,1.31 45.08,1.31 45.24,1.16 45.39,1.16 45.55,1.16 45.7,1 
	46.17,1 46.32,1 46.48,1 46.94,1 47.25,0.85 47.25,1 47.71,1.16 47.87,1.16 48.02,1.31 48.18,1.16 48.33,1.16 48.49,1.16 
	48.64,1.16 48.95,1.16 49.1,1.16 49.26,1.16 49.41,1.16 49.57,1.16 49.72,1.16 49.88,1.16 50.03,1.16 50.19,1.16 50.34,1.16 
	50.5,1.16 50.65,1.16 50.65,1.31 50.8,1.31 50.96,1.31 51.11,1.31 51.27,1.31 51.42,1.31 51.58,1.31 51.73,1.31 51.73,1.46 
	51.89,1.46 52.04,1.31 52.2,1.31 52.2,1.16 52.35,1.16 52.51,1.16 52.66,1.16 52.81,1.16 52.81,1.31 52.97,1.31 52.97,1.46 
	53.12,1.46 53.28,1.46 53.43,1.46 53.59,1.46 53.74,1.46 53.74,1.31 53.9,1.31 54.05,1.31 54.21,1.31 54.36,1.31 54.51,1.31 
	54.67,1.31 54.82,1.31 54.98,1.31 55.13,1.46 55.29,1.46 55.44,1.46 55.6,1.62 55.75,1.77 55.75,1.93 55.91,2.08 55.91,2.24 
	56.06,2.24 56.06,2.39 56.22,2.39 56.22,2.55 56.22,2.7 56.22,2.86 56.06,3.01 56.22,3.32 56.22,3.47 56.37,3.63 56.68,3.63 
	56.83,3.63 56.99,3.47 57.14,3.47 57.3,3.47 57.45,3.47 57.45,3.63 57.61,3.63 57.61,3.47 57.76,3.47 57.92,3.47 58.07,3.47 
	58.23,3.47 58.38,3.32 58.53,3.32 58.69,3.47 58.84,3.47 59,3.63 59.15,3.78 59.31,3.78 59.31,3.94 59.46,3.94 59.62,3.94 
	59.77,3.94 59.93,3.94 59.93,4.09 59.77,4.25 59.77,4.4 59.93,4.4 59.93,4.56 60.08,4.71 60.08,5.02 60.23,5.17 60.39,5.33 
	60.39,5.48 60.54,5.64 60.54,5.79 60.7,5.95 60.85,5.95 60.85,6.1 61.01,6.26 61.16,6.41 61.16,6.57 61.01,6.72 61.01,6.88 
	61.01,7.03 61.16,7.03 61.32,7.18 61.32,7.34 61.47,7.34 61.47,7.49 61.63,7.65 61.78,7.8 61.94,7.96 62.09,7.96 62.09,8.11 
	62.24,8.27 62.24,8.42 62.24,8.58 62.24,8.73 62.24,8.88 62.24,9.04 62.24,9.19 62.24,9.35 62.24,9.5 62.4,9.81 62.71,10.12 
	62.86,10.28 62.86,10.43 63.02,10.43 63.17,10.59 63.17,10.43 63.33,10.43 63.48,10.28 63.64,10.28 63.79,10.12 63.95,10.12 
	64.1,10.12 64.25,10.28 64.41,10.28 64.41,10.43 64.41,10.59 64.56,10.74 64.56,10.89 64.56,11.05 64.56,11.2 64.56,11.36 
	64.56,11.51 64.56,11.67 64.72,11.67 64.87,11.67 65.18,11.67 65.18,11.82 65.34,11.82 65.34,11.98 65.49,12.13 65.49,12.29 
	65.65,12.29 65.65,12.44 65.8,12.44 65.95,12.6 66.26,12.6 66.42,12.6 66.57,12.75 66.73,12.75 66.88,12.9 67.04,12.9 67.19,12.75 
	67.35,12.75 67.5,12.75 67.66,12.6 67.96,12.6 68.12,12.44 68.27,12.44 68.58,12.13 68.74,11.98 68.89,11.82 69.05,11.82 
	69.05,11.67 69.2,11.67 69.36,11.67 69.51,11.51 69.66,11.2 69.66,11.05 69.66,10.89 69.82,10.89 69.82,10.74 69.82,10.59 
	69.82,10.43 69.82,10.28 69.97,10.12 70.13,9.97 70.28,10.12 70.28,10.28 70.28,10.43 70.44,10.59 70.44,10.74 70.59,10.89 
	70.75,11.05 71.06,11.2 71.21,11.2 71.52,11.36 71.52,11.51 71.67,11.51 71.98,11.36 72.14,11.36 72.29,11.36 72.45,11.36 
	72.45,11.51 72.6,11.51 72.6,11.67 72.6,11.98 72.45,12.13 72.45,12.29 72.6,12.29 72.6,12.44 72.76,12.44 72.91,12.44 73.07,12.44 
	73.07,12.6 73.22,12.6 73.22,12.75 73.38,12.9 73.53,13.06 73.68,13.06 73.68,12.9 73.84,12.9 73.84,12.75 73.99,12.75 74.15,12.75 
	74.15,12.9 74.3,12.9 74.46,12.9 74.46,13.06 74.46,13.21 74.61,13.21 74.61,13.37 74.77,13.37 74.92,13.37 75.23,13.37 
	75.38,13.37 75.54,13.37 75.85,13.37 76,13.37 76.16,13.37 76.47,13.37 76.62,13.37 76.93,13.37 77.09,13.37 77.24,13.21 
	77.39,13.21 77.39,13.37 77.55,13.37 77.7,13.52 77.7,13.68 77.86,13.83 78.01,13.83 78.17,13.52 78.32,13.52 78.48,13.52 
	78.63,13.52 78.79,13.68 "/>
</svg>
