<?xml version="1.0" encoding="utf-8"?>
<!-- Generator: Adobe Illustrator 24.2.1, SVG Export Plug-In . SVG Version: 6.00 Build 0)  -->
<svg version="1.1" id="Layer_1" xmlns="http://www.w3.org/2000/svg" xmlns:xlink="http://www.w3.org/1999/xlink" x="0px" y="0px"
	 viewBox="0 0 97.23 97.23" style="enable-background:new 0 0 97.23 97.23;" xml:space="preserve">
<style type="text/css">
	.st0{fill-rule:evenodd;clip-rule:evenodd;fill:#1D1D1B;}
</style>
<polygon class="st0" points="77.85,23.1 77.85,23.55 77.85,24.01 77.85,24.47 77.85,24.93 78.31,24.93 78.77,24.93 79.22,25.39 
	79.68,25.39 79.68,25.84 79.68,26.3 80.14,26.3 80.6,26.3 80.6,26.76 81.06,26.76 81.51,26.76 81.97,26.76 81.97,27.22 82.43,27.22 
	82.89,27.22 82.89,27.68 83.35,27.68 83.81,27.68 83.81,27.22 84.26,27.22 84.72,27.22 84.72,27.68 85.18,27.68 85.18,28.13 
	85.18,28.59 85.64,29.05 85.64,29.51 86.1,29.51 86.1,29.97 86.1,30.42 86.55,30.42 87.01,30.88 87.01,31.34 86.55,31.8 86.1,31.8 
	86.1,32.26 86.55,32.26 87.01,32.26 87.47,32.26 87.93,32.26 88.39,32.26 88.84,32.26 89.3,32.26 89.76,31.8 90.22,31.8 
	90.22,32.26 90.22,32.72 89.76,32.72 89.76,33.17 90.22,33.63 89.76,33.63 89.76,34.09 89.3,34.09 89.3,33.63 88.84,33.63 
	88.39,33.63 88.39,34.09 88.39,34.55 87.93,34.55 87.93,35.01 87.93,35.46 87.47,35.92 87.47,36.38 87.01,36.84 87.01,37.75 
	87.01,38.21 86.1,38.67 85.64,38.67 85.64,39.13 85.18,39.59 85.64,40.04 86.1,40.5 86.1,40.96 86.55,41.42 86.55,41.88 86.1,42.33 
	86.1,42.79 86.1,43.25 86.55,43.71 86.1,43.71 86.1,44.17 85.64,44.17 85.64,44.63 86.1,44.63 86.55,45.08 87.01,45.54 87.01,46 
	87.01,46.46 86.55,46.46 86.1,46.46 86.1,46.91 86.1,47.37 86.1,47.83 86.1,48.29 86.1,48.75 86.1,49.21 85.64,49.66 85.18,49.66 
	84.72,50.12 84.26,50.58 84.26,51.04 83.81,51.04 83.81,51.5 83.81,51.95 84.26,52.41 84.26,52.87 84.26,53.79 84.26,54.24 
	84.26,54.7 84.26,55.16 84.26,55.62 84.26,56.08 84.26,56.54 84.26,57.45 84.26,57.91 84.26,58.37 83.81,59.28 83.81,59.74 
	83.35,60.2 83.35,60.66 82.89,61.12 82.89,61.57 82.43,62.03 81.97,62.03 81.51,62.03 81.06,62.03 81.06,62.49 80.6,62.49 
	80.6,62.95 80.6,63.41 81.06,63.41 81.06,63.86 81.51,63.86 81.97,63.86 81.97,64.32 82.43,64.32 82.43,64.78 82.89,64.78 
	82.89,65.24 82.89,65.7 83.35,65.7 83.35,66.15 83.81,66.61 84.26,67.07 84.26,67.53 84.26,67.99 83.81,67.99 83.81,68.44 
	84.26,68.44 84.26,68.9 83.81,68.9 83.81,69.36 84.26,69.36 84.26,69.82 84.26,70.28 83.81,70.28 83.81,70.74 83.81,71.19 
	83.81,71.65 83.81,72.11 84.26,72.57 84.26,73.03 84.72,73.03 84.72,73.48 85.18,73.48 85.64,73.48 85.64,73.94 85.64,74.4 
	85.64,74.86 85.64,75.32 86.1,75.32 85.64,75.77 85.18,75.77 85.18,76.23 84.72,76.23 84.26,76.23 83.81,76.69 84.26,77.15 
	84.26,77.61 84.72,78.06 84.72,78.52 85.18,78.52 85.64,78.52 85.64,78.98 86.1,79.44 86.1,79.9 86.55,79.9 86.55,80.35 
	86.55,80.81 86.1,81.27 86.1,81.73 86.1,82.19 86.1,82.65 85.64,82.65 85.64,83.1 85.64,83.56 85.64,84.02 85.64,84.48 86.1,84.94 
	86.1,85.39 86.1,86.31 86.1,87.68 86.1,88.14 86.1,89.06 86.1,89.52 86.1,89.98 86.1,90.43 86.55,90.89 86.55,91.35 86.55,91.81 
	86.1,91.81 85.64,91.35 85.18,91.35 84.72,91.35 84.26,91.81 83.81,92.26 83.35,92.26 83.35,92.72 82.89,92.72 82.43,92.72 
	81.97,93.18 81.51,93.64 81.06,93.64 81.06,94.1 80.6,94.56 80.6,95.01 80.14,95.01 80.14,95.47 79.68,95.47 79.22,95.47 
	79.22,95.93 78.77,95.93 78.31,95.93 77.85,95.93 77.85,96.39 77.39,96.39 76.93,96.85 76.48,96.85 76.02,96.85 75.56,96.85 
	75.56,96.39 75.1,95.93 74.64,95.93 74.19,95.93 73.73,95.93 72.81,95.93 71.89,95.47 71.44,95.47 70.52,95.01 70.06,95.01 
	69.6,95.01 68.69,95.01 68.23,95.01 67.31,95.01 66.86,95.47 65.94,95.47 65.48,95.47 65.02,95.47 65.02,95.01 65.02,94.56 
	65.02,93.64 65.02,92.72 65.02,92.26 65.02,91.35 64.57,90.89 64.57,89.98 64.57,89.52 64.57,89.06 64.57,88.6 64.57,88.14 
	64.57,87.68 65.02,87.68 65.02,87.23 65.02,86.77 65.02,86.31 65.02,85.85 65.02,85.39 65.02,84.94 65.02,84.48 64.57,84.48 
	64.57,84.02 64.11,84.02 64.11,83.56 64.11,83.1 64.11,82.65 64.11,82.19 64.57,81.73 64.57,81.27 64.11,80.35 64.11,79.9 
	63.65,79.9 63.65,79.44 63.19,78.98 62.73,78.52 62.73,78.06 62.27,78.06 62.27,78.52 61.82,78.52 61.36,78.52 61.36,78.98 
	60.9,78.98 60.44,78.98 60.9,78.52 60.44,78.52 60.44,78.98 59.98,78.98 59.98,78.52 59.53,78.52 59.53,78.98 59.53,79.44 
	59.07,79.44 59.07,78.98 59.07,78.52 58.61,78.52 58.61,78.06 58.15,78.06 58.15,78.52 57.69,78.52 57.69,78.06 57.24,78.06 
	56.78,78.06 56.78,78.52 56.32,78.52 55.86,78.52 55.4,78.52 55.4,78.98 54.95,79.44 54.49,79.44 54.49,79.9 54.03,79.9 
	53.57,80.35 53.11,80.81 52.65,80.81 52.2,80.81 52.2,81.27 51.74,81.27 51.28,81.27 50.36,81.27 48.99,81.27 48.07,81.27 
	47.16,81.27 46.7,81.27 46.24,81.27 46.24,81.73 45.78,81.73 45.78,82.19 45.33,82.19 45.33,82.65 44.87,82.65 44.41,82.65 
	43.95,82.65 43.04,82.65 42.58,82.65 42.58,83.1 42.12,83.1 41.66,83.1 41.2,83.56 40.74,83.56 40.29,83.56 39.83,84.02 
	39.37,84.02 38.91,84.02 38.91,83.56 38.45,83.56 38,83.56 38,83.1 37.54,82.65 37.08,82.65 36.62,82.65 36.16,82.19 35.71,82.19 
	34.79,82.19 33.87,81.73 33.41,81.73 32.96,81.73 32.5,81.73 32.04,81.73 31.58,81.73 31.12,81.73 30.67,81.73 30.21,82.19 
	30.21,82.65 29.75,83.1 29.75,83.56 29.29,84.02 29.29,84.48 28.83,84.48 28.38,84.48 27.92,84.48 27.46,84.48 26.54,84.02 
	26.09,84.02 25.63,83.56 25.17,83.56 24.71,83.56 24.25,83.56 23.8,83.56 23.34,83.56 23.34,84.02 22.88,84.02 22.88,84.48 
	22.88,84.94 22.88,85.39 22.42,85.39 21.96,85.85 21.96,85.39 21.5,85.39 21.5,84.94 21.05,84.48 21.05,84.94 20.59,84.94 
	20.13,85.39 19.67,85.39 19.21,85.39 18.76,85.39 18.3,85.39 17.84,84.94 16.92,84.02 16.47,84.02 16.47,83.1 16.47,82.65 
	16.01,82.19 16.01,81.73 16.01,81.27 15.55,81.27 15.55,80.81 15.55,80.35 15.55,79.9 15.09,79.44 15.09,78.98 14.63,78.98 
	14.63,78.52 14.17,78.52 13.72,78.06 13.26,77.61 12.8,77.61 12.34,77.15 11.89,77.15 11.89,76.69 11.43,76.69 11.43,76.23 
	10.97,76.23 10.97,75.77 10.97,75.32 10.51,75.32 10.51,74.86 10.05,74.86 10.05,74.4 10.05,73.94 9.59,73.94 9.59,73.48 
	9.59,73.03 9.59,72.57 9.59,72.11 10.05,71.65 10.05,71.19 10.51,70.74 10.51,70.28 10.51,69.82 10.05,69.82 10.05,69.36 
	10.05,68.9 9.59,68.9 9.59,68.44 9.14,68.44 8.68,67.99 8.68,67.53 8.22,67.53 8.22,67.07 8.22,66.61 7.76,66.15 7.3,66.15 
	7.3,65.7 7.3,65.24 7.3,64.78 7.3,64.32 7.3,63.86 7.76,63.86 7.76,63.41 7.76,62.95 8.22,62.95 8.68,62.95 8.68,62.49 9.14,62.49 
	9.59,62.03 10.05,61.57 10.51,61.57 10.97,61.57 10.97,61.12 10.97,60.2 10.97,59.74 10.51,59.74 10.05,59.74 10.05,59.28 
	10.05,58.82 9.59,58.82 9.59,58.37 9.59,57.91 9.14,57.45 9.14,56.99 9.14,56.54 8.68,56.54 8.68,55.62 8.68,55.16 8.68,54.7 
	8.22,54.7 8.22,54.24 8.22,53.79 8.22,53.33 7.76,53.33 7.76,52.87 7.3,52.87 6.85,52.87 6.85,52.41 6.85,51.95 7.3,51.95 7.3,51.5 
	8.22,50.58 8.68,50.12 9.14,49.66 10.05,48.75 10.51,48.29 10.97,47.83 11.43,47.37 11.89,46.91 12.34,46.46 12.8,45.54 
	13.72,44.63 14.17,44.17 14.63,43.71 15.09,43.25 15.09,42.79 15.55,41.88 15.55,41.42 16.01,40.96 16.01,40.5 16.01,40.04 
	16.01,39.59 15.55,39.13 15.55,38.67 15.09,37.75 14.63,36.84 14.17,36.38 13.72,35.92 13.72,35.46 13.72,35.01 13.72,34.55 
	13.26,34.55 12.8,34.55 12.34,34.55 11.89,34.55 11.89,34.09 11.43,34.09 11.43,33.63 11.43,33.17 10.97,33.17 10.51,33.17 
	10.51,32.72 10.51,32.26 10.51,31.8 10.05,31.8 10.51,31.8 10.51,31.34 10.97,30.88 11.43,30.88 11.43,30.42 11.89,30.42 
	11.89,29.97 11.89,29.51 12.34,29.05 12.34,28.13 12.34,27.68 11.89,27.22 11.89,26.76 11.89,26.3 11.89,25.84 11.89,25.39 
	11.89,24.93 11.89,24.01 11.89,23.1 11.89,22.64 11.89,21.72 11.89,21.26 11.89,20.8 11.43,19.89 10.97,18.97 10.51,18.51 
	10.51,18.06 10.51,17.6 10.05,17.6 10.05,17.14 9.59,17.14 9.59,16.68 9.59,16.22 9.59,15.77 9.59,15.31 9.59,14.85 9.59,13.93 
	10.05,13.48 10.05,13.02 10.05,12.56 10.05,12.1 10.05,11.64 10.05,11.19 10.51,10.73 10.51,10.27 10.97,9.81 10.97,9.35 
	10.97,8.89 10.97,8.44 10.51,8.44 10.51,7.98 10.51,7.52 10.05,7.52 10.05,7.06 10.51,7.06 11.43,6.6 11.89,6.6 12.34,6.6 12.8,6.6 
	12.8,6.15 13.26,6.15 13.72,6.15 14.17,6.15 14.17,5.69 14.63,5.23 14.63,4.77 15.09,4.77 15.09,4.31 15.55,3.86 16.01,3.4 
	16.01,2.94 16.47,2.94 16.92,2.48 17.38,2.48 17.84,2.02 18.3,2.02 18.76,2.02 19.67,2.02 20.59,2.02 21.05,2.02 21.96,2.02 
	22.42,2.02 23.8,2.02 24.25,2.02 24.71,2.02 25.17,2.02 26.09,1.57 26.54,1.57 26.54,1.11 27,1.11 27,1.57 27.46,1.57 27.46,2.02 
	27.46,2.48 27.92,2.94 27.92,3.4 28.38,3.4 28.83,3.4 28.83,3.86 29.29,3.86 29.75,3.86 30.21,4.31 30.67,4.31 31.12,4.77 
	31.58,4.77 31.58,5.23 32.04,5.23 32.04,5.69 32.5,5.69 32.96,5.69 32.5,5.23 32.5,4.77 32.96,4.77 32.96,4.31 33.41,4.31 
	33.41,3.86 33.87,3.86 33.87,3.4 34.33,3.86 34.79,3.86 34.79,4.31 35.25,3.86 35.71,3.86 36.16,3.86 36.62,3.86 37.08,3.86 
	37.54,3.86 37.54,3.4 37.54,2.94 37.54,2.48 37.08,2.48 36.62,2.48 36.62,2.02 36.62,1.57 37.08,1.57 37.08,1.11 37.54,1.11 
	38,1.11 38.45,1.11 38.91,1.11 39.37,1.11 39.83,0.65 40.29,0.65 40.74,0.65 40.74,0.19 41.2,0.19 41.66,0.19 42.12,0.65 
	42.58,1.11 42.58,1.57 42.58,2.02 43.04,2.02 43.49,2.02 43.49,2.48 43.49,2.94 43.04,2.94 43.04,3.4 43.49,3.4 43.95,3.4 
	44.41,3.86 44.41,4.31 44.87,4.31 44.87,4.77 45.33,4.77 45.33,5.23 45.33,5.69 44.87,5.69 44.87,6.15 44.87,6.6 44.41,6.6 
	44.41,7.06 44.41,7.52 44.41,7.98 44.41,8.44 44.87,8.44 44.87,8.89 45.33,9.35 45.78,9.35 46.24,9.35 46.7,9.35 46.7,8.89 
	47.16,8.89 47.16,9.35 47.16,9.81 47.16,10.27 47.62,10.73 47.62,11.19 48.07,11.19 48.07,11.64 48.53,11.64 48.53,11.19 
	48.99,11.19 48.99,10.73 49.45,10.73 49.45,10.27 49.91,10.27 50.36,10.27 50.82,9.81 50.82,10.27 51.28,10.27 51.74,10.27 
	52.2,10.27 52.2,10.73 52.65,11.19 53.11,11.64 53.57,12.1 54.03,12.56 54.03,13.02 54.03,13.48 54.49,13.93 54.49,14.85 
	54.95,15.31 54.95,15.77 54.95,16.22 55.4,16.22 55.4,15.77 55.86,15.77 56.32,15.77 57.24,15.77 57.69,15.31 58.15,15.31 
	58.61,15.31 59.07,14.85 59.07,14.39 59.98,13.93 59.98,13.48 60.44,13.48 60.44,13.02 60.9,13.02 60.9,12.56 61.36,12.56 
	61.82,12.56 62.27,13.02 62.73,13.02 63.19,13.48 63.65,14.39 64.11,14.85 64.11,15.31 64.11,15.77 64.57,16.22 64.11,16.22 
	64.11,16.68 63.65,17.14 63.65,17.6 64.11,18.06 64.11,18.51 64.11,18.97 64.11,19.43 64.11,19.89 63.65,19.89 63.65,20.35 
	64.11,20.8 64.57,20.35 65.02,20.35 65.48,20.35 65.48,19.89 66.4,19.89 66.86,19.89 67.31,19.89 67.77,19.89 68.23,19.89 
	68.69,19.89 69.15,19.89 69.6,19.89 70.06,19.89 70.98,19.89 71.89,20.35 72.35,20.35 72.81,20.35 73.27,20.35 74.19,20.8 
	74.64,20.8 75.1,20.8 75.56,21.26 76.02,21.26 76.48,21.72 76.93,21.72 76.93,22.18 76.93,22.64 76.93,23.1 "/>
</svg>
