<?xml version="1.0" encoding="utf-8"?>
<!-- Generator: Adobe Illustrator 24.2.1, SVG Export Plug-In . SVG Version: 6.00 Build 0)  -->
<svg version="1.1" id="Layer_1" xmlns="http://www.w3.org/2000/svg" xmlns:xlink="http://www.w3.org/1999/xlink" x="0px" y="0px"
	 viewBox="0 0 97.23 97.23" style="enable-background:new 0 0 97.23 97.23;" xml:space="preserve">
<style type="text/css">
	.st0{fill-rule:evenodd;clip-rule:evenodd;fill:#1D1D1B;}
</style>
<polygon class="st0" points="59.47,3.76 59.47,4.06 59.18,4.35 58.89,4.64 58.6,4.93 58.31,5.22 58.31,5.52 58.01,6.1 57.72,6.39 
	57.43,6.39 57.43,6.68 57.14,6.97 57.14,7.27 56.85,7.27 56.55,7.56 56.55,7.85 56.55,8.14 56.55,8.43 56.26,8.43 56.26,8.72 
	56.26,9.02 56.26,9.31 55.97,9.6 55.68,9.89 55.68,10.18 55.68,10.48 55.39,11.64 55.39,12.23 55.39,12.52 55.39,12.81 55.68,12.81 
	55.68,13.1 55.68,13.39 55.39,13.39 55.1,13.1 55.1,13.39 55.1,13.69 55.1,13.98 55.39,13.98 55.39,14.27 55.68,14.56 55.97,14.56 
	55.97,14.85 56.26,14.85 56.55,15.14 56.85,15.14 56.85,15.44 57.14,15.44 57.43,15.44 57.72,15.44 57.72,15.73 58.01,15.73 
	58.31,15.73 58.31,16.02 58.6,16.02 58.89,16.02 58.89,16.31 59.18,16.31 59.47,16.6 59.76,16.6 59.76,16.89 59.76,17.19 
	59.76,17.48 59.76,17.77 59.76,18.06 59.76,18.35 59.76,18.65 59.47,19.23 59.47,19.81 59.47,20.1 59.47,20.4 59.47,20.69 
	59.47,20.98 59.76,20.98 60.06,20.98 60.35,20.98 60.64,20.98 60.93,20.98 61.22,20.98 61.51,20.98 61.81,20.98 62.1,20.98 
	62.39,20.98 62.68,20.98 62.97,20.69 63.27,20.69 63.56,20.98 63.85,20.98 64.14,20.98 64.43,21.27 64.72,21.27 65.02,21.27 
	65.31,21.27 65.6,21.56 65.89,21.56 66.18,21.56 66.48,21.56 66.77,21.56 67.06,21.56 67.35,21.56 67.64,21.56 67.93,21.56 
	68.23,21.56 68.52,21.56 68.81,21.56 69.1,21.56 69.69,21.27 70.27,20.98 70.56,20.98 70.85,20.98 70.85,20.69 71.14,20.69 
	70.85,20.69 70.85,20.4 70.27,20.1 70.56,19.23 71.14,17.77 71.14,17.19 71.44,16.31 71.73,16.31 72.31,15.73 73.48,15.73 
	74.35,15.73 75.23,16.6 75.81,17.19 76.69,17.48 77.56,17.48 79.02,17.77 79.9,17.77 80.77,17.48 81.65,17.77 82.52,17.77 
	83.4,18.06 83.69,18.06 83.98,18.06 84.28,18.06 84.57,18.06 85.15,18.06 85.44,18.06 85.73,18.06 86.03,18.35 86.32,18.35 
	86.61,18.35 86.61,18.65 86.9,18.65 87.19,18.65 87.49,18.65 87.78,18.65 88.07,18.65 88.07,18.35 88.36,18.35 88.65,18.65 
	88.94,18.65 88.94,18.35 89.24,18.35 89.53,18.35 89.53,18.65 89.24,18.65 89.24,18.94 89.24,19.23 89.24,19.52 88.94,19.81 
	88.94,20.1 88.65,20.1 88.65,20.4 88.36,20.69 88.36,20.98 88.36,21.27 88.36,21.56 88.36,21.86 88.36,22.15 88.65,22.15 
	88.65,22.44 88.94,22.73 88.94,23.02 88.94,23.31 88.94,23.61 88.94,23.9 88.94,24.19 88.94,24.48 88.94,24.77 88.65,24.77 
	88.65,25.07 88.36,25.07 88.36,25.36 88.07,25.36 87.78,25.36 87.49,25.36 87.49,25.65 87.19,25.65 86.9,25.65 86.61,25.65 
	86.32,25.94 86.03,25.94 86.03,26.23 85.73,26.23 85.73,26.52 85.73,26.82 85.44,26.52 85.15,26.52 84.86,26.52 84.57,26.82 
	84.28,26.82 83.98,26.82 83.69,27.11 83.98,27.11 83.98,27.4 83.98,27.98 83.98,28.27 83.98,28.57 84.28,28.57 84.57,28.86 
	84.86,29.15 85.15,29.15 85.44,29.15 85.44,29.44 85.44,29.73 85.73,29.73 85.73,30.03 85.73,30.32 85.73,30.61 86.03,30.61 
	86.03,30.9 86.32,30.9 86.61,30.9 86.61,30.61 86.61,30.32 86.9,30.32 87.19,30.32 87.19,30.61 87.49,30.61 87.49,30.9 87.78,30.9 
	87.78,31.19 87.49,31.48 87.19,31.78 86.9,31.78 86.9,32.07 86.61,32.36 86.61,32.65 86.9,32.65 87.19,32.65 87.49,32.65 
	87.78,32.65 88.07,32.65 88.07,32.94 88.07,33.24 88.07,33.53 87.78,33.53 87.49,33.53 87.19,33.53 86.9,33.53 86.9,33.82 
	86.9,34.11 87.19,34.11 87.49,34.11 87.49,34.4 87.49,34.69 87.19,34.99 87.19,35.28 87.49,35.28 87.49,35.57 87.49,35.86 
	87.49,36.15 87.19,36.45 86.9,36.74 86.9,37.61 86.9,37.9 86.61,37.9 86.32,37.9 86.32,37.61 86.32,37.9 86.03,37.9 86.32,37.9 
	86.03,38.2 86.03,38.49 86.32,38.49 86.9,39.36 87.49,40.53 87.78,40.82 87.78,41.11 87.49,41.11 87.19,41.11 86.9,41.41 
	87.19,41.7 87.19,41.99 87.19,42.28 87.49,42.28 87.49,42.57 87.49,42.86 87.49,43.16 87.19,43.16 87.19,43.45 86.9,43.74 
	86.61,44.03 86.32,44.03 86.03,44.32 86.03,44.62 86.03,44.91 86.32,45.2 86.61,45.2 86.61,45.49 86.9,45.49 87.19,45.49 
	87.49,45.78 87.78,45.78 88.07,45.78 88.07,45.49 88.36,45.49 88.36,45.2 88.36,44.91 88.65,44.91 88.94,44.91 89.24,45.2 
	89.53,45.49 89.53,45.78 89.53,46.07 89.53,46.37 89.53,46.66 89.53,46.95 89.24,46.95 89.24,47.24 89.53,47.24 89.82,47.24 
	90.11,47.24 90.11,47.53 90.4,47.53 90.7,47.53 90.99,47.83 91.28,47.83 91.57,47.83 91.57,48.12 91.86,48.12 92.15,48.41 
	92.15,48.7 91.86,48.7 91.57,48.7 91.57,48.41 91.28,48.7 91.28,48.99 91.28,49.28 91.28,49.58 90.99,49.58 90.99,49.87 90.7,49.87 
	90.7,50.16 90.4,50.16 90.4,50.45 90.11,50.45 90.11,50.74 90.11,51.03 90.4,51.03 90.7,51.03 90.7,51.33 90.4,51.62 90.4,51.91 
	90.4,52.2 90.4,52.49 90.4,52.79 90.7,53.08 90.99,52.79 90.99,53.08 91.28,53.08 91.28,52.79 91.57,52.79 91.57,53.08 91.28,53.08 
	91.28,53.37 90.99,53.37 90.99,53.66 90.99,53.95 90.99,54.24 90.7,54.24 90.4,54.54 90.4,54.83 90.11,54.83 90.11,55.12 
	90.11,55.7 89.82,56 89.82,56.29 89.82,56.58 89.82,56.87 89.82,57.16 89.53,57.16 89.53,57.45 89.24,57.45 89.24,57.75 
	88.94,58.04 88.65,58.33 88.36,58.62 88.07,58.91 88.07,59.2 88.36,59.2 88.36,59.5 88.65,59.5 88.94,59.5 89.24,59.79 89.53,59.79 
	89.82,59.79 90.11,60.08 90.4,60.08 91.28,59.79 91.86,59.79 92.45,59.5 92.74,59.5 93.61,59.5 94.78,59.5 95.07,59.5 95.36,59.2 
	95.66,59.2 95.66,58.91 95.95,58.91 96.24,58.91 96.53,58.91 96.53,59.2 96.53,59.5 96.53,61.83 96.53,62.41 96.53,62.71 
	96.53,63.29 96.53,63.58 96.53,63.87 96.53,64.17 96.53,64.46 96.53,64.75 96.53,65.04 96.53,65.33 96.53,65.92 96.53,66.21 
	96.53,66.5 96.53,67.08 96.53,67.38 96.53,67.67 96.53,67.96 96.53,68.25 96.53,68.54 96.53,68.83 96.53,69.13 96.53,69.42 
	96.53,70 96.53,70.29 96.53,70.59 96.53,70.88 96.53,71.46 96.53,71.75 96.53,72.04 96.53,72.92 96.53,73.5 95.07,74.38 
	92.74,75.25 90.99,76.13 90.11,76.71 89.24,77.3 85.44,79.05 83.4,79.92 81.65,81.09 79.61,81.96 79.02,82.26 77.86,82.84 
	76.1,83.72 75.23,84.01 74.06,84.59 72.31,85.76 72.02,85.76 70.27,86.93 68.52,87.8 65.02,89.84 62.97,90.72 62.97,91.59 
	62.97,92.76 62.68,92.76 62.1,92.76 61.81,92.76 61.22,92.18 60.93,91.89 60.64,92.18 60.35,92.18 60.06,92.18 59.76,92.47 
	59.47,92.47 59.47,92.76 59.18,92.76 58.89,92.76 58.6,92.76 58.31,92.76 58.01,92.76 57.72,93.05 57.43,93.05 57.14,93.05 
	56.85,93.05 56.85,93.34 56.55,93.34 56.26,93.64 55.68,93.93 55.68,94.22 55.39,94.22 55.1,94.22 54.8,94.22 54.51,94.22 
	54.22,94.22 53.93,94.22 53.64,94.22 53.64,94.51 53.34,94.51 53.34,94.8 53.34,95.1 53.05,95.1 52.76,94.8 52.47,94.8 52.18,94.8 
	51.89,95.1 51.59,95.1 51.89,95.39 52.18,95.68 51.89,95.97 52.18,96.26 51.89,96.26 51.59,96.26 51.3,96.26 51.3,95.97 
	51.01,95.97 50.72,95.68 50.43,95.68 50.13,95.39 49.84,95.39 49.55,95.1 49.26,95.1 48.97,95.1 48.68,95.1 48.38,94.8 48.09,94.8 
	47.8,94.51 47.51,94.51 47.51,94.22 47.22,94.22 46.92,94.22 46.63,93.93 46.34,93.93 46.34,93.64 46.05,93.34 45.76,93.64 
	44.88,94.22 44.01,94.8 43.71,95.1 43.13,95.39 43.13,95.68 43.13,95.97 43.13,96.26 42.84,96.26 42.26,96.55 42.26,96.26 
	41.38,96.85 41.09,96.26 40.8,96.26 40.8,95.97 40.21,96.26 39.63,96.55 39.34,96.85 38.17,96.26 37.88,96.26 37.59,96.26 
	36.71,95.97 36.42,96.26 36.13,96.26 36.13,95.97 35.84,95.97 36.13,95.97 36.13,95.68 36.13,95.39 36.13,95.1 35.54,95.1 
	35.25,95.1 34.67,95.1 34.38,95.1 34.38,94.8 34.09,94.8 33.5,94.8 33.21,94.8 33.21,95.1 32.63,95.39 31.75,95.68 31.46,95.68 
	31.17,95.68 30.88,95.68 30.29,95.68 29.71,95.39 29.42,95.97 29.12,95.68 28.83,95.68 27.96,95.39 27.67,95.39 27.37,95.1 
	26.79,94.8 26.21,95.68 25.92,95.68 23.58,95.68 23,95.68 21.54,95.68 18.91,95.1 18.62,95.1 18.33,95.39 18.04,95.39 17.74,95.68 
	17.45,95.39 17.45,95.68 17.16,95.68 17.16,95.39 16.87,95.39 16.87,95.1 16.87,94.8 16.58,94.8 16.58,94.51 16.58,94.22 
	15.99,93.93 15.99,93.64 15.7,93.64 15.41,93.64 14.83,93.34 14.53,93.34 14.24,93.34 13.95,93.34 13.66,93.34 13.37,93.34 
	12.49,93.05 12.2,92.76 11.62,92.47 11.32,92.18 11.03,92.18 10.45,91.59 10.16,91.59 9.87,91.59 9.57,91.59 9.28,91.89 8.99,91.89 
	8.99,92.18 8.7,92.18 8.41,92.76 8.12,93.05 7.53,93.34 6.95,93.93 6.66,94.22 6.66,93.34 6.66,92.76 6.95,90.72 6.95,90.14 
	7.24,88.97 7.24,87.51 7.24,86.93 7.24,86.63 6.95,86.63 6.07,86.34 5.2,86.34 4.61,86.34 4.03,86.05 3.45,86.05 2.86,86.05 
	2.57,86.05 2.28,86.05 1.99,86.05 1.7,86.05 1.11,86.05 0.82,85.76 0.82,85.17 0.82,84.88 0.82,84.59 0.53,83.13 0.53,82.26 
	0.53,80.8 0.53,80.51 0.53,80.21 0.53,79.63 0.53,79.34 0.53,79.05 0.53,78.76 0.53,78.46 0.53,78.17 0.53,77.88 0.53,77.3 0.53,77 
	0.53,76.42 0.53,76.13 0.53,75.55 0.53,75.25 0.53,74.67 0.53,74.38 0.53,74.09 0.53,73.8 0.53,73.5 0.53,73.21 0.53,72.92 
	0.53,72.34 0.24,70.88 0.24,70.59 0.24,70.29 0.24,70 0.24,69.71 0.24,69.42 0.24,69.13 0.24,68.83 0.24,68.54 0.24,67.96 
	0.24,67.67 0.24,67.38 0.24,67.08 0.53,66.79 0.53,66.5 0.82,66.5 1.11,66.21 1.4,65.62 1.7,65.33 1.99,65.04 2.28,64.75 
	2.57,64.46 2.86,64.17 2.86,63.87 2.86,63.58 3.15,63.29 3.15,63 2.86,63 2.86,62.71 2.86,62.41 3.15,62.12 3.15,61.83 3.15,61.25 
	3.45,60.96 3.74,60.66 4.03,60.66 4.03,60.37 4.32,60.08 4.61,59.79 4.61,59.5 5.2,59.2 5.49,58.62 5.78,58.33 6.07,58.04 
	6.36,57.75 6.36,57.45 6.36,57.16 6.36,56.58 6.36,55.7 6.36,55.41 6.36,55.12 6.36,54.83 6.07,54.83 5.78,54.54 5.49,54.24 
	5.2,53.95 4.91,53.66 4.91,53.37 4.61,52.49 4.61,51.91 4.32,51.03 4.32,50.74 4.32,50.45 4.32,50.16 4.32,49.87 4.61,49.58 
	5.2,49.28 5.49,48.99 5.78,48.99 6.07,48.7 6.07,48.41 6.36,48.12 6.36,47.83 6.36,47.53 6.36,47.24 6.36,46.95 6.36,46.66 
	6.07,46.37 6.07,46.07 5.78,45.78 5.49,45.49 5.49,44.91 5.49,44.62 5.49,44.03 5.49,43.45 5.2,42.86 5.2,42.57 5.2,42.28 
	4.91,42.28 4.61,41.99 4.61,41.7 4.32,41.7 4.32,41.41 4.32,41.11 4.03,40.82 3.74,40.82 3.74,40.53 3.45,40.53 3.15,40.24 
	3.15,39.95 2.86,39.95 2.57,39.66 2.28,39.36 1.99,39.07 1.7,39.07 1.4,38.78 1.11,38.78 0.82,38.49 0.53,38.2 0.53,37.9 
	0.24,37.61 0.53,37.32 0.53,36.74 0.53,36.45 0.53,36.15 0.82,35.86 0.82,35.57 1.11,35.28 1.11,34.69 1.11,34.4 1.4,34.11 
	1.4,33.82 1.7,33.53 1.99,33.24 2.28,33.24 2.28,32.94 2.28,32.65 2.28,32.36 2.57,32.36 2.57,32.07 2.86,32.07 3.15,32.07 
	3.45,32.07 3.74,32.07 4.03,32.07 4.32,32.36 4.61,32.36 5.2,32.65 5.49,32.65 5.78,32.65 6.07,32.65 6.36,32.65 6.36,32.36 
	6.66,32.07 6.66,31.78 6.95,31.48 6.95,31.19 7.24,30.9 7.53,30.9 7.82,30.9 8.12,30.9 8.41,30.9 8.7,30.9 8.99,30.9 9.28,30.9 
	9.87,31.19 10.45,31.19 10.74,31.19 11.03,31.48 11.32,31.48 11.62,31.48 11.91,31.78 11.91,32.07 12.2,32.07 12.49,32.07 
	12.49,32.36 12.78,32.36 13.08,32.36 13.37,32.07 13.66,32.07 13.95,32.07 14.24,31.78 14.53,31.78 14.83,31.78 14.83,31.48 
	15.12,31.48 15.7,31.48 15.99,31.48 16.29,31.48 16.58,31.48 16.58,31.19 16.87,31.19 16.87,30.9 17.16,30.9 17.16,30.61 
	17.45,30.61 17.74,30.61 18.33,30.61 18.91,30.61 19.79,30.61 20.37,30.61 20.66,30.61 20.95,30.61 20.95,30.32 21.25,30.32 
	21.54,30.32 21.83,30.03 22.12,29.73 22.41,29.73 22.41,29.44 22.71,29.44 23,29.15 23,28.86 23.29,28.86 23.58,28.86 23.87,28.86 
	23.87,28.57 24.16,28.57 24.46,28.57 24.46,28.86 24.75,28.86 24.75,28.57 25.04,28.57 25.04,28.86 25.33,28.86 25.33,29.15 
	25.33,29.44 25.62,29.44 25.62,29.15 25.62,28.86 25.92,28.86 25.92,29.15 26.21,29.15 26.21,28.86 26.5,28.86 26.21,29.15 
	26.5,29.15 26.79,29.15 26.79,28.86 27.08,28.86 27.37,28.86 27.37,28.57 27.67,28.57 27.67,28.86 27.96,29.15 28.25,29.44 
	28.25,29.73 28.54,29.73 28.54,30.03 28.83,30.61 28.83,30.9 28.54,31.19 28.54,31.48 28.54,31.78 28.54,32.07 28.54,32.36 
	28.83,32.36 28.83,32.65 29.12,32.65 29.12,32.94 29.12,33.24 29.12,33.53 29.12,33.82 29.12,34.11 29.12,34.4 29.12,34.69 
	28.83,34.69 28.83,34.99 28.83,35.28 28.83,35.57 28.83,35.86 28.83,36.15 28.83,36.74 29.12,37.03 29.12,37.61 29.12,37.9 
	29.12,38.49 29.12,39.07 29.12,39.36 29.12,39.66 29.42,39.66 29.71,39.66 30.29,39.66 30.58,39.36 31.17,39.36 31.46,39.36 
	32.04,39.36 32.33,39.36 32.63,39.36 33.21,39.66 33.5,39.66 34.09,39.95 34.67,39.95 34.96,39.95 35.25,39.95 35.54,39.95 
	35.84,40.24 35.84,40.53 36.13,40.53 36.42,40.53 36.71,40.53 37,40.24 37.3,40.24 37.3,39.95 37.59,39.95 37.88,39.95 38.17,39.95 
	38.17,39.66 38.46,39.66 38.75,39.66 38.75,39.36 39.05,39.36 39.05,39.07 39.34,38.78 39.34,38.49 39.63,38.49 39.92,38.2 
	40.21,37.9 40.51,37.9 40.8,37.9 40.8,37.61 41.09,37.61 41.38,37.32 41.67,37.03 41.96,37.03 42.26,37.03 42.55,37.32 42.84,37.32 
	42.84,37.03 42.84,36.74 42.55,36.45 42.55,36.15 42.55,35.86 42.55,35.57 42.55,34.99 42.55,34.69 42.55,33.82 42.55,33.24 
	42.55,32.94 42.26,32.65 42.26,32.36 42.26,32.07 42.26,31.78 42.26,31.48 42.55,31.48 42.55,31.19 42.55,30.9 42.55,30.61 
	42.84,30.32 42.84,30.03 42.84,29.73 42.55,29.73 42.55,29.44 42.26,29.15 42.26,28.86 41.96,28.86 41.67,28.86 41.67,28.57 
	41.38,28.27 41.38,27.98 41.09,27.69 41.38,27.4 41.67,27.4 41.96,27.4 41.96,27.11 42.26,27.11 42.55,26.82 42.26,26.82 
	42.26,26.52 42.26,26.23 42.26,25.94 42.26,25.65 41.96,25.65 41.67,25.65 41.67,25.36 41.38,25.36 41.38,25.07 41.09,24.77 
	41.09,24.48 41.09,24.19 41.09,23.9 41.09,23.61 41.38,23.61 41.38,23.31 41.38,23.02 41.09,23.02 41.09,22.73 41.38,22.73 
	41.38,22.44 41.09,22.44 41.09,22.15 41.38,22.15 41.38,21.86 41.38,21.56 41.09,21.27 40.8,20.98 40.8,20.69 40.51,20.69 
	40.51,20.4 40.51,20.1 40.21,20.1 40.21,19.81 39.92,19.81 39.92,19.52 39.63,19.52 39.34,19.52 39.34,19.23 39.05,19.23 
	39.05,18.94 39.05,18.65 39.34,18.65 39.34,18.35 39.63,18.35 39.92,18.35 40.21,18.35 40.51,18.06 40.51,17.77 40.8,17.48 
	40.8,17.19 41.09,16.89 41.09,16.6 41.38,16.02 41.38,15.73 41.38,15.44 41.38,14.85 41.38,14.56 41.38,14.27 41.38,13.98 
	41.38,13.69 41.38,13.39 41.38,13.1 41.38,12.52 41.38,12.23 41.09,11.93 41.09,11.64 41.09,11.35 41.38,11.35 41.38,11.06 
	41.67,10.77 41.96,10.48 42.26,10.48 42.55,10.18 42.55,9.89 42.55,9.6 42.55,9.31 42.55,9.02 42.55,8.72 42.55,8.43 42.84,8.43 
	43.13,8.43 43.13,8.14 43.13,7.85 42.84,7.56 42.55,7.27 42.26,7.27 42.26,6.97 42.55,6.97 42.55,6.68 42.84,6.68 42.55,6.39 
	42.55,6.1 42.55,5.81 42.84,5.52 42.84,5.22 42.55,4.93 42.55,4.64 42.26,4.35 41.96,4.06 42.26,3.76 42.26,3.47 42.55,3.47 
	43.13,3.18 43.13,2.89 43.13,2.31 43.42,2.01 43.42,1.72 43.71,1.43 43.71,1.72 43.71,2.01 43.71,2.31 43.71,2.6 44.01,2.89 
	44.3,2.89 44.3,3.18 44.59,3.18 44.59,3.47 44.88,3.47 44.88,3.18 44.88,2.89 44.88,2.6 45.17,2.6 45.47,2.6 45.76,2.31 46.05,2.31 
	46.34,2.31 46.63,2.01 46.92,1.72 47.22,1.72 47.51,1.72 47.51,1.43 47.8,1.43 48.09,1.43 48.09,1.72 48.38,1.72 48.68,1.72 
	48.68,1.43 48.97,1.43 48.97,1.14 49.26,1.14 49.26,1.43 49.55,1.43 49.84,1.43 50.13,1.43 50.13,1.14 50.43,1.14 50.43,0.85 
	50.72,0.85 50.72,1.14 51.01,1.43 51.3,1.43 51.3,1.72 51.3,2.01 51.01,2.31 51.01,2.6 51.3,2.6 51.59,2.89 51.59,2.6 51.89,2.6 
	51.89,2.89 52.18,2.89 52.47,2.89 52.47,2.6 52.76,2.6 53.05,2.6 53.05,2.31 53.34,2.31 53.64,2.6 54.22,2.6 54.51,2.6 54.8,2.6 
	55.1,2.6 55.39,2.6 55.39,2.31 55.68,2.31 55.97,2.31 55.97,2.01 56.26,2.01 56.26,2.31 56.55,2.31 56.85,2.31 57.14,2.6 57.43,2.6 
	57.72,2.6 58.01,2.89 58.31,3.18 58.6,3.18 58.89,3.47 59.18,3.47 59.47,3.47 "/>
</svg>
