<?xml version="1.0" encoding="utf-8"?>
<!-- Generator: Adobe Illustrator 24.2.1, SVG Export Plug-In . SVG Version: 6.00 Build 0)  -->
<svg version="1.1" id="Layer_1" xmlns="http://www.w3.org/2000/svg" xmlns:xlink="http://www.w3.org/1999/xlink" x="0px" y="0px"
	 viewBox="0 0 97.23 97.23" style="enable-background:new 0 0 97.23 97.23;" xml:space="preserve">
<style type="text/css">
	.st0{fill-rule:evenodd;clip-rule:evenodd;fill:#1D1D1B;}
</style>
<polygon class="st0" points="92.66,11.96 92.66,12.24 92.66,12.8 92.66,13.08 92.66,13.36 92.66,13.63 92.66,13.91 92.66,14.19 
	92.38,14.47 92.38,14.75 92.38,15.03 92.38,15.31 92.38,15.59 92.38,15.87 92.38,16.14 92.38,16.42 92.38,16.7 92.11,16.7 
	92.11,17.26 92.11,17.54 92.11,17.82 92.11,18.1 92.11,18.38 92.11,18.65 92.11,18.93 92.11,19.21 91.83,19.21 91.83,19.49 
	91.83,19.77 91.83,20.05 91.83,20.33 91.83,20.61 91.83,20.89 91.83,21.16 91.83,21.44 91.83,21.72 91.83,22 91.83,22.28 
	91.55,22.28 91.55,22.56 91.55,22.84 91.55,23.12 91.55,23.4 91.55,23.67 91.55,23.95 91.55,24.23 91.55,24.51 91.55,24.79 
	91.55,25.07 91.55,25.35 91.55,25.63 91.55,25.91 91.55,26.18 91.27,26.18 91.27,26.46 91.27,26.74 91.27,27.02 90.99,27.3 
	90.99,27.58 92.66,28.14 92.38,28.42 92.38,28.69 92.11,28.69 92.11,28.97 92.11,29.25 91.83,29.53 92.11,29.53 92.38,29.81 
	92.94,30.09 92.94,30.37 93.22,30.37 93.22,30.65 93.5,30.65 93.78,30.92 94.06,30.92 95.45,32.04 95.73,32.32 96.01,32.6 
	96.29,32.6 96.29,32.88 96.57,33.16 96.85,33.16 96.85,33.43 96.57,33.43 96.57,33.71 96.29,33.71 96.29,34.27 96.01,34.27 
	96.01,34.55 95.73,34.55 95.73,34.83 95.45,35.11 95.45,35.39 95.17,35.39 94.89,35.67 94.61,35.67 94.34,35.95 94.06,35.95 
	94.06,36.22 93.78,36.22 93.5,36.5 93.22,36.5 93.22,36.78 92.94,36.78 92.66,36.78 92.66,37.06 92.38,37.06 92.38,37.34 
	92.11,37.62 91.83,37.9 91.83,38.18 91.83,38.45 91.55,38.45 91.55,38.73 91.27,39.01 91.27,39.29 90.99,39.57 90.99,39.85 
	90.71,39.85 90.71,40.13 90.71,40.41 90.43,40.41 90.43,40.69 90.43,40.96 90.15,40.96 90.15,41.24 90.15,41.52 89.87,41.52 
	89.87,41.8 89.87,42.08 89.6,42.08 89.6,42.36 89.32,42.64 89.32,42.92 89.04,42.92 89.04,43.2 89.04,43.47 88.76,43.75 
	88.48,44.03 88.48,44.31 88.2,44.59 88.2,44.87 87.92,44.87 87.92,45.15 87.64,45.43 87.36,45.71 87.36,45.98 87.09,46.54 
	86.81,46.82 86.53,47.1 86.53,47.38 86.25,47.94 85.97,48.22 85.69,48.49 85.69,48.77 85.41,49.05 85.41,49.33 85.13,49.61 
	85.13,49.89 84.85,49.89 84.85,50.17 84.57,50.45 84.57,50.73 84.3,51 84.3,51.28 84.02,51.28 84.02,51.56 83.74,52.12 84.57,52.4 
	84.57,52.68 84.57,52.96 84.57,53.24 84.57,53.51 84.3,53.51 84.3,53.79 84.02,53.51 83.74,53.24 83.46,53.24 83.18,53.24 
	82.62,52.96 82.07,52.68 81.51,52.4 81.23,52.4 80.95,52.4 80.95,52.12 80.67,52.12 80.39,52.12 80.11,51.84 79.83,51.84 
	79.56,51.56 79.28,51.56 79,51.56 78.72,51.28 78.44,51.28 78.16,51.28 77.88,51 77.6,51 77.32,51 77.05,50.73 76.77,50.73 
	76.49,50.73 76.49,50.45 76.21,50.45 75.93,50.45 75.65,50.17 75.37,50.17 73.14,49.33 72.86,49.33 72.58,49.33 72.3,49.33 
	71.75,49.33 71.47,49.33 71.19,49.33 70.91,49.33 70.63,49.33 70.35,49.33 70.35,49.61 69.79,49.61 69.52,49.61 69.52,49.33 
	69.24,49.33 68.96,49.33 68.68,49.33 67.56,49.33 67.28,49.33 67.01,49.33 66.45,49.33 66.17,49.33 65.89,49.33 65.61,49.33 
	65.33,49.33 65.05,49.33 64.77,49.33 64.22,49.33 63.94,49.33 63.94,49.05 63.66,49.05 63.38,49.05 63.1,49.05 62.82,49.05 
	62.54,49.05 62.26,49.05 61.99,49.05 61.71,49.05 61.43,49.05 60.87,49.05 60.59,49.05 60.59,49.61 60.87,49.89 60.87,50.17 
	60.87,50.45 60.87,50.73 60.87,51 60.87,51.28 60.87,51.56 61.15,51.56 61.15,51.84 60.87,51.84 60.87,52.12 60.59,52.68 
	60.59,52.96 60.59,53.24 60.59,53.51 60.59,53.79 60.59,54.07 60.31,54.07 60.31,54.35 60.31,54.63 60.31,54.91 60.03,55.19 
	60.03,55.47 60.03,55.75 60.03,56.02 59.75,56.02 59.75,56.3 60.03,56.3 59.75,56.58 59.75,56.86 59.48,57.14 59.48,57.42 
	59.2,57.42 59.2,57.7 59.2,57.98 58.92,58.25 58.92,58.53 58.92,58.81 58.92,59.09 58.92,59.37 58.64,59.37 58.36,59.09 
	58.08,59.09 57.8,59.09 57.52,59.09 57.52,58.81 57.24,58.81 56.97,58.81 56.69,58.81 56.41,58.53 56.13,58.53 55.85,58.53 
	55.57,58.25 55.29,58.25 55.29,57.98 55.01,57.98 54.73,57.98 54.73,57.7 54.46,57.7 54.18,57.7 53.9,57.7 53.9,57.42 53.62,57.14 
	53.34,57.14 53.34,56.86 53.06,56.86 52.78,56.86 52.78,57.14 52.5,56.86 52.22,56.86 52.22,56.58 51.95,56.58 51.95,56.86 
	51.95,57.14 51.67,57.14 51.67,57.42 51.67,57.7 51.67,57.98 51.39,57.98 51.39,58.25 51.39,58.53 51.39,58.81 51.11,58.81 
	51.11,59.09 51.11,59.37 51.39,59.65 51.39,59.93 51.11,59.93 50.83,59.93 50.55,59.93 50.55,59.65 50.27,59.65 49.99,59.65 
	49.71,59.65 49.71,59.93 49.44,59.93 49.44,60.21 49.16,60.21 48.88,60.21 48.6,60.21 48.04,60.21 48.04,59.93 48.32,59.93 
	48.04,59.93 48.04,59.65 47.2,59.37 46.65,59.09 46.09,58.81 46.37,58.81 46.09,58.81 46.09,58.53 46.09,58.81 45.81,58.81 
	45.81,58.53 45.53,58.53 45.53,58.25 45.25,58.25 45.25,58.53 45.25,59.09 44.97,59.09 44.69,58.81 44.42,58.81 44.42,58.53 
	44.14,58.53 43.58,58.53 43.58,59.09 43.3,58.81 43.02,58.81 42.74,58.81 42.74,58.53 42.46,58.53 42.46,58.25 42.19,58.25 
	41.91,58.25 39.95,57.42 40.23,56.86 40.79,56.3 41.07,56.02 41.07,55.75 41.35,55.47 41.35,55.19 41.35,54.91 41.63,54.63 
	41.63,54.35 41.35,54.35 41.35,54.07 41.35,53.79 41.35,53.51 41.07,53.51 41.07,53.24 40.79,52.96 40.51,52.96 40.51,52.68 
	40.23,52.68 40.23,52.4 39.95,52.4 39.68,52.12 39.4,52.12 39.12,51.84 38.84,51.84 38.56,51.84 38.28,51.56 38,51.56 37.44,51.56 
	37.44,51.28 37.16,51.28 36.89,51.28 36.61,51.28 36.33,51.28 36.05,51.28 36.05,51.56 35.77,51.56 35.77,51.84 35.49,51.84 
	35.49,52.12 35.49,52.4 35.49,52.68 35.49,52.96 35.49,53.24 35.49,53.51 35.49,53.79 35.77,54.07 35.77,54.35 35.77,54.63 
	35.49,54.91 35.49,55.19 35.49,55.47 35.49,55.75 35.49,56.02 35.21,56.3 34.93,56.58 34.93,56.86 34.65,56.86 34.38,57.14 
	33.82,57.14 33.54,57.14 33.26,57.14 32.98,57.14 32.7,57.14 32.42,57.14 32.14,56.86 31.87,56.86 31.87,56.58 31.59,56.3 
	31.31,56.3 31.03,55.75 31.03,56.02 30.75,56.02 30.75,56.3 30.47,56.3 30.75,56.3 30.75,56.58 30.75,56.86 30.47,56.86 
	30.47,57.14 30.75,57.14 30.47,57.14 30.75,57.14 30.75,57.42 30.47,57.42 30.47,57.7 30.19,57.7 30.19,57.98 30.19,58.25 
	30.19,58.53 30.19,58.81 30.19,59.09 30.19,59.37 30.19,59.65 29.91,59.65 29.91,59.93 30.19,59.93 30.19,60.21 30.47,60.49 
	30.47,60.76 30.47,61.04 30.47,61.32 30.19,61.32 30.19,61.6 29.91,61.6 30.19,61.88 29.91,62.16 30.19,62.44 30.47,62.72 
	30.19,62.72 30.19,63 30.19,63.27 29.91,63.27 29.91,63.55 29.64,63.83 29.64,64.11 29.64,64.39 29.91,64.39 29.91,64.67 
	29.64,64.67 29.91,64.67 29.91,64.95 29.91,65.23 29.91,65.51 29.91,65.78 30.19,66.06 29.91,66.06 30.19,66.34 29.91,66.34 
	29.91,66.62 30.19,66.62 30.19,66.9 30.47,66.9 30.47,67.18 30.75,67.18 30.75,67.46 30.75,67.74 30.47,67.74 30.19,68.02 
	29.91,68.02 29.64,68.02 29.64,68.29 29.36,68.29 29.36,68.57 29.36,68.85 29.36,69.13 29.08,69.13 28.8,68.85 28.52,68.85 
	28.52,69.13 28.52,68.85 28.24,68.85 27.96,68.85 27.96,69.13 27.68,69.13 27.68,69.41 27.4,69.41 27.4,69.69 27.13,69.69 
	27.4,69.97 27.13,69.97 27.13,70.25 26.85,70.53 26.57,70.53 26.29,70.8 26.01,70.8 26.01,70.53 25.73,70.53 25.73,70.25 
	25.45,70.25 25.17,70.25 25.17,69.97 24.89,69.97 24.62,69.97 24.62,69.69 24.34,69.41 24.34,69.13 24.34,68.85 24.06,68.85 
	23.78,68.85 23.78,68.57 23.78,68.29 23.78,68.02 23.78,68.29 23.5,68.29 23.5,68.57 23.22,68.57 23.22,68.85 23.22,69.13 
	23.22,69.41 23.22,69.69 22.94,69.69 22.66,69.69 22.38,69.69 22.38,69.41 22.1,69.13 22.1,68.85 22.1,68.57 22.1,68.29 
	21.83,68.29 21.83,68.02 22.1,68.02 21.83,68.02 21.83,67.74 21.55,67.74 21.27,67.74 20.99,67.74 20.71,67.74 20.71,68.02 
	20.71,67.74 20.43,67.74 20.15,67.74 20.15,68.02 19.87,68.02 19.87,68.29 19.87,68.57 19.87,68.85 19.6,69.13 19.6,69.41 
	19.6,69.69 19.32,69.97 19.32,70.25 19.04,70.25 19.04,70.53 19.04,70.8 19.04,71.08 18.76,71.08 19.04,71.36 19.04,71.64 
	19.04,71.92 19.04,72.2 18.76,72.2 18.76,72.48 18.76,72.76 18.76,73.04 18.76,73.31 18.76,73.59 18.76,73.87 18.76,74.15 
	18.76,74.43 18.76,74.71 18.76,74.99 18.76,75.27 18.76,75.55 18.76,75.82 18.48,76.1 18.76,76.1 18.76,76.38 18.76,76.66 
	18.76,76.94 18.76,77.22 18.76,77.5 18.76,77.78 19.04,78.06 19.04,78.33 19.04,78.61 19.04,78.89 19.04,79.17 19.32,79.73 
	19.32,80.01 19.32,80.29 19.32,80.56 19.32,80.84 19.6,81.12 19.6,81.4 19.6,81.96 19.6,82.24 19.6,82.52 19.87,82.52 19.87,82.8 
	19.87,83.07 19.87,83.35 19.87,83.91 20.15,84.19 20.15,84.75 20.15,85.03 19.87,85.03 19.6,85.03 19.6,85.31 19.32,85.31 
	19.04,85.31 18.76,85.31 18.48,85.31 18.48,85.58 18.2,85.58 17.92,85.58 17.64,85.58 17.36,85.58 17.09,85.58 16.81,85.58 
	16.81,85.86 16.81,85.58 16.81,85.86 16.81,85.58 16.81,85.86 16.81,85.58 16.53,85.58 16.53,85.86 16.53,85.58 16.53,85.86 
	16.53,85.58 16.53,85.86 16.25,85.86 15.97,85.86 15.69,85.86 15.41,85.86 15.13,85.86 14.85,85.86 14.85,86.14 14.85,85.86 
	14.58,85.86 14.58,86.14 14.3,86.14 14.02,86.14 13.74,86.14 13.46,86.14 13.18,86.14 13.18,85.86 12.9,85.03 12.9,84.19 
	12.62,83.91 12.62,83.63 12.62,83.35 12.62,83.07 12.62,82.8 12.62,82.52 12.62,81.96 12.62,81.68 12.62,81.4 12.62,81.12 
	12.62,80.84 12.62,80.56 12.62,80.29 12.62,80.01 12.9,80.01 12.9,79.73 12.9,79.45 12.9,79.17 13.18,79.17 13.46,79.17 
	13.74,79.17 13.74,78.89 14.02,78.89 14.02,78.61 14.02,78.33 14.3,78.33 14.58,78.33 14.58,78.06 14.58,77.78 14.85,77.78 
	14.85,77.5 14.58,77.5 14.58,77.22 14.58,76.94 14.3,76.94 14.3,76.66 14.02,76.66 13.74,76.38 14.02,76.38 14.02,75.82 
	14.02,75.55 14.3,75.55 14.3,75.27 14.3,74.99 14.02,74.99 14.02,74.71 14.02,74.99 13.74,74.99 13.46,74.99 13.18,74.99 
	13.18,75.27 12.9,75.27 12.62,75.27 12.34,75.27 12.07,75.27 11.79,75.27 11.51,75.27 11.51,75.55 11.23,75.55 10.95,75.55 
	10.67,75.55 10.39,75.55 10.39,75.27 10.39,74.99 10.39,74.71 10.11,74.71 10.11,74.43 10.11,74.15 10.11,73.87 10.11,73.59 
	9.83,73.59 9.83,73.31 9.83,73.04 9.56,73.04 9.56,73.31 9.56,73.04 9.56,72.76 9.56,73.04 9.56,72.76 9.28,72.76 9.56,72.76 
	9.28,72.76 9.28,72.48 9.56,72.48 9.28,72.48 9.28,72.2 9.28,71.92 9.28,71.64 9.28,71.36 9.28,71.08 9,71.08 9,70.8 9.28,70.8 
	9,70.8 9.28,70.8 9,70.8 9,70.53 9,70.25 9,70.53 9,70.25 8.72,70.25 8.44,70.25 8.44,69.97 8.44,70.25 8.44,69.97 8.72,69.97 
	8.72,69.69 9,69.69 8.72,69.69 8.72,69.41 8.72,69.13 8.44,69.13 8.44,68.85 8.16,68.85 8.16,68.57 8.16,68.29 7.88,68.29 
	7.88,68.02 7.88,67.74 8.16,67.74 8.16,67.46 8.16,67.18 7.88,67.18 8.16,67.18 8.16,66.9 7.88,66.9 7.88,66.62 7.88,66.06 
	7.88,65.78 7.88,65.51 7.88,65.23 7.6,65.23 7.32,65.23 7.32,65.51 7.32,65.23 7.05,65.23 7.05,65.51 7.05,65.23 7.05,64.67 
	6.77,64.67 6.49,64.67 6.49,64.39 6.21,64.39 6.21,64.11 6.21,63.83 6.21,63.55 6.21,63.27 5.93,63.27 5.65,63 5.37,63 5.09,63 
	5.09,62.72 4.81,62.72 4.54,62.72 4.54,63 4.26,63 4.26,62.72 4.26,62.44 4.26,62.16 3.98,62.16 3.7,62.16 3.98,62.16 3.7,62.16 
	3.42,62.16 3.42,61.88 3.42,61.6 3.14,61.6 3.14,61.32 2.86,61.32 2.86,61.6 2.86,61.32 2.86,61.04 2.58,60.76 2.86,60.76 
	2.86,60.49 2.86,60.21 3.14,60.21 3.14,59.93 3.14,59.65 2.86,59.65 2.86,59.93 2.58,59.93 2.3,59.93 2.03,59.93 1.75,59.93 
	1.75,59.65 1.75,59.37 2.03,59.37 2.03,59.09 2.03,58.81 2.03,58.53 2.03,58.25 2.03,57.98 1.75,57.7 1.75,57.42 1.75,57.14 
	1.75,56.86 1.75,56.58 1.47,56.3 1.19,56.3 1.19,56.02 1.19,55.75 0.91,55.75 0.91,55.47 0.91,55.19 0.91,54.91 0.91,54.63 
	0.63,54.63 0.63,54.35 0.63,54.07 0.63,53.79 0.63,53.51 0.63,53.24 0.63,52.96 0.35,52.96 0.35,52.68 0.63,52.68 0.63,52.4 
	0.63,52.12 0.63,51.84 0.63,51.56 0.91,51.56 0.91,51.28 0.91,51 0.91,50.73 0.63,50.73 0.63,50.45 0.91,50.45 1.19,50.73 
	1.47,50.73 1.47,50.45 1.75,50.45 1.47,50.17 1.19,50.17 1.19,49.89 1.47,49.89 1.19,49.89 1.19,49.61 0.91,49.61 0.91,49.33 
	0.91,49.05 0.63,49.05 0.91,49.05 0.91,48.77 1.19,48.77 1.19,48.49 1.19,48.22 1.19,47.94 1.47,47.94 1.47,47.66 1.47,47.38 
	1.47,47.1 1.47,46.82 1.47,46.54 1.47,46.26 1.19,46.26 1.19,45.98 1.19,45.71 1.19,45.43 1.19,45.15 1.19,44.87 1.19,44.59 
	1.19,44.31 1.19,44.03 1.19,43.75 0.91,43.75 0.91,43.47 0.91,43.2 0.63,43.2 0.63,42.92 0.35,42.64 0.35,42.36 0.35,42.08 
	0.35,41.8 0.35,41.52 0.35,41.24 0.35,40.96 0.35,40.69 0.35,40.41 0.35,40.13 0.35,39.85 0.35,39.57 0.35,39.29 0.35,38.45 
	0.35,38.18 0.35,37.34 0.35,37.06 0.07,36.5 0.07,35.95 0.07,35.67 0.91,35.67 1.47,35.67 1.75,35.67 2.03,35.67 2.58,35.67 
	3.14,35.67 3.7,35.67 4.54,35.67 4.81,35.67 5.65,35.67 5.93,35.67 6.21,35.67 6.49,35.67 6.77,35.67 7.32,35.67 7.88,35.67 
	8.44,35.95 8.72,35.95 9,35.95 9.56,35.95 9.83,35.95 10.11,35.95 10.39,35.95 10.95,35.95 11.23,35.95 11.51,35.95 11.79,35.95 
	12.07,35.95 12.34,35.95 12.62,35.95 12.9,35.95 13.74,35.95 14.58,35.95 14.85,35.95 15.13,35.95 15.41,35.95 15.41,36.22 
	16.53,36.22 18.2,36.22 18.48,36.22 18.76,36.22 19.04,36.22 19.32,36.22 19.6,36.22 19.87,36.22 20.15,36.5 20.43,36.5 20.71,36.5 
	20.99,36.5 21.27,36.5 21.55,36.5 21.83,36.78 22.1,36.78 22.38,36.78 22.38,37.06 22.1,37.34 22.1,37.62 21.83,37.62 21.83,37.9 
	22.1,37.9 22.38,37.9 22.66,37.62 22.94,37.62 23.22,37.62 23.5,37.34 24.06,37.34 24.34,37.06 24.89,37.06 25.17,36.78 26.01,36.5 
	26.29,36.5 26.57,36.22 26.85,36.22 27.13,36.22 27.13,35.95 27.4,35.95 27.68,35.95 27.68,35.67 27.96,35.67 27.96,35.39 
	28.24,35.11 28.52,35.11 28.52,34.83 28.8,34.55 29.08,34.55 29.36,34.27 29.36,33.99 29.64,33.99 29.64,33.71 29.36,33.71 
	29.08,33.71 28.8,33.71 28.24,33.43 28.24,33.16 28.24,32.88 28.24,32.6 28.52,32.6 28.52,32.32 28.8,32.32 28.8,32.04 28.52,32.04 
	28.8,32.04 28.8,31.76 29.08,31.76 29.08,32.04 29.36,32.04 29.36,31.76 29.64,31.76 29.64,31.48 29.91,31.48 29.91,31.2 
	30.19,31.2 30.19,30.92 30.47,30.92 30.47,30.65 30.75,30.65 30.75,30.37 31.03,30.37 31.03,30.09 31.31,30.09 31.31,29.81 
	31.59,29.81 31.59,29.53 31.87,29.53 31.87,29.25 32.14,29.25 32.42,28.97 32.7,28.69 32.98,28.69 32.98,28.42 33.26,28.42 
	33.54,28.42 33.54,28.14 33.82,28.14 34.1,28.14 34.1,27.86 34.38,27.02 34.38,26.74 34.38,26.46 34.38,26.18 34.65,25.91 
	34.65,25.63 34.65,25.35 34.65,25.07 34.93,24.51 34.93,24.23 35.21,23.4 35.49,22.28 35.49,22 35.77,20.61 36.05,19.77 
	36.05,18.65 36.33,17.54 37.72,12.24 37.72,11.4 38,11.4 38,11.12 38.28,11.12 38.56,11.12 38.56,10.85 38.84,10.85 39.12,10.85 
	39.12,11.12 39.4,11.12 39.68,11.12 39.95,11.12 40.23,11.12 40.51,11.4 40.79,11.4 41.07,11.4 41.35,11.4 41.63,11.4 41.63,11.68 
	41.91,11.68 42.19,11.96 42.46,11.96 42.74,12.24 43.3,12.24 43.86,12.52 43.86,12.24 43.86,11.96 43.86,11.68 43.58,11.68 
	43.58,11.4 43.58,11.12 43.58,10.85 43.86,10.85 44.97,10.85 46.09,11.4 46.37,11.4 46.65,11.68 46.93,11.68 46.93,11.96 
	46.93,12.24 46.93,12.8 46.93,13.08 46.93,13.36 46.93,13.63 47.76,13.63 48.6,13.63 48.88,13.63 49.16,13.63 49.16,13.91 
	49.16,14.19 49.16,14.47 49.44,14.47 49.44,14.75 49.71,14.75 49.99,14.75 50.27,14.75 50.55,14.75 50.83,14.75 51.11,14.75 
	51.39,14.75 51.67,14.75 51.95,14.75 52.22,14.75 52.5,14.75 52.78,14.75 53.34,14.75 53.9,14.75 54.46,14.75 56.41,14.75 
	57.24,14.47 57.24,14.75 57.24,15.03 57.24,15.31 57.24,15.59 56.97,15.59 56.97,15.87 56.97,16.14 56.69,16.14 56.69,16.42 
	56.69,16.7 56.97,16.7 56.69,16.98 57.24,16.98 57.8,16.98 58.08,16.98 59.2,16.98 60.59,16.98 61.15,16.98 61.99,16.7 63.38,16.7 
	64.5,16.7 65.33,16.7 66.17,16.7 66.45,16.7 67.01,16.7 67.28,16.42 70.07,15.59 73.42,14.47 73.98,14.47 74.26,14.19 76.49,14.19 
	77.05,13.91 79.56,13.63 79.83,13.63 80.39,13.63 80.67,13.63 80.95,13.63 83.18,13.08 84.57,13.08 84.85,13.08 86.25,12.8 
	87.64,12.52 89.6,12.24 "/>
</svg>
