<?xml version="1.0" encoding="utf-8"?>
<!-- Generator: Adobe Illustrator 24.2.1, SVG Export Plug-In . SVG Version: 6.00 Build 0)  -->
<svg version="1.1" id="Layer_1" xmlns="http://www.w3.org/2000/svg" xmlns:xlink="http://www.w3.org/1999/xlink" x="0px" y="0px"
	 viewBox="0 0 97.23 97.23" style="enable-background:new 0 0 97.23 97.23;" xml:space="preserve">
<style type="text/css">
	.st0{fill-rule:evenodd;clip-rule:evenodd;fill:#1D1D1B;}
</style>
<polygon class="st0" points="24.06,14.71 24.06,14.85 24.06,15 24.21,15 24.21,15.15 24.36,15.15 24.36,15.3 24.5,15.3 24.65,15.3 
	24.8,15.3 24.95,15.3 24.95,15.45 24.95,15.6 24.95,15.75 24.95,15.89 25.1,16.04 25.25,16.19 25.25,16.34 25.4,16.49 25.4,16.64 
	25.4,16.79 25.4,16.93 25.4,17.08 25.54,17.23 25.54,17.38 25.54,17.53 25.4,17.53 25.4,17.68 25.25,17.83 25.25,17.97 25.25,18.12 
	25.4,18.12 25.54,18.12 25.54,17.97 25.69,17.97 25.69,17.83 25.84,17.83 25.84,17.68 25.99,17.68 25.99,17.83 25.99,17.97 
	25.99,18.12 25.99,18.27 25.99,18.42 25.99,18.57 25.99,18.72 25.84,18.72 25.84,18.87 25.69,18.87 25.54,19.16 25.54,19.31 
	25.4,19.31 25.4,19.46 25.25,19.61 25.25,19.76 25.4,19.91 25.4,20.05 25.4,20.2 25.25,20.2 25.25,20.35 25.25,20.5 25.4,20.65 
	25.54,20.65 25.54,20.8 25.54,20.94 25.54,21.09 25.4,21.09 25.25,21.09 25.1,20.94 24.95,20.94 24.95,21.09 24.8,21.09 24.8,21.24 
	24.8,21.39 24.8,21.54 24.95,21.69 25.1,21.69 25.25,21.69 25.4,21.54 25.54,21.39 25.69,21.24 25.69,21.09 25.84,21.09 
	25.99,21.09 26.14,21.09 26.14,21.24 26.14,21.39 26.14,21.54 25.99,21.69 25.84,21.84 25.69,22.13 25.54,22.28 25.54,22.43 
	25.4,22.43 25.25,22.43 25.1,22.43 24.95,22.28 24.8,22.13 24.8,21.98 24.65,21.84 24.5,21.84 24.36,21.84 24.21,21.98 24.21,22.13 
	24.21,22.28 24.21,22.43 24.36,22.58 24.36,22.73 24.5,22.88 24.5,23.02 24.65,23.17 24.8,23.32 24.95,23.47 25.1,23.47 
	25.25,23.62 25.4,23.62 25.54,23.77 25.69,23.77 25.84,23.77 25.99,23.77 25.99,23.92 25.99,24.06 25.99,24.21 25.84,24.36 
	25.69,24.36 25.54,24.51 25.4,24.51 25.1,24.51 24.95,24.66 24.95,24.81 25.1,24.81 25.1,24.96 25.25,24.96 25.4,24.96 25.54,24.81 
	25.69,24.81 25.84,24.66 25.99,24.66 26.14,24.66 26.29,24.66 26.29,24.51 26.44,24.36 26.58,24.36 26.58,24.21 26.73,24.36 
	26.73,24.21 26.88,24.21 26.88,24.36 27.03,24.36 27.18,24.36 27.18,24.21 27.33,24.21 27.33,24.06 27.18,24.06 27.18,23.92 
	27.33,23.92 27.33,24.06 27.48,23.92 27.48,24.06 27.62,24.06 27.77,24.06 27.77,23.92 27.92,23.92 28.07,23.92 28.07,23.77 
	28.07,23.62 28.22,23.62 28.37,23.62 28.37,23.47 28.37,23.32 28.52,23.32 28.66,23.32 28.66,23.17 28.81,23.17 28.96,23.17 
	28.96,23.02 28.81,23.02 28.81,22.88 28.96,22.88 29.11,22.88 29.26,22.88 29.41,22.88 29.41,22.73 29.41,22.58 29.56,22.58 
	29.7,22.58 29.85,22.58 30,22.58 30.15,22.58 30.15,22.73 30.3,22.73 30.45,22.73 30.59,22.73 30.74,22.73 30.89,22.73 31.04,22.58 
	31.04,22.73 31.19,22.73 31.19,22.58 31.19,22.43 31.34,22.43 31.34,22.28 31.34,22.13 31.19,22.13 31.19,21.98 31.19,21.84 
	31.04,21.84 31.19,21.84 31.34,21.84 31.49,21.84 31.64,21.98 31.78,21.98 31.93,21.98 32.08,21.98 32.08,22.13 32.23,22.13 
	32.38,22.13 32.38,22.28 32.53,22.28 32.67,22.28 32.82,22.43 32.97,22.43 32.97,22.58 33.12,22.58 33.12,22.73 33.27,22.73 
	33.27,22.88 33.27,23.02 33.27,23.17 33.27,23.32 33.27,23.47 33.42,23.47 33.57,23.62 33.57,23.47 33.71,23.47 33.71,23.32 
	33.86,23.32 34.01,23.32 34.16,23.32 34.16,23.17 34.31,23.32 34.46,23.32 34.46,23.17 34.61,23.17 34.75,23.02 34.75,22.88 
	34.9,22.88 35.05,22.88 35.05,22.73 35.2,22.73 35.2,22.58 35.35,22.58 35.35,22.73 35.5,22.73 35.65,22.73 35.94,22.58 
	35.94,22.43 36.09,22.43 36.24,22.58 36.24,22.73 36.39,22.73 36.54,22.73 36.54,22.58 36.69,22.58 36.69,22.73 36.69,22.88 
	36.83,22.88 36.98,22.88 37.13,23.02 37.28,23.02 37.43,23.02 37.43,22.88 37.43,23.02 37.58,23.02 37.58,22.88 37.73,23.02 
	37.87,23.02 37.87,22.88 38.02,22.88 38.17,22.73 38.32,22.73 38.62,22.88 38.91,23.02 39.06,23.17 39.21,23.32 39.36,23.32 
	39.8,23.32 39.95,23.32 40.1,23.47 40.4,23.47 40.55,23.47 40.7,23.47 40.7,23.32 40.84,23.32 40.84,23.17 40.99,23.32 40.84,23.32 
	40.84,23.47 40.84,23.62 40.84,23.77 40.84,23.92 40.99,23.92 41.14,24.06 41.29,24.06 41.44,24.06 41.59,24.06 41.59,23.92 
	41.59,23.62 41.74,23.62 41.74,23.47 41.88,23.32 41.88,23.17 42.03,23.17 42.18,23.17 42.33,23.17 42.33,23.32 42.48,23.32 
	42.48,23.47 42.63,23.62 42.78,23.47 42.92,23.32 42.92,23.17 43.07,23.32 43.22,23.47 43.37,23.47 43.52,23.47 43.52,23.32 
	43.67,23.32 43.67,23.17 43.82,23.17 43.96,23.17 44.41,22.88 44.56,22.88 44.71,23.02 44.71,24.36 44.71,24.51 44.71,24.96 
	45,25.1 45.3,25.4 45.6,25.4 45.75,25.55 46.04,25.55 46.19,25.7 46.34,25.7 46.49,25.7 46.79,25.85 46.94,25.85 47.08,25.85 
	47.23,26 47.38,26 47.53,26 47.68,26 47.83,26 47.98,26 48.12,26 48.27,26 48.42,26 48.42,25.85 48.57,25.85 48.57,26 48.72,26 
	48.72,25.85 48.72,26 48.87,26 48.87,26.14 49.01,26.14 49.01,26.29 49.16,26.29 49.31,26.44 49.46,26.44 49.46,26.59 49.46,26.74 
	49.61,26.74 49.61,26.89 49.76,26.89 49.91,26.89 50.05,26.89 50.2,26.89 50.35,26.89 50.5,26.89 50.65,26.89 50.8,26.89 
	50.95,26.89 51.09,26.89 51.24,26.89 51.39,26.89 51.54,26.89 51.84,27.03 51.99,27.03 52.13,27.03 52.13,27.18 52.28,27.18 
	52.43,27.33 52.58,27.33 52.73,27.33 53.32,27.93 53.47,28.07 53.62,28.37 53.77,28.37 53.77,28.52 53.92,28.52 53.92,28.67 
	54.07,28.67 54.21,28.67 54.51,28.97 55.11,29.26 55.25,29.41 55.4,29.56 55.7,29.71 56,29.86 56.14,30.01 56.59,30.3 56.74,30.3 
	56.89,30.45 57.04,30.45 57.04,30.6 57.04,30.75 57.04,30.9 57.04,31.05 57.33,31.19 57.48,31.19 57.48,31.05 57.48,30.9 
	57.63,30.75 57.78,30.6 57.78,30.45 57.93,30.45 58.08,30.3 58.22,30.3 58.37,30.3 58.52,30.3 58.67,30.3 58.82,30.3 58.82,30.15 
	58.97,30.15 58.97,29.86 59.12,29.71 59.12,29.56 59.26,29.41 59.41,29.41 59.41,29.56 59.41,29.71 59.26,29.71 59.26,29.86 
	59.26,30.01 59.26,30.15 59.26,30.3 59.41,30.45 59.41,30.6 59.41,30.75 59.41,30.9 59.41,31.05 59.41,31.19 59.41,31.34 
	59.56,31.49 59.71,31.49 59.71,31.64 59.86,31.79 60.01,31.94 60.16,31.94 60.3,32.09 60.45,32.09 60.45,32.23 60.6,32.38 
	60.75,32.38 60.9,32.38 61.05,32.38 61.2,32.23 61.2,32.09 61.2,31.94 61.34,32.09 61.49,32.23 61.64,32.38 61.79,32.68 
	61.94,32.83 62.09,32.98 62.09,33.12 62.98,33.12 63.13,33.12 63.13,33.27 63.28,33.27 63.28,33.42 63.42,33.42 63.57,33.42 
	63.57,33.57 63.72,33.57 64.02,34.02 64.02,34.16 64.17,34.16 64.31,34.16 64.46,34.16 64.76,34.02 64.91,34.02 65.35,33.87 
	65.35,33.72 65.5,33.72 65.65,33.72 65.8,33.72 65.95,33.72 66.1,33.72 66.25,33.72 66.39,33.72 66.69,33.72 66.99,33.72 
	67.14,33.72 67.29,33.72 67.43,33.87 67.58,33.87 67.88,34.02 68.18,34.02 68.33,34.16 68.47,34.16 68.62,34.16 68.77,34.02 
	68.92,34.02 69.07,34.02 69.22,33.87 69.22,33.72 69.37,33.72 69.37,33.57 69.51,33.42 69.66,33.42 69.66,33.27 69.81,33.12 
	69.81,32.98 70.11,32.68 70.11,32.53 70.11,32.38 70.26,32.38 70.26,32.23 70.26,32.09 70.41,31.94 70.55,31.94 70.85,31.94 
	71,31.94 71.15,31.79 71.3,31.79 71.45,31.64 71.45,31.49 71.45,31.34 71.59,30.9 71.59,30.75 71.59,30.45 71.74,30.15 71.74,30.01 
	71.74,29.86 71.74,29.71 71.74,29.56 71.89,29.56 72.04,29.56 72.19,29.56 72.34,29.41 72.48,29.41 72.63,29.41 72.63,29.26 
	72.78,29.26 72.93,29.26 72.93,29.11 73.08,29.11 73.23,29.11 73.08,29.11 73.23,29.11 73.23,29.26 73.23,29.11 73.38,29.11 
	73.52,29.11 73.67,29.11 73.67,29.26 73.82,29.26 73.97,29.26 73.97,29.11 74.12,29.11 74.12,29.26 74.27,29.26 74.42,29.26 
	74.42,29.11 74.56,29.11 74.42,29.11 74.42,28.97 74.56,28.97 74.56,28.82 74.71,28.82 74.71,28.67 74.86,28.67 74.86,28.52 
	74.86,28.67 75.01,28.67 75.01,28.52 75.01,28.67 75.16,28.52 75.16,28.67 75.16,28.52 75.31,28.52 75.31,28.37 75.31,28.22 
	75.46,28.22 75.46,28.07 75.6,28.07 75.6,27.93 75.75,27.93 75.6,27.93 75.75,27.78 75.6,27.78 75.75,27.78 75.75,27.63 
	75.75,27.78 75.9,27.78 76.05,27.78 76.05,27.93 76.2,28.07 76.2,28.22 76.35,28.22 76.5,28.37 76.5,28.52 76.64,28.52 76.79,28.67 
	76.79,28.82 76.94,28.82 77.09,28.97 77.24,29.11 77.39,29.41 77.54,29.41 77.54,29.56 77.54,29.71 77.68,29.86 77.68,30.01 
	77.83,30.01 77.83,30.15 77.98,30.15 77.98,30.3 77.98,30.45 78.13,30.6 78.28,30.6 78.43,30.6 78.43,30.45 78.57,30.45 
	78.72,30.45 78.72,30.6 78.87,30.75 79.02,30.75 79.02,30.9 79.17,30.9 79.17,31.05 79.32,31.05 79.32,31.19 79.47,31.19 
	79.47,31.34 79.61,31.34 79.61,31.49 79.47,31.49 79.47,31.64 79.47,31.49 79.61,31.49 79.61,31.64 79.61,31.79 79.47,31.94 
	79.47,32.09 79.47,32.23 79.61,32.53 79.61,32.83 79.61,32.98 79.61,33.12 79.61,33.27 79.61,33.42 79.61,33.57 79.61,33.72 
	79.61,33.87 79.47,34.02 79.32,34.02 79.32,34.16 79.32,34.31 79.32,34.46 79.47,34.61 79.47,34.76 79.61,34.61 79.61,34.76 
	79.61,34.91 79.61,35.06 79.61,35.2 79.61,35.35 79.91,36.24 80.06,36.24 80.06,36.54 80.21,36.54 80.36,36.69 80.65,36.84 
	80.8,36.99 80.95,36.84 81.1,36.69 81.25,36.69 81.4,36.69 81.55,36.69 81.69,36.84 81.84,36.84 81.99,36.84 82.14,36.84 
	82.29,36.84 82.44,36.69 82.59,36.84 83.03,36.99 83.18,37.14 83.33,37.14 83.48,37.14 83.48,37.28 83.63,37.58 83.77,38.18 
	83.77,38.77 83.63,39.07 83.63,39.22 83.63,39.36 83.63,39.51 83.48,39.51 83.48,39.66 83.33,39.66 83.33,39.81 83.48,39.81 
	83.48,39.96 83.48,40.11 83.63,40.11 83.63,40.26 83.48,40.26 83.48,40.4 83.48,40.55 83.48,40.7 83.63,40.7 83.48,40.7 
	83.48,40.85 83.63,40.85 83.63,41 83.63,41.15 83.48,41.15 83.48,41.29 83.33,41.29 83.33,41.44 83.33,41.59 83.18,41.59 
	83.18,41.74 83.18,41.59 83.18,41.74 83.33,41.74 83.18,41.74 83.18,41.89 83.18,42.04 83.18,42.19 83.33,42.19 83.33,42.33 
	83.77,42.78 83.92,42.93 85.26,43.08 85.56,43.23 85.85,43.67 85.85,44.27 86,45.16 86.15,45.31 86.6,45.6 86.89,45.9 87.19,46.2 
	87.34,46.64 87.64,47.24 87.78,47.39 87.93,47.53 88.08,47.53 88.23,47.53 88.23,47.39 88.38,47.39 88.53,47.39 88.68,47.39 
	88.68,47.53 88.82,47.53 88.82,47.39 88.97,47.39 88.97,47.24 89.12,47.24 89.27,47.24 89.27,47.09 89.27,47.24 89.42,47.09 
	89.42,47.24 89.42,47.09 89.57,47.09 89.57,47.24 89.72,47.24 89.72,47.09 89.86,47.09 89.86,47.24 90.01,47.09 90.01,47.24 
	90.16,47.24 90.16,47.39 90.01,47.39 90.16,47.39 90.16,47.53 90.01,47.53 90.01,47.68 89.86,47.83 90.01,47.83 89.86,47.83 
	90.01,47.83 89.86,47.83 89.86,47.98 89.72,47.98 89.72,48.13 89.72,48.28 89.57,48.28 89.72,48.28 89.57,48.28 89.72,48.28 
	89.72,48.42 89.57,48.42 89.57,48.57 89.57,48.42 89.57,48.57 89.42,48.57 89.57,48.57 89.42,48.57 89.57,48.57 89.57,48.72 
	89.42,48.72 89.57,48.72 89.42,48.72 89.57,48.72 89.42,48.87 89.42,49.17 89.27,49.32 89.12,49.61 88.97,49.76 88.97,50.06 
	88.82,50.21 88.53,50.5 88.23,50.65 87.93,50.65 87.64,50.8 87.19,50.95 86.75,50.95 86.15,51.1 85.71,51.1 85.56,51.25 85.56,51.4 
	85.56,51.54 85.71,51.54 86,51.84 86.15,52.14 86.45,52.44 86.89,52.73 87.34,52.73 87.93,53.03 88.38,53.33 88.68,53.92 
	88.82,54.07 88.97,54.07 89.12,54.66 89.12,54.96 89.42,55.41 89.72,56 90.01,56.3 90.16,56.45 92.09,56.74 92.09,57.04 
	92.09,57.19 92.24,57.19 92.24,57.34 92.39,57.49 92.39,57.63 92.54,57.63 92.54,57.78 92.69,57.78 92.69,57.93 92.69,58.08 
	92.54,58.23 92.54,58.38 92.39,58.53 92.39,58.67 92.24,58.82 92.24,58.97 92.24,59.27 92.39,59.27 92.39,59.42 92.54,59.42 
	92.54,59.57 92.69,59.57 92.69,59.71 92.69,59.86 92.69,60.01 92.84,60.01 92.98,60.31 93.13,60.31 93.28,60.46 93.43,60.61 
	93.58,60.75 93.58,60.9 93.73,61.05 93.88,61.2 94.02,61.2 94.02,61.35 94.17,61.35 94.32,61.35 94.32,61.5 94.32,61.65 
	94.32,61.79 94.47,61.94 94.62,62.09 94.77,62.09 94.77,62.24 94.91,62.24 94.91,62.39 95.06,62.39 95.21,62.39 95.36,62.54 
	95.51,62.54 95.66,62.54 95.66,62.68 95.51,62.68 95.66,62.83 95.66,62.98 95.66,63.13 95.66,63.28 95.51,63.43 95.51,63.58 
	95.36,63.58 95.36,63.72 95.36,63.87 95.36,64.02 95.51,64.02 95.51,64.17 95.51,64.32 95.36,64.47 95.51,64.47 95.51,64.62 
	95.66,64.62 95.81,64.76 95.95,64.91 96.1,64.91 96.1,65.06 95.95,65.21 95.95,65.36 95.95,65.51 96.1,65.51 96.1,65.66 96.1,65.8 
	96.1,65.95 95.95,66.1 95.95,66.25 95.95,66.4 95.95,66.7 96.1,66.7 96.1,66.84 96.25,66.99 96.4,67.14 96.55,67.14 96.7,67.14 
	96.7,67.29 96.7,67.44 96.85,67.44 96.7,67.59 96.7,67.74 96.7,67.88 96.7,68.03 96.55,68.18 96.4,68.33 96.4,68.48 96.4,68.63 
	96.55,68.77 96.7,69.07 96.55,69.07 96.4,69.22 96.25,69.22 96.1,69.22 95.95,69.37 95.81,69.52 95.66,69.67 95.51,69.67 
	95.36,69.67 95.21,69.67 94.91,69.81 94.77,69.81 94.77,69.96 94.47,70.71 94.47,71 94.32,71.15 94.32,71.3 94.17,71.3 94.17,71.45 
	94.02,71.45 94.02,71.6 94.02,71.75 93.88,71.75 93.88,71.89 93.73,71.89 93.28,72.49 93.13,72.64 92.98,72.64 92.84,72.64 
	92.69,72.64 92.54,72.49 92.39,72.49 92.24,72.49 92.09,72.64 91.94,72.64 91.94,72.79 91.8,72.79 91.8,72.93 91.65,72.93 
	91.5,72.93 91.5,72.79 91.5,72.64 91.5,72.49 91.5,72.34 91.5,72.49 91.35,72.49 91.2,72.49 91.05,72.64 90.9,72.64 90.76,72.64 
	90.76,72.79 90.61,72.93 90.46,72.93 90.31,72.93 90.16,72.93 89.86,73.08 89.72,73.08 89.57,73.23 89.57,73.38 89.57,73.53 
	89.72,73.53 89.72,73.68 89.72,73.83 89.72,73.97 89.57,73.97 89.72,74.12 89.72,74.27 89.72,74.42 89.57,74.57 89.42,74.87 
	89.42,75.01 89.27,75.01 89.12,75.01 88.97,75.01 88.97,75.16 88.97,75.31 89.12,75.46 88.97,75.61 88.97,75.76 88.97,75.91 
	88.97,76.05 88.97,76.2 89.12,76.2 89.12,76.35 88.97,76.35 88.97,76.5 88.97,76.65 88.82,76.65 88.68,76.65 88.68,76.8 
	88.68,76.94 88.68,77.09 88.68,77.24 88.82,77.39 88.82,77.54 88.68,77.69 88.68,77.84 88.68,77.98 88.68,78.13 88.53,78.28 
	88.38,78.28 88.38,78.13 88.38,77.98 88.38,77.84 88.23,77.69 88.23,77.54 88.08,77.39 88.08,77.54 87.93,77.54 87.78,77.54 
	87.64,77.69 87.49,77.69 87.49,77.84 87.49,77.98 87.49,78.13 87.49,78.28 87.49,78.43 87.49,78.58 87.34,78.58 87.19,78.73 
	87.04,78.73 86.89,78.73 86.89,78.58 86.89,78.43 86.89,77.98 86.89,77.84 86.89,77.69 86.89,77.54 86.89,77.39 86.89,77.24 
	86.89,77.09 86.75,76.94 86.75,76.8 86.75,76.65 86.75,76.5 86.6,76.5 86.45,76.65 86.3,76.65 86.15,76.65 86,76.65 85.85,76.65 
	85.71,76.65 85.41,76.65 85.26,76.65 85.11,76.65 84.96,76.65 84.81,76.65 84.81,76.8 84.67,76.94 84.67,77.09 84.67,77.24 
	84.52,77.24 84.37,77.24 84.22,77.24 84.22,77.39 84.07,77.39 84.07,77.54 83.92,77.69 83.92,77.84 83.77,77.84 83.77,77.69 
	83.63,77.69 83.63,77.54 83.48,77.54 83.33,77.54 83.18,77.54 83.03,77.54 83.03,77.69 82.88,77.84 82.88,77.98 82.88,78.13 
	82.73,78.58 82.59,78.88 82.59,79.02 82.59,79.17 82.44,79.32 82.29,79.47 82.14,79.62 81.99,79.62 81.4,79.92 80.51,80.36 
	80.21,80.66 79.61,80.96 79.32,81.25 79.17,81.4 78.87,81.55 78.87,81.7 78.72,81.7 78.72,81.85 78.57,82 78.57,82.14 78.43,82.14 
	78.43,82 78.28,82 78.13,82 77.98,82 77.83,82 77.68,82 77.54,81.85 77.39,81.7 77.24,81.7 77.09,81.7 76.94,81.7 76.79,81.85 
	76.64,81.85 76.5,81.85 76.35,81.85 76.2,81.85 75.75,82 75.6,82.14 75.46,82.14 75.46,82.29 75.31,82.29 75.16,82.44 75.16,82.59 
	75.01,82.59 75.01,82.74 74.86,82.74 74.71,82.59 74.56,82.74 74.42,82.74 74.42,82.59 74.27,82.59 73.97,82.44 73.82,82.29 
	73.67,82.29 73.67,82.14 73.52,82 73.52,81.85 73.38,81.55 73.38,81.4 73.38,81.25 73.38,81.1 73.38,80.96 73.38,80.81 73.38,80.66 
	73.38,80.51 73.38,80.36 73.23,80.21 73.08,80.21 72.93,80.21 72.78,80.06 72.63,80.06 72.48,79.92 72.34,79.77 72.34,79.62 
	72.19,79.47 72.19,79.32 72.04,79.32 72.04,79.17 71.89,79.17 71.89,79.02 71.59,78.73 71.45,78.58 71.45,78.43 71.3,78.28 
	71.3,78.13 71.15,78.13 71.15,77.98 71.15,77.84 71.15,77.69 71.15,77.54 71.15,77.39 71.15,77.09 71.15,76.94 71.15,76.8 71,76.65 
	71,76.5 70.85,76.35 70.7,76.35 70.55,76.35 70.41,76.2 70.26,76.2 70.26,76.05 70.11,76.05 69.96,75.91 69.96,75.76 69.81,75.76 
	69.81,75.61 69.81,75.31 69.66,75.16 69.66,75.01 69.66,74.87 69.66,74.72 69.51,74.72 69.51,74.57 69.37,74.57 69.37,74.42 
	69.22,74.42 69.07,74.42 68.92,74.42 68.77,74.42 68.62,74.27 68.47,74.27 68.47,74.12 68.33,73.97 68.18,73.83 68.03,73.68 
	67.88,73.53 67.73,73.38 67.58,73.38 67.43,73.08 67.29,73.08 67.29,72.93 67.14,72.93 66.99,72.93 66.84,72.93 66.69,72.93 
	66.69,72.79 66.54,72.79 66.54,72.64 66.39,72.64 66.39,72.49 66.39,72.34 66.25,72.19 66.25,72.04 66.1,72.04 66.1,71.89 
	65.95,71.75 65.65,71.75 65.65,71.6 65.5,71.6 65.5,71.75 65.35,71.75 65.21,71.75 65.06,71.75 65.06,71.6 64.91,71.6 64.91,71.45 
	64.76,71.45 64.61,71.45 64.31,71.6 64.17,71.6 64.02,71.6 63.87,71.6 63.72,71.6 63.57,71.45 63.42,71.3 63.28,71.3 63.13,71.3 
	62.98,71.3 62.98,71.15 62.98,71 62.83,70.85 62.83,70.71 62.68,70.71 62.53,70.56 62.38,70.41 62.38,70.26 62.38,69.96 
	62.24,69.81 62.24,69.67 62.09,69.52 61.94,69.52 61.79,69.52 61.64,69.52 61.49,69.52 61.34,69.67 61.2,69.81 61.05,69.81 
	60.9,69.81 60.75,69.67 60.6,69.67 60.6,69.52 60.6,69.37 60.75,69.22 60.75,69.07 60.6,68.92 60.45,68.92 60.45,68.77 60.3,68.77 
	60.3,68.63 60.16,68.48 60.16,68.18 60.16,68.03 60.16,67.88 60.16,67.74 60.16,67.59 60.01,67.44 60.01,67.29 60.01,67.14 
	60.01,66.99 60.01,66.84 60.01,66.7 60.01,66.55 60.01,66.4 59.86,66.4 59.86,66.25 59.86,66.1 59.71,65.95 59.71,65.8 59.56,65.66 
	59.41,65.66 59.26,65.66 59.12,65.66 59.12,65.51 59.12,65.36 59.26,65.36 59.12,65.36 59.26,65.21 59.26,65.06 59.12,64.91 
	58.97,64.91 58.82,64.91 58.82,64.76 58.67,64.76 58.52,64.76 58.52,64.47 58.52,64.32 58.37,64.32 58.37,64.17 58.22,64.17 
	58.22,63.87 58.22,63.72 58.08,63.58 58.08,63.43 57.93,63.28 57.93,63.13 57.78,63.13 57.63,62.98 57.48,62.98 57.33,62.98 
	56.89,62.98 56.74,62.98 56.59,62.98 56.44,62.98 56.29,62.83 56.14,62.68 56,62.54 55.85,62.24 55.7,62.09 55.7,61.94 55.55,61.94 
	55.4,61.94 55.25,61.94 55.11,61.94 54.96,61.94 54.81,61.79 54.66,61.79 54.66,61.65 54.66,61.5 54.51,61.5 54.51,61.35 
	54.36,61.35 54.21,61.35 54.21,61.5 54.07,61.5 54.07,61.65 54.07,61.79 54.07,61.94 54.07,62.09 53.92,62.09 53.77,62.09 
	53.77,62.24 53.62,62.24 53.47,62.24 53.32,62.24 53.17,62.24 53.03,62.24 52.88,62.39 52.73,62.54 52.28,62.98 52.13,62.98 
	51.99,62.98 51.84,62.98 51.69,62.98 51.54,62.98 51.39,62.98 51.24,62.98 51.09,62.98 51.09,62.83 50.95,62.68 50.8,62.54 
	50.65,62.54 50.5,62.39 50.5,62.24 50.35,62.09 50.35,61.79 50.35,61.65 50.35,61.5 50.2,61.5 49.91,61.5 49.76,61.5 49.76,61.35 
	49.61,61.35 49.61,61.2 49.61,61.05 49.46,61.05 49.31,60.9 49.16,60.9 49.01,61.05 48.87,61.05 48.87,60.9 48.72,60.9 48.72,60.75 
	48.72,60.61 48.87,60.61 48.87,60.46 48.87,60.31 48.87,60.16 48.72,59.86 48.72,59.71 48.57,59.42 48.42,59.27 48.42,59.12 
	48.27,58.97 48.27,58.82 47.38,58.23 47.23,58.23 47.08,58.23 46.94,58.23 46.94,58.38 46.79,58.38 46.49,58.23 46.34,58.38 
	46.19,58.53 46.04,58.53 45.75,58.67 45.6,58.67 45.3,58.67 45.3,58.82 45.15,58.82 45,58.82 44.86,58.82 44.71,58.82 44.56,58.82 
	44.41,58.97 44.26,58.97 44.11,58.97 44.11,58.82 43.67,58.53 43.52,58.53 43.52,58.38 43.37,58.38 43.37,58.23 43.22,58.08 
	43.07,57.78 42.92,57.78 42.92,57.63 43.07,57.63 42.92,57.63 42.92,57.49 43.07,57.49 42.92,57.49 42.78,57.34 42.78,57.19 
	42.63,57.19 42.63,57.04 42.48,57.04 42.63,57.04 42.63,56.89 42.48,56.89 42.33,56.89 42.33,56.74 42.33,56.89 42.18,56.74 
	42.18,56.59 42.18,56.74 42.03,56.74 42.03,56.59 41.88,56.59 42.03,56.59 41.88,56.59 41.88,56.45 41.74,56.45 41.59,56.3 
	41.44,56.3 41.44,56.15 41.29,56 41.29,55.85 41.14,55.85 41.14,55.7 40.99,55.85 40.99,55.7 40.84,55.7 40.7,55.7 40.55,55.55 
	40.4,55.55 40.4,55.41 40.25,55.41 40.1,55.41 40.1,55.26 39.95,55.26 39.95,55.11 39.95,54.96 39.8,54.96 39.8,55.11 39.8,54.96 
	39.66,54.96 39.66,54.81 39.66,54.96 39.51,54.81 39.36,54.81 39.36,54.66 39.36,54.51 39.36,54.37 39.21,54.37 39.36,54.37 
	39.21,54.37 39.21,54.22 39.06,54.22 39.06,54.07 39.06,53.92 38.91,53.77 38.77,53.77 38.77,53.62 38.62,53.77 38.62,53.62 
	38.47,53.62 38.32,53.62 38.17,53.62 38.17,53.48 38.32,53.48 38.17,53.48 38.17,53.33 38.02,53.33 38.02,53.18 38.17,53.18 
	38.02,53.18 38.02,53.03 37.87,53.03 37.87,52.88 37.87,53.03 37.73,53.03 37.58,52.88 37.58,52.73 37.73,52.73 37.73,52.58 
	37.73,52.44 37.58,52.44 37.73,52.44 37.73,52.29 37.58,52.29 37.43,52.29 37.43,52.14 37.28,52.14 37.28,51.99 37.28,51.84 
	37.13,51.84 37.13,51.69 36.98,51.69 36.98,51.54 36.98,51.4 36.83,51.4 36.83,51.25 36.83,51.1 36.69,51.1 36.54,51.1 36.54,50.95 
	36.69,50.95 36.54,50.95 36.54,50.8 36.69,50.8 36.54,50.8 36.54,50.95 36.54,50.8 36.39,50.8 36.39,50.95 36.39,50.8 36.24,50.8 
	36.24,50.65 36.09,50.65 35.94,50.65 35.94,50.5 35.94,50.36 35.94,50.21 35.94,50.06 35.79,50.06 35.65,50.06 35.79,50.06 
	35.65,49.91 35.65,50.06 35.65,49.91 35.65,49.76 35.65,49.61 35.5,49.61 35.5,49.46 35.35,49.61 35.35,49.46 35.35,49.32 
	35.2,49.32 35.2,49.46 35.05,49.46 34.9,49.46 34.75,49.46 34.75,49.61 34.61,49.61 34.61,49.46 34.46,49.46 34.31,49.46 
	34.31,49.61 34.16,49.61 34.01,49.61 34.01,49.32 33.86,49.32 33.71,49.32 33.57,49.17 33.42,49.17 33.27,49.17 33.27,49.32 
	33.12,49.32 33.12,49.17 32.97,49.17 32.82,49.17 32.67,49.17 32.53,49.02 32.38,49.02 32.38,48.87 32.23,48.87 32.08,48.87 
	31.93,48.87 31.78,48.87 31.78,48.72 31.64,48.72 31.49,48.72 31.34,48.72 31.19,48.72 31.04,48.72 31.04,48.57 30.89,48.57 
	30.89,48.42 30.74,48.42 30.59,48.28 30.3,48.28 30.15,48.28 30,48.13 29.7,48.13 29.11,48.13 28.96,47.98 28.81,47.98 28.66,47.83 
	28.52,47.83 28.52,47.68 28.37,47.53 28.22,47.39 28.07,47.39 28.07,47.24 27.92,47.24 27.77,47.24 27.48,47.09 27.18,46.94 
	27.03,46.94 26.88,46.79 26.73,46.79 26.44,46.79 26.29,46.79 26.14,46.64 25.99,46.64 25.54,46.64 25.25,46.79 25.1,46.79 
	24.95,46.79 24.8,46.94 24.65,47.09 24.5,47.24 24.36,47.39 24.21,47.53 24.21,47.68 24.21,47.83 24.21,47.98 24.21,48.13 
	24.21,48.28 24.06,48.42 23.91,48.42 23.76,48.57 23.61,48.57 23.61,48.72 23.61,48.87 23.61,49.02 23.61,49.17 23.61,49.32 
	23.61,49.46 23.46,49.46 23.32,49.46 23.32,49.61 23.17,49.61 23.02,49.76 22.87,49.76 22.87,49.61 22.87,49.76 22.72,49.76 
	22.57,49.61 22.43,49.46 22.28,49.32 22.13,49.32 22.13,49.46 21.98,49.46 21.83,49.61 21.68,49.61 21.68,49.76 21.68,49.91 
	21.53,49.91 21.39,49.91 21.39,50.06 21.39,50.21 21.53,50.21 21.53,50.36 21.39,50.36 21.24,50.36 21.09,50.36 21.09,50.5 
	21.09,50.36 20.94,50.36 20.79,50.36 20.79,50.5 20.94,50.5 20.79,50.5 20.79,50.65 20.64,50.65 20.64,50.8 20.49,50.8 20.49,50.65 
	20.35,50.65 20.35,50.5 20.2,50.5 20.05,50.5 20.05,50.65 20.05,50.8 19.9,50.8 19.75,50.8 19.75,50.65 19.6,50.65 19.45,50.65 
	19.31,50.65 19.16,50.65 19.01,50.65 18.86,50.65 18.71,50.65 18.56,50.65 18.56,50.5 18.41,50.5 18.27,50.5 18.12,50.5 
	17.97,50.65 17.82,50.65 17.67,50.65 17.52,50.8 17.37,50.8 17.37,50.95 17.37,51.1 17.37,51.25 17.37,51.4 17.37,51.54 
	17.37,51.69 17.37,51.84 17.52,51.84 17.52,51.99 17.52,52.14 17.52,51.99 17.67,51.99 17.67,52.14 17.67,52.29 17.82,52.29 
	17.82,52.44 17.82,52.58 17.82,52.73 17.97,52.73 17.97,52.88 18.12,53.03 18.12,53.18 18.27,53.18 18.41,53.18 18.41,53.33 
	18.41,53.48 18.56,53.48 18.56,53.62 18.71,53.62 18.71,53.77 18.71,53.92 18.56,53.92 18.41,54.07 18.27,54.07 18.27,54.22 
	18.27,54.07 18.12,54.07 17.97,54.07 17.82,54.07 17.82,53.92 17.67,54.07 17.82,54.07 17.82,54.22 17.67,54.22 17.52,54.22 
	17.52,54.37 17.52,54.51 17.37,54.51 17.23,54.51 17.08,54.51 16.93,54.51 16.93,54.66 16.93,54.81 17.08,54.81 17.08,54.96 
	16.93,55.11 16.63,55.41 16.48,55.55 16.48,55.7 16.34,55.7 16.34,55.85 16.19,56 16.04,56.15 15.89,56.15 15.89,56.3 15.74,56.3 
	15.59,56.3 15.59,56.45 15.44,56.59 15.44,56.74 15.44,56.89 15.3,57.04 15.15,57.19 15,57.19 14.85,57.34 14.7,57.34 14.55,57.49 
	14.4,57.49 14.4,57.63 14.26,57.63 14.11,57.63 13.96,57.78 13.81,57.78 13.66,57.93 13.51,58.08 13.51,58.23 13.51,58.38 
	13.36,58.53 13.22,58.53 13.07,58.53 12.92,58.53 12.77,58.53 12.62,58.53 12.47,58.53 12.47,58.38 12.32,58.38 12.18,58.53 
	12.03,58.53 12.03,58.67 11.88,58.67 11.73,58.67 11.73,58.53 11.58,58.67 11.43,58.67 11.43,58.53 11.28,58.53 11.28,58.38 
	11.14,58.38 10.99,58.38 10.99,58.23 10.84,58.08 10.69,57.93 10.54,57.78 10.54,57.63 10.39,57.63 10.24,57.63 10.1,57.78 
	9.95,57.78 9.65,58.08 9.5,58.08 9.35,58.23 9.35,58.38 9.2,58.38 9.06,58.53 9.06,58.38 8.91,58.38 8.76,58.53 8.61,58.53 
	8.46,58.67 8.31,58.67 8.16,58.67 8.02,58.67 7.87,58.67 7.57,58.67 7.42,58.67 7.27,58.67 7.13,58.67 6.98,58.67 6.83,58.67 
	6.68,58.67 6.53,58.67 6.38,58.67 6.23,58.53 6.09,58.53 5.79,58.53 5.64,58.53 5.49,58.53 5.49,58.38 5.34,58.38 5.19,58.53 
	5.05,58.53 4.9,58.53 4.75,58.38 4.6,58.38 4.45,58.38 4.45,58.23 4.3,58.23 4.15,58.23 4.01,58.23 3.86,58.23 3.71,58.23 
	3.56,58.23 3.41,58.23 3.26,58.23 3.11,58.23 2.97,58.23 2.82,58.23 2.67,58.23 2.52,58.23 2.22,58.23 2.07,58.23 1.93,58.23 
	1.78,58.23 1.63,58.08 1.63,58.23 1.48,58.23 1.33,58.08 1.18,58.08 1.03,58.08 0.89,58.08 0.74,57.93 0.59,57.93 0.44,57.93 
	0.29,57.93 -0.01,57.78 -0.15,57.78 -0.01,57.19 -0.01,57.04 0.14,57.04 1.18,56.74 1.48,56.59 1.63,56.59 1.78,56.45 1.78,56.3 
	1.93,56.15 1.93,56 1.78,55.7 1.93,55.55 1.93,55.41 1.93,55.26 1.93,55.11 1.93,54.96 1.93,54.81 1.78,54.81 1.78,54.66 
	1.78,54.51 1.78,54.37 1.78,54.22 1.93,54.22 1.93,54.07 1.93,53.92 2.07,53.92 2.07,53.77 1.93,53.77 1.93,53.62 1.93,53.48 
	1.78,53.48 1.93,53.48 1.93,53.33 1.93,53.18 2.07,53.18 2.07,53.03 2.07,52.88 2.07,52.73 2.07,52.58 2.22,52.44 2.22,52.29 
	2.22,52.14 2.37,51.99 2.37,51.84 2.37,51.69 2.37,51.54 2.52,51.54 2.52,51.4 2.52,51.25 2.67,51.25 2.67,51.1 2.82,51.1 
	2.82,50.95 2.97,50.95 2.97,50.8 2.97,50.65 2.97,50.5 3.11,50.5 3.26,50.5 3.26,50.36 3.26,50.21 3.26,50.06 3.26,49.91 
	3.41,49.91 3.41,50.06 3.56,50.06 3.56,50.21 3.71,50.21 3.71,50.36 3.86,50.36 4.01,50.36 4.01,50.5 4.15,50.5 4.15,50.65 
	4.3,50.65 4.45,50.65 4.45,50.8 4.6,50.5 4.75,50.36 4.75,50.21 4.9,50.21 4.9,50.06 5.05,49.91 5.19,49.76 5.19,49.61 5.34,49.61 
	5.34,49.46 5.34,49.32 5.49,49.32 5.49,49.17 5.34,49.17 5.34,49.02 5.34,48.87 5.34,48.72 5.19,48.72 5.05,48.72 5.05,48.57 
	4.9,48.57 4.75,48.57 4.75,48.42 4.75,48.28 4.75,48.13 4.75,47.98 4.75,47.83 4.75,47.68 4.75,47.53 4.9,47.53 5.05,47.53 
	5.19,47.53 5.34,47.53 5.49,47.39 5.64,47.39 5.64,47.24 5.79,47.24 5.79,47.39 5.94,47.39 6.09,47.39 6.23,47.39 6.23,47.24 
	6.38,47.24 6.38,47.09 6.38,46.94 6.53,46.94 6.68,46.94 6.68,46.79 6.83,46.79 6.83,46.64 6.83,46.49 6.98,46.49 6.98,46.35 
	7.13,46.35 7.13,46.2 7.13,46.05 7.27,46.05 7.27,45.9 7.42,45.9 7.42,45.75 7.57,45.75 7.57,45.6 7.72,45.45 8.02,45.16 
	8.16,45.01 8.31,44.86 8.31,44.71 8.46,44.71 8.46,44.56 8.61,44.56 8.61,44.41 8.76,44.41 8.91,44.27 8.91,44.12 9.06,44.12 
	9.06,43.97 9.2,43.97 9.2,43.82 9.35,43.67 9.35,43.52 9.35,43.37 9.35,43.23 9.5,43.23 9.5,43.08 9.5,42.93 9.35,42.93 9.2,42.93 
	9.06,42.78 8.91,42.78 8.76,42.78 8.61,42.63 8.61,42.48 8.61,42.33 8.61,42.19 8.61,42.04 8.61,41.89 8.61,41.74 8.61,41.59 
	8.61,41.44 8.46,41.44 8.46,41.29 8.31,41.29 8.31,41.15 8.16,41.15 8.02,41.15 7.87,41.15 7.87,41 7.72,41 7.57,41 7.42,41 
	7.42,40.85 7.27,40.85 7.13,40.85 6.98,40.7 6.83,40.7 6.68,40.7 6.53,40.55 6.38,40.55 6.23,40.55 6.09,40.4 5.94,40.4 5.79,40.4 
	5.79,40.26 5.64,40.26 5.49,40.26 5.34,40.26 5.34,40.11 5.19,40.11 5.05,40.11 4.9,39.96 4.75,39.96 4.6,39.96 4.45,39.81 
	4.3,39.81 4.15,39.81 4.15,39.66 4.01,39.66 3.86,39.66 3.71,39.66 3.71,39.51 3.56,39.51 3.41,39.51 3.26,39.51 3.26,39.36 
	3.11,39.36 2.97,39.36 2.82,39.36 2.67,39.22 2.22,39.07 1.93,39.07 1.78,38.92 1.48,38.77 1.33,38.77 1.18,38.62 0.74,38.47 
	0.29,38.32 0.44,38.03 0.44,37.88 0.59,37.88 0.59,37.73 0.74,37.58 0.74,37.43 0.89,37.28 0.89,37.14 1.03,37.14 1.03,36.99 
	1.18,36.84 1.18,36.69 1.33,36.54 1.33,36.39 1.48,36.24 1.63,36.1 1.78,35.8 1.78,35.65 1.93,35.5 2.07,35.35 2.22,35.06 
	2.22,34.91 2.37,34.76 2.52,34.61 2.52,34.46 2.67,34.46 2.67,34.31 2.82,34.16 2.82,34.02 2.97,33.87 3.11,33.72 3.11,33.57 
	3.11,33.42 3.26,33.42 3.26,33.27 3.41,33.12 3.41,32.98 3.56,32.98 3.56,32.83 3.56,32.68 3.71,32.68 3.71,32.53 3.71,32.38 
	3.86,32.38 3.86,32.23 3.86,32.09 4.01,32.09 4.01,31.94 4.01,31.79 4.15,31.79 4.15,31.64 4.3,31.49 4.3,31.34 4.45,31.19 
	4.45,31.05 4.6,31.05 4.6,30.9 4.6,30.75 4.75,30.6 4.9,30.45 4.9,30.3 5.05,30.3 5.05,30.15 5.19,30.15 5.34,30.15 5.34,30.01 
	5.49,30.01 5.64,29.86 5.79,29.86 5.79,29.71 5.94,29.71 6.09,29.56 6.23,29.56 6.38,29.41 6.53,29.41 6.53,29.26 6.68,29.11 
	6.68,28.97 6.83,28.97 6.83,28.82 6.98,28.82 6.98,28.52 7.13,28.52 7.13,28.37 7.27,28.37 7.27,28.22 7.13,28.22 6.98,28.07 
	6.98,27.93 6.83,27.93 6.68,27.78 6.53,27.63 5.79,27.03 5.64,27.03 5.49,26.89 5.34,26.89 5.34,26.74 5.19,26.74 5.19,26.59 
	4.9,26.44 4.75,26.29 4.6,26.29 4.75,26.14 4.75,26 4.75,25.85 4.9,25.85 4.9,25.7 5.05,25.55 4.15,25.25 4.15,25.1 4.3,24.96 
	4.3,24.81 4.3,24.66 4.3,24.51 4.45,24.51 4.45,24.36 4.45,24.21 4.45,24.06 4.45,23.92 4.45,23.77 4.45,23.62 4.45,23.47 
	4.45,23.32 4.45,23.17 4.45,23.02 4.45,22.88 4.45,22.73 4.45,22.58 4.45,22.43 4.6,22.43 4.6,22.28 4.6,22.13 4.6,21.98 4.6,21.84 
	4.6,21.69 4.6,21.54 4.6,21.39 4.6,21.24 4.6,21.09 4.6,20.94 4.6,20.8 4.75,20.8 4.75,20.65 4.75,20.5 4.75,20.35 4.75,20.2 
	4.75,20.05 4.75,19.91 4.75,19.76 4.75,19.46 4.9,19.46 4.9,19.31 4.9,19.16 4.9,19.01 4.9,18.87 4.9,18.72 4.9,18.57 4.9,18.42 
	4.9,18.27 5.05,18.12 5.05,17.97 5.05,17.83 5.05,17.68 5.05,17.53 5.05,17.38 5.05,17.08 5.05,16.93 5.05,16.64 5.05,16.49 
	5.05,16.34 5.05,16.19 5.05,15.89 5.05,15.75 5.05,15.6 5.05,15.45 5.34,15.6 6.53,15.45 7.87,15.15 8.02,15.15 8.91,15 9.06,15 
	9.2,15 9.5,15 10.1,14.85 10.54,14.71 10.84,14.71 10.99,14.71 11.14,14.71 11.58,14.71 12.03,14.71 12.18,14.71 12.47,14.71 
	12.92,14.71 13.36,14.71 13.66,14.71 14.11,14.71 14.26,14.71 14.4,14.56 14.55,14.56 15,14.41 15.44,14.26 15.74,14.26 
	15.89,14.26 16.04,14.11 16.19,14.11 16.93,14.11 17.52,14.26 18.27,14.26 18.71,14.26 18.86,14.26 19.01,14.26 19.16,14.26 
	19.9,14.26 20.2,14.26 20.64,14.26 21.09,14.41 21.24,14.41 21.39,14.41 21.53,14.41 21.83,14.41 22.28,14.56 22.72,14.56 
	23.17,14.56 23.32,14.56 23.46,14.71 23.61,14.71 23.91,14.71 "/>
</svg>
