<?xml version="1.0" encoding="utf-8"?>
<!-- Generator: Adobe Illustrator 24.2.1, SVG Export Plug-In . SVG Version: 6.00 Build 0)  -->
<svg version="1.1" id="Layer_1" xmlns="http://www.w3.org/2000/svg" xmlns:xlink="http://www.w3.org/1999/xlink" x="0px" y="0px"
	 viewBox="0 0 97.23 97.23" style="enable-background:new 0 0 97.23 97.23;" xml:space="preserve">
<style type="text/css">
	.st0{fill-rule:evenodd;clip-rule:evenodd;fill:#1D1D1B;}
</style>
<polygon class="st0" points="58.42,7.98 58.96,8.25 59.5,8.52 59.77,8.52 60.3,8.52 60.84,8.79 61.11,8.79 61.65,8.79 61.92,8.79 
	61.92,9.06 62.18,9.06 62.18,9.33 62.45,9.6 62.45,9.87 62.72,9.87 62.72,10.13 62.99,10.13 63.26,10.13 63.26,9.87 63.53,10.13 
	63.8,10.13 64.07,10.13 64.33,10.13 64.6,10.4 64.87,10.67 65.14,10.67 65.14,10.94 65.41,10.94 65.41,11.21 65.68,11.48 
	65.95,11.75 65.95,12.01 66.21,12.28 66.21,12.55 66.48,12.55 66.48,12.82 66.75,12.82 67.02,12.82 67.02,13.09 67.29,13.09 
	67.56,13.36 67.83,13.63 68.1,13.63 68.1,13.9 68.36,13.9 68.36,14.16 68.63,14.16 68.63,14.43 68.9,14.43 68.9,14.7 69.17,14.7 
	69.44,14.7 69.71,14.7 69.71,14.97 69.98,14.97 70.51,14.97 70.78,14.97 71.05,15.24 71.32,15.24 71.59,15.24 71.86,15.51 
	72.13,15.51 72.39,15.51 72.66,15.51 72.66,15.78 72.93,15.78 73.47,15.78 73.47,16.05 73.74,16.05 73.74,16.31 74.01,16.31 
	74.01,16.58 74.28,16.58 74.28,16.85 74.28,17.12 74.54,17.12 74.81,17.39 75.08,17.39 75.08,17.66 75.35,17.66 75.35,17.93 
	75.35,18.19 75.62,18.46 75.89,18.73 76.16,18.73 76.43,19 76.69,19.27 76.96,19.54 77.23,19.81 77.5,20.08 77.77,20.34 
	78.04,20.88 78.04,21.15 78.31,21.42 78.57,21.69 78.84,21.96 79.11,22.23 79.38,22.49 79.65,22.76 79.65,23.03 79.65,23.3 
	79.92,23.57 80.19,23.84 80.19,24.11 80.46,24.37 80.72,24.64 80.99,24.91 81.26,25.72 81.26,25.99 81.26,26.26 81.53,26.26 
	81.53,26.52 81.8,26.52 81.8,26.79 81.8,27.06 81.8,27.33 81.8,27.6 81.53,27.6 81.8,27.87 81.8,27.6 82.07,27.6 82.34,27.6 
	82.34,27.87 82.6,27.87 82.6,28.14 82.87,28.14 82.87,28.4 82.87,28.67 82.87,28.94 82.87,29.21 82.87,29.48 82.87,29.75 
	83.14,29.75 83.14,30.02 83.41,30.29 83.41,30.55 83.41,30.82 83.41,31.09 83.41,31.36 83.68,31.36 83.68,31.63 83.68,31.9 
	83.68,32.17 83.95,32.7 83.95,32.97 84.22,33.24 84.22,33.51 83.95,34.05 83.95,34.32 84.22,34.58 84.49,35.12 84.75,35.39 
	84.75,35.66 84.75,36.2 85.02,36.47 85.56,36.47 85.83,36.47 86.1,36.73 86.1,37 86.1,37.27 86.37,37.54 86.37,38.08 86.37,38.35 
	86.64,38.88 86.64,39.15 86.64,39.69 86.64,40.23 86.9,41.03 86.9,41.57 86.9,42.38 87.17,42.65 87.17,42.91 87.44,43.18 
	87.44,43.45 87.98,44.26 88.52,45.33 89.05,45.87 89.05,46.14 89.32,46.14 89.59,46.14 89.59,46.41 89.86,46.41 90.13,46.41 
	90.4,46.68 90.67,46.94 90.93,47.21 90.93,47.48 91.2,47.75 91.2,48.02 91.47,48.02 91.74,48.29 91.74,48.56 92.01,48.56 
	92.28,48.82 92.55,48.82 92.82,48.82 93.62,49.09 93.89,49.36 94.43,49.36 94.7,49.63 94.96,49.63 94.96,49.9 94.96,50.17 
	95.23,50.97 95.5,51.24 95.5,51.78 95.5,52.05 95.5,52.32 95.5,52.59 95.77,53.12 95.77,53.39 96.04,53.39 96.04,53.66 96.31,53.66 
	96.85,54.47 96.85,54.74 96.58,54.74 96.31,54.74 96.04,55 95.77,55.27 95.5,55.54 95.23,55.81 94.96,56.08 94.7,56.35 94.16,56.62 
	94.16,56.89 93.89,56.89 93.62,57.15 93.35,57.42 93.08,57.69 92.55,57.96 92.28,58.23 92.01,58.5 91.74,58.77 91.47,58.77 
	91.2,59.03 90.67,59.3 90.4,59.57 90.13,59.57 89.86,59.57 89.86,59.84 89.59,59.84 89.32,59.57 89.32,59.84 89.05,59.84 
	88.78,59.84 88.52,60.11 88.25,60.11 87.98,60.38 87.71,60.38 87.71,60.65 87.71,60.92 87.71,61.18 87.44,61.18 87.71,61.45 
	87.98,61.72 87.98,61.99 87.98,62.53 87.98,62.8 87.98,63.07 87.71,63.07 87.44,63.07 87.17,63.07 86.9,63.07 86.64,63.07 
	86.37,63.07 86.1,63.07 85.83,63.07 85.83,63.33 85.56,63.07 85.56,62.8 85.29,63.07 84.75,63.33 84.49,63.33 84.22,63.6 
	83.95,63.6 83.14,64.14 82.34,64.14 81.8,64.14 80.72,64.41 79.38,64.41 79.11,64.14 78.57,64.95 77.77,66.02 77.5,66.29 
	78.57,69.51 79.38,69.78 79.92,69.25 80.19,69.25 80.46,69.78 80.72,70.05 80.72,70.32 80.99,70.32 81.26,70.32 81.53,70.32 
	81.53,70.59 81.53,70.86 81.26,70.86 81.26,71.13 81.26,71.39 81.53,71.39 81.8,71.66 82.07,71.66 82.07,71.93 82.07,72.2 
	82.34,72.2 82.6,71.93 82.6,71.66 82.87,71.66 83.14,71.39 83.41,71.39 83.68,71.39 83.95,71.39 83.95,71.66 84.22,71.66 
	84.22,71.93 84.22,72.2 84.22,72.47 84.22,72.74 84.49,72.74 84.49,73.01 84.22,73.01 84.22,73.28 83.95,73.28 83.68,73.54 
	83.41,73.54 83.41,73.81 83.14,73.81 82.87,74.08 82.87,74.35 82.87,74.62 82.87,74.89 83.68,75.69 84.22,76.5 84.49,76.77 
	84.75,77.04 84.75,77.31 85.02,77.31 85.02,77.57 85.02,77.84 85.29,78.11 85.29,78.65 85.56,78.92 85.56,79.19 85.56,79.46 
	85.56,79.72 85.29,79.72 85.02,79.72 84.75,79.72 84.75,79.99 84.75,80.26 84.75,80.53 84.75,80.8 84.49,81.07 84.22,81.07 
	83.95,81.07 83.68,81.07 83.41,81.07 83.41,81.34 83.41,81.6 83.14,81.6 82.87,81.87 82.6,82.14 82.6,81.87 82.34,81.87 
	82.07,81.87 81.8,81.87 81.53,81.87 80.72,81.87 80.46,81.6 80.19,81.6 79.65,81.6 79.38,81.6 78.84,81.34 77.5,81.07 77.23,81.07 
	76.96,81.07 76.69,81.07 76.16,80.8 75.89,80.8 75.62,80.8 75.35,80.8 75.08,80.53 74.81,80.53 74.54,80.53 74.28,80.53 
	74.01,80.53 73.74,80.53 73.47,80.53 73.47,80.8 73.2,80.8 72.66,81.07 72.39,81.07 72.13,81.34 71.86,81.34 71.59,81.34 
	71.32,81.6 71.05,81.6 70.78,81.87 70.51,82.14 70.25,82.14 68.9,82.95 68.63,83.22 68.36,83.22 68.36,83.49 68.1,83.49 68.1,83.75 
	67.83,83.75 67.56,83.75 67.56,84.02 67.56,84.29 67.29,84.29 67.29,84.56 67.02,84.56 67.02,84.83 66.75,84.83 66.48,84.83 
	66.48,85.1 66.48,85.37 66.21,85.64 65.95,85.9 65.95,86.17 65.68,86.44 65.68,86.71 65.68,86.44 65.41,86.44 65.14,86.44 
	65.14,86.17 64.87,86.17 64.6,86.17 64.6,86.44 64.87,86.44 64.6,86.44 64.6,86.71 64.33,86.71 64.33,86.98 64.07,86.98 63.8,86.98 
	63.8,86.71 63.53,86.71 63.26,86.71 63.26,86.44 62.99,86.44 62.99,86.17 62.72,85.9 62.72,85.64 62.45,85.64 62.45,85.37 
	62.72,85.1 62.72,84.83 62.72,84.56 62.45,84.56 62.45,84.29 62.72,84.29 62.45,84.02 62.18,83.75 61.65,83.22 61.38,82.68 
	60.57,82.14 60.57,81.87 60.3,81.87 60.3,81.6 60.03,81.6 59.23,81.34 58.96,81.34 58.69,81.34 58.15,81.07 57.62,81.07 57.08,80.8 
	56.54,80.53 56.27,80.53 55.74,80.53 55.2,80.26 54.93,80.26 54.66,79.99 54.39,79.99 54.12,80.26 53.85,80.53 53.59,80.53 
	53.32,80.8 53.05,80.8 52.78,80.8 52.78,80.53 52.51,80.53 52.24,80.26 51.97,80.26 51.97,79.99 51.7,79.99 51.44,79.99 
	51.17,79.99 50.9,79.99 50.63,79.72 50.09,79.72 49.56,79.46 49.29,79.46 49.29,79.72 49.02,79.72 49.02,79.99 49.02,80.26 
	48.75,80.53 48.75,80.8 48.75,81.07 49.02,81.07 49.02,81.34 49.29,81.6 49.29,81.87 49.56,81.87 49.56,82.14 49.82,82.14 
	49.82,82.41 50.09,82.41 50.09,82.68 50.36,82.68 50.36,82.95 50.09,82.95 50.09,83.22 50.09,83.49 50.09,83.75 50.09,84.02 
	50.09,84.29 50.09,84.56 50.09,84.83 49.82,84.83 49.82,85.1 49.82,85.37 49.82,85.64 49.56,85.9 49.56,86.17 49.29,86.44 
	49.02,86.44 48.48,86.71 48.21,86.71 47.94,86.71 47.67,86.98 47.41,86.98 47.14,86.98 46.87,86.98 46.33,86.98 46.06,86.98 
	45.79,86.98 45.52,86.98 45.26,87.25 44.99,87.52 44.72,87.52 44.72,87.78 44.45,87.78 44.18,87.78 43.91,87.52 43.64,87.52 
	43.38,87.52 43.11,87.52 42.84,87.52 42.84,87.78 42.57,87.78 42.3,87.78 42.03,87.78 41.76,87.78 41.49,87.78 41.23,87.78 
	40.96,87.78 40.96,88.05 40.69,88.05 40.42,88.32 40.15,88.32 39.88,88.32 39.61,88.05 39.34,88.32 39.08,88.59 38.81,88.86 
	38.54,88.86 38.27,88.86 38,88.86 37.73,88.59 37.73,88.32 37.46,88.32 37.2,88.05 36.93,88.05 36.66,88.05 36.39,88.05 
	36.39,87.78 36.12,87.78 36.12,87.52 35.85,87.52 35.58,87.52 35.31,87.52 35.05,87.52 34.78,87.52 34.51,87.78 34.24,87.78 
	33.97,87.78 33.97,88.05 33.7,88.05 33.7,87.78 33.43,87.78 33.43,88.05 33.16,88.05 32.9,88.05 32.9,87.78 32.63,87.78 
	32.36,87.78 32.09,87.78 31.82,87.78 31.55,87.78 31.28,87.52 31.02,87.52 30.75,87.52 30.48,87.52 30.21,87.52 29.94,87.25 
	29.67,87.25 29.13,86.98 28.87,86.98 28.6,86.98 28.33,86.98 28.06,86.71 27.79,86.71 27.52,86.71 27.52,86.98 26.98,86.98 
	26.72,86.98 26.45,87.25 26.18,87.25 25.91,87.25 25.64,87.25 25.37,87.25 25.1,86.98 24.84,86.98 24.57,86.71 24.3,86.71 
	24.03,86.71 24.03,86.44 24.03,86.17 23.76,85.37 23.49,84.56 23.22,84.56 22.95,84.29 22.69,84.29 21.88,83.75 21.07,83.22 
	20.8,82.95 20.27,82.95 19.19,83.22 18.39,83.49 17.04,83.49 16.51,83.49 15.43,83.22 14.89,83.22 14.89,82.95 14.62,82.95 
	14.36,82.95 14.36,82.68 14.09,82.68 13.82,82.68 13.55,82.68 13.28,82.68 13.01,82.68 12.74,82.68 12.74,82.41 12.48,82.41 
	12.21,82.41 11.94,82.41 11.67,82.41 11.67,82.14 11.4,82.14 10.86,81.87 10.59,81.87 10.33,81.6 10.06,81.34 10.06,81.07 
	9.79,81.07 9.52,81.07 9.25,81.34 8.98,81.34 8.98,81.07 8.71,81.07 8.44,81.07 8.44,80.8 8.18,80.8 7.91,80.53 7.91,80.26 
	7.64,79.99 7.64,79.72 7.37,79.72 7.37,79.46 7.1,79.46 6.56,79.72 6.3,79.72 6.03,79.72 5.76,79.72 5.49,79.99 5.22,79.99 
	4.95,79.99 4.68,79.99 4.41,79.99 4.15,79.72 3.88,79.46 3.61,79.46 3.34,79.46 3.07,79.46 2.8,79.46 2.53,79.46 2.26,79.46 
	2,79.46 1.73,79.46 1.46,79.46 1.19,79.46 1.19,79.72 0.92,79.72 0.65,79.72 0.92,79.72 0.92,79.46 0.65,79.46 0.65,78.92 
	0.38,78.92 0.38,78.65 0.38,78.38 0.38,78.11 0.12,77.84 0.38,77.57 0.12,77.57 0.12,77.31 -0.15,77.31 -0.15,77.04 0.12,77.04 
	0.38,77.04 0.65,77.04 0.92,77.04 1.19,77.04 1.19,76.77 1.19,76.5 1.19,76.23 1.19,75.96 1.19,75.69 1.19,75.43 1.19,75.16 
	1.46,75.16 1.73,74.89 1.73,74.62 2,74.35 2,74.08 2,73.81 2.26,73.54 2.26,73.28 2.8,73.01 3.07,73.01 3.34,72.74 3.88,72.74 
	4.15,72.74 4.41,72.47 4.68,72.47 4.95,72.2 5.22,71.93 5.49,71.93 5.76,71.66 6.03,71.66 6.03,71.39 6.3,71.39 6.3,71.13 
	6.56,70.86 6.83,70.59 7.37,70.32 7.64,70.05 7.91,70.05 8.18,70.05 8.44,69.78 8.71,69.78 8.98,69.78 9.25,69.78 9.25,69.51 
	9.52,69.51 9.79,69.51 9.79,69.25 9.52,69.25 9.25,69.25 9.25,68.98 9.25,68.71 9.25,68.44 9.52,68.44 9.79,68.44 9.79,68.17 
	10.06,68.17 10.33,68.17 10.33,67.9 10.33,67.63 10.59,67.63 10.59,67.36 10.59,67.1 10.59,66.83 10.33,66.83 10.33,66.56 
	10.33,66.29 10.33,66.02 10.06,66.02 10.06,65.75 9.79,65.75 9.79,66.02 9.79,65.75 9.52,65.75 9.52,65.48 9.25,65.48 9.25,65.21 
	8.98,65.21 8.98,64.95 8.71,64.95 8.98,64.41 9.52,63.87 10.59,62.8 11.4,61.72 11.94,60.65 12.74,59.84 13.55,58.77 13.82,58.5 
	13.55,58.5 13.55,58.23 13.28,58.23 13.28,57.96 13.28,57.69 13.01,57.69 13.01,57.42 12.74,57.42 12.74,57.15 12.48,56.89 
	12.21,56.62 12.21,56.35 11.94,56.35 11.94,56.08 11.94,55.81 11.67,55.81 11.67,55.54 11.4,55.27 11.13,55.27 11.13,55 
	11.13,54.74 10.86,54.74 10.86,54.47 10.59,54.2 10.33,54.2 10.33,53.93 10.06,53.66 9.79,53.66 9.52,53.39 9.25,53.12 9.25,52.86 
	9.25,52.59 8.98,52.32 8.98,52.05 8.71,52.05 8.71,51.78 8.44,51.51 8.18,51.51 7.91,51.24 7.64,51.24 7.64,50.97 7.37,50.71 
	7.1,50.44 7.1,50.17 6.83,49.9 6.83,49.63 6.56,49.63 6.3,49.36 6.03,49.09 5.76,48.82 5.76,48.56 5.49,48.56 5.49,48.29 
	5.22,48.29 4.95,48.02 4.95,47.75 4.95,47.48 5.22,47.48 5.49,47.21 5.76,46.94 6.3,46.68 6.3,46.41 6.56,46.41 6.56,46.14 
	6.56,45.87 6.3,45.87 6.3,45.6 6.03,45.6 6.03,45.33 5.76,45.33 5.76,45.06 5.76,44.79 5.49,44.79 5.49,44.53 4.95,44.26 
	4.68,43.99 4.41,43.99 4.15,43.72 4.15,43.45 3.88,43.18 3.88,42.91 3.61,42.65 3.34,42.38 3.07,42.11 3.07,41.84 2.8,41.84 
	2.53,41.3 2.26,41.03 2,40.76 2,40.5 1.73,40.23 1.46,39.96 1.46,39.69 1.19,39.15 1.19,38.88 0.92,38.62 0.92,38.35 0.92,38.08 
	0.92,37.81 0.65,37.81 0.65,37.54 0.65,37.27 0.65,37 0.92,36.73 0.92,36.47 1.19,36.2 1.46,35.93 1.73,35.66 2,35.66 2.26,35.39 
	2.26,35.12 2.26,34.85 2,34.85 2,34.58 1.73,34.58 1.73,34.32 1.46,34.32 1.46,34.05 1.19,33.78 0.92,33.51 0.65,33.24 0.65,32.97 
	0.92,32.97 0.92,32.7 1.19,32.7 1.19,32.44 1.46,32.44 1.46,32.17 1.46,31.9 1.19,31.9 1.19,31.63 0.92,31.63 0.65,31.63 
	0.65,31.36 0.65,31.09 0.38,30.82 0.38,30.55 0.38,30.29 0.65,30.29 0.65,30.02 0.92,30.02 0.92,29.75 1.19,29.75 1.46,29.48 
	1.73,28.94 2.26,28.67 2.53,28.4 2.8,28.14 3.07,27.87 3.34,27.87 3.61,27.6 3.88,27.6 4.15,27.6 4.41,27.33 4.68,27.33 4.95,27.33 
	5.22,27.06 5.49,27.06 5.49,27.33 5.76,27.33 5.76,27.6 6.03,27.6 6.03,27.33 6.3,27.06 6.56,27.06 6.56,26.79 6.83,26.79 
	7.1,26.79 7.37,26.52 7.64,26.52 7.91,26.26 8.18,26.26 8.44,25.99 8.71,25.99 8.71,25.72 8.98,25.45 9.25,25.45 9.25,25.18 
	9.52,25.18 9.79,25.18 9.79,24.91 10.06,24.64 10.06,24.37 10.33,23.84 10.59,23.84 10.59,23.57 10.86,23.57 10.86,23.84 
	11.13,23.84 11.4,23.84 11.67,24.11 11.67,23.84 11.67,24.11 11.94,24.11 11.94,23.84 12.21,23.84 12.48,23.84 12.74,23.84 
	13.01,23.84 13.28,23.84 13.55,23.84 13.82,23.84 14.09,23.84 14.36,23.84 14.36,24.11 14.62,24.11 14.89,24.11 15.16,24.11 
	15.16,24.37 15.43,24.37 15.7,24.37 15.7,24.64 15.97,24.64 16.24,24.64 16.51,24.64 16.77,24.64 17.04,24.64 17.04,24.91 
	17.31,24.91 17.31,25.18 17.58,25.18 17.58,24.91 17.85,24.91 17.85,25.18 18.12,25.18 18.39,25.18 18.66,25.18 18.92,25.18 
	19.19,25.18 19.46,25.18 19.73,25.18 19.73,24.91 20,24.91 20.27,24.91 20.54,24.91 20.54,25.18 20.8,25.18 20.8,25.45 21.07,25.45 
	21.07,25.18 21.07,25.45 21.34,25.45 21.34,25.72 21.61,25.72 21.88,25.72 21.88,25.99 21.88,25.72 22.15,25.72 22.42,25.72 
	22.42,25.99 22.69,25.99 22.95,25.99 22.95,25.72 23.49,25.72 23.49,25.99 23.76,25.99 24.03,25.99 24.03,26.26 24.3,26.26 
	24.3,26.52 24.57,26.52 24.3,26.52 24.57,26.79 24.57,27.06 24.57,27.33 24.84,27.33 24.84,27.6 24.57,27.6 24.57,27.87 
	24.57,28.14 24.84,28.4 25.1,28.4 25.1,28.67 25.37,28.67 25.64,28.67 25.64,28.4 25.91,28.4 25.91,28.14 26.18,28.14 26.18,27.87 
	26.45,27.87 26.45,28.14 26.72,28.14 26.72,27.87 26.98,28.14 27.25,28.14 27.25,27.87 27.52,27.87 27.52,27.6 27.79,27.6 
	28.06,27.6 28.33,27.6 28.6,27.6 28.87,27.6 28.87,27.33 29.13,27.33 29.4,27.33 29.4,27.06 29.67,27.33 29.67,27.06 29.94,27.06 
	30.21,27.06 30.21,26.79 30.48,26.79 30.75,26.79 31.02,26.79 31.28,26.79 31.55,26.79 31.82,26.52 31.82,26.79 32.09,26.79 
	32.09,26.52 32.36,26.79 32.36,27.06 32.36,26.79 32.63,26.79 32.9,26.79 32.9,26.52 32.9,26.26 33.16,26.52 33.43,26.52 
	33.43,26.26 33.7,26.26 33.97,26.26 34.24,26.26 34.51,26.26 34.51,25.99 34.78,25.99 35.05,25.99 35.31,25.99 35.58,25.99 
	35.85,25.99 36.12,25.99 36.12,25.72 36.39,25.72 36.66,25.72 36.66,25.45 36.66,25.72 36.66,25.99 36.66,25.72 36.93,25.72 
	36.93,25.99 36.93,26.26 37.2,26.26 37.2,26.52 37.46,26.52 37.46,26.26 37.46,26.52 37.73,26.52 38,26.52 38,26.79 38.27,26.79 
	38.27,26.52 38.54,26.52 38.54,26.79 38.81,26.52 39.08,26.52 39.08,26.79 39.34,26.79 39.34,26.52 39.61,26.52 39.88,26.52 
	39.88,26.26 40.15,26.26 40.15,26.52 40.42,26.26 40.69,26.26 40.96,26.26 41.23,26.26 41.49,26.26 41.49,25.99 41.49,26.26 
	41.76,26.26 41.76,26.52 42.03,26.52 42.03,26.26 42.3,26.26 42.3,26.52 42.57,26.52 42.57,26.26 42.84,26.26 43.11,26.26 
	43.38,26.26 43.64,26.26 43.64,26.52 43.64,26.26 43.91,26.26 43.91,26.52 44.18,26.52 44.45,26.52 44.72,26.52 44.72,26.79 
	44.99,26.79 45.26,26.79 45.52,27.06 45.52,27.33 45.52,27.6 45.79,27.6 46.06,27.6 46.06,27.87 46.33,27.87 46.6,27.87 
	46.87,27.87 46.87,28.14 47.14,28.14 47.14,27.87 47.14,27.6 47.41,27.6 47.67,27.6 47.67,27.87 47.94,27.87 48.21,27.87 
	48.21,27.6 48.21,27.87 48.21,27.6 48.48,27.6 48.75,27.6 48.75,27.33 49.02,27.33 49.02,27.06 49.29,27.06 49.29,27.33 49.56,27.6 
	49.56,27.87 49.82,27.87 50.09,28.14 50.36,28.14 50.63,28.14 50.9,28.14 51.17,28.14 51.17,28.4 51.44,28.67 51.17,28.94 
	51.17,29.21 51.17,29.48 51.17,29.75 51.44,29.75 51.7,30.55 51.7,30.29 51.97,30.02 51.97,29.48 52.24,29.21 52.51,28.94 
	52.51,28.67 52.78,28.67 52.78,28.4 53.05,28.4 53.32,28.4 53.59,28.4 53.85,28.14 54.12,27.87 54.39,27.6 54.66,27.6 54.66,27.33 
	54.93,27.06 54.93,26.79 54.93,26.52 54.93,26.26 54.93,25.99 55.2,25.72 55.47,25.72 55.47,25.45 55.2,25.18 55.2,24.91 
	55.2,24.64 54.93,24.37 54.93,24.11 54.93,23.84 54.93,23.57 55.2,23.3 55.47,23.3 56,22.76 56.27,22.76 56.54,22.49 57.08,22.23 
	57.35,22.23 57.35,21.96 57.62,21.96 57.89,21.69 57.89,21.42 58.15,21.15 58.15,20.88 58.15,20.61 58.42,20.34 58.42,20.08 
	58.42,19.81 58.42,19.27 58.15,19 58.15,18.73 57.89,18.46 57.89,18.19 57.62,18.19 57.62,17.93 56.81,17.66 56,17.12 55.47,16.85 
	55.2,16.58 54.93,16.31 54.66,16.05 54.39,16.05 54.39,15.78 54.12,15.51 54.12,15.24 54.12,14.97 54.12,14.7 54.39,14.43 
	54.39,14.16 54.66,14.16 54.93,13.9 55.2,13.9 55.47,13.9 55.74,13.9 56,13.9 56.27,14.16 56.54,14.43 56.81,14.43 57.35,14.7 
	57.62,14.7 57.89,14.7 57.89,14.97 58.15,14.97 58.42,14.97 58.69,14.97 58.96,14.97 58.96,14.7 59.23,14.7 59.23,14.43 
	59.23,14.16 59.23,13.9 58.96,13.63 58.69,13.36 58.69,13.09 58.42,13.09 58.15,12.82 57.62,12.55 57.35,12.28 57.08,12.01 
	56.81,11.75 56.54,11.48 56.54,11.21 56.54,10.94 56.27,10.94 56.27,10.4 56.27,9.87 56.27,9.6 56.27,9.33 56.54,8.79 56.81,8.52 
	57.35,8.25 57.62,7.98 58.15,7.98 "/>
</svg>
