<?xml version="1.0" encoding="utf-8"?>
<!-- Generator: Adobe Illustrator 24.2.1, SVG Export Plug-In . SVG Version: 6.00 Build 0)  -->
<svg version="1.1" id="Layer_1" xmlns="http://www.w3.org/2000/svg" xmlns:xlink="http://www.w3.org/1999/xlink" x="0px" y="0px"
	 viewBox="0 0 97.23 97.23" style="enable-background:new 0 0 97.23 97.23;" xml:space="preserve">
<style type="text/css">
	.st0{fill-rule:evenodd;clip-rule:evenodd;fill:#1D1D1B;}
</style>
<path class="st0" d="M34.85,76.71h0.16v0.16v0.16h-0.16v0.16h-0.16v0.16v-0.16v-0.16v-0.16v-0.16H34.85L34.85,76.71z M50.51-0.15
	h-0.16v0.16h-0.16v0.16v0.16v0.16v0.16h-0.16h0.16V0.8h0.16v0.16h-0.16v0.16v0.16l0.16,0.16h-0.16h-0.16V1.6v0.16v0.16h-0.16v0.16
	h-0.16v0.16h0.16V2.4h-0.16v0.16v0.16h-0.16v0.16h-0.16l0.16,0.16V3.2h-0.16v0.16v0.16h0.16h-0.16v0.16h0.16v0.16V4h-0.16v0.16
	l0.16,0.16h-0.16V4.16v0.16v0.16h0.16v0.16h-0.16V4.8h0.16h-0.16v0.16v0.16v0.16v0.16V5.28h-0.16v0.16V5.6h-0.16v0.16h-0.16v0.16
	v0.16h-0.16l0.16,0.16h-0.16h-0.16V6.4h0.16v0.16h-0.16h-0.16l-0.16,0.16h-0.16v0.16h-0.16h-0.16h-0.16l-0.16,0.16h-0.32h-0.16
	h-0.16h-0.16h-0.16L46.35,7.2h-0.16l-0.16,0.16h-0.16h-0.16h-0.16h-0.16h-0.16l-0.32,0.48h-0.32V8h-0.16v0.16v0.16v0.16l-0.16,0.16
	L44.11,8.8h-0.16v0.16h-0.16h-0.16h-0.16h-0.16h-0.16H43h-0.16V8.8h-0.16h-0.16l-0.16,0.16H42.2v0.16h-0.16h-0.16h-0.16h-0.16H41.4
	l-0.16,0.16V9.11h-0.16V8.95h0.16V8.8V8.64V8.48V8.32V8.16h0.16V8V7.84V7.68V7.52l-0.16-0.16V7.2h0.16V7.04V6.88V6.72l-0.16-0.16
	V6.4h0.16V6.24V6.08l0.16-0.16l0.16-0.16V5.6l0.16-0.16V5.28l-0.16-0.32V4.8l-0.16-0.16H41.4l-0.16-0.16h-0.16h-0.16v0.16h-0.16
	H40.6l-0.32-0.16l-0.16-0.16l-0.16-0.16H39.8h-0.16V4l-0.16-0.16V3.68l-0.32-0.96L39,2.56V2.4V2.24l-0.16-0.16V1.92l-0.16-0.16
	h-0.16V1.6h-0.16V1.44H38.2l-0.16-0.16h-0.16V1.12V0.96L37.72,0.8V0.65V0.49V0.33h-0.16H37.4l-0.16,0.16h-0.16h-0.16l-0.16,0.16
	L36.6,0.8l-0.16,0.16h-0.16h-0.16h-0.16l-0.32,0.16h-0.16v0.16l-0.32,0.8V2.4l-0.16,0.16v0.16h-0.16v0.16h-0.16v0.16V3.2h-0.16v0.16
	h-0.16L33.89,4l-0.16,0.16h-0.16h-0.16h-0.16L33.09,4h-0.16h-0.16l-0.16,0.16h-0.16v0.16h-0.16v0.16h-0.16h-0.16V4.32V4.16V4V3.84V4
	h-0.16h-0.16l-0.16,0.16h-0.16h-0.16v0.16l-0.16,0.16h-0.16h-0.16h-0.16l-0.32,0.16h-0.16L29.89,4.8v0.16v0.16h0.16v0.16v0.16V5.6
	h-0.16l0.16,0.16v0.16v0.16l-0.16,0.16l-0.16,0.32v0.16h-0.16h-0.16h-0.16v0.16v0.16l0.16,0.16l-0.16,0.16v0.16v0.16v0.16V8h0.16
	v0.16h-0.16v0.16v0.16h-0.16h-0.16v0.16V8.8v0.16v0.16l0.16,0.16v0.16l-0.16,0.16v0.16v0.16v0.16l-0.16,0.16h-0.16v-0.16V9.91V9.75
	l-0.16-0.16V9.43l-0.16-0.16v0.16h-0.16h-0.16l-0.16,0.16h-0.16v0.16v0.16v0.16v0.16v0.16v0.16h-0.16l-0.16,0.16h-0.16h-0.16v-0.16
	v-0.16V9.91V9.75V9.59V9.43V9.27V9.11V8.95L26.86,8.8V8.64V8.48V8.32H26.7l-0.16,0.16h-0.16h-0.16h-0.16H25.9h-0.16h-0.32h-0.16
	H25.1h-0.16h-0.16v0.16L24.62,8.8v0.16v0.16h-0.16H24.3h-0.16v0.16h-0.16v0.16l-0.16,0.16v0.16h-0.16V9.59H23.5V9.43h-0.16h-0.16
	h-0.16h-0.16v0.16L22.7,9.75v0.16v0.16l-0.16,0.48l-0.16,0.32v0.16v0.16l-0.16,0.16l-0.16,0.16l-0.16,0.16h-0.16l-0.64,0.32
	l-0.96,0.48l-0.32,0.32l-0.64,0.32l-0.32,0.32l-0.16,0.16l-0.32,0.16v0.16h-0.16v0.16l-0.16,0.16v0.16h-0.16v-0.16h-0.16h-0.16
	h-0.16h-0.16h-0.16l-0.16-0.16l-0.16-0.16h-0.16h-0.16h-0.16l-0.16,0.16h-0.16h-0.16h-0.16h-0.16l-0.48,0.16l-0.16,0.16h-0.16v0.16
	h-0.16l-0.16,0.16v0.16h-0.16v0.16h-0.16l-0.16-0.16l-0.16,0.16h-0.16v-0.16h-0.16l-0.32-0.16l-0.16-0.16v0.16l0.16,0.16v0.16v0.16
	l0.16,0.16v0.16l-0.16,0.16v0.16l-0.16,0.16l-0.16,0.16l-0.16,0.16l-0.16,0.16v0.16h-0.16h-0.16l-0.32,0.16h-0.16h-0.16v0.16
	l-0.16,0.16v0.16l-0.16,0.16h-0.16v0.32v0.16v0.16h-0.16v0.16l0.16,0.48v0.16v0.16v0.16h-0.16l-0.16,0.16h-0.16L10.4,19.5v0.16
	l-0.16,0.16v0.16v0.16l-0.16,0.16v0.16v0.16v0.16v0.16v0.16h0.16l0.16,0.16l0.16,0.16l0.16,0.16h0.16l0.16-0.16h0.16h0.16v0.16
	l-0.16,0.16v0.16l-0.16,0.16l-0.16,0.16v0.16v0.16l-0.16,0.16v0.16v0.16v0.16l0.16,0.16v0.16l0.16,0.16v0.16h0.16l0.16,0.16v0.32
	l0.16,0.16l0.16,0.16v0.16v0.16v0.16l0.16,0.16v0.16l0.16,0.16v0.16l0.16,0.16v0.16l0.16,0.16l0.16,0.16v0.16l0.16,0.16v0.16h0.16
	l-0.16,0.16v0.16v0.16v0.16h0.16v0.16v0.16l0.16,0.16v0.16v0.16l0.16,0.16v0.16h0.16l0.16,0.16h0.16h0.16h0.16h0.16v-0.16h0.16
	v-0.16h0.16h0.16h0.16h0.16h0.16v-0.16h0.16h0.16v-0.16h0.16h0.16v0.16h0.16h0.16h0.16h0.16v-0.16h0.16v0.16v0.16l0.16,0.16h0.16
	l0.16,0.32v0.16l-0.16,0.64v0.32l-0.16,0.32l0.16,0.16l-0.16,0.16v0.16v0.16l-0.16,0.16h-0.16v0.32h-0.16v0.16l-0.16,0.16
	l-0.16,0.32l-0.32,0.32l-0.16,0.16l-0.16,0.16v0.16l-0.16,0.32v0.16v0.16h0.16l0.16,0.16v0.16v0.32l-0.16,0.16v0.16v0.16v0.16V35
	v0.16v0.16h-0.16h0.16v0.16h0.16v0.16l0.16,0.16l0.16,0.16l0.16,0.16v0.16h0.16h0.16v-0.16h0.16v0.16l0.16,0.16v0.16l0.16,0.16
	l0.16,0.32h0.16h0.16l0.16-0.16h0.32v-0.16h0.16V36.6h0.16l0.16-0.16v-0.16h0.16l0.16-0.16l0.16-0.16h0.16v0.16h0.16l0.16,0.16
	l0.16,0.16h0.16l0.16,0.16l0.16,0.16l0.16,0.16h0.16v0.16v0.16v0.16l-0.16,0.48v0.16v0.16h0.16l0.16,0.16h0.16l0.16,0.16v0.16h0.16
	l0.16,0.16V39h0.16v0.16v0.16v0.32v0.16v0.16v0.16l0.16,0.16v0.32l0.16,0.16v0.16v0.16v0.16v0.16h0.16v0.32v0.16v0.16l0.16,0.16
	h0.16v-0.16v-0.16v-0.32v-0.16v-0.16v-0.16v-0.32h0.16V40.6h0.16h0.16l0.16,0.32v0.16v0.16h0.16v0.16v0.16h-0.16v0.16v-0.16v0.16
	h-0.16h0.16v0.16v0.16v0.16v0.16h0.16v0.16v0.16v0.16v0.16v0.16h-0.16h-0.16l0.16,0.16h-0.16v0.16h0.16v0.16v0.16h0.16v0.16
	l0.16,0.16v0.16h0.16v0.16h0.16v0.16v0.16h0.16h-0.16h0.16v0.16v-0.16v0.16v0.16h0.16h-0.16v0.16l0.16,0.16h-0.16v0.16h0.16v0.16
	h-0.16v0.16l0.16,0.16h-0.16v0.16h-0.16v0.16h0.16h0.16v0.16h0.16v0.16v0.16h-0.16v0.16h0.16h-0.16v0.16h0.16h-0.16v0.16h0.16v0.16
	v-0.16h-0.16v0.16v0.16h0.16v0.16h0.16v0.16H23.5v0.16h-0.16v0.16h0.16v0.16h-0.16v0.16h0.16v0.16v-0.16h-0.16v0.16h0.16v0.16h-0.16
	v-0.16v0.16v0.16v0.16h-0.16h0.16v0.16h-0.16v0.16h-0.16v0.16h-0.16v0.16H22.7l0.16,0.16v0.16H22.7h-0.16v-0.16v0.16v0.16v0.16h0.16
	v0.16h0.16v0.16v0.16v0.16L22.7,51.3v0.16v0.16v0.16l0.16,0.16v0.16H22.7v0.16h-0.16v0.16v0.16v0.16v0.16v0.16v0.16h-0.16h0.16v0.16
	h0.16v0.16l-0.16,0.16v0.32v0.16v0.16h0.16v0.16l-0.32,0.16l-0.16,0.16h-0.16H21.9v-0.16V54.5v-0.16h-0.16h-0.16h-0.16v0.16h-0.16
	v0.16H21.1v0.16h-0.16l-0.16,0.16v0.16l0.16,0.16l0.16,0.16v0.16h0.16v0.16H21.1v0.16h-0.16v0.16h-0.16h-0.16h-0.16v0.16l0.16,0.16
	l0.16,0.16h0.16v0.16v0.16v0.32v0.16l-0.16,0.16v0.16l-0.32,0.16l-0.16,0.16l-0.16,0.16v0.16h-0.16h-0.16l-0.16,0.16v0.16v0.16v0.16
	h0.16v0.16h0.16v0.16h0.16v0.16v0.16h-0.16v0.16h-0.16l-0.16,0.16v0.16l-0.16,0.16l0.64,0.32l0.64,0.48l0.8,0.32l0.8,0.48l0.96,0.64
	l0.64,0.32l0.64,0.48h0.16l0.48,0.16v0.16h0.16v0.16h0.16h0.16h0.16v0.16v0.16v0.16h0.16v0.16h0.16v0.16h0.16h0.16v0.16h0.16h0.16
	v0.16H26.7h0.16v0.16l-0.16,0.16v0.16h0.16v0.16v0.16v0.16V66v0.16v0.16v0.16h0.16v0.16v0.16h-0.16h0.16v0.16v0.16v0.16h0.16v0.16
	v0.16h0.16v0.16h0.16v0.16v0.16h0.16v0.16h0.16l0.16,0.16h0.16v0.16v0.16h0.16v0.16h-0.16h0.16v0.16v0.16v0.16h0.16v0.16v0.16h0.16
	v0.16V70h0.16v0.16h0.16V70h-0.16v-0.16v-0.16h-0.16v-0.16v-0.16V69.2v-0.16v-0.16v-0.16v-0.16h0.16h0.16h0.16h0.16V68.4h0.16h0.16
	h0.16l0.16,0.16h0.16l0.16,0.16h0.16v0.16h0.16h0.16v0.16v0.16v0.16v0.16h0.16v0.16v0.16V70v0.16v0.16v0.16h0.16v0.16v0.16h0.16
	h-0.16v0.16h-0.16v0.16h-0.16h-0.16v0.16h-0.16h-0.16h-0.16v-0.16h-0.16v-0.16h-0.16V70.8v-0.16l-0.16-0.16h-0.16h-0.16h-0.16v-0.16
	h-0.16v0.16h-0.16v0.16v0.16h0.16v0.16v0.16h0.16v0.16h0.16v0.16v0.16h0.16v-0.16v-0.16h0.16h0.16l0.16,0.16l0.16,0.16h0.16v0.16
	h0.16l0.16,0.16h0.16l0.32,0.32l0.16,0.16v0.16h0.16v0.16h0.16v0.16h0.16v0.16h0.16v0.16h0.16v0.16h0.16l0.16,0.16l0.16,0.16v0.16
	h0.16v0.16v0.16v0.16v0.16v0.16h0.16v0.16h0.16v0.16h0.16h0.16h0.16h0.16l0.16,0.16h0.16h0.16h0.16v0.16h0.16h0.16v0.16v0.16h-0.16
	v0.16v0.16h0.16v0.16h0.16v0.16v0.16v0.16v-0.16v0.16v-0.16h0.16v0.16v-0.16v0.16h0.16v-0.16v-0.16h-0.16v-0.16v-0.16v-0.16h-0.16
	v-0.16h0.16v-0.16v-0.16h-0.16v-0.16h0.16l-0.16-0.16v-0.16v-0.16v-0.16l0.16-0.16v0.16l0.16-0.16h0.16v-0.16h0.16h0.16h0.16
	l0.16-0.16h0.16h0.16h0.16h0.16h0.16h0.16h0.16h0.16h0.16h0.16h0.16v0.16h0.16h0.16h0.16l0.16,0.16h0.16h0.16l0.16,0.16h0.16H39
	v0.16h0.16h0.16l0.16,0.16h0.16v0.16h0.16h0.16l0.16,0.16h0.16v0.16h0.16h0.16v0.16h0.16l0.16,0.16h0.16v0.16h0.16l0.16,0.16v0.16
	l0.16,0.16h0.16l0.16,0.16h0.16l0.16,0.32l0.16,0.16h0.16l0.16,0.16l0.16,0.16v0.16L43,77.51l0.16,0.16v0.16l0.16,0.16v0.16v0.16
	h0.16v0.16h-0.16v0.16h-0.16v0.16L43,78.63h-0.16v0.16v0.16v0.16H43h0.16v-0.16h0.16v-0.16h0.16h0.16v-0.16v0.16v0.16v0.16v0.16
	v0.16h-0.16h-0.16h-0.16v0.16v0.16h0.16v0.16h0.16v0.16h0.16v0.16h-0.16v0.16v0.16h0.16h0.16v-0.16l0.16,0.16v-0.16h0.16h0.16h0.16
	v0.16h0.16v0.16h0.16v0.16h0.16l0.16-0.16v-0.16h-0.16v-0.16v-0.16v-0.16h-0.16v-0.16v-0.16v-0.16h0.32v0.16h0.16h0.16h0.16v0.16
	h0.16h0.16l0.16,0.16h0.16l0.16,0.16l0.16,0.16h0.16l0.16,0.16h0.16l0.16,0.16l0.16,0.16l0.32,0.16l0.16,0.16h0.16v0.16v0.16h0.16
	h-0.16v0.16h0.16v-0.16v0.16v-0.16h0.16v0.16h0.16v0.16h0.16v0.16h0.16l0.16,0.16v0.16h0.16v0.16h0.16v0.16l0.16,0.16v0.16h0.16
	v0.16h0.16l0.16,0.16v0.16l0.16,0.16l0.16,0.32v0.16h0.16v0.16v0.16h0.16v0.16l0.16,0.16v0.16h0.16v0.16h0.16v0.16v0.16l0.16,0.16
	v0.16v0.16h-0.16v0.16h-0.16h-0.16h-0.16h-0.16v0.16v0.16l0.16,0.16h0.16h0.16v0.16h0.16l0.16,0.16v-0.16v-0.16v0.16h0.16v-0.16
	V86.3h-0.16l0.16-0.16v-0.16h0.16h0.16h0.16v0.16h0.16h0.16h0.16v0.16h0.16h0.16v0.16h0.16l0.16,0.16h0.16v0.16h0.16h0.16v0.16h0.16
	h0.16v0.16h0.16v0.16h0.16l0.16,0.16l0.32,0.16l0.16,0.16h0.16v0.16l0.16,0.16h0.16v0.16v-0.16v0.16h0.16v0.16h0.16v0.16h0.16v0.16
	h0.16h-0.16l0.16,0.16l0.16,0.16l0.16,0.16l0.16,0.16l0.16,0.16l0.16,0.16l0.16,0.16v0.16h0.16l0.16,0.16l0.16,0.16v0.16h0.16v0.16
	l0.16,0.16l0.16,0.16h0.16h0.16v0.16h-0.16v0.16h0.16l0.16,0.16v0.16h0.16v0.16l0.16,0.16l0.16,0.16l0.16,0.16v0.16l0.16,0.16
	l0.16,0.16l0.16,0.16v0.16h0.16l0.16,0.16v0.16h0.16v0.16h0.16v0.16l0.32,0.16l0.32,0.32l0.32,0.16l0.32,0.32l0.32,0.16l0.48,0.32
	l0.16,0.16l0.32,0.16v0.16h0.16l0.16,0.16h0.16l0.32,1.12l0.16-0.16l0.16-0.16h0.16l0.16-0.16l0.16-0.16h0.16h0.16l0.16,0.16
	l0.16-0.16h0.16l1.12,0.16h0.32h0.16h0.32l0.16-0.16h0.16h0.16h0.16h0.16l0.16-0.16h0.16l0.16-0.16l0.16-0.16h0.16v-0.16h0.16
	l0.16-0.16v-0.16h0.16l0.16-0.16v-0.16h0.16l0.16-0.16l0.16-0.16l0.16-0.16l0.16-0.16H70l0.16-0.16l0.16-0.16l0.16-0.16l0.16-0.16
	l0.16-0.16l0.16-0.16l0.16-0.16v-0.16l0.16-0.16l0.16-0.16v-0.16v-0.16v-0.16l0.16-0.16v-0.16l-0.16-0.16v-0.16v-0.16v-0.16
	l-0.16-0.16l-0.16-0.16v-0.16v-0.16v-0.16l0.16-0.16v-0.16l0.16-0.16l0.16-0.16l0.16-0.16V89.5l0.16-0.16h0.16h0.16l0.16-0.16h0.16
	v-0.16l0.16-0.16V88.7v-0.16l0.16-0.16v-0.16h0.16l0.16-0.16h0.16h0.16h0.16V87.9v-0.16v-0.16h-0.16v-0.16l-0.16-0.16V87.1v-0.16
	v-0.16v-0.16H73.2h-0.16h-0.32v-0.16h-0.16L72.4,86.3h-0.16l-0.16-0.16v-0.16l-0.16-0.16h-0.16l-0.16-0.16h-0.16l-0.16-0.16h-0.16
	l-0.16-0.16H70.8h-0.16h-0.16h-0.16l-0.16-0.16L70,84.86l-0.16-0.16h-0.16l-0.16-0.16h-0.16v-0.16v-0.16v-0.16l0.16-0.16v-0.32
	v-0.16l0.16-0.16V83.1v-0.32v-0.16h-0.16h-0.16v-0.16H69.2h-0.16h-0.16V82.3v-0.16v-0.16h0.16v-0.16h0.16h0.16h0.16v-0.16h-0.16
	v-0.16h0.16h0.16v-0.16h0.16v-0.16H70h0.16v-0.16h0.16v-0.16h0.16v-0.16v-0.16v-0.16v-0.16v-0.16h0.16v-0.16l0.16-0.16v-0.16v-0.16
	v-0.16h-0.16v-0.16v0.16v-0.16v-0.16h-0.16v-0.16h-0.16h0.16l-0.16-0.16v-0.32l-0.16-0.16v-0.16H70h0.16L70,77.83h-0.16v0.16v-0.16
	h-0.16v-0.16v-0.16v-0.16h-0.16l-0.32-0.16v-0.16h-0.16v-0.16h-0.16v-0.16h-0.16h-0.16l-0.16-0.16l0.16-0.16H68.4v-0.16v-0.16h0.16
	v-0.16h0.16v-0.16h-0.16H68.4v-0.16h-0.16h0.16v-0.16h-0.16v-0.16h0.16h-0.16v-0.16v-0.16h-0.16h0.16v-0.16h-0.16h0.16v-0.16v-0.16
	h0.16v-0.16v0.16v-0.16h0.16H68.4v-0.16v-0.16v-0.16l-0.16-0.16l-0.16-0.16v-0.16h-0.16h-0.16h-0.16V73.2h-0.16v-0.16v-0.16v-0.16
	v-0.16h-0.16V72.4h0.16h0.16v-0.16h0.16l0.16,0.16v-0.16h0.16v-0.16h0.16v0.16l0.16-0.16h0.16h0.16h0.16h0.16h0.16v-0.16v-0.16h0.16
	h0.16V71.6h0.16h0.16v-0.32v-0.16H70h0.16h0.16h0.16v-0.16h0.16V70.8v-0.16v-0.16l0.16-0.16v-0.16L70.96,70v-0.16v-0.16v-0.16v-0.16
	l0.16-0.16h0.16h0.16l0.16-0.16l0.16-0.16l0.16-0.16h0.16v-0.16h0.16l0.32,0.16h0.16h0.16v-0.16h0.16h0.16h0.16h0.16h0.16h0.16v0.16
	v0.16L74,69.04h0.16v0.16L74,69.36l0.16,0.16v0.16v0.16h0.16l0.16-0.16h0.16v0.16l0.32,0.32v0.16h0.16l0.16,0.16v-0.16v0.16h0.16
	v0.16h0.16h0.16v0.16v0.16h0.16h-0.16v0.16h0.16v0.16l0.16-0.16h0.16v0.16l0.16-0.16l0.16,0.16v-0.16h0.16v-0.16h0.16v0.16
	l0.16-0.16h0.16h0.16l0.32,0.16v0.16l0.16-0.16v-0.16h0.16h0.16V70.8v-0.16l-0.32-0.32h-0.16l0.16-0.16V70h-0.16v0.16h-0.16V70
	v-0.16h-0.16h-0.16l0.16-0.16l-0.32-0.32h-0.16v0.16h-0.16v-0.16V69.2l-0.16-0.16H76.4h-0.16v-0.16h-0.16v-0.16v-0.16h-0.16V68.4
	h-0.16H75.6v-0.16v-0.16h-0.16h-0.16v-0.16v-0.16V67.6h-0.16v0.16V67.6h-0.16v0.16v0.16l-0.16-0.16h0.16V67.6v-0.16v-0.16h0.16h0.16
	v0.16l0.16-0.16h0.16v0.16h0.16v-0.16v-0.16H75.6v-0.16V66.8h0.16v-0.16h0.16v0.16h0.16v-0.16h-0.16v-0.16h0.16v-0.16h-0.16v-0.16
	h-0.16V66v-0.16v-0.32H75.6h-0.16h-0.16v-0.16h-0.16h0.16l-0.16-0.16v-0.16v-0.16h0.16v-0.16l0.16-0.16v-0.16l-0.16-0.16h-0.16
	v-0.16h-0.16v-0.16v-0.16l-0.16-0.16v-0.16h0.16v-0.16H74.8v-0.16v-0.16v-0.16v-0.16h-0.16v-0.16h-0.16v-0.16l0.16-0.16v-0.16v-0.16
	v-0.16h-0.16l-0.16-0.16v-0.16h0.16v-0.16v-0.16v-0.16v-0.16h0.16v0.16h0.16h0.16v-0.16h0.16l0.16,0.16l0.16-0.16h-0.16h0.16v-0.16
	v-0.16h-0.16v-0.16v-0.16v-0.16h0.16h0.16v-0.16h0.16v-0.16h0.16h0.16h0.16v-0.16l-0.16-0.16v-0.16h-0.16v-0.16h0.16v-0.16h0.16
	h0.16v0.16h0.16v-0.16v-0.16h0.16v0.16h0.16l0.16-0.32v-0.16h0.16v-0.16h0.16h0.16v-0.16h0.16h0.16v-0.16v-0.16h0.16v0.16v-0.16
	v-0.16h0.16l-0.16-0.16h0.16v-0.16v-0.16V56.9v-0.16v-0.16h0.16h0.16h0.16v0.16v-0.16h0.16v-0.16l0.16-0.16V56.1h0.16h-0.16v-0.16
	l0.16,0.16h0.16v-0.16h0.16h0.16l-0.16-0.16h0.16l-0.16-0.16l0.16-0.16V55.3h0.16h0.16l0.16,0.16h0.16l0.16,0.16h0.32h0.16h0.16
	h0.16v0.16v-0.16h0.16v-0.16h0.16v0.16h0.16h0.16l0.16,0.16h0.16l0.16-0.16h0.16l0.16-0.16h0.16l0.16-0.16v-0.16l0.16-0.16
	l0.16-0.32l0.16-0.16l0.16-0.32l0.32-0.16v-0.16h0.16V53.7v-0.16h0.16v-0.16h0.16h0.16h0.16h0.16l0.16,0.16v0.16h0.16v0.16h0.16
	h0.16h0.16h0.16V53.7h0.16v0.16h0.16h0.16h0.16h0.16V53.7h0.16v-0.16h0.16v-0.16v-0.16h0.16v-0.16V52.9h0.16h0.16v-0.16h0.16v-0.16
	h0.16h0.16v-0.16v-0.16h0.16V52.1H87.9v-0.16v-0.16h0.16v-0.16v-0.16h0.16V51.3v-0.16v-0.16v-0.16v-0.16V50.5h-0.16H87.9v-0.16
	v-0.16h-0.16l-0.16-0.16v-0.16V49.7h-0.16v-0.16h0.16v-0.16v-0.16v-0.16v-0.16v-0.16h0.16v-0.16l0.16-0.16v-0.16l-0.16-0.16
	l-0.16-0.16v-0.16v-0.16h-0.16v0.16h-0.16v-0.16l-0.16-0.16v0.16h-0.16v-0.16l-0.16-0.16v0.16h-0.16l-0.16-0.16H86.3v-0.16h-0.16
	h0.16v-0.16h0.16v-0.16H86.3v-0.16v-0.16v-0.16v-0.16v-0.16v-0.16v-0.16l-0.16-0.16l-0.16-0.16h-0.16v-0.16h-0.16H85.5v-0.16h-0.16
	l-0.16-0.16l-0.16-0.16h-0.16v-0.16l-0.16-0.16v-0.16v-0.16v-0.16v-0.16v-0.16h0.16v-0.16h0.16l0.16-0.16h0.16h0.16v-0.16v-0.16
	v-0.16v-0.16h-0.16v-0.16v-0.16v-0.16v-0.16v-0.16v-0.16h-0.16h0.16h0.16v-0.16h0.16H85.5v-0.16h-0.16v-0.16l0.16-0.16h-0.16v-0.16
	h0.16v-0.16V40.6h0.16l-0.16-0.16v-0.16h-0.16v-0.16h-0.16h-0.16v-0.16V39.8v-0.16v-0.16v-0.16v-0.16L84.87,39v-0.16v-0.16v-0.16
	h-0.16v-0.16V38.2h-0.16l-0.16-0.16v-0.16h-0.16h0.16v-0.16v-0.16h-0.16V37.4h-0.16v-0.16v-0.16v-0.16v-0.16l-0.16-0.16v-0.16
	l-0.16-0.16v-0.16v-0.16h-0.16V35.8l-0.16-0.16v-0.16h0.16h0.16v-0.16h0.16h0.16l0.16-0.16h0.16h0.16V35v-0.16h0.16v-0.16h0.16
	v-0.16v-0.16h-0.16V34.2h-0.16v-0.16v-0.16h-0.16v-0.16v-0.16h-0.16V33.4h-0.16v0.16h-0.16V33.4v0.16V33.4h-0.16h0.16v-0.16h-0.16
	v-0.16v-0.16h-0.16v0.16l-0.16-0.16v-0.16h-0.16h0.16v-0.16v-0.16h0.16v-0.16h0.16v-0.16h0.16h0.16h0.16v-0.16h0.16h0.16v0.16v-0.16
	h0.16l0.16-0.16v-0.16h-0.16l0.16-0.16h0.16h0.16v-0.16h0.16v-0.16h0.16h0.16h0.16v0.16v0.16v0.16l0.16-0.16h0.16v-0.16v-0.16h0.16
	h0.16l0.16-0.16h0.16v-0.16h-0.16v0.16l-0.16-0.16l0.16-0.16v0.16h0.16h0.16h0.16v-0.16h-0.16v-0.16h0.16l0.16,0.16h0.16v-0.16
	l-0.16-0.16H87.1v-0.16h-0.16h-0.16h-0.16h-0.16h-0.32h-0.16h-0.16l-0.16-0.16H85.5l-0.48-0.16l-0.48-0.16l-0.32-0.16h-0.16v-0.16
	v-0.16l-0.16-0.16l-0.16-0.32l-0.32-0.48l-0.32-0.8l-0.32-0.64l-0.16-0.16v-0.16l-0.16-0.32l-0.16-0.32l-0.32-0.64l-0.16-0.16
	l-0.16-0.32l-0.32-0.64l-0.16-0.32l-0.16-0.16l-0.16-0.32v-0.16v-0.16h-0.16h-0.16v0.16h-0.16v-0.16l-0.16,0.16l-0.16-0.16h-0.16
	v0.16v-0.16v-0.16h-0.16l-0.16-0.16h-0.16v0.16h-0.16v0.16h-0.16v-0.16h-0.16h-0.16V22.7l-0.16-0.16v-0.16l-0.16,0.16v-0.16v-0.16
	v-0.16h-0.16V21.9v-0.16h0.16v0.16v-0.16h-0.16v-0.16v-0.16h0.16v-0.16h-0.16V21.1h-0.16v-0.16v0.16h-0.16v-0.16v-0.16h-0.16v0.16
	h-0.16v-0.16h-0.16v-0.16h0.16l-0.16-0.16h0.16l-0.16-0.16v0.16V20.3v-0.16h-0.16v-0.16h0.16h-0.16v-0.16h-0.16h0.16h-0.16v-0.16
	V19.5h-0.16h-0.16v-0.16v-0.16h0.16v-0.16h-0.16h0.16v-0.16h-0.16l0.16-0.16h-0.16v-0.16h0.16v-0.16v-0.16v-0.16h-0.16V17.9
	l-0.16-0.16v-0.16h-0.16H76.4v-0.16h-0.16h-0.16h-0.16v-0.16V17.1h-0.16v-0.16H75.6v-0.16h-0.16v-0.16v-0.16v-0.16v-0.16h-0.16
	v-0.16v-0.16v-0.16v-0.16h-0.16v-0.16v-0.16v-0.16v-0.16v0.16v-0.16h-0.16v-0.16v-0.16H74.8l-0.16-0.16v-0.16v-0.16v-0.16v-0.16
	h-0.16l-0.16-0.16h0.16v-0.16h0.16v-0.16v-0.16v-0.16h-0.16v-0.16h-0.16v-0.16v-0.16v-0.16v-0.16v-0.16v-0.16v-0.16h-0.16h0.16
	v-0.16h-0.16H74h0.16h0.16v-0.16h-0.16v-0.16v-0.16v-0.16H74v-0.16l-0.16,0.16v-0.16h-0.16v-0.16l-0.16-0.16v-0.16v-0.16h-0.16V9.91
	V9.75L73.2,9.59V9.43h-0.16V9.27V9.11V8.95V8.8V8.64h0.16l-0.16-0.16h0.16h-0.16V8.32h-0.16h-0.16V8.16h-0.16V8V7.84V7.68V7.52H72.4
	v0.16V7.52h-0.16h-0.16V7.36V7.2V7.04V6.88V6.72V6.56V6.4h-0.16V6.24h-0.16V6.08H71.6V5.92h-0.16V5.76h-0.16V5.6v0.16h-0.16V5.6
	h-0.16H70.8h-0.16l-0.16-0.16V5.28h0.16V5.12V4.96V4.8V4.64V4.48h-0.16l0.16-0.16h-0.16l0.16-0.16h-0.16h0.16V3.84V3.68V3.52
	l0.16-0.16V3.2l0.16-0.16H70.8L70.64,3.2h-0.16h-0.16V3.04V2.88h-0.16V2.72L70,2.56V2.4h-0.16V2.24h-0.16l-0.16-0.32l-0.16-0.16V1.6
	L69.2,1.44h-0.16h-0.16L68.72,1.6v0.16l-0.16,0.32v0.16L68.4,2.4v0.16l-0.16,0.16h-0.16v0.16v0.16V3.2v0.16l-0.16,0.16h-0.16h-0.16
	v0.16h-0.16v0.16h0.16h-0.16V4h-0.16l-0.16,0.16h-0.16h-0.16h-0.16h-0.16V4h-0.16h-0.16v0.16V4h-0.16V3.84L65.85,4h-0.16V3.84V3.68
	V3.52h0.16h-0.16h0.16V3.36h-0.16V3.2h-0.16V3.04h-0.16h-0.16V3.2h-0.16l-0.16,0.16v0.16h0.16h0.16v0.16v0.16h0.16L65.53,4v0.16
	v0.16v0.16v0.16h-0.16V4.8l0.16,0.16h-0.16l-0.16,0.16v0.16h0.16v0.16h0.16h-0.16V5.6v0.16h-0.16v0.16h0.16h-0.16v0.16h0.16v0.16
	h-0.16h-0.16V6.08h-0.16L64.73,6.4v0.16v0.16h-0.16h-0.16v0.16l-0.16-0.16v0.16h-0.16v0.16V6.88v0.16h-0.16h-0.16V7.2V7.04V7.2
	h-0.16h-0.16h-0.16h-0.16h-0.16h-0.16V7.04h-0.16V7.2V7.04h-0.16L62.33,7.2V7.04h-0.16V7.2V7.04h-0.16V7.2h-0.16V7.04V6.88h-0.16
	h-0.16V6.72h-0.16h-0.16V6.56h-0.16V6.4h-0.16h-0.16h-0.16l-0.16,0.16l-0.16,0.16H60.1h-0.16l-0.16,0.16h-0.16h-0.16H59.3
	l-0.16-0.16h-0.16V6.56L58.82,6.4h-0.16L58.5,6.56h-0.32h-0.16h-0.16L57.7,6.72l-0.16,0.16h-0.16v0.16l-0.16-0.16V6.72l-0.16-0.16
	V6.4V6.24L56.9,5.92V5.76L56.74,5.6l-0.16-0.16V5.28l-0.16-0.16l0.16-0.16L56.42,4.8V4.64l-0.16-0.16L56.1,4.32V4.16L55.94,4V3.84
	V3.68V3.52V3.36V3.2l-0.16-0.16V2.88h-0.16h-0.16h-0.48L54.5,3.36h-0.8L53.06,3.2h-0.48V3.04h-0.16V2.88V2.72h-0.16h0.16V2.56h-0.16
	H52.1v0.16V2.56h-0.16L51.79,2.4h0.16V2.24h-0.16V2.4V2.24h-0.16V2.08V1.92h-0.16l0.16-0.16h-0.16h-0.16V1.44V1.28V1.12V0.96h-0.16
	V0.8V0.65V0.49h0.16h-0.16V0.33V0.17h-0.16V0.01v0.16h-0.16h-0.16V0.01h-0.16V-0.15z"/>
</svg>
