<?xml version="1.0" encoding="utf-8"?>
<!-- Generator: Adobe Illustrator 24.2.1, SVG Export Plug-In . SVG Version: 6.00 Build 0)  -->
<svg version="1.1" id="Layer_1" xmlns="http://www.w3.org/2000/svg" xmlns:xlink="http://www.w3.org/1999/xlink" x="0px" y="0px"
	 viewBox="0 0 97.23 97.23" style="enable-background:new 0 0 97.23 97.23;" xml:space="preserve">
<style type="text/css">
	.st0{fill-rule:evenodd;clip-rule:evenodd;}
</style>
<path class="st0" d="M25.21,95.7v0.16v0.16v0.16h-0.16v-0.16v-0.16V95.7h-0.16h-0.14v0.16L24.6,95.7v-0.16v-0.16h0.16h0.16h0.14
	v0.16h0.16V95.7L25.21,95.7z M23.69,94.79v0.16v0.16h0.16v0.16v0.16v0.16H24v0.16v0.16v0.16v0.16h-0.16v0.16v0.16v0.16h-0.16v0.16
	v-0.16v-0.16h-0.16v-0.16v-0.16h-0.14v-0.16V95.9v-0.16v-0.2h0.16v-0.16v-0.16v-0.16h-0.16v-0.12v-0.16h0.16H23.69L23.69,94.79z
	 M21.87,90.99h-0.16v0.16h-0.14l-0.16-0.16v-0.16h0.16v0.16h0.16v-0.16v-0.16h0.16v0.16v0.16H21.87z M23.07,89.78h0.16h0.16h0.16
	v0.16v0.16v0.16v0.16h0.16v0.16v0.16l0.16,0.16v0.1v0.16v0.16h0.16v0.16v0.16h0.16v0.16v0.16h0.16v0.16h-0.2v0.16v0.16h-0.16h-0.14
	v0.16h-0.16v0.16h-0.16v0.16h-0.14v0.08v0.16l-0.16-0.16v-0.16v-0.16v-0.16v-0.16v-0.16l-0.16-0.12V91.9v-0.16v-0.16h-0.14v-0.16
	h-0.16v-0.16v-0.16v-0.12l-0.16-0.16l-0.14-0.14v-0.16v-0.14v-0.16v-0.16h0.16h0.16v-0.16v-0.16V89.6h0.16L23.07,89.78L23.07,89.78z
	 M24.6,90.24v-0.16v-0.16v-0.16V89.6l-0.16-0.16H24.3v-0.16h-0.16v0.16h-0.16v0.16v0.16v0.16v0.16v0.16h0.16v0.16h0.16h0.16v-0.16
	H24.6L24.6,90.24z M20.34,88.57H20.2v-0.16v-0.16V88.1l0.16,0.16v0.16v0.16H20.34z M16.7,87.66v0.16V87.66h-0.14v-0.16v-0.16h0.16
	v0.16v0.16H16.7z M20.34,87.21H20.2v-0.16h0.16v0.16H20.34z M16.86,87.05h0.16h0.16h0.16v0.16h-0.18v0.16v-0.16L17,87.37v-0.16
	h-0.14V87.05L16.86,87.05z M18.98,86.44h0.16H18.98v0.16l0.61,0.46v0.16l-0.61-0.61l-0.16,0.16h-0.14V86.6v-0.16v-0.16v-0.16h0.16
	v0.16v0.16H18.98L18.98,86.44z M16.56,84.77l-0.16,0.16v0.16h0.16v0.16h0.16v0.16h0.16H16.7v0.16h-0.14H16.4v0.16h-0.16h-0.14h-0.16
	v0.16h0.16h-0.16v0.16v0.16v-0.16v-0.2v-0.16v-0.16h-0.16v-0.16h-0.14v-0.16l-0.16-0.16h0.16v-0.16h0.16h0.14h0.16h0.16l0.16-0.16
	h0.14V84.77z M18.52,84.48h0.16v0.16h-0.16h-0.14h0.14V84.48L18.52,84.48z M18.07,84.62v-0.16h-0.14h-0.16v0.16h-0.16h-0.14h-0.16
	h-0.16h-0.14v-0.16v0.16h-0.16H16.7h0.16v0.16l0.16-0.16h0.16v0.16l0.16,0.16h0.16h0.16h0.16h0.12h0.16v-0.16v-0.16H18.07z
	 M12.15,81.89v0.16v0.16h-0.14h0.16l-0.16,0.16V82.2v-0.16v-0.16h-0.16v-0.16v-0.16h0.16v0.16h0.16v0.16H12.15z M7.91,78.11h0.16
	l0.16,0.16v0.16h0.16h0.16h0.16v-0.16h0.12h0.16h0.16v0.16H9.3h0.12l0.16-0.16h0.16h0.16h0.16h0.16h0.16l-0.16,0.16v0.16h0.16v0.16
	v0.16v0.16v0.16h0.16v0.16h-0.2v0.16v0.16v0.16h0.16v0.16v0.16v0.16v0.16h-0.16l-0.16,0.16v0.16h-0.14v-0.16v0.16H9.87H9.74H9.58
	v0.16v0.16H9.42v0.16H9.28v0.16H9.12v0.16v0.16h0.16v0.16l-0.16-0.02H8.96v0.16H8.83v0.16H8.67H8.51v0.16H8.37H8.21H8.05V82.2H7.91
	v-0.16h0.16h0.16v-0.16v-0.16H8.05v-0.16H7.91v-0.16v-0.12v-0.16v-0.16v-0.16l-0.16-0.16L7.6,80.5v-0.16H7.46v-0.16H7.3v-0.16H7.14
	v-0.16H7v-0.16l-0.16-0.1v-0.16v-0.14v-0.16V79v-0.16H7v-0.16v-0.16l0.16,0.16v0.16V79h0.16v0.16v0.16v0.16h0.16h0.16H7.8v-0.16
	h0.16v-0.16V79h-0.2v-0.16h0.16v-0.16H7.76v-0.16v-0.16V78.2v-0.16h0.16V78.11z M9.87,77.49v0.16V77.49H9.74v-0.16v-0.16h0.16v0.16
	v0.16H9.87z M14.29,74.46h-0.16h-0.16h-0.14v0.16h-0.16v-0.16h-0.16h-0.14v-0.16h0.16h0.16h0.16l0.16-0.16h0.16v0.16h0.16v0.16
	H14.29z M8.83,60.04v0.16v0.16H8.67v0.16v0.16v0.16v0.16H8.51v0.16H8.37v0.16v0.16H8.21v0.16h0.16v0.16v0.16L8.21,62.1v0.16H8.05
	V62.1H7.91v0.16H7.76v0.16H7.6v-0.16H7.46V62.1v-0.16V61.7v-0.16v-0.16v-0.16H7.3v-0.12H7.14v-0.16H7v-0.16h0.16l0.16-0.16v-0.16
	v-0.16H7.14v-0.16H7.3V60v-0.16v-0.16h0.16v0.16h0.16h0.16V60h0.16h0.16l0.16-0.16v-0.16v-0.16h0.16h0.16v-0.16v-0.16h0.16H8.51
	l0.16-0.16h0.16v-0.16h0.16v0.16H8.83v0.16v0.16h0.16v0.16v0.16v0.16H8.83h0.16V60H8.83V60.04z M10.03,43.65V43.5V43.65L10.03,43.65
	z M10.65,42.9v0.16v0.16l-0.16,0.16h-0.16v0.12h-0.14h-0.16h0.16v-0.16v-0.16v-0.16V42.9h0.16h0.16H10.65L10.65,42.9z M10.49,42.45
	v-0.16V42.45L10.49,42.45z M12.76,39.85H12.6V39.7h0.16V39.85L12.76,39.85z M12.6,38.81v-0.16h-0.14h0.16v-0.16v0.16v0.16H12.6z
	 M11.85,38.19h0.16l0.16,0.16v0.16v0.16l-0.16,0.16h-0.16h-0.16h-0.14v-0.16v-0.16v-0.16v-0.16v-0.16h0.16v0.16H11.85L11.85,38.19z
	 M20.05,37.74h0.16v0.16h-0.16V37.74L20.05,37.74z M12.47,37.89h-0.16h-0.16l0.16-0.16L12.47,37.89L12.47,37.89z M10.49,37.58h-0.16
	v0.16v0.16h0.16v0.16v0.16v0.16v0.16v0.16v0.16V39h0.16v0.16h0.16v0.16v0.16h0.16v0.16l0.16,0.16v0.16h0.16v0.16v-0.16v0.16h0.12
	h0.16H11.4v0.16h-0.16v0.16h0.16v0.16h-0.16v0.16v0.16h0.16h0.3h-0.3v0.16v0.16v0.16h-0.16v0.16v0.16H11.1v0.16h-0.16v0.16h-0.16
	v0.16l-0.16,0.16v0.16h-0.14v-0.16h-0.16v-0.16v-0.16v-0.16v-0.16v-0.16v-0.16h-0.14h-0.16v-0.16v-0.3h0.16v-0.16h0.16v-0.16v-0.16
	l-0.16-0.16h-0.16H9.87H9.74v-0.16h0.16h0.16v-0.16v-0.16v-0.16h0.16V39.5h-0.18v-0.16H9.87v-0.16v-0.16v-0.08H9.74H9.58v-0.16
	l0.16-0.16v-0.16H9.58v-0.12h0.16v-0.16h0.16v-0.16v-0.16H9.74v-0.16v-0.16l0.16-0.16h0.16v0.16h0.16V37.4h0.16h0.16v0.18H10.49z
	 M9.58,36.67v-0.16V36.67L9.58,36.67z M39.91-0.04l-0.3,0.16h-0.16H39.3l-0.16,0.16l-0.16,0.16l-0.16,0.16l-0.12,0.12l-0.16,0.16
	v0.16v0.16v0.16V1.5v0.16l-0.16,0.16h-0.16l-0.14,0.12h-0.16V2.1v0.16v0.16v0.12v0.16v0.16h-0.16h-0.16v0.16h-0.16L37.3,3.17h-0.16
	V2.99v0.16h-0.16l-0.16-0.16l-0.1-0.14l-0.16-0.16h-0.16v0.16h-0.16l-0.12,0.14h-0.16v0.16V3.3h-0.16h-0.16v0.16v0.16h0.16v0.16
	h-0.16H35.5h-0.16v0.16V3.76h-0.16h-0.16v0.16h0.16h-0.16v0.16h-0.16v0.16h-0.16V4.06h-0.16V3.9h-0.16h-0.16v0.16v0.16h-0.08H34
	V4.06h-0.16h-0.16h-0.16h-0.16h-0.16h-0.16h-0.16h-0.16V3.9h-0.16h-0.16h-0.16l-0.08,0.16h-0.16h-0.16L31.7,4.21h-0.12v0.16v0.14
	v0.16v0.16v0.16v0.16V5.3h0.16v0.16v0.16v-0.2h0.16v0.16v0.16h0.16V5.9v0.16v0.16h0.16v0.16l0.16,0.16v0.16h0.16h0.16v0.16V7h0.16
	v0.08h0.16v0.16V7.4h-0.16l-0.16,0.16h-0.16v0.16V7.54h-0.16h-0.2h-0.16V7.4l-0.16,0.16h0.16v0.16h-0.16H31.7v0.16v0.16h-0.12h-0.16
	h-0.16h-0.16v0.16v0.16h0.16v0.16l-0.16,0.16l-0.3,0.3l-0.14,0.1v0.16h-0.16v0.16l-0.16,0.16L30.2,9.7h-0.16v0.16h-0.16h-0.16v0.16
	l-0.12,0.12v0.16v0.16l-0.16,0.16l-0.16,0.16h-0.16l-0.16,0.16h-0.16l-0.12,0.12h-0.16v0.16h-0.16h-0.16l-0.16,0.16H27.9l-0.16,0.16
	l-0.12,0.12v0.16v0.16l-0.16,0.16h-0.16h-0.16h-0.12h-0.16h-0.16h-0.14v-0.16h-0.16l-0.16,0.14h-0.14v0.16h-0.16H25.8v-0.16
	l-0.14,0.16h-0.16v-0.16h-0.16v-0.14h-0.14h-0.16v-0.16l-0.16-0.16l-0.14-0.14l-0.16-0.16v-0.16h-0.16H24.3l-0.16,0.16h-0.16
	l-0.3,0.3h-0.16l-0.14,0.16v0.16h-0.16l-0.16,0.14l0.46,0.3l0.61,0.46V13v0.16v0.16v0.16v0.14l-0.16,0.16v0.16v0.3v0.16v0.16v0.16
	v0.16v0.16h0.16v0.16v0.16v0.16h0.16v0.1v0.16h0.16H24.3h0.16v0.16v0.16h0.16h-0.18l0.16,0.12v0.16h0.16v0.16v0.16h0.16v0.16v0.16
	h0.14v0.16v0.16l0.16,0.16v0.16v0.16h0.16v0.16h0.16h-0.18v0.16h0.16h0.16h-0.16v0.08h0.16h-0.16v0.16h0.16h-0.16v0.16h0.16h-0.16
	v0.16h0.16h-0.16h0.16v0.16h-0.16h0.16v0.16v0.16v0.16h-0.16h0.16v0.16v0.16h-0.16v0.16v0.16h-0.16h0.16h-0.16v0.16h-0.14h-0.16
	v0.16h-0.16h0.16h0.16h-0.16h0.16v0.16h-0.16h0.16v0.16v-0.16v0.16h-0.16h-0.16v0.16h0.16v0.16v0.16v-0.28l-0.16,0.16h-0.14v0.16
	V20.9v0.16H24.6v0.16h0.16h0.16v0.16h-0.16h0.16v0.16h-0.16h0.16h-0.16v0.16H24.6v0.16v-0.16v0.16h-0.16V22H24.3v0.16h-0.16h-0.16
	v0.16h-0.14h-0.16v0.16h-0.16h-0.14h-0.16h-0.16h-0.14h-0.16h-0.16v0.16h-0.14v-0.16v0.16h-0.16l-0.16,0.08h-0.14v0.16h-0.16v0.16
	h-0.16l-0.16,0.16h-0.14v0.16h-0.16h-0.14h-0.16v-0.16v-0.16H20.8h-0.14H20.5v0.16h-0.16v0.16v0.16v0.16v0.16H20.2h-0.16v-0.16v0.16
	l-0.16,0.16v0.16v0.16h0.16v0.16v0.16v0.16v0.16l-0.16,0.16v0.16v0.16h-0.14v0.16h-0.16h-0.16v0.16h-0.14h-0.16h-0.16v-0.16h-0.14
	h-0.16v-0.28l-0.16-0.14l-0.14,0.14v0.16h0.14v0.16v0.16h-0.14v0.16h0.14v0.16v0.16v0.16h-0.14h-0.16h-0.16v0.16v0.16h0.16v0.16
	h0.16v0.16h0.14v0.16h0.16v0.16h0.16v0.16H19v0.16l0.16,0.16l0.16,0.16v0.16l0.3,0.16v0.16l0.16,0.16l0.16,0.3l0.16,0.16v0.16
	l0.16,0.16v0.16h0.16v0.16v0.16l0.16,0.3v0.16l0.16,0.3v0.16v0.16v0.16h0.16v0.16v0.16v0.16h0.16v0.16H20.8h0.16v0.16v0.16v0.16
	v0.16v0.16h0.16h-0.16h0.16v0.16v0.16v0.16v0.16h0.16v0.16v0.16v0.16v0.16h0.16v0.16v0.16v0.16v0.16v0.16v0.16h-0.18v0.16v0.16h0.16
	v0.16v0.16v0.16l0.16,0.16h-0.16v0.16V36h-0.16v0.16v0.16v0.16v0.16h-0.14v0.16h-0.16v-0.16v0.16v0.16v0.16H20.8v0.16v0.16v0.16
	v0.16v0.16h-0.14v0.16v0.16l-0.16-0.32v0.16v0.16v0.16h-0.16v0.16H20.2v0.16h-0.16v0.16v-0.16v0.16h-0.16V39h-0.14v0.16h-0.16h-0.16
	v0.16v0.16l-0.16,0.16v-0.16l-0.16,0.16h0.16h-0.14v0.16v0.16l-0.16,0.16l-0.16,0.16v0.16h-0.14h-0.16v0.16h-0.14v0.16v0.16
	l-0.16,0.02l0.16,0.16v0.16h-0.16v0.16v0.16v0.16v0.16l0.16,0.16v0.16h-0.16v0.16v0.16h-0.16h-0.14v0.16v0.16h-0.16h-0.16h-0.14
	v0.16h-0.16h-0.16v0.16h-0.14v0.16h-0.16v0.16H16.7v0.04l-0.16,0.16v0.16v0.16v0.16v0.16v0.16H16.4v0.16v0.16l-0.16,0.16v0.16v0.16
	v0.16v0.08l-0.16,0.16v0.16h-0.14v0.16v0.16v0.16v0.16v0.16h0.16h0.16v-0.16h0.16l0.16-0.16v-0.16h0.16h0.16v0.16h0.16v0.16
	l0.16,0.16v0.16h-0.2h-0.16v0.16H16.7l-0.16,0.16v0.16h0.16l0.16,0.24l0.16,0.16l0.14-0.16l0.3-0.16l0.3-0.16h0.18l0.16-0.16v0.16
	h0.16v0.16l-0.18,0.16h-0.14l-0.46,0.3h-0.16v0.16h-0.16v0.16l0.16,0.16l0.16,0.16l0.46-0.34h0.16l0.16-0.16h0.16l0.12,0.16
	l0.3,0.16l0.16,0.16h0.16v0.16l0.16,0.16l0.16,0.16V49h0.16v0.16v0.16h0.16v0.16l0.16,0.16v0.16v0.16h0.16l0.16,0.16l0.16,0.16v0.16
	h0.1v0.3l0.16,0.16v0.16v0.16h0.16v0.16v0.3v0.16v0.16l0.16,0.3v0.16l-0.16,0.16v0.3v0.16v0.16l-0.16,0.3v0.16H20.5v0.16v0.16h-0.16
	v0.16v0.16H20.2v0.16v0.16h-0.16l-0.16-0.02l-0.16,0.16v0.16l-0.16,0.16h-0.14v0.16h-0.14v0.16h-0.16l-0.16,0.16v0.16h-0.14
	l-0.16,0.16h-0.16h-0.14h-0.16v-0.16v0.16h-0.16v-0.16v-0.16h-0.14h-0.16v0.16h-0.16h-0.14v0.16h-0.16h-0.16h-0.14V56v0.16v0.16
	l0.16,0.16v0.16v0.16v0.16v0.16h-0.16v0.16v0.16v0.16v0.16v0.16h0.16v0.16v0.16v0.16v0.16v0.16l-0.16,0.16v0.16v0.16h-0.16v0.16
	H16.7v0.16l-0.16,0.16l-0.16,0.16l-0.16,0.16h-0.12l-0.16-0.08h-0.16h-0.14h-0.16v-0.16l-0.16-0.16v-0.16H15.2v0.16v0.16v0.16h-0.16
	h-0.16v0.16h0.16v0.16h-0.16v0.16h-0.14v0.16v0.16v0.16h0.16v0.16h-0.16v0.16v0.16l0.16,0.16l0.16,0.16l0.16,0.16v0.16l0.3,0.16
	l0.16,0.16l0.16,0.16l0.16,0.3l0.16,0.16l0.3,0.3l0.16,0.16l0.16,0.16v0.16h0.16l0.16,0.16v0.16l0.16,0.16l0.16,0.16l0.16,0.3
	l0.16,0.16v0.16h0.16v0.16l0.16,0.16v0.16l0.16,0.16l0.16,0.3v0.16l0.16,0.16v0.16l0.02-0.04l0.16,0.3v0.16l0.16,0.16v0.16v0.16
	L19,67.34v0.16l0.16,0.16v0.16l0.16,0.3l0.16,0.46v0.16l0.16,0.46v0.16v0.3h0.16v0.16v0.3v0.16v0.16h-0.2v0.16v0.16v0.16v0.16h-0.16
	v0.16v0.16v0.16v0.16h-0.14v0.16v0.16v0.16h-0.16v0.16v0.16h-0.16v0.16v0.16v0.16h-0.14v0.16v0.16l-0.16,0.16l-0.3,0.3v0.16h-0.16
	v0.16h-0.16l-0.14-0.02l-0.16,0.16h-0.16l-0.16,0.16h-0.14h-0.16L17,74.48h-0.14H16.7v-0.16h-0.14v-0.16v-0.16H16.4l-0.16-0.16
	v-0.16h-0.14h-0.16h-0.16l-0.16,0.16h-0.14h-0.16H15.2l-0.16,0.16h-0.16v0.16h-0.14v0.16v0.16l0.16,0.16v0.16l-0.16,0.16l-0.16,0.16
	h-0.16h-0.14h-0.16h-0.16h-0.14h-0.16h-0.16v0.16h-0.14v0.16h0.16v0.16v0.16v0.16v0.16v0.16h-0.16v0.16h-0.16h-0.16v0.16v0.16v0.16
	h-0.14v0.16h0.16v0.16v0.16h0.16v0.16v0.16v0.16v0.16v0.16h-0.18v0.16v0.16L12.9,78.6v0.16v0.16h0.16v0.16h0.16l0.16,0.16v0.16h0.16
	v0.16h-0.16v0.16h-0.16v0.16v0.16h0.16v0.16h-0.16v0.16h0.16h0.16l0.16,0.16h0.16v0.16l0.16-0.16v-0.16h0.16h0.16v-0.16h0.16v0.16
	h0.16v0.16v0.16h0.16V80.5h0.16v0.16h0.16h-0.24v0.16v-0.16l-0.16,0.16h-0.14v0.16h-0.16v0.16h-0.14h-0.16l-0.16-0.16l-0.16,0.16
	h-0.14l-0.16,0.16l0.16,0.16v0.16v0.16h-0.16v0.16v0.16h0.16v0.16v0.16v0.16h0.16V82.4v-0.16h0.14l0.16-0.16v-0.2h0.16h0.16v0.16
	h0.16h0.16v-0.16h0.16l0.16,0.16v0.16l0.16,0.16l0.16,0.16v0.16v0.16v0.16v0.16l-0.16,0.16v0.16h-0.2h-0.16v0.16h-0.14v0.16h-0.16
	h-0.16h-0.14v0.16v0.16v0.16l0.16,0.16h0.16h0.16l0.3-0.16l0.16-0.16h0.16h0.16v0.16h0.16l0.16,0.16l0.46-0.3h0.16l0.3-0.16v0.16
	l0.16-0.16h0.16v0.16l0.46-0.16h0.16v-0.16h0.16v-0.16l0.16-0.16l0.16-0.16h0.16l0.46-0.16h0.3h0.16h0.3l0.16,0.16h0.16h0.16
	l0.16,0.16l0.3,0.16h0.04v0.16l0.16,0.16l0.16,0.3l0.16,0.16v0.16v0.16h0.16v0.16v0.16v0.16h-0.18v0.16v0.16v0.16h0.16v0.16V86
	h-0.16l-0.3-0.16V86l-0.16-0.02v0.16h-0.16H20.2h-0.32v0.16v0.16v0.16h0.16l0.16,0.16h0.16v0.16v0.16l0.16,0.16h0.16v0.16l0.16,0.16
	L21,87.72h-0.2v0.3h0.16v0.16h0.16v-0.16h0.16h0.16v-0.16h0.16h0.16h0.16l0.16,0.16h0.16l0.16,0.16l0.16,0.16h0.16v0.16v0.16v0.16
	h0.16l0.16-0.16h0.06v-0.24h0.16h0.16h0.16l0.16,0.16l0.16,0.16v0.16h0.16v0.16h0.16h0.16v-0.16v-0.16v-0.16h-0.2v-0.16v-0.16
	l0.16-0.16h-0.16h0.16v-0.16v-0.16v-0.16v-0.16h0.16v-0.16v-0.16h0.16v-0.16h-0.18v-0.16v-0.16v-0.16v-0.08H24.3v-0.16v-0.16v-0.16
	v-0.12v-0.16v-0.16h0.16v-0.16h0.16v-0.16h0.16v-0.16h0.16v-0.16h-0.18H24.6v-0.16v-0.16h0.16v-0.16l0.16-0.16l0.16-0.16h0.3
	l0.16-0.16h0.16l0.16-0.16H26l0.3-0.16h0.3l0.16-0.16v-0.16v-0.16v-0.16v-0.16v-0.16v-0.16h-0.18v-0.16V82.2h-0.16h0.16v-0.16v-0.16
	h0.16v0v-0.16h-0.16v-0.16v-0.16v-0.12h-0.16v-0.16h-0.16v-0.16h0.16v-0.16h-0.16v-0.16h-0.14V80.5v0.16l0.16-0.16h-0.16v-0.16
	h-0.16v-0.16h0.16v-0.16v-0.16h0.16v-0.16h-0.16v-0.16h0.16v-0.16h0.16h-0.18h-0.14h0.16v-0.08h0.16h0.16v-0.16h-0.18h0.16V79h-0.16
	v-0.16h0.16l0.16-0.16v-0.16v0.16v-0.16h0.16v-0.16V78.2v-0.16h-0.16v-0.16v-0.16h-0.16v-0.16v-0.16v-0.08h0.16v-0.16h0.16h0.16
	v-0.16h-0.16h0.16h0.16h0.16v-0.16h0.16l0.16-0.16v-0.16v-0.16v-0.16v-0.16h0.16v-0.16L28,75.75v-0.16v-0.16v-0.16h0.16v-0.16h0.16
	h0.16v-0.16V74.8v-0.04V74.6h0.16v-0.16h0.16l-0.16-0.16h-0.16v-0.16v-0.16v-0.16v-0.16l0.16-0.16v-0.16h0.16v-0.16h0.16l0.3-0.16
	h0.16v-0.16l-0.16-0.16h-0.3l-0.16-0.3l-0.16-0.16v-0.06v-0.16v-0.16v-0.16l0.16-0.16V71.4v-0.16v-0.16h0.16l0.16-0.16h0.16v-0.16
	h0.16h0.16v-0.16h0.16v0.16l0.16-0.16h0.16v-0.16l0.16-0.16v-0.08v-0.16h0.16v-0.16h0.16v-0.16h0.16h0.16h0.16h0.16h0.16h0.16
	l0.16-0.16h0.16v-0.16h0.16h-0.38v-0.16V69.1h0.16v-0.16h0.16v-0.16l0.16-0.16h0.16v-0.16h0.16v-0.16v-0.08l0.46-0.3v-0.16v-0.3
	l0.16-1.21l0.16-0.16v-0.3v-0.16l0.16-0.16v-0.16v-0.16v-0.16l0.16-0.16v-0.16v-0.16v-0.16v-0.16v-0.16l0.16-0.16h0.16v-0.16h0.16
	l-0.16-0.3V63.3v-0.16v-0.16l0.16-0.3v-0.16l0.3-0.16l0.16-0.16v-0.16v-0.3h-0.24V61.7v-0.16v-0.16l0.16-0.16h0.16l0.16-0.16v-0.16
	l0.16-0.16l0.16-0.16v-0.16v-0.16v-0.16v-0.16V59.8v-0.16l-0.16-0.3v-0.16v-0.06h0.16v-0.16v-0.16v-0.16V58.5v-0.16h0.16v-0.16
	v-0.16v-0.16h-0.16V57.7v-0.16l0.16-0.16v-0.16v-0.08v-0.16v-0.16v-0.16h0.16v-0.12h0.16h0.16V56.4h0.16v-0.16h0.16v-0.16v-0.16
	h0.16v-0.16l0.16-0.16v-0.16l-0.16-0.16H35.9h-0.16h-0.16v-0.16h-0.16v-0.16v-0.16l-0.16-0.16v-0.08h0.16v-0.16v-0.16V54.1v-0.16
	v-0.16v-0.16l-0.16-0.16l-0.16-0.16v-0.16l-0.16-0.16h-0.16v-0.16h-0.16l-0.16-0.16h-0.16l-0.16-0.08H34h-0.16v-0.16h-0.16h-0.16
	l-0.16,0.16l-0.16-0.16v-0.16l0.16-0.16h0.16V52h0.16h0.16v-0.16H34v-0.16l0.16-0.16v-0.16v-0.16v-0.16h0.16l0.16-0.16v-0.16h0.16
	v-0.16h0.16h0.16h0.16v-0.16h0.16v-0.16V50.1v-0.08l0.16-0.16v-0.16v-0.16h0.16v-0.16l0.16-0.16h0.16h0.16h0.16h0.16h0.16h0.16
	l0.3-0.16h0.3l0.3-0.16h0.16h0.16h0.16l0.16,0.16h0.16h0.16h0.16h0.16H39l0.16-0.16l0.3,0.16h0.3h0.16h0.16h0.16l0.16-0.16h0.16
	h0.16h0.16h0.16h0.16h0.16h0.16h0.16v-0.16h0.16l0.16,0.16h0.16l0.16,0.16l0.16,0.16l0.16,0.16h0.16h0.16h0.16h0.16h0.16v0.16h0.16
	l0.16,0.16h0.16v-0.16v-0.16h0.16l0.16-0.16l0.16-0.16h0.3h0.16v-0.16h0.16v-0.16H44.8V48.6v-0.16h-0.16v-0.16h-0.16v-0.16h-0.16
	l-0.16-0.16v0.16l-0.16-0.16h-0.16h-0.16h-0.44H43.1v0.16h-0.16h-0.16h-0.16h-0.16v-0.08h-0.16v-0.16v-0.16l-0.16-0.16v-0.12h0.16
	h-0.16v-0.16h0.16v-0.16v-0.16h-0.16v-0.16l-0.16-0.16l0.16-0.16v-0.3l0.16-0.16v-0.16l0.16-0.16l0.16-0.16h0.16h0.16l0.16-0.1h0.16
	h0.16v-0.16h0.16h0.16h0.16l0.16-0.16l0.16,0.16h0.16v0.16h0.16h0.16v0.16h0.16H45v0.16h0.16v0.16h0.16h0.16v0.16h-0.24v0.16v0.16
	h0.16v-0.16h0.16v-0.16h0.16v-0.16l0.16,0.16h0.16l0.16,0.16l0.46,0.3h0.16l0.16,0.16l0.16,0.16h0.16v0.16h0.16h0.16h0.16v-0.16
	l0.16-0.16v-0.16V46.4h0.16v-0.16v-0.16h0.16l0.3-0.16h0.16v0.16h0.16v-0.16H49v0.16h0.16v0.16h0.16h0.16h0.16h0.16v-0.16h0.16v0.16
	v0.16h0.16v0.16h0.16v0.16l0.16,0.16v0.16l0.16,0.3l-0.04,0.12v0.16l0.16,0.16v0.16h0.16v0.16h0.16h0.16h0.16h0.16h0.16v0.16h0.16
	l0.16,0.16v-0.16h0.16l0.24,0.12h0.16h-0.16H52.2V48.2h0.16l-0.16-0.16l0.16-0.14h0.16v-0.16v-0.16v-0.14v-0.16v-0.16l0.16-0.16
	h0.16h0.16v-0.16l0.16-0.16V46.5h0.16h0.16v-0.16h0.16v-0.16h0.16l0.3-0.16l0.26-0.1h0.16l0.16-0.16l0.3-0.16h0.16v-0.14h0.16
	l0.16,0.16h0.16h0.16l0.16,0.16l0.16,0.16v0.16v0.16h0.16h0.1h0.16h0.16l0.16,0.16v0.16v0.16h0.16v0.16v0.16h0.16l0.16,0.16h0.16
	v0.16v0.08l0.16,0.16v0.16h0.16h0.16l0.16,0.16h0.16l0.16,0.16v0.16l0.16,0.16l0.16,0.16v0.16l0.16,0.16v0.16h0.16h0.16v0.16h0.16
	h0.16h0.16v0.16h0.16l1.82-0.16h0.61h0.3h0.3l0.16,0.16h0.16v0.16l0.16-0.16v0.16h0.16h0.16h0.16h0.16v-0.16h0.16v-0.16h0.16v-0.16
	h0.16h0.16l0.16-0.16h0.16v-0.16l0.16-0.16V48.4h0.16h0.16h0.16l0.16,0.16V48.4v0.16V48.4v0.16h0.16V48.4L66,48.56h-0.16H66v0.16
	h0.16v0.16v-0.16v0.16h0.16v0.16h0.16v0.16v0.16h0.16h0.16v0.16v0.16h0.16v0.16v-0.16h0.16v0.16h0.16l0.61-0.16h0.3v-0.16h0.3
	l0.16-0.16l0.3,0.16h0.16h0.16h0.16l0.16-0.16v-0.16H69.4l0.16-0.16v-0.16l0.16-0.16l0.16-0.16l0.16-0.16v-0.16h0.16v-0.2v-0.16
	l0.3-0.16h0.16v0.16h0.16h0.16v-0.16h0.16h0.16h0.16h0.16h0.3h0.16h0.16v-0.16v-0.12h0.16v-0.16h0.16l0.16-0.16v-0.16v-0.16v-0.16
	V46.5l0.16-0.46L73,46.21h0.16h0.16v0.16h0.16v0.16h0.16h0.16h0.16h0.16h0.16l0.16-0.16h0.16v0.16h0.16h0.16h0.16v-0.16h0.16
	l0.16-0.16v0.16l0.16-0.16h0.16l0.16-0.16h0.16v-0.16l0.61-0.3l-0.44-0.12h0.16h0.16l0.16-0.16l0.16-0.16V45v-0.16l0.16-0.16v-0.3
	v-0.3l0.16-0.16v-0.16l0.12-0.28l0.16-0.16v-0.16l0.16-0.3l0.3-0.3l0.16-0.16v-0.16v-0.16v-0.16l-0.16-0.3l-0.16-0.3l-0.16-0.16
	l-0.16-0.3h-0.16v-0.16v-0.16v-0.16h0.16l0.16-0.16h0.16h0.16h0.16h0.16h0.16l0.16,0.16h0.16h0.16h0.16h0.16v-0.16v0.16h0.16h0.16
	h0.16h0.16h0.16v-0.16h0.16h0.16h0.16v-0.16h0.16h0.16h0.16v-0.16h0.16v-0.16h0.16h0.16v-0.16v0.16v-0.16h0.16v-0.16h0.16l0.3-0.46
	h0.16v-0.08l0.16-0.3h0.16v-0.16h0.16h0.16l0.16-0.16l0.16-0.16h0.16h0.16v-0.16v0.16h0.16l0.16,0.16l0.16,0.16h0.16v-0.14h0.16
	h0.16v0.16h0.16v0.16v0.16v0.16v0.16h0.16l0.16-0.16h0.16h0.16h0.16h0.16h0.16l0.16,0.16h0.16h0.16h0.16h0.16h0.16h0.16h0.16h0.16
	h0.16h0.16l0.16,0.16h0.16h0.16v-0.16h0.16l0.16-0.16v-0.16l0.16-0.16v-0.16h0.16h0.16l0.3-0.16h0.16h0.16v-0.16l0.16-0.16
	l0.16-0.16l0.16-0.16l0.16-0.16V37.4l0.16-0.16v-0.16l-0.16-0.16v-0.16v-0.16l-0.16-0.16v-0.08h-0.16v-0.16l-0.16-0.16V35.9
	l-0.16-0.3v-0.16v-0.16v-0.16v-0.16v-0.16v-0.16v-0.16v-0.1l-0.16-0.16h-0.16h-0.16l-0.16-0.16h-0.16l-0.16-0.16l-0.16-0.16V33.6
	l-0.16-0.16v-0.16H87.8v-0.16h-0.16v-0.16l-0.3-0.3l-0.16-0.16v-0.16l-0.16-0.16v-0.16h-0.16v-0.16v-0.06v-0.16V31.5v-0.16v-0.3
	v-0.16v-0.16l-0.16-0.16v-0.16l-0.16-0.16H86.4h-0.16l-0.16-0.16h-0.16v-0.16h-0.16l-0.16-0.16v-0.16h-0.16v-0.16v-0.22l-0.16-0.16
	v-0.16v-0.16v-0.16h-0.16v-0.16h-0.16V28.3h-0.16h-0.16h-0.44h-0.16l-0.16-0.16h-0.16v-0.16l-0.16-0.16l-0.16-0.16l-0.16-0.16
	l-0.16-0.16l-0.16-0.16H82.8l-0.16-0.3h-0.16v-0.16h-0.16h-0.16H82h-0.16v-0.16h-0.16v-0.16h-0.04v-0.16V26.1l-0.16-0.16v-0.16
	h-0.16v-0.16l-0.16-0.16h-0.3v-0.16h-0.16v0.16h-0.16H80.4h-0.16v-0.16h-0.16v-0.02h-0.16h-0.16l-0.3,0.16h-0.16h-0.16h-0.08h-0.16
	l-0.16-0.16l-0.16-0.16h-0.16h-0.16h-0.16v-0.16v-0.16l-0.16-0.16V24.5h-0.16l-0.16-0.16l-0.16-0.16v-0.16v-0.3l-0.16-0.16v-0.16
	l-0.16-0.16H77.1h-0.16h-0.16h-0.16l-0.16,0.16l-0.16,0.16h-0.16h-0.16l-0.16-0.16h-0.16v-0.16v-0.16l0.16-0.16v-0.16l-0.16-0.16
	h-0.16v-0.16h-0.16V22.3l-0.16-0.16v-0.3v-0.16v-0.16v-0.16v-0.16l-0.16-0.16V20.9v-0.16v0v-0.16v-0.16v-0.16v-0.12h-0.16v-0.16
	v-0.16l-0.16-0.16v-0.14l-0.16-0.16h-0.04h-0.16h-0.16v-0.14v-0.16h0.16h-0.16l0.16-0.16v-0.14l-0.16-0.16h-0.16h-0.16v-0.16h-0.16
	h-0.16v-0.3v-0.16h-0.16v-0.14h-0.16v-0.32v-0.14l-0.16-0.16V17.1l-0.16-0.16V16.8h-0.16l-0.16-0.16h-0.08h-0.16h-0.46h-0.16h-0.16
	h-0.16l-0.16-0.16l-0.16-0.16l-0.12-0.14l-0.16-0.3l-0.16-0.16v-0.14h-0.14h-0.16h-0.16h-0.16h-0.12l-0.16-0.16h-0.16v-0.16v-0.14
	H69.5v-0.16h-0.16h-0.16v0.16h-0.16v0.16v0.16v0.14v0.16h-0.16h-0.16v0.16h-0.16h-0.16h-0.16h-0.16h-0.08l-0.16,0.16l-0.14,0.12
	l-0.46,0.46h-0.16h-0.16h-0.16h-0.16h-0.16h-0.16h-0.16h-0.12V16.5l-0.16-0.16l-0.14-0.16h-0.16l-0.14-0.14v-0.16l-0.16-0.16v-0.3
	v-0.16v-0.14H65.1h-0.3h-0.16v-0.16h-0.16v-0.16v-0.14h-0.16l-0.16-0.16h-0.16l-0.16,0.16H63.7v-0.16h-0.16v-0.16v-0.14h0.16v-0.16
	v-0.16v-0.14l-0.16-0.3v-0.16L63.44,13l-0.16-0.16V12.7l-0.16-0.16v-0.14l-0.91-0.61h-0.16H61.9h-0.16v0.16h-0.16l-0.3-0.16
	l-0.16,0.16l-0.16,0.16h-0.1l-0.3,0.16h-0.16h-0.3v0.16h-0.16H59.8h-0.16h-0.16h-0.16l-0.16,0.16h-0.16h-0.12v-0.18l-0.46-0.3h-0.16
	v-0.16h-0.16v-0.16l-0.14-0.16l-0.16-0.3h-0.16v-0.16h0.16h-0.16v-0.14h0.16h-0.16l-0.16-0.16v-0.16h-0.16v-0.14h-0.16h0.16v-0.16
	h-0.16h-0.16v-0.16v0.16l-0.12-0.16v-0.14v0.16h-0.16v-0.16H56.6h0.16H56.6V9.97h-0.16l-0.12-0.16h-0.16V9.68L56,9.52V9.36h-0.16
	V9.22l-0.16,0.16V9.22h-0.16h-0.16l-0.12-0.16h-0.16V8.9h-0.16h-0.16V8.77h-0.16V8.61V8.45h-0.16v0.16V8.45h-0.12V8.31v0.16
	l-0.16-0.16h-0.16V8.15V7.99V7.86h-0.16h0.16h-0.16V7.7h-0.16V7.54V7.4l-0.16-0.16h-0.16V7.08l-0.16,0.16V7.08h-0.16h-0.16h-0.16
	V6.94h0.16h-0.16V6.79H52.6V6.63h0.16H52.6V6.49h-0.16V6.33v0.16h-0.08L52.2,6.33V6.17h0.16V6.03V5.88H52.2h0.16V5.72H52.2h-0.16
	V5.58h-0.16V5.42V5.26h-0.12V5.12h-0.16V4.97V4.81h-0.16V4.67V4.51h-0.16h-0.16V4.35h0.16h-0.16V4.21h0.16h-0.16v0.16V4.21h-0.16
	v0.16V4.21h-0.16V4.06h-0.16H50.5V3.9V3.76V3.6V3.44h-0.16h-0.16h0.16l-0.16-0.16v0.16V3.3V3.15V2.99h-0.16V2.85l-0.16,0.16V2.85
	V2.69h-0.08v0.16h-0.16h-0.16h-0.16v0.16h-0.16V2.85H49h-0.16v0.16h-0.16h-0.16V2.69h-0.16h-0.16l-0.1-0.16h-0.16h-0.14v0.16h-0.16
	V2.53h-0.16h-0.16h-0.16l-0.16-0.16h-0.16V2.24H46.7h-0.16h-0.16h-0.16V2.08h-0.16h-0.16h-0.08h-0.16h-0.16V1.94h-0.16V1.78h-0.12
	l-0.16-0.16h-0.3h-0.16l-0.16-0.16h-0.3h-0.61L43.4,1.3h-0.14L43.1,1.15h-0.16V1.03l-0.16-0.16l-0.16-0.16h-0.16V0.57h-0.16h-0.16
	l-0.3-0.16l-0.3-0.16H41.4l-0.12-0.14h-0.16h-0.3h-0.14l-0.16-0.16h-0.16H39.91z"/>
</svg>
