<?xml version="1.0" encoding="utf-8"?>
<!-- Generator: Adobe Illustrator 24.2.1, SVG Export Plug-In . SVG Version: 6.00 Build 0)  -->
<svg version="1.1" id="Layer_1" xmlns="http://www.w3.org/2000/svg" xmlns:xlink="http://www.w3.org/1999/xlink" x="0px" y="0px"
	 viewBox="0 0 97.23 97.23" style="enable-background:new 0 0 97.23 97.23;" xml:space="preserve">
<style type="text/css">
	.st0{fill-rule:evenodd;clip-rule:evenodd;}
</style>
<polygon class="st0" points="78.45,16.32 78.6,16.48 78.6,16.64 78.76,16.64 78.76,16.95 78.76,17.11 78.92,17.11 79.07,17.27 
	79.23,17.27 79.39,17.27 79.55,17.11 79.7,17.11 80.02,17.11 80.17,17.11 80.33,17.11 80.49,17.27 80.8,17.27 80.96,17.27 
	81.27,17.27 81.43,17.27 81.59,17.27 81.9,17.27 82.06,17.27 82.21,17.42 82.37,17.58 82.37,17.74 82.37,17.89 82.37,18.21 
	82.37,18.36 82.37,18.52 82.37,18.68 82.53,18.84 82.53,18.99 82.53,19.15 82.53,19.31 82.37,19.31 82.21,19.31 82.21,19.46 
	82.21,19.62 82.06,19.62 82.06,19.78 82.06,19.93 82.06,20.09 82.21,20.25 82.37,20.41 82.37,20.56 82.53,20.88 82.53,21.03 
	82.53,21.19 82.53,21.35 82.53,21.66 82.68,21.97 82.68,22.13 82.84,22.45 83,22.6 83,22.76 83,22.92 83,23.07 83,23.23 
	82.84,23.54 82.84,23.86 83,23.86 82.84,24.01 82.84,24.17 82.84,24.33 83,24.49 83,24.8 83,24.96 83,25.11 83,25.43 83.16,25.58 
	83.16,25.74 83.16,25.9 83.16,26.21 83.16,26.37 83.31,26.84 83.31,27.15 83.31,27.31 83.31,27.63 83.31,27.78 83.47,27.94 
	83.47,28.1 83.47,28.25 83.63,28.41 83.78,28.41 83.94,28.57 84.1,28.57 84.41,28.72 84.57,28.72 84.88,28.88 85.04,28.88 
	85.2,29.04 85.51,29.19 85.82,29.19 86.29,29.51 86.61,29.67 86.77,29.67 86.92,29.82 87.08,29.82 87.08,29.98 87.08,30.14 
	87.24,30.29 87.39,30.45 87.39,30.61 87.55,30.92 87.55,31.08 87.71,31.24 87.86,31.24 87.86,31.39 88.02,31.39 88.18,31.39 
	88.34,31.39 88.65,31.55 88.81,31.55 88.96,31.55 89.12,31.55 89.28,31.55 89.43,31.55 89.43,31.39 89.59,31.39 89.59,31.24 
	89.75,31.24 89.75,31.08 89.91,31.08 90.06,31.08 90.06,30.92 90.06,30.76 90.22,30.76 90.38,30.76 90.53,30.76 90.69,30.76 
	90.69,30.92 90.85,30.76 91,30.61 91.16,30.61 91.16,30.76 91.32,30.76 91.48,30.76 91.48,30.61 91.63,30.61 91.79,30.61 
	91.79,30.45 91.63,30.45 91.79,30.45 91.79,30.29 91.79,30.14 91.95,30.14 91.95,29.98 92.1,29.98 92.1,30.14 91.95,30.14 
	92.1,30.14 92.1,30.29 92.1,30.45 92.26,30.45 92.42,30.45 92.57,30.45 92.57,30.29 92.73,30.45 92.73,30.61 92.57,30.76 
	92.57,30.92 92.57,31.08 92.42,31.24 92.42,31.39 92.42,31.55 92.42,31.71 92.42,31.86 92.26,31.86 92.26,32.02 92.26,32.18 
	92.26,32.65 92.26,32.96 92.26,33.12 92.26,33.43 92.42,33.59 92.57,33.75 93.2,34.06 93.36,34.22 93.52,34.22 93.52,34.37 
	93.67,34.53 93.67,34.69 93.83,34.85 93.83,35 93.83,35.16 93.99,35.47 94.14,35.63 94.3,35.94 94.3,36.26 94.46,36.42 94.46,36.57 
	94.46,36.73 94.46,37.04 94.46,37.2 94.46,37.67 94.46,37.83 94.3,37.98 94.14,38.14 93.99,38.3 93.83,38.46 93.67,38.61 
	93.52,38.93 93.36,39.24 93.2,39.4 93.04,39.4 93.04,39.71 92.89,39.87 92.73,40.03 92.57,40.18 92.42,40.5 92.26,40.65 
	92.26,40.81 92.1,40.97 92.1,41.12 91.95,41.28 91.95,41.44 91.95,41.6 91.79,41.75 91.79,41.91 91.63,41.91 91.48,42.22 
	91.48,42.38 91.32,42.54 91.32,42.69 91.16,42.85 91.16,43.01 91,43.48 90.85,43.64 90.85,44.42 90.85,44.73 90.85,45.05 
	90.85,45.36 91,45.68 91,45.83 91,46.15 91,46.46 90.85,46.62 90.85,46.77 90.69,47.09 90.53,47.25 90.53,47.4 90.38,47.72 
	90.22,47.87 90.22,48.03 90.22,48.19 90.06,48.34 90.06,48.66 90.06,48.82 89.91,48.97 89.91,49.13 90.06,49.29 90.22,49.6 
	90.38,49.76 90.53,49.91 90.69,50.07 90.85,50.07 90.85,50.23 91,50.23 91,50.39 91,50.54 91,50.7 91,50.86 91.16,51.01 
	91.16,51.17 91.32,51.48 91.32,51.64 91.32,51.8 91.48,51.95 91.48,52.11 91.63,52.27 91.79,52.27 91.79,52.43 91.79,52.58 
	91.95,52.58 91.95,52.74 91.95,52.9 91.95,53.05 92.1,53.05 92.1,53.21 92.26,53.21 92.42,53.21 92.57,53.21 92.57,53.37 
	92.73,53.52 92.73,53.68 92.73,53.84 92.73,54 92.73,53.84 92.73,54 92.73,54.15 92.57,54.15 92.57,54.31 92.73,54.31 92.57,54.31 
	92.73,54.31 92.73,54.47 92.89,54.47 92.89,54.62 93.04,54.78 93.04,54.94 93.2,54.94 93.2,54.78 93.2,54.94 93.2,55.09 
	92.89,55.25 92.73,55.56 92.57,55.72 92.26,56.35 91.95,56.66 91.79,56.82 91.63,56.98 91.63,57.13 91.48,57.13 91.48,57.29 
	91.63,57.29 91.79,57.29 91.79,57.45 91.79,57.29 91.95,57.29 92.1,57.29 92.1,57.45 92.26,57.45 92.26,57.61 92.26,57.76 
	92.26,57.92 92.26,58.08 92.26,58.23 92.26,58.39 92.1,58.39 92.1,58.55 92.1,58.7 92.26,58.7 92.42,58.7 92.73,58.39 92.89,58.39 
	92.89,58.23 93.04,58.23 93.2,58.23 93.2,58.39 93.2,58.55 93.36,58.55 93.36,58.7 93.2,58.86 93.2,59.02 93.04,59.02 93.04,59.18 
	93.2,59.18 93.36,59.18 93.52,59.18 93.52,59.02 93.67,59.02 93.83,58.86 93.99,58.86 93.99,59.02 93.83,59.33 93.83,59.49 
	93.67,59.65 93.67,59.8 93.83,59.96 93.83,60.12 93.83,60.27 93.67,60.27 93.67,60.43 93.52,60.59 93.36,60.59 93.67,61.22 
	93.83,61.37 93.83,61.53 93.83,61.69 93.99,61.69 93.99,61.84 93.99,62 94.14,62.31 94.14,62.47 94.3,62.63 94.46,62.94 
	94.61,63.41 94.77,63.57 94.93,63.73 95.09,63.88 95.24,63.88 95.24,64.04 95.4,64.2 95.4,64.35 95.56,64.51 95.56,64.67 
	95.56,64.83 95.4,64.98 95.4,65.14 95.24,65.3 95.09,65.45 94.93,65.45 94.77,65.61 94.61,65.61 94.46,65.77 94.3,65.77 
	94.14,65.92 93.99,65.92 93.99,66.08 93.83,66.24 93.67,66.39 93.52,66.55 93.52,66.87 93.52,67.02 93.52,67.18 93.67,67.34 
	93.67,67.49 93.67,67.65 93.67,67.81 93.67,67.96 93.52,68.12 93.52,68.44 93.52,68.59 93.52,68.91 93.36,68.91 93.36,69.06 
	93.2,69.22 93.2,69.53 93.04,69.69 93.04,69.85 92.89,70.01 92.73,70.16 92.57,70.32 92.42,70.48 92.26,70.63 92.1,70.79 
	92.1,70.95 91.95,70.95 91.95,71.1 91.95,71.26 91.79,71.42 91.79,71.57 91.63,71.73 91.48,71.89 91.32,72.05 91.16,72.2 91,72.36 
	90.85,72.52 90.69,72.67 90.38,72.83 90.22,72.99 90.06,72.99 89.91,73.14 89.91,73.3 89.59,73.46 89.59,73.62 89.43,73.77 
	89.28,73.93 89.12,73.93 88.96,74.24 88.65,74.4 88.65,74.56 88.49,74.71 88.34,74.71 88.34,74.87 88.18,75.03 88.02,75.34 
	87.86,75.5 87.71,75.66 87.55,75.81 87.55,75.97 87.39,76.13 87.39,76.28 87.08,76.6 86.92,76.6 86.77,76.75 86.61,76.91 
	86.45,77.07 86.29,77.23 86.29,77.38 86.14,77.54 86.14,77.7 85.98,77.85 85.98,78.01 85.98,78.32 85.82,78.48 85.82,78.79 
	85.67,78.79 85.35,78.95 85.2,78.95 85.04,79.11 84.88,79.11 84.57,79.27 84.41,79.27 84.25,79.27 84.1,79.27 83.94,79.27 
	83.78,79.27 83.47,79.11 83.31,79.11 83,79.11 82.84,78.95 82.68,78.95 82.53,78.95 82.21,78.95 82.06,78.95 81.9,79.11 
	81.74,79.11 81.59,79.11 81.43,79.27 81.12,79.42 80.96,79.58 80.8,79.58 80.64,79.74 80.49,79.74 80.33,79.89 80.17,80.05 
	80.02,80.05 79.86,80.21 79.86,80.36 79.7,80.36 79.55,80.52 79.55,80.68 79.39,80.84 79.23,80.99 79.07,80.99 78.92,81.15 
	78.92,81.31 78.76,81.46 78.6,81.46 78.45,81.62 78.29,81.78 78.13,81.93 77.98,82.09 77.82,82.09 77.82,82.25 77.66,82.41 
	77.66,82.56 77.66,82.72 77.66,82.88 77.66,83.03 77.66,83.19 77.82,83.35 77.82,83.5 77.98,83.5 77.98,83.66 78.13,83.66 
	77.98,83.82 77.98,83.98 77.98,84.13 78.13,84.13 78.13,84.29 78.13,84.6 78.13,85.07 78.13,85.23 78.13,85.39 77.98,85.54 
	77.66,85.7 77.5,86.02 77.03,86.49 76.72,86.8 76.56,86.96 76.41,87.11 76.41,87.27 76.41,87.43 76.41,87.74 76.25,87.9 
	76.25,88.06 76.25,88.21 76.09,88.21 75.94,88.37 75.78,88.53 75.62,88.53 75.15,88.68 74.84,88.84 74.68,89 74.52,89.15 
	74.52,89.31 74.52,89.47 74.52,89.78 74.37,89.94 74.37,90.1 74.52,90.41 74.52,90.57 74.52,90.72 74.52,90.88 74.37,90.88 
	74.37,91.04 74.21,90.88 74.05,90.88 73.89,91.04 73.74,91.04 73.74,90.88 73.58,90.88 73.27,90.72 73.11,90.72 73.11,90.57 
	72.95,90.57 72.95,90.41 72.8,90.41 72.64,90.41 72.48,90.41 72.48,90.57 72.32,90.72 72.01,90.72 71.85,90.88 71.7,90.88 
	71.54,90.88 71.38,90.88 71.38,91.04 71.23,91.04 71.23,91.2 71.23,91.51 71.23,91.67 71.23,91.82 71.38,92.14 71.54,92.14 
	71.54,92.29 71.54,92.45 71.54,92.77 71.38,92.92 71.38,93.08 71.23,93.08 71.07,93.24 70.91,93.24 70.75,93.39 70.6,93.39 
	70.44,93.55 70.44,93.71 70.28,93.86 70.13,94.02 69.97,94.18 69.97,94.33 69.81,94.33 69.66,94.49 69.66,94.65 69.5,94.81 
	69.5,94.96 69.34,94.96 69.34,95.12 69.34,95.28 69.34,95.43 69.19,95.75 69.19,95.9 69.19,96.06 69.19,96.22 69.03,96.22 
	69.03,96.38 68.87,96.53 68.87,96.69 68.87,96.85 68.71,96.85 68.56,96.85 68.56,96.69 68.4,96.69 68.4,96.53 68.24,96.38 
	68.24,96.22 68.09,96.22 67.93,96.06 67.77,96.06 67.77,95.9 67.77,95.75 67.62,95.59 67.46,95.59 67.3,95.43 67.14,95.43 
	66.99,95.43 66.83,95.43 66.67,95.43 66.52,95.43 66.36,95.28 66.2,94.96 66.05,94.96 66.05,94.81 65.89,94.81 65.73,94.81 
	65.73,94.96 65.58,95.12 65.42,95.12 65.26,95.12 65.1,95.12 64.95,95.12 64.79,95.12 64.63,95.12 64.63,95.28 64.48,95.28 
	64.48,95.43 64.32,95.43 64.16,95.43 64.01,95.43 63.85,95.59 63.69,95.59 63.69,95.75 63.53,95.9 63.53,96.06 63.38,96.06 
	63.38,96.22 63.22,96.22 63.06,96.22 62.91,96.22 62.91,96.38 62.75,96.38 62.59,96.38 62.59,96.53 62.44,96.53 62.28,96.53 
	62.12,96.53 61.97,96.69 61.81,96.69 61.65,96.85 61.49,96.85 61.34,96.85 61.34,96.69 60.55,96.06 60.4,96.06 60.24,96.06 
	59.61,95.75 59.45,95.75 59.45,95.59 59.3,95.59 59.14,95.59 58.98,95.59 58.98,95.43 58.83,95.43 58.67,95.43 58.51,95.28 
	58.51,95.12 58.51,94.96 58.35,94.96 58.35,94.81 58.35,94.65 58.2,94.65 58.2,94.49 58.2,94.33 58.04,94.18 57.88,94.18 
	57.73,94.18 57.57,94.18 57.57,94.02 57.41,94.02 57.41,93.86 57.26,93.86 57.26,93.71 57.26,93.55 57.1,93.55 57.1,93.39 
	57.1,93.24 56.94,93.24 56.94,93.08 56.78,93.08 56.63,93.08 56.47,93.08 56.31,93.08 56.16,93.08 56.16,93.24 56,93.24 
	55.84,93.24 55.69,93.24 55.53,93.24 55.53,93.08 55.37,93.08 55.37,93.24 55.22,93.24 55.22,93.08 55.06,93.08 55.06,93.24 
	55.06,93.08 54.9,93.08 54.9,93.24 54.9,93.08 54.74,93.08 54.74,93.24 54.59,93.24 54.59,93.08 54.43,93.08 54.43,92.92 
	54.27,92.92 54.27,92.77 54.27,92.61 54.43,92.61 54.27,92.61 54.27,92.45 54.27,92.61 54.12,92.61 54.12,92.45 53.96,92.45 
	53.8,92.45 53.8,92.61 53.8,92.45 53.65,92.45 53.65,92.61 53.65,92.45 53.49,92.45 53.33,92.45 53.17,92.45 53.02,92.45 
	53.02,92.29 52.86,92.29 52.7,92.29 52.55,92.45 52.39,92.45 52.23,92.45 52.08,92.29 52.23,92.29 52.23,92.14 52.23,92.29 
	52.23,92.14 52.39,92.14 52.23,92.14 52.23,91.98 52.23,91.82 52.08,91.82 52.23,91.82 52.23,91.67 52.08,91.67 52.08,91.51 
	51.92,91.51 51.76,91.51 51.76,91.35 51.76,91.2 51.6,91.2 51.45,91.2 51.45,91.04 51.29,91.04 51.13,91.04 51.13,90.88 
	50.98,90.88 50.98,90.72 50.98,90.88 50.82,90.88 50.82,90.72 50.66,90.72 50.51,90.72 50.66,90.72 50.51,90.72 50.35,90.72 
	50.19,90.72 50.19,90.88 50.19,91.04 50.04,91.04 50.04,91.2 50.04,91.35 49.88,91.35 49.72,91.2 49.56,91.04 49.41,91.04 
	49.41,90.88 49.56,90.88 49.56,90.72 49.41,90.72 49.25,90.72 49.09,90.72 49.09,90.88 48.94,90.88 48.78,90.72 48.62,90.72 
	48.62,90.88 48.47,90.88 48.31,90.72 48.15,90.72 48.15,90.57 47.99,90.57 47.84,90.41 47.68,90.41 47.52,90.41 47.37,90.41 
	47.21,90.57 47.05,90.57 46.9,90.72 46.58,90.72 46.43,90.88 46.27,90.88 45.95,90.88 45.8,90.88 45.64,90.88 45.48,90.88 
	45.48,91.04 45.48,91.2 45.48,91.35 45.64,91.67 45.64,91.82 45.8,91.82 45.8,91.98 45.64,91.98 45.64,92.14 45.48,92.29 
	45.33,92.29 45.33,92.45 45.33,92.61 45.33,92.77 45.17,92.77 45.01,92.77 44.86,92.77 44.7,92.77 44.54,92.92 44.38,92.92 
	44.38,92.77 44.23,92.77 44.07,92.61 43.91,92.61 43.91,92.45 43.76,92.45 43.6,92.45 43.44,92.45 43.29,92.45 43.13,92.45 
	42.97,92.45 42.81,92.61 42.81,92.77 42.66,92.77 42.5,92.61 42.34,92.61 42.19,92.45 42.03,92.45 42.03,92.29 41.87,92.14 
	41.87,91.98 41.72,91.98 41.56,91.98 41.4,92.14 41.25,92.14 41.25,91.98 41.25,91.82 41.25,91.67 41.09,91.51 40.93,91.51 
	40.93,91.35 40.93,91.2 40.77,91.2 40.62,91.2 40.62,91.35 40.46,91.35 40.46,91.51 40.3,91.51 40.3,91.67 40.15,91.82 39.99,91.82 
	39.83,91.82 39.68,91.82 39.52,91.82 39.36,91.98 39.2,91.98 39.2,91.82 39.05,91.82 38.89,91.82 38.73,91.82 38.58,91.82 
	38.42,91.82 38.11,91.67 37.95,91.51 37.79,91.51 37.63,91.51 37.48,91.51 37.32,91.51 37.16,91.35 37.01,91.35 36.85,91.35 
	36.69,91.51 36.54,91.51 36.38,91.51 36.22,91.51 36.06,91.51 35.91,91.35 35.75,91.35 35.75,91.2 35.59,91.2 35.44,91.2 
	35.44,91.04 35.28,91.04 35.12,90.88 34.97,90.72 34.97,90.57 34.81,90.57 34.65,90.57 34.5,90.57 34.5,90.72 34.34,90.72 
	34.18,90.72 34.18,90.88 34.02,90.88 33.87,91.04 33.71,91.04 33.55,91.2 33.4,91.35 33.24,91.51 32.93,91.67 32.77,91.67 
	32.61,91.82 32.45,91.98 32.3,91.98 32.14,91.82 32.14,91.67 31.98,91.67 31.98,91.51 31.98,91.35 32.14,91.35 32.14,91.2 
	32.14,91.04 31.98,91.04 31.98,90.88 31.83,90.88 31.83,90.72 31.67,90.72 31.67,90.57 31.51,90.57 31.51,90.41 31.36,90.41 
	31.36,90.57 31.36,90.72 31.36,90.88 31.36,91.04 31.51,91.2 31.51,91.35 31.36,91.35 31.36,91.51 31.2,91.51 31.04,91.35 
	30.89,91.35 30.89,91.2 30.73,91.2 30.57,91.35 30.57,91.51 30.57,91.67 30.57,91.82 30.57,91.98 30.73,92.14 30.73,92.29 
	30.57,92.45 30.57,92.61 30.41,92.61 30.26,92.61 30.1,92.61 29.94,92.45 29.94,92.29 29.79,92.29 29.63,92.29 29.63,92.14 
	29.47,92.14 29.32,92.14 29.32,92.29 29.32,92.45 29.32,92.61 29.16,92.77 29,92.77 29,92.61 28.84,92.61 28.69,92.61 28.69,92.77 
	28.69,92.92 28.84,92.92 29,92.92 29,93.08 29,93.39 29,93.55 29,93.71 28.84,93.71 28.69,93.71 28.69,93.55 28.69,93.39 
	28.53,93.39 28.53,93.24 28.37,93.24 28.22,93.24 28.06,93.24 27.9,93.08 27.9,92.92 27.9,92.77 27.75,92.77 27.59,92.77 
	27.43,92.61 27.28,92.61 27.28,92.45 27.28,92.29 27.28,92.14 27.28,91.98 27.12,91.98 27.12,91.82 26.96,91.82 26.8,91.98 
	26.8,92.14 26.8,92.29 26.8,92.45 26.8,92.29 26.65,92.29 26.49,92.14 26.33,91.98 26.33,91.82 26.18,91.82 26.18,91.67 
	26.02,91.67 26.02,91.51 25.86,91.51 25.71,91.51 25.55,91.51 25.55,91.35 25.39,91.35 25.23,91.35 25.08,91.2 24.92,91.2 
	24.76,91.04 24.61,91.04 24.61,90.88 24.45,90.88 24.45,90.72 24.29,90.72 24.29,90.57 24.14,90.57 23.98,90.41 23.82,90.41 
	23.66,90.25 23.66,90.1 23.66,89.94 23.51,89.94 23.35,89.94 23.19,89.78 23.19,89.63 23.04,89.63 23.04,89.47 23.04,89.31 
	23.04,89.15 22.88,89 22.72,88.84 22.72,89 22.57,89.15 22.72,89.31 22.72,89.47 22.72,89.63 22.57,89.63 22.41,89.63 22.25,89.47 
	22.09,89.47 21.94,89.47 22.09,89.31 22.25,89.31 22.41,89.15 22.41,89 22.25,89 22.09,89 21.94,89 21.94,88.84 21.78,88.84 
	21.78,88.68 21.62,88.53 21.47,88.53 21.47,88.68 21.47,88.84 21.31,88.84 21.31,89 21.31,89.15 21.31,89.31 21.31,89.47 
	21.31,89.63 21.15,89.63 21,89.63 21,89.47 20.84,89.47 20.68,89.31 20.53,89.15 20.53,89 20.37,89 20.37,88.84 20.21,88.84 
	20.21,89 20.21,89.15 20.37,89.15 20.37,89.31 20.37,89.47 20.37,89.63 20.21,89.63 20.05,89.63 20.05,89.78 20.05,89.94 
	20.05,90.1 19.9,90.25 19.74,90.25 19.74,90.41 19.58,90.41 19.43,90.41 19.43,90.25 19.27,90.25 19.11,90.25 19.11,90.1 
	19.11,89.94 18.96,89.94 18.8,89.94 18.64,89.94 18.64,89.78 18.64,89.63 18.48,89.63 18.33,89.63 18.33,89.78 18.48,89.94 
	18.48,90.1 18.48,90.25 18.48,90.41 18.33,90.41 18.17,90.41 18.01,90.57 17.86,90.57 17.7,90.57 17.54,90.72 17.39,90.72 
	17.23,90.88 17.07,91.04 17.07,91.2 16.91,91.2 16.76,91.2 16.6,91.2 16.6,91.35 16.76,91.35 16.76,91.51 16.76,91.67 16.76,91.82 
	16.6,91.82 16.44,91.82 16.44,91.98 16.29,91.98 16.29,92.14 16.13,92.14 16.13,92.29 15.97,92.29 15.82,92.29 15.66,92.29 
	15.66,92.45 15.5,92.45 15.35,92.45 15.19,92.45 15.19,92.29 15.03,92.29 14.87,92.29 14.72,92.14 14.72,91.98 14.56,91.82 
	14.56,91.98 14.4,91.98 14.25,92.14 14.09,92.29 13.93,92.45 13.78,92.61 13.62,92.77 13.46,92.77 13.46,92.92 13.15,93.08 
	12.99,93.24 12.83,93.24 12.68,93.39 12.68,93.55 12.52,93.55 12.52,93.71 12.36,93.86 12.21,93.86 12.05,93.86 12.05,94.02 
	11.89,94.18 11.74,94.33 11.74,94.49 11.58,94.49 11.42,94.49 11.26,94.49 10.95,94.33 10.79,94.18 10.79,94.02 10.79,93.86 
	10.95,93.86 10.95,93.71 10.95,93.55 10.95,93.39 10.95,93.24 10.79,93.08 10.79,92.92 10.79,92.77 10.79,92.61 10.79,92.45 
	10.64,92.29 10.64,92.14 10.79,92.14 10.79,91.98 10.79,91.82 10.79,91.67 10.95,91.51 11.11,91.35 11.26,91.2 11.26,91.04 
	11.42,90.88 11.58,90.88 11.58,90.72 11.58,90.57 11.58,90.41 11.74,90.25 11.74,90.1 11.58,90.1 11.58,89.94 11.42,89.94 
	11.42,89.78 11.26,89.78 11.11,89.63 11.11,89.47 11.11,89.31 10.95,89.15 10.95,89 10.95,88.84 10.79,88.84 10.79,88.68 
	10.64,88.53 10.48,88.53 10.32,88.53 10.17,88.53 10.17,88.37 10.01,88.37 9.85,88.37 9.85,88.21 9.69,88.21 9.69,88.06 9.69,87.9 
	9.69,87.74 9.69,87.59 9.69,87.43 9.69,87.27 9.85,87.27 9.85,87.43 10.01,87.27 10.17,87.11 10.32,86.96 10.32,86.8 10.32,86.64 
	10.48,86.64 10.64,86.49 10.79,86.49 10.79,86.33 10.79,86.17 10.79,86.02 10.79,85.86 10.95,85.7 10.95,85.54 10.95,85.39 
	10.95,85.23 10.79,85.23 10.79,85.07 10.79,84.92 10.79,84.76 10.95,84.76 10.79,84.76 10.79,84.6 10.79,84.45 10.79,84.29 
	10.79,84.13 10.64,84.13 10.64,83.98 10.48,83.98 10.48,83.82 10.48,83.66 10.48,83.5 10.32,83.35 10.32,83.19 10.32,83.03 
	10.32,82.88 10.48,82.88 10.48,82.72 10.48,82.41 10.48,82.25 10.48,82.09 10.48,81.93 10.48,81.78 10.64,81.62 10.48,81.62 
	10.48,81.46 10.64,81.31 10.64,81.15 10.79,80.99 10.79,80.84 10.79,80.68 10.79,80.52 10.79,80.36 10.79,80.21 10.79,80.05 
	10.95,79.89 11.11,79.74 11.42,79.74 11.58,79.58 11.74,79.58 11.74,79.42 11.89,79.42 12.05,79.42 12.21,79.42 12.36,79.42 
	12.52,79.42 12.52,79.27 12.52,79.11 12.68,79.11 12.68,78.95 12.68,78.79 12.83,78.79 12.83,78.64 12.99,78.64 12.99,78.48 
	13.15,78.48 13.3,78.32 13.3,78.17 13.15,78.17 13.15,78.01 13.15,77.85 13.15,77.7 13.3,77.7 13.3,77.54 13.3,77.38 13.46,77.23 
	13.46,77.07 13.3,76.91 13.3,76.75 13.3,76.6 13.15,76.6 13.15,76.44 12.99,76.44 12.83,76.44 12.83,76.28 12.68,76.28 12.68,76.13 
	12.68,75.97 12.52,75.97 12.52,75.81 12.68,75.81 12.68,75.66 12.68,75.5 12.68,75.34 12.68,75.19 12.68,75.03 12.68,74.87 
	12.68,74.71 12.52,74.71 12.52,74.56 12.36,74.56 12.21,74.56 12.05,74.56 11.89,74.56 11.74,74.56 11.58,74.56 11.42,74.4 
	11.26,74.4 11.26,74.24 11.26,74.09 11.26,73.93 11.26,73.77 11.11,73.77 11.11,73.62 10.95,73.46 10.79,73.46 10.64,73.46 
	10.48,73.46 10.48,73.3 10.48,73.14 10.48,72.99 10.32,72.99 10.32,72.83 10.32,72.67 10.32,72.52 10.17,72.52 10.17,72.36 
	10.01,72.2 9.85,72.2 9.69,72.05 9.54,72.05 9.38,72.05 9.38,71.89 9.22,71.89 9.22,71.73 9.07,71.73 8.91,71.73 8.75,71.73 
	8.6,71.73 8.44,71.73 8.28,71.73 8.12,71.57 7.97,71.57 7.81,71.57 7.65,71.57 7.65,71.42 7.5,71.26 7.5,71.1 7.65,71.1 7.65,70.95 
	7.65,70.79 7.5,70.79 7.5,70.63 7.5,70.48 7.5,70.32 7.5,70.16 7.5,70.01 7.5,69.85 7.65,69.69 7.65,69.53 7.65,69.38 7.65,69.22 
	7.65,69.06 7.81,69.06 7.97,68.91 7.97,68.75 8.12,68.75 8.12,68.91 8.28,68.91 8.44,68.91 8.44,68.75 8.6,68.75 8.75,68.75 
	8.91,68.75 9.07,68.75 9.07,68.59 9.07,68.44 9.07,68.28 9.07,68.12 9.22,67.96 9.38,67.96 9.38,67.81 9.38,67.65 9.38,67.49 
	9.38,67.34 9.38,67.18 9.54,67.02 9.54,66.87 9.54,66.71 9.69,66.39 9.69,66.24 9.69,66.08 9.69,65.92 9.69,65.77 9.85,65.77 
	10.01,65.61 10.17,65.45 10.32,65.45 10.32,65.3 10.32,65.14 10.32,64.98 10.32,64.83 10.32,64.67 10.32,64.51 10.48,64.51 
	10.48,64.35 10.32,64.35 10.32,64.2 10.17,64.2 10.17,64.04 10.17,63.88 10.01,63.73 9.85,63.73 9.85,63.57 9.69,63.57 9.69,63.41 
	9.54,63.41 9.54,63.26 9.54,63.1 9.54,62.94 9.38,62.79 9.22,62.63 9.07,62.47 8.91,62.31 8.91,62.16 8.75,62.16 8.75,62 
	8.75,61.84 8.6,61.84 8.6,61.69 8.44,61.53 8.28,61.53 8.12,61.53 8.12,61.37 7.97,61.37 7.97,61.22 7.97,61.06 7.97,60.9 
	7.81,60.74 7.81,60.59 7.81,60.43 7.65,60.43 7.5,60.43 7.5,60.27 7.34,59.96 7.34,59.8 7.34,59.49 7.34,59.33 7.34,59.02 
	7.18,58.86 7.18,58.7 7.18,58.55 7.18,58.39 7.18,58.23 7.18,58.08 7.03,57.92 7.03,57.76 7.03,57.61 7.03,57.45 6.87,57.45 
	6.87,57.29 6.87,57.13 6.87,56.98 6.87,56.82 7.03,56.82 7.03,56.66 7.03,56.51 7.18,56.35 7.34,56.35 7.34,56.19 7.5,56.04 
	7.65,56.04 7.65,55.88 7.65,55.72 7.81,55.72 7.81,55.56 7.81,55.41 7.65,55.41 7.65,55.25 7.5,55.09 7.65,54.94 7.65,54.78 
	7.65,54.62 7.81,54.47 7.81,54.31 7.81,54.15 7.65,54.15 7.65,54 7.65,53.84 7.81,53.84 7.81,53.68 7.65,53.52 7.65,53.37 
	7.65,53.21 7.5,53.21 7.34,53.21 7.18,53.05 7.18,52.9 7.03,52.9 6.87,52.9 6.87,52.74 6.87,52.58 6.87,52.43 6.87,52.27 
	6.87,52.11 6.87,51.95 6.87,51.8 7.03,51.64 7.03,51.48 6.87,51.48 6.87,51.33 6.87,51.17 6.87,51.01 6.71,50.86 6.87,50.7 
	6.87,50.54 6.87,50.23 6.87,50.07 6.87,49.76 6.87,49.6 6.71,49.44 6.55,49.44 6.55,49.29 6.55,49.13 6.4,48.97 6.4,48.82 
	6.24,48.82 6.08,48.66 5.93,48.66 5.77,48.66 5.77,48.82 5.61,48.82 5.46,48.82 5.3,48.82 5.3,48.97 5.14,48.97 5.14,48.82 
	4.99,48.82 4.83,48.82 4.83,48.66 4.67,48.66 4.51,48.5 4.51,48.34 4.67,48.34 4.67,48.19 4.83,48.03 4.83,47.87 4.83,47.72 
	4.83,47.56 4.83,47.4 4.83,47.25 4.83,47.09 4.83,46.93 4.83,46.77 4.83,46.62 4.83,46.46 4.83,46.3 4.83,46.15 4.83,45.99 
	4.83,45.83 4.83,45.68 4.83,45.52 4.99,45.52 5.14,45.52 5.14,45.36 5.14,45.21 5.14,45.05 5.14,44.89 5.14,44.73 4.99,44.58 
	5.14,44.42 4.99,44.42 4.99,44.26 4.99,44.11 4.83,44.11 4.67,43.95 4.67,43.79 4.67,43.64 4.67,43.48 4.67,43.32 4.51,43.16 
	4.36,43.16 4.36,43.01 4.36,42.85 4.2,42.85 4.04,42.85 3.89,43.01 3.73,42.85 3.73,42.69 3.57,42.69 3.42,42.54 3.26,42.54 
	3.26,42.69 3.1,42.69 2.94,42.54 2.79,42.54 2.63,42.38 2.63,41.75 2.32,41.12 1.85,40.65 2,39.87 1.85,39.24 2,39.08 2.32,38.61 
	2.47,38.61 2.79,38.3 3.1,38.3 3.26,38.14 3.42,38.3 3.57,38.46 4.67,40.03 5.14,40.34 5.93,40.5 6.24,40.5 6.4,40.5 6.4,40.34 
	6.4,40.18 6.55,40.34 6.55,40.18 6.71,40.03 6.87,40.03 7.03,40.03 7.18,40.03 7.34,39.87 7.5,39.87 7.65,39.87 7.65,40.03 
	7.81,40.03 7.81,39.87 7.97,39.87 8.12,39.87 8.28,39.87 8.44,39.87 8.6,39.87 8.6,40.03 8.75,40.03 8.75,39.87 8.91,39.87 
	9.07,39.87 9.22,40.03 9.38,40.03 9.54,40.03 9.69,40.03 9.69,40.18 9.85,40.34 10.01,40.34 10.17,40.5 10.17,40.65 10.32,40.65 
	10.48,40.65 10.48,40.81 10.64,40.81 10.79,40.81 10.79,40.65 10.95,40.65 11.11,40.65 11.26,40.65 11.26,40.5 11.42,40.5 
	11.58,40.34 11.74,40.5 11.89,40.65 11.89,40.5 11.89,40.34 11.89,40.18 12.05,40.18 12.21,40.18 12.36,40.34 12.52,40.34 
	12.52,40.18 12.52,40.03 12.52,39.87 12.68,39.87 12.68,40.03 12.83,40.03 12.83,40.18 12.99,40.18 12.99,40.03 13.15,40.03 
	13.3,40.18 13.46,40.18 13.62,40.18 13.62,40.03 13.78,40.03 13.78,40.18 13.62,40.18 13.62,40.34 13.78,40.5 13.93,40.5 
	13.93,40.34 14.09,40.34 14.09,40.18 13.93,40.18 13.93,40.03 14.09,40.03 14.25,40.03 14.25,39.87 14.09,39.87 14.25,39.87 
	14.4,39.71 14.4,39.55 14.25,39.55 14.25,39.4 14.4,39.4 14.56,39.4 14.56,39.24 14.56,39.08 14.72,39.08 14.87,39.08 15.03,39.08 
	15.03,38.93 15.03,38.77 15.03,38.61 15.19,38.61 15.19,38.77 15.35,38.77 15.35,38.61 15.35,38.46 15.35,38.3 15.35,38.14 
	15.5,38.14 15.66,38.14 15.82,38.14 15.82,38.3 15.97,38.14 16.13,38.14 16.29,38.14 16.29,37.98 16.29,37.83 16.44,37.83 
	16.44,37.98 16.6,38.14 16.76,38.14 16.76,37.98 16.76,37.83 16.91,37.83 16.91,37.67 17.07,37.67 17.07,37.83 17.23,37.83 
	17.23,37.67 17.39,37.67 17.39,37.51 17.54,37.51 17.54,37.67 17.54,37.83 17.54,37.98 17.7,37.83 17.86,37.83 17.86,37.67 
	18.01,37.67 18.01,37.51 18.17,37.51 18.17,37.36 18.33,37.36 18.33,37.2 18.48,37.2 18.48,37.04 18.33,37.04 18.17,37.04 
	18.17,37.2 18.01,37.2 17.86,37.04 17.86,36.89 18.01,36.89 18.01,36.73 18.01,36.57 18.17,36.42 18.17,36.26 18.17,36.1 
	18.33,36.1 18.48,35.94 18.64,35.79 18.8,35.79 18.96,35.79 19.11,35.63 19.11,35.47 18.96,35.47 18.96,35.32 18.96,35.16 
	19.11,35.16 19.27,35.16 19.27,35.32 19.43,35.32 19.58,35.32 19.74,35.32 19.9,35.32 20.05,35.32 20.05,35.16 19.9,35.16 19.9,35 
	19.9,34.85 19.9,34.69 19.9,34.53 20.05,34.53 20.21,34.53 20.37,34.69 20.53,34.69 20.53,34.85 20.68,34.85 20.68,35 20.53,35 
	20.68,35 20.68,35.16 20.68,35.32 20.84,35.32 21,35.16 21.15,35.16 21.31,35.16 21.31,35.32 21.47,35.32 21.62,35.32 21.78,35.32 
	21.94,35.32 21.94,35.47 22.09,35.47 22.25,35.47 22.41,35.47 22.41,35.63 22.57,35.63 22.57,35.47 22.57,35.32 22.72,35.32 
	22.72,35.16 22.88,35.16 22.88,35 23.04,35 23.04,35.16 23.04,35 23.19,35 23.35,35 23.51,35 23.66,35 23.66,35.16 23.82,35.16 
	23.98,35.16 24.14,35.16 24.29,35.16 24.29,35 24.29,34.85 24.29,34.69 24.29,34.53 24.45,34.53 24.45,34.37 24.45,34.22 
	24.61,34.22 24.61,34.06 24.61,33.9 24.76,33.9 24.92,33.9 24.92,33.75 24.92,33.59 25.08,33.59 24.92,33.59 25.08,33.43 
	24.92,33.43 24.92,33.28 24.76,33.28 24.76,33.12 24.76,32.96 24.92,32.96 25.08,32.81 25.08,32.65 25.23,32.65 25.39,32.65 
	25.55,32.49 25.55,32.33 25.55,32.18 25.71,32.02 25.71,31.86 25.71,31.71 25.71,31.55 25.55,31.55 25.55,31.39 25.55,31.24 
	25.71,31.24 25.71,31.08 25.71,30.92 25.55,30.92 25.55,30.76 25.71,30.76 25.71,30.61 25.71,30.76 25.71,30.61 25.86,30.61 
	25.71,30.61 25.71,30.45 25.55,30.45 25.55,30.29 25.39,30.29 25.39,30.14 25.23,29.98 25.23,29.82 25.23,29.67 25.23,29.51 
	25.39,29.51 25.55,29.51 25.39,29.51 25.39,29.35 25.23,29.35 25.23,29.19 25.39,29.19 25.23,29.19 25.39,29.19 25.39,29.04 
	25.39,28.88 25.39,28.72 25.23,28.72 25.08,28.72 25.08,28.57 25.23,28.57 25.23,28.41 25.39,28.41 25.23,28.41 25.23,28.25 
	25.23,28.1 25.08,28.1 25.08,27.94 24.92,27.94 24.76,27.78 24.76,27.63 24.76,27.47 24.61,27.47 24.61,27.31 24.61,27.15 24.61,27 
	24.61,26.84 24.61,26.68 24.61,26.53 24.61,26.37 24.61,26.21 24.61,26.06 24.45,26.06 24.45,25.9 24.61,25.9 24.61,25.74 
	24.61,25.58 24.61,25.43 24.45,25.43 24.45,25.27 24.61,25.27 24.61,25.11 24.76,25.11 24.61,25.11 24.61,24.96 24.61,24.8 
	24.61,24.64 24.76,24.64 24.76,24.8 24.92,24.64 24.92,24.49 24.76,24.49 24.76,24.33 24.92,24.33 24.92,24.17 24.92,24.01 
	24.76,24.01 24.76,23.86 24.92,23.86 24.92,23.7 25.08,23.7 25.08,23.54 24.92,23.54 24.92,23.39 24.92,23.23 25.08,23.23 
	25.23,23.23 25.23,23.07 25.39,23.07 25.55,23.07 25.71,23.07 25.71,22.92 25.71,23.07 25.86,22.92 26.02,22.92 26.18,22.92 
	26.18,22.76 26.33,22.76 26.33,22.6 26.49,22.6 26.49,22.45 26.65,22.45 26.8,22.6 26.96,22.6 26.96,22.76 27.12,22.76 27.12,22.6 
	27.12,22.45 27.12,22.29 27.12,22.13 27.28,22.13 27.28,21.97 27.43,21.97 27.28,21.82 27.28,21.66 27.12,21.5 26.96,21.35 
	27.12,21.19 27.28,21.19 27.43,21.19 27.59,21.19 27.75,21.19 27.75,21.03 27.9,21.03 27.9,20.88 28.06,20.88 28.06,20.72 
	28.06,20.56 27.9,20.56 27.9,20.41 27.9,20.25 27.75,20.25 27.75,20.09 27.75,19.93 27.75,19.78 27.75,19.62 27.9,19.31 
	28.06,18.99 28.06,18.84 28.22,18.68 28.37,18.68 28.37,18.52 28.53,18.52 28.69,18.52 28.69,18.36 28.84,18.36 29,18.21 
	29.16,18.21 29.16,18.05 29.16,17.89 29.16,17.74 29.32,17.58 29.32,17.42 29.32,17.27 29.32,17.11 29.32,16.95 29.32,16.79 
	29.47,16.64 29.63,16.48 29.79,16.48 29.79,16.32 29.79,16.17 29.79,16.01 29.79,15.85 29.63,15.7 29.63,15.54 29.63,15.38 
	29.63,15.23 29.79,15.07 29.63,14.91 29.63,14.75 29.79,14.75 29.79,14.6 29.94,14.44 29.94,14.28 29.94,14.13 29.94,13.97 
	30.1,13.97 30.1,13.81 29.94,13.66 29.94,13.5 29.79,13.5 29.63,13.34 29.47,13.34 29.16,13.18 29,13.03 29,12.87 28.84,12.71 
	28.84,12.56 28.84,12.4 28.84,12.24 28.84,12.09 29,11.93 29.16,11.77 29.32,11.61 29.47,11.61 29.47,11.46 29.63,11.46 29.79,11.3 
	29.94,11.3 30.1,11.3 30.26,11.3 30.41,11.3 30.57,11.3 30.57,11.14 30.73,11.14 30.89,11.14 31.04,11.14 31.04,10.99 31.04,10.83 
	31.04,10.67 31.04,10.52 31.2,10.36 31.36,10.2 31.36,10.05 31.51,9.89 31.51,9.73 31.51,9.57 31.67,9.57 31.67,9.42 31.83,9.42 
	31.98,9.42 32.14,9.57 32.3,9.57 32.61,9.57 32.77,9.57 32.93,9.57 33.08,9.57 33.24,9.57 33.4,9.42 33.55,9.57 33.71,9.57 
	33.71,9.73 33.87,9.73 34.02,9.73 34.02,9.89 34.18,9.89 34.34,9.89 34.5,9.89 34.65,10.05 34.97,10.2 35.12,10.2 35.44,10.2 
	35.75,10.2 35.91,10.2 36.06,10.2 36.38,10.2 36.54,10.2 36.69,10.05 36.85,10.05 37.01,9.89 37.16,9.89 37.16,9.73 37.32,9.73 
	37.32,9.57 37.32,9.42 37.32,9.26 37.16,9.26 37.16,9.1 37.16,8.95 37.01,8.95 37.01,8.79 36.85,8.79 36.85,8.63 37.01,8.63 
	37.16,8.48 37.32,8.48 37.32,8.32 37.16,8.16 37.16,8 37.01,8 37.01,7.85 37.01,7.69 36.85,7.69 36.85,7.53 36.85,7.38 36.69,7.38 
	36.69,7.22 36.54,7.22 36.54,7.06 36.38,7.06 36.38,6.91 36.22,6.91 36.38,6.91 36.38,6.75 36.22,6.75 36.22,6.59 36.38,6.44 
	36.38,6.28 36.54,6.28 36.38,6.28 36.54,6.12 36.54,5.96 36.54,5.81 36.54,5.65 36.54,5.49 36.54,5.34 36.54,5.18 36.69,5.02 
	36.69,4.87 36.85,4.87 36.85,4.71 36.85,4.55 37.01,4.55 37.16,4.55 37.16,4.39 37.32,4.39 37.32,4.24 37.48,4.24 37.63,4.24 
	37.79,4.24 37.79,4.08 37.95,4.24 38.11,4.24 38.11,4.08 38.26,4.08 38.26,4.24 38.42,4.24 38.58,4.08 38.73,4.08 38.89,4.08 
	39.05,4.08 39.2,4.08 39.36,4.08 39.36,3.92 39.52,3.92 39.52,3.77 39.68,3.77 39.83,3.77 39.99,3.77 40.15,3.77 40.15,3.61 
	40.3,3.61 40.46,3.45 40.46,3.3 40.62,3.3 40.77,3.3 40.93,3.3 41.09,3.3 41.25,3.3 41.4,3.3 41.56,3.3 41.72,3.14 41.87,2.98 
	42.03,2.98 42.19,2.98 42.34,2.98 42.34,3.14 42.66,3.3 42.81,3.45 42.81,3.61 42.97,3.61 42.97,3.77 43.13,3.61 43.29,3.61 
	43.44,3.61 43.6,3.61 43.76,3.45 43.76,3.3 43.91,3.14 43.91,2.98 44.07,2.98 44.07,2.82 44.07,2.67 44.07,2.51 44.07,2.35 
	44.23,2.35 44.23,2.2 44.07,2.2 44.07,2.04 44.23,1.88 44.23,1.73 44.38,1.73 44.54,1.57 44.54,1.41 44.54,1.26 44.7,1.26 
	44.86,1.1 45.01,1.1 45.01,0.94 45.17,0.94 45.33,0.94 45.33,0.78 45.48,0.78 45.64,0.78 45.8,0.78 45.8,0.63 45.95,0.63 
	46.11,0.63 46.11,0.47 46.11,0.63 46.27,0.63 46.27,0.78 46.43,0.94 46.43,1.1 46.58,1.26 46.58,1.41 46.74,1.57 46.74,1.73 
	46.9,1.73 46.9,1.88 46.9,2.04 47.05,2.2 47.05,2.35 47.05,2.51 47.21,2.51 47.37,2.51 47.37,2.35 47.52,2.51 47.68,2.51 
	47.68,2.67 47.84,2.67 47.99,2.82 48.15,2.82 48.15,2.98 48.15,3.14 48.31,3.3 48.31,3.45 48.31,3.61 48.31,3.77 48.31,3.92 
	48.31,4.08 48.31,4.24 48.47,4.39 48.47,4.55 48.62,4.55 48.78,4.55 48.94,4.71 49.25,5.02 49.72,4.87 50.51,4.87 50.98,4.87 
	51.29,4.87 51.45,4.87 51.6,4.87 51.92,5.18 52.39,5.18 52.86,5.18 53.33,5.34 53.65,5.49 53.96,5.65 54.12,5.96 54.27,6.44 
	54.27,6.91 54.27,7.38 54.12,7.85 53.96,8 53.96,8.16 53.8,8.16 53.96,8.16 53.96,8.32 54.12,8.32 54.12,8.48 54.27,8.48 
	54.27,8.63 54.27,8.79 54.43,9.1 54.59,9.26 54.59,9.42 54.59,9.57 54.74,9.73 54.9,9.89 55.06,9.89 55.22,9.89 55.22,10.05 
	55.22,10.2 55.37,10.36 55.53,10.52 55.53,10.67 55.53,10.83 55.53,10.99 55.53,11.14 55.53,11.3 55.69,11.3 55.69,11.46 
	55.84,11.46 56,11.46 56.16,11.46 56.16,11.61 56.31,11.77 56.31,11.93 56.47,11.93 56.47,12.09 56.47,12.24 56.47,12.4 
	56.47,12.56 56.63,12.56 56.47,12.56 56.63,12.71 56.63,12.56 56.63,12.71 56.78,12.71 56.94,12.71 57.1,12.71 57.1,12.87 
	56.94,12.87 57.1,12.87 56.94,12.87 57.1,12.87 57.1,13.03 56.94,12.87 56.94,13.03 56.94,13.18 57.1,13.18 57.1,13.34 57.1,13.5 
	57.26,13.5 57.26,13.66 57.41,13.66 57.41,13.81 57.57,13.81 57.57,13.97 57.57,13.81 57.57,13.97 57.73,13.97 57.73,14.13 
	57.73,14.28 57.73,14.13 57.88,14.28 57.88,14.44 58.04,14.44 57.88,14.44 57.88,14.6 58.04,14.6 58.2,14.6 58.35,14.6 58.51,14.75 
	58.51,14.6 58.67,14.6 58.67,14.75 58.83,14.75 58.67,14.91 58.83,14.91 58.83,15.07 58.98,15.07 58.98,15.23 59.14,15.23 
	59.3,15.23 59.45,15.38 59.45,15.54 59.61,15.54 59.61,15.38 59.61,15.54 59.61,15.7 59.77,15.7 59.92,15.85 60.08,15.85 
	60.24,15.7 60.4,15.54 60.4,15.38 60.55,15.54 60.71,15.54 60.87,15.54 61.02,15.7 61.18,15.85 61.18,16.01 61.34,16.01 
	61.49,16.01 61.65,16.17 61.81,16.17 61.81,16.32 61.97,16.32 62.12,16.48 62.28,16.48 62.28,16.64 62.28,16.79 62.28,16.95 
	62.44,16.95 62.59,16.95 62.59,17.11 62.59,17.27 62.75,17.27 62.75,17.11 62.91,17.27 62.91,17.11 63.06,17.11 63.22,17.11 
	63.22,16.95 63.22,17.11 63.38,17.11 63.38,16.95 63.53,16.95 63.69,16.95 63.85,16.95 64.01,16.95 64.16,16.95 64.16,16.79 
	64.16,16.95 64.32,16.95 64.48,16.95 64.48,17.11 64.32,17.11 64.32,17.27 64.32,17.42 64.32,17.58 64.32,17.74 64.48,17.74 
	64.48,17.89 64.48,18.05 64.32,18.05 64.48,18.05 64.48,18.21 64.63,18.21 64.79,18.21 64.79,18.05 64.95,18.05 65.1,18.05 
	65.1,18.21 65.26,18.21 65.26,18.05 65.42,17.89 65.26,17.89 65.26,17.74 65.42,17.74 65.42,17.58 65.58,17.58 65.58,17.42 
	65.73,17.58 65.89,17.58 65.89,17.74 66.05,17.74 66.2,17.74 66.36,17.74 66.36,17.58 66.52,17.58 66.67,17.58 66.67,17.42 
	66.83,17.42 66.83,17.27 66.99,17.27 66.99,17.11 67.14,17.11 67.3,17.11 67.3,16.95 67.46,16.95 67.62,16.95 67.62,16.79 
	67.77,16.79 67.77,16.64 67.93,16.64 67.77,16.64 67.93,16.48 67.93,16.79 67.77,16.95 67.46,17.27 67.14,17.42 67.3,17.74 
	67.3,18.21 67.46,18.68 67.77,18.99 68.09,19.15 68.87,19.93 69.19,20.25 69.81,20.56 70.44,20.88 70.6,21.19 70.75,21.19 
	70.91,21.35 71.07,21.35 71.23,21.19 71.38,21.03 71.54,20.88 71.7,20.88 71.85,20.88 72.01,20.88 72.17,20.88 72.17,21.03 
	72.32,21.03 72.48,21.03 72.64,21.03 72.8,21.03 72.95,20.88 73.11,20.88 73.11,20.72 73.27,20.72 73.42,20.56 73.58,20.56 
	73.74,20.41 73.89,20.09 73.89,19.93 74.05,19.93 74.05,19.78 74.21,19.78 74.37,19.93 74.52,19.93 74.52,19.78 74.52,19.62 
	74.52,19.46 74.37,19.31 74.37,19.15 74.21,18.99 74.05,18.99 74.05,18.84 74.05,18.68 74.21,18.52 74.37,18.36 74.52,18.36 
	74.68,18.36 74.68,18.21 74.84,18.05 74.84,17.89 74.99,17.89 74.99,17.74 75.15,17.74 75.31,17.74 75.46,17.74 75.62,17.74 
	75.78,17.74 75.78,17.58 75.94,17.58 76.09,17.58 76.25,17.58 76.25,17.74 76.25,17.89 76.25,18.05 76.41,18.21 76.56,18.36 
	76.72,18.36 76.88,18.36 77.03,18.36 77.19,18.21 77.35,18.21 77.35,18.36 77.5,18.36 77.66,18.21 77.66,18.05 77.66,17.89 
	77.66,17.74 77.82,17.74 77.82,17.58 77.82,17.42 77.82,17.27 77.82,17.11 77.98,17.11 77.98,16.95 78.13,16.95 78.13,16.79 
	78.29,16.48 "/>
</svg>
