<?xml version="1.0" encoding="utf-8"?>
<!-- Generator: Adobe Illustrator 24.2.1, SVG Export Plug-In . SVG Version: 6.00 Build 0)  -->
<svg version="1.1" id="Layer_1" xmlns="http://www.w3.org/2000/svg" xmlns:xlink="http://www.w3.org/1999/xlink" x="0px" y="0px"
	 viewBox="0 0 97.23 97.23" style="enable-background:new 0 0 97.23 97.23;" xml:space="preserve">
<style type="text/css">
	.st0{fill-rule:evenodd;clip-rule:evenodd;fill:#1D1D1B;}
</style>
<polygon class="st0" points="45.77,23.95 45.86,23.95 45.86,24.04 45.95,24.12 46.03,24.12 46.03,24.21 46.12,24.21 46.12,24.29 
	46.12,24.38 46.2,24.38 46.2,24.47 46.2,24.55 46.2,24.64 46.29,24.72 46.37,24.72 46.46,24.72 46.55,24.72 46.63,24.81 
	46.63,24.89 46.63,24.98 46.63,25.07 46.63,25.15 46.72,25.24 46.72,25.32 46.72,25.41 46.72,25.49 46.8,25.58 46.8,25.67 
	46.89,25.67 46.89,25.75 46.8,25.84 46.72,25.84 46.72,25.92 46.72,26.01 46.63,26.01 46.55,26.09 46.55,26.18 46.63,26.18 
	46.63,26.27 46.63,26.35 46.63,26.44 46.55,26.52 46.55,26.61 46.55,26.95 46.55,27.04 46.55,27.12 46.55,27.3 46.55,27.38 
	46.55,27.47 46.46,27.55 46.46,27.64 46.46,27.72 46.55,27.81 46.63,27.81 46.72,27.81 46.72,27.9 46.8,27.9 46.8,27.98 
	46.89,28.07 46.89,28.15 46.97,28.32 46.97,28.41 47.06,28.5 47.06,28.58 47.06,28.67 46.97,28.75 46.97,28.84 46.89,28.84 
	46.8,28.92 46.8,29.01 46.72,29.18 46.63,29.27 46.63,29.35 46.55,29.35 46.63,29.35 46.72,29.44 46.8,29.44 46.89,29.44 
	46.97,29.44 47.06,29.44 47.06,29.52 47.06,29.61 47.15,29.7 47.15,29.78 47.23,29.87 47.23,29.95 47.32,29.95 47.4,29.95 
	47.4,30.04 47.49,30.04 47.49,30.12 47.49,30.21 47.57,30.21 47.66,30.21 47.75,30.21 47.83,30.3 47.83,30.38 47.92,30.47 48,30.47 
	48.09,30.55 48.17,30.55 48.17,30.47 48.26,30.47 48.35,30.47 48.43,30.47 48.6,30.64 48.69,30.64 48.69,30.72 48.77,30.72 
	48.86,30.72 48.95,30.81 49.03,30.81 49.2,30.81 49.29,30.72 49.37,30.72 49.46,30.72 49.55,30.64 49.63,30.64 49.72,30.55 
	49.8,30.55 49.89,30.55 49.89,30.64 49.98,30.64 49.98,30.72 49.98,30.81 50.06,30.81 50.15,30.81 50.15,30.9 50.23,30.9 
	50.23,30.98 50.32,30.98 50.32,31.07 50.32,30.98 50.4,30.98 50.49,30.98 50.58,30.98 50.66,30.98 50.75,30.98 50.83,30.98 51,30.9 
	51.09,30.81 51.18,30.81 51.18,30.9 51.18,30.81 51.26,30.81 51.35,30.81 51.43,30.81 51.52,30.81 51.52,30.72 51.6,30.72 
	51.69,30.72 51.69,30.64 51.78,30.64 51.86,30.64 51.95,30.64 51.95,30.55 51.95,30.64 52.03,30.64 52.03,30.72 52.12,30.72 
	52.12,30.64 52.2,30.55 52.2,30.47 52.29,30.38 52.29,30.3 52.29,30.21 52.38,30.21 52.46,30.3 52.55,30.3 52.55,30.38 52.63,30.38 
	52.72,30.38 52.8,30.47 52.89,30.47 52.98,30.47 53.06,30.47 53.15,30.38 53.23,30.38 53.32,30.38 53.32,30.47 53.41,30.47 
	53.41,30.38 53.49,30.38 53.49,30.47 53.58,30.47 53.66,30.55 53.66,30.64 53.58,30.64 53.58,30.72 53.49,30.72 53.41,30.72 
	53.32,30.72 53.23,30.81 53.15,30.9 53.15,30.98 53.15,31.07 53.23,31.15 53.32,31.15 53.41,31.15 53.49,31.24 53.49,31.32 
	53.58,31.41 53.58,31.58 53.66,31.58 53.66,31.67 53.75,31.67 53.75,31.75 53.83,31.75 53.92,31.75 54.01,31.75 54.09,31.75 
	54.09,31.84 54.18,31.84 54.18,31.92 54.18,32.01 54.18,32.1 54.26,32.1 54.35,32.1 54.43,32.18 54.52,32.18 54.61,32.18 
	54.69,32.27 54.78,32.27 54.86,32.27 54.86,32.18 54.95,32.1 55.03,32.1 55.03,32.18 55.12,32.18 55.12,32.1 55.21,32.1 55.29,32.1 
	55.38,32.1 55.46,32.01 55.46,31.92 55.55,31.92 55.55,31.84 55.63,31.75 55.63,31.67 55.72,31.67 55.81,31.67 55.81,31.58 
	55.89,31.58 55.89,31.5 55.89,31.58 55.98,31.67 55.98,31.75 56.06,31.84 56.06,31.92 56.15,31.92 56.15,32.01 56.23,32.01 
	56.32,32.1 56.41,32.18 56.41,32.27 56.49,32.27 56.58,32.27 56.66,32.27 56.75,32.27 56.83,32.35 56.92,32.35 56.92,32.27 
	57.01,32.27 57.09,32.27 57.18,32.27 57.26,32.27 57.35,32.35 57.43,32.35 57.52,32.35 57.61,32.44 57.69,32.44 57.78,32.44 
	57.78,32.35 57.86,32.35 57.95,32.44 58.04,32.53 58.12,32.53 58.21,32.61 58.21,32.7 58.29,32.7 58.38,32.7 58.46,32.78 
	58.55,32.87 58.64,32.95 58.72,32.95 58.72,33.04 58.72,33.13 58.72,33.21 58.81,33.21 58.81,33.3 58.81,33.38 58.89,33.38 
	58.89,33.47 58.98,33.55 59.06,33.55 59.15,33.47 59.15,33.38 59.24,33.38 59.32,33.38 59.41,33.38 59.49,33.38 59.58,33.38 
	59.66,33.38 59.75,33.38 59.84,33.38 59.92,33.38 60.01,33.38 60.09,33.3 60.18,33.21 60.18,33.13 60.26,33.13 60.26,33.04 
	60.35,33.04 60.35,33.13 60.35,33.21 60.44,33.3 60.52,33.3 60.61,33.3 60.69,33.38 60.69,33.47 60.78,33.55 60.86,33.55 
	60.95,33.55 61.04,33.55 61.04,33.64 61.12,33.64 61.12,33.73 61.21,33.81 61.29,33.81 61.29,33.9 61.38,33.98 61.38,34.07 
	61.38,34.15 61.29,34.15 61.38,34.33 61.46,34.41 61.55,34.41 61.64,34.5 61.72,34.5 61.72,34.58 61.72,34.67 61.72,34.75 
	61.81,34.84 61.81,34.93 61.81,35.01 61.81,35.1 61.89,35.18 61.98,35.27 62.07,35.35 62.07,35.44 62.15,35.44 62.15,35.53 
	62.15,35.61 62.07,35.7 61.98,35.7 61.89,35.78 61.89,35.87 61.81,35.87 61.81,35.95 61.81,36.04 61.72,36.04 61.64,36.13 
	61.64,36.21 61.72,36.3 61.72,36.38 61.81,36.47 61.89,36.47 61.98,36.55 61.98,36.64 62.07,36.64 62.07,36.73 62.15,36.73 
	62.24,36.81 62.24,36.9 62.24,36.98 62.15,37.07 62.15,37.16 62.15,37.24 62.15,37.33 62.07,37.33 62.07,37.41 62.07,37.5 
	61.98,37.5 61.98,37.58 61.98,37.67 61.98,37.76 61.98,38.01 61.98,38.1 61.98,38.18 61.98,38.27 61.98,38.36 61.89,38.44 
	61.89,38.53 61.89,38.61 61.81,38.7 61.72,38.78 61.64,38.78 61.46,38.78 61.38,38.78 61.38,38.87 61.38,38.96 61.29,38.96 
	61.29,39.04 61.21,39.04 61.21,39.13 61.12,39.21 61.12,39.3 61.04,39.3 61.04,39.38 60.95,39.38 60.86,39.38 60.86,39.47 
	60.78,39.47 60.78,39.56 60.78,39.64 60.69,39.73 60.61,39.73 60.52,39.73 60.44,39.81 60.35,39.81 60.26,39.81 60.26,39.9 
	60.35,39.98 60.35,40.07 60.35,40.16 60.35,40.24 60.44,40.24 60.52,40.24 60.52,40.33 60.61,40.41 60.52,40.5 60.52,40.58 
	60.61,40.58 60.61,40.67 60.69,40.67 60.69,40.76 60.69,40.84 60.69,40.93 60.78,41.01 60.86,41.1 60.86,41.19 60.86,41.27 
	60.78,41.36 60.95,41.36 61.04,41.44 61.12,41.53 61.21,41.53 61.21,41.61 61.29,41.61 61.29,41.7 61.38,41.79 61.38,41.87 
	61.46,41.87 61.46,41.96 61.46,42.04 61.55,42.21 61.55,42.3 61.64,42.3 61.72,42.3 61.81,42.3 61.81,42.21 61.89,42.21 61.89,42.3 
	61.98,42.3 62.07,42.39 62.15,42.39 62.15,42.47 62.24,42.47 62.32,42.39 62.41,42.39 62.41,42.47 62.41,42.56 62.49,42.56 
	62.58,42.56 62.58,42.64 62.67,42.73 62.75,42.81 62.75,42.9 62.84,42.9 62.84,42.99 62.84,43.07 62.84,43.16 62.84,43.24 
	62.84,43.33 62.92,43.33 62.92,43.41 63.01,43.41 63.01,43.5 63.09,43.59 63.09,43.67 63.18,43.67 63.18,43.76 63.27,43.76 
	63.35,43.84 63.44,43.84 63.52,43.84 63.52,43.93 63.61,43.93 63.69,44.01 63.69,44.1 63.78,44.1 63.78,44.19 63.87,44.19 
	63.87,44.27 63.95,44.36 64.04,44.36 64.12,44.36 64.21,44.36 64.29,44.36 64.38,44.36 64.47,44.36 64.55,44.44 64.55,44.36 
	64.64,44.36 64.64,44.44 64.72,44.44 64.81,44.44 64.89,44.44 64.89,44.53 64.81,44.53 64.81,44.44 64.81,44.53 64.81,44.61 
	64.89,44.61 64.89,44.7 64.98,44.61 65.07,44.61 65.07,44.7 65.15,44.61 65.24,44.61 65.32,44.61 65.41,44.61 65.41,44.7 
	65.49,44.7 65.49,44.61 65.58,44.61 65.67,44.61 65.67,44.53 65.67,44.44 65.75,44.44 65.84,44.53 65.92,44.53 65.84,44.44 
	65.92,44.44 66.01,44.44 66.1,44.36 66.18,44.36 66.27,44.36 66.35,44.27 66.44,44.27 66.52,44.27 66.61,44.27 66.61,44.19 
	66.7,44.1 66.7,44.01 66.78,44.01 66.87,44.01 66.87,43.93 66.95,43.93 66.95,43.84 67.04,43.84 67.12,43.93 67.21,43.93 
	67.3,43.93 67.38,43.93 67.38,44.01 67.47,44.01 67.55,44.1 67.64,44.19 67.72,44.19 67.81,44.27 67.81,44.36 67.81,44.44 
	67.9,44.44 67.9,44.53 67.9,44.87 67.98,45.04 68.15,45.21 68.24,45.39 68.32,45.73 68.41,46.07 68.41,46.16 68.5,46.16 68.5,46.24 
	68.58,46.24 68.58,46.33 68.58,46.5 68.58,46.59 68.67,46.67 68.75,46.67 68.84,46.76 68.92,46.84 68.92,46.93 69.01,47.02 
	69.01,47.1 68.92,47.19 68.92,47.27 69.01,47.27 69.01,47.36 68.92,47.36 68.92,47.44 68.84,47.44 68.84,47.53 68.84,47.62 
	68.92,47.7 68.92,47.79 68.92,47.87 68.92,47.96 68.92,48.04 69.01,48.04 69.1,48.04 69.18,48.04 69.27,48.04 69.35,48.04 
	69.35,47.96 69.44,47.96 69.44,47.87 69.52,47.96 69.52,47.87 69.52,47.96 69.61,47.96 69.7,47.96 69.78,47.96 69.78,47.87 
	69.78,47.79 69.87,47.79 69.95,47.79 69.95,47.87 70.04,47.87 70.12,47.87 70.12,47.79 70.21,47.79 70.21,47.7 70.21,47.79 
	70.3,47.79 70.38,47.79 70.47,47.79 70.55,47.79 70.64,47.79 70.64,47.7 70.64,47.79 70.64,47.7 70.73,47.7 70.73,47.79 
	70.81,47.79 70.9,47.79 70.98,47.79 71.07,47.79 71.15,47.79 71.15,47.87 71.15,47.79 71.24,47.79 71.33,47.79 71.41,47.79 
	71.41,47.87 71.41,47.79 71.5,47.79 71.5,47.7 71.58,47.7 71.67,47.7 71.75,47.7 71.84,47.7 71.93,47.7 72.01,47.7 72.01,47.62 
	72.1,47.7 72.1,47.62 72.18,47.7 72.18,47.62 72.27,47.62 72.35,47.62 72.53,47.53 72.78,47.27 72.95,47.1 72.95,47.02 73.04,46.93 
	73.13,46.93 73.21,46.84 73.3,46.76 73.3,46.67 73.3,46.59 73.38,46.59 73.38,46.5 73.38,46.42 73.38,46.33 73.3,46.33 73.3,46.24 
	73.3,46.16 73.21,46.07 73.13,46.07 73.13,45.99 73.04,45.99 72.95,45.9 72.95,45.82 72.87,45.73 72.87,45.64 72.78,45.64 
	72.78,45.56 72.87,45.56 72.87,45.47 72.95,45.39 72.95,45.3 72.95,45.21 72.87,45.21 72.87,45.13 72.87,45.04 72.87,44.96 
	72.87,44.87 72.95,44.87 72.95,44.79 73.04,44.7 73.13,44.7 73.21,44.61 73.21,44.53 73.3,44.44 73.21,44.36 73.21,44.27 
	73.21,44.19 73.21,44.1 73.13,44.1 73.13,44.01 73.04,43.93 73.04,43.84 73.13,43.76 73.13,43.67 73.04,43.67 73.04,43.59 
	72.95,43.5 72.95,43.41 72.95,43.33 72.95,43.24 73.04,43.16 73.04,43.07 73.04,42.99 73.04,42.9 73.13,42.9 73.13,42.81 
	73.21,42.81 73.3,42.81 73.3,42.9 73.3,42.99 73.38,42.99 73.47,42.99 73.55,42.99 73.64,42.99 73.64,43.07 73.73,43.07 
	73.73,43.16 73.98,43.41 73.98,43.5 73.98,43.59 74.07,43.59 74.07,43.67 74.15,43.67 74.15,43.76 74.24,43.76 74.33,43.76 
	74.41,43.67 74.41,43.59 74.5,43.59 74.5,43.5 74.58,43.5 74.67,43.41 74.76,43.41 74.84,43.5 74.93,43.59 74.93,43.67 75.01,43.67 
	75.01,43.59 75.1,43.59 75.18,43.59 75.27,43.59 75.36,43.59 75.44,43.59 75.53,43.67 75.61,43.67 75.78,43.67 75.87,43.67 
	75.96,43.59 75.96,43.67 76.04,43.76 76.13,43.76 76.13,43.67 76.21,43.67 76.3,43.67 76.3,43.59 76.38,43.59 76.38,43.5 
	76.47,43.5 76.47,43.41 76.56,43.41 76.56,43.5 76.64,43.5 76.64,43.41 76.73,43.41 76.81,43.33 76.9,43.24 76.81,43.24 
	76.81,43.16 76.9,43.16 76.9,43.07 76.98,43.07 76.98,42.99 77.07,42.99 77.07,42.9 77.16,42.9 77.24,42.9 77.33,42.9 77.33,42.81 
	77.41,42.81 77.41,42.9 77.5,42.9 77.5,42.99 77.58,42.99 77.67,42.99 77.76,42.99 77.76,42.9 77.76,42.81 77.84,42.81 77.84,42.73 
	77.93,42.73 78.01,42.73 78.1,42.73 78.18,42.81 78.27,42.81 78.53,42.9 78.79,43.07 79.04,43.24 79.21,43.33 79.39,43.59 
	79.39,43.67 79.47,43.67 79.56,43.76 79.64,43.76 79.64,43.84 79.73,43.84 79.64,43.84 79.73,43.93 79.81,44.01 79.9,44.01 
	79.9,44.1 79.99,44.1 80.07,44.19 80.16,44.19 80.24,44.19 80.33,44.27 80.41,44.27 80.41,44.36 80.5,44.44 80.41,44.44 
	80.41,44.53 80.5,44.61 80.59,44.7 80.67,44.79 80.76,44.87 80.84,44.87 80.93,44.87 81.01,44.96 81.1,44.96 81.19,45.04 
	81.27,45.13 81.36,45.3 81.44,45.39 81.53,45.47 81.61,45.47 81.7,45.47 81.79,45.47 81.87,45.47 81.96,45.47 82.04,45.47 
	82.13,45.47 82.21,45.47 82.3,45.47 82.39,45.47 82.47,45.56 82.56,45.56 82.73,45.56 82.82,45.56 82.9,45.56 82.99,45.64 
	83.07,45.64 83.16,45.64 83.16,45.73 83.24,45.73 83.33,45.73 83.42,45.73 83.42,45.64 83.5,45.64 83.59,45.64 83.67,45.64 
	83.76,45.64 83.76,45.56 83.84,45.56 83.93,45.56 84.02,45.56 84.1,45.56 84.19,45.56 84.27,45.56 84.36,45.56 84.44,45.56 
	84.44,45.47 84.53,45.47 84.62,45.47 84.62,45.56 84.7,45.56 84.7,45.64 84.79,45.64 84.87,45.64 84.96,45.64 84.96,45.73 
	85.04,45.73 85.04,45.82 85.13,45.82 85.13,45.9 85.22,45.9 85.22,45.99 85.22,46.59 85.3,46.59 85.39,46.5 85.47,46.5 85.47,46.59 
	85.47,46.67 85.56,46.67 85.56,46.76 85.56,46.84 85.56,46.93 85.47,47.02 85.39,47.1 85.3,47.19 85.22,47.27 85.13,47.27 
	85.13,47.36 85.13,47.53 85.22,47.62 85.22,47.79 85.22,47.96 85.22,48.04 85.22,48.13 85.22,48.22 85.22,48.3 85.22,48.39 
	85.22,48.47 85.22,48.56 85.22,48.64 85.22,48.73 85.3,48.73 85.39,48.82 85.47,48.82 85.47,48.9 85.56,48.9 85.56,48.99 
	85.56,49.07 85.64,49.16 85.73,49.24 85.82,49.33 85.82,49.42 85.9,49.42 85.99,49.42 85.99,49.5 85.99,49.59 85.99,49.67 
	86.07,49.76 86.07,49.84 86.07,49.93 86.16,49.93 86.24,49.93 86.24,50.02 86.33,50.02 86.33,50.1 86.33,50.19 86.33,50.27 
	86.33,50.36 86.42,50.36 86.5,50.36 86.5,50.45 86.5,50.53 86.59,50.53 86.59,50.62 86.59,50.7 86.5,50.79 86.5,50.87 86.5,50.96 
	86.5,51.05 86.5,51.13 86.59,51.13 86.59,51.22 86.5,51.22 86.5,51.3 86.59,51.3 86.67,51.3 86.67,51.39 86.76,51.39 86.76,51.47 
	86.76,51.39 86.84,51.39 86.84,51.47 86.76,51.47 86.84,51.47 86.84,51.56 86.93,51.56 86.93,51.65 86.84,51.65 86.93,51.65 
	86.93,51.73 87.02,51.73 86.93,51.73 86.93,51.82 87.02,51.82 87.02,51.9 87.1,51.9 87.1,51.99 87.02,52.07 86.93,52.16 
	86.84,52.16 86.76,52.25 86.67,52.25 86.59,52.25 86.5,52.25 86.42,52.25 86.33,52.25 86.24,52.25 86.16,52.25 86.16,52.33 
	85.99,52.33 85.9,52.42 85.82,52.42 85.73,52.42 85.64,52.42 85.56,52.5 85.47,52.5 85.39,52.5 85.39,52.59 85.3,52.59 85.3,52.67 
	85.22,52.67 85.13,52.67 85.04,52.67 84.96,52.76 84.87,52.76 84.79,52.76 84.7,52.85 84.79,52.85 84.79,52.93 84.79,53.02 
	84.79,53.1 84.79,53.19 84.7,53.36 84.7,53.45 84.62,53.53 84.62,53.62 84.62,53.7 84.62,53.79 84.7,53.87 84.7,53.96 84.7,54.05 
	84.79,54.13 84.79,54.3 84.79,54.39 84.79,54.56 84.7,54.65 84.7,54.73 84.62,54.73 84.53,54.82 84.53,54.9 84.53,54.99 
	84.53,55.08 84.53,55.16 84.53,55.25 84.53,55.33 84.62,55.42 84.79,55.5 84.87,55.59 84.87,55.68 84.96,55.76 85.04,55.76 
	85.13,55.85 85.22,55.85 85.3,55.85 85.39,55.93 85.47,56.02 85.56,56.1 85.64,56.1 85.73,56.1 85.82,56.1 85.9,56.1 85.99,56.1 
	86.07,56.19 86.16,56.28 86.24,56.36 86.33,56.45 86.42,56.45 86.42,56.53 86.33,56.62 86.24,56.7 86.24,56.79 86.24,56.88 
	86.24,56.96 86.33,57.05 86.42,57.13 86.42,57.22 86.42,57.3 86.5,57.48 86.42,57.48 86.42,57.56 86.5,57.56 86.5,57.65 86.5,57.73 
	86.5,57.82 86.5,57.9 86.42,58.08 86.42,58.16 86.42,58.25 86.42,58.33 86.42,58.42 86.42,58.5 86.42,58.59 86.42,58.68 
	86.42,58.76 86.42,58.85 86.42,58.93 86.42,59.02 86.42,59.1 86.42,59.19 86.42,59.28 86.42,59.36 86.42,59.45 86.42,59.53 
	86.42,59.62 86.42,59.71 86.42,59.79 86.42,59.88 86.42,59.96 86.42,60.05 86.42,60.13 86.42,60.22 86.42,60.31 86.33,60.48 
	86.42,60.48 86.42,60.56 86.33,60.56 86.33,60.65 86.33,60.73 86.24,60.82 86.24,60.91 86.24,60.99 86.24,61.08 86.33,61.16 
	86.33,61.25 86.33,61.33 86.33,61.42 86.42,61.42 86.42,61.51 86.5,61.51 86.5,61.59 86.5,61.68 86.5,61.76 86.5,61.85 86.5,61.93 
	86.59,61.93 86.59,62.02 86.59,62.11 86.67,62.11 86.67,62.19 86.67,62.28 86.67,62.36 86.59,62.45 86.59,62.53 86.5,62.62 
	86.5,62.71 86.42,62.79 86.42,62.88 86.33,62.96 86.33,63.05 86.33,63.13 86.33,63.22 86.33,63.31 86.42,63.31 86.42,63.39 
	86.42,63.48 86.42,63.56 86.33,63.65 86.33,63.74 86.33,63.82 86.33,63.91 86.33,63.99 86.33,64.08 86.33,64.16 86.33,64.25 
	86.42,64.42 86.42,64.51 86.42,64.59 86.42,64.68 86.5,64.76 86.5,64.85 86.5,65.02 86.5,65.11 86.5,65.19 86.5,65.28 86.5,65.36 
	86.5,65.45 86.5,65.54 86.42,65.62 86.33,65.71 86.33,65.79 86.24,65.79 86.24,65.88 86.16,65.96 86.16,66.05 86.24,66.14 
	86.24,66.22 86.24,66.31 86.24,66.39 86.33,66.48 86.33,66.56 86.33,66.65 86.42,66.74 86.42,66.82 86.42,66.91 86.42,66.99 
	86.5,67.08 86.5,67.16 86.59,67.25 86.67,67.34 86.67,67.42 86.67,67.51 86.67,67.59 86.67,67.68 86.67,67.76 86.67,67.85 
	86.67,67.94 86.59,68.02 86.59,68.11 86.59,68.19 86.5,68.28 86.5,68.37 86.5,68.45 86.42,68.54 86.42,68.62 86.42,68.71 
	86.42,68.79 86.42,68.88 86.42,68.97 86.5,69.05 86.5,69.14 86.5,69.22 86.59,69.31 86.59,69.39 86.59,69.48 86.59,69.57 
	86.59,69.65 86.59,69.74 86.59,69.82 86.59,69.91 86.59,69.99 86.59,70.25 86.59,70.51 86.59,70.59 86.5,70.68 86.5,70.77 
	86.5,70.85 86.42,70.94 86.42,71.02 86.42,71.11 86.42,71.19 86.5,71.28 86.5,71.37 86.5,71.45 86.5,71.54 86.59,71.54 86.59,71.62 
	86.59,71.71 86.59,71.79 86.5,71.79 86.42,71.88 86.33,71.88 86.24,71.88 86.16,71.88 86.07,71.97 86.07,72.05 86.07,72.14 
	86.07,72.22 85.99,72.31 85.9,72.39 85.82,72.48 85.73,72.57 85.56,72.65 85.39,72.82 85.13,73 84.79,73.34 84.62,73.42 84.44,73.6 
	84.36,73.6 84.27,73.68 84.19,73.85 84.1,73.85 84.02,73.94 83.84,74.11 83.67,74.2 83.59,74.28 83.59,74.37 83.59,74.45 
	83.67,74.54 83.76,74.62 83.76,74.71 83.76,74.8 83.76,74.88 83.76,75.05 83.67,75.14 83.67,75.31 83.76,75.4 83.76,75.48 
	83.76,75.57 83.84,75.65 83.84,75.82 83.84,75.91 83.93,76.08 83.93,76.17 83.93,76.25 84.02,76.34 84.02,76.51 84.02,76.6 
	84.02,76.85 84.02,77.02 84.02,77.11 84.02,77.2 84.1,77.28 84.1,77.45 84.1,77.63 84.19,77.8 84.19,77.88 84.1,77.97 84.1,78.05 
	84.02,78.05 84.02,78.14 84.1,78.14 84.19,78.14 84.27,78.14 84.27,78.23 84.36,78.23 84.44,78.23 84.53,78.23 84.53,78.14 
	84.62,78.14 84.7,78.14 84.7,78.05 84.79,78.05 84.87,77.97 84.87,77.88 84.96,77.88 84.96,77.8 85.04,77.8 85.13,77.88 
	85.22,77.97 85.22,78.05 85.22,78.23 85.22,78.31 85.3,78.31 85.3,78.4 85.3,78.48 85.39,78.48 85.39,78.57 85.47,78.57 
	85.56,78.65 85.64,78.65 85.73,78.65 85.82,78.65 85.9,78.65 85.99,78.74 86.07,78.83 86.07,78.91 86.07,79 86.07,79.08 
	85.99,79.17 85.99,79.25 85.9,79.34 85.99,79.43 85.99,79.51 86.07,79.51 86.07,79.6 86.16,79.6 86.24,79.6 86.33,79.6 86.42,79.6 
	86.5,79.68 86.59,79.77 86.67,79.77 86.76,79.77 86.84,79.77 86.84,79.85 86.93,79.85 87.02,79.85 87.02,79.77 87.1,79.77 
	87.19,79.77 87.27,79.85 87.36,79.85 87.45,79.85 87.53,79.85 87.62,79.85 87.7,79.85 87.79,79.94 87.87,79.85 87.87,79.94 
	87.87,80.03 87.79,80.11 87.79,80.2 87.87,80.28 87.87,80.37 87.96,80.45 88.05,80.54 88.13,80.63 88.22,80.63 88.22,80.71 
	88.13,80.8 88.13,80.88 88.05,80.97 87.96,81.05 87.87,81.14 87.87,81.23 87.79,81.31 87.7,81.48 87.7,81.57 87.53,81.66 
	87.53,81.74 87.45,81.91 87.36,82 87.27,82.08 87.27,82.17 87.19,82.26 87.1,82.34 87.1,82.43 87.1,82.51 87.1,82.68 87.1,82.77 
	87.1,82.86 87.02,82.86 87.1,82.94 87.19,82.94 87.27,82.94 87.36,82.94 87.45,82.86 87.53,82.94 87.62,82.94 87.7,82.94 
	87.79,82.94 87.87,83.03 87.96,83.03 88.05,83.03 88.05,83.11 88.05,83.2 88.13,83.37 88.13,83.54 88.13,83.63 88.13,83.71 
	88.13,83.88 88.13,83.97 88.13,84.14 88.22,84.23 88.22,84.4 88.22,84.48 88.22,84.57 88.3,84.66 88.3,84.74 88.39,84.74 
	88.56,84.66 88.65,84.57 88.73,84.57 88.9,84.57 88.99,84.66 89.07,84.66 89.16,84.74 89.25,84.74 89.33,84.83 89.42,84.91 89.5,85 
	89.59,85.08 89.59,85.26 89.67,85.26 89.76,85.43 89.76,85.51 89.76,85.6 89.85,85.6 89.76,85.68 89.67,85.68 89.59,85.68 
	89.5,85.77 89.42,85.77 89.33,85.77 89.25,85.77 89.16,85.77 89.16,85.86 89.07,85.86 88.99,85.86 88.99,85.94 88.9,86.03 
	88.9,86.11 88.82,86.2 88.73,86.37 88.73,86.46 88.65,86.54 88.56,86.63 88.56,86.71 88.56,86.8 88.47,86.89 88.39,86.89 
	88.39,86.8 88.3,86.8 88.3,86.89 88.3,87.06 88.22,87.14 88.22,87.23 88.13,87.4 88.13,87.57 88.05,87.66 88.05,87.83 87.96,88.09 
	87.96,88.17 87.87,88.26 87.87,88.34 87.79,88.51 87.79,88.6 87.79,88.69 87.7,88.69 87.7,88.77 87.7,88.86 87.62,88.86 
	87.53,88.94 87.45,89.03 87.45,89.11 87.45,89.29 87.45,89.46 87.45,89.54 87.36,89.54 87.27,89.54 87.19,89.46 87.1,89.46 
	87.02,89.46 86.93,89.46 86.84,89.46 86.67,89.54 86.59,89.54 86.59,89.63 86.59,89.71 86.59,89.8 86.59,89.89 86.5,89.89 
	86.5,89.97 86.42,89.97 86.42,90.06 86.5,90.06 86.5,90.14 86.5,90.23 86.59,90.23 86.59,90.31 86.67,90.31 86.59,90.31 86.59,90.4 
	86.5,90.4 86.5,90.49 86.42,90.49 86.42,90.57 86.42,90.66 86.42,90.74 86.42,90.83 86.42,90.92 86.42,91 86.42,91.09 86.5,91.09 
	86.5,91.17 86.5,91.26 86.5,91.43 86.5,91.52 86.5,91.6 86.42,91.69 86.33,91.86 86.33,92.03 86.24,92.2 86.16,92.29 86.16,92.37 
	86.07,92.37 85.9,92.46 85.82,92.46 85.73,92.46 85.73,92.37 85.64,92.37 85.64,92.29 85.64,92.2 85.56,92.2 85.56,92.03 
	85.47,92.03 85.47,91.94 85.39,91.94 85.3,91.94 85.22,91.86 85.13,91.86 85.04,91.86 84.96,91.77 84.87,91.77 84.79,91.77 
	84.79,91.69 84.7,91.69 84.62,91.69 84.44,91.69 84.36,91.69 84.27,91.69 84.02,91.6 83.84,91.6 83.76,91.52 83.67,91.52 
	83.59,91.52 83.5,91.52 83.42,91.52 83.33,91.52 83.16,91.6 83.07,91.6 82.99,91.6 82.9,91.6 82.73,91.52 82.56,91.52 82.39,91.52 
	82.3,91.52 82.04,91.52 81.96,91.52 81.87,91.52 81.79,91.52 81.7,91.52 81.53,91.52 81.36,91.43 81.19,91.43 81.01,91.43 
	80.93,91.43 80.76,91.34 80.67,91.34 80.59,91.26 80.5,91.26 80.41,91.17 80.33,91.09 80.33,91 80.24,90.92 80.16,90.92 80.16,91 
	80.07,91 80.07,90.92 79.99,90.92 79.9,90.92 79.9,91 79.81,91 79.73,90.92 79.64,90.92 79.56,90.92 79.47,90.92 79.39,90.92 
	79.3,90.83 79.21,90.74 79.21,90.66 79.13,90.66 79.13,90.57 79.04,90.57 78.87,90.74 78.79,90.74 78.79,90.83 78.7,90.92 78.7,91 
	78.61,91.09 78.53,91.17 78.44,91.26 78.36,91.34 78.27,91.34 78.18,91.43 78.1,91.52 78.1,91.6 78.1,91.69 78.01,91.69 
	77.93,91.77 77.84,91.86 77.76,91.94 77.67,92.12 77.58,92.2 77.5,92.29 77.41,92.29 77.33,92.37 77.24,92.46 77.07,92.54 
	76.9,92.72 76.81,92.8 76.73,92.8 76.64,92.8 76.56,92.8 76.38,92.89 76.3,92.89 76.13,92.89 76.13,92.97 76.04,92.97 76.04,93.06 
	75.96,93.14 75.96,93.23 75.87,93.23 75.87,93.32 75.78,93.4 75.7,93.49 75.53,93.66 75.44,93.74 75.36,93.83 75.27,93.83 
	75.18,93.92 75.1,93.92 75.1,94 75.01,94 74.93,94 74.84,94.09 74.76,94.09 74.67,94.09 74.58,94.17 74.5,94.17 74.41,94.26 
	74.33,94.26 74.24,94.34 74.24,94.43 74.15,94.43 74.07,94.52 74.07,94.6 73.98,94.6 73.9,94.6 73.81,94.6 73.81,94.69 73.73,94.69 
	73.73,94.77 73.64,94.77 73.55,94.86 73.47,94.86 73.38,94.94 73.3,94.94 73.21,94.94 73.13,94.94 73.04,94.86 72.95,94.86 
	72.87,94.77 72.78,94.77 72.7,94.77 72.61,94.77 72.61,94.86 72.53,94.86 72.53,94.77 72.44,94.77 72.35,94.77 72.35,94.69 
	72.35,94.6 72.27,94.6 72.18,94.6 72.1,94.6 72.1,94.52 72.01,94.52 71.93,94.52 71.84,94.52 71.84,94.6 71.75,94.6 71.75,94.69 
	71.67,94.69 71.58,94.6 71.58,94.52 71.5,94.43 71.41,94.52 71.33,94.52 71.33,94.6 71.24,94.6 71.15,94.52 71.15,94.43 
	71.15,94.34 71.07,94.34 70.98,94.26 70.9,94.17 70.81,94.17 70.81,94.09 70.73,94 70.64,94 70.64,93.92 70.55,93.92 70.55,93.83 
	70.47,93.83 70.38,93.74 70.3,93.66 70.3,93.57 70.21,93.49 70.21,93.4 70.21,93.32 70.21,93.23 70.12,93.14 70.12,93.06 
	70.12,92.97 70.04,92.97 70.04,92.89 69.95,92.89 69.95,92.8 69.87,92.8 69.78,92.8 69.78,92.72 69.78,92.63 69.78,92.54 
	69.7,92.54 69.7,92.63 69.61,92.63 69.52,92.54 69.52,92.63 69.52,92.72 69.52,92.8 69.44,92.89 69.44,92.97 69.44,93.06 
	69.35,93.06 69.35,93.14 69.27,93.23 69.18,93.32 69.1,93.4 69.01,93.4 69.01,93.49 68.92,93.57 68.84,93.66 68.75,93.74 
	68.67,93.83 68.58,93.83 68.5,93.83 68.41,93.83 68.32,93.83 68.15,93.92 68.07,93.92 67.98,93.92 67.9,93.92 67.72,93.92 
	67.64,93.92 67.64,94 67.47,94 67.38,94 67.3,94.09 67.21,94.09 67.12,94.09 67.04,94.09 66.95,94.17 66.87,94.17 66.78,94.17 
	66.7,94.17 66.7,94.26 66.61,94.34 66.61,94.43 66.61,94.52 66.52,94.52 66.44,94.52 66.27,94.52 66.18,94.52 66.1,94.52 66.1,94.6 
	66.1,94.69 66.01,94.77 65.92,94.77 65.92,94.69 65.84,94.69 65.84,94.77 65.75,94.77 65.67,94.77 65.67,94.69 65.58,94.69 
	65.58,94.77 65.49,94.77 65.49,94.86 65.41,94.86 65.41,94.94 65.32,94.94 65.24,94.94 65.24,95.03 65.15,95.03 65.07,95.03 
	64.98,95.03 64.81,95.03 64.72,95.03 64.64,95.12 64.55,95.12 64.47,95.12 64.38,95.12 64.29,95.12 64.21,95.2 64.12,95.2 
	64.12,95.29 64.04,95.29 63.95,95.29 63.95,95.37 63.87,95.46 63.87,95.55 63.78,95.55 63.78,95.46 63.69,95.46 63.61,95.46 
	63.52,95.46 63.44,95.37 63.35,95.37 63.27,95.46 63.18,95.37 63.09,95.46 63.01,95.46 62.92,95.55 62.84,95.55 62.75,95.46 
	62.67,95.55 62.49,95.55 62.41,95.55 62.41,95.63 62.32,95.63 62.24,95.63 62.24,95.55 62.15,95.55 62.15,95.46 62.07,95.46 
	62.07,95.55 61.98,95.46 61.89,95.46 61.81,95.37 61.72,95.37 61.64,95.37 61.64,95.46 61.55,95.46 61.46,95.55 61.38,95.63 
	61.29,95.63 61.29,95.72 61.21,95.72 61.21,95.8 61.21,95.89 61.12,95.89 61.12,95.8 61.04,95.8 61.04,95.72 60.95,95.63 
	60.95,95.55 60.86,95.55 60.86,95.46 60.78,95.37 60.78,95.29 60.78,95.2 60.69,95.2 60.69,95.12 60.61,95.03 60.61,94.94 
	60.61,94.86 60.52,94.86 60.44,94.86 60.35,94.86 60.26,94.86 60.18,94.86 60.18,94.94 60.09,94.94 60.09,95.03 60.09,95.12 
	60.01,95.12 59.92,95.12 59.92,95.2 59.92,95.29 59.92,95.37 59.92,95.46 59.84,95.46 59.84,95.55 59.75,95.55 59.75,95.63 
	59.66,95.63 59.66,95.72 59.58,95.72 59.49,95.72 59.41,95.63 59.32,95.63 59.32,95.72 59.24,95.72 59.15,95.72 59.06,95.63 
	59.06,95.55 58.98,95.55 58.98,95.63 58.98,95.72 58.89,95.72 58.89,95.63 58.81,95.63 58.81,95.55 58.72,95.55 58.64,95.55 
	58.55,95.55 58.46,95.55 58.38,95.46 58.29,95.37 58.21,95.37 58.12,95.37 58.12,95.46 58.04,95.55 57.95,95.55 57.95,95.46 
	57.86,95.46 57.78,95.55 57.69,95.55 57.61,95.55 57.52,95.55 57.43,95.46 57.35,95.46 57.35,95.55 57.26,95.63 57.26,95.72 
	57.18,95.8 57.09,95.8 57.01,95.8 56.92,95.8 56.83,95.8 56.83,95.89 56.92,95.97 57.01,95.97 56.92,96.06 56.83,96.06 56.75,96.06 
	56.66,96.06 56.58,96.15 56.49,96.15 56.49,96.23 56.49,96.32 56.49,96.4 56.41,96.4 56.32,96.4 56.32,96.49 56.23,96.49 
	56.23,96.4 56.15,96.4 56.06,96.4 55.98,96.4 55.89,96.32 55.81,96.32 55.72,96.23 55.63,96.23 55.55,96.23 55.55,96.32 
	55.46,96.32 55.46,96.23 55.38,96.23 55.29,96.23 55.21,96.23 55.21,96.15 55.21,96.06 55.12,96.06 55.12,95.97 55.12,95.89 
	55.03,95.89 54.95,95.89 54.86,95.97 54.86,96.06 54.86,96.15 54.78,96.15 54.69,96.23 54.78,96.23 54.78,96.32 54.78,96.4 
	54.78,96.49 54.69,96.57 54.61,96.57 54.61,96.66 54.52,96.57 54.43,96.57 54.43,96.49 54.35,96.4 54.35,96.32 54.35,96.23 
	54.26,96.23 54.18,96.23 54.18,96.15 54.09,96.06 54.09,95.97 54.09,95.89 54.09,95.8 54.09,95.72 54.09,95.63 54.09,95.55 
	54.09,95.46 54.09,95.29 54.09,95.2 54.09,95.12 54.01,95.12 53.92,95.12 53.83,95.12 53.83,95.03 53.75,95.03 53.66,95.03 
	53.58,95.03 53.49,95.03 53.49,94.94 53.41,94.94 53.41,94.86 53.32,94.86 53.23,94.86 53.23,94.77 53.15,94.69 53.15,94.6 
	53.06,94.6 53.06,94.52 52.98,94.52 52.89,94.52 52.8,94.52 52.72,94.52 52.72,94.43 52.63,94.43 52.55,94.34 52.55,94.26 
	52.46,94.26 52.46,94.17 52.55,94.17 52.55,94.09 52.55,94 52.46,94 52.46,93.92 52.46,93.83 52.46,93.74 52.38,93.74 52.29,93.66 
	52.38,93.66 52.38,93.57 52.38,93.49 52.29,93.4 52.29,93.32 52.29,93.14 52.29,93.06 52.38,92.97 52.46,92.89 52.46,92.8 
	52.55,92.72 52.55,92.63 52.46,92.46 52.46,92.37 52.46,92.29 52.46,92.2 52.38,92.2 52.29,92.2 52.29,92.12 52.2,92.12 52.2,92.03 
	52.2,91.94 52.12,91.94 52.12,91.86 52.2,91.77 52.2,91.69 52.2,91.6 52.2,91.52 52.12,91.43 52.12,91.34 52.03,91.34 51.95,91.34 
	51.86,91.34 51.78,91.34 51.69,91.26 51.6,91.26 51.6,91.17 51.52,91.17 51.52,91.09 51.43,91 51.43,90.92 51.43,90.83 51.43,90.74 
	51.43,90.66 51.43,90.57 51.52,90.4 51.52,90.31 51.43,90.14 51.52,90.14 51.6,90.06 51.6,89.97 51.6,89.89 51.69,89.89 51.69,89.8 
	51.78,89.8 51.78,89.71 51.78,89.63 51.86,89.63 51.95,89.63 51.95,89.54 51.95,89.46 51.86,89.46 51.95,89.37 51.95,89.29 
	51.95,89.2 51.95,89.03 51.95,88.94 51.95,88.86 51.95,88.69 51.86,88.6 51.86,88.51 51.86,88.43 51.95,88.43 51.86,88.34 
	51.78,88.26 51.78,88.17 51.69,88.17 51.6,88.17 51.6,88.26 51.52,88.26 51.35,88.34 51.26,88.34 51.26,88.43 51.18,88.43 
	51.09,88.34 51,88.34 50.92,88.26 50.83,88.26 50.83,88.34 50.75,88.34 50.66,88.26 50.58,88.26 50.58,88.34 50.49,88.34 
	50.4,88.26 50.4,88.17 50.32,88.09 50.32,88 50.32,87.91 50.23,87.83 50.15,87.83 50.15,87.74 50.15,87.66 50.06,87.66 49.98,87.66 
	49.89,87.66 49.89,87.57 49.8,87.57 49.8,87.49 49.8,87.4 49.8,87.31 49.8,87.23 49.8,87.06 49.72,87.06 49.72,86.97 49.63,86.89 
	49.55,86.8 49.55,86.71 49.55,86.63 49.46,86.54 49.46,86.46 49.37,86.37 49.29,86.37 49.2,86.37 49.12,86.37 49.12,86.28 
	49.03,86.2 48.95,86.2 48.95,86.11 48.95,86.03 48.86,85.94 48.77,85.86 48.69,85.86 48.69,85.77 48.6,85.77 48.52,85.77 
	48.43,85.77 48.43,85.68 48.43,85.6 48.35,85.6 48.35,85.68 48.26,85.68 48.17,85.6 48.09,85.6 48,85.6 47.92,85.6 47.83,85.6 
	47.75,85.6 47.75,85.68 47.66,85.68 47.66,85.6 47.57,85.6 47.49,85.51 47.49,85.43 47.57,85.43 47.57,85.34 47.49,85.34 
	47.49,85.26 47.49,85.17 47.4,85.17 47.4,85.08 47.4,85 47.32,85 47.32,84.91 47.32,84.83 47.23,84.74 47.23,84.66 47.23,84.57 
	47.23,84.48 47.23,84.4 47.32,84.31 47.32,84.23 47.32,84.14 47.23,84.14 47.23,84.06 47.15,83.97 47.15,83.88 47.15,83.8 
	47.15,83.71 47.15,83.63 47.06,83.54 47.06,83.46 47.06,83.37 47.06,83.28 46.97,83.28 46.97,83.2 46.89,83.2 46.89,83.11 
	46.8,83.11 46.8,83.03 46.8,82.94 46.89,82.94 46.8,82.94 46.72,82.86 46.55,82.51 46.46,82.51 46.46,82.43 46.46,82.34 
	46.46,82.26 46.46,82.17 46.46,82.08 46.46,82 46.46,81.91 46.37,81.91 46.29,81.91 46.2,81.91 46.12,81.91 46.12,81.83 
	46.03,81.83 45.95,81.74 45.86,81.74 45.86,81.66 45.77,81.66 45.69,81.57 45.6,81.48 45.52,81.48 45.43,81.4 45.35,81.4 
	45.26,81.31 45.17,81.31 45.17,81.23 45.17,81.14 45.26,81.05 45.26,80.97 45.26,80.88 45.17,80.8 45.17,80.71 45.09,80.63 
	45.17,80.54 45.17,80.45 45.09,80.37 45.09,80.28 45,80.28 45,80.2 45.09,80.2 45.09,80.11 45.09,80.03 45.09,79.94 45,79.94 
	45,79.85 45,79.77 45,79.68 45,79.6 45,79.51 45,79.43 45,79.34 45,79.25 45,79.17 45,79.08 45,79 45,78.91 45,78.83 45,78.74 
	44.92,78.74 44.83,78.65 44.83,78.57 44.74,78.48 44.66,78.4 44.57,78.31 44.57,78.23 44.57,78.14 44.57,78.05 44.49,78.05 
	44.4,78.05 44.4,78.14 44.32,78.23 44.23,78.23 44.14,78.23 44.06,78.23 43.97,78.31 43.89,78.31 43.8,78.23 43.72,78.23 
	43.63,78.14 43.54,78.05 43.46,77.97 43.46,77.88 43.37,77.88 43.37,77.8 43.29,77.8 43.2,77.8 43.12,77.71 43.12,77.63 
	43.03,77.63 42.94,77.54 42.86,77.54 42.77,77.45 42.69,77.45 42.6,77.45 42.52,77.45 42.43,77.45 42.34,77.45 42.26,77.45 
	42.17,77.45 42.09,77.45 42,77.45 41.92,77.37 41.83,77.37 41.83,77.45 41.74,77.45 41.66,77.54 41.66,77.45 41.57,77.45 
	41.57,77.28 41.49,77.28 41.49,77.2 41.4,77.2 41.32,77.2 41.32,77.11 41.23,77.02 41.14,77.02 41.14,76.94 41.06,76.85 
	40.97,76.85 40.97,76.77 40.89,76.77 40.8,76.77 40.71,76.77 40.63,76.77 40.63,76.68 40.54,76.68 40.46,76.6 40.46,76.51 
	40.46,76.42 40.46,76.34 40.37,76.17 40.37,76.08 40.37,76 40.29,75.91 40.2,75.82 40.2,75.74 40.2,75.65 40.11,75.57 40.03,75.48 
	39.94,75.48 39.94,75.57 39.86,75.57 39.77,75.57 39.77,75.48 39.69,75.48 39.6,75.4 39.51,75.4 39.51,75.31 39.43,75.22 
	39.43,75.14 39.34,75.05 39.26,74.97 39.26,74.88 39.17,74.88 39.09,74.8 39,74.8 38.91,74.71 38.83,74.71 38.83,74.8 38.74,74.8 
	38.74,74.71 38.66,74.71 38.66,74.62 38.57,74.54 38.57,74.45 38.49,74.37 38.4,74.28 38.4,74.2 38.31,74.2 38.23,74.11 
	38.14,74.11 38.06,74.11 37.97,74.2 37.89,74.2 37.89,74.28 37.8,74.28 37.71,74.28 37.63,74.28 37.63,74.2 37.54,74.2 37.46,74.11 
	37.37,74.02 37.29,73.94 37.2,73.85 37.2,73.77 37.11,73.68 37.03,73.68 37.03,73.6 36.94,73.51 36.86,73.51 36.77,73.42 
	36.77,73.34 36.77,73.25 36.69,73.25 36.6,73.25 36.51,73.25 36.43,73.25 36.34,73.17 36.26,73.17 36.17,73.17 36.08,73.17 
	36,73.17 36,73.08 36,73 35.91,73 35.83,73 35.74,73 35.74,72.91 35.66,72.91 35.66,72.82 35.66,72.74 35.66,72.65 35.66,72.57 
	35.57,72.57 35.57,72.48 35.48,72.48 35.4,72.48 35.31,72.48 35.23,72.48 35.14,72.39 35.14,72.31 35.06,72.22 34.97,72.22 
	34.88,72.14 34.8,72.14 34.8,72.22 34.71,72.22 34.63,72.14 34.63,72.05 34.54,72.05 34.54,71.97 34.46,71.88 34.46,71.79 
	34.37,71.79 34.28,71.71 34.28,71.62 34.2,71.54 34.11,71.54 34.03,71.37 34.03,71.28 33.86,71.28 33.77,71.19 33.68,71.11 
	33.68,71.02 33.6,70.94 33.51,70.85 33.43,70.85 33.26,71.02 33.17,70.94 33.08,70.94 33.08,70.85 33,70.77 32.91,70.77 
	32.83,70.77 32.83,70.68 32.65,70.59 32.57,70.51 32.57,70.42 32.48,70.34 32.48,70.25 32.4,70.25 32.31,70.25 32.23,70.25 
	32.14,70.17 32.14,70.08 32.05,69.99 31.97,69.99 31.97,69.91 31.97,69.82 31.97,69.57 31.88,69.48 31.88,69.39 31.88,69.31 
	31.88,69.22 31.88,69.14 31.8,69.14 31.71,69.14 31.63,69.14 31.54,69.14 31.45,69.22 31.37,69.22 31.28,69.31 31.28,69.22 
	31.2,69.22 31.11,69.22 31.03,69.22 31.03,69.14 31.03,69.05 30.94,69.05 30.85,68.97 30.85,68.88 30.77,68.79 30.77,68.71 
	30.68,68.71 30.6,68.62 30.51,68.62 30.43,68.45 30.34,68.45 30.25,68.45 30.25,68.37 30.17,68.37 30.17,68.28 30.08,68.28 
	30.08,68.37 30,68.37 29.91,68.37 29.91,68.28 29.83,68.28 29.83,68.19 29.74,68.11 29.65,68.11 29.57,68.02 29.4,67.85 
	29.31,67.85 29.23,67.85 29.14,67.85 29.14,67.76 29.05,67.76 29.05,67.68 28.97,67.68 28.88,67.59 28.88,67.51 28.8,67.42 
	28.71,67.34 28.63,67.34 28.63,67.25 28.63,67.16 28.63,67.08 28.54,67.08 28.54,67.16 28.45,67.25 28.37,67.25 28.28,67.25 
	28.2,67.25 28.11,67.16 28.02,67.16 27.94,67.16 27.85,67.25 27.77,67.25 27.68,67.16 27.6,67.16 27.51,67.16 27.51,67.08 
	27.51,66.99 27.34,66.91 27.25,66.82 27.17,66.74 27.08,66.74 27.08,66.65 27,66.56 27,66.48 26.91,66.48 26.91,66.39 26.91,66.22 
	26.91,66.14 26.91,66.05 26.91,65.96 26.82,65.96 26.82,65.88 26.82,65.79 26.82,65.71 26.74,65.71 26.74,65.62 26.74,65.54 
	26.82,65.45 26.82,65.36 26.74,65.28 26.82,65.19 26.82,65.11 26.82,65.02 26.82,64.94 26.82,64.85 26.82,64.76 26.82,64.68 
	26.82,64.59 26.91,64.59 26.91,64.51 26.91,64.42 26.82,64.42 26.82,64.34 26.82,64.25 26.74,64.08 26.65,64.16 26.65,64.25 
	26.65,64.34 26.57,64.34 26.57,64.42 26.48,64.42 26.4,64.42 26.31,64.42 26.22,64.42 26.14,64.42 26.05,64.42 25.97,64.42 
	25.97,64.51 25.88,64.51 25.88,64.42 25.88,64.34 25.88,64.25 25.97,64.16 25.88,64.08 25.88,63.99 25.8,63.99 25.8,63.91 
	25.8,63.82 25.71,63.82 25.62,63.82 25.54,63.82 25.54,63.74 25.45,63.74 25.37,63.65 25.37,63.56 25.37,63.48 25.37,63.31 
	25.28,63.22 25.28,63.13 25.28,63.05 25.11,62.88 25.02,62.79 24.94,62.71 24.94,62.53 24.94,62.45 25.02,62.36 25.02,62.28 
	25.02,62.11 25.02,61.93 24.94,61.93 24.94,61.85 24.85,61.85 24.77,61.85 24.68,61.85 24.6,61.85 24.6,61.76 24.51,61.76 
	24.51,61.68 24.51,61.59 24.51,61.51 24.51,61.42 24.51,61.33 24.6,61.25 24.6,61.16 24.51,61.08 24.42,60.91 24.42,60.82 
	24.34,60.82 24.25,60.65 24.17,60.65 23.99,60.73 23.91,60.73 23.82,60.73 23.82,60.65 23.82,60.56 23.74,60.48 23.65,60.39 
	23.57,60.31 23.48,60.22 23.39,60.13 23.39,60.05 23.31,59.79 23.31,59.71 23.31,59.62 23.22,59.62 23.22,59.53 23.22,59.45 
	23.22,59.36 23.14,59.36 23.05,59.36 23.05,59.28 23.05,59.19 22.97,59.19 22.88,59.1 22.79,59.1 22.79,59.02 22.71,58.93 
	22.71,58.85 22.79,58.85 22.71,58.85 22.71,58.76 22.71,58.68 22.71,58.59 22.71,58.5 22.71,58.42 22.71,58.33 22.62,58.33 
	22.62,58.25 22.54,58.25 22.45,58.16 22.45,58.08 22.45,57.99 22.45,57.82 22.45,57.56 22.45,57.48 22.45,57.39 22.37,57.39 
	22.28,57.39 22.28,57.3 22.19,57.3 22.11,57.3 22.11,57.22 22.11,57.13 22.11,57.05 22.02,56.62 22.02,56.53 21.94,56.45 
	21.94,56.36 21.94,56.19 21.94,56.1 21.94,56.02 21.85,55.93 21.85,55.85 21.77,55.85 21.68,55.93 21.59,56.02 21.59,56.1 
	21.51,56.19 21.42,56.19 21.34,56.19 21.25,56.19 21.17,56.1 21.08,56.1 20.99,56.1 20.82,56.1 20.74,56.1 20.65,56.19 20.57,56.28 
	20.57,56.36 20.48,56.36 20.39,56.36 20.31,56.36 20.31,56.28 20.31,56.19 20.31,56.1 20.31,56.02 20.31,55.93 20.31,55.85 
	20.31,55.76 20.31,55.68 20.22,55.68 20.22,55.59 20.22,55.5 20.22,55.42 20.14,55.42 20.14,55.33 20.14,55.25 20.05,55.16 
	20.05,55.08 20.14,55.08 20.14,54.99 20.14,54.9 20.22,54.9 20.22,54.82 20.14,54.82 20.22,54.82 20.22,54.73 20.14,54.73 
	20.14,54.65 20.22,54.56 20.22,54.48 20.22,54.39 20.22,54.3 20.22,54.22 20.22,54.13 20.31,54.05 20.22,53.96 20.22,53.87 
	20.14,53.87 20.14,53.79 20.05,53.79 19.96,53.79 19.88,53.79 19.88,53.7 19.79,53.62 19.79,53.53 19.71,53.45 19.62,53.36 
	19.62,53.27 19.54,53.27 19.54,53.19 19.45,53.1 19.45,53.02 19.36,53.02 19.36,52.93 19.28,52.85 19.28,52.76 19.28,52.67 
	19.28,52.59 19.19,52.59 19.19,52.5 19.11,52.5 19.19,52.42 19.19,52.33 19.19,52.25 19.11,52.25 19.02,52.25 18.94,52.25 
	18.94,52.16 18.94,52.07 18.85,52.07 18.76,51.99 18.68,51.99 18.59,51.99 18.59,51.9 18.59,51.82 18.51,51.82 18.42,51.82 
	18.34,51.73 18.25,51.65 18.25,51.56 18.16,51.56 18.16,51.47 18.08,51.39 18.08,51.3 17.99,51.3 17.91,51.3 17.82,51.3 
	17.74,51.22 17.74,51.13 17.65,51.13 17.65,51.05 17.56,51.05 17.48,50.96 17.39,50.96 17.31,50.96 17.31,50.87 17.31,50.79 
	17.22,50.79 17.14,50.79 17.05,50.7 16.96,50.62 16.88,50.53 16.79,50.45 16.71,50.45 16.62,50.36 16.54,50.36 16.54,50.27 
	16.45,50.27 16.45,50.19 16.36,50.19 16.36,50.1 16.36,50.02 16.28,50.02 16.28,49.93 16.19,49.93 16.19,49.84 16.11,49.76 
	16.11,49.67 16.02,49.67 15.93,49.67 15.85,49.67 15.85,49.59 15.76,49.59 15.68,49.5 15.76,49.5 15.76,49.42 15.76,49.33 
	15.76,49.24 15.68,49.16 15.68,49.07 15.59,48.99 15.59,48.9 15.59,48.82 15.59,48.73 15.51,48.64 15.51,48.56 15.59,48.56 
	15.59,48.47 15.51,48.47 15.42,48.47 15.42,48.39 15.33,48.3 15.25,48.3 15.25,48.22 15.25,48.13 15.16,48.13 15.08,48.13 
	15.08,48.04 15.08,47.96 14.99,47.87 14.91,47.87 14.82,47.87 14.73,47.87 14.65,47.87 14.65,47.79 14.56,47.79 14.48,47.7 
	14.48,47.62 14.39,47.44 14.39,47.36 14.31,47.36 14.22,47.36 14.13,47.36 14.13,47.44 14.05,47.53 13.96,47.53 13.96,47.62 
	13.88,47.53 13.79,47.44 13.71,47.44 13.62,47.44 13.62,47.36 13.62,47.27 13.62,47.19 13.62,47.1 13.53,47.02 13.45,46.93 
	13.36,46.93 13.36,46.84 13.28,46.76 13.28,46.67 13.28,46.59 13.28,46.5 13.19,46.5 13.11,46.5 13.02,46.5 13.02,46.42 
	13.02,46.33 12.93,46.33 12.85,46.33 12.85,46.24 12.76,46.16 12.76,46.07 12.85,46.07 12.85,45.99 12.76,45.9 12.68,45.9 
	12.68,45.82 12.68,45.73 12.68,45.64 12.59,45.64 12.59,45.56 12.59,45.47 12.51,45.47 12.42,45.39 12.33,45.39 12.33,45.3 
	12.33,45.04 12.25,45.04 12.25,44.96 12.25,44.87 12.25,44.79 12.25,44.61 12.25,44.53 12.25,44.44 12.25,44.36 12.16,44.36 
	12.16,44.27 12.08,44.27 12.08,44.19 11.99,44.19 11.91,44.19 11.82,44.27 11.73,44.19 11.65,44.1 11.65,44.01 11.65,43.93 
	11.65,43.84 11.56,43.76 11.56,43.67 11.56,43.59 11.48,43.5 11.48,43.41 11.39,43.41 11.39,43.33 11.39,43.16 11.39,43.07 
	11.3,42.99 11.22,42.99 11.13,42.9 11.05,42.81 10.96,42.73 10.88,42.64 10.88,42.56 10.79,42.56 10.7,42.47 10.62,42.39 
	10.62,42.3 10.53,42.3 10.45,42.3 10.45,42.21 10.36,42.21 10.28,42.21 10.28,42.13 10.28,42.04 10.28,41.96 10.19,41.96 
	10.19,41.87 10.19,41.79 10.19,41.7 10.1,41.61 10.1,41.53 10.02,41.44 9.93,41.36 9.93,41.27 10.02,41.27 10.1,41.19 10.1,41.1 
	10.19,41.1 10.28,41.1 10.28,41.01 10.28,40.93 10.28,40.84 10.36,40.84 10.45,40.84 10.45,40.76 10.53,40.76 10.53,40.67 
	10.53,40.58 10.53,40.5 10.53,40.41 10.53,40.33 10.53,40.24 10.62,40.16 10.62,40.07 10.62,39.98 10.53,39.9 10.45,39.81 
	10.45,39.73 10.36,39.73 10.36,39.64 10.28,39.64 10.19,39.64 10.19,39.56 10.1,39.47 10.02,39.38 9.93,39.38 9.85,39.3 9.85,39.21 
	9.76,39.13 9.76,39.04 9.68,39.04 9.59,38.96 9.5,38.87 9.42,38.87 9.33,38.78 9.33,38.7 9.25,38.7 9.25,38.61 9.25,38.53 
	9.16,38.53 9.16,38.44 9.16,38.36 9.16,38.27 9.25,38.27 9.25,38.18 9.33,38.18 9.33,38.1 9.33,38.01 9.42,38.01 9.5,38.01 
	9.59,38.01 9.68,38.01 9.68,37.93 9.76,37.84 9.76,37.76 9.85,37.67 9.85,37.58 9.93,37.5 9.93,37.41 10.02,37.41 10.02,37.33 
	10.1,37.33 10.1,37.24 10.1,37.16 10.1,37.07 10.1,36.98 10.02,36.98 10.02,36.9 9.93,36.9 9.85,36.81 9.76,36.73 9.76,36.64 
	9.76,36.55 9.76,36.38 9.76,36.3 9.76,36.21 9.85,36.13 9.85,36.04 9.85,35.95 9.76,35.95 9.76,35.87 9.68,35.95 9.59,35.87 
	9.5,35.78 9.42,35.78 9.33,35.78 9.25,35.7 9.25,35.61 9.16,35.53 9.08,35.53 9.08,35.44 9.08,35.35 9.16,35.35 9.16,35.27 
	9.25,35.18 9.25,35.1 9.25,35.01 9.25,34.93 9.25,34.84 9.33,34.75 9.33,34.67 9.33,34.58 9.25,34.58 9.25,34.5 9.16,34.5 
	9.08,34.5 8.99,34.41 8.9,34.33 8.9,34.24 8.82,34.15 8.73,34.15 8.65,34.07 8.65,34.15 8.56,34.15 8.48,34.07 8.48,33.98 
	8.39,33.98 8.3,33.9 8.22,33.9 8.22,33.81 8.13,33.81 8.13,33.73 8.13,33.64 8.13,33.55 8.13,33.47 8.13,33.38 8.13,33.3 
	8.13,33.21 8.13,33.13 8.13,33.04 8.13,32.95 8.22,32.95 8.22,32.87 8.22,32.78 8.22,32.7 8.22,32.61 8.22,32.53 8.3,32.44 
	8.3,32.35 8.3,32.27 8.3,32.18 8.22,32.18 8.22,32.1 8.3,32.01 8.3,31.84 8.39,31.84 8.39,31.75 8.48,31.75 8.56,31.75 8.56,31.67 
	8.65,31.58 8.73,31.58 8.82,31.58 8.9,31.58 8.9,31.5 8.9,31.41 8.9,31.32 8.99,31.24 9.08,31.15 9.08,31.07 9.16,30.98 9.25,30.9 
	9.25,30.81 9.33,30.81 9.42,30.72 9.33,30.72 9.25,30.64 9.25,30.55 9.16,30.55 9.08,30.55 9.08,30.47 8.99,30.47 8.99,30.38 
	8.9,30.3 8.82,30.21 8.73,30.12 8.73,30.04 8.73,29.95 8.73,29.87 8.65,29.78 8.56,29.78 8.56,29.7 8.48,29.7 8.48,29.61 
	8.48,29.52 8.48,29.44 8.39,29.44 8.39,29.35 8.3,29.27 8.3,29.1 8.22,29.1 8.22,29.01 8.13,29.01 8.05,29.1 7.96,29.1 7.96,29.01 
	7.88,29.01 7.88,28.92 7.88,28.84 7.88,28.75 7.79,28.75 7.79,28.67 7.7,28.67 7.7,28.58 7.62,28.58 7.53,28.58 7.45,28.58 
	7.45,28.5 7.36,28.5 7.27,28.5 7.27,28.41 7.27,28.32 7.27,28.24 7.19,28.24 7.1,28.15 7.02,28.15 7.02,28.07 6.93,28.07 
	6.93,27.98 7.02,27.9 6.93,27.81 7.02,27.72 7.02,27.64 7.02,27.55 6.93,27.55 6.85,27.47 6.85,27.38 6.93,27.38 6.93,27.3 
	6.85,27.3 6.85,27.21 6.93,27.21 6.93,27.12 6.93,27.04 6.93,26.95 7.02,26.95 7.02,26.87 7.02,26.78 7.1,26.78 7.1,26.69 
	7.19,26.61 7.19,26.52 7.19,26.44 7.19,26.35 7.27,26.35 7.27,26.27 7.36,26.27 7.36,26.18 7.45,26.18 7.45,26.09 7.36,26.01 
	7.27,26.01 7.19,25.92 7.19,25.84 7.19,25.75 7.19,25.58 7.27,25.49 7.27,25.41 7.27,25.32 7.36,25.32 7.36,25.24 7.53,25.24 
	7.62,25.24 7.62,25.15 7.7,25.15 7.7,25.07 7.79,25.07 7.79,24.98 7.7,24.98 7.7,24.89 7.79,24.89 7.79,24.81 7.79,24.72 
	7.79,24.64 7.88,24.55 7.96,24.55 8.05,24.47 8.05,24.38 8.13,24.38 8.13,24.29 8.13,24.21 8.05,24.21 8.13,24.21 8.13,24.12 
	8.22,24.12 8.3,24.12 8.3,24.04 8.39,24.04 8.39,23.95 8.39,23.87 8.39,23.69 8.3,23.61 8.22,23.52 8.13,23.52 8.13,23.44 
	8.13,23.35 8.13,23.27 8.22,23.27 8.22,23.18 8.22,23.09 8.22,23.01 8.22,22.92 8.22,22.84 8.13,22.75 8.05,22.75 8.05,22.66 
	7.96,22.66 7.88,22.58 7.88,22.49 7.79,22.49 7.79,22.41 7.7,22.41 7.7,22.32 7.79,22.32 7.79,22.24 7.88,22.15 7.79,22.15 
	7.79,22.06 7.7,22.06 7.7,21.98 7.62,21.89 7.7,21.81 7.7,21.72 7.79,21.64 7.7,21.55 7.7,21.46 7.7,21.38 7.62,21.38 7.62,21.29 
	7.62,21.21 7.7,21.21 7.79,21.21 7.79,21.12 7.88,21.12 7.96,21.12 8.05,21.12 8.05,21.21 8.13,21.21 8.22,21.21 8.3,21.12 
	8.39,21.12 8.39,21.21 8.48,21.21 8.56,21.21 8.56,21.29 8.56,21.38 8.65,21.38 8.65,21.46 8.65,21.55 8.73,21.55 8.73,21.64 
	8.82,21.72 8.9,21.72 8.99,21.72 9.08,21.72 9.08,21.81 9.16,21.81 9.25,21.81 9.33,21.81 9.33,21.89 9.42,21.89 9.5,21.89 
	9.59,21.89 9.59,21.81 9.68,21.81 9.76,21.81 9.76,21.89 9.85,21.89 9.93,21.89 9.93,21.81 10.1,21.72 10.19,21.72 10.28,21.72 
	10.28,21.64 10.36,21.64 10.45,21.72 10.53,21.72 10.62,21.72 10.62,21.64 10.62,21.55 10.62,21.46 10.62,21.38 10.62,21.29 
	10.62,21.21 10.62,21.12 10.7,21.12 10.79,21.04 10.79,20.95 10.88,20.95 10.88,20.86 10.96,20.78 10.96,20.69 10.96,20.61 
	11.05,20.61 11.05,20.52 11.13,20.52 11.13,20.44 11.22,20.44 11.3,20.35 11.39,20.26 11.3,20.26 11.3,20.18 11.39,20.01 
	11.48,20.01 11.56,19.92 11.65,19.75 11.73,19.75 11.65,19.66 11.65,19.58 11.65,19.41 11.73,19.32 11.82,19.32 11.91,19.32 
	11.99,19.32 12.08,19.24 12.16,19.24 12.25,19.24 12.33,19.24 12.42,19.24 12.51,19.24 12.59,19.15 12.68,19.06 12.68,18.98 
	12.59,18.89 12.68,18.89 12.76,18.89 12.76,18.81 12.68,18.72 12.59,18.64 12.59,18.55 12.51,18.46 12.51,18.38 12.51,18.29 
	12.51,18.21 12.42,18.12 12.33,18.03 12.51,17.86 12.59,17.78 12.68,17.78 12.59,17.69 12.51,17.69 12.51,17.61 12.42,17.52 
	12.42,17.43 12.42,17.35 12.42,17.26 12.51,17.26 12.68,17.35 12.76,17.35 12.76,17.43 12.85,17.35 12.85,17.26 12.93,17.26 
	13.02,17.35 13.11,17.35 13.19,17.43 13.28,17.52 13.36,17.52 13.36,17.61 13.45,17.61 13.53,17.61 13.53,17.69 13.62,17.69 
	13.71,17.78 13.79,17.78 13.88,17.78 13.96,17.86 14.05,17.86 14.22,17.95 14.22,18.03 14.31,18.12 14.31,18.21 14.39,18.21 
	14.48,18.21 14.56,18.21 14.65,18.21 14.65,18.29 14.73,18.29 14.82,18.29 14.91,18.29 14.99,18.29 15.08,18.29 15.16,18.21 
	15.25,18.21 15.16,18.38 15.25,18.46 15.33,18.46 15.42,18.46 15.42,18.55 15.51,18.55 15.51,18.64 15.59,18.72 15.76,18.72 
	15.85,18.81 15.93,18.81 16.02,18.81 16.11,18.81 16.19,18.81 16.28,18.81 16.28,18.98 16.28,19.06 16.36,19.15 16.45,19.24 
	16.54,19.32 16.62,19.32 16.71,19.32 16.71,19.41 16.79,19.41 16.88,19.41 16.88,19.32 16.96,19.32 16.96,19.41 16.96,19.49 
	17.05,19.49 17.05,19.58 17.05,19.66 17.14,19.66 17.14,19.75 17.22,19.84 17.31,19.84 17.31,19.75 17.31,19.84 17.39,19.84 
	17.39,19.92 17.39,20.01 17.39,20.09 17.48,20.09 17.48,20.18 17.48,20.26 17.56,20.26 17.56,20.18 17.65,20.18 17.65,20.09 
	17.74,20.09 17.74,20.01 17.82,19.92 17.91,19.92 17.99,19.92 17.99,19.84 18.08,19.84 18.08,19.75 18.16,19.66 18.25,19.58 
	18.34,19.58 18.34,19.49 18.34,19.41 18.34,19.32 18.25,19.24 18.25,19.15 18.16,19.06 18.16,18.98 18.08,18.98 18.16,18.89 
	18.08,18.81 18.08,18.72 18.08,18.64 17.99,18.64 17.91,18.64 17.91,18.55 17.91,18.46 17.99,18.38 18.08,18.38 18.08,18.29 
	18.16,18.29 18.16,18.21 18.08,18.12 17.99,17.95 17.91,17.86 17.82,17.78 17.74,17.69 17.65,17.69 17.56,17.69 17.56,17.61 
	17.48,17.69 17.22,17.78 17.14,17.78 17.05,17.86 16.96,17.86 16.88,17.86 16.79,17.86 16.79,17.78 16.88,17.78 16.96,17.69 
	17.05,17.69 17.22,17.61 17.31,17.61 17.39,17.52 17.48,17.52 17.48,17.43 17.48,17.35 17.48,17.26 17.39,17.18 17.48,17.18 
	17.48,17.01 17.48,16.92 17.48,16.83 17.56,16.92 17.65,16.92 17.74,16.92 17.82,16.92 17.91,16.92 17.99,16.92 18.08,16.92 
	18.08,16.83 18.16,16.83 18.16,16.75 18.16,16.66 18.16,16.58 18.08,16.49 17.99,16.49 17.99,16.41 17.99,16.32 17.91,16.32 
	17.91,16.23 17.99,16.15 17.99,16.06 17.99,15.98 17.99,15.89 17.99,15.81 17.99,15.72 17.99,15.55 18.08,15.55 17.99,15.46 
	17.99,15.38 17.99,15.29 18.08,15.29 18.08,15.21 18.16,15.21 18.16,15.12 18.25,15.12 18.25,15.03 18.25,14.95 18.25,14.86 
	18.25,14.78 18.34,14.69 18.34,14.78 18.42,14.78 18.51,14.78 18.59,14.69 18.68,14.69 18.76,14.69 18.76,14.61 18.76,14.52 
	18.85,14.52 18.94,14.52 18.94,14.61 19.02,14.61 19.02,14.69 19.02,14.78 19.11,14.78 19.19,14.78 19.28,14.78 19.36,14.78 
	19.36,14.69 19.45,14.69 19.54,14.69 19.54,14.61 19.54,14.52 19.54,14.43 19.62,14.43 19.62,14.35 19.71,14.43 19.79,14.43 
	19.79,14.52 19.88,14.52 19.96,14.52 20.05,14.52 20.14,14.52 20.14,14.43 20.14,14.35 20.05,14.26 19.96,14.18 19.96,14.09 
	19.96,14.01 19.88,14.01 19.88,13.92 19.88,13.83 19.88,13.75 19.96,13.75 20.05,13.75 20.05,13.66 20.14,13.66 20.14,13.75 
	20.22,13.66 20.31,13.66 20.39,13.66 20.39,13.75 20.39,13.83 20.39,13.92 20.48,13.92 20.48,14.01 20.48,14.09 20.57,14.18 
	20.65,14.18 20.65,14.26 20.74,14.26 20.82,14.35 20.91,14.35 20.99,14.26 20.99,14.18 21.08,14.18 21.08,14.09 21.17,14.09 
	21.17,14.18 21.25,14.09 21.34,14.09 21.42,14.09 21.42,14.01 21.42,13.92 21.42,13.83 21.42,13.75 21.42,13.66 21.42,13.58 
	21.42,13.49 21.42,13.4 21.51,13.4 21.51,13.32 21.59,13.32 21.68,13.32 21.77,13.32 21.77,13.23 21.85,13.23 21.85,13.32 
	21.94,13.32 21.94,13.4 22.02,13.4 22.02,13.49 22.11,13.49 22.19,13.49 22.28,13.4 22.37,13.49 22.37,13.58 22.45,13.66 
	22.45,13.75 22.54,13.75 22.54,13.83 22.62,13.83 22.71,14.01 22.71,14.09 22.79,14.09 22.79,14.18 22.88,14.18 22.88,14.09 
	22.88,14.01 22.97,14.01 23.05,14.01 23.14,14.01 23.14,14.09 23.22,14.09 23.22,14.18 23.31,14.18 23.39,14.18 23.39,14.26 
	23.48,14.35 23.57,14.43 23.57,14.35 23.65,14.35 23.74,14.35 23.82,14.35 23.91,14.35 23.99,14.35 24.08,14.35 24.17,14.43 
	24.17,14.52 24.25,14.52 24.25,14.61 24.25,14.69 24.34,14.78 24.42,14.86 24.6,14.95 24.6,15.03 24.51,15.21 24.51,15.29 
	24.6,15.29 24.6,15.38 24.6,15.46 24.68,15.46 24.68,15.55 24.77,15.63 24.77,15.72 24.77,15.81 24.6,15.81 24.6,15.89 24.68,15.89 
	24.68,15.98 24.68,16.06 24.77,16.06 24.85,16.15 24.94,16.15 24.94,16.23 25.02,16.23 25.11,16.15 25.2,16.15 25.2,16.06 
	26.14,14.35 26.22,14.18 26.22,14.09 26.22,14.01 26.22,13.83 26.4,11.52 26.48,9.8 26.48,9.55 26.48,9.37 26.4,9.29 26.4,9.12 
	26.14,7.92 26.05,7.57 25.97,7.06 25.88,6.89 25.88,6.72 25.8,6.29 25.62,5.43 25.37,4.57 25.28,4.32 25.2,4.06 25.11,3.72 
	25.02,3.29 25.02,3.2 24.94,3.12 24.94,2.86 24.94,2.6 25.11,2.09 25.2,1.74 25.28,1.23 25.37,1.06 25.37,0.97 25.37,0.89 
	25.37,0.8 25.28,0.63 25.2,0.37 25.28,0.37 25.37,0.29 25.45,0.29 25.54,0.29 25.62,0.2 25.71,0.2 25.8,0.2 25.88,0.12 25.97,0.03 
	26.05,-0.06 26.14,-0.06 26.22,-0.06 26.31,-0.06 26.4,-0.06 26.48,0.03 26.48,0.12 26.48,0.2 26.57,0.29 26.57,0.37 26.65,0.46 
	26.65,0.54 26.65,0.63 26.65,0.72 26.74,0.72 26.82,0.72 26.91,0.72 27,0.72 27.08,0.72 27.17,0.72 27.25,0.72 27.34,0.8 
	27.42,0.89 27.51,0.89 27.6,0.89 27.68,0.89 27.68,0.8 27.77,0.72 27.85,0.8 27.94,0.8 28.02,0.89 28.2,0.97 28.28,1.06 28.37,1.06 
	28.45,1.06 28.54,1.06 28.54,1.14 28.45,1.14 28.37,1.23 28.37,1.32 28.37,1.4 28.28,1.4 28.28,1.49 28.28,1.57 28.37,1.66 
	28.45,1.66 28.54,1.66 28.63,1.66 28.71,1.57 28.71,1.49 28.8,1.49 28.8,1.4 28.88,1.4 28.97,1.32 29.05,1.23 29.05,1.14 
	29.14,1.06 29.23,1.06 29.31,1.14 29.4,1.23 29.48,1.23 29.48,1.32 29.57,1.32 29.57,1.4 29.57,1.49 29.65,1.49 29.65,1.57 
	29.74,1.57 29.74,1.66 29.74,1.74 29.74,1.83 29.83,1.92 29.83,2 29.83,2.09 29.83,2.17 29.83,2.26 29.83,2.34 29.83,2.43 
	29.91,2.43 29.91,2.52 30,2.52 30,2.6 30,2.69 30.08,2.77 30.08,2.86 30.17,3.03 30.17,3.12 30.25,3.12 30.34,3.12 30.43,3.12 
	30.43,3.2 30.51,3.29 30.51,3.37 30.51,3.46 30.6,3.54 30.6,3.63 30.68,3.72 30.68,3.8 30.77,3.89 30.77,3.97 30.85,4.06 
	30.94,4.14 31.03,4.23 31.03,4.32 31.11,4.32 31.2,4.4 31.2,4.49 31.28,4.49 31.37,4.57 31.37,4.66 31.45,4.75 31.45,4.83 
	31.54,4.83 31.63,4.92 31.63,5 31.71,5 31.71,5.09 31.8,5.17 31.8,5.26 31.88,5.26 31.88,5.35 31.97,5.35 31.97,5.43 31.97,5.52 
	32.05,5.6 32.05,5.69 32.14,5.69 32.14,5.77 32.14,5.86 32.23,5.86 32.23,5.95 32.31,5.95 32.31,6.03 32.31,6.12 32.4,6.2 
	32.4,6.29 32.48,6.37 32.57,6.46 32.65,6.55 32.65,6.63 32.74,6.72 32.83,6.72 32.91,6.8 33,6.8 33,6.89 33.08,6.97 33.17,7.06 
	33.17,7.15 33.08,7.15 33.08,7.23 33,7.23 32.91,7.23 32.91,7.32 32.91,7.4 33,7.4 33,7.49 33,7.57 33,7.66 32.91,7.66 32.83,7.66 
	32.74,7.66 32.74,7.75 32.65,7.75 32.57,7.75 32.57,7.66 32.48,7.66 32.4,7.57 32.31,7.49 32.23,7.49 32.14,7.49 32.14,7.57 
	32.14,7.66 32.05,7.75 32.14,7.83 32.14,7.92 32.31,8.09 32.4,8.09 32.48,8.17 32.57,8.17 32.65,8.17 32.74,8.26 32.83,8.35 
	32.91,8.35 32.91,8.43 33,8.43 33.17,8.43 33.26,8.43 33.34,8.52 33.43,8.52 33.43,8.6 33.51,8.6 33.51,8.69 33.51,8.77 33.6,8.86 
	33.68,8.95 33.77,8.95 33.86,9.03 33.94,9.03 34.03,9.03 34.03,8.95 34.2,8.86 34.28,8.86 34.37,8.86 34.46,8.95 34.46,9.03 
	34.54,9.12 34.63,9.2 34.71,9.29 34.8,9.29 34.88,9.29 34.88,9.37 34.88,9.46 34.88,9.55 34.8,9.55 34.8,9.63 34.8,9.72 34.71,9.8 
	34.71,9.89 34.71,9.98 34.71,10.06 34.71,10.15 34.8,10.15 34.8,10.23 34.88,10.32 34.88,10.4 34.88,10.49 34.8,10.49 34.71,10.58 
	34.8,10.58 34.8,10.66 34.8,10.75 34.71,10.75 34.63,10.83 34.63,10.92 34.71,10.92 34.8,10.92 34.8,11 34.88,11 34.97,11 
	34.97,11.09 35.06,11.09 35.06,11.18 35.06,11.26 35.14,11.26 35.23,11.26 35.31,11.26 35.31,11.35 35.4,11.35 35.4,11.43 
	35.48,11.52 35.57,11.52 35.57,11.6 35.66,11.6 35.66,11.69 35.74,11.69 35.74,11.78 35.83,11.78 35.83,11.86 35.91,11.86 
	35.91,11.95 35.91,12.03 35.91,12.12 36,12.12 36,12.2 36.08,12.29 36.08,12.38 36,12.46 36,12.55 36.08,12.55 36.17,12.63 
	36.26,12.63 36.34,12.72 36.43,12.8 36.51,12.8 36.51,12.89 36.6,13.06 36.69,13.06 36.69,13.15 36.69,13.23 36.77,13.32 
	36.86,13.32 36.86,13.4 36.94,13.4 36.94,13.49 37.03,13.58 37.03,13.66 37.03,13.75 37.11,13.75 37.11,13.83 37.2,13.92 
	37.29,13.92 37.37,14.01 37.37,14.09 37.46,14.09 37.54,14.18 37.54,14.26 37.63,14.26 37.63,14.35 37.71,14.43 37.71,14.52 
	37.8,14.61 37.89,14.69 37.97,14.78 37.97,14.86 38.06,14.95 38.06,15.03 38.14,15.03 38.14,15.12 38.23,15.12 38.23,15.21 
	38.31,15.21 38.31,15.29 38.31,15.38 38.31,15.46 38.31,15.55 38.31,15.63 38.4,15.63 38.4,15.72 38.49,15.72 38.57,15.63 
	38.66,15.55 38.74,15.55 38.83,15.55 38.83,15.63 38.91,15.63 38.91,15.72 39,15.72 39,15.81 39.09,15.81 39.17,15.89 39.26,15.89 
	39.34,15.98 39.51,16.06 39.69,16.23 39.77,16.32 39.86,16.32 39.86,16.41 39.94,16.41 40.03,16.41 40.11,16.49 40.11,16.58 
	40.2,16.58 40.2,16.66 40.29,16.66 40.29,16.75 40.29,16.83 40.37,16.83 40.37,16.92 40.46,17.01 40.54,17.09 40.54,17.18 
	40.63,17.26 40.71,17.35 40.8,17.43 40.8,17.52 40.89,17.61 40.89,17.69 40.89,17.78 40.97,17.78 40.97,17.86 41.06,17.95 
	41.06,18.03 41.06,18.12 41.14,18.29 41.23,18.38 41.23,18.46 41.23,18.55 41.23,18.64 41.23,18.72 41.14,18.81 41.14,18.89 
	41.14,18.98 41.06,18.98 41.06,19.06 41.06,19.15 41.06,19.24 41.14,19.24 41.23,19.24 41.32,19.24 41.32,19.32 41.4,19.32 
	41.49,19.32 41.57,19.32 41.66,19.32 41.74,19.32 41.83,19.41 41.92,19.49 42,19.49 42,19.58 42.09,19.49 42.17,19.49 42.26,19.58 
	42.26,19.66 42.34,19.66 42.43,19.75 42.43,19.84 42.43,19.92 42.43,20.01 42.43,20.09 42.43,20.18 42.52,20.18 42.52,20.26 
	42.6,20.26 42.6,20.35 42.6,20.44 42.69,20.52 42.77,20.52 42.77,20.61 42.86,20.69 42.94,20.61 43.03,20.61 43.03,20.52 
	43.12,20.52 43.2,20.52 43.29,20.52 43.37,20.52 43.46,20.52 43.54,20.44 43.63,20.44 43.72,20.44 43.72,20.35 43.8,20.35 
	43.89,20.35 43.97,20.44 44.06,20.44 44.14,20.52 44.23,20.52 44.32,20.52 44.4,20.61 44.4,20.69 44.4,20.86 44.4,20.95 44.4,21.04 
	44.49,21.12 44.49,21.21 44.49,21.29 44.57,21.38 44.57,21.46 44.66,21.64 44.66,21.72 44.74,21.72 44.74,21.89 44.83,22.06 
	44.83,22.15 44.74,22.24 44.74,22.32 44.74,22.41 44.74,22.49 44.74,22.58 44.83,22.66 44.83,22.75 44.92,22.84 45,22.92 
	45.09,22.92 45.09,23.01 45.17,23.09 45.17,23.18 45.17,23.27 45.09,23.27 45.09,23.35 45.17,23.44 45.26,23.44 45.26,23.52 
	45.35,23.52 45.35,23.61 45.43,23.61 45.52,23.69 45.52,23.78 45.6,23.78 45.6,23.87 45.69,23.87 "/>
</svg>
