<?xml version="1.0" encoding="utf-8"?>
<!-- Generator: Adobe Illustrator 24.2.1, SVG Export Plug-In . SVG Version: 6.00 Build 0)  -->
<svg version="1.1" id="Layer_1" xmlns="http://www.w3.org/2000/svg" xmlns:xlink="http://www.w3.org/1999/xlink" x="0px" y="0px"
	 viewBox="0 0 97.23 97.23" style="enable-background:new 0 0 97.23 97.23;" xml:space="preserve">
<style type="text/css">
	.st0{fill-rule:evenodd;clip-rule:evenodd;}
</style>
<polygon class="st0" points="91.77,2.19 91.6,2.53 91.6,2.7 91.77,2.87 91.77,3.04 91.77,3.21 91.77,3.56 91.77,3.73 91.94,3.9 
	91.94,4.24 91.94,4.41 91.94,4.75 91.94,4.92 91.94,5.09 91.94,5.27 91.94,5.44 91.94,5.61 91.94,5.78 91.94,5.95 92.11,5.95 
	92.11,6.12 92.11,6.29 92.11,6.46 92.11,6.63 92.11,6.8 92.11,6.97 92.11,7.15 92.11,7.32 92.11,7.49 92.28,7.66 92.28,7.83 
	92.45,8.17 92.45,8.34 92.62,8.68 92.62,8.86 92.62,9.2 92.79,9.37 92.79,9.54 92.79,9.71 92.96,9.88 92.96,10.05 92.96,10.22 
	92.96,10.39 93.13,10.74 93.13,10.91 93.13,11.25 93.31,11.59 93.31,11.93 93.31,12.27 93.31,12.45 93.31,12.79 93.13,13.13 
	93.13,13.64 92.96,14.33 92.79,14.5 92.79,14.67 92.79,15.01 92.62,15.35 92.62,15.69 92.62,16.04 92.62,16.21 92.62,16.38 
	92.45,16.55 92.45,16.72 92.62,17.4 92.45,17.75 92.45,18.09 92.62,18.43 92.62,18.77 92.62,18.94 92.62,19.11 92.62,19.28 
	92.45,19.45 92.45,19.63 92.45,19.8 92.45,19.97 92.62,20.14 92.62,20.31 92.62,20.48 92.62,20.65 92.62,20.82 92.62,20.99 
	92.79,20.99 92.79,21.16 92.79,21.34 92.79,21.51 92.62,21.51 92.62,21.68 92.45,21.85 92.45,22.02 92.45,22.19 92.45,22.53 
	92.45,22.7 92.45,23.04 92.45,23.22 92.45,23.39 92.45,23.56 92.62,23.56 92.62,23.73 92.79,23.9 92.79,24.07 92.62,24.24 
	92.62,24.41 92.62,24.58 92.62,24.75 92.62,24.93 92.79,25.1 92.79,25.27 92.96,25.27 92.96,25.44 92.96,25.27 93.13,25.27 
	93.31,25.1 93.31,25.27 93.31,25.44 93.13,25.61 93.13,25.78 92.96,25.78 92.96,25.95 92.96,26.12 92.96,26.29 93.13,26.46 
	92.96,26.63 92.96,26.81 92.96,26.98 93.13,27.32 93.13,27.49 92.96,27.83 92.96,28 93.13,28.34 93.13,28.52 92.96,29.03 
	92.96,29.37 92.96,29.71 92.96,30.22 92.96,30.74 92.96,30.91 92.96,31.25 93.13,31.42 93.13,31.76 93.13,32.11 93.13,32.45 
	93.13,32.62 93.13,32.79 93.13,32.96 93.13,33.3 93.13,33.47 93.31,33.64 93.31,33.81 93.31,33.99 93.48,34.16 93.31,34.33 
	93.31,34.5 93.31,34.67 93.48,34.84 93.48,35.18 93.48,35.35 93.48,35.52 93.65,35.7 93.82,35.7 93.99,35.7 93.99,35.87 
	93.82,35.87 93.65,35.87 93.48,35.87 93.31,36.04 93.13,36.04 92.96,36.04 93.13,35.87 92.96,35.87 92.79,35.87 92.62,35.87 
	92.79,35.87 92.79,35.7 92.62,35.7 92.45,35.7 92.45,35.52 92.28,35.35 92.11,35.35 91.94,35.35 91.77,35.52 91.6,35.52 91.6,35.35 
	91.6,35.18 91.6,35.01 91.43,35.01 91.43,35.18 91.43,35.01 91.43,34.84 91.43,34.67 91.43,34.5 91.43,34.67 91.25,34.67 
	91.08,34.67 91.08,34.84 90.91,34.84 90.74,34.84 90.91,34.84 90.74,35.01 90.74,35.18 90.91,35.01 90.91,35.18 90.91,35.35 
	90.91,35.52 91.08,35.35 91.08,35.52 90.91,35.52 90.91,35.7 91.08,35.7 90.91,35.7 90.91,35.87 91.08,35.87 91.08,36.04 
	91.25,36.21 91.43,36.21 91.6,36.38 91.43,36.38 91.6,36.55 91.6,36.72 91.77,36.72 91.77,36.89 91.77,37.06 91.6,37.06 91.6,37.23 
	91.6,37.4 91.77,37.4 91.77,37.23 91.77,37.4 91.77,37.58 91.6,37.75 91.77,37.75 91.6,37.92 91.6,38.09 91.77,38.09 91.77,38.26 
	91.77,38.43 91.6,38.43 91.6,38.6 91.6,38.77 91.77,38.77 91.77,38.94 91.77,39.11 91.6,39.11 91.77,39.11 91.77,39.29 91.6,39.29 
	91.6,39.46 91.6,39.63 91.6,39.8 91.6,39.97 91.6,40.14 91.6,40.31 91.77,40.31 91.6,40.31 91.6,40.48 91.6,40.65 91.77,40.48 
	91.77,40.65 91.94,40.65 92.11,40.65 92.11,40.82 92.11,40.65 92.28,40.65 92.28,40.82 92.28,40.99 92.28,40.82 92.28,40.65 
	92.45,40.65 92.45,40.82 92.62,40.82 92.45,40.82 92.45,40.99 92.45,41.17 92.45,41.34 92.62,41.34 92.45,41.34 92.45,41.51 
	92.45,41.68 92.45,41.85 92.45,41.68 92.62,41.68 92.79,41.68 92.79,41.85 92.79,42.02 92.96,42.02 93.13,42.02 93.13,42.19 
	93.13,42.36 93.31,42.36 93.31,42.53 93.31,42.7 93.13,42.7 93.13,42.88 93.31,42.88 93.48,43.05 93.65,43.05 93.65,43.22 
	93.65,43.05 93.82,43.05 93.82,43.22 93.65,43.22 93.82,43.39 93.82,43.56 93.82,43.73 93.82,43.9 93.99,43.9 93.82,43.9 
	93.82,44.07 93.99,44.07 93.99,44.24 94.16,44.24 94.16,44.41 94.33,44.41 94.16,44.41 94.33,44.58 94.33,44.76 94.33,44.93 
	94.16,45.1 94.16,45.27 94.16,45.44 94.16,45.27 94.33,45.27 94.33,45.44 94.16,45.44 94.16,45.61 94.16,45.78 94.16,45.95 
	94.16,46.12 94.33,46.12 94.16,46.12 94.16,46.29 94.16,46.47 94.16,46.29 93.99,46.29 93.99,46.47 94.16,46.47 93.99,46.47 
	93.99,46.64 93.99,46.81 94.16,46.81 94.16,46.98 94.33,46.98 94.33,47.15 94.33,47.32 94.5,47.32 94.5,47.15 94.5,47.32 
	94.5,47.49 94.5,47.66 94.5,47.83 94.67,47.83 94.67,48 94.67,48.18 94.67,48.35 94.67,48.52 94.67,48.69 94.84,48.69 94.84,48.86 
	94.67,48.86 94.84,48.86 94.84,49.03 95.02,49.03 95.02,49.2 94.84,49.37 95.02,49.37 95.02,49.54 95.02,49.71 95.02,49.54 
	94.84,49.54 94.84,49.71 95.02,49.71 94.84,49.71 94.84,49.88 94.67,49.88 94.67,49.71 94.67,49.88 94.84,49.88 94.84,50.06 
	94.84,49.88 94.84,50.06 94.67,50.06 94.84,50.23 94.84,50.4 94.84,50.57 94.84,50.74 94.84,50.91 95.02,50.91 94.84,50.91 
	94.84,51.08 95.02,51.08 95.02,51.25 94.84,51.25 94.84,51.42 95.02,51.42 95.02,51.59 95.02,51.77 95.02,51.94 95.02,52.28 
	95.02,52.45 95.19,52.62 95.02,52.79 95.19,52.79 95.19,52.96 95.19,53.13 95.36,53.13 95.36,53.3 95.36,53.47 95.53,53.65 
	95.53,53.82 95.7,53.82 95.7,53.99 95.87,53.99 95.87,54.16 96.04,54.16 96.04,54.33 96.04,54.5 96.21,54.5 96.04,54.5 96.21,54.5 
	96.21,54.67 96.38,54.84 96.38,55.01 96.38,55.18 96.38,55.01 96.55,55.01 96.55,55.18 96.38,55.18 96.38,55.36 96.38,55.18 
	96.21,55.18 96.21,55.36 96.21,55.53 96.04,55.53 96.04,55.7 95.87,55.53 95.87,55.7 95.87,55.53 95.7,55.53 95.7,55.7 95.53,55.7 
	95.36,55.7 95.36,55.87 95.19,55.87 95.19,56.04 95.02,56.04 94.84,56.04 94.67,56.04 94.5,56.04 94.33,56.04 94.16,56.04 
	93.99,56.04 93.82,56.04 93.65,56.04 93.31,56.04 93.13,55.87 92.96,55.87 92.79,55.87 92.62,55.87 92.45,55.7 92.28,55.53 
	92.11,55.53 91.94,55.36 91.77,55.36 91.6,55.18 91.43,55.18 91.43,55.36 91.43,55.53 91.25,55.53 91.25,55.7 91.08,55.87 
	91.08,56.04 91.08,56.21 90.91,56.38 90.74,56.55 90.74,56.72 90.57,56.72 90.4,56.89 90.4,57.06 90.4,57.24 90.4,57.41 90.4,57.58 
	90.4,57.75 90.4,57.92 90.4,58.09 90.57,58.26 90.57,58.43 90.4,58.6 90.23,58.77 90.23,58.95 90.06,58.95 90.06,59.12 90.06,59.29 
	90.23,59.63 90.23,59.8 90.23,59.97 90.23,60.14 90.23,60.31 90.06,60.48 90.06,60.65 89.89,60.65 89.72,60.65 89.54,60.65 
	89.37,60.83 89.2,60.65 89.03,60.83 88.86,61 88.86,61.17 88.86,61.34 88.69,61.34 88.52,61.34 88.52,61.51 88.52,61.68 
	88.69,61.68 88.69,61.85 88.69,62.02 88.52,62.02 88.52,62.19 88.35,62.19 88.18,62.19 88.01,62.19 87.83,62.36 87.66,62.36 
	87.49,62.36 87.32,62.54 87.15,62.54 86.98,62.54 86.81,62.36 86.64,62.36 86.47,62.54 86.3,62.54 86.13,62.54 86.13,62.71 
	85.95,62.71 85.78,62.71 85.61,62.71 85.61,62.54 85.44,62.54 85.27,62.71 85.27,62.54 85.27,62.36 85.1,62.36 84.93,62.36 
	84.76,62.36 84.42,62.36 84.24,62.36 84.07,62.36 83.9,62.36 83.56,62.54 83.39,62.71 83.22,62.88 83.39,62.88 83.39,63.05 
	83.39,63.22 83.39,63.39 83.39,63.73 83.39,63.9 83.39,64.07 83.39,64.25 83.39,64.42 83.39,64.59 83.39,64.93 83.39,65.1 
	83.39,65.27 83.22,65.44 83.22,65.61 83.22,65.78 83.22,65.95 83.05,66.13 83.05,66.47 82.88,66.47 82.88,66.64 82.88,66.81 
	82.88,66.98 82.71,66.98 82.71,67.15 82.88,67.15 82.71,67.15 82.71,67.32 82.54,67.32 82.36,67.32 82.36,67.49 82.36,67.66 
	82.36,67.84 82.36,68.01 82.19,68.01 82.19,68.18 82.02,68.18 81.85,68.18 81.85,68.35 82.02,68.35 81.85,68.35 81.68,68.35 
	81.68,68.52 81.51,68.52 81.34,68.52 81.34,68.69 81.17,68.52 81,68.52 81,68.35 80.83,68.18 80.83,68.35 80.65,68.35 80.65,68.18 
	80.48,68.18 80.48,68.35 80.31,68.35 80.14,68.18 79.97,68.18 79.97,68.01 79.8,68.01 79.63,68.01 79.63,68.18 79.46,68.01 
	79.29,68.01 79.29,67.84 79.12,67.84 78.95,67.84 78.95,68.01 78.77,68.01 78.6,68.01 78.6,67.84 78.6,68.01 78.43,67.84 
	78.26,67.84 78.26,68.01 78.09,68.01 77.92,68.01 77.75,68.01 77.58,67.84 77.24,67.84 77.06,67.84 77.06,68.01 76.89,68.01 
	76.72,68.01 76.72,68.18 76.55,68.18 76.38,68.18 76.38,68.01 76.21,68.01 76.04,68.01 76.04,67.84 75.87,67.84 75.87,68.01 
	75.7,68.01 75.53,67.84 75.35,67.84 75.18,67.84 75.01,67.84 75.01,68.01 74.84,68.01 74.67,68.01 74.67,68.18 74.5,68.18 
	74.5,68.35 74.33,68.35 74.16,68.35 73.99,68.35 73.82,68.35 73.82,68.52 73.65,68.52 73.65,68.69 73.47,68.69 73.47,68.86 
	73.47,68.69 73.3,68.69 73.3,68.86 73.47,68.86 73.3,68.86 73.13,68.86 73.13,69.03 72.96,69.03 72.96,69.2 72.79,69.2 72.96,69.37 
	72.96,69.2 72.96,69.37 72.79,69.37 72.62,69.37 72.62,69.54 72.45,69.72 72.28,69.72 72.28,69.89 72.11,69.89 72.11,69.72 
	72.11,69.89 71.94,69.89 71.76,69.89 71.59,69.89 71.59,70.06 71.42,70.06 71.59,70.06 71.59,70.23 71.42,70.23 71.42,70.06 
	71.25,70.23 71.08,70.23 70.91,70.23 70.74,70.23 70.57,70.23 70.4,70.23 70.23,70.23 70.05,70.23 69.88,70.06 69.71,70.06 
	69.71,69.89 69.54,69.89 69.54,69.72 69.37,69.72 69.2,69.72 69.03,69.72 68.86,69.72 68.86,69.54 68.86,69.72 68.69,69.72 
	68.52,69.72 68.35,69.72 68.35,69.54 68.17,69.54 68.17,69.72 68.17,69.54 68,69.54 68,69.37 68,69.54 67.83,69.54 67.83,69.37 
	67.83,69.54 67.66,69.54 67.49,69.54 67.32,69.54 67.32,69.37 67.15,69.37 67.15,69.2 67.15,69.37 66.98,69.37 66.98,69.2 
	66.81,69.2 66.81,69.37 66.64,69.37 66.64,69.2 66.64,69.37 66.46,69.37 66.29,69.37 66.46,69.2 66.29,69.2 66.12,69.2 66.12,69.03 
	65.95,69.2 65.78,69.2 65.95,69.2 65.95,69.37 65.78,69.37 65.78,69.2 65.78,69.37 65.61,69.37 65.61,69.2 65.44,69.37 65.44,69.54 
	65.44,69.72 65.27,69.54 65.27,69.72 65.27,69.89 65.27,70.06 65.1,70.06 65.1,69.89 64.93,70.06 64.93,69.89 65.1,69.89 
	64.93,69.89 64.93,70.06 64.76,70.06 64.93,70.23 64.93,70.4 64.93,70.57 64.76,70.4 64.76,70.57 64.76,70.74 64.58,70.74 
	64.58,70.91 64.93,71.08 64.93,71.25 64.76,71.25 64.58,71.25 64.58,71.43 64.41,71.43 64.24,71.6 64.07,71.6 64.07,71.77 
	63.9,71.77 63.73,72.11 63.56,72.11 63.73,72.28 64.24,72.62 64.41,72.79 64.58,72.96 64.58,73.13 64.41,73.13 64.24,73.13 
	64.24,73.31 64.07,73.31 64.07,73.48 64.24,73.48 64.41,73.48 64.76,73.65 64.76,73.82 64.76,74.16 64.76,74.33 64.93,74.5 
	64.93,74.67 64.93,74.84 65.1,74.84 65.27,75.19 65.1,75.19 65.1,75.36 64.93,75.36 64.76,75.36 64.76,75.53 64.76,75.7 64.58,75.7 
	64.41,75.53 64.41,75.36 64.58,75.36 64.58,75.19 64.58,75.02 64.41,75.02 64.41,74.84 64.24,74.84 64.24,75.02 64.07,75.02 
	63.9,75.19 63.9,75.36 63.9,75.53 64.07,75.53 64.07,75.7 63.56,75.53 63.39,75.53 63.22,75.53 63.05,75.7 63.05,75.87 62.87,75.87 
	62.87,76.04 62.87,76.21 63.05,76.55 63.05,76.72 63.05,76.9 63.22,76.9 63.39,76.9 63.56,76.9 63.73,76.72 63.73,76.55 63.9,76.55 
	64.07,76.55 64.07,76.38 64.24,76.38 64.76,76.55 64.93,76.72 65.1,76.72 65.1,76.9 65.1,77.07 65.1,77.24 64.93,77.24 64.76,77.41 
	64.58,77.58 64.24,78.09 64.07,78.09 64.07,78.26 64.07,78.43 64.24,78.43 64.24,78.61 64.24,78.78 64.41,78.78 64.58,78.78 
	64.41,78.78 64.41,78.95 64.24,78.95 64.07,78.95 63.9,78.95 63.9,78.78 63.9,78.61 63.73,78.61 63.73,78.43 63.56,78.43 
	63.39,78.43 63.22,78.61 63.22,78.78 63.22,78.95 63.22,79.12 63.22,79.46 63.22,79.63 63.39,79.97 63.56,80.49 63.73,80.83 
	63.56,80.83 63.56,81 63.39,80.83 63.22,80.83 63.05,80.83 63.05,80.66 62.87,80.83 62.7,80.83 62.7,81 62.53,81 62.53,81.17 
	62.7,81.17 62.7,81.34 62.7,81.51 62.7,81.68 62.53,81.68 62.19,81.68 62.19,81.51 62.02,81.51 61.85,81.51 61.85,81.34 
	61.85,81.17 61.68,81.17 61.68,81 61.85,81 61.68,81 61.68,80.83 61.51,80.83 61.34,80.83 61.34,80.66 61.17,80.66 61.17,80.49 
	60.99,80.66 60.99,80.49 60.82,80.49 60.82,80.31 60.82,80.49 60.65,80.49 60.65,80.31 60.65,80.14 60.48,80.14 60.48,79.97 
	60.31,79.97 60.14,79.97 59.97,79.97 59.8,79.97 59.8,79.8 59.8,79.97 59.8,79.8 59.8,79.63 59.63,79.63 59.63,79.8 59.63,79.63 
	59.46,79.46 59.46,79.29 59.28,79.29 59.28,79.12 59.28,79.29 59.11,79.29 59.11,79.12 58.94,79.12 58.77,78.95 58.77,79.12 
	58.77,78.95 58.77,78.78 58.77,78.61 58.6,78.61 58.6,78.78 58.6,78.61 58.6,78.43 58.43,78.43 58.6,78.43 58.6,78.26 58.43,78.26 
	58.26,78.26 58.43,78.26 58.43,78.09 58.26,78.09 58.09,77.92 58.26,77.92 58.09,77.92 58.09,77.75 58.09,77.92 57.92,77.92 
	57.92,77.75 57.75,77.75 57.75,77.58 57.58,77.58 57.58,77.75 57.4,77.75 57.4,77.58 57.23,77.58 57.23,77.41 57.06,77.41 
	57.06,77.24 56.89,77.24 56.89,77.07 56.89,77.24 56.72,77.24 56.72,77.07 56.55,77.07 56.55,76.9 56.38,76.9 56.21,76.9 
	56.04,76.9 56.21,76.9 56.21,76.72 56.04,76.72 55.87,76.72 55.69,76.72 55.87,76.9 55.69,76.9 55.52,76.9 55.69,77.07 55.52,77.07 
	55.52,77.24 55.35,77.24 55.52,77.24 55.35,77.24 55.18,77.24 55.18,77.07 55.01,77.07 54.84,77.24 54.67,77.24 54.5,77.24 
	54.33,77.24 54.16,77.24 54.16,77.41 54.16,77.24 53.98,77.24 53.98,77.07 53.81,77.07 53.81,76.9 53.64,76.9 53.47,76.9 
	53.47,76.72 53.47,76.9 53.3,76.9 53.3,77.07 53.3,76.9 53.13,76.9 53.13,77.07 52.96,77.07 52.79,77.07 52.79,77.24 52.62,77.24 
	52.45,77.24 52.45,77.41 52.28,77.58 52.1,78.61 52.1,79.8 52.1,80.83 52.28,82.2 52.45,83.05 53.3,83.56 53.3,83.73 53.47,83.9 
	53.64,83.9 53.81,83.9 53.98,84.08 53.98,84.25 53.81,84.25 53.81,84.42 53.64,84.42 53.64,84.59 53.47,84.76 53.3,84.93 53.3,85.1 
	53.13,85.1 53.13,85.27 52.96,85.44 52.96,85.61 52.79,85.44 52.62,85.44 52.62,85.61 52.45,85.61 52.45,85.44 52.28,85.44 
	52.1,85.44 51.93,85.44 51.93,85.61 51.76,85.61 51.76,85.79 51.59,85.79 51.42,85.79 51.42,85.96 51.25,85.96 51.08,85.96 
	50.91,85.96 50.74,85.79 50.57,85.79 50.39,85.79 50.22,85.79 50.22,85.61 50.05,85.61 49.88,85.61 49.88,85.44 49.88,85.27 
	49.54,85.1 49.37,84.93 49.2,84.93 49.2,84.76 49.03,84.76 48.86,84.59 48.68,84.59 48.51,84.59 48.34,84.59 48.17,84.42 48,84.42 
	48,84.25 47.83,84.25 47.83,84.08 47.66,84.08 47.49,84.08 47.49,83.9 47.32,83.56 47.32,83.39 47.15,83.22 46.98,83.22 46.8,83.05 
	46.63,83.22 46.46,83.22 46.29,83.22 46.12,83.22 46.12,83.05 45.95,83.05 45.95,82.88 45.78,82.88 45.61,83.05 45.61,83.39 
	45.44,83.56 45.44,83.73 45.27,83.73 45.09,83.73 44.92,83.73 44.75,83.73 44.58,83.73 44.41,83.73 44.41,83.9 44.24,83.9 
	44.07,83.9 43.9,83.73 43.73,83.56 43.73,83.39 43.56,83.39 43.39,83.22 43.39,83.05 43.21,83.05 43.21,82.88 43.21,82.71 
	43.21,82.54 43.04,82.37 43.04,82.2 43.04,82.02 43.04,81.85 42.87,81.68 42.7,81.68 42.53,81.51 42.36,81.51 42.19,81.51 
	42.19,81.34 42.02,81.34 41.85,81.34 41.68,81.34 41.68,81.17 41.68,81 41.5,81 41.33,80.83 41.33,80.66 41.16,80.31 41.16,80.14 
	40.99,79.97 40.82,79.8 40.65,79.8 40.48,79.8 40.31,79.8 40.14,79.8 39.97,79.8 39.8,79.8 39.62,79.8 39.45,79.8 39.28,79.8 
	39.28,79.97 39.11,79.8 38.94,79.63 38.77,79.8 38.6,79.8 38.43,79.8 38.26,79.8 38.09,79.8 38.09,79.97 37.91,80.14 37.91,80.49 
	37.91,80.66 37.74,80.66 37.57,80.66 37.4,80.66 37.06,80.66 36.89,80.66 36.72,80.66 36.55,80.66 36.21,80.83 36.03,80.83 
	35.69,80.83 35.52,80.83 35.35,80.66 35.18,80.66 35.01,80.66 34.84,80.83 34.67,80.83 34.67,80.66 34.5,80.66 34.32,80.66 
	34.15,80.66 33.98,80.66 33.81,80.66 33.81,80.49 33.64,80.31 33.47,80.14 33.3,79.97 33.13,79.97 32.96,79.8 32.96,79.63 
	32.79,79.63 32.44,79.63 31.93,79.8 31.76,79.8 31.59,79.97 31.42,80.49 31.42,80.66 31.42,80.83 31.42,81 31.59,81 31.42,81.17 
	31.42,81.34 31.42,81.68 31.42,81.85 31.42,82.02 31.42,82.2 31.42,82.37 31.25,82.54 31.08,82.71 31.08,82.88 30.91,83.05 
	30.73,83.22 30.56,83.39 30.39,83.56 30.22,83.73 30.22,83.9 30.05,84.08 30.05,84.25 29.88,84.42 29.71,84.42 29.37,84.59 
	28.85,85.1 28.51,85.27 28,85.27 27.14,85.27 26.97,85.27 26.8,85.27 26.63,85.27 26.46,85.27 26.46,85.44 26.29,85.44 26.12,85.44 
	26.12,85.61 25.95,85.61 25.95,85.79 25.95,85.96 25.95,86.13 25.95,86.3 25.95,86.47 25.78,86.47 25.61,86.64 25.43,86.64 
	25.26,86.81 24.75,86.98 24.58,87.15 24.41,87.15 24.41,87.32 24.24,87.49 24.07,87.67 23.9,87.84 23.9,88.01 23.72,88.18 
	23.72,88.35 23.55,88.35 23.38,88.52 23.38,88.69 23.21,88.69 21.84,88.86 19.79,88.52 19.79,88.18 19.28,87.84 18.6,88.01 
	18.43,88.18 18.25,88.52 18.08,88.69 18.77,89.72 18.94,89.72 18.94,89.89 18.94,90.06 19.11,90.06 19.11,90.23 19.28,90.23 
	19.28,90.57 20.13,91.6 20.31,92.28 20.31,92.45 19.96,92.97 19.45,93.48 19.11,93.82 18.25,94.5 18.25,94.67 18.08,94.85 
	18.08,94.67 17.91,94.67 17.74,94.67 17.57,94.5 17.4,94.5 17.23,94.33 17.06,94.16 16.89,94.16 16.72,94.16 16.54,93.99 
	16.37,93.99 16.2,93.99 16.2,93.82 16.03,93.82 16.03,93.99 15.86,93.99 15.69,93.99 15.69,94.16 15.52,94.16 15.35,94.16 
	15.18,94.16 15.01,94.16 14.66,94.16 14.49,93.99 14.32,93.99 14.32,94.16 14.15,94.16 13.98,94.16 13.98,94.33 13.81,94.33 
	13.64,94.33 13.64,94.16 13.47,94.16 13.47,94.33 13.3,94.16 13.13,94.16 13.13,93.99 13.3,93.82 13.3,93.65 13.3,93.48 
	13.13,93.48 12.95,93.31 12.95,93.14 12.78,93.14 12.78,93.31 12.61,93.31 12.61,93.48 12.44,93.48 12.27,93.48 12.1,93.48 
	12.1,93.31 11.93,93.31 11.93,93.48 11.76,93.48 11.76,93.65 11.59,93.65 11.42,93.65 11.42,93.48 11.24,93.48 11.07,93.48 
	11.07,93.65 10.9,93.65 10.73,93.65 10.56,93.82 10.39,93.99 10.22,93.99 10.05,93.99 9.88,94.16 9.71,94.16 9.54,94.16 9.54,94.33 
	9.54,94.5 9.54,94.67 9.36,94.67 9.36,94.5 9.19,94.5 9.19,94.33 9.02,94.33 8.85,94.16 8.85,93.99 8.85,93.82 8.85,93.65 
	8.85,93.48 8.85,93.31 8.85,93.14 9.02,93.14 9.02,92.97 9.02,92.79 9.19,92.79 9.36,92.79 9.36,92.97 9.54,92.97 9.54,92.79 
	9.71,92.79 9.54,92.62 9.54,92.45 9.71,92.45 9.71,92.28 9.71,92.11 9.54,92.11 9.36,92.28 9.19,92.28 9.02,92.28 8.85,92.28 
	8.68,92.28 8.51,92.28 8.34,92.28 8.17,92.28 8.17,92.11 8.34,92.11 8.51,91.94 8.51,91.77 8.34,91.6 8.17,91.6 8.17,91.43 
	8.17,91.26 8,91.26 8,91.08 7.83,90.91 7.83,90.74 7.83,90.57 7.65,90.57 7.65,90.4 7.48,90.4 7.31,90.4 7.31,90.57 7.14,90.57 
	6.97,90.57 6.97,90.4 6.8,90.4 6.63,90.4 6.63,90.23 6.46,90.23 6.29,90.23 6.12,90.23 6.12,90.06 5.94,90.06 5.77,90.06 
	5.77,89.89 5.77,89.72 5.6,89.72 5.43,89.55 5.26,89.55 5.09,89.55 5.09,89.38 5.09,89.2 5.09,89.03 5.09,88.86 5.09,88.69 
	5.26,88.69 5.26,88.52 5.26,88.35 5.26,88.18 5.43,88.18 5.6,88.18 5.77,88.18 5.77,88.01 5.77,87.84 5.77,87.67 5.6,87.67 
	5.6,87.49 5.6,87.32 5.77,87.15 5.94,87.15 5.94,86.98 5.94,86.81 5.94,86.64 6.12,86.47 6.12,86.64 6.29,86.64 6.46,86.64 
	6.63,86.64 6.63,86.47 6.63,86.3 6.46,86.13 6.46,85.96 6.63,85.96 6.63,85.79 6.8,85.79 6.97,85.79 6.97,85.61 6.97,85.44 
	6.8,85.44 6.97,85.44 6.8,85.27 6.8,85.1 6.8,84.93 6.63,84.93 6.63,84.76 6.46,84.76 6.46,84.59 6.29,84.59 6.12,84.59 5.94,84.59 
	5.77,84.42 5.6,84.42 5.43,84.25 5.43,84.08 5.43,83.9 5.6,83.9 5.6,83.73 5.43,83.73 5.43,83.56 5.26,83.39 5.43,83.39 5.6,83.39 
	5.6,83.22 5.77,83.22 5.6,83.22 5.6,83.05 5.6,82.88 5.43,82.88 5.6,82.88 5.6,82.71 5.6,82.54 5.6,82.37 5.43,82.2 5.26,82.2 
	5.26,82.02 5.43,82.02 5.43,81.85 5.26,81.85 5.09,81.68 5.09,81.51 5.26,81.51 5.43,81.51 5.43,81.34 5.26,81.34 5.26,81.17 
	5.43,81.17 5.43,81 5.43,80.83 5.43,80.66 5.43,80.49 5.43,80.31 5.6,80.14 5.6,79.97 5.6,79.8 5.6,79.63 5.43,79.46 5.26,79.29 
	5.09,79.12 5.09,78.95 4.92,78.95 4.92,78.78 4.75,78.78 4.75,78.61 4.75,78.43 4.75,78.26 4.75,78.09 4.75,77.92 4.75,77.75 
	4.75,77.58 4.75,77.41 4.75,77.24 4.58,77.24 4.75,77.07 4.75,76.9 4.92,76.9 4.92,76.72 4.75,76.55 4.58,76.38 4.41,76.38 
	4.24,76.21 4.06,76.04 4.06,75.87 4.06,75.7 4.06,75.53 4.06,75.36 4.06,75.19 4.06,75.02 4.06,74.84 3.89,74.84 3.89,74.67 
	3.72,74.67 3.72,74.84 3.55,74.84 3.38,74.84 3.21,74.84 3.04,74.84 3.04,74.67 2.87,74.67 2.87,74.5 2.7,74.33 2.7,74.16 
	2.87,74.16 2.87,73.99 2.87,73.82 2.7,73.82 2.7,73.65 2.53,73.65 2.35,73.65 2.18,73.65 2.01,73.65 1.84,73.82 1.84,73.65 
	1.84,73.48 1.84,73.31 1.84,73.13 1.84,72.96 2.01,72.79 2.01,72.62 2.01,72.45 2.01,72.28 1.84,72.28 1.84,72.11 1.67,72.11 
	1.5,72.11 1.5,71.94 1.33,71.94 1.33,71.77 1.16,71.77 1.16,71.6 0.99,71.6 0.99,71.43 0.99,71.25 0.99,71.08 0.82,70.91 
	0.82,70.74 0.82,70.57 0.82,70.4 0.65,70.23 0.47,70.06 0.47,69.89 0.47,69.72 0.47,69.37 0.47,69.03 0.47,68.86 0.47,68.69 
	0.47,68.52 0.3,68.35 0.3,68.18 0.3,68.01 0.3,67.84 0.3,67.66 0.3,67.49 0.47,67.49 0.82,67.32 1.16,67.15 1.5,66.98 1.84,66.98 
	2.18,66.81 2.53,66.64 2.7,66.47 3.04,66.47 3.04,66.3 3.04,66.13 3.04,65.78 3.21,65.44 3.21,65.27 3.21,64.93 3.21,64.76 
	3.38,64.59 3.38,64.42 3.38,64.25 3.38,64.07 3.38,63.9 3.21,63.73 3.21,63.39 3.21,63.22 3.21,62.88 3.21,62.54 3.21,62.36 
	3.21,62.02 3.04,61.85 2.87,61.68 2.7,61.34 2.7,61.17 2.53,61 2.35,60.65 2.35,60.48 2.53,60.31 2.87,60.31 3.21,60.31 3.38,60.31 
	3.38,60.14 3.55,60.14 4.06,59.8 4.41,59.63 4.41,59.46 4.58,59.29 4.75,58.95 4.75,58.43 4.92,58.26 4.92,58.09 4.92,57.92 
	4.92,57.75 4.92,57.58 4.92,57.41 4.75,57.41 4.75,57.24 4.58,57.06 4.41,56.89 4.24,56.72 3.55,55.87 3.21,55.7 2.87,55.36 
	2.18,54.33 1.67,53.99 1.5,53.65 1.33,53.47 1.33,53.3 1.5,53.3 1.67,53.13 1.84,52.96 1.84,52.79 2.01,52.79 2.01,52.62 
	2.18,52.45 2.35,52.28 2.35,52.11 2.35,51.94 2.35,51.77 2.53,51.59 2.7,51.25 2.7,51.08 2.87,50.91 3.04,50.74 3.21,50.4 
	3.21,50.23 3.38,50.23 3.55,50.23 3.72,50.23 3.72,50.06 3.72,49.88 3.89,49.71 3.89,49.54 3.89,49.37 3.89,49.2 3.89,49.03 
	4.06,49.03 4.24,49.03 4.41,49.03 4.58,49.03 4.75,49.03 4.75,49.2 5.09,49.2 5.26,49.2 5.43,49.2 5.6,49.2 5.77,49.2 5.94,49.03 
	6.29,48.86 6.46,48.86 6.63,48.69 6.8,48.69 6.97,48.52 7.14,48.52 7.14,48.35 7.31,48.35 7.31,48.18 7.48,48 7.65,47.83 
	7.83,47.66 8,47.66 8.34,47.49 8.51,47.32 8.68,47.15 8.68,46.98 8.34,46.29 8.17,45.95 8.17,45.27 8.34,44.93 8.51,44.58 
	8.85,43.9 9.19,43.56 9.71,43.05 10.22,42.7 10.73,42.53 10.9,42.36 10.9,42.19 11.07,42.02 11.07,41.85 11.07,41.51 11.24,41.34 
	11.24,41.17 11.42,40.99 11.59,40.99 11.59,40.82 11.76,40.65 11.76,40.82 11.93,40.82 12.1,40.82 12.1,40.65 12.27,40.65 
	12.44,40.48 12.44,40.31 12.61,40.31 12.61,40.14 12.78,40.14 12.95,40.14 12.95,39.97 13.13,39.97 13.3,39.97 13.3,39.8 
	13.3,39.63 13.47,39.46 13.64,39.46 13.64,39.29 13.64,39.11 13.64,38.94 13.81,38.94 13.81,38.77 13.98,38.77 14.15,38.6 
	14.32,38.6 14.32,38.43 14.32,38.26 14.49,38.26 14.83,38.26 16.03,38.09 16.37,37.92 16.54,37.58 16.54,37.4 16.37,36.55 
	16.37,36.04 16.37,35.87 16.54,35.87 16.54,35.7 16.72,35.7 16.72,35.52 16.89,35.52 16.89,35.35 16.89,35.01 17.06,34.84 
	17.06,34.67 17.06,34.5 16.89,34.5 16.72,34.5 16.72,34.33 16.54,34.33 16.37,34.16 16.2,34.16 16.2,33.99 16.03,33.81 15.86,33.64 
	15.69,33.81 15.69,33.64 15.52,33.64 15.35,33.64 15.35,33.81 15.35,33.64 15.35,33.47 15.52,33.47 15.52,33.3 15.35,33.13 
	15.52,33.13 15.52,32.96 15.69,32.96 15.69,32.79 15.69,32.62 15.86,32.62 16.03,32.62 16.03,32.45 15.86,32.45 16.03,32.45 
	15.86,32.45 15.86,32.28 15.86,32.11 16.03,32.11 16.03,31.93 16.2,31.93 16.37,31.93 16.37,31.76 16.54,31.76 16.72,31.76 
	16.89,31.76 17.06,31.76 17.06,31.59 17.23,31.59 17.4,31.59 17.57,31.59 17.57,31.42 17.74,31.42 17.57,31.42 17.74,31.42 
	17.74,31.25 17.74,31.42 17.91,31.42 17.91,31.25 18.08,31.25 18.25,31.08 18.25,31.25 18.25,31.08 18.43,31.08 18.6,31.08 
	18.6,30.91 18.43,30.91 18.6,30.91 18.6,30.74 18.77,30.74 18.77,30.57 18.6,30.57 18.77,30.57 18.6,30.57 18.77,30.4 18.6,30.4 
	18.77,30.4 18.77,30.22 18.77,30.05 18.77,29.88 18.77,29.71 18.94,29.71 18.94,29.54 19.11,29.54 19.28,29.54 19.28,29.37 
	19.45,29.37 19.62,29.37 19.62,29.2 19.62,29.03 19.62,28.86 19.62,28.69 19.45,28.69 19.62,28.69 19.62,28.52 19.79,28.52 
	19.96,28.34 20.13,28.34 20.31,28.34 20.31,28.17 20.48,28.17 20.48,28.34 20.65,28.34 20.65,28.17 20.65,28 20.65,27.83 
	20.82,27.66 20.65,27.66 20.48,27.49 20.31,27.49 20.31,27.32 20.31,27.15 20.31,26.98 20.13,26.98 20.13,26.81 20.13,26.63 
	20.31,26.46 20.31,26.29 20.48,26.29 20.65,26.29 20.65,26.46 20.82,26.46 20.82,26.29 21.16,25.95 21.16,25.78 21.16,25.61 
	20.99,25.44 20.99,25.27 20.82,25.1 20.65,24.93 20.65,24.75 20.65,24.58 20.65,24.41 20.82,24.41 20.82,24.24 20.99,24.24 
	21.16,24.07 21.16,23.9 21.5,23.56 21.5,23.39 21.67,23.39 21.67,23.22 21.84,23.22 21.84,23.04 21.67,23.04 21.84,22.87 
	21.84,22.7 21.84,22.53 21.84,22.36 21.84,22.19 21.84,22.02 21.84,21.85 21.84,21.68 22.02,21.68 22.02,21.51 21.84,21.51 
	21.84,21.34 22.02,21.34 21.84,21.34 21.67,21.34 21.67,21.51 21.67,21.34 21.5,21.16 21.5,20.99 21.67,20.99 21.67,20.82 
	21.5,20.82 21.5,20.65 21.67,20.65 21.67,20.48 21.84,20.48 21.84,20.31 21.67,20.31 21.84,20.31 21.84,20.14 21.67,20.14 
	21.67,19.97 21.67,19.8 21.5,19.8 21.5,19.63 21.67,19.63 21.67,19.45 21.67,19.28 21.5,19.11 21.67,19.11 21.5,19.11 21.67,19.11 
	21.67,18.94 21.5,18.94 21.5,18.77 21.67,18.77 21.84,18.77 21.84,18.6 21.84,18.77 22.02,18.6 22.19,18.6 22.19,18.43 22.02,18.43 
	22.19,18.43 22.19,18.26 22.36,18.26 22.36,18.09 22.53,18.09 22.53,17.92 22.7,17.92 22.7,18.09 22.87,17.92 23.04,17.92 
	23.21,17.75 23.38,17.75 23.55,17.57 23.72,17.57 24.07,17.4 24.24,17.4 24.41,17.23 24.75,17.06 25.26,16.89 25.61,16.72 
	25.78,16.72 25.95,16.72 26.29,16.55 26.46,16.55 26.8,16.55 26.97,16.55 27.14,16.38 27.14,16.55 27.31,16.55 27.49,16.55 
	27.66,16.55 27.66,16.38 27.83,16.38 27.83,16.55 28,16.55 28,16.38 28.17,16.38 28.17,16.21 28.34,16.21 28.34,16.04 28.51,16.04 
	28.34,16.04 28.34,15.86 28.51,15.86 28.68,15.86 28.85,15.86 28.85,15.69 29.02,15.69 29.02,15.86 29.2,15.86 29.37,15.86 
	29.37,15.69 29.37,15.52 29.54,15.52 29.54,15.69 29.71,15.69 29.88,15.69 29.88,15.86 30.05,15.86 30.05,15.69 30.22,15.69 
	30.22,15.52 30.39,15.52 30.56,15.52 30.73,15.52 30.73,15.35 30.73,15.52 30.91,15.52 30.91,15.35 31.08,15.35 31.08,15.18 
	31.25,15.18 31.25,15.01 31.42,15.01 31.42,14.84 31.59,14.84 31.59,14.67 31.76,14.67 31.93,14.67 32.1,14.67 32.27,14.67 
	32.44,14.67 32.61,14.67 32.61,14.5 32.79,14.5 32.61,14.5 32.61,14.33 32.79,14.33 32.79,14.5 32.96,14.5 32.96,14.33 33.13,14.33 
	33.3,14.33 33.47,14.33 33.47,14.16 33.64,14.16 33.64,14.33 33.81,14.33 33.98,14.33 34.15,14.33 34.32,14.33 34.32,14.16 
	34.5,14.16 34.5,13.98 34.67,13.98 34.67,13.81 34.84,13.64 34.84,13.47 35.01,13.47 35.18,13.3 35.35,13.3 35.35,13.13 
	35.52,13.13 35.35,13.13 35.52,13.13 35.52,12.96 35.52,12.79 35.69,12.79 35.52,12.79 35.52,12.62 35.69,12.62 35.86,12.62 
	35.86,12.45 35.86,12.27 36.03,12.27 35.86,12.27 36.03,12.27 36.03,12.1 36.21,12.1 36.21,11.93 36.38,11.93 36.38,11.76 
	36.21,11.76 36.38,11.76 36.55,11.76 36.55,11.59 36.72,11.59 36.89,11.59 36.89,11.42 37.06,11.42 37.23,11.42 37.23,11.59 
	37.4,11.59 37.4,11.76 37.57,11.76 37.74,11.76 37.74,11.93 37.91,11.93 37.74,11.93 37.91,11.93 38.09,11.93 38.26,11.93 
	38.26,12.1 38.43,12.1 38.43,12.27 38.6,12.27 38.77,12.27 38.94,12.27 38.94,12.45 39.11,12.45 39.11,12.27 39.28,12.27 
	39.28,12.45 39.45,12.45 39.62,12.45 39.8,12.45 39.8,12.62 39.8,12.45 39.97,12.45 40.14,12.27 40.31,12.27 40.48,12.27 
	40.65,12.27 40.65,12.45 40.48,12.45 40.65,12.45 40.65,12.62 40.82,12.62 40.65,12.62 40.65,12.79 40.82,12.79 40.82,12.96 
	40.99,12.96 41.16,12.96 41.33,12.96 41.33,13.13 41.5,13.13 41.5,13.3 41.68,13.3 41.85,13.13 42.02,13.13 42.36,12.96 
	42.53,12.96 42.7,12.96 43.04,12.96 43.21,12.79 43.73,12.79 43.9,12.79 44.07,12.79 44.24,12.79 44.41,12.79 44.75,12.79 
	44.92,12.79 45.27,12.96 45.44,12.96 45.61,12.96 45.78,12.96 45.95,13.13 46.12,13.13 46.46,13.13 46.63,13.3 46.8,13.3 
	46.98,13.47 47.15,13.47 47.32,13.47 47.49,13.47 47.66,13.47 47.83,13.47 48,13.47 48.17,13.47 48.34,13.64 48.51,13.64 
	48.68,13.81 48.68,13.98 48.86,14.16 49.03,14.16 49.2,14.33 49.37,14.5 49.54,14.5 49.54,14.67 49.71,14.67 49.88,14.84 
	50.05,15.01 50.22,15.18 50.39,15.35 50.57,15.35 50.57,15.52 50.74,15.52 50.74,15.69 50.91,15.69 50.91,15.86 51.08,16.04 
	51.08,16.21 51.08,16.38 51.25,16.38 51.25,16.55 51.25,16.72 51.25,16.89 51.42,17.06 51.59,17.23 51.76,17.4 51.76,17.57 
	51.93,17.57 51.93,17.75 51.93,17.92 52.1,17.92 52.1,18.09 52.1,18.26 52.28,18.26 52.28,18.43 52.45,18.43 52.45,18.6 52.62,18.6 
	52.79,18.6 52.79,18.77 52.96,18.77 53.13,18.77 53.13,18.6 53.3,18.6 53.3,18.77 53.47,18.77 53.47,18.6 53.64,18.6 53.64,18.77 
	53.81,18.94 53.81,19.11 53.81,19.28 53.81,19.45 53.81,19.63 53.81,19.8 53.81,19.97 53.81,20.14 53.81,20.31 53.81,20.48 
	53.64,20.48 53.64,20.65 53.64,20.82 53.64,20.99 53.64,21.16 53.64,21.34 53.64,21.51 53.81,21.51 53.81,21.68 53.98,21.68 
	53.98,22.02 54.16,22.19 54.33,22.36 54.67,22.53 54.84,22.87 55.01,22.87 55.18,23.04 55.35,23.04 55.35,22.87 55.52,22.87 
	55.52,23.04 55.69,23.04 55.69,23.22 55.87,23.22 56.04,23.22 56.38,23.56 56.55,23.56 56.89,23.9 57.4,24.58 57.75,24.93 
	57.92,25.61 58.09,26.12 58.26,26.29 58.94,26.46 59.8,26.46 60.82,26.63 62.19,26.46 62.53,26.29 62.87,26.12 63.05,25.78 
	63.39,25.44 63.9,25.27 64.58,24.93 65.1,24.93 65.44,25.27 65.78,25.44 65.95,25.95 66.12,26.29 66.64,26.46 66.81,26.46 
	66.98,26.46 67.49,26.63 68.17,26.98 68.52,26.98 68.69,27.32 69.03,27.49 69.54,27.49 70.4,27.66 71.08,27.49 71.59,27.49 
	72.11,27.49 72.45,27.49 72.96,27.49 73.65,27.49 73.82,27.32 73.99,27.15 74.33,27.15 74.67,27.15 74.84,27.15 75.18,27.32 
	75.53,27.66 75.87,28 76.04,28 76.21,27.83 76.21,27.66 76.38,27.66 76.38,27.49 76.55,27.49 76.72,27.15 76.72,26.98 76.72,26.81 
	76.55,26.63 76.72,26.63 76.89,26.46 77.06,26.46 77.06,26.29 77.24,26.29 77.41,26.12 77.41,25.95 77.58,25.95 77.58,26.12 
	77.58,25.95 77.58,26.12 77.75,26.12 77.92,26.12 77.92,25.95 78.09,25.95 78.09,25.78 78.26,25.78 78.43,25.78 78.6,25.78 
	78.6,25.61 78.6,25.78 78.77,25.61 78.95,25.61 78.95,25.44 79.12,25.44 78.95,25.44 79.12,25.27 78.95,25.27 79.12,25.1 
	79.29,25.1 79.29,24.93 79.46,24.93 79.63,24.93 79.63,25.1 79.8,25.1 79.8,24.93 79.97,24.93 79.97,24.75 80.14,24.75 79.97,24.75 
	79.97,24.58 80.14,24.75 80.31,24.75 80.48,24.75 80.48,24.93 80.48,24.75 80.65,24.75 80.83,24.75 80.83,24.58 80.83,24.75 
	80.83,24.58 81,24.58 81.17,24.58 81.17,24.41 81.34,24.41 81.51,24.41 81.51,24.24 81.51,24.41 81.68,24.41 81.68,24.24 
	81.51,24.24 81.68,24.24 81.68,24.07 81.85,24.07 82.02,24.07 82.02,23.9 82.19,23.9 82.36,23.9 82.54,23.9 82.54,23.73 82.54,23.9 
	82.71,23.9 82.54,23.9 82.71,23.9 82.88,23.73 83.05,23.73 83.05,23.56 83.22,23.56 83.22,23.39 83.05,23.39 83.22,23.39 
	83.22,23.22 83.39,23.22 83.39,23.04 83.39,22.87 83.56,22.87 83.39,22.87 83.56,22.7 83.56,22.53 83.73,22.53 83.9,22.53 
	83.9,22.36 84.07,22.36 84.07,22.53 84.07,22.36 84.24,22.19 84.24,22.36 84.42,22.36 84.42,22.19 84.59,22.19 84.59,22.02 
	84.76,22.02 84.76,21.85 84.93,21.68 84.93,21.51 85.1,21.51 85.27,21.34 85.27,21.16 85.44,20.99 85.44,20.82 85.61,20.82 
	85.61,20.65 85.44,20.65 85.27,20.48 85.27,20.31 85.27,20.14 85.44,19.97 85.44,19.8 85.27,19.63 85.27,19.28 85.27,19.11 
	85.27,18.94 85.27,18.77 85.44,18.77 85.44,18.6 85.44,18.43 85.44,18.26 85.44,18.09 85.44,17.92 85.27,17.92 85.27,17.75 
	85.27,17.57 85.27,17.4 85.27,17.06 85.27,16.89 85.44,16.72 85.61,16.72 85.61,16.55 85.61,16.38 85.44,16.21 85.27,16.21 
	85.1,16.21 85.1,16.04 85.27,15.86 85.27,15.69 85.1,15.52 85.1,15.35 84.93,15.35 84.93,15.18 84.93,15.01 84.76,14.84 
	84.76,14.67 84.76,14.5 84.76,14.33 84.76,14.16 84.93,14.16 85.1,14.16 85.1,13.98 85.1,13.81 85.1,13.64 85.27,13.47 85.27,13.3 
	85.27,13.13 85.44,13.13 85.44,12.96 85.61,12.79 85.61,12.62 85.44,12.27 85.27,11.93 85.27,11.59 85.27,11.25 85.44,10.91 
	85.27,10.22 85.27,9.88 85.27,9.37 85.27,9.03 85.1,8.86 85.1,8.34 85.1,8 84.93,7.66 84.76,7.49 84.59,7.32 84.24,7.32 84.07,7.32 
	83.9,7.15 83.73,6.63 84.07,6.46 84.93,5.61 85.44,4.75 85.61,3.38 85.61,2.7 85.78,2.7 85.95,2.7 85.95,2.53 86.13,2.53 86.3,2.53 
	86.3,2.7 86.47,2.7 86.64,2.7 86.81,2.7 86.98,2.53 87.15,2.53 87.32,2.7 87.49,2.7 87.66,2.7 87.83,2.7 88.01,2.53 88.18,2.36 
	88.35,2.36 88.35,2.19 88.52,2.19 88.86,2.19 89.03,2.19 89.2,2.19 89.37,2.19 89.54,2.19 89.72,2.19 89.89,2.19 90.06,2.36 
	90.23,2.36 90.23,2.19 90.4,2.02 90.57,1.85 90.74,1.85 90.91,1.85 91.08,1.85 91.25,2.02 91.43,2.02 91.43,2.19 91.6,2.19 "/>
</svg>
