<?xml version="1.0" encoding="utf-8"?>
<!-- Generator: Adobe Illustrator 24.2.1, SVG Export Plug-In . SVG Version: 6.00 Build 0)  -->
<svg version="1.1" id="Layer_1" xmlns="http://www.w3.org/2000/svg" xmlns:xlink="http://www.w3.org/1999/xlink" x="0px" y="0px"
	 viewBox="0 0 97.23 97.23" style="enable-background:new 0 0 97.23 97.23;" xml:space="preserve">
<style type="text/css">
	.st0{fill-rule:evenodd;clip-rule:evenodd;fill:#1D1D1B;}
</style>
<polygon class="st0" points="84.61,22.29 84.9,22.29 85.19,22.29 85.77,22.58 86.05,22.58 86.05,22.86 86.34,22.86 86.63,22.86 
	86.92,23.15 87.21,23.15 87.49,23.44 87.78,23.73 88.36,23.73 88.65,24.02 88.93,24.3 89.22,24.59 89.51,24.59 89.8,24.88 
	90.09,25.17 90.37,25.46 90.95,25.46 91.24,25.74 91.53,26.03 91.81,26.32 91.81,26.61 91.81,26.9 91.81,27.18 92.1,27.47 
	92.39,27.76 92.68,28.05 92.68,28.34 92.68,28.62 92.68,28.91 92.68,29.2 92.96,29.2 92.96,29.49 93.25,29.77 93.54,29.77 
	93.83,30.06 94.12,30.35 94.12,30.64 94.4,30.64 94.69,30.64 94.98,30.93 94.98,31.21 95.27,31.21 95.27,31.5 95.27,31.79 
	95.27,32.08 94.98,32.37 94.98,32.94 94.98,33.23 94.98,33.52 94.98,33.81 95.27,33.81 95.27,34.09 95.27,34.38 95.56,34.67 
	95.84,34.96 96.13,35.25 96.42,35.25 96.71,35.25 96.71,35.53 96.71,35.82 96.42,36.11 96.13,36.4 95.84,36.69 95.84,36.97 
	95.56,37.26 95.56,37.55 95.56,38.12 95.56,38.41 95.56,38.7 95.56,38.99 95.56,39.28 95.56,39.85 95.56,40.14 95.56,40.43 
	95.56,40.72 95.56,41.29 95.56,41.58 95.56,41.87 95.56,42.16 95.56,42.44 95.56,42.73 95.27,42.73 94.98,43.02 94.69,43.31 
	94.4,43.6 94.12,43.31 93.83,43.31 93.83,43.02 93.54,43.02 93.25,43.02 92.96,42.73 92.96,42.44 92.68,42.44 92.68,42.73 
	92.39,42.73 92.1,42.73 92.1,43.02 91.81,43.02 91.81,43.31 91.53,43.31 91.53,43.6 91.24,43.6 90.95,43.31 90.95,43.6 90.66,43.6 
	90.37,43.6 90.37,43.31 90.09,43.31 89.8,43.31 89.51,43.88 89.22,43.88 88.93,44.17 88.65,44.17 88.36,44.46 88.07,44.46 
	88.07,44.75 87.78,44.75 87.49,44.75 87.21,44.46 86.92,44.46 86.63,44.46 86.34,44.75 86.05,44.75 85.77,44.75 85.48,44.75 
	85.19,44.46 84.9,44.46 84.61,44.46 84.33,44.46 84.04,44.46 83.75,44.75 83.46,44.75 83.18,44.75 82.89,44.75 82.6,45.03 
	82.31,45.03 82.02,45.03 81.74,45.03 81.45,44.75 81.16,44.46 80.87,44.17 80.58,43.88 80.58,43.6 80.3,43.31 80.01,43.02 
	79.72,42.73 79.43,42.44 79.43,42.16 79.14,42.16 79.14,41.87 78.86,41.87 78.57,41.58 78.28,41.58 77.99,41.58 77.42,41.58 
	76.84,41.58 76.55,41.87 76.55,42.16 76.84,42.44 76.84,42.73 76.84,43.02 76.84,43.31 76.55,43.31 76.55,43.6 76.55,43.88 
	76.55,44.17 76.27,44.17 76.27,44.46 76.27,44.17 75.98,44.17 75.98,44.46 75.98,44.75 76.27,45.03 76.55,45.32 76.55,45.61 
	76.84,45.61 76.84,45.9 76.55,45.9 76.55,46.19 76.55,46.47 76.55,46.76 76.27,46.76 76.27,47.05 76.27,47.34 76.27,47.63 
	76.27,47.91 76.55,47.91 76.84,48.2 77.13,47.91 77.13,48.2 77.13,48.49 76.84,48.78 76.84,49.07 76.84,49.35 77.13,49.35 
	77.13,49.64 77.42,49.64 77.42,49.93 77.13,49.93 77.13,50.22 77.13,50.51 77.42,50.51 77.42,50.79 77.13,50.79 77.13,51.08 
	77.13,51.37 76.84,51.37 76.84,51.66 76.55,51.66 76.55,51.95 76.55,52.23 76.84,52.23 76.55,52.23 76.27,52.23 75.98,52.23 
	75.98,51.95 75.98,52.23 75.69,52.23 75.4,52.23 75.4,52.52 75.4,52.81 75.11,53.1 75.11,53.38 74.83,53.38 74.54,53.38 
	74.25,53.38 74.25,53.67 73.96,53.67 73.67,53.67 73.67,53.96 73.39,53.96 73.39,53.67 73.1,53.67 72.81,53.67 72.52,53.67 
	72.52,53.96 72.23,53.96 71.95,53.96 71.95,54.25 71.66,54.25 71.66,54.54 71.37,54.54 71.08,54.54 70.79,54.54 70.79,54.82 
	70.79,55.11 70.51,55.11 70.51,55.4 70.22,55.4 70.22,55.69 69.93,55.98 69.64,55.98 69.64,56.26 69.35,56.26 69.07,56.55 
	69.07,56.84 68.78,56.84 68.49,56.84 68.49,57.13 68.2,57.13 68.2,57.42 67.92,57.7 67.63,57.99 67.34,57.99 67.34,58.28 
	67.05,58.28 66.76,58.28 66.48,58.57 66.19,58.57 65.9,58.57 66.19,58.57 66.19,58.86 65.9,58.86 65.9,58.57 65.61,58.57 
	65.61,58.86 65.32,58.86 65.32,59.14 65.04,59.43 65.04,59.72 65.32,59.72 65.04,59.72 65.04,60.01 65.04,60.29 64.75,60.29 
	64.46,60.29 64.17,60.29 64.17,60.58 63.88,60.58 63.88,60.29 63.88,60.58 63.6,60.58 63.6,60.87 63.31,60.87 63.31,61.16 
	63.02,61.16 63.31,61.16 63.31,61.45 63.02,61.45 63.02,61.16 62.73,61.16 62.73,61.45 62.73,61.73 62.44,61.73 62.16,61.73 
	62.16,62.02 61.87,62.02 61.87,62.31 61.58,62.31 61.58,62.6 61.58,62.89 61.58,63.17 61.58,63.46 61.58,63.75 61.58,64.04 
	61.29,64.04 61.29,64.33 61.29,64.61 61.29,64.9 61.29,65.19 61,65.19 61,65.48 61.29,65.48 61.29,65.77 61.58,65.77 61.58,66.05 
	61.87,66.05 61.87,66.34 61.87,66.63 62.16,66.63 62.44,66.92 62.73,66.92 63.02,67.21 63.31,67.21 63.6,67.21 63.88,67.49 
	63.88,67.78 64.17,67.78 64.17,68.07 64.46,68.36 64.46,68.64 64.75,68.64 64.75,68.93 64.75,69.22 64.75,69.51 64.75,69.8 
	64.75,70.08 64.75,70.37 64.75,70.66 64.75,70.95 64.75,71.24 64.75,71.52 65.04,71.81 65.32,72.1 65.32,72.39 65.61,72.39 
	65.61,72.68 65.9,72.96 65.9,73.25 66.19,73.25 66.48,73.54 66.48,73.83 66.76,73.83 66.76,74.12 66.76,74.4 66.76,74.69 
	67.05,74.98 67.05,75.27 67.05,75.56 67.05,75.84 67.05,76.13 66.76,76.13 66.76,76.42 66.76,76.71 66.76,76.99 66.76,77.28 
	66.76,77.57 66.48,77.57 66.48,77.28 66.19,77.28 65.9,77.28 65.61,77.28 65.61,77.57 65.32,77.28 65.32,76.99 65.32,76.71 
	65.04,76.71 65.04,76.42 65.04,76.13 65.04,75.84 65.04,75.56 64.75,75.56 64.46,75.27 64.17,75.27 63.88,75.27 63.88,75.56 
	63.88,75.84 63.6,75.84 63.6,76.13 63.31,76.42 63.02,76.42 63.02,76.71 62.73,76.99 62.73,77.28 62.73,77.57 62.44,77.57 
	62.44,77.86 62.44,78.15 62.16,78.15 61.58,78.43 61.29,78.43 61.29,78.72 61,78.72 61,79.01 61,79.3 60.72,79.3 60.72,79.01 
	60.43,79.01 60.43,78.72 60.14,78.72 59.85,78.72 59.85,78.43 60.14,78.43 59.85,78.15 59.85,78.43 59.56,78.15 59.56,77.86 
	59.56,77.57 59.28,77.57 58.99,77.57 58.7,77.57 58.41,77.57 58.13,77.57 57.84,77.28 57.55,77.28 57.55,77.57 57.26,77.57 
	56.97,77.28 56.69,77.28 56.11,77.57 55.53,77.57 55.25,77.57 54.96,77.57 54.96,77.86 54.67,77.86 54.38,77.86 54.09,77.86 
	53.81,77.86 53.52,77.86 53.52,78.15 53.23,78.15 53.23,77.86 52.94,77.86 52.94,77.57 52.65,77.57 52.65,77.86 52.37,78.15 
	52.08,78.15 52.08,78.43 51.79,78.43 51.79,78.72 51.5,78.72 51.5,79.01 51.21,79.01 50.93,79.01 50.64,79.01 50.64,78.72 
	50.35,78.72 50.06,78.72 49.77,78.72 49.49,78.43 49.2,78.43 49.2,78.72 49.2,79.01 48.91,79.3 48.91,79.59 48.62,79.59 
	48.62,79.87 48.34,79.87 48.34,80.16 48.05,80.16 47.76,80.16 47.47,80.16 47.47,80.45 47.47,80.74 47.76,80.74 47.76,81.03 
	47.47,81.31 47.18,81.6 47.18,81.89 47.18,82.18 47.18,82.47 46.9,82.47 46.9,82.75 46.61,82.75 46.61,83.04 46.61,83.33 
	46.9,83.33 46.9,83.62 47.18,83.62 47.18,83.9 46.9,83.9 46.61,83.9 46.32,83.62 46.03,83.9 46.03,84.19 46.32,84.19 46.32,84.48 
	46.32,84.77 46.61,85.06 46.61,85.34 46.61,85.63 46.32,85.63 46.32,85.34 46.03,85.34 45.74,85.34 45.46,85.34 45.46,85.63 
	45.17,85.63 44.88,85.92 44.59,85.92 44.3,85.92 44.02,85.92 43.73,85.92 43.44,85.92 43.44,86.21 43.73,86.21 43.73,86.5 
	43.44,86.5 43.44,86.78 43.15,86.78 43.15,86.5 42.86,86.21 42.86,85.92 42.58,85.92 42.58,86.21 42.29,86.5 42.29,86.78 
	42.29,87.07 42.29,87.36 42,87.36 42,87.07 42,86.78 41.71,86.78 41.71,86.5 41.42,86.5 41.42,86.78 41.14,86.78 41.14,87.07 
	41.42,87.36 41.42,87.65 41.14,87.65 40.85,87.65 40.56,87.65 40.27,87.65 40.27,87.36 39.99,87.36 39.99,87.65 39.7,87.65 
	39.7,87.94 39.41,87.94 39.12,88.22 38.83,88.22 38.55,88.51 38.26,88.51 37.97,88.51 37.97,88.22 37.97,87.94 37.97,87.65 
	37.68,87.65 37.39,87.65 37.11,87.65 37.11,87.94 37.39,88.22 37.39,88.51 37.39,88.8 37.39,89.09 37.39,89.38 37.39,89.95 
	37.39,90.24 37.68,90.53 37.68,90.82 37.68,91.1 37.68,91.39 37.68,91.68 37.68,91.97 37.97,91.97 37.97,92.25 37.97,92.54 
	37.68,92.83 37.39,92.83 37.39,93.12 37.11,93.12 36.82,93.12 36.24,93.12 35.95,93.12 35.67,92.83 35.38,92.83 34.51,92.83 
	33.65,92.83 32.79,92.54 32.21,92.54 31.92,92.54 31.64,92.54 31.35,92.54 30.48,92.25 29.62,92.25 29.04,92.25 27.6,92.25 
	27.32,92.25 27.03,92.25 26.74,92.25 25.88,92.25 24.44,92.25 23.29,91.97 21.85,91.97 21.56,91.97 21.27,92.25 20.98,92.25 
	20.41,92.25 19.54,92.54 18.68,92.83 18.39,92.83 18.1,93.12 17.81,93.12 16.95,93.12 16.37,93.12 15.51,93.12 14.65,93.12 
	14.07,93.12 13.78,93.12 12.92,93.12 12.06,93.12 11.77,93.12 11.48,93.12 10.9,93.12 10.04,93.41 8.89,93.69 8.31,93.69 
	8.02,93.69 7.74,93.69 6.01,93.98 5.72,93.98 3.13,94.56 0.83,94.85 0.25,94.56 0.25,94.27 0.25,93.98 0.25,93.69 0.25,93.41 
	0.25,93.12 0.25,92.83 0.25,92.54 0.25,92.25 0.25,91.97 0.25,91.68 0.25,91.39 0.25,91.1 0.25,90.82 0.25,90.53 0.25,90.24 
	0.25,89.95 0.25,89.66 0.25,89.38 0.25,89.09 0.25,88.8 0.25,88.51 0.25,88.22 0.25,87.94 0.25,87.65 0.25,87.36 0.25,87.07 
	0.25,86.78 0.25,86.5 0.25,86.21 0.25,85.92 0.25,85.63 0.25,85.34 0.25,85.06 0.25,84.77 0.25,84.48 0.25,84.19 0.25,83.9 
	0.25,83.62 0.25,83.33 0.25,83.04 0.25,82.75 0.25,82.47 0.25,82.18 0.25,81.89 0.25,81.6 0.25,81.31 0.25,81.03 0.25,80.74 
	0.25,80.45 0.25,80.16 0.25,79.87 0.25,79.59 0.25,79.3 0.25,79.01 0.25,78.72 0.25,78.43 0.25,78.15 0.25,77.86 0.25,77.28 
	0.25,76.99 0.25,76.71 0.25,76.42 0.25,76.13 0.25,75.84 0.25,75.56 0.25,75.27 0.25,74.98 0.25,74.69 0.25,74.4 0.25,74.12 
	0.25,73.83 0.25,73.54 0.25,73.25 0.25,72.96 0.25,72.68 0.25,72.39 0.25,72.1 0.25,71.81 0.25,71.52 0.25,71.24 0.25,70.66 
	0.25,70.37 0.25,70.08 0.25,69.8 -0.04,69.8 -0.04,69.22 -0.04,68.93 -0.04,68.64 -0.04,68.36 -0.04,67.49 -0.04,66.92 -0.04,66.05 
	-0.04,65.77 -0.04,65.48 -0.04,65.19 -0.04,64.9 -0.04,64.04 -0.04,63.75 -0.04,63.46 -0.04,62.89 -0.04,62.6 -0.04,62.31 
	-0.04,61.45 -0.04,60.87 -0.04,60.58 -0.04,60.01 -0.04,59.72 -0.04,59.14 -0.04,58.86 -0.04,58.57 -0.04,58.28 -0.04,57.99 
	-0.04,57.7 -0.04,57.42 -0.04,57.13 -0.04,56.84 -0.04,56.55 -0.04,56.26 -0.04,55.98 -0.04,55.69 -0.04,55.11 -0.04,54.54 
	-0.04,54.25 -0.04,53.96 -0.04,53.67 -0.04,53.38 -0.04,53.1 -0.04,52.81 -0.04,52.23 -0.04,51.95 -0.04,51.66 -0.04,51.08 
	0.25,51.08 1.11,50.51 1.69,50.22 1.98,50.22 2.27,49.93 3.13,49.64 3.71,49.35 4.28,49.07 4.57,48.78 4.86,48.78 5.15,48.49 
	5.43,48.49 5.43,48.2 5.43,47.91 5.43,47.63 5.43,47.34 5.15,47.05 5.15,46.76 5.15,46.47 5.43,46.19 5.43,45.9 5.43,45.61 
	5.72,45.61 5.72,45.32 5.72,45.03 5.43,45.03 5.72,45.03 5.72,44.75 6.01,44.75 6.01,44.46 6.01,44.17 6.01,43.88 5.72,43.6 
	5.72,43.31 6.01,43.31 6.01,43.02 6.01,42.73 6.01,42.44 6.01,42.16 6.01,41.87 6.01,41.58 5.72,41.58 5.72,41.29 5.43,41 
	5.43,40.72 5.15,40.43 5.15,40.14 5.15,39.85 5.15,39.56 5.15,39.28 5.43,38.99 5.43,38.7 5.15,38.41 5.15,38.12 5.15,37.84 
	5.15,37.55 4.86,37.55 5.15,37.55 5.15,37.26 5.43,36.97 5.43,36.69 5.72,36.4 6.01,36.69 6.3,36.69 6.3,36.4 6.58,36.4 6.58,36.11 
	6.58,36.4 6.58,36.69 6.87,36.69 7.16,36.69 7.45,36.97 7.74,36.97 8.02,36.97 8.31,36.69 8.31,36.97 8.6,36.97 8.89,36.97 
	9.18,36.97 9.18,37.26 9.18,37.55 9.18,37.84 9.18,38.12 9.18,38.41 9.46,38.41 9.75,38.41 9.75,38.7 10.04,38.99 10.04,39.28 
	10.33,39.28 10.62,39.56 10.62,39.85 10.62,39.56 10.9,39.56 11.19,39.28 11.48,39.28 11.48,39.56 11.48,39.85 11.77,39.85 
	11.77,40.14 12.06,40.14 12.06,39.85 12.34,39.56 12.34,39.28 12.34,38.99 12.34,38.7 12.34,38.41 12.06,38.41 12.06,38.12 
	12.34,38.12 12.63,38.12 12.92,38.12 13.21,37.84 13.5,37.84 13.78,38.12 14.07,37.84 14.36,37.84 14.65,37.84 14.94,37.84 
	15.22,37.84 15.51,37.84 16.09,37.55 16.37,37.55 16.66,37.55 16.95,37.55 16.95,37.26 17.24,37.26 17.24,36.97 17.53,36.69 
	17.53,36.4 17.81,36.11 18.1,35.82 18.1,35.53 18.39,35.25 18.39,34.96 18.68,34.96 18.68,34.67 18.97,34.38 19.25,34.38 
	19.25,34.09 19.54,34.09 19.54,33.81 19.83,33.52 20.12,33.23 20.41,32.94 20.98,32.65 21.27,32.37 21.56,32.08 21.85,31.79 
	22.13,31.21 22.42,31.21 22.71,30.93 23,30.64 23.29,30.06 23.57,30.06 23.57,29.77 23.57,29.49 23.86,29.2 23.86,28.62 
	23.86,28.05 23.86,27.76 24.15,26.9 24.15,26.61 24.15,26.32 24.15,26.03 24.15,25.74 24.15,25.46 24.15,25.17 24.15,24.88 
	24.15,24.59 23.86,24.3 23.86,24.02 23.57,24.02 23.57,23.73 23.29,23.44 23,23.15 23,22.86 23,22.58 22.71,22.58 22.71,22.29 
	23,21.71 23,21.42 23.29,21.42 23.29,21.14 23.29,20.85 23.29,20.56 23.29,20.27 23.29,19.99 23,19.99 23,19.7 23.29,19.7 
	23.29,19.41 23,19.41 23,19.12 22.71,19.12 22.42,18.83 22.71,18.83 23,18.55 23.29,18.55 23.29,18.83 23.57,18.83 23.57,18.55 
	23.86,18.55 24.15,18.83 24.44,19.12 24.44,19.41 24.73,19.41 25.01,19.7 25.3,19.7 25.3,19.99 25.59,19.99 25.59,20.27 
	25.59,20.56 25.59,20.85 25.59,21.14 25.88,21.14 25.88,21.42 25.88,21.71 25.88,22 26.16,22.29 26.16,22.58 26.45,22.58 
	26.74,22.86 26.74,23.15 27.03,23.15 27.32,23.15 27.6,23.15 27.6,23.44 27.89,23.44 27.89,23.73 28.18,23.73 28.47,23.73 
	28.47,24.02 28.76,24.02 29.04,24.02 29.33,24.02 29.62,23.73 30.2,23.73 30.48,23.73 30.77,23.73 31.35,23.73 31.92,23.73 
	32.5,23.73 32.79,23.73 33.08,23.73 33.65,23.73 34.23,23.73 34.51,24.02 34.8,24.02 34.8,24.3 35.09,24.59 35.38,24.59 
	35.67,24.88 35.95,24.88 36.24,24.88 36.24,25.17 36.53,25.17 36.82,25.17 37.11,25.17 37.39,25.17 37.68,25.17 37.97,25.17 
	37.97,25.46 38.26,25.46 38.26,25.74 38.55,25.74 38.55,26.03 38.83,26.32 38.83,26.61 39.12,26.9 39.12,27.18 39.7,27.76 
	39.7,28.05 39.7,28.34 39.7,28.62 39.7,29.2 39.7,29.49 39.99,29.77 40.27,29.77 40.56,29.77 40.56,30.06 40.85,30.06 40.85,30.35 
	41.14,30.35 41.14,30.06 41.14,29.77 41.14,29.49 41.42,29.49 41.71,29.49 42,29.49 42.29,29.49 42.58,29.49 42.86,29.77 
	42.86,29.49 43.15,29.49 43.15,29.2 43.44,28.91 43.73,28.91 44.02,28.62 44.3,28.62 44.3,28.34 44.02,28.05 44.3,27.18 44.3,26.9 
	44.3,26.61 44.3,26.32 44.59,26.32 44.88,26.32 44.88,26.03 45.17,26.03 45.46,25.74 45.74,25.74 46.03,25.74 46.32,26.03 
	46.61,26.03 46.61,25.74 46.9,25.74 47.18,25.74 47.47,25.74 47.76,25.74 48.05,25.46 48.34,25.46 48.34,25.17 48.34,24.88 
	48.34,24.59 48.62,24.59 48.62,24.3 48.34,24.02 48.34,23.73 48.05,23.73 48.05,23.44 48.05,23.15 47.76,23.15 47.76,22.86 
	47.76,22.58 47.47,22.58 47.47,22.29 47.18,22.29 47.18,22 47.18,21.71 47.18,21.42 47.18,21.14 47.18,20.85 46.9,20.56 46.9,20.27 
	47.18,19.99 47.18,19.7 47.47,19.7 47.47,19.41 48.05,18.83 48.34,18.55 48.34,18.26 48.34,17.97 48.34,17.68 48.34,17.39 
	48.34,17.11 48.34,16.82 48.34,16.53 48.05,16.24 48.05,15.95 48.34,15.67 48.34,15.38 48.34,15.09 48.62,14.8 48.62,14.51 
	48.91,14.51 49.2,14.51 49.49,14.51 49.77,14.51 49.77,14.8 50.06,14.8 50.35,14.8 50.35,15.09 50.64,15.09 50.64,15.38 
	50.93,15.38 50.93,15.67 51.21,15.38 51.21,15.09 51.21,14.8 51.21,14.51 50.93,14.23 50.93,13.94 50.64,13.65 50.64,13.36 
	50.35,13.36 50.35,13.08 50.06,13.08 50.06,12.79 50.35,12.5 50.64,12.5 50.93,12.21 50.93,11.92 51.21,11.92 51.5,11.92 
	51.79,11.92 51.79,11.64 51.79,11.35 52.08,11.06 52.08,10.77 51.79,10.48 51.5,10.2 51.21,10.2 50.93,10.2 50.64,10.2 50.64,9.91 
	50.64,9.62 50.64,9.33 50.64,9.04 50.64,8.76 50.35,8.76 50.64,8.47 50.93,8.47 51.21,8.47 51.79,8.47 52.08,8.76 52.37,8.76 
	52.65,8.76 53.23,8.76 53.52,8.76 53.52,8.47 53.52,8.18 53.23,7.89 53.23,7.6 53.23,7.32 53.23,7.03 53.23,6.74 53.23,6.45 
	53.52,6.45 53.52,5.88 53.81,5.59 54.09,5.59 54.38,5.88 54.38,5.59 54.67,5.59 54.67,5.3 54.67,5.01 54.67,4.73 54.96,4.73 
	55.53,4.44 55.82,4.15 55.82,4.44 56.11,4.44 56.11,4.15 56.4,3.86 56.69,3.86 56.69,3.57 56.97,3.57 57.26,3 57.55,2.71 
	57.55,2.42 57.84,2.42 58.13,2.13 58.13,1.85 58.7,1.85 58.99,1.85 59.28,2.13 59.28,2.42 59.28,2.71 59.85,3 60.14,3.57 
	60.14,3.86 59.85,4.15 59.85,4.44 60.14,4.73 60.14,5.01 60.14,5.3 60.14,5.59 60.43,5.59 60.72,5.59 61,5.59 61.29,5.3 61.58,5.3 
	61.87,5.3 61.87,5.01 62.16,5.01 62.16,4.73 62.44,4.73 62.44,4.44 62.73,4.44 62.73,4.15 63.02,4.15 63.31,4.15 63.6,3.86 
	63.6,4.15 63.88,4.15 63.88,4.73 63.88,5.01 63.88,5.59 63.88,5.88 63.88,6.16 63.88,6.45 64.17,7.03 64.46,7.32 64.46,7.6 
	64.46,7.89 64.75,8.18 64.75,8.47 65.04,8.76 65.32,8.76 65.32,8.47 65.61,8.47 65.61,8.76 65.9,8.76 66.48,8.76 66.76,9.04 
	67.05,9.33 67.34,9.33 67.34,9.62 67.63,9.62 67.92,9.33 68.2,9.62 68.49,9.91 68.49,10.2 68.78,10.2 69.07,10.2 69.35,10.48 
	69.64,10.77 69.64,11.06 69.93,11.06 70.22,11.35 70.51,11.35 70.79,11.35 70.79,11.64 71.08,11.92 71.08,11.64 71.08,11.35 
	71.37,11.35 71.66,11.35 71.66,11.64 71.95,11.64 71.95,11.92 72.23,11.92 72.52,12.21 72.81,12.21 73.1,12.21 73.39,12.21 
	73.67,12.21 73.67,12.5 73.39,12.79 73.67,12.79 73.96,13.08 74.25,13.36 74.25,13.65 74.25,13.94 74.25,14.23 74.54,14.23 
	74.54,13.94 74.83,13.94 75.11,13.94 75.4,14.23 75.4,14.51 75.69,14.51 75.98,14.51 75.98,14.8 76.27,14.8 76.27,15.09 
	76.27,15.38 76.27,15.67 75.98,15.67 75.69,15.67 75.69,15.95 75.98,16.53 76.27,16.53 76.55,16.24 76.84,16.53 76.84,16.24 
	77.13,16.53 77.42,16.53 77.42,16.82 77.7,17.11 77.99,17.11 78.28,17.11 78.57,17.11 78.57,17.39 78.57,17.68 78.86,17.68 
	78.86,17.97 78.57,17.97 78.57,18.26 78.86,18.55 78.86,18.83 78.86,19.12 79.14,19.12 79.43,19.41 79.72,19.41 79.72,19.7 
	80.01,19.7 80.3,19.7 80.58,19.7 80.58,19.99 80.58,20.27 80.87,20.56 81.16,20.85 81.45,20.85 81.45,21.14 81.74,21.14 
	81.74,21.42 82.02,22 82.31,22.29 82.31,22.58 82.6,22.86 82.89,23.15 83.18,23.15 83.18,22.58 83.46,22.29 83.75,22 84.04,22 "/>
</svg>
