<?xml version="1.0" encoding="utf-8"?>
<!-- Generator: Adobe Illustrator 24.2.1, SVG Export Plug-In . SVG Version: 6.00 Build 0)  -->
<svg version="1.1" id="Layer_1" xmlns="http://www.w3.org/2000/svg" xmlns:xlink="http://www.w3.org/1999/xlink" x="0px" y="0px"
	 viewBox="0 0 97.23 97.23" style="enable-background:new 0 0 97.23 97.23;" xml:space="preserve">
<style type="text/css">
	.st0{fill-rule:evenodd;clip-rule:evenodd;fill:#1D1D1B;}
</style>
<polygon class="st0" points="81.2,14.63 80.91,15.52 80.91,16.41 80.91,17.59 80.61,18.48 80.61,19.36 80.61,20.25 80.61,20.84 
	80.61,21.43 80.61,21.73 80.61,22.03 80.61,22.32 80.61,22.62 80.32,22.91 80.32,23.21 80.32,23.51 80.02,23.51 80.02,23.8 
	80.32,24.1 80.32,24.39 80.02,25.28 80.02,25.58 80.02,25.87 80.02,26.76 80.02,27.35 80.02,28.24 80.02,28.83 80.02,29.42 
	80.02,30.01 80.02,30.31 80.02,30.9 80.02,31.19 79.73,31.79 79.43,32.97 79.13,33.26 79.13,33.86 78.84,34.45 78.84,34.74 
	79.13,34.74 79.73,35.33 79.13,36.22 79.73,36.81 79.43,37.4 79.43,37.7 79.43,38 79.73,38 79.73,38.29 80.02,38.59 80.02,38.88 
	80.32,39.18 80.61,39.47 81.2,40.07 81.5,40.36 82.09,40.95 82.39,41.25 82.68,41.54 83.27,41.84 84.16,42.43 84.46,42.43 
	84.16,42.73 83.87,43.32 82.68,45.09 82.39,45.39 82.09,45.68 82.09,45.98 81.8,45.98 81.5,46.28 81.5,46.57 81.2,46.57 81.2,46.87 
	80.91,46.87 80.91,47.16 80.61,47.16 80.61,47.46 80.32,47.46 80.32,47.76 80.02,47.76 80.02,48.05 79.73,48.35 79.73,48.64 
	79.43,48.94 79.43,49.23 79.13,49.23 79.13,49.53 79.13,49.83 78.84,49.83 79.13,50.12 79.43,50.12 80.02,50.42 80.32,50.71 
	80.61,51.01 80.91,51.3 80.91,51.6 81.2,51.89 81.2,52.19 81.5,52.49 81.8,52.78 81.8,53.08 82.09,53.67 82.39,53.97 82.39,54.56 
	82.98,55.44 82.98,55.74 83.27,55.74 83.27,56.04 83.27,56.33 83.57,56.63 83.57,57.22 83.87,57.51 84.46,58.7 84.75,59.58 
	85.05,59.88 85.05,60.18 85.34,60.47 85.64,61.06 86.53,62.84 86.82,63.43 87.12,64.61 87.71,65.2 87.71,65.79 88.3,66.68 
	88.6,67.27 89.78,69.93 89.78,70.23 89.78,70.82 90.08,71.41 90.08,71.71 90.08,72.6 90.08,72.89 90.08,73.78 90.08,74.07 
	90.08,74.37 90.08,74.67 90.08,74.96 90.08,75.26 90.08,75.55 90.08,75.85 90.08,76.14 90.08,76.44 90.08,76.74 90.08,77.03 
	90.08,77.33 90.37,77.62 90.37,77.92 90.67,77.92 90.67,78.22 90.67,78.51 90.96,78.51 90.96,78.81 90.96,79.1 90.96,79.4 
	90.96,79.69 90.96,79.99 90.96,80.29 90.96,80.58 90.96,80.88 90.96,81.17 91.26,81.17 91.26,81.47 90.96,81.47 90.67,81.76 
	90.37,81.76 90.08,82.06 89.78,82.06 89.49,82.36 89.49,82.65 89.19,82.95 88.89,82.95 88.89,83.24 88.89,83.54 88.89,83.83 
	88.6,84.13 88.3,84.13 87.42,84.13 86.53,84.43 85.64,84.43 85.05,84.72 83.87,85.02 83.27,85.31 82.98,85.9 82.39,86.2 
	82.09,87.68 82.09,88.27 81.8,88.86 81.5,88.86 81.2,89.16 81.2,89.75 80.91,90.04 80.02,90.64 79.43,90.93 79.13,90.93 
	78.54,90.64 78.25,90.64 77.95,90.64 77.36,90.93 75.59,92.11 75.29,91.52 74.99,91.82 74.4,92.11 72.63,93 72.33,93 72.33,92.71 
	72.33,92.41 72.04,92.41 72.04,92.11 72.04,91.82 71.74,91.52 71.74,91.23 71.45,90.93 71.15,90.64 70.85,90.04 70.56,90.04 
	70.56,90.34 70.26,90.34 70.26,90.64 69.97,90.64 69.67,90.64 69.37,90.64 69.08,90.93 68.78,90.93 68.49,90.93 68.19,91.23 
	67.9,91.23 67.6,91.23 67.3,91.23 67.01,91.23 66.71,91.23 66.42,91.23 66.12,91.23 65.83,91.23 65.53,90.93 65.23,90.64 
	65.23,90.34 65.23,90.04 65.23,89.75 64.94,89.75 64.64,89.75 64.35,89.75 64.35,90.04 64.05,90.04 64.05,90.34 64.05,90.64 
	64.05,90.93 63.76,90.93 63.46,90.93 63.16,90.93 63.16,90.64 62.87,90.64 62.57,90.64 62.57,90.34 62.28,90.34 62.28,90.04 
	62.28,89.75 61.98,89.75 61.98,90.04 61.69,90.04 61.39,90.34 61.09,90.34 60.8,90.34 60.8,90.64 60.5,90.64 59.91,90.64 
	59.32,90.64 58.73,90.64 58.43,90.64 57.84,90.64 57.55,90.93 57.25,90.93 56.95,91.23 56.66,91.23 56.66,91.52 56.36,91.82 
	56.07,92.11 55.77,92.41 55.48,92.41 55.48,92.71 55.48,93 55.18,93.3 55.18,93.59 54.88,93.89 54.59,94.48 54.29,94.48 54,95.07 
	53.7,95.37 53.4,95.66 53.11,95.96 52.81,96.26 52.52,96.26 52.22,96.55 51.93,96.55 51.63,96.85 51.33,96.85 51.04,96.85 
	50.74,96.85 50.45,96.85 50.15,96.85 49.86,96.85 49.56,96.85 49.26,96.85 48.67,96.55 48.38,96.55 48.08,96.55 47.79,96.55 
	47.49,96.55 47.19,96.55 46.9,96.26 46.6,96.26 46.31,96.26 46.01,96.26 46.01,96.55 45.72,96.55 45.42,96.55 45.42,96.85 
	45.12,96.85 45.12,96.55 44.83,96.55 44.53,96.55 44.24,96.55 44.24,96.26 44.53,96.26 44.53,95.96 44.53,95.66 44.83,95.37 
	44.53,95.07 44.53,94.78 44.83,94.48 44.83,94.18 45.12,94.18 45.12,93.89 45.12,93.59 45.12,93.3 45.12,93 45.12,92.71 
	45.12,92.41 45.42,92.41 45.42,92.11 45.42,91.82 45.72,91.82 45.72,91.52 46.01,91.23 46.01,90.93 45.72,90.93 45.72,90.64 
	46.01,90.64 46.01,90.34 46.01,90.04 46.01,89.75 46.01,89.45 46.01,89.16 45.72,89.16 45.72,88.86 45.42,88.86 45.12,88.86 
	44.83,88.86 44.53,88.86 44.24,88.86 43.94,88.86 43.65,88.86 43.35,88.86 43.05,89.16 42.76,89.16 42.46,89.16 42.17,89.16 
	41.87,89.16 41.58,89.16 41.28,89.16 40.98,89.45 40.69,89.45 40.39,89.45 40.1,89.45 39.8,89.45 39.8,89.16 39.51,88.86 
	39.51,88.57 39.21,88.57 39.21,88.27 38.91,87.97 38.62,87.68 38.62,87.38 38.62,87.09 38.32,86.79 38.32,86.5 38.32,86.2 
	38.32,85.61 38.32,85.31 38.03,85.02 38.03,84.72 38.03,84.13 38.03,83.83 38.03,83.24 38.03,82.95 38.03,82.65 38.03,82.36 
	38.03,82.06 38.32,81.76 38.62,81.47 38.91,80.88 38.91,80.58 39.21,80.29 39.51,80.29 39.51,79.99 39.51,79.69 39.51,79.4 
	39.21,79.1 39.21,78.81 38.91,78.81 38.62,78.81 38.62,79.1 38.32,79.1 38.32,79.4 38.03,79.4 38.03,79.69 37.73,79.69 37.73,79.99 
	37.44,79.99 37.14,79.99 36.84,80.29 36.55,80.29 36.25,80.29 36.25,80.58 35.96,80.58 35.66,80.88 35.37,80.88 35.07,80.88 
	34.77,81.17 34.48,81.47 34.18,81.47 34.18,81.76 33.59,81.76 33.29,81.76 32.11,81.76 27.97,82.36 27.08,82.65 26.79,82.65 
	26.49,82.65 26.2,82.36 26.2,82.06 25.9,81.47 25.61,81.17 25.31,80.88 25.01,80.88 25.01,80.58 24.72,80.58 24.72,80.29 
	24.42,79.99 24.42,79.69 24.42,79.1 24.42,78.81 24.42,78.51 24.42,77.92 24.13,77.62 24.13,77.03 24.13,76.14 25.01,75.85 
	25.31,75.55 25.61,75.55 25.9,75.55 26.2,75.55 26.2,75.26 26.49,74.96 26.49,74.37 26.49,74.07 26.49,73.78 26.49,73.48 
	26.79,73.19 26.79,72.89 26.79,72.6 26.79,72.3 27.08,71.71 27.08,71.41 27.08,71.12 27.38,71.12 27.68,71.12 27.97,71.12 
	27.68,71.12 27.97,71.12 27.97,70.82 28.27,70.82 28.27,71.12 28.27,71.41 28.56,71.41 28.86,71.41 28.86,71.12 29.15,71.12 
	29.15,70.82 29.45,70.82 29.45,70.53 29.45,70.23 29.15,70.23 29.15,69.93 29.15,69.64 29.45,69.34 29.15,69.34 29.15,69.05 
	29.15,68.75 28.86,68.75 28.56,68.75 28.27,68.75 27.97,68.75 27.97,68.46 28.27,68.46 28.27,68.16 27.97,68.16 27.97,67.86 
	28.27,67.86 28.27,67.57 28.27,67.27 27.97,66.98 27.68,66.68 27.97,66.68 28.27,66.68 28.27,66.39 28.27,66.09 28.27,65.79 
	27.97,65.79 27.97,65.5 27.97,65.2 27.68,65.2 27.38,64.91 27.38,64.61 27.08,64.61 26.79,64.61 26.79,64.91 26.79,65.2 26.49,65.2 
	26.2,65.2 25.9,65.2 25.9,65.5 25.61,65.5 25.31,65.5 25.01,65.5 25.01,65.79 24.72,65.79 24.72,65.5 24.72,65.79 24.42,65.79 
	24.42,65.5 24.13,65.5 23.83,65.5 23.83,65.2 23.53,65.2 23.53,64.91 23.53,64.61 23.83,64.61 23.83,64.32 23.83,64.02 23.83,63.72 
	23.53,63.72 23.24,63.72 23.24,63.43 22.94,63.43 22.65,63.43 22.35,63.43 22.06,63.43 21.76,63.43 21.47,63.43 21.47,63.13 
	21.17,63.13 20.87,63.13 20.58,63.13 20.28,63.13 19.99,63.13 19.99,63.43 19.69,63.43 19.4,63.13 19.4,62.84 19.1,62.84 
	18.8,62.84 18.8,63.13 18.51,63.13 18.51,63.43 18.21,63.43 18.21,63.72 17.92,63.72 17.92,64.02 17.62,63.72 17.62,63.43 
	17.92,62.84 17.92,62.25 18.51,61.06 18.8,60.18 19.1,59.29 19.4,58.4 19.4,58.11 19.4,57.81 19.1,57.81 19.1,57.51 19.1,57.22 
	18.8,57.22 18.51,57.22 18.51,56.92 18.21,56.92 18.21,56.63 18.51,56.63 18.51,56.33 18.51,56.04 18.51,55.74 18.8,55.74 
	18.8,55.44 18.8,55.15 18.51,55.15 18.51,54.85 18.51,54.56 18.51,54.26 18.21,53.97 18.21,53.67 18.21,53.37 17.92,53.37 
	17.62,53.37 17.32,53.37 17.03,53.37 17.03,53.08 16.73,53.08 17.03,53.08 17.32,52.78 17.62,52.78 17.92,52.78 18.21,52.49 
	18.51,52.19 19.1,52.78 19.4,52.78 19.69,52.49 19.99,52.49 19.99,52.19 20.58,51.01 20.58,50.71 20.87,50.71 21.17,50.42 
	21.47,50.12 21.47,49.83 21.76,49.53 21.76,49.23 21.47,49.23 21.47,48.94 21.76,48.64 21.76,48.35 21.76,48.05 22.06,48.05 
	22.06,47.76 21.76,47.76 21.76,47.46 22.06,47.46 22.06,47.16 21.76,47.16 21.76,46.87 21.47,46.87 21.47,46.57 21.17,46.57 
	20.87,46.28 20.58,46.28 20.28,46.28 19.99,46.57 19.4,46.57 19.1,46.57 18.8,46.87 18.51,46.87 18.21,46.87 17.92,46.87 
	17.62,46.57 17.32,46.57 17.03,46.57 16.73,46.57 16.44,46.57 16.14,46.57 15.85,46.28 15.55,46.28 15.25,46.28 15.25,45.98 
	14.96,45.98 14.96,45.68 14.96,45.39 14.66,44.8 14.37,44.8 14.37,44.21 14.07,43.91 13.78,43.61 13.48,43.32 13.18,43.02 
	12.89,43.02 12.59,42.73 12.3,42.73 12,42.43 11.41,42.43 11.11,42.43 10.82,42.73 10.23,43.02 9.93,43.02 9.93,42.73 9.64,42.43 
	9.64,42.14 9.64,41.84 9.64,41.25 9.34,40.95 9.34,40.36 9.34,40.07 9.34,39.47 9.34,39.18 9.34,38.88 9.34,38.29 9.04,37.7 
	9.04,37.4 9.04,37.11 8.75,37.11 8.45,37.11 8.16,36.81 7.86,36.81 7.56,36.81 7.27,36.81 6.97,36.52 6.68,36.81 6.38,36.81 
	6.09,36.81 5.79,36.81 5.5,36.52 5.79,36.52 5.79,36.22 5.79,35.93 5.79,35.33 5.79,35.04 5.79,34.74 6.09,34.45 6.38,34.15 
	6.38,33.86 6.68,33.56 6.97,33.26 7.27,32.67 7.27,32.38 7.86,32.08 7.86,31.79 8.16,31.19 8.45,30.9 8.45,30.6 8.75,30.31 
	9.04,30.01 9.34,29.72 9.34,29.42 9.64,29.12 9.64,28.83 9.34,28.83 9.04,28.53 8.75,28.24 8.45,27.94 8.45,27.64 8.16,27.35 
	8.16,27.05 8.45,26.76 8.45,26.46 8.45,26.17 9.04,26.17 9.34,26.17 9.34,25.87 9.93,25.87 9.93,25.58 10.23,25.58 10.52,25.28 
	10.82,25.28 11.11,24.98 11.41,24.98 11.41,24.69 11.71,24.39 12,24.39 12,24.1 12.3,23.8 12.3,23.51 12.59,23.51 12.59,23.21 
	12.89,22.91 12.89,22.62 13.18,22.62 13.48,22.03 13.78,21.73 14.07,21.43 14.37,21.14 14.66,20.84 14.66,20.55 14.96,20.55 
	15.25,20.25 15.55,19.96 15.85,19.66 15.85,19.36 16.14,19.07 16.44,18.77 16.73,18.48 17.03,18.18 17.32,17.59 17.62,17.29 
	17.92,17 18.21,16.7 18.51,16.41 18.8,16.41 19.1,16.11 19.4,16.11 19.69,15.82 19.99,15.82 20.28,15.82 20.58,15.52 20.87,15.82 
	21.17,15.82 21.76,15.82 22.06,15.82 22.35,15.82 22.65,15.82 22.94,15.82 23.24,15.82 23.53,15.52 23.83,15.22 24.13,14.93 
	24.42,14.63 24.72,14.34 25.01,14.04 25.31,13.75 25.61,13.45 25.9,13.45 26.2,13.45 26.79,13.15 27.38,13.15 27.68,13.15 
	27.97,13.15 28.56,13.15 28.86,13.15 29.15,12.86 29.45,12.86 29.75,12.86 30.04,12.86 30.63,12.86 30.93,12.86 31.22,13.15 
	31.52,13.15 31.82,13.15 32.11,13.15 32.41,12.86 32.7,12.86 33,12.86 33,12.56 33.29,12.56 33.59,12.86 33.89,12.86 33.89,12.56 
	34.18,12.56 34.48,12.27 34.77,12.27 35.07,12.27 35.37,12.27 35.66,11.97 35.96,11.97 36.55,11.97 36.84,11.97 37.14,12.27 
	38.03,11.97 38.91,11.97 39.21,11.97 39.8,11.97 40.39,11.68 40.69,11.68 40.98,11.68 41.28,11.68 41.87,11.68 42.46,11.68 
	43.05,11.38 43.65,11.38 44.24,11.38 44.83,11.38 45.12,11.08 45.72,11.08 46.31,11.08 46.9,11.08 47.79,10.79 49.26,11.08 
	52.52,10.79 53.11,11.08 53.4,11.08 54.59,11.08 56.07,11.08 56.36,11.08 56.66,10.79 57.25,10.2 58.43,9.61 59.91,8.42 60.21,8.13 
	60.21,7.83 60.21,7.54 60.5,7.54 61.39,7.24 61.98,6.94 62.57,6.94 63.16,6.65 63.76,6.65 64.05,6.35 65.53,6.06 66.42,5.76 
	67.01,5.47 67.9,5.47 69.08,5.17 69.67,4.87 69.97,4.87 69.97,4.58 70.26,4.28 70.26,3.99 70.26,3.69 70.56,3.69 70.85,3.69 
	71.15,3.69 71.15,3.39 71.45,3.39 71.74,3.39 71.74,3.1 71.74,2.8 71.74,2.51 72.04,2.51 72.04,2.21 72.33,2.21 72.92,1.62 
	74.11,0.73 74.7,0.14 74.99,-0.15 74.99,0.44 74.99,0.73 74.99,1.03 74.99,2.51 74.99,3.39 75.29,4.87 75.29,5.17 75.29,5.47 
	75.29,6.06 75.59,6.35 76.18,6.35 76.47,6.35 76.77,6.35 77.06,6.35 77.36,6.35 77.95,6.35 78.54,6.35 79.13,6.65 79.73,6.65 
	80.61,6.65 81.5,6.94 81.8,6.94 81.8,7.24 81.8,7.83 81.8,9.31 81.5,10.49 81.5,11.08 81.2,13.15 81.2,13.75 "/>
</svg>
