<?xml version="1.0" encoding="utf-8"?>
<!-- Generator: Adobe Illustrator 24.2.1, SVG Export Plug-In . SVG Version: 6.00 Build 0)  -->
<svg version="1.1" id="Layer_1" xmlns="http://www.w3.org/2000/svg" xmlns:xlink="http://www.w3.org/1999/xlink" x="0px" y="0px"
	 viewBox="0 0 97.23 97.23" style="enable-background:new 0 0 97.23 97.23;" xml:space="preserve">
<style type="text/css">
	.st0{fill-rule:evenodd;clip-rule:evenodd;}
</style>
<polygon class="st0" points="92.91,26.35 93.01,26.35 93.11,26.35 93.11,26.44 93.11,26.54 93.11,26.64 93.21,26.64 93.3,26.54 
	93.3,26.64 93.3,26.54 93.4,26.54 93.4,26.64 93.5,26.64 93.6,26.64 93.7,26.64 93.7,26.74 93.8,26.74 93.8,26.84 93.89,26.84 
	93.89,26.94 93.99,26.94 93.99,27.03 93.99,27.13 93.99,27.23 93.99,27.33 93.99,27.43 93.89,27.43 93.89,27.53 93.99,27.53 
	93.89,27.53 93.99,27.53 93.99,27.62 93.89,27.62 93.99,27.62 93.89,27.62 93.89,27.72 93.8,27.72 93.7,27.82 93.7,27.92 
	93.6,27.92 93.6,28.02 93.7,28.02 93.6,28.02 93.6,28.12 93.6,28.22 93.6,28.31 93.6,28.41 93.6,28.51 93.6,28.61 93.6,28.71 
	93.6,28.81 93.5,28.9 93.5,29 93.4,29.2 93.4,29.3 93.3,29.3 93.3,29.4 93.3,29.49 93.21,29.59 93.21,29.69 93.11,29.89 
	93.11,29.99 93.01,30.08 93.01,30.18 93.01,30.28 93.11,30.28 93.11,30.38 93.01,30.48 93.01,30.58 92.91,30.77 92.91,30.87 
	92.81,30.97 92.81,31.07 92.91,31.17 92.91,31.26 92.91,31.36 92.91,31.46 92.91,31.56 92.91,31.66 92.91,31.76 93.01,31.76 
	93.11,31.85 93.11,32.05 93.21,32.15 93.3,32.25 93.4,32.35 93.5,32.35 93.5,32.44 93.6,32.44 93.7,32.44 93.8,32.44 93.89,32.44 
	93.99,32.54 94.09,32.64 94.29,32.64 94.39,32.74 94.48,32.74 94.48,32.64 94.58,32.64 94.58,32.74 94.68,32.74 94.78,32.84 
	94.88,32.84 94.98,32.94 95.08,32.94 95.17,32.94 95.27,33.04 95.37,33.04 95.37,33.13 95.47,33.13 95.47,33.23 95.57,33.33 
	95.57,33.43 95.57,33.53 95.57,33.63 95.57,33.72 95.57,33.82 95.47,33.92 95.47,34.12 95.37,34.22 95.37,34.31 95.47,34.31 
	95.47,34.41 95.47,34.51 95.47,34.61 95.57,34.61 95.57,34.71 95.57,34.81 95.47,34.81 95.47,34.9 95.37,34.9 95.37,35 95.47,35 
	95.47,35.1 95.37,35.1 95.37,35.2 95.47,35.2 95.47,35.3 95.47,35.4 95.37,35.4 95.37,35.49 95.27,35.49 95.27,35.59 95.37,35.59 
	95.27,35.59 95.27,35.69 95.27,35.79 95.17,35.89 95.08,35.99 95.08,36.08 95.08,36.18 94.98,36.28 94.88,36.28 94.88,36.38 
	94.78,36.38 94.78,36.48 94.78,36.58 95.08,37.46 95.17,37.76 95.17,37.95 95.27,38.05 95.27,38.15 95.37,38.35 95.37,38.54 
	95.47,38.64 95.47,38.84 95.57,39.04 95.57,39.23 95.67,39.33 95.67,39.43 95.76,39.63 95.76,39.82 95.86,40.02 95.86,40.12 
	95.96,40.41 96.06,40.61 96.06,40.71 96.06,40.81 96.06,41.3 96.06,41.5 96.06,41.79 96.06,41.89 96.06,41.99 96.06,42.09 
	96.06,42.28 96.06,42.58 96.06,42.68 96.06,42.87 96.06,42.97 96.06,43.17 96.06,43.27 96.06,43.46 96.16,43.66 96.16,43.76 
	96.26,43.76 96.26,43.86 96.26,43.95 96.35,43.95 96.35,44.05 96.35,44.15 96.35,44.35 96.45,44.45 96.45,44.55 96.45,44.64 
	96.55,44.74 96.65,44.74 96.75,44.74 96.85,44.84 96.85,44.94 96.85,45.04 96.75,45.04 96.65,45.04 96.55,45.04 96.45,45.14 
	96.45,45.23 96.45,45.33 96.55,45.43 96.55,45.53 96.55,45.63 96.55,45.73 96.45,45.82 96.35,45.82 96.35,45.92 96.35,46.02 
	96.35,46.12 96.45,46.61 96.55,46.71 96.55,46.81 96.45,46.81 96.45,46.91 96.45,47 96.35,47 96.35,47.1 96.26,47.2 96.26,47.3 
	96.16,47.5 96.06,47.59 96.06,47.69 96.06,47.79 96.06,47.89 96.06,47.99 96.16,48.09 96.26,48.18 96.26,48.28 96.35,48.38 
	96.35,48.48 96.35,48.58 96.45,48.58 96.45,48.68 96.35,48.78 96.26,48.87 96.26,48.97 96.16,48.97 96.16,49.07 96.06,49.17 
	96.06,49.27 95.96,49.27 95.96,49.37 95.86,49.37 95.76,49.37 95.67,49.37 95.67,49.46 95.67,49.56 95.67,49.66 95.57,49.66 
	95.47,49.66 95.47,49.76 95.57,49.86 95.67,49.96 95.76,50.05 95.86,50.15 95.96,50.15 96.06,50.25 96.06,50.35 96.06,50.45 
	95.96,50.45 95.96,50.55 95.86,50.64 95.76,50.74 95.57,50.94 95.57,51.04 95.67,51.04 95.76,51.04 95.76,51.14 95.76,51.23 
	95.67,51.43 95.57,51.53 95.47,51.63 95.47,51.73 95.37,51.73 95.27,51.73 95.17,51.82 95.17,51.92 95.27,51.92 95.37,52.02 
	95.37,52.12 95.27,52.12 95.17,52.22 95.08,52.22 95.08,52.32 94.98,52.32 94.98,52.42 94.88,52.51 94.78,52.71 94.68,52.81 
	94.68,52.91 94.78,52.91 94.68,52.91 94.68,53.01 94.58,53.01 94.48,53.1 94.39,53.1 94.29,53.1 94.19,53.1 94.09,53.1 93.99,53.1 
	93.89,53.1 93.8,53.2 93.7,53.2 93.7,53.3 93.6,53.2 93.5,53.2 93.4,53.2 93.4,53.3 93.3,53.3 93.3,53.4 93.21,53.5 93.21,53.6 
	93.11,53.6 93.01,53.69 92.91,53.69 92.81,53.79 92.81,53.89 92.81,53.99 92.81,54.09 92.81,54.19 92.71,54.19 92.71,54.28 
	92.62,54.38 92.52,54.48 92.42,54.48 92.32,54.48 92.12,54.48 92.03,54.48 92.03,54.58 92.12,54.58 92.22,54.68 92.32,54.68 
	92.32,54.78 92.42,54.87 92.32,54.87 92.32,54.97 92.42,54.97 92.52,54.97 92.52,55.07 92.62,55.07 92.71,54.97 92.81,54.97 
	92.91,54.97 92.91,55.07 93.11,55.07 93.21,55.17 93.3,55.27 93.3,55.37 93.4,55.37 93.4,55.46 93.4,55.56 93.4,55.66 93.4,55.76 
	93.4,55.86 93.4,55.96 93.4,56.05 93.4,56.15 93.3,56.15 93.3,56.25 93.3,56.35 93.3,56.45 93.3,56.55 93.4,56.55 93.4,56.65 
	93.4,56.74 93.4,56.84 93.4,56.94 93.4,57.04 93.5,57.04 93.5,57.14 93.5,57.24 93.4,57.24 93.4,57.33 93.4,57.43 93.4,57.33 
	93.3,57.33 93.3,57.43 93.21,57.43 93.11,57.43 93.01,57.43 93.01,57.53 92.91,57.53 92.91,57.43 92.81,57.43 92.81,57.53 
	92.91,57.53 92.81,57.53 92.81,57.63 92.71,57.63 92.62,57.63 92.52,57.63 92.42,57.63 92.32,57.63 92.22,57.63 92.22,57.73 
	92.12,57.73 92.12,57.83 92.03,57.83 92.03,57.92 91.93,57.92 91.93,58.02 91.83,58.02 91.83,58.12 91.73,58.12 91.73,58.02 
	91.73,58.12 91.63,58.12 91.53,58.12 91.44,58.12 91.44,58.22 91.34,58.22 91.34,58.32 91.24,58.32 91.24,58.22 91.14,58.22 
	91.04,58.22 91.04,58.12 90.94,58.12 90.94,58.22 90.94,58.32 90.85,58.32 90.75,58.32 90.75,58.22 90.65,58.22 90.65,58.32 
	90.55,58.32 90.45,58.32 90.35,58.32 90.35,58.42 90.45,58.42 90.35,58.42 90.35,58.51 90.25,58.51 90.25,58.61 90.16,58.61 
	90.16,58.71 90.06,58.71 90.06,58.61 89.96,58.61 89.96,58.71 89.86,58.71 89.76,58.71 89.66,58.71 89.66,58.61 89.57,58.71 
	89.47,58.71 89.27,58.71 89.17,58.71 88.98,58.81 88.88,58.81 88.78,58.81 88.58,58.91 88.29,59.01 88.09,59.1 87.99,59.2 
	87.89,59.2 87.7,59.3 87.6,59.3 87.5,59.4 87.4,59.4 87.3,59.5 87.21,59.5 87.11,59.6 87.11,59.5 87.01,59.5 87.01,59.6 86.91,59.6 
	86.91,59.69 86.81,59.69 86.81,59.79 86.71,59.79 86.81,59.79 86.81,59.89 86.71,59.89 86.61,59.99 86.61,59.89 86.61,59.99 
	86.52,59.99 86.42,59.99 86.42,60.09 86.52,60.09 86.52,60.19 86.42,60.19 86.52,60.19 86.42,60.19 86.52,60.29 86.52,60.38 
	86.52,60.48 86.42,60.48 86.42,60.58 86.52,60.58 86.52,60.68 86.52,60.78 86.61,60.78 86.61,60.88 86.52,60.88 86.61,60.88 
	86.61,60.97 86.52,60.97 86.52,61.07 86.42,61.07 86.42,61.17 86.52,61.17 86.52,61.27 86.42,61.27 86.42,61.37 86.52,61.47 
	86.52,61.56 86.52,61.47 86.61,61.47 86.71,61.47 86.61,61.47 86.61,61.56 86.71,61.56 86.71,61.66 86.61,61.66 86.61,61.76 
	86.61,61.86 86.61,61.96 86.61,62.06 86.61,62.15 86.61,62.25 86.61,62.35 86.52,62.45 86.61,62.45 86.61,62.55 86.52,62.55 
	86.52,62.65 86.42,62.65 86.42,62.74 86.22,62.94 86.22,63.04 86.12,63.14 86.02,63.14 86.02,63.24 85.93,63.24 85.93,63.33 
	85.93,63.43 85.93,63.53 86.02,63.63 86.12,63.73 86.12,63.83 86.22,63.93 86.22,64.02 86.22,64.12 86.02,64.32 86.02,64.42 
	85.93,64.42 85.93,64.32 85.83,64.32 85.73,64.32 85.73,64.42 85.63,64.52 85.63,64.61 85.63,64.71 85.73,64.71 85.73,64.81 
	85.73,64.91 85.73,65.01 85.83,65.01 85.93,65.11 86.02,65.11 85.93,65.2 85.93,65.3 85.93,65.4 85.93,65.5 85.83,65.5 85.83,65.4 
	85.73,65.4 85.73,65.5 85.63,65.5 85.53,65.5 85.43,65.6 85.34,65.6 85.34,65.7 85.24,65.7 85.34,65.7 85.34,65.79 85.34,65.89 
	85.34,65.99 85.34,66.09 85.24,66.09 85.14,66.09 85.14,66.19 85.04,66.19 84.94,66.19 84.94,66.29 84.84,66.29 84.84,66.38 
	84.84,66.48 84.84,66.58 84.84,66.68 84.75,66.68 84.84,66.68 84.75,66.78 84.84,66.78 84.75,66.78 84.84,66.78 84.84,66.88 
	84.75,66.88 84.75,66.97 84.65,66.97 84.75,66.97 84.75,67.07 84.65,67.07 84.55,67.07 84.55,67.17 84.55,67.07 84.45,67.17 
	84.35,67.17 84.35,67.27 84.25,67.27 84.25,67.17 84.25,67.27 84.16,67.27 84.25,67.27 84.16,67.27 84.16,67.37 84.06,67.37 
	83.96,67.37 83.86,67.37 83.86,67.47 83.76,67.47 83.66,67.47 83.57,67.47 83.47,67.47 83.47,67.56 83.37,67.56 83.27,67.56 
	83.27,67.66 83.17,67.66 83.17,67.76 83.17,67.86 83.27,67.86 83.17,67.86 83.27,67.86 83.27,67.96 83.17,67.96 83.07,67.96 
	83.07,68.06 83.07,68.15 82.97,68.15 82.97,68.25 82.88,68.25 82.97,68.35 82.97,68.45 82.88,68.45 82.88,68.55 82.88,68.65 
	82.88,68.55 82.97,68.55 83.07,68.55 83.07,68.65 83.17,68.55 83.27,68.65 83.37,68.75 83.37,68.84 83.47,68.84 83.57,68.94 
	83.66,68.94 83.66,69.04 83.76,69.04 83.86,69.04 83.86,69.14 83.86,69.24 83.76,69.34 83.76,69.53 83.76,69.63 83.66,69.63 
	83.66,69.73 83.57,69.73 83.57,69.83 83.47,69.83 83.47,69.93 83.47,70.22 83.57,70.71 83.57,70.81 83.47,71.01 83.27,71.11 
	82.58,71.2 82.38,71.2 82.29,71.2 82.29,71.3 82.29,71.4 82.19,71.4 82.09,71.5 81.99,71.5 81.99,71.6 81.89,71.6 81.89,71.7 
	81.89,71.79 81.89,71.89 81.79,71.89 81.7,71.99 81.7,72.09 81.7,72.19 81.6,72.19 81.5,72.19 81.5,72.29 81.4,72.29 81.3,72.29 
	81.3,72.39 81.2,72.39 81.2,72.48 81.11,72.58 81.01,72.58 81.01,72.68 80.91,72.68 80.81,72.68 80.81,72.58 80.71,72.68 
	80.71,72.78 80.61,72.78 80.52,72.88 80.52,72.98 80.42,73.07 80.42,73.27 80.42,73.37 80.32,73.47 80.32,73.57 80.22,73.66 
	79.93,73.76 79.63,73.96 79.33,74.25 79.14,74.45 78.94,74.84 78.84,75.04 78.74,75.24 78.74,75.63 78.84,75.83 79.04,76.22 
	79.04,76.32 78.94,76.42 78.84,76.52 78.65,76.62 78.55,76.62 78.45,76.71 78.35,76.81 78.25,76.91 78.25,77.01 78.15,77.01 
	78.15,77.11 78.06,77.11 77.96,77.21 77.86,77.21 77.76,77.3 77.66,77.3 77.47,77.4 77.37,77.5 77.27,77.5 77.17,77.5 77.07,77.5 
	76.97,77.5 76.78,77.5 76.78,77.4 76.68,77.4 76.58,77.4 76.48,77.4 76.38,77.4 76.29,77.4 76.29,77.5 76.29,77.6 76.29,77.7 
	76.29,77.8 76.19,77.89 76.19,77.99 76.19,78.09 76.09,78.09 75.99,78.09 75.89,78.09 75.89,78.19 75.79,78.39 75.7,78.48 
	75.6,78.58 75.6,78.68 75.5,78.88 75.4,78.98 75.4,79.07 75.4,79.17 75.4,79.27 75.3,79.37 75.2,79.47 75.2,79.57 75.1,79.57 
	75.1,79.66 75.01,79.76 74.91,79.86 74.81,79.86 74.81,79.96 74.71,80.06 74.71,80.16 74.61,80.16 74.61,80.25 74.61,80.35 
	74.51,80.55 74.42,80.85 74.32,81.04 74.22,80.94 74.12,80.94 73.43,80.45 73.04,80.16 72.15,79.47 70.68,78.39 70.58,78.29 
	70.48,78.19 70.28,78.09 69.79,77.7 69.89,77.6 69.99,77.5 70.09,77.4 70.19,77.3 70.28,77.3 70.38,77.3 70.38,77.21 70.19,76.91 
	70.09,76.91 70.09,76.81 69.99,76.81 69.99,76.71 69.89,76.52 69.89,76.42 69.89,76.32 69.89,76.22 69.89,76.03 69.79,75.93 
	69.69,75.63 69.69,75.53 69.69,75.43 69.6,75.43 69.5,75.34 69.3,75.34 69.2,75.24 68.91,75.14 68.81,75.14 68.71,75.14 
	68.61,75.04 68.51,75.04 68.51,74.94 68.42,74.84 68.32,74.84 68.32,74.75 68.22,74.65 68.22,74.55 68.12,74.45 68.02,74.35 
	67.92,74.25 67.82,74.25 67.73,74.25 67.73,74.16 67.63,74.16 67.53,74.16 67.53,74.06 67.33,73.86 67.14,73.47 66.94,73.17 
	66.94,73.07 66.84,72.98 66.84,72.88 66.74,72.78 66.74,72.48 66.74,72.29 66.64,71.99 66.64,71.79 66.64,71.6 66.64,71.5 
	66.55,71.3 66.55,71.2 66.55,71.01 66.45,70.91 66.45,70.81 66.45,70.71 66.35,70.61 66.25,70.61 66.05,70.61 65.96,70.52 
	65.96,70.32 65.96,70.22 65.86,70.12 65.76,69.93 65.66,69.83 65.66,69.73 65.76,69.53 65.76,69.43 65.66,69.34 65.66,69.24 
	65.56,69.04 65.56,68.94 65.56,68.84 65.56,68.75 65.46,68.75 65.46,68.65 65.46,68.55 65.46,68.45 65.46,68.35 65.37,68.25 
	65.37,68.15 65.27,68.15 65.27,68.06 65.27,67.96 65.27,67.86 65.27,67.76 65.27,67.66 65.27,67.56 65.17,67.56 65.17,67.47 
	65.07,67.47 65.07,67.37 64.97,67.37 64.87,67.37 64.87,67.47 64.78,67.37 64.87,67.37 64.87,67.27 64.87,67.17 64.87,67.07 
	64.87,66.97 64.78,66.97 64.78,66.88 64.68,66.88 64.68,66.78 64.68,66.68 64.58,66.38 64.48,66.29 64.38,66.19 64.28,66.09 
	64.28,65.99 64.18,65.89 64.09,65.79 64.09,65.7 64.09,65.6 63.99,65.5 63.89,65.4 63.79,65.3 63.69,65.2 63.59,65.11 63.5,65.01 
	63.5,64.91 63.4,64.71 63.3,64.61 63.2,64.52 63.1,64.42 63,64.32 62.91,64.22 62.81,64.12 62.71,64.12 62.61,64.02 62.51,63.93 
	62.51,63.83 62.51,63.73 62.41,63.73 62.41,63.63 62.32,63.63 62.22,63.53 62.12,63.53 62.12,63.43 62.12,63.33 62.02,63.33 
	62.02,63.24 61.92,63.24 61.92,63.14 61.82,63.14 61.82,63.04 61.63,63.04 61.53,63.04 61.53,62.94 61.43,62.94 61.33,62.94 
	61.23,62.94 61.14,62.84 61.04,62.84 60.94,62.84 60.84,62.74 60.74,62.74 60.54,62.74 60.45,62.74 60.45,62.65 60.35,62.65 
	60.25,62.65 60.15,62.65 60.15,62.55 60.05,62.55 60.05,62.45 59.95,62.45 59.95,62.35 59.86,62.35 59.86,62.25 59.76,62.25 
	59.66,62.15 59.56,62.06 59.46,62.06 59.46,61.96 59.36,61.96 59.27,61.96 59.27,61.86 59.17,61.86 59.17,61.76 59.07,61.66 
	59.07,61.56 58.97,61.47 58.87,61.37 58.87,61.27 58.77,61.27 58.77,61.17 58.68,61.17 58.58,61.07 58.48,60.97 58.38,60.97 
	58.28,60.97 58.18,60.97 58.09,60.88 58.09,60.97 57.99,60.97 57.89,60.97 57.89,60.88 57.79,60.88 57.79,60.78 57.69,60.68 
	57.69,60.58 57.59,60.58 57.59,60.48 57.5,60.48 57.3,60.48 57.2,60.48 57,60.38 56.81,60.38 56.71,60.38 56.51,60.29 56.31,60.19 
	56.31,60.09 56.22,60.09 56.22,59.99 56.12,59.99 56.02,59.89 55.92,59.89 55.82,59.89 55.63,59.79 55.13,59.69 55.04,59.69 
	54.94,59.69 54.84,59.69 54.74,59.69 54.64,59.69 54.54,59.69 54.45,59.69 54.25,59.69 54.15,59.79 54.05,59.79 53.95,59.79 
	53.86,59.79 53.66,59.79 53.76,59.69 53.76,59.6 53.86,59.6 53.86,59.5 53.86,59.4 53.86,59.3 53.95,59.3 53.95,59.2 54.05,59.2 
	54.05,59.1 54.15,59.1 54.15,59.01 54.15,58.91 54.25,58.81 54.25,58.71 54.25,58.61 54.25,58.51 54.35,58.51 54.35,58.42 
	54.25,58.42 54.25,58.32 54.35,58.32 54.35,58.22 54.25,58.12 54.25,58.02 54.35,58.02 54.35,57.92 54.25,57.92 53.95,57.83 
	53.56,57.83 53.17,57.63 52.77,57.43 52.38,56.94 52.18,56.74 52.08,56.55 51.99,56.15 52.08,55.76 51.99,55.37 52.08,55.17 
	51.99,55.07 51.89,55.07 51.89,55.17 51.69,55.17 51.49,55.17 51.4,55.17 51.3,55.27 51.2,55.27 51.1,55.27 51.1,55.37 51.1,55.46 
	51.1,55.56 51.2,55.66 51.3,55.86 51.4,55.86 51.4,55.96 51.4,56.05 51.3,56.05 51.3,56.15 51.2,56.25 51,56.25 50.9,56.35 
	50.81,56.35 50.71,56.45 50.61,56.45 50.61,56.35 50.51,56.35 50.41,56.35 50.41,56.25 50.31,56.25 50.31,56.15 50.31,56.05 
	50.31,55.96 50.22,55.96 50.12,55.96 50.12,56.05 50.02,56.05 49.92,56.05 49.92,55.96 49.82,55.96 49.72,55.96 49.72,55.86 
	49.82,55.86 49.82,55.76 49.72,55.66 49.62,55.66 49.53,55.66 49.53,55.76 49.43,55.66 49.43,55.56 49.33,55.56 49.23,55.56 
	49.13,55.56 49.03,55.46 48.94,55.46 48.94,55.56 48.84,55.56 48.84,55.46 48.84,55.37 48.74,55.37 48.74,55.27 48.64,55.27 
	48.54,55.27 48.44,55.27 48.44,55.17 48.35,55.17 48.25,55.17 48.25,55.27 48.15,55.27 48.05,55.37 47.95,55.37 47.85,55.46 
	47.85,55.56 47.76,55.56 47.66,55.56 47.66,55.46 47.66,55.37 47.66,55.27 47.56,55.27 47.56,55.17 47.66,55.17 47.66,55.07 
	47.66,54.97 47.66,54.87 47.66,54.78 47.66,54.68 47.66,54.58 47.56,54.48 47.46,54.38 47.46,54.28 47.56,54.19 47.56,54.09 
	47.56,53.99 47.46,53.99 47.46,53.89 47.36,53.79 47.36,53.69 47.26,53.6 47.26,53.5 47.36,53.3 47.26,53.2 47.26,53.1 47.26,53.01 
	47.26,52.81 47.26,52.71 47.26,52.61 47.26,52.42 47.26,52.32 47.26,52.22 47.26,52.12 47.26,52.02 47.36,52.02 47.36,51.82 
	47.36,51.73 47.36,51.53 47.36,51.43 47.36,51.33 47.36,51.23 47.36,51.14 47.26,51.14 47.26,51.04 47.26,50.94 47.26,50.84 
	47.26,50.74 47.26,50.64 47.17,50.64 47.17,50.55 47.17,50.45 47.17,50.35 47.17,50.25 47.17,50.15 47.17,50.05 47.07,49.96 
	47.07,49.86 47.17,49.76 47.17,49.66 47.26,49.56 47.26,49.46 47.26,49.37 47.26,49.27 47.26,49.07 47.36,48.97 47.36,48.87 
	47.36,48.78 47.36,48.68 47.36,48.58 47.36,48.48 47.36,48.38 47.36,48.28 47.26,48.18 47.26,48.09 47.17,48.09 47.17,47.99 
	47.17,47.79 47.07,47.69 47.07,47.59 47.07,47.4 46.97,47.2 46.97,47.1 46.97,47 46.97,46.91 46.97,46.81 46.97,46.71 46.87,46.61 
	46.87,46.51 46.87,46.41 46.97,46.22 46.97,46.12 46.97,46.02 46.97,45.92 46.87,45.92 46.87,45.82 46.87,45.73 46.77,45.53 
	46.77,45.63 46.67,45.63 46.58,45.53 46.48,45.53 46.38,45.63 46.18,45.73 46.08,45.73 45.99,45.73 45.89,45.73 45.79,45.73 
	45.69,45.82 45.59,45.82 45.39,45.92 45.3,45.92 45.2,46.02 45,46.12 44.9,46.22 44.8,46.22 44.71,46.22 44.51,46.32 44.31,46.32 
	44.21,46.41 44.12,46.41 44.02,46.41 43.92,46.41 43.82,46.41 43.72,46.41 43.62,46.51 43.43,46.51 43.23,46.61 43.13,46.61 
	43.13,46.71 43.03,46.71 43.03,46.81 43.03,46.91 43.03,47 43.03,47.1 43.03,47.2 43.03,47.3 42.94,47.3 42.94,47.4 42.94,47.5 
	43.03,47.5 43.03,47.59 43.03,47.69 43.03,47.79 43.03,47.89 42.94,47.89 43.03,47.89 43.03,47.99 42.94,47.99 42.94,48.09 
	43.03,48.09 43.13,48.09 43.13,48.18 43.03,48.18 43.03,48.28 43.03,48.38 43.03,48.48 43.03,48.58 43.03,48.48 43.03,48.58 
	42.94,48.58 42.94,48.68 43.03,48.68 43.03,48.58 43.13,48.68 43.13,48.78 43.03,48.78 42.94,48.78 42.84,48.78 42.74,48.78 
	42.54,48.78 42.44,48.68 42.25,48.68 42.15,48.58 42.05,48.58 41.26,48.18 41.07,48.18 40.97,48.09 40.87,48.09 40.77,47.99 
	40.67,47.99 40.48,47.79 40.38,47.79 40.28,47.79 40.28,47.69 39.98,47.59 39.89,47.59 39.79,47.59 39.69,47.5 39.59,47.5 
	39.49,47.5 39.39,47.5 39.3,47.4 39.2,47.4 39.1,47.3 39.1,47.1 39,47 38.9,46.91 38.8,46.91 38.71,46.81 38.61,46.81 38.51,46.71 
	38.41,46.71 38.31,46.61 38.21,46.61 38.11,46.61 38.02,46.61 38.02,46.51 37.82,46.41 37.72,46.41 37.62,46.41 37.52,46.32 
	37.52,46.22 37.52,46.12 37.43,46.12 37.33,46.12 37.33,46.02 37.23,46.02 37.23,45.92 37.13,45.82 37.13,45.73 37.03,45.73 
	36.93,45.73 36.93,45.63 36.84,45.63 36.84,45.53 36.74,45.53 36.64,45.53 36.64,45.43 36.54,45.43 36.44,45.43 36.44,45.33 
	36.44,45.43 36.34,45.43 36.34,45.33 36.25,45.33 36.25,45.23 36.15,45.23 36.15,45.14 36.05,45.14 36.05,45.04 35.95,45.04 
	35.95,44.94 35.95,44.84 35.85,44.84 35.75,44.84 35.75,44.74 35.75,44.84 35.66,44.74 35.66,44.84 35.56,44.74 35.56,44.84 
	35.46,44.84 35.36,44.84 35.36,44.94 35.36,45.04 35.26,45.04 35.16,45.04 35.07,45.14 34.97,45.14 34.87,45.14 34.77,45.14 
	34.77,45.04 34.67,45.04 34.57,45.04 34.57,44.94 34.57,45.04 34.57,44.94 34.47,44.94 34.47,45.04 34.38,45.04 34.28,45.04 
	34.28,44.94 34.18,44.94 34.08,44.94 34.08,45.04 33.98,45.04 33.98,45.14 33.88,45.14 33.79,45.14 33.69,45.14 33.59,45.14 
	33.49,45.23 33.39,45.23 33.49,45.23 33.49,45.33 33.39,45.33 33.39,45.23 33.29,45.23 33.29,45.33 33.29,45.23 33.2,45.23 
	33.2,45.33 33.1,45.33 33.1,45.43 33,45.43 33,45.53 33,45.43 32.9,45.43 32.9,45.53 32.8,45.53 32.7,45.63 32.7,45.73 32.61,45.73 
	32.51,45.73 32.41,45.73 32.41,45.63 32.41,45.73 32.41,45.82 32.31,45.82 32.31,45.92 32.21,45.82 32.21,45.92 32.11,45.92 
	32.02,45.92 31.92,45.92 31.82,45.82 31.82,45.92 31.72,45.92 31.62,45.92 31.62,46.02 31.62,46.12 31.52,46.22 31.33,46.41 
	31.33,46.51 31.23,46.51 31.13,46.51 31.13,46.61 31.03,46.71 30.93,46.81 30.83,46.81 30.83,46.91 30.74,46.91 30.64,47 
	30.54,47.1 30.24,47.2 30.24,47.3 30.15,47.3 30.15,47.4 30.05,47.4 29.95,47.4 29.95,47.5 29.85,47.5 29.85,47.4 29.75,47.5 
	29.75,47.59 29.65,47.59 29.56,47.69 29.46,47.69 29.36,47.69 29.26,47.79 29.36,47.79 29.36,47.89 29.26,47.89 29.16,47.89 
	29.06,47.89 29.06,47.99 28.97,47.99 28.97,47.89 28.97,47.99 28.97,47.89 28.87,47.89 28.77,47.89 28.77,47.99 28.67,47.99 
	28.67,48.09 28.57,48.09 28.47,48.09 28.47,48.18 28.38,48.18 28.28,48.18 28.18,48.18 28.18,48.28 28.08,48.28 28.08,48.38 
	27.98,48.38 27.98,48.48 27.98,48.58 27.88,48.58 27.79,48.58 27.79,48.68 27.79,48.78 27.69,48.68 27.59,48.78 27.59,48.87 
	27.49,48.87 27.49,48.97 27.39,48.97 27.39,49.07 27.39,49.17 27.29,49.27 27.19,49.27 27.19,49.37 27.1,49.37 27.1,49.46 27,49.46 
	26.9,49.56 26.9,49.46 26.9,49.56 26.8,49.56 26.8,49.66 26.7,49.66 26.8,49.76 26.7,49.76 26.7,49.86 26.7,49.96 26.6,49.96 
	26.6,50.05 26.6,50.15 26.51,50.15 26.41,50.15 26.31,50.15 26.21,50.25 26.11,50.25 26.01,50.25 26.01,50.35 25.92,50.35 
	25.92,50.25 25.92,50.35 25.82,50.35 25.72,50.35 25.72,50.45 25.62,50.45 25.52,50.45 25.42,50.45 25.33,50.45 25.33,50.55 
	25.23,50.55 25.23,50.64 25.13,50.64 25.03,50.74 25.03,50.84 25.03,50.94 24.93,50.94 24.93,51.14 24.83,51.23 24.83,51.14 
	24.83,51.23 24.74,51.23 24.64,51.23 24.64,51.33 24.54,51.33 24.44,51.33 24.34,51.33 24.24,51.43 24.24,51.53 24.15,51.53 
	24.24,51.63 24.15,51.73 24.05,51.73 24.05,51.82 23.95,51.73 23.95,51.82 23.95,51.92 23.85,51.92 23.75,52.02 23.65,52.02 
	23.56,52.02 23.46,52.02 23.36,52.02 23.26,52.02 23.16,52.02 23.06,52.02 23.06,51.92 22.96,51.92 22.96,51.82 22.87,51.82 
	22.77,51.82 22.77,51.73 22.67,51.73 22.67,51.63 22.57,51.63 22.47,51.63 22.37,51.63 22.28,51.53 22.28,51.63 22.18,51.73 
	22.18,51.63 22.08,51.63 22.08,51.73 21.98,51.73 21.98,51.82 21.88,51.82 21.78,51.82 21.78,51.92 21.69,51.92 21.59,51.92 
	21.49,51.92 21.39,51.92 21.39,51.82 21.29,51.92 21.19,51.92 21.1,51.92 21.19,51.82 21.1,51.82 21.1,51.73 21,51.73 21.1,51.73 
	21.1,51.63 21,51.63 21,51.53 21,51.43 20.9,51.43 21,51.43 21,51.33 20.9,51.33 20.9,51.23 20.9,51.14 20.8,51.14 20.8,51.04 
	20.7,51.04 20.7,50.94 20.7,50.84 20.6,50.84 20.6,50.94 20.6,50.84 20.6,50.94 20.51,50.94 20.51,50.84 20.41,50.84 20.41,50.94 
	20.31,50.94 20.31,50.84 20.31,50.94 20.31,50.84 20.21,50.84 20.21,50.74 20.21,50.64 20.11,50.64 20.21,50.55 20.11,50.55 
	20.11,50.45 20.01,50.45 20.01,50.35 20.01,50.45 20.01,50.35 19.92,50.35 19.82,50.25 19.82,50.35 19.72,50.35 19.72,50.25 
	19.62,50.25 19.62,50.15 19.52,50.15 19.52,50.05 19.62,50.05 19.52,50.05 19.52,49.96 19.42,49.96 19.32,49.96 19.23,49.96 
	19.23,49.86 19.13,49.86 19.23,49.86 19.23,49.76 19.13,49.76 19.13,49.66 19.03,49.66 18.93,49.66 18.93,49.56 18.83,49.56 
	18.83,49.66 18.83,49.56 18.73,49.56 18.83,49.56 18.83,49.46 18.83,49.37 18.73,49.37 18.73,49.27 18.64,49.27 18.64,49.17 
	18.54,49.17 18.54,49.07 18.44,49.07 18.34,49.07 18.24,49.07 18.14,48.97 18.05,48.97 17.95,48.97 17.85,48.97 17.75,48.97 
	17.65,48.97 17.55,48.87 17.46,48.87 17.46,48.78 17.36,48.78 17.36,48.68 17.26,48.68 17.26,48.58 17.16,48.58 17.06,48.58 
	16.96,48.58 16.96,48.48 16.87,48.48 16.77,48.48 16.67,48.48 16.57,48.48 16.47,48.38 16.37,48.48 16.18,48.48 16.08,48.48 
	16.08,48.38 15.98,48.28 15.98,48.18 15.88,48.09 15.88,47.99 15.78,47.99 15.88,47.99 15.88,47.89 15.98,47.89 15.98,47.79 
	15.88,47.69 15.78,47.69 15.78,47.59 15.68,47.5 15.68,47.4 15.59,47.3 15.59,47.2 15.49,47.1 15.49,47 15.49,46.91 15.49,46.81 
	15.49,46.71 15.59,46.71 15.59,46.61 15.59,46.51 15.59,46.41 15.59,46.32 15.68,46.32 15.68,46.22 15.59,46.22 15.49,46.22 
	15.49,46.12 15.39,46.02 15.19,45.92 15.19,45.82 15.09,45.63 15.09,45.53 15,45.43 14.9,45.43 14.9,45.33 14.8,45.33 14.8,45.23 
	14.7,45.23 14.7,45.14 14.6,45.14 14.5,45.14 14.31,45.04 14.21,45.04 14.11,45.04 14.01,45.04 13.91,45.04 13.82,44.94 
	13.72,44.84 13.72,44.74 13.62,44.74 13.52,44.64 13.42,44.64 13.32,44.64 13.23,44.64 13.13,44.64 13.03,44.74 12.93,44.74 
	12.83,44.84 12.73,44.84 12.73,44.74 12.64,44.64 12.54,44.64 12.54,44.55 12.44,44.55 12.44,44.45 12.34,44.45 12.34,44.55 
	12.24,44.55 12.14,44.55 12.04,44.55 12.04,44.45 11.95,44.45 11.95,44.55 11.85,44.55 11.75,44.55 11.65,44.55 11.55,44.55 
	11.45,44.55 11.36,44.45 11.36,44.35 11.26,44.35 11.16,44.35 11.06,44.35 11.06,44.25 11.06,44.15 11.06,44.05 11.06,43.95 
	11.06,43.86 10.96,43.86 10.86,43.86 10.86,43.76 10.77,43.66 10.67,43.66 10.67,43.56 10.67,43.46 10.57,43.46 10.57,43.36 
	10.47,43.36 10.47,43.27 10.37,43.17 10.27,43.17 10.18,43.17 10.08,43.17 9.98,43.17 9.98,43.07 9.88,43.07 9.78,43.07 9.68,43.07 
	9.59,43.07 9.49,43.07 9.29,43.07 9.19,43.07 9.09,43.07 9,43.07 8.9,42.97 8.8,42.87 8.7,42.87 8.6,42.87 8.6,42.77 8.6,42.68 
	8.6,42.58 8.5,42.48 8.4,42.38 8.31,42.38 8.31,42.28 8.4,42.28 8.4,42.18 8.4,42.09 8.4,41.89 8.31,41.79 8.31,41.69 8.21,41.69 
	8.21,41.59 8.11,41.59 8.11,41.5 8.11,41.4 8.01,41.4 7.91,41.4 7.81,41.4 7.72,41.4 7.72,41.3 7.72,41.2 7.72,41.1 7.62,41.1 
	7.62,41 7.62,40.91 7.52,40.91 7.52,40.81 7.52,40.71 7.42,40.71 7.32,40.71 7.22,40.71 7.22,40.61 7.13,40.51 7.13,40.41 
	7.13,40.32 7.03,40.32 7.03,40.22 6.93,40.32 6.83,40.32 6.73,40.32 6.73,40.41 6.63,40.41 6.54,40.41 6.44,40.41 6.34,40.32 
	6.24,40.32 6.24,40.22 6.14,40.22 6.24,40.12 6.14,40.12 6.14,40.02 6.04,40.02 5.95,39.92 5.85,39.92 5.85,39.82 5.85,39.72 
	5.85,39.63 5.75,39.63 5.65,39.63 5.55,39.63 5.55,39.53 5.45,39.53 5.45,39.43 5.36,39.43 5.26,39.43 5.26,39.53 5.16,39.43 
	5.06,39.43 5.06,39.53 4.96,39.53 4.86,39.53 4.86,39.43 4.76,39.43 4.67,39.43 4.67,39.53 4.57,39.53 4.47,39.63 4.37,39.63 
	4.37,39.72 4.27,39.72 4.17,39.72 4.17,39.63 4.17,39.53 4.17,39.43 4.17,39.23 4.17,39.13 4.17,39.04 4.08,39.04 4.08,38.94 
	3.98,38.94 3.88,38.94 3.88,38.84 3.78,38.84 3.68,38.84 3.49,38.84 3.39,38.84 3.29,38.84 3.29,38.74 3.19,38.64 3.09,38.64 
	2.99,38.64 2.9,38.64 2.8,38.64 2.7,38.64 2.7,38.54 2.6,38.54 2.5,38.54 2.4,38.45 2.5,38.45 2.5,38.35 2.4,38.35 2.4,38.25 
	2.31,38.15 2.31,38.05 2.21,37.95 2.11,37.86 2.11,37.76 2.01,37.76 2.01,37.66 1.91,37.66 1.81,37.56 1.72,37.56 1.62,37.56 
	1.62,37.46 1.52,37.46 1.42,37.46 1.32,37.46 1.32,37.36 1.03,37.36 1.03,37.27 0.93,37.27 0.83,37.27 0.73,37.27 0.73,37.17 
	0.83,37.07 0.83,36.97 0.83,36.87 0.73,36.87 0.63,36.77 0.53,36.77 0.53,36.68 0.44,36.68 0.34,36.58 0.44,36.58 0.44,36.48 
	0.34,36.48 0.34,36.38 0.24,36.28 0.34,36.28 0.34,36.18 0.34,36.08 0.44,36.08 0.44,35.99 0.44,35.89 0.44,35.79 0.44,35.69 
	0.44,35.59 0.44,35.49 0.53,35.4 0.53,35.3 0.44,35.3 0.44,35.2 0.34,35.2 0.34,35.1 0.24,35.1 0.24,35 0.24,34.9 0.24,34.81 
	0.34,34.81 0.34,34.71 0.34,34.61 0.34,34.51 0.34,34.41 0.44,34.41 0.44,34.31 0.34,34.31 0.34,34.22 0.34,34.12 0.24,34.12 
	0.14,34.02 0.04,34.02 0.04,33.92 -0.06,33.92 -0.06,33.82 -0.06,33.72 -0.15,33.63 -0.15,33.53 -0.15,33.43 -0.06,33.53 
	0.14,33.63 0.24,33.63 0.34,33.63 0.44,33.63 0.44,33.53 0.53,33.43 0.63,33.33 0.63,33.23 0.73,33.23 0.83,33.23 0.93,33.13 
	0.93,33.04 1.03,33.04 1.03,32.94 1.12,32.84 1.22,32.84 1.32,32.74 1.52,32.64 1.52,32.54 1.62,32.54 1.72,32.44 1.81,32.35 
	1.91,32.25 2.01,32.15 2.11,32.05 2.21,32.05 2.21,31.95 2.31,32.05 2.31,32.15 2.4,32.25 2.5,32.25 2.6,32.25 2.6,32.35 2.7,32.35 
	2.8,32.35 2.9,32.35 2.9,32.25 2.99,32.25 3.09,32.25 3.19,32.25 3.19,32.15 3.29,32.15 3.29,32.05 3.39,32.05 3.39,31.95 
	3.49,31.95 3.58,31.95 3.58,31.85 3.58,31.76 3.58,31.66 3.49,31.66 3.49,31.56 3.58,31.56 3.68,31.56 3.78,31.56 3.78,31.46 
	3.88,31.36 3.98,31.26 4.08,31.26 4.17,31.17 4.27,31.17 4.37,31.17 4.47,31.07 4.57,31.07 4.67,31.07 4.67,30.97 4.67,30.87 
	4.67,30.77 4.57,30.67 4.57,30.58 4.67,30.58 4.76,30.58 4.76,30.67 4.76,30.77 4.86,30.77 4.96,30.77 5.06,30.77 5.06,30.87 
	5.06,30.97 5.16,30.97 5.26,30.97 5.26,31.07 5.36,31.07 5.45,31.07 5.45,30.97 5.55,30.97 5.65,30.87 5.65,30.77 5.65,30.67 
	5.65,30.58 5.75,30.58 5.85,30.58 5.85,30.48 5.85,30.38 5.85,30.28 5.75,30.28 5.75,30.18 5.75,30.08 5.85,30.08 5.85,30.18 
	5.95,30.18 5.95,30.28 6.04,30.38 6.14,30.48 6.24,30.48 6.24,30.58 6.34,30.58 6.44,30.58 6.44,30.48 6.44,30.38 6.44,30.28 
	6.44,30.18 6.44,30.08 6.54,30.08 6.54,29.99 6.54,29.89 6.63,29.89 6.73,29.99 6.73,30.08 6.83,30.08 6.83,30.18 6.93,30.18 
	7.03,30.18 7.13,30.18 7.13,30.28 7.03,30.38 6.93,30.38 6.83,30.48 6.93,30.48 7.03,30.48 7.13,30.58 7.22,30.58 7.32,30.58 
	7.32,30.48 7.32,30.38 7.22,30.28 7.32,30.18 7.32,30.08 7.42,30.18 7.52,30.28 7.52,30.38 7.52,30.48 7.52,30.58 7.62,30.58 
	7.62,30.67 7.72,30.77 7.81,30.77 7.91,30.77 7.91,30.87 7.91,30.97 8.01,31.07 8.11,31.07 8.21,31.17 8.31,31.17 8.31,31.26 
	8.4,31.26 8.4,31.36 8.5,31.36 8.5,31.46 8.6,31.46 8.7,31.56 8.8,31.56 8.9,31.66 9,31.66 9.09,31.66 9.09,31.76 9.19,31.76 
	9.29,31.76 9.39,31.76 9.39,31.85 9.49,31.85 9.49,31.95 9.59,31.95 9.59,32.05 9.68,32.15 9.78,32.25 9.88,32.25 9.88,32.35 
	9.88,32.25 9.88,32.15 9.88,32.05 9.98,31.95 10.08,31.95 10.08,32.05 10.18,32.05 10.18,32.15 10.18,32.25 10.18,32.35 
	10.18,32.44 10.27,32.44 10.37,32.54 10.47,32.54 10.57,32.54 10.57,32.64 10.57,32.74 10.67,32.84 10.77,32.84 10.86,32.84 
	10.96,32.84 10.96,32.94 11.06,32.94 11.06,33.04 11.06,33.13 11.16,33.13 11.26,33.13 11.26,33.04 11.26,32.94 11.26,32.74 
	11.26,32.64 11.16,32.64 11.06,32.64 11.06,32.54 11.06,32.44 11.16,32.44 11.26,32.44 11.26,32.54 11.36,32.54 11.45,32.44 
	11.45,32.35 11.45,32.25 11.45,32.15 11.55,32.15 11.65,32.15 11.65,32.25 11.75,32.25 11.85,32.25 11.85,32.35 11.95,32.44 
	12.04,32.44 12.14,32.44 12.24,32.44 12.24,32.35 12.34,32.25 12.34,32.15 12.24,32.05 12.24,31.95 12.24,31.85 12.24,31.76 
	12.24,31.66 12.34,31.56 12.44,31.56 12.44,31.66 12.54,31.66 12.64,31.76 12.73,31.76 12.73,31.66 12.83,31.66 12.83,31.56 
	12.73,31.46 12.73,31.36 12.73,31.26 12.73,31.17 12.73,31.07 12.83,31.07 12.83,31.17 12.93,31.17 12.93,31.26 13.03,31.26 
	13.03,31.36 13.13,31.36 13.13,31.46 13.23,31.46 13.23,31.56 13.23,31.66 13.13,31.66 13.13,31.76 13.13,31.85 13.23,31.85 
	13.23,31.95 13.32,32.05 13.42,32.05 13.52,31.95 13.62,31.85 13.72,31.85 13.91,31.76 14.01,31.66 14.11,31.56 14.21,31.46 
	14.31,31.46 14.41,31.36 14.5,31.36 14.5,31.26 14.6,31.26 14.7,31.26 14.7,31.17 14.8,31.17 14.9,31.17 15,31.17 15,31.26 
	15.09,31.36 15.19,31.46 15.29,31.46 15.29,31.56 15.39,31.56 15.49,31.56 15.49,31.66 15.59,31.66 15.68,31.76 15.78,31.76 
	15.88,31.76 15.98,31.76 16.08,31.76 16.18,31.66 16.28,31.66 16.37,31.66 16.47,31.76 16.57,31.76 16.67,31.76 16.77,31.76 
	16.87,31.76 16.96,31.85 17.16,31.95 17.26,31.95 17.36,31.95 17.46,31.95 17.55,31.95 17.65,31.95 17.65,32.05 17.75,32.05 
	17.85,31.95 17.95,31.95 18.05,31.95 18.14,31.95 18.24,31.95 18.34,31.85 18.34,31.76 18.44,31.76 18.44,31.66 18.54,31.66 
	18.54,31.56 18.64,31.56 18.73,31.56 18.73,31.66 18.73,31.76 18.83,31.76 18.93,31.85 18.93,31.95 18.93,32.05 18.93,32.15 
	19.03,32.15 19.13,32.05 19.23,32.05 19.32,32.05 19.32,32.15 19.42,32.25 19.42,32.35 19.52,32.35 19.62,32.44 19.72,32.44 
	19.82,32.54 19.92,32.54 19.92,32.44 20.01,32.35 20.11,32.35 20.21,32.35 20.31,32.35 20.41,32.35 20.51,32.35 20.6,32.35 
	20.6,32.44 20.7,32.44 20.8,32.54 20.9,32.54 20.9,32.64 21,32.64 21.1,32.54 21.19,32.54 21.29,32.54 21.39,32.54 21.49,32.54 
	21.49,32.44 21.49,32.35 21.49,32.25 21.59,32.25 21.69,32.15 21.69,32.05 21.78,32.05 21.78,31.95 21.69,31.95 21.69,31.85 
	21.59,31.66 21.59,31.56 21.59,31.46 21.59,31.36 21.69,31.36 21.78,31.36 21.88,31.36 22.08,31.36 22.18,31.36 22.28,31.26 
	22.47,31.26 22.57,31.17 22.67,31.17 22.77,31.07 22.87,31.07 22.96,31.07 23.06,31.07 23.16,31.17 23.26,31.17 23.26,31.26 
	23.36,31.26 23.46,31.36 23.56,31.36 23.56,31.26 23.65,31.26 23.75,31.36 23.85,31.36 23.85,31.26 23.95,31.26 24.05,31.26 
	24.15,31.26 24.15,31.36 24.05,31.36 24.05,31.46 24.15,31.46 24.24,31.56 24.34,31.66 24.44,31.66 24.44,31.56 24.44,31.46 
	24.54,31.46 24.54,31.36 24.54,31.26 24.64,31.26 24.74,31.26 24.83,31.26 24.74,31.26 24.83,31.26 24.93,31.26 24.93,31.36 
	25.03,31.36 25.03,31.26 25.03,31.36 25.13,31.36 25.13,31.46 25.23,31.46 25.33,31.46 25.33,31.56 25.42,31.56 25.52,31.56 
	25.52,31.66 25.52,31.76 25.62,31.76 25.72,31.76 25.72,31.85 25.82,31.85 25.82,31.95 25.72,31.95 25.82,31.95 25.82,32.05 
	25.82,32.15 25.92,32.15 25.82,32.15 25.82,32.25 25.82,32.15 25.82,32.25 25.72,32.25 25.82,32.35 25.92,32.35 26.01,32.35 
	26.11,32.25 26.21,32.25 26.31,32.25 26.31,32.35 26.41,32.35 26.51,32.35 26.6,32.35 26.7,32.35 26.7,32.44 26.7,32.35 26.8,32.35 
	26.8,32.44 26.8,32.35 26.9,32.35 27,32.35 27,32.44 27.1,32.44 27.1,32.35 27.1,32.44 27.19,32.44 27.1,32.44 27.1,32.54 
	27.1,32.64 27.19,32.64 27.19,32.74 27.29,32.74 27.29,32.84 27.39,32.84 27.39,32.74 27.49,32.74 27.49,32.84 27.49,32.74 
	27.59,32.74 27.59,32.84 27.59,32.74 27.69,32.74 27.69,32.84 27.79,32.84 27.79,32.74 27.88,32.74 27.88,32.84 27.98,32.84 
	28.08,32.84 28.18,32.84 28.28,32.84 28.28,32.74 28.38,32.74 28.47,32.74 28.57,32.74 28.67,32.74 28.77,32.74 28.77,32.84 
	28.87,32.84 28.87,32.94 28.87,33.04 28.97,33.04 28.97,33.13 28.97,33.23 29.06,33.23 29.06,33.33 29.16,33.33 29.16,33.43 
	29.26,33.43 29.36,33.43 29.46,33.43 29.56,33.53 29.56,33.63 29.56,33.72 29.65,33.72 29.65,33.82 29.65,33.92 29.75,33.92 
	29.75,34.02 29.75,34.12 29.85,34.22 29.95,34.22 30.05,34.22 30.05,34.31 30.15,34.31 30.24,34.31 30.34,34.31 30.34,34.41 
	30.44,34.41 30.83,34.61 30.93,34.61 31.03,34.61 31.52,35 31.52,35.1 31.62,35.1 31.72,35.1 31.82,35 31.92,35 32.02,34.9 
	32.11,34.9 32.21,34.9 32.31,34.9 32.31,34.81 32.41,34.81 32.51,34.81 32.51,34.71 32.61,34.71 32.7,34.71 32.8,34.71 32.8,34.61 
	32.9,34.61 32.9,34.51 33,34.41 33,34.31 33.1,34.31 33.2,34.22 33.29,34.22 33.39,34.22 33.49,34.22 33.49,34.12 33.59,34.12 
	33.59,34.02 33.69,34.02 33.79,34.02 33.88,34.02 33.98,34.02 34.08,34.02 34.18,34.02 34.28,33.92 34.28,33.82 34.38,33.82 
	34.47,33.82 34.47,33.92 34.57,33.92 34.67,34.12 34.77,34.22 34.87,34.22 34.97,34.22 35.07,34.22 35.16,34.22 35.26,34.22 
	35.36,34.31 35.46,34.31 35.56,34.41 35.56,34.51 35.56,34.61 35.66,34.61 35.75,34.71 35.85,34.71 35.85,34.81 35.95,34.9 
	35.95,35 36.05,35 36.05,35.1 36.15,35.1 36.25,35.1 36.25,35 36.25,34.9 36.34,34.81 36.34,34.71 36.44,34.71 36.44,34.61 
	36.44,34.51 36.44,34.41 36.54,34.22 36.54,34.12 36.54,34.02 36.54,33.92 36.64,33.92 36.64,33.82 36.74,33.72 36.74,33.63 
	36.84,33.53 36.93,33.53 36.93,33.43 37.03,33.33 37.13,33.23 37.23,33.13 37.23,33.04 37.33,32.94 37.43,32.94 37.52,32.84 
	37.62,32.84 37.72,32.74 37.82,32.74 37.82,32.64 37.92,32.54 37.92,32.35 37.92,32.25 37.92,32.15 37.82,32.15 37.72,31.95 
	37.72,31.85 37.72,31.76 37.72,31.56 37.72,31.46 37.82,31.46 37.82,31.36 37.92,31.36 38.02,31.36 38.11,31.36 38.21,31.26 
	38.41,31.26 38.51,31.17 38.51,31.07 38.61,31.07 38.71,31.07 38.8,31.07 38.8,31.17 38.9,31.17 38.9,31.26 39,31.26 39.2,31.36 
	39.3,31.36 39.3,31.46 39.39,31.46 39.49,31.36 39.59,31.36 39.69,31.46 39.69,31.36 39.79,31.36 39.79,31.26 39.79,31.17 
	39.79,31.07 39.69,30.87 39.69,30.77 39.79,30.67 39.79,30.48 39.79,30.38 39.79,30.28 39.89,30.18 39.98,30.08 40.18,29.99 
	40.48,29.89 40.57,29.89 40.67,29.79 40.77,29.69 40.87,29.69 40.87,29.59 40.87,29.49 40.97,29.4 40.97,29.2 40.97,29.1 40.97,29 
	41.07,28.9 41.16,28.81 41.36,28.61 41.66,28.31 41.75,28.12 41.95,28.02 42.05,27.92 42.05,27.82 42.05,27.72 42.05,27.43 
	42.05,27.23 42.05,27.13 41.95,27.13 41.95,27.03 41.95,26.94 42.05,26.84 41.95,26.84 41.95,26.74 41.85,26.74 41.85,26.64 
	41.75,26.54 41.75,26.44 41.75,26.35 41.75,26.25 41.75,26.15 41.75,26.05 41.85,25.95 41.85,25.85 41.95,25.85 42.05,25.76 
	42.15,25.66 42.25,25.56 42.35,25.46 42.44,25.46 42.54,25.36 42.54,25.26 42.64,25.17 42.74,25.17 42.84,25.07 42.94,24.97 
	42.94,24.87 43.03,24.77 43.13,24.77 43.13,24.67 43.23,24.58 43.33,24.58 43.43,24.48 43.53,24.38 43.62,24.38 43.72,24.28 
	43.82,24.28 43.92,24.18 44.12,24.08 44.21,23.98 44.31,23.98 44.41,23.98 44.51,23.89 44.61,23.89 44.8,23.89 44.9,23.89 45,23.89 
	45.1,23.98 45.3,23.98 45.39,23.98 45.59,24.08 45.69,24.08 45.79,24.08 45.89,24.08 45.99,24.08 46.08,24.08 46.28,23.98 
	46.38,23.98 46.48,23.89 46.58,23.89 46.77,23.79 46.87,23.79 46.87,23.59 46.97,23.49 46.97,23.3 46.97,23.2 47.07,23.1 47.07,23 
	47.17,22.9 47.17,22.8 47.26,22.71 47.36,22.61 47.46,22.51 47.56,22.41 47.66,22.41 47.85,22.21 47.85,22.12 47.95,22.02 
	47.95,21.92 48.05,21.82 48.15,21.72 48.25,21.62 48.35,21.43 48.44,21.33 48.44,21.23 48.54,21.23 48.64,21.13 48.64,21.03 
	48.84,20.94 48.94,20.74 49.03,20.74 49.13,20.64 49.23,20.54 49.23,20.44 49.43,20.35 49.43,20.25 49.53,20.15 49.62,20.15 
	49.72,20.05 49.92,19.95 50.02,19.85 50.12,19.75 50.22,19.66 50.31,19.56 50.41,19.46 50.51,19.36 50.61,19.26 50.61,19.16 
	50.71,19.07 50.71,18.97 50.71,18.87 50.81,18.87 50.81,18.77 50.9,18.67 51,18.57 51.1,18.48 51.2,18.38 51.3,18.28 51.4,18.18 
	51.4,18.08 51.49,17.98 51.49,17.79 51.59,17.69 51.59,17.59 51.69,17.59 51.69,17.39 51.69,17.3 51.69,17.1 51.79,17 51.79,16.9 
	51.79,16.8 51.79,16.71 51.79,16.61 51.69,16.51 51.69,16.41 51.69,16.31 51.69,16.11 51.79,16.02 51.89,15.92 51.89,16.02 
	51.99,16.02 51.99,16.11 52.08,16.11 52.08,16.21 52.18,16.21 52.18,16.31 52.28,16.31 52.28,16.21 52.38,16.21 52.38,16.31 
	52.48,16.31 52.48,16.41 52.58,16.41 52.48,16.41 52.48,16.51 52.48,16.61 52.58,16.71 52.58,16.61 52.58,16.71 52.58,16.8 
	52.58,16.9 52.67,16.9 52.77,17 52.77,17.1 52.87,17.1 52.87,17.2 52.97,17.2 53.07,17.2 53.17,17.2 53.26,17.2 53.36,17.2 
	53.46,17.2 53.46,17.3 53.46,17.2 53.56,17.2 53.56,17.3 53.66,17.3 53.66,17.39 53.76,17.39 53.86,17.39 53.86,17.49 53.86,17.59 
	53.95,17.59 53.95,17.69 53.95,17.59 54.05,17.59 54.15,17.59 54.25,17.59 54.35,17.59 54.45,17.59 54.54,17.59 54.54,17.49 
	54.64,17.49 54.64,17.59 54.74,17.59 54.74,17.69 54.74,17.79 54.64,17.79 54.64,17.89 54.64,17.98 54.54,18.08 54.64,18.08 
	54.64,18.18 54.74,18.18 54.74,18.28 54.74,18.38 54.74,18.48 54.84,18.48 54.94,18.48 55.04,18.48 55.13,18.48 55.23,18.48 
	55.23,18.57 55.13,18.57 55.13,18.67 55.23,18.67 55.23,18.77 55.13,18.77 55.13,18.87 55.04,18.87 55.04,18.97 55.04,19.07 
	55.04,19.16 54.94,19.16 54.94,19.26 54.94,19.36 54.94,19.46 54.84,19.46 54.84,19.56 54.74,19.56 54.74,19.66 54.74,19.75 
	54.84,19.75 54.84,19.85 54.94,19.85 54.94,19.95 55.04,20.05 55.13,20.05 55.13,20.15 55.23,20.25 55.33,20.25 55.43,20.25 
	55.53,20.25 55.53,20.35 55.63,20.35 55.63,20.44 55.72,20.44 55.72,20.54 55.63,20.64 55.72,20.64 55.72,20.74 55.72,20.84 
	55.63,20.84 55.63,20.94 55.63,21.03 55.63,21.13 55.72,21.23 55.72,21.33 55.82,21.33 55.82,21.43 55.92,21.33 56.02,21.43 
	56.02,21.53 56.02,21.62 56.12,21.72 56.22,21.82 56.31,21.92 56.41,21.92 56.41,22.02 56.51,22.02 56.61,22.12 56.71,22.12 
	56.71,22.21 56.81,22.21 56.71,22.21 56.61,22.21 56.61,22.31 56.51,22.41 56.51,22.51 56.61,22.51 56.61,22.61 56.71,22.61 
	56.71,22.71 56.71,22.8 56.71,22.9 56.71,23 56.81,23 56.81,23.1 56.81,23.2 56.9,23.2 57,23.2 57,23.3 56.9,23.3 57,23.39 
	57,23.49 57,23.59 57,23.69 57.1,23.69 57,23.69 57,23.79 57,23.89 56.9,23.98 56.9,24.08 56.9,24.18 57,24.18 57,24.28 57.1,24.28 
	57.1,24.38 57.2,24.38 57.2,24.48 57.2,24.58 57.4,24.58 57.5,24.58 57.59,24.67 57.59,24.77 57.69,24.77 57.69,24.87 57.79,24.87 
	57.79,24.97 57.69,25.07 57.69,25.17 57.59,25.17 57.5,25.17 57.59,25.17 57.59,25.26 57.59,25.36 57.59,25.46 57.69,25.46 
	57.69,25.56 57.69,25.66 57.79,25.66 57.69,25.66 57.69,25.76 57.79,25.76 57.79,25.85 57.89,25.85 57.89,25.95 57.99,25.95 
	57.99,26.05 58.09,26.05 58.09,26.15 58.09,26.25 58.09,26.35 58.18,26.35 58.18,26.44 58.28,26.44 58.28,26.54 58.28,26.64 
	58.38,26.74 58.38,26.84 58.38,26.94 58.48,26.94 58.58,27.03 58.58,27.13 58.68,27.23 58.68,27.33 58.77,27.33 58.77,27.43 
	58.87,27.53 58.97,27.53 58.97,27.62 58.97,27.72 59.07,27.72 59.17,27.82 59.27,27.82 59.36,27.92 59.46,28.02 59.46,28.12 
	59.46,28.22 59.56,28.31 59.46,28.31 59.46,28.41 59.46,28.51 59.36,28.51 59.36,28.61 59.36,28.71 59.36,28.81 59.36,28.9 
	59.36,29 59.36,29.1 59.46,29.1 59.46,29.2 59.46,29.1 59.56,29.1 59.66,29.1 59.66,29.2 59.76,29.2 59.86,29.2 59.86,29.3 
	59.76,29.3 59.86,29.4 59.76,29.4 59.86,29.4 59.86,29.49 59.95,29.49 59.95,29.59 59.95,29.69 59.95,29.79 60.05,29.89 
	60.05,29.99 60.15,30.08 60.15,30.18 60.15,30.28 60.05,30.28 60.05,30.38 60.15,30.48 60.25,30.58 60.25,30.67 60.35,30.77 
	60.25,30.87 60.25,30.97 60.35,30.97 60.35,31.07 60.45,31.07 60.45,30.97 60.54,30.97 60.64,30.97 60.64,30.87 60.64,30.77 
	60.74,30.77 60.74,30.67 60.74,30.58 60.84,30.58 60.94,30.58 61.04,30.58 61.04,30.67 61.14,30.67 61.23,30.58 61.33,30.58 
	61.33,30.67 61.43,30.67 61.43,30.58 61.53,30.58 61.53,30.67 61.53,30.58 61.63,30.58 61.63,30.48 61.63,30.58 61.73,30.58 
	61.82,30.58 61.82,30.67 61.92,30.77 62.12,30.77 62.22,30.77 62.32,30.77 62.41,30.87 62.51,30.87 62.51,30.97 62.51,31.07 
	62.51,31.17 62.61,31.17 62.61,31.26 62.71,31.26 62.81,31.26 62.91,31.26 63,31.26 63,31.36 63.1,31.26 63.1,31.17 63.1,31.07 
	63.2,30.97 63.3,30.87 63.4,30.87 63.4,30.77 63.5,30.77 63.59,30.67 63.59,30.58 63.79,30.58 63.89,30.48 63.99,30.28 64.09,30.18 
	64.09,30.08 63.99,30.08 63.89,29.89 63.89,29.79 63.99,29.79 64.09,29.59 64.18,29.49 64.18,29.4 64.18,29.3 64.18,29.2 
	64.28,29.2 64.28,29.1 64.38,29.1 64.48,29 64.58,29 64.68,29 64.78,29 64.87,29 64.97,29.1 64.97,29.2 65.07,29.2 65.07,29.3 
	65.07,29.49 65.07,29.59 65.07,29.89 65.07,29.99 65.07,30.08 65.17,30.08 65.17,30.18 65.27,30.18 65.37,30.18 65.46,30.08 
	65.56,30.08 65.66,29.99 65.76,29.99 65.86,29.99 66.05,29.89 66.15,29.79 66.15,29.69 66.25,29.69 66.25,29.59 66.35,29.59 
	66.45,29.49 66.55,29.49 66.64,29.49 66.74,29.4 66.84,29.4 66.84,29.3 66.84,29.2 66.94,29.2 67.04,29.2 67.14,29.1 67.23,29.1 
	67.33,29.1 67.43,29.1 67.53,29.1 67.53,29 67.63,29 67.73,29 67.73,28.9 67.73,28.81 67.73,28.71 67.73,28.61 67.63,28.61 
	67.63,28.51 67.53,28.51 67.53,28.41 67.53,28.31 67.53,28.22 67.43,28.22 67.53,28.22 67.63,28.22 67.73,28.22 67.92,28.12 
	68.42,28.12 68.42,28.02 68.51,27.82 68.51,27.72 68.32,27.62 68.32,27.53 68.32,27.43 68.42,27.43 68.42,27.53 68.51,27.53 
	68.61,27.53 68.71,27.62 68.81,27.62 69.3,27.92 69.4,28.02 69.5,28.02 69.5,28.12 69.69,28.12 69.69,28.22 68.91,30.08 
	68.81,30.08 68.81,30.18 68.91,30.18 69.01,30.18 69.1,30.28 69.3,30.28 69.4,30.28 69.5,30.38 69.69,30.38 69.89,30.48 
	69.99,30.48 70.09,30.48 70.19,30.38 70.48,30.28 70.58,30.28 70.68,30.28 70.78,30.28 70.78,30.18 70.87,30.18 70.97,30.18 
	71.17,30.08 71.27,30.08 71.37,30.08 71.46,30.08 71.46,30.18 71.56,30.18 71.66,30.18 71.76,30.28 71.86,30.28 71.96,30.28 
	72.06,30.38 72.15,30.38 72.25,30.48 72.35,30.48 72.45,30.48 72.65,30.48 72.74,30.48 72.84,30.48 72.94,30.58 73.04,30.58 
	73.04,30.67 73.14,30.67 73.24,30.67 73.33,30.67 73.43,30.67 73.53,30.77 73.63,30.87 73.73,30.87 73.83,30.87 73.83,30.77 
	73.92,30.77 74.02,30.77 74.12,30.77 74.22,30.67 74.42,30.67 74.61,30.67 74.71,30.67 74.91,30.67 75.01,30.67 75.1,30.77 
	75.2,30.77 75.3,30.77 75.4,30.77 75.5,30.77 75.7,30.77 75.79,30.77 75.89,30.77 75.99,30.77 76.09,30.77 76.38,30.87 76.48,30.87 
	76.68,30.87 76.78,30.87 76.88,30.77 77.17,30.77 77.27,30.67 77.37,30.67 77.47,30.67 77.56,30.58 77.66,30.58 77.76,30.58 
	77.86,30.58 77.96,30.58 78.06,30.58 78.15,30.58 78.25,30.58 78.25,30.48 78.35,30.58 78.55,30.58 78.65,30.58 78.74,30.58 
	78.84,30.48 78.94,30.48 78.94,30.38 79.04,30.38 79.04,30.28 79.04,30.18 79.14,30.18 79.24,30.18 79.33,30.08 79.43,30.08 
	79.43,30.18 79.53,30.18 79.63,30.18 79.73,30.18 79.83,30.18 79.93,30.18 79.93,30.28 79.93,30.38 79.93,30.48 79.83,30.48 
	79.73,30.48 79.63,30.48 79.63,30.58 79.53,30.58 79.43,30.58 79.43,30.67 79.43,30.77 79.43,30.87 79.43,30.97 79.33,30.97 
	79.33,31.07 79.43,31.07 79.43,31.17 79.33,31.17 79.43,31.17 79.43,31.26 79.33,31.36 79.33,31.46 79.33,31.56 79.43,31.56 
	79.53,31.56 79.53,31.66 79.63,31.66 79.73,31.56 79.73,31.46 79.83,31.46 79.83,31.36 79.83,31.26 79.93,31.26 79.93,31.17 
	79.93,31.07 80.02,31.07 80.02,30.97 80.02,31.07 80.12,31.07 80.12,30.97 80.12,30.87 80.12,30.97 80.22,30.97 80.32,30.97 
	80.32,30.87 80.42,30.87 80.52,30.87 80.52,30.77 80.52,30.87 80.52,30.77 80.61,30.77 80.61,30.87 80.61,30.77 80.61,30.87 
	80.61,30.97 80.71,30.97 80.71,30.87 80.71,30.97 80.81,30.97 80.81,30.87 80.91,30.87 80.81,30.87 80.81,30.77 80.91,30.77 
	81.01,30.77 81.01,30.67 81.01,30.58 81.01,30.48 81.11,30.48 81.2,30.48 81.3,30.48 81.3,30.58 81.3,30.48 81.4,30.48 81.4,30.38 
	81.5,30.38 81.5,30.28 81.5,30.18 81.6,30.18 81.6,30.08 81.6,29.99 81.7,29.99 81.7,29.89 81.79,29.89 81.79,29.79 81.89,29.89 
	81.99,29.89 81.99,29.79 82.09,29.79 82.09,29.89 81.99,29.89 82.09,29.89 82.19,29.89 82.19,29.79 82.19,29.69 82.19,29.79 
	82.19,29.69 82.29,29.69 82.29,29.79 82.38,29.79 82.48,29.79 82.58,29.79 82.68,29.79 82.68,29.69 82.78,29.69 82.78,29.59 
	82.68,29.59 82.68,29.49 82.78,29.59 82.78,29.49 82.78,29.4 82.78,29.49 82.78,29.4 82.88,29.4 82.88,29.3 82.97,29.3 82.97,29.2 
	83.07,29.2 83.07,29.1 83.17,29 83.17,28.9 83.27,28.9 83.27,28.81 83.27,28.71 83.37,28.71 83.47,28.61 83.57,28.61 83.57,28.51 
	83.66,28.51 83.66,28.41 83.76,28.31 83.76,28.22 83.86,28.12 83.96,28.02 84.06,28.02 84.16,27.92 84.16,27.82 84.55,27.43 
	84.55,27.33 84.65,27.13 84.75,27.03 84.84,26.84 84.94,26.74 84.94,26.64 85.04,26.64 85.04,26.54 85.14,26.54 85.24,26.54 
	85.43,26.54 85.73,26.54 85.93,26.64 86.02,26.64 86.32,26.64 86.52,26.64 86.61,26.64 86.61,26.74 86.71,26.74 86.81,26.74 
	87.01,26.74 87.11,26.74 87.21,26.74 87.6,26.84 87.89,26.94 87.99,26.94 88.09,26.94 88.29,26.94 88.39,26.94 88.48,26.94 
	88.58,26.94 88.78,26.94 88.88,26.94 89.17,26.74 89.47,26.64 89.57,26.54 89.66,26.54 89.76,26.54 89.86,26.54 90.06,26.54 
	90.16,26.64 90.35,26.64 90.55,26.64 90.85,26.74 90.94,26.74 91.14,26.74 91.34,26.84 91.44,26.84 91.63,26.84 91.83,26.74 
	91.93,26.64 92.03,26.64 92.12,26.64 92.22,26.64 92.42,26.64 92.52,26.54 92.62,26.54 "/>
</svg>
