<?xml version="1.0" encoding="utf-8"?>
<!-- Generator: Adobe Illustrator 24.2.1, SVG Export Plug-In . SVG Version: 6.00 Build 0)  -->
<svg version="1.1" id="Layer_1" xmlns="http://www.w3.org/2000/svg" xmlns:xlink="http://www.w3.org/1999/xlink" x="0px" y="0px"
	 viewBox="0 0 97.23 97.23" style="enable-background:new 0 0 97.23 97.23;" xml:space="preserve">
<style type="text/css">
	.st0{fill-rule:evenodd;clip-rule:evenodd;fill:#1D1D1B;}
</style>
<polygon class="st0" points="28.89,6.5 28.42,6.98 28.42,7.93 28.42,8.4 27.94,8.88 27.94,9.36 27.94,9.83 27.94,10.31 27.94,10.78 
	27.94,11.26 27.94,11.73 27.94,12.21 27.94,12.69 27.47,13.16 27.47,14.11 26.99,14.59 26.99,15.06 26.99,15.54 26.52,15.54 
	26.52,16.01 26.04,16.96 26.04,17.44 26.04,17.91 26.04,18.39 25.56,19.34 25.56,20.29 25.56,20.77 25.56,21.24 25.56,21.72 
	25.56,22.19 25.56,22.67 25.56,23.15 25.56,23.62 25.56,25.05 26.04,26 26.52,27.42 26.52,28.38 26.99,28.38 26.99,28.85 
	27.47,29.33 27.47,29.8 27.94,30.75 28.42,31.7 28.42,32.18 28.89,32.66 29.37,33.61 29.37,34.08 29.84,34.56 30.32,35.03 
	30.32,35.51 30.32,35.98 30.8,36.46 31.27,36.93 31.27,37.41 31.75,37.89 31.75,38.36 32.22,38.36 32.22,38.84 32.7,38.84 
	32.7,39.31 33.17,39.79 33.17,40.26 33.65,40.26 34.12,40.26 34.12,40.74 34.6,40.74 35.07,40.74 35.55,40.74 36.03,41.21 
	36.98,41.21 37.93,41.21 38.4,41.69 38.88,41.69 39.83,41.69 40.31,41.21 39.83,41.21 39.83,40.74 39.35,40.74 38.88,40.26 
	38.88,39.79 40.31,40.26 41.73,40.74 42.21,40.74 42.68,40.74 44.11,41.21 44.58,41.21 45.06,41.69 46.01,41.69 46.49,42.17 
	47.44,42.17 47.91,42.17 48.39,42.64 49.34,42.64 50.29,43.12 50.77,43.12 51.24,43.12 52.19,43.59 52.67,43.59 53.14,43.59 
	53.62,43.59 53.62,44.07 54.09,44.07 54.57,44.54 55.05,45.02 55.52,45.49 56,45.97 56.95,46.44 57.42,46.92 58.37,47.39 
	58.85,47.39 60.28,46.44 60.75,46.44 61.23,46.44 62.18,46.92 62.18,47.39 62.65,47.87 63.13,47.87 63.13,48.35 63.6,48.35 
	63.6,48.82 64.08,48.82 64.08,49.3 64.56,49.3 65.03,49.77 65.51,50.25 65.51,50.72 65.98,50.72 65.98,51.2 66.46,51.2 66.46,51.68 
	66.93,51.68 66.93,52.15 67.41,52.15 67.41,52.63 67.88,53.1 67.88,53.58 67.88,54.05 68.36,54.53 68.84,54.53 69.31,54.53 
	69.31,55 69.79,55 70.26,55 70.26,55.48 70.26,55 70.74,55 70.74,55.48 71.21,55.48 71.21,55.95 71.69,55.95 71.69,55.48 72.16,55 
	72.64,54.53 73.11,54.05 73.59,54.05 74.07,54.05 74.54,54.05 75.49,54.05 76.44,54.05 76.92,54.05 77.39,54.05 77.87,54.05 
	78.82,53.58 79.3,53.58 79.77,53.1 80.25,53.1 80.72,52.63 81.2,52.15 81.2,51.68 81.67,51.68 81.67,51.2 81.67,50.72 81.67,50.25 
	82.15,50.72 82.62,50.72 82.15,50.72 82.15,51.2 82.62,51.2 83.1,50.72 83.1,51.2 83.58,51.2 84.05,51.2 84.53,51.68 85,51.68 
	85.48,51.68 85.48,52.15 85.95,52.15 85.95,51.68 85.95,52.15 86.43,52.15 86.9,52.15 87.38,51.68 87.38,52.15 87.86,52.15 
	88.33,52.15 88.81,52.15 88.81,51.68 88.81,52.15 89.28,52.15 89.28,51.68 89.28,53.1 86.9,62.14 86.43,64.04 86.43,65.94 
	85.95,67.37 85.48,69.74 85.48,70.22 85,72.12 84.53,73.55 84.53,74.02 84.05,74.97 84.05,75.45 84.05,75.92 84.05,76.4 
	83.58,76.88 83.58,77.35 83.58,77.83 83.58,78.3 83.1,79.73 83.1,80.2 82.62,80.2 82.15,80.2 82.15,80.68 81.67,80.68 81.2,80.68 
	81.2,81.16 80.72,81.16 80.25,81.63 79.77,82.11 79.3,82.11 79.3,82.58 78.82,82.58 78.82,83.06 78.35,83.06 78.35,83.53 
	77.87,83.53 77.87,84.01 77.39,84.01 77.39,84.48 76.92,84.48 76.92,84.96 76.44,84.96 76.44,85.43 75.97,85.43 75.97,85.91 
	75.49,85.91 75.49,86.39 75.02,86.39 75.02,86.86 74.54,86.86 74.54,86.39 74.07,86.39 74.07,86.86 73.59,86.86 74.07,86.86 
	74.07,87.34 73.59,87.34 73.59,87.81 73.11,87.81 73.11,88.29 73.11,88.76 73.11,89.24 74.07,89.71 74.54,89.71 75.02,89.71 
	75.49,89.71 75.49,90.19 75.02,90.19 75.02,90.66 74.54,91.14 74.07,91.14 73.59,91.62 73.59,92.09 73.11,92.09 72.64,92.57 
	72.64,93.04 72.16,93.04 72.16,93.52 71.69,93.52 71.21,93.52 71.21,93.99 70.74,93.99 70.26,93.99 69.79,94.47 69.31,94.47 
	67.88,94.94 67.41,95.42 66.46,95.42 65.98,95.89 65.03,95.89 64.56,96.37 64.08,96.37 63.6,96.37 63.13,96.85 62.65,96.85 
	62.18,96.85 62.18,96.37 62.65,96.37 62.65,95.89 63.13,95.42 63.13,94.94 62.65,94.94 62.18,94.94 61.7,94.47 61.23,94.47 
	60.75,94.47 60.28,94.47 59.8,94.47 59.33,94.47 58.85,93.99 58.37,93.99 57.9,93.99 57.42,93.99 56.95,93.99 56.47,93.99 56,93.99 
	53.14,93.99 51.24,93.99 51.24,93.52 50.77,93.52 50.29,93.52 49.82,93.52 48.39,93.52 46.96,93.52 46.49,93.52 46.01,93.52 
	45.54,93.52 45.06,93.52 44.58,93.52 44.11,93.52 43.63,93.52 42.68,93.52 42.21,93.52 41.73,93.52 41.26,93.52 40.31,93.52 
	39.83,93.52 39.35,93.52 38.4,93.04 37.45,93.04 36.5,93.04 36.03,93.04 35.55,93.04 35.07,93.04 34.6,93.04 33.17,93.04 
	32.7,93.04 31.27,93.04 30.32,93.04 29.37,93.04 28.42,93.04 27.94,93.04 27.47,93.04 26.52,93.04 25.09,93.04 23.19,88.76 
	22.71,87.81 21.76,86.39 21.76,85.43 20.81,84.48 20.33,82.58 19.86,81.63 18.43,78.78 17.96,77.83 17.48,77.35 17.48,76.88 
	17.01,76.4 16.53,74.97 15.58,73.07 15.1,72.6 15.1,71.65 14.63,71.17 14.63,70.69 14.63,70.22 14.15,70.22 14.15,69.74 13.2,68.32 
	13.2,67.37 12.73,66.89 12.25,65.94 12.25,65.46 11.78,64.99 11.3,64.51 11.3,64.04 10.82,63.56 10.82,63.09 10.35,62.61 
	9.87,62.14 9.4,61.66 8.45,61.18 7.97,61.18 7.49,60.71 7.97,60.71 7.97,60.23 7.97,59.76 8.45,59.76 8.45,59.28 8.92,58.81 
	8.92,58.33 9.4,57.86 9.4,57.38 9.87,57.38 9.87,56.9 10.35,56.9 10.35,56.43 10.82,56.43 10.82,55.95 11.3,55.95 11.3,55.48 
	11.78,55.48 11.78,55 12.25,54.53 12.73,54.53 12.73,54.05 13.2,53.58 13.68,53.1 15.58,50.25 16.05,49.3 16.53,48.82 16.05,48.82 
	14.63,47.87 13.68,47.39 13.2,46.92 12.73,46.44 11.78,45.49 11.3,45.02 10.35,44.07 9.87,43.59 9.4,43.12 9.4,42.64 8.92,42.17 
	8.92,41.69 8.45,41.69 8.45,41.21 8.45,40.74 8.92,39.79 7.97,38.84 8.92,37.41 7.97,36.46 7.49,36.46 7.49,35.98 7.97,35.03 
	7.97,34.08 8.45,33.61 8.92,31.7 9.4,30.75 9.4,30.28 9.4,29.33 9.4,28.85 9.4,27.9 9.4,26.95 9.4,26 9.4,24.57 9.4,23.62 
	9.4,22.19 9.4,21.72 9.4,21.24 9.87,19.82 9.87,19.34 9.4,18.87 9.4,18.39 9.87,18.39 9.87,17.91 9.87,17.44 10.35,16.96 
	10.35,16.49 10.35,16.01 10.35,15.54 10.35,15.06 10.35,14.11 10.35,13.16 10.35,11.73 10.35,10.31 10.82,8.88 10.82,6.98 
	10.82,5.55 11.3,4.13 11.78,3.65 12.73,2.7 13.68,2.22 14.15,1.75 14.63,0.8 15.1,0.8 15.1,0.32 15.58,0.32 16.05,-0.15 
	16.53,-0.15 17.01,-0.15 17.48,-0.15 18.43,0.8 18.91,0.8 19.38,1.27 20.33,1.75 20.81,2.22 22.24,2.7 22.71,2.7 23.19,2.7 
	23.66,2.7 24.14,2.7 24.61,2.7 25.56,3.18 26.04,3.18 26.52,3.18 26.52,3.65 27.47,4.13 27.47,4.6 27.47,5.08 27.94,5.08 
	27.94,5.55 27.94,6.03 28.42,6.03 28.42,6.5 "/>
</svg>
