<?xml version="1.0" encoding="utf-8"?>
<!-- Generator: Adobe Illustrator 24.2.1, SVG Export Plug-In . SVG Version: 6.00 Build 0)  -->
<svg version="1.1" id="Layer_1" xmlns="http://www.w3.org/2000/svg" xmlns:xlink="http://www.w3.org/1999/xlink" x="0px" y="0px"
	 viewBox="0 0 97.23 97.23" style="enable-background:new 0 0 97.23 97.23;" xml:space="preserve">
<style type="text/css">
	.st0{fill-rule:evenodd;clip-rule:evenodd;fill:#1D1D1B;}
</style>
<polygon class="st0" points="96.85,20.13 96.85,20.4 96.85,20.68 96.57,20.68 96.57,20.96 96.85,21.23 96.85,21.51 96.85,21.79 
	96.85,22.06 96.57,22.06 96.57,22.34 96.29,22.34 96.57,22.34 96.57,22.62 96.57,22.89 96.29,22.89 96.29,23.17 96.29,23.44 
	96.02,23.72 96.02,24 96.02,24.27 96.29,24.55 96.29,24.83 96.29,25.1 96.29,25.38 96.29,25.66 96.02,25.66 95.74,25.93 
	95.46,25.93 95.19,26.21 94.64,26.48 94.08,26.76 93.25,27.04 92.98,27.31 92.7,27.31 92.15,27.59 91.32,28.14 91.04,28.14 
	91.04,28.7 91.04,28.97 91.04,29.25 91.04,29.8 91.04,30.08 91.04,30.35 91.04,30.63 91.04,30.91 91.04,31.18 91.04,31.46 
	91.04,32.01 91.04,32.56 91.04,32.84 91.04,33.12 91.04,33.39 91.04,33.67 91.04,33.95 91.04,34.22 91.04,34.5 91.04,34.77 
	91.04,35.05 91.04,35.33 91.04,35.6 91.04,35.88 91.04,36.43 91.04,36.71 91.04,37.26 91.04,37.54 91.04,38.09 91.04,38.92 
	91.04,39.2 91.04,39.47 91.04,40.03 91.04,40.3 91.04,40.58 91.04,41.41 91.04,41.68 91.04,41.96 91.04,42.24 91.04,42.51 
	91.04,43.34 91.04,43.89 91.04,44.72 91.04,45 91.04,45.28 91.04,45.55 91.04,46.1 91.32,46.1 91.32,46.38 91.32,46.66 91.32,46.93 
	91.32,47.49 91.32,47.76 91.32,48.04 91.32,48.32 91.32,48.59 91.32,48.87 91.32,49.14 91.32,49.42 91.32,49.7 91.32,49.97 
	91.32,50.25 91.32,50.53 91.32,50.8 91.32,51.08 91.32,51.36 91.32,51.63 91.32,51.91 91.32,52.18 91.32,52.46 91.32,52.74 
	91.32,53.01 91.32,53.29 91.32,53.84 91.32,54.12 91.32,54.4 91.32,54.67 91.32,54.95 91.32,55.22 91.32,55.5 91.32,55.78 
	91.32,56.05 91.32,56.33 91.32,56.61 91.32,56.88 91.32,57.16 91.32,57.43 91.32,57.71 91.32,57.99 91.32,58.26 91.32,58.54 
	91.32,58.82 91.32,59.09 91.32,59.37 91.32,59.65 91.32,59.92 91.32,60.2 91.32,60.47 91.32,60.75 91.32,61.03 91.32,61.3 
	91.32,61.58 91.32,61.86 91.32,62.13 91.32,62.41 91.32,62.69 91.32,62.96 91.32,63.24 91.32,63.51 91.32,63.79 91.32,64.07 
	91.32,64.34 91.32,64.62 91.32,64.9 91.32,65.17 91.32,65.45 91.32,65.73 91.32,66 91.32,66.28 91.32,66.55 91.32,66.83 
	91.32,67.11 91.32,67.38 91.32,67.66 91.32,67.94 91.32,68.21 91.32,68.49 91.32,68.76 91.32,69.04 91.32,69.32 91.32,69.59 
	91.32,69.87 91.32,70.15 91.32,70.42 91.32,70.7 91.32,71.25 91.32,71.53 91.32,71.8 91.32,72.08 91.32,72.63 88.28,72.91 
	86.34,73.19 84.96,73.46 83.58,73.74 83.3,73.74 81.92,73.74 79.71,74.29 79.44,74.29 79.16,74.29 78.61,74.29 78.33,74.29 
	75.84,74.57 75.29,74.84 73.08,74.84 72.8,75.12 72.25,75.12 68.93,76.23 66.17,77.06 65.89,77.33 65.34,77.33 65.07,77.33 
	64.24,77.33 63.41,77.33 62.3,77.33 60.92,77.33 60.09,77.61 59.54,77.61 58.16,77.61 57.05,77.61 56.77,77.61 56.22,77.61 
	55.67,77.61 55.95,77.33 55.67,77.33 55.67,77.06 55.67,76.78 55.95,76.78 55.95,76.5 55.95,76.23 56.22,76.23 56.22,75.95 
	56.22,75.67 56.22,75.4 56.22,75.12 55.39,75.4 53.46,75.4 52.91,75.4 52.35,75.4 51.8,75.4 51.52,75.4 51.25,75.4 50.97,75.4 
	50.7,75.4 50.42,75.4 50.14,75.4 49.87,75.4 49.59,75.4 49.31,75.4 49.04,75.4 48.76,75.4 48.48,75.4 48.48,75.12 48.21,75.12 
	48.21,74.84 48.21,74.57 48.21,74.29 47.93,74.29 47.66,74.29 46.83,74.29 46,74.29 46,74.02 46,73.74 46,73.46 46,72.91 46,72.63 
	46,72.36 45.72,72.36 45.44,72.08 45.17,72.08 44.06,71.53 42.96,71.53 42.68,71.53 42.68,71.8 42.68,72.08 42.68,72.36 
	42.96,72.36 42.96,72.63 42.96,72.91 42.96,73.19 42.4,72.91 41.85,72.91 41.58,72.63 41.3,72.63 41.02,72.36 40.75,72.36 
	40.75,72.08 40.47,72.08 40.19,72.08 39.92,72.08 39.64,72.08 39.36,71.8 39.09,71.8 38.81,71.8 38.54,71.8 38.26,71.8 38.26,71.53 
	37.98,71.53 37.71,71.53 37.71,71.8 37.43,71.8 37.15,71.8 37.15,72.08 36.88,72.08 36.88,72.36 36.6,72.36 36.6,72.08 36.6,72.36 
	36.32,72.36 36.05,72.36 35.77,72.36 35.77,72.08 35.5,72.36 35.22,72.36 34.94,72.36 34.94,72.08 34.94,72.36 34.67,72.36 
	34.67,72.08 34.39,72.08 34.11,72.08 33.84,71.8 33.56,71.8 33.29,71.8 33.29,71.53 33.01,71.8 32.73,71.8 32.73,71.53 33.01,71.53 
	32.73,71.53 32.46,71.25 32.46,71.53 32.46,71.8 32.46,72.08 32.18,72.08 32.18,72.36 31.9,72.63 31.63,72.91 31.35,72.91 
	31.07,73.19 30.8,73.19 30.25,73.46 29.97,73.46 29.69,73.46 29.42,73.46 28.86,73.46 28.31,73.46 28.03,73.46 27.76,73.46 
	27.48,73.46 27.21,73.74 26.93,74.02 26.65,74.29 26.65,74.57 26.38,74.57 26.38,74.29 26.1,74.29 26.1,74.02 25.82,74.02 
	25.82,74.29 25.82,74.02 25.55,74.02 25.27,74.02 25.27,73.74 24.99,73.74 24.72,73.74 24.44,73.46 24.44,73.19 24.44,72.91 
	24.17,72.63 24.17,72.36 23.89,72.36 23.89,72.08 23.61,72.08 23.61,71.8 23.34,71.8 23.34,71.53 23.06,71.53 23.06,71.25 
	22.78,70.98 22.51,70.7 22.23,70.7 22.23,70.42 21.95,70.42 21.95,70.15 21.68,70.15 21.68,69.87 21.4,69.87 21.13,69.59 
	21.13,69.32 20.57,69.04 20.3,69.04 20.02,69.04 19.19,69.59 18.91,69.59 18.36,69.32 18.09,69.04 17.53,68.76 17.26,68.49 
	16.98,68.21 16.7,67.94 16.43,67.66 16.15,67.66 16.15,67.38 15.87,67.38 15.6,67.38 15.32,67.38 14.77,67.11 14.49,67.11 
	14.22,67.11 13.66,66.83 13.11,66.83 12.83,66.55 12.56,66.55 12.01,66.55 11.73,66.28 11.18,66.28 10.9,66 10.62,66 9.8,65.73 
	9.52,65.73 9.24,65.73 8.41,65.45 7.58,65.17 7.58,65.45 7.86,65.73 8.14,65.73 8.14,66 8.41,66 8.14,66.28 7.58,66.28 7.31,66.28 
	7.03,66 6.48,66 5.93,66 5.65,65.73 5.37,65.73 5.1,65.73 4.82,65.73 4.82,65.45 4.54,65.45 4.27,65.45 4.27,65.17 3.99,64.9 
	3.99,64.62 3.72,64.62 3.72,64.34 3.44,64.34 3.44,64.07 3.16,63.79 3.16,63.51 2.89,63.24 2.61,62.96 2.61,62.69 2.61,62.41 
	2.33,62.13 2.06,61.86 2.06,61.58 1.78,61.03 1.5,60.75 1.5,60.47 1.23,59.92 0.95,59.37 0.95,59.09 0.68,58.82 0.68,58.54 
	0.4,58.54 0.4,57.99 0.12,57.16 -0.15,56.61 -0.15,55.78 -0.15,55.5 -0.15,55.22 -0.15,54.95 -0.15,54.67 -0.15,54.4 -0.15,54.12 
	-0.15,53.84 -0.15,53.29 0.12,52.74 0.12,52.46 0.12,52.18 0.12,51.91 0.4,51.36 0.4,51.08 0.68,51.08 0.68,50.8 0.68,50.53 
	0.95,50.25 0.95,49.7 1.23,49.42 1.23,49.14 1.23,48.87 1.23,48.59 1.23,48.32 1.23,48.04 1.23,47.76 1.23,47.49 1.23,47.21 
	1.5,46.93 1.5,46.66 1.5,46.1 1.78,45.83 1.78,45.55 2.06,45.83 2.33,45.55 2.61,45.55 2.89,45.28 3.16,45.28 5.65,45.83 
	7.03,45.83 7.58,45.83 9.8,45.83 10.07,45.83 10.62,45 11.18,45.28 11.45,45.55 11.73,45.55 12.56,45.83 12.83,45.83 13.11,46.1 
	13.39,45.55 13.94,45.83 14.49,45.83 14.77,45.83 15.05,45.83 15.32,45.83 16.15,45.55 16.7,45.28 16.7,45 16.98,45 17.53,45 
	17.81,45 17.81,45.28 18.09,45.28 18.64,45.28 18.91,45.28 19.47,45.28 19.47,45.55 19.47,45.83 19.47,46.1 19.19,46.1 19.47,46.1 
	19.47,46.38 19.74,46.38 20.02,46.1 20.85,46.38 21.13,46.38 21.4,46.38 22.51,46.93 22.78,46.66 23.34,46.38 23.89,46.1 
	23.89,46.38 24.17,46.38 24.44,46.93 25.27,46.38 25.27,46.66 25.82,46.38 26.1,46.38 26.1,46.1 26.1,45.83 26.1,45.55 26.65,45.28 
	26.93,45 27.76,44.45 28.59,43.89 28.86,43.62 29.14,43.89 29.14,44.17 29.42,44.17 29.69,44.45 29.97,44.45 30.25,44.45 
	30.25,44.72 30.52,44.72 30.8,45 31.07,45 31.35,45.28 31.63,45.28 31.9,45.28 32.18,45.28 32.46,45.55 32.73,45.55 33.01,45.83 
	33.29,45.83 33.56,46.1 33.84,46.1 33.84,46.38 34.11,46.38 34.39,46.38 34.67,46.38 34.39,46.1 34.67,45.83 34.39,45.55 
	34.11,45.28 34.39,45.28 34.67,45 34.94,45 35.22,45 35.5,45.28 35.77,45.28 35.77,45 35.77,44.72 36.05,44.72 36.05,44.45 
	36.32,44.45 36.6,44.45 36.88,44.45 37.15,44.45 37.43,44.45 37.71,44.45 37.98,44.45 37.98,44.17 38.54,43.89 38.81,43.62 
	39.09,43.62 39.09,43.34 39.36,43.34 39.64,43.34 39.92,43.34 40.19,43.07 40.47,43.07 40.75,43.07 41.02,43.07 41.3,43.07 
	41.58,43.07 41.58,42.79 41.85,42.79 42.13,42.51 42.4,42.51 42.68,42.51 42.96,42.24 43.23,42.51 43.79,43.07 44.06,43.07 
	44.62,43.07 44.89,43.07 44.89,41.96 44.89,41.13 46.83,40.3 50.14,38.37 51.8,37.54 53.46,36.43 53.74,36.43 55.39,35.33 
	56.5,34.77 57.33,34.5 58.99,33.67 60.09,33.12 60.64,32.84 62.58,32.01 64.24,30.91 66.17,30.08 69.76,28.42 70.59,27.87 
	71.42,27.31 73.08,26.48 75.29,25.66 76.67,24.83 78.05,24.27 80.27,22.89 82.2,22.06 84.13,21.23 84.96,20.68 87.45,19.3 
	87.45,19.58 87.45,20.13 87.45,20.96 87.45,21.23 87.45,22.06 87.45,22.89 87.45,23.44 87.45,24.55 87.73,24.55 88.83,24 89.11,24 
	89.66,23.72 90.21,23.17 91.6,22.62 92.15,22.34 92.98,22.06 93.53,21.79 95.19,20.96 95.74,20.68 "/>
</svg>
