<?xml version="1.0" encoding="utf-8"?>
<!-- Generator: Adobe Illustrator 24.2.1, SVG Export Plug-In . SVG Version: 6.00 Build 0)  -->
<svg version="1.1" id="Layer_1" xmlns="http://www.w3.org/2000/svg" xmlns:xlink="http://www.w3.org/1999/xlink" x="0px" y="0px"
	 viewBox="0 0 97.23 97.23" style="enable-background:new 0 0 97.23 97.23;" xml:space="preserve">
<style type="text/css">
	.st0{fill-rule:evenodd;clip-rule:evenodd;}
</style>
<polygon class="st0" points="77.85,19.14 77.85,19.23 77.85,19.32 77.76,19.41 77.76,19.5 77.76,19.6 77.76,19.69 77.85,19.78 
	77.85,19.87 77.85,19.96 77.85,20.05 77.85,20.15 77.85,20.24 77.94,20.33 78.04,20.42 78.13,20.42 78.22,20.51 78.22,20.61 
	78.31,20.61 78.31,20.7 78.31,20.79 78.22,20.79 78.22,20.88 78.13,20.97 78.13,21.06 78.04,21.16 77.94,21.16 77.85,21.16 
	77.85,21.25 77.85,21.34 77.85,21.43 77.76,21.43 77.67,21.43 77.58,21.43 77.58,21.52 77.48,21.52 77.48,21.62 77.58,21.62 
	77.48,21.62 77.48,21.71 77.39,21.8 77.39,21.89 77.3,21.89 77.3,21.98 77.3,22.08 77.3,22.17 77.3,22.26 77.21,22.35 77.21,22.44 
	77.12,22.44 77.03,22.44 77.12,22.53 77.12,22.63 77.21,22.72 77.12,22.81 77.21,22.81 77.21,22.9 77.12,22.99 77.12,23.09 
	77.12,23.18 77.12,23.27 77.03,23.36 76.93,23.45 76.84,23.55 76.84,23.64 76.75,23.73 76.66,23.73 76.57,23.73 76.47,23.73 
	76.38,23.73 76.29,23.82 76.2,23.82 76.11,23.82 76.01,23.82 76.01,23.91 75.92,24 76.01,24 76.01,24.1 76.11,24.1 76.11,24.19 
	76.11,24.28 76.01,24.28 75.92,24.28 75.74,24.28 75.65,24.28 75.65,24.37 75.56,24.37 75.56,24.46 75.56,24.56 75.56,24.65 
	75.56,24.74 75.46,24.74 75.37,24.74 75.28,24.65 75.28,24.74 75.19,24.83 75.1,24.83 75,24.83 75,24.92 75,25.01 75,25.11 75,25.2 
	74.91,25.2 74.82,25.2 74.73,25.2 74.64,25.2 74.54,25.11 74.45,25.11 74.45,25.01 74.36,25.01 74.36,24.92 74.27,24.92 
	74.27,24.83 74.18,24.74 74.09,24.74 74.09,24.65 73.99,24.65 73.99,24.56 73.9,24.56 73.9,24.46 73.81,24.46 73.72,24.37 
	73.72,24.28 73.72,24.19 73.63,24.19 73.63,24.28 73.53,24.28 73.53,24.37 73.53,24.28 73.44,24.19 73.53,24.19 73.53,24.1 
	73.53,24 73.44,24 73.44,23.91 73.44,23.82 73.44,23.73 73.35,23.73 73.35,23.82 73.26,23.82 73.26,23.73 73.17,23.73 73.08,23.73 
	73.08,23.64 73.08,23.55 72.98,23.55 72.89,23.55 72.8,23.45 72.8,23.36 72.71,23.36 72.71,23.45 72.62,23.45 72.52,23.45 
	72.52,23.36 72.43,23.36 72.43,23.27 72.34,23.27 72.34,23.36 72.34,23.45 72.25,23.45 72.25,23.36 72.25,23.27 72.16,23.27 
	72.06,23.36 72.06,23.27 71.97,23.27 71.97,23.36 71.88,23.36 71.88,23.27 71.88,23.36 71.79,23.36 71.7,23.36 71.61,23.36 
	71.61,23.45 71.51,23.45 71.51,23.36 71.51,23.27 71.42,23.27 71.33,23.27 71.24,23.27 71.24,23.36 71.15,23.36 71.15,23.27 
	71.05,23.27 70.96,23.27 70.96,23.36 70.87,23.36 70.78,23.36 70.69,23.45 70.6,23.45 70.6,23.55 70.5,23.55 70.41,23.64 
	70.32,23.64 70.23,23.64 70.23,23.73 70.14,23.64 70.14,23.73 70.04,23.73 69.95,23.73 69.86,23.73 69.86,23.64 69.77,23.64 
	69.77,23.55 69.68,23.55 69.58,23.55 69.49,23.55 69.4,23.55 69.31,23.45 69.31,23.55 69.22,23.55 69.13,23.45 69.03,23.36 
	69.03,23.27 68.94,23.18 68.85,23.18 68.85,23.09 68.76,22.99 68.76,22.9 68.76,22.81 68.67,22.72 68.67,22.63 68.57,22.63 
	68.57,22.53 68.48,22.53 68.48,22.44 68.48,22.35 68.39,22.35 68.3,22.35 68.21,22.26 68.11,22.26 68.02,22.26 68.02,22.35 
	68.02,22.44 68.02,22.53 68.02,22.63 67.93,22.72 67.84,22.81 67.84,22.9 67.75,22.9 67.66,22.9 67.66,22.99 67.66,23.09 
	67.56,23.09 67.47,23.09 67.47,22.99 67.38,22.99 67.29,22.9 67.2,22.9 67.1,22.9 67.1,22.99 67.01,22.99 67.01,23.09 66.92,22.99 
	66.83,22.99 66.74,22.99 66.74,23.09 66.74,23.18 66.65,23.18 66.74,23.27 66.65,23.36 66.65,23.45 66.74,23.45 66.74,23.55 
	66.74,23.64 66.74,23.73 66.74,23.82 66.74,23.91 66.65,24 66.55,24.1 66.55,24.19 66.55,24.28 66.46,24.28 66.46,24.37 
	66.37,24.37 66.37,24.46 66.37,24.56 66.28,24.56 66.28,24.65 66.19,24.74 66.19,24.83 66.28,24.83 66.28,24.92 66.37,24.92 
	66.37,25.01 66.37,25.11 66.37,25.2 66.28,25.2 66.19,25.2 66.09,25.11 66,25.11 65.91,25.11 65.82,25.11 65.82,25.01 65.73,25.01 
	65.73,24.92 65.63,24.83 65.63,24.74 65.63,24.65 65.54,24.65 65.54,24.56 65.45,24.56 65.36,24.46 65.27,24.46 65.18,24.37 
	65.08,24.37 65.08,24.28 65.08,24.19 64.99,24.19 64.99,24.1 64.9,24.1 64.9,24 64.81,24 64.72,24 64.62,24 64.53,24 64.44,23.91 
	64.35,23.82 64.26,23.82 64.16,23.82 64.07,23.82 63.98,23.82 63.89,23.82 63.8,23.73 63.71,23.73 63.71,23.82 63.61,23.82 
	63.61,23.91 63.61,24 63.61,24.1 63.71,24.19 63.71,24.28 63.71,24.37 63.61,24.46 63.71,24.56 63.71,24.65 63.71,24.74 
	63.61,24.83 63.61,24.92 63.52,25.01 63.52,25.11 63.52,25.2 63.61,25.2 63.61,25.29 63.71,25.29 63.71,25.38 63.71,25.47 
	63.8,25.57 63.8,25.66 63.8,25.75 63.8,25.84 63.8,25.93 63.89,25.93 63.89,26.03 63.98,26.03 64.07,26.12 64.16,26.21 64.16,26.3 
	64.26,26.3 64.26,26.39 64.26,26.48 64.26,26.58 64.35,26.58 64.35,26.67 64.35,26.76 64.35,26.85 64.44,26.94 64.44,27.04 
	64.44,27.13 64.35,27.13 64.26,27.13 64.16,27.22 64.07,27.22 64.07,27.13 63.98,27.04 63.98,27.13 63.89,27.13 63.8,27.13 
	63.8,27.22 63.71,27.22 63.61,27.22 63.61,27.31 63.52,27.31 63.52,27.22 63.43,27.22 63.34,27.31 63.34,27.4 63.25,27.4 
	63.25,27.49 63.15,27.49 63.06,27.59 63.06,27.68 63.06,27.77 63.15,27.77 63.15,27.86 63.15,27.95 63.15,28.05 63.15,28.14 
	63.15,28.23 63.15,28.32 63.15,28.41 63.15,28.51 63.15,28.6 63.15,28.78 63.15,28.87 63.06,28.87 63.06,28.96 63.06,29.06 
	63.06,29.15 63.06,29.24 63.06,29.33 63.06,29.42 62.97,29.42 62.97,29.52 62.97,29.61 62.88,29.61 62.88,29.7 62.88,29.79 
	62.97,29.79 62.97,29.7 63.06,29.7 63.06,29.61 63.06,29.7 63.06,29.79 63.06,29.88 62.97,29.88 62.97,29.98 63.06,29.98 
	63.06,30.07 63.06,30.16 62.97,30.16 62.97,30.25 63.06,30.25 63.06,30.16 63.15,30.16 63.15,30.25 63.25,30.25 63.34,30.25 
	63.34,30.34 63.34,30.43 63.43,30.43 63.52,30.43 63.52,30.53 63.61,30.53 63.61,30.43 63.61,30.34 63.61,30.43 63.71,30.43 
	63.8,30.43 63.8,30.53 63.89,30.53 63.89,30.62 63.89,30.71 63.98,30.71 63.98,30.8 64.07,30.8 64.16,30.8 64.16,30.89 64.07,30.89 
	63.98,30.89 63.98,30.99 63.89,31.08 63.89,31.17 63.98,31.17 63.89,31.17 63.8,31.17 63.71,31.17 63.61,31.17 63.52,31.08 
	63.52,31.17 63.43,31.17 63.34,31.17 63.34,31.08 63.25,31.08 63.25,31.17 63.34,31.17 63.34,31.26 63.25,31.26 63.25,31.35 
	63.34,31.26 63.34,31.35 63.43,31.35 63.43,31.44 63.34,31.44 63.34,31.35 63.25,31.35 63.25,31.44 63.25,31.54 63.15,31.54 
	63.15,31.44 63.06,31.44 62.97,31.44 62.97,31.35 62.88,31.44 62.88,31.54 62.88,31.63 62.88,31.72 62.79,31.72 62.7,31.72 
	62.6,31.81 62.51,31.81 62.42,31.9 62.33,32 62.33,32.09 62.33,32.18 62.24,32.18 62.24,32.09 62.14,32 62.05,32 62.14,32.09 
	62.14,32.18 62.05,32.18 61.96,32.18 61.96,32.09 61.87,32 61.87,31.9 61.78,31.9 61.78,32 61.68,32 61.68,32.09 61.68,32.18 
	61.68,32.27 61.59,32.27 61.5,32.36 61.41,32.46 61.41,32.55 61.41,32.64 61.41,32.73 61.32,32.82 61.41,32.91 61.41,33.01 
	61.41,33.1 61.41,33.19 61.41,33.28 61.41,33.37 61.41,33.47 61.41,33.56 61.41,33.65 61.41,33.74 61.5,33.74 61.5,33.83 
	61.59,33.83 61.59,33.92 61.59,34.02 61.68,34.02 61.78,34.11 61.78,34.2 61.78,34.38 61.78,34.48 61.78,34.57 61.78,34.66 
	61.78,34.75 61.68,34.75 61.59,34.84 61.5,34.84 61.5,34.94 61.41,34.94 61.41,35.03 61.41,35.12 61.32,35.21 61.32,35.3 
	61.23,35.39 61.23,35.49 61.13,35.49 61.13,35.58 61.04,35.58 60.95,35.67 60.86,35.67 60.77,35.67 60.77,35.76 60.67,35.85 
	60.58,35.95 60.58,36.04 60.58,36.13 60.58,36.22 60.58,36.31 60.58,36.4 60.49,36.5 60.49,36.59 60.4,36.68 60.31,36.77 
	60.21,36.86 60.12,36.86 60.03,36.96 59.94,36.96 59.85,37.05 59.76,37.05 59.66,37.05 59.57,37.05 59.57,37.14 59.48,37.14 
	59.39,37.23 59.39,37.32 59.3,37.32 59.2,37.32 59.2,37.42 59.2,37.51 59.2,37.6 59.11,37.6 59.02,37.6 58.93,37.69 59.02,37.78 
	59.02,37.87 58.93,37.87 59.02,37.87 59.02,37.97 58.93,37.97 58.93,38.06 58.84,38.06 58.93,38.15 58.93,38.24 58.93,38.33 
	58.84,38.33 58.75,38.33 58.65,38.33 58.65,38.24 58.56,38.24 58.56,38.33 58.56,38.43 58.47,38.43 58.38,38.52 58.29,38.52 
	58.29,38.61 58.29,38.7 58.19,38.79 58.1,38.79 58.1,38.89 58.01,38.89 58.01,38.98 58.01,39.07 58.1,39.07 58.19,39.07 
	58.29,39.16 58.38,39.25 58.47,39.25 58.47,39.34 58.47,39.44 58.56,39.44 58.56,39.53 58.47,39.53 58.47,39.62 58.47,39.71 
	58.47,39.8 58.47,39.9 58.47,39.99 58.38,39.99 58.38,40.08 58.29,40.08 58.19,40.08 58.1,40.08 58.01,40.17 57.92,40.17 
	57.92,40.26 57.83,40.26 57.73,40.26 57.73,40.35 57.64,40.35 57.64,40.45 57.64,40.54 57.73,40.54 57.73,40.63 57.64,40.72 
	57.64,40.81 57.55,40.81 57.46,40.81 57.46,40.91 57.37,40.91 57.37,41 57.28,41 57.18,41 57.18,41.09 57.09,41.09 57.09,41.18 
	57.18,41.18 57.18,41.27 57.18,41.37 57.09,41.37 57.09,41.46 57,41.46 57,41.55 57,41.64 56.91,41.64 56.91,41.73 56.91,41.82 
	57,41.92 57,42.01 56.91,42.1 56.91,42.19 56.91,42.28 56.91,42.38 56.91,42.47 56.91,42.56 56.91,42.65 56.82,42.65 56.91,42.65 
	56.91,42.74 57,42.74 56.91,42.83 56.91,42.93 56.91,43.02 56.91,43.11 57,43.11 57,43.2 57,43.29 57,43.39 56.91,43.48 
	56.91,43.57 56.82,43.57 56.82,43.66 56.82,43.75 56.82,43.85 56.82,43.94 56.72,43.94 56.72,44.03 56.72,44.12 56.72,44.21 
	56.63,44.21 56.63,44.3 56.54,44.3 56.54,44.4 56.45,44.58 56.45,44.67 56.45,44.76 56.45,44.86 56.45,44.95 56.45,45.04 
	56.45,45.13 56.45,45.22 56.54,45.22 56.54,45.32 56.63,45.32 56.54,45.41 56.54,45.5 56.54,45.59 56.63,45.68 56.54,45.68 
	56.45,45.68 56.36,45.77 56.36,45.87 56.27,45.87 56.27,45.96 56.17,45.96 56.08,45.96 55.99,45.96 55.9,45.96 55.9,46.05 
	55.9,46.14 55.81,46.23 55.81,46.33 55.71,46.42 55.71,46.51 55.81,46.51 55.81,46.6 55.9,46.69 55.99,46.69 56.08,46.78 
	56.08,46.88 56.08,46.97 56.17,46.97 56.27,46.97 56.27,47.06 56.27,47.15 56.36,47.24 56.45,47.24 56.54,47.24 56.63,47.24 
	56.72,47.24 56.72,47.34 56.72,47.43 56.72,47.52 56.72,47.61 56.63,47.61 56.63,47.7 56.54,47.7 56.54,47.8 56.54,47.98 
	56.54,48.07 56.45,48.16 56.45,48.25 56.45,48.35 56.54,48.44 56.54,48.53 56.63,48.53 56.63,48.62 56.63,48.71 56.72,48.71 
	56.82,48.81 56.82,48.9 56.91,48.99 56.82,49.08 56.82,49.17 56.72,49.26 56.72,49.36 56.72,49.45 56.82,49.54 56.82,49.63 
	56.82,49.72 56.82,49.82 56.91,49.82 56.91,49.91 57,50 57.09,50.18 57.09,50.27 57.09,50.37 57,50.37 56.91,50.37 56.82,50.27 
	56.72,50.27 56.63,50.27 56.63,50.37 56.54,50.37 56.45,50.37 56.36,50.37 56.27,50.46 56.27,50.55 56.27,50.64 56.27,50.73 
	56.17,50.73 56.17,50.83 56.27,50.83 56.27,50.92 56.17,50.92 56.08,50.92 56.08,51.01 55.99,51.01 55.9,51.01 55.9,51.1 
	55.9,51.19 55.9,51.29 55.9,51.38 55.9,51.47 55.81,51.47 55.81,51.56 55.71,51.56 55.71,51.65 55.62,51.65 55.62,51.74 
	55.53,51.74 55.44,51.74 55.35,51.74 55.35,51.84 55.35,51.93 55.35,52.02 55.35,52.11 55.25,52.11 55.16,52.11 55.16,52.2 
	55.16,52.3 55.25,52.3 55.25,52.39 55.25,52.48 55.16,52.48 55.25,52.57 55.25,52.66 55.35,52.66 55.35,52.76 55.25,52.76 
	55.16,52.76 55.16,52.85 55.16,52.94 55.16,53.03 55.16,53.12 55.07,53.21 55.07,53.31 55.07,53.4 55.07,53.49 55.07,53.58 
	55.07,53.67 55.07,53.77 54.98,53.77 54.98,53.86 54.98,53.95 54.89,53.95 54.89,54.04 54.89,54.13 54.89,54.22 54.98,54.32 
	54.98,54.41 55.07,54.41 55.07,54.5 55.07,54.59 55.07,54.68 55.07,54.78 55.07,54.87 54.98,54.87 54.89,54.87 54.89,54.96 
	54.98,55.14 54.98,55.24 54.89,55.24 54.89,55.33 54.8,55.33 54.8,55.42 54.8,55.51 54.7,55.51 54.8,55.51 54.8,55.6 54.7,55.6 
	54.61,55.69 54.7,55.79 54.7,55.88 54.7,55.97 54.7,56.06 54.7,56.15 54.61,56.25 54.7,56.34 54.61,56.43 54.61,56.52 54.52,56.52 
	54.52,56.61 54.52,56.7 54.52,56.8 54.52,56.89 54.52,56.98 54.43,56.98 54.43,57.07 54.43,57.16 54.43,57.26 54.43,57.35 
	54.52,57.35 54.61,57.35 54.61,57.44 54.61,57.53 54.61,57.62 54.52,57.62 54.43,57.62 54.43,57.72 54.43,57.81 54.34,57.81 
	54.34,57.9 54.34,57.99 54.34,58.08 54.34,58.17 54.24,58.17 54.34,58.27 54.34,58.36 54.34,58.45 54.43,58.45 54.52,58.45 
	54.61,58.45 54.61,58.54 54.7,58.54 54.7,58.63 54.7,58.73 54.7,58.82 54.7,58.91 54.7,59 54.7,59.09 54.7,59.19 54.8,59.19 
	54.89,59.19 54.89,59.28 54.98,59.28 54.89,59.37 54.98,59.37 55.07,59.46 55.16,59.55 55.16,59.64 55.25,59.64 55.25,59.74 
	55.25,59.83 55.16,59.83 55.16,59.92 55.25,60.01 55.35,60.01 55.35,60.1 55.35,60.2 55.35,60.29 55.25,60.38 55.16,60.38 
	55.16,60.47 55.07,60.56 55.07,60.65 55.07,60.75 55.16,60.75 55.16,60.84 55.16,60.93 55.25,60.93 55.25,61.02 55.25,61.11 
	55.35,61.11 55.44,61.11 55.44,61.02 55.44,61.11 55.44,61.21 55.44,61.3 55.53,61.3 55.53,61.21 55.53,61.3 55.62,61.3 55.53,61.3 
	55.62,61.3 55.62,61.39 55.53,61.39 55.62,61.39 55.53,61.39 55.62,61.48 55.71,61.57 55.71,61.48 55.81,61.57 55.81,61.67 
	55.81,61.76 55.9,61.76 55.9,61.85 55.81,61.94 55.9,61.94 55.99,61.94 55.99,62.03 56.08,62.03 56.08,62.12 56.08,62.22 
	56.08,62.31 56.17,62.31 56.36,62.22 56.45,62.22 56.54,62.12 56.63,62.03 56.72,62.03 56.82,62.03 56.91,62.03 57,62.03 57,62.12 
	57,62.22 57,62.31 57,62.49 57,62.58 56.91,62.77 56.82,62.77 56.82,62.86 56.91,62.95 56.82,63.13 56.82,63.23 56.82,63.32 
	56.82,63.41 56.82,63.5 56.82,63.59 56.82,63.69 56.72,63.69 56.63,63.78 56.54,63.87 56.45,63.96 56.36,63.96 56.45,64.05 
	56.45,64.15 56.36,64.33 56.36,64.42 56.27,64.42 56.27,64.51 56.36,64.51 56.45,64.51 56.63,64.51 56.72,64.51 56.82,64.51 
	56.91,64.51 57,64.51 57,64.6 57,64.7 57,64.79 56.91,64.79 56.91,64.88 56.82,64.88 56.82,65.06 56.72,65.16 56.72,65.25 
	56.54,65.25 56.45,65.25 56.45,65.34 56.36,65.34 56.36,65.43 56.36,65.52 56.36,65.61 56.36,65.71 56.27,65.8 56.17,65.89 
	56.08,65.89 56.08,65.98 56.08,66.07 55.99,66.17 55.99,66.26 55.9,66.26 55.9,66.35 55.81,66.35 55.71,66.35 55.62,66.35 
	55.53,66.26 55.53,66.35 55.44,66.26 55.35,66.35 55.25,66.35 55.16,66.44 55.07,66.53 54.89,66.72 54.89,66.81 54.8,66.81 
	54.89,66.99 54.89,67.08 54.89,67.18 54.8,67.36 54.8,67.45 54.8,67.54 54.8,67.64 54.7,67.64 54.7,67.73 54.7,67.82 54.7,67.91 
	54.7,68 54.61,68.1 54.61,68.19 54.61,68.28 54.61,68.37 54.7,68.37 54.8,68.37 54.89,68.37 54.89,68.46 54.8,68.65 54.8,68.74 
	54.7,68.83 54.7,68.92 54.61,69.01 54.52,69.01 54.52,69.11 54.52,69.2 54.52,69.29 54.52,69.38 54.52,69.47 54.61,69.47 
	54.7,69.47 54.8,69.47 54.89,69.47 54.89,69.56 54.89,69.66 54.89,69.75 54.89,69.84 54.8,69.84 54.8,69.93 54.7,70.02 54.7,70.12 
	54.61,70.21 54.61,70.3 54.61,70.39 54.61,70.48 54.61,70.58 54.61,70.67 54.61,70.76 54.61,70.85 54.7,70.85 54.7,70.76 
	54.8,70.76 54.8,70.85 54.89,70.85 54.89,70.94 54.8,70.94 54.8,71.03 54.7,71.03 54.61,71.13 54.52,71.13 54.43,71.13 54.34,71.22 
	54.34,71.31 54.24,71.31 54.24,71.49 54.15,71.59 54.15,71.68 54.15,71.77 54.24,71.77 54.34,71.68 54.43,71.77 54.52,71.77 
	54.52,71.86 54.61,71.86 54.7,71.86 54.7,71.95 54.8,71.95 54.8,72.04 54.8,72.14 54.89,72.23 54.98,72.23 54.98,72.32 54.98,72.41 
	54.89,72.41 54.89,72.5 54.98,72.6 55.07,72.6 55.07,72.69 55.07,72.78 55.16,72.78 55.25,72.78 55.25,72.87 55.16,72.87 
	55.16,72.96 55.16,73.06 55.16,73.15 55.16,73.24 55.16,73.33 55.16,73.42 55.07,73.51 55.07,73.61 55.16,73.61 55.16,73.51 
	55.25,73.51 55.35,73.42 55.44,73.42 55.44,73.51 55.53,73.61 55.62,73.61 55.81,73.7 55.9,73.7 55.9,73.79 55.9,73.88 55.99,73.88 
	56.08,73.97 56.17,73.97 56.36,73.97 56.45,73.97 56.45,74.07 56.45,74.16 56.54,74.16 56.72,74.16 56.82,74.16 56.82,74.25 
	56.91,74.25 57.09,74.34 57.18,74.34 57.28,74.34 57.37,74.43 57.46,74.43 57.55,74.43 57.64,74.43 57.73,74.34 57.73,74.25 
	57.73,74.16 57.83,74.07 57.92,74.07 57.92,73.97 58.01,73.97 58.1,73.97 58.19,74.07 58.29,74.07 58.38,74.16 58.47,74.16 
	58.56,74.25 58.65,74.34 58.75,74.43 58.75,74.53 58.65,74.62 58.56,74.8 58.56,74.89 58.56,74.98 58.47,75.08 58.47,75.17 
	58.47,75.26 58.47,75.35 58.47,75.44 58.47,75.54 58.47,75.63 58.47,75.81 58.47,75.9 58.47,75.99 58.47,76.09 58.47,76.27 
	58.47,76.45 58.47,76.55 58.38,76.55 58.38,76.73 58.29,76.73 58.29,76.82 58.29,76.91 58.29,77.01 58.19,77.1 58.19,77.19 
	58.19,77.28 58.19,77.37 58.19,77.46 58.19,77.56 58.19,77.65 58.19,77.74 58.19,77.92 58.1,78.02 58.1,78.2 58.1,78.29 58.1,78.38 
	58.1,78.47 58.01,78.66 58.01,78.84 57.92,79.12 57.83,79.21 57.73,79.3 57.73,79.39 57.73,79.49 57.73,79.58 57.73,79.67 
	57.73,79.85 57.73,79.94 57.73,80.04 57.64,80.13 57.64,80.22 57.55,80.31 57.55,80.4 57.64,80.5 57.64,80.59 57.64,80.68 
	57.55,80.68 57.46,80.77 57.37,80.86 57.37,81.05 57.37,81.14 57.28,81.14 57.28,81.23 57.28,81.32 57.28,81.41 57.28,81.51 
	57.28,81.6 57.28,81.69 57.18,81.87 57.18,81.97 57.18,82.06 57.09,82.24 57.09,82.42 57.09,82.61 57.09,82.7 57,82.79 57.09,82.98 
	57,82.98 56.91,82.98 56.91,82.88 56.82,82.88 56.72,82.79 56.63,82.79 56.54,82.79 56.45,82.79 56.36,82.88 56.27,82.98 
	56.27,83.07 56.17,83.07 56.08,82.98 55.99,82.98 55.9,82.98 55.81,82.98 55.71,82.98 55.62,82.98 55.53,82.98 55.35,82.98 
	55.25,82.98 55.25,83.07 55.16,83.07 55.07,83.16 54.98,83.25 54.89,83.25 54.8,83.25 54.7,83.25 54.61,83.16 54.52,83.16 
	54.43,83.25 54.34,83.25 54.24,83.25 54.15,83.25 54.15,83.16 54.06,83.16 53.97,83.16 53.97,83.25 53.88,83.25 53.78,83.25 
	53.78,83.62 53.69,84.35 53.42,84.81 52.96,85.27 52.77,85.36 52.87,85.64 52.96,85.73 53.05,85.73 53.23,85.73 53.33,85.82 
	53.42,85.92 53.51,86.1 53.51,86.28 53.51,86.56 53.6,86.65 53.6,86.83 53.6,87.11 53.6,87.29 53.69,87.66 53.6,87.84 53.6,88.03 
	53.6,88.21 53.69,88.4 53.78,88.58 53.78,88.67 53.69,88.76 53.69,88.85 53.6,88.85 53.6,88.95 53.6,89.04 53.51,89.13 53.51,89.22 
	53.51,89.31 53.51,89.41 53.42,89.41 53.33,89.41 53.33,89.5 53.33,89.59 53.33,89.68 53.33,89.77 53.42,89.87 53.42,89.96 
	53.42,90.05 53.51,90.05 53.51,90.14 53.6,90.23 53.6,90.32 53.51,90.42 53.51,90.51 53.6,90.51 53.69,90.51 53.78,90.6 
	53.78,90.69 53.78,90.78 53.69,90.78 53.6,90.88 53.6,90.97 53.6,91.15 53.6,91.24 53.6,91.33 53.6,91.43 53.69,91.43 53.69,91.52 
	53.69,91.61 53.69,91.7 53.69,91.79 53.69,91.89 53.6,91.89 53.6,91.98 53.6,92.07 53.6,92.16 53.6,92.35 53.69,92.44 53.69,92.53 
	53.6,92.62 53.6,92.71 53.6,92.8 53.69,92.9 53.78,92.9 53.78,92.99 53.69,92.99 53.69,93.08 53.6,93.17 53.6,93.26 53.51,93.36 
	53.42,93.36 53.42,93.45 53.33,93.54 53.33,93.63 53.23,93.63 53.23,93.72 53.14,93.72 53.14,93.81 53.05,93.81 53.05,93.72 
	52.96,93.81 52.96,93.91 52.96,93.81 52.87,93.81 52.87,93.91 52.77,93.91 52.68,93.91 52.68,94 52.59,94.09 52.68,94.09 
	52.59,94.09 52.59,94.18 52.59,94.27 52.5,94.27 52.5,94.37 52.41,94.37 52.5,94.37 52.5,94.46 52.41,94.46 52.41,94.55 
	52.32,94.55 52.22,94.64 52.13,94.64 52.22,94.64 52.13,94.64 52.13,94.55 52.13,94.64 52.04,94.64 51.95,94.64 51.86,94.64 
	51.86,94.73 51.76,94.73 51.67,94.73 51.67,94.83 51.58,94.83 51.67,94.83 51.67,94.92 51.58,94.92 51.58,94.83 51.58,94.92 
	51.49,94.92 51.4,94.92 51.4,95.01 51.3,95.01 51.21,95.01 51.21,95.1 51.21,95.01 51.21,95.1 51.12,95.1 51.03,95.1 51.03,95.19 
	51.03,95.1 50.94,95.1 50.85,95.1 50.75,95.01 50.75,95.1 50.85,95.1 50.75,95.1 50.75,95.19 50.66,95.19 50.66,95.28 50.57,95.28 
	50.57,95.19 50.48,95.19 50.39,95.19 50.39,95.28 50.29,95.28 50.2,95.38 50.29,95.38 50.2,95.47 50.29,95.47 50.2,95.47 
	50.2,95.56 50.11,95.56 50.02,95.65 50.02,95.56 50.02,95.65 49.93,95.65 49.83,95.65 49.74,95.65 49.74,95.74 49.65,95.74 
	49.65,95.84 49.56,95.84 49.47,95.84 49.47,95.74 49.47,95.84 49.47,95.74 49.38,95.74 49.38,95.84 49.28,95.93 49.19,95.93 
	49.19,96.02 49.1,96.02 49.01,96.11 48.92,96.11 49.01,96.2 49.01,96.3 49.01,96.39 48.92,96.57 48.82,96.57 48.82,96.66 
	48.73,96.66 48.73,96.75 48.64,96.85 48.55,96.85 48.37,96.66 48.18,96.48 48,96.39 47.91,96.39 47.72,96.39 47.54,96.39 
	47.45,96.48 47.35,96.57 46.99,96.57 46.71,96.57 46.53,96.57 46.25,96.57 45.98,96.57 45.61,96.66 45.15,96.57 44.87,96.57 
	44.69,96.48 44.6,96.3 44.42,96.3 44.05,96.11 43.77,96.02 43.68,96.02 43.59,96.02 43.31,95.93 43.22,95.74 43.13,95.47 
	42.95,95.38 42.76,95.19 42.49,95.19 42.12,95.38 41.84,95.47 41.66,95.65 41.57,95.84 41.38,95.93 41.2,96.02 40.47,96.11 
	39.91,96.02 39.45,96.02 39.09,95.93 39,95.84 38.9,95.56 38.81,95.19 38.63,95.01 38.35,94.64 38.17,94.46 38.08,94.46 
	37.89,94.27 37.8,94.27 37.71,94.27 37.71,94.18 37.62,94.18 37.62,94.09 37.53,94.09 37.53,94.18 37.43,94.18 37.34,94.09 
	37.25,94.09 37.16,93.91 36.97,93.81 36.88,93.72 36.79,93.63 36.79,93.45 36.7,93.45 36.7,93.36 36.61,93.36 36.61,93.26 
	36.61,93.17 36.61,93.08 36.61,92.99 36.61,92.9 36.61,92.8 36.7,92.8 36.7,92.71 36.7,92.62 36.7,92.53 36.7,92.44 36.7,92.35 
	36.7,92.25 36.7,92.16 36.7,92.07 36.7,91.98 36.61,91.89 36.61,91.79 36.52,91.79 36.52,91.89 36.42,91.89 36.42,91.79 
	36.33,91.79 36.33,91.89 36.24,91.89 36.15,91.89 36.15,91.79 36.06,91.79 35.96,91.79 35.96,91.7 35.87,91.7 35.87,91.61 
	35.78,91.61 35.78,91.52 35.78,91.43 35.69,91.43 35.69,91.33 35.69,91.24 35.6,91.24 35.6,91.15 35.5,91.06 35.41,90.97 
	35.32,90.88 35.32,90.78 35.32,90.69 35.32,90.6 35.23,90.6 35.23,90.51 35.23,90.42 35.14,90.32 35.14,90.23 35.05,90.23 
	35.05,90.14 34.95,90.14 34.95,90.05 34.86,90.05 34.77,89.96 34.68,89.87 34.59,89.77 34.49,89.68 34.4,89.68 34.4,89.59 
	34.31,89.59 34.22,89.5 34.13,89.41 34.04,89.41 33.94,89.31 33.94,89.22 33.85,89.13 33.76,89.13 33.67,89.04 33.58,89.04 
	33.48,89.04 33.39,89.04 33.3,89.04 33.21,89.04 33.12,89.04 33.02,89.04 32.93,88.95 32.84,88.95 32.75,88.85 32.57,88.85 
	32.47,88.85 32.38,88.76 32.29,88.76 32.2,88.76 32.11,88.76 31.92,88.67 31.83,88.67 31.65,88.67 31.56,88.67 31.46,88.67 
	31.37,88.67 31.28,88.67 31,88.67 30.91,88.76 30.73,88.76 30.64,88.76 30.54,88.76 30.36,88.85 30.27,88.85 30.18,88.95 
	30.09,88.95 30.09,88.85 29.99,88.85 29.99,88.76 29.9,88.76 29.81,88.76 29.72,88.76 29.72,88.67 29.63,88.67 29.63,88.58 
	29.72,88.58 29.63,88.58 29.63,88.49 29.53,88.49 29.63,88.49 29.63,88.4 29.53,88.4 29.44,88.4 29.35,88.4 29.26,88.49 
	29.17,88.49 29.17,88.58 29.17,88.49 29.07,88.49 28.98,88.49 28.89,88.49 28.89,88.4 28.8,88.4 28.8,88.49 28.71,88.49 28.71,88.4 
	28.62,88.4 28.52,88.4 28.43,88.4 28.43,88.3 28.34,88.3 28.34,88.21 28.25,88.21 28.16,88.21 28.06,88.21 28.16,88.21 28.06,88.21 
	28.06,88.12 27.97,88.12 27.88,88.12 27.88,88.03 27.79,88.03 27.79,87.94 27.7,87.94 27.61,87.94 27.61,88.03 27.51,88.03 
	27.42,88.03 27.42,88.12 27.33,88.12 27.24,88.12 27.33,88.12 27.33,88.21 27.24,88.21 27.24,88.3 27.15,88.3 27.15,88.4 
	27.05,88.4 27.15,88.4 27.05,88.4 27.05,88.49 27.05,88.58 26.96,88.58 26.87,88.58 26.87,88.67 26.96,88.67 26.87,88.67 
	26.87,88.76 26.87,88.85 26.78,88.85 26.87,88.85 26.78,88.85 26.78,88.95 26.69,88.95 26.59,89.04 26.5,89.04 26.5,89.13 
	26.41,89.22 26.41,89.31 26.32,89.31 26.32,89.41 26.23,89.41 26.23,89.5 26.14,89.5 26.04,89.5 25.95,89.5 25.86,89.5 25.86,89.41 
	25.86,89.31 25.95,89.31 25.95,89.22 25.95,89.13 25.86,89.13 25.86,89.04 25.86,88.95 25.86,88.85 25.86,88.76 25.86,88.67 
	25.77,88.67 25.77,88.58 25.77,88.49 25.77,88.4 25.77,88.3 25.86,88.3 25.86,88.21 25.86,88.12 25.86,88.03 25.86,87.94 
	25.86,87.84 25.86,87.75 25.86,87.66 25.86,87.57 25.77,87.57 25.77,87.48 25.68,87.38 25.58,87.29 25.4,87.29 25.4,87.2 
	25.31,87.2 25.22,87.2 25.12,87.29 25.03,87.29 25.03,87.2 24.94,87.2 24.85,87.2 24.85,87.11 24.94,87.11 24.85,87.02 24.85,86.93 
	24.76,86.93 24.67,86.83 24.57,86.83 24.57,86.74 24.67,86.74 24.85,86.74 24.94,86.74 25.03,86.74 25.12,86.65 25.22,86.56 
	25.22,86.47 25.31,86.47 25.31,86.37 25.31,86.28 25.31,86.19 25.31,86.1 25.4,86.01 25.49,86.01 25.58,85.92 25.68,85.92 
	25.68,85.82 25.77,85.73 25.77,85.64 25.86,85.64 25.86,85.55 25.95,85.55 26.04,85.55 26.14,85.64 26.14,85.55 26.23,85.55 
	26.32,85.46 26.41,85.46 26.5,85.46 26.59,85.46 26.69,85.46 26.78,85.46 26.87,85.46 26.96,85.36 27.05,85.36 27.05,85.27 
	27.15,85.27 27.05,85.27 27.05,85.18 27.15,85.09 27.24,84.9 27.33,84.81 27.33,84.72 27.42,84.72 27.42,84.63 27.51,84.63 
	27.61,84.54 27.7,84.54 27.7,84.45 27.61,84.35 27.51,84.35 27.51,84.26 27.61,84.17 27.7,84.17 27.79,84.17 27.79,84.08 
	27.88,83.99 27.97,83.89 28.06,83.71 28.06,83.62 28.06,83.53 27.97,83.53 27.88,83.53 27.88,83.44 28.06,83.25 28.16,83.16 
	28.25,83.07 28.25,82.98 28.34,82.98 28.34,82.88 28.34,82.79 28.25,82.7 28.16,82.7 28.06,82.61 27.97,82.52 27.88,82.42 
	27.79,82.33 27.79,82.24 27.88,82.24 27.97,82.24 27.97,82.15 27.97,82.06 27.97,81.97 28.06,81.97 28.16,81.97 28.25,81.97 
	28.25,81.87 28.34,81.87 28.34,81.78 28.43,81.69 28.43,81.6 28.52,81.6 28.52,81.51 28.62,81.41 28.71,81.32 28.71,81.23 
	28.62,81.23 28.62,81.14 28.62,81.05 28.52,80.96 28.52,80.86 28.43,80.77 28.34,80.68 28.34,80.59 28.34,80.5 28.34,80.4 
	28.34,80.31 28.43,80.22 28.52,80.04 28.52,79.94 28.62,79.85 28.62,79.76 28.71,79.76 28.71,79.67 28.71,79.58 28.8,79.58 
	28.8,79.49 28.71,79.39 28.62,78.93 28.62,78.84 28.62,78.75 28.62,78.66 28.71,78.66 28.8,78.57 28.8,78.47 28.8,78.38 28.8,78.29 
	28.71,78.2 28.71,78.11 28.71,78.02 28.8,77.92 28.89,77.92 28.98,77.92 29.07,77.92 29.07,77.83 29.07,77.74 28.98,77.65 
	28.89,77.65 28.8,77.65 28.71,77.56 28.71,77.46 28.71,77.37 28.62,77.28 28.62,77.1 28.62,77.01 28.62,76.91 28.52,76.91 
	28.52,76.82 28.52,76.73 28.43,76.73 28.43,76.64 28.34,76.45 28.34,76.27 28.34,76.18 28.34,75.99 28.34,75.9 28.34,75.72 
	28.34,75.63 28.34,75.35 28.34,75.17 28.34,75.08 28.34,74.98 28.34,74.89 28.34,74.62 28.34,74.43 28.34,73.97 28.34,73.88 
	28.34,73.79 28.25,73.61 28.16,73.33 28.16,73.24 28.06,73.06 28.06,72.87 27.97,72.69 27.97,72.6 27.88,72.5 27.88,72.32 
	27.79,72.14 27.79,71.95 27.7,71.86 27.7,71.68 27.61,71.49 27.61,71.4 27.51,71.31 27.51,71.13 27.42,70.85 27.15,70.02 
	27.15,69.93 27.15,69.84 27.24,69.84 27.24,69.75 27.33,69.75 27.42,69.66 27.42,69.56 27.42,69.47 27.51,69.38 27.61,69.29 
	27.61,69.2 27.61,69.11 27.7,69.11 27.61,69.11 27.61,69.01 27.7,69.01 27.7,68.92 27.79,68.92 27.79,68.83 27.79,68.74 27.7,68.74 
	27.7,68.65 27.79,68.65 27.79,68.55 27.7,68.55 27.7,68.46 27.79,68.46 27.79,68.37 27.88,68.37 27.88,68.28 27.88,68.19 
	27.79,68.19 27.79,68.1 27.79,68 27.79,67.91 27.7,67.91 27.7,67.82 27.79,67.73 27.79,67.54 27.88,67.45 27.88,67.36 27.88,67.27 
	27.88,67.18 27.88,67.08 27.88,66.99 27.79,66.9 27.79,66.81 27.7,66.81 27.7,66.72 27.61,66.72 27.51,66.63 27.42,66.63 
	27.33,66.63 27.24,66.53 27.15,66.53 27.05,66.44 26.96,66.44 26.96,66.35 26.87,66.35 26.87,66.44 26.78,66.44 26.69,66.35 
	26.5,66.35 26.41,66.26 26.32,66.17 26.23,66.17 26.14,66.17 26.04,66.17 25.95,66.17 25.95,66.07 25.86,66.07 25.77,65.98 
	25.68,65.89 25.58,65.8 25.58,65.61 25.49,65.52 25.4,65.52 25.4,65.43 25.4,65.34 25.4,65.25 25.4,65.16 25.4,65.06 25.4,64.97 
	25.31,64.88 25.31,64.79 25.4,64.7 25.4,64.6 25.49,64.42 25.49,64.33 25.58,64.24 25.58,64.15 25.49,64.15 25.49,64.05 
	25.49,63.96 25.58,63.87 25.58,63.78 25.68,63.59 25.68,63.5 25.77,63.41 25.77,63.32 25.77,63.23 25.86,63.23 25.86,63.13 
	25.95,62.95 25.95,62.86 26.04,62.77 26.04,62.68 26.04,62.58 26.04,62.49 26.04,62.4 26.04,62.31 26.04,62.22 26.04,62.12 
	26.04,62.03 26.14,62.03 26.04,62.03 26.04,61.94 26.14,61.94 26.14,61.85 26.23,61.76 26.32,61.76 26.32,61.67 26.41,61.67 
	26.32,61.67 26.41,61.67 26.41,61.57 26.32,61.57 26.41,61.57 26.32,61.57 26.32,61.48 26.41,61.48 26.41,61.39 26.41,61.3 
	26.41,61.21 26.41,61.11 26.41,61.02 26.32,61.02 26.32,60.93 26.23,60.93 26.23,60.84 26.14,60.84 26.14,60.75 26.04,60.75 
	25.95,60.75 25.86,60.75 25.86,60.65 25.77,60.65 25.77,60.75 25.77,60.65 25.68,60.75 25.58,60.75 25.58,60.65 25.58,60.56 
	25.58,60.47 25.49,60.47 25.4,60.47 25.4,60.38 25.31,60.38 25.31,60.29 25.22,60.29 25.22,60.2 25.12,60.2 25.22,60.2 25.22,60.1 
	25.12,60.1 25.12,60.2 25.12,60.1 25.03,60.1 24.94,60.1 24.85,60.1 24.76,60.1 24.76,60.01 24.67,60.01 24.57,59.92 24.57,59.83 
	24.48,59.83 24.48,59.74 24.3,59.74 24.21,59.64 24.11,59.64 24.02,59.55 23.93,59.55 23.84,59.46 23.75,59.37 23.66,59.37 
	23.56,59.28 23.47,59.28 23.38,59.28 23.29,59.19 23.1,59.19 23.01,59.19 22.83,59.19 22.74,59.09 22.64,59.09 22.55,59 
	21.63,58.73 21.45,58.73 20.9,58.54 20.07,58.27 19.98,58.17 19.89,58.17 19.8,58.17 19.71,58.17 19.61,58.17 19.52,58.17 
	19.43,58.17 19.43,58.27 19.34,58.36 19.25,58.36 19.15,58.36 19.06,58.36 18.97,58.27 18.97,58.36 18.88,58.36 18.79,58.36 
	18.79,58.45 18.69,58.45 18.69,58.36 18.6,58.36 18.51,58.36 18.6,58.36 18.69,58.36 18.69,58.27 18.6,58.27 18.6,58.17 
	18.69,58.17 18.79,58.17 18.88,58.08 18.88,57.99 18.79,57.99 18.88,57.99 18.88,57.9 18.88,57.99 18.88,57.9 18.97,57.9 
	18.88,57.9 18.97,57.9 18.97,57.99 19.06,57.99 19.06,57.9 19.15,57.9 19.06,57.9 19.06,57.81 19.15,57.81 19.15,57.72 19.15,57.62 
	19.52,55.97 19.71,54.96 19.71,54.87 19.61,54.78 19.61,54.68 19.61,54.59 19.61,54.5 19.61,54.41 19.61,54.32 19.61,54.13 
	19.61,54.04 19.61,53.95 19.61,53.86 19.52,53.86 19.43,53.86 19.34,53.77 19.34,53.67 19.34,53.58 19.25,53.49 19.25,53.4 
	19.15,53.31 19.06,53.31 19.06,53.21 19.15,53.21 19.43,52.57 20.53,50.83 21.36,49.36 21.91,48.35 22.28,47.7 22.37,47.52 
	22.46,47.52 22.46,47.61 22.55,47.61 22.55,47.52 22.64,47.52 22.64,47.43 22.74,47.43 22.74,47.34 22.83,47.34 22.92,47.34 
	22.92,47.24 22.92,47.15 22.92,47.06 22.92,46.97 22.83,46.88 22.74,46.78 22.64,46.69 22.46,46.51 22.37,46.51 22.28,46.51 
	22.28,46.6 22.19,46.6 22.28,46.6 22.19,46.6 22.09,46.6 22.09,46.69 22.09,46.78 22,46.78 22,46.88 22,46.97 21.91,46.97 
	21.91,47.06 22,47.06 22,47.15 21.91,47.15 21.91,47.24 21.82,47.24 21.82,47.15 21.73,47.24 21.73,47.34 21.63,47.34 21.63,47.43 
	21.54,47.43 21.45,47.43 21.45,47.34 21.36,47.34 21.36,47.24 21.36,47.34 21.27,47.34 21.27,47.24 21.17,47.24 21.17,47.34 
	21.17,47.24 21.08,47.24 21.08,47.34 20.99,47.34 20.81,47.24 20.62,46.97 20.44,46.78 20.35,46.51 20.26,46.14 20.16,45.77 
	20.07,45.68 19.98,45.68 19.89,45.59 19.8,45.59 19.8,45.5 19.71,45.41 19.71,45.32 19.61,45.32 19.52,45.22 19.52,45.13 
	19.43,45.04 19.34,44.95 19.34,44.86 19.34,44.76 19.34,44.58 19.34,44.49 19.25,44.3 19.25,44.21 19.25,44.12 19.34,44.03 
	19.34,43.94 19.43,43.94 19.43,43.85 19.43,43.66 19.43,43.57 19.34,43.48 19.34,43.39 19.25,43.39 19.25,43.29 19.25,43.2 
	19.25,43.29 19.34,43.29 19.43,43.29 19.43,43.2 19.52,43.2 19.52,43.11 19.61,43.02 19.71,43.02 19.8,43.02 20.07,42.93 
	20.26,42.83 20.35,42.83 20.44,42.74 20.44,42.65 20.53,42.47 20.62,42.19 20.81,42.01 20.81,41.92 20.81,41.82 20.81,41.73 
	20.9,41.55 20.99,41.55 20.99,41.46 21.08,41.46 21.27,41.37 21.45,41.37 21.63,41.27 21.63,41.18 21.73,41.18 21.73,41.09 
	21.82,41 21.82,40.91 21.82,40.81 21.91,40.81 21.91,40.72 22,40.72 22,40.63 22,40.54 22.09,40.45 22.19,40.35 22.19,40.17 
	22.28,40.08 22.28,39.9 22.19,39.8 22.19,39.71 22.19,39.62 22.19,39.53 22.09,39.53 22.09,39.44 22.09,39.34 22.19,39.25 
	22.19,39.16 22.09,39.07 22.09,38.98 22.09,38.89 22.09,38.79 22.09,38.7 22.09,38.61 22.19,38.52 22.28,38.43 22.28,38.33 
	22.37,38.24 22.46,38.24 22.46,38.33 22.46,38.24 22.55,38.24 22.64,38.24 22.64,38.15 22.74,38.15 22.74,38.06 22.83,38.06 
	22.83,38.15 22.92,38.15 23.01,38.15 23.01,38.06 23.1,38.06 23.2,38.06 23.29,38.06 23.38,38.06 23.38,38.15 23.47,38.15 
	23.56,38.15 23.66,38.15 23.56,38.15 23.56,38.06 23.66,38.06 23.75,38.06 23.75,38.15 23.75,38.06 23.75,38.15 23.84,38.15 
	23.93,38.15 23.93,38.24 24.02,38.24 24.11,38.15 24.21,38.15 24.3,38.15 24.3,38.06 24.3,37.97 24.39,37.97 24.39,38.06 
	24.39,37.97 24.48,37.87 24.57,37.87 24.67,37.87 24.76,37.87 24.76,37.78 24.85,37.78 24.85,37.69 24.94,37.6 25.03,37.6 
	25.12,37.51 25.12,37.6 25.22,37.6 25.31,37.69 25.4,37.78 25.49,37.78 25.49,37.87 25.58,37.87 25.58,37.78 25.68,37.78 
	25.68,37.69 25.68,37.6 25.68,37.51 25.68,37.42 25.68,37.32 25.68,37.23 25.77,37.14 25.77,37.05 25.86,37.05 25.86,36.96 
	26.04,36.86 26.14,36.77 26.23,36.77 26.23,36.68 26.32,36.59 26.41,36.59 26.5,36.59 26.59,36.59 26.69,36.59 26.78,36.5 
	26.87,36.5 26.96,36.5 27.05,36.5 27.15,36.5 27.24,36.59 27.33,36.59 27.33,36.5 27.24,36.4 27.24,36.31 27.24,36.22 27.24,36.13 
	27.15,36.13 27.05,36.13 26.96,36.13 26.87,36.13 26.87,36.04 26.87,35.95 26.87,35.85 26.87,35.76 26.78,35.67 26.78,35.58 
	26.69,35.49 26.69,35.39 26.69,35.3 26.78,35.3 26.87,35.3 26.96,35.21 27.05,35.21 27.05,35.12 27.15,35.03 27.15,34.94 
	27.24,34.94 27.33,34.94 27.42,34.94 27.51,34.94 27.7,34.84 27.79,34.84 27.88,34.75 27.88,34.66 27.79,34.57 27.79,34.48 
	27.7,34.38 27.7,34.29 27.7,34.2 27.7,34.11 27.79,34.02 27.88,33.92 28.06,33.92 28.16,33.83 28.25,33.83 28.25,33.74 28.34,33.65 
	28.43,33.65 28.52,33.65 28.62,33.65 28.71,33.65 28.71,33.56 28.71,33.47 28.8,33.37 28.8,33.28 28.8,33.19 28.8,33.1 28.8,33.01 
	28.71,32.91 28.71,32.82 28.8,32.73 28.8,32.64 28.89,32.64 29.07,32.55 29.17,32.64 29.26,32.73 29.35,32.73 29.44,32.73 
	29.44,32.64 29.53,32.64 29.53,32.55 29.44,32.55 29.44,32.36 29.44,32.27 29.53,32.27 29.53,32.18 29.53,32.09 29.53,32 
	29.44,31.9 29.35,31.81 29.35,31.72 29.44,31.63 29.53,31.63 29.63,31.63 29.63,31.54 29.72,31.54 29.81,31.44 29.99,31.35 
	29.99,31.26 29.99,31.17 29.99,31.08 29.99,30.99 29.9,30.99 29.9,30.89 29.9,30.8 29.9,30.71 29.81,30.71 29.81,30.62 29.72,30.62 
	29.72,30.53 29.63,30.53 29.63,30.34 29.63,30.25 29.63,30.16 29.63,30.07 29.63,29.98 29.63,29.88 29.63,29.79 29.53,29.7 
	29.44,29.7 29.35,29.7 29.35,29.61 29.44,29.52 29.53,29.42 29.53,29.33 29.44,29.24 29.44,29.15 29.44,29.06 29.44,28.96 
	29.35,28.96 29.35,28.87 29.44,28.87 29.53,28.6 29.63,28.51 29.63,28.32 29.63,28.23 29.63,28.14 29.72,28.14 29.72,28.05 
	29.81,28.05 29.81,27.95 29.72,27.86 29.81,27.86 29.72,27.77 29.72,27.68 29.81,27.68 29.81,27.59 29.81,27.68 29.9,27.68 
	29.99,27.68 30.09,27.68 30.09,27.59 30.18,27.59 30.27,27.49 30.27,27.4 30.27,27.31 30.18,27.22 30.18,27.13 30.09,27.04 
	30.09,26.94 30.09,26.85 30.09,26.67 30.09,26.58 30.09,26.48 30.09,26.39 30.18,26.3 30.27,26.21 30.36,25.93 30.45,25.93 
	30.45,25.84 30.54,25.84 30.64,25.84 30.73,25.75 30.82,25.75 30.91,25.66 30.91,25.57 31,25.57 31.1,25.47 31.19,25.47 
	31.19,25.38 31.19,25.29 31.28,25.29 31.28,25.2 31.37,25.11 31.37,25.01 31.37,24.92 31.46,24.92 31.46,24.83 31.56,24.83 
	31.65,24.83 31.65,24.74 31.74,24.74 31.83,24.74 31.83,24.83 31.92,24.83 32.01,24.83 32.11,24.83 32.2,24.83 32.2,24.92 
	32.29,24.83 32.29,24.74 32.38,24.65 32.38,24.74 32.47,24.74 32.47,24.83 32.57,24.83 32.57,24.74 32.66,24.74 32.75,24.74 
	32.84,24.74 32.93,24.74 32.93,24.83 33.02,24.92 33.12,24.92 33.21,24.92 33.3,24.92 33.39,24.92 33.39,24.83 33.48,24.83 
	33.48,24.74 33.48,24.65 33.48,24.56 33.58,24.56 33.58,24.46 33.67,24.37 33.67,24.28 33.67,24.19 33.76,24.19 33.76,24.1 
	33.85,24.1 33.94,24.1 34.04,24.1 34.13,24.1 34.22,24.1 34.22,24 34.13,24 34.13,23.91 34.13,23.82 34.04,23.82 33.94,23.82 
	33.76,23.82 33.67,23.91 33.58,23.91 33.58,23.82 33.58,23.73 33.67,23.73 33.76,23.73 33.76,23.64 33.85,23.55 33.85,23.45 
	33.76,23.45 33.76,23.36 33.85,23.36 33.76,23.36 33.76,23.27 33.67,23.27 33.58,23.27 33.48,23.27 33.48,23.18 33.39,23.09 
	33.3,22.99 33.3,22.9 33.21,22.81 33.21,22.72 33.21,22.63 33.21,22.53 33.21,22.44 33.3,22.44 33.39,22.44 33.48,22.44 
	33.48,22.53 33.58,22.53 33.67,22.53 33.67,22.44 33.67,22.35 33.67,22.26 33.67,22.17 33.58,22.08 33.48,21.98 33.39,21.98 
	33.3,21.98 33.21,21.89 33.21,21.8 33.12,21.8 33.02,21.8 32.84,21.71 32.84,21.62 32.84,21.43 32.84,21.34 32.84,21.25 
	32.84,21.16 32.93,21.16 32.93,21.06 33.12,20.97 33.12,20.88 33.12,20.79 33.12,20.7 33.21,20.7 33.21,20.61 33.21,20.51 
	33.12,20.51 33.12,20.42 33.12,20.33 33.12,20.24 33.02,20.24 33.02,20.15 33.02,20.05 33.02,19.96 32.93,19.96 32.84,19.96 
	32.75,19.96 32.66,19.87 32.57,19.87 32.47,19.87 32.38,19.87 32.29,19.96 32.11,19.96 32.11,19.87 32.01,19.87 32.01,19.78 
	31.92,19.69 31.92,19.5 31.83,19.41 31.83,19.23 31.83,19.14 31.83,19.04 31.92,19.04 32.01,19.14 32.11,19.14 32.2,19.14 
	32.2,19.04 32.2,18.95 32.2,18.86 32.29,18.86 32.29,18.77 32.38,18.68 32.29,18.58 32.29,18.49 32.29,18.4 32.29,18.31 
	32.29,18.22 32.29,18.13 32.29,18.03 32.2,17.94 32.2,17.85 32.2,17.76 32.2,17.67 32.2,17.76 32.29,17.85 32.38,17.85 32.38,17.94 
	32.47,17.94 32.57,17.94 32.66,18.03 32.75,18.03 32.84,18.13 32.84,18.22 32.93,18.22 33.02,18.22 33.12,18.22 33.21,18.22 
	33.3,18.22 33.39,18.13 33.48,18.13 33.58,18.13 33.67,18.13 33.76,18.13 33.85,18.13 33.85,18.03 33.94,18.03 34.04,18.03 
	34.13,18.03 34.22,18.03 34.31,18.03 34.31,18.13 34.4,18.13 34.4,18.22 34.49,18.22 34.59,18.22 34.59,18.13 34.68,18.13 
	34.77,18.13 34.77,18.03 34.86,17.94 34.86,17.85 34.86,17.76 34.95,17.76 34.95,17.67 34.86,17.67 34.77,17.67 34.77,17.57 
	34.77,17.48 34.86,17.48 34.95,17.48 34.95,17.39 34.95,17.3 35.05,17.3 35.05,17.21 34.95,17.21 34.86,17.21 34.86,17.12 
	34.86,17.02 34.95,17.02 34.95,16.93 35.05,16.93 35.05,16.84 34.95,16.84 34.86,16.84 34.86,16.75 34.95,16.75 34.95,16.66 
	34.86,16.66 34.77,16.66 34.77,16.56 34.77,16.47 34.86,16.47 34.77,16.47 34.77,16.38 34.86,16.38 34.95,16.38 35.05,16.38 
	35.05,16.29 35.14,16.29 35.14,16.2 35.14,16.1 35.23,16.1 35.23,16.2 35.32,16.2 35.32,16.29 35.41,16.2 35.41,16.1 35.5,16.1 
	35.6,16.1 35.69,16.2 35.69,16.38 35.69,16.47 35.69,16.38 35.78,16.38 35.87,16.38 35.87,16.29 35.78,16.29 35.78,16.2 35.87,16.2 
	35.96,16.29 36.06,16.29 36.06,16.2 35.96,16.2 35.96,16.1 36.06,16.1 36.15,16.1 36.15,16.01 36.15,15.92 36.24,15.92 36.15,15.92 
	36.15,15.83 36.15,15.74 36.06,15.74 36.06,15.65 36.06,15.74 35.96,15.74 35.87,15.65 35.78,15.65 35.78,15.55 35.78,15.46 
	35.87,15.46 35.87,15.55 35.96,15.55 36.06,15.55 36.06,15.46 36.15,15.46 36.15,15.37 36.24,15.37 36.24,15.28 36.15,15.28 
	36.15,15.19 36.15,15.09 36.24,15.09 36.33,15.09 36.42,15.09 36.52,15.09 36.61,15 36.7,14.91 36.7,14.82 36.79,14.82 36.88,14.82 
	36.97,14.82 37.07,14.82 37.16,14.73 37.25,14.73 37.34,14.73 37.43,14.73 37.53,14.73 37.62,14.64 37.62,14.54 37.62,14.45 
	37.71,14.45 37.71,14.54 37.71,14.64 37.8,14.64 37.8,14.54 37.8,14.45 37.8,14.36 37.89,14.27 37.89,14.18 37.99,14.08 
	38.17,14.08 38.26,14.08 38.26,13.99 38.35,13.9 38.44,13.9 38.44,13.81 38.54,13.72 38.54,13.62 38.54,13.53 38.63,13.44 
	38.63,13.35 38.54,13.35 38.54,13.26 38.63,13.17 38.63,13.07 38.72,12.98 38.72,12.89 38.72,12.8 38.72,12.71 38.81,12.71 
	38.81,12.61 38.9,12.52 39,12.52 39.09,12.43 39.18,12.34 39.27,12.25 39.36,12.15 39.45,12.06 39.64,11.97 39.73,11.97 
	39.82,11.97 39.91,12.06 40.01,12.06 40.1,12.15 40.19,12.15 40.28,12.15 40.37,12.15 40.47,12.15 40.56,12.15 40.65,12.25 
	40.74,12.15 40.83,12.15 40.92,12.15 41.02,12.15 41.11,12.25 41.2,12.25 41.2,12.34 41.29,12.34 41.38,12.34 41.48,12.34 
	41.57,12.34 41.57,12.25 41.66,12.25 41.75,12.25 41.84,12.25 41.94,12.25 42.03,12.25 42.12,12.15 42.21,12.15 42.3,12.06 
	42.39,11.97 42.49,11.97 42.58,11.97 42.58,11.88 42.58,11.7 42.58,11.6 42.67,11.51 42.76,11.42 42.76,11.33 42.76,11.24 
	42.76,11.14 42.76,11.05 42.76,10.96 42.85,10.96 42.85,10.87 42.85,10.78 42.95,10.78 42.95,10.69 43.04,10.69 43.04,10.59 
	43.13,10.59 43.13,10.5 43.04,10.41 43.04,10.32 43.13,10.23 43.13,10.13 43.13,10.04 43.13,9.95 43.13,9.86 43.13,9.77 43.04,9.77 
	43.04,9.58 43.04,9.49 43.04,9.4 43.04,9.31 43.04,9.22 43.04,9.12 43.04,9.03 43.04,8.94 43.04,8.85 43.04,8.76 43.04,8.66 
	43.04,8.57 43.04,8.48 43.04,8.39 42.95,8.3 42.95,8.21 42.95,8.11 42.95,8.02 42.95,7.93 42.95,7.84 42.95,7.75 42.95,7.65 
	42.95,7.47 42.95,7.38 42.95,7.29 42.85,7.29 42.85,7.19 42.95,7.19 42.95,7.1 42.95,7.01 42.95,7.1 42.85,7.1 42.85,7.01 
	42.76,6.92 42.85,6.83 42.95,6.83 42.95,6.92 42.95,6.83 42.85,6.83 42.76,6.83 42.76,6.74 42.76,6.64 42.85,6.55 42.95,6.55 
	42.95,6.46 42.85,6.46 42.85,6.37 42.95,6.37 42.95,6.18 42.95,6.09 43.04,6.09 43.04,5.91 43.13,5.91 43.13,5.82 43.22,5.73 
	43.31,5.63 43.4,5.63 43.4,5.54 43.5,5.54 43.68,5.54 43.77,5.54 43.86,5.45 43.96,5.45 44.05,5.45 44.05,5.36 44.14,5.27 
	44.23,5.17 44.32,5.17 44.51,5.17 44.6,5.17 44.69,5.17 44.78,5.17 44.87,5.17 45.7,4.9 45.79,4.81 45.79,4.71 45.79,4.62 
	45.79,4.53 45.79,4.44 45.79,4.35 45.79,4.26 45.89,4.16 45.98,4.07 45.98,3.98 46.53,3.24 46.71,2.79 46.99,2.33 47.26,2.05 
	47.26,1.78 47.26,1.68 47.26,1.59 47.35,1.5 47.45,1.32 47.35,1.04 47.17,0.86 47.17,0.49 47.35,0.31 48,0.12 48.37,-0.15 
	48.55,-0.15 48.73,0.12 48.82,0.12 48.92,0.4 49.01,0.67 49.28,0.95 49.47,1.13 49.65,1.13 49.65,1.22 49.83,1.32 49.93,1.41 
	50.02,1.41 50.11,1.5 50.02,1.59 50.02,1.68 50.11,1.78 50.2,1.87 50.29,1.96 50.39,2.05 50.57,2.14 50.75,2.14 50.85,2.05 
	50.94,1.96 51.03,1.87 51.12,1.78 51.21,1.78 51.3,1.78 51.4,1.87 51.4,1.96 51.4,2.05 51.4,2.23 51.4,2.33 51.4,2.42 51.49,2.42 
	51.67,2.33 51.76,2.23 51.86,2.23 51.95,2.14 52.04,2.05 52.13,1.96 52.22,1.87 52.41,2.05 52.5,2.05 52.68,1.96 52.77,1.96 
	52.87,1.87 52.96,1.87 53.14,1.96 53.14,2.05 53.23,2.14 53.23,2.23 53.33,2.33 53.33,2.42 53.42,2.51 53.51,2.6 53.6,2.6 
	53.6,2.69 53.78,2.97 53.88,2.97 53.97,2.97 54.15,2.97 54.24,2.97 54.34,2.97 54.34,2.79 54.43,2.6 54.52,2.51 54.52,2.42 
	54.52,2.33 54.61,2.23 54.61,2.14 54.8,2.23 54.89,2.33 54.98,2.33 55.16,2.33 55.25,2.33 55.35,2.33 55.44,2.33 55.53,2.33 
	55.71,2.23 55.71,2.14 55.81,2.05 55.99,2.05 56.08,2.05 56.17,2.05 56.27,2.14 56.27,2.23 56.36,2.33 56.54,2.42 56.63,2.42 
	56.72,2.51 56.91,2.51 57,2.51 57.09,2.42 57.09,2.23 57.18,2.14 57.28,2.05 57.37,1.96 57.46,1.96 57.55,1.87 57.73,1.78 
	57.83,1.78 57.92,1.87 58.01,1.96 58.01,2.05 58.19,2.14 58.29,2.23 58.38,2.33 58.47,2.42 58.65,2.42 58.75,2.42 58.84,2.51 
	58.93,2.51 58.93,2.69 59.02,2.79 59.11,2.88 59.2,2.88 59.3,2.88 59.39,2.88 59.48,2.88 59.57,2.88 59.66,2.79 59.76,2.69 
	59.85,2.6 59.85,2.51 59.94,2.42 59.94,2.33 60.03,2.33 60.12,2.33 60.21,2.14 60.31,2.14 60.49,2.14 60.58,2.14 60.67,2.14 
	60.67,1.96 60.58,1.96 60.58,1.78 60.67,1.78 60.67,1.68 60.77,1.68 60.86,1.59 60.95,1.68 61.04,1.68 61.13,1.68 61.13,1.78 
	61.23,1.78 61.32,1.68 61.32,1.78 61.41,1.87 61.5,1.96 61.59,2.05 61.68,2.14 61.68,2.33 61.68,2.42 61.68,2.51 61.68,2.6 
	61.78,2.79 61.87,2.88 61.96,2.79 62.05,2.69 62.14,2.6 62.24,2.6 62.14,2.6 62.24,2.6 62.24,2.69 62.33,2.69 62.42,2.79 
	62.51,2.79 62.51,2.88 62.6,2.97 62.7,2.97 62.79,2.97 62.88,3.06 62.88,3.15 62.97,3.15 63.06,3.24 63.06,3.34 63.15,3.34 
	63.15,3.43 63.25,3.43 63.25,3.52 63.25,3.61 63.25,3.7 63.34,3.7 63.34,3.61 63.43,3.61 63.52,3.7 63.61,3.7 63.61,3.8 63.71,3.8 
	63.8,3.8 63.89,3.8 63.98,3.8 63.98,3.7 63.89,3.7 63.89,3.61 63.98,3.61 63.98,3.7 64.07,3.8 64.16,3.8 64.26,3.8 64.35,3.8 
	64.44,3.89 64.44,3.98 64.44,4.07 64.53,4.16 64.53,4.26 64.53,4.35 64.44,4.35 64.44,4.44 64.35,4.44 64.35,4.53 64.35,4.62 
	64.44,4.62 64.53,4.71 64.62,4.81 64.62,4.9 64.62,4.99 64.62,5.08 64.62,5.27 64.62,5.36 64.53,5.36 64.53,5.45 64.62,5.45 
	64.62,5.54 64.72,5.54 64.81,5.63 64.9,5.63 64.9,5.73 64.99,5.73 64.99,5.82 65.08,5.82 65.08,5.91 65.08,6 65.08,6.09 65.08,6.18 
	65.18,6.18 65.18,6.28 65.18,6.37 65.18,6.46 65.18,6.55 65.27,6.55 65.27,6.64 65.27,6.74 65.36,6.83 65.45,6.92 65.45,7.01 
	65.54,7.01 65.63,6.92 65.73,7.01 65.82,7.01 65.91,7.01 66,7.01 66,7.1 66.09,7.19 66.09,7.29 66.19,7.38 66.28,7.47 66.37,7.47 
	66.46,7.47 66.55,7.47 66.65,7.47 66.65,7.56 66.74,7.56 66.74,7.47 66.83,7.47 66.92,7.38 67.01,7.38 67.1,7.38 67.1,7.29 
	67.1,7.19 67.1,7.1 67.2,7.1 67.2,7.01 67.29,7.01 67.29,6.92 67.29,6.83 67.38,6.83 67.47,6.83 67.47,6.92 67.56,6.92 67.66,6.92 
	67.75,6.83 67.84,6.83 67.84,6.74 67.84,6.64 67.93,6.64 68.02,6.64 68.11,6.64 68.21,6.74 68.3,6.74 68.39,6.74 68.39,6.64 
	68.48,6.55 68.57,6.46 68.67,6.37 68.67,6.28 68.67,6.18 68.67,6.09 68.76,6.09 68.76,6 68.76,5.91 68.85,5.82 68.85,5.73 
	68.76,5.73 68.76,5.63 68.76,5.54 68.76,5.45 68.85,5.36 68.85,5.27 68.94,5.27 69.03,5.27 69.03,5.17 69.03,5.08 69.13,4.9 
	69.22,4.81 69.22,4.71 69.22,4.62 69.31,4.62 69.31,4.53 69.4,4.53 69.4,4.44 69.4,4.35 69.4,4.26 69.4,4.16 69.49,4.16 69.49,4.26 
	69.58,4.35 69.68,4.35 69.77,4.35 69.86,4.35 69.86,4.26 69.86,4.16 69.86,4.26 69.95,4.26 70.04,4.35 70.14,4.44 70.23,4.53 
	70.32,4.53 70.32,4.44 70.41,4.44 70.5,4.35 70.5,4.44 70.5,4.53 70.41,4.53 70.41,4.62 70.32,4.62 70.32,4.71 70.32,4.81 
	70.32,4.9 70.32,4.99 70.32,5.08 70.41,5.17 70.41,5.27 70.41,5.36 70.5,5.36 70.5,5.45 70.5,5.54 70.5,5.63 70.6,5.73 70.69,5.73 
	70.69,5.82 70.69,5.91 70.78,5.91 70.78,6 70.87,6.09 70.78,6.09 70.78,6.18 70.78,6.28 70.78,6.37 70.87,6.37 70.87,6.46 
	70.96,6.55 70.96,6.64 70.96,6.74 71.05,6.83 71.15,6.92 71.24,7.01 71.24,7.1 71.33,7.1 71.33,7.19 71.42,7.19 71.42,7.29 
	71.51,7.29 71.51,7.38 71.51,7.47 71.51,7.56 71.51,7.65 71.61,7.65 71.7,7.75 71.79,7.75 71.79,7.84 71.88,7.84 71.88,7.93 
	71.88,8.02 71.88,8.11 71.79,8.21 71.79,8.3 71.79,8.39 71.79,8.48 71.7,8.48 71.7,8.57 71.61,8.57 71.61,8.66 71.7,8.66 
	71.79,8.66 71.79,8.76 71.79,8.85 71.88,8.85 71.88,8.94 71.88,9.03 71.88,9.12 71.88,9.22 71.97,9.31 71.97,9.4 71.97,9.49 
	72.06,9.49 72.06,9.58 72.16,9.58 72.25,9.58 72.25,9.67 72.34,9.77 72.34,9.86 72.34,9.95 72.43,9.95 72.52,9.95 72.62,9.95 
	72.71,9.95 72.8,9.95 72.8,10.04 72.71,10.04 72.62,10.04 72.62,10.13 72.52,10.23 72.52,10.32 72.52,10.41 72.62,10.41 72.62,10.5 
	72.62,10.59 72.71,10.69 72.8,10.69 72.8,10.78 72.71,10.78 72.62,10.78 72.62,10.69 72.52,10.69 72.43,10.69 72.43,10.78 
	72.43,10.87 72.52,10.87 72.43,10.87 72.43,10.96 72.43,11.05 72.34,11.05 72.34,11.14 72.34,11.24 72.25,11.33 72.34,11.42 
	72.34,11.51 72.34,11.6 72.43,11.7 72.43,11.79 72.43,11.88 72.34,11.88 72.34,11.97 72.34,12.06 72.25,12.06 72.25,12.15 
	72.25,12.25 72.25,12.34 72.16,12.43 72.16,12.52 72.16,12.61 72.16,12.71 72.06,12.71 72.06,12.8 72.16,12.89 72.25,12.89 
	72.25,12.98 72.34,12.98 72.34,13.07 72.34,13.26 72.34,13.35 72.25,13.35 72.16,13.35 72.16,13.44 72.16,13.53 72.25,13.53 
	72.34,13.53 72.34,13.62 72.25,13.62 72.16,13.62 72.06,13.62 72.06,13.72 72.16,13.81 72.16,13.9 72.16,13.99 72.16,14.08 
	72.16,14.18 72.25,14.18 72.25,14.27 72.34,14.27 72.34,14.18 72.43,14.18 72.52,14.18 72.62,14.18 72.62,14.27 72.52,14.27 
	72.52,14.36 72.43,14.36 72.43,14.45 72.43,14.54 72.43,14.64 72.43,14.73 72.52,14.82 72.62,14.91 72.62,14.82 72.62,14.73 
	72.71,14.73 72.71,14.64 72.71,14.73 72.71,14.82 72.71,14.91 72.8,14.91 72.71,15 72.71,15.09 72.8,15.19 72.8,15.28 72.89,15.28 
	72.89,15.37 72.98,15.37 73.08,15.37 73.08,15.46 73.17,15.46 73.26,15.55 73.26,15.65 73.17,15.65 73.17,15.74 73.26,15.74 
	73.35,15.74 73.44,15.74 73.53,15.65 73.63,15.74 73.53,15.83 73.53,15.92 73.63,15.92 73.72,16.01 73.72,16.1 73.81,16.1 
	73.9,16.2 74.09,16.38 74.18,16.38 74.18,16.47 74.27,16.47 74.27,16.56 74.27,16.66 74.18,16.75 74.18,16.84 74.27,16.84 
	74.36,16.84 74.36,16.93 74.27,17.02 74.27,17.12 74.27,17.21 74.27,17.3 74.18,17.21 74.09,17.21 73.99,17.12 73.81,17.12 
	73.81,17.02 73.72,17.02 73.63,16.93 73.44,16.84 73.35,16.84 73.26,16.84 73.17,16.84 73.08,16.93 72.98,16.93 72.89,17.02 
	72.89,17.12 72.8,17.21 72.71,17.3 72.62,17.39 72.62,17.48 72.8,17.57 72.89,17.57 72.98,17.67 73.08,17.76 73.17,17.85 
	73.26,17.94 73.35,18.03 73.44,18.13 73.53,18.13 73.53,18.22 73.63,18.31 73.63,18.4 73.72,18.49 73.72,18.58 73.81,18.68 
	73.81,18.86 73.9,18.95 73.99,19.04 74.09,19.14 74.09,19.23 74.18,19.41 74.27,19.5 74.36,19.5 74.45,19.6 74.54,19.69 
	74.64,19.69 74.73,19.69 74.82,19.69 75,19.69 75.1,19.69 75.19,19.69 75.28,19.6 75.37,19.6 75.56,19.6 75.65,19.6 75.74,19.6 
	75.83,19.6 75.92,19.6 76.01,19.6 76.2,19.6 76.29,19.6 76.38,19.6 76.47,19.6 76.57,19.6 76.66,19.6 76.66,19.5 76.75,19.41 
	76.84,19.41 76.93,19.41 77.03,19.41 77.12,19.41 77.21,19.41 77.3,19.32 77.39,19.32 77.48,19.32 77.67,19.23 77.76,19.23 
	77.76,19.14 "/>
</svg>
