<?xml version="1.0" encoding="utf-8"?>
<!-- Generator: Adobe Illustrator 24.2.1, SVG Export Plug-In . SVG Version: 6.00 Build 0)  -->
<svg version="1.1" id="Layer_1" xmlns="http://www.w3.org/2000/svg" xmlns:xlink="http://www.w3.org/1999/xlink" x="0px" y="0px"
	 viewBox="0 0 97.23 97.23" style="enable-background:new 0 0 97.23 97.23;" xml:space="preserve">
<style type="text/css">
	.st0{fill-rule:evenodd;clip-rule:evenodd;fill:#1D1D1B;}
</style>
<polygon class="st0" points="72.94,9.54 73.11,9.54 73.11,9.71 72.94,9.71 72.94,9.88 72.94,10.21 72.94,10.38 72.94,10.55 
	72.77,10.55 72.77,10.72 72.77,10.89 72.77,11.06 72.77,11.23 72.77,11.4 72.77,11.57 72.77,11.91 72.77,12.08 72.77,12.25 
	72.77,12.42 72.77,12.59 72.77,12.76 72.77,12.93 72.94,13.44 72.94,13.61 73.11,14.79 73.11,15.3 73.11,15.47 73.27,15.98 
	73.27,16.49 73.27,16.66 73.27,16.83 73.27,17 73.27,17.17 73.27,17.51 73.44,17.68 73.61,17.68 73.78,17.68 73.95,17.68 
	74.12,17.68 74.29,17.68 74.29,17.51 74.46,17.34 74.63,17.34 74.63,17.17 74.8,17.17 74.97,17.17 74.97,17.34 74.97,17.17 
	75.14,17.17 75.14,17.34 75.31,17.34 75.48,17.34 75.31,17.34 75.31,17.51 75.48,17.51 75.48,17.34 75.65,17.34 75.65,17.51 
	75.65,17.68 75.82,17.68 75.82,17.51 75.82,17.34 75.82,17.17 75.82,17 75.82,16.83 75.65,16.83 75.65,16.66 75.65,16.49 
	75.48,16.49 75.65,16.32 75.82,16.32 75.82,16.15 75.99,16.32 75.99,16.15 75.99,15.98 76.16,15.98 76.33,15.98 76.33,15.81 
	76.5,15.81 76.5,15.98 76.67,15.81 76.67,15.64 76.67,15.47 76.84,15.47 76.84,15.3 76.67,15.3 76.67,15.13 76.67,14.96 
	76.84,14.96 77.01,14.79 77.01,14.62 76.84,14.62 76.84,14.45 76.84,14.28 76.67,14.28 76.67,14.11 76.84,13.95 77.01,13.95 
	77.17,13.95 77.34,13.95 77.51,13.95 77.68,13.95 77.85,13.95 78.02,13.95 78.02,14.11 78.19,14.11 78.19,13.95 78.19,14.11 
	78.36,14.11 78.36,14.28 78.53,14.11 78.7,14.11 78.87,14.11 78.87,13.95 79.04,13.95 79.04,13.78 79.21,13.95 79.38,14.11 
	79.55,14.28 79.72,14.28 79.72,14.11 79.89,14.11 80.23,13.95 80.4,13.95 80.4,13.78 80.57,13.78 80.57,13.61 80.57,13.44 
	80.57,13.27 80.74,13.27 80.74,13.1 80.74,12.93 80.91,12.93 81.08,12.93 81.24,12.76 81.41,12.76 81.58,12.76 81.75,12.76 
	81.92,12.76 82.09,12.76 82.26,12.76 82.26,12.59 82.43,12.59 82.43,12.76 82.43,12.93 82.26,13.44 82.26,13.78 82.26,13.95 
	82.26,14.11 82.09,14.45 81.75,14.96 81.75,15.13 81.58,15.3 81.41,15.47 81.41,15.64 81.41,15.81 81.58,15.81 82.09,15.81 
	82.26,15.98 82.6,16.32 82.77,16.49 82.94,16.83 83.45,17.17 83.62,17.51 83.62,17.68 83.79,17.85 83.79,18.02 83.79,17.85 
	83.96,17.85 83.96,18.02 84.13,18.02 84.3,18.02 84.3,17.85 84.47,17.85 84.64,17.85 84.64,18.02 84.81,18.02 84.98,18.02 
	84.98,18.18 85.15,18.18 85.15,18.35 85.31,18.35 85.48,18.52 85.48,18.69 85.65,18.69 85.65,18.86 85.82,19.03 85.99,19.2 
	86.16,19.37 86.33,19.71 86.5,19.71 86.33,19.88 86.5,19.88 86.67,19.88 86.67,20.05 86.84,20.22 86.84,20.39 86.84,20.56 
	87.01,20.73 87.01,20.9 87.01,21.07 87.01,21.24 87.01,21.41 87.18,21.58 87.18,21.75 87.35,21.92 87.35,22.08 87.52,22.08 
	87.52,22.25 87.52,22.42 87.69,22.42 87.69,22.59 87.86,22.76 88.03,22.76 88.2,23.1 88.37,23.1 88.37,23.27 88.54,23.27 
	88.54,23.44 88.71,23.44 88.71,23.61 88.88,23.61 88.88,23.78 89.05,23.78 89.22,23.78 89.38,23.95 89.55,23.95 89.72,24.12 
	89.89,24.12 90.06,24.12 90.06,24.29 90.23,24.29 90.23,24.46 90.4,24.46 90.57,24.46 90.74,24.63 90.91,24.63 90.91,24.8 
	91.08,24.8 91.25,24.8 91.42,24.8 91.42,24.97 91.59,24.97 91.76,25.14 91.93,25.31 92.1,25.31 92.27,25.31 92.27,25.48 
	92.44,25.48 92.61,25.65 92.78,25.82 92.95,25.99 92.95,26.15 93.12,26.15 93.12,26.32 93.29,26.32 93.29,26.49 93.45,26.49 
	93.45,26.66 93.62,26.66 93.62,26.83 93.79,26.83 93.79,27 93.79,27.17 93.79,27.34 93.79,27.51 93.62,27.85 93.62,28.02 
	93.45,28.19 93.45,28.36 93.45,28.53 93.45,28.7 93.45,28.87 93.29,28.87 93.29,29.04 93.29,29.21 93.29,29.38 93.29,29.55 
	93.29,29.72 93.29,29.89 93.29,30.05 93.29,30.22 93.29,30.39 93.29,30.73 93.29,30.9 93.29,31.07 93.29,31.24 93.29,31.41 
	93.29,31.58 93.29,31.75 93.29,31.92 93.29,32.09 93.29,32.26 93.29,32.43 93.29,32.6 93.29,32.77 93.29,32.94 93.29,33.11 
	93.29,33.28 93.29,33.45 93.45,33.45 93.45,33.62 93.29,33.62 93.45,33.62 93.45,33.96 93.62,33.96 93.62,34.12 93.62,34.29 
	93.79,34.46 93.96,34.63 93.96,34.8 94.13,34.8 94.3,34.97 94.3,35.14 94.47,35.14 94.47,35.31 94.64,35.31 94.81,35.48 
	94.98,35.82 94.98,35.99 95.15,35.99 95.32,35.99 95.49,35.99 95.66,36.16 95.83,36.16 95.83,36.33 96,36.33 96.17,36.33 
	96.34,36.33 96.51,36.33 96.68,36.33 96.68,36.5 96.51,36.5 96.68,36.5 96.85,36.5 96.85,36.67 96.85,36.84 96.68,36.84 
	96.68,37.01 96.68,37.18 96.51,37.18 96.51,37.35 96.34,37.35 96.34,37.52 96.17,37.69 96.17,37.86 96.17,38.02 96,38.02 96,38.19 
	96,38.36 95.83,38.36 95.83,38.53 95.66,38.53 95.66,38.7 95.49,38.7 95.49,38.87 95.32,39.04 95.32,39.21 95.15,39.21 95.15,39.38 
	94.98,39.55 94.98,39.72 94.81,39.72 94.81,39.89 94.64,39.89 94.47,40.06 94.47,40.23 94.3,40.4 94.13,40.57 93.96,40.74 
	93.79,40.91 93.79,41.08 93.62,41.08 93.62,41.25 93.45,41.25 93.45,41.42 93.29,41.59 93.12,41.93 93.12,42.09 92.95,42.09 
	92.95,42.26 92.78,42.43 92.78,42.6 92.61,42.6 92.61,42.77 92.44,42.94 92.44,43.11 92.27,43.11 92.27,43.28 92.1,43.45 
	91.93,43.79 91.76,43.96 91.76,44.13 91.59,44.13 91.59,44.3 91.42,44.3 91.42,44.47 91.59,44.47 91.42,44.47 91.42,44.64 
	91.25,44.64 91.25,44.81 91.25,44.98 91.08,44.98 91.08,45.15 91.08,45.32 90.91,45.49 90.91,45.66 90.91,45.83 90.74,45.83 
	90.91,45.83 90.91,46 90.74,46.16 90.74,46.33 90.74,46.5 90.74,46.67 90.57,46.67 90.57,46.84 90.57,47.01 90.4,47.01 90.4,47.18 
	90.4,47.35 90.4,47.52 90.23,47.52 90.23,47.69 90.23,47.86 90.06,48.03 90.06,48.2 89.89,48.37 89.89,48.54 89.89,48.71 
	89.89,48.88 89.89,49.05 89.89,49.22 89.89,49.39 89.72,49.39 89.72,49.56 89.72,49.73 89.72,49.9 89.72,50.06 89.72,50.23 
	89.72,50.4 89.72,50.57 89.72,50.74 89.72,50.91 89.72,51.08 89.72,51.25 89.72,51.42 89.72,51.59 89.72,51.76 89.55,51.76 
	89.55,51.93 89.55,52.1 89.55,52.27 89.55,52.44 89.55,52.61 89.55,52.78 89.38,52.78 89.38,52.95 89.38,53.12 89.38,53.29 
	89.38,53.46 89.22,53.46 89.22,53.63 89.22,53.8 89.05,53.8 89.05,53.97 89.05,54.14 89.05,54.3 88.88,54.3 88.88,54.47 
	88.88,54.64 88.71,54.64 88.71,54.81 88.71,54.98 88.71,55.15 88.54,55.15 88.54,55.49 88.37,55.49 88.37,55.66 88.37,55.83 
	88.37,56 88.37,56.17 88.2,56.34 88.03,56.51 88.03,56.68 87.86,56.68 87.86,56.85 87.69,57.02 87.52,57.19 87.52,57.36 
	87.52,57.53 87.35,57.53 87.35,57.7 87.35,57.87 87.18,57.87 87.18,58.03 87.18,58.2 87.01,58.2 87.01,58.37 87.01,58.54 
	86.84,58.71 86.84,58.88 86.67,59.05 86.67,59.22 86.67,59.39 86.5,59.39 86.5,59.56 86.5,59.73 86.67,59.73 86.67,59.9 
	86.84,60.07 87.01,60.07 87.18,60.07 87.18,60.24 87.35,60.24 87.18,60.24 87.01,60.24 87.01,60.07 86.84,60.07 86.67,60.07 
	86.67,59.9 86.5,59.9 86.5,60.07 86.67,60.07 86.67,60.24 86.84,60.24 87.01,60.24 87.18,60.41 87.35,60.41 87.18,60.41 
	87.01,60.41 87.01,60.24 86.84,60.24 86.67,60.24 86.67,60.41 86.5,60.41 86.5,60.58 86.33,60.58 86.5,60.58 86.33,60.58 
	86.33,60.75 86.16,60.75 86.16,60.92 85.99,61.09 85.99,61.26 85.99,61.43 85.82,61.6 85.82,61.77 85.82,61.94 85.65,62.11 
	85.65,62.27 85.65,62.44 85.48,62.44 85.48,62.61 85.48,62.78 85.48,62.95 85.31,62.95 85.31,63.12 85.31,63.29 85.15,63.63 
	85.15,63.8 84.98,63.8 84.98,63.97 84.98,64.14 84.98,64.31 84.81,64.31 84.81,64.48 84.81,64.65 84.81,64.82 84.64,64.82 
	84.64,64.99 84.64,65.16 84.64,65.33 84.64,65.5 84.47,65.5 84.47,65.67 84.47,65.84 84.3,66.01 84.3,66.17 84.3,66.34 84.13,66.68 
	84.13,66.85 84.13,67.02 83.96,67.36 83.96,67.53 83.96,67.7 83.96,67.87 83.96,68.04 83.79,68.21 83.79,68.38 83.79,68.55 
	83.79,68.72 83.79,68.89 83.79,69.23 83.79,69.4 83.79,69.57 83.79,69.74 83.79,69.91 83.79,70.08 83.79,70.24 83.79,70.41 
	83.79,70.58 83.79,70.75 83.79,70.92 83.79,71.09 83.79,71.26 83.79,71.43 83.79,71.77 83.79,72.11 83.79,72.28 83.79,72.45 
	83.62,72.45 83.79,72.45 83.79,72.62 83.62,72.62 83.62,72.79 83.62,72.96 83.62,73.13 83.62,73.3 83.62,73.47 83.45,73.64 
	83.45,73.81 83.45,74.14 83.45,74.31 83.28,74.31 83.28,74.48 83.28,74.65 83.28,74.82 83.28,74.99 83.28,75.16 83.28,75.33 
	83.28,75.5 83.11,75.67 83.11,75.84 83.11,76.18 83.11,76.35 83.11,76.69 83.11,76.86 83.11,77.03 82.94,77.37 82.94,77.54 
	82.94,77.71 82.94,77.88 82.94,78.05 82.94,78.21 82.77,78.21 82.77,78.05 82.6,78.05 82.43,78.05 82.26,78.05 82.09,78.05 
	82.09,78.21 81.92,78.21 81.75,78.21 81.75,78.38 81.58,78.38 81.41,78.38 81.24,78.38 81.08,78.38 80.91,78.55 80.74,78.55 
	80.57,78.55 80.4,78.55 80.23,78.38 80.06,78.38 79.89,78.38 79.89,78.55 79.89,78.72 79.89,78.89 79.72,79.06 79.72,79.23 
	79.55,79.23 79.55,79.06 79.38,79.06 79.21,78.89 79.04,78.89 78.87,78.89 78.87,78.72 78.7,78.72 78.7,78.55 78.7,78.38 
	78.53,78.38 78.36,78.38 78.19,78.21 78.02,78.05 78.02,77.88 77.85,77.88 77.85,78.05 77.85,78.21 77.68,78.21 77.51,78.38 
	77.34,78.55 77.34,78.72 77.17,78.72 77.01,78.72 76.84,78.72 76.67,78.89 76.67,79.06 76.5,79.06 76.5,79.23 76.33,79.23 
	76.16,79.23 76.16,79.4 75.99,79.4 75.99,79.57 75.82,79.57 75.82,79.4 75.65,79.23 75.48,79.06 75.31,79.06 75.31,78.89 
	75.14,78.89 74.97,78.89 74.8,78.89 74.63,78.89 74.46,78.89 74.12,78.89 73.95,78.89 73.78,79.06 73.61,79.06 73.44,79.06 
	73.11,79.06 72.77,79.23 72.6,79.23 72.43,79.23 72.26,79.23 72.09,79.23 71.92,79.23 71.92,79.06 71.75,79.06 71.58,79.06 
	71.41,79.06 71.41,78.89 71.24,78.89 71.07,78.72 70.9,78.72 70.9,78.55 70.73,78.55 70.56,78.38 70.39,78.55 70.22,78.55 
	70.05,78.55 69.88,78.72 69.71,78.72 69.71,78.89 69.54,78.89 69.37,79.06 69.2,79.06 69.2,79.23 69.03,79.23 68.87,79.4 
	68.7,79.57 68.53,79.57 68.36,79.74 68.19,79.91 68.02,79.91 67.85,80.08 67.68,80.25 67.51,80.42 67.34,80.42 67.17,80.59 
	67,80.76 66.83,80.93 66.66,80.93 66.49,80.93 66.49,81.1 66.32,81.1 66.15,81.27 65.98,81.44 65.81,81.61 65.64,81.78 65.47,81.95 
	65.13,82.12 65.13,82.28 64.97,82.28 64.97,82.45 64.8,82.45 64.63,82.45 64.46,82.45 64.46,82.62 64.46,82.79 64.46,82.96 
	64.46,83.13 64.29,83.13 64.12,83.13 63.95,83.13 63.78,83.13 63.61,83.13 63.61,82.96 63.61,82.79 63.44,82.62 63.44,82.45 
	63.44,82.12 63.27,81.78 63.27,81.44 63.27,81.1 63.27,80.93 63.27,80.76 63.27,80.42 63.27,80.25 63.27,80.08 63.27,79.91 
	63.27,79.57 63.27,79.23 63.27,78.89 63.27,78.72 63.27,78.55 63.44,78.38 63.27,78.38 63.1,78.38 63.1,78.55 62.93,78.55 
	62.76,78.72 62.59,78.72 62.42,78.72 62.25,78.89 62.08,78.89 62.08,79.06 61.74,79.23 61.74,78.89 61.74,78.38 61.57,77.88 
	60.9,77.54 60.39,77.54 59.88,77.2 59.88,76.69 59.54,76.52 58.86,76.35 58.18,76.35 57.67,76.52 57.16,76.52 56.83,76.69 
	56.32,76.86 55.64,76.86 54.79,77.03 54.11,77.54 53.77,77.71 53.6,77.71 53.43,77.88 53.26,77.88 52.92,77.88 52.42,77.71 
	52.08,77.37 51.57,77.37 51.4,77.03 51.23,76.69 51.06,76.35 51.06,76.52 50.72,76.52 50.38,76.52 50.21,76.52 50.38,76.86 
	50.38,77.2 50.04,77.54 49.7,78.05 49.87,78.38 49.87,79.06 49.7,79.57 49.7,79.91 49.7,80.42 50.04,80.59 50.55,81.1 50.72,81.1 
	50.89,81.27 51.06,81.44 51.23,81.61 51.23,81.78 51.23,81.95 51.23,82.12 51.06,82.28 51.06,82.45 50.89,82.62 50.72,82.79 
	50.72,82.96 50.72,83.13 50.72,83.3 50.72,83.47 50.72,83.64 50.72,83.81 50.89,83.81 50.72,83.98 50.72,84.32 50.55,84.49 
	50.55,84.83 50.55,85 50.55,85.17 50.55,85.34 50.55,85.51 50.55,85.68 50.72,85.85 50.72,86.02 50.72,86.18 50.55,86.18 
	50.55,86.35 50.38,86.35 50.21,86.52 50.21,86.69 50.21,87.03 50.38,87.2 50.38,87.37 50.21,87.37 50.04,87.37 49.87,87.37 
	49.7,87.37 49.53,87.37 49.36,87.37 49.19,87.37 49.19,87.2 49.02,87.2 48.85,87.2 48.69,87.2 48.35,87.03 48.18,86.86 48.01,86.86 
	48.01,86.69 47.84,86.69 47.67,86.69 47.67,86.52 47.67,86.35 47.5,86.35 47.5,86.18 47.5,86.02 47.33,85.85 47.16,85.68 
	47.16,85.51 47.16,85.34 46.99,85.17 46.99,85 46.99,84.83 46.99,84.66 46.82,84.32 46.82,84.15 46.65,84.15 46.65,83.98 
	46.48,83.98 46.48,83.81 46.48,83.64 46.31,83.64 46.14,83.64 46.14,83.81 45.97,83.81 45.97,83.98 45.8,83.81 45.63,83.81 
	45.46,83.81 45.29,83.81 45.12,83.81 44.95,83.81 44.78,83.81 44.62,83.81 44.45,83.81 44.28,83.81 44.11,83.81 44.11,83.64 
	43.94,83.64 43.77,83.64 43.6,83.64 43.43,83.64 43.26,83.64 43.09,83.64 42.92,83.64 42.75,83.64 42.58,83.81 42.58,83.98 
	42.58,83.81 42.41,83.81 42.41,83.64 42.24,83.64 42.24,83.47 42.07,83.64 42.07,83.47 41.9,83.47 41.73,83.47 41.56,83.47 
	41.56,83.3 41.39,83.3 41.39,83.13 41.39,82.96 41.39,82.79 41.22,82.79 41.05,82.79 40.88,82.79 40.72,82.79 40.55,82.79 
	40.55,82.62 40.38,82.62 40.21,82.62 40.04,82.45 39.87,82.45 39.7,82.45 39.7,82.28 39.53,82.28 39.36,82.28 39.36,82.12 
	39.19,82.12 39.02,82.12 38.85,82.12 38.68,82.12 38.51,82.28 38.34,82.28 38.34,82.45 38.17,82.45 38,82.62 37.83,82.62 
	37.66,82.62 37.49,82.62 37.32,82.62 37.32,82.79 37.15,82.79 36.98,82.79 36.81,82.79 36.81,82.62 36.65,82.62 36.48,82.62 
	36.31,82.79 36.14,82.79 35.97,82.79 35.8,82.96 35.63,82.96 35.46,82.96 35.29,82.96 35.12,83.13 35.12,83.3 34.95,83.3 
	34.95,83.47 34.78,83.47 34.61,83.64 34.44,83.64 34.27,83.64 34.1,83.64 33.93,83.64 33.76,83.47 33.59,83.47 33.42,83.47 
	33.25,83.47 33.08,83.47 32.91,83.47 32.91,83.3 32.74,83.3 32.74,83.13 32.58,82.96 32.41,82.96 32.41,82.79 32.41,82.62 
	32.24,82.62 32.24,82.45 32.07,82.45 31.9,82.45 31.9,82.28 31.73,82.12 31.56,82.12 31.39,82.12 31.39,81.95 31.39,81.78 
	31.39,81.61 31.22,81.44 31.22,81.27 31.05,81.1 31.05,80.93 30.88,80.76 30.88,80.59 30.71,80.59 30.54,80.42 30.37,80.25 
	30.2,80.08 30.03,80.08 29.86,80.08 29.69,80.25 29.52,80.25 29.35,80.25 29.18,80.25 29.01,80.25 28.84,80.25 28.67,80.25 
	28.51,80.25 28.34,80.25 28.17,80.08 28,80.08 27.83,79.91 27.66,79.91 27.49,79.91 27.32,79.91 27.32,80.08 27.15,80.08 
	26.98,80.08 26.98,79.91 26.98,79.74 26.98,79.57 26.81,79.4 26.64,79.4 26.47,79.4 26.3,79.4 26.13,79.4 25.96,79.4 25.96,79.23 
	25.79,79.23 25.62,79.06 25.62,78.89 25.79,78.72 25.79,78.55 25.79,78.38 25.62,78.21 25.45,78.05 25.28,78.21 25.11,78.21 
	24.94,78.05 24.77,78.05 24.6,77.88 24.6,77.71 24.44,77.71 24.27,77.71 24.1,77.71 23.93,77.71 23.76,77.71 23.59,77.54 
	23.59,77.37 23.59,77.2 23.76,77.03 23.59,76.86 23.59,76.69 23.42,76.52 23.42,76.35 23.25,76.18 23.25,76.01 23.08,76.01 
	23.08,75.84 23.08,75.67 23.08,75.5 22.91,75.5 22.74,75.5 22.74,75.33 22.57,75.33 22.57,75.16 22.4,75.16 22.06,75.16 
	21.89,75.16 21.89,74.99 21.72,74.99 21.55,74.82 21.38,74.82 21.21,74.82 21.04,74.82 20.87,74.82 20.7,74.99 20.54,74.99 
	20.37,74.99 20.2,74.99 20.03,74.82 20.03,74.65 19.86,74.48 19.69,74.48 19.69,74.31 19.52,74.31 19.35,74.31 19.18,74.14 
	19.18,73.98 19.01,73.98 18.84,73.98 18.84,73.81 19.01,73.64 19.01,73.47 19.18,73.3 19.35,73.13 19.35,72.96 19.35,72.79 
	19.18,72.62 19.18,72.45 19.01,72.45 19.01,72.28 18.84,72.11 18.67,71.94 18.5,71.94 18.33,71.94 18.33,71.77 18.33,71.6 
	18.33,71.43 18.33,71.26 18.33,71.09 18.16,70.92 18.16,70.75 18.16,70.58 18.33,70.41 18.33,70.24 18.16,70.24 17.99,70.24 
	17.82,70.24 17.65,70.24 17.48,70.08 17.31,70.08 17.14,70.08 17.14,69.91 17.14,69.74 16.97,69.57 16.8,69.4 16.63,69.4 
	16.46,69.23 16.46,69.06 16.46,68.89 16.3,68.89 16.13,68.89 15.96,69.06 15.96,69.23 15.79,69.23 15.62,69.23 15.45,69.06 
	15.28,69.23 15.11,69.23 15.11,69.4 14.94,69.4 14.77,69.4 14.6,69.57 14.43,69.74 14.26,69.74 14.09,69.91 13.92,69.74 
	13.75,69.74 13.58,69.57 13.58,69.4 13.41,69.23 13.24,69.06 13.24,68.89 13.07,68.72 13.07,68.55 13.07,68.38 12.9,68.38 
	12.9,68.21 12.9,68.04 12.73,67.87 12.73,67.7 12.56,67.7 12.4,67.53 12.23,67.53 12.23,67.36 12.4,67.19 12.56,67.19 12.73,67.02 
	12.73,66.85 12.9,66.68 12.9,66.51 12.9,66.34 12.9,66.17 12.9,66.01 12.9,65.84 12.9,65.67 12.9,65.5 12.73,65.33 12.73,65.16 
	12.73,64.99 12.73,64.82 12.73,64.65 12.9,64.65 12.9,64.48 12.9,64.31 12.9,64.14 12.9,63.97 12.9,63.8 12.9,63.63 12.73,63.46 
	12.56,63.46 12.56,63.29 12.4,63.12 12.4,62.95 12.4,62.78 12.4,62.61 12.4,62.44 12.4,62.27 12.4,62.11 12.4,61.94 12.23,61.77 
	12.23,61.6 12.23,61.43 12.23,61.26 12.06,61.09 12.06,60.92 12.06,60.75 12.06,60.58 11.89,60.41 11.89,60.24 11.72,60.07 
	11.72,59.9 11.72,59.73 11.89,59.56 11.72,59.56 11.55,59.56 11.38,59.56 11.38,59.39 11.38,59.22 11.38,59.05 11.21,59.05 
	11.04,59.22 10.87,59.22 10.7,59.22 10.53,59.05 10.53,58.88 10.36,58.88 10.36,58.71 10.19,58.54 10.19,58.37 10.19,58.2 
	10.02,58.2 10.02,58.03 9.85,58.03 9.68,58.03 9.51,57.87 9.51,57.7 9.34,57.53 9.17,57.36 9,57.36 8.83,57.36 8.66,57.36 
	8.49,57.19 8.49,57.02 8.32,57.02 8.16,56.85 8.32,56.68 8.32,56.51 8.32,56.34 8.32,56.17 8.16,56 8.16,55.83 8.16,55.66 
	8.32,55.49 8.32,55.32 8.32,55.15 8.32,54.98 8.32,54.81 8.32,54.64 8.32,54.47 8.32,54.3 8.32,54.14 8.49,54.14 8.49,53.97 
	8.32,53.97 8.32,53.8 8.16,53.63 7.99,53.63 7.99,53.46 7.82,53.46 7.82,53.29 7.82,53.12 7.82,52.95 7.99,52.78 7.99,52.61 
	7.99,52.44 7.99,52.27 7.99,52.1 7.99,51.93 7.82,51.76 7.82,51.59 7.82,51.42 7.82,51.25 7.82,51.08 7.99,50.91 7.82,50.91 
	7.82,50.74 7.82,50.57 7.65,50.4 7.48,50.4 7.48,50.23 7.31,50.06 7.14,49.9 6.97,49.9 6.8,49.73 6.63,49.73 6.46,49.56 6.29,49.56 
	6.12,49.39 5.95,49.22 6.12,49.22 6.29,49.05 6.46,49.05 6.46,48.88 6.46,48.71 6.63,48.71 6.8,48.54 6.8,48.37 6.8,48.2 6.8,48.03 
	6.8,47.86 6.97,47.69 7.14,47.69 7.31,47.69 7.48,47.69 7.65,47.69 7.82,47.69 7.99,47.52 8.16,47.52 8.16,47.35 8.32,47.18 
	8.49,47.18 8.49,47.01 8.49,46.84 8.66,46.84 8.83,46.67 9,46.67 9,46.5 9.17,46.5 9.17,46.33 9.17,46.16 9,46 9,45.83 9,45.66 
	8.83,45.49 8.66,45.32 8.49,45.32 8.49,45.15 8.49,44.98 8.49,44.81 8.49,44.64 8.32,44.64 8.32,44.47 8.32,44.3 8.32,44.13 
	8.49,44.13 8.49,43.96 8.66,43.96 8.66,43.79 8.66,43.62 8.83,43.62 8.83,43.45 9,43.28 9,43.11 9,42.94 8.83,42.94 8.66,42.94 
	8.49,43.11 8.32,42.94 8.16,42.94 7.99,42.94 7.82,42.77 7.65,42.77 7.65,42.6 7.65,42.43 7.48,42.43 7.48,42.26 7.31,42.26 
	7.31,42.09 7.14,42.09 6.97,41.93 6.97,41.76 6.8,41.59 6.63,41.59 6.63,41.42 6.63,41.25 6.63,41.08 6.63,40.91 6.8,40.74 
	6.63,40.57 6.46,40.57 6.29,40.4 6.29,40.23 6.12,40.23 5.95,40.06 5.78,40.23 5.61,40.23 5.44,40.23 5.44,40.06 5.27,39.89 
	5.27,39.72 5.27,39.55 5.1,39.55 4.93,39.55 4.76,39.55 4.59,39.55 4.42,39.55 4.42,39.38 4.42,39.21 4.42,39.04 4.42,38.87 
	4.26,38.87 4.09,38.7 3.92,38.7 3.75,38.7 3.75,38.87 3.58,38.87 3.41,38.87 3.24,38.87 3.07,38.87 3.07,38.7 2.73,38.53 
	2.56,38.53 2.56,38.36 2.39,38.36 2.22,38.36 2.22,38.19 2.05,37.86 1.88,37.86 1.71,37.69 1.71,37.52 1.54,37.35 1.37,37.18 
	1.2,36.84 1.2,36.67 1.2,36.5 1.2,36.33 1.03,36.16 1.03,35.99 0.86,35.99 0.86,35.82 0.69,35.82 0.52,35.82 0.35,35.82 0.19,35.82 
	0.19,35.65 0.19,35.48 0.19,35.31 0.02,35.14 -0.15,34.97 -0.15,34.63 -0.15,34.29 0.19,34.12 0.02,33.96 0.19,33.79 0.35,33.79 
	0.52,33.79 0.52,33.96 0.69,33.96 0.86,33.79 0.86,33.62 1.03,33.45 1.2,33.45 1.37,33.45 1.37,33.28 1.37,33.11 1.54,32.94 
	1.71,32.77 1.88,32.6 2.05,32.6 2.22,32.77 2.39,32.77 2.56,32.6 2.56,32.77 2.73,32.77 2.73,32.6 2.9,32.6 2.9,32.43 2.73,32.26 
	2.56,32.09 2.56,31.92 2.56,31.75 2.56,31.58 2.56,31.24 2.56,31.07 2.56,30.9 2.56,30.73 2.73,30.56 2.73,30.39 2.9,30.39 
	3.07,30.39 3.24,30.39 3.24,30.22 3.07,30.22 3.07,30.05 3.07,29.89 3.24,29.55 3.41,29.38 3.24,29.21 3.24,29.04 3.41,29.04 
	3.41,28.87 3.41,28.7 3.24,28.7 3.07,28.7 2.9,28.53 2.9,28.36 2.9,28.19 2.73,28.19 2.73,28.02 2.9,28.02 3.07,28.02 3.07,27.85 
	3.24,27.34 3.41,27.34 3.41,27 3.24,26.83 3.24,26.66 3.24,26.49 3.24,26.32 3.24,26.15 3.24,25.82 3.07,25.82 2.73,25.65 
	2.56,25.65 2.56,25.48 2.39,25.31 2.22,25.31 2.05,25.31 1.88,25.31 1.88,25.14 1.88,24.97 1.71,24.97 1.54,24.97 1.54,24.8 
	1.54,24.63 1.71,24.63 1.71,24.46 1.88,24.29 2.05,24.29 2.05,24.12 2.22,24.12 2.22,23.95 2.22,23.78 2.39,23.61 2.22,23.61 
	2.22,23.44 2.22,23.27 2.05,22.93 2.39,22.59 2.56,22.59 2.56,22.42 2.73,22.42 2.73,22.25 2.9,22.08 3.07,22.08 3.24,22.08 
	3.41,21.92 3.58,21.92 3.58,21.75 3.75,21.75 3.92,21.75 4.09,21.75 4.26,21.75 4.42,21.92 4.42,21.75 4.59,21.75 4.76,21.75 
	4.93,21.75 4.93,21.58 5.27,21.58 5.44,21.58 5.61,21.58 5.78,21.58 5.95,21.58 6.12,21.58 6.12,21.75 6.29,21.75 6.29,21.92 
	6.46,21.92 6.63,21.92 6.63,22.08 6.8,22.08 6.97,22.08 7.14,22.25 7.14,22.42 7.31,22.42 7.48,22.59 7.65,22.76 7.65,22.93 
	7.82,23.1 7.99,23.1 8.16,23.1 8.16,22.93 8.32,22.93 8.32,23.1 8.49,23.1 8.66,23.1 8.66,22.93 8.66,22.76 8.83,22.76 9,22.59 
	9.17,22.76 9.34,22.93 9.51,22.93 9.51,22.76 9.68,22.59 9.85,22.42 9.85,22.25 9.85,22.08 10.02,21.92 10.19,21.92 10.36,21.75 
	10.53,21.58 10.53,21.75 10.7,21.75 10.7,21.92 10.87,22.08 11.04,22.08 11.04,22.25 11.21,22.25 11.38,22.08 11.38,21.92 
	11.55,21.92 11.72,21.92 11.89,22.08 12.06,22.08 12.23,22.08 12.4,22.08 12.4,22.25 12.56,22.25 12.56,22.42 12.56,22.59 
	12.73,22.59 12.73,22.76 12.9,22.76 12.9,22.93 12.9,23.1 13.07,23.1 13.07,23.27 13.24,23.27 13.24,23.44 13.41,23.44 13.41,23.61 
	13.58,23.78 13.75,23.78 13.92,23.78 13.92,23.95 13.92,24.29 14.09,24.29 14.09,24.46 14.26,24.46 14.26,24.63 14.43,24.63 
	14.43,24.8 14.43,24.97 14.6,25.14 14.77,25.31 14.94,25.31 14.94,25.48 14.94,25.65 15.11,25.65 15.28,25.65 15.28,25.82 
	15.11,25.82 15.28,25.99 15.45,25.99 15.45,26.15 15.62,26.15 15.62,26.32 15.79,26.32 15.79,26.49 15.79,26.66 15.79,26.83 
	15.96,26.83 15.96,27 16.13,27 16.13,27.17 16.3,27.34 16.3,27.51 16.46,27.51 16.46,27.34 16.63,27.34 16.8,27.34 16.97,27.34 
	16.97,27.17 17.14,27.17 17.31,27.17 17.48,27.17 17.48,27 17.65,27 17.65,26.83 17.82,26.83 17.99,26.66 18.16,26.66 18.16,26.49 
	18.33,26.49 18.5,26.49 18.5,26.32 18.67,26.15 18.84,26.15 18.84,25.99 19.01,26.15 19.18,26.15 19.18,25.99 19.35,25.99 
	19.52,25.99 19.69,25.99 19.86,25.99 19.86,25.82 19.86,25.65 20.03,25.65 20.03,25.48 20.2,25.48 20.2,25.31 20.37,25.14 
	20.54,25.14 20.7,24.97 20.87,24.8 21.04,24.8 21.21,24.8 21.38,24.8 21.55,24.63 21.55,24.46 21.55,24.29 21.72,24.29 21.72,24.12 
	21.72,23.95 21.72,23.78 21.55,23.78 21.55,23.61 21.38,23.61 21.21,23.61 21.04,23.44 21.04,23.27 21.04,23.1 21.04,22.93 
	21.04,22.76 21.04,22.59 21.04,22.42 21.04,22.25 21.04,22.08 21.04,21.92 21.04,21.75 21.04,21.58 21.21,21.41 21.21,21.24 
	21.21,21.07 21.38,20.9 21.55,20.9 21.55,20.73 21.55,20.39 21.55,20.22 21.72,20.22 21.89,20.22 22.06,20.22 22.06,20.39 
	22.23,20.39 22.23,20.22 22.4,20.22 22.57,20.22 22.74,20.22 22.74,20.05 22.74,19.88 22.91,19.71 22.91,19.54 23.08,19.54 
	23.08,19.37 22.91,19.2 23.25,19.03 23.25,18.86 23.42,18.86 23.42,18.69 23.42,18.52 23.59,18.52 23.76,18.35 23.93,18.18 
	24.1,18.02 24.1,18.18 24.27,18.35 24.27,18.52 24.44,18.52 24.44,18.69 24.6,18.69 24.6,18.86 24.6,19.03 24.77,19.03 24.94,19.2 
	25.11,19.2 25.11,19.03 25.28,19.03 25.45,19.03 25.62,19.03 25.79,19.03 25.79,19.2 25.96,19.37 25.96,19.54 26.13,19.54 
	26.13,19.71 26.13,19.88 26.13,20.05 26.13,20.22 26.13,20.39 26.3,20.56 26.47,20.56 26.64,20.56 26.81,20.56 26.81,20.73 
	26.98,20.73 27.15,20.73 27.32,20.9 27.49,20.9 28,21.07 28.17,21.07 28.34,21.07 28.51,20.9 28.51,20.73 28.67,20.73 28.67,20.56 
	28.67,20.73 28.84,20.73 28.84,20.9 29.01,21.07 29.01,21.24 29.18,21.24 29.35,21.07 29.52,21.07 29.52,21.24 29.69,21.24 
	29.69,21.41 29.69,21.58 29.69,21.75 29.86,21.75 29.86,21.92 29.86,22.08 29.86,22.25 30.03,22.25 30.03,22.42 30.2,22.42 
	30.37,22.59 30.54,22.76 30.71,22.76 30.88,22.76 30.88,22.59 31.05,22.59 31.22,22.59 31.39,22.59 31.56,22.59 31.73,22.59 
	31.73,22.76 31.9,22.76 32.07,22.93 32.07,23.1 32.07,23.27 32.24,23.27 32.41,23.27 32.41,23.44 32.41,23.61 32.41,23.78 
	32.58,23.78 32.74,23.95 32.91,23.95 33.08,23.95 33.25,23.78 33.42,23.95 33.59,23.95 33.76,23.78 33.93,23.78 34.1,23.95 
	34.27,23.78 34.44,23.78 34.61,23.78 34.61,23.95 34.61,24.12 34.78,24.12 34.78,23.95 34.95,23.78 34.95,23.61 35.12,23.61 
	35.12,23.44 35.46,23.27 35.46,23.1 35.63,22.93 35.8,22.93 35.97,22.76 36.14,22.59 36.14,22.42 36.31,22.42 36.48,22.25 
	36.65,22.25 36.65,22.42 36.81,22.59 36.81,22.76 36.98,22.76 36.98,22.93 36.98,23.1 36.98,23.27 37.15,23.27 37.32,23.27 
	37.49,23.27 37.49,23.1 37.66,23.1 37.66,23.27 37.66,23.44 37.83,23.44 38,23.44 38,23.61 38.17,23.61 38.34,23.61 38.34,23.78 
	38.51,23.78 38.68,23.95 38.68,24.12 38.68,24.29 38.85,24.29 39.02,24.29 39.19,24.29 39.36,24.29 39.36,24.12 39.53,24.12 
	39.53,23.95 39.53,23.78 39.53,23.61 39.53,23.44 39.53,23.27 39.7,23.27 39.7,23.1 39.87,23.1 39.87,22.93 40.04,22.93 
	40.04,22.76 40.04,22.59 40.04,22.42 39.87,22.25 40.04,22.25 40.04,22.08 40.21,21.92 40.38,21.75 40.55,21.41 40.72,21.41 
	40.88,21.41 41.05,21.41 41.22,21.41 41.22,21.58 41.39,21.58 41.56,21.41 41.73,21.41 41.9,21.58 42.07,21.58 42.24,21.58 
	42.24,21.75 42.41,21.75 42.41,21.92 42.58,21.92 42.75,21.92 42.75,22.08 42.92,22.08 43.09,22.08 43.26,21.92 43.26,21.75 
	43.43,21.75 43.43,21.58 43.6,21.58 43.77,21.58 43.77,21.75 43.94,21.75 43.94,21.92 44.11,21.92 44.28,21.92 44.45,21.75 
	44.62,21.75 44.78,21.75 44.95,21.75 44.95,21.92 45.12,21.92 45.29,21.92 45.29,22.08 45.46,22.08 45.63,22.08 45.63,22.25 
	45.8,22.42 45.97,22.42 45.97,22.59 46.14,22.59 46.31,22.59 46.31,22.42 46.48,22.42 46.65,22.42 46.82,22.42 46.82,22.25 
	46.99,22.25 47.16,22.25 47.33,22.42 47.5,22.42 47.67,22.42 47.84,22.42 47.84,22.25 47.84,22.08 48.01,22.08 48.01,21.92 
	48.18,21.92 48.35,21.92 48.52,21.75 48.69,21.75 48.85,21.75 48.85,21.92 49.02,21.92 49.19,21.92 49.36,21.92 49.53,21.92 
	49.7,21.92 49.87,21.92 50.04,21.75 50.21,21.92 50.38,21.92 50.55,21.92 50.72,21.75 50.89,21.75 51.06,21.75 51.23,21.92 
	51.4,21.92 51.4,22.08 51.57,22.08 51.74,22.08 51.91,22.08 51.91,22.25 51.91,22.08 51.91,21.92 51.91,21.75 51.74,21.58 
	51.91,21.41 52.08,21.24 52.25,21.24 52.42,21.07 52.59,21.07 52.76,21.07 52.92,21.07 53.09,21.07 53.26,21.07 53.43,21.07 
	53.6,20.9 53.77,20.9 53.94,21.07 54.11,21.07 54.28,21.07 54.28,20.9 54.45,20.9 54.45,20.73 54.45,20.56 54.28,20.56 54.28,20.39 
	54.45,20.22 54.45,20.05 54.62,20.05 54.62,19.88 54.45,19.88 54.45,19.71 54.45,19.54 54.45,19.37 54.45,19.2 54.62,19.2 
	54.45,19.2 54.45,19.03 54.62,19.03 54.62,18.86 54.79,18.86 54.79,18.69 54.79,18.52 54.79,18.35 54.62,18.18 54.62,18.02 
	54.62,17.85 54.79,17.85 54.62,17.85 54.62,17.68 54.62,17.51 54.62,17.34 54.62,17.17 54.62,17 54.45,17 54.62,16.83 54.79,16.83 
	54.79,16.66 54.96,16.66 54.96,16.49 54.96,16.32 54.79,16.15 54.79,15.98 54.79,15.81 54.79,15.64 54.79,15.47 54.62,15.47 
	54.62,15.3 54.45,15.3 54.45,15.13 54.45,14.96 54.45,14.79 54.28,14.62 54.28,14.45 54.45,14.45 54.45,14.28 54.45,14.11 
	54.62,14.11 54.62,13.95 54.45,13.95 54.62,13.95 54.62,13.78 54.79,13.78 54.96,13.78 54.96,13.61 55.13,13.61 55.3,13.61 
	55.3,13.44 55.47,13.44 55.64,13.44 55.81,13.44 55.98,13.27 56.15,13.27 56.32,13.27 56.49,13.27 56.49,13.1 56.49,12.93 
	56.66,12.93 56.66,12.76 56.49,12.76 56.49,12.59 56.49,12.42 56.66,12.42 56.66,12.25 56.83,12.25 56.99,12.25 56.99,12.08 
	57.16,12.08 57.33,11.91 57.5,11.74 57.5,11.57 57.5,11.4 57.67,11.23 57.67,11.06 57.84,10.89 57.84,10.72 58.01,10.55 
	58.18,10.55 58.35,10.55 58.35,10.38 58.52,10.38 58.52,10.21 58.69,10.21 58.86,10.04 58.86,10.21 59.03,10.21 59.03,10.04 
	59.2,10.04 59.2,10.21 59.37,10.21 59.37,10.04 59.54,9.88 59.71,9.88 59.88,9.88 59.88,9.71 60.05,9.71 60.22,9.71 60.22,9.88 
	60.39,9.88 60.39,9.71 60.56,9.71 60.73,9.71 60.73,9.54 60.9,9.54 60.9,9.37 60.9,9.2 61.06,9.2 61.23,9.2 61.4,9.2 61.57,9.03 
	61.74,8.86 61.91,8.86 62.08,8.86 62.08,8.69 62.25,8.69 62.25,8.52 62.42,8.52 62.42,8.69 62.59,8.69 62.76,8.69 62.93,8.52 
	62.93,8.69 62.93,8.52 63.1,8.52 63.27,8.52 63.27,8.35 63.27,8.18 63.44,8.18 63.44,8.01 63.61,8.01 63.61,8.18 63.78,8.18 
	63.78,8.01 63.95,8.01 63.95,8.18 63.95,8.01 64.12,8.18 63.95,8.18 64.12,8.35 63.95,8.35 64.12,8.35 64.29,8.35 64.29,8.52 
	64.46,8.52 64.63,8.52 64.63,8.35 64.8,8.35 64.97,8.35 64.97,8.52 64.97,8.69 64.97,8.52 65.13,8.52 65.13,8.69 65.3,8.69 
	65.47,8.86 65.64,8.86 65.64,9.03 65.81,9.03 65.98,9.03 65.98,9.2 66.15,9.2 66.15,9.03 66.32,9.03 66.32,8.86 66.49,8.86 
	66.66,8.86 66.83,8.86 66.83,9.03 67,9.03 67,9.2 67.17,9.2 67.34,9.2 67.34,9.37 67.34,9.2 67.51,9.2 67.68,9.37 67.85,9.37 
	67.85,9.54 68.02,9.54 68.02,9.37 68.19,9.37 68.19,9.2 68.02,9.2 68.02,9.03 68.02,8.86 68.19,8.86 68.19,8.69 68.36,8.69 
	68.36,8.52 68.53,8.52 68.53,8.35 68.7,8.35 68.7,8.52 68.87,8.52 68.87,8.69 69.03,8.69 69.2,8.69 69.2,8.52 69.37,8.52 
	69.54,8.52 69.71,8.52 69.88,8.35 69.88,8.52 70.05,8.52 70.22,8.52 70.39,8.52 70.56,8.52 70.56,8.69 70.73,8.69 70.73,8.86 
	70.9,8.86 71.07,9.03 71.24,9.03 71.41,9.03 71.41,9.2 71.58,9.2 71.75,9.2 71.92,9.2 72.09,9.2 72.26,9.2 72.26,9.37 72.43,9.37 
	72.6,9.54 72.6,9.37 72.77,9.37 72.94,9.37 "/>
</svg>
