<?xml version="1.0" encoding="utf-8"?>
<!-- Generator: Adobe Illustrator 24.2.1, SVG Export Plug-In . SVG Version: 6.00 Build 0)  -->
<svg version="1.1" id="Layer_1" xmlns="http://www.w3.org/2000/svg" xmlns:xlink="http://www.w3.org/1999/xlink" x="0px" y="0px"
	 viewBox="0 0 97.23 97.23" style="enable-background:new 0 0 97.23 97.23;" xml:space="preserve">
<style type="text/css">
	.st0{fill-rule:evenodd;clip-rule:evenodd;}
</style>
<polygon class="st0" points="79.84,11.73 79.72,11.73 79.72,11.62 79.72,11.5 79.61,11.5 79.49,11.5 79.38,11.5 79.26,11.5 
	79.14,11.62 79.03,11.62 79.03,11.5 78.91,11.5 78.91,11.62 78.8,11.62 78.8,11.5 78.68,11.5 78.56,11.62 78.45,11.62 78.33,11.62 
	78.22,11.62 78.1,11.62 77.98,11.73 77.98,11.85 77.87,11.85 77.75,11.85 77.63,11.85 77.63,11.96 77.52,11.96 77.52,11.85 
	77.52,11.73 77.4,11.73 77.4,11.85 77.29,11.85 77.05,11.85 77.05,11.73 76.94,11.62 76.59,11.5 76.47,11.5 76.36,11.5 76.36,11.38 
	76.47,11.38 76.47,11.27 76.59,11.27 76.59,11.15 76.59,11.04 76.59,10.92 76.47,10.92 76.47,11.04 76.36,11.04 76.36,10.92 
	76.24,10.92 76.12,10.92 76.12,10.8 76.01,10.8 75.89,10.8 75.89,10.69 75.89,10.57 75.78,10.46 75.78,10.34 75.66,10.34 
	75.43,10.34 75.2,10.46 74.96,10.57 74.73,10.69 74.62,10.69 74.5,10.69 74.27,10.8 74.03,11.15 73.8,11.38 73.57,11.62 
	73.34,12.08 73.11,13.01 72.99,13.24 72.99,13.47 73.11,13.59 73.22,13.94 73.22,14.17 73.34,14.4 73.57,14.52 73.69,14.64 
	73.45,14.87 73.45,15.1 73.34,15.45 73.11,15.56 72.87,15.8 72.64,15.91 72.41,16.14 72.29,16.26 72.06,16.38 72.06,16.49 
	71.94,16.49 71.94,16.61 71.94,16.73 71.83,16.84 71.83,16.96 71.94,17.19 71.94,17.31 71.83,17.31 71.83,17.42 71.71,17.42 
	71.6,17.54 71.6,17.65 71.48,17.65 71.36,17.77 71.25,17.89 71.25,18 71.25,18.23 71.25,18.35 71.25,18.58 71.36,18.7 71.36,18.82 
	71.36,18.93 71.48,18.93 71.6,18.93 71.71,18.93 71.71,19.05 71.71,19.16 71.83,19.16 72.06,19.28 72.18,19.4 72.29,19.63 
	72.29,19.74 72.41,19.74 72.41,19.63 72.53,19.63 72.64,19.63 72.64,19.74 72.64,19.86 72.64,19.98 72.76,19.98 72.87,19.86 
	73.11,19.74 73.22,19.74 73.45,19.86 73.57,19.86 73.69,19.98 73.8,19.98 73.92,19.98 74.03,19.98 74.03,19.86 74.15,19.86 
	74.27,19.86 74.27,19.74 74.38,19.74 74.5,19.63 74.62,19.51 74.62,19.4 74.73,19.28 74.85,19.28 74.96,19.28 74.96,19.16 
	75.08,19.16 75.2,19.05 75.2,18.93 75.2,19.05 75.2,19.16 75.31,19.16 75.43,19.28 75.54,19.4 75.66,19.51 75.78,19.51 75.89,19.51 
	75.89,19.63 76.01,19.63 76.12,19.63 76.12,19.74 76.24,19.86 76.36,19.86 76.47,19.86 76.59,19.86 76.59,20.09 76.59,20.21 
	76.71,20.33 76.71,20.44 76.59,20.56 76.59,20.67 76.59,20.79 76.59,20.91 76.59,21.02 76.71,21.02 76.71,21.14 76.82,21.14 
	76.94,21.25 76.94,21.37 76.94,21.49 77.05,21.6 77.05,21.72 76.94,21.72 76.94,21.83 77.05,21.95 77.17,21.95 77.17,22.07 
	77.05,22.07 77.05,22.18 76.94,22.3 76.94,22.42 77.05,22.42 77.05,22.53 77.05,22.65 76.94,22.76 76.94,22.88 77.05,23 
	77.05,23.11 77.05,23.23 76.94,23.23 76.94,23.11 76.82,23.11 76.82,23.23 76.71,23.34 76.71,23.58 76.71,23.69 76.71,23.81 
	76.71,23.92 76.82,23.92 76.82,24.04 76.71,24.16 76.71,24.27 76.71,24.39 76.59,24.39 76.59,24.51 76.59,24.62 76.59,24.74 
	76.47,24.74 76.47,24.85 76.47,24.97 76.59,25.09 76.71,25.09 76.71,25.2 76.71,25.32 76.59,25.43 76.59,25.55 76.59,25.67 
	76.71,25.67 76.71,25.78 76.71,25.9 76.71,26.01 76.71,26.13 76.71,26.36 76.59,26.6 76.59,26.71 76.59,26.83 76.59,26.94 
	76.59,27.06 76.59,27.18 76.59,27.29 76.71,27.29 76.82,27.29 76.82,27.41 76.94,27.41 76.94,27.52 77.05,27.52 77.17,27.52 
	77.29,27.52 77.4,27.52 77.4,27.64 77.52,27.64 77.52,27.76 77.63,27.64 77.75,27.64 77.87,27.64 77.98,27.64 78.1,27.64 
	78.22,27.64 78.33,27.64 78.33,27.52 78.33,27.41 78.45,27.41 78.45,27.29 78.56,27.29 78.68,27.41 78.8,27.52 78.91,27.52 
	79.03,27.52 79.14,27.52 79.14,27.64 79.26,27.64 79.49,27.52 79.61,27.52 79.72,27.52 79.84,27.52 80.07,27.29 80.19,27.29 
	80.31,27.29 80.42,27.41 80.54,27.41 80.65,27.41 80.77,27.41 80.89,27.41 81,27.41 81.12,27.41 81.23,27.41 81.23,27.52 
	81.35,27.41 81.47,27.29 81.58,27.29 81.7,27.29 81.93,27.52 82.05,27.52 82.16,27.52 82.28,27.64 82.4,27.64 82.51,27.64 
	82.51,27.76 82.63,27.76 82.63,27.99 82.74,27.99 82.74,28.1 82.74,28.22 82.74,28.34 82.63,28.45 82.63,28.57 82.74,28.57 
	82.74,28.69 82.86,28.8 82.86,28.92 82.98,29.03 83.09,29.15 83.21,29.15 83.21,29.27 83.32,29.27 83.44,29.27 83.56,29.27 
	83.67,29.27 83.79,29.27 83.91,29.27 83.91,29.38 84.49,30.08 84.49,30.2 85.18,30.78 85.3,30.89 85.3,31.01 85.41,31.01 
	85.41,31.12 85.76,31.24 85.88,31.24 86.11,31.36 86.23,31.24 86.34,31.36 86.46,31.36 86.69,31.24 86.81,31.36 86.92,31.24 
	87.16,31.24 87.27,31.24 87.39,31.24 87.5,31.24 87.62,31.24 87.62,31.36 87.5,31.47 87.5,31.59 87.5,31.7 87.5,31.82 87.62,31.82 
	87.62,31.94 87.74,32.05 87.85,32.17 87.85,32.29 87.97,32.29 87.97,32.4 88.09,32.52 88.09,32.63 88.09,32.75 88.09,32.87 
	88.09,32.98 88.2,33.1 88.32,33.21 88.32,33.33 88.55,33.56 88.67,33.68 88.78,33.79 89.01,34.03 89.13,34.26 89.25,34.38 
	89.36,34.38 89.36,34.49 89.36,34.72 89.36,34.96 89.36,35.07 89.25,35.54 89.25,35.65 89.25,35.77 89.13,35.77 89.13,35.88 
	89.01,35.88 88.78,36 88.67,36.23 88.55,36.58 88.55,36.7 88.43,36.81 88.2,37.05 87.85,37.16 87.74,37.16 87.74,37.28 87.62,37.39 
	87.5,37.51 87.5,37.63 87.5,37.74 87.39,37.86 87.39,37.97 87.27,38.09 87.27,38.21 87.27,38.32 87.27,38.44 87.39,38.56 
	87.39,38.67 87.39,38.79 87.39,38.9 87.5,38.9 87.5,39.02 87.39,39.14 87.27,39.25 87.27,39.37 87.27,39.48 87.27,39.6 87.27,39.72 
	87.39,39.72 87.39,39.83 87.5,39.95 87.39,40.41 87.39,40.76 87.39,40.88 87.39,40.99 87.39,41.11 87.27,41.11 87.27,41.23 
	87.16,41.23 87.16,41.34 87.04,41.46 87.04,41.57 86.92,41.92 86.92,42.04 86.92,42.16 86.92,42.39 86.92,42.5 86.81,42.62 
	86.69,42.62 86.58,42.62 86.46,42.62 86.34,42.74 86.23,42.74 86,42.62 85.88,42.5 85.76,42.5 85.65,42.5 85.65,42.62 85.76,42.74 
	85.88,42.97 86,42.97 86,43.08 86,43.2 86,43.32 85.88,43.43 85.76,43.66 85.65,43.78 85.76,43.9 85.88,43.9 86,43.9 86,44.01 
	86,44.13 86,44.25 85.88,44.36 85.88,44.48 85.76,44.59 85.65,44.71 85.65,44.83 85.65,44.94 85.53,44.94 85.65,45.06 85.65,45.17 
	85.65,45.29 85.76,45.41 86,45.52 86,45.64 86,45.87 86.11,45.99 86.11,46.1 86.11,46.22 86.11,46.57 86,46.68 85.88,46.68 86,46.8 
	86.11,46.92 86.11,47.03 86.11,47.15 86,47.38 86,47.61 86,47.73 86,47.84 86.11,47.96 86.11,48.08 86.23,48.19 86.23,48.31 
	86.23,48.43 86.11,48.54 86,48.54 85.88,48.66 85.88,48.89 86,49.01 86,49.12 86,49.24 85.88,49.35 85.88,49.47 85.76,49.47 
	85.76,49.7 85.65,49.82 85.65,49.93 85.53,50.05 85.41,50.28 85.41,50.4 85.41,50.52 85.41,50.63 85.3,50.75 85.41,50.98 
	85.41,51.1 85.41,51.21 85.3,51.21 85.3,51.33 85.18,51.33 85.18,51.44 85.18,51.56 85.3,51.79 85.53,51.91 85.53,52.03 
	85.65,52.03 85.65,52.14 85.53,52.14 85.41,52.14 85.41,52.26 85.3,52.37 85.3,52.49 85.3,52.61 85.41,52.72 85.53,52.84 
	85.53,52.95 85.76,53.07 85.76,53.19 85.76,53.3 85.88,53.42 85.88,53.53 85.76,53.53 85.65,53.53 85.65,53.42 85.53,53.42 
	85.41,53.53 85.3,53.53 85.07,53.65 84.95,53.77 84.83,53.88 84.83,54 84.72,54 84.6,54 84.49,54.12 84.37,54.12 84.25,54.12 
	84.25,54.23 84.25,54.35 84.25,54.46 84.25,54.58 84.37,54.7 84.49,54.81 84.6,54.93 84.72,54.93 84.83,55.04 84.95,55.04 
	84.95,55.16 85.07,55.16 85.18,55.16 85.18,55.04 85.3,55.16 85.41,55.16 85.53,55.16 85.65,55.04 85.76,55.04 85.88,55.04 
	86,55.04 86.11,55.16 86.23,55.16 86.46,55.16 86.58,55.16 86.69,55.16 86.81,55.28 86.92,55.28 87.04,55.39 87.16,55.51 
	87.16,55.62 87.16,55.74 87.16,55.97 87.04,56.09 87.04,56.21 87.04,56.32 87.04,56.44 86.92,56.67 86.92,56.79 86.92,56.9 
	86.81,56.9 86.69,56.9 86.58,56.9 86.46,56.9 86.34,56.9 86.23,56.9 86.11,56.79 86,56.79 85.88,56.67 85.76,56.67 85.65,56.67 
	85.41,56.79 85.3,56.9 85.18,57.02 85.07,57.13 84.95,57.25 84.83,57.37 84.72,57.37 84.6,57.48 84.6,57.6 84.49,57.6 84.49,57.71 
	84.49,57.83 84.49,57.95 84.37,58.06 84.37,58.18 84.25,58.3 84.25,58.41 84.37,58.41 84.37,58.53 84.25,58.64 84.25,58.76 
	84.25,58.88 84.14,58.99 84.14,59.11 84.02,59.11 83.91,59.22 83.91,59.34 83.79,59.34 83.56,59.34 83.44,59.46 83.44,59.57 
	83.32,59.69 83.32,59.8 83.32,59.92 83.32,60.04 83.21,60.04 83.21,59.92 83.21,59.8 83.09,59.8 83.09,59.92 83.09,60.04 
	82.98,60.15 82.86,60.15 82.74,60.15 82.63,60.15 82.51,60.15 82.4,60.27 82.28,60.27 82.16,60.27 82.05,60.27 81.93,60.27 
	81.93,60.39 81.82,60.5 81.7,60.62 81.58,60.62 81.47,60.62 81.35,60.62 81.23,60.62 81.23,60.73 81.23,60.85 81.35,60.85 
	81.35,60.97 81.23,60.97 81.23,61.08 81.12,61.08 81.12,61.2 81,61.2 80.89,61.2 80.89,61.08 80.77,61.08 80.77,61.2 80.77,61.31 
	80.89,61.31 81,61.43 81.12,61.43 81.12,61.31 81.12,61.43 81.23,61.43 81.23,61.55 81.23,61.66 81.35,61.66 81.23,61.66 
	81.23,61.78 81.23,61.89 81.12,61.89 81,61.89 81,62.01 81.12,62.01 81.12,62.13 81,62.13 80.89,62.01 80.77,62.01 80.77,62.13 
	80.89,62.13 80.89,62.24 80.77,62.24 80.65,62.24 80.65,62.36 80.65,62.24 80.65,62.01 80.54,61.89 80.42,61.89 80.31,61.89 
	80.31,62.01 80.19,62.13 80.19,62.01 80.07,62.01 80.07,61.89 79.96,61.89 79.96,62.01 79.96,62.13 79.84,62.13 79.84,62.24 
	79.72,62.24 79.61,62.24 79.49,62.24 79.49,62.36 79.61,62.36 79.49,62.36 79.49,62.48 79.49,62.59 79.61,62.59 79.72,62.59 
	79.72,62.71 79.61,62.71 79.61,62.82 79.72,62.82 79.84,62.82 79.84,62.94 79.72,62.94 79.72,63.06 79.61,63.06 79.61,63.17 
	79.61,63.29 79.72,63.29 79.84,63.29 79.84,63.4 79.72,63.4 79.72,63.52 79.72,63.64 79.61,63.64 79.49,63.64 79.49,63.75 
	79.49,63.87 79.61,63.87 79.72,63.87 79.72,63.99 79.61,63.99 79.61,64.1 79.61,64.22 79.49,64.33 79.49,64.45 79.38,64.45 
	79.26,64.45 79.26,64.57 79.14,64.57 79.03,64.57 79.03,64.45 78.91,64.45 78.91,64.33 78.8,64.33 78.68,64.33 78.56,64.33 
	78.45,64.33 78.33,64.33 78.33,64.45 78.22,64.45 78.1,64.45 77.98,64.45 77.87,64.45 77.75,64.45 77.63,64.57 77.52,64.57 
	77.4,64.57 77.29,64.57 77.17,64.57 77.05,64.57 77.05,64.45 76.94,64.33 76.82,64.33 76.71,64.22 76.59,64.22 76.47,64.22 
	76.47,64.1 76.36,64.1 76.24,63.99 76.24,63.87 76.24,63.99 76.24,64.1 76.24,64.22 76.36,64.33 76.36,64.45 76.36,64.57 
	76.36,64.68 76.36,64.8 76.36,64.91 76.36,65.03 76.47,65.15 76.36,65.26 76.36,65.38 76.24,65.38 76.24,65.49 76.24,65.61 
	76.24,65.73 76.12,65.73 76.01,65.73 75.89,65.61 75.78,65.61 75.78,65.73 75.78,65.84 75.78,66.08 75.89,66.19 75.89,66.42 
	76.01,66.54 76.01,66.66 76.12,66.66 76.12,66.77 76.36,66.77 76.47,66.66 76.59,66.66 76.71,66.66 76.82,66.66 76.94,66.77 
	77.05,66.77 77.17,66.77 77.29,66.77 77.29,66.89 77.29,67 77.29,67.12 77.4,67.12 77.4,67.24 77.4,67.35 77.4,67.47 77.52,67.47 
	77.52,67.58 77.52,67.7 77.4,67.7 77.4,67.82 77.4,67.93 77.4,68.05 77.17,68.17 77.17,68.28 77.05,68.28 77.05,68.4 77.05,68.51 
	77.05,68.63 77.05,68.86 77.05,68.98 77.29,69.09 77.4,69.09 77.52,69.09 77.52,69.21 77.63,69.33 77.75,69.33 77.87,69.33 
	77.98,69.44 78.1,69.56 78.1,69.67 78.1,69.79 78.1,69.91 78.1,70.02 77.98,70.02 77.87,70.02 77.87,69.91 77.75,69.91 77.63,69.91 
	77.52,69.91 77.52,70.02 77.52,70.14 77.52,70.26 77.52,70.37 77.63,70.49 77.63,70.6 77.75,70.72 77.87,70.84 77.87,70.95 
	77.98,70.95 78.1,70.95 78.22,70.95 78.22,71.07 78.33,71.07 78.22,71.07 78.22,71.18 78.33,71.18 78.33,71.3 78.22,71.42 
	78.22,71.53 78.1,71.53 77.98,71.53 77.98,71.65 77.98,71.76 78.1,71.76 78.22,71.65 78.45,71.65 78.56,71.65 78.68,71.65 
	78.68,71.76 78.68,71.88 78.8,71.88 78.8,72 78.68,72 78.56,72 78.45,72 78.33,72 78.22,72 78.22,72.11 78.1,72.11 78.1,72.23 
	78.1,72.35 77.98,72.46 77.98,72.58 77.87,72.58 77.87,72.69 77.87,72.81 77.87,72.93 77.75,72.93 77.75,73.04 77.63,73.04 
	77.52,73.04 77.4,73.04 77.29,73.04 77.17,72.93 77.17,72.81 77.05,72.81 76.94,72.81 76.82,72.81 76.71,72.81 76.71,72.93 
	76.59,72.93 76.59,72.81 76.47,72.81 76.47,72.69 76.36,72.81 76.36,72.93 76.24,73.04 76.24,72.93 76.12,72.93 76.01,72.93 
	75.89,72.93 75.78,72.93 75.78,72.81 75.66,72.81 75.54,72.81 75.54,72.93 75.43,72.93 75.31,72.93 75.31,73.04 75.2,73.04 
	75.2,73.16 75.2,73.27 75.08,73.39 75.08,73.51 74.96,73.51 74.96,73.62 74.96,73.74 74.85,73.74 74.73,73.86 74.62,73.86 
	74.62,73.97 74.5,74.09 74.38,74.09 74.27,74.2 74.15,74.2 74.03,74.2 74.03,74.32 73.92,74.32 73.8,74.67 73.69,74.78 73.57,74.9 
	73.57,75.02 73.57,75.13 73.57,75.25 73.57,75.48 73.57,75.6 73.57,75.71 73.69,75.83 73.69,75.95 73.8,76.06 73.8,76.18 
	73.8,76.29 73.69,76.41 73.57,76.41 73.57,76.53 73.45,76.53 73.34,76.53 73.22,76.53 73.22,76.41 73.22,76.53 73.11,76.53 
	73.11,76.64 73.22,76.76 73.11,76.76 73.22,76.87 73.22,76.99 73.11,76.99 73.11,77.11 72.99,77.11 72.99,77.22 72.99,77.34 
	72.99,77.57 72.87,77.69 72.76,78.04 72.64,78.04 72.64,78.15 72.76,78.15 72.76,78.27 72.76,78.38 72.76,78.5 72.87,78.62 
	72.87,78.73 72.76,78.85 72.64,78.96 72.64,79.08 72.76,79.08 72.87,79.08 72.99,79.2 72.99,79.31 72.99,79.43 72.99,79.54 
	72.99,79.66 72.99,79.78 72.99,79.89 72.99,80.13 73.11,80.13 73.11,80.24 73.22,80.24 73.22,80.36 73.34,80.36 73.34,80.47 
	73.34,80.59 73.34,80.71 73.45,80.71 73.45,80.82 73.45,80.94 73.45,81.05 73.45,81.17 73.22,81.29 73.11,81.4 72.99,81.4 
	72.99,81.52 72.87,81.52 72.76,81.52 72.64,81.63 72.64,81.75 72.76,81.87 72.87,81.98 72.87,82.1 72.87,82.22 72.87,82.33 
	72.76,82.33 72.76,82.45 72.76,82.68 72.87,82.68 72.87,82.8 72.76,82.8 72.76,82.91 72.64,82.91 72.53,82.91 72.41,82.8 
	72.29,82.68 72.06,82.8 71.94,82.8 71.94,82.91 71.83,83.03 71.83,83.14 71.94,83.26 71.94,83.38 71.94,83.49 71.94,83.61 
	71.94,83.73 71.83,83.84 71.83,83.96 71.83,84.07 71.71,84.07 71.6,84.07 71.48,84.07 71.36,84.07 71.25,84.19 71.25,84.31 
	71.13,84.31 71.02,84.42 70.78,84.42 70.67,84.54 70.55,84.65 70.55,84.77 70.55,84.89 70.55,85 70.67,85.12 70.67,85.23 
	70.78,85.35 70.78,85.47 70.67,85.58 70.55,85.58 70.32,85.7 70.2,85.7 70.09,85.7 69.97,85.7 69.85,85.7 69.85,85.82 69.74,85.93 
	69.74,86.05 69.62,86.05 69.51,86.16 69.39,86.16 69.27,86.16 69.27,86.28 69.27,86.4 69.39,86.51 69.39,86.63 69.51,86.74 
	69.51,86.86 69.51,86.98 69.51,87.09 69.51,87.21 69.62,87.21 69.74,87.21 69.85,87.21 69.97,87.21 69.97,87.32 69.97,87.44 
	69.97,87.56 70.09,87.67 70.09,87.79 69.97,87.79 69.85,87.67 69.74,87.67 69.62,87.67 69.51,87.67 69.39,87.67 69.27,87.79 
	69.16,87.79 69.04,87.79 68.93,87.79 68.81,87.79 68.69,87.91 68.69,88.02 68.58,88.02 68.46,88.14 68.23,88.25 68.23,88.37 
	68.11,88.37 68.11,88.49 68,88.6 68,88.72 68,88.83 68,88.95 68,89.07 68,89.18 68,89.3 67.88,89.3 67.88,89.41 67.76,89.41 
	67.76,89.3 67.65,89.3 67.53,89.18 67.42,89.07 67.3,89.07 67.3,88.95 67.18,89.07 67.07,89.07 66.95,89.18 66.95,89.3 66.84,89.3 
	66.84,89.41 66.72,89.41 66.6,89.41 66.49,89.41 66.37,89.53 66.37,89.65 66.37,89.53 66.25,89.53 66.25,89.65 66.25,89.76 
	66.14,89.76 66.02,89.76 65.91,89.88 65.79,89.88 65.79,89.76 65.67,89.76 65.56,89.76 65.56,89.65 65.56,89.76 65.56,89.65 
	65.44,89.65 65.33,89.65 65.33,89.76 65.44,89.76 65.33,89.76 65.21,89.76 65.09,89.76 65.09,89.65 64.98,89.65 64.86,89.65 
	64.75,89.65 64.63,89.65 64.63,89.76 64.51,89.76 64.4,89.76 64.4,89.65 64.28,89.65 64.28,89.76 64.16,89.76 64.16,89.88 
	64.05,89.88 63.93,89.88 63.93,90 63.93,89.88 63.82,89.88 63.7,90 63.7,90.11 63.58,90.23 63.47,90.34 63.47,90.46 63.47,90.58 
	63.47,90.69 63.47,90.81 63.47,90.92 63.58,91.04 63.58,91.16 63.47,91.27 63.47,91.39 63.47,91.5 63.58,91.5 63.58,91.62 
	63.58,91.74 63.58,91.85 63.7,91.97 63.7,92.2 63.58,92.32 63.58,92.55 63.47,92.67 63.35,92.78 63.35,92.9 63.35,93.01 
	63.24,93.01 63.24,93.13 63.12,93.13 63.12,93.25 63.12,93.36 63,93.48 63,93.6 62.89,93.6 62.89,93.71 62.65,93.83 62.42,93.83 
	62.19,93.94 62.07,93.94 62.07,94.06 61.96,94.06 61.84,94.29 61.84,94.41 61.84,94.52 61.84,94.64 61.61,94.87 61.49,95.22 
	61.38,95.45 61.38,95.57 61.26,95.69 61.15,95.69 60.91,95.8 60.56,95.92 60.45,95.92 60.33,95.92 60.22,96.03 60.22,96.15 
	60.1,96.15 60.1,96.27 59.98,96.27 59.87,96.27 59.87,96.15 59.75,96.15 59.64,96.15 59.64,96.27 59.75,96.27 59.64,96.27 
	59.75,96.27 59.75,96.38 59.64,96.38 59.52,96.38 59.52,96.27 59.4,96.27 59.29,96.27 59.17,96.27 59.06,96.27 58.94,96.27 
	58.94,96.15 58.94,96.27 58.82,96.27 58.82,96.38 58.71,96.38 58.71,96.5 58.59,96.5 58.59,96.61 58.47,96.61 58.47,96.73 
	58.36,96.73 58.36,96.85 58.24,96.73 58.13,96.73 58.01,96.73 58.13,96.73 58.01,96.73 58.01,96.85 57.89,96.85 57.89,96.73 
	57.78,96.85 57.78,96.27 57.78,95.92 57.78,95.45 57.89,94.64 57.89,94.18 57.89,94.06 58.01,93.83 58.24,93.83 58.24,93.71 
	58.13,93.6 58.01,93.48 57.89,93.36 57.78,93.13 57.66,93.01 57.55,92.9 57.43,92.78 57.31,92.78 57.2,92.67 56.97,92.67 
	56.97,92.55 56.85,92.43 56.73,92.32 56.73,92.09 56.73,91.97 56.62,91.85 56.62,91.74 56.62,91.5 56.62,91.39 56.62,91.27 
	56.62,91.04 56.62,90.92 56.62,90.81 56.5,90.69 56.5,90.46 56.5,90.34 56.38,90.23 56.38,90.11 56.38,89.88 56.27,89.65 
	56.27,89.53 56.38,89.41 56.38,89.3 56.38,89.18 56.38,89.07 56.38,88.83 56.38,88.72 56.38,88.6 56.38,88.49 56.27,88.37 
	56.15,88.25 56.15,88.14 56.15,88.02 56.15,87.91 56.04,87.91 56.04,87.79 55.92,87.67 56.04,87.56 56.04,87.44 56.04,87.32 
	56.04,87.21 56.04,87.09 56.15,86.98 56.27,86.86 56.27,86.63 56.15,86.51 55.92,86.51 55.8,86.4 55.69,86.4 55.46,86.51 
	55.46,86.16 55.46,86.05 55.46,85.82 55.46,85.7 55.46,85.58 55.46,85.35 55.46,85.23 55.46,85.12 55.57,84.77 55.69,84.65 
	55.69,84.54 55.69,84.42 55.69,84.31 55.69,84.19 55.57,84.19 55.57,84.07 55.57,83.96 55.69,83.84 55.69,83.73 55.57,83.73 
	55.57,83.49 55.46,83.38 55.57,83.14 55.69,83.03 55.92,82.68 56.38,82.33 56.38,81.4 56.38,80.36 56.38,79.2 56.38,78.73 
	56.15,78.38 55.46,78.04 52.9,78.85 52.78,78.85 52.67,78.96 52.44,79.08 52.2,79.2 52.09,79.2 51.86,79.2 51.74,79.31 51.51,79.31 
	51.39,79.43 51.28,79.54 51.16,79.66 50.93,79.78 50.81,79.78 50.81,79.66 50.69,79.54 50.69,79.43 50.69,79.54 50.58,79.54 
	50.58,79.66 50.46,79.66 50.46,79.78 50.35,79.78 50.35,79.89 50.23,79.89 50.35,79.89 50.35,80.01 50.35,80.13 50.35,80.24 
	50.35,80.36 50.35,80.47 50.23,80.47 50.23,80.59 50.35,80.59 50.35,80.71 50.23,80.71 50.23,80.82 50.35,80.82 50.35,80.94 
	50.35,80.82 50.23,80.82 50.23,80.94 50.11,80.94 50.11,81.05 50.11,81.17 50,81.17 49.88,81.17 49.77,81.17 49.65,81.17 
	49.65,81.29 49.53,81.29 49.53,81.4 49.53,81.52 49.53,81.4 49.42,81.52 49.42,81.63 49.3,81.52 49.18,81.63 49.18,81.52 
	49.07,81.52 48.95,81.63 48.95,81.75 48.84,81.87 48.95,81.98 48.84,82.1 48.72,82.1 48.6,82.1 48.6,82.22 48.49,82.22 48.37,82.22 
	48.26,82.22 48.26,82.33 48.26,82.45 48.37,82.45 48.37,82.56 48.37,82.68 48.49,82.68 48.49,82.8 48.37,82.8 48.26,82.8 
	48.02,83.03 47.44,83.38 46.98,83.49 46.4,83.61 45.7,83.73 45.35,83.84 45.24,83.84 45,83.96 44.89,83.96 45,83.96 44.89,83.84 
	44.77,83.84 44.66,83.84 44.66,83.73 44.54,83.73 44.54,83.61 44.54,83.49 44.66,83.49 44.54,83.49 44.42,83.49 44.31,83.49 
	44.19,83.49 44.08,83.49 44.08,83.38 43.96,83.38 43.84,83.26 43.96,83.26 43.84,83.26 43.73,83.14 43.73,83.03 43.61,83.03 
	43.5,83.14 43.38,83.14 43.38,83.26 43.26,83.26 43.15,83.26 42.68,82.68 42.33,82.22 42.22,82.1 42.1,82.1 41.99,82.1 41.99,82.22 
	41.87,82.22 41.87,82.1 41.87,81.98 41.99,81.98 41.99,81.87 42.1,81.75 42.22,81.63 42.1,81.63 42.22,81.63 42.22,81.52 
	42.1,81.52 42.1,81.4 41.99,81.4 41.87,81.52 41.75,81.52 41.64,81.63 41.52,81.75 41.41,81.87 41.29,81.98 41.17,81.98 41.17,82.1 
	41.06,82.22 40.94,82.22 40.82,82.22 40.71,82.33 40.48,82.33 40.36,82.33 40.13,82.33 40.01,82.33 39.9,82.45 39.78,82.45 
	39.66,82.56 39.55,82.56 39.43,82.56 39.43,82.68 39.31,82.68 39.2,82.68 39.2,82.8 39.08,82.8 38.97,82.68 38.85,82.68 
	38.73,82.68 38.62,82.8 38.5,82.91 38.39,82.91 38.27,82.91 38.04,82.91 37.81,82.91 37.57,82.8 37.34,82.8 37.11,82.8 36.88,82.68 
	36.76,82.68 36.64,82.68 36.53,82.56 36.41,82.56 36.3,82.56 36.18,82.56 36.06,82.45 35.83,82.45 35.71,82.45 35.48,82.45 
	35.37,82.33 35.25,82.33 35.13,82.22 35.02,82.1 34.9,82.1 34.79,82.1 34.67,82.1 34.55,82.1 34.44,82.22 34.32,82.22 34.32,82.33 
	34.21,82.45 34.21,82.56 34.09,82.56 33.97,82.56 33.86,82.56 33.74,82.56 33.62,82.56 33.62,82.68 33.51,82.68 33.39,82.68 
	33.28,82.68 33.28,82.56 33.16,82.56 33.04,82.45 32.93,82.33 32.81,82.1 32.7,82.1 32.7,81.98 32.58,81.98 32.46,81.98 
	32.35,81.87 32.23,81.87 32.23,81.75 32.35,81.52 32.35,81.4 32.46,81.17 32.46,81.05 32.58,80.94 32.58,80.82 32.46,80.71 
	32.46,80.36 32.46,80.13 32.46,79.78 32.46,79.54 32.58,79.2 32.58,78.73 32.58,78.5 32.58,78.38 32.58,78.15 32.58,78.04 
	32.58,77.92 32.58,77.8 32.58,77.69 32.58,77.57 32.58,77.45 32.58,77.34 32.58,77.11 32.58,76.76 32.58,76.64 32.58,76.53 
	32.46,76.41 32.46,76.29 32.46,76.18 32.35,76.06 32.12,75.95 31.88,75.71 31.77,75.6 31.65,75.48 31.53,75.36 31.53,75.25 
	31.42,75.13 31.42,74.9 31.42,74.67 31.42,74.78 31.3,74.78 31.19,74.78 31.19,74.9 31.07,74.9 31.07,74.78 30.95,74.78 30.95,74.9 
	30.84,74.9 30.84,74.78 30.72,74.78 30.61,74.78 30.61,74.9 30.72,74.9 30.72,75.02 30.61,75.02 30.49,75.02 30.49,74.9 
	30.37,75.02 30.26,74.9 30.14,74.78 30.03,74.78 29.91,74.78 29.91,74.9 29.91,75.02 29.91,75.13 30.03,75.13 30.14,75.25 
	30.14,75.36 30.26,75.36 30.14,75.36 30.14,75.48 30.14,75.6 30.03,75.6 29.91,75.6 29.79,75.6 29.79,75.71 29.79,75.83 
	29.91,75.83 29.91,76.06 30.03,76.06 30.14,76.06 30.26,76.06 30.26,76.18 30.37,76.18 30.49,76.18 30.61,76.18 30.61,76.29 
	30.72,76.29 30.61,76.29 30.61,76.41 30.49,76.41 30.49,76.53 30.49,76.64 30.49,76.76 30.37,76.64 30.14,76.53 30.03,76.53 
	30.14,76.64 30.03,76.76 30.14,76.76 30.03,76.76 30.03,76.87 30.03,76.99 30.14,76.99 30.26,77.11 30.37,77.11 30.37,77.22 
	30.26,77.34 30.14,77.45 30.03,77.45 29.91,77.45 29.79,77.57 29.79,77.69 29.68,77.69 29.68,77.57 29.56,77.57 29.56,77.45 
	29.44,77.45 29.44,77.57 29.33,77.57 29.33,77.69 29.21,77.69 29.21,77.8 29.1,77.8 28.98,77.92 28.86,77.92 28.86,78.04 
	28.98,78.15 29.1,78.27 29.33,78.5 29.44,78.62 29.44,78.73 29.56,78.73 29.56,78.85 29.44,78.85 29.21,78.85 29.1,78.73 
	28.98,78.73 28.63,78.73 28.52,78.73 28.4,78.73 28.17,78.62 27.59,78.38 27.47,78.27 27.24,78.27 27.01,78.15 26.89,78.15 
	26.77,78.04 26.66,78.04 26.43,77.92 26.31,77.92 26.31,77.8 26.31,77.69 26.19,77.69 26.08,77.69 26.08,77.57 26.08,77.45 
	25.96,77.45 25.73,77.34 25.61,77.34 25.5,77.34 25.38,77.34 25.26,77.34 25.15,77.45 25.03,77.34 24.92,77.34 24.92,77.45 
	24.8,77.45 24.68,77.45 24.57,77.45 24.45,77.57 24.34,77.69 24.34,77.8 24.22,77.8 24.1,77.8 24.1,77.69 23.99,77.69 23.99,77.57 
	23.87,77.57 23.75,77.57 23.75,77.8 23.64,77.8 23.64,77.92 23.64,78.04 23.52,78.04 23.41,78.04 23.29,78.04 23.29,78.15 
	23.17,78.15 23.06,78.15 23.06,78.04 22.94,78.04 22.94,78.15 23.06,78.27 23.06,78.38 23.06,78.5 23.17,78.73 23.17,78.85 
	23.06,78.85 22.94,78.96 22.83,78.96 22.83,79.08 22.71,79.2 22.71,79.31 22.59,79.31 22.48,79.31 22.36,79.43 22.25,79.43 
	22.13,79.43 22.01,79.43 21.9,79.43 21.9,79.54 21.78,79.54 21.66,79.54 21.55,79.43 21.55,79.54 21.43,79.54 21.32,79.54 
	21.2,79.54 21.2,79.66 21.32,79.66 21.2,79.66 21.2,79.78 21.08,79.78 20.97,79.78 20.97,79.66 20.85,79.66 20.97,79.78 
	20.85,79.78 20.74,79.78 20.62,79.78 20.5,79.78 20.5,79.89 20.39,79.89 20.27,79.89 20.27,79.78 20.15,79.78 20.15,79.66 
	20.04,79.66 20.04,79.54 20.04,79.43 20.04,79.31 19.92,79.31 19.81,79.31 19.81,79.2 19.69,79.2 19.69,79.08 19.57,79.08 
	19.46,78.96 19.46,79.08 19.34,79.2 19.34,79.31 19.23,79.31 19.11,79.31 18.99,79.31 18.99,79.2 18.88,79.2 18.88,79.31 
	18.88,79.43 18.76,79.43 18.65,79.43 18.53,79.43 18.53,79.54 18.53,79.66 18.41,79.66 18.3,79.66 18.3,79.54 18.3,79.43 
	18.41,79.31 18.41,79.2 18.3,79.08 18.3,79.2 18.18,79.2 18.06,79.2 17.95,79.2 17.95,79.08 17.95,78.96 17.83,78.96 17.95,78.96 
	17.95,78.85 17.83,78.85 17.83,78.96 17.72,78.96 17.72,79.08 17.72,79.2 17.6,79.2 17.72,79.2 17.72,79.31 17.6,79.31 17.48,79.31 
	17.48,79.43 17.37,79.43 17.25,79.43 17.25,79.31 17.14,79.31 17.02,79.43 16.9,79.54 16.9,79.43 16.79,79.43 16.67,79.43 
	16.56,79.43 16.44,79.43 16.44,79.54 16.44,79.66 16.32,79.66 16.21,79.66 16.21,79.78 16.09,79.78 16.09,79.89 15.97,79.89 
	15.97,80.01 15.86,80.01 15.74,80.01 15.63,80.01 15.51,80.01 15.39,80.01 15.16,79.89 15.05,79.89 14.93,79.89 14.81,79.89 
	14.81,79.78 14.7,79.78 14.58,79.66 14.58,79.54 14.47,79.31 14.47,79.2 14.35,79.08 14.23,78.96 14.23,78.85 14.23,78.73 
	14.12,78.73 14,78.62 13.88,78.62 13.65,78.5 13.3,78.27 13.07,78.27 12.84,78.15 12.72,78.04 12.61,78.04 12.37,77.92 12.26,77.92 
	12.03,77.8 11.91,77.8 11.79,77.69 11.68,77.69 11.56,77.57 11.56,77.45 11.56,77.34 11.45,77.22 11.45,77.11 11.45,76.87 
	11.45,76.76 11.45,76.53 11.33,76.18 11.33,76.06 11.33,75.83 11.33,75.71 11.33,75.6 11.21,75.48 11.21,75.25 11.21,75.13 
	11.21,75.02 11.21,74.78 11.1,74.67 11.1,74.55 11.1,74.44 11.21,74.32 11.1,74.32 11.1,74.09 11.21,73.86 11.21,73.74 11.21,73.62 
	11.21,73.51 11.21,73.39 11.1,73.27 10.98,73.04 10.98,72.93 10.87,72.69 10.87,72.46 10.87,72.35 10.87,72.23 10.87,72.11 
	10.75,71.88 10.75,71.76 10.63,71.65 10.52,71.53 10.52,71.42 10.52,71.3 10.52,71.18 10.63,71.18 10.63,71.07 10.63,70.95 
	10.75,70.95 10.87,70.95 10.87,70.84 10.87,70.72 10.87,70.6 10.75,70.49 10.75,70.37 10.75,70.26 10.75,70.14 10.75,69.91 
	10.75,69.79 10.75,69.67 10.63,69.56 10.52,69.44 10.4,69.44 10.17,69.44 10.05,69.44 9.94,69.44 9.7,69.44 9.59,69.44 9.36,69.44 
	9.24,69.33 9.12,69.33 9.01,69.33 8.78,69.33 8.66,69.33 8.54,69.44 8.43,69.44 8.31,69.44 8.19,69.33 8.08,69.33 8.08,69.21 
	8.08,68.98 7.96,68.98 7.96,68.86 7.85,68.75 7.96,68.63 8.08,68.51 8.19,68.51 8.19,68.4 8.43,68.17 8.43,68.05 8.43,67.93 
	8.43,67.82 8.54,67.82 8.54,67.7 8.54,67.58 8.66,67.58 8.66,67.47 8.66,67.35 8.66,67.24 8.78,67.12 8.89,67.12 8.89,67 
	8.89,66.77 9.01,66.77 9.12,66.66 9.24,66.66 9.36,66.66 9.47,66.66 9.59,66.54 9.82,66.66 9.94,66.66 10.05,66.66 10.17,66.66 
	10.17,66.77 10.17,66.89 10.28,66.89 10.28,67 10.4,67 10.52,67 10.63,66.89 10.75,66.89 10.87,67 10.87,66.89 10.98,66.89 
	11.1,66.89 11.21,66.89 11.21,67 11.33,67 11.33,66.89 11.45,66.89 11.56,66.89 11.68,66.89 11.79,67 11.79,66.89 11.91,66.89 
	12.03,66.89 12.14,66.89 12.26,66.89 12.26,66.77 12.37,66.77 12.37,66.66 12.26,66.66 12.26,66.54 12.37,66.54 12.37,66.42 
	12.26,66.42 12.26,66.31 12.26,66.19 12.26,66.08 12.14,66.08 12.14,65.96 12.26,65.96 12.26,65.84 12.14,65.84 12.14,65.73 
	12.14,65.61 12.14,65.49 12.03,65.38 11.91,65.15 11.79,64.91 11.68,64.68 11.56,64.57 11.56,64.33 11.56,64.22 11.56,64.1 
	11.56,63.99 11.79,63.99 11.79,63.87 11.91,63.87 12.03,63.87 12.14,63.75 12.26,63.64 12.37,63.64 12.37,63.52 12.61,63.4 
	12.84,63.29 12.96,63.17 13.07,63.06 13.19,63.06 13.3,62.82 13.42,62.71 13.54,62.71 13.54,62.59 13.65,62.48 13.65,62.36 
	13.65,62.24 13.65,62.13 13.65,62.01 13.65,61.89 13.65,61.78 13.65,61.66 13.54,61.2 13.54,61.08 13.54,60.85 13.42,60.62 
	13.42,60.5 13.42,60.39 13.54,60.27 13.54,60.15 13.54,60.04 13.65,60.04 13.65,59.92 13.77,59.8 13.88,59.8 14,59.8 14.12,59.8 
	14.23,59.92 14.35,60.04 14.7,60.04 14.81,60.15 15.05,60.27 15.16,60.27 15.28,60.27 15.39,60.27 15.51,60.27 15.63,60.27 
	15.74,60.27 15.74,60.15 15.86,60.15 15.97,60.15 15.97,60.04 16.09,60.04 16.21,60.04 16.21,59.92 16.32,60.04 16.32,59.92 
	16.44,59.92 16.56,59.92 16.56,59.8 16.67,59.92 16.79,59.92 16.9,59.92 17.02,59.92 17.02,60.04 17.14,60.15 17.25,60.15 
	17.37,60.15 17.37,60.27 17.37,60.39 17.48,60.39 17.48,60.5 17.37,60.5 17.48,60.62 17.48,60.73 17.37,60.73 17.25,60.73 
	17.14,60.73 17.14,60.85 17.25,60.85 17.37,60.97 17.48,60.97 17.6,60.97 17.72,60.97 17.83,60.97 17.95,60.97 18.06,60.97 
	17.95,60.97 17.95,61.08 17.95,61.2 17.95,61.31 18.06,61.31 18.18,61.31 18.18,61.2 18.3,61.08 18.3,60.97 18.41,60.97 
	18.53,60.62 18.65,60.5 18.65,60.39 18.65,60.27 18.65,60.15 18.65,60.04 18.53,60.04 18.41,60.04 18.3,59.92 18.41,59.8 18.3,59.8 
	18.3,59.69 18.18,59.69 18.18,59.8 18.06,59.8 17.95,59.92 17.83,59.92 17.83,59.8 17.72,59.69 17.83,59.69 17.83,59.57 
	17.83,59.46 17.83,59.34 17.83,59.22 17.83,59.11 17.83,58.88 17.83,58.64 17.83,58.53 17.83,58.41 17.95,58.3 18.06,58.3 
	18.18,58.18 18.3,58.18 18.41,58.18 18.53,58.18 18.76,58.18 18.88,58.18 18.99,58.18 19.11,58.18 19.23,58.18 19.34,58.18 
	19.46,58.18 19.69,58.18 19.81,58.06 19.92,58.06 20.04,58.06 20.15,58.06 20.27,58.06 20.27,58.18 20.39,58.18 20.5,58.18 
	20.5,58.3 20.5,58.18 20.62,58.3 20.74,58.3 20.74,58.41 20.85,58.41 20.97,58.53 20.97,58.41 21.08,58.53 21.08,58.41 21.2,58.41 
	21.2,58.53 21.2,58.64 21.32,58.64 21.43,58.64 21.55,58.64 21.66,58.64 21.66,58.53 21.78,58.53 21.9,58.53 21.9,58.41 
	22.01,58.41 22.01,58.3 22.13,58.3 22.13,58.18 22.25,58.18 22.25,58.06 22.36,58.06 22.36,58.18 22.48,58.18 22.48,58.3 
	22.48,58.41 22.59,58.41 22.59,58.3 22.59,58.41 22.71,58.41 22.71,58.3 22.83,58.41 22.83,58.3 22.83,58.41 22.83,58.3 22.94,58.3 
	22.94,58.18 23.06,58.18 23.06,58.06 23.17,58.06 23.29,58.06 23.29,57.95 23.17,57.95 23.06,57.95 23.17,57.83 23.17,57.71 
	23.29,57.71 23.29,57.83 23.41,57.83 23.41,57.95 23.52,57.95 23.52,57.83 23.64,57.83 23.64,57.71 23.64,57.6 23.75,57.6 
	23.75,57.71 23.75,57.6 23.75,57.48 23.75,57.37 23.75,57.25 23.75,57.13 23.64,57.13 23.75,57.13 23.75,57.02 23.75,56.9 
	23.87,56.9 23.87,56.79 23.87,56.67 23.87,56.55 23.99,56.55 24.1,56.55 24.22,56.55 24.34,56.55 24.45,56.55 24.45,56.44 
	24.45,56.32 24.57,56.32 24.45,56.21 24.45,56.09 24.34,56.09 24.34,55.97 24.22,55.97 24.22,55.86 24.22,55.74 24.34,55.74 
	24.34,55.62 24.22,55.62 24.22,55.51 24.34,55.51 24.34,55.39 24.34,55.28 24.22,55.28 24.34,55.28 24.34,55.16 24.34,55.28 
	24.45,55.28 24.57,55.28 24.45,55.16 24.45,55.04 24.34,55.04 24.34,54.93 24.22,54.93 24.34,54.93 24.45,54.81 24.34,54.81 
	24.34,54.7 24.34,54.58 24.34,54.46 24.22,54.23 24.22,53.65 24.22,53.53 24.22,53.42 24.1,53.3 24.1,53.19 24.1,53.07 23.99,53.07 
	23.87,53.07 23.75,53.07 23.75,52.95 23.64,52.95 23.64,52.84 23.75,52.84 23.75,52.72 23.87,52.84 23.99,52.72 23.99,52.84 
	24.1,52.84 24.22,52.84 24.34,52.72 24.34,52.61 24.22,52.61 24.22,52.49 24.22,52.61 24.1,52.61 23.99,52.49 23.99,52.61 
	23.87,52.61 23.75,52.61 23.75,52.49 23.75,52.37 23.75,52.26 23.87,52.26 23.87,52.14 23.87,52.03 23.75,52.03 23.64,52.03 
	23.52,52.03 23.52,51.91 23.52,51.79 23.41,51.79 23.41,51.68 23.41,51.56 23.41,51.44 23.41,51.33 23.29,51.33 23.17,51.44 
	23.06,51.44 23.06,51.56 23.06,51.68 22.94,51.68 22.83,51.68 22.83,51.56 22.94,51.56 22.83,51.56 22.94,51.56 22.94,51.44 
	22.83,51.44 22.71,51.44 22.71,51.33 22.59,51.44 22.59,51.33 22.48,51.33 22.36,51.33 22.25,51.33 22.25,51.21 22.36,51.21 
	22.36,51.1 22.48,50.98 22.36,50.98 22.48,50.98 22.48,50.86 22.48,50.75 22.36,50.75 22.25,50.75 22.25,50.86 22.25,50.98 
	22.13,50.98 22.13,50.86 22.01,50.86 22.01,50.75 22.01,50.63 22.01,50.75 21.9,50.75 21.78,50.75 21.78,50.63 21.78,50.52 
	21.66,50.52 21.66,50.63 21.66,50.52 21.55,50.52 21.55,50.4 21.66,50.4 21.66,50.28 21.55,50.28 21.43,50.28 21.32,50.28 
	21.43,50.28 21.43,50.17 21.32,50.17 21.2,50.17 21.32,50.05 21.2,50.05 21.08,50.05 20.97,50.05 20.97,50.17 20.85,50.17 
	20.85,50.28 20.74,50.28 20.62,50.28 20.5,50.17 20.39,50.17 20.27,50.17 20.27,50.05 20.15,50.05 20.15,50.17 20.04,50.17 
	20.04,50.05 19.92,49.93 19.92,49.82 19.92,49.7 19.92,49.59 19.81,49.59 19.81,49.47 19.92,49.47 19.92,49.35 19.81,49.35 
	19.81,49.47 19.69,49.47 19.57,49.47 19.57,49.35 19.46,49.35 19.46,49.47 19.34,49.35 19.23,49.35 19.23,49.24 19.11,49.24 
	19.11,49.12 18.99,49.12 18.88,49.12 18.76,49.12 18.76,49.01 18.65,49.01 18.65,48.89 18.53,48.89 18.53,48.77 18.41,48.77 
	18.41,48.66 18.3,48.66 18.18,48.66 18.18,48.54 18.3,48.54 18.18,48.54 18.18,48.43 18.06,48.43 18.06,48.31 17.95,48.19 
	17.95,48.08 17.83,48.08 17.72,47.96 17.6,47.96 17.6,47.84 17.48,47.84 17.6,47.84 17.6,47.73 17.6,47.61 17.48,47.61 17.6,47.61 
	17.6,47.5 17.6,47.38 17.6,47.26 17.6,47.15 17.6,47.03 17.48,47.03 17.37,47.03 17.25,47.03 17.25,46.92 17.25,47.03 17.14,47.03 
	17.14,46.92 17.02,46.92 17.02,46.8 17.02,46.68 16.9,46.68 16.9,46.57 16.9,46.45 16.9,46.34 16.9,46.22 16.9,46.1 16.9,45.99 
	16.79,45.99 16.79,45.87 16.79,45.75 16.79,45.64 16.79,45.52 16.67,45.52 16.56,45.52 16.56,45.64 16.44,45.64 16.44,45.52 
	16.32,45.52 16.32,45.64 16.21,45.52 16.21,45.41 16.21,45.29 16.09,45.29 15.97,45.41 15.86,45.41 15.86,45.52 15.74,45.52 
	15.74,45.64 15.63,45.64 15.51,45.64 15.51,45.75 15.39,45.75 15.39,45.87 15.28,45.99 15.16,45.99 15.16,46.1 15.05,46.1 
	15.05,45.99 14.93,45.99 14.81,45.99 14.7,45.99 14.7,45.87 14.7,45.75 14.58,45.64 14.47,45.52 14.35,45.52 14.35,45.41 
	14.23,45.41 14.23,45.52 14.12,45.52 14,45.41 13.88,45.41 13.77,45.41 13.88,45.41 13.88,45.29 13.88,45.17 13.88,45.06 
	13.88,44.94 14,44.94 14,44.83 13.88,44.83 13.88,44.71 14,44.71 14,44.59 14.12,44.59 14.12,44.48 14.12,44.36 14,44.36 
	13.88,44.36 13.88,44.25 13.88,44.13 13.88,44.01 13.88,43.9 13.88,43.78 13.88,43.66 13.88,43.55 14,43.43 13.88,43.43 
	13.88,43.32 14,43.32 14,43.2 13.88,43.2 13.88,43.08 13.88,42.97 14,42.97 14.12,42.97 14.23,42.97 14.23,42.85 14.35,42.85 
	14.35,42.74 14.47,42.74 14.58,42.62 14.58,42.5 14.58,42.39 14.7,42.39 14.7,42.27 14.58,42.27 14.47,42.27 14.58,42.16 
	14.58,42.04 14.58,41.92 14.58,41.81 14.47,41.81 14.47,41.69 14.47,41.57 14.47,41.46 14.47,41.34 14.58,41.34 14.58,41.23 
	14.58,41.11 14.47,40.99 14.47,40.88 14.35,40.88 14.35,40.76 14.23,40.65 14.23,40.53 14.23,40.41 14.23,40.53 14.12,40.41 
	14,40.3 14.12,40.3 14.12,40.18 14.12,40.06 14.23,40.06 14.23,39.95 14.35,39.83 14.23,39.83 14.12,39.83 14,39.72 14,39.6 
	14,39.48 14.12,39.48 14.12,39.37 14.23,39.37 14.35,39.37 14.35,39.25 14.47,39.25 14.47,39.37 14.58,39.37 14.7,39.48 
	14.81,39.48 14.93,39.48 15.05,39.48 15.16,39.48 15.16,39.6 15.28,39.6 15.39,39.6 15.39,39.72 15.51,39.72 15.51,39.6 
	15.51,39.48 15.63,39.48 15.63,39.37 15.74,39.37 15.74,39.25 15.86,39.25 15.86,39.14 15.97,39.14 16.09,39.14 16.21,39.14 
	16.32,39.14 16.44,39.14 16.56,39.14 16.56,39.02 16.67,39.02 16.67,38.9 16.67,38.79 16.67,38.67 16.79,38.56 16.79,38.44 
	16.9,38.32 17.02,38.32 17.14,38.21 17.14,38.32 17.25,38.44 17.25,38.56 17.37,38.56 17.48,38.67 17.48,38.79 17.48,38.9 
	17.48,39.02 17.6,39.02 17.72,39.02 17.72,39.14 17.72,39.02 17.83,39.02 17.95,39.02 17.95,39.14 18.06,39.14 18.06,39.25 
	18.18,39.25 18.18,39.37 18.3,39.25 18.41,39.37 18.53,39.37 18.53,39.48 18.65,39.48 18.65,39.6 18.53,39.6 18.65,39.72 
	18.76,39.6 18.88,39.72 18.99,39.72 19.11,39.72 19.11,39.83 19.11,39.72 19.23,39.72 19.23,39.6 19.34,39.6 19.34,39.37 
	19.23,39.25 19.23,39.14 19.34,39.14 19.34,39.02 19.34,38.9 19.46,38.9 19.46,38.79 19.57,38.79 19.57,38.67 19.46,38.67 
	19.57,38.56 19.69,38.56 19.69,38.67 19.81,38.67 19.92,38.67 19.92,38.79 20.04,38.79 20.15,38.79 20.27,38.79 20.39,38.79 
	20.39,38.67 20.5,38.67 20.5,38.56 20.62,38.56 20.74,38.56 20.97,38.56 21.08,38.56 21.2,38.56 21.32,38.56 21.43,38.67 
	21.9,38.67 22.01,38.56 22.13,38.44 22.25,38.32 22.36,38.32 22.48,38.21 22.59,38.21 22.83,38.21 22.94,38.21 23.06,38.09 
	23.41,37.86 23.64,37.63 23.75,37.51 23.99,37.39 24.1,37.39 24.22,37.28 24.45,37.28 24.57,37.28 24.68,37.28 24.68,37.16 
	24.92,37.16 25.15,37.16 25.26,37.16 25.38,37.16 25.5,37.16 25.61,37.05 25.84,37.05 25.96,37.05 26.19,36.93 26.43,36.93 
	26.54,36.81 26.66,36.81 26.89,36.7 27.01,36.58 27.35,36.58 27.47,36.58 27.59,36.58 27.82,36.7 27.93,36.93 28.05,37.05 
	28.17,37.16 28.28,37.28 28.28,37.39 28.4,37.51 28.4,37.74 28.52,37.74 28.52,37.86 28.63,37.97 28.75,37.97 28.75,37.86 
	28.86,37.86 28.98,37.86 29.1,37.86 29.21,37.86 29.33,37.74 29.44,37.74 29.68,37.51 29.79,37.39 30.03,37.16 30.61,36.81 
	31.07,36.35 31.19,36.23 31.42,36.12 31.53,35.88 31.77,35.77 31.88,35.65 32.12,35.54 32.23,35.42 32.46,35.3 32.7,35.19 
	32.81,35.07 33.16,34.84 33.28,34.72 33.39,34.61 33.39,34.49 33.51,34.38 33.62,34.26 33.62,34.14 33.62,34.03 33.62,33.91 
	33.62,33.79 33.39,33.56 33.28,33.33 33.28,33.21 33.28,33.1 33.28,32.98 33.28,32.87 33.28,32.75 33.16,32.52 33.16,32.4 
	33.16,32.29 33.16,32.17 33.16,32.05 33.04,31.59 33.04,31.36 32.93,31.12 32.93,30.89 32.81,30.66 32.81,30.43 32.81,30.2 
	32.7,30.08 32.7,29.85 32.58,29.61 32.58,29.5 32.58,29.38 32.58,29.27 32.58,29.15 32.58,29.03 32.58,28.92 32.58,28.8 32.7,28.69 
	32.7,28.45 32.7,28.34 32.81,28.22 32.81,28.1 32.7,27.76 32.7,27.64 32.7,27.52 32.7,27.41 32.7,27.29 32.81,27.18 32.81,27.06 
	32.93,26.94 33.04,26.83 33.16,26.83 33.28,26.83 33.39,26.83 33.39,26.71 33.51,26.71 33.51,26.6 33.62,26.6 33.86,26.6 
	34.09,26.6 34.21,26.6 34.32,26.48 34.32,26.36 34.44,26.25 34.55,26.13 34.67,25.9 34.79,25.9 34.9,25.78 35.02,25.78 35.25,25.55 
	35.37,25.55 35.48,25.55 35.71,25.43 35.83,25.43 36.06,25.43 36.3,25.43 36.41,25.43 36.53,25.32 36.64,25.2 36.88,25.09 
	36.99,25.09 37.11,25.2 37.34,25.2 37.46,25.32 37.69,25.43 37.81,25.43 37.92,25.55 38.04,25.67 38.27,25.67 38.39,25.55 
	38.5,25.43 38.5,25.2 38.62,25.09 38.62,24.97 38.5,24.74 38.62,24.62 38.73,24.51 38.85,24.39 39.08,24.39 39.2,24.51 39.31,24.51 
	39.43,24.51 39.66,24.51 39.66,24.39 39.78,24.27 40.01,24.51 40.13,24.62 40.24,24.62 40.48,24.62 40.59,24.51 40.71,24.39 
	40.82,24.39 41.06,24.39 41.17,24.27 41.29,24.27 41.41,24.16 41.52,24.16 41.64,24.04 41.75,23.92 41.87,23.92 41.99,23.81 
	42.1,23.69 42.33,23.58 42.45,23.58 42.45,23.34 42.91,23.46 43.38,23.34 43.5,23.23 43.61,23.11 43.84,23.11 43.96,23.11 
	44.19,22.88 44.42,22.88 44.54,22.76 44.66,22.53 44.77,22.3 44.77,22.18 44.89,22.18 45,22.3 45.12,22.42 45.35,22.42 45.47,22.42 
	45.7,22.3 45.82,22.18 45.93,22.18 46.17,22.07 46.28,21.95 46.4,22.18 46.51,22.42 46.75,22.42 46.86,22.42 47.09,22.3 47.33,22.3 
	47.44,22.3 47.56,22.18 47.68,22.3 47.79,22.3 48.02,22.3 48.14,22.42 48.26,22.42 48.37,22.42 48.49,22.42 48.6,22.42 48.84,22.3 
	48.95,22.18 49.07,22.18 49.18,22.07 49.42,21.95 49.88,22.18 49.88,22.3 49.88,22.53 50,22.65 50,22.76 50.11,23 50.23,23.11 
	50.35,23.11 50.35,23.23 50.46,23.23 50.46,23.34 50.46,23.23 50.58,23.23 50.58,23.11 50.69,23.11 50.58,23.11 50.58,23 50.69,23 
	50.69,22.88 50.69,23 50.81,23 50.81,23.11 50.93,23 51.04,23 51.04,22.88 51.16,22.88 51.16,22.76 51.28,22.76 51.39,22.76 
	51.51,22.76 51.62,22.76 51.62,22.65 51.74,22.53 51.86,22.53 51.97,22.53 51.97,22.42 52.09,22.42 52.2,22.42 52.2,22.53 
	52.32,22.53 52.44,22.53 52.55,22.53 52.67,22.53 52.78,22.53 52.9,22.53 53.02,22.53 53.25,22.42 53.37,22.42 53.48,22.42 
	53.6,22.42 53.6,22.3 53.71,22.3 53.71,22.18 53.83,22.18 53.95,22.18 54.06,22.18 54.06,22.07 54.18,22.07 54.29,22.07 
	54.41,22.18 54.41,22.07 54.53,22.07 54.64,22.18 54.76,22.18 54.88,22.18 54.99,22.18 55.11,22.3 55.22,22.3 55.34,22.3 
	55.34,22.18 55.46,22.18 55.57,22.18 55.69,22.07 55.8,22.07 55.92,22.07 55.92,21.95 56.04,21.83 56.15,21.83 56.15,21.72 
	56.27,21.72 56.27,21.6 56.27,21.49 56.27,21.37 56.27,21.25 56.27,21.14 56.27,21.02 56.27,20.91 56.27,20.79 56.27,20.67 
	56.27,20.44 56.27,20.33 56.38,20.21 56.5,20.21 56.5,20.09 56.62,19.98 56.62,19.86 56.62,19.74 56.62,19.63 56.73,19.51 
	56.85,19.28 56.97,19.28 56.97,19.16 57.08,19.05 57.2,18.93 57.31,18.93 57.43,18.93 57.55,18.82 57.66,18.82 57.78,18.58 
	57.89,18.58 58.01,18.58 58.13,18.58 58.24,18.58 58.36,18.58 58.47,18.58 58.59,18.58 58.71,18.58 58.82,18.58 58.94,18.58 
	59.06,18.47 58.94,18.23 58.94,18.12 58.94,18 58.94,17.89 58.94,17.77 58.82,17.65 58.82,17.54 58.71,17.54 58.71,17.42 
	58.71,17.31 58.82,17.31 58.82,17.19 58.94,17.19 59.06,17.19 59.17,17.19 59.29,17.19 59.4,17.19 59.52,17.19 59.52,17.07 
	59.64,16.96 59.75,16.96 59.75,16.84 59.87,16.84 59.98,16.84 60.1,16.84 60.22,16.73 60.33,16.73 60.45,16.73 60.56,16.73 
	60.56,16.61 60.68,16.61 60.68,16.49 60.8,16.38 60.91,16.26 61.03,16.26 61.26,16.03 61.38,15.91 61.49,15.91 61.49,15.8 
	61.61,15.68 61.61,15.56 61.73,15.45 61.84,15.33 61.84,15.22 61.96,15.1 62.07,15.1 62.19,15.1 62.31,14.98 62.42,14.98 
	62.42,14.87 62.54,14.87 62.65,14.75 62.77,14.75 62.89,14.75 62.89,14.64 63,14.64 63.12,14.64 63.12,14.52 63.24,14.52 
	63.35,14.52 63.47,14.52 63.58,14.52 63.7,14.52 63.82,14.52 63.93,14.4 64.05,14.4 64.16,14.4 64.16,14.29 64.28,14.29 64.4,14.29 
	64.51,14.17 64.63,14.17 64.75,14.17 64.86,14.05 64.98,13.94 65.09,13.82 65.21,13.59 65.21,13.36 65.33,13.24 65.33,13.13 
	65.44,13.01 65.44,12.89 65.44,12.78 65.56,12.78 65.67,12.66 65.79,12.66 65.79,12.55 65.91,12.55 65.91,12.43 66.14,12.43 
	66.14,12.31 66.25,12.2 66.37,12.2 66.37,12.08 66.37,11.96 66.49,11.96 66.6,11.96 66.72,11.96 66.72,11.85 66.72,11.73 
	66.84,11.38 66.84,11.27 66.95,11.27 67.07,11.15 67.18,11.15 67.3,11.04 67.3,10.92 67.3,10.8 67.3,10.69 67.3,10.57 67.3,10.46 
	67.3,10.22 67.3,10.11 67.42,9.87 67.42,9.76 67.53,9.76 67.65,9.64 67.65,9.53 67.76,9.53 67.88,9.53 68,9.53 68,9.41 68,9.29 
	68.11,9.29 68.11,9.18 68.23,9.06 68.35,9.06 68.35,8.95 68.35,8.83 68.35,8.71 68.46,8.6 68.58,8.48 68.69,8.25 68.81,8.02 
	68.93,7.9 68.93,7.78 69.04,7.67 69.04,7.55 69.04,7.44 69.04,7.32 69.16,7.32 69.27,7.2 69.39,7.2 69.51,7.09 69.62,6.97 
	69.85,6.97 69.97,6.86 70.09,6.86 70.2,6.86 70.32,6.86 70.44,6.86 70.55,6.86 70.67,6.74 70.78,6.74 70.9,6.74 70.9,6.62 
	71.02,6.62 71.13,6.62 71.25,6.62 71.36,6.62 71.36,6.51 71.48,6.39 71.6,6.27 71.71,6.16 71.83,6.16 71.83,6.04 71.83,5.93 
	71.83,5.81 71.94,5.81 71.94,5.69 71.94,5.58 71.94,5.46 72.06,5.46 72.06,5.35 72.18,5.35 72.18,5.23 72.18,5.11 72.29,4.88 
	72.41,4.77 72.29,4.65 72.29,4.53 72.29,4.42 72.41,4.42 72.41,4.3 72.53,4.3 72.53,4.18 72.53,4.07 72.64,3.95 72.64,3.84 
	72.76,3.84 72.76,3.72 72.76,3.6 72.87,3.49 72.99,3.37 73.11,3.26 73.22,3.14 73.22,3.02 73.22,2.91 73.34,2.79 73.45,2.68 
	73.57,2.56 73.57,2.44 73.69,2.33 73.8,2.33 73.92,2.33 73.92,2.21 74.03,2.21 74.15,2.21 74.27,2.21 74.38,2.09 74.5,2.09 
	74.62,2.09 74.73,1.98 74.73,2.09 74.85,2.09 74.85,1.98 74.96,1.98 75.08,1.98 75.2,2.09 75.31,2.09 75.43,2.09 75.54,2.09 
	75.66,2.09 75.78,2.09 75.78,2.21 75.78,2.33 75.78,2.56 75.89,2.68 75.89,2.79 75.89,2.91 76.01,2.91 76.01,3.02 76.12,3.02 
	76.24,3.14 76.36,3.14 76.47,3.14 76.59,3.02 76.59,3.14 76.71,3.14 76.71,3.02 76.82,3.02 76.82,3.14 76.94,3.26 77.05,3.26 
	77.17,3.26 77.29,3.14 77.4,3.14 77.52,3.14 77.63,3.14 77.75,3.02 77.87,3.02 77.87,2.91 77.98,2.91 78.1,2.91 78.22,2.91 
	78.33,3.02 78.45,3.02 78.56,3.02 78.68,3.02 78.8,3.02 78.91,3.02 79.03,3.02 79.03,2.91 79.14,2.91 79.26,2.91 79.38,2.79 
	79.49,2.79 79.61,2.68 79.72,2.56 79.84,2.44 79.96,2.44 79.96,2.33 80.07,2.33 80.07,2.21 80.19,2.21 80.19,2.09 80.31,2.09 
	80.31,1.98 80.42,1.86 80.42,1.75 80.54,1.63 80.54,1.51 80.65,1.4 80.65,1.28 80.65,1.17 80.77,1.17 80.77,1.05 80.89,0.93 
	80.89,0.82 80.89,0.7 80.89,0.59 81,0.47 81,0.35 81,0.24 81.12,0.12 81.23,0.12 81.23,0.24 81.35,0.24 81.35,0.35 81.47,0.47 
	81.47,0.59 81.58,0.59 81.7,0.59 81.82,0.7 81.93,0.7 82.05,0.7 82.16,0.7 82.28,0.82 82.28,0.93 82.28,1.17 82.28,1.28 82.16,1.28 
	82.16,1.4 82.16,1.51 82.16,1.63 82.05,1.75 82.05,1.86 82.05,1.98 82.05,2.09 82.16,2.33 82.16,2.44 82.05,2.44 82.05,2.56 
	82.16,2.56 82.16,2.68 82.16,2.79 82.05,2.91 81.93,3.02 81.82,3.02 81.93,3.02 82.05,3.02 82.16,3.02 82.28,3.02 82.4,3.02 
	82.51,3.02 82.4,3.14 82.4,3.26 82.28,3.49 82.28,3.6 82.16,3.72 82.05,3.84 82.05,3.95 81.93,4.07 81.93,4.18 81.93,4.3 81.82,4.3 
	81.82,4.42 81.7,4.42 81.58,4.42 81.58,4.53 81.47,4.53 81.47,4.65 81.35,4.65 81.35,4.77 81.47,4.77 81.47,4.88 81.35,4.88 
	81.35,5 81.35,5.11 81.35,5.23 81.35,5.35 81.23,5.35 81.35,5.46 81.35,5.58 81.23,5.58 81.35,5.58 81.47,5.69 81.58,5.81 
	81.58,5.93 81.47,6.04 81.35,6.16 81.47,6.16 81.47,6.27 81.47,6.39 81.35,6.39 81.35,6.51 81.35,6.62 81.47,6.74 81.58,6.86 
	81.58,6.97 81.47,7.09 81.47,7.2 81.47,7.32 81.47,7.44 81.47,7.67 81.47,7.78 81.47,7.9 81.47,8.02 81.35,8.13 81.35,8.25 
	81.35,8.36 81.35,8.48 81.35,8.6 81.23,8.6 81.12,8.6 81.12,8.71 81.12,8.83 81.12,8.95 81,9.06 81,9.18 80.89,9.18 80.77,9.18 
	80.77,9.29 80.77,9.41 80.65,9.53 80.54,9.64 80.54,9.76 80.54,9.87 80.42,9.99 80.42,10.11 80.31,10.11 80.19,10.11 80.19,10.22 
	80.07,10.22 79.96,10.22 79.84,10.22 79.84,10.34 79.84,10.46 79.84,10.57 79.84,10.69 79.84,10.8 79.84,10.92 79.72,10.92 
	79.72,11.04 79.72,11.15 79.72,11.27 79.72,11.38 79.84,11.5 79.84,11.62 "/>
</svg>
