<?xml version="1.0" encoding="utf-8"?>
<!-- Generator: Adobe Illustrator 24.2.1, SVG Export Plug-In . SVG Version: 6.00 Build 0)  -->
<svg version="1.1" id="Layer_1" xmlns="http://www.w3.org/2000/svg" xmlns:xlink="http://www.w3.org/1999/xlink" x="0px" y="0px"
	 viewBox="0 0 97.23 97.23" style="enable-background:new 0 0 97.23 97.23;" xml:space="preserve">
<style type="text/css">
	.st0{fill-rule:evenodd;clip-rule:evenodd;fill:#1D1D1B;}
</style>
<polygon class="st0" points="97.3,35.02 97.3,35.37 97.3,35.55 97.3,35.73 97.12,35.73 97.12,35.9 97.12,36.08 97.12,36.25 
	96.95,36.43 96.95,36.61 96.95,36.78 96.77,36.96 96.77,37.13 96.77,37.31 96.6,37.49 96.6,37.66 96.6,37.84 96.42,37.84 
	96.42,38.01 96.42,38.19 96.42,38.37 96.42,38.54 96.6,38.72 96.6,38.9 96.6,39.07 96.6,39.25 96.6,39.42 96.6,39.6 96.6,39.78 
	96.6,39.95 96.6,40.13 96.42,40.3 96.24,40.48 96.07,40.66 96.07,40.83 95.89,40.83 95.89,41.01 95.71,41.18 95.71,41.36 
	95.54,41.36 95.36,41.54 95.19,41.54 95.19,41.71 95.01,41.71 94.83,41.71 94.66,41.71 94.48,41.71 94.48,41.89 94.31,41.89 
	94.13,41.71 93.95,41.71 93.95,41.89 93.78,41.89 93.78,42.07 93.6,42.24 93.6,42.42 93.42,42.42 93.42,42.59 93.25,42.59 
	93.07,42.59 93.07,42.42 92.9,42.42 92.72,42.42 92.54,42.42 92.54,42.59 92.54,42.42 92.37,42.59 92.37,42.77 92.54,42.95 
	92.54,43.12 92.37,43.12 92.19,43.12 92.19,42.95 92.02,42.95 92.02,43.12 92.02,42.95 91.84,42.95 91.84,42.77 91.84,42.95 
	91.66,42.95 91.66,42.77 91.66,42.95 91.49,42.95 91.49,43.12 91.31,43.12 91.31,43.3 91.31,43.47 91.13,43.47 91.13,43.65 
	90.96,43.83 90.78,44.18 90.78,44.36 90.96,44.36 90.96,44.53 90.96,44.71 91.13,44.71 91.13,44.88 91.13,45.06 91.31,45.24 
	91.13,45.41 91.13,45.59 91.13,46.29 90.96,46.64 90.61,47 90.43,47 90.08,47 89.37,47 89.02,47.17 88.32,47.35 87.79,47.53 
	87.08,47.53 86.56,47.35 86.03,47.53 85.15,47.7 84.44,47.88 83.39,48.23 82.86,48.41 82.86,48.58 82.68,48.58 82.5,48.58 
	82.33,48.58 82.15,48.58 81.98,48.58 81.98,48.76 81.8,48.76 81.62,48.93 81.45,48.93 81.27,48.93 81.1,48.93 80.92,49.11 
	80.74,49.29 80.57,49.46 80.57,49.64 80.57,49.81 80.39,49.81 80.39,49.99 80.39,50.17 80.21,50.17 80.21,50.34 80.21,50.52 
	80.39,50.52 80.39,50.7 80.39,50.87 80.39,51.4 80.74,52.28 80.57,52.28 80.57,52.46 80.74,52.46 80.74,52.63 80.74,52.81 
	80.92,52.99 80.92,53.16 80.92,52.99 80.92,53.16 80.92,53.34 80.92,53.51 80.92,53.69 80.92,53.87 80.92,54.04 80.92,54.22 
	80.92,54.39 80.92,54.57 80.74,54.75 80.57,54.75 80.57,54.92 80.57,55.1 80.74,55.1 80.74,55.28 80.74,55.45 80.74,55.63 
	80.92,55.63 80.92,55.8 80.92,55.98 81.1,55.98 81.27,55.98 81.27,56.16 81.45,56.33 81.45,56.51 81.45,56.68 81.45,56.86 
	81.45,57.04 81.45,56.86 81.45,57.04 81.45,57.21 81.62,57.21 81.62,57.04 81.62,57.21 81.8,57.04 81.8,57.21 81.8,57.04 
	81.98,57.04 81.98,57.21 81.98,57.39 81.98,57.56 81.98,57.74 81.8,57.74 81.62,57.74 81.45,57.92 81.27,57.92 81.1,57.92 
	81.1,58.09 81.1,57.92 80.92,57.92 80.74,57.74 80.74,57.56 80.57,57.56 80.57,57.74 80.21,57.74 80.04,57.74 79.86,57.74 
	79.86,57.56 79.86,57.39 79.69,57.39 79.69,57.56 79.51,57.56 79.51,57.39 79.51,57.21 79.33,57.04 79.16,57.21 79.16,57.39 
	78.98,57.39 78.81,57.39 78.81,57.56 78.63,57.39 78.28,57.39 78.45,57.56 78.28,57.56 78.1,57.56 77.92,57.74 77.92,57.92 
	78.1,57.92 78.1,58.09 77.92,58.09 77.92,58.27 77.75,58.27 77.75,58.45 77.75,58.62 77.57,58.62 77.57,58.8 77.75,58.8 
	77.75,58.97 77.75,59.15 77.57,59.33 77.57,59.5 77.4,59.5 77.4,59.68 77.57,59.68 77.4,59.68 77.4,59.85 77.4,60.03 77.57,60.03 
	77.57,60.21 77.57,60.38 77.4,60.38 77.22,60.38 77.22,60.56 77.4,60.56 77.57,60.73 77.57,60.91 77.57,61.09 77.57,61.44 
	77.57,61.62 77.57,61.79 77.57,61.97 77.57,62.14 77.57,62.32 77.75,62.5 77.75,62.67 77.75,62.85 77.75,63.02 77.92,63.2 
	77.92,63.38 77.92,63.55 77.92,63.38 77.92,63.55 78.1,63.55 78.1,63.73 78.28,63.73 78.28,63.9 78.45,63.9 78.28,63.9 78.45,63.9 
	78.28,64.08 78.45,64.08 78.45,64.26 78.63,64.26 78.45,64.43 78.63,64.43 78.63,64.61 78.81,64.61 78.81,64.79 78.81,64.96 
	78.98,64.96 78.98,65.14 78.98,64.96 78.98,65.14 79.16,65.14 79.16,65.31 79.33,65.31 79.51,65.31 79.51,65.49 79.51,65.67 
	79.69,65.67 79.69,66.19 79.51,66.72 79.33,67.08 79.16,67.43 79.33,67.96 79.33,68.31 79.51,68.66 79.51,69.01 79.51,69.54 
	79.69,69.89 79.86,69.89 79.86,70.07 79.86,69.89 79.86,70.07 80.04,70.07 79.86,70.07 80.04,70.07 80.04,69.89 80.04,70.07 
	80.04,69.89 80.21,69.89 80.21,70.07 80.21,70.25 80.39,70.07 80.57,70.07 80.57,70.25 80.74,70.25 80.92,70.25 81.1,70.25 
	81.27,70.25 81.27,70.42 81.45,70.42 81.27,70.42 81.27,70.6 81.45,70.6 81.45,70.42 81.45,70.6 81.62,70.6 81.62,70.77 
	81.62,70.95 81.62,71.13 81.8,71.13 81.8,71.3 81.8,71.48 81.8,71.65 81.8,71.83 81.62,72.36 81.62,72.71 81.62,73.42 81.45,74.12 
	81.45,74.47 81.27,75 80.92,75.18 80.57,75.53 80.04,75.71 79.86,75.71 79.69,75.71 79.51,75.71 79.33,75.71 79.33,75.88 
	79.16,75.88 79.16,76.06 78.98,76.06 78.98,76.23 78.98,76.41 79.16,76.41 79.16,76.59 79.33,76.59 79.51,76.76 79.51,76.59 
	79.51,76.76 79.69,76.76 79.86,76.76 80.04,76.76 80.04,76.94 80.21,76.94 80.21,77.11 80.39,77.11 80.21,77.11 80.39,77.11 
	80.39,77.29 80.57,77.29 80.57,77.47 80.74,77.47 80.74,77.64 80.74,77.47 80.92,77.47 80.92,77.64 81.1,77.64 80.92,77.64 
	81.1,77.64 81.1,77.82 81.1,77.64 81.27,77.64 81.1,78.17 80.92,79.23 80.92,79.4 81.1,79.4 81.1,79.58 81.1,79.76 80.92,79.76 
	81.1,79.76 81.1,79.93 80.92,79.93 81.1,79.93 81.1,80.11 80.92,80.11 80.92,80.28 81.1,80.28 81.1,80.46 81.1,80.64 81.27,80.64 
	81.1,80.81 81.27,80.81 81.27,80.99 81.1,80.99 81.1,81.17 81.27,81.17 81.27,81.34 81.45,81.52 81.27,81.52 81.45,81.52 
	81.45,81.69 81.45,81.87 81.45,81.69 81.45,81.87 81.62,82.05 81.45,82.05 81.45,82.22 81.62,82.22 81.62,82.4 81.45,82.4 
	81.62,82.4 81.45,82.4 81.45,82.57 81.62,82.57 81.45,82.75 81.62,82.75 81.62,82.93 81.8,82.93 81.8,83.1 81.62,83.1 81.8,83.1 
	81.8,83.28 81.62,83.28 81.62,83.45 81.8,83.45 81.62,83.63 81.8,83.63 81.62,83.63 81.62,83.81 81.8,83.81 81.62,83.81 
	81.62,83.98 81.62,84.16 81.8,84.16 81.8,84.34 81.8,84.51 81.98,84.51 81.98,84.69 81.98,84.86 81.8,84.86 81.98,85.04 
	81.98,85.22 81.98,85.39 81.98,85.57 81.8,85.57 81.8,85.74 81.98,85.74 81.98,85.92 81.8,85.92 81.98,85.92 81.8,85.92 81.8,86.1 
	81.8,86.27 81.8,86.1 81.8,86.27 81.8,86.45 81.62,86.45 81.62,86.62 81.62,86.8 81.62,86.98 81.45,86.98 81.27,86.98 81.1,86.98 
	81.1,87.15 81.1,87.33 81.27,87.33 81.27,87.51 81.45,87.51 81.45,87.86 81.8,88.03 82.15,88.21 82.33,88.56 82.5,88.91 
	82.68,89.09 82.33,89.44 82.15,89.44 81.98,89.44 81.62,89.62 81.8,90.32 81.8,90.85 81.8,91.03 81.45,91.2 80.74,91.56 
	79.86,91.38 78.98,91.2 78.81,91.2 78.81,91.38 78.63,91.38 78.45,91.38 78.45,91.56 78.45,91.38 78.45,91.56 78.28,91.56 
	78.28,91.73 78.1,91.73 78.1,91.91 78.1,92.09 78.28,92.09 78.28,92.26 78.45,92.26 78.45,92.44 78.45,92.61 78.63,92.61 
	78.45,92.61 78.63,92.61 78.63,92.79 78.63,92.61 78.63,92.79 78.63,92.97 78.63,93.14 78.63,93.32 78.81,93.32 78.98,93.32 
	78.98,93.49 78.81,93.49 78.63,93.49 78.63,93.32 78.45,93.49 78.45,93.32 78.28,93.32 78.28,93.49 78.1,93.49 78.1,93.32 
	77.92,93.32 77.92,93.49 77.92,93.32 77.75,93.49 77.75,93.32 77.75,93.49 77.57,93.49 77.4,93.49 77.4,93.67 77.22,93.67 
	77.22,93.85 77.04,93.85 77.04,93.67 76.87,93.67 76.69,93.67 76.52,93.67 76.52,93.85 76.34,93.85 76.16,93.85 75.99,93.67 
	75.81,93.49 75.46,92.79 75.28,92.26 74.93,91.91 74.58,91.56 74.05,91.2 73.87,91.03 73.7,89.97 73.7,89.27 73.35,88.74 
	72.99,88.56 71.41,88.39 71.23,88.21 70.7,87.68 70.7,87.51 70.53,87.51 70.53,87.33 70.53,87.15 70.53,86.98 70.7,86.98 
	70.53,86.98 70.53,86.8 70.53,86.98 70.53,86.8 70.7,86.8 70.7,86.62 70.7,86.45 70.88,86.45 70.88,86.27 71.06,86.27 71.06,86.1 
	71.06,85.92 70.88,85.92 70.88,85.74 71.06,85.74 70.88,85.74 70.88,85.57 70.88,85.39 70.88,85.22 71.06,85.22 71.06,85.04 
	70.88,85.04 70.88,84.86 70.88,84.69 70.7,84.69 70.7,84.51 70.88,84.51 70.88,84.34 71.06,84.34 71.06,84.16 71.06,83.98 
	71.06,83.81 71.23,83.45 71.23,82.75 71.06,82.05 70.88,81.69 70.88,81.52 70.7,81.52 70.53,81.52 70.35,81.34 69.82,81.17 
	69.65,80.99 69.47,81.17 69.29,81.17 69.12,81.17 68.94,81.17 68.77,81.17 68.59,80.99 68.41,80.99 68.24,80.99 68.06,80.99 
	67.89,81.17 67.71,81.34 67.53,81.17 67.18,80.99 67,80.81 66.83,80.81 66.83,80.46 66.65,80.46 66.3,79.4 66.3,79.23 66.3,79.05 
	66.3,78.88 66.3,78.7 66.3,78.52 66.12,78.7 66.12,78.52 65.95,78.35 65.95,78.17 65.95,78 65.95,77.82 66.12,77.82 66.3,77.64 
	66.3,77.47 66.3,77.29 66.3,77.11 66.3,76.94 66.3,76.76 66.3,76.59 66.3,76.41 66.3,76.06 66.12,75.71 66.12,75.53 66.12,75.35 
	66.3,75.18 66.3,75 66.3,74.82 66.12,74.82 66.12,75 66.12,74.82 66.3,74.82 66.3,74.65 66.12,74.65 66.12,74.47 65.95,74.47 
	65.95,74.3 65.77,74.3 65.77,74.12 65.6,74.12 65.6,73.94 65.42,73.94 65.24,73.77 65.24,73.59 65.07,73.59 64.89,73.59 
	64.89,73.77 64.72,73.77 64.54,73.77 64.36,73.59 64.36,73.42 64.36,73.24 64.19,73.24 64.19,73.06 64.01,73.06 64.01,72.89 
	63.83,72.71 63.83,72.54 63.83,72.36 63.66,72.36 63.48,72.01 63.31,71.83 63.13,71.65 62.95,71.65 62.95,71.48 62.78,71.3 
	62.6,71.3 62.6,71.13 62.43,70.95 62.25,70.95 62.25,70.77 62.07,70.6 62.07,70.42 61.9,70.42 61.72,70.42 61.72,70.25 61.72,70.42 
	61.54,70.42 61.72,70.42 61.54,70.6 61.72,70.6 61.54,70.6 61.54,70.77 61.37,70.77 61.37,70.95 61.19,70.95 61.19,71.13 
	61.19,71.3 61.02,71.3 61.02,71.48 61.02,71.3 60.84,71.48 60.84,71.3 60.84,71.48 60.66,71.48 60.66,71.3 60.66,71.48 60.49,71.48 
	60.49,71.65 60.31,71.65 60.31,71.83 60.14,71.83 60.14,72.01 60.31,72.01 60.14,72.01 60.14,72.18 59.96,72.18 59.78,72.18 
	59.78,72.01 59.61,72.01 59.61,72.18 59.43,72.18 59.26,72.18 59.26,72.01 59.08,72.01 58.9,72.01 58.73,72.01 58.73,72.18 
	58.73,72.01 58.55,72.01 58.73,72.01 58.55,72.01 58.37,72.01 58.37,72.18 58.2,72.18 58.02,72.18 58.02,72.36 57.85,72.36 
	57.67,72.36 57.49,72.54 57.32,72.54 57.14,72.54 56.97,72.54 56.97,72.71 56.97,72.89 56.97,73.06 56.97,73.24 56.79,73.59 
	56.79,73.94 56.79,74.12 56.61,74.65 56.61,74.82 56.61,75 56.44,75.18 56.26,75.18 56.09,75.35 55.91,75.35 55.56,75.35 
	55.38,75.35 55.2,75.53 55.2,75.71 55.2,75.88 55.03,75.88 55.03,76.06 55.03,76.23 54.68,76.59 54.68,76.76 54.5,76.94 54.5,77.11 
	54.32,77.11 54.15,77.29 54.15,77.47 53.97,77.47 53.97,77.64 53.8,77.82 53.62,77.82 53.44,77.82 53.27,78 53.09,78 52.91,78 
	52.74,77.82 52.39,77.82 52.03,77.64 51.86,77.64 51.68,77.47 51.51,77.47 51.33,77.47 50.98,77.47 50.63,77.47 50.45,77.47 
	50.27,77.47 50.1,77.47 49.92,77.47 49.74,77.47 49.57,77.47 49.39,77.47 49.39,77.64 48.86,77.82 48.69,77.82 48.34,78 48.16,78 
	47.98,78 47.81,78 47.81,77.82 47.45,77.29 47.28,77.29 47.28,77.11 47.1,77.11 46.93,77.11 46.93,76.94 46.75,76.94 46.75,76.76 
	46.57,76.76 45.52,76.76 45.52,76.59 45.34,76.41 45.16,76.23 44.99,75.88 44.81,75.71 44.64,75.53 44.46,75.35 44.46,75.53 
	44.46,75.71 44.28,75.88 44.11,75.88 43.93,75.88 43.76,75.88 43.58,75.71 43.58,75.53 43.4,75.53 43.23,75.35 43.05,75.35 
	42.88,75.18 42.7,75 42.7,74.82 42.52,74.82 42.35,74.65 42.35,74.47 42.35,74.3 42.35,74.12 42.35,73.94 42.35,73.77 42.35,73.59 
	42.17,73.42 42.17,73.24 42.17,73.06 42.17,72.89 42.17,72.71 42.35,72.71 42.35,72.54 42.35,72.36 42.17,72.36 41.99,72.54 
	41.99,72.71 41.82,72.89 41.82,73.24 41.64,73.24 41.64,73.42 41.47,73.42 41.29,73.42 41.11,73.42 40.94,73.42 40.76,73.42 
	40.59,73.59 40.41,73.59 40.41,73.77 40.23,73.94 40.06,74.12 40.06,74.3 40.06,74.47 39.88,74.47 39.53,74.3 39.53,74.12 
	39.53,73.94 39.53,73.77 39.53,73.59 39.35,73.59 39.18,73.42 39,73.42 38.47,73.06 38.3,72.89 37.94,72.71 37.59,72.54 
	37.42,72.36 37.24,72.18 36.53,71.83 36.18,71.48 36.01,71.48 35.83,71.48 35.83,71.3 35.65,71.3 35.65,71.13 35.48,71.13 
	35.3,70.77 35.13,70.6 34.42,69.89 34.25,69.89 34.07,69.89 33.89,69.72 33.72,69.72 33.72,69.54 33.54,69.54 33.36,69.54 
	33.01,69.36 32.84,69.36 32.66,69.36 32.48,69.36 32.31,69.36 32.13,69.36 31.96,69.36 31.78,69.36 31.6,69.36 31.43,69.36 
	31.25,69.36 31.07,69.36 30.9,69.36 30.72,69.36 30.72,69.19 30.55,69.19 30.55,69.01 30.55,68.84 30.37,68.84 30.19,68.66 
	30.02,68.66 30.02,68.48 29.84,68.48 29.84,68.31 29.67,68.31 29.67,68.13 29.67,68.31 29.49,68.31 29.49,68.13 29.31,68.13 
	29.31,68.31 29.14,68.31 28.96,68.31 28.79,68.31 28.61,68.31 28.43,68.31 28.26,68.31 28.08,68.31 27.9,68.31 27.73,68.13 
	27.55,68.13 27.38,68.13 27.02,67.96 26.85,67.96 26.67,67.96 26.5,67.78 26.14,67.78 25.97,67.6 25.61,67.6 25.26,67.25 
	24.91,67.08 24.91,66.55 24.91,66.37 24.91,64.79 24.73,64.61 24.56,64.61 24.03,64.96 23.85,64.96 23.68,64.96 23.68,65.14 
	23.5,65.14 23.5,65.31 23.33,65.31 23.15,65.31 22.97,65.14 22.8,64.96 22.8,65.14 22.62,65.31 22.44,65.49 22.27,65.31 
	22.27,65.14 22.09,65.14 22.09,64.96 21.92,64.96 21.74,64.96 21.56,64.96 21.56,65.14 21.39,65.31 21.39,65.49 21.21,65.49 
	21.21,65.84 21.21,66.02 21.04,66.02 20.86,66.02 20.68,66.02 20.51,65.84 20.33,65.84 20.33,65.67 20.33,65.49 20.33,65.31 
	20.33,65.14 20.51,65.14 20.33,64.96 20.33,65.14 20.15,65.14 20.15,65.31 19.98,65.31 19.8,65.31 19.45,65.31 19.27,65.14 
	19.1,65.14 18.57,65.14 18.39,65.14 18.22,64.96 18.04,64.79 17.69,64.61 17.34,64.43 17.16,64.43 16.98,64.61 16.81,64.61 
	16.81,64.79 16.63,64.79 16.46,64.61 16.46,64.79 16.28,64.79 16.28,64.61 16.28,64.79 16.1,64.79 15.93,64.79 15.75,64.61 
	15.58,64.61 15.4,64.61 15.4,64.43 15.4,64.26 15.22,64.26 15.22,64.43 15.05,64.43 14.87,64.43 14.87,64.26 14.69,64.08 
	14.52,64.08 14.52,64.26 14.17,64.43 13.99,64.43 13.81,64.43 13.81,64.26 13.64,64.26 13.64,64.43 13.46,64.43 13.46,64.61 
	13.29,64.61 13.11,64.61 13.11,64.79 12.93,64.96 12.76,64.96 12.76,65.14 12.58,65.14 12.4,64.96 12.4,65.14 12.23,65.14 
	12.05,65.14 11.88,65.14 11.88,65.31 11.7,65.31 11.7,65.49 11.52,65.31 11.35,65.31 11.35,65.14 11.35,64.96 11.35,64.79 
	11.35,64.61 11.35,64.43 11.17,64.43 11.17,64.26 11,64.26 11,64.08 10.82,64.08 10.64,63.9 10.47,63.9 10.29,63.9 10.29,63.73 
	10.12,63.73 9.94,63.73 9.94,63.55 9.76,63.55 9.59,63.55 9.41,63.55 9.23,63.38 9.06,63.38 8.88,63.38 8.71,63.38 8.88,63.38 
	8.88,63.55 8.88,63.73 9.06,63.73 9.06,63.9 9.06,64.08 8.88,64.08 8.88,64.26 8.88,64.43 8.71,64.43 8.71,64.26 8.53,64.43 
	8.35,64.43 8.18,64.43 8,64.43 7.83,64.43 7.65,64.43 7.65,64.26 7.47,64.26 7.3,64.26 7.12,64.26 6.94,64.26 6.77,64.26 
	6.77,64.43 6.77,64.61 6.59,64.61 6.42,64.61 6.24,64.61 6.06,64.61 6.06,64.79 6.24,64.79 6.24,64.96 6.06,64.96 5.89,64.96 
	5.89,65.14 5.71,65.14 5.54,65.14 5.54,65.31 5.54,65.49 5.36,65.49 5.18,65.49 5.18,65.67 5.18,65.84 5.01,65.84 4.83,65.84 
	4.83,66.02 4.66,66.02 4.48,66.02 4.48,65.84 4.3,66.02 4.3,65.84 4.13,65.84 4.13,66.02 4.3,66.02 4.3,66.19 4.13,66.19 
	4.13,66.37 3.95,66.37 3.77,66.37 3.77,66.19 3.6,66.19 3.6,66.37 3.42,66.19 3.42,66.37 3.25,66.37 3.07,66.55 3.07,66.72 
	2.89,66.72 2.72,66.72 2.54,66.72 2.37,66.9 2.19,66.9 2.01,67.08 1.84,67.08 1.66,67.08 1.66,66.9 1.48,66.9 1.48,66.72 
	1.66,66.55 2.01,66.55 2.19,66.55 2.37,66.37 2.54,66.37 2.72,66.19 2.72,66.02 2.72,65.84 2.72,65.67 2.54,65.67 2.37,65.67 
	2.19,65.67 2.01,65.49 1.84,65.49 1.66,65.31 1.48,65.31 1.31,65.14 1.13,64.96 0.96,64.79 0.96,64.61 0.78,64.43 0.78,64.26 
	0.6,64.08 0.6,63.9 0.6,63.73 0.6,63.55 0.78,63.38 0.96,63.38 1.13,63.38 1.31,63.55 1.31,63.73 1.48,63.9 1.66,64.08 1.84,64.08 
	2.01,64.08 2.19,64.08 2.19,63.9 2.37,63.73 2.54,63.38 2.72,63.2 2.89,63.02 2.89,62.85 2.89,62.67 2.89,62.5 2.72,62.5 2.54,62.5 
	2.37,62.5 2.37,62.67 2.19,62.85 2.01,63.02 1.84,63.2 1.66,63.2 1.48,63.2 1.31,63.02 1.31,62.85 1.31,62.67 1.31,62.5 1.48,62.5 
	1.48,62.32 1.66,62.32 1.84,62.5 2.01,62.5 2.19,62.5 2.19,62.32 2.19,62.14 2.19,61.97 2.01,61.97 1.84,61.79 1.84,61.62 
	1.84,61.44 2.01,61.44 2.01,61.26 2.01,61.09 1.84,60.91 1.84,60.73 2.01,60.56 2.01,60.38 2.19,60.38 2.19,60.21 2.37,59.85 
	2.54,59.85 2.54,59.68 2.72,59.68 2.72,59.5 2.72,59.33 2.72,59.15 2.72,58.97 2.72,58.8 2.72,58.62 2.72,58.45 2.54,58.45 
	2.54,58.62 2.37,58.62 2.37,58.8 2.19,58.8 2.19,58.97 2.01,58.97 1.84,58.97 1.84,58.8 1.84,58.62 2.01,58.45 2.01,58.27 
	2.19,58.27 2.19,58.09 2.19,57.92 2.01,57.74 2.01,57.56 2.01,57.39 2.01,57.21 2.01,57.04 1.84,56.86 1.84,56.68 1.66,56.51 
	1.48,56.33 1.48,56.16 1.48,55.98 1.48,55.8 1.48,55.63 1.31,55.63 1.13,55.63 0.96,55.63 0.78,55.63 0.78,55.45 0.6,55.45 
	0.6,55.28 0.43,55.28 0.43,55.1 0.43,54.92 0.6,54.92 0.6,54.75 0.78,54.75 0.96,54.57 0.96,54.39 0.96,54.22 0.78,54.22 
	0.78,54.04 0.78,53.87 0.78,53.69 0.78,53.51 0.78,53.34 0.6,53.16 0.6,52.99 0.6,52.63 0.6,52.46 0.6,52.28 0.6,52.1 0.6,51.93 
	0.43,51.75 0.43,51.58 0.6,51.58 0.78,51.58 0.96,51.58 0.96,51.75 0.96,51.93 0.96,52.1 1.13,52.1 1.31,52.1 1.48,51.93 
	1.66,51.93 1.84,51.75 2.01,51.75 2.01,51.58 2.19,51.58 2.19,51.4 2.37,51.4 2.37,51.58 2.54,51.58 2.72,51.58 2.89,51.58 
	3.07,51.58 3.07,51.4 2.89,51.22 2.89,51.05 3.07,51.05 3.07,50.87 3.25,50.87 3.25,51.05 3.42,51.05 3.42,51.22 3.42,51.4 
	3.6,51.4 3.6,51.22 3.6,51.05 3.6,50.87 3.77,50.7 3.77,50.52 3.95,50.52 3.95,50.7 4.13,50.87 4.13,51.05 4.3,51.05 4.3,50.87 
	4.48,50.87 4.48,50.7 4.3,50.7 4.3,50.52 4.48,50.52 4.66,50.52 4.83,50.52 5.01,50.52 5.18,50.52 5.36,50.34 5.54,50.34 
	5.54,50.17 5.71,50.17 5.89,50.17 6.06,50.17 6.06,50.34 6.24,50.34 6.24,50.17 6.24,49.99 6.06,49.81 6.06,49.64 6.06,49.46 
	5.89,49.46 5.89,49.29 6.06,49.11 6.24,49.29 6.42,49.29 6.59,49.29 6.59,49.11 6.42,49.11 6.42,48.93 6.24,48.93 6.24,48.76 
	6.24,48.58 6.42,48.58 6.42,48.41 6.59,48.41 6.59,48.23 6.59,48.05 6.59,47.88 6.77,47.7 6.94,47.53 6.94,47.35 6.77,47.35 
	6.77,47.17 6.77,47 6.94,47 7.12,47 7.3,47 7.3,46.82 7.47,46.82 7.47,46.64 7.65,46.64 7.65,46.47 7.83,46.29 7.83,46.12 
	7.83,45.94 8,45.94 8.18,46.12 8.35,46.12 8.53,46.12 8.71,46.12 8.71,46.29 8.88,46.29 9.06,46.29 9.23,46.29 9.23,46.12 
	9.41,46.12 9.41,45.94 9.59,45.94 9.59,45.76 9.76,45.76 9.94,45.59 9.94,45.41 10.12,45.41 10.12,45.59 10.29,45.59 10.29,45.76 
	10.47,45.76 10.47,45.59 10.64,45.59 10.82,45.59 11,45.59 11.17,45.59 11.35,45.59 11.35,45.41 11.52,45.41 11.7,45.41 
	12.05,45.41 12.4,45.24 12.58,45.24 12.76,45.41 12.93,45.41 12.93,45.24 13.11,45.24 13.29,45.41 13.46,45.41 13.64,45.41 
	13.81,45.41 13.99,45.41 14.17,45.41 14.17,45.59 14.17,45.76 14.34,45.94 14.34,45.76 14.52,45.94 14.34,45.94 14.34,46.12 
	14.52,46.12 14.69,46.12 14.69,46.29 14.87,46.29 14.87,46.47 15.05,46.47 15.05,46.29 15.05,46.12 15.22,46.12 15.22,45.94 
	15.4,45.94 15.75,45.76 15.93,45.76 15.93,45.59 15.93,45.41 16.1,45.41 16.1,45.24 16.1,45.06 16.28,44.88 16.28,44.71 
	16.46,44.71 16.63,44.53 16.63,44.36 16.81,44.36 16.81,44.18 16.81,44 16.98,44 17.16,44 17.34,44.18 17.51,44.18 17.51,44.36 
	17.51,44.53 17.51,44.71 17.51,44.88 17.69,44.88 17.69,45.06 17.69,45.24 17.86,45.41 17.86,45.24 18.04,45.24 18.22,45.24 
	18.39,45.24 18.39,45.41 18.57,45.41 18.57,45.24 18.57,45.06 18.57,44.88 18.57,44.71 18.57,44.53 18.75,44.53 18.75,44.36 
	18.75,44.18 18.75,44 18.75,43.83 18.57,43.65 18.57,43.47 18.57,43.3 18.57,43.12 18.39,43.12 18.39,42.95 18.22,42.77 
	18.04,42.77 18.04,42.59 17.86,42.42 17.86,42.24 17.69,42.24 17.69,42.07 17.51,41.89 17.34,41.71 17.34,41.54 17.34,41.36 
	17.34,41.18 17.34,41.01 17.34,40.83 17.34,40.66 17.34,40.48 17.34,40.3 17.34,40.13 17.34,39.95 17.16,39.95 17.16,39.78 
	16.98,39.6 16.98,39.42 16.81,39.42 16.81,39.25 16.63,39.07 16.46,39.07 16.28,39.07 16.1,38.9 15.93,38.9 15.75,38.72 
	15.58,38.72 15.58,38.54 15.58,38.37 15.4,38.37 15.4,38.19 15.22,38.19 15.22,38.01 15.05,38.01 15.05,37.84 15.22,37.84 
	15.22,37.66 15.22,37.49 15.22,37.31 15.22,37.13 15.4,37.13 15.4,36.96 15.4,36.78 15.4,36.61 15.4,36.43 15.4,36.25 15.4,36.08 
	15.58,36.08 15.58,35.9 15.75,35.9 15.75,35.73 15.93,35.73 16.1,35.73 16.1,35.55 16.1,35.37 16.28,35.37 16.28,35.55 16.46,35.55 
	16.46,35.37 16.28,35.37 16.46,35.37 16.46,35.2 16.63,35.2 16.63,35.02 16.81,35.02 16.81,34.84 16.81,35.02 16.98,35.02 
	16.98,34.84 17.16,34.84 17.34,34.84 17.51,34.84 17.51,34.67 17.51,34.49 17.69,34.49 17.51,34.49 17.51,34.32 17.69,34.14 
	17.69,33.96 17.86,33.96 17.86,33.79 18.04,33.79 18.04,33.96 18.22,33.96 18.22,33.79 18.04,33.79 18.22,33.79 18.39,33.79 
	18.57,33.61 18.75,33.61 18.92,33.61 18.92,33.44 19.1,33.44 19.27,33.26 19.45,33.08 19.45,32.91 19.63,32.91 19.63,32.73 
	19.8,32.73 19.98,32.73 19.98,32.55 20.15,32.38 20.33,32.38 20.33,32.2 20.51,32.2 20.68,32.03 20.68,31.85 20.86,31.85 
	20.86,31.67 21.04,31.67 21.04,31.5 21.04,31.32 21.21,31.32 21.39,31.32 21.56,31.32 21.56,31.15 21.74,31.15 21.74,30.97 
	21.92,30.97 22.09,30.97 22.09,30.79 22.27,30.79 22.44,30.79 22.62,30.79 22.62,30.97 22.8,30.97 22.8,30.79 22.97,30.79 
	23.15,30.79 23.15,30.62 23.33,30.62 23.5,30.62 23.68,30.62 23.68,30.44 23.85,30.26 23.85,30.09 23.85,29.91 24.03,29.91 
	24.21,29.91 24.21,29.74 24.21,29.91 24.38,29.91 24.56,29.91 24.73,29.91 24.56,29.91 24.56,29.74 24.56,29.56 24.73,29.56 
	24.73,29.38 24.91,29.38 24.91,29.21 24.91,29.03 25.09,29.03 25.09,28.86 24.91,28.86 24.91,28.68 24.91,28.5 25.09,28.5 
	25.09,28.33 24.91,28.33 24.91,28.15 24.73,28.15 24.73,27.98 24.73,27.8 24.91,27.62 24.91,27.45 24.91,27.27 24.73,27.45 
	24.56,27.27 24.38,27.27 24.38,27.09 24.38,26.92 24.38,26.74 24.38,26.57 24.56,26.57 24.56,26.39 24.56,26.21 24.56,26.04 
	24.73,26.04 24.73,25.86 24.56,25.86 24.56,25.69 24.38,25.51 24.21,25.33 24.21,25.16 24.21,24.98 24.38,24.98 24.38,25.16 
	24.38,24.98 24.56,24.98 24.56,24.81 24.56,24.63 24.56,24.45 24.73,24.45 24.73,24.28 24.73,24.1 24.73,23.92 24.56,23.75 
	24.56,23.57 24.73,23.4 25.09,23.4 25.44,23.4 25.61,23.4 25.79,23.4 25.97,23.57 26.14,23.57 26.14,23.75 26.32,23.75 26.32,23.92 
	26.5,24.1 26.67,24.28 26.85,24.45 27.02,24.63 27.02,24.81 27.2,24.98 27.38,25.16 27.55,25.33 27.73,25.51 27.9,25.51 
	28.08,25.51 28.26,25.51 28.43,25.33 28.61,25.33 28.79,25.33 28.96,25.33 29.14,25.16 29.31,25.16 29.49,25.16 29.67,25.16 
	29.84,25.16 30.02,25.33 30.19,25.33 30.37,25.33 30.55,25.33 30.72,25.16 30.9,25.16 31.07,25.16 31.25,25.33 31.43,25.33 
	31.6,25.33 31.6,25.16 31.78,25.16 31.96,24.98 32.13,24.98 32.31,24.81 32.48,24.81 32.66,24.45 32.84,24.45 33.01,24.45 
	33.01,24.63 33.19,24.63 33.36,24.63 33.36,24.45 33.54,24.63 33.72,24.63 33.72,24.45 33.89,24.45 33.89,24.28 34.07,24.28 
	34.07,24.1 34.25,24.1 34.42,24.1 34.42,23.92 34.6,23.92 34.6,24.1 34.77,24.28 34.95,24.28 35.13,24.28 35.13,24.45 35.3,24.45 
	35.48,24.63 35.65,24.45 35.83,24.28 36.01,24.1 36.18,24.1 36.18,23.92 36.18,23.75 36.18,23.57 36.18,23.4 36.18,23.22 
	36.18,22.87 36.18,22.69 36.18,22.52 36.18,22.34 36.18,21.99 36.18,21.81 36.18,21.64 36.18,21.46 36.18,21.28 36.18,20.93 
	36.18,20.75 36.36,20.58 36.36,20.4 36.53,20.23 36.71,20.05 36.89,19.87 36.89,19.7 36.89,19.52 36.71,19.52 36.53,19.52 
	36.36,19.35 36.18,19.17 36.01,18.99 36.01,18.82 36.01,18.64 35.83,18.64 35.83,18.46 35.83,18.29 35.83,18.11 35.83,17.76 
	36.01,17.58 36.01,17.41 36.01,17.23 36.01,17.06 35.83,17.06 35.83,16.88 35.65,16.7 35.48,16.7 35.3,16.7 35.3,16.53 35.13,16.35 
	34.95,16.18 34.77,16.18 34.6,16 34.6,15.82 34.42,15.82 34.42,15.65 34.42,15.47 34.42,15.29 34.42,15.12 34.25,14.94 34.07,14.77 
	33.89,14.59 33.89,14.41 33.89,14.24 33.89,14.06 33.72,13.89 33.54,13.71 33.36,13.53 33.01,13.53 32.84,13.36 32.66,13.18 
	32.48,13 32.31,13 32.13,12.83 31.96,12.65 31.78,12.48 31.43,12.48 31.25,12.3 31.07,12.12 30.9,12.12 30.72,11.95 30.55,11.95 
	30.37,11.95 30.37,11.77 30.19,11.77 29.84,11.6 29.67,11.6 29.49,11.6 29.49,11.24 29.49,11.07 29.67,10.89 29.84,10.71 
	30.02,10.36 30.19,10.19 30.19,10.01 30.19,9.83 30.19,9.66 30.19,9.48 30.19,9.31 30.37,9.31 30.37,9.13 30.37,8.95 30.37,8.78 
	30.37,8.6 30.55,8.6 30.72,8.43 30.9,8.43 30.9,8.25 30.9,8.07 30.9,7.9 30.72,7.72 30.72,7.54 30.55,7.54 30.37,7.54 30.37,7.37 
	30.19,7.19 30.19,7.02 30.02,6.84 29.84,6.66 29.84,6.49 29.84,6.31 29.84,6.14 30.02,6.14 30.02,5.96 29.84,5.96 29.84,5.78 
	29.84,5.61 30.02,5.61 30.19,5.61 30.55,5.43 30.72,5.26 30.9,5.26 31.43,4.9 31.6,4.9 31.96,4.73 32.13,4.55 32.48,4.55 
	32.66,4.37 32.84,4.37 33.01,4.37 33.19,4.2 33.36,4.37 33.54,4.37 33.72,4.37 33.89,4.2 34.07,4.02 34.25,4.02 34.42,4.02 
	34.6,3.85 34.77,4.02 34.95,4.02 34.95,4.2 34.95,4.37 35.13,4.55 35.3,4.73 35.3,4.9 35.3,5.08 35.65,5.26 35.83,5.43 36.01,5.61 
	36.18,5.96 36.36,6.14 36.53,6.31 36.71,6.49 36.89,6.66 37.06,6.66 37.24,6.84 37.42,6.84 37.77,7.02 37.94,7.02 38.3,7.19 
	38.47,7.37 38.82,7.54 39,7.54 39.53,7.72 39.71,7.72 40.06,7.72 40.23,7.72 40.41,7.72 40.41,7.54 40.59,7.37 40.59,7.19 
	40.59,7.02 40.59,6.84 40.76,6.66 40.94,6.66 41.11,6.66 41.29,6.66 41.64,6.66 41.82,6.66 41.99,6.66 42.17,6.66 42.35,6.66 
	42.7,6.66 43.05,6.66 43.23,6.66 43.58,6.66 43.76,6.66 44.11,6.49 44.46,6.31 44.64,6.31 44.81,6.31 44.99,6.31 45.16,6.31 
	45.52,6.31 45.69,6.31 45.87,6.31 46.05,6.31 46.22,6.49 46.4,6.66 46.4,6.49 46.57,6.49 46.75,6.49 46.93,6.49 46.93,6.66 
	47.1,6.66 47.28,6.84 47.45,6.84 47.63,7.02 47.98,7.02 48.16,7.19 48.34,7.19 48.34,7.37 48.51,7.37 48.34,7.54 48.34,7.9 
	48.16,8.07 48.16,8.25 47.98,8.25 48.16,8.43 48.16,8.6 48.34,8.6 48.51,8.78 48.69,8.78 48.86,8.78 49.04,8.95 49.04,9.13 
	49.22,9.31 49.22,9.48 49.39,9.66 49.57,9.66 49.92,9.48 50.1,9.48 50.27,9.48 50.27,9.31 50.45,9.48 50.8,9.48 50.98,9.66 
	51.15,9.83 51.15,10.01 51.15,10.36 50.98,10.54 50.98,10.71 50.98,10.89 51.15,10.89 51.15,11.07 51.33,11.07 51.51,10.89 
	51.68,10.89 51.86,10.89 51.86,11.07 52.03,11.24 52.21,11.42 52.39,11.6 52.39,11.77 52.56,11.95 52.91,12.12 53.09,12.48 
	53.44,12.65 53.62,12.83 53.8,13.18 53.97,13.36 54.32,13.53 54.5,13.71 54.68,13.89 54.85,14.06 55.03,14.24 55.2,14.24 
	55.2,14.41 55.38,14.59 55.56,14.59 55.56,14.77 55.73,14.94 55.73,15.12 55.91,15.29 55.91,15.47 56.26,15.65 56.26,15.82 
	56.44,16 56.61,16.18 56.97,16.35 57.14,16.53 57.32,16.7 57.32,16.88 57.49,17.06 57.67,17.23 57.85,17.23 58.02,17.23 
	58.02,17.41 58.37,17.58 58.73,17.94 58.9,18.11 59.08,18.46 59.26,18.64 59.43,18.64 59.61,18.82 59.78,18.99 60.14,19.17 
	60.14,19.35 60.31,19.35 60.31,19.52 60.49,19.52 60.66,19.52 60.66,19.35 60.84,19.35 60.84,19.17 61.02,19.17 61.02,18.99 
	61.19,18.99 61.19,18.82 61.19,18.64 61.19,18.46 61.19,18.29 61.19,18.11 61.37,17.94 61.37,17.76 61.37,17.58 61.19,17.41 
	61.19,17.23 61.19,17.06 61.19,16.88 61.19,16.7 61.02,16.53 61.02,16.35 61.02,16.18 61.02,16 61.02,15.82 61.19,15.65 
	61.19,15.47 61.37,15.47 61.54,15.65 61.72,15.82 61.9,15.82 62.07,15.82 62.25,15.82 62.43,15.82 62.6,15.82 62.6,15.65 
	62.78,15.65 62.95,15.65 63.13,15.47 63.31,15.47 63.31,15.29 63.48,15.29 63.48,15.47 63.66,15.47 63.83,15.47 63.83,15.29 
	63.83,15.12 64.01,15.12 64.19,15.12 64.36,14.94 64.36,14.77 64.36,14.59 64.19,14.41 64.36,14.41 64.54,14.41 64.72,14.41 
	64.89,14.41 65.07,14.24 65.07,14.06 65.24,14.06 65.24,14.24 65.42,14.24 65.42,14.41 65.6,14.41 65.77,14.41 65.77,14.24 
	65.95,14.24 65.95,14.41 66.12,14.41 66.3,14.59 66.48,14.77 66.65,14.77 66.83,14.94 67,15.12 67.18,15.29 67.36,15.29 
	67.53,15.29 67.71,15.29 67.89,15.12 68.06,15.12 68.24,15.12 68.41,15.12 68.59,15.12 68.77,14.94 68.94,14.77 68.94,14.59 
	69.12,14.59 69.12,14.24 69.12,14.06 69.29,13.89 69.29,13.71 69.47,13.71 69.65,13.71 69.82,13.71 70,13.53 70.18,13.53 
	70.18,13.36 70.35,13.36 70.53,13.53 70.35,13.71 70.35,13.89 70.18,14.06 70.18,14.24 70.18,14.41 70.18,14.59 70.18,14.77 
	70.35,14.94 70.53,14.94 70.7,14.94 70.88,15.12 71.06,15.12 71.23,15.29 71.23,15.47 71.41,15.47 71.58,15.47 71.76,15.65 
	71.94,15.65 72.11,15.82 72.29,15.82 72.29,16 72.46,16.18 72.64,16.18 72.82,16.35 72.82,16.53 72.99,16.7 73.17,16.88 
	73.17,17.06 73.35,17.06 73.52,17.23 73.52,17.41 73.7,17.41 73.87,17.58 73.87,17.76 74.05,17.76 74.23,17.76 74.4,17.76 
	74.58,17.76 74.75,17.76 74.75,17.94 74.93,17.94 75.11,17.76 75.28,17.94 75.28,18.11 75.28,18.29 75.28,18.11 75.46,18.11 
	75.46,17.94 75.64,17.94 75.64,17.76 75.64,17.58 75.64,17.41 75.64,17.23 75.81,17.06 75.99,17.06 76.16,17.06 76.34,17.23 
	76.52,17.41 76.69,17.41 77.04,17.41 77.22,17.41 77.4,17.41 77.57,17.41 77.75,17.23 77.92,17.06 78.1,16.88 78.28,16.88 
	78.28,17.06 78.45,17.06 78.45,16.88 78.63,16.88 78.63,17.06 78.81,17.06 78.81,17.23 78.98,17.23 79.16,17.23 79.33,17.23 
	79.33,17.41 79.33,17.58 79.51,17.76 79.69,17.76 79.69,17.94 79.86,17.94 79.86,18.11 79.86,18.29 80.04,18.46 80.04,18.64 
	80.21,18.82 80.21,18.99 80.21,19.17 80.39,19.17 80.39,19.35 80.39,19.52 80.57,19.52 80.57,19.7 80.74,19.87 80.92,19.87 
	81.1,19.87 81.27,19.87 81.45,19.7 81.62,19.7 81.62,19.52 81.8,19.35 81.98,19.17 82.15,18.99 82.15,18.64 82.33,18.46 
	82.33,18.29 82.15,18.29 82.15,18.11 82.33,18.11 82.5,18.11 82.5,18.29 82.68,18.29 82.86,18.29 83.03,18.29 83.21,18.29 
	83.21,18.46 83.39,18.46 83.56,18.46 83.74,18.46 83.91,18.46 84.09,18.46 84.27,18.64 84.79,18.64 84.97,18.64 84.97,18.46 
	85.15,18.64 85.5,18.64 85.67,18.46 85.85,18.46 86.03,18.46 86.2,18.99 86.2,19.17 86.38,19.7 86.38,19.87 86.38,20.23 
	86.38,20.58 86.38,21.11 86.03,21.28 85.85,21.46 85.5,21.64 85.15,21.64 84.79,21.64 84.62,21.99 84.62,22.34 84.44,22.69 
	84.27,22.87 84.27,23.04 84.09,23.4 84.09,23.57 83.74,23.92 83.56,24.1 83.39,24.1 83.21,24.28 82.68,24.45 81.98,24.45 
	81.62,24.63 80.74,24.98 80.92,25.16 80.92,25.33 80.92,25.51 81.1,25.69 81.45,25.69 81.62,25.69 82.15,25.69 82.33,25.69 
	82.5,25.86 82.68,25.86 82.86,26.04 83.39,26.21 83.91,26.39 84.09,26.39 84.27,26.39 84.44,26.57 84.62,26.39 84.79,26.57 
	84.62,26.57 84.62,26.74 83.91,27.09 83.91,27.27 83.74,27.27 83.56,27.27 83.39,27.45 83.21,27.45 83.21,27.62 83.39,27.62 
	83.56,27.62 83.74,27.62 83.74,27.8 83.91,27.8 84.27,27.98 84.44,27.98 84.62,28.15 84.79,28.33 84.97,28.33 85.15,28.33 
	85.32,28.5 85.67,28.5 85.85,28.68 85.85,28.86 86.03,29.03 86.2,29.03 86.2,29.21 86.38,29.38 86.56,29.38 86.73,29.38 
	86.73,29.56 86.91,29.56 87.08,29.74 87.26,29.74 87.44,29.91 87.61,29.91 87.79,29.91 87.79,30.09 87.96,30.09 88.14,30.09 
	88.32,30.09 88.49,30.09 88.67,30.09 88.85,30.26 89.02,30.26 89.2,30.26 89.37,30.44 89.55,30.44 89.73,30.44 89.9,30.44 
	90.08,30.62 90.25,30.62 90.25,30.79 90.43,30.97 90.43,31.15 90.61,31.32 90.61,31.5 90.78,31.5 90.96,31.67 91.13,31.67 
	91.31,31.85 91.49,31.85 91.66,32.03 91.84,32.03 92.02,32.2 92.19,32.38 92.37,32.55 92.54,32.55 92.72,32.73 92.72,32.91 
	92.9,33.08 93.07,33.26 93.25,33.44 93.42,33.61 93.6,33.79 93.78,33.96 93.95,33.96 94.13,33.96 94.31,33.96 94.48,34.14 
	94.66,34.14 94.83,34.14 95.01,34.14 95.19,34.14 95.36,34.14 95.36,34.32 95.54,34.32 95.71,34.49 95.89,34.49 96.07,34.49 
	96.24,34.49 96.42,34.49 96.6,34.67 96.77,34.84 96.95,34.84 97.12,35.02 "/>
</svg>
