<?xml version="1.0" encoding="utf-8"?>
<!-- Generator: Adobe Illustrator 24.2.1, SVG Export Plug-In . SVG Version: 6.00 Build 0)  -->
<svg version="1.1" id="Layer_1" xmlns="http://www.w3.org/2000/svg" xmlns:xlink="http://www.w3.org/1999/xlink" x="0px" y="0px"
	 viewBox="0 0 97.23 97.23" style="enable-background:new 0 0 97.23 97.23;" xml:space="preserve">
<style type="text/css">
	.st0{fill-rule:evenodd;clip-rule:evenodd;fill:#1D1D1B;}
</style>
<polygon class="st0" points="95.72,36.03 95.72,36.22 95.53,36.22 95.53,36.41 95.53,36.6 95.53,36.79 95.53,36.97 95.72,36.97 
	95.72,37.16 95.72,37.35 95.72,37.54 95.72,37.73 95.72,37.92 95.72,38.1 95.53,38.1 95.34,38.29 95.34,38.48 95.15,38.48 
	95.15,38.67 95.34,38.67 95.34,38.86 95.34,39.05 95.15,39.05 95.15,39.23 95.34,39.23 95.34,39.42 95.15,39.42 95.15,39.61 
	94.96,39.61 94.96,39.42 94.78,39.42 94.78,39.61 94.59,39.61 94.59,39.8 94.4,39.8 94.4,39.99 94.21,39.99 94.02,39.99 
	93.83,39.99 93.65,40.17 93.46,40.17 93.27,40.17 93.08,40.17 92.89,40.17 92.89,40.36 93.08,40.36 93.08,40.55 93.08,40.74 
	93.27,40.74 93.46,40.93 93.65,41.12 93.65,41.3 93.83,41.3 93.83,41.49 94.02,41.68 93.83,41.68 94.02,41.68 94.02,41.87 
	94.02,42.06 94.21,42.06 94.21,42.25 94.02,42.25 93.83,42.25 93.83,42.43 93.83,42.25 93.65,42.25 93.65,42.43 93.65,42.62 
	93.46,42.81 93.46,43 93.46,43.19 93.46,43.37 93.46,43.56 93.46,43.75 93.46,44.13 93.46,44.32 93.46,44.5 93.65,44.69 
	93.65,44.88 93.65,45.07 93.65,45.26 93.83,45.45 93.83,45.63 94.02,46.01 94.02,46.2 94.21,46.39 94.21,46.76 94.21,46.95 
	94.21,47.52 94.21,47.89 94.21,48.08 94.21,48.27 94.21,48.46 94.02,48.46 93.83,48.65 93.65,48.65 93.46,48.83 93.27,48.83 
	93.27,49.02 93.08,49.02 92.89,49.02 92.89,49.21 92.71,49.21 92.71,49.4 92.71,49.59 92.71,49.77 92.89,49.77 92.89,49.96 
	92.89,50.15 92.89,50.34 92.71,50.34 92.52,50.34 92.52,50.53 92.33,50.53 92.33,50.72 92.52,50.72 92.52,50.9 92.52,51.09 
	92.71,51.09 92.71,51.28 92.71,51.47 92.71,51.66 92.71,51.84 92.89,51.84 92.71,51.84 92.71,52.03 92.52,52.03 92.33,52.03 
	92.14,52.03 92.14,51.84 91.95,51.84 91.95,51.66 91.76,51.66 91.76,51.47 91.58,51.47 91.39,51.47 91.2,51.47 91.01,51.28 
	91.01,51.47 90.82,51.47 90.82,51.66 90.63,51.66 90.45,51.66 90.45,51.47 90.26,51.47 90.26,51.28 90.07,51.28 90.07,51.47 
	89.88,51.66 89.88,51.84 89.69,52.03 89.13,52.79 89.13,52.97 89.13,53.16 88.94,53.16 88.94,52.97 88.75,52.97 88.75,52.79 
	88.56,52.79 88.56,52.6 88.38,52.6 88.38,52.41 88.19,52.6 88,52.6 88,52.79 87.81,52.79 87.62,52.97 87.43,52.97 87.43,53.16 
	87.25,53.16 87.06,53.35 86.87,53.54 86.68,53.54 86.68,53.73 86.49,53.54 86.31,53.54 86.12,53.54 86.12,53.73 86.12,53.92 
	86.12,54.1 85.93,54.1 85.93,53.92 85.74,53.92 85.74,53.73 85.55,53.54 85.55,53.35 85.36,53.16 85.36,52.97 85.18,52.97 
	84.99,52.97 84.8,52.97 84.8,52.79 84.05,52.79 83.67,52.79 83.48,52.79 83.29,52.79 82.92,52.79 82.73,52.79 82.54,52.79 
	82.54,52.6 82.54,52.41 82.54,52.22 82.35,52.22 82.35,52.03 82.35,52.22 82.16,52.22 82.16,52.03 81.98,51.84 81.98,51.66 
	81.79,51.66 81.79,51.47 81.79,51.28 81.6,51.28 81.6,51.09 81.41,51.09 81.41,50.9 81.22,50.9 81.03,51.09 80.85,51.09 
	80.47,51.28 80.28,51.28 80.09,51.47 80.47,51.84 80.85,52.41 80.85,52.6 80.66,52.6 80.47,52.6 80.28,52.6 80.28,52.79 
	80.09,52.79 80.09,52.97 80.09,53.16 79.91,53.16 79.72,53.16 79.72,53.35 79.53,53.35 79.34,53.35 79.15,53.54 79.15,53.73 
	78.96,53.73 78.78,53.73 78.78,53.92 78.78,54.1 78.59,54.1 78.59,54.29 78.4,54.48 78.4,54.67 78.21,54.67 78.21,54.86 78.4,54.86 
	78.4,55.04 78.4,55.23 78.4,55.42 78.21,55.42 78.02,55.42 78.02,55.61 77.83,55.61 77.83,55.8 77.65,55.8 77.65,55.99 77.83,55.99 
	77.83,56.17 77.83,56.36 77.83,56.55 77.83,56.74 77.83,56.93 77.65,56.93 77.65,57.12 77.46,57.3 77.46,57.49 77.46,57.68 
	77.46,57.87 77.65,57.87 77.65,58.06 77.83,58.06 77.83,58.24 77.83,58.43 77.83,58.62 77.83,58.81 77.83,59 78.02,59 77.83,59 
	77.83,59.19 77.83,59.37 78.02,59.37 78.02,59.56 78.02,59.75 77.83,59.75 77.83,59.94 77.83,60.13 77.83,60.32 77.83,60.5 
	77.65,60.5 77.65,60.69 77.65,60.88 77.46,60.88 77.46,61.07 77.46,61.26 77.27,61.26 77.27,61.44 77.27,61.63 77.08,61.63 
	77.08,61.82 77.08,62.01 76.89,62.2 76.89,62.39 76.89,62.57 76.71,62.57 76.71,62.76 76.71,62.95 76.52,63.14 76.52,63.33 
	76.52,63.52 76.33,63.52 76.33,63.7 76.33,63.89 76.14,64.08 76.14,64.27 76.14,64.46 75.95,64.46 75.95,64.64 75.95,64.83 
	75.95,65.02 75.76,65.02 75.76,65.21 75.76,65.4 75.58,65.4 75.58,65.59 75.58,65.77 75.58,65.96 75.39,65.96 75.39,66.15 
	75.39,66.34 75.39,66.53 75.39,66.72 75.2,66.9 75.2,67.09 75.2,67.28 75.2,67.47 75.2,67.66 75.01,67.84 75.01,68.03 75.01,68.22 
	75.01,68.41 74.82,68.41 74.82,68.6 74.82,68.79 74.82,68.97 74.63,68.97 74.63,69.16 74.63,69.35 74.63,69.54 74.63,69.73 
	74.63,69.92 74.45,69.92 74.45,70.1 74.63,70.1 74.63,70.29 74.45,70.29 74.45,70.48 74.45,70.67 74.45,70.86 74.26,70.86 
	74.26,71.04 74.26,71.23 74.26,71.42 74.07,71.42 74.07,71.23 73.88,71.23 73.69,71.23 73.69,71.42 73.51,71.23 73.32,71.23 
	73.32,71.04 73.13,71.04 72.94,71.04 72.75,71.04 72.56,71.04 72.38,71.04 72.38,70.86 72.19,70.86 72,70.86 71.81,70.67 
	71.62,70.67 71.62,70.48 71.43,70.48 71.43,70.29 71.25,70.29 71.06,70.29 70.87,70.29 70.68,70.29 70.68,70.1 70.49,70.29 
	70.31,70.29 70.12,70.29 69.93,70.29 69.93,70.48 69.74,70.48 69.55,70.48 69.55,70.29 69.36,70.29 69.36,70.1 69.18,70.1 
	69.18,70.29 68.99,70.29 68.99,70.48 68.8,70.48 68.8,70.67 68.61,70.67 68.61,70.86 68.61,71.04 68.8,71.04 68.8,71.23 
	68.61,71.23 68.61,71.42 68.42,71.42 68.42,71.23 68.23,71.23 68.05,71.04 67.86,71.04 67.86,71.23 67.86,71.04 67.67,71.04 
	67.48,71.04 67.48,70.86 67.29,70.86 67.29,70.67 67.11,70.67 66.92,70.67 66.73,70.67 66.73,70.86 66.54,70.86 66.54,71.04 
	66.35,71.04 66.35,70.86 66.16,70.86 65.98,70.86 65.98,70.67 65.79,70.67 65.6,70.48 65.41,70.48 65.41,70.29 65.22,70.29 
	65.22,70.48 65.22,70.29 65.22,70.1 65.03,70.1 64.85,70.1 64.85,70.29 64.66,70.29 64.47,70.29 64.47,70.1 64.28,70.1 64.09,70.1 
	64.28,70.1 64.09,69.92 64.28,69.92 64.09,69.73 64.09,69.92 64.09,69.73 63.9,69.73 63.9,69.92 63.72,69.92 63.72,69.73 
	63.53,69.73 63.53,69.92 63.34,69.92 63.34,70.1 63.34,70.29 63.15,70.29 62.96,70.29 62.96,70.48 62.96,70.29 62.78,70.48 
	62.59,70.48 62.4,70.48 62.4,70.29 62.21,70.29 62.21,70.48 62.02,70.48 62.02,70.67 61.83,70.67 61.65,70.67 61.46,70.86 
	61.27,71.04 61.08,71.04 60.89,71.04 60.7,71.04 60.7,71.23 60.7,71.42 60.52,71.42 60.52,71.61 60.33,71.61 60.14,71.61 
	60.14,71.8 59.95,71.8 59.95,71.61 59.76,71.61 59.58,71.61 59.58,71.8 59.39,71.8 59.2,71.8 59.01,71.99 59.01,72.17 58.82,72.17 
	58.82,71.99 58.63,71.99 58.63,72.17 58.45,72.17 58.45,71.99 58.26,72.17 58.07,72.17 58.07,72.36 57.88,72.36 57.88,72.55 
	57.69,72.55 57.5,72.55 57.32,72.74 57.32,72.93 57.13,73.12 57.13,73.3 56.94,73.49 56.94,73.68 56.94,73.87 56.75,74.06 
	56.56,74.24 56.38,74.24 56.38,74.43 56.19,74.43 56,74.43 56,74.62 55.81,74.62 55.81,74.81 55.81,75 56,75 56,75.19 55.81,75.19 
	55.81,75.37 55.81,75.56 55.62,75.56 55.43,75.56 55.25,75.56 55.06,75.75 54.87,75.75 54.68,75.75 54.49,75.75 54.49,75.94 
	54.3,75.94 54.12,75.94 54.12,76.13 53.93,76.13 53.74,76.13 53.74,76.32 53.55,76.32 53.74,76.32 53.74,76.5 53.55,76.5 
	53.55,76.69 53.55,76.88 53.36,76.88 53.36,77.07 53.55,77.26 53.55,77.44 53.55,77.63 53.55,77.82 53.74,77.82 53.74,78.01 
	53.93,78.01 53.93,78.2 53.93,78.39 53.93,78.57 53.93,78.76 54.12,78.95 54.12,79.14 54.12,79.33 53.93,79.33 53.93,79.52 
	53.74,79.52 53.55,79.7 53.74,79.7 53.74,79.89 53.74,80.08 53.74,80.27 53.74,80.46 53.74,80.64 53.93,80.64 53.74,80.64 
	53.74,80.83 53.74,81.02 53.93,81.21 53.93,81.4 53.93,81.59 53.93,81.77 53.74,81.77 53.74,81.96 53.55,81.96 53.55,82.15 
	53.74,82.15 53.55,82.15 53.55,82.34 53.55,82.53 53.55,82.71 53.55,82.9 53.74,82.9 53.74,83.09 53.55,83.09 53.55,83.28 
	53.36,83.47 53.36,83.66 53.55,83.66 53.55,83.84 53.55,84.03 53.36,84.03 53.36,84.22 53.18,84.22 52.99,84.22 52.8,84.03 
	52.61,84.03 52.42,84.22 52.23,84.22 52.05,84.22 51.86,84.22 51.67,84.22 51.48,84.22 51.29,84.22 51.1,84.41 50.92,84.41 
	50.73,84.6 50.54,84.79 50.73,84.97 50.73,85.16 50.73,85.35 50.73,85.54 50.73,85.35 50.54,85.35 50.35,85.35 50.16,85.35 
	50.16,85.16 49.98,85.16 49.79,84.97 49.6,84.97 49.41,84.97 49.22,85.16 49.03,85.16 48.85,85.16 48.66,84.97 48.47,85.16 
	48.28,85.16 48.09,85.16 47.9,85.16 47.72,85.16 47.53,85.16 47.34,85.16 47.34,84.97 47.15,84.97 46.96,84.97 46.77,85.16 
	46.59,85.16 46.4,85.16 46.4,85.35 46.21,85.35 46.21,85.54 46.21,85.73 46.02,85.73 45.83,85.73 45.65,85.73 45.46,85.54 
	45.27,85.54 45.08,85.54 45.08,85.73 44.89,85.73 44.7,85.73 44.52,85.73 44.52,85.91 44.33,85.91 44.14,85.91 44.14,85.73 
	43.95,85.73 43.76,85.54 43.76,85.35 43.57,85.35 43.39,85.35 43.39,85.16 43.2,85.16 43.01,85.16 43.01,84.97 42.82,84.97 
	42.63,84.97 42.45,84.97 42.26,85.16 42.07,85.16 41.88,85.16 41.88,84.97 41.69,84.97 41.69,84.79 41.5,84.79 41.32,84.79 
	41.32,84.97 41.13,84.97 41.13,85.16 40.94,85.35 40.75,85.35 40.56,85.35 40.56,85.16 40.38,85.16 40.19,85.16 40.19,84.97 
	40,84.97 40,84.79 39.81,84.79 39.62,84.79 39.43,84.6 39.25,84.6 39.06,84.79 38.87,84.79 38.87,84.6 38.68,84.6 38.49,84.6 
	38.3,84.6 38.12,84.6 37.93,84.97 37.74,85.16 37.55,85.35 37.55,85.54 37.36,85.54 37.55,85.73 37.55,85.91 37.55,86.1 
	37.55,86.29 37.36,86.29 37.36,86.48 37.18,86.48 37.18,86.67 36.99,86.67 36.99,86.86 36.99,87.04 36.99,87.23 36.99,87.42 
	36.99,87.61 36.8,87.61 36.8,87.8 36.61,87.8 36.42,87.8 36.23,87.8 36.05,87.8 36.05,87.61 36.05,87.42 35.86,87.23 35.67,87.23 
	35.67,87.04 35.48,87.04 35.29,87.04 35.29,86.86 35.1,86.86 34.92,86.86 34.92,86.67 34.92,86.48 34.73,86.48 34.73,86.67 
	34.54,86.67 34.35,86.67 34.16,86.67 34.16,86.48 34.16,86.29 34.16,86.1 33.98,86.1 33.98,85.91 33.79,85.73 33.79,85.54 
	33.6,85.54 33.41,85.73 33.22,85.73 33.22,85.91 33.03,86.1 32.85,86.29 32.66,86.29 32.47,86.48 32.47,86.67 32.09,86.86 
	32.09,87.04 31.9,87.04 31.9,87.23 31.72,87.42 31.72,87.61 31.53,87.61 31.53,87.42 31.53,87.23 31.34,87.23 31.15,87.23 
	30.96,87.42 30.77,87.23 30.59,87.23 30.4,87.42 30.21,87.42 30.02,87.23 29.83,87.42 29.65,87.42 29.46,87.42 29.27,87.23 
	29.08,87.23 29.08,87.04 29.08,86.86 29.08,86.67 28.89,86.67 28.7,86.67 28.7,86.48 28.7,86.29 28.52,86.1 28.33,86.1 28.33,85.91 
	28.14,85.91 27.95,85.91 27.76,85.91 27.57,85.91 27.39,85.91 27.39,86.1 27.2,86.1 27.01,86.1 26.82,85.91 26.63,85.73 
	26.45,85.73 26.45,85.54 26.26,85.54 26.26,85.35 26.26,85.16 26.26,84.97 26.07,84.97 26.07,84.79 26.07,84.6 26.07,84.41 
	25.88,84.41 25.88,84.22 25.69,84.22 25.5,84.41 25.32,84.41 25.32,84.22 25.13,84.03 25.13,83.84 24.94,83.84 24.94,83.66 
	24.94,83.84 24.75,83.84 24.75,84.03 24.56,84.22 24.37,84.22 24.19,84.22 23.62,84.03 23.43,84.03 23.25,83.84 23.06,83.84 
	22.87,83.84 22.87,83.66 22.68,83.66 22.49,83.66 22.3,83.66 22.12,83.47 22.12,83.28 22.12,83.09 22.12,82.9 22.12,82.71 
	22.12,82.53 21.93,82.53 21.93,82.34 21.74,82.15 21.74,81.96 21.55,81.96 21.36,81.96 21.17,81.96 20.99,81.96 20.99,82.15 
	20.8,82.15 20.61,81.96 20.42,81.96 20.42,81.77 20.42,81.59 20.23,81.59 20.23,81.4 20.05,81.4 20.05,81.21 19.86,81.02 
	19.86,80.83 19.67,81.02 19.48,81.21 19.29,81.4 19.1,81.4 19.1,81.59 19.1,81.77 18.92,81.77 18.92,81.96 18.54,82.15 18.73,82.34 
	18.73,82.53 18.54,82.53 18.54,82.71 18.35,82.9 18.35,83.09 18.35,83.28 18.16,83.28 17.97,83.28 17.79,83.28 17.79,83.47 
	17.6,83.47 17.6,83.28 17.41,83.28 17.22,83.28 17.03,83.28 17.03,83.47 17.03,83.84 17.03,84.03 16.85,84.03 16.66,84.22 
	16.66,84.41 16.66,84.6 16.47,84.79 16.47,84.97 16.47,85.16 16.47,85.35 16.47,85.54 16.47,85.73 16.47,85.91 16.47,86.1 
	16.47,86.29 16.47,86.48 16.47,86.67 16.47,86.86 16.66,87.04 16.85,87.04 17.03,87.04 17.03,87.23 17.22,87.23 17.22,87.42 
	17.22,87.61 17.22,87.8 17.03,87.8 17.03,87.99 17.03,88.17 16.85,88.36 16.66,88.36 16.47,88.36 16.28,88.36 16.09,88.55 
	15.9,88.74 15.72,88.74 15.53,88.93 15.53,89.11 15.34,89.11 15.34,89.3 15.15,89.3 15.15,89.49 15.15,89.68 14.96,89.68 
	14.77,89.68 14.59,89.68 14.4,89.68 14.4,89.87 14.21,89.87 14.02,89.68 14.02,89.87 13.83,89.87 13.65,90.06 13.65,90.24 
	13.46,90.24 13.27,90.24 13.27,90.43 13.08,90.43 12.89,90.62 12.7,90.62 12.7,90.81 12.52,90.81 12.52,91 12.33,91 12.14,91 
	11.95,91 11.95,91.19 11.76,91.19 11.57,91.19 11.39,91.19 11.39,91.37 11.2,91.37 11.2,91.19 11.01,91 11.01,90.81 10.82,90.81 
	10.82,90.62 10.63,90.62 10.63,90.43 10.63,90.24 10.63,90.06 10.45,90.06 10.45,89.87 10.26,89.87 10.26,89.68 10.07,89.68 
	9.88,89.49 10.07,89.49 10.07,89.3 9.88,89.3 9.69,89.3 9.69,89.11 9.69,88.93 9.5,88.93 9.32,88.74 9.13,88.55 9.13,88.36 
	9.13,88.17 8.94,88.17 8.94,87.99 8.75,87.99 8.75,87.8 8.56,87.8 8.56,87.42 8.56,87.23 8.37,87.23 8.19,87.23 8,87.04 8,86.86 
	7.81,86.86 7.81,86.67 7.62,86.67 7.62,86.48 7.43,86.48 7.43,86.29 7.43,86.1 7.25,86.1 7.25,85.91 7.06,85.91 7.06,85.73 
	7.06,85.54 6.87,85.54 6.87,85.35 6.68,85.35 6.49,85.35 6.3,85.35 6.12,85.16 5.93,85.16 5.74,85.16 5.74,85.35 5.55,85.54 
	5.36,85.54 5.36,85.35 5.17,85.35 4.99,85.16 4.99,84.97 4.8,84.97 4.8,84.79 4.8,84.6 4.8,84.41 4.61,84.22 4.42,84.03 4.23,84.03 
	4.23,83.84 4.23,83.66 4.05,83.66 4.23,83.47 4.23,83.28 4.42,83.28 4.61,83.09 4.61,82.9 4.61,82.71 4.61,82.53 4.61,82.34 
	4.61,82.15 4.42,81.96 4.42,81.77 4.23,81.77 4.23,81.59 4.23,81.4 4.23,81.21 4.05,81.02 4.05,80.83 3.86,80.83 3.86,80.64 
	3.86,80.46 3.67,80.27 3.48,80.27 3.48,80.08 3.48,79.89 3.48,79.7 3.29,79.7 3.29,79.52 3.48,79.33 3.67,79.33 3.86,79.33 
	4.05,79.14 4.05,78.95 4.23,78.95 4.23,79.14 4.42,79.14 4.61,79.14 4.8,79.14 4.8,78.95 4.99,78.95 4.8,78.76 4.8,78.57 
	4.61,78.57 4.61,78.39 4.42,78.39 4.42,78.2 4.23,78.2 4.23,78.01 4.05,78.01 3.86,77.82 3.67,77.63 3.67,77.44 3.67,77.26 
	3.48,77.07 3.29,77.07 3.1,76.88 2.92,76.69 2.92,76.5 2.92,76.32 2.73,76.32 2.54,76.13 2.35,75.94 2.35,75.75 2.35,75.56 
	2.54,75.56 2.54,75.37 2.54,75.19 2.73,75 2.73,74.81 2.54,74.81 2.54,74.62 2.73,74.43 2.92,74.43 2.92,74.24 3.1,74.24 
	2.92,74.24 2.92,74.06 2.73,74.06 2.73,73.87 2.73,73.68 2.73,73.49 2.73,73.3 2.73,73.12 2.73,72.93 2.73,72.74 2.92,72.55 
	2.92,72.36 2.92,72.17 3.1,72.17 3.29,72.17 3.29,71.99 3.48,71.99 3.48,71.8 3.48,71.61 3.67,71.42 3.67,71.23 3.86,71.04 
	3.86,70.86 4.05,70.86 4.05,70.67 4.23,70.67 4.42,70.67 4.42,70.48 4.42,70.29 4.23,70.1 4.23,69.92 4.23,69.73 4.42,69.54 
	4.23,69.35 4.23,69.16 4.23,68.97 4.05,68.97 4.05,68.79 4.05,68.6 4.05,68.41 4.23,68.41 4.23,68.22 4.23,68.03 4.42,67.84 
	4.23,67.66 4.23,67.47 4.05,67.28 4.05,67.09 3.86,66.9 3.86,66.72 4.05,66.72 4.05,66.53 3.86,66.53 4.05,66.34 4.23,66.15 
	4.23,65.96 4.42,65.96 4.42,65.77 4.23,65.77 4.23,65.59 4.23,65.4 4.23,65.21 4.23,65.02 4.23,64.83 4.42,64.83 4.23,64.64 
	4.23,64.46 4.23,64.27 4.23,64.08 4.23,63.89 4.05,63.7 4.05,63.52 4.05,63.33 4.23,63.33 4.23,63.14 4.23,62.95 4.42,62.95 
	4.61,62.76 4.8,62.57 4.8,62.39 4.8,62.2 4.8,62.01 4.61,62.01 4.42,61.82 4.42,61.63 4.42,61.44 4.42,61.26 4.23,61.26 4.05,61.26 
	4.05,61.07 3.86,61.07 3.86,60.88 3.67,60.88 3.67,60.69 3.86,60.69 3.86,60.5 3.86,60.32 4.05,60.32 4.23,60.13 4.05,60.13 
	4.05,59.94 4.05,59.75 3.86,59.75 3.86,59.56 3.86,59.37 3.67,59.37 3.67,59.19 3.67,59 3.67,58.81 3.67,58.62 3.67,58.43 
	3.48,58.24 3.48,58.06 3.67,57.87 3.86,57.87 4.05,57.87 4.05,57.68 4.23,57.68 4.23,57.49 4.42,57.49 4.42,57.3 4.42,57.12 
	4.42,56.93 4.42,56.74 4.23,56.74 4.23,56.55 4.23,56.36 4.42,56.36 4.23,56.36 4.23,56.17 4.05,56.17 4.05,55.99 4.05,55.8 
	4.05,55.61 3.86,55.61 3.86,55.42 4.05,55.23 4.05,55.04 4.23,55.04 4.05,55.04 4.05,54.86 4.23,54.86 4.23,54.67 4.23,54.86 
	4.05,54.86 3.86,54.86 3.67,54.86 3.48,54.86 3.48,54.67 3.29,54.48 3.1,54.29 3.1,54.1 2.92,53.92 2.73,53.92 2.73,53.73 
	2.73,53.54 2.54,53.35 2.35,53.16 2.35,52.97 2.54,52.97 2.54,52.79 2.73,52.79 2.73,52.6 2.54,52.6 2.54,52.41 2.35,52.41 
	2.35,52.22 2.35,52.03 2.54,52.03 2.73,51.84 2.73,51.66 2.73,51.47 2.73,51.28 2.73,51.09 2.73,50.9 2.73,50.72 2.73,50.53 
	2.54,50.53 2.54,50.34 2.54,50.15 2.54,49.77 2.54,49.59 2.54,49.4 2.73,49.21 2.73,49.02 2.73,48.83 2.73,48.65 2.73,48.46 
	2.92,48.27 2.73,48.08 2.73,47.89 2.73,47.7 2.54,47.7 2.35,47.7 2.35,47.52 2.35,47.33 2.16,47.14 1.97,47.14 1.79,47.14 
	1.6,46.95 1.41,46.76 1.41,46.57 1.41,46.39 1.41,46.2 1.22,46.01 1.22,45.82 1.03,45.82 0.85,45.82 0.66,45.82 0.47,45.82 
	0.47,45.63 0.47,45.45 0.47,45.26 0.28,45.26 0.28,45.07 0.28,44.88 0.09,44.88 -0.1,44.69 -0.28,44.69 -0.1,44.5 0.09,44.32 
	0.09,44.13 0.28,44.32 0.47,44.13 0.66,43.94 0.85,43.94 1.03,43.75 1.22,43.56 1.41,43.56 1.41,43.37 1.22,43.37 1.22,43.19 
	1.22,43 1.22,42.81 1.03,42.62 1.03,42.43 1.03,42.25 0.85,42.25 0.66,42.06 0.66,41.87 0.47,41.68 0.47,41.49 0.28,41.3 
	0.28,41.12 0.28,40.93 0.09,40.93 0.09,40.74 0.09,40.55 0.09,40.36 -0.1,40.36 0.09,40.36 0.09,40.17 0.28,39.99 0.28,39.8 
	0.28,39.61 0.09,39.61 0.09,39.42 0.28,39.42 0.47,39.23 0.47,39.05 0.47,38.86 0.47,38.67 0.66,38.67 0.66,38.48 0.66,38.29 
	0.47,38.29 0.47,38.1 0.47,37.92 0.47,37.73 0.47,37.54 0.28,37.35 0.28,37.16 0.47,36.97 0.47,36.79 0.66,36.6 0.47,36.6 
	0.47,36.41 0.28,36.41 0.28,36.22 0.09,36.03 0.09,35.85 0.09,35.66 0.28,35.47 0.28,35.28 0.47,35.28 0.47,35.09 0.47,34.72 
	0.47,34.53 0.47,34.34 0.47,34.15 0.47,33.96 0.28,33.77 0.09,33.77 0.09,33.59 0.09,33.4 0.09,33.21 0.09,33.02 -0.1,32.83 
	-0.1,32.65 0.09,32.65 0.28,32.65 0.47,32.65 0.47,32.46 0.47,32.27 0.66,32.27 0.66,32.08 0.66,31.89 0.66,31.7 0.47,31.7 
	0.47,31.52 0.47,31.7 0.28,31.7 0.09,31.52 0.09,31.33 0.09,31.14 0.09,30.95 0.28,30.95 0.28,30.76 0.28,30.39 0.28,30.2 
	0.47,30.2 0.47,30.01 0.47,29.82 0.28,29.82 0.28,29.63 0.28,29.45 0.28,29.26 0.28,29.07 0.28,28.88 0.28,28.69 0.28,28.5 
	0.28,28.32 0.09,28.32 0.09,28.13 0.28,28.13 0.28,27.94 0.09,27.94 0.28,27.75 0.28,27.56 0.28,27.37 0.28,27.19 0.09,27.19 
	0.28,27 0.47,27 0.47,26.81 0.47,26.62 0.66,26.43 0.85,26.43 1.03,26.43 1.03,26.62 1.03,26.81 1.22,26.81 1.22,27 1.22,27.19 
	1.41,27.19 1.6,27.19 1.79,27.19 1.79,27.37 1.97,27.37 1.97,27.19 2.16,27.19 2.35,27.19 2.54,27.37 2.73,27.37 2.92,27.56 
	3.1,27.56 3.29,27.56 3.48,27.56 3.48,27.75 3.67,27.75 3.67,27.56 3.86,27.56 4.05,27.56 4.05,27.37 4.05,27.19 4.05,27 4.23,27 
	4.42,26.81 4.61,26.81 4.8,26.81 4.99,26.81 5.17,26.62 4.99,26.62 4.8,26.43 4.8,26.25 4.99,26.25 5.17,26.25 5.36,26.25 
	5.55,26.25 5.74,26.06 5.74,25.87 5.93,25.68 5.93,25.49 6.12,25.49 6.3,25.68 6.49,25.68 6.68,25.68 6.87,25.68 7.06,25.49 
	7.25,25.49 7.25,25.68 7.43,25.68 7.62,25.49 7.62,25.3 7.81,25.3 8,25.3 8.19,25.49 8.37,25.68 8.56,25.68 8.75,25.68 8.94,25.68 
	9.13,25.68 9.13,25.87 9.32,25.87 9.32,26.06 9.5,26.06 9.5,25.87 9.5,25.68 9.69,25.68 9.69,25.87 9.88,26.06 10.07,26.06 
	10.26,26.06 10.26,25.87 10.45,25.87 10.63,26.06 10.82,26.06 11.01,26.06 11.01,25.87 11.2,25.87 11.2,25.68 11.39,25.68 
	11.39,25.49 11.57,25.49 11.57,25.3 11.57,25.12 11.57,24.93 11.57,24.74 11.76,24.74 11.95,24.74 11.95,24.55 11.95,24.36 
	12.14,24.36 12.14,24.17 12.33,24.17 12.52,24.17 12.7,24.17 12.89,24.17 13.08,24.17 13.08,24.36 13.08,24.55 13.27,24.74 
	13.27,24.93 13.46,24.93 13.46,25.12 13.46,25.3 13.65,25.49 13.65,25.68 13.83,25.68 13.83,25.87 14.02,26.06 14.02,26.25 
	14.21,26.25 14.21,26.43 14.4,26.43 14.4,26.25 14.4,26.06 14.59,26.06 14.59,25.87 14.77,25.87 14.96,25.68 15.15,25.49 
	15.34,25.49 15.34,25.3 15.53,25.3 15.72,25.3 15.9,25.49 16.09,25.49 16.28,25.68 16.28,25.49 16.47,25.49 16.47,25.68 
	16.66,25.68 16.66,25.87 16.85,25.87 17.03,25.87 17.03,25.68 17.22,25.68 17.6,25.68 17.79,25.49 17.97,25.68 18.16,25.68 
	18.35,25.49 18.54,25.49 18.73,25.3 18.92,25.49 19.1,25.3 19.29,25.3 19.48,25.49 19.67,25.49 19.86,25.49 20.05,25.49 
	20.05,25.68 20.23,25.68 20.23,25.49 20.42,25.3 20.42,25.12 20.61,25.12 20.8,25.12 20.8,24.93 20.99,24.93 21.17,24.74 
	21.36,24.74 21.55,24.74 21.74,24.74 21.93,24.74 22.12,24.55 22.3,24.55 22.68,24.55 22.87,24.55 23.06,24.55 23.25,24.55 
	23.25,24.36 23.43,24.36 23.62,24.36 23.62,24.17 23.81,24.17 23.81,23.99 24,23.99 24,23.8 24.19,23.8 24.19,23.99 24.37,23.99 
	24.56,23.99 24.56,23.8 24.75,23.8 24.75,23.99 24.94,23.99 25.13,23.8 25.13,23.61 25.13,23.42 25.32,23.42 25.5,23.42 
	25.88,23.42 26.07,23.42 26.26,23.42 26.26,23.23 26.26,23.05 26.45,22.86 26.45,22.67 26.63,22.67 26.82,22.67 27.01,22.67 
	27.2,22.48 27.39,22.48 27.57,22.48 27.76,22.48 27.95,22.29 28.14,22.29 28.52,22.29 28.52,22.1 28.7,22.1 29.08,22.1 29.27,22.1 
	29.46,22.1 29.65,22.1 30.02,21.92 30.21,21.92 30.4,21.92 30.59,21.92 30.77,21.92 30.96,21.73 31.15,21.54 31.34,21.35 
	31.53,21.16 31.53,20.98 31.72,20.98 31.9,20.79 32.09,20.6 32.28,20.41 32.28,20.22 32.47,20.22 32.47,20.03 32.47,19.85 
	32.66,19.66 32.66,19.47 32.66,19.28 32.66,19.09 32.85,19.28 33.03,19.28 33.03,19.09 33.22,19.09 33.22,19.28 33.22,19.47 
	33.22,19.66 33.41,19.66 33.6,19.66 33.6,19.85 33.79,19.85 33.79,20.03 33.98,20.03 33.98,20.22 33.98,20.41 34.16,20.6 
	34.16,20.79 34.16,20.98 34.16,21.16 34.35,21.35 34.35,21.54 34.54,21.73 34.73,21.92 34.92,21.92 34.92,22.1 35.1,22.1 
	35.1,22.29 35.29,22.29 35.48,22.48 35.48,22.67 35.67,22.67 35.86,22.86 36.05,23.05 36.23,23.05 36.23,23.23 36.23,23.42 
	36.42,23.61 36.61,23.61 36.61,23.42 36.8,23.42 36.99,23.23 37.18,23.42 37.18,23.61 37.36,23.8 37.55,23.8 37.55,23.61 
	37.74,23.61 37.74,23.42 37.93,23.42 38.12,23.42 38.3,23.42 38.3,23.61 38.49,23.61 38.68,23.61 38.87,23.61 38.87,23.8 
	38.87,23.99 39.06,23.99 39.25,23.99 39.25,24.17 39.43,24.17 39.43,23.99 39.62,23.99 39.81,23.99 40,23.99 40.19,24.17 
	40.38,24.17 40.56,24.36 40.75,24.36 40.94,24.36 41.13,24.36 41.32,24.17 41.5,24.17 41.69,23.99 41.88,23.99 41.88,23.8 
	42.07,23.8 42.07,23.61 42.26,23.61 42.45,23.61 42.63,23.61 42.63,23.42 42.82,23.23 43.01,23.23 43.01,23.05 43.2,22.86 
	43.39,22.86 43.57,22.67 43.76,22.67 43.95,22.48 44.14,22.48 44.33,22.48 44.52,22.29 44.7,22.29 44.89,22.29 44.89,22.1 
	45.08,22.1 45.27,21.92 45.46,21.92 45.65,21.73 45.83,21.54 46.21,21.16 46.4,20.98 46.59,20.79 46.59,20.6 46.77,20.6 
	46.77,20.41 46.96,20.22 46.96,20.03 47.15,20.03 47.15,19.85 47.53,19.85 47.72,19.85 48.09,19.66 48.28,19.66 48.47,19.66 
	48.66,19.66 48.85,19.47 49.22,19.09 49.6,18.9 49.79,18.72 49.98,18.53 50.16,18.53 50.35,18.34 50.54,18.15 50.73,17.78 
	50.92,17.59 51.1,17.4 51.29,17.21 51.48,17.21 51.48,17.02 51.48,16.83 51.67,16.65 51.86,16.46 52.05,16.46 52.23,16.27 
	52.42,16.08 52.61,15.89 52.8,15.7 52.8,15.52 52.99,15.33 52.99,15.14 53.18,15.14 53.55,14.76 53.74,14.76 53.74,14.95 
	53.93,14.95 53.93,15.14 54.12,15.33 54.3,15.52 54.49,15.52 54.68,15.52 54.87,15.52 55.06,15.52 55.25,15.7 55.43,15.7 
	55.43,15.52 55.62,15.52 55.81,15.52 55.81,15.7 56,15.7 56,15.52 56.19,15.52 56.38,15.7 56.38,15.89 56.56,16.08 56.75,16.27 
	56.94,16.27 57.13,16.46 57.32,16.46 57.69,16.65 57.88,16.65 58.26,16.65 58.63,16.65 59.01,16.83 59.39,16.83 59.58,16.83 
	59.76,16.83 59.95,16.83 60.14,16.83 60.7,16.83 60.89,16.83 61.27,16.83 61.65,16.83 62.02,17.02 62.21,17.02 62.4,17.02 
	62.59,17.02 62.96,16.83 63.15,16.83 63.34,16.83 63.53,16.83 63.72,16.83 63.9,16.83 64.09,17.02 64.47,17.02 65.03,17.21 
	65.22,17.21 65.41,17.21 65.79,17.21 65.98,17.21 66.16,17.21 66.16,17.4 66.35,17.4 66.54,17.4 66.73,17.59 66.92,17.59 
	67.11,17.59 67.29,17.78 67.48,17.78 67.67,17.78 67.67,17.96 67.86,17.96 67.86,18.34 68.05,18.34 68.05,18.53 68.05,18.72 
	68.23,18.72 68.23,18.9 68.42,18.9 68.61,18.9 68.99,18.72 69.18,18.72 69.18,18.53 69.36,18.34 69.55,17.96 69.55,17.59 
	69.74,17.21 69.93,17.02 69.93,16.83 69.93,16.65 69.93,16.27 69.93,16.08 69.93,15.89 69.74,15.89 69.74,15.7 69.74,15.52 
	69.74,15.33 69.74,15.14 69.74,14.95 69.74,14.76 69.74,14.58 69.93,14.58 69.93,14.39 70.12,14.39 70.12,14.2 70.31,14.2 
	70.12,14.2 70.12,14.01 69.93,14.01 69.93,13.82 69.93,13.63 69.74,13.63 69.74,13.45 69.93,13.45 69.93,13.26 70.12,13.26 
	70.12,13.07 70.12,12.88 70.12,12.69 70.12,12.5 70.31,12.5 70.68,12.32 70.87,12.32 71.06,12.32 71.25,12.32 71.43,12.32 
	71.62,12.5 71.81,12.5 72,12.5 72,12.32 72,11.94 72,11.56 72,11.38 72.19,11.19 72.38,11 72.56,11 72.56,10.81 72.56,10.62 
	72.75,10.62 72.75,10.43 72.75,10.25 72.94,9.87 72.94,9.68 73.13,9.49 73.13,9.3 73.32,8.74 73.32,8.36 73.51,8.18 73.51,7.8 
	73.69,7.42 73.69,7.23 73.88,7.05 73.88,6.67 73.88,6.48 74.07,6.48 74.07,6.67 74.26,6.67 74.45,6.48 74.45,6.29 74.45,6.1 
	74.63,5.92 74.82,5.73 74.82,5.54 75.01,5.16 75.2,4.98 75.2,4.79 75.39,4.6 75.39,4.41 75.58,4.41 75.76,4.41 75.76,4.22 
	75.95,4.22 76.14,4.22 76.33,4.22 76.52,4.22 76.71,4.03 76.89,4.03 77.08,4.03 77.27,3.85 77.27,4.03 77.46,4.03 77.65,4.03 
	77.83,4.22 78.02,4.22 78.21,4.22 78.4,4.22 78.59,4.22 78.78,4.22 78.96,4.41 79.15,4.41 79.34,4.41 79.53,4.41 79.72,4.22 
	79.91,4.22 80.28,4.22 80.47,4.03 80.66,4.03 80.85,4.03 81.03,4.22 81.22,4.22 81.22,4.41 81.41,4.41 81.41,4.6 81.6,4.6 
	81.6,4.79 81.41,4.79 81.41,4.98 81.6,4.98 81.6,5.16 81.41,5.16 81.41,5.35 81.41,5.54 81.22,5.73 81.22,5.92 81.41,5.92 
	81.41,6.1 81.22,6.29 81.22,6.48 81.03,6.67 80.85,6.86 80.66,6.86 80.66,7.05 80.28,7.8 80.28,7.99 80.09,7.99 79.91,8.18 
	79.72,8.18 79.34,7.8 79.15,7.99 78.96,8.18 78.78,8.18 78.59,8.18 78.4,8.36 78.21,8.36 78.4,8.36 78.4,8.55 78.59,8.55 
	78.78,8.55 78.96,8.55 79.15,8.55 79.15,8.74 79.15,8.93 79.34,9.12 79.34,9.3 79.34,9.49 79.34,9.68 79.53,9.68 79.53,9.87 
	79.53,10.06 79.34,10.06 79.34,10.25 79.34,10.43 79.34,10.62 79.15,10.62 79.15,10.81 79.34,10.81 79.34,11 79.53,11 79.72,11 
	79.72,11.19 79.72,11.38 79.91,11.38 79.91,11.56 79.91,11.75 79.72,12.32 79.53,12.88 79.34,13.45 78.96,14.2 78.96,14.58 
	78.78,14.95 78.78,15.14 78.96,15.33 78.96,15.14 79.15,15.14 79.15,14.95 79.34,14.95 79.34,14.76 79.53,14.76 79.53,14.58 
	79.72,14.58 79.91,14.58 79.91,14.76 80.09,14.95 80.28,14.95 80.28,14.76 80.47,14.76 80.66,14.76 80.85,14.76 81.03,14.76 
	81.22,14.76 81.22,14.95 81.41,14.95 81.6,14.95 81.79,14.95 81.98,14.95 82.16,14.95 82.35,14.95 82.35,15.14 82.54,15.14 
	82.73,15.14 82.73,15.33 82.73,15.52 82.73,15.7 82.54,15.7 82.54,15.89 82.54,16.08 82.73,16.08 82.73,16.27 82.92,16.27 
	83.11,16.27 83.11,16.46 83.29,16.46 83.29,16.27 83.29,16.46 83.48,16.46 83.48,16.27 83.67,16.27 83.86,16.27 84.05,16.27 
	84.05,16.08 84.23,16.08 84.42,16.08 84.61,16.08 84.61,15.89 84.61,15.7 84.8,15.7 84.99,15.7 84.99,15.89 85.18,16.08 
	85.36,16.08 85.36,16.27 85.36,16.46 85.55,16.46 85.55,16.65 85.55,16.83 85.55,17.02 85.36,17.02 85.18,17.02 85.36,17.21 
	85.55,17.4 85.55,17.59 85.55,17.78 85.36,17.78 85.36,17.96 85.55,17.96 85.55,18.15 85.36,18.15 85.36,18.34 85.55,18.34 
	85.74,18.34 85.93,18.34 86.12,18.34 86.12,18.53 86.12,18.72 86.31,18.72 86.12,18.9 86.12,19.09 86.12,19.28 86.31,19.28 
	86.31,19.47 86.31,19.66 86.12,19.66 86.12,19.85 85.93,19.85 85.93,20.03 85.74,20.03 85.55,20.03 85.55,19.85 85.55,19.66 
	85.36,19.66 85.36,19.85 85.18,19.85 85.36,19.85 85.18,19.85 84.99,19.85 84.8,19.85 84.8,20.03 84.8,20.22 84.61,20.6 
	84.61,20.79 84.61,20.98 84.61,21.16 84.42,21.35 84.42,21.54 84.42,21.73 84.42,21.92 84.42,22.29 84.23,22.48 84.23,22.67 
	84.05,22.67 83.86,22.67 83.67,22.67 83.48,22.86 82.92,23.05 82.92,23.61 82.92,23.99 83.11,24.17 83.11,24.55 83.11,24.74 
	83.11,24.93 83.11,25.3 83.11,25.49 83.29,25.68 83.29,25.87 83.48,25.87 83.48,26.06 83.67,26.06 83.86,26.25 84.05,26.43 
	84.23,26.81 84.23,27 84.42,27.19 84.61,27.19 84.8,27.19 85.36,27 88,26.62 88.75,26.62 88.94,26.62 89.32,26.62 89.32,26.43 
	89.51,26.43 89.69,26.25 89.88,26.06 90.07,26.06 90.26,26.06 90.45,25.87 90.63,25.87 90.63,25.68 90.82,25.68 91.01,25.68 
	91.2,25.49 91.39,25.49 91.58,25.49 91.58,25.3 91.76,25.3 91.76,25.12 91.95,25.12 91.95,24.93 92.14,24.93 92.14,24.74 
	92.33,24.74 92.52,24.74 92.52,24.93 92.71,25.12 92.71,25.3 92.71,25.49 92.71,25.68 92.52,25.68 92.33,25.87 92.33,26.06 
	92.14,26.43 91.95,26.62 91.76,26.81 91.76,27 91.76,27.19 91.76,27.37 91.76,27.56 91.76,27.94 91.76,28.13 91.76,28.5 
	91.76,28.69 91.95,28.88 91.95,29.07 91.95,29.45 91.95,29.63 91.95,29.82 92.14,30.01 92.14,30.2 92.14,30.39 92.33,30.57 
	92.52,30.76 92.52,30.95 92.71,30.95 92.71,31.14 92.89,31.33 92.89,31.52 93.08,31.52 93.27,31.52 93.46,31.52 93.65,31.52 
	93.83,31.33 94.02,31.33 94.21,31.33 94.4,31.33 94.59,31.33 94.78,31.33 94.96,31.33 95.15,31.14 95.34,31.14 95.53,31.14 
	95.72,31.14 95.91,31.14 96.09,31.14 96.28,31.14 96.47,31.14 96.66,31.14 96.66,31.33 96.85,31.33 96.85,31.52 96.85,31.7 
	96.85,31.89 96.85,32.08 96.85,32.27 96.66,32.27 96.66,32.46 96.85,32.46 96.85,32.65 96.66,32.83 96.66,33.02 96.47,33.02 
	96.47,33.21 96.47,33.4 96.28,33.4 96.28,33.59 96.28,33.77 96.28,33.96 96.28,34.15 96.28,34.34 96.28,34.53 96.09,34.53 
	96.09,34.72 95.91,34.9 95.91,35.09 96.09,35.28 95.91,35.47 95.91,35.66 95.91,35.85 95.72,35.85 "/>
</svg>
