<?xml version="1.0" encoding="utf-8"?>
<!-- Generator: Adobe Illustrator 24.2.1, SVG Export Plug-In . SVG Version: 6.00 Build 0)  -->
<svg version="1.1" id="Layer_1" xmlns="http://www.w3.org/2000/svg" xmlns:xlink="http://www.w3.org/1999/xlink" x="0px" y="0px"
	 viewBox="0 0 97.23 97.23" style="enable-background:new 0 0 97.23 97.23;" xml:space="preserve">
<style type="text/css">
	.st0{fill-rule:evenodd;clip-rule:evenodd;fill:#1D1D1B;}
</style>
<path class="st0" d="M52.91,85.85h-0.2v-0.2v-0.2v-0.2h0.2v0.2v0.2V85.85L52.91,85.85z M54.7,78.68h0.2v-0.2h0.2v0.2v-0.2h0.2v0.2
	h0.2h0.2v0.2l0.2,0.2v0.2v0.2h-0.2h-0.2h-0.2l-0.4,0.2h-0.2l-0.2,0.2v0.2h-0.2v0.2v0.2l-0.2,0.2v0.2v0.2h-0.2v-0.2h-0.2v0.2v0.2h0.2
	h-0.2v0.2h-0.2v0.2v0.2h-0.2v0.2h0.2l0.2,0.2v0.2v0.2h-0.2v0.2v0.2v0.2v0.2v0.2h-0.2h-0.2v0.2v0.2v0.2h0.2v0.2h-0.2v0.2h-0.2v-0.2
	v-0.2h-0.2v-0.2h0.2v-0.2v-0.2v-0.2h0.2v-0.2v-0.2v-0.2v-0.2v-0.2v-0.2v-0.2v-0.2v-0.2v-0.2v-0.2h0.2l-0.2-0.2l0.2-0.2v-0.2v-0.2
	v-0.2h0.2v-0.2h-0.2v-0.2v-0.2v-0.2v-0.2h0.2v-0.2l-0.2-0.2h-0.2v-0.2v-0.2l0.2-0.2h-0.2v-0.2v-0.2h0.2v-0.2h0.2h0.2v-0.2v0.2
	l0.2,0.2v0.2h0.2v0.2h0.2l0.2,0.2L54.7,78.68L54.7,78.68z M60.47,77.29h0.2v0.2h-0.2v0.2v-0.2h-0.2v-0.2H60.47L60.47,77.29z
	 M60.47,76.3v0.2V76.3h-0.2v-0.2h0.2V76.3L60.47,76.3z M60.87,75.5v-0.2l0.2-0.2v0.2h-0.2V75.5L60.87,75.5z M75.99,10.44l-0.2-0.2
	l-0.2-0.2h-0.2v-0.2v0.2h-0.2h-0.2l-0.2,0.2l-0.2,0.2h-0.2h-0.2v0.2H74l-0.2,0.4v0.2h-0.2l-0.4,0.6h-0.2v0.2h-0.2v0.2v-0.2v0.2h-0.2
	h-0.2v0.2h-0.2v0.2h-0.2h-0.2h-0.2v0.2h-0.2h-0.2h-0.2v0.2h-0.2h-0.2h-0.2h-0.2h-0.2v-0.2v0.2h-0.2h-0.2h-0.2h-0.2l-0.2-0.2h-0.2
	h-0.2h-0.2h-0.2h-0.2l-0.2,0.2h-0.2v0.2v0.2v0.2h0.2l0.2,0.4l0.2,0.2l0.2,0.4l0.2,0.4v0.2v0.2v0.2l-0.2,0.2l-0.4,0.4l-0.2,0.4v0.2
	l-0.2,0.2l-0.2,0.4v0.2l-0.2,0.2v0.4v0.4l-0.2,0.2V19v0.2l-0.2,0.2l-0.2,0.2h-0.2h-0.2l-0.2,0.2l-0.8,0.4v0.2h-0.2l-0.2,0.2h-0.2
	l-0.2,0.2v-0.2l-0.2,0.2h-0.2v0.2h-0.2h-0.2h-0.2v-0.2h-0.2l-0.2,0.2h-0.2h-0.2h-0.2h-0.2h-0.2v-0.2h-0.2v-0.2h-0.2h-0.2l-0.2-0.2
	l-0.2,0.6v0.2v0.2v0.2v0.2l-0.2,0.2h-0.2v0.2h-0.2v0.2v0.2h-0.2h-0.2h-0.4h-0.2h-0.2h-0.2h-0.2v0.2h-0.2h-0.2v-0.2h-0.2l-0.4,0.2
	v0.2v0.2h-0.2v0.2l-0.2,0.2l-0.2,0.2l-0.2,0.2v0.2l-0.2,0.2h0.2v0.2l-0.2,0.2h-0.2h-0.2h-0.2l-0.4-0.2l-0.2,0.2h-0.4v0.2h-0.4
	l-0.8,0.2h-0.2v-0.2h-0.2v0.2v-0.2h-0.2v-0.2v-0.2h-0.2h-0.2v-0.2v-0.2h-0.2v-0.2h-0.2v-0.2v0.2v-0.2h-0.2v-0.2h-0.2h0.2l-0.2-0.2
	v0.2h-0.2v-0.2v0.2v-0.2v0.2l-0.2-0.2h-0.2h-0.2h-0.2v0.2l-0.2,0.2v0.2h-0.2l-0.2,0.2h-0.2h-0.2v0.2h-0.2v0.2h-0.2v0.2h-0.2h-0.2
	h-0.2h-0.2v-0.2l-0.2,0.2v-0.2h-0.2l-0.2-0.2h-0.4h-0.4h-0.8l-2.39,0.2h-0.2v-0.2h-0.2h-0.2h-0.2v-0.2h-0.2h-0.2v-0.2l-0.2-0.2v-0.2
	l-0.2-0.2l-0.2-0.2v-0.2l-0.2-0.2h-0.2l-0.2-0.2h-0.2h-0.2v-0.2l-0.2-0.2v-0.2v-0.2h-0.2l-0.2-0.2h-0.2v-0.2v-0.2h-0.2v-0.2v-0.2
	l-0.2-0.2h-0.2h-0.2h-0.2h-0.2v-0.2v-0.2l-0.2-0.2l-0.2-0.2h-0.2h-0.2l-0.2-0.2h-0.2v0.2h-0.2l-0.4,0.2l-0.2,0.2h-0.2l-0.4,0.2
	l-0.4,0.2h-0.2v0.2h-0.2v0.2h-0.2H36v0.2l-0.2,0.2v0.2h-0.2h-0.2l-0.2,0.2v0.2v0.2v0.2v0.2v0.2H35l-0.2,0.2l0.2,0.2h-0.2v0.2H35h0.2
	H35l-0.4-0.2h-0.2v0.2l-0.2-0.2h-0.2v-0.2h-0.2h-0.2h-0.2h-0.2h-0.2v-0.2h-0.2v-0.2l-0.2-0.2v-0.2l-0.2-0.2l-0.2-0.4v-0.2l-0.2-0.2
	v-0.2h-0.2v-0.2h-0.2v-0.2v-0.2h-0.2v0.2h-0.2h-0.2h-0.2h-0.2v-0.2h-0.2v-0.2h-0.2v0.2h-0.2v-0.2h-0.2l-0.4,0.2h-0.2v0.2v0.2h-0.2
	v0.2v0.2l-0.2,0.2v0.2h-0.2h-0.2h-0.2v-0.2h-0.2l-0.2-0.2l-0.2-0.2h-0.2l-0.6-0.4l-0.2-0.2h-0.2l-0.2-0.2v0.2h-0.2v0.2h-0.2v0.2
	h-0.2v-0.2v-0.2h0.2v-0.2h-0.2h-0.2v-0.2h-0.2v-0.2h-0.2h-0.2v-0.2h-0.2h-0.2v-0.2h-0.2l-0.2-0.2l-0.2,0.2h-0.2h-0.2h-0.2v0.2h-0.2
	h-0.2l-0.2,0.2h-0.2h-0.2l-0.2,0.2l-0.2,0.2v0.2l-0.2,0.2v0.4l-0.2,0.2l0.2,0.2v0.2h0.2v0.2v0.2h-0.2v0.2h0.2h-0.2v0.2l0.2,0.2v0.2
	v0.2h0.2v0.2h0.2h0.2h0.2h0.2v-0.2h0.2h0.2h0.2h0.2l0.2,0.2v-0.2l0.2,0.2h0.2v0.2h0.2v0.2h0.2v0.2v0.2h0.2v0.2h-0.2v0.2h-0.2h-0.4
	l-0.2,0.2l-0.2,0.2h-0.2v0.2v0.2h-0.2l-0.2-0.2h-0.2v-0.2h-0.2h-0.2h-0.2h-0.2h-0.2l-0.2-0.2l-0.2-0.2l-0.2-0.2h-0.2l-0.2-0.2h-0.2
	v0.2h-0.2h-0.2h-0.2h-0.2h-0.2h-0.2h-0.2h-0.2l-0.2,0.2h-0.2h-0.2h-0.2h-0.4l-0.4-0.2l-0.2,0.2h-0.2h-0.2h-0.2h-0.2h-0.2l-0.2-0.2
	h-0.2h-0.2h-0.2l-0.4,0.2h-0.4l-0.4,0.2h-0.2h-0.2h-0.2h-0.2h-0.2h-0.2l-0.2,0.2v0.2h-0.2v0.2v0.2l-0.2,0.2v0.2v0.2v0.2h-0.2v0.2
	h-0.2h-0.2h-0.2v0.2h-0.2v0.2l-0.2,0.2h-0.2v0.2v0.2v0.2l-0.2,0.2v0.2h-0.2v0.2h-0.2h-0.2v0.2h-0.2l-0.2,0.2v0.2l0.2,0.2l0.2-0.2
	h0.2h0.2v0.2h0.2h0.2l0.2,0.2h0.2l0.2,0.2h0.2v0.2h0.2l0.2,0.2v0.2l0.2,0.2l0.2,0.2v0.2v0.2v0.2v0.2v0.2v0.2h-0.2v0.2l0.2,0.2v0.2
	v0.2h0.2v0.2h0.2h0.2h0.2l0.2,0.2v0.2l-0.2,0.2v0.2h-0.2v0.2v0.2h-0.2v0.2h-0.2v0.2h-0.2h-0.2v0.2h-0.2v0.2v0.2v0.2v0.2v0.2
	l-0.2,0.2v0.2v0.2h0.2v0.2v0.2v0.2h-0.2v0.2v0.2v0.2v0.2v0.2h-0.2v0.2v0.2l0.2,0.4v0.2v0.2v0.2v0.2v0.2v0.2l-0.2,0.2l-0.2,0.2v0.2
	l-0.2,0.2h-0.2l-0.2,0.2v0.2v0.2v0.2h0.2v0.4v0.2l-0.2,0.2l-0.4,0.2v0.2l-0.2,0.4v0.2v0.2v0.2l0.2,0.4h-0.2v0.2h-0.2l-0.2,0.2v0.2
	v0.2v0.2v0.2v0.2l-0.2,0.2v0.2v0.2v0.2l-0.2,0.2v0.2v0.4l-0.2,0.2l-0.2,1.59v0.4v0.2l-0.6,0.4v0.2v0.2h-0.2v0.2h-0.2l-0.2,0.2v0.2
	h-0.2v0.2h-0.2v0.2v0.2h0.2h-0.2v0.2h-0.2l-0.2,0.2h-0.2h-0.2h-0.2h-0.2h-0.2h-0.2v0.2h-0.2v0.2h-0.2v0.2v0.2l-0.2,0.2v0.2h-0.2
	l-0.2,0.2v-0.2h-0.2v0.2h-0.2h-0.2v0.2h-0.2l-0.2,0.2h-0.2v0.2v0.2v0.2l-0.2,0.2v0.2v0.2v0.2v0.2l0.2,0.2l0.2,0.4h0.4l0.2,0.2v0.2
	h-0.2L4.17,56h-0.2v0.2h-0.2v0.2l-0.2,0.2v0.2V57v0.2v0.2h0.2l0.2,0.2h-0.2v0.2h-0.2v0.2v0.2v0.2v0.2h-0.2h-0.2v0.2h-0.2v0.2v0.2
	v0.2l-0.2,0.2v0.2h-0.2v0.2v0.2v0.2v0.2l-0.2,0.2h-0.2v0.2h-0.2h-0.2h-0.2h0.2v0.2h-0.2h-0.2v0.2h-0.2v0.2v0.2v0.2h0.2v0.2v0.2h0.2
	v0.2v0.2v0.2h-0.2v0.2v-0.2v0.2l-0.2,0.2h-0.2v0.2h0.2v0.2h-0.2h0.2v0.2h-0.2h-0.2v0.2h-0.2h0.2h0.2h-0.2v0.2h-0.2v0.2h0.2v0.2h-0.2
	v0.2v0.2h-0.2v0.2h0.2v0.2h0.2l-0.2,0.2v-0.2v0.2h0.2v0.2h0.2v0.2h-0.2v0.2h0.2v0.2h0.2v0.2v0.2v0.2h0.2v0.2v0.2h-0.2v0.2v0.2h-0.2
	h0.2v0.2v0.2h0.2v0.2v0.2v0.2v0.2v0.2v0.2h0.2h0.2v-0.2h0.4h0.4l0.2-0.2h0.4h0.2h0.2l0.4-0.2h0.2h0.2h0.2h0.2l0.2-0.2h0.2h0.2h0.2
	h0.2h0.2h0.2h0.2h0.2v-0.2h0.2h0.2h0.2h0.2h0.2l-0.2-0.2l0.2-0.2h0.2v-0.2h0.2h0.2h0.2h0.2h0.2h0.2v-0.2h0.2h0.2v-0.2h0.2v-0.2h0.2
	h0.2h0.2h0.2h0.2h0.2h0.2h0.2h0.2h0.2h0.2h0.2h0.2h0.2h0.2h0.2h0.2v-0.2h0.2l0.2-0.2h0.2h0.2h0.6v-0.2h0.4v0.2h0.2h0.2h0.2h0.2h0.2
	h0.2h0.2h0.2h0.2h0.2l0.2,0.2h0.2l0.2,0.2v0.6v0.4l0.8,0.8l0.8,0.8l0.2,0.6l-0.2-0.6l-0.2-0.2l-0.2-0.2l-0.2-0.4l0.2-0.2l-0.4-0.4
	l-0.2,0.2l-0.2-0.2v-0.4v-0.2h0.4v-0.4v-0.2v0.2h0.2v-0.2h-0.2v-0.2h0.2v0.2h0.2h0.2h0.2h0.2h0.2h0.2v0.2v1.39v0.2h0.8v-1.39h0.2
	l0.2-0.2h0.2l0.2,0.2h0.4h0.4h0.2h0.2l0.2,0.2h0.2h0.2h0.2h0.2h0.2h0.4l0.2-0.2l0.2,0.2h0.2h0.4h0.2h0.2h0.2h0.2h0.2l0.2,0.2h0.2
	h0.2v-0.2l0.2,0.2h0.2h0.2h0.2h0.2h0.2h0.2h0.2h0.2h0.2l0.2,0.2h0.2h0.2h0.2h0.2h0.2l0.2,0.2h0.2h0.2h0.2l0.4,0.2h0.4h0.2h0.2
	l0.6,0.2h0.2l0.2,0.2h0.2h0.2h0.2v0.2h0.2h0.2h0.2v0.2v-0.2h0.2v0.2h0.2h0.2h0.2h0.2H35l0.2,0.2h0.2h0.2l0.2,0.2H36h0.2v0.2h0.2h0.2
	v0.2h-0.2v0.2h0.2v0.2h-0.2h0.2h0.2v-0.2h0.2h0.2h0.2l0.2,0.2h0.2h0.2h0.2l0.2,0.2h0.2l0.2,0.2l0.6,0.2l1.19,0.6h0.2l0.4,0.2
	l0.8,0.4l1.39,0.6h0.2v0.2h0.2h0.2l0.4,0.2l0.4,0.2l0.99,0.6h0.2v0.2h0.2h0.2v0.2h0.2h0.2v0.2h0.2l0.4,0.2l0.2,0.2h0.2l0.2,0.2
	l0.2,0.2h0.2l0.2,0.2l0.2,0.2h0.2l0.2,0.2h0.2v0.2h0.2v0.2l0.2,0.2h-0.2v0.2h-0.2v0.2h0.2v0.2l0.2-0.2v0.2h0.2v0.2v-0.2h0.2v-0.2
	v-0.2v-0.2h0.2h0.2h0.2v-0.2h-0.2v-0.2h-0.2l0.2-0.2v-0.2v-0.2v-0.2h0.2v-0.2v-0.2h-0.2v-0.2h0.2v-0.2v-0.2v-0.2v-0.2h-0.2v-0.2
	v-0.2l0.2-0.2v-0.2h0.2h0.2v-0.2v0.2v-0.2h0.2h-0.2h0.2v-0.2h0.2v-0.2h0.2l0.2-0.2h0.2l-0.2-0.2h0.2h0.2h0.2h0.2v-0.2h0.2h0.2h0.2
	v-0.2h0.2h0.2h0.2h0.2h0.2v-0.2h0.2h0.2h0.4h0.6l0.6-0.2l0.6,0.2h0.4h0.4h0.4h0.2v0.2h0.2h0.2l0.2,0.2v-0.2h0.2h0.2l0.2-0.2h0.2h0.2
	h0.4h0.2h0.2h0.4h0.4h0.2l0.4,0.2h0.4h0.2h0.2h0.4h0.4h0.4h0.2l0.4,0.2h0.2h0.2h0.2h0.2l0.2,0.2l0.2-0.2h0.2v-0.2h0.2v-0.2h0.2v0.2
	v-0.2h0.2h0.2v-0.2v-0.2v-0.2h-0.2v-0.2v-0.2v-0.2h0.2h-0.2v-0.2v-0.2h-0.2h0.2v-0.2l0.2-0.2h0.2v-0.2h0.2h0.2l0.2-0.2h0.4h0.2
	l0.4-0.2h0.2h0.4h0.2h0.2v0.2h0.2h0.2v-0.2h0.4h0.2h0.2h0.2h0.2l0.4,0.2h0.4l0.8,0.2l0.4,0.2h0.4l0.2,0.2H74h0.2v0.2h0.2v0.2h0.2
	h0.2h0.2h0.2h0.2h0.2h0.2h0.2h0.2v-0.2v-0.2h-0.2v0.2h-0.2v-0.2v-0.2h0.2v-0.2h0.2l0.2-0.2h0.2v-0.2v-0.2h0.2v-0.2l0.2-0.4v-0.2
	l0.2-0.2v-0.2h0.2h0.2v-0.2l0.2-0.2l0.2-0.2v-0.2l0.2-0.2v-0.2h0.2v-0.2v-0.2h0.2l0.2-0.2v-0.2v-0.2l0.2-0.2l0.2-0.2h0.4v-0.2h0.2
	l0.2-0.2l0.2-0.2l0.4-0.2h0.2h0.2v-0.2h0.2h0.2h0.2h0.2h0.2h0.2v-0.2v-0.2h0.2h0.2h0.2h0.2l0.2-0.2h0.2h0.2h0.2l0.2-0.2h0.2h0.2
	v-0.2l0.2-0.2v0.2h0.2h0.2h0.2h0.2h0.2h0.4h0.8h0.2h0.4h0.2h0.4h0.2h0.4v0.2h0.2l0.2,0.2l0.8,0.2l1.39,0.6h0.2h0.2l0.2-0.2v-0.2
	l0.2-0.2h0.2v-0.2h0.2v-0.2v-0.2h-0.2v-0.2h-0.2v-0.2h-0.2v-0.2v-0.2v-0.2l0.2-0.2h0.2h0.2v-0.2l0.2-0.2l0.2-0.2l0.4-0.2v-0.2
	l0.2-0.2v-0.2v-0.4v-0.2v-0.2h-0.2l-0.2-0.2l-0.2-0.2v-0.2h0.2h0.2h0.2v-0.2h0.2v-0.2h0.2v-0.2h-0.2v-0.2l-0.2-0.2l-0.2-0.2v-0.2
	l0.2-0.2h0.2v-0.2h0.2v-0.2h0.2v-0.2h0.2h0.2h0.2v0.2v0.2v0.2h0.2h0.2l0.2-0.2l0.4-0.2v-0.2h-0.2V57v-0.2v-0.4l0.2-0.2V56h-0.2v-0.2
	h-0.2h0.2v-0.2v-0.2v-0.2v-0.2v-0.2v-0.2h0.2v-0.2h0.2v-0.2l-0.2-0.2v-0.2v-0.2v-0.2l0.2-0.2v-0.2v-0.2v-0.2h-0.2v-0.2h-0.2v-0.2
	v-0.2v-0.2v0.2h0.2h0.2v-0.2l-0.2-0.2h0.2v-0.2h0.2v-0.2h0.2v-0.2h0.2v-0.2h-0.2h0.2v-0.2v-0.2v-0.2v0.2h0.2v-0.2h-0.2v-0.2h0.2v0.2
	v-0.2h-0.2v-0.2h0.2v-0.2h-0.2v-0.2h0.2v-0.2h0.2v-0.2h-0.2v-0.2h-0.2v-0.2v-0.2h0.2v0.2v-0.2h-0.2v-0.2h0.2h-0.2v-0.2h0.2h-0.2
	v-0.2h0.2v-0.2v-0.2h-0.2v-0.2h-0.2h-0.2v-0.2h0.2v-0.2h0.2l-0.2-0.2v-0.2h0.2v-0.2h-0.2v-0.2h0.2l-0.2-0.2v-0.2h0.2h-0.2v-0.2v-0.2
	v0.2v-0.2h-0.2h0.2h-0.2v-0.2v-0.2h-0.2v-0.2h-0.2v-0.2l-0.2-0.2v-0.2h-0.2v-0.2v-0.2h-0.2v-0.2h0.2l-0.2-0.2h0.2h0.2v-0.2v-0.2
	v-0.2v-0.2v-0.2h-0.2v-0.2v-0.2v-0.2v-0.2h-0.2h0.2v-0.2v0.2v-0.2h0.2v-0.2v-0.2h-0.2v-0.2v-0.2l-0.2-0.4h-0.2h-0.2v0.2h-0.2v0.4
	v0.2v0.2v0.2v0.4v0.2v0.2h-0.2l-0.2-0.2v-0.2v-0.2v-0.4h-0.2v-0.2v-0.2v-0.2v-0.2l-0.2-0.2v-0.4l-0.2-0.2v-0.2v-0.2v-0.2v-0.4v-0.2
	v-0.2h-0.2v-0.2l-0.2-0.2h-0.2v-0.2l-0.2-0.2h-0.2l-0.2-0.2h-0.2v-0.2v-0.2l0.2-0.6v-0.2v-0.2v-0.2h-0.2l-0.2-0.2l-0.2-0.2l-0.2-0.2
	h-0.2l-0.2-0.2l-0.2-0.2h-0.2v-0.2h-0.2l-0.2,0.2l-0.2,0.2h-0.2v0.2l-0.2,0.2h-0.2v0.2h-0.2v0.2h-0.4l-0.2,0.2h-0.2h-0.2l-0.2-0.4
	l-0.2-0.2v-0.2l-0.2-0.2v-0.2h-0.2v0.2h-0.2h-0.2v-0.2l-0.2-0.2l-0.2-0.2l-0.2-0.2v-0.2h-0.2v-0.2h-0.2h0.2v-0.2v-0.2v-0.2v-0.2
	v-0.2v-0.2l0.2-0.2v-0.4v-0.2l-0.2-0.2h-0.2v-0.2v-0.2l0.2-0.4v-0.2l0.2-0.2l0.2-0.2l0.4-0.4l0.2-0.4l0.2-0.2v-0.2h0.2v-0.4h0.2
	l0.2-0.2v-0.2v-0.2l0.2-0.2l-0.2-0.2l0.2-0.4v-0.4l0.2-0.8v-0.2l-0.2-0.4h-0.2l-0.2-0.2v-0.2v-0.2h-0.2v0.2h-0.2h-0.2h-0.2h-0.2
	v-0.2h-0.2h-0.2v0.2h-0.2h-0.2v0.2h-0.2h-0.2h-0.2h-0.2h-0.2v0.2h-0.2v0.2h-0.2h-0.2h-0.2h-0.2l-0.2-0.2h-0.2v-0.2l-0.2-0.2v-0.2
	v-0.2l-0.2-0.2v-0.2v-0.2h-0.2v-0.2v-0.2v-0.2l0.2-0.2h-0.2v-0.2l-0.2-0.2v-0.2l-0.2-0.2l-0.2-0.2v-0.2l-0.2-0.2v-0.2l-0.2-0.2v-0.2
	l-0.2-0.2v-0.2v-0.2v-0.2l-0.2-0.2l-0.2-0.2v-0.4l-0.2-0.2h-0.2V19l-0.2-0.2v-0.2l-0.2-0.2v-0.2V18v-0.2l0.2-0.2v-0.2v-0.2l0.2-0.2
	l0.2-0.2v-0.2l0.2-0.2v-0.2h-0.2h-0.2l-0.2,0.2h-0.2l-0.2-0.2l-0.2-0.2l-0.2-0.2h-0.2v-0.2v-0.2v-0.2v-0.2v-0.2l0.2-0.2v-0.2v-0.2
	l0.2-0.2v-0.2l0.2-0.2h0.2l0.2-0.2h0.2v-0.2v-0.2v-0.2l-0.2-0.6v-0.2h0.2v-0.2v-0.2v-0.4v0.2h-0.2h-0.2l-0.2-0.2h-0.2h-0.2h-0.2
	h-0.2h-0.2h-0.2h-0.2h-0.2h-0.2h-0.2l-0.2-0.2h-0.2h-0.2h-0.2h-0.2h-0.2l-0.2,0.2h-0.2v-0.2v-0.2v-0.2v-0.2h-0.2v-0.2h-0.2h-0.2v0.2
	H75.99z"/>
</svg>
