<?xml version="1.0" encoding="utf-8"?>
<!-- Generator: Adobe Illustrator 24.2.1, SVG Export Plug-In . SVG Version: 6.00 Build 0)  -->
<svg version="1.1" id="Layer_1" xmlns="http://www.w3.org/2000/svg" xmlns:xlink="http://www.w3.org/1999/xlink" x="0px" y="0px"
	 viewBox="0 0 97.23 97.23" style="enable-background:new 0 0 97.23 97.23;" xml:space="preserve">
<style type="text/css">
	.st0{fill-rule:evenodd;clip-rule:evenodd;fill:#1D1D1B;}
</style>
<polygon class="st0" points="77.51,28.45 78.49,28.78 78.82,29.1 79.15,29.1 79.81,29.43 80.13,29.76 80.79,29.76 81.77,30.09 
	82.1,30.41 82.43,30.41 82.75,30.41 83.08,30.41 83.08,30.74 83.41,30.74 83.74,30.74 84.07,30.74 84.07,31.07 84.39,31.07 
	84.72,31.07 85.05,31.07 85.05,31.4 85.38,31.4 85.7,31.4 86.03,31.72 86.36,31.72 86.69,31.72 87.02,32.05 87.34,32.05 
	87.67,32.05 87.67,32.38 88,32.38 88.33,32.38 88.65,32.38 88.65,32.71 88.98,32.71 89.31,32.71 89.64,33.04 89.96,33.04 
	90.29,33.04 90.62,33.36 90.95,33.36 91.28,33.36 91.6,33.69 91.93,33.69 92.26,33.69 92.26,34.02 92.59,34.02 92.91,34.02 
	93.24,34.02 93.24,34.35 93.57,34.35 93.9,34.35 94.22,34.35 94.22,34.67 94.55,34.67 94.55,35 94.88,35 94.88,35.33 94.88,35.66 
	94.88,35.98 94.88,36.31 94.88,36.64 94.88,36.97 94.88,37.3 94.88,37.62 95.21,37.95 95.54,37.95 95.86,37.95 96.19,38.28 
	96.52,38.28 96.85,38.28 96.85,38.61 96.85,38.93 96.52,38.93 96.52,39.26 96.52,39.59 96.52,39.92 96.19,40.24 96.19,40.57 
	95.86,40.57 95.86,40.9 95.54,40.9 95.54,41.23 95.21,41.56 94.88,41.56 94.88,41.88 94.55,41.88 94.55,42.21 94.22,42.21 
	94.22,42.54 93.9,42.87 93.57,43.19 92.91,43.85 92.59,44.18 92.59,44.5 92.26,44.5 92.26,44.83 91.93,44.83 91.93,45.16 
	91.6,45.16 91.6,45.49 91.6,45.82 91.28,45.82 91.28,46.14 90.95,46.14 90.95,46.47 90.95,46.8 90.62,46.8 90.62,47.13 90.29,47.13 
	89.96,47.13 89.96,47.45 89.96,47.78 89.64,47.78 89.64,48.11 89.31,48.11 88.98,48.11 88.65,48.11 88.65,47.78 88.33,47.78 
	88.33,48.11 88,48.11 87.67,48.44 87.34,48.44 87.02,48.44 86.69,48.44 86.36,48.44 86.36,48.77 86.36,49.09 86.36,49.42 
	86.36,49.75 86.36,50.08 86.36,50.4 86.36,50.73 86.69,50.73 87.02,50.73 87.02,51.06 87.34,51.06 87.67,51.06 87.67,51.39 
	87.67,51.71 87.67,52.04 88,52.04 88,52.37 87.67,52.37 87.67,52.7 87.67,53.02 87.34,53.02 87.34,53.35 87.02,53.68 86.69,54.01 
	86.69,54.34 86.36,54.34 86.36,54.66 86.03,54.99 85.7,55.65 85.7,55.32 85.38,55.32 85.05,55.32 85.05,54.99 84.72,54.99 
	84.72,54.66 84.39,54.66 84.07,54.66 84.07,54.34 83.74,54.34 83.74,54.01 83.41,54.01 83.41,53.68 83.08,53.68 83.08,54.01 
	83.08,54.34 83.08,54.66 83.08,54.99 82.75,54.99 82.43,54.99 82.43,55.32 82.43,55.65 82.43,55.97 82.1,55.97 82.1,56.3 
	81.77,56.3 81.77,56.63 81.44,56.63 81.44,56.96 81.44,57.29 81.12,57.29 81.12,57.61 81.12,57.94 81.12,58.27 80.79,58.6 
	80.79,58.92 80.79,59.25 80.46,59.58 80.46,59.91 80.46,60.23 80.46,60.56 80.46,60.89 80.13,60.89 80.13,61.22 80.13,61.54 
	79.81,61.54 80.13,61.54 80.13,61.87 80.13,62.2 80.46,62.2 80.46,62.53 80.13,62.53 80.13,62.86 80.13,63.18 79.81,63.18 
	79.81,63.51 79.81,63.84 79.81,64.17 79.81,64.49 80.13,64.49 80.13,64.82 80.13,65.15 80.13,65.48 80.13,65.8 80.13,66.13 
	79.81,66.46 80.13,67.12 80.13,67.44 79.81,67.77 79.81,68.1 79.48,68.43 79.15,68.43 78.49,68.75 76.2,69.41 75.87,69.41 
	75.87,69.74 75.55,71.05 75.22,71.05 74.89,71.05 74.89,70.72 74.56,70.72 74.23,70.72 73.91,70.72 73.58,70.72 73.25,70.72 
	73.25,70.39 72.92,70.39 72.6,70.39 72.27,70.39 72.27,70.07 71.94,70.07 71.61,70.07 71.29,70.07 71.29,69.74 70.96,69.74 
	70.63,69.74 70.3,69.74 69.97,69.74 69.65,69.41 69.32,69.08 69.32,68.75 68.99,68.75 68.66,68.75 68.66,69.08 68.34,69.08 
	68.01,69.08 67.68,69.08 67.35,69.08 67.03,69.08 66.7,69.08 66.37,69.08 66.04,69.08 65.71,68.75 65.39,68.75 65.06,68.75 
	64.73,68.75 64.4,68.75 64.4,68.43 64.08,68.43 63.75,68.43 63.42,68.43 63.09,68.43 62.77,68.43 62.77,68.1 62.44,68.1 62.11,68.1 
	61.78,68.1 61.45,68.1 61.45,67.77 61.13,67.77 60.8,67.77 60.47,67.77 60.47,67.44 60.14,67.77 59.82,67.77 59.49,67.77 
	59.49,67.44 59.16,67.44 58.83,67.44 58.5,67.44 58.18,67.44 57.85,67.44 57.85,67.12 57.52,67.12 57.19,67.12 56.87,67.12 
	56.54,67.12 56.21,66.79 55.88,66.79 55.56,66.79 54.9,66.79 54.57,66.79 54.24,66.79 53.92,66.46 53.59,66.46 53.26,66.46 
	52.93,66.46 52.61,66.46 52.28,66.46 51.95,66.46 51.3,66.13 50.64,66.13 50.31,66.13 49.66,66.13 49.33,65.8 49,65.8 48.67,65.8 
	48.35,65.8 48.02,65.8 47.69,65.48 47.36,65.48 47.04,65.48 46.71,65.48 46.38,65.15 46.05,65.15 45.72,65.15 45.4,65.15 
	45.4,64.82 45.07,64.82 44.74,64.82 44.41,64.82 44.09,64.49 43.76,64.49 43.43,64.49 43.43,64.17 43.1,64.17 42.78,64.17 
	42.45,64.17 42.45,63.84 42.12,63.84 41.79,63.84 41.46,63.84 41.14,63.51 40.81,63.51 40.48,63.51 40.15,63.51 39.83,63.51 
	39.5,63.51 39.5,63.18 39.17,63.18 38.84,63.18 38.51,63.18 38.19,63.18 38.19,62.86 37.86,62.86 37.53,62.86 37.53,62.53 
	37.53,62.86 37.2,62.86 36.88,62.86 36.88,62.53 36.88,62.86 36.55,62.86 36.55,62.53 36.22,62.53 35.89,62.2 35.57,62.2 
	35.24,62.2 35.24,61.87 34.91,61.87 34.58,61.54 34.25,61.54 33.93,61.22 33.6,60.89 33.6,60.56 33.27,60.56 32.94,60.56 
	32.62,60.23 32.29,59.91 31.96,59.58 31.63,59.25 31.31,58.92 29.99,58.92 28.68,58.92 26.72,58.92 26.72,59.25 26.72,59.58 
	26.39,59.58 26.39,59.91 26.39,60.23 26.06,60.56 26.06,60.89 26.06,61.22 25.73,61.54 25.73,61.87 25.41,61.87 25.41,62.2 
	25.08,62.53 24.75,62.53 24.75,62.86 24.42,62.86 24.42,63.18 24.1,63.18 24.1,63.51 23.77,63.51 23.77,63.84 23.44,63.84 
	23.44,64.17 23.11,64.17 23.11,64.49 22.79,64.49 22.46,64.82 22.13,64.82 21.8,65.15 21.47,65.15 21.15,65.48 20.82,65.48 
	20.49,65.48 20.49,65.8 20.16,65.8 19.84,65.8 19.51,65.8 19.18,65.8 18.85,65.8 18.53,65.8 18.2,65.8 17.87,65.8 17.54,65.8 
	17.21,65.8 16.89,65.8 16.56,65.8 16.23,65.8 15.9,65.8 15.58,66.13 15.58,65.8 15.25,66.13 14.92,66.13 14.59,66.13 14.26,66.13 
	13.94,66.13 13.61,66.13 13.28,66.13 12.95,66.13 12.63,66.13 12.3,66.13 12.3,66.46 11.97,66.46 11.64,66.46 11.32,66.46 
	10.99,66.46 10.66,66.46 10.33,66.46 10.01,66.46 9.68,66.79 9.68,66.13 9.35,66.13 9.35,66.46 9.02,66.46 8.69,66.46 8.37,66.79 
	8.04,66.79 7.71,66.79 7.38,66.79 7.06,66.79 6.73,66.79 6.4,66.79 6.07,67.12 5.74,67.12 5.42,67.12 5.09,67.12 5.09,66.46 
	4.76,66.46 4.76,66.79 4.76,66.46 4.76,66.79 4.43,66.79 4.11,66.79 4.11,66.46 3.78,66.46 3.78,66.79 3.45,66.79 3.45,66.46 
	3.12,66.46 3.12,66.79 3.45,66.79 3.12,66.79 2.8,66.79 2.8,66.46 2.8,66.79 2.47,66.79 2.47,66.46 2.47,66.79 2.47,66.46 
	2.14,66.46 2.14,66.79 2.14,66.46 1.81,66.79 1.81,66.46 1.81,65.8 1.48,65.48 1.48,64.82 1.48,64.49 1.48,64.17 1.48,63.84 
	1.16,63.84 1.16,63.51 1.16,63.18 1.16,62.53 1.16,62.2 0.83,61.87 0.83,61.54 0.83,61.22 0.83,60.89 0.83,60.56 0.5,59.91 
	0.5,59.58 0.5,59.25 0.5,58.92 0.5,58.6 0.17,58.27 0.17,57.94 0.17,57.61 0.17,57.29 0.17,56.96 0.17,56.63 0.17,56.3 -0.15,56.3 
	0.17,55.97 0.17,55.65 0.17,55.32 0.17,54.99 0.17,54.66 0.17,54.34 0.17,54.01 0.17,53.68 0.17,53.35 0.17,53.02 0.17,52.7 
	0.17,52.37 0.17,52.04 0.17,51.71 0.5,51.71 0.5,51.39 0.5,51.06 0.5,50.73 0.17,50.4 0.5,50.4 0.5,50.08 0.5,49.75 0.5,49.42 
	0.83,49.42 0.83,49.09 1.16,48.77 1.16,48.44 1.16,48.11 1.48,47.78 1.48,47.45 1.48,47.13 1.48,46.8 1.81,46.8 1.81,46.47 
	2.14,46.47 2.47,46.47 2.47,46.8 2.47,46.47 2.8,46.47 3.12,46.47 3.45,46.47 3.78,46.47 3.78,46.8 4.11,46.8 3.78,46.8 3.78,47.13 
	4.11,47.13 4.11,47.45 4.11,47.78 4.11,48.11 4.43,48.44 4.43,48.77 4.76,48.77 5.09,48.77 5.42,48.77 5.42,48.44 5.42,48.11 
	5.42,47.78 5.42,47.45 5.74,47.45 5.74,47.13 6.07,47.13 6.07,46.8 6.07,47.13 6.07,47.45 6.07,47.78 6.4,47.78 6.73,47.78 
	6.73,48.11 6.73,48.44 7.06,48.77 7.06,49.09 7.38,49.09 7.71,49.09 7.71,49.42 8.04,49.42 8.37,49.42 8.37,49.75 8.69,49.75 
	8.69,50.08 9.02,50.08 9.35,49.75 9.68,49.75 10.01,49.42 10.01,49.09 10.33,49.09 10.01,48.77 10.33,48.77 10.33,48.44 
	10.66,48.44 10.66,48.11 10.99,48.11 10.99,47.78 11.32,47.78 11.64,47.78 11.64,48.11 11.64,47.78 11.97,47.78 12.3,48.11 
	12.63,48.11 12.63,47.78 12.63,47.45 12.63,47.13 12.95,47.13 12.95,46.8 13.28,46.8 13.61,46.8 13.94,46.47 14.26,46.47 
	14.26,46.14 14.26,45.82 13.94,45.82 13.94,45.49 13.61,45.49 13.61,45.16 13.28,45.16 13.28,44.83 13.61,44.83 13.28,44.5 
	13.61,44.5 13.28,44.18 13.28,43.85 13.28,43.52 13.28,43.19 13.28,42.87 12.95,42.87 13.28,42.87 13.28,42.54 12.95,42.54 
	12.95,42.21 12.95,41.88 13.28,41.56 13.28,41.23 13.61,41.23 13.61,40.9 13.61,40.57 13.94,40.57 13.61,40.24 13.28,39.92 
	13.61,39.59 13.28,39.26 13.61,39.26 13.61,38.93 13.94,38.93 13.94,38.61 13.94,38.28 13.94,37.95 13.61,37.62 13.61,37.3 
	13.28,37.3 13.28,36.97 13.61,36.97 13.61,36.64 13.61,36.31 13.61,35.98 13.61,35.66 13.61,35.33 13.61,35 13.61,34.67 
	13.94,34.67 13.94,34.35 14.26,34.35 14.26,34.02 13.94,34.02 14.26,34.02 13.94,34.02 13.94,33.69 14.26,33.69 14.26,33.36 
	14.26,33.04 13.94,33.04 14.26,33.04 14.26,32.71 14.59,32.71 14.59,32.38 14.92,33.04 15.25,33.04 15.58,33.36 15.58,33.69 
	15.9,33.69 16.23,34.02 16.56,34.02 16.89,34.02 17.21,34.02 17.54,34.02 17.87,34.02 18.53,34.02 18.85,33.69 19.18,33.69 
	19.18,33.36 19.51,33.04 19.84,32.71 19.84,32.38 19.84,32.05 19.84,31.72 19.84,31.4 20.16,31.07 20.16,30.74 20.16,30.41 
	19.84,30.09 19.84,29.76 19.84,29.43 19.84,29.1 19.84,28.78 19.84,28.45 19.84,28.12 19.84,27.79 20.16,27.79 20.16,27.47 
	20.49,27.47 20.49,27.14 20.82,27.14 21.15,27.14 21.47,27.14 21.8,27.14 22.13,27.14 22.13,27.47 22.79,27.47 23.11,27.47 
	23.44,27.79 23.77,27.79 24.1,27.79 24.42,28.12 24.75,28.12 25.08,28.45 25.41,28.45 25.41,28.78 25.73,28.78 25.73,29.1 
	26.06,29.1 26.39,29.43 26.39,29.76 26.72,29.76 26.72,30.09 26.72,30.41 26.72,30.74 27.05,30.74 27.05,31.07 26.72,31.4 
	26.72,31.72 26.72,32.05 26.39,32.38 26.39,32.71 26.06,33.04 25.41,33.69 25.08,34.35 27.37,35.33 27.7,35.33 28.03,35.33 
	28.03,35.66 28.36,35.66 28.36,35.98 28.68,35.98 29.01,35.98 29.34,36.31 29.34,35.66 29.99,35.66 30.32,35.66 30.32,35.98 
	30.65,35.98 30.98,36.31 31.31,36.31 31.31,35.66 31.31,35.33 31.63,35.33 31.63,35.66 31.96,35.66 31.96,35.98 32.29,35.98 
	32.29,35.66 32.29,35.98 32.62,35.98 32.29,35.98 32.94,36.31 33.6,36.64 34.58,36.97 34.58,37.3 34.91,37.3 34.58,37.3 
	34.58,37.62 35.24,37.62 35.57,37.62 35.89,37.62 36.22,37.62 36.22,37.3 36.55,37.3 36.55,36.97 36.88,36.97 37.2,36.97 
	37.53,36.97 37.53,37.3 37.86,37.3 38.19,37.3 38.51,37.3 38.51,36.97 38.19,36.64 38.19,36.31 38.19,35.98 38.51,35.98 
	38.51,35.66 38.51,35.33 38.51,35 38.84,35 38.84,34.67 38.84,34.35 38.84,34.02 39.17,34.02 39.17,33.69 39.17,33.36 39.5,33.36 
	39.5,33.69 39.83,33.69 40.15,34.02 40.15,33.69 40.48,33.69 40.81,33.69 40.81,34.02 41.14,34.02 41.46,34.35 41.46,34.67 
	41.79,34.67 42.12,34.67 42.45,34.67 42.45,35 42.78,35 43.1,35 43.1,35.33 43.43,35.33 43.76,35.66 44.09,35.66 44.41,35.66 
	44.74,35.98 45.07,35.98 45.4,35.98 45.72,35.98 45.72,36.31 46.05,36.31 46.38,36.31 46.71,36.31 47.04,36.64 47.36,36.64 
	47.36,36.31 47.36,35.98 47.36,35.66 47.36,35.33 47.69,35 47.69,34.67 47.69,34.35 48.02,34.35 48.02,34.02 48.35,33.69 
	48.35,33.36 48.67,33.04 48.35,33.04 48.35,32.71 48.67,32.71 48.67,32.38 48.67,32.05 48.67,31.72 49,31.4 49,31.07 49,30.74 
	49,30.41 49.33,30.41 49.33,30.09 49.33,29.76 49.33,29.43 49.33,29.1 49.33,28.78 49.66,28.12 49.66,27.79 49.98,27.79 
	49.98,27.47 49.66,27.47 49.66,27.14 49.66,26.81 49.66,26.48 49.66,26.15 49.66,25.83 49.66,25.5 49.33,25.17 49.33,24.52 
	49.66,24.52 50.31,24.52 50.64,24.52 50.97,24.52 51.3,24.52 51.62,24.52 51.95,24.52 52.28,24.52 52.61,24.52 52.93,24.52 
	53.26,24.52 53.26,24.84 53.59,24.84 54.24,24.84 54.57,24.84 54.9,24.84 55.23,24.84 55.56,24.84 55.88,24.84 56.21,24.84 
	56.87,24.84 57.19,24.84 57.52,24.84 58.83,24.84 59.16,24.84 59.49,24.84 59.82,24.84 59.82,25.17 60.14,25.17 60.8,25.17 
	60.8,24.84 61.13,24.84 61.45,24.84 61.78,24.84 62.11,24.84 62.44,24.84 63.09,24.84 63.42,24.84 63.75,24.84 64.08,24.84 
	66.7,25.83 67.03,25.83 67.35,26.15 67.68,26.15 68.01,26.15 68.01,26.48 68.34,26.48 68.66,26.48 68.99,26.81 69.32,26.81 
	69.65,26.81 69.97,27.14 70.3,27.14 70.63,27.14 70.96,27.47 71.29,27.47 71.61,27.47 71.94,27.79 72.27,27.79 72.6,28.12 
	72.92,28.12 73.25,28.12 73.25,28.45 73.58,28.45 73.91,28.45 74.56,28.78 75.22,29.1 75.87,29.43 76.2,29.43 76.53,29.43 
	76.86,29.76 77.18,30.09 77.18,29.76 77.51,29.76 77.51,29.43 77.51,29.1 77.51,28.78 "/>
</svg>
