<?xml version="1.0" encoding="utf-8"?>
<!-- Generator: Adobe Illustrator 24.2.1, SVG Export Plug-In . SVG Version: 6.00 Build 0)  -->
<svg version="1.1" id="Layer_1" xmlns="http://www.w3.org/2000/svg" xmlns:xlink="http://www.w3.org/1999/xlink" x="0px" y="0px"
	 viewBox="0 0 97.23 97.23" style="enable-background:new 0 0 97.23 97.23;" xml:space="preserve">
<style type="text/css">
	.st0{fill-rule:evenodd;clip-rule:evenodd;fill:#1D1D1B;}
</style>
<polygon class="st0" points="71.83,2.93 72.45,2.93 73.07,2.93 73.07,3.55 73.68,3.55 74.3,3.55 74.92,3.55 75.54,3.55 75.54,4.17 
	75.54,4.79 75.54,5.41 76.16,5.41 76.16,6.02 76.77,6.02 76.77,6.64 77.39,6.02 77.39,6.64 77.39,7.26 78.01,7.26 78.01,7.88 
	78.01,8.5 78.63,8.5 78.63,9.11 79.25,9.73 79.25,10.35 79.86,10.35 79.86,10.97 80.48,10.97 80.48,11.58 80.48,12.2 81.1,12.2 
	81.1,12.82 81.72,13.44 82.33,14.06 82.95,14.67 82.95,15.91 83.57,16.53 84.19,17.14 84.81,17.76 85.42,19 85.42,19.62 
	86.04,20.23 86.66,20.23 86.66,20.85 87.28,22.09 87.28,23.32 87.28,23.94 87.89,24.56 87.89,25.18 87.89,25.79 88.51,26.41 
	88.51,27.65 88.51,28.27 88.51,28.88 88.51,30.12 88.51,30.74 88.51,31.36 88.51,31.97 88.51,32.59 87.89,32.59 87.28,32.59 
	86.66,33.21 86.04,33.21 85.42,33.21 85.42,33.83 85.42,33.21 84.81,33.21 84.81,33.83 84.19,33.83 83.57,33.83 83.57,34.45 
	82.95,34.45 82.33,34.45 82.33,35.06 81.72,35.06 81.1,35.06 81.1,35.68 80.48,35.68 80.48,36.3 79.86,36.3 79.86,36.92 
	79.25,37.53 78.63,37.53 78.63,38.15 78.01,38.15 78.01,38.77 78.01,39.39 77.39,39.39 77.39,40.01 76.77,40.01 76.77,40.62 
	76.16,41.24 76.16,41.86 76.16,42.48 75.54,42.48 75.54,43.1 74.92,43.1 74.92,43.71 74.92,44.33 74.92,44.95 74.92,45.57 
	74.92,46.18 74.3,46.18 74.3,46.8 74.92,47.42 74.3,47.42 74.3,48.04 74.3,48.66 74.3,49.27 73.68,49.27 73.68,49.89 73.07,49.89 
	73.07,50.51 73.07,51.13 73.07,51.74 72.45,51.74 72.45,52.36 71.83,52.36 71.21,52.98 69.98,54.22 69.36,54.83 68.74,54.83 
	68.12,54.83 67.51,54.83 68.12,54.22 67.51,54.22 67.51,54.83 66.89,54.83 66.89,54.22 66.27,54.22 66.27,53.6 66.27,54.22 
	65.65,54.22 65.65,53.6 65.03,53.6 64.42,53.6 63.8,53.6 63.18,53.6 63.18,52.98 62.56,52.98 61.95,52.98 61.33,52.98 60.71,52.98 
	60.09,54.22 59.47,54.83 60.09,54.83 60.71,55.45 60.71,56.07 61.33,56.69 61.33,57.3 61.95,57.3 61.95,57.92 61.95,58.54 
	61.33,58.54 61.33,59.16 61.33,59.78 60.71,60.39 60.71,61.01 60.71,61.63 60.71,62.25 60.71,62.87 60.71,64.1 60.71,64.72 
	60.71,65.34 60.71,65.95 60.09,66.57 58.86,67.19 58.24,67.19 57.62,67.19 57,67.19 57,67.81 56.38,67.81 55.77,68.43 55.15,68.43 
	55.15,69.04 54.53,69.04 53.91,69.04 53.3,69.04 53.91,69.04 53.91,69.66 53.3,69.66 52.06,70.28 52.06,70.9 51.44,70.9 50.82,70.9 
	50.21,71.51 49.59,71.51 48.97,71.51 48.97,72.13 48.35,72.13 48.35,72.75 47.73,73.37 47.12,73.37 47.12,73.99 46.5,73.99 
	45.88,73.99 45.26,73.99 44.64,73.99 44.03,73.99 44.03,74.6 44.64,75.22 44.03,75.22 44.03,75.84 44.64,75.84 44.64,76.46 
	44.64,77.08 44.64,77.69 44.64,78.31 44.03,78.31 44.03,78.93 43.41,78.93 42.79,78.93 42.17,78.93 41.56,78.93 40.94,78.93 
	40.32,78.93 39.7,79.55 39.08,79.55 38.47,79.55 38.47,80.16 38.47,80.78 37.85,80.78 37.85,81.4 37.85,82.02 37.85,82.64 
	37.23,82.64 37.23,83.25 36.61,83.25 35.38,83.87 34.76,83.87 34.76,84.49 34.14,84.49 33.52,83.87 32.91,83.25 32.29,82.64 
	32.29,83.25 31.67,83.25 31.67,83.87 31.05,83.87 30.43,83.87 29.82,84.49 29.82,83.87 29.2,83.87 29.2,83.25 29.2,83.87 
	28.58,83.87 28.58,83.25 27.96,83.25 27.34,83.25 26.73,83.25 26.11,83.25 25.49,83.25 24.87,83.25 24.26,83.25 23.64,83.87 
	23.64,84.49 24.26,84.49 24.26,85.11 24.26,85.73 24.87,85.73 24.87,86.34 24.26,86.96 23.64,86.96 23.64,87.58 23.64,88.2 
	24.26,88.2 24.26,88.81 23.64,88.81 23.64,89.43 23.64,90.05 23.02,90.67 23.02,90.05 22.4,90.05 22.4,90.67 21.78,90.67 
	21.17,90.67 21.17,91.29 21.17,91.9 20.55,91.29 20.55,91.9 19.93,91.9 19.31,92.52 19.93,92.52 19.93,93.14 19.93,93.76 
	20.55,93.76 20.55,94.38 20.55,94.99 20.55,95.61 20.55,96.23 20.55,96.85 19.93,96.85 19.93,96.23 19.93,95.61 19.31,95.61 
	19.31,96.23 18.7,96.23 18.7,95.61 19.31,95.61 18.7,95.61 18.08,95.61 18.08,94.99 17.46,94.99 17.46,95.61 17.46,94.99 
	16.84,94.99 16.22,94.99 16.22,95.61 15.61,95.61 14.99,96.23 14.99,96.85 14.37,96.85 13.75,96.85 13.13,96.85 12.52,96.85 
	11.9,96.85 11.28,96.23 11.28,94.99 11.28,94.38 11.28,93.76 11.28,93.14 11.28,92.52 11.28,90.67 10.66,88.81 10.66,88.2 
	10.66,86.34 10.05,82.02 10.05,81.4 9.43,79.55 9.43,78.93 9.43,78.31 9.43,77.69 9.43,77.08 9.43,76.46 9.43,75.84 9.43,74.6 
	9.43,73.99 9.43,73.37 9.43,72.75 9.43,72.13 9.43,71.51 9.43,70.9 10.05,70.9 10.05,70.28 10.05,69.66 10.05,68.43 10.05,67.81 
	10.66,67.81 10.66,67.19 10.05,67.19 10.66,67.19 10.66,66.57 10.66,65.95 10.66,65.34 11.28,65.34 11.28,64.72 11.28,64.1 
	11.28,63.48 11.9,63.48 11.9,62.87 11.28,62.87 11.28,62.25 11.9,62.25 11.9,61.63 11.9,61.01 11.9,60.39 11.9,59.78 11.9,59.16 
	12.52,59.16 12.52,58.54 12.52,57.92 12.52,57.3 13.13,57.3 13.13,56.69 13.13,56.07 13.13,55.45 13.75,54.83 13.75,54.22 
	13.75,53.6 13.75,52.98 13.75,52.36 14.37,51.74 14.37,51.13 14.37,50.51 14.37,49.89 14.37,49.27 14.99,49.27 14.99,48.66 
	14.99,48.04 14.99,47.42 15.61,47.42 15.61,46.8 15.61,46.18 16.22,46.18 16.22,45.57 16.22,44.95 16.22,44.33 16.84,44.33 
	16.84,43.71 16.84,43.1 17.46,42.48 17.46,41.86 17.46,41.24 18.08,41.24 18.08,40.62 18.08,40.01 18.7,39.39 18.7,38.77 
	18.7,38.15 19.31,38.15 19.31,37.53 19.31,36.92 19.93,36.3 19.93,35.68 19.93,35.06 20.55,35.06 20.55,34.45 20.55,33.83 
	21.17,33.83 21.17,33.21 21.17,32.59 21.78,32.59 21.78,31.97 21.78,31.36 22.4,31.36 22.4,30.74 22.4,30.12 22.4,29.5 22.4,28.88 
	23.02,28.88 23.02,28.27 23.02,27.65 22.4,27.65 22.4,27.03 22.4,26.41 23.02,26.41 22.4,26.41 22.4,25.79 22.4,25.18 22.4,24.56 
	22.4,23.94 22.4,23.32 21.78,23.32 21.78,22.71 21.17,22.71 21.17,22.09 21.17,21.47 21.17,20.85 21.78,20.23 21.78,19.62 
	22.4,19.62 22.4,19 22.4,18.38 22.4,17.76 22.4,17.14 22.4,16.53 21.78,16.53 21.78,15.91 22.4,15.91 22.4,15.29 23.02,15.29 
	23.02,14.67 23.64,14.67 24.26,14.67 24.26,14.06 24.26,13.44 24.26,12.82 23.64,12.82 23.64,12.2 24.26,12.2 24.26,11.58 
	24.87,10.97 24.87,10.35 25.49,10.35 25.49,9.73 25.49,9.11 26.11,9.11 26.73,9.11 26.73,8.5 27.34,7.88 27.96,7.88 28.58,7.88 
	28.58,7.26 29.2,7.26 29.82,7.26 29.82,6.64 29.82,6.02 30.43,6.02 30.43,5.41 31.05,5.41 31.67,5.41 32.29,5.41 32.29,4.79 
	31.05,2.93 29.82,1.7 30.43,1.08 31.05,1.08 32.29,0.46 32.91,0.46 33.52,-0.15 34.14,-0.15 34.14,0.46 34.76,0.46 34.76,1.08 
	35.38,1.08 35.38,1.7 35.38,2.32 35.99,2.32 35.99,2.93 36.61,3.55 36.61,4.17 37.23,4.17 37.23,3.55 37.23,4.17 37.85,4.17 
	37.85,4.79 37.85,5.41 37.85,6.02 38.47,6.02 39.08,6.02 40.32,6.02 40.94,6.02 41.56,6.02 42.79,6.02 45.26,6.02 45.26,6.64 
	45.88,6.64 46.5,6.64 47.12,6.64 47.12,7.26 47.73,7.88 47.73,8.5 48.35,9.11 48.35,9.73 48.97,9.73 48.97,10.35 49.59,10.35 
	49.59,9.73 49.59,9.11 49.59,8.5 50.21,8.5 50.82,8.5 51.44,9.11 51.44,8.5 52.06,8.5 52.68,7.88 53.3,7.26 53.91,7.26 53.91,6.64 
	54.53,6.64 55.15,6.02 55.77,6.02 55.77,5.41 56.38,5.41 57,4.79 57,5.41 57.62,5.41 57.62,6.02 58.24,6.02 58.24,6.64 58.86,6.64 
	58.86,7.26 59.47,7.26 59.47,6.64 59.47,6.02 61.33,3.55 61.95,2.93 61.95,2.32 62.56,1.7 62.56,1.08 63.18,1.08 63.18,1.7 
	63.8,1.7 63.8,2.32 64.42,2.32 65.03,2.32 65.03,1.7 65.65,1.7 65.65,1.08 66.27,1.7 66.89,1.7 67.51,1.7 68.12,1.7 68.12,2.32 
	68.74,2.32 68.74,2.93 69.36,2.93 69.36,3.55 69.98,3.55 70.6,3.55 71.21,3.55 71.21,2.93 "/>
</svg>
