<?xml version="1.0" encoding="utf-8"?>
<!-- Generator: Adobe Illustrator 24.2.1, SVG Export Plug-In . SVG Version: 6.00 Build 0)  -->
<svg version="1.1" id="Layer_1" xmlns="http://www.w3.org/2000/svg" xmlns:xlink="http://www.w3.org/1999/xlink" x="0px" y="0px"
	 viewBox="0 0 97.23 97.23" style="enable-background:new 0 0 97.23 97.23;" xml:space="preserve">
<style type="text/css">
	.st0{fill-rule:evenodd;clip-rule:evenodd;fill:#1D1D1B;}
</style>
<polygon class="st0" points="76.25,8.85 76.25,9.28 76.25,9.7 76.25,10.13 76.25,10.56 76.25,10.99 75.83,10.99 75.83,11.42 
	75.83,11.85 75.83,12.28 75.4,12.28 75.4,12.71 74.97,12.71 75.4,12.71 75.4,13.14 75.4,13.57 75.83,13.57 75.83,14 76.25,14 
	75.83,14 75.83,14.42 76.25,14.42 76.68,14.85 76.25,14.85 76.25,15.28 75.83,15.28 75.4,14.85 74.97,14.85 74.97,15.28 75.4,15.28 
	75.4,15.71 75.4,16.14 75.4,16.57 74.97,16.57 74.97,17 74.97,17.43 74.97,17.86 74.97,18.28 74.54,18.28 74.54,18.71 74.97,18.71 
	74.97,19.14 74.97,19.57 74.97,20 74.97,20.43 74.97,20.86 74.97,21.29 75.4,21.29 75.4,21.72 75.4,22.15 75.4,22.57 75.4,23 
	75.83,23 75.83,23.43 75.83,23.86 76.25,23.86 76.68,24.29 76.68,24.72 76.68,25.15 76.68,25.58 76.68,26.01 77.11,26.43 
	77.11,26.86 77.11,27.29 77.11,27.72 77.11,28.15 77.11,28.58 76.68,28.58 76.68,29.01 76.68,29.44 77.11,29.44 77.54,29.44 
	77.97,29.44 78.4,29.44 78.4,29.01 78.83,29.01 78.83,29.44 78.83,29.87 78.4,29.87 78.4,30.3 78.4,30.73 77.97,30.73 78.4,31.15 
	78.4,31.58 78.4,32.01 78.4,31.58 78.83,31.58 78.83,32.01 79.26,32.01 79.26,32.44 79.26,32.87 79.69,32.87 80.11,32.87 
	79.69,32.87 80.11,32.87 80.54,32.87 80.54,33.3 80.54,33.73 80.54,34.16 80.97,34.16 80.97,33.73 81.4,33.73 81.83,33.73 
	81.83,34.16 82.26,34.16 82.69,34.16 83.12,34.59 83.55,34.59 83.55,35.02 83.55,35.44 83.55,35.87 83.55,36.3 83.98,36.3 
	83.98,36.73 84.41,36.73 84.83,36.73 84.83,37.59 84.83,38.02 84.83,37.59 85.26,37.59 85.26,38.02 85.26,37.59 85.69,37.59 
	86.12,37.59 86.12,38.02 86.12,38.45 86.12,38.88 86.12,39.73 86.12,40.16 86.55,40.16 86.55,40.59 86.12,40.59 86.55,40.59 
	86.55,41.02 86.55,41.45 86.12,41.45 86.12,41.88 86.12,42.31 86.55,42.31 86.55,42.74 86.55,43.17 86.98,43.17 86.98,43.6 
	87.41,43.6 87.41,44.02 87.41,44.45 87.84,44.45 87.41,44.45 87.41,44.88 86.98,44.88 86.98,45.31 86.98,44.88 86.98,45.31 
	87.41,45.31 87.84,45.31 87.84,45.74 87.84,45.31 87.84,45.74 87.84,46.17 88.27,46.17 87.84,46.17 88.27,46.17 87.84,46.17 
	87.84,46.6 88.27,46.6 88.27,47.03 88.27,47.46 88.27,47.89 88.27,48.31 88.27,48.74 88.7,48.74 88.27,48.74 88.27,49.17 
	88.7,49.17 88.27,49.17 88.7,49.17 88.7,49.6 88.7,49.17 88.7,49.6 88.7,50.03 88.7,49.6 89.12,49.6 89.12,50.03 89.12,50.46 
	89.55,50.46 89.55,50.89 89.55,51.32 89.55,51.75 89.55,52.18 89.98,52.18 89.98,52.6 89.98,53.03 89.98,53.46 90.41,53.46 
	90.84,53.46 91.27,53.46 91.7,53.46 91.7,53.03 92.13,53.03 92.56,53.03 92.99,53.03 93.41,53.03 93.84,53.03 94.27,53.03 
	94.27,52.6 94.7,52.6 95.13,52.6 95.56,52.6 95.56,52.18 95.56,52.6 95.99,52.6 95.99,53.03 95.99,53.46 95.56,53.46 95.56,53.89 
	95.56,54.75 95.13,54.75 95.56,55.18 95.99,55.18 95.99,55.61 96.42,55.61 96.42,56.04 96.42,56.46 96.85,56.46 96.85,56.89 
	96.42,56.89 96.42,57.32 96.42,57.75 95.99,57.75 95.56,57.75 95.56,58.18 95.56,58.61 95.13,58.61 95.13,59.04 94.7,59.04 
	94.27,59.04 93.84,59.04 93.84,59.47 93.84,59.9 93.84,60.33 93.41,60.33 93.41,60.76 93.41,61.18 93.41,61.61 93.41,62.04 
	93.41,62.47 93.41,62.9 93.41,63.33 93.41,64.19 93.41,64.62 93.41,65.04 93.41,65.47 93.41,65.9 93.41,66.33 93.84,66.76 
	93.84,68.05 94.27,69.34 94.27,69.76 93.84,69.76 93.41,69.76 92.99,69.76 92.56,69.76 92.13,69.76 91.7,69.76 91.7,70.19 
	91.27,70.19 90.84,70.19 90.41,70.19 89.98,70.19 89.55,70.19 89.55,69.76 89.12,69.76 88.7,69.76 88.7,70.19 88.27,70.19 
	87.84,70.19 87.41,70.19 86.98,70.19 86.98,70.62 86.55,70.62 86.12,70.62 85.69,70.62 85.26,70.62 84.83,70.62 84.41,70.62 
	83.98,70.62 83.98,71.05 83.55,71.05 83.12,71.05 82.69,71.05 82.26,71.05 81.83,71.05 81.4,71.05 80.97,71.48 80.54,71.48 
	80.11,71.48 79.69,71.48 79.26,71.48 78.83,71.48 78.4,71.48 77.97,71.48 77.54,71.48 77.11,71.48 76.68,71.48 76.25,71.48 
	75.83,71.48 75.4,71.48 75.4,71.05 75.4,71.48 75.4,71.05 74.97,71.05 74.97,71.48 74.54,71.48 74.11,71.48 74.11,71.05 
	73.68,71.05 73.25,71.05 72.82,71.05 72.39,70.62 72.39,71.05 72.39,70.62 71.96,70.62 71.53,70.62 71.11,70.62 70.68,70.62 
	70.68,70.19 70.25,70.19 69.82,70.19 69.82,69.76 69.39,69.76 69.39,69.34 68.96,69.34 68.96,69.76 68.96,69.34 68.53,69.34 
	68.1,69.34 68.53,69.34 68.1,69.34 68.1,68.91 67.67,68.91 67.25,68.91 66.82,68.91 66.82,68.48 66.39,68.48 66.39,68.05 
	66.39,68.48 65.96,68.48 65.96,68.05 65.53,68.05 65.1,67.62 64.67,67.62 64.24,67.19 63.81,67.19 63.38,66.76 61.24,67.62 
	61.24,68.05 61.24,68.48 61.24,68.91 60.81,69.76 60.38,70.62 60.38,71.05 59.95,71.48 59.52,71.91 58.66,72.34 58.24,72.77 
	57.81,72.77 57.81,73.2 57.38,73.2 56.95,73.2 56.95,73.62 56.52,73.62 56.52,74.05 56.52,73.62 56.52,74.05 56.09,74.05 
	56.09,73.62 56.09,74.05 55.66,74.05 55.23,74.05 55.23,74.48 54.8,74.48 54.37,74.48 53.95,74.91 53.52,74.91 53.09,74.91 
	52.66,74.91 52.66,75.34 52.23,74.91 52.23,75.34 51.8,75.34 51.8,74.91 51.8,75.34 51.37,75.34 50.51,75.77 50.08,75.34 
	50.08,75.77 50.08,75.34 50.08,75.77 49.66,75.77 49.66,76.2 49.66,75.77 49.23,75.77 48.8,75.77 48.37,75.77 48.8,76.2 48.8,76.63 
	48.37,76.63 47.94,76.63 47.51,76.63 47.08,76.63 47.08,76.2 47.08,76.63 47.08,77.06 46.65,77.06 46.22,76.63 46.22,77.06 
	45.79,77.06 45.37,77.06 44.94,77.06 45.37,77.49 44.94,77.49 44.51,77.49 44.08,77.49 43.65,77.91 43.22,77.91 42.36,77.91 
	41.93,78.34 41.5,78.34 41.08,78.34 40.65,78.34 40.22,78.34 40.22,78.77 39.79,78.77 39.36,78.77 38.93,78.77 38.5,78.77 
	38.5,79.2 38.07,79.2 37.64,79.2 37.64,79.63 37.64,79.2 37.64,79.63 37.64,79.2 37.21,79.63 36.79,79.63 36.36,79.63 35.93,80.06 
	35.93,79.63 35.5,79.63 35.07,79.63 35.07,80.06 34.64,80.06 34.21,80.06 34.21,80.49 33.78,80.49 33.35,80.49 32.92,80.49 
	32.92,80.92 32.92,80.49 32.49,80.49 32.92,80.49 32.92,80.92 32.49,80.92 32.07,80.92 31.64,80.92 30.78,81.35 30.35,81.35 
	29.92,81.35 29.92,81.78 29.49,81.78 29.06,81.78 28.63,82.2 27.35,82.2 27.35,82.63 26.92,82.63 26.49,82.63 26.06,82.63 
	25.63,83.06 25.2,83.06 24.77,83.06 24.34,83.06 24.34,83.49 23.91,83.49 23.49,83.49 23.06,83.92 22.63,83.92 22.2,83.92 
	21.77,84.35 20.91,84.35 20.48,84.35 20.48,84.78 20.05,84.78 19.63,84.78 19.2,84.78 19.2,85.21 18.77,85.21 18.34,85.21 
	17.91,85.64 17.48,85.64 17.05,85.64 17.05,86.07 16.62,86.07 16.62,85.64 16.62,86.07 16.19,86.07 15.76,86.07 15.33,86.07 
	14.91,86.49 14.48,86.49 14.05,86.49 14.05,86.92 13.62,86.92 13.19,86.92 13.19,86.49 13.19,86.07 13.19,85.64 13.19,84.78 
	13.19,84.35 13.19,83.92 13.19,83.06 12.76,82.63 12.76,82.2 12.76,81.78 12.33,81.35 12.33,80.92 12.33,80.06 11.9,79.2 
	11.9,78.77 11.47,78.77 11.05,78.34 11.05,77.91 10.62,77.06 10.19,76.63 9.76,76.2 9.33,75.77 9.33,74.91 8.9,74.48 8.47,74.05 
	8.04,73.62 8.04,73.2 7.61,73.2 7.61,72.77 7.61,72.34 7.18,72.34 7.18,71.91 6.76,71.91 6.76,71.48 6.33,71.05 6.33,70.62 
	5.9,70.62 5.9,70.19 5.9,69.76 5.47,69.76 5.47,69.34 5.47,68.91 5.04,69.34 5.04,68.91 4.61,68.91 4.61,68.48 4.18,68.48 
	4.18,68.05 4.18,67.62 4.18,67.19 3.75,67.19 3.32,67.19 2.89,67.19 2.47,67.19 2.47,66.76 2.04,66.76 1.61,66.76 1.18,66.76 
	1.18,66.33 1.18,65.9 1.18,65.47 1.18,65.04 0.75,65.04 0.75,64.62 0.75,64.19 0.32,64.19 0.32,63.76 0.75,63.76 0.75,63.33 
	1.18,63.33 1.61,63.33 1.61,62.9 1.61,62.47 1.61,62.04 1.18,62.04 1.18,61.61 1.18,61.18 1.18,60.76 1.61,60.76 1.61,60.33 
	2.04,60.33 2.47,60.33 2.47,59.9 2.89,59.9 3.32,59.47 3.75,59.47 4.18,59.04 4.61,59.04 4.61,58.61 4.61,58.18 4.61,57.75 
	4.61,56.89 4.61,55.61 4.61,55.18 4.61,54.32 4.18,53.89 4.18,53.46 3.75,52.6 3.75,52.18 3.32,51.75 3.32,51.32 3.32,50.89 
	3.32,50.46 2.89,50.03 2.89,49.6 2.89,49.17 2.89,48.31 2.89,47.89 2.89,47.46 2.89,47.03 2.89,46.6 2.89,46.17 3.32,45.74 
	3.32,45.31 3.32,44.88 3.75,44.88 3.75,45.31 3.75,44.88 4.18,44.88 4.61,44.88 4.61,44.45 4.18,44.45 4.18,44.02 4.18,43.6 
	3.75,43.6 4.18,43.6 3.75,43.17 3.75,42.74 3.32,42.74 3.32,42.31 2.89,41.88 2.47,41.45 2.04,41.45 2.04,41.02 2.04,40.59 
	1.61,40.59 1.61,40.16 2.04,40.16 2.47,40.16 2.89,40.16 3.32,40.16 3.75,39.73 4.18,39.73 4.61,39.73 5.04,39.73 5.04,39.31 
	5.47,39.31 5.47,38.88 5.9,38.88 5.9,38.45 6.33,38.45 6.33,38.88 6.76,38.88 6.76,38.45 7.18,38.45 7.18,38.02 6.76,38.02 
	6.76,37.59 7.18,37.59 7.18,37.16 7.18,36.73 6.76,36.73 6.76,36.3 7.18,36.3 7.18,35.87 7.61,35.44 8.04,35.44 8.04,35.02 
	8.04,34.59 8.04,34.16 8.04,33.73 8.04,33.3 8.04,32.87 7.61,32.87 7.61,32.44 7.61,32.01 7.61,31.58 7.61,31.15 8.04,31.15 
	8.04,30.73 8.47,30.73 8.9,30.73 9.33,30.73 9.33,31.15 9.76,31.15 9.76,30.73 10.19,30.73 10.62,30.73 10.62,30.3 11.05,30.3 
	11.47,30.3 11.9,30.3 12.33,30.73 12.76,30.73 13.19,30.73 13.62,30.73 14.05,30.73 14.48,30.73 15.33,31.15 15.76,31.15 
	16.19,31.15 16.62,31.15 17.05,31.15 17.48,31.15 17.91,31.15 18.34,31.15 18.77,31.15 19.2,30.73 19.63,30.73 20.05,30.3 
	20.48,30.3 20.91,29.87 21.34,29.44 21.77,29.01 22.2,28.58 22.63,27.72 23.06,27.72 23.49,26.86 23.91,26.43 23.91,26.01 
	24.34,25.58 24.34,25.15 24.34,24.72 24.77,24.72 25.2,24.29 25.63,23.86 26.06,23.43 26.06,23 26.49,23 26.92,22.57 27.35,22.57 
	27.78,22.15 28.63,22.15 29.06,22.15 29.92,22.15 30.78,22.15 31.64,22.15 32.07,22.15 32.07,21.72 32.49,21.72 32.92,21.72 
	33.35,21.29 33.78,21.29 33.78,20.86 34.21,20.86 34.21,21.29 34.21,21.72 34.64,21.72 34.64,22.15 35.07,22.15 35.5,22.15 
	35.5,22.57 35.93,22.57 36.36,22.57 36.79,22.57 36.79,22.15 36.79,21.72 36.79,21.29 37.21,21.29 37.21,20.86 37.64,20.86 
	38.07,20.86 38.5,20.86 38.5,21.29 38.5,21.72 38.5,22.15 38.93,22.57 39.36,23 39.79,23 40.22,23 40.65,23 41.08,23 41.5,23 
	41.93,23 42.36,23 42.79,23 43.22,22.57 43.65,22.57 44.08,22.57 44.51,22.15 44.94,22.15 45.37,22.15 45.79,22.15 45.79,21.72 
	46.22,21.72 46.22,21.29 46.65,21.29 47.08,22.15 47.51,22.57 47.94,23 47.94,23.43 48.37,23.86 48.37,24.29 48.37,24.72 
	48.8,24.72 48.8,25.15 48.8,25.58 49.23,25.58 51.8,24.29 52.66,23.86 53.09,23.43 53.52,24.29 56.09,22.57 56.95,22.15 
	57.38,22.15 57.81,22.15 58.66,22.57 59.09,22.57 59.95,22.15 61.24,21.29 61.67,20.86 61.67,20 62.1,19.57 62.53,19.57 
	62.95,18.71 62.95,17.86 63.38,15.71 64.24,15.28 64.67,14.42 65.53,14 67.25,13.57 68.1,13.14 69.39,13.14 70.68,12.71 
	71.96,12.71 72.39,12.71 72.82,12.28 72.82,11.85 72.82,11.42 72.82,10.99 73.25,10.99 73.68,10.56 73.68,10.13 74.11,9.7 
	74.54,9.7 74.97,9.28 75.4,9.28 75.83,8.85 "/>
</svg>
