<?xml version="1.0" encoding="utf-8"?>
<!-- Generator: Adobe Illustrator 24.2.1, SVG Export Plug-In . SVG Version: 6.00 Build 0)  -->
<svg version="1.1" id="Layer_1" xmlns="http://www.w3.org/2000/svg" xmlns:xlink="http://www.w3.org/1999/xlink" x="0px" y="0px"
	 viewBox="0 0 97.23 97.23" style="enable-background:new 0 0 97.23 97.23;" xml:space="preserve">
<style type="text/css">
	.st0{fill-rule:evenodd;clip-rule:evenodd;fill:#1D1D1B;}
</style>
<polygon class="st0" points="92.91,2.85 92.91,3.04 92.91,3.24 92.91,3.43 93.1,3.43 92.91,3.43 92.91,3.63 92.91,3.82 92.71,3.82 
	92.91,3.82 92.91,4.02 92.91,4.21 93.1,4.21 93.1,4.41 93.1,4.6 93.1,4.8 93.1,4.99 93.1,5.19 93.3,5.19 93.3,5.39 93.3,5.58 
	93.3,5.78 93.69,5.97 93.69,6.17 93.69,6.36 93.88,6.36 93.88,6.56 93.88,6.36 93.88,6.56 94.08,6.56 94.08,6.75 93.88,6.75 
	93.69,6.75 93.88,6.75 93.88,6.95 93.69,6.95 93.69,7.14 93.88,7.14 93.69,7.14 93.88,7.14 93.69,7.14 93.88,7.14 93.88,7.34 
	93.88,7.53 93.69,7.53 93.69,7.73 93.69,7.92 93.69,8.12 93.49,8.12 93.49,8.32 93.69,8.32 93.49,8.32 93.69,8.32 93.49,8.32 
	93.49,8.51 93.69,8.51 93.88,8.51 93.88,8.71 94.08,8.71 93.88,8.71 93.88,8.9 94.08,8.9 93.88,8.9 94.08,8.9 93.88,8.9 93.88,9.1 
	94.08,9.1 93.88,9.1 93.88,9.29 94.08,9.29 94.08,9.1 94.08,9.29 94.08,9.49 94.27,9.49 94.47,9.49 94.47,9.68 94.27,9.68 
	94.27,9.88 94.47,9.88 94.47,10.07 94.66,10.07 94.47,10.07 94.47,10.27 94.47,10.46 94.47,10.66 94.66,10.66 94.66,10.85 
	94.86,11.05 94.66,11.05 94.86,11.05 94.86,11.25 94.66,11.25 94.66,11.44 94.86,11.44 94.86,11.64 94.86,11.83 95.06,11.83 
	95.06,12.03 94.86,12.22 95.06,12.22 94.86,12.22 94.86,12.42 95.06,12.42 94.86,12.42 94.86,12.61 94.86,12.42 94.66,12.42 
	94.86,12.42 94.66,12.42 94.66,12.61 94.66,12.81 94.66,13 94.86,13 94.86,13.2 94.86,13.39 94.86,13.59 94.66,13.39 94.66,13.59 
	94.86,13.59 94.86,13.78 94.86,13.59 94.66,13.78 94.86,13.78 95.06,13.78 95.06,13.98 95.06,14.17 95.06,14.37 95.25,14.37 
	95.25,14.57 95.25,14.76 95.45,14.76 95.45,14.57 95.45,14.76 95.45,14.96 95.25,14.96 95.25,15.15 95.45,15.15 95.45,15.35 
	95.64,15.35 95.64,15.15 95.64,15.35 95.64,15.54 95.84,15.74 95.84,15.93 95.64,15.93 95.64,16.13 95.64,15.93 95.64,16.13 
	95.84,16.13 95.84,16.32 95.64,16.32 95.84,16.32 95.84,16.52 96.03,16.52 95.84,16.52 96.03,16.52 96.03,16.32 96.03,16.52 
	96.23,16.52 96.23,16.71 96.42,16.71 96.42,16.91 96.42,17.1 96.23,17.3 96.42,17.3 96.42,17.5 96.62,17.5 96.62,17.69 96.81,17.69 
	96.81,17.89 96.81,18.08 96.81,18.28 96.62,18.28 96.62,18.47 96.62,18.67 96.81,18.67 96.81,18.86 96.81,19.06 96.81,19.25 
	96.81,19.45 96.81,19.64 97.01,19.64 97.01,19.84 97.01,20.04 97.2,20.04 97.2,20.23 97.01,20.23 97.01,20.43 97.2,20.62 
	97.01,20.82 97.01,21.01 97.2,21.01 97.2,21.21 97.4,21.21 97.4,21.4 97.4,21.6 97.4,21.79 97.4,21.99 97.4,22.18 97.2,22.18 
	97.2,22.38 97.2,22.57 97.2,22.77 97.4,22.77 97.4,22.97 97.2,22.97 97.2,23.16 97.2,23.36 97.4,23.36 97.4,23.55 97.4,23.75 
	97.2,23.75 97.2,23.94 97.2,24.14 97.01,24.14 97.01,24.33 96.81,24.33 96.62,24.33 96.42,24.53 96.23,24.53 96.03,24.53 
	95.84,24.53 95.64,24.53 95.64,24.72 95.45,24.72 95.45,24.92 95.25,24.92 95.25,25.11 95.06,25.11 94.86,25.11 94.66,25.11 
	94.66,25.31 94.47,25.31 94.27,25.31 94.08,25.31 94.08,25.5 94.08,25.31 94.08,25.5 93.88,25.5 93.88,25.7 93.69,25.7 93.69,25.89 
	93.49,25.7 93.3,25.7 93.1,25.7 93.1,25.89 92.91,25.89 92.91,26.09 92.71,26.09 92.71,26.29 92.91,26.29 92.71,26.29 92.71,26.48 
	92.71,26.68 92.52,26.68 92.52,26.87 92.52,27.07 92.32,27.07 92.32,27.26 92.13,27.46 91.93,27.46 91.93,27.65 91.73,27.85 
	91.73,28.04 91.73,28.24 91.54,28.24 91.34,28.24 91.34,28.43 91.15,28.63 91.15,28.82 90.95,28.82 90.76,29.02 90.37,29.22 
	89.98,29.41 89.78,29.61 89.59,29.8 89.39,29.8 89.2,30 89,30 88.81,30.19 88.61,30.19 88.41,30.39 88.22,30.39 88.02,30.39 
	88.02,30.58 87.63,30.58 87.63,30.78 87.24,30.78 87.05,30.97 86.85,30.97 86.07,31.56 85.87,31.56 85.87,31.75 85.87,31.95 
	85.68,32.15 85.68,32.34 85.48,32.34 85.29,32.34 85.09,32.34 84.9,32.34 84.7,32.34 84.51,32.34 84.51,32.54 84.51,32.73 
	84.31,32.73 84.51,32.93 84.51,33.12 84.51,33.32 84.51,33.51 84.51,33.71 84.7,33.71 84.7,33.9 84.9,33.9 84.7,33.9 84.7,34.1 
	84.7,34.29 84.51,34.29 84.51,34.49 84.31,34.49 84.31,34.68 84.31,34.88 84.12,34.88 83.92,35.08 83.73,35.08 83.73,35.27 
	83.73,35.47 83.53,35.47 83.53,35.66 83.34,35.66 83.14,35.47 82.94,35.47 82.94,35.27 82.75,35.27 82.55,35.27 82.55,35.47 
	82.36,35.47 82.16,35.47 81.97,35.47 81.97,35.66 81.77,35.66 81.58,35.66 81.38,35.66 81.38,35.86 81.19,35.86 80.99,35.86 
	80.99,36.05 80.8,36.25 80.8,36.44 80.6,36.44 80.6,36.64 80.8,36.64 80.8,36.83 80.8,37.03 80.8,37.22 80.99,37.22 80.8,37.42 
	80.8,37.61 80.6,37.61 80.6,37.81 80.41,38.01 80.41,38.2 80.21,38.01 80.21,38.2 80.01,38.2 79.82,38.2 79.62,38.2 79.43,38.01 
	79.43,37.81 79.23,37.81 79.23,37.61 79.23,37.42 79.04,37.22 79.04,37.03 79.04,37.22 78.84,37.22 78.84,37.03 78.65,37.03 
	78.65,37.22 78.65,37.42 78.65,37.61 78.65,37.81 78.45,37.81 78.65,37.81 78.65,38.01 78.65,38.2 78.65,38.4 78.45,38.59 
	78.65,38.59 78.65,38.79 78.45,38.79 78.65,38.79 78.65,38.98 78.65,39.18 78.45,39.18 78.45,39.37 78.26,39.37 78.06,39.37 
	78.06,39.18 77.87,39.18 77.87,39.37 77.67,39.37 77.48,39.37 77.28,39.37 77.28,39.18 77.08,39.18 76.89,39.18 76.89,38.98 
	76.89,38.79 76.69,38.98 76.69,38.79 76.5,38.79 76.5,38.59 76.3,38.59 76.3,38.79 76.11,38.59 76.11,38.79 76.11,38.98 
	75.91,38.98 75.72,38.98 75.72,38.79 75.52,38.79 75.52,38.59 75.52,38.79 75.33,38.79 75.13,38.79 75.13,38.59 74.94,38.59 
	74.94,38.4 74.74,38.4 74.74,38.59 74.74,38.79 74.55,38.79 74.55,38.59 74.35,38.59 74.35,38.79 74.15,38.79 74.15,38.59 
	73.96,38.59 73.76,38.79 73.76,38.59 73.76,38.79 73.57,38.79 73.57,38.59 73.37,38.59 73.37,38.4 73.18,38.4 73.18,38.59 
	72.98,38.59 72.98,38.79 73.18,38.79 72.98,38.79 72.98,38.59 72.79,38.59 72.79,38.4 72.59,38.4 72.59,38.2 72.4,38.2 72.4,38.01 
	72.4,37.81 72.2,37.81 72.2,37.61 72.01,37.61 72.01,37.42 71.81,37.42 71.62,37.22 71.42,37.22 71.22,37.03 71.42,37.03 
	71.42,36.83 71.22,36.83 71.22,36.64 71.22,36.44 71.22,36.25 71.03,36.25 71.03,36.44 71.03,36.25 70.83,36.25 70.64,36.25 
	70.64,36.05 70.44,36.05 70.44,36.25 70.44,36.44 70.44,36.64 70.25,36.64 70.05,36.64 70.05,36.44 69.86,36.44 70.05,36.44 
	70.05,36.25 69.86,36.25 69.66,36.25 69.47,36.25 69.47,36.05 69.27,36.05 69.27,36.25 69.08,36.25 69.08,36.44 69.27,36.64 
	69.27,36.83 69.08,36.83 68.88,36.64 68.69,36.64 68.69,36.83 68.49,36.83 68.29,36.83 68.1,36.83 68.1,37.03 68.29,37.03 
	68.1,37.03 68.1,37.22 68.29,37.42 68.49,37.42 68.49,37.61 68.69,37.61 68.69,37.81 68.69,38.01 68.69,38.2 68.69,38.4 68.49,38.4 
	68.49,38.59 68.69,38.79 68.69,38.98 68.69,39.18 68.69,39.37 68.49,39.37 68.49,39.57 68.49,39.76 68.29,39.76 68.1,39.57 
	67.9,39.57 67.9,39.76 67.9,39.96 68.1,40.15 68.1,40.35 68.1,40.54 68.1,40.74 68.29,40.74 68.29,40.94 68.1,40.94 68.1,41.13 
	67.9,41.13 68.1,41.13 68.1,41.33 68.29,41.33 68.49,41.33 68.49,41.52 68.49,41.72 68.69,41.72 68.88,41.72 68.88,41.91 
	68.88,42.11 69.08,42.11 68.88,42.11 68.88,42.3 69.08,42.3 69.08,42.5 69.08,42.69 69.08,42.89 69.27,42.89 69.27,43.08 
	69.47,43.28 69.27,43.28 69.47,43.47 69.47,43.28 69.47,43.47 69.66,43.67 69.66,43.87 69.66,44.06 69.66,44.26 69.86,44.26 
	69.86,44.45 69.66,44.45 69.66,44.65 69.66,44.84 69.66,45.04 69.66,45.23 69.66,45.43 69.47,45.62 69.66,45.82 69.66,46.01 
	69.47,46.01 69.66,46.21 69.66,46.4 69.47,46.4 69.47,46.6 69.66,46.6 69.86,46.79 69.86,46.99 69.86,47.19 70.05,47.19 
	70.05,47.38 70.05,47.58 70.05,47.77 69.86,47.77 69.86,47.97 70.05,47.97 70.05,48.16 70.25,48.36 70.25,48.55 70.05,48.75 
	70.05,48.94 70.25,48.94 70.05,49.14 70.05,49.33 70.25,49.33 70.25,49.53 70.25,49.72 70.25,49.92 70.44,49.92 70.44,50.12 
	70.44,50.31 70.44,50.51 70.25,50.51 70.25,50.7 70.05,50.7 70.05,50.9 70.25,51.09 70.05,51.09 70.05,51.29 70.05,51.48 
	70.05,51.68 70.05,51.87 70.05,52.07 70.25,52.07 70.25,52.26 70.44,52.26 70.44,52.46 70.25,52.46 70.25,52.66 70.05,52.66 
	70.05,52.85 70.05,53.05 70.25,53.05 70.05,53.05 70.25,53.05 70.44,53.05 70.44,53.24 70.25,53.24 70.44,53.24 70.44,53.44 
	70.44,53.63 70.64,53.63 70.83,53.63 70.83,53.83 70.64,53.83 70.83,53.83 70.83,54.02 70.64,54.02 70.64,54.22 70.44,54.41 
	70.64,54.41 70.83,54.41 70.83,54.61 71.03,54.61 71.03,54.8 71.22,54.8 71.22,55 71.42,55.19 71.22,55.19 71.22,55.39 71.03,55.39 
	70.83,55.59 70.64,55.59 70.64,55.78 70.44,55.78 70.44,55.98 70.64,55.98 70.44,55.98 70.25,55.98 70.25,56.17 70.25,56.37 
	70.44,56.37 70.44,56.56 70.25,56.56 70.25,56.76 70.05,56.76 70.05,56.95 69.86,56.95 69.86,57.15 69.66,57.15 69.66,57.34 
	69.66,57.54 69.66,57.73 69.86,57.73 69.66,57.73 69.66,57.93 69.47,57.93 69.27,57.93 69.27,58.12 69.08,58.12 69.08,58.32 
	68.88,58.32 69.08,58.52 68.88,58.52 68.88,58.71 69.08,58.91 69.08,59.1 68.69,59.1 68.49,59.1 68.29,59.3 68.1,59.3 67.71,59.69 
	67.71,59.88 67.51,59.88 67.51,60.08 67.71,60.08 67.71,60.27 67.71,60.08 67.51,60.08 67.51,60.27 67.71,60.27 67.71,60.47 
	67.9,60.66 67.9,60.86 67.9,61.05 67.9,61.25 67.9,61.44 68.29,61.64 68.29,61.84 68.49,61.84 68.69,61.84 68.69,62.03 68.69,61.84 
	68.88,61.84 69.08,61.64 69.27,61.64 69.27,61.84 69.27,62.03 69.27,62.23 69.27,62.42 69.47,62.42 69.66,62.42 69.66,62.62 
	69.86,62.62 70.05,62.81 70.25,62.81 70.44,62.81 70.44,63.01 70.64,63.2 70.83,63.2 70.83,63.4 71.03,63.59 71.22,63.79 
	71.22,63.98 71.42,64.18 71.42,64.37 71.62,64.37 71.62,64.57 71.81,64.57 72.01,64.57 72.2,64.77 72.4,64.77 72.4,64.96 
	72.4,65.16 72.4,65.35 72.59,65.55 72.59,65.74 72.59,65.94 72.79,65.94 72.98,66.13 72.98,66.33 73.18,66.52 73.37,66.72 
	73.57,66.72 73.57,66.91 73.57,67.11 73.76,67.11 73.76,67.3 73.96,67.5 73.96,67.7 74.15,67.89 74.15,68.09 74.35,68.09 
	74.35,68.28 74.35,68.48 74.55,68.48 74.35,68.48 73.96,68.48 73.76,68.48 73.57,68.48 73.37,68.28 72.98,68.28 72.79,68.28 
	72.59,68.28 72.4,68.48 72.59,68.48 72.59,68.67 72.59,68.87 72.59,69.06 72.59,69.26 72.59,69.45 72.79,69.45 72.98,69.45 
	73.18,69.45 73.37,69.65 73.57,69.84 73.57,70.04 73.37,70.23 73.37,70.43 73.37,70.63 73.18,70.63 72.98,70.63 72.79,70.63 
	72.79,70.82 72.59,71.02 72.4,71.02 72.2,71.21 72.2,71.41 72.4,71.41 72.4,71.6 72.59,71.6 72.59,71.8 72.79,71.99 72.79,72.19 
	72.98,72.38 72.98,72.58 72.98,72.77 72.98,72.97 72.79,73.16 72.79,72.97 72.59,72.97 72.59,72.77 72.4,72.77 72.4,72.58 
	72.2,72.58 72.01,72.58 72.01,72.38 71.81,72.38 71.62,72.38 71.42,72.38 71.22,72.38 71.22,72.58 71.03,72.77 71.03,72.97 
	71.03,73.16 70.83,73.36 70.83,73.56 71.03,73.75 71.03,73.95 71.03,74.14 71.03,74.34 71.03,74.53 71.03,74.73 71.03,74.92 
	71.03,75.12 70.83,75.31 70.44,75.7 70.44,75.9 70.25,75.9 70.25,76.09 70.05,76.29 70.05,76.49 70.25,76.68 70.25,76.88 
	70.25,77.07 70.25,77.27 70.25,77.46 70.25,77.66 70.44,77.66 70.44,77.85 70.64,77.85 70.64,78.05 70.64,78.24 70.83,78.24 
	70.83,78.44 70.83,78.63 71.03,78.63 71.03,78.83 71.22,79.02 71.22,79.22 71.03,79.22 71.03,79.42 71.03,79.61 71.03,79.81 
	70.83,79.81 70.64,80 70.44,80 70.25,80 70.05,80 69.86,80 69.86,80.2 69.66,80.2 69.47,80 69.27,80 69.08,80 68.88,80.2 
	68.69,80.2 68.69,80.39 68.49,80.39 68.29,80.39 68.29,80.59 68.29,80.78 68.29,80.98 68.1,81.56 68.29,81.76 68.29,81.95 
	68.1,81.95 67.9,82.15 67.71,82.15 67.51,82.34 67.51,82.54 67.32,82.54 67.32,82.74 67.12,82.54 66.93,82.54 66.73,82.54 
	66.54,82.54 66.34,82.54 66.15,82.54 66.15,82.74 66.15,82.93 66.15,83.13 65.95,83.13 65.95,82.93 65.76,82.93 65.76,82.74 
	65.56,82.74 65.36,82.74 65.17,82.54 65.17,82.34 65.17,81.95 65.17,81.76 65.17,81.56 65.17,81.37 64.78,80.98 64.78,80.78 
	64.58,80.59 64.58,80.39 64.39,80.2 64.39,80 64.19,80 64.19,79.81 64,79.81 64,79.61 63.8,79.61 63.61,79.61 63.41,79.61 
	63.22,79.61 63.02,79.61 62.83,79.61 62.83,79.42 62.63,79.42 62.43,79.42 62.24,79.22 62.04,79.22 61.85,79.02 61.85,78.83 
	61.65,78.83 61.46,78.63 61.07,78.63 60.68,78.63 60.48,78.63 60.29,78.63 59.9,78.63 59.5,78.63 59.11,78.63 58.92,78.63 
	58.72,78.63 58.33,78.63 58.14,78.83 57.94,78.83 57.75,78.83 57.55,78.83 57.55,78.63 57.36,78.63 57.16,78.63 57.16,78.44 
	56.97,78.44 56.97,78.24 56.77,78.24 56.57,78.24 56.38,78.24 56.38,78.05 56.18,77.85 55.99,77.85 55.99,77.66 55.79,77.46 
	55.79,77.27 55.79,77.07 55.79,76.88 55.6,76.88 55.6,76.68 55.6,76.49 55.6,76.29 55.6,76.09 55.4,76.09 55.4,75.9 55.21,75.9 
	55.01,75.7 54.82,75.7 54.82,75.51 54.62,75.31 54.43,75.12 54.23,75.12 54.23,75.31 54.04,75.31 54.04,75.12 53.84,75.12 
	53.64,75.31 53.45,75.31 53.64,75.51 53.84,75.51 53.84,75.7 54.04,75.7 54.04,75.9 53.84,75.9 53.84,76.09 54.04,76.09 
	54.04,76.29 54.04,76.49 54.04,76.68 54.04,76.88 54.04,77.07 53.84,77.07 53.84,77.27 53.64,77.66 53.64,77.85 53.84,77.85 
	53.84,78.05 53.84,78.24 54.04,78.44 54.23,78.63 54.23,78.83 54.43,78.83 54.43,79.02 54.62,79.22 54.62,79.42 54.62,79.61 
	54.62,79.81 54.62,80 54.62,80.2 54.62,80.39 54.62,80.59 54.62,80.78 54.43,81.37 54.43,81.56 54.43,81.95 54.43,82.34 
	54.23,82.54 54.23,82.74 54.23,82.93 54.04,82.93 53.84,83.32 53.64,83.52 53.45,83.71 53.25,83.71 53.06,84.1 52.86,84.3 
	52.67,84.49 52.47,84.69 52.08,84.88 51.89,85.08 51.69,85.27 51.5,85.47 51.5,85.67 51.3,85.67 51.3,85.86 51.11,85.86 
	50.91,86.06 50.91,86.25 50.71,86.25 50.71,86.45 50.52,86.64 50.52,86.84 50.32,87.03 50.13,87.23 50.13,87.42 49.93,87.62 
	49.93,87.81 49.74,87.81 49.74,88.01 49.54,88.01 49.35,88.01 49.15,88.01 48.76,88.21 48.57,88.21 48.37,88.21 48.18,88.21 
	47.98,88.21 47.78,88.21 47.59,88.4 47.39,88.21 47.2,88.21 47,88.4 46.81,88.4 46.61,88.4 46.42,88.4 46.42,88.6 46.61,88.6 
	46.61,88.79 46.61,88.99 46.61,89.18 46.61,89.38 46.42,89.57 46.42,89.77 46.22,89.77 46.22,89.57 46.03,89.57 46.03,89.38 
	46.03,89.18 45.83,89.18 45.64,89.38 45.44,89.38 45.44,89.57 45.44,89.38 45.25,89.18 45.05,89.18 45.05,88.99 44.85,88.79 
	44.85,88.6 44.66,88.6 44.46,88.6 44.46,88.4 44.46,88.21 44.46,88.01 44.46,87.81 44.46,87.62 44.27,87.62 44.07,87.62 
	43.88,87.62 43.88,87.42 43.68,87.62 43.49,87.62 43.29,87.62 43.1,87.42 42.9,87.42 42.71,87.42 42.71,87.23 42.71,87.03 
	42.71,87.23 42.51,87.23 42.51,87.42 42.32,87.42 42.12,87.23 41.92,87.42 41.92,87.62 41.73,87.81 41.73,88.01 41.53,88.01 
	41.73,88.01 41.73,88.21 41.73,88.4 41.73,88.6 41.92,88.79 41.92,88.99 41.73,89.18 41.73,89.38 41.73,89.57 41.73,89.77 
	41.73,89.96 41.92,90.16 41.92,90.35 42.12,90.55 42.12,90.74 42.32,90.74 42.32,90.94 42.32,91.14 42.32,91.33 42.32,91.53 
	41.53,91.92 41.14,92.11 39.97,92.7 39.58,92.89 38.99,93.09 38.6,93.28 37.63,93.67 37.24,94.07 36.85,94.26 36.65,94.26 
	35.87,94.65 35.67,94.65 35.67,93.87 35.67,93.48 35.67,92.89 35.67,92.31 35.67,92.11 35.67,91.53 35.67,91.14 35.67,90.94 
	33.92,91.92 33.33,92.31 31.96,92.89 30.6,93.48 29.03,94.46 28.06,94.85 28.06,94.46 28.06,93.87 28.06,93.67 28.06,93.48 
	28.06,93.09 28.06,92.89 28.06,92.7 28.06,92.5 28.06,92.11 28.06,91.92 28.06,91.72 28.06,91.53 28.06,91.33 28.06,91.14 
	28.06,90.94 28.06,90.74 28.06,90.55 28.06,90.16 28.06,89.96 28.06,89.77 28.06,89.38 28.06,89.18 28.06,88.99 28.06,88.79 
	28.06,88.6 28.06,88.4 28.06,88.21 28.06,88.01 28.06,87.62 28.06,87.42 28.06,87.03 28.06,85.47 28.06,85.27 28.06,85.08 
	27.86,85.08 27.66,85.08 27.47,85.08 27.47,85.27 27.27,85.27 27.08,85.47 26.88,85.47 26.1,85.47 25.52,85.47 25.32,85.47 
	24.93,85.67 24.54,85.67 23.95,85.86 23.76,85.86 23.56,85.67 23.37,85.67 23.17,85.67 22.98,85.47 22.78,85.47 22.59,85.47 
	22.59,85.27 22.39,85.27 22.39,85.08 22.59,84.88 22.78,84.69 22.98,84.49 23.17,84.3 23.17,84.1 23.37,84.1 23.37,83.91 
	23.56,83.91 23.56,83.71 23.56,83.52 23.56,83.32 23.56,83.13 23.76,82.93 23.76,82.54 23.76,82.34 23.95,82.34 23.95,82.15 
	24.15,81.95 24.34,81.95 24.34,81.76 24.34,81.56 24.34,81.37 24.54,81.37 24.54,81.17 24.74,81.17 24.74,80.98 24.54,80.98 
	24.54,81.17 24.34,81.17 24.34,80.98 24.15,81.17 23.95,80.98 23.95,80.78 23.95,80.59 23.95,80.39 23.95,80.2 24.15,80 
	24.15,79.81 23.95,79.81 23.76,79.81 23.76,79.61 23.76,79.42 23.95,79.42 23.95,79.22 24.15,79.22 24.15,79.02 24.34,79.02 
	24.34,78.83 24.54,78.83 24.54,78.63 24.54,78.44 24.54,78.24 24.74,78.05 24.74,78.24 24.93,78.24 25.13,78.24 25.13,78.05 
	24.93,77.85 24.74,77.85 24.74,77.66 24.54,77.66 24.34,77.66 24.15,77.46 23.95,77.46 23.76,77.46 23.76,77.27 23.56,77.27 
	23.37,77.27 23.17,77.27 23.17,77.07 23.37,77.07 23.37,76.88 23.37,76.68 23.37,76.49 23.37,76.29 23.37,76.09 23.17,75.9 
	22.98,75.7 22.78,75.7 22.59,75.7 22.59,75.9 22.59,76.09 22.39,76.09 22.39,76.29 22.2,76.29 22,76.29 21.81,76.09 21.61,76.09 
	21.41,76.09 21.41,75.9 21.22,75.9 21.02,75.7 21.02,75.51 21.02,75.31 21.22,75.12 21.41,75.12 21.61,74.92 21.81,74.73 
	21.81,74.53 22,74.53 22,74.34 22,74.14 22,73.95 21.81,73.95 21.81,73.75 21.81,73.56 21.61,73.36 21.81,73.16 22,73.16 
	22.2,73.16 22.2,72.97 22,72.77 21.61,71.99 21.22,71.41 21.02,71.41 21.02,71.21 21.22,71.02 21.02,71.02 21.22,71.02 21.22,70.82 
	21.22,71.02 21.41,71.02 21.61,71.02 21.61,70.82 21.61,70.23 21.81,70.04 22,69.84 22,69.65 22,69.45 22,69.26 21.81,69.26 
	21.81,69.06 22,68.87 22,68.67 22,68.48 21.81,68.48 21.61,68.48 21.61,68.28 21.61,68.09 21.81,68.09 22,68.09 22.2,68.09 
	22.39,68.09 22.39,67.89 22.39,67.7 22.39,67.5 22.2,67.5 22,67.5 21.81,67.5 21.61,67.5 21.41,67.5 21.41,67.3 21.61,67.11 
	21.61,66.91 21.81,66.91 22,66.72 22.2,66.52 22.2,66.33 22,66.33 22,66.13 21.81,66.13 21.81,65.94 21.61,65.94 21.41,65.94 
	21.41,66.13 21.41,66.33 21.22,66.33 21.02,66.33 21.02,66.13 20.83,66.13 20.83,65.94 20.83,65.74 20.83,65.55 20.63,65.55 
	20.63,65.35 20.63,65.16 20.44,65.16 20.24,65.16 20.05,64.96 19.85,64.77 19.66,64.77 19.66,64.57 19.66,64.37 19.66,63.98 
	19.66,63.79 19.46,63.79 19.66,63.59 19.85,63.59 20.05,63.59 20.24,63.4 20.44,63.4 20.63,63.4 20.83,63.59 20.83,63.4 20.83,63.2 
	21.02,63.2 21.02,63.01 21.22,63.01 21.41,62.81 21.61,62.81 21.81,62.81 22,62.81 22,62.62 22.2,62.62 22.39,62.62 22.59,62.62 
	22.59,62.42 22.78,62.42 22.78,62.23 22.98,62.23 22.98,62.03 22.98,61.84 22.98,61.64 22.98,61.44 22.98,61.25 22.98,61.05 
	22.98,60.86 22.78,60.66 22.78,60.47 22.59,60.47 22.59,60.27 22.59,60.08 22.59,59.88 22.59,59.69 22.59,59.49 22.78,59.3 
	22.78,59.1 22.98,59.1 22.98,58.91 23.17,58.71 23.17,58.52 23.17,58.32 23.17,58.12 23.37,58.12 23.37,57.93 23.17,57.93 
	22.98,57.93 22.98,58.12 22.78,58.12 22.59,57.93 22.39,57.93 22.39,58.12 22.2,58.12 22,58.12 21.81,58.12 21.61,58.12 
	21.41,58.12 21.41,57.93 21.22,57.93 21.02,57.93 20.83,57.73 20.63,57.73 20.44,57.73 20.05,57.73 19.85,57.73 19.66,57.73 
	19.46,57.73 19.27,57.73 18.68,57.54 18.09,57.54 17.51,57.34 16.92,57.54 16.34,57.54 15.36,57.34 14.77,57.34 14.19,57.15 
	13.8,56.76 13.21,56.17 12.62,56.17 11.84,56.17 11.45,56.56 11.26,56.56 11.06,57.15 11.06,57.54 10.67,58.52 10.48,59.1 
	10.87,59.3 10.87,59.49 11.06,59.49 10.87,59.49 10.87,59.69 10.67,59.69 10.48,59.69 10.09,59.88 9.69,60.08 9.5,60.08 9.3,60.08 
	9.11,60.08 8.91,60.08 8.72,60.08 8.52,60.08 8.33,60.08 8.13,60.08 7.94,60.08 7.74,60.08 7.55,60.08 7.35,60.08 7.15,59.88 
	6.96,59.88 6.76,59.88 6.57,59.88 6.37,59.69 6.18,59.69 5.98,59.69 5.79,59.49 5.59,59.49 5.4,59.69 5.2,59.69 5.01,59.69 
	4.81,59.69 4.62,59.69 4.42,59.69 4.22,59.69 4.03,59.69 3.83,59.69 3.64,59.69 3.44,59.69 3.25,59.69 3.25,59.49 3.25,59.3 
	3.25,59.1 3.25,58.91 3.25,58.52 3.44,58.12 3.44,57.93 3.44,57.73 3.44,57.54 3.44,57.34 3.44,57.15 3.44,56.95 3.44,56.76 
	3.25,56.76 3.05,56.56 2.86,56.56 2.86,56.37 2.66,56.37 2.47,56.37 2.47,56.17 2.27,56.17 2.08,56.17 2.08,55.98 1.88,55.98 
	1.69,55.98 1.49,55.98 1.49,55.78 1.3,55.78 1.1,55.59 0.9,55.59 0.9,55.39 0.71,55.39 0.51,55.19 0.51,55 0.32,55 0.32,54.8 
	0.32,54.61 0.32,54.41 0.51,54.61 0.71,54.61 0.71,54.41 0.71,54.22 0.51,54.22 0.51,54.02 0.51,53.83 0.51,53.44 0.71,52.66 
	0.71,52.46 0.71,52.26 0.9,52.07 1.1,51.87 1.1,51.68 1.1,51.48 1.1,51.29 1.3,51.29 1.3,51.09 1.3,50.9 1.3,50.7 1.49,50.51 
	1.69,50.51 1.69,50.31 1.88,50.12 1.88,49.92 2.08,49.92 2.27,49.72 2.47,49.33 2.47,49.14 2.66,48.94 2.86,48.75 3.05,48.55 
	3.25,48.36 3.25,48.16 3.44,47.97 3.44,47.77 4.42,46.99 4.81,46.6 5.4,46.01 5.79,45.43 5.79,45.23 5.59,44.45 4.62,43.28 
	4.62,42.89 4.42,42.89 4.42,42.69 4.22,42.69 4.22,42.5 4.22,42.3 4.03,42.3 3.25,41.13 3.44,40.94 3.64,40.54 3.83,40.35 
	4.62,40.15 5.2,40.54 5.2,40.94 7.55,41.33 9.11,41.13 9.3,41.13 9.3,40.94 9.5,40.74 9.69,40.74 9.69,40.54 9.89,40.35 9.89,40.15 
	10.09,39.96 10.28,39.76 10.48,39.57 10.48,39.37 10.67,39.37 10.87,39.18 11.45,38.98 11.65,38.79 11.84,38.79 12.04,38.59 
	12.23,38.59 12.23,38.4 12.23,38.2 12.23,38.01 12.23,37.81 12.23,37.61 12.43,37.61 12.43,37.42 12.62,37.42 12.82,37.42 
	12.82,37.22 13.01,37.22 13.21,37.22 13.41,37.22 13.6,37.22 14.58,37.22 15.16,37.22 15.55,37.03 16.14,36.44 16.53,36.25 
	16.73,36.25 16.92,36.05 16.92,35.86 17.12,35.66 17.12,35.47 17.31,35.27 17.51,35.08 17.7,34.88 17.9,34.68 18.09,34.49 
	18.09,34.29 18.29,34.1 18.48,33.9 18.48,33.71 18.48,33.51 18.48,33.32 18.48,33.12 18.48,32.73 18.48,32.54 18.68,32.34 
	18.48,32.34 18.48,32.15 18.48,31.95 18.48,31.75 18.68,31.17 18.87,30.97 19.07,30.97 19.66,30.78 20.05,30.78 20.24,30.78 
	20.24,30.97 20.44,31.17 20.63,31.17 20.83,31.36 21.02,31.56 21.22,31.75 21.22,31.95 21.41,31.95 21.61,31.95 21.81,31.95 
	22,31.95 22.2,31.95 22.2,32.15 22.39,32.15 22.59,31.95 22.78,31.95 22.98,31.95 23.17,32.15 23.37,32.15 23.76,32.15 23.95,32.15 
	24.34,31.95 24.54,31.95 24.74,31.95 24.93,31.95 25.32,31.95 25.52,31.95 25.71,31.95 25.91,31.95 25.91,31.75 25.91,31.36 
	26.1,31.17 26.1,30.97 26.3,30.97 26.49,30.97 26.69,30.97 26.88,30.97 27.08,30.78 27.27,30.97 27.47,31.17 27.47,30.97 
	27.66,30.97 27.86,30.97 28.06,30.97 28.25,30.97 28.45,30.97 28.64,30.97 28.84,30.97 29.03,30.97 29.23,30.97 29.42,31.17 
	29.62,31.36 29.62,31.56 29.81,31.95 29.81,32.15 30.01,32.34 30.2,32.34 30.2,32.54 30.2,32.73 30.4,32.73 30.6,32.73 30.79,32.73 
	30.79,32.93 30.99,32.93 31.18,32.93 31.38,33.12 31.57,33.12 31.77,33.32 31.77,33.51 31.77,33.71 31.77,33.9 31.96,34.1 
	31.96,34.29 31.96,34.49 31.96,34.68 32.16,34.68 32.16,34.88 32.35,35.08 32.55,35.08 32.55,35.27 32.74,35.47 32.94,35.66 
	33.13,35.66 33.33,35.66 33.33,35.47 33.53,35.47 33.72,35.47 33.92,35.47 34.11,35.47 34.31,35.47 34.5,35.47 34.5,35.27 
	34.7,35.08 34.7,34.68 34.89,34.49 35.09,34.49 35.09,34.68 35.28,34.68 35.28,34.88 35.48,34.88 35.67,34.88 35.87,34.88 
	36.06,34.68 36.26,34.88 36.46,34.88 36.65,35.08 36.65,35.27 36.85,35.66 36.85,35.86 37.04,35.86 37.24,35.86 37.24,36.05 
	37.43,36.05 37.43,36.25 37.63,36.25 37.82,36.44 38.02,36.44 38.21,36.44 38.41,36.44 38.6,36.64 38.8,36.64 38.8,36.83 
	38.99,36.83 39.19,37.03 39.58,37.22 39.58,37.42 39.58,37.61 39.78,37.61 39.97,37.61 39.97,37.81 40.17,37.81 40.36,37.81 
	40.56,37.81 40.75,38.01 40.95,38.01 41.14,38.01 41.34,38.01 41.34,37.81 41.53,37.81 41.73,37.81 41.73,37.61 41.92,37.61 
	41.92,37.42 42.12,37.42 42.32,37.42 42.51,37.42 42.51,37.61 42.71,37.61 42.71,37.42 42.9,37.42 43.1,37.61 43.1,37.42 
	43.29,37.22 43.29,37.03 43.49,37.03 43.49,36.83 43.68,36.64 43.88,36.44 43.88,36.25 44.07,36.25 44.07,36.05 44.27,36.05 
	44.27,35.86 44.07,35.66 43.88,35.66 43.68,35.66 43.49,35.47 43.49,35.27 42.51,34.68 42.32,33.71 42.12,32.15 42.12,30.97 
	42.12,29.61 42.32,28.43 42.51,28.24 42.51,28.04 42.71,28.04 42.9,28.04 42.9,27.85 43.1,27.85 43.29,27.85 43.29,27.65 
	43.49,27.65 43.49,27.85 43.49,27.65 43.68,27.65 43.68,27.46 43.68,27.65 43.88,27.65 44.07,27.65 44.07,27.85 44.27,27.85 
	44.27,28.04 44.46,28.04 44.46,28.24 44.46,28.04 44.66,28.04 44.85,28.04 45.05,28.04 45.25,28.04 45.44,27.85 45.64,27.85 
	45.64,28.04 45.83,28.04 46.03,28.04 45.83,28.04 46.03,28.04 46.03,27.85 46.22,27.85 46.03,27.65 46.22,27.65 46.42,27.65 
	46.22,27.46 46.42,27.46 46.61,27.46 46.81,27.46 46.81,27.65 46.61,27.65 46.81,27.65 47,27.65 47.2,27.65 47.2,27.85 47.39,27.85 
	47.39,28.04 47.59,28.04 47.59,27.85 47.59,28.04 47.78,28.04 47.78,28.24 47.98,28.24 47.98,28.43 48.18,28.43 48.18,28.63 
	48.37,28.63 48.37,28.43 48.57,28.43 48.57,28.63 48.76,28.63 48.76,28.82 48.96,28.82 48.96,28.63 48.96,28.82 49.15,28.82 
	48.96,28.82 49.15,29.02 49.35,29.02 49.35,29.22 49.15,29.22 49.35,29.22 49.54,29.22 49.54,29.41 49.35,29.41 49.54,29.41 
	49.54,29.61 49.54,29.8 49.54,29.61 49.74,29.61 49.74,29.8 49.74,30 49.74,30.19 49.74,30 49.93,30.19 50.13,30.19 50.13,30.39 
	50.32,30.39 50.32,30.19 50.32,30.39 50.52,30.39 50.52,30.58 50.71,30.78 50.71,30.97 50.71,30.78 50.91,30.78 50.91,30.97 
	50.91,31.17 50.91,30.97 50.91,31.17 51.11,31.17 51.3,31.17 51.5,31.17 51.69,31.17 51.69,31.36 51.89,31.36 51.89,31.56 
	51.89,31.75 52.08,31.75 52.08,31.56 52.08,31.75 52.28,31.75 52.28,31.95 52.47,31.75 52.47,31.95 52.67,31.95 52.67,32.15 
	52.86,32.15 53.06,32.15 53.06,32.34 53.25,32.34 53.06,32.34 53.06,32.54 53.25,32.54 53.25,32.73 53.25,32.93 53.45,32.93 
	53.64,32.93 53.64,33.12 54.04,33.12 54.23,33.12 54.23,32.93 54.23,32.73 54.23,32.54 54.04,32.54 54.04,32.34 54.23,32.34 
	54.23,32.15 54.43,32.15 54.62,31.95 54.62,32.15 54.82,32.15 55.01,32.15 55.21,32.34 55.21,32.15 55.4,32.15 55.21,31.75 
	55.01,31.17 54.82,30.78 54.82,30.58 54.82,30.19 54.82,30 54.82,29.8 54.82,29.61 55.01,29.41 55.21,29.41 55.4,29.41 55.4,29.61 
	55.6,29.61 55.6,29.8 55.6,30 55.79,30 55.99,30 56.18,30 56.18,29.8 56.38,29.8 56.18,29.8 55.99,29.8 55.99,29.61 55.99,29.41 
	55.79,29.41 55.79,29.22 55.79,29.02 55.99,29.02 56.38,28.43 56.57,28.24 56.77,28.04 56.97,28.04 56.97,27.85 56.97,27.65 
	56.97,27.46 56.77,27.46 56.57,27.26 55.99,27.07 55.79,27.07 55.79,27.26 55.6,27.26 55.4,27.26 55.4,27.46 55.21,27.65 
	55.01,27.65 54.82,27.65 54.62,27.65 54.62,27.46 54.62,27.26 54.43,26.87 54.43,26.68 54.43,26.48 54.62,26.48 54.62,26.29 
	54.82,26.09 55.01,26.09 55.21,26.09 55.79,26.29 55.79,26.09 55.6,26.09 55.6,25.89 55.6,25.7 55.79,25.5 55.99,25.5 55.99,25.31 
	56.18,25.31 56.18,25.5 56.38,25.5 56.38,25.7 56.38,25.89 56.18,25.89 56.18,26.09 56.38,26.29 56.57,26.29 56.57,26.09 
	56.57,25.89 56.77,25.89 56.97,25.89 56.97,25.7 57.16,25.7 56.97,25.31 56.77,25.31 56.77,25.11 56.77,24.92 56.57,24.72 
	56.57,24.53 56.57,24.14 56.57,23.94 56.18,23.75 55.99,23.75 55.79,23.75 55.79,23.55 55.99,23.55 55.99,23.36 56.18,23.36 
	56.38,23.36 56.38,23.16 56.18,22.97 55.99,22.77 55.4,22.38 55.21,22.18 55.4,22.18 55.6,21.79 55.79,21.79 55.79,21.6 55.99,21.6 
	56.18,21.4 56.38,21.4 56.38,21.21 56.57,21.21 56.77,21.21 56.77,21.01 56.38,20.82 56.38,20.62 56.57,20.62 56.57,20.43 
	56.57,20.23 56.77,20.43 56.77,20.23 56.77,20.04 56.57,19.84 56.77,19.84 56.77,19.64 56.97,19.64 56.77,19.64 56.77,19.84 
	56.97,19.64 56.97,19.84 57.16,19.84 57.16,19.64 57.16,19.45 57.16,19.25 57.36,19.45 57.36,19.25 57.36,19.06 57.55,18.86 
	57.55,19.06 57.75,19.06 57.75,18.86 57.75,19.06 57.94,19.06 57.94,18.86 57.75,18.86 57.94,18.86 58.14,18.67 58.14,18.86 
	58.33,18.86 58.53,18.86 58.33,19.06 58.53,19.06 58.72,19.06 58.72,18.86 58.72,19.06 58.92,19.06 58.92,18.86 59.11,18.86 
	59.11,19.06 59.31,19.06 59.31,18.86 59.31,19.06 59.5,19.06 59.5,19.25 59.7,19.25 59.9,19.25 60.09,19.25 60.09,19.06 
	60.09,19.25 60.29,19.25 60.29,19.06 60.29,19.25 60.48,19.25 60.48,19.45 60.48,19.25 60.68,19.25 60.68,19.45 60.87,19.45 
	61.07,19.45 61.26,19.45 61.26,19.25 61.26,19.45 61.46,19.45 61.65,19.45 61.85,19.45 62.04,19.45 62.04,19.64 62.24,19.64 
	62.24,19.84 62.43,19.84 62.63,20.04 62.83,20.04 63.02,20.04 63.22,20.04 63.41,20.04 63.61,20.04 63.8,20.04 64,20.04 
	64.19,19.84 64.19,20.04 64.39,20.04 64.39,19.84 64.19,19.84 64.39,19.84 64.39,19.64 64.58,19.64 64.78,19.64 64.97,19.64 
	64.97,19.45 64.97,19.64 65.17,19.64 65.17,19.45 65.36,19.45 65.56,19.25 65.56,19.06 65.76,19.06 65.95,19.06 65.95,18.86 
	65.95,19.06 65.76,18.86 65.95,18.86 65.95,18.67 66.15,18.67 66.15,18.47 66.34,18.47 66.54,18.47 66.34,18.47 66.34,18.28 
	66.54,18.28 66.54,18.47 66.54,18.28 66.73,18.28 66.73,18.08 66.93,18.08 66.93,17.89 67.12,17.89 67.32,17.89 67.51,17.89 
	67.71,17.89 67.71,17.69 67.9,17.69 67.9,17.5 68.1,17.5 68.29,17.5 68.29,17.3 68.49,17.3 68.69,17.3 68.88,17.3 69.08,17.5 
	69.27,17.5 69.27,17.3 69.47,17.3 69.47,17.5 69.66,17.5 69.86,17.5 69.86,17.69 70.05,17.69 70.25,17.69 70.25,17.5 70.44,17.5 
	70.64,17.5 70.64,17.3 70.83,17.3 71.22,17.3 71.42,17.5 71.62,17.5 71.81,17.5 72.01,17.5 72.01,17.3 72.2,17.3 72.4,17.5 
	72.4,17.3 72.4,17.5 72.59,17.5 72.79,17.5 72.79,17.3 72.98,17.3 73.18,17.3 73.18,17.5 73.37,17.5 73.57,17.69 73.57,17.5 
	73.76,17.5 73.96,17.5 73.96,17.69 74.15,17.69 74.35,17.89 74.55,17.89 74.55,17.69 74.74,17.69 74.74,17.89 74.94,17.89 
	74.94,17.69 75.13,17.89 75.13,18.08 75.33,18.08 75.52,18.28 75.52,18.08 75.72,18.08 75.91,18.08 75.91,17.89 76.11,17.89 
	76.3,17.89 76.11,17.89 76.11,17.69 76.3,17.69 76.5,17.69 76.5,17.5 76.69,17.5 76.69,17.3 76.69,17.1 76.69,16.91 76.69,16.71 
	76.89,16.71 77.08,16.71 77.08,16.52 77.28,16.52 77.08,16.52 77.08,16.32 77.28,16.32 77.28,16.13 77.28,15.93 77.28,15.74 
	77.48,15.74 77.48,15.35 77.67,15.15 77.67,14.96 77.67,14.76 77.67,14.57 77.87,14.37 77.87,14.17 77.87,13.98 77.87,13.59 
	77.87,13.39 77.87,13.2 77.87,13 77.87,12.81 77.87,12.61 77.87,12.22 77.87,12.03 77.87,11.83 77.87,11.64 77.67,11.64 
	77.87,11.44 78.06,11.25 78.45,11.05 78.65,11.05 78.84,11.05 79.04,11.05 79.43,11.05 79.62,11.05 79.82,11.05 80.01,11.05 
	80.01,11.25 80.01,11.44 80.21,11.25 80.41,11.25 80.41,11.44 80.6,11.44 80.8,11.44 80.99,11.44 80.99,11.25 81.19,11.25 
	81.38,11.25 81.58,11.05 81.77,11.05 81.97,11.25 82.16,11.25 82.36,11.25 82.55,11.05 82.75,11.05 82.94,11.05 83.14,10.85 
	83.34,10.85 83.53,10.85 83.73,10.85 83.73,10.66 83.92,10.66 83.92,10.46 83.92,10.27 83.73,10.27 83.73,10.07 83.73,9.88 
	83.92,9.88 84.12,9.88 84.12,9.68 84.12,9.49 84.31,9.29 84.51,9.1 84.7,9.29 84.9,9.1 85.09,9.1 85.29,9.1 85.48,9.1 85.48,8.9 
	85.68,8.71 85.68,8.51 85.68,8.32 85.68,8.12 85.68,7.92 85.48,7.53 85.48,7.34 85.48,7.14 85.68,7.14 85.68,6.95 85.87,6.75 
	86.07,6.56 86.07,6.36 85.87,6.17 85.87,5.97 85.87,5.78 85.87,5.58 85.87,5.39 85.87,5.19 85.87,4.99 85.87,4.8 86.07,4.6 
	86.27,4.6 86.27,4.41 86.46,4.21 86.66,4.02 86.66,3.82 86.66,3.63 86.85,3.43 86.85,3.24 87.05,3.24 87.05,3.04 87.05,2.85 
	87.24,2.85 87.44,3.04 87.63,3.04 87.83,3.24 88.02,3.24 88.22,3.43 88.41,3.63 88.61,3.63 88.81,3.63 89,3.63 89.2,3.82 
	89.59,3.82 89.78,3.82 89.98,3.82 90.17,3.82 90.37,3.82 90.56,3.82 90.76,3.82 90.95,3.82 91.15,3.82 91.34,3.82 91.34,3.63 
	91.54,3.63 91.54,3.43 91.73,3.43 91.93,3.43 91.93,3.24 92.13,3.24 92.13,3.43 92.13,3.24 92.32,3.43 92.32,3.24 92.52,3.24 
	92.52,3.04 92.52,2.85 92.71,2.85 92.71,3.04 92.71,2.85 "/>
</svg>
