<?xml version="1.0" encoding="utf-8"?>
<!-- Generator: Adobe Illustrator 24.2.1, SVG Export Plug-In . SVG Version: 6.00 Build 0)  -->
<svg version="1.1" id="Layer_1" xmlns="http://www.w3.org/2000/svg" xmlns:xlink="http://www.w3.org/1999/xlink" x="0px" y="0px"
	 viewBox="0 0 97.23 97.23" style="enable-background:new 0 0 97.23 97.23;" xml:space="preserve">
<style type="text/css">
	.st0{fill-rule:evenodd;clip-rule:evenodd;fill:#1D1D1B;}
</style>
<polygon class="st0" points="71.4,9.55 71.82,9.97 72.24,10.81 73.5,11.66 75.19,14.19 76.03,15.03 76.88,15.45 78.57,17.56 
	78.99,17.98 79.41,18.4 79.83,18.82 79.83,19.25 80.25,19.25 80.25,19.67 80.25,20.09 80.25,20.51 80.25,20.93 80.25,21.36 
	79.83,21.78 79.83,23.04 79.41,23.89 78.99,24.31 78.99,24.73 78.14,25.15 76.88,25.99 76.46,25.99 76.46,26.42 76.03,26.42 
	75.19,26.42 74.35,26.42 73.93,26.84 73.93,27.26 74.35,28.1 74.77,28.53 74.77,28.95 75.19,29.79 75.61,30.21 76.03,30.63 
	76.03,31.48 76.03,31.9 76.03,32.74 76.03,33.59 76.03,34.01 76.03,34.85 76.46,35.27 76.46,35.69 76.46,36.12 76.46,36.54 
	76.46,36.96 76.03,37.38 76.03,37.8 76.03,38.65 76.03,39.07 75.61,39.91 75.61,40.75 75.61,41.18 75.61,41.6 74.77,41.6 
	74.35,42.02 73.5,42.44 72.66,42.86 71.82,42.86 70.97,43.28 70.13,43.71 69.29,44.13 68.87,44.13 68.87,44.55 68.87,44.97 
	68.87,45.39 68.87,45.82 68.87,46.24 69.29,46.66 69.29,47.08 69.29,47.5 69.29,47.92 69.29,48.77 69.29,49.61 69.29,50.03 
	69.29,50.45 69.71,50.88 70.13,51.3 70.13,51.72 70.13,52.14 70.13,52.56 70.55,52.98 70.55,53.41 70.55,53.83 70.55,54.25 
	70.97,54.25 70.97,54.67 71.4,54.67 71.4,55.09 71.82,55.09 71.82,55.52 72.24,55.52 72.66,55.52 72.66,55.94 73.08,55.94 
	73.08,56.36 73.08,56.78 73.08,57.2 72.66,57.62 72.66,58.05 72.66,58.47 72.66,58.89 72.66,59.31 72.66,59.73 73.08,59.31 
	73.5,59.31 73.93,59.31 74.35,59.31 74.77,59.31 74.77,59.73 75.19,59.73 75.19,60.15 75.19,60.58 74.77,60.58 74.77,61 
	75.19,61.42 75.19,61.84 75.61,61.84 75.61,62.26 76.03,62.26 76.46,62.26 76.88,62.26 77.3,62.26 77.3,61.84 77.72,61.84 
	77.72,62.26 78.14,62.26 78.14,62.69 78.14,63.11 78.14,63.53 78.14,63.95 78.14,64.37 78.14,64.79 78.14,65.22 78.57,65.64 
	78.99,66.06 79.41,66.06 79.83,66.48 80.25,66.9 80.25,67.32 79.83,67.32 79.83,67.75 79.41,68.17 79.83,68.17 79.83,68.59 
	79.83,69.01 79.83,69.43 79.83,69.85 79.83,70.28 79.83,70.7 79.83,71.12 79.83,71.54 79.83,71.96 80.25,71.96 80.25,72.39 
	80.67,72.39 80.67,72.81 81.1,73.23 81.52,73.65 81.94,74.07 81.94,74.49 81.94,74.92 81.94,75.34 81.52,75.76 81.52,76.18 
	81.52,76.6 81.52,77.02 81.52,77.45 81.52,77.87 81.1,77.87 81.1,78.29 81.52,78.29 81.52,78.71 81.1,78.71 80.67,78.71 
	80.67,79.13 81.1,79.55 81.52,79.55 81.52,79.98 81.1,79.98 81.1,80.4 81.52,80.4 81.94,80.82 81.94,81.24 81.94,81.66 81.94,82.09 
	81.52,82.09 81.94,82.09 81.94,82.51 81.94,82.93 82.36,82.93 81.94,82.93 81.94,83.35 81.52,83.35 81.1,83.35 81.52,83.77 
	81.52,84.19 81.94,84.19 81.94,84.62 81.52,84.62 81.52,85.04 81.52,85.46 81.94,85.88 82.36,85.88 82.78,86.3 83.2,86.3 
	83.63,86.3 84.05,86.3 84.05,86.72 84.47,86.72 84.47,87.15 84.89,87.15 84.89,87.57 84.89,87.99 85.31,88.41 84.89,88.41 
	85.31,88.41 85.31,88.83 85.31,89.26 84.89,89.26 84.47,89.26 84.47,89.68 84.05,89.68 84.05,90.1 84.47,90.52 84.47,90.94 
	84.47,91.36 84.05,91.36 83.63,91.36 83.2,91.36 83.2,90.94 82.78,91.36 82.78,91.79 82.78,92.21 82.78,92.63 82.36,92.63 
	81.94,93.05 81.94,93.47 81.94,93.89 82.36,93.89 82.36,94.32 82.36,94.74 82.36,95.16 81.94,95.16 81.52,95.16 81.1,95.16 
	81.1,95.58 81.1,96 81.1,96.42 80.67,96.42 80.67,96.85 79.83,96.85 79.83,96.42 79.83,96 79.83,95.58 79.41,95.58 78.99,95.16 
	78.57,95.16 78.14,94.74 77.72,94.74 77.3,94.74 76.46,94.32 76.03,94.32 75.61,94.32 75.19,94.32 74.35,93.89 73.5,93.89 
	73.08,93.89 72.66,93.89 72.24,93.89 71.82,93.89 71.4,93.89 70.97,93.89 70.55,93.89 70.13,93.89 69.29,93.89 69.29,94.32 
	68.87,94.32 68.44,94.32 68.02,94.74 67.6,94.32 67.6,93.89 68.02,93.89 68.02,93.47 68.02,93.05 68.02,92.63 68.02,92.21 
	67.6,91.79 67.6,91.36 68.02,90.94 68.02,90.52 68.44,90.52 68.02,90.1 68.02,89.68 68.02,89.26 67.6,88.83 67.18,87.99 
	66.76,87.57 66.33,87.57 65.91,87.15 65.49,87.15 65.07,87.15 65.07,87.57 64.65,87.57 64.65,87.99 64.23,87.99 64.23,88.41 
	63.38,88.83 63.38,89.26 62.96,89.68 62.54,89.68 62.12,89.68 61.7,90.1 60.85,90.1 60.43,90.1 60.01,90.1 60.01,90.52 59.59,90.52 
	59.59,90.1 59.59,89.68 59.17,89.26 59.17,88.41 58.74,87.99 58.74,87.57 58.74,87.15 58.32,86.72 57.9,86.3 57.48,85.88 
	57.06,85.46 57.06,85.04 56.63,85.04 56.21,85.04 55.79,85.04 55.79,84.62 55.37,85.04 54.95,85.04 54.53,85.04 54.53,85.46 
	54.1,85.46 54.1,85.88 53.68,85.88 53.68,86.3 53.26,86.3 53.26,85.88 52.84,85.88 52.84,85.46 52.42,85.04 52.42,84.62 
	52.42,84.19 52.42,83.77 52,83.77 52,84.19 51.57,84.19 51.15,84.19 50.73,84.19 50.31,83.77 50.31,83.35 49.89,83.35 49.89,82.93 
	49.89,82.51 49.89,82.09 49.89,81.66 50.31,81.66 50.31,81.24 50.31,80.82 50.73,80.82 50.73,80.4 50.73,79.98 50.31,79.98 
	50.31,79.55 49.89,79.55 49.89,79.13 49.47,78.71 49.04,78.71 48.62,78.71 48.62,78.29 49.04,78.29 49.04,77.87 49.04,77.45 
	48.62,77.45 48.2,77.45 48.2,77.02 48.2,76.6 47.78,76.18 47.36,75.76 46.93,75.76 46.51,75.76 46.51,76.18 46.09,76.18 
	45.67,76.18 45.25,76.6 44.83,76.6 44.4,76.6 43.98,76.6 43.56,76.6 43.14,76.6 43.14,77.02 42.72,77.02 42.72,77.45 42.72,77.87 
	43.14,77.87 43.56,77.87 43.56,78.29 43.56,78.71 43.56,79.13 43.14,79.13 42.72,79.13 42.3,79.13 41.87,79.13 41.45,79.13 
	41.03,79.55 41.03,79.13 40.61,79.13 40.19,78.71 40.19,79.13 39.76,79.13 39.76,79.55 39.34,79.55 39.34,79.98 38.92,79.98 
	38.92,80.4 39.34,80.82 38.92,80.82 38.5,80.82 38.5,80.4 38.08,80.4 38.08,79.98 37.66,79.98 37.23,79.55 36.81,79.55 36.39,79.13 
	35.97,79.13 35.55,79.13 35.55,78.71 35.13,78.71 34.7,78.71 34.7,78.29 34.28,77.87 34.28,77.45 34.28,77.02 33.86,77.02 
	33.86,76.6 33.44,76.6 33.44,77.02 33.02,77.02 32.17,77.45 31.75,77.45 31.33,77.45 30.91,77.45 29.64,77.45 29.22,77.45 
	28.38,77.45 27.96,77.45 27.11,77.45 26.27,77.45 25.85,77.45 25.43,77.45 25,77.87 24.58,77.87 24.16,78.29 23.74,78.29 
	23.74,78.71 23.32,79.13 22.9,79.13 22.9,78.71 22.9,78.29 22.47,77.87 22.47,77.45 22.47,77.02 22.05,77.02 21.63,77.02 
	21.21,77.02 20.79,77.45 20.79,77.02 20.36,77.02 20.36,76.6 19.94,76.6 19.94,76.18 19.94,75.76 19.94,75.34 19.94,74.92 
	19.52,74.92 19.1,74.92 18.68,74.92 18.26,74.49 17.83,74.49 17.41,74.49 17.41,74.07 17.41,73.65 17.83,73.23 17.83,72.81 
	18.26,71.96 18.26,71.54 18.26,71.12 18.68,71.12 18.68,70.7 18.68,70.28 18.68,69.85 18.26,69.85 18.26,69.43 18.26,69.01 
	18.26,68.59 18.68,68.59 18.68,68.17 18.68,67.75 19.1,67.32 19.52,67.32 19.52,66.9 19.94,66.9 19.94,66.48 20.36,66.06 
	20.79,66.06 20.79,65.64 20.79,65.22 20.36,64.79 20.36,64.37 20.36,63.95 20.36,63.53 20.79,63.53 20.79,63.11 20.79,62.69 
	20.36,62.69 20.36,62.26 20.36,61.84 20.79,61.84 20.79,61.42 21.21,61.42 21.21,61 21.21,60.58 21.21,60.15 21.21,59.73 
	20.79,59.73 20.36,59.31 20.36,58.89 19.94,58.89 19.94,58.47 20.36,58.47 20.36,58.05 20.79,58.05 20.79,57.62 21.21,57.62 
	21.21,57.2 21.63,57.2 21.63,56.78 22.05,56.78 22.05,56.36 22.05,55.94 22.05,55.52 21.63,55.52 21.21,55.52 20.79,55.52 
	20.36,55.52 19.94,55.52 19.52,55.94 19.1,55.94 18.68,55.94 18.26,55.52 18.26,55.09 17.83,55.09 17.83,54.67 17.83,54.25 
	17.83,53.83 17.83,53.41 17.83,52.98 17.83,52.56 18.26,52.56 18.68,52.56 19.1,52.56 19.52,52.56 19.94,52.56 19.94,52.14 
	20.36,52.14 20.36,51.72 20.79,51.3 21.21,51.3 21.63,51.3 22.05,50.88 21.63,50.88 21.63,50.45 21.21,50.03 21.21,49.61 
	20.79,49.61 20.36,49.19 19.94,49.19 19.52,49.61 19.1,49.61 19.1,50.03 18.68,50.03 18.26,50.03 18.26,50.45 17.83,50.45 
	17.41,50.45 16.99,50.45 16.57,50.45 16.15,50.88 15.73,50.88 15.3,50.88 14.88,50.88 14.46,50.88 14.04,50.88 14.04,50.45 
	13.62,50.45 13.19,50.45 13.19,50.03 12.77,50.03 12.77,49.61 12.77,49.19 12.77,48.77 12.77,48.35 12.77,47.92 12.77,47.5 
	12.77,47.08 12.35,46.66 12.35,46.24 11.93,46.24 11.93,45.82 11.93,45.39 11.93,44.97 11.93,44.55 11.93,44.13 11.51,43.71 
	11.93,43.71 11.93,43.28 12.35,42.86 12.77,42.86 13.19,42.86 13.19,42.44 13.62,42.44 14.04,42.44 14.46,42.44 14.88,42.44 
	15.3,42.44 15.3,42.02 15.73,42.02 15.73,41.6 15.73,41.18 16.15,40.75 16.15,40.33 16.57,40.33 16.57,39.91 16.57,39.49 
	16.57,39.07 16.57,38.65 16.99,38.65 17.41,38.65 17.83,38.65 18.26,38.65 18.68,39.07 19.1,39.07 19.52,39.07 19.94,39.07 
	20.79,39.49 21.21,39.49 21.63,39.49 22.05,39.49 24.16,39.91 25,40.33 25.43,40.33 26.27,40.33 26.69,40.33 27.11,40.75 
	28.38,40.75 28.8,40.75 29.22,40.75 29.64,40.75 30.06,40.75 30.06,41.18 30.49,40.75 30.91,40.33 31.33,40.33 31.33,39.91 
	31.33,39.49 31.75,39.49 32.17,39.49 32.6,39.49 33.02,39.49 33.44,39.07 33.44,38.65 33.44,38.22 33.44,37.8 33.44,37.38 
	33.86,37.38 34.28,37.38 34.7,37.38 34.7,36.96 34.7,36.54 34.7,36.12 34.28,35.69 34.28,34.85 33.86,34.43 33.86,34.01 
	33.86,33.59 33.44,33.59 33.44,33.16 33.02,32.74 32.6,32.32 31.75,31.06 30.49,29.79 30.49,29.37 30.49,28.95 30.49,28.53 
	30.91,28.1 31.33,28.1 31.33,27.68 31.75,27.68 32.17,27.26 32.6,27.26 32.6,26.84 33.02,26.84 33.02,26.42 32.6,26.42 32.6,25.99 
	32.6,25.57 32.6,25.15 32.6,24.73 32.17,24.73 32.17,24.31 31.75,24.31 31.33,24.31 30.91,24.31 30.49,24.73 30.06,24.73 
	30.06,25.15 29.64,25.57 29.22,25.57 29.22,25.15 29.22,24.73 28.8,24.73 28.38,24.31 27.96,24.31 27.96,23.89 27.96,23.46 
	28.38,23.46 28.38,23.04 28.38,22.62 27.96,22.62 27.53,22.62 27.11,22.62 27.11,22.2 26.69,21.78 26.27,20.93 25.85,20.93 
	25,21.78 23.74,21.36 22.05,16.29 22.47,15.87 23.74,14.19 24.58,12.92 25,13.34 27.11,13.34 28.8,12.92 29.64,12.92 30.91,12.92 
	32.17,12.08 32.6,12.08 33.02,11.66 33.44,11.66 34.28,11.23 34.7,10.81 34.7,11.23 35.13,11.66 35.13,11.23 35.55,11.23 
	35.97,11.23 36.39,11.23 36.81,11.23 37.23,11.23 37.66,11.23 38.08,11.23 38.5,11.23 38.5,10.81 38.5,10.39 38.5,9.55 38.5,9.12 
	38.08,8.7 37.66,8.28 38.08,8.28 38.08,7.86 38.08,7.44 38.08,7.02 38.5,7.02 38.92,6.59 39.34,6.59 39.76,6.17 40.19,6.17 
	40.61,6.17 40.61,5.75 41.03,6.17 41.45,6.17 41.45,5.75 41.87,5.75 42.3,5.75 42.72,5.33 43.56,4.91 43.98,4.49 44.4,4.49 
	44.83,4.06 45.25,3.64 45.67,3.22 46.51,2.8 46.93,2.38 47.36,1.96 47.78,1.53 48.2,1.53 48.2,1.11 49.04,0.69 49.47,0.27 
	49.89,-0.15 52,1.53 52.84,1.96 53.26,2.38 53.68,2.8 60.01,7.44 63.8,10.39 65.49,11.66 68.44,13.76 68.87,13.76 69.29,14.19 
	69.71,13.34 70.13,12.08 70.55,11.23 70.55,10.81 70.55,10.39 70.97,10.39 70.97,9.97 "/>
</svg>
