<?xml version="1.0" encoding="utf-8"?>
<!-- Generator: Adobe Illustrator 24.2.1, SVG Export Plug-In . SVG Version: 6.00 Build 0)  -->
<svg version="1.1" id="Layer_1" xmlns="http://www.w3.org/2000/svg" xmlns:xlink="http://www.w3.org/1999/xlink" x="0px" y="0px"
	 viewBox="0 0 97.23 97.23" style="enable-background:new 0 0 97.23 97.23;" xml:space="preserve">
<style type="text/css">
	.st0{fill-rule:evenodd;clip-rule:evenodd;fill:#1D1D1B;}
</style>
<polygon class="st0" points="50.81,7.65 50.97,7.81 50.97,7.97 50.97,8.12 51.12,8.44 51.44,8.44 51.76,8.44 52.08,8.44 52.24,8.6 
	52.55,8.44 52.71,8.44 52.87,8.44 52.87,8.6 52.87,8.92 53.03,9.08 53.19,9.08 53.51,9.08 53.66,9.24 53.82,9.24 53.98,9.24 
	54.14,9.39 54.3,9.39 54.62,9.55 54.78,9.39 54.93,9.24 55.09,8.92 55.25,8.6 55.41,8.6 55.41,8.44 55.57,8.44 55.57,8.6 
	55.89,8.76 56.05,9.08 56.2,9.08 56.68,8.92 56.84,8.92 57,8.92 57,9.08 57,9.24 57.16,9.39 57.32,9.39 57.47,9.39 57.63,9.39 
	57.79,9.24 57.95,9.24 58.11,9.08 58.11,8.92 58.27,8.76 58.43,8.6 58.59,8.44 58.74,8.44 58.9,8.28 59.06,8.28 59.22,8.28 
	59.22,8.44 59.38,8.44 59.54,8.6 59.7,8.6 59.86,8.76 60.01,8.76 60.17,8.76 60.33,8.76 60.49,8.76 60.65,8.76 60.81,8.92 
	60.97,8.92 61.13,8.92 61.28,8.92 61.44,9.08 61.6,9.08 61.76,8.92 61.92,8.76 62.08,8.6 62.24,8.6 62.24,8.44 62.4,8.28 
	62.55,8.28 62.71,8.12 62.87,7.97 63.03,7.81 63.19,7.81 63.35,7.65 63.51,7.65 63.67,7.49 63.82,7.49 63.98,7.33 64.14,7.33 
	64.3,7.17 64.46,7.17 64.62,7.01 64.78,7.01 64.94,6.85 64.94,6.7 65.09,6.7 65.09,6.54 65.25,6.38 65.25,6.22 65.41,6.06 
	65.57,5.9 65.73,5.9 65.89,5.9 66.05,5.74 66.21,5.74 66.36,5.74 66.52,5.58 66.68,5.58 66.84,5.58 67,5.58 67,5.74 67.16,5.74 
	67.32,5.9 67.48,6.06 67.64,6.22 67.79,6.38 67.79,6.54 67.95,6.54 67.95,6.7 68.11,6.85 68.27,7.01 68.43,7.17 68.59,7.33 
	68.75,7.49 68.9,7.49 69.06,7.65 69.22,7.65 69.38,7.65 69.54,7.49 69.7,7.49 69.7,7.33 69.86,7.17 69.86,7.01 70.02,6.85 
	70.02,6.7 70.17,6.54 70.33,6.38 70.49,6.38 70.65,6.22 70.81,6.22 70.97,6.06 71.13,6.06 71.13,6.22 71.29,6.22 71.45,6.38 
	71.6,6.38 71.76,6.54 71.92,6.54 72.08,6.54 72.24,6.7 72.4,6.7 72.4,6.85 72.56,6.85 72.72,7.01 72.87,7.01 73.03,7.17 73.19,7.17 
	73.35,7.33 73.51,7.33 73.67,7.49 73.83,7.49 73.83,7.65 73.99,7.81 74.14,7.97 74.3,7.97 74.3,8.12 74.3,8.28 74.3,8.44 74.14,8.6 
	74.14,8.76 74.3,8.92 74.3,9.08 74.46,9.08 74.62,9.24 74.78,9.24 74.94,9.24 75.1,9.08 75.26,9.08 75.41,9.08 75.57,9.08 
	75.73,9.08 76.05,8.92 76.21,8.92 76.37,8.76 76.53,8.76 76.53,8.6 76.68,8.6 76.84,8.6 77,8.44 77.16,8.44 77.48,8.44 77.64,8.44 
	77.8,8.28 77.95,8.28 78.11,8.28 78.27,8.12 78.43,8.12 79.22,8.12 79.38,8.28 79.7,8.44 79.86,8.44 80.18,8.44 80.34,8.44 
	80.49,8.44 80.65,8.44 80.81,8.28 80.97,8.28 81.13,8.12 81.29,7.97 81.29,7.81 81.45,7.81 81.45,7.65 81.45,7.49 81.61,7.33 
	81.76,7.01 81.76,6.85 81.76,6.7 81.92,6.38 81.92,6.22 82.08,6.22 82.24,6.06 82.4,6.06 82.56,6.06 82.56,6.22 82.56,6.38 
	82.56,6.54 82.4,6.7 82.4,6.85 82.56,6.85 82.72,6.7 82.88,6.54 82.88,6.38 83.03,6.22 83.03,6.06 83.19,5.9 83.19,5.58 83.19,5.43 
	83.35,5.27 83.51,5.11 83.51,5.27 83.67,5.43 83.67,5.58 83.83,5.9 83.83,6.06 83.99,6.22 83.99,6.38 84.15,6.38 84.15,6.54 
	84.46,6.54 84.46,6.38 84.62,6.38 84.62,6.22 84.46,6.22 84.46,6.06 84.46,5.9 84.46,5.74 84.46,5.58 84.62,5.43 84.62,5.27 
	84.78,5.27 84.94,5.27 85.1,5.27 85.42,5.27 85.57,5.27 85.73,5.43 85.89,5.58 86.05,5.9 86.21,6.06 86.21,6.22 86.53,6.38 
	86.69,6.54 86.84,6.54 87,6.54 87,6.38 87,6.22 86.84,6.22 86.84,5.9 86.84,5.74 86.84,5.58 87,5.58 87.32,5.74 87.48,5.9 
	87.64,5.9 87.64,6.06 87.8,6.22 87.96,6.38 88.11,6.38 88.27,6.38 88.43,6.38 88.59,6.54 88.91,6.7 89.07,6.85 89.23,7.01 
	89.38,7.17 89.54,7.17 89.7,7.33 90.02,7.33 90.18,7.33 90.34,7.17 90.5,7.17 90.5,7.01 90.5,6.7 90.5,6.54 90.5,6.38 90.5,6.22 
	90.5,5.9 90.5,5.74 90.65,5.74 90.65,5.58 90.65,5.43 90.65,5.27 90.65,5.11 90.81,5.11 90.97,4.95 91.13,4.95 91.29,4.95 
	91.45,4.95 91.61,4.95 91.77,4.95 92.08,5.11 92.24,5.27 92.4,5.27 92.56,5.43 92.72,5.58 92.72,5.74 92.88,5.74 93.04,5.74 
	93.19,5.74 93.35,5.74 93.51,5.58 93.67,5.58 93.83,5.58 93.99,5.58 94.15,5.58 94.15,5.43 94.31,5.27 94.62,5.27 94.78,5.11 
	94.94,5.11 95.1,4.95 95.26,4.95 95.42,4.95 95.58,4.95 95.58,4.79 95.73,4.79 95.73,4.63 95.89,4.79 96.05,4.79 96.21,4.95 
	96.37,5.11 96.37,5.27 96.37,5.43 96.37,5.58 96.53,5.58 96.53,5.74 96.53,5.9 96.53,6.06 96.69,6.38 96.69,6.54 96.85,6.54 
	96.85,6.7 96.85,6.85 96.85,7.01 96.85,7.17 96.85,7.33 96.69,7.49 96.53,7.49 96.53,7.65 96.53,7.81 96.37,7.81 96.21,7.97 
	96.21,8.12 95.89,8.28 95.73,8.44 95.58,8.6 95.42,8.76 95.42,8.92 95.42,9.08 95.42,9.24 95.42,9.39 95.42,9.71 95.42,10.03 
	95.42,10.19 95.42,10.35 95.42,10.51 95.42,10.66 95.42,10.98 95.42,11.14 95.26,11.3 95.1,11.3 95.1,11.46 94.94,11.46 
	94.94,11.62 94.78,11.62 94.78,11.78 94.62,11.78 94.62,11.93 94.46,11.93 94.46,12.09 94.31,12.09 94.31,12.25 94.15,12.25 
	93.99,12.25 93.99,12.41 93.83,12.57 93.67,12.73 93.67,12.89 93.51,13.05 93.51,13.2 93.35,13.2 93.35,13.36 93.35,13.52 
	93.35,13.68 93.35,13.84 93.35,14 93.35,14.16 93.35,14.32 93.51,14.32 93.35,14.47 93.35,14.63 93.35,14.79 93.35,14.95 
	93.35,15.11 93.19,15.27 93.19,15.43 93.04,15.59 92.88,15.59 92.88,15.74 93.04,15.74 93.04,15.9 93.04,16.06 93.04,16.22 
	93.19,16.22 93.19,16.38 93.19,16.54 93.35,16.54 93.35,16.7 93.35,16.86 93.19,16.86 93.19,17.01 93.35,17.01 93.51,17.01 
	93.51,17.17 93.67,17.17 93.67,17.33 93.67,17.49 93.67,17.65 93.67,17.81 93.67,17.97 93.67,18.13 93.83,18.28 93.83,18.44 
	93.99,18.44 93.99,18.6 94.15,18.6 94.15,18.76 93.99,18.76 93.99,18.92 94.15,18.92 94.15,19.08 94.31,19.08 94.46,19.08 
	94.46,19.24 94.46,19.4 94.31,19.4 94.31,19.55 94.15,19.55 93.99,19.55 93.83,19.55 93.67,19.55 93.51,19.55 93.51,19.71 
	93.35,19.71 93.19,19.71 93.04,19.71 93.04,19.87 93.04,19.71 92.88,19.71 92.88,19.87 92.88,20.03 92.72,20.03 92.72,20.19 
	92.56,20.19 92.56,20.03 92.4,20.03 92.4,20.19 92.4,20.03 92.24,20.03 92.08,20.03 92.08,20.19 91.92,20.19 91.77,20.19 
	91.92,20.35 91.92,20.51 91.77,20.51 91.77,20.67 91.61,20.67 91.29,20.82 91.13,20.82 91.13,20.67 90.97,20.67 90.97,20.82 
	90.81,20.82 90.81,20.67 90.65,20.67 90.5,20.67 90.34,20.67 90.18,20.82 90.02,21.14 89.54,21.62 89.38,21.62 89.38,21.78 
	89.23,21.94 89.07,22.09 89.07,22.25 88.91,22.25 88.75,22.41 88.59,22.57 88.43,22.73 88.27,22.73 88.11,22.89 87.96,23.05 
	87.8,23.05 87.64,23.21 87.48,23.21 87.32,23.36 87.16,23.52 87,23.52 86.84,23.68 86.69,23.68 86.69,23.84 86.53,24 86.37,24 
	86.21,24.16 86.05,24.16 85.89,24.32 85.73,24.48 85.73,24.63 85.57,24.95 85.57,25.11 85.57,25.27 85.42,25.43 85.26,25.59 
	85.26,25.75 85.1,25.9 84.94,26.06 84.94,26.22 84.78,26.38 84.62,26.54 84.46,26.54 84.3,26.54 84.15,26.7 83.99,26.86 
	83.83,26.86 83.51,27.17 83.19,27.33 83.03,27.49 82.88,27.49 82.72,28.29 81.61,34.48 81.45,34.64 81.29,34.79 81.13,34.95 
	80.97,35.11 80.81,35.27 80.65,35.43 80.65,35.59 80.49,35.59 80.34,35.75 80.34,35.91 80.18,36.06 80.18,36.22 80.02,36.38 
	79.7,36.86 78.75,38.6 78.43,39.08 78.27,39.4 78.27,39.56 78.11,39.72 77.95,40.03 77.8,40.19 77.8,40.35 77.64,40.51 77.64,40.67 
	77.8,40.83 77.95,40.83 77.95,40.99 78.11,40.99 78.27,40.99 78.43,41.14 78.59,41.14 78.59,41.3 78.59,41.46 78.59,41.62 
	78.59,41.78 78.59,42.1 78.59,42.26 78.43,42.26 78.27,42.26 78.11,42.26 77.95,42.26 77.8,42.26 77.64,42.26 77.48,42.26 
	77.32,42.26 77.16,42.26 77,42.26 77,42.42 76.84,42.42 76.68,42.57 76.53,42.57 76.37,42.73 76.21,42.89 76.05,43.05 75.89,43.05 
	75.73,43.21 75.57,43.37 75.41,43.53 75.1,43.68 73.67,44.64 71.6,45.75 68.59,47.49 67.32,48.13 66.84,48.45 66.68,48.45 
	66.52,48.61 66.36,48.61 66.21,48.61 66.05,48.61 65.89,48.61 65.73,48.61 65.73,48.76 65.73,48.92 65.57,48.92 65.41,48.92 
	65.41,49.08 65.25,49.08 65.09,49.08 65.09,49.24 64.94,49.24 64.78,49.4 64.78,49.56 64.62,49.56 64.62,49.72 64.78,49.72 
	64.78,49.88 64.62,49.88 64.62,50.03 64.46,50.03 64.3,50.03 64.14,50.03 63.98,50.03 63.98,50.19 63.82,50.19 63.82,50.35 
	63.82,50.51 63.67,50.51 63.51,50.67 63.35,50.83 63.19,50.99 63.19,51.15 63.03,51.31 63.03,51.46 63.03,51.62 62.87,51.62 
	63.03,51.62 63.03,51.78 62.87,51.78 62.87,51.94 62.71,51.94 62.71,52.1 62.55,52.26 62.4,52.26 62.4,52.42 62.4,52.57 
	62.24,52.57 62.24,52.73 62.24,52.89 62.08,53.05 62.08,53.21 62.24,53.21 62.24,53.37 62.4,53.37 62.4,53.53 62.55,53.53 
	62.55,53.69 62.71,53.69 62.71,53.84 62.87,53.69 62.87,53.84 62.87,54 63.03,54 62.87,54 63.03,54 63.03,54.16 63.19,54.16 
	63.19,54 63.19,54.16 63.35,54.16 63.51,54.16 63.51,54.32 63.67,54.32 63.67,54.48 63.82,54.48 63.98,54.48 64.14,54.64 
	64.14,54.8 64.14,54.96 64.14,55.12 64.14,55.27 64.3,55.27 64.3,55.43 64.3,55.59 64.46,55.43 64.46,55.59 64.46,55.75 
	64.62,55.75 64.62,55.91 64.78,55.75 64.94,55.75 64.78,55.91 64.94,55.91 65.09,55.91 65.25,55.91 65.25,55.75 65.41,55.75 
	65.41,55.91 65.57,55.91 65.57,55.75 65.73,55.91 65.73,56.07 65.89,56.07 65.89,56.23 66.05,56.23 66.05,56.07 66.21,56.07 
	66.21,56.23 66.21,56.39 66.36,56.39 66.52,56.39 66.68,56.39 66.84,56.39 66.84,56.54 67,56.54 67,56.7 67.16,56.7 67.32,56.7 
	67.32,56.86 67.48,57.02 67.64,57.02 67.79,57.18 67.79,57.02 67.79,56.86 67.95,57.02 68.11,57.02 67.95,57.18 68.11,57.18 
	68.27,57.18 68.27,57.34 68.27,57.18 68.43,57.18 68.59,57.34 68.59,57.18 68.59,57.34 68.75,57.34 68.9,57.34 68.9,57.5 
	69.06,57.5 69.06,57.65 69.06,57.81 68.9,57.81 68.9,57.65 68.75,57.65 68.75,57.81 68.59,57.81 68.59,57.65 68.59,57.81 
	68.43,57.81 68.27,57.81 68.27,57.97 68.11,57.97 68.11,57.81 68.27,57.81 68.11,57.81 68.11,57.65 68.11,57.81 67.95,57.81 
	67.95,57.97 67.79,57.97 67.64,57.97 67.48,57.97 67.48,57.81 67.32,57.81 67.32,57.97 67.32,57.81 67.32,57.97 67.16,57.97 
	67,57.97 67,57.81 66.84,57.81 66.68,57.81 66.68,57.97 66.68,57.81 66.52,57.81 66.36,57.81 66.21,57.81 66.05,57.81 65.89,57.81 
	65.73,57.81 65.57,57.97 65.41,57.97 65.25,57.97 65.09,57.97 64.94,57.97 64.94,58.13 64.78,58.13 64.62,58.13 64.62,58.29 
	64.46,58.29 64.46,58.45 64.3,58.45 64.3,58.61 64.46,58.61 64.46,58.77 64.46,58.93 64.3,58.93 64.14,58.93 64.14,59.08 
	64.14,59.24 64.14,59.4 63.98,59.4 64.14,59.4 64.14,59.56 64.14,59.72 64.14,59.88 64.14,60.04 63.98,60.04 63.82,60.04 
	63.82,60.2 63.67,60.2 63.51,60.35 63.51,60.51 63.35,60.51 63.19,60.51 63.03,60.51 62.87,60.67 62.71,60.67 62.71,60.83 
	62.55,60.83 62.55,60.99 62.55,60.83 62.4,60.83 62.4,60.67 62.4,60.83 62.24,60.67 62.24,60.83 62.08,60.83 62.08,60.99 
	61.92,60.99 61.92,60.83 61.92,60.99 61.92,61.15 61.76,61.15 61.76,61.31 61.6,61.31 61.44,61.31 61.44,61.46 61.6,61.46 
	61.44,61.46 61.44,61.62 61.28,61.62 61.13,61.78 61.13,61.62 60.97,61.78 60.97,61.62 60.81,61.78 60.65,61.78 60.49,61.78 
	60.33,61.78 60.33,61.94 60.17,61.94 60.17,61.78 60.01,61.78 60.01,61.94 59.86,61.94 60.01,61.94 59.86,61.78 59.7,61.78 
	59.54,61.78 59.38,61.62 59.22,61.62 59.06,61.62 58.9,61.46 58.74,61.46 58.74,61.62 58.59,61.62 58.59,61.78 58.59,61.62 
	58.43,61.62 58.27,61.62 58.11,61.62 58.11,61.46 57.95,61.46 57.95,61.31 57.79,61.31 57.79,61.46 57.63,61.46 57.47,61.46 
	57.32,61.46 57.32,61.31 57.16,61.31 57,61.31 56.84,61.15 56.84,61.31 56.68,61.31 56.52,61.31 56.36,61.31 56.36,61.46 
	56.2,61.31 56.05,61.31 55.89,61.31 55.89,61.46 55.73,61.46 55.73,61.62 55.57,61.62 55.41,61.62 55.41,61.78 55.25,61.94 
	55.09,61.94 55.09,61.78 54.93,61.78 54.78,61.78 54.78,61.94 54.78,61.78 54.78,61.94 54.62,61.94 54.46,61.94 54.46,62.1 
	54.3,62.1 54.3,61.94 54.3,62.1 54.14,62.1 54.3,62.1 54.14,62.1 53.98,62.1 53.82,62.1 53.66,62.1 53.51,62.1 53.35,62.26 
	53.19,62.26 53.03,62.26 52.87,62.26 52.87,62.42 52.71,62.42 52.71,62.26 52.71,62.1 52.55,62.1 52.55,62.26 52.39,62.26 
	52.24,62.26 52.08,62.42 52.08,62.26 51.92,62.26 51.92,62.42 51.92,62.26 51.76,62.26 51.6,62.26 51.44,62.26 51.6,62.1 
	51.44,62.1 51.44,61.94 51.28,61.94 51.44,61.94 51.28,61.94 51.28,61.78 51.12,61.78 51.12,61.62 50.97,61.62 50.97,61.46 
	50.97,61.62 50.81,61.62 50.81,61.46 50.65,61.46 50.49,61.46 50.33,61.46 50.17,61.46 50.01,61.46 49.85,61.46 49.85,61.62 
	49.85,61.78 49.7,61.78 49.7,61.94 49.54,61.94 49.54,61.78 49.38,61.78 49.22,61.94 49.22,61.78 49.06,61.78 48.9,61.78 
	48.74,61.94 48.74,61.78 48.58,61.78 48.58,61.94 48.58,61.78 48.43,61.78 48.43,61.94 48.43,61.78 48.27,61.78 48.27,61.94 
	48.27,61.78 48.11,61.78 47.95,61.78 47.79,61.78 47.79,61.62 47.79,61.46 47.63,61.46 47.47,61.46 47.47,61.31 47.31,61.31 
	47.31,61.46 47.31,61.31 47.16,61.31 47,61.31 46.84,61.31 46.68,61.31 46.68,61.15 46.52,61.15 46.52,61.31 46.36,61.31 
	46.36,61.15 46.2,61.15 46.2,60.99 46.04,60.99 45.89,60.99 45.89,60.83 45.73,60.83 45.73,60.99 45.57,60.83 45.57,60.99 
	45.41,60.99 45.41,61.15 45.41,61.31 45.25,61.31 45.09,61.46 45.09,61.62 45.09,61.78 45.09,61.94 45.09,62.1 44.93,62.1 
	44.93,61.94 44.93,62.1 44.77,62.1 44.77,62.26 44.62,62.26 44.46,62.26 44.3,62.26 44.3,62.42 44.14,62.42 43.98,62.42 
	43.82,62.42 43.82,62.58 43.66,62.42 43.66,62.58 43.5,62.58 43.5,62.74 43.35,62.74 43.19,62.89 43.19,63.05 43.19,63.21 
	43.19,63.37 43.19,63.53 43.19,63.69 43.03,63.85 43.03,64.01 43.03,64.16 43.19,64.16 43.35,64.32 43.5,64.48 43.66,64.64 
	43.66,64.8 43.82,64.96 43.82,65.12 43.82,65.28 43.82,65.43 43.98,65.43 43.98,65.59 43.98,65.75 44.14,65.91 44.3,65.91 
	44.3,66.07 44.3,66.23 44.46,66.23 44.46,66.39 44.62,66.39 44.77,66.54 44.77,66.7 44.93,66.7 44.93,66.86 45.09,66.86 
	45.09,67.02 45.25,67.02 45.25,67.18 45.25,67.34 45.25,67.5 45.41,67.5 45.41,67.66 45.41,67.82 45.41,67.97 45.25,67.97 
	45.25,68.13 45.41,68.13 45.41,68.29 45.41,68.45 45.25,68.45 45.41,68.45 45.41,68.61 45.41,68.77 45.25,68.77 45.41,68.77 
	45.41,68.93 45.41,69.09 45.25,69.24 45.41,69.24 45.41,69.4 45.25,69.4 45.25,69.56 45.25,69.72 45.25,69.56 45.25,69.72 
	45.09,69.72 45.09,69.88 45.09,70.04 44.93,70.04 45.09,70.04 45.09,70.2 45.09,70.36 44.93,70.36 44.93,70.51 44.93,70.67 
	45.09,70.67 45.09,70.83 44.93,70.83 44.93,70.99 44.93,71.15 44.93,71.31 44.93,71.47 44.93,71.63 44.77,71.63 44.77,71.78 
	44.93,71.78 44.77,71.78 44.93,71.94 44.93,72.1 44.93,72.26 44.93,72.42 44.93,72.58 44.93,72.74 44.93,72.9 44.77,72.9 
	44.77,73.05 44.93,73.05 45.09,73.05 45.25,73.05 45.25,73.21 45.25,73.37 45.25,73.53 45.25,73.69 45.09,73.69 45.09,73.85 
	45.09,74.01 45.09,74.17 45.25,74.17 45.09,74.32 45.09,74.48 45.25,74.48 45.41,74.48 45.41,74.64 45.41,74.8 45.41,74.96 
	45.41,74.8 45.41,74.96 45.57,74.96 45.57,75.12 45.41,75.12 45.41,75.28 45.57,75.44 45.41,75.44 45.41,75.59 45.25,75.59 
	45.25,75.75 45.25,75.91 45.41,75.91 45.41,76.07 45.25,76.07 45.25,76.23 45.25,76.39 45.25,76.55 45.25,76.71 45.41,76.86 
	45.41,77.02 45.25,77.02 45.25,77.18 45.41,77.18 45.41,77.34 45.25,77.34 45.25,77.5 45.09,77.5 45.09,77.66 45.09,77.82 
	45.09,77.98 44.93,77.98 45.09,78.13 44.93,78.13 44.93,78.29 44.93,78.45 44.93,78.61 44.93,78.77 44.93,78.93 45.09,78.93 
	45.09,79.09 45.09,79.25 44.93,79.25 44.93,79.4 44.93,79.56 44.77,79.56 44.62,79.56 44.62,79.72 44.62,79.88 44.46,80.04 
	44.62,80.04 44.46,80.2 44.46,80.36 44.46,80.52 44.46,80.67 44.3,80.67 44.46,80.83 44.46,80.99 44.3,80.99 44.3,81.15 44.3,81.31 
	44.14,81.31 44.14,81.47 44.14,81.63 44.14,81.79 44.14,81.94 44.14,82.1 43.98,82.1 43.98,82.26 44.14,82.42 44.3,82.42 
	44.3,82.58 44.46,82.58 44.46,82.74 44.62,82.74 44.62,82.9 44.62,83.06 44.62,83.21 44.62,83.37 44.62,83.53 44.77,83.53 
	44.62,83.69 44.62,83.85 44.77,83.85 44.93,83.85 44.93,84.01 44.93,84.17 45.09,84.17 45.09,84.33 45.25,84.33 45.25,84.48 
	45.25,84.64 45.25,84.8 45.25,84.96 45.41,85.12 45.41,85.28 45.41,85.44 45.41,85.6 45.41,85.75 45.25,85.75 45.25,85.91 
	45.25,86.07 45.25,86.23 45.09,86.23 45.09,86.39 44.93,86.55 44.93,86.71 44.77,86.71 44.62,86.87 44.46,86.87 44.3,86.87 
	44.3,86.71 44.3,86.55 44.14,86.55 44.14,86.39 43.98,86.23 43.98,86.07 43.82,86.07 43.82,85.91 43.66,85.91 43.5,85.6 
	43.35,85.44 43.35,85.28 43.19,85.12 43.03,85.12 42.87,85.12 42.71,85.28 42.71,85.44 42.55,85.75 42.55,85.91 42.39,86.07 
	42.39,86.23 42.23,86.39 42.08,86.39 42.08,86.55 42.08,86.71 42.08,86.87 42.08,87.02 41.92,87.18 41.76,87.18 41.6,87.18 
	41.6,87.34 41.44,87.34 41.44,87.5 41.6,87.5 41.44,87.5 41.44,87.66 41.28,87.66 41.12,87.82 40.96,87.82 40.81,87.82 40.65,87.82 
	40.49,87.82 40.49,87.66 40.33,87.66 40.17,87.66 40.17,87.82 40.17,87.66 40.01,87.66 40.01,87.5 39.85,87.66 39.69,87.66 
	39.69,87.5 39.69,87.34 39.69,87.18 39.85,87.18 39.69,87.18 39.85,87.18 39.85,87.02 39.69,87.02 39.69,86.87 39.54,86.87 
	39.54,86.71 39.38,86.71 39.22,86.71 39.22,86.87 39.06,86.87 38.9,87.02 38.9,87.18 39.06,87.18 39.22,87.18 39.22,87.34 
	39.22,87.5 39.38,87.5 39.54,87.66 39.54,87.82 39.54,87.98 39.54,88.14 39.54,88.29 39.38,88.29 39.38,88.45 39.54,88.61 
	39.38,88.61 39.22,88.77 39.22,88.93 39.38,88.93 39.38,89.09 39.54,89.09 39.38,89.09 39.38,89.25 39.38,89.41 39.22,89.41 
	39.22,89.56 39.38,89.56 39.22,89.56 39.22,89.72 39.38,89.72 39.38,89.88 39.22,89.88 39.06,89.88 39.06,89.72 38.9,89.72 
	38.74,90.04 38.74,90.2 38.74,90.36 38.58,90.36 38.42,90.36 38.42,90.52 38.27,90.36 38.27,90.52 38.11,90.52 38.11,90.68 
	38.11,90.52 38.11,90.68 37.95,90.68 37.79,90.68 37.79,90.83 37.79,90.68 37.79,90.83 37.63,90.83 37.47,90.83 37.31,90.83 
	37.15,90.83 37,90.83 36.84,90.83 36.84,90.68 36.68,90.68 36.68,90.83 36.68,90.68 36.52,90.68 36.36,90.83 36.36,90.68 
	36.2,90.68 36.2,90.83 36.2,90.68 36.04,90.68 36.04,90.83 35.88,90.83 35.88,90.68 35.88,90.52 35.73,90.52 35.57,90.52 
	35.57,90.36 35.41,90.36 35.25,90.36 35.25,90.2 35.09,90.2 35.09,90.04 34.93,90.04 34.77,90.04 34.61,90.04 34.46,90.2 
	34.3,90.36 34.14,90.36 33.98,90.36 33.82,90.52 33.66,90.52 33.5,90.52 33.34,90.52 33.18,90.36 33.03,90.36 33.03,90.2 
	32.87,90.04 32.71,90.04 32.55,90.2 32.23,90.2 32.07,90.2 31.91,90.2 31.76,90.36 31.6,90.52 31.44,90.52 31.44,90.68 31.28,90.52 
	31.28,90.36 31.12,90.2 31.12,90.04 31.12,89.88 30.96,89.56 30.96,89.41 30.8,89.25 30.64,89.09 30.64,88.93 30.49,88.77 
	30.64,88.61 30.49,88.45 30.49,88.29 30.33,88.14 30.17,87.98 30.17,87.82 30.01,87.66 30.01,87.5 30.01,87.34 30.01,87.18 
	30.01,87.02 30.01,86.87 29.85,86.71 29.85,86.55 29.69,86.55 29.53,86.55 29.06,86.55 28.58,87.02 27.79,87.02 27.15,86.87 
	26.68,86.87 26.68,86.71 26.52,86.71 26.52,86.55 26.52,86.39 26.36,86.39 26.52,86.39 26.52,86.23 26.36,86.23 26.2,86.23 
	26.2,86.39 26.2,86.23 26.04,86.23 25.88,86.07 26.04,86.07 26.04,85.91 25.88,85.91 25.88,86.07 25.88,85.91 25.72,85.91 
	25.72,85.75 25.72,85.6 25.56,85.6 25.72,85.44 25.56,85.44 25.41,85.44 25.41,85.12 25.41,84.96 25.41,84.8 25.41,84.64 
	25.25,84.64 25.25,84.48 25.25,84.33 25.25,84.17 25.41,84.17 25.25,84.17 25.25,84.01 25.25,83.85 25.09,83.85 25.09,83.69 
	25.09,83.85 24.93,83.85 24.77,83.85 24.77,83.69 24.61,83.69 24.61,83.53 24.45,83.53 24.45,83.69 24.29,83.69 24.29,83.85 
	24.29,84.01 24.29,84.17 24.29,84.33 24.14,84.33 24.29,84.33 24.29,84.48 24.45,84.48 24.45,84.64 24.29,84.64 24.29,84.8 
	24.29,84.96 24.45,85.12 24.29,85.12 24.14,85.12 24.14,85.28 24.14,85.44 24.14,85.6 23.98,85.6 23.98,85.75 23.82,85.75 
	23.82,85.91 23.98,85.91 23.98,86.07 23.82,86.07 23.82,86.23 23.82,86.39 23.66,86.39 23.66,86.55 23.5,86.55 23.66,86.71 
	23.66,86.87 23.5,86.87 23.5,87.02 23.5,87.18 23.66,87.18 23.5,87.18 23.5,87.34 23.66,87.34 23.66,87.5 23.66,87.66 23.5,87.66 
	23.5,87.82 23.66,87.98 23.5,87.98 23.5,87.82 23.5,87.98 23.5,88.14 23.66,88.14 23.66,88.29 23.5,88.29 23.5,88.45 23.66,88.45 
	23.5,88.45 23.5,88.61 23.5,88.77 23.5,88.93 23.5,89.09 23.5,88.93 23.34,88.93 23.34,89.09 23.34,89.25 23.18,89.25 23.18,89.41 
	23.02,89.41 23.02,89.56 23.02,89.72 22.87,89.72 23.02,89.88 22.87,89.88 22.71,89.88 22.71,90.04 22.87,90.04 22.87,90.2 
	22.71,90.2 22.55,90.2 22.39,90.36 22.23,90.36 22.23,90.52 22.07,90.52 21.91,90.52 21.75,90.52 21.6,90.68 21.28,90.68 
	21.12,90.68 20.96,90.68 20.8,90.68 20.64,90.68 20.48,90.83 20.33,90.83 20.17,90.99 20.01,90.99 19.85,90.99 19.69,90.99 
	19.53,90.99 19.37,90.99 19.06,91.47 18.74,91.47 18.74,91.63 18.58,91.63 18.58,91.79 18.58,91.95 18.58,92.1 18.42,92.26 
	18.26,92.42 18.1,92.42 18.1,92.58 17.94,92.58 17.79,92.58 17.63,92.58 17.47,92.58 17.31,92.58 17.15,92.58 16.99,92.58 
	16.99,92.42 16.83,92.42 16.67,92.42 16.52,92.58 16.36,92.58 16.36,92.74 16.2,92.74 16.04,92.74 15.88,92.74 15.72,92.74 
	15.56,92.74 15.4,92.9 15.4,92.74 15.25,92.74 15.25,92.58 15.4,92.58 15.4,92.42 15.4,92.26 15.4,92.1 15.4,91.95 15.4,91.79 
	15.56,91.79 15.56,91.63 15.56,91.47 15.56,91.31 15.56,91.15 15.4,90.99 15.4,90.83 15.56,90.83 15.56,90.68 15.56,90.52 
	15.56,90.36 15.4,90.2 15.4,90.04 15.56,90.04 15.56,89.88 15.56,89.72 15.72,89.56 15.88,89.41 15.88,89.25 16.04,89.09 
	16.04,88.93 15.88,88.61 15.88,88.45 15.72,88.29 15.56,88.29 15.4,88.14 15.25,88.14 15.09,88.14 15.09,88.29 14.93,88.29 
	14.77,88.29 14.45,88.14 14.29,87.98 14.13,87.82 13.98,87.82 13.82,87.82 13.82,87.66 13.66,87.5 13.66,87.34 13.34,86.39 
	13.18,86.23 13.18,86.07 13.18,85.91 13.02,85.75 13.02,85.6 12.86,85.44 12.71,85.44 12.71,85.28 12.55,85.28 12.55,85.12 
	12.39,85.12 12.23,84.96 12.07,84.96 12.07,84.8 12.07,84.64 11.91,84.48 11.91,84.33 11.91,84.17 11.91,84.01 11.75,84.01 
	11.59,83.69 11.44,83.53 11.44,83.37 11.44,83.21 11.59,83.06 11.75,82.9 11.75,82.74 11.75,82.58 11.75,82.42 11.91,82.26 
	11.75,82.26 11.75,82.1 11.75,81.94 11.59,81.94 11.44,81.94 11.28,81.79 11.12,81.63 11.12,81.47 10.96,81.47 10.96,81.15 
	10.96,80.99 10.96,80.83 11.12,80.67 11.12,80.52 11.12,80.36 11.12,80.2 10.96,80.2 10.96,80.04 10.96,79.88 11.12,79.72 
	11.12,79.56 10.96,79.56 10.8,79.4 10.64,79.25 10.48,79.25 10.48,79.09 10.32,79.09 10.48,78.93 10.48,78.77 10.48,78.61 
	10.32,78.61 10.32,78.45 10.32,78.29 10.32,78.13 10.48,78.13 10.48,77.98 10.64,77.82 10.64,77.66 10.64,77.5 10.64,77.34 
	10.48,77.18 10.64,77.18 10.64,77.02 10.48,77.02 10.32,77.02 10.17,76.86 10.01,76.86 9.85,76.86 9.85,76.71 9.69,76.71 
	9.69,76.55 9.53,76.55 9.37,76.39 9.21,76.23 9.21,76.07 9.21,75.91 9.21,75.75 9.05,75.75 8.9,75.75 8.9,75.59 8.74,75.59 
	8.58,75.44 8.42,75.28 8.42,75.12 8.26,74.96 8.1,74.8 7.94,74.64 7.78,74.64 7.63,74.32 7.47,74.32 7.47,74.17 7.47,74.01 
	7.47,73.85 7.31,73.85 7.31,73.69 7.15,73.69 7.15,73.53 6.99,73.53 6.99,73.21 6.99,73.05 7.15,72.9 7.15,72.74 7.31,72.58 
	7.31,72.42 7.47,72.26 7.47,72.1 7.47,71.94 7.31,71.94 7.31,71.78 7.15,71.78 7.15,71.63 6.99,71.47 6.99,71.31 6.83,71.31 
	6.83,71.15 6.83,70.83 4.77,70.51 4.61,70.36 4.29,70.04 3.97,69.4 3.66,68.93 3.66,68.61 3.5,67.97 3.34,67.97 3.18,67.82 
	2.86,67.18 2.39,66.86 1.75,66.54 1.27,66.54 0.8,66.23 0.48,65.91 0.32,65.59 0,65.28 -0.15,65.28 -0.15,65.12 -0.15,64.96 0,64.8 
	0.48,64.8 1.12,64.64 1.59,64.64 2.07,64.48 2.39,64.32 2.7,64.32 3.02,64.16 3.34,63.85 3.5,63.69 3.5,63.37 3.66,63.21 
	3.82,62.89 3.97,62.74 3.97,62.42 4.13,62.26 3.97,62.26 4.13,62.26 3.97,62.26 4.13,62.26 4.13,62.1 3.97,62.1 4.13,62.1 
	3.97,62.1 4.13,62.1 4.13,61.94 4.13,62.1 4.13,61.94 4.29,61.94 4.29,61.78 4.13,61.78 4.29,61.78 4.13,61.78 4.29,61.78 
	4.29,61.62 4.29,61.46 4.45,61.46 4.45,61.31 4.61,61.31 4.45,61.31 4.61,61.31 4.45,61.31 4.61,61.15 4.61,60.99 4.77,60.99 
	4.77,60.83 4.61,60.83 4.77,60.83 4.77,60.67 4.93,60.67 4.93,60.51 4.77,60.51 4.61,60.51 4.61,60.35 4.61,60.2 4.61,60.04 
	4.61,59.88 4.61,60.04 4.61,59.88 4.45,59.88 4.61,59.88 4.45,59.88 4.45,59.72 4.45,59.56 4.29,59.56 4.29,59.4 4.13,59.4 
	4.13,59.24 4.13,59.08 4.29,59.08 4.29,58.93 4.45,58.93 4.45,58.77 4.45,58.93 4.45,58.77 4.61,58.77 4.77,58.77 4.77,58.61 
	4.93,58.61 5.72,58.77 6.51,58.93 7.15,58.61 7.47,58.45 7.47,58.29 7.47,57.81 7.31,57.18 7.63,57.02 7.78,57.02 7.94,57.02 
	8.26,56.7 8.1,56.54 7.94,56.23 7.78,55.91 7.47,55.75 7.15,55.59 7.15,55.27 6.99,55.27 6.99,55.12 6.83,55.12 6.83,54.96 
	6.83,54.8 6.99,54.8 7.15,54.8 7.31,54.8 7.31,54.64 7.31,54.48 7.31,54.32 7.47,54.32 7.47,54.16 7.47,54 7.47,54.16 7.47,54 
	7.47,53.84 7.63,53.84 7.47,53.84 7.63,53.84 7.63,53.69 7.47,53.69 7.47,53.53 7.63,53.53 7.63,53.37 7.63,53.21 7.63,53.05 
	7.47,52.89 7.63,52.89 7.63,52.73 7.63,52.57 7.47,52.57 7.47,52.42 7.47,52.26 7.31,52.26 7.31,52.1 7.31,51.94 7.47,51.94 
	7.31,51.94 7.31,51.78 7.47,51.78 7.31,51.78 7.47,51.62 7.31,51.62 7.31,51.46 7.47,51.46 7.47,51.31 7.31,51.31 7.47,51.31 
	7.47,51.15 7.31,51.15 7.31,50.99 7.15,50.99 7.31,50.83 7.15,50.83 7.15,50.67 7.31,50.67 7.15,50.67 7.31,50.67 7.31,50.51 
	7.15,50.51 7.15,50.35 7.31,50.35 7.15,50.19 7.15,50.03 7.15,50.19 7.15,50.03 7.15,49.88 6.99,49.88 7.15,49.88 6.99,49.72 
	6.99,49.56 6.83,49.56 6.83,49.4 6.99,49.4 6.99,49.24 6.83,49.24 6.99,49.08 6.83,49.08 6.83,48.92 6.83,48.76 6.67,48.76 
	6.67,48.61 6.83,48.61 6.83,48.45 6.67,48.45 6.83,48.45 6.83,48.29 6.67,48.29 6.83,48.29 6.83,48.13 6.83,47.97 6.67,47.97 
	6.67,47.81 6.83,46.86 6.99,46.38 6.83,46.38 6.83,46.54 6.83,46.38 6.67,46.38 6.83,46.38 6.67,46.38 6.67,46.23 6.51,46.23 
	6.51,46.38 6.51,46.23 6.35,46.23 6.35,46.07 6.2,46.07 6.2,45.91 6.04,45.91 6.2,45.91 6.04,45.91 6.04,45.75 5.88,45.75 
	5.88,45.59 5.72,45.59 5.56,45.59 5.4,45.59 5.4,45.43 5.4,45.59 5.24,45.43 5.09,45.43 5.09,45.27 4.93,45.27 4.93,45.11 
	4.93,44.95 5.09,44.95 5.09,44.8 5.24,44.8 5.24,44.64 5.4,44.64 5.56,44.64 5.72,44.64 5.88,44.64 6.35,44.48 6.67,44.16 6.99,44 
	7.15,43.53 7.15,43.21 7.31,42.57 7.31,41.94 7.31,41.62 7.47,41.14 7.47,40.99 7.47,40.83 7.47,40.67 7.47,40.51 7.31,40.51 
	7.31,40.35 7.31,40.19 7.31,40.03 7.15,40.03 7.15,39.87 7.15,40.03 6.99,40.03 6.99,39.87 7.15,39.87 6.99,39.87 6.99,39.72 
	6.83,39.72 6.67,39.72 6.51,39.72 6.35,39.72 6.35,39.56 6.2,39.56 6.04,39.72 6.04,39.56 6.04,39.4 5.88,39.4 5.88,39.56 
	5.88,39.4 5.88,39.56 5.72,39.56 5.88,39.56 5.72,39.56 5.72,39.4 5.72,39.56 5.72,39.4 5.56,39.4 5.4,39.08 5.4,38.6 5.4,38.29 
	5.24,37.97 5.24,37.65 5.09,37.18 5.24,36.86 5.4,36.54 5.56,36.06 5.56,35.59 5.4,35.59 5.4,35.43 5.4,35.27 5.24,35.27 
	5.09,35.27 5.09,35.11 4.93,35.11 4.93,34.95 4.93,35.11 4.93,34.95 4.77,34.95 4.77,34.79 4.77,34.64 4.61,34.64 4.61,34.48 
	4.45,34.48 4.61,34.32 4.45,34.32 4.45,34.16 4.29,34.16 4.45,34 4.29,34 4.45,34 4.29,34 4.29,33.84 4.13,33.84 4.13,33.68 
	3.97,33.68 3.97,33.52 3.97,33.68 3.97,33.52 3.97,33.37 3.82,33.21 3.82,33.05 3.82,32.89 3.82,32.73 3.66,32.57 3.66,32.41 
	3.66,32.25 3.66,32.1 3.66,31.94 3.66,31.78 3.66,31.46 3.66,31.3 3.66,31.14 3.5,30.98 3.34,30.98 3.34,30.83 3.5,30.83 
	3.66,30.83 3.66,30.67 3.66,30.51 3.5,30.51 3.5,30.35 3.5,30.19 3.66,30.19 3.5,30.19 3.5,30.03 3.66,30.03 3.66,29.87 3.82,29.71 
	3.82,29.56 3.82,29.4 3.66,29.4 3.66,29.24 3.82,29.24 3.82,29.08 3.82,28.92 3.97,28.92 3.97,28.76 4.13,28.76 4.13,28.6 
	3.97,28.6 3.97,28.44 4.13,28.29 4.29,28.29 4.45,28.29 4.29,28.13 4.61,28.13 4.77,28.29 4.77,28.13 4.93,28.13 5.09,28.13 
	5.09,27.97 5.24,27.81 5.4,27.97 5.4,28.13 5.4,28.29 5.56,28.29 5.56,28.13 5.72,28.13 5.72,28.29 5.72,28.44 5.88,28.44 
	6.04,28.44 6.35,28.44 6.35,28.29 6.51,28.29 6.51,28.44 6.67,28.6 6.83,28.6 6.83,28.76 6.83,28.6 6.99,28.6 7.15,28.6 7.31,28.44 
	7.47,28.44 7.63,28.44 7.63,28.29 7.63,28.13 7.63,27.97 7.63,27.81 7.47,27.81 7.47,27.97 7.47,27.81 7.31,27.97 7.31,27.81 
	7.31,27.97 7.15,27.97 7.15,27.81 7.15,27.65 7.15,27.81 7.15,27.65 7.15,27.49 7.15,27.33 7.15,27.17 6.99,27.02 6.99,26.86 
	6.83,26.86 6.67,26.86 6.67,26.7 6.67,26.54 6.51,26.54 6.51,26.38 6.51,26.22 6.51,26.06 6.35,26.06 6.35,25.9 6.35,25.75 
	6.51,25.75 6.67,25.59 6.67,25.43 6.67,25.27 6.67,25.11 6.67,24.95 6.67,24.79 6.67,24.63 6.67,24.48 6.67,24.32 6.67,24.16 
	6.67,24.32 6.67,24.16 6.51,24 6.51,23.84 6.51,23.68 6.35,23.68 6.35,23.52 6.51,23.52 6.2,22.73 6.2,22.25 6.2,22.09 6.2,21.94 
	6.04,21.94 6.04,21.78 6.04,21.62 6.2,21.62 6.2,21.46 6.2,21.3 6.35,21.3 6.35,21.14 6.35,20.98 6.51,20.82 6.67,20.67 6.83,20.51 
	6.99,20.51 7.15,20.51 7.31,20.51 7.47,20.35 7.63,20.35 7.63,20.19 7.78,20.19 7.94,20.19 8.1,20.19 8.26,20.19 8.42,20.19 
	8.42,20.03 8.9,19.87 9.85,19.55 10.48,19.4 11.28,19.24 11.75,19.08 12.23,19.24 12.86,19.24 13.34,19.08 13.98,18.92 14.29,18.76 
	14.93,18.76 15.25,18.76 15.4,18.76 15.72,18.44 15.88,18.13 15.88,17.49 15.88,17.33 16.04,17.17 15.88,17.01 15.88,16.86 
	15.88,16.7 15.72,16.7 15.72,16.54 15.72,16.38 15.56,16.38 15.56,16.22 15.72,15.9 15.88,15.74 15.88,15.59 16.04,15.59 
	16.04,15.43 16.04,15.27 16.2,15.27 16.2,15.11 16.36,15.11 16.36,14.95 16.36,15.11 16.52,15.11 16.52,14.95 16.52,15.11 
	16.67,15.11 16.67,15.27 16.67,15.11 16.83,15.11 16.83,15.27 16.99,15.27 17.15,15.27 17.15,15.11 16.99,14.95 16.99,14.79 
	17.15,14.63 17.15,14.79 17.15,14.63 17.31,14.63 17.47,14.63 17.63,14.63 17.63,14.79 17.79,14.79 17.94,14.79 17.94,14.63 
	18.1,14.63 18.1,14.47 18.26,14.32 18.26,14.16 18.42,14.16 18.42,14 18.58,14 18.74,14.16 18.9,14.16 18.9,14 19.06,14 19.21,14 
	19.37,14 19.53,14 19.53,13.84 19.69,13.84 19.85,13.68 20.01,13.68 20.01,13.52 20.17,13.36 20.17,13.2 20.33,13.2 20.33,13.05 
	20.48,12.89 20.64,12.73 20.8,12.57 20.8,12.41 20.8,12.25 20.8,12.09 20.8,11.93 20.8,11.78 20.8,11.62 20.8,11.46 20.8,11.3 
	20.64,11.14 20.64,10.98 20.64,10.82 20.64,10.66 20.64,10.51 20.8,10.51 20.8,10.35 20.8,10.19 20.96,10.03 20.96,9.87 20.96,9.71 
	21.12,9.55 21.12,9.39 21.12,9.24 21.28,9.08 21.28,8.92 21.28,8.76 21.28,8.6 21.44,8.6 21.44,8.44 21.44,8.28 21.44,7.97 
	21.6,8.12 21.75,8.12 21.91,8.12 22.07,8.28 22.23,8.28 22.39,8.28 22.55,8.28 22.71,8.28 22.87,8.44 23.02,8.6 23.18,8.76 
	23.34,8.92 23.5,9.08 23.66,9.24 23.82,9.24 23.98,9.39 24.14,9.39 24.29,9.39 24.45,9.39 24.61,9.39 24.77,9.39 24.93,9.39 
	25.25,9.39 25.41,9.39 25.56,9.39 25.72,9.24 25.88,9.24 26.04,9.24 26.2,9.08 26.36,9.08 26.52,9.08 26.68,9.08 26.83,8.92 
	26.99,8.92 26.99,8.76 26.99,8.6 26.99,8.44 26.99,8.28 26.99,8.12 26.99,7.97 27.15,7.81 27.15,7.65 27.31,7.49 27.31,7.33 
	27.31,7.17 27.15,7.01 26.99,7.01 26.99,6.85 26.83,6.7 26.83,6.54 26.83,6.38 26.83,6.22 26.83,6.06 26.99,5.9 27.15,5.74 
	27.15,5.58 27.15,5.43 27.31,5.27 27.31,5.11 27.47,5.11 27.47,4.95 27.47,4.79 27.47,4.63 27.47,4.47 27.63,4.47 27.79,4.31 
	27.79,4.16 27.95,4.16 28.1,4 28.1,3.84 28.26,3.84 28.42,3.84 28.74,3.84 28.9,3.84 29.06,3.84 29.22,4 29.22,4.16 29.37,4.16 
	29.37,4.31 29.53,4.47 29.53,4.63 29.53,4.79 29.69,4.95 29.69,5.11 29.85,5.27 30.01,5.43 30.17,5.58 30.33,5.74 30.49,5.74 
	30.49,5.9 30.64,5.9 30.8,5.9 30.96,6.06 30.96,6.22 30.96,6.38 31.12,6.54 31.12,6.7 31.12,6.85 30.96,7.17 30.96,7.33 30.96,7.49 
	30.8,7.65 30.8,7.81 30.96,7.97 30.96,8.12 31.12,8.28 31.12,8.44 31.28,8.44 31.44,8.6 31.6,8.6 31.76,8.6 31.91,8.6 32.07,8.6 
	32.23,8.6 32.39,8.6 32.55,8.6 32.71,8.6 32.87,8.6 33.18,8.6 33.34,8.6 33.5,8.6 34.14,8.92 34.3,8.92 34.77,8.76 34.93,8.6 
	35.09,8.44 35.25,8.44 35.57,8.44 35.73,8.44 35.88,8.28 36.2,8.44 36.36,8.6 36.36,8.76 36.36,8.92 36.36,9.39 36.36,9.55 
	36.36,9.71 36.36,9.87 36.36,10.03 36.52,10.03 36.68,10.03 36.84,9.87 37,9.71 37.15,9.71 37.47,9.71 37.63,9.55 37.79,9.39 
	37.95,9.39 38.11,9.39 38.27,9.71 38.42,9.71 38.74,9.87 38.9,10.03 39.06,10.35 39.54,10.66 39.69,10.66 40.01,10.66 40.17,10.66 
	40.33,10.51 40.49,10.35 40.81,10.19 40.96,10.03 41.12,10.03 41.28,10.03 41.44,10.03 41.6,10.19 41.6,10.51 41.76,10.66 
	41.92,10.66 42.08,10.51 42.23,10.35 42.39,10.19 42.55,10.19 42.87,10.19 43.35,10.19 43.5,10.19 43.5,10.03 43.66,9.71 
	43.82,9.71 43.98,9.71 44.14,9.55 44.14,9.24 44.14,9.08 44.14,8.92 44.3,8.44 44.3,7.97 44.46,7.81 44.3,7.33 44.14,6.85 
	44.14,6.7 44.14,6.54 44.3,6.54 44.3,6.38 44.46,6.38 44.62,6.38 44.62,6.54 44.77,6.54 44.77,6.7 44.93,6.85 45.25,7.17 
	45.41,7.33 45.57,7.49 45.57,7.65 46.04,7.97 46.2,8.12 46.36,8.12 46.52,8.28 46.84,8.28 47,8.28 47.47,8.28 47.63,8.28 
	47.79,8.28 47.95,8.28 48.11,8.12 48.43,7.65 48.43,7.49 48.58,7.49 48.58,7.33 48.74,7.33 48.9,7.33 49.06,7.33 49.22,7.33 
	49.54,7.49 49.7,7.49 49.85,7.33 49.85,7.17 50.01,7.17 50.01,7.01 50.17,7.17 50.33,7.17 50.33,7.33 50.33,7.49 50.49,7.49 
	50.49,7.65 50.65,7.65 "/>
</svg>
