<?xml version="1.0" encoding="utf-8"?>
<!-- Generator: Adobe Illustrator 24.2.1, SVG Export Plug-In . SVG Version: 6.00 Build 0)  -->
<svg version="1.1" id="Layer_1" xmlns="http://www.w3.org/2000/svg" xmlns:xlink="http://www.w3.org/1999/xlink" x="0px" y="0px"
	 viewBox="0 0 97.23 97.23" style="enable-background:new 0 0 97.23 97.23;" xml:space="preserve">
<style type="text/css">
	.st0{fill-rule:evenodd;clip-rule:evenodd;}
</style>
<polygon class="st0" points="63.1,1.01 63.1,1.16 63.25,1.16 63.25,1.31 63.25,1.45 63.39,1.6 63.39,1.75 63.39,1.89 63.54,1.75 
	63.68,1.75 63.68,1.89 63.83,2.04 63.98,2.04 63.98,2.18 64.12,2.18 64.12,2.04 64.27,2.04 64.41,2.04 64.56,2.04 64.56,2.18 
	64.41,2.18 64.41,2.33 64.56,2.33 64.71,2.33 64.85,2.33 65,2.48 65.14,2.48 65.14,2.62 65.29,2.77 65.29,2.91 65.14,2.91 
	65.14,3.06 65.14,3.21 65.29,3.35 65.44,3.5 65.44,3.64 65.58,3.64 65.44,3.79 65.44,3.94 65.29,4.08 65.29,4.23 65.29,4.37 
	65.14,4.37 65,4.37 64.85,4.37 64.85,4.52 64.71,4.52 64.56,4.52 64.41,4.67 64.41,4.81 64.56,4.81 64.56,4.96 64.71,5.11 
	64.71,5.25 64.85,5.4 64.85,5.54 65,5.69 65,5.84 65.14,5.98 65.14,6.13 65.29,6.13 65.44,6.13 65.44,6.27 65.58,6.42 65.73,6.42 
	65.73,6.27 65.87,6.27 66.02,6.42 66.17,6.71 66.31,6.86 66.31,7 66.46,7 66.61,7.15 66.75,7.15 66.75,7.3 66.9,7.59 66.9,7.73 
	67.04,7.88 67.19,8.17 67.34,8.17 67.48,8.32 67.63,8.47 67.77,8.47 67.77,8.61 67.92,8.61 68.07,8.61 68.21,8.76 68.36,8.9 
	68.5,9.05 68.65,9.2 68.65,9.34 68.65,9.49 68.8,9.49 68.94,9.78 68.94,9.93 68.94,10.07 68.94,10.36 68.94,10.51 68.94,10.66 
	69.09,10.66 69.09,10.8 69.09,11.09 69.09,11.39 69.09,11.53 69.09,11.68 69.23,11.83 69.38,11.97 69.38,12.12 69.38,12.26 
	69.53,12.26 69.53,12.41 69.53,12.56 69.53,12.7 69.53,12.85 69.53,12.99 69.53,13.14 69.53,13.29 69.53,13.43 69.82,13.72 
	69.82,13.87 69.67,14.02 69.67,14.16 69.67,14.31 69.67,14.45 69.67,14.6 69.53,14.6 69.38,14.75 69.23,14.89 69.23,15.04 
	69.09,15.33 68.94,15.62 68.94,15.77 68.94,15.92 68.94,16.06 68.94,16.21 69.09,16.21 69.38,16.5 69.38,16.65 69.53,16.65 
	69.67,16.65 69.67,16.79 69.53,16.94 68.65,17.52 68.5,17.67 68.5,17.81 68.36,18.11 68.21,18.25 67.63,18.69 67.48,18.69 
	67.48,18.84 67.34,18.84 67.19,18.98 67.04,19.13 66.9,19.28 66.75,19.28 66.61,19.42 66.46,19.42 66.31,19.42 66.31,19.57 
	66.17,19.57 65.87,19.57 65.73,19.57 65.73,19.71 65.58,19.71 65.58,19.86 65.58,20.15 65.58,20.3 65.58,20.59 65.58,20.74 
	65.73,21.17 65.58,21.17 65.58,21.32 65.58,21.47 65.73,21.47 65.73,21.61 65.87,21.61 65.87,21.76 66.02,21.76 66.02,21.91 
	66.17,21.91 66.17,22.05 66.31,22.05 66.31,22.2 66.46,22.2 66.46,22.34 66.61,22.34 66.61,22.49 66.61,22.64 66.75,22.78 
	66.9,22.78 66.9,22.93 66.9,23.07 66.9,23.22 67.04,23.22 67.04,23.37 67.04,23.51 66.9,23.51 67.04,23.51 66.9,23.51 66.9,23.66 
	66.9,23.8 66.9,23.95 66.9,24.1 66.75,24.1 66.75,24.24 66.61,24.24 66.61,24.39 66.61,24.53 66.46,24.68 66.46,24.83 66.31,24.83 
	66.31,24.97 66.17,24.97 66.17,25.12 66.02,25.12 66.02,25.27 65.87,25.27 65.87,25.41 66.31,25.85 66.46,26.14 66.61,26.14 
	66.9,26.29 67.04,26.43 67.48,26.73 67.92,26.87 68.07,27.02 68.36,27.16 68.5,27.16 68.65,27.16 68.8,27.31 69.23,27.6 69.38,27.6 
	69.53,27.6 69.53,27.75 69.67,27.75 69.82,27.89 70.11,28.04 70.26,28.19 70.4,28.33 70.4,28.48 70.7,28.92 70.7,29.06 70.7,29.21 
	70.7,29.36 70.7,29.5 70.84,29.65 70.84,29.79 70.99,29.94 71.13,29.94 71.28,29.94 71.43,29.94 71.57,29.94 71.72,29.94 
	71.86,30.09 71.86,30.23 72.01,30.38 72.01,30.52 72.01,30.67 72.01,30.82 72.01,30.96 71.86,31.11 71.86,31.25 71.72,31.25 
	71.57,31.25 71.57,31.4 71.57,31.55 71.57,31.69 71.43,31.98 71.43,32.13 71.57,32.28 71.72,32.42 71.72,32.57 71.72,32.86 
	71.57,33.15 71.57,33.3 71.57,33.45 71.86,33.59 72.01,33.59 72.01,33.74 72.01,33.88 72.01,34.03 72.01,34.18 71.86,34.18 
	71.72,34.18 71.57,34.18 71.43,34.18 71.43,34.32 71.57,34.32 71.43,34.47 71.43,34.61 71.43,34.76 71.28,34.91 71.13,34.91 
	70.99,34.91 70.99,35.05 71.13,35.05 71.13,35.2 71.28,35.2 71.28,35.34 71.13,35.49 71.13,35.64 71.28,35.64 71.28,35.78 
	71.43,35.78 71.43,35.93 71.43,36.08 71.57,36.08 71.57,36.22 71.72,36.22 71.86,36.22 72.01,36.22 72.16,36.37 72.3,36.51 
	72.3,36.66 72.3,36.81 72.45,36.81 72.45,36.95 72.59,36.95 72.59,37.1 72.59,37.24 72.59,37.39 72.59,37.54 72.45,37.83 
	72.3,37.97 72.16,37.97 72.16,38.12 72.01,38.12 71.86,38.12 71.86,38.27 72.01,38.41 72.16,38.41 72.3,38.41 72.3,38.56 72.3,38.7 
	72.3,38.85 72.45,38.85 72.45,39 72.45,39.14 72.3,39.14 72.16,39.29 72.01,39.44 71.86,39.44 71.86,39.58 72.01,39.58 72.01,39.73 
	72.01,39.87 72.16,39.87 72.16,40.02 72.3,40.02 72.3,40.17 72.16,40.17 72.16,40.31 72.3,40.31 72.3,40.46 72.45,40.46 72.59,40.6 
	72.59,40.75 72.74,40.9 72.74,41.04 72.89,41.04 72.89,41.19 73.03,41.19 73.03,41.33 73.03,41.63 73.03,41.92 72.89,42.21 
	72.74,42.5 72.74,42.79 72.59,42.94 72.45,43.23 72.3,43.67 72.16,43.82 72.01,44.26 71.86,44.55 71.57,44.84 71.57,44.99 
	71.43,44.99 71.28,44.99 71.13,44.99 70.99,44.99 70.84,44.99 70.7,44.99 70.55,45.13 70.4,45.13 70.11,45.13 69.97,45.13 
	69.82,45.13 69.67,45.13 69.53,45.28 69.38,45.42 69.23,45.72 69.23,45.86 69.09,46.01 68.94,46.15 68.94,46.3 68.94,46.45 
	68.94,46.59 69.09,46.59 69.09,46.74 68.94,46.74 68.94,46.89 68.94,47.03 69.09,47.18 69.09,47.32 69.09,47.47 68.94,47.47 
	68.94,47.62 68.94,47.76 68.8,48.05 68.8,48.35 68.8,48.49 68.65,48.49 68.5,48.64 68.36,48.78 68.21,49.08 68.21,49.22 
	68.36,49.22 68.5,49.22 68.5,49.08 68.65,49.08 68.8,49.08 69.09,49.08 69.23,49.08 69.67,49.08 69.67,49.22 69.67,49.37 
	69.53,49.37 69.38,49.51 69.09,49.66 68.94,49.81 68.8,49.81 68.8,49.95 68.65,49.95 68.5,49.95 68.5,50.1 68.5,50.25 68.65,50.25 
	68.8,50.25 68.94,50.39 69.09,50.39 69.23,50.54 69.38,50.54 69.53,50.68 69.67,50.83 69.97,50.98 70.11,51.12 70.4,51.27 
	70.4,51.41 70.26,51.56 70.11,51.56 69.97,51.56 69.82,51.56 69.67,51.71 69.53,51.71 69.53,51.85 69.67,51.85 69.67,52 69.82,52 
	69.82,52.14 69.82,52.29 69.82,52.44 69.82,52.58 69.67,52.73 69.82,52.73 69.82,52.87 69.97,53.02 69.97,52.87 70.11,52.87 
	70.11,53.02 70.26,53.02 70.26,53.17 70.4,53.31 70.4,53.46 70.55,53.46 70.55,53.61 70.55,53.75 70.55,53.9 70.55,54.04 
	70.55,54.19 70.55,54.34 70.55,54.48 70.4,54.48 70.4,54.63 70.4,54.77 70.4,54.92 70.26,54.92 70.26,55.07 70.11,55.07 
	70.11,55.21 69.97,55.21 69.97,55.36 69.82,55.36 69.82,55.5 69.82,55.65 69.67,55.65 69.67,55.5 69.53,55.5 69.38,55.5 
	69.38,55.36 69.23,55.36 69.09,55.36 68.94,55.36 68.8,55.36 68.65,55.21 68.5,55.21 68.5,55.07 68.36,55.07 68.36,55.21 
	68.21,55.21 68.07,55.21 68.07,55.36 67.92,55.36 67.92,55.5 67.92,55.65 68.07,55.8 68.21,55.8 68.36,55.8 68.21,55.94 
	68.21,56.09 68.07,56.09 68.07,56.23 68.07,56.38 67.92,56.38 68.07,56.53 68.21,56.67 68.21,56.53 68.21,56.67 68.21,56.82 
	68.36,56.97 68.36,57.11 68.5,57.11 68.5,57.26 68.65,57.4 68.65,57.55 68.65,57.7 68.5,57.7 68.5,57.84 68.5,57.99 68.5,58.13 
	68.5,58.28 68.65,58.28 68.65,58.43 68.65,58.57 68.65,58.72 68.5,58.86 68.65,58.86 68.8,58.86 68.8,59.01 68.65,59.01 
	68.65,59.16 68.65,59.3 68.5,59.45 68.36,59.45 68.36,59.59 68.21,59.59 68.21,59.74 68.07,59.74 67.92,59.74 67.77,59.74 
	67.77,59.89 67.77,60.03 67.92,60.03 67.92,60.18 67.77,60.18 67.77,60.32 67.92,60.32 67.77,60.47 67.77,60.62 67.77,60.76 
	67.77,60.91 67.77,61.06 67.77,61.2 67.77,61.35 67.77,61.49 67.92,61.49 68.07,61.49 68.07,61.64 68.07,61.79 67.92,61.79 
	67.92,61.93 67.77,61.93 67.77,62.08 67.92,62.08 67.92,62.22 67.77,62.22 67.77,62.37 67.77,62.52 67.77,62.66 67.77,62.81 
	67.63,62.81 67.77,62.81 67.92,62.81 68.07,62.95 68.21,62.95 68.21,62.81 68.36,62.81 68.36,62.95 68.5,62.95 68.65,63.1 
	68.8,63.25 68.8,63.39 68.8,63.54 68.94,63.54 69.09,63.54 69.23,63.54 69.23,63.68 69.38,63.68 69.38,63.54 69.53,63.54 
	69.67,63.39 69.67,63.25 69.82,63.25 69.82,63.1 69.97,63.1 70.11,63.1 70.11,62.95 70.26,62.95 70.26,62.81 70.4,62.81 
	70.55,62.66 70.7,62.66 70.7,62.81 70.7,62.95 70.84,63.1 70.84,62.95 70.99,62.95 70.99,63.1 71.13,63.1 71.13,62.95 71.28,62.95 
	71.43,62.95 71.43,63.1 71.43,63.25 71.43,63.39 71.43,63.54 71.57,63.54 71.57,63.68 71.57,63.83 71.57,63.98 71.57,64.12 
	71.57,64.27 71.57,64.42 71.72,64.42 71.72,64.56 71.72,64.71 71.86,64.71 71.86,64.85 72.01,64.85 72.01,64.71 72.01,64.85 
	72.16,64.85 72.3,64.85 72.45,64.85 72.45,65 72.45,65.15 72.45,65.29 72.45,65.44 72.45,65.58 72.3,65.58 72.45,65.58 72.45,65.73 
	72.45,65.88 72.3,65.88 72.45,65.88 72.45,66.02 72.59,66.02 72.74,66.17 72.89,66.17 72.89,66.31 73.03,66.46 73.03,66.61 
	73.18,66.61 73.18,66.75 73.33,66.75 73.18,66.75 73.18,66.9 73.33,66.9 73.47,66.9 73.47,67.04 73.62,67.04 73.62,67.19 
	73.76,67.19 73.76,67.34 73.91,67.34 73.91,67.48 74.06,67.48 74.2,67.48 74.35,67.48 74.35,67.63 74.49,67.63 74.49,67.78 
	74.64,67.78 74.79,67.92 74.79,67.78 74.93,67.78 74.93,67.92 75.08,67.92 75.22,67.92 75.22,67.78 75.37,67.78 75.37,67.92 
	75.22,67.92 75.22,68.07 75.37,68.07 75.37,68.21 75.37,68.36 75.37,68.51 75.52,68.65 75.52,68.8 75.66,68.8 75.66,68.65 
	75.81,68.65 75.81,68.8 75.95,68.8 76.1,68.8 76.25,68.94 76.39,68.94 76.54,68.94 76.54,68.8 76.69,68.8 76.69,68.65 76.83,68.65 
	76.98,68.65 77.12,68.65 76.98,68.8 77.12,68.8 77.27,68.8 77.27,68.94 77.12,68.94 77.27,68.94 77.42,68.94 77.56,68.94 
	77.56,69.09 77.42,69.09 77.42,69.24 77.56,69.24 77.56,69.38 77.56,69.24 77.71,69.24 77.71,69.38 77.71,69.53 77.85,69.53 
	78,69.53 78,69.38 78,69.53 78,69.67 78.15,69.67 78.15,69.82 78.29,69.82 78.29,69.67 78.29,69.53 78.44,69.53 78.58,69.53 
	78.58,69.67 78.58,69.82 78.44,69.82 78.58,69.82 78.44,69.97 78.44,70.11 78.29,70.11 78.29,70.26 78.44,70.26 78.58,70.26 
	78.73,70.26 78.73,70.4 78.88,70.26 78.88,70.4 79.02,70.4 79.17,70.4 79.17,70.55 79.02,70.55 79.17,70.55 79.02,70.55 79.02,70.7 
	79.17,70.7 79.31,70.7 79.31,70.55 79.31,70.4 79.46,70.4 79.61,70.26 79.75,70.26 79.75,70.4 79.75,70.55 79.75,70.7 79.75,70.84 
	79.9,70.84 79.9,70.99 79.9,71.14 80.05,71.14 80.19,71.14 80.34,71.14 80.34,71.28 80.34,71.43 80.19,71.43 80.19,71.57 
	80.19,71.72 80.19,71.87 80.34,71.87 80.48,71.87 80.48,71.72 80.63,71.87 80.78,71.87 80.78,71.72 80.78,71.87 80.92,71.87 
	80.92,72.01 80.78,72.16 80.63,72.16 80.48,72.16 80.48,72.01 80.34,72.16 80.19,72.01 80.19,72.16 80.05,72.16 80.05,72.3 
	80.19,72.3 80.19,72.45 80.34,72.45 80.48,72.45 80.63,72.45 80.63,72.6 80.63,72.74 80.78,72.89 80.78,73.03 80.78,73.18 
	80.78,73.91 80.92,74.2 80.92,74.35 80.92,74.5 80.92,74.64 81.07,74.64 80.92,74.79 80.78,74.79 80.92,74.79 80.92,74.93 
	81.07,74.93 81.07,75.08 81.21,75.23 81.07,75.23 80.92,75.23 80.92,75.08 80.92,75.23 80.78,75.23 80.92,75.23 80.92,75.37 
	80.92,75.52 80.78,75.52 80.78,75.66 80.92,75.66 80.92,75.81 80.78,75.81 80.78,75.96 80.78,76.1 80.92,76.1 80.92,76.25 
	81.07,76.25 81.07,76.39 81.21,76.54 81.07,76.54 81.07,76.69 81.07,76.83 80.92,76.83 80.78,76.83 80.63,76.83 80.48,76.83 
	80.34,76.83 80.34,76.98 80.34,77.12 80.34,77.27 80.19,77.27 80.19,77.42 80.19,77.56 80.05,77.56 80.19,77.56 80.19,77.71 
	80.19,77.86 80.19,78 80.19,78.15 80.19,78.29 80.19,78.15 80.05,78.15 80.05,78.29 80.05,78.44 79.9,78.44 79.9,78.59 79.75,78.59 
	79.75,78.44 79.61,78.44 79.61,78.29 79.46,78.29 79.46,78.44 79.31,78.59 79.46,78.59 79.61,78.59 79.61,78.73 79.46,78.73 
	79.31,78.73 79.31,78.88 79.17,78.88 79.17,79.02 79.02,79.02 79.02,79.17 79.02,79.02 79.02,79.17 78.88,79.02 78.88,79.17 
	78.73,79.17 78.73,79.02 78.73,79.17 78.58,79.17 78.58,79.02 78.58,78.88 78.44,78.88 78.44,78.73 78.29,78.73 78.29,78.88 
	78.15,78.88 78.15,79.02 78,79.02 78,79.17 77.85,79.17 77.85,79.32 77.71,79.32 77.56,79.32 77.56,79.46 77.42,79.46 77.27,79.46 
	77.12,79.46 76.98,79.46 76.98,79.32 76.98,79.17 76.83,79.17 76.83,79.32 76.69,79.17 76.69,79.32 76.54,79.17 76.39,79.17 
	76.39,79.02 76.25,79.02 76.1,78.88 76.1,79.02 76.1,78.88 75.95,78.88 75.81,78.88 75.81,78.73 75.66,78.73 75.52,78.73 
	75.37,78.73 75.22,78.73 75.08,78.88 74.79,78.88 74.64,78.88 74.49,78.88 74.35,78.88 74.2,78.88 74.06,78.88 73.91,78.88 
	73.62,78.88 73.47,78.88 73.33,78.88 73.18,78.88 73.03,79.02 72.89,79.02 72.74,79.17 72.74,79.32 72.74,79.46 72.74,79.75 
	72.74,80.05 72.74,80.19 72.74,80.34 72.74,80.48 72.74,80.63 72.74,80.78 72.59,80.78 72.74,80.92 72.74,81.07 72.89,81.07 
	73.03,80.92 73.18,80.92 73.18,80.78 73.33,80.78 73.33,80.92 73.47,80.92 73.33,81.07 73.47,81.22 73.62,81.22 73.76,81.22 
	73.76,81.36 73.76,81.51 73.76,81.65 73.76,81.8 73.62,81.95 73.47,82.38 73.33,82.38 73.33,82.53 73.18,82.68 73.18,82.82 
	73.03,82.82 72.89,82.82 72.89,82.68 72.89,82.53 72.89,82.38 73.03,82.38 72.89,82.38 72.74,82.38 72.59,82.38 72.45,82.38 
	72.3,82.38 72.16,82.38 72.01,82.24 71.86,82.24 71.86,82.09 72.01,82.09 72.16,82.09 72.3,82.09 72.3,81.95 72.16,81.8 72.3,81.8 
	72.3,81.65 72.16,81.65 72.16,81.51 72.16,81.36 72.01,81.36 71.86,81.36 71.72,81.22 71.72,81.07 71.57,81.07 71.43,81.07 
	71.28,81.07 71.13,80.92 71.13,81.07 70.99,81.07 70.84,81.07 70.84,81.22 70.7,81.07 70.7,81.22 70.55,81.22 70.4,81.22 
	70.4,81.36 70.26,81.36 70.11,81.36 70.11,81.51 69.97,81.51 69.82,81.51 69.67,81.51 69.53,81.51 69.38,81.51 69.23,81.51 
	68.94,81.36 68.8,81.22 68.36,81.22 68.21,81.07 68.07,80.92 67.92,80.92 67.77,80.92 67.63,80.92 67.48,81.07 67.48,81.22 
	67.34,81.22 67.34,81.36 67.34,81.51 67.19,81.65 67.19,81.8 67.19,81.95 67.34,82.24 67.34,82.53 67.34,82.68 67.48,83.26 
	67.48,83.41 67.48,83.55 67.48,83.7 67.48,83.84 67.48,83.99 67.48,84.14 67.48,84.28 67.34,84.43 67.34,84.58 67.19,84.58 
	67.04,84.72 66.9,85.01 66.75,85.01 66.61,85.16 66.46,85.31 66.17,85.45 65.87,85.6 65.87,85.74 65.73,85.74 65.58,85.89 
	65.44,86.04 65.29,86.04 65.14,86.04 65.14,86.18 64.85,86.18 64.85,86.33 64.85,86.47 64.85,86.62 64.85,86.91 65,87.06 
	65.14,87.35 65.29,87.64 65.44,87.93 65.58,88.08 65.58,88.23 65.58,88.37 65.58,88.52 65.73,88.52 65.73,88.67 65.58,88.67 
	65.58,88.81 65.73,88.81 65.73,88.96 65.73,89.1 65.73,89.25 65.87,89.25 65.87,89.4 65.73,89.4 65.73,89.54 65.87,89.54 
	65.87,89.69 65.73,89.69 65.73,89.83 65.58,89.83 65.44,89.83 65.29,89.83 65.14,89.83 65.14,89.98 65,89.83 64.85,89.83 
	64.71,89.83 64.56,89.83 64.56,89.98 64.41,89.98 64.41,89.83 64.27,89.83 64.12,89.83 63.98,89.83 63.98,89.98 63.83,89.83 
	63.68,89.83 63.54,89.98 63.39,89.98 63.25,89.98 63.25,89.83 63.1,89.83 63.1,89.69 63.1,89.54 62.95,89.54 62.81,89.54 
	62.66,89.54 62.37,89.4 62.22,89.54 62.08,89.54 61.93,89.54 61.78,89.54 61.64,89.69 61.49,89.69 61.49,89.98 61.49,90.13 
	61.35,90.13 61.2,90.27 61.2,90.42 61.2,90.56 61.2,90.71 61.05,90.71 61.05,90.86 61.05,91 60.91,91 60.91,91.15 60.91,91.29 
	60.91,91.44 60.62,91.73 60.62,91.88 60.47,91.88 60.32,92.03 60.18,92.17 60.03,92.32 59.89,92.61 59.89,92.76 59.74,92.76 
	59.74,92.9 59.59,92.9 59.59,93.05 59.59,93.19 59.59,93.34 59.59,93.49 59.45,93.49 59.45,93.63 59.45,93.78 59.45,93.92 
	59.3,94.07 59.15,94.07 59.15,93.92 59.01,93.92 58.86,94.07 58.72,94.07 58.57,94.07 58.42,94.07 58.28,93.92 58.13,93.78 
	58.13,93.63 58.13,93.49 58.13,93.34 57.99,93.34 57.84,93.34 57.69,93.34 57.69,93.49 57.55,93.49 57.4,93.49 57.26,93.49 
	57.11,93.49 56.96,93.49 56.96,93.63 56.82,93.63 56.82,93.78 56.67,93.92 56.67,94.07 56.53,94.07 56.38,94.07 56.23,94.22 
	56.09,94.36 56.09,94.51 56.09,94.65 56.23,94.65 56.38,94.8 56.38,94.95 56.53,95.09 56.53,95.24 56.53,95.39 56.53,95.53 
	56.38,95.53 56.23,95.39 56.09,95.39 56.09,95.53 55.94,95.53 55.94,95.68 55.79,95.97 55.65,96.12 55.5,96.12 55.36,96.26 
	55.21,96.26 55.21,96.41 55.06,96.41 54.92,96.55 54.77,96.55 54.63,96.55 54.48,96.55 54.33,96.55 54.33,96.41 54.19,96.41 
	54.04,96.41 53.9,96.41 53.75,96.41 53.6,96.55 53.46,96.7 53.31,96.85 53.17,96.85 53.02,96.7 52.87,96.7 52.73,96.41 52.14,96.12 
	51.56,95.82 51.27,95.53 50.54,94.8 50.24,94.65 49.95,94.36 49.81,93.92 49.81,93.49 49.66,93.19 49.95,93.05 50.24,92.76 
	50.39,92.61 50.39,92.32 50.24,92.46 50.39,92.46 50.24,92.46 50.24,92.61 50.1,92.61 50.1,92.76 49.95,92.76 49.81,92.76 
	49.81,92.9 49.66,92.9 49.51,92.9 49.51,93.05 49.37,93.05 49.37,93.19 49.22,93.19 49.22,93.34 49.07,93.34 48.93,93.34 
	48.93,93.49 48.78,93.49 48.64,93.49 48.49,93.49 48.49,93.34 48.34,93.34 48.2,93.19 48.2,93.34 48.05,93.34 48.05,93.49 
	47.91,93.49 47.91,93.63 48.05,93.63 47.91,93.78 47.91,93.92 47.76,93.92 47.76,93.78 47.61,93.78 47.47,93.78 47.47,93.92 
	47.32,93.92 47.18,93.92 47.18,93.78 47.03,93.78 47.18,93.78 47.18,93.63 47.18,93.49 47.03,93.49 47.03,93.34 47.03,93.19 
	47.03,93.05 47.03,92.9 47.18,92.9 47.18,92.76 47.03,92.76 46.88,92.76 46.88,92.61 46.88,92.76 46.74,92.76 46.59,92.76 
	46.45,92.76 46.3,92.76 46.15,92.76 46.15,92.9 46.01,92.9 46.01,92.76 46.01,92.9 45.86,92.9 45.71,92.9 45.71,93.05 45.57,92.9 
	45.57,93.05 45.42,93.05 45.42,92.9 45.42,92.76 45.28,92.76 45.13,92.76 45.13,92.61 45.13,92.46 45.13,92.32 44.98,92.32 
	44.84,92.17 44.69,92.17 44.69,92.03 44.55,92.03 44.4,91.88 44.25,91.88 44.11,91.88 44.11,91.73 43.96,91.59 43.82,91.44 
	43.67,91.44 43.52,91.44 43.38,91.29 43.38,91.44 43.23,91.59 43.08,91.73 42.94,91.73 42.79,91.59 42.65,91.59 42.65,91.44 
	42.65,91.29 42.65,91.44 42.5,91.44 42.5,91.29 42.35,91.15 42.21,91.15 42.06,91.15 42.06,91 41.92,91 41.92,90.86 41.77,90.86 
	41.92,90.71 41.77,90.71 41.77,90.56 41.62,90.56 41.62,90.71 41.48,90.56 41.33,90.56 41.19,90.56 41.04,90.56 41.04,90.42 
	41.19,90.42 41.04,90.42 41.04,90.27 40.89,90.13 40.89,90.27 40.89,90.13 40.89,89.98 40.75,89.98 40.75,89.83 40.75,89.98 
	40.75,89.83 40.6,89.83 40.6,89.69 40.46,89.69 40.46,89.54 40.31,89.54 40.31,89.4 40.31,89.25 40.16,89.25 40.16,89.1 
	40.16,88.96 40.31,89.1 40.31,88.96 40.16,88.96 40.31,88.96 40.16,88.96 40.31,88.96 40.31,88.81 40.16,88.81 40.02,88.81 
	39.87,88.81 39.87,88.67 39.87,88.81 39.72,88.67 39.87,88.67 39.72,88.67 39.72,88.52 39.72,88.37 39.72,88.23 39.72,88.08 
	39.58,88.08 39.58,87.93 39.43,87.79 39.43,87.64 39.29,87.64 39.14,87.64 38.99,87.64 38.99,87.5 38.85,87.5 38.85,87.35 
	38.85,87.2 38.85,87.06 38.85,86.91 38.85,86.77 38.7,86.62 38.56,86.47 38.56,86.33 38.56,86.18 38.41,86.18 38.26,86.18 
	38.12,86.04 37.97,85.89 37.97,85.74 37.97,85.6 37.83,85.45 37.68,85.16 37.68,85.01 37.68,84.87 37.53,84.87 37.53,84.72 
	37.39,84.72 37.39,84.58 37.24,84.58 37.39,84.58 37.39,84.43 37.53,84.28 37.68,83.84 37.68,83.41 37.68,82.97 37.53,82.53 
	37.39,82.24 37.1,82.09 36.8,81.95 36.36,81.8 35.93,81.8 35.49,81.8 35.2,81.51 35.05,81.51 34.9,81.51 34.61,81.51 34.17,81.51 
	33.44,81.51 33,81.65 32.71,81.36 32.57,81.22 32.42,81.22 32.27,81.22 32.27,81.07 32.13,80.92 32.13,80.78 32.13,80.63 
	32.13,80.48 32.13,80.34 32.13,80.19 32.13,80.05 31.98,79.9 31.98,79.75 31.98,79.61 31.84,79.61 31.69,79.46 31.54,79.46 
	31.54,79.32 31.4,79.32 31.25,79.17 31.25,79.32 31.11,79.32 30.96,79.32 30.96,79.17 30.96,79.02 30.81,78.88 30.81,78.73 
	30.81,78.59 30.67,78.59 30.67,78.44 30.52,78.29 30.52,78.15 30.38,78 30.38,77.86 30.23,77.71 30.23,77.56 30.08,77.56 
	30.08,77.42 30.08,77.56 29.94,77.56 29.79,77.56 29.79,77.71 29.64,77.71 29.5,77.71 29.35,77.71 29.35,77.86 29.21,77.86 
	29.06,77.86 29.06,78 28.91,78 28.77,78.15 28.62,78.15 28.62,78.29 28.62,78.44 28.48,78.59 28.33,78.59 28.33,78.73 28.18,78.88 
	28.18,79.02 28.33,79.02 28.33,79.17 28.18,79.17 28.18,79.32 28.18,79.46 28.18,79.61 28.18,79.75 28.04,79.75 28.04,79.9 
	27.89,80.05 27.89,80.19 27.75,80.34 27.6,80.34 27.45,80.34 27.31,80.34 27.16,80.48 27.16,80.34 27.02,80.34 27.02,80.19 
	26.87,80.05 26.58,79.9 26.58,79.75 26.43,79.75 26.28,79.75 26.14,79.75 25.99,79.9 25.85,80.05 25.7,80.05 25.55,80.05 
	25.41,80.05 25.26,80.05 25.12,80.05 24.97,80.05 24.97,79.75 25.12,79.46 25.41,79.17 25.85,78.88 26.28,78.15 26.43,77.71 
	26.28,77.42 25.85,77.12 25.7,76.69 25.7,76.54 25.41,75.96 24.82,75.66 24.24,75.66 23.8,74.35 23.8,74.06 24.24,73.76 
	24.39,73.62 24.39,73.18 24.24,72.6 23.95,72.3 23.8,72.16 23.8,71.87 23.8,71.72 23.8,71.57 23.8,71.43 23.95,71.43 24.09,71.28 
	24.24,71.28 24.24,71.14 24.09,71.14 24.09,70.99 24.09,70.84 24.24,70.84 24.24,70.7 24.39,70.7 24.53,70.55 24.53,70.26 
	24.53,69.97 24.53,69.82 24.53,69.67 24.53,69.53 24.68,69.38 24.68,69.24 24.68,69.09 24.53,69.09 24.53,68.94 24.39,68.65 
	24.24,68.51 24.24,68.36 24.09,68.36 23.95,68.36 23.95,68.21 23.8,68.21 23.8,68.36 23.66,68.36 23.66,68.21 23.51,68.21 
	23.36,68.07 23.22,68.07 23.22,67.92 22.78,67.92 22.63,67.92 22.49,67.92 22.34,67.78 22.34,67.63 22.34,67.48 22.19,67.48 
	22.19,67.34 22.19,67.19 22.19,67.04 22.19,66.9 22.19,66.75 22.34,66.61 22.19,66.46 22.19,66.31 22.19,66.17 22.34,66.17 
	22.19,66.17 22.19,66.02 22.19,65.88 22.34,65.88 22.19,65.88 22.19,65.73 22.05,65.73 22.05,65.58 22.19,65.58 22.19,65.44 
	22.05,65.44 22.05,65.29 22.05,65.15 22.05,65 21.9,64.71 21.76,64.56 21.76,64.27 21.76,64.12 21.76,63.98 21.76,63.83 21.9,63.83 
	21.9,63.68 22.05,63.68 22.05,63.54 22.05,63.39 22.19,63.39 22.19,63.54 22.19,63.39 22.19,63.25 22.19,63.1 22.34,63.1 
	22.34,62.95 22.34,62.81 22.19,62.81 22.05,62.81 21.9,62.81 21.9,62.95 21.76,62.95 21.76,62.81 21.61,62.81 21.61,62.66 
	21.61,62.52 21.46,62.52 21.32,62.52 21.32,62.37 21.46,62.37 21.32,62.37 21.32,62.22 21.17,62.22 21.17,62.08 21.03,62.08 
	21.03,61.93 20.88,61.93 20.73,61.93 20.73,61.79 20.59,61.79 20.44,61.79 20.44,61.64 20.3,61.64 20.15,61.64 20.15,61.79 
	20.15,61.93 20,61.93 20,62.08 19.86,62.08 19.71,62.08 19.71,61.93 19.56,61.93 19.42,61.93 19.27,61.93 19.27,61.79 19.13,61.79 
	19.13,61.93 18.98,61.93 18.83,61.79 18.69,61.79 18.69,61.93 18.54,61.93 18.4,61.93 18.4,61.79 18.25,61.79 18.1,61.79 
	18.1,61.93 17.96,61.93 17.81,61.93 17.81,61.79 17.67,61.79 17.67,61.64 17.52,61.64 17.37,61.64 17.37,61.49 17.23,61.49 
	17.23,61.35 17.08,61.2 17.08,61.06 17.08,60.91 16.94,60.91 16.94,60.76 16.79,60.76 16.64,60.62 16.5,60.47 16.35,60.32 
	16.35,60.18 16.35,60.03 16.35,59.89 16.35,59.74 16.35,59.59 16.35,59.45 16.35,59.3 16.35,59.16 16.35,59.01 16.35,58.86 
	16.5,58.86 16.64,58.72 16.79,58.57 16.94,58.43 17.08,58.28 17.08,58.13 16.79,57.99 16.64,57.99 16.35,57.99 16.2,57.84 
	16.06,57.84 15.91,57.7 15.77,57.55 15.77,57.4 15.91,57.4 15.91,57.26 15.91,57.11 16.06,57.11 16.06,56.97 16.06,56.82 
	16.06,56.67 16.2,56.53 16.2,56.38 16.2,56.23 16.2,56.09 16.06,55.94 16.06,55.8 16.06,55.65 16.06,55.5 16.06,55.36 15.91,55.36 
	15.91,55.21 15.77,55.07 15.77,54.92 15.77,54.77 15.77,54.63 15.62,54.48 15.62,54.34 15.62,54.19 15.62,54.04 15.47,53.9 
	15.47,53.75 15.62,53.75 15.77,53.61 15.77,53.46 15.91,53.31 15.77,53.31 15.77,53.17 15.77,53.02 15.91,53.02 15.91,52.87 
	15.91,52.73 15.91,52.58 15.91,52.29 16.06,52.14 16.06,52 16.2,52 16.35,52 16.35,51.85 16.2,51.85 16.2,51.71 16.06,51.56 
	15.91,51.41 15.77,51.41 15.77,51.27 15.77,51.12 15.91,50.98 16.06,50.98 16.2,50.68 16.2,50.54 16.2,50.39 16.2,50.25 16.2,50.1 
	16.2,49.95 16.2,49.81 16.2,49.66 16.2,49.51 16.35,49.37 16.35,49.22 16.35,49.08 16.35,48.93 16.35,48.64 16.35,48.49 16.2,48.35 
	16.2,48.2 16.2,48.05 16.06,47.91 16.2,47.76 16.2,47.62 16.06,47.47 16.06,47.32 16.06,47.18 15.91,47.18 15.91,47.03 16.06,46.89 
	16.2,46.89 16.35,46.89 16.35,47.03 16.5,47.03 16.5,47.18 16.64,47.18 16.79,47.03 16.79,47.18 16.94,47.18 17.08,47.18 
	17.08,47.32 17.23,47.32 17.23,47.18 17.37,47.18 17.52,47.18 17.67,47.18 17.81,47.18 17.96,47.18 17.96,47.47 17.96,47.62 
	18.1,47.62 18.1,47.76 18.25,47.76 18.25,47.91 18.4,47.91 18.4,48.05 18.54,48.2 18.69,48.2 18.83,48.2 18.98,48.35 19.13,48.49 
	19.27,48.64 19.42,48.78 19.42,48.93 19.56,49.08 19.56,49.22 19.56,49.37 19.56,49.51 19.56,49.66 19.71,49.81 19.86,49.95 
	20,49.95 20.15,50.1 20.15,50.25 20.3,50.39 20.3,50.54 20.3,50.68 20.3,50.83 20.3,50.98 20.3,51.12 20.44,51.41 20.44,51.56 
	20.59,51.71 20.59,51.85 20.73,51.85 20.73,52 20.88,52 21.03,52 21.32,52.14 21.46,52.14 21.9,52.29 22.05,52.29 22.19,52.29 
	22.34,52.29 22.49,52.14 22.49,52 22.49,51.85 22.63,51.85 22.63,51.71 22.63,51.56 22.63,51.41 22.63,51.27 22.78,51.27 
	22.78,51.12 22.92,51.12 23.07,51.12 23.22,51.27 23.36,51.27 23.8,51.27 23.95,51.27 24.09,51.27 24.24,51.27 24.39,51.27 
	24.53,51.27 24.53,51.12 24.39,50.98 24.39,50.68 24.24,50.68 24.39,50.68 24.53,50.68 24.68,50.68 24.68,50.54 24.82,50.54 
	24.82,50.39 24.97,50.39 24.97,50.25 25.12,50.25 25.12,50.1 25.26,50.1 25.41,50.1 25.41,50.25 25.55,50.25 25.7,50.39 
	25.85,50.39 25.99,50.39 25.99,50.25 25.99,50.1 26.14,49.95 26.14,49.81 26.14,49.66 26.28,49.66 26.28,49.51 26.28,49.37 
	26.43,49.22 26.43,49.08 26.28,48.93 26.28,48.78 26.28,48.64 26.14,48.49 26.28,48.35 26.43,48.35 26.58,48.49 26.72,48.49 
	26.87,48.49 27.02,48.49 27.16,48.49 27.16,48.35 27.31,48.35 27.31,48.2 27.31,48.05 27.31,47.76 27.31,47.62 27.31,47.47 
	27.31,47.32 27.31,47.18 27.31,47.03 27.16,47.03 27.16,46.89 27.16,46.74 27.16,46.59 27.16,46.45 27.16,46.3 27.02,46.3 
	27.16,46.15 27.02,46.01 27.02,45.86 27.02,45.72 27.02,45.57 27.02,45.42 27.02,45.28 27.02,45.13 27.02,44.99 27.02,44.84 
	27.02,44.69 27.02,44.55 27.16,44.55 27.16,44.4 27.31,44.26 27.31,44.11 27.31,43.96 27.45,43.96 27.45,43.82 27.31,43.82 
	27.31,43.67 27.31,43.53 27.31,43.38 27.45,43.38 27.6,43.53 27.75,43.53 27.89,43.38 27.89,43.23 28.04,43.09 28.18,42.94 
	28.33,42.94 28.33,42.79 28.48,42.65 28.62,42.5 28.77,42.5 28.77,42.36 28.91,42.21 29.06,42.21 29.06,42.06 29.06,41.92 
	29.21,41.92 29.21,41.77 29.06,41.77 29.06,41.63 29.06,41.48 29.06,41.33 29.06,41.19 29.06,41.04 29.06,40.9 29.06,40.75 
	28.91,40.75 28.91,40.6 28.91,40.46 28.77,40.46 28.77,40.31 28.77,40.17 28.77,40.02 28.77,39.73 28.77,39.58 28.62,39.58 
	28.62,39.44 28.48,39.44 28.62,39.44 28.62,39.29 28.62,39.14 28.62,39 28.62,38.85 28.62,38.7 28.48,38.7 28.48,38.56 28.33,38.41 
	28.18,38.41 28.04,38.41 27.89,38.41 27.75,38.41 27.6,38.41 27.45,38.41 27.45,38.56 27.31,38.56 27.31,38.41 27.31,38.27 
	27.31,38.12 27.16,38.12 27.02,37.97 26.87,37.83 26.72,37.83 26.72,37.68 26.72,37.54 26.58,37.54 26.58,37.39 26.43,37.39 
	26.43,37.24 26.43,37.1 26.28,36.95 26.28,36.81 26.14,36.81 26.14,36.66 25.99,36.66 25.85,36.66 25.7,36.66 25.55,36.66 
	25.41,36.51 25.26,36.51 25.12,36.22 25.12,36.08 25.12,35.93 25.26,35.78 25.12,35.64 25.12,35.49 25.12,35.34 25.12,35.2 
	24.97,35.2 24.97,35.05 25.12,35.05 25.12,34.91 25.12,34.76 25.26,34.76 25.26,34.61 25.26,34.32 25.41,34.32 25.41,34.18 
	25.55,34.18 25.7,34.18 25.85,34.18 25.99,34.18 25.99,34.03 25.99,33.88 26.14,33.88 26.14,33.74 26.14,33.59 26.14,33.45 
	26.14,33.3 26.14,33.15 26.14,33.01 26.28,33.01 26.28,32.86 26.14,32.86 25.99,32.86 25.85,32.86 25.85,33.01 25.7,33.01 
	25.55,33.01 25.55,32.86 25.41,32.86 25.41,32.72 25.26,32.72 25.26,32.57 25.12,32.42 24.97,32.28 24.82,32.28 24.68,32.13 
	24.53,32.28 24.39,32.13 24.39,31.98 24.24,31.98 24.24,31.84 24.24,31.69 24.09,31.69 23.95,31.69 23.95,31.55 23.95,31.4 
	24.09,31.4 24.09,31.25 24.24,31.11 24.24,30.96 24.09,30.82 23.95,30.82 23.8,30.67 23.66,30.52 23.66,30.38 23.51,30.23 
	23.36,30.09 23.36,29.94 23.22,29.94 23.22,29.79 23.22,29.65 23.36,29.65 23.36,29.5 23.36,29.36 23.36,29.21 23.51,29.21 
	23.51,29.06 23.66,29.06 23.8,29.06 23.95,29.06 24.09,29.06 24.09,28.92 24.09,28.77 24.24,28.62 24.24,28.48 24.39,28.48 
	24.39,28.33 24.24,28.19 24.24,28.04 24.24,27.89 24.24,27.75 24.39,27.6 24.39,27.46 24.53,27.31 24.53,27.16 24.39,27.16 
	24.39,27.02 24.24,26.87 24.24,26.73 24.39,26.73 24.24,26.58 24.39,26.43 24.39,26.29 24.39,26.14 24.53,26.14 24.53,26 
	24.53,25.85 24.53,25.7 24.68,25.56 24.82,25.56 24.97,25.56 25.12,25.56 25.26,25.56 25.41,25.41 25.55,25.27 25.7,25.27 
	25.7,25.12 25.85,25.12 25.85,24.97 25.99,24.97 25.99,24.83 25.99,24.68 25.85,24.53 25.85,24.39 25.7,24.24 25.7,24.1 25.55,24.1 
	25.55,23.95 25.41,23.95 25.41,23.8 25.41,23.66 25.41,23.51 25.41,23.37 25.26,23.22 25.26,23.07 25.26,22.93 25.26,22.78 
	25.41,22.78 25.41,22.64 25.41,22.49 25.55,22.34 25.55,22.2 25.7,22.05 25.7,21.91 25.55,21.91 25.55,21.76 25.41,21.76 
	25.26,21.76 25.26,21.61 25.26,21.47 25.12,21.47 24.97,21.47 24.82,21.47 24.68,21.47 24.53,21.47 24.39,21.47 24.24,21.47 
	24.24,21.32 24.09,21.32 23.95,21.32 23.95,21.17 23.8,21.03 23.8,20.88 23.95,20.88 23.95,20.74 24.09,20.74 24.09,20.59 
	23.95,20.59 23.95,20.44 23.95,20.3 24.09,20.15 24.09,20.01 24.24,20.01 24.39,19.86 24.39,19.71 24.39,19.57 24.53,19.57 
	24.53,19.42 24.39,19.28 24.24,19.13 24.24,18.98 24.24,18.84 24.39,18.84 24.39,18.69 24.53,18.69 24.53,18.55 24.53,18.4 
	24.53,18.25 24.68,18.25 24.68,18.11 24.82,18.11 24.82,17.96 24.97,17.96 25.26,17.96 25.41,17.96 25.55,17.96 25.7,17.96 
	25.99,17.96 26.14,17.96 26.14,18.11 26.28,18.25 26.28,18.4 26.28,18.55 26.43,18.55 26.43,18.69 26.58,18.69 26.58,18.84 
	26.72,18.84 26.87,18.84 26.87,18.98 27.02,18.98 27.16,18.98 27.16,18.84 27.02,18.69 27.02,18.55 27.02,18.4 27.16,18.4 
	27.02,18.25 27.16,18.25 27.16,18.11 27.16,17.96 27.02,17.96 27.02,17.81 26.87,17.81 26.87,17.67 26.87,17.52 26.87,17.38 
	26.72,17.38 26.72,17.23 26.58,17.23 26.58,17.08 26.58,16.94 26.58,16.79 26.58,16.65 26.72,16.5 26.72,16.35 26.87,16.21 
	26.72,16.06 26.72,15.92 26.72,15.77 26.72,15.62 26.72,15.48 26.72,15.33 26.58,15.33 26.58,15.19 26.58,15.04 26.72,14.89 
	26.72,14.75 26.72,14.6 26.87,14.45 26.87,14.31 26.87,14.16 27.02,14.16 27.16,14.16 27.31,14.02 27.45,14.02 27.45,13.87 
	27.6,13.87 27.75,13.72 27.89,13.72 27.89,13.58 28.04,13.58 28.18,13.58 28.18,13.43 28.33,13.29 28.48,13.14 28.48,12.99 
	28.48,12.85 28.62,12.7 28.62,12.56 28.77,12.56 28.77,12.41 28.91,12.41 28.91,12.26 28.91,12.12 28.91,11.97 28.91,11.83 
	28.77,11.83 28.77,11.68 28.62,11.53 28.62,11.39 28.62,11.24 28.48,11.24 28.48,11.09 28.48,10.95 28.62,10.8 28.62,10.66 
	28.77,10.66 28.77,10.51 28.91,10.51 28.91,10.36 28.91,10.22 28.77,10.07 28.77,9.93 28.77,9.78 28.77,9.63 28.77,9.49 28.77,9.34 
	28.77,9.2 28.77,9.05 28.77,8.9 28.77,8.76 28.91,8.76 28.91,8.61 28.91,8.47 29.06,8.32 29.06,8.17 29.06,8.03 28.91,8.03 
	28.91,7.88 28.91,7.73 28.77,7.73 28.77,7.59 28.77,7.44 28.77,7.3 28.62,7.15 28.62,7 28.77,6.86 28.77,6.71 28.91,6.71 
	29.06,6.71 29.06,6.57 29.21,6.57 29.35,6.42 29.5,6.27 29.5,6.13 29.5,5.84 29.64,5.69 29.64,5.54 29.79,5.54 29.79,5.4 
	29.94,5.25 30.08,5.11 30.23,4.96 30.23,4.81 30.67,4.23 30.67,4.08 30.67,3.94 30.81,3.94 30.96,3.94 30.96,3.79 30.96,3.64 
	31.11,3.64 31.25,3.64 31.25,3.5 31.4,3.5 31.54,3.35 31.69,3.35 31.69,3.21 31.84,3.35 31.98,3.35 32.13,3.21 32.13,3.06 
	32.13,2.91 32.13,2.77 32.13,2.62 32.27,2.48 32.27,2.33 32.27,2.18 32.27,2.04 32.42,2.04 32.57,1.89 32.71,1.89 32.86,1.89 
	33.15,1.75 33.3,1.6 33.44,1.6 33.59,1.6 33.74,1.6 33.88,1.45 34.03,1.45 34.03,1.31 34.17,1.31 34.17,1.16 34.32,1.01 34.32,0.87 
	34.47,0.87 34.61,0.72 34.9,0.72 35.05,0.58 35.2,0.58 35.34,0.43 35.49,0.43 35.63,0.43 35.78,0.43 35.78,0.58 35.93,0.58 
	35.93,0.72 36.07,0.72 36.22,0.72 36.36,0.72 36.51,0.58 36.66,0.43 36.8,0.43 36.95,0.43 37.1,0.43 37.24,0.43 37.39,0.43 
	37.53,0.43 37.68,0.43 37.68,0.28 37.83,0.28 37.97,0.28 38.12,0.14 38.26,0.14 38.41,0.14 38.41,-0.01 38.56,-0.01 38.7,-0.01 
	38.85,-0.01 38.85,-0.15 38.99,-0.15 38.99,-0.01 39.14,-0.01 39.29,-0.01 39.43,-0.01 39.43,0.14 39.58,0.28 39.72,0.28 
	39.87,0.43 40.02,0.43 40.02,0.28 40.16,0.28 40.16,0.14 40.31,0.14 40.31,0.28 40.46,0.28 40.6,0.28 40.6,0.43 40.75,0.58 
	40.89,0.58 41.04,0.58 41.04,0.72 41.04,0.58 41.19,0.58 41.19,0.43 41.33,0.43 41.33,0.58 41.48,0.72 41.48,0.87 41.62,0.87 
	41.77,1.01 41.92,1.01 41.92,1.16 41.92,1.31 42.06,1.31 42.21,1.31 42.35,1.31 42.35,1.45 42.5,1.6 42.65,1.75 42.79,1.75 
	42.79,1.89 42.94,1.89 43.08,2.04 43.23,2.04 43.38,2.04 43.52,2.04 43.67,1.89 43.82,1.89 44.11,1.89 44.25,1.75 44.4,1.75 
	44.55,1.75 44.55,1.6 44.69,1.6 44.69,1.75 44.84,1.89 44.84,2.18 44.98,2.33 44.98,2.48 45.13,2.48 45.13,2.62 45.28,2.77 
	45.42,2.77 45.42,2.91 45.57,2.91 45.71,3.06 45.86,3.35 46.01,3.5 46.01,3.64 46.01,3.79 46.01,3.94 45.86,3.94 45.86,4.08 
	46.01,4.08 46.01,4.23 46.15,4.23 46.3,4.37 46.45,4.37 46.45,4.52 46.59,4.67 46.45,4.67 46.45,4.81 46.45,4.96 46.45,5.11 
	46.45,5.25 46.59,5.4 46.59,5.54 46.74,5.54 46.74,5.69 46.74,5.84 46.74,5.98 46.88,5.98 47.03,5.98 47.18,5.98 47.18,6.13 
	47.32,6.13 47.47,6.27 47.61,6.27 47.61,6.42 47.76,6.42 47.76,6.57 47.91,6.57 48.05,6.57 48.05,6.71 47.91,6.71 47.91,6.86 
	48.05,7 48.05,7.15 48.2,7.15 48.34,7.15 48.49,7.3 48.49,7.44 48.49,7.59 48.64,7.59 48.64,7.44 48.78,7.44 48.93,7.44 48.93,7.59 
	49.07,7.59 49.07,7.73 49.07,7.88 49.22,7.88 49.22,8.03 49.22,8.17 49.22,8.32 49.37,8.32 49.51,8.32 49.66,8.32 49.66,8.17 
	49.81,8.17 49.95,8.17 50.1,8.17 50.1,8.03 49.95,8.03 50.1,7.88 50.24,7.88 50.39,7.73 50.54,7.73 50.54,7.59 50.68,7.44 
	50.83,7.44 50.83,7.3 50.83,7.15 50.97,7 51.12,7.15 51.27,7.15 51.27,7 51.41,7 51.41,6.86 51.56,6.86 51.56,6.71 51.56,6.57 
	51.56,6.42 51.56,6.27 51.7,6.27 51.7,6.13 51.85,6.13 51.85,5.98 51.7,5.98 51.56,5.98 51.41,5.98 51.41,5.84 51.27,5.84 
	51.27,5.69 51.41,5.69 51.56,5.69 51.7,5.69 51.7,5.54 51.7,5.4 51.85,5.4 52,5.4 52.14,5.25 52.14,5.11 52.14,4.96 52.14,4.81 
	52.29,4.96 52.29,5.11 52.43,5.11 52.43,4.96 52.43,4.81 52.58,4.81 52.58,4.67 52.73,4.67 52.73,4.52 52.73,4.37 52.73,4.23 
	52.73,4.08 52.87,4.08 53.02,4.08 53.02,3.94 53.02,3.79 53.17,3.64 53.31,3.64 53.46,3.64 53.46,3.5 53.46,3.35 53.31,3.35 
	53.17,3.35 53.02,3.35 53.02,3.21 53.17,3.21 53.31,3.21 53.31,3.06 53.31,2.91 53.46,2.77 53.46,2.62 53.6,2.62 53.75,2.62 
	53.9,2.62 53.9,2.48 54.04,2.48 54.19,2.48 54.19,2.33 54.33,2.33 54.33,2.18 54.48,2.18 54.48,2.33 54.48,2.48 54.63,2.48 
	54.63,2.33 54.77,2.18 54.77,2.33 54.92,2.33 55.06,2.33 55.06,2.18 55.21,2.04 55.36,2.04 55.5,2.04 55.5,1.89 55.5,1.75 
	55.65,1.75 55.65,1.6 55.79,1.45 55.94,1.45 56.09,1.45 56.23,1.45 56.23,1.31 56.38,1.31 56.38,1.45 56.53,1.45 56.67,1.45 
	56.67,1.31 56.82,1.45 56.96,1.45 57.11,1.45 57.26,1.45 57.26,1.6 57.4,1.6 57.55,1.45 57.69,1.6 57.84,1.45 57.99,1.45 58.13,1.6 
	58.13,1.75 58.13,1.89 58.28,1.89 58.42,1.89 58.42,1.75 58.42,1.6 58.57,1.6 58.57,1.75 58.72,1.75 58.86,1.75 58.86,1.6 
	59.01,1.6 59.01,1.45 59.15,1.45 59.3,1.45 59.45,1.45 59.45,1.6 59.45,1.75 59.59,1.75 59.74,1.75 59.74,1.6 59.89,1.6 59.89,1.45 
	60.03,1.45 60.03,1.6 60.03,1.75 60.18,1.75 60.32,1.6 60.47,1.6 60.62,1.6 60.76,1.45 60.91,1.45 60.91,1.31 60.91,1.16 
	61.05,1.16 61.05,1.31 61.05,1.45 61.2,1.45 61.2,1.31 61.35,1.31 61.35,1.45 61.49,1.45 61.64,1.45 61.49,1.45 61.49,1.31 
	61.64,1.31 61.64,1.16 61.78,1.16 61.78,1.31 61.78,1.45 61.93,1.45 61.93,1.31 62.08,1.31 62.08,1.16 62.08,1.01 62.22,1.01 
	62.37,1.01 62.37,1.16 62.37,1.01 62.51,1.01 62.66,1.16 62.66,1.31 62.81,1.31 62.81,1.16 62.95,1.16 62.95,1.01 "/>
</svg>
