<?xml version="1.0" encoding="utf-8"?>
<!-- Generator: Adobe Illustrator 24.2.1, SVG Export Plug-In . SVG Version: 6.00 Build 0)  -->
<svg version="1.1" id="Layer_1" xmlns="http://www.w3.org/2000/svg" xmlns:xlink="http://www.w3.org/1999/xlink" x="0px" y="0px"
	 viewBox="0 0 97.2 97.2" style="enable-background:new 0 0 97.2 97.2;" xml:space="preserve">
<style type="text/css">
	.st0{fill-rule:evenodd;clip-rule:evenodd;}
</style>
<polygon class="st0" points="42,9.7 41.8,9.7 41.8,9.9 42,9.9 42,10 42.2,10 42,10.2 42.2,10.4 42.2,10.5 42.2,10.7 42.2,10.8 
	42.3,10.8 42.3,11.2 42.5,11.2 42.5,11.3 42.3,11.3 42.5,11.3 42.7,11.3 42.7,11.2 42.8,11.2 43,11.2 43.1,11.2 43.3,11.2 
	43.5,11.2 43.6,11.2 43.8,11.2 44,11.2 44.1,11.2 44.3,11.2 44.5,11.3 44.6,11.5 44.8,11.5 44.9,11.5 45.1,11.5 45.3,11.5 
	45.4,11.3 45.6,11.3 45.8,11.3 45.9,11.3 46.2,11.2 46.4,11.2 46.4,11.3 46.6,11.3 46.6,11.5 46.7,11.7 46.7,11.8 46.9,12 47.1,12 
	47.1,12.2 47.2,12.2 47.4,12.2 47.4,12.3 47.6,12.3 47.7,12.2 47.9,12.2 48,12.2 48,12.3 48.2,12.5 48.4,12.6 48.5,12.6 48.9,12.8 
	49,12.8 49,13 49.2,13 49.3,13 49.5,13 49.7,13 49.7,13.1 49.8,13.1 50,13.1 50.2,13.1 50.3,13.1 50.5,13.1 50.7,13.1 50.7,13.3 
	50.8,13.3 51,13.3 51,13.5 51.3,13.5 52,13.6 52.3,13.6 53.1,13.6 53.6,13.5 54.2,13.3 54.6,13.3 54.7,13.5 55.2,13.8 55.7,14.1 
	55.9,14.1 56,14.3 56.2,14.3 56.4,14.8 56.5,15.3 56.5,15.4 56.5,15.6 56.7,15.6 56.9,15.6 57,15.7 57.2,15.7 57.3,15.9 57.5,15.9 
	57.7,15.9 57.8,15.9 58,15.9 58.2,15.7 58.3,15.7 58.7,15.7 58.7,15.6 58.8,15.6 59,15.6 59.1,15.7 59.3,15.7 59.5,15.7 59.6,15.7 
	60,15.9 60.1,15.9 60.3,16.1 60.5,16.1 60.6,16.1 60.8,16.1 60.9,16.1 61.1,16.2 61.3,16.2 61.4,16.2 61.6,16.2 61.8,16.2 
	61.9,16.2 61.9,16.4 62.1,16.4 62.2,16.4 62.2,16.2 62.4,16.2 62.4,16.4 62.6,16.4 62.6,16.2 62.7,16.2 62.9,16.2 63.1,16.1 
	63.2,16.1 63.4,16.1 63.6,16.1 63.7,16.1 63.9,16.1 63.9,16.2 64,16.2 64,16.4 64.2,16.4 64.4,16.4 64.5,16.4 64.7,16.6 64.9,16.6 
	64.9,16.7 65,16.9 65.2,16.9 65.3,16.9 65.5,16.9 65.7,16.7 65.8,16.6 66,16.4 66.2,16.6 66.3,16.6 66.5,16.6 66.7,16.4 66.8,16.4 
	66.8,16.2 67,16.2 67.1,16.2 67.3,16.2 67.5,16.2 67.6,16.2 67.8,16.2 68,16.2 68,16.1 68.1,16.1 68.3,16.1 68.4,16.1 68.6,16.1 
	68.8,16.2 68.9,16.2 69.1,16.2 69.1,16.1 69.3,16.1 69.4,15.9 69.6,15.7 69.8,15.7 69.9,15.7 70.1,15.7 70.4,15.7 70.6,15.7 
	70.7,15.7 70.9,15.7 71.1,15.6 71.2,15.6 71.4,15.6 71.7,15.4 71.9,15.4 72,15.3 72,15.1 72.2,14.9 72.2,14.8 72.2,14.6 72.2,14.4 
	72.4,14.4 72.4,14.3 72.4,14.1 72.4,13.9 72.4,13.8 72.4,13.6 72.4,13.5 72.4,13.3 72.5,13.3 72.5,13.1 72.4,13.1 72.4,13 72.2,13 
	72.2,12.8 72,12.8 72,12.6 71.9,12.6 71.9,12.5 71.7,12.3 71.7,12.2 71.6,12.2 71.6,12 71.6,11.8 71.7,11.7 71.7,11.5 71.7,11.3 
	71.9,11.3 71.9,11.2 72,11.2 72.4,11.3 72.7,11.3 72.9,11.5 73,11.5 73.2,11.5 73.3,11.5 73.5,11.5 73.5,11.7 73.7,11.7 73.8,11.8 
	74,11.8 74,12 74.2,12 74.3,12 74.5,11.8 74.7,11.8 74.8,11.7 75,11.5 75.1,11.5 75.3,11.7 75.5,11.7 75.8,11.8 76.1,11.8 
	76.3,11.8 76.6,12 76.9,12.2 77.3,12.2 77.6,12.3 77.8,12.3 77.9,12.3 78.4,12.5 78.6,12.5 78.6,12.6 78.7,12.6 78.7,12.8 
	79.2,13.1 79.4,13.5 79.7,13.8 79.9,13.9 80,14.1 79.9,14.1 79.9,14.3 80,14.3 80,14.4 80,14.6 79.9,14.8 79.9,14.9 80,14.9 
	80,15.1 80.2,15.3 80.2,15.4 80.4,15.4 80.4,15.6 80.5,15.6 80.7,15.6 80.7,15.7 80.9,15.7 81,15.7 81,15.6 81.2,15.6 81.2,15.4 
	81.3,15.4 81.2,15.4 81.2,15.3 81.3,15.3 81.5,15.3 81.5,15.4 81.7,15.4 81.8,15.4 81.8,15.6 81.8,15.4 82,15.3 82,15.1 82.2,14.9 
	82.3,14.8 82.3,14.6 82.3,14.4 82.5,14.4 82.7,14.4 82.7,14.3 82.8,14.3 82.8,14.1 83,14.1 83,13.9 83,13.8 83.1,13.8 83.3,13.8 
	83.3,13.6 83.5,13.6 83.5,13.5 83.6,13.5 83.8,13.3 84.6,12.8 84.8,12.8 84.9,12.6 85.1,12.5 85.3,12.5 85.4,12.3 85.6,12.3 
	85.8,12.3 85.9,12.2 86.1,12.2 86.4,12 86.6,12 86.6,11.8 86.7,11.8 86.9,11.8 86.9,12 86.9,12.2 86.9,12.3 86.9,12.5 86.7,12.5 
	86.7,12.6 86.6,12.8 86.6,13 86.6,13.1 86.4,13.1 86.4,13.3 86.2,13.3 86.1,13.3 85.9,13.3 85.8,13.3 85.6,13.3 85.6,13.5 
	85.4,13.5 85.3,13.5 85.1,13.6 85.1,13.8 84.9,13.8 85.1,13.9 85.1,14.1 85.1,14.3 85.1,14.4 85.1,14.6 85.1,14.8 85.3,14.8 
	85.3,14.9 85.4,15.1 85.4,15.3 85.4,15.4 85.4,15.6 85.4,15.7 85.4,15.9 85.4,16.1 85.4,16.2 85.6,16.2 85.6,16.4 85.8,16.4 
	85.9,16.4 85.9,16.6 86.1,16.6 86.2,16.6 86.4,16.6 86.6,16.6 86.7,16.6 86.9,16.4 87.1,16.4 87.2,16.4 87.4,16.4 87.5,16.4 
	87.5,16.2 87.7,16.2 87.9,16.2 87.9,16.1 88,16.1 88.2,15.9 88.4,15.9 88.5,16.1 88.7,16.1 88.7,16.2 88.9,16.4 88.9,16.6 89,16.6 
	88.9,16.7 88.7,16.7 88.5,16.7 88.4,16.9 88.4,17.1 88.2,17.1 88.2,17.2 88,17.2 87.9,17.2 87.7,17.2 87.5,17.2 87.4,17.2 
	87.4,17.4 87.4,17.5 87.4,17.7 87.4,17.9 87.4,18 87.4,18.2 87.5,18.2 87.5,18.4 87.7,18.5 87.9,18.5 88,18.5 88.2,18.4 88.4,18.4 
	88.5,18.4 88.7,18.4 88.9,18.4 89,18.4 89,18.5 89,18.7 89,18.8 88.9,18.8 88.9,19 88.7,19 88.7,19.2 88.5,19.2 88.5,19.3 
	88.4,19.3 88.4,19.5 88.2,19.5 88.2,19.7 88.4,19.7 88.4,19.8 88.5,20 88.7,20 88.7,20.2 88.7,20.3 88.7,20.5 88.7,20.6 88.5,20.6 
	88.5,20.8 88.4,20.8 88.4,21 88.4,21.1 88.5,21.1 88.5,21.3 88.5,21.5 88.4,21.5 88.4,21.6 88.4,21.8 88.4,21.9 88.5,22.1 
	88.5,22.3 88.5,22.4 88.4,22.4 88.2,22.6 88.2,22.8 88,22.8 88,22.9 87.9,22.9 87.7,23.1 87.7,23.3 87.7,23.4 87.5,23.4 87.5,23.6 
	87.5,23.7 87.5,23.9 87.7,23.9 87.7,24.1 87.7,24.2 87.7,24.4 87.5,24.4 87.5,24.6 87.5,24.7 87.4,25 87.4,25.2 87.2,25.4 
	87.2,25.5 87.2,25.7 87.4,25.7 87.5,25.7 87.7,25.9 87.9,25.9 88,25.9 88.2,25.9 88.2,26 88.2,26.2 88.2,26.4 88.2,26.5 88.4,26.5 
	88.4,26.7 88.5,26.7 88.5,26.8 88.7,26.7 88.9,26.7 89,26.7 89.2,26.7 89.2,26.8 89.2,27 89.3,27.2 89.3,27.3 89.3,27.5 89.5,27.5 
	89.3,27.7 89.3,27.8 89.2,27.8 89.2,28 89,28.2 89,28.3 88.9,28.3 88.7,28.3 88.5,28.3 88.5,28.5 88.4,28.5 88.2,28.5 88,28.5 
	87.7,28.6 87.5,28.6 87.5,28.8 87.7,28.8 87.7,29 87.7,29.1 87.9,29.1 87.9,29.3 87.9,29.5 87.9,29.6 87.7,29.8 87.7,29.9 
	87.5,30.1 87.5,30.3 87.5,30.4 87.5,30.6 87.5,30.8 87.5,30.9 87.4,31.1 87.4,31.4 87.4,31.6 87.4,31.7 87.4,31.9 87.4,32.1 
	87.4,32.2 87.5,32.2 87.5,32.4 87.7,32.4 87.7,32.6 87.7,32.7 87.9,32.9 88,33.2 88.2,33.5 88.2,33.7 88.2,33.9 88.2,34.2 
	88.2,34.4 88.2,34.7 88.2,35 88.2,35.2 88.2,35.3 88.2,35.5 88.2,35.7 88.2,35.8 88.4,36 88.4,36.1 88.4,36.5 88.2,36.6 88.2,36.8 
	88.2,37 88,37 88,37.1 87.9,37.1 87.7,37.3 87.7,37.5 87.5,37.5 87.7,37.5 87.7,37.6 87.7,37.8 87.7,37.9 87.9,37.9 88,37.9 
	88,38.1 88,38.3 88.2,38.3 88.2,38.4 88.4,38.4 88.5,38.4 88.7,38.4 88.9,38.4 88.9,38.6 88.9,38.8 88.9,38.9 89,39.1 89.2,39.3 
	89.3,39.6 89.5,39.9 89.5,40.1 89.7,40.2 89.7,40.4 89.7,40.6 89.7,40.7 89.5,40.9 89.5,41 89.3,41.4 89.3,41.5 89.2,41.7 89,41.9 
	88.9,42 88.5,42.4 88.4,42.7 88.2,42.8 88,43 87.9,43.2 87.7,43.3 87.5,43.5 87.2,43.8 87.1,44 86.9,44.1 86.6,44.5 86.6,44.6 
	86.4,44.6 86.4,44.8 86.4,45 86.6,45 86.7,45 86.7,45.1 86.9,45.1 86.9,45.3 86.9,45.5 86.9,45.6 87.1,45.6 87.1,45.8 87.1,45.9 
	87.1,46.3 87.2,46.3 87.2,46.4 87.2,46.6 87.4,46.8 87.4,46.9 87.4,47.1 87.5,47.1 87.5,47.2 87.5,47.4 87.7,47.4 87.9,47.4 
	87.9,47.6 87.9,47.9 87.9,48.1 87.7,48.1 87.5,48.1 87.4,48.2 87.2,48.4 87.1,48.4 87.1,48.6 86.9,48.6 86.7,48.6 86.7,48.7 
	86.7,48.9 86.6,48.9 86.6,49 86.6,49.2 86.6,49.4 86.6,49.5 86.6,49.7 86.7,49.7 86.9,49.9 86.9,50 86.9,50.2 87.1,50.2 87.1,50.4 
	87.2,50.5 87.4,50.5 87.4,50.7 87.5,50.7 87.5,50.8 87.5,51 87.7,51 87.7,51.2 87.7,51.3 87.5,51.5 87.5,51.7 87.4,51.8 87.4,52 
	87.4,52.1 87.4,52.3 87.4,52.5 87.5,52.5 87.5,52.6 87.5,52.8 87.7,52.8 87.7,53 87.9,53 87.9,53.1 87.9,53.3 88,53.3 88,53.5 
	88.2,53.5 88.2,53.6 88.4,53.6 88.5,53.8 88.7,53.8 88.9,53.9 89,54.1 89.2,54.1 89.2,54.3 89.3,54.3 89.3,54.4 89.5,54.6 
	89.5,54.8 89.5,54.9 89.5,55.1 89.7,55.1 89.7,55.2 89.7,55.4 89.8,55.6 89.8,55.7 89.8,56.1 90,56.1 90.3,56.4 90.5,56.6 
	90.7,56.6 90.8,56.6 91,56.6 91.1,56.6 91.3,56.4 91.5,56.4 91.5,56.2 91.6,56.4 91.6,56.6 91.8,56.6 91.8,56.7 91.6,56.9 91.6,57 
	91.5,57.2 91.5,57.4 91.5,57.7 91.3,57.9 91.3,58 91.1,58.2 91.1,58.3 91.1,58.5 91.1,58.8 91,59 91.1,59.2 91.1,59.3 91.3,59.5 
	91.5,59.7 91.6,59.7 91.8,59.8 92,59.8 92.1,60 92.3,60.1 92.4,60.3 92.6,60.3 92.6,60.5 92.8,60.6 92.9,60.6 92.9,60.8 93.1,60.8 
	93.3,61 93.3,61.1 93.3,61.3 93.4,61.3 93.4,61.5 93.6,61.6 93.8,61.6 93.8,61.8 93.8,61.9 93.9,62.3 93.9,62.6 93.9,62.9 
	93.9,63.1 93.9,63.4 94.1,63.6 94.2,63.7 94.2,63.9 94.4,64.1 94.4,64.2 94.4,64.4 94.4,64.6 94.4,64.7 94.4,64.9 94.2,65 
	94.2,65.2 94.1,65.4 93.9,65.4 93.8,65.5 93.4,65.7 93.3,65.9 93.3,66 93.3,66.2 93.3,66.3 93.3,66.5 93.4,67 93.4,67.3 93.6,67.8 
	93.6,68 93.8,68.1 93.9,68.3 94.1,68.5 94.2,68.6 94.4,68.6 94.4,68.8 94.4,69 94.4,69.1 94.4,69.6 94.4,69.9 94.4,70.1 94.4,70.3 
	94.2,70.4 94.1,70.6 93.9,70.8 93.8,71.1 93.4,71.2 93.4,71.4 93.3,71.6 93.1,71.7 93.1,71.9 92.9,71.9 92.8,72.1 92.6,72.2 
	92.6,72.6 92.6,72.7 92.4,72.9 92.4,73 92.4,73.2 92.6,73.2 92.6,73.4 92.4,73.5 92.4,73.7 92.4,73.9 92.3,74 92.1,74.2 92,74.3 
	91.8,74.5 91.6,74.7 91.5,75 91.3,75.2 91.1,75.2 91.1,75.3 91,75.5 91,75.7 91,75.8 91,76 91,76.3 91,76.5 91,76.6 91,76.8 91,77 
	91,77.1 91,77.3 91,77.4 91,77.6 91.1,78.4 91.1,78.8 91.1,78.9 91.1,79.1 91.1,79.2 91.1,79.4 91.1,79.6 91.1,79.7 91.1,80.1 
	91.1,80.2 91.1,80.5 91.1,80.7 91.1,81 91.1,81.2 91.1,81.5 91.1,81.7 91.1,81.9 91.1,82 91.1,82.2 91.1,82.3 91.1,82.5 91,82.7 
	90.7,83 90,83.5 89.7,83.8 89.5,83.8 89.5,84 89.3,84 89.3,84.1 89.3,84.3 89.3,84.5 89.2,84.5 89,84.5 89,84.6 88.9,84.6 
	88.7,84.6 88.5,84.6 88.5,84.8 88.5,85 88.4,85.1 88.4,85.3 88.2,85.3 87.9,85.4 87.2,85.6 86.7,85.6 86.4,85.8 85.9,85.9 
	85.1,86.1 84.9,86.3 84.6,86.3 84.3,86.4 84,86.4 83.6,86.6 83.1,86.8 83,86.8 83,86.9 83,87.1 82.8,87.2 82,87.9 81.3,88.2 
	81,88.5 80.9,88.7 80.7,88.7 79.9,88.7 79.2,88.7 79.1,88.7 78.7,88.5 76.9,88.7 76.1,88.5 75.6,88.7 75.3,88.7 75,88.7 74.7,88.7 
	74.5,88.9 74.2,88.9 73.8,88.9 73.5,88.9 73.2,89 72.9,89 72.5,89 72.4,89 72.2,89 72,89 71.7,89.2 71.4,89.2 71.2,89.2 70.7,89.2 
	70.2,89.4 70.1,89.2 69.9,89.2 69.6,89.2 69.4,89.2 69.3,89.4 69.1,89.4 68.9,89.4 68.8,89.4 68.6,89.5 68.4,89.5 68.4,89.7 
	68.3,89.7 68.1,89.5 68,89.5 68,89.7 67.8,89.7 67.6,89.7 67.5,89.9 67.3,89.9 67.1,89.9 67,89.9 66.8,89.7 66.7,89.7 66.3,89.7 
	66.2,89.7 66,89.7 65.8,89.7 65.7,89.9 65.5,89.9 65.2,89.9 65,89.9 64.9,89.9 64.5,89.9 64.2,90 64,90 63.9,90 63.7,90.2 
	63.6,90.3 63.4,90.5 63.2,90.7 63.1,90.8 62.9,91 62.7,91.2 62.6,91.3 62.4,91.3 62.2,91.3 62.1,91.3 61.9,91.3 61.8,91.3 
	61.4,91.3 61.3,91.3 61.1,91.2 60.9,91.3 60.8,91.3 60.6,91.3 60.5,91.5 60.3,91.5 60.1,91.6 60,91.6 59.8,91.8 59.6,92 59.5,92.1 
	59.3,92.3 59.1,92.6 59,92.8 58.8,93 58.7,93.1 58.5,93.3 58.5,93.4 58.3,93.6 58.2,93.8 58,93.9 57.8,93.9 57.8,94.1 57.7,94.3 
	57.5,94.4 57.3,94.6 57.2,94.8 57,95.1 56.9,95.1 56.9,95.2 56.7,95.4 56.7,95.6 56.5,95.6 56.5,95.7 56.4,95.9 56.4,96.1 
	56.2,96.1 56,96.2 56,96.4 55.9,96.4 55.7,96.5 55.6,96.5 55.4,96.7 55.2,96.7 55.2,96.9 54.9,96.9 54.9,97 54.7,97 54.4,97 
	54.2,97.2 54.1,97 53.9,97 53.8,97 53.6,97 53.4,97 53.3,97 53.1,96.9 52.9,96.9 52.8,96.9 52.8,97 52.6,97 52.5,97 52.5,96.9 
	52.3,96.9 52.1,96.9 52,96.9 51.8,96.7 51.6,96.5 51.5,96.5 51.3,96.5 51.1,96.5 51,96.5 51,96.4 50.8,96.4 50.8,96.2 50.7,96.1 
	50.8,95.9 50.8,95.7 51,95.6 51,95.4 51,95.2 51,95.1 50.8,94.9 50.7,94.8 50.5,94.8 50.3,94.8 50.2,94.8 50,94.8 49.8,94.6 
	49.7,94.6 49.7,94.4 49.5,94.4 49.5,94.3 49.5,94.1 49.3,94.1 49.3,93.9 49.3,93.6 49.3,93.4 49.2,93.3 49,93.1 48.9,93.1 
	48.9,93.3 48.7,93.3 48.7,93.4 48.5,93.6 48.4,93.6 48.4,93.8 48.2,93.8 48,93.8 48,93.9 47.9,93.9 47.7,93.9 47.6,93.9 47.6,93.8 
	47.4,93.8 47.2,93.8 47.1,93.8 47.1,93.6 47.2,93.6 47.2,93.4 47.4,93.3 47.4,93.1 47.2,92.8 47.2,92.5 47.2,92.1 47.1,92 
	47.1,91.8 47.1,91.6 47.1,91.3 47.1,90.8 47.1,90.7 47.1,90.3 46.9,90.2 46.9,90 46.9,89.9 46.7,89.5 46.7,89.4 46.7,89 46.6,88.9 
	46.6,88.7 46.6,88.5 46.4,88.4 46.4,88.1 46.6,87.9 46.6,87.6 46.6,87.4 46.6,87.2 46.6,87.1 46.4,86.9 46.2,86.8 46.2,86.6 
	46.2,86.4 46.4,86.3 46.7,86.1 47.1,85.8 47.2,85.6 47.4,85.6 47.6,85.3 47.7,85.1 47.9,85.1 48.2,84.8 48.5,84.6 49.2,84 
	49.7,83.7 50,83.3 50.3,83.2 50.5,83 50.7,82.8 50.8,82.7 51,82.5 51,82.3 51,82.2 51,82 51.1,81.9 51.3,81.9 51.5,81.9 51.6,81.9 
	51.8,81.7 52,81.7 52,81.5 52,81.4 52,81.2 51.8,81.2 51.8,81 51.8,80.9 51.8,80.7 51.6,80.5 51.6,80.4 51.6,80.2 51.6,80.1 
	51.8,79.9 51.8,79.7 51.8,79.6 52,79.4 52,79.2 52,78.8 52,78.3 52,78.1 52,77.9 52,77.8 52,77.6 52,77.4 52,77.3 52,77.1 52,77 
	51.8,76.8 51.8,76.6 51.8,76.5 51.6,76.3 51.6,76.1 51.6,76 51.6,75.8 51.6,75.7 51.6,75.5 51.8,75.3 51.8,75.2 51.8,75 52,74.8 
	52,74.7 52,74.5 52.1,74.3 52.1,74.2 52.1,74 52.1,73.9 52.1,73.7 52.1,73.5 52.1,73.4 52.1,73.2 52,73 51.8,72.9 51.8,72.7 
	51.6,72.6 51.6,72.4 51.6,72.2 51.6,72.1 51.5,71.9 51.5,71.7 51.5,71.6 51.3,71.4 51.3,71.2 51.3,71.1 51.3,70.9 51.1,70.8 
	51.1,70.6 51.3,70.4 51.3,70.3 51.5,70.3 51.5,70.1 51.6,69.9 51.8,69.8 51.8,69.6 51.8,69.4 51.8,69.3 51.8,69.1 51.8,69 
	51.8,68.8 51.8,68.5 51.8,68.3 51.6,68.1 51.6,68 51.6,67.8 51.6,67.7 51.5,67.3 51.5,67.2 51.5,67 51.5,66.8 51.5,66.7 51.5,66.5 
	51.5,66.3 51.5,66.2 51.6,66 51.6,65.9 51.6,65.7 51.6,65.5 51.5,65.5 51.5,65.4 51.5,65.2 51.5,65 51.5,64.9 51.6,64.7 51.6,64.6 
	51.8,64.4 51.8,64.2 52,64.1 52,63.9 52.1,63.7 52.1,63.6 52.1,63.4 52.1,63.2 52,63.2 52,63.1 52,62.9 51.8,62.9 51.8,62.8 
	51.8,62.6 51.8,62.4 51.8,62.3 51.8,62.1 51.6,62.1 51.6,61.9 51.5,61.9 51.5,61.8 51.5,61.6 51.5,61.5 51.3,61.3 51.3,61.1 
	51.3,61 51.3,60.8 51.5,60.6 51.5,60.5 51.5,60.3 51.6,60.3 51.6,60.1 51.5,60.1 51.6,59.8 51.6,59.7 51.6,59.5 51.6,59.3 
	51.6,59.2 51.6,59 51.6,58.8 51.6,58.7 51.6,58.5 51.6,58.3 51.6,58.2 51.6,58 51.6,57.9 51.6,57.7 51.6,57.5 51.6,57.4 51.6,57.2 
	51.6,57 51.6,56.9 51.6,56.7 51.6,56.6 51.6,56.4 51.6,56.2 51.6,56.1 51.6,55.9 51.6,55.7 51.6,55.6 51.8,55.2 51.8,55.1 
	51.8,54.9 51.8,54.8 51.8,54.6 51.6,54.6 51.6,54.4 51.8,54.4 51.6,54.1 51.6,53.9 51.6,53.8 51.5,53.6 51.3,53.5 51.3,53.3 
	51.3,53.1 51.3,53 51.5,52.8 51.6,52.6 51.6,52.5 51.5,52.5 51.3,52.3 51.1,52.1 51,52 50.8,51.8 50.7,51.8 50.5,51.8 50.3,51.8 
	50.2,51.8 50,51.8 49.8,51.7 49.7,51.5 49.5,51.3 49.3,51.3 49.2,51.3 49,51.2 48.9,51.2 48.7,51 48.7,50.8 48.5,50.7 48.2,50.5 
	48,50.4 48,50.2 48,50 48,49.9 48,49.7 48,49.5 48,49.4 48.2,49.2 48.4,49.2 48.4,49 48.5,48.9 48.5,48.6 48.5,48.4 48.5,48.1 
	48.4,47.9 48.4,47.7 48.4,47.6 48.2,47.4 48.2,47.2 48.2,47.1 48.2,46.9 48.4,46.8 48.4,46.6 48.5,46.3 48.5,46.1 48.5,45.9 
	48.5,45.8 48.5,45.6 48.4,45.6 48.5,45.5 48.7,45.5 48.9,45.5 49,45.3 49.2,45.3 49.3,45.3 49.5,45.3 49.5,45.1 49.7,45.1 49.7,45 
	49.8,45 50,45 50.2,44.8 50.3,44.8 50.5,44.8 50.7,44.8 50.8,44.6 51.1,44.6 51.1,44.5 51.3,44.5 51.5,44.5 51.6,44.5 51.8,44.5 
	52,44.5 52.1,44.5 52.3,44.5 52.5,44.3 52.6,44.3 52.8,44.1 52.9,44 52.9,43.8 52.8,43.8 52.8,43.7 52.6,43.7 52.6,43.5 52.8,43.5 
	52.6,43.5 52.6,43.3 52.5,43.3 52.6,43.3 52.6,43.2 52.5,43.2 52.5,43 52.3,43 52.5,43 52.5,42.8 52.3,42.8 52.3,43 52.3,42.8 
	52.1,42.8 52.1,42.7 52,42.7 51.8,42.7 51.8,42.5 52,42.5 52,42.4 51.8,42.4 51.8,42.2 51.8,42 51.8,41.9 51.8,41.7 52,41.5 
	52,41.4 52,41.2 51.8,41.2 51.8,41 51.8,40.9 51.6,40.9 51.5,40.9 51.5,40.7 51.5,40.6 51.5,40.4 51.5,40.2 51.3,40.2 51.3,40.1 
	51.1,40.1 51,40.1 51,39.9 51,39.7 50.8,39.6 50.8,39.4 50.8,39.3 50.8,39.1 50.7,39.1 50.5,39.1 50.5,38.9 50.3,38.8 50.2,38.6 
	50,38.4 50,38.3 50,38.1 49.8,38.1 49.8,37.9 49.7,37.9 49.5,37.8 49.3,37.8 49.3,37.6 49.3,37.5 49.3,37.3 49.3,37.1 49.3,37 
	49.3,36.8 49.3,36.6 49.3,36.5 49.3,36.3 49.3,36 49.3,35.7 49.2,35.5 49.2,35.2 49.2,35 49.3,35 49.5,34.8 49.7,34.7 49.8,34.5 
	50,34.4 50,34.2 50,34 50,33.9 49.8,33.9 49.8,33.7 49.8,33.5 49.7,33.5 49.5,33.7 49.3,33.7 49.3,32.6 49.3,32.4 49.2,32.4 
	49.2,32.2 49,32.2 49,32.1 48.9,32.1 48.9,31.9 48.7,31.9 48.5,31.9 48.4,31.9 48.4,31.7 48.2,31.7 48.2,31.6 48,31.6 47.9,31.6 
	47.9,31.7 47.7,31.7 47.6,31.7 47.4,31.7 47.2,31.7 47.1,31.7 46.9,31.7 46.7,31.7 46.6,31.7 46.6,31.9 46.4,31.9 46.2,31.9 
	46.1,31.9 45.9,31.9 45.9,32.1 45.8,32.1 45.6,32.1 45.4,32.1 45.4,31.9 45.3,31.9 45.1,31.9 44.9,31.7 44.8,31.7 44.6,31.7 
	44.3,31.7 44.1,31.7 44,31.6 43.8,31.6 43.6,31.6 43.5,31.6 43.3,31.6 43.1,31.6 43,31.6 42.8,31.6 42.7,31.6 42.5,31.6 42.3,31.6 
	42.2,31.4 42,31.3 41.8,30.9 41.7,30.8 41.5,30.6 41.4,30.6 41.2,30.4 41,30.4 40.9,30.4 40.7,30.3 40.5,30.1 40.4,29.9 40.2,29.8 
	40.2,29.6 40.4,29.6 40.2,29.5 40.2,29.3 40,29.3 39.9,29.1 39.7,29.1 39.6,29.1 39.4,29 39.2,29 39.2,28.8 39.1,28.8 38.9,28.6 
	38.7,28.5 38.9,28.5 38.7,28.5 38.7,28.3 38.6,28.3 38.4,28.2 38.2,28.2 38.2,28 37.9,27.5 37.6,27.3 37.1,27 36.6,26.7 36.1,26.5 
	36,26.5 35.8,26.4 35.6,26.4 35.5,26.4 35.3,26.4 35.3,26.5 35.1,26.5 35.1,26.7 35.1,26.8 35,26.8 34.8,26.8 34.7,26.8 34.7,26.7 
	34.5,26.7 34.5,26.5 34.3,26.5 34.3,26.7 34.2,26.7 34,26.7 33.8,26.7 33.8,26.8 33.7,26.8 33.7,27 33.5,27 33.5,27.2 33.4,27.2 
	33.4,27.3 33.5,27.3 33.4,27.5 33.2,27.7 33,27.7 33,27.8 32.9,27.8 32.9,27.7 32.7,27.7 32.7,27.8 32.5,27.8 32.5,28 32.4,28 
	32.4,28.2 32.2,28.2 32,28.2 32,28.3 31.9,28.3 31.7,28.2 31.7,28 31.6,28.2 31.4,28.2 31.1,28.2 30.9,28.2 30.7,28 30.6,28 
	30.4,28 30.3,28 30.1,28 29.9,28 29.9,28.2 29.8,28.2 29.8,28 29.6,27.8 29.4,27.7 29.3,27.7 29.1,27.8 28.9,27.8 28.9,28 28.8,28 
	28.8,28.2 28.6,28.3 28.5,28.3 28.3,28.3 28.3,28.2 28.1,28.2 28.1,28 28,28 28,27.8 28,27.7 27.5,27.2 27.5,27 27.3,27 27.3,26.8 
	27.1,26.8 27,26.8 26.8,26.8 26.7,26.8 26.7,26.7 26.7,26.5 26.5,26.5 26.3,26.5 26.3,26.7 26.2,26.7 26.2,26.8 26.2,27 26.2,27.2 
	26,27.3 26,27.5 26,27.7 26,27.8 26.2,28 26.2,28.2 26.3,28.2 26.3,28.3 26.2,28.5 26.2,28.6 26.3,28.8 26.3,29 26.5,29 26.5,29.1 
	26.5,29.3 26.5,29.5 26.7,29.6 26.5,29.8 26.5,29.9 26.3,30.1 26.2,30.1 26,30.3 26,30.4 25.8,30.4 25.8,30.6 25.8,30.8 25.8,30.9 
	25.8,31.1 26,31.1 26,31.3 26,31.4 25.8,31.6 25.8,31.7 25.7,31.7 25.7,31.9 25.8,31.9 25.8,32.1 26,32.2 26,32.4 26.2,32.6 
	26.3,32.6 26.3,32.7 26.5,32.7 26.7,32.9 26.7,33 26.7,33.2 26.8,33.2 26.8,33.4 26.8,33.5 26.8,33.7 26.7,33.7 26.7,33.9 26.7,34 
	26.5,34.2 26.3,34.4 26.2,34.4 26,34.5 26,34.7 25.7,35 25.2,35.5 24.9,35.7 24.7,35.7 24.5,35.7 24.5,35.8 24.4,35.7 24.4,35.8 
	24.2,35.7 24.2,35.8 24,35.8 23.9,35.8 23.7,35.8 23.6,35.8 23.4,35.8 23.2,35.8 23.2,36 23.1,36 23.1,36.1 23.1,36 22.9,36 
	22.7,36 22.6,36 22.6,36.1 22.6,36 22.4,36 22.3,36 22.1,36 21.9,36 21.8,36 21.8,35.8 21.6,35.8 21.6,36 21.6,35.8 21.6,36 
	21.4,36 21.3,36 21.1,36 20.9,36 20.8,36 20.8,35.8 20.8,36 20.6,36 20.6,36.1 20.5,36.1 20.3,36.1 20.3,36 20.1,36 20,36 20,36.1 
	20,36.3 19.8,36.3 19.6,36.3 19.5,36.3 19.5,36.1 19.5,36.3 19.3,36.1 19.3,36.3 19.1,36.3 19.1,36.5 19,36.5 18.8,36.5 18.7,36.5 
	18.5,36.5 18.3,36.5 18.3,36.3 18.3,36.1 18.3,36 18.3,35.8 18.2,35.7 18.2,35.5 18.2,35.3 18.3,35.3 18.3,35.2 18.5,35.2 18.5,35 
	18.3,35 18.3,34.8 18.5,34.7 18.5,34.5 18.3,34.4 18.3,34.2 18.2,34 18,33.9 17.8,33.9 17.7,33.7 17.7,33.5 17.7,33.2 17.7,33 
	17.5,33 17.5,32.9 17.4,32.9 17.4,32.7 17.2,32.1 17,31.4 16.9,31.1 16.5,30.8 16.4,30.4 16.4,29.8 16.4,29.6 16.2,29.6 16.2,29.5 
	16.2,29.3 16,29.1 15.9,29.1 15.7,29 15.6,28.8 15.4,28.8 15.4,28.6 15.2,28.6 15.1,28.6 14.9,28.6 14.7,28.5 14.6,28.5 14.6,28.6 
	14.4,28.6 14.4,28.8 14.3,28.8 14.1,28.8 14.1,29 13.9,29.1 13.9,29.3 13.8,29.3 13.6,29.3 13.4,29.3 13.3,29.5 13.1,29.5 
	12.9,29.5 12.8,29.6 12.6,29.6 12.5,29.6 12.6,29.8 12.5,29.8 12.3,29.6 12.1,29.6 12.1,29.8 12.1,29.9 12,29.9 11.8,29.9 
	11.8,30.1 11.6,30.1 11.6,29.9 11.5,29.9 11.3,29.9 11.2,29.9 11,30.1 11,29.9 10.8,29.9 10.7,30.1 10.7,29.9 10.5,29.9 10.5,29.8 
	10.5,29.6 10.5,29.8 10.7,29.8 10.7,29.6 10.5,29.6 10.3,29.6 10.2,29.6 10.2,29.5 10,29.5 10,29.6 9.8,29.5 9.7,29.5 9.5,29.5 
	9.4,29.5 9.2,29.5 9,29.5 8.9,29.5 8.7,29.3 8.7,29.1 8.5,29.1 8.5,29 8.4,29 8.4,28.8 8.2,28.6 8,28.6 8,28.5 7.9,28.5 7.7,28.5 
	7.6,28.3 7.4,28.3 7.4,28.2 7.2,28.2 7.2,28 7.1,27.8 7.1,27.7 6.9,27.7 6.9,27.5 6.7,27.5 6.7,27.3 6.7,27.2 6.7,27 6.7,26.8 
	6.7,26.7 6.6,26.7 6.6,26.5 6.4,26.4 6.3,26.2 6.3,26 6.1,26 5.9,26 5.9,25.9 5.9,25.7 5.8,25.7 5.6,25.9 5.4,25.9 5.4,25.7 
	5.3,25.7 5.1,25.5 4.9,25.5 4.9,25.4 4.8,25.4 4.8,25.5 4.6,25.5 4.5,25.5 4.3,25.5 4.3,25.4 4.1,25 4.1,24.9 4.1,24.7 4,24.7 
	4,24.6 3.8,24.4 3.8,24.2 3.6,24.2 3.6,24.1 3.5,24.1 3.3,23.9 3.2,23.7 2.8,23.7 3,23.6 3,23.4 3,23.3 2.8,23.1 2.7,22.9 2.7,22.8 
	2.7,22.6 2.7,22.4 2.5,22.4 2.5,22.3 2.3,22.3 2.3,22.1 2.5,21.9 2.3,21.8 2.3,21.6 2.2,21.6 2,21.6 2,21.5 2,21.3 2,21.1 1.8,21 
	1.8,20.8 2,20.8 2.2,20.8 2.3,20.6 2.5,20.6 2.7,20.6 2.8,20.5 2.8,20.3 2.8,20.2 3,20.2 3,20 3.2,20 3.3,20 3.3,19.8 3.5,19.8 
	3.5,19.7 3.6,19.5 3.6,19.3 3.8,19.3 3.8,19.2 4,19.2 4,19 4,18.8 4.1,18.8 4.5,18.8 4.6,18.8 4.8,18.7 4.9,18.5 4.9,18.4 4.9,18.2 
	5.1,18 5.1,17.9 5.1,17.7 5.1,17.5 5.1,17.4 5.1,16.9 5.1,16.7 5.1,16.6 5.1,16.4 5.3,16.4 5.3,16.2 5.3,16.1 5.4,16.1 5.4,15.9 
	5.4,15.7 5.4,15.6 5.6,15.4 5.6,15.3 5.6,15.1 5.4,14.9 5.3,14.9 5.3,14.8 5.1,14.8 5.1,14.6 4.9,14.4 4.8,14.4 4.6,14.3 4.6,14.1 
	4.5,13.9 4.5,13.8 4.6,13.6 4.8,13.6 4.8,13.5 4.8,13.3 4.9,13.3 4.9,13.1 5.1,13 5.3,13 5.4,12.8 5.4,12.6 5.4,12.5 5.3,12.5 
	5.3,12.3 5.1,12.2 4.9,12 4.8,11.8 4.8,11.7 4.8,11.5 4.8,11.3 4.6,11.2 4.6,11 4.6,10.8 4.6,10.7 4.5,10.7 4.3,10.5 4.1,10.5 
	4,10.4 3.8,10 4,10 4,9.9 4,9.7 3.8,9.5 3.8,9.4 3.6,9.4 3.5,9.2 3.5,9.1 3.3,9.1 3.3,8.9 3.2,8.9 3,8.9 2.8,8.9 2.7,8.7 2.7,8.6 
	2.5,8.4 2.3,8.4 2.2,8.4 2,8.2 2,8.1 2,7.9 1.8,7.9 2,7.9 2,7.7 2,7.6 2,7.4 2,7.3 2,7.1 2.2,7.1 2.2,6.9 2.3,6.9 2.5,6.9 2.7,6.9 
	2.7,6.8 2.8,6.8 3,6.8 3.2,6.8 3.3,6.6 3.5,6.4 3.6,6.4 3.6,6.3 3.6,6.1 3.6,5.9 3.6,5.8 3.8,5.8 4,5.8 4,5.6 4,5.5 4.1,5.5 
	4.1,5.3 4.1,5.1 4,5.1 3.8,5 3.8,4.8 3.6,4.8 3.6,4.6 3.5,4.6 3.5,4.5 3.3,4.5 3.3,4.3 3.2,4.3 3.2,4.2 3.2,4 3.2,3.8 3.3,3.8 
	3.5,3.8 3.6,3.7 3.6,3.5 3.5,3.3 3.5,3.2 3.3,3.2 3.3,3 3.5,2.8 3.5,2.7 3.3,2.7 3.5,2.5 3.6,2.4 3.8,2.4 3.8,2.2 4,2 4,1.9 4,1.7 
	4.1,1.7 4.3,1.7 4.5,1.7 4.6,1.7 4.6,1.5 4.6,1.4 4.6,1.2 4.8,1.2 4.9,1.2 5.1,1.2 5.1,1.1 5.3,1.1 5.3,0.9 5.4,0.9 5.4,0.7 
	5.4,0.6 5.4,0.4 5.3,0.2 5.3,0.1 5.3,-0.1 5.4,-0.1 5.6,-0.1 5.6,0.1 5.8,0.1 5.9,0.1 5.9,0.2 6.1,0.2 6.3,0.2 6.4,0.1 6.4,-0.1 
	6.6,-0.1 6.7,-0.1 6.9,-0.1 7.1,-0.1 7.1,0.1 7.2,0.1 7.2,0.2 7.4,0.4 7.6,0.6 7.6,0.7 7.6,0.9 7.7,0.9 7.9,0.9 8,1.1 8,1.2 
	8.2,1.2 8.2,1.4 8.2,1.5 8.4,1.5 8.4,1.7 8.4,1.9 8.5,1.9 8.7,2 8.7,2.2 8.7,2.4 8.7,2.5 8.9,2.5 8.9,2.7 9,2.7 9,2.8 9.2,2.8 
	9.2,3 9.4,3 9.5,3.2 9.7,3.2 9.7,3 9.8,3 10,3 10,2.8 10.2,2.8 10.2,3 10.3,3 10.5,3 10.7,3 10.8,2.8 11,2.8 11.2,2.8 11.2,3 
	11.3,3.2 11.5,3.2 11.6,3.2 11.8,3 12,3 12.1,3 12.3,3 12.5,3 12.5,3.2 12.6,3.2 12.6,3.3 12.8,3.3 12.9,3.5 13.1,3.5 13.3,3.5 
	13.4,3.3 13.6,3.3 13.8,3.3 13.9,3.2 14.1,3 14.3,3 14.4,3 14.6,3.2 14.6,3.3 14.6,3.5 14.6,3.7 14.4,3.8 14.3,4 14.3,4.2 14.3,4.3 
	14.4,4.3 14.4,4.5 14.4,4.6 14.4,4.8 14.4,5 14.6,5 14.6,5.1 14.7,5.1 14.7,5.3 14.7,5.5 14.9,5.5 14.9,5.6 14.9,5.8 14.9,5.9 
	15.1,6.1 15.1,6.3 15.1,6.4 15.2,6.4 15.2,6.6 15.1,6.8 15.1,6.9 15.2,6.9 15.2,7.1 15.2,7.3 15.2,7.4 15.4,7.4 15.4,7.6 15.7,7.7 
	15.9,7.9 16,8.1 16,8.4 16.2,8.6 16.2,8.7 16.4,8.9 16.4,9.1 16.5,9.1 16.7,9.2 16.9,9.2 17.2,9.1 17.4,8.9 17.5,8.7 17.4,8.6 
	17.5,8.4 17.7,8.6 17.8,8.7 18,8.7 18.2,8.7 18.5,8.7 18.7,8.7 18.8,8.7 19.1,8.7 19.3,8.7 19.5,8.7 19.8,8.7 20,8.7 20.3,8.6 
	20.5,8.7 20.6,8.7 20.8,8.9 20.9,9.1 21.1,9.2 21.4,9.2 21.6,9.2 21.8,9.2 21.9,9.2 22.1,9.2 22.3,9.2 22.3,9.1 22.4,9.1 22.6,9.1 
	22.7,9.1 22.9,9.1 23.1,9.1 23.1,9.2 23.2,9.2 23.4,9.2 23.4,9.4 23.6,9.4 23.7,9.4 23.9,9.4 24,9.4 24,9.2 24,9.4 24.2,9.4 
	24.2,9.5 24.4,9.5 24.5,9.5 24.5,9.7 24.7,9.7 24.7,9.9 24.9,9.9 24.9,10 24.9,10.2 24.9,10.4 24.9,10.5 25,10.5 25,10.7 25.2,10.7 
	25.2,10.8 25.4,10.8 25.5,10.8 25.7,10.8 25.7,11 25.8,11 26,11 26,11.2 26,11 26,11.2 26.2,11.2 26.3,11.2 26.3,11.3 26.5,11.3 
	26.7,11.3 26.7,11.2 26.8,11.2 27,11.2 27.1,11.2 27.3,11.2 27.5,11.2 27.6,11.2 27.8,11.2 27.8,11.3 28,11.3 28.1,11.3 28.1,11.5 
	28.3,11.7 28.5,11.7 28.5,11.8 28.6,12 28.8,12 28.9,11.8 28.9,12 29.1,12 29.3,12 29.3,12.2 29.4,12.2 29.4,12.3 29.4,12.5 
	29.6,12.5 29.6,12.6 29.8,12.6 29.8,12.8 29.9,12.8 30.1,12.8 30.3,12.8 30.4,12.8 30.6,12.8 30.6,12.6 30.7,12.6 30.9,12.6 
	30.9,12.8 31.1,13 31.2,13 31.2,12.8 31.4,12.8 31.6,12.8 31.6,13 31.6,12.8 31.7,12.8 31.7,13 31.9,13 31.9,12.8 32,12.8 32,13 
	32,12.8 32.2,12.8 32.2,13 32,13 32.2,13 32.4,13 32.4,13.1 32.5,13.1 32.5,13 32.7,13 32.7,13.1 32.9,13.1 33,13.1 33.2,13.1 
	33.4,13.1 33.5,13.1 33.7,13.1 33.8,13.1 34,13.1 34.2,13.1 34.2,13 34.2,12.8 34,12.8 34.2,12.8 34.2,12.6 34.2,12.5 34.3,12.3 
	34.3,12.2 34.3,12 34.2,12 34.2,11.8 34.2,11.7 34.3,11.7 34.3,11.5 34.5,11.5 34.5,11.3 34.3,11.3 34.5,11.2 34.5,11 34.5,10.8 
	34.3,10.8 34.3,10.7 34.2,10.7 34.2,10.5 34,10.5 34,10.4 34,10.2 34,10 33.8,10 33.8,9.9 33.7,9.9 33.7,9.7 33.8,9.7 33.7,9.7 
	33.7,9.5 33.8,9.5 33.8,9.4 34,9.4 34.2,9.2 34.2,9.1 34,8.9 34.2,8.7 34.3,8.7 34.5,8.6 34.7,8.6 34.8,8.6 35,8.7 35.1,8.7 
	35.1,8.9 35.3,8.9 35.5,8.9 35.5,8.7 35.6,8.7 36,8.7 36.1,8.7 36.3,8.7 36.5,8.7 36.6,8.7 36.8,8.7 36.9,8.7 37.1,8.7 37.3,8.7 
	37.3,8.9 37.3,9.1 37.4,9.1 37.6,9.2 37.8,9.2 37.9,9.4 38.1,9.4 38.2,9.4 38.4,9.4 38.6,9.4 38.6,9.5 38.7,9.7 38.9,9.9 39.1,9.9 
	39.2,10 39.4,10 39.6,10 39.7,10 39.7,9.9 39.9,9.9 40,10 40.2,10 40.5,10 40.9,9.9 41,9.7 41.5,9.4 "/>
</svg>
