<?xml version="1.0" encoding="utf-8"?>
<!-- Generator: Adobe Illustrator 24.2.1, SVG Export Plug-In . SVG Version: 6.00 Build 0)  -->
<svg version="1.1" id="Layer_1" xmlns="http://www.w3.org/2000/svg" xmlns:xlink="http://www.w3.org/1999/xlink" x="0px" y="0px"
	 viewBox="0 0 97.23 97.23" style="enable-background:new 0 0 97.23 97.23;" xml:space="preserve">
<style type="text/css">
	.st0{fill-rule:evenodd;clip-rule:evenodd;}
</style>
<polygon class="st0" points="50.52,1.45 50.58,1.39 50.64,1.39 50.64,1.45 50.7,1.45 50.7,1.39 50.7,1.33 50.76,1.33 50.83,1.33 
	50.89,1.27 50.95,1.21 51.01,1.21 51.07,1.21 51.14,1.21 51.14,1.27 51.2,1.33 51.2,1.39 51.14,1.45 51.14,1.52 51.14,1.64 
	51.14,1.7 51.2,1.76 51.2,1.82 51.26,1.82 51.26,1.89 51.32,2.01 51.32,2.07 51.32,2.13 51.38,2.2 51.45,2.26 51.45,2.32 
	51.51,2.38 51.57,2.44 51.57,2.57 51.57,2.63 51.57,2.75 51.63,2.81 51.63,2.94 51.63,3 51.63,3.06 51.69,3.12 51.69,3.18 
	51.75,3.18 51.82,3.25 51.88,3.31 51.94,3.37 51.94,3.43 52,3.56 52.06,3.62 52.13,3.68 52.19,3.68 52.25,3.74 52.25,3.8 
	52.31,3.86 52.25,3.93 52.25,4.05 52.25,4.11 52.25,4.17 52.19,4.24 52.19,4.3 52.19,4.36 52.25,4.48 52.31,4.55 52.31,4.61 
	52.37,4.67 52.43,4.67 52.5,4.73 52.62,4.73 52.68,4.79 52.74,4.85 52.81,4.92 52.87,4.98 52.93,5.04 52.99,5.1 52.99,5.16 
	52.99,5.23 52.93,5.29 52.93,5.35 52.93,5.41 52.99,5.41 52.99,5.47 53.05,5.47 53.18,5.53 53.24,5.6 53.3,5.6 53.36,5.66 
	53.42,5.66 53.49,5.78 53.55,5.84 53.61,5.91 53.61,5.97 53.67,6.28 53.67,6.34 53.67,6.4 53.61,6.46 53.49,6.52 53.42,6.59 
	53.36,6.65 53.3,6.65 53.18,6.65 53.11,6.65 53.05,6.71 52.99,6.83 52.87,6.89 52.81,6.89 52.74,6.89 52.62,6.96 52.56,6.96 
	52.5,7.02 52.43,7.08 52.37,7.08 52.25,7.08 52.19,7.14 52.13,7.14 52.06,7.2 52,7.2 51.94,7.2 51.82,7.2 51.75,7.2 51.69,7.14 
	51.63,7.14 51.57,7.2 51.51,7.27 51.51,7.33 51.57,7.39 51.63,7.45 51.69,7.51 51.69,7.57 51.69,7.64 51.63,7.7 51.63,7.76 
	51.57,7.82 51.57,7.88 51.57,8.01 51.63,8.13 51.69,8.25 51.75,8.38 51.82,8.44 51.82,8.5 51.82,8.56 51.75,8.56 51.75,8.63 
	51.69,8.63 51.69,8.69 51.69,8.75 51.75,8.87 51.75,8.93 51.75,9 51.75,9.06 51.75,9.12 51.69,9.18 51.63,9.24 51.63,9.37 
	51.57,9.43 51.51,9.49 51.51,9.61 51.51,9.74 51.51,9.8 51.57,9.86 51.63,9.92 51.69,9.99 51.75,9.99 51.82,10.05 51.88,10.11 
	51.88,10.17 51.94,10.23 51.94,10.42 51.94,10.48 51.94,10.54 51.94,10.6 52,10.67 52,10.73 52.06,10.85 52.06,10.91 52.06,10.98 
	52.13,11.1 52.13,11.16 52.19,11.22 52.19,11.28 52.19,11.35 52.19,11.47 52.19,11.59 52.19,11.72 52.19,11.78 52.19,11.84 
	52.13,11.9 52.13,11.96 52.13,12.03 52.13,12.09 52.13,12.15 52.13,12.21 52.13,12.27 52.13,12.34 52.13,12.4 52.06,12.46 52,12.52 
	52,12.58 51.94,12.64 51.94,12.71 52,12.71 52,12.83 52.06,12.95 52.13,13.02 52.19,13.02 52.19,13.08 52.25,13.08 52.25,13.14 
	52.31,13.2 52.25,13.26 52.25,13.32 52.25,13.39 52.19,13.45 52.19,13.51 52.25,13.51 52.25,13.57 52.25,13.63 52.25,13.7 
	52.25,13.76 52.19,13.82 52.13,13.82 52.13,13.88 52.13,13.94 52.06,14 52,14 51.88,14 51.82,14.07 51.75,14.13 51.69,14.13 
	51.63,14.19 51.63,14.25 51.57,14.31 51.57,14.38 51.57,14.44 51.57,14.5 51.57,14.56 51.51,14.62 51.51,14.68 51.51,14.75 
	51.51,14.81 51.51,14.87 51.51,14.93 51.51,14.99 51.45,15.06 51.45,15.12 51.45,15.18 51.51,15.24 51.57,15.3 51.63,15.3 
	51.69,15.36 51.69,15.43 51.69,15.49 51.75,15.55 51.75,15.61 51.75,15.67 51.75,15.74 51.75,15.8 51.75,15.86 51.75,15.92 
	51.82,15.92 51.82,15.86 51.88,15.8 51.88,15.74 51.94,15.67 52,15.61 52.06,15.55 52.13,15.55 52.13,15.49 52.13,15.43 
	52.13,15.36 52.13,15.3 52.13,15.24 52.19,15.12 52.25,15.06 52.31,14.99 52.37,14.99 52.37,14.93 52.37,14.87 52.43,14.87 
	52.5,14.87 52.56,14.93 52.56,14.87 52.56,14.81 52.56,14.75 52.62,14.62 52.68,14.5 52.74,14.5 52.81,14.5 52.87,14.5 52.93,14.5 
	53.05,14.5 53.11,14.5 53.18,14.5 53.3,14.5 53.36,14.44 53.42,14.44 53.49,14.38 53.55,14.38 53.61,14.38 53.67,14.38 53.79,14.38 
	53.86,14.31 53.92,14.31 53.92,14.25 53.98,14.25 53.98,14.19 53.98,14.13 53.98,14.07 54.04,14.07 54.04,14 54.1,13.94 
	54.17,13.88 54.17,13.82 54.29,13.82 54.29,13.76 54.35,13.76 54.41,13.76 54.47,13.76 54.54,13.7 54.6,13.63 54.66,13.63 
	54.72,13.63 54.72,13.57 54.78,13.57 54.85,13.51 54.85,13.45 54.91,13.45 54.91,13.39 54.97,13.39 55.03,13.39 55.09,13.39 
	55.15,13.39 55.22,13.39 55.22,13.32 55.28,13.32 55.28,13.26 55.34,13.26 55.4,13.2 55.46,13.2 55.53,13.2 55.59,13.2 55.65,13.2 
	55.71,13.2 55.77,13.2 55.83,13.2 55.9,13.2 55.96,13.2 56.02,13.2 56.08,13.2 56.08,13.14 56.08,13.08 56.08,13.02 56.08,12.95 
	56.14,12.89 56.27,12.83 56.33,12.77 56.39,12.77 56.45,12.77 56.52,12.77 56.58,12.71 56.64,12.71 56.64,12.77 56.7,12.83 
	56.7,12.77 56.76,12.77 56.82,12.77 56.89,12.71 56.95,12.71 57.01,12.71 57.07,12.71 57.07,12.77 57.13,12.77 57.2,12.77 
	57.26,12.77 57.32,12.77 57.38,12.77 57.44,12.77 57.5,12.77 57.5,12.83 57.57,12.83 57.63,12.83 57.63,12.89 57.75,12.95 
	57.81,13.02 57.81,13.08 57.94,13.14 58,13.14 58,13.2 58,13.26 58,13.32 58,13.39 58,13.45 58,13.51 58.06,13.51 58.12,13.51 
	58.18,13.51 58.25,13.51 58.31,13.45 58.31,13.39 58.31,13.32 58.31,13.26 58.31,13.2 58.37,13.14 58.37,13.02 58.37,12.95 
	58.37,12.89 58.43,12.83 58.49,12.83 58.56,12.77 58.62,12.77 58.62,12.71 58.62,12.64 58.62,12.58 58.68,12.58 58.74,12.52 
	58.8,12.52 58.8,12.46 58.8,12.4 58.8,12.34 58.86,12.27 58.86,12.21 58.93,12.21 58.99,12.15 59.05,12.15 59.05,12.09 59.11,12.03 
	59.17,12.03 59.24,11.96 59.3,11.96 59.36,11.96 59.42,11.96 59.42,12.03 59.48,12.03 59.48,12.09 59.54,12.09 59.61,12.09 
	59.67,12.09 59.73,12.15 59.79,12.15 59.79,12.21 59.85,12.21 59.85,12.34 59.92,12.4 59.92,12.46 59.85,12.52 59.85,12.58 
	59.79,12.71 59.79,12.77 59.79,12.83 59.85,12.83 59.92,12.89 59.92,12.95 59.98,12.95 59.98,13.02 59.92,13.08 59.92,13.14 
	59.92,13.2 59.92,13.26 59.98,13.26 59.98,13.32 60.04,13.32 60.04,13.39 60.04,13.45 59.98,13.45 59.92,13.45 59.92,13.51 
	59.92,13.57 59.98,13.63 59.98,13.7 60.04,13.76 60.1,13.76 60.1,13.82 60.16,13.82 60.1,13.88 60.1,14 60.1,14.07 60.1,14.13 
	60.16,14.13 60.22,14.13 60.29,14.13 60.29,14.19 60.29,14.25 60.35,14.31 60.41,14.31 60.47,14.31 60.53,14.31 60.53,14.38 
	60.6,14.38 60.66,14.31 60.72,14.31 60.72,14.25 60.78,14.25 60.78,14.19 60.84,14.19 60.84,14.13 60.9,14.13 60.97,14.13 
	60.97,14.19 60.9,14.19 60.9,14.25 60.97,14.25 60.97,14.31 60.97,14.38 60.97,14.44 60.97,14.5 61.03,14.5 61.03,14.56 
	61.09,14.56 61.09,14.5 61.15,14.5 61.15,14.44 61.21,14.44 61.28,14.44 61.34,14.44 61.4,14.5 61.4,14.44 61.46,14.44 61.46,14.5 
	61.52,14.5 61.65,14.44 61.71,14.44 61.77,14.38 61.77,14.44 61.83,14.5 61.89,14.56 61.96,14.62 62.02,14.68 61.96,14.75 
	62.02,14.75 62.02,14.81 62.08,14.81 62.08,14.87 62.14,14.87 62.2,14.87 62.2,14.93 62.2,14.99 62.14,15.06 62.2,15.06 62.2,15.12 
	62.27,15.12 62.27,15.18 62.33,15.18 62.39,15.24 62.45,15.24 62.45,15.3 62.45,15.36 62.45,15.43 62.51,15.43 62.51,15.49 
	62.57,15.49 62.64,15.49 62.64,15.55 62.64,15.61 62.7,15.67 62.7,15.74 62.7,15.8 62.76,15.8 62.82,15.86 62.82,15.92 62.88,15.92 
	62.88,15.98 62.95,15.98 62.95,16.04 62.88,16.04 62.88,16.11 62.88,16.17 62.88,16.23 62.88,16.29 62.95,16.29 63.01,16.29 
	63.07,16.29 63.07,16.35 63.13,16.35 63.13,16.42 63.19,16.42 63.25,16.42 63.32,16.42 63.38,16.42 63.44,16.42 63.5,16.42 
	63.56,16.42 63.56,16.48 63.56,16.54 63.63,16.6 63.63,16.66 63.63,16.73 63.69,16.73 63.69,16.79 63.75,16.79 63.75,16.85 
	63.81,16.85 63.87,16.91 63.93,16.91 63.93,16.97 63.93,17.03 63.93,17.1 63.87,17.1 63.87,17.16 63.93,17.16 63.93,17.22 64,17.22 
	64.06,17.22 64.06,17.28 64.12,17.28 64.12,17.34 64.18,17.28 64.24,17.28 64.31,17.28 64.31,17.22 64.37,17.22 64.43,17.22 
	64.43,17.28 64.49,17.28 64.55,17.34 64.61,17.41 64.68,17.41 64.74,17.41 64.74,17.47 64.74,17.53 64.74,17.59 64.74,17.65 
	64.8,17.65 64.86,17.71 64.92,17.71 65.05,17.78 65.11,17.84 65.17,17.84 65.23,17.84 65.29,17.84 65.48,17.78 65.54,17.78 
	65.54,17.71 65.6,17.71 65.6,17.78 65.67,17.78 65.73,17.84 65.79,17.84 65.79,17.9 65.85,17.9 65.91,17.96 65.97,18.02 
	66.04,18.02 66.04,18.09 66.1,18.15 66.1,18.21 66.16,18.21 66.16,18.27 66.22,18.27 66.28,18.27 66.35,18.21 66.35,18.15 
	66.35,18.09 66.35,18.02 66.35,17.96 66.35,17.9 66.41,17.96 66.47,17.96 66.53,17.96 66.53,18.02 66.59,18.02 66.65,18.02 
	66.65,18.09 66.72,18.09 66.78,18.09 66.78,18.02 66.84,18.02 66.9,18.02 66.9,18.09 66.96,18.09 66.96,18.15 67.03,18.15 
	67.09,18.15 67.09,18.21 67.15,18.15 67.15,18.21 67.21,18.21 67.27,18.21 67.34,18.21 67.4,18.21 67.4,18.27 67.4,18.33 
	67.46,18.33 67.46,18.39 67.52,18.39 67.52,18.46 67.58,18.46 67.58,18.52 67.58,18.58 67.64,18.58 67.64,18.64 67.64,18.7 
	67.64,18.77 67.71,18.77 67.71,18.83 67.71,18.89 67.71,18.95 67.77,18.95 67.83,18.95 67.83,19.01 67.89,19.01 67.95,19.07 
	68.02,19.07 68.08,19.07 68.14,19.07 68.2,19.07 68.26,19.07 68.32,19.07 68.32,19.14 68.39,19.14 68.45,19.14 68.45,19.07 
	68.51,19.07 68.51,19.01 68.57,18.89 68.57,18.83 68.57,18.77 68.57,18.7 68.57,18.64 68.63,18.64 68.7,18.64 68.76,18.64 
	68.82,18.64 68.82,18.58 68.88,18.58 68.94,18.52 69,18.52 69,18.46 69.07,18.39 69.07,18.33 69.13,18.33 69.19,18.33 69.25,18.21 
	69.31,18.15 69.31,18.09 69.38,18.09 69.44,18.02 69.44,17.96 69.5,17.96 69.56,17.96 69.62,17.96 69.62,17.9 69.68,17.84 
	69.68,17.78 69.68,17.71 69.68,17.65 69.62,17.59 69.62,17.53 69.62,17.47 69.62,17.41 69.68,17.41 69.75,17.28 69.75,17.22 
	69.81,17.16 69.81,17.1 69.93,17.03 69.99,16.97 70.12,16.79 70.18,16.66 70.24,16.66 70.3,16.6 70.36,16.6 70.43,16.6 70.49,16.66 
	70.55,16.66 70.61,16.73 70.67,16.73 70.74,16.73 70.74,16.66 70.8,16.66 70.8,16.6 70.86,16.6 70.86,16.66 70.92,16.66 
	70.98,16.66 71.04,16.6 71.11,16.6 71.17,16.6 71.23,16.6 71.29,16.6 71.35,16.6 71.42,16.6 71.48,16.6 71.54,16.6 71.54,16.66 
	71.6,16.66 71.6,16.73 71.66,16.73 71.73,16.73 71.73,16.79 71.79,16.79 71.85,16.79 71.85,16.85 71.85,16.91 71.85,16.97 
	71.85,17.03 71.85,17.1 71.85,17.16 71.91,17.16 71.91,17.22 71.91,17.28 71.97,17.28 71.97,17.34 71.97,17.41 71.97,17.47 
	71.97,17.53 71.91,17.59 71.91,17.65 71.91,17.71 71.91,17.78 71.91,17.84 71.91,17.9 71.85,17.9 71.85,17.96 71.85,18.02 
	71.85,18.09 71.85,18.15 71.79,18.27 71.85,18.33 71.85,18.39 71.85,18.46 71.85,18.52 71.85,18.58 71.85,18.64 71.85,18.7 
	71.91,18.7 71.91,18.77 71.97,18.77 72.03,18.77 72.1,18.77 72.1,18.83 72.03,18.89 72.03,18.95 72.1,19.01 72.1,19.07 72.03,19.14 
	72.03,19.2 72.03,19.26 72.03,19.32 72.1,19.32 72.1,19.38 72.16,19.38 72.16,19.45 72.16,19.51 72.22,19.51 72.22,19.57 
	72.22,19.63 72.28,19.63 72.28,19.69 72.34,19.69 72.34,19.75 72.34,19.82 72.34,19.88 72.41,19.94 72.41,20 72.47,20.06 
	72.53,20.06 72.53,20.13 72.59,20.13 72.65,20.13 72.65,20.19 72.65,20.25 72.71,20.25 72.71,20.31 72.71,20.43 72.71,20.5 
	72.78,20.5 72.78,20.56 72.84,20.62 72.78,20.68 72.71,20.68 72.71,20.74 72.78,20.74 72.78,20.81 72.78,20.87 72.78,20.93 
	72.84,20.99 72.84,21.05 72.9,21.11 72.9,21.18 72.9,21.24 72.9,21.3 72.96,21.36 72.96,21.42 73.02,21.42 73.09,21.42 73.15,21.49 
	73.21,21.49 73.27,21.49 73.33,21.49 73.39,21.55 73.39,21.61 73.46,21.61 73.46,21.67 73.46,21.73 73.52,21.79 73.52,21.86 
	73.46,21.92 73.52,21.98 73.52,22.04 73.52,22.1 73.58,22.17 73.58,22.23 73.58,22.35 73.58,22.41 73.58,22.47 73.58,22.54 
	73.52,22.6 73.52,22.66 73.52,22.72 73.52,22.78 73.52,22.85 73.52,22.91 73.52,22.97 73.52,23.03 73.52,23.09 73.46,23.22 
	73.39,23.22 73.33,23.28 73.33,23.34 73.33,23.4 73.39,23.4 73.46,23.46 73.52,23.53 73.52,23.59 73.58,23.59 73.58,23.65 
	73.52,23.65 73.46,23.65 73.46,23.71 73.39,23.77 73.39,23.9 73.39,23.96 73.39,24.02 73.39,24.08 73.33,24.08 73.33,24.14 
	73.33,24.21 73.39,24.21 73.33,24.27 73.33,24.33 73.27,24.39 73.21,24.39 73.21,24.45 73.27,24.52 73.27,24.58 73.27,24.64 
	73.27,24.7 73.33,24.76 73.33,24.82 73.33,24.89 73.33,24.95 73.39,25.01 73.39,25.07 73.46,25.07 73.46,25.13 73.46,25.2 
	73.46,25.26 73.46,25.32 73.52,25.38 73.52,25.44 73.52,25.5 73.52,25.57 73.46,25.63 73.46,25.69 73.46,25.75 73.46,25.81 
	73.39,25.81 73.39,25.88 73.39,25.94 73.33,25.94 73.33,26 73.39,26.06 73.46,26.12 73.52,26.12 73.58,26.18 73.7,26.18 
	73.77,26.18 73.89,26.25 73.89,26.31 73.83,26.37 73.77,26.43 73.7,26.49 73.64,26.56 73.58,26.56 73.58,26.62 73.58,26.68 
	73.58,26.74 73.58,26.8 73.58,26.86 73.58,26.93 73.58,26.99 73.58,27.05 73.58,27.11 73.58,27.17 73.64,27.24 73.7,27.3 
	73.77,27.36 73.83,27.36 73.83,27.42 73.89,27.42 73.89,27.48 73.89,27.54 73.95,27.61 73.95,27.67 74.01,27.67 74.01,27.73 
	74.07,27.73 74.14,27.73 74.14,27.79 74.2,27.79 74.2,27.85 74.26,27.85 74.32,27.85 74.32,27.79 74.38,27.79 74.45,27.79 
	74.45,27.85 74.51,27.85 74.57,27.85 74.57,27.79 74.63,27.79 74.69,27.85 74.75,27.85 74.75,27.79 74.82,27.79 74.82,27.85 
	74.88,27.85 74.94,27.85 75,27.85 75,27.92 75.06,27.92 75.13,27.92 75.13,27.85 75.19,27.85 75.19,27.79 75.19,27.73 75.25,27.73 
	75.31,27.73 75.31,27.79 75.37,27.79 75.43,27.79 75.43,27.85 75.5,27.85 75.56,27.85 75.56,27.92 75.62,27.92 75.62,27.98 
	75.68,27.98 75.68,28.04 75.68,28.1 75.74,28.1 75.81,28.1 75.81,28.16 75.81,28.23 75.87,28.23 75.87,28.29 75.93,28.29 
	75.93,28.23 75.99,28.23 76.05,28.23 76.11,28.23 76.11,28.29 76.11,28.35 76.05,28.35 76.05,28.41 76.05,28.47 75.99,28.47 
	75.99,28.53 75.99,28.6 75.93,28.6 75.93,28.66 75.87,28.66 75.87,28.72 75.87,28.78 75.87,28.84 75.87,28.97 75.93,29.03 
	75.99,29.15 75.99,29.21 75.99,29.28 75.99,29.34 76.05,29.34 76.05,29.4 75.99,29.4 75.99,29.46 76.05,29.46 76.05,29.52 
	76.05,29.59 76.05,29.65 76.05,29.71 76.05,29.77 76.11,29.83 76.05,29.89 76.05,29.96 76.05,30.02 76.05,30.08 76.05,30.14 
	76.05,30.2 76.11,30.2 76.11,30.27 76.11,30.33 76.18,30.39 76.24,30.39 76.3,30.39 76.49,30.39 76.49,30.45 76.55,30.45 
	76.61,30.51 76.67,30.51 76.67,30.57 76.73,30.57 76.73,30.51 76.8,30.51 76.8,30.57 76.86,30.57 76.92,30.57 76.92,30.64 
	76.98,30.7 77.04,30.82 77.04,30.88 77.1,30.88 77.1,30.95 77.1,31.01 77.04,31.07 77.04,31.13 77.04,31.19 77.04,31.25 
	77.04,31.38 77.04,31.5 76.98,31.56 76.92,31.56 76.92,31.63 76.86,31.63 76.86,31.69 76.86,31.75 76.92,31.75 76.92,31.81 
	76.86,31.81 76.8,31.87 76.73,31.87 76.73,31.93 76.73,32 76.73,32.06 76.73,32.18 76.8,32.24 76.92,32.37 76.98,32.61 76.98,32.8 
	76.92,32.86 76.73,32.99 76.73,33.11 76.92,33.67 77.17,33.67 77.41,33.79 77.54,34.04 77.54,34.1 77.6,34.28 77.78,34.41 
	77.85,34.53 77.78,34.72 77.6,35.03 77.41,35.15 77.29,35.27 77.23,35.4 77.23,35.52 77.17,35.52 77.17,35.58 77.1,35.64 
	77.04,35.64 77.04,35.71 76.98,35.71 76.92,35.71 76.86,35.71 76.8,35.71 76.8,35.77 76.73,35.77 76.73,35.83 76.67,35.83 
	76.61,35.83 76.55,35.83 76.49,35.83 76.42,35.83 76.36,35.89 76.3,35.89 76.3,35.83 76.24,35.83 76.24,35.89 76.18,35.89 
	76.11,35.83 76.11,35.89 76.05,35.89 75.99,35.89 75.93,35.89 75.93,35.95 75.87,35.95 75.87,36.02 75.81,36.02 75.74,36.02 
	75.74,36.08 75.74,36.14 75.68,36.14 75.68,36.2 75.62,36.26 75.62,36.32 75.62,36.39 75.62,36.45 75.62,36.51 75.62,36.57 
	75.62,36.63 75.56,36.7 75.56,36.76 75.5,36.82 75.5,36.88 75.56,36.88 75.56,36.94 75.56,37 75.62,37 75.62,37.07 75.68,37.07 
	75.68,37.13 75.74,37.13 75.74,37.19 75.74,37.25 75.81,37.25 75.81,37.31 75.81,37.38 75.87,37.38 75.87,37.44 75.93,37.5 
	75.93,37.56 75.87,37.56 75.81,37.62 75.74,37.62 75.74,37.68 75.81,37.68 75.81,37.75 75.87,37.75 75.87,37.81 75.87,37.87 
	75.93,37.87 75.93,37.93 75.93,37.99 75.93,38.06 75.87,38.06 75.87,38.12 75.81,38.12 75.74,38.18 75.68,38.18 75.62,38.24 
	75.56,38.24 75.43,38.24 75.37,38.24 75.31,38.24 75.19,38.24 75.06,38.24 75,38.24 74.88,38.18 74.82,38.12 74.75,38.12 
	74.69,38.12 74.63,38.12 74.63,38.06 74.57,38.06 74.51,38.06 74.51,37.99 74.45,37.99 74.38,37.93 74.32,37.99 74.26,37.99 
	74.2,37.99 74.14,37.99 74.07,37.99 73.95,37.99 73.89,37.99 73.83,37.93 73.77,37.93 73.7,37.93 73.7,37.99 73.64,37.99 
	73.64,38.06 73.64,38.12 73.58,38.18 73.58,38.24 73.52,38.3 73.46,38.36 73.46,38.43 73.46,38.49 73.46,38.55 73.46,38.61 
	73.39,38.61 73.33,38.61 73.27,38.61 73.27,38.67 73.21,38.67 73.15,38.67 73.09,38.67 73.02,38.67 72.96,38.67 72.9,38.74 
	72.84,38.74 72.84,38.8 72.78,38.8 72.71,38.86 72.65,38.92 72.59,38.98 72.59,39.04 72.59,39.11 72.59,39.17 72.59,39.23 
	72.65,39.29 72.65,39.35 72.71,39.42 72.84,39.48 72.9,39.48 72.96,39.54 73.02,39.54 73.02,39.6 73.09,39.66 73.09,39.73 
	73.02,39.73 73.02,39.79 73.02,39.85 73.02,39.91 72.96,39.97 72.96,40.03 72.9,40.03 72.9,40.1 72.96,40.16 72.9,40.22 72.9,40.28 
	72.9,40.34 72.9,40.41 72.96,40.47 72.96,40.53 72.96,40.59 72.96,40.65 72.96,40.71 72.9,40.71 72.84,40.78 72.78,40.84 
	72.78,40.9 72.78,40.96 72.78,41.02 72.78,41.09 72.78,41.15 72.71,41.21 72.71,41.27 72.71,41.33 72.71,41.39 72.65,41.39 
	72.59,41.46 72.53,41.46 72.53,41.52 72.47,41.52 72.41,41.52 72.41,41.58 72.34,41.58 72.28,41.64 72.28,41.7 72.22,41.83 
	72.16,41.95 72.16,42.01 72.16,42.07 72.16,42.14 72.16,42.2 72.22,42.2 72.22,42.26 72.22,42.32 72.28,42.32 72.28,42.38 
	72.28,42.45 72.22,42.45 72.22,42.51 72.16,42.51 72.16,42.57 72.1,42.57 72.03,42.57 71.97,42.57 71.91,42.57 71.85,42.63 
	71.91,42.69 71.97,42.75 71.97,42.82 72.03,42.88 71.97,42.88 71.97,42.94 71.91,42.94 71.91,43 71.91,43.06 71.91,43.13 
	71.91,43.19 71.85,43.19 71.85,43.13 71.79,43.13 71.73,43.06 71.66,43.06 71.66,43.13 71.6,43.13 71.6,43.19 71.54,43.19 
	71.54,43.25 71.48,43.25 71.42,43.25 71.35,43.31 71.29,43.31 71.23,43.31 71.17,43.31 71.17,43.37 71.11,43.37 71.04,43.37 
	71.04,43.43 71.04,43.5 71.11,43.5 71.11,43.56 71.04,43.56 71.04,43.62 70.98,43.62 70.98,43.68 71.04,43.68 71.04,43.74 
	71.04,43.81 70.98,43.81 70.98,43.87 71.04,43.87 71.04,43.93 70.98,43.99 70.98,43.93 70.92,43.93 70.92,43.99 70.92,44.05 
	70.92,44.11 70.92,44.18 70.86,44.18 70.86,44.24 70.92,44.24 70.92,44.3 70.92,44.36 70.92,44.42 70.86,44.42 70.86,44.49 
	70.92,44.49 70.92,44.55 70.92,44.61 70.92,44.67 70.92,44.73 70.92,44.79 70.92,44.86 70.92,44.92 70.92,44.98 70.92,45.04 
	70.98,45.04 70.98,45.1 70.98,45.17 71.04,45.23 71.11,45.23 71.11,45.29 71.17,45.29 71.17,45.35 71.17,45.41 71.17,45.47 
	71.11,45.47 71.11,45.54 71.17,45.54 71.23,45.54 71.23,45.6 71.23,45.66 71.23,45.72 71.17,45.72 71.17,45.78 71.23,45.78 
	71.23,45.85 71.17,45.85 71.17,45.91 71.17,45.97 71.17,46.03 71.23,46.09 71.23,46.16 71.29,46.16 71.29,46.22 71.35,46.22 
	71.35,46.28 71.35,46.34 71.29,46.34 71.29,46.4 71.35,46.4 71.35,46.46 71.35,46.53 71.29,46.53 71.29,46.59 71.29,46.65 
	71.35,46.65 71.35,46.71 71.35,46.77 71.35,46.84 71.29,46.9 71.29,46.96 71.29,47.02 71.23,47.08 71.17,47.08 71.11,47.08 
	71.11,47.14 71.04,47.21 70.98,47.21 70.98,47.27 70.98,47.33 71.04,47.33 71.04,47.39 71.11,47.39 71.04,47.45 71.04,47.52 
	71.04,47.58 70.98,47.58 70.92,47.58 70.92,47.64 70.92,47.7 70.86,47.7 70.86,47.76 70.86,47.82 70.8,47.82 70.8,47.89 70.8,47.95 
	70.8,48.01 70.8,48.07 70.74,48.07 70.67,48.07 70.61,48.07 70.55,48.07 70.55,48.01 70.49,48.01 70.43,48.01 70.36,48.01 
	70.3,48.01 70.24,48.01 70.24,48.07 70.18,48.07 70.18,48.13 70.12,48.13 70.12,48.2 70.12,48.26 70.06,48.26 70.06,48.2 
	69.99,48.2 69.93,48.2 69.87,48.2 69.87,48.13 69.81,48.13 69.75,48.13 69.68,48.13 69.62,48.13 69.62,48.07 69.56,48.07 
	69.5,48.07 69.44,48.13 69.38,48.13 69.38,48.07 69.38,48.01 69.38,47.95 69.31,47.95 69.31,47.89 69.25,47.89 69.19,47.82 
	69.13,47.82 69.07,47.82 69.07,47.89 69.07,47.95 69.07,48.01 69.07,48.07 69.13,48.07 69.13,48.13 69.07,48.13 69,48.13 
	68.94,48.13 68.88,48.13 68.82,48.13 68.82,48.07 68.76,48.07 68.7,48.07 68.7,48.13 68.7,48.2 68.76,48.2 68.76,48.26 68.7,48.32 
	68.63,48.32 68.57,48.32 68.51,48.38 68.45,48.44 68.39,48.44 68.39,48.5 68.39,48.57 68.32,48.63 68.32,48.69 68.32,48.75 
	68.26,48.75 68.26,48.81 68.32,48.88 68.39,48.88 68.39,48.81 68.45,48.81 68.51,48.81 68.51,48.88 68.45,48.88 68.45,48.94 
	68.39,48.94 68.39,49 68.32,49 68.32,49.06 68.26,49.06 68.26,49.12 68.2,49.12 68.14,49.18 68.14,49.12 68.14,49.06 68.14,49 
	68.08,49 68.08,49.06 68.02,49.06 68.02,49.12 67.95,49.12 67.95,49.06 67.89,49.06 67.89,49.12 67.83,49.12 67.83,49.18 
	67.83,49.25 67.77,49.25 67.71,49.18 67.71,49.12 67.64,49.12 67.64,49.18 67.64,49.25 67.58,49.25 67.52,49.25 67.46,49.31 
	67.46,49.25 67.4,49.25 67.34,49.25 67.27,49.25 67.27,49.31 67.27,49.37 67.27,49.43 67.27,49.49 67.21,49.49 67.21,49.43 
	67.15,49.43 67.15,49.49 67.15,49.56 67.15,49.62 67.09,49.62 67.03,49.62 66.96,49.62 66.96,49.68 66.96,49.74 66.9,49.74 
	66.84,49.74 66.84,49.8 66.9,49.8 66.9,49.86 66.84,49.93 66.22,49.93 66.16,49.93 66.16,49.99 66.16,50.05 66.16,50.11 66.1,50.11 
	66.04,50.05 65.97,50.05 65.91,50.05 65.91,50.11 65.91,50.17 65.91,50.24 65.85,50.17 65.79,50.11 65.73,50.17 65.67,50.17 
	65.67,50.24 65.6,50.24 65.54,50.24 65.48,50.24 65.48,50.3 65.42,50.3 65.36,50.3 65.36,50.24 65.29,50.24 65.23,50.24 
	65.23,50.17 65.17,50.11 65.11,50.11 65.05,50.05 65.05,49.99 64.99,49.99 64.92,49.99 64.86,49.99 64.8,49.93 64.74,49.93 
	64.68,49.93 64.68,49.99 64.61,49.99 64.61,49.93 64.55,49.93 64.49,49.93 64.43,49.93 64.37,49.93 64.31,49.93 64.31,49.99 
	64.24,49.99 64.24,49.93 64.18,49.93 64.12,49.93 64.06,49.99 64,49.99 63.93,49.99 63.87,49.99 63.81,50.05 63.81,50.11 
	63.75,50.05 63.75,50.11 63.75,50.17 63.69,50.17 63.56,50.17 63.25,50.11 63.07,49.99 62.64,49.37 62.57,49.31 62.51,49.25 
	62.45,49.31 62.33,49.31 62.2,49.43 62.14,49.43 62.02,49.62 61.96,49.68 62.02,49.93 61.96,50.24 62.14,50.42 62.27,50.67 
	62.27,50.92 62.33,50.98 62.39,50.98 62.45,51.04 62.51,51.04 62.51,50.98 62.57,50.98 62.64,51.04 62.7,51.04 62.7,51.1 
	62.76,51.16 62.82,51.1 62.88,51.1 62.95,51.1 62.95,51.16 62.95,51.22 63.01,51.22 63.07,51.29 63.07,51.35 63.07,51.41 
	63.07,51.47 63.07,51.53 63.13,51.6 63.19,51.6 63.19,51.66 63.19,51.72 63.25,51.72 63.19,51.78 63.25,51.84 63.25,51.91 
	63.25,51.97 63.25,52.03 63.25,52.09 63.25,52.15 63.19,52.15 63.13,52.15 63.13,52.21 63.13,52.28 63.13,52.34 63.13,52.4 
	63.13,52.46 63.13,52.52 63.13,52.59 63.13,52.65 63.13,52.71 63.13,52.77 63.13,52.83 63.13,52.89 63.13,52.96 63.13,53.02 
	63.13,53.08 63.13,53.14 63.07,53.2 63.07,53.27 63.01,53.27 63.01,53.33 63.07,53.39 63.13,53.39 63.13,53.45 63.19,53.45 
	63.25,53.45 63.25,53.51 63.32,53.51 63.32,53.45 63.38,53.45 63.44,53.45 63.5,53.45 63.5,53.39 63.56,53.39 63.63,53.39 
	63.69,53.45 63.75,53.45 63.75,53.51 63.81,53.57 63.81,53.64 63.81,53.7 63.87,53.7 63.93,53.76 63.93,53.82 63.93,53.95 
	63.93,54.01 63.93,54.13 63.93,54.19 63.87,54.25 63.93,54.32 63.93,54.38 63.93,54.44 63.93,54.5 64,54.5 64,54.56 63.93,54.63 
	63.93,54.69 63.93,54.75 63.93,54.81 63.93,54.87 63.93,54.93 63.93,55 63.93,55.06 64,55.06 64.06,55.06 64.06,55.12 64.12,55.18 
	64.18,55.18 64.24,55.18 64.24,55.24 64.24,55.31 64.31,55.37 64.31,55.43 64.24,55.43 64.24,55.49 64.24,55.55 64.31,55.55 
	64.31,55.61 64.31,55.68 64.24,55.74 64.24,55.8 64.24,55.86 64.18,55.92 64.24,55.99 64.24,56.05 64.31,56.05 64.31,56.11 
	64.31,56.17 64.24,56.17 64.24,56.23 64.24,56.29 64.18,56.29 64.12,56.36 64.12,56.42 64.06,56.42 64,56.48 64,56.54 64,56.6 
	63.93,56.6 63.93,56.67 63.93,56.73 63.93,56.79 63.93,56.85 64,56.85 64,56.91 64,56.97 64,57.04 64.06,57.1 64.06,57.16 
	64.06,57.22 64.06,57.28 64.06,57.35 64.06,57.41 64.12,57.47 64.12,57.59 64.12,57.66 64.12,57.78 64.12,57.84 64.18,57.96 
	64.18,58.03 64.24,58.03 64.31,58.03 64.31,58.09 64.31,58.15 64.37,58.21 64.37,58.27 64.37,58.34 64.37,58.4 64.43,58.4 
	64.43,58.46 64.49,58.46 64.55,58.46 64.61,58.52 64.61,58.58 64.68,58.58 64.68,58.64 64.68,58.71 64.74,58.71 64.74,58.77 
	64.8,58.83 64.86,58.89 64.92,58.95 64.99,59.02 64.99,59.08 64.99,59.14 64.99,59.2 65.05,59.2 65.05,59.26 65.11,59.26 
	65.11,59.32 65.17,59.32 65.23,59.39 65.23,59.45 65.23,59.51 65.29,59.51 65.29,59.57 65.36,59.57 65.36,59.63 65.29,59.63 
	65.29,59.7 65.29,59.76 65.29,59.82 65.29,59.88 65.29,59.94 65.29,60 65.23,60 65.17,60.07 65.11,60.13 65.05,60.13 65.05,60.19 
	65.05,60.25 65.05,60.31 65.05,60.38 64.99,60.5 64.99,60.56 64.99,60.62 64.92,60.68 64.92,60.75 64.92,60.81 64.92,60.87 
	64.92,60.93 64.92,60.99 64.86,60.99 64.8,61.06 64.8,61.12 64.8,61.18 64.8,61.24 64.8,61.3 64.74,61.3 64.68,61.3 64.61,61.3 
	64.55,61.3 64.55,61.36 64.49,61.36 64.43,61.36 64.43,61.3 64.37,61.3 64.37,61.36 64.31,61.43 64.24,61.43 64.24,61.49 
	64.24,61.55 64.24,61.61 64.24,61.67 64.18,61.74 64.18,61.8 64.18,61.86 64.18,61.92 64.18,61.98 64.18,62.04 64.18,62.11 
	64.24,62.11 64.24,62.17 64.24,62.23 64.18,62.23 64.18,62.29 64.24,62.35 64.24,62.42 64.31,62.42 64.37,62.42 64.43,62.42 
	64.49,62.48 64.55,62.48 64.61,62.48 64.68,62.48 64.74,62.48 64.8,62.48 64.86,62.48 64.86,62.54 64.92,62.54 64.92,62.6 
	64.99,62.6 65.05,62.6 65.11,62.66 65.17,62.66 65.23,62.72 65.23,62.79 65.29,62.79 65.29,62.85 65.29,62.91 65.29,62.97 
	65.36,62.97 65.36,63.03 65.36,63.1 65.36,63.16 65.42,63.16 65.48,63.16 65.54,63.16 65.6,63.22 65.6,63.28 65.67,63.28 
	65.67,63.34 65.67,63.4 65.67,63.47 65.67,63.53 65.73,63.53 65.79,63.59 65.85,63.59 65.91,63.59 65.97,63.59 66.04,63.59 
	66.1,63.59 66.16,63.59 66.16,63.65 66.22,63.65 66.22,63.71 66.22,63.78 66.22,63.84 66.22,63.9 66.22,63.96 66.22,64.02 
	66.22,64.08 66.16,64.08 66.16,64.15 66.22,64.15 66.22,64.21 66.22,64.27 66.28,64.27 66.28,64.33 66.35,64.33 66.41,64.33 
	66.41,64.39 66.47,64.39 66.47,64.46 66.47,64.52 66.53,64.58 66.53,64.64 66.47,64.7 66.47,64.77 66.47,64.83 66.41,64.83 
	66.41,64.89 66.41,64.95 66.41,65.01 66.47,65.01 66.47,65.07 66.41,65.14 66.35,65.14 66.35,65.2 66.28,65.2 66.28,65.26 
	66.22,65.26 66.22,65.32 66.22,65.38 66.16,65.38 66.16,65.45 66.16,65.51 66.1,65.51 66.04,65.51 65.97,65.51 65.91,65.51 
	65.85,65.51 65.85,65.57 65.79,65.57 65.73,65.63 65.6,65.63 65.54,65.69 65.48,65.75 65.48,65.82 65.48,65.88 65.48,65.94 
	65.48,66 65.48,66.06 65.48,66.13 65.42,66.19 65.42,66.25 65.36,66.31 65.36,66.37 65.42,66.37 65.36,66.43 65.36,66.5 
	65.36,66.56 65.36,66.62 65.36,66.68 65.36,66.81 65.36,66.87 65.29,66.87 65.29,66.93 65.29,66.99 65.29,67.05 65.36,67.11 
	65.36,67.18 65.36,67.24 65.36,67.3 65.42,67.3 65.42,67.36 65.48,67.36 65.48,67.42 65.48,67.49 65.48,67.55 65.48,67.61 
	65.48,67.67 65.48,67.73 65.48,67.79 65.54,67.79 65.54,67.86 65.54,67.92 65.54,67.98 65.48,68.04 65.48,68.1 65.48,68.17 
	65.48,68.23 65.48,68.29 65.42,68.29 65.36,68.35 65.29,68.35 65.29,68.41 65.29,68.47 65.23,68.54 65.17,68.6 65.11,68.66 
	65.11,68.6 65.05,68.6 65.05,68.66 65.05,68.72 65.05,68.78 65.05,68.85 65.05,68.91 65.05,68.97 65.11,68.97 65.11,69.03 
	65.17,69.03 65.23,69.03 65.23,69.09 65.29,69.09 65.36,69.09 65.42,69.09 65.48,69.15 65.48,69.22 65.54,69.22 65.54,69.28 
	65.54,69.34 65.6,69.4 65.6,69.46 65.6,69.53 65.67,69.59 65.73,69.59 65.73,69.65 65.79,69.65 65.79,69.71 65.85,69.71 
	65.85,69.77 65.79,69.83 65.79,69.9 65.79,69.96 65.79,70.02 65.73,70.02 65.67,70.08 65.67,70.14 65.6,70.21 65.54,70.27 
	65.48,70.33 65.48,70.39 65.48,70.45 65.48,70.51 65.42,70.51 65.42,70.58 65.48,70.64 65.48,70.7 65.48,70.76 65.48,70.82 
	65.48,70.89 65.54,70.95 65.54,71.01 65.54,71.07 65.54,71.13 65.54,71.2 65.48,71.2 65.48,71.26 65.48,71.32 65.48,71.38 
	65.48,71.44 65.54,71.5 65.54,71.57 65.54,71.63 65.6,71.63 65.6,71.69 65.67,71.69 65.73,71.75 65.79,71.75 65.79,71.81 
	65.79,71.88 65.85,71.88 65.85,71.94 65.79,71.94 65.79,72 65.79,72.06 65.79,72.12 65.79,72.18 65.73,72.18 65.73,72.25 
	65.73,72.31 65.73,72.37 65.79,72.37 65.79,72.43 65.85,72.43 65.85,72.49 65.91,72.49 65.91,72.56 65.85,72.62 65.85,72.68 
	65.85,72.74 65.85,72.8 65.85,72.86 65.85,72.93 65.85,72.99 65.79,72.99 65.79,73.05 65.79,73.11 65.73,73.11 65.79,73.17 
	65.79,73.24 65.85,73.24 65.85,73.3 65.79,73.3 65.85,73.36 65.91,73.36 65.91,73.42 65.97,73.42 66.04,73.48 66.1,73.48 
	66.1,73.54 66.1,73.61 66.04,73.67 66.04,73.73 66.1,73.73 66.16,73.73 66.22,73.73 66.22,73.79 66.41,73.79 66.41,73.85 
	66.47,73.85 66.53,73.85 66.59,73.85 66.59,73.92 66.65,73.92 66.72,73.92 66.78,73.98 66.84,73.98 66.84,74.04 66.9,74.04 
	66.9,74.1 66.96,74.16 67.03,74.22 67.03,74.29 67.09,74.35 67.09,74.41 67.15,74.41 67.15,74.47 67.09,74.47 67.15,74.53 
	67.15,74.6 67.15,74.66 67.21,74.72 67.21,74.78 67.21,74.84 67.21,74.9 67.15,74.9 67.09,74.97 67.09,75.03 67.09,75.09 
	67.03,75.09 67.03,75.15 66.96,75.21 66.96,75.28 66.96,75.34 66.9,75.34 66.9,75.4 66.9,75.46 66.9,75.52 66.9,75.58 66.9,75.65 
	66.9,75.71 66.96,75.77 66.96,75.83 66.96,75.89 67.03,76.02 67.03,76.08 67.03,76.14 67.03,76.2 67.03,76.33 67.09,76.39 
	67.09,76.45 67.15,76.45 67.15,76.51 67.15,76.57 67.15,76.64 67.15,76.7 67.21,76.7 67.21,76.76 67.27,76.82 67.27,76.88 
	67.27,76.95 67.27,77.01 67.21,77.01 67.15,77.01 67.09,77.07 67.03,77.13 67.03,77.19 67.03,77.25 67.03,77.32 67.03,77.38 
	67.03,77.44 66.96,77.5 66.96,77.56 66.9,77.56 66.9,77.63 66.96,77.69 66.96,77.75 67.03,77.81 66.96,77.81 66.96,77.87 
	66.96,77.93 66.9,77.93 66.9,78 66.9,78.06 66.84,78.06 66.78,78.06 66.78,78.12 66.84,78.12 66.84,78.18 66.84,78.24 66.78,78.31 
	66.72,78.43 66.65,78.49 66.59,78.61 66.59,78.68 66.53,78.68 66.53,78.74 66.59,78.8 66.53,78.8 66.53,78.86 66.53,78.92 
	66.47,78.99 66.41,78.99 66.41,79.05 66.41,79.11 66.41,79.17 66.35,79.17 66.35,79.23 66.41,79.29 66.47,79.36 66.47,79.42 
	66.47,79.48 66.47,79.54 66.47,79.6 66.41,79.73 66.41,79.79 66.35,79.79 66.35,79.85 66.35,79.91 66.41,79.91 66.41,79.97 
	66.47,79.97 66.53,79.97 66.53,80.04 66.53,80.1 66.53,80.16 66.53,80.22 66.53,80.28 66.53,80.35 66.47,80.41 66.47,80.47 
	66.47,80.53 66.41,80.59 66.35,80.65 66.35,80.72 66.28,80.78 66.28,80.9 66.22,80.96 66.22,81.03 66.22,81.09 66.16,81.09 
	66.1,81.15 65.97,81.15 65.91,81.21 65.85,81.27 65.85,81.33 65.85,81.4 65.85,81.46 65.85,81.52 65.79,81.58 65.79,81.64 
	65.79,81.71 65.73,81.77 65.67,81.83 65.67,81.89 65.67,81.95 65.67,82.01 65.67,82.08 65.67,82.14 65.73,82.2 65.73,82.26 
	65.73,82.32 65.67,82.32 65.6,82.32 65.54,82.39 65.48,82.39 65.42,82.45 65.36,82.45 65.29,82.51 65.23,82.51 65.17,82.57 
	65.05,82.57 64.92,82.7 64.86,82.76 64.8,82.76 64.8,82.82 64.74,82.82 64.61,82.82 64.55,82.82 64.49,82.88 64.43,82.94 
	64.37,82.94 64.31,82.94 64.24,82.94 64.24,83 64.24,83.07 64.24,83.13 64.18,83.19 64.18,83.25 64.12,83.25 64.12,83.31 
	64.12,83.38 64.18,83.5 64.24,83.56 64.24,83.62 64.24,83.68 64.24,83.75 64.31,83.75 64.37,83.81 64.37,83.87 64.37,83.93 
	64.37,84.06 64.37,84.12 64.37,84.18 64.37,84.24 64.37,84.36 64.43,84.43 64.43,84.49 64.49,84.49 64.49,84.55 64.55,84.55 
	64.61,84.61 64.74,84.67 64.8,84.74 64.92,84.8 64.99,84.86 65.05,84.92 65.05,84.98 65.05,85.04 65.11,85.04 65.11,85.11 
	65.11,85.17 65.17,85.17 65.17,85.23 65.17,85.29 65.23,85.29 65.23,85.35 65.17,85.35 65.17,85.42 65.17,85.48 65.11,85.54 
	65.11,85.6 65.11,85.66 65.11,85.72 65.05,85.79 65.05,85.85 64.99,85.91 64.99,85.97 64.92,85.97 64.86,85.97 64.86,86.03 
	64.8,86.1 64.8,86.16 64.74,86.16 64.74,86.22 64.74,86.28 64.68,86.34 64.68,86.4 64.68,86.47 64.74,86.47 64.74,86.53 
	64.74,86.59 64.68,86.59 64.61,86.65 64.55,86.71 64.49,86.71 64.49,86.78 64.55,86.84 64.55,86.9 64.55,86.96 64.49,86.96 
	64.49,87.02 64.55,87.02 64.55,87.08 64.55,87.15 64.49,87.15 64.49,87.21 64.43,87.21 64.43,87.27 64.43,87.33 64.43,87.39 
	64.49,87.39 64.49,87.46 64.55,87.46 64.55,87.52 64.61,87.52 64.61,87.58 64.61,87.64 64.68,87.7 64.68,87.83 64.68,87.89 
	64.74,87.89 64.74,87.95 64.68,87.95 64.68,88.01 64.68,88.07 64.74,88.07 64.8,88.07 64.8,88.14 64.8,88.2 64.86,88.26 
	64.86,88.32 64.86,88.38 64.8,88.51 64.8,88.57 64.8,88.63 64.8,88.69 64.8,88.82 64.8,88.88 64.8,88.94 64.86,88.94 64.86,89 
	64.86,89.06 64.8,89.06 64.8,89.13 64.74,89.13 64.68,89.13 64.61,89.13 64.55,89.06 64.49,89.06 64.49,89.19 64.43,89.31 
	64.43,89.37 64.43,89.43 64.37,89.5 64.31,89.5 64.24,89.5 64.18,89.5 64.18,89.56 64.18,89.62 64.12,89.62 64.12,89.68 
	64.06,89.74 64,89.74 64,89.81 64.06,89.81 64.06,89.87 64,89.93 64,89.99 64,90.05 64.06,90.11 64.06,90.18 64.06,90.24 
	64.06,90.3 64.06,90.36 64.06,90.42 64,90.42 64,90.49 64,90.55 64,90.61 63.93,90.61 63.93,90.67 63.93,90.73 63.93,90.79 
	63.93,90.86 63.87,90.86 63.81,90.86 63.81,90.92 63.75,90.92 63.69,90.98 63.63,90.98 63.63,91.04 63.56,91.1 63.56,91.17 
	63.56,91.23 63.56,91.29 63.56,91.35 63.56,91.41 63.5,91.47 63.56,91.54 63.56,91.6 63.56,91.66 63.56,91.72 63.56,91.78 
	63.56,91.85 63.56,91.91 63.56,92.03 63.5,92.09 63.56,92.15 63.56,92.22 63.56,92.28 63.56,92.34 63.56,92.4 63.56,92.46 
	63.56,92.53 63.63,92.53 63.69,92.53 63.75,92.53 63.75,92.59 63.81,92.65 63.81,92.71 63.81,92.77 63.81,92.83 63.81,92.9 
	63.75,92.9 63.75,92.96 63.69,92.96 63.63,92.96 63.63,93.02 63.56,93.02 63.5,93.02 63.5,93.08 63.44,93.08 63.44,93.14 
	63.38,93.14 63.38,93.21 63.32,93.21 63.32,93.27 63.25,93.27 63.25,93.33 63.25,93.39 63.25,93.45 63.25,93.51 63.19,93.58 
	63.13,93.64 63.07,93.7 63.07,93.76 63.07,93.82 63.13,93.89 63.13,93.95 63.13,94.01 63.13,94.07 63.13,94.13 63.13,94.26 
	63.13,94.32 63.13,94.38 63.13,94.44 63.07,94.44 63.01,94.44 62.95,94.44 62.88,94.44 62.88,94.5 62.82,94.5 62.82,94.57 
	62.76,94.63 62.7,94.63 62.7,94.69 62.7,94.75 62.7,94.81 62.76,94.88 62.76,94.94 62.76,95 62.7,95 62.7,95.06 62.64,95.12 
	62.7,95.12 62.7,95.18 62.7,95.25 62.64,95.25 62.64,95.31 62.64,95.37 62.64,95.43 62.64,95.49 62.64,95.56 62.7,95.56 62.7,95.62 
	62.76,95.62 62.7,95.68 62.7,95.74 62.76,95.74 62.76,95.8 62.7,95.8 62.7,95.86 62.7,95.93 62.64,95.93 62.64,95.99 62.64,96.05 
	62.64,96.11 62.64,96.17 62.57,96.17 62.57,96.24 62.57,96.3 62.51,96.3 62.51,96.36 62.51,96.42 62.51,96.48 62.51,96.54 
	62.51,96.61 62.51,96.67 62.45,96.67 62.45,96.61 62.39,96.61 62.33,96.67 62.27,96.67 62.2,96.61 62.14,96.54 62.08,96.54 
	62.02,96.54 62.02,96.61 61.96,96.61 61.96,96.67 61.96,96.73 61.89,96.79 61.83,96.73 61.77,96.73 61.77,96.67 61.71,96.67 
	61.71,96.61 61.65,96.54 61.58,96.54 61.58,96.48 61.52,96.48 61.52,96.42 61.46,96.42 61.4,96.36 61.4,96.3 61.46,96.3 
	61.46,96.24 61.46,96.17 61.4,96.11 61.4,96.05 61.34,96.05 61.28,95.99 61.21,95.93 61.21,95.86 61.15,95.8 61.15,95.74 
	61.15,95.68 61.15,95.62 61.15,95.56 61.21,95.49 61.21,95.43 61.15,95.31 61.15,95.18 61.09,95.18 61.09,95.12 61.03,95 
	61.03,94.94 60.97,94.88 60.97,94.81 60.97,94.75 60.9,94.69 60.9,94.63 60.9,94.57 60.9,94.44 60.9,94.38 60.84,94.32 60.78,94.32 
	60.72,94.32 60.66,94.26 60.6,94.26 60.53,94.2 60.47,94.2 60.41,94.2 60.41,94.26 60.35,94.26 60.29,94.26 60.22,94.32 
	60.16,94.32 60.1,94.32 60.04,94.32 59.98,94.32 59.92,94.32 59.92,94.38 59.85,94.38 59.79,94.44 59.73,94.38 59.73,94.32 
	59.67,94.32 59.61,94.26 59.61,94.2 59.61,94.13 59.54,94.13 59.54,94.07 59.48,94.07 59.48,94.01 59.48,93.95 59.48,93.89 
	59.48,93.82 59.48,93.76 59.42,93.7 59.36,93.7 59.36,93.64 59.3,93.58 59.24,93.58 59.17,93.64 59.17,93.58 59.11,93.58 
	59.05,93.51 58.99,93.45 58.93,93.45 58.86,93.45 58.8,93.45 58.74,93.45 58.68,93.45 58.68,93.39 58.62,93.39 58.56,93.39 
	58.49,93.39 58.49,93.33 58.49,93.27 58.49,93.21 58.56,93.21 58.56,93.14 58.56,93.08 58.62,93.02 58.62,92.96 58.62,92.9 
	58.62,92.83 58.62,92.77 58.56,92.71 58.49,92.59 58.49,92.53 58.49,92.46 58.43,92.4 58.43,92.34 58.37,92.34 58.37,92.28 
	58.37,92.22 58.31,92.15 58.31,92.09 58.25,92.03 58.18,91.97 58.12,91.91 58.12,91.85 58.06,91.78 58,91.72 58,91.66 57.94,91.66 
	57.94,91.6 57.94,91.54 57.88,91.54 57.88,91.47 57.81,91.47 57.81,91.41 57.75,91.35 57.69,91.35 57.63,91.35 57.63,91.29 
	57.57,91.29 57.5,91.23 57.38,91.1 57.26,91.04 57.2,90.98 57.13,90.98 57.07,90.92 57.01,90.92 57.01,90.86 56.95,90.86 
	56.95,90.79 56.89,90.79 56.89,90.73 56.82,90.73 56.76,90.73 56.7,90.79 56.64,90.86 56.58,90.86 56.58,90.79 56.52,90.79 
	56.52,90.73 56.52,90.67 56.52,90.61 56.52,90.55 56.52,90.49 56.45,90.49 56.45,90.42 56.39,90.42 56.39,90.36 56.33,90.36 
	56.33,90.3 56.27,90.24 56.27,90.18 56.21,90.11 56.14,90.05 56.08,89.99 56.08,89.93 56.02,89.87 56.02,89.81 55.96,89.81 
	55.96,89.74 55.9,89.68 55.83,89.68 55.83,89.62 55.77,89.56 55.71,89.56 55.65,89.5 55.65,89.43 55.59,89.43 55.59,89.37 
	55.59,89.31 55.53,89.25 55.53,89.19 55.46,89.19 55.46,89.13 55.4,89.13 55.34,89.06 55.34,89 55.34,88.94 55.28,88.94 
	55.22,88.82 55.22,88.75 55.15,88.75 55.09,88.69 55.03,88.63 54.97,88.63 54.91,88.57 54.85,88.57 54.85,88.51 54.91,88.45 
	54.91,88.38 54.85,88.32 54.85,88.26 54.78,88.26 54.78,88.2 54.78,88.14 54.78,88.07 54.72,88.07 54.72,88.01 54.66,88.01 
	54.66,87.95 54.6,87.95 54.6,87.89 54.54,87.89 54.54,87.83 54.47,87.83 54.41,87.77 54.41,87.7 54.35,87.7 54.35,87.64 
	54.29,87.64 54.23,87.64 54.17,87.64 54.17,87.58 54.17,87.52 54.1,87.52 54.1,87.46 54.04,87.46 53.98,87.46 53.98,87.39 
	53.92,87.39 53.86,87.39 53.86,87.33 53.92,87.27 53.98,87.27 53.98,87.21 53.98,87.15 53.92,87.15 53.98,87.08 54.04,87.08 
	54.04,87.02 54.04,86.96 53.98,86.9 53.98,86.84 53.92,86.84 53.92,86.78 53.92,86.71 53.92,86.65 53.92,86.59 53.98,86.53 
	53.98,86.47 53.98,86.4 54.04,86.4 54.04,86.34 54.04,86.28 54.04,86.22 53.98,86.22 53.92,86.22 53.86,86.16 53.79,86.1 
	53.73,86.03 53.73,85.97 53.67,85.91 53.61,85.91 53.55,85.91 53.42,85.97 53.42,86.03 53.36,86.03 53.3,86.03 53.24,85.97 
	53.18,85.97 53.11,85.91 53.05,85.85 53.05,85.79 53.05,85.72 52.99,85.72 52.99,85.66 52.93,85.66 52.87,85.6 52.81,85.6 
	52.68,85.6 52.62,85.6 52.62,85.54 52.56,85.54 52.5,85.48 52.43,85.42 52.37,85.42 52.31,85.42 52.25,85.35 52.19,85.35 
	52.06,85.23 52.06,85.17 52,85.11 52.06,85.04 52.06,84.98 52.06,84.92 52.13,84.92 52.19,84.92 52.25,84.98 52.31,85.04 
	52.37,85.04 52.37,85.11 52.43,85.11 52.5,85.11 52.5,85.04 52.56,85.04 52.62,85.04 52.68,85.04 52.68,84.98 52.68,84.92 
	52.68,84.86 52.62,84.86 52.62,84.8 52.62,84.74 52.68,84.74 52.74,84.74 52.74,84.67 52.81,84.67 52.81,84.61 52.74,84.55 
	52.68,84.49 52.68,84.43 52.62,84.43 52.56,84.36 52.5,84.36 52.43,84.3 52.43,84.24 52.37,84.18 52.31,84.12 52.25,84.06 
	52.25,83.99 52.19,83.93 52.19,83.87 52.19,83.81 52.13,83.81 52.13,83.75 52.06,83.75 52.06,83.68 52.06,83.62 52,83.62 52,83.56 
	51.94,83.5 51.94,83.44 51.94,83.38 51.88,83.38 51.88,83.31 51.82,83.31 51.82,83.25 51.75,83.19 51.75,83.13 51.69,83.13 
	51.69,83.07 51.63,83 51.57,83 51.57,82.94 51.51,82.88 51.51,82.82 51.45,82.76 51.38,82.76 51.38,82.7 51.32,82.63 51.26,82.63 
	51.26,82.57 51.2,82.51 51.14,82.45 51.07,82.39 51.07,82.32 51.01,82.26 51.01,82.2 50.95,82.14 50.95,82.08 50.89,82.01 
	50.89,81.95 50.89,81.89 50.83,81.83 50.83,81.77 50.76,81.77 50.7,81.77 50.64,81.77 50.64,81.71 50.58,81.58 50.58,81.52 
	50.52,81.46 50.52,81.4 50.52,81.33 50.46,81.33 50.46,81.27 50.39,81.27 50.39,81.21 50.39,81.15 50.39,81.09 50.39,81.03 
	50.39,80.96 50.39,80.9 50.33,80.84 50.33,80.78 50.33,80.72 50.33,80.65 50.27,80.65 50.27,80.59 50.21,80.59 50.21,80.53 
	50.21,80.47 50.15,80.47 50.15,80.41 50.08,80.41 50.02,80.35 49.96,80.28 49.9,80.28 49.84,80.35 49.84,80.41 49.78,80.47 
	49.71,80.53 49.65,80.53 49.65,80.59 49.59,80.59 49.59,80.65 49.53,80.72 49.47,80.72 49.4,80.72 49.34,80.72 49.28,80.65 
	49.28,80.59 49.28,80.53 49.34,80.53 49.34,80.47 49.34,80.41 49.4,80.35 49.47,80.35 49.47,80.28 49.4,80.28 49.34,80.28 
	49.28,80.28 49.22,80.22 49.1,80.16 49.03,80.1 48.97,80.1 48.91,80.04 48.85,80.1 48.85,80.16 48.79,80.16 48.72,80.16 
	48.66,80.16 48.6,80.1 48.54,80.04 48.48,80.04 48.42,80.04 48.35,80.04 48.29,80.04 48.23,80.04 48.17,80.04 48.11,80.04 
	48.11,79.97 48.11,79.91 48.11,79.85 48.04,79.79 48.04,79.73 47.98,79.67 47.98,79.6 47.98,79.54 47.92,79.48 47.86,79.48 
	47.8,79.48 47.74,79.48 47.67,79.48 47.61,79.54 47.55,79.6 47.49,79.67 47.43,79.67 47.36,79.67 47.3,79.73 47.24,79.73 
	47.18,79.73 47.12,79.79 47.06,79.79 46.99,79.73 46.93,79.42 46.81,79.11 46.75,78.92 46.62,78.68 46.68,78.61 46.75,78.18 
	46.81,77.87 46.87,77.81 46.93,77.44 46.99,77.13 47.18,76.45 47.24,76.08 47.3,75.77 47.36,75.71 47.36,75.65 47.43,75.34 
	47.61,74.9 47.67,74.6 47.74,74.47 47.92,73.98 47.92,73.92 47.98,73.79 48.04,73.67 48.11,73.48 48.48,72.74 48.66,72.25 
	48.66,72.18 48.79,71.94 48.79,71.88 48.85,71.69 48.79,71.69 48.72,71.69 48.66,71.69 48.66,71.75 48.6,71.75 48.6,71.81 
	48.54,71.81 48.48,71.81 48.48,71.75 48.42,71.75 48.35,71.75 48.35,71.69 48.35,71.57 48.42,71.5 48.42,71.44 48.42,71.38 
	48.35,71.38 48.29,71.32 48.23,71.32 48.23,71.26 48.23,71.2 48.17,71.13 48.17,71.07 48.11,71.07 48.11,71.01 48.11,70.95 
	48.11,70.89 48.11,70.82 48.11,70.76 48.11,70.7 48.11,70.64 48.17,70.64 48.17,70.58 48.11,70.58 48.11,70.51 48.04,70.45 
	47.98,70.33 47.98,70.27 47.98,70.21 47.98,70.14 47.98,70.08 48.04,70.02 48.04,69.96 48.04,69.9 48.04,69.83 48.11,69.83 
	48.11,69.77 48.11,69.71 48.11,69.65 48.17,69.59 48.23,69.53 48.23,69.46 48.29,69.4 48.29,69.28 48.29,69.22 48.29,69.15 
	48.23,69.09 48.23,69.03 48.29,68.91 48.29,68.85 48.29,68.78 48.35,68.72 48.35,68.66 48.42,68.66 48.42,68.6 48.48,68.6 
	48.54,68.6 48.54,68.54 48.6,68.54 48.66,68.54 48.72,68.54 48.72,68.47 48.79,68.47 48.79,68.41 48.79,68.35 48.79,68.29 
	48.85,68.29 48.85,68.23 48.85,68.17 48.85,68.1 48.85,68.04 48.79,68.04 48.79,67.98 48.72,67.92 48.72,67.86 48.79,67.86 
	48.79,67.79 48.72,67.73 48.72,67.67 48.72,67.61 48.72,67.55 48.66,67.55 48.66,67.49 48.6,67.49 48.6,67.42 48.54,67.42 
	48.54,67.36 48.54,67.3 48.48,67.18 48.48,67.11 48.42,67.11 48.42,67.05 48.42,66.99 48.42,66.93 48.35,66.93 48.29,66.87 
	48.23,66.81 48.17,66.74 48.11,66.74 48.04,66.74 47.98,66.68 47.92,66.62 47.86,66.62 47.86,66.56 47.8,66.56 47.74,66.56 
	47.74,66.5 47.74,66.43 47.67,66.37 47.67,66.31 47.61,66.31 47.55,66.31 47.55,66.25 47.49,66.25 47.43,66.25 47.43,66.19 
	47.36,66.19 47.3,66.19 47.24,66.13 47.18,66.06 47.18,66 47.18,65.94 47.18,65.88 47.18,65.82 47.24,65.75 47.24,65.69 
	47.24,65.63 47.24,65.57 47.3,65.51 47.3,65.45 47.36,65.45 47.36,65.38 47.36,65.32 47.36,65.26 47.36,65.2 47.43,65.2 47.49,65.2 
	47.55,65.2 47.61,65.2 47.61,65.14 47.67,65.14 47.74,65.07 47.8,65.07 47.8,65.01 47.86,65.01 47.86,64.95 47.86,64.89 
	47.86,64.83 47.86,64.77 47.86,64.7 47.92,64.7 47.92,64.64 47.98,64.64 47.98,64.58 48.04,64.58 48.04,64.52 48.11,64.52 
	48.17,64.52 48.23,64.52 48.29,64.58 48.35,64.58 48.42,64.58 48.48,64.58 48.48,64.64 48.54,64.64 48.54,64.7 48.6,64.77 
	48.6,64.83 48.6,64.89 48.66,64.89 48.66,64.95 48.72,64.95 48.72,65.01 48.79,65.01 48.85,65.01 48.85,65.07 48.79,65.07 
	48.79,65.14 48.72,65.14 48.72,65.2 48.72,65.26 48.66,65.32 48.66,65.38 48.72,65.38 48.79,65.38 48.79,65.45 48.79,65.51 
	48.79,65.57 48.79,65.63 48.79,65.69 48.85,65.75 48.91,65.75 48.91,65.69 48.97,65.69 48.97,65.75 48.97,65.82 49.03,65.82 
	49.1,65.75 49.16,65.75 49.22,65.69 49.28,65.75 49.34,65.75 49.4,65.75 49.4,65.69 49.47,65.69 49.53,65.63 49.53,65.57 
	49.59,65.57 49.59,65.51 49.65,65.51 49.59,65.45 49.59,65.38 49.59,65.32 49.53,65.32 49.53,65.26 49.53,65.2 49.47,65.2 
	49.47,65.14 49.47,65.07 49.47,65.01 49.53,65.01 49.59,65.01 49.65,65.01 49.71,65.01 49.78,65.01 49.84,65.01 49.84,65.07 
	49.9,65.07 49.96,65.07 49.96,65.01 49.96,64.95 49.96,64.89 50.02,64.89 50.02,64.83 50.08,64.83 50.15,64.83 50.21,64.77 
	50.27,64.77 50.33,64.7 50.39,64.7 50.46,64.7 50.52,64.64 50.58,64.64 50.64,64.64 50.7,64.58 50.7,64.52 50.7,64.46 50.64,64.46 
	50.64,64.39 50.58,64.33 50.58,64.27 50.64,64.27 50.64,64.21 50.7,64.21 50.76,64.15 50.83,64.15 50.89,64.08 50.95,64.02 
	51.01,64.02 51.01,63.96 51.07,63.96 51.07,63.9 51.07,63.84 51.14,63.84 51.14,63.78 51.14,63.71 51.07,63.65 51.01,63.59 
	50.95,63.53 50.95,63.47 50.89,63.47 50.89,63.4 50.89,63.34 50.83,63.34 50.83,63.28 50.89,63.28 50.95,63.28 50.95,63.22 
	51.01,63.22 51.07,63.22 51.14,63.22 51.2,63.22 51.2,63.28 51.26,63.28 51.32,63.28 51.38,63.28 51.38,63.22 51.38,63.16 
	51.38,63.1 51.38,63.03 51.38,62.97 51.32,62.97 51.32,62.91 51.32,62.85 51.26,62.85 51.26,62.79 51.26,62.72 51.26,62.66 
	51.32,62.66 51.38,62.66 51.45,62.66 51.51,62.66 51.51,62.6 51.57,62.6 51.57,62.54 51.51,62.48 51.57,62.48 51.63,62.48 
	51.63,62.54 51.69,62.54 51.75,62.54 51.82,62.54 51.82,62.48 51.88,62.48 51.88,62.42 51.94,62.42 52,62.42 52.06,62.42 
	52.13,62.35 52.19,62.42 52.25,62.42 52.31,62.42 52.37,62.42 52.37,62.48 52.43,62.48 52.5,62.48 52.5,62.54 52.56,62.6 
	52.56,62.66 52.56,62.72 52.62,62.79 52.62,62.85 52.68,62.85 52.74,62.85 52.81,62.85 52.87,62.85 52.93,62.85 52.99,62.85 
	53.05,62.85 53.11,62.85 53.24,62.85 53.3,62.91 53.36,62.91 53.42,62.97 53.49,62.97 53.55,62.97 53.61,62.97 53.67,62.97 
	53.67,62.91 53.73,62.91 53.79,62.91 53.86,62.91 53.92,62.91 53.98,62.91 54.04,62.91 54.1,62.91 54.17,62.91 54.23,62.91 
	54.29,62.91 54.29,62.85 54.35,62.85 54.35,62.91 54.41,62.91 54.47,62.91 54.47,62.85 54.54,62.79 54.6,62.79 54.66,62.79 
	54.72,62.72 54.78,62.72 54.85,62.72 54.85,62.79 54.91,62.79 54.97,62.79 54.97,62.85 54.97,62.91 54.97,62.97 54.97,63.03 
	55.03,63.03 55.03,63.1 55.09,63.16 55.09,63.22 55.09,63.28 55.15,63.28 55.22,63.28 55.22,63.34 55.28,63.34 55.34,63.34 
	55.34,63.4 55.4,63.4 55.46,63.4 55.53,63.4 55.59,63.47 55.65,63.53 55.71,63.47 55.77,63.4 55.77,63.34 55.83,63.34 55.9,63.34 
	55.96,63.34 55.96,63.28 56.02,63.28 56.02,63.22 56.08,63.22 56.08,63.28 56.14,63.28 56.21,63.22 56.27,63.22 56.33,63.22 
	56.33,63.16 56.39,63.16 56.39,63.1 56.45,63.1 56.45,63.03 56.52,63.03 56.52,62.97 56.45,62.91 56.52,62.85 56.52,62.79 
	56.58,62.72 56.64,62.72 56.64,62.66 56.7,62.66 56.76,62.66 56.82,62.66 56.89,62.66 56.89,62.6 56.95,62.6 57.01,62.6 57.07,62.6 
	57.07,62.66 57.13,62.66 57.2,62.6 57.2,62.54 57.2,62.48 57.26,62.48 57.26,62.42 57.32,62.42 57.32,62.35 57.26,62.35 
	57.26,62.29 57.26,62.23 57.2,62.23 57.26,62.17 57.32,62.11 57.32,62.04 57.32,61.98 57.32,61.92 57.32,61.86 57.32,61.8 
	57.38,61.74 57.38,61.67 57.38,61.61 57.32,61.55 57.26,61.55 57.26,61.49 57.26,61.43 57.32,61.43 57.38,61.43 57.44,61.36 
	57.5,61.36 57.5,61.3 57.5,61.24 57.57,61.18 57.63,61.18 57.69,61.12 57.69,61.06 57.63,61.06 57.63,60.99 57.63,60.93 
	57.63,60.87 57.63,60.81 57.63,60.75 57.57,60.75 57.57,60.68 57.57,60.62 57.57,60.56 57.63,60.56 57.63,60.5 57.57,60.5 
	57.5,60.44 57.44,60.44 57.44,60.38 57.38,60.38 57.38,60.31 57.38,60.25 57.44,60.25 57.5,60.25 57.57,60.25 57.57,60.19 
	57.63,60.19 57.63,60.13 57.63,60.07 57.57,60.07 57.57,60 57.57,59.94 57.57,59.88 57.57,59.82 57.5,59.76 57.44,59.7 57.38,59.7 
	57.38,59.63 57.38,59.57 57.32,59.57 57.32,59.51 57.32,59.45 57.32,59.39 57.38,59.32 57.44,59.26 57.44,59.2 57.5,59.14 
	57.57,59.14 57.57,59.08 57.63,59.08 57.63,59.02 57.69,58.95 57.75,58.89 57.81,58.83 57.88,58.83 57.94,58.83 58,58.83 58,58.77 
	57.94,58.77 57.94,58.71 58,58.71 58,58.64 58.06,58.64 58.06,58.71 58.12,58.71 58.12,58.77 58.12,58.83 58.12,58.89 58.12,58.95 
	58.18,58.95 58.25,58.95 58.25,58.89 58.25,58.83 58.31,58.83 58.31,58.77 58.31,58.71 58.31,58.64 58.37,58.64 58.37,58.58 
	58.43,58.58 58.49,58.58 58.56,58.52 58.56,58.46 58.56,58.4 58.56,58.34 58.56,58.27 58.62,58.27 58.68,58.34 58.74,58.34 
	58.8,58.34 58.86,58.27 58.93,58.27 58.93,58.21 58.99,58.21 58.99,58.15 59.05,58.15 59.11,58.15 59.11,58.09 59.11,57.96 
	59.11,57.9 59.17,57.9 59.17,57.84 59.24,57.78 59.3,57.72 59.3,57.66 59.36,57.66 59.36,57.59 59.36,57.53 59.36,57.47 59.3,57.47 
	59.24,57.47 59.24,57.41 59.24,57.35 59.24,57.28 59.3,57.22 59.3,57.16 59.3,57.1 59.36,57.04 59.36,56.91 59.36,56.85 
	59.42,56.79 59.42,56.73 59.42,56.67 59.42,56.6 59.36,56.6 59.36,56.54 59.36,56.48 59.42,56.42 59.48,56.36 59.54,56.36 
	59.54,56.29 59.54,56.23 59.61,56.23 59.67,56.23 59.73,56.23 59.73,56.29 59.79,56.29 59.85,56.29 59.92,56.23 59.98,56.23 
	59.98,56.17 59.92,56.17 59.92,56.11 59.98,56.11 59.98,56.05 59.92,56.05 59.85,56.05 59.85,55.99 59.92,55.92 59.92,55.86 
	59.98,55.8 59.98,55.74 59.98,55.68 59.98,55.61 60.04,55.61 60.04,55.55 60.04,55.49 60.1,55.43 60.1,55.37 60.04,55.37 
	60.04,55.31 60.04,55.24 60.04,55.18 59.98,55.18 59.98,55.12 59.98,55.06 59.92,55.06 59.92,55 59.85,55 59.85,54.93 59.85,54.87 
	59.92,54.87 59.92,54.81 59.85,54.81 59.85,54.75 59.79,54.75 59.79,54.81 59.73,54.81 59.67,54.87 59.61,54.87 59.54,54.87 
	59.48,54.87 59.42,54.87 59.36,54.87 59.36,54.81 59.3,54.81 59.3,54.75 59.3,54.69 59.36,54.69 59.36,54.63 59.36,54.56 
	59.42,54.5 59.48,54.44 59.54,54.44 59.54,54.38 59.61,54.38 59.61,54.32 59.61,54.25 59.61,54.19 59.61,54.13 59.61,54.07 
	59.67,54.01 59.67,53.95 59.67,53.88 59.67,53.82 59.61,53.76 59.61,53.7 59.61,53.64 59.61,53.57 59.61,53.51 59.61,53.45 
	59.67,53.39 59.61,53.33 59.61,53.27 59.54,53.2 59.48,53.14 59.42,53.08 59.36,53.02 59.3,53.02 59.24,52.96 59.17,52.96 
	59.11,52.89 59.05,52.89 59.05,52.83 58.99,52.83 58.99,52.77 58.99,52.71 58.93,52.65 58.86,52.59 58.8,52.59 58.74,52.59 
	58.68,52.59 58.68,52.52 58.68,52.46 58.68,52.4 58.68,52.34 58.62,52.28 58.62,52.21 58.56,52.21 58.49,52.15 58.43,52.15 
	58.43,52.09 58.43,52.03 58.37,52.03 58.31,52.03 58.31,51.97 58.25,51.97 58.25,51.91 58.18,51.91 58.18,51.97 58.18,52.03 
	58.12,52.03 58.06,52.03 58,52.03 57.94,52.03 57.88,52.03 57.88,51.97 57.81,51.97 57.75,51.91 57.75,51.84 57.69,51.84 
	57.63,51.78 57.57,51.78 57.5,51.78 57.44,51.78 57.44,51.84 57.38,51.84 57.38,51.91 57.38,51.97 57.32,52.03 57.26,52.09 
	57.2,52.15 57.13,52.15 57.07,52.15 57.01,52.15 56.95,52.15 56.95,52.09 56.89,52.09 56.82,52.09 56.82,52.03 56.76,52.03 
	56.64,52.03 56.58,52.03 56.52,52.03 56.52,52.09 56.52,52.15 56.45,52.15 56.45,52.21 56.45,52.28 56.45,52.34 56.45,52.4 
	56.45,52.46 56.39,52.46 56.39,52.52 56.39,52.59 56.33,52.59 56.33,52.65 56.27,52.65 56.27,52.71 56.21,52.71 56.21,52.77 
	56.14,52.83 56.08,52.89 56.08,52.96 56.02,52.96 56.02,53.02 55.96,53.02 55.96,53.08 55.96,53.14 56.02,53.2 56.08,53.2 
	56.08,53.27 56.08,53.33 56.08,53.39 56.02,53.39 55.96,53.39 55.96,53.45 55.9,53.45 55.83,53.51 55.77,53.57 55.71,53.57 
	55.65,53.64 55.59,53.64 55.53,53.64 55.53,53.7 55.46,53.7 55.4,53.7 55.4,53.76 55.4,53.82 55.34,53.82 55.28,53.88 55.22,53.88 
	55.22,53.95 55.15,53.95 55.09,53.95 55.03,53.95 55.03,54.01 54.97,54.01 54.97,54.07 54.91,54.07 54.85,54.07 54.85,54.13 
	54.85,54.19 54.85,54.25 54.85,54.32 54.91,54.32 54.91,54.38 54.91,54.44 54.91,54.5 54.85,54.5 54.78,54.5 54.78,54.56 
	54.72,54.56 54.72,54.63 54.66,54.63 54.66,54.69 54.66,54.75 54.66,54.81 54.6,54.81 54.54,54.81 54.54,54.75 54.47,54.75 
	54.41,54.75 54.41,54.81 54.35,54.81 54.35,54.87 54.35,54.93 54.29,54.93 54.29,54.87 54.23,54.87 54.17,54.87 54.17,54.81 
	54.1,54.81 54.1,54.87 54.04,54.87 53.98,54.87 53.92,54.87 53.86,54.87 53.86,54.81 53.79,54.81 53.73,54.81 53.67,54.75 
	53.67,54.81 53.61,54.81 53.61,54.87 53.61,54.93 53.55,54.93 53.55,55 53.55,55.06 53.49,55.06 53.42,55.06 53.42,55.12 
	53.36,55.12 53.3,55.06 53.3,55.12 53.24,55.12 53.24,55.18 53.18,55.18 53.18,55.24 53.11,55.24 53.11,55.31 53.05,55.31 
	52.99,55.24 52.99,55.31 52.99,55.37 52.93,55.37 52.93,55.43 52.93,55.49 52.93,55.55 52.93,55.61 52.87,55.61 52.87,55.68 
	52.93,55.68 52.99,55.68 52.99,55.74 52.99,55.8 52.99,55.86 52.93,55.86 52.87,55.86 52.87,55.92 52.81,55.92 52.74,55.92 
	52.74,55.99 52.68,55.99 52.68,56.05 52.68,56.11 52.68,56.17 52.68,56.23 52.74,56.23 52.74,56.29 52.68,56.29 52.68,56.36 
	52.74,56.36 52.74,56.42 52.68,56.42 52.68,56.48 52.74,56.48 52.68,56.54 52.68,56.6 52.62,56.6 52.56,56.6 52.5,56.6 52.43,56.6 
	52.37,56.6 52.37,56.67 52.31,56.67 52.25,56.67 52.25,56.73 52.25,56.79 52.25,56.85 52.25,56.91 52.25,56.97 52.19,56.97 
	52.19,57.04 52.19,57.1 52.25,57.1 52.25,57.16 52.19,57.16 52.13,57.16 52.13,57.22 52.13,57.28 52.19,57.28 52.19,57.35 
	52.13,57.35 52.13,57.41 52.13,57.47 52.06,57.47 52.06,57.53 52,57.53 52,57.59 51.94,57.59 51.88,57.59 51.88,57.53 51.82,57.53 
	51.82,57.47 51.75,57.47 51.75,57.41 51.82,57.35 51.75,57.35 51.69,57.35 51.69,57.28 51.63,57.28 51.57,57.28 51.57,57.22 
	51.51,57.22 51.45,57.22 51.45,57.16 51.38,57.16 51.38,57.1 51.32,57.1 51.32,57.16 51.32,57.22 51.32,57.28 51.38,57.28 
	51.38,57.35 51.32,57.41 51.26,57.41 51.26,57.47 51.2,57.47 51.14,57.47 51.14,57.41 51.14,57.35 51.07,57.35 51.14,57.28 
	51.14,57.22 51.2,57.22 51.2,57.16 51.14,57.16 51.14,57.1 51.14,57.04 51.07,56.97 51.01,56.97 50.95,57.04 50.95,56.97 
	50.95,56.91 50.95,56.85 50.89,56.85 50.89,56.79 50.83,56.73 50.89,56.73 50.95,56.73 50.95,56.67 50.95,56.6 51.01,56.6 
	51.01,56.54 50.95,56.54 50.95,56.48 50.95,56.42 51.01,56.48 51.01,56.42 50.95,56.42 50.95,56.36 50.95,56.29 50.95,56.23 
	50.95,56.17 50.89,56.17 50.89,56.11 50.95,56.11 51.01,56.05 51.01,55.99 50.95,55.99 50.95,55.92 51.01,55.92 51.01,55.86 
	51.07,55.86 51.01,55.8 50.95,55.8 50.89,55.8 50.89,55.86 50.83,55.86 50.83,55.8 50.76,55.8 50.76,55.74 50.83,55.74 50.76,55.68 
	50.83,55.68 50.89,55.68 50.89,55.61 50.89,55.55 50.89,55.49 50.89,55.43 50.89,55.37 50.89,55.31 50.83,55.24 50.89,55.18 
	50.89,55.12 50.89,55.06 50.89,55 50.83,54.93 50.83,54.87 50.83,54.81 50.83,54.75 50.76,54.69 50.7,54.69 50.64,54.69 
	50.58,54.63 50.52,54.63 50.46,54.63 50.39,54.63 50.39,54.56 50.39,54.5 50.39,54.44 50.46,54.44 50.46,54.38 50.52,54.38 
	50.52,54.32 50.58,54.32 50.64,54.32 50.7,54.32 50.7,54.25 50.76,54.25 50.76,54.19 50.76,54.13 50.76,54.07 50.76,54.01 
	50.7,54.01 50.64,53.95 50.58,53.95 50.52,53.88 50.46,53.95 50.39,53.95 50.39,53.88 50.39,53.82 50.46,53.76 50.52,53.76 
	50.52,53.7 50.58,53.7 50.58,53.64 50.52,53.57 50.52,53.51 50.46,53.51 50.39,53.51 50.39,53.45 50.39,53.39 50.39,53.33 
	50.39,53.27 50.33,53.2 50.27,53.2 50.27,53.14 50.27,53.08 50.27,53.02 50.33,52.96 50.39,52.96 50.46,52.89 50.52,52.89 
	50.52,52.83 50.46,52.83 50.39,52.83 50.33,52.83 50.27,52.83 50.21,52.77 50.15,52.77 50.08,52.77 50.08,52.71 50.02,52.71 
	50.02,52.65 50.02,52.59 50.02,52.52 49.96,52.52 49.96,52.46 49.9,52.46 49.84,52.46 49.78,52.46 49.78,52.4 49.84,52.4 
	49.9,52.34 49.9,52.28 49.96,52.28 49.96,52.21 49.96,52.15 49.9,52.09 49.9,52.03 49.9,51.97 49.84,51.97 49.84,51.91 49.84,51.84 
	49.9,51.84 49.9,51.78 49.9,51.72 49.96,51.66 49.96,51.6 50.02,51.6 50.02,51.53 50.02,51.47 50.08,51.47 50.08,51.41 50.15,51.41 
	50.15,51.35 50.21,51.35 50.21,51.29 50.27,51.22 50.27,51.16 50.33,51.1 50.33,51.04 50.39,51.04 50.46,51.04 50.52,50.98 
	50.52,50.92 50.58,50.92 50.58,50.85 50.52,50.79 50.52,50.73 50.46,50.73 50.39,50.73 50.39,50.67 50.33,50.67 50.33,50.61 
	50.33,50.54 50.33,50.48 50.33,50.42 50.33,50.36 50.33,50.3 50.33,50.24 50.27,50.24 50.21,50.24 50.21,50.17 50.15,50.17 
	50.15,50.24 50.08,50.24 50.08,50.17 50.08,50.11 50.08,50.05 50.02,49.99 49.96,49.99 49.96,50.05 49.9,50.05 49.84,50.05 
	49.78,50.05 49.71,50.05 49.71,49.99 49.71,49.93 49.71,49.8 49.65,49.8 49.65,49.74 49.59,49.74 49.59,49.68 49.53,49.62 
	49.59,49.62 49.59,49.56 49.53,49.56 49.53,49.49 49.53,49.43 49.47,49.43 49.47,49.37 49.4,49.37 49.34,49.31 49.28,49.31 
	49.22,49.31 49.22,49.25 49.16,49.18 49.16,49.12 49.1,49.12 49.1,49.06 49.03,49 49.03,48.94 48.97,48.88 48.97,48.81 48.97,48.75 
	48.97,48.69 48.91,48.63 48.85,48.57 48.85,48.5 48.85,48.44 48.85,48.38 48.79,48.32 48.79,48.26 48.72,48.26 48.72,48.2 
	48.66,48.2 48.6,48.13 48.54,48.13 48.54,48.07 48.48,48.07 48.48,48.01 48.48,47.95 48.42,47.95 48.42,47.89 48.42,47.82 
	48.42,47.76 48.48,47.76 48.48,47.7 48.48,47.64 48.48,47.58 48.48,47.52 48.42,47.52 48.35,47.58 48.29,47.58 48.29,47.64 
	48.23,47.64 48.17,47.64 48.11,47.64 48.11,47.58 48.04,47.58 47.98,47.58 47.98,47.52 47.98,47.45 47.98,47.39 48.04,47.39 
	48.11,47.33 48.11,47.27 48.11,47.21 48.04,47.21 48.04,47.14 48.04,47.08 47.98,47.14 47.92,47.14 47.86,47.14 47.86,47.21 
	47.8,47.21 47.8,47.14 47.8,47.08 47.8,47.02 47.8,46.96 47.86,46.9 47.8,46.9 47.8,46.84 47.74,46.77 47.67,46.77 47.61,46.77 
	47.61,46.71 47.61,46.65 47.67,46.65 47.67,46.59 47.74,46.59 47.8,46.59 47.8,46.65 47.8,46.71 47.8,46.77 47.86,46.84 
	47.92,46.84 47.98,46.9 48.04,46.9 48.11,46.84 48.11,46.77 48.04,46.77 48.04,46.71 47.98,46.65 47.92,46.65 47.92,46.59 
	47.86,46.59 47.86,46.53 47.86,46.46 47.92,46.46 47.98,46.46 47.98,46.4 47.92,46.34 47.92,46.28 47.98,46.22 48.04,46.16 
	48.11,46.16 48.11,46.09 48.11,46.03 48.04,46.03 48.04,45.97 48.04,45.91 47.98,45.85 47.98,45.78 47.92,45.78 47.92,45.72 
	47.98,45.72 47.98,45.66 47.98,45.6 47.92,45.6 47.86,45.6 47.86,45.66 47.8,45.72 47.74,45.72 47.74,45.66 47.74,45.6 47.74,45.54 
	47.74,45.47 47.74,45.41 47.67,45.41 47.61,45.41 47.55,45.41 47.55,45.35 47.55,45.29 47.55,45.23 47.55,45.17 47.49,45.1 
	47.49,45.04 47.49,44.98 47.55,44.98 47.61,44.92 47.67,44.92 47.67,44.86 47.61,44.86 47.61,44.79 47.55,44.73 47.55,44.67 
	47.55,44.61 47.55,44.55 47.55,44.49 47.49,44.49 47.43,44.49 47.36,44.49 47.3,44.55 47.24,44.55 47.18,44.55 47.18,44.49 
	47.18,44.42 47.18,44.36 47.12,44.36 47.06,44.36 46.99,44.36 46.99,44.42 46.93,44.42 46.87,44.36 46.87,44.3 46.81,44.3 
	46.75,44.3 46.75,44.24 46.68,44.24 46.62,44.24 46.56,44.24 46.56,44.3 46.5,44.3 46.44,44.36 46.38,44.36 46.31,44.36 
	46.25,44.36 46.25,44.3 46.25,44.24 46.19,44.24 46.19,44.18 46.13,44.18 46.07,44.11 46,44.11 45.94,44.11 45.94,44.05 
	45.88,44.05 45.88,43.99 45.94,43.93 45.94,43.87 45.88,43.81 45.82,43.81 45.76,43.81 45.69,43.81 45.69,43.87 45.63,43.87 
	45.63,43.93 45.57,43.99 45.57,44.05 45.51,44.05 45.51,43.99 45.51,43.93 45.51,43.87 45.51,43.81 45.57,43.74 45.57,43.68 
	45.57,43.62 45.63,43.62 45.63,43.56 45.63,43.5 45.63,43.43 45.63,43.37 45.63,43.31 45.57,43.25 45.57,43.19 45.63,43.19 
	45.63,43.13 45.63,43.06 45.63,43 45.69,43 45.69,42.94 45.69,42.88 45.76,42.88 45.76,42.82 45.69,42.82 45.69,42.75 45.69,42.69 
	45.63,42.69 45.63,42.63 45.63,42.57 45.57,42.51 45.63,42.51 45.63,42.45 45.63,42.38 45.63,42.32 45.69,42.26 45.63,42.26 
	45.63,42.2 45.57,42.2 45.57,42.14 45.57,42.07 45.51,42.07 45.51,42.01 45.45,42.01 45.39,42.01 45.32,42.07 45.26,42.07 
	45.2,42.07 45.14,42.07 45.14,42.14 45.14,42.2 45.14,42.26 45.14,42.32 45.08,42.32 45.01,42.38 44.95,42.38 44.89,42.32 
	44.95,42.32 44.95,42.26 45.01,42.26 45.01,42.2 45.08,42.2 45.08,42.14 45.01,42.14 45.01,42.07 45.01,42.01 44.95,42.01 
	44.95,41.95 44.95,41.89 45.01,41.89 45.01,41.83 45.08,41.77 45.08,41.7 45.14,41.7 45.14,41.64 45.2,41.64 45.2,41.58 45.2,41.52 
	45.14,41.52 45.14,41.46 45.08,41.39 45.01,41.39 44.95,41.39 44.89,41.46 44.89,41.52 44.83,41.58 44.83,41.7 44.77,41.7 
	44.77,41.64 44.71,41.58 44.71,41.52 44.64,41.46 44.58,41.39 44.52,41.39 44.4,41.46 44.33,41.46 44.27,41.46 44.21,41.52 
	44.15,41.52 44.09,41.52 44.03,41.46 44.09,41.39 44.15,41.33 44.21,41.33 44.33,41.39 44.33,41.33 44.27,41.27 44.27,41.21 
	44.21,41.15 44.15,41.15 44.09,41.15 44.03,41.09 44.03,41.02 43.96,40.96 43.9,41.02 43.84,40.96 43.84,40.9 43.84,40.84 
	43.9,40.78 43.96,40.71 44.03,40.65 44.03,40.59 43.96,40.53 43.96,40.47 43.9,40.47 43.84,40.41 43.84,40.34 43.78,40.28 
	43.78,40.22 43.84,40.16 43.9,40.16 43.9,40.1 43.96,40.1 43.96,40.16 44.03,40.16 44.09,40.16 44.15,40.22 44.15,40.28 
	44.21,40.34 44.27,40.41 44.33,40.34 44.4,40.28 44.4,40.22 44.33,40.16 44.27,40.1 44.27,40.03 44.27,39.97 44.27,39.91 
	44.27,39.85 44.27,39.79 44.27,39.73 44.33,39.73 44.33,39.66 44.4,39.66 44.46,39.66 44.46,39.6 44.52,39.6 44.58,39.6 
	44.58,39.54 44.64,39.48 44.71,39.48 44.71,39.42 44.71,39.35 44.71,39.29 44.64,39.29 44.64,39.23 44.58,39.17 44.52,39.11 
	44.52,39.04 44.52,38.98 44.52,38.92 44.52,38.86 44.58,38.86 44.58,38.8 44.64,38.74 44.71,38.74 44.77,38.74 44.83,38.74 
	44.83,38.8 44.89,38.8 44.89,38.74 44.89,38.67 44.95,38.67 44.95,38.74 45.01,38.74 45.01,38.8 45.01,38.86 45.08,38.92 
	45.14,38.92 45.2,38.92 45.26,38.92 45.26,38.86 45.32,38.86 45.32,38.8 45.32,38.74 45.32,38.67 45.32,38.61 45.32,38.55 
	45.39,38.55 45.39,38.49 45.45,38.49 45.51,38.49 45.57,38.55 45.63,38.55 45.63,38.61 45.63,38.67 45.63,38.74 45.69,38.74 
	45.76,38.8 45.82,38.8 45.82,38.74 45.88,38.74 45.88,38.67 45.94,38.61 45.94,38.55 46,38.55 46,38.49 46,38.43 45.94,38.43 
	45.88,38.43 45.82,38.49 45.76,38.49 45.69,38.49 45.63,38.49 45.63,38.43 45.57,38.36 45.57,38.3 45.57,38.24 45.63,38.24 
	45.69,38.18 45.76,38.18 45.82,38.12 45.88,38.12 45.94,38.12 46,38.12 46.07,38.06 46.13,38.06 46.19,38.06 46.25,38.06 
	46.31,38.06 46.38,38.06 46.38,37.99 46.44,37.99 46.5,37.99 46.56,37.99 46.62,37.99 46.68,37.99 46.75,37.93 46.75,37.87 
	46.75,37.81 46.68,37.81 46.68,37.75 46.62,37.75 46.56,37.75 46.56,37.68 46.5,37.68 46.5,37.62 46.5,37.56 46.5,37.5 46.5,37.44 
	46.44,37.44 46.44,37.38 46.38,37.38 46.31,37.31 46.25,37.31 46.25,37.38 46.19,37.38 46.13,37.38 46.07,37.44 46,37.44 46,37.38 
	45.94,37.31 45.94,37.25 45.94,37.19 45.88,37.19 45.88,37.13 45.82,37.13 45.76,37.13 45.69,37.07 45.63,37.07 45.57,37.07 
	45.51,37.07 45.45,37.07 45.39,37.07 45.32,37.13 45.32,37.19 45.26,37.19 45.26,37.25 45.2,37.25 45.14,37.25 45.08,37.19 
	45.01,37.13 44.83,36.94 44.83,36.88 44.89,36.76 44.89,36.7 44.95,36.57 44.95,36.51 45.01,36.32 45.01,36.26 45.01,36.2 
	45.08,36.2 45.08,36.14 45.14,36.14 45.14,36.08 45.2,36.08 45.26,36.08 45.26,36.02 45.32,36.02 45.39,36.02 45.39,36.08 
	45.45,36.08 45.45,36.14 45.45,36.2 45.45,36.26 45.45,36.32 45.45,36.39 45.51,36.39 45.51,36.45 45.57,36.45 45.57,36.39 
	45.63,36.39 45.63,36.32 45.63,36.26 45.63,36.2 45.63,36.14 45.63,36.08 45.57,36.02 45.57,35.95 45.57,35.89 45.51,35.83 
	45.45,35.77 45.45,35.71 45.39,35.71 45.32,35.71 45.32,35.64 45.32,35.58 45.39,35.58 45.45,35.52 45.51,35.52 45.57,35.52 
	45.63,35.52 45.69,35.52 45.69,35.58 45.76,35.58 45.82,35.64 45.88,35.64 45.88,35.71 45.94,35.71 45.94,35.77 45.94,35.83 
	46,35.83 46,35.89 46.07,35.89 46.13,35.89 46.19,35.95 46.25,35.95 46.25,36.02 46.25,36.08 46.31,36.14 46.31,36.2 46.31,36.26 
	46.38,36.26 46.44,36.26 46.5,36.26 46.5,36.2 46.5,36.14 46.44,36.14 46.44,36.08 46.38,36.02 46.38,35.95 46.31,35.89 
	46.31,35.83 46.31,35.77 46.25,35.77 46.25,35.71 46.19,35.71 46.19,35.64 46.13,35.64 46.13,35.58 46.07,35.52 46.07,35.46 
	46,35.4 46,35.34 46.07,35.27 46.07,35.21 46.13,35.15 46.19,35.09 46.25,35.09 46.31,35.09 46.31,35.03 46.38,35.03 46.38,34.96 
	46.38,34.9 46.31,34.84 46.25,34.84 46.25,34.78 46.19,34.78 46.13,34.78 46.07,34.84 46,34.84 45.94,34.84 45.88,34.78 
	45.82,34.78 45.76,34.78 45.69,34.78 45.63,34.78 45.57,34.78 45.57,34.72 45.57,34.66 45.63,34.59 45.69,34.59 45.82,34.53 
	45.82,34.47 45.82,34.41 45.88,34.41 45.88,34.35 45.88,34.28 45.88,34.22 45.88,34.16 45.82,34.16 45.76,34.16 45.69,34.22 
	45.63,34.22 45.57,34.22 45.51,34.22 45.45,34.22 45.39,34.22 45.39,34.28 45.45,34.35 45.45,34.41 45.39,34.41 45.32,34.41 
	45.26,34.35 45.2,34.22 45.14,34.22 45.14,34.16 45.14,34.1 45.2,34.04 45.2,33.98 45.26,33.98 45.32,33.91 45.32,33.85 
	45.32,33.79 45.26,33.79 45.2,33.79 45.14,33.79 45.08,33.79 45.01,33.79 45.01,33.85 44.95,33.91 44.95,33.98 44.89,33.98 
	44.83,34.04 44.77,34.04 44.77,33.98 44.77,33.91 44.77,33.85 44.77,33.79 44.83,33.73 44.83,33.67 44.83,33.6 44.77,33.54 
	44.71,33.54 44.64,33.54 44.58,33.54 44.58,33.48 44.52,33.48 44.52,33.42 44.52,33.36 44.58,33.36 44.58,33.29 44.64,33.29 
	44.71,33.29 44.77,33.23 44.83,33.23 44.83,33.17 44.89,33.17 44.89,33.11 44.95,33.11 44.95,33.05 45.01,33.05 45.01,32.99 
	45.08,32.99 45.14,32.99 45.2,33.05 45.2,33.11 45.26,33.17 45.26,33.23 45.32,33.23 45.39,33.23 45.39,33.17 45.39,33.11 
	45.39,33.05 45.32,32.99 45.26,32.92 45.2,32.86 45.2,32.8 45.14,32.8 45.14,32.74 45.08,32.74 45.01,32.74 44.95,32.74 
	44.89,32.74 44.77,32.74 44.71,32.74 44.71,32.68 44.71,32.61 44.71,32.49 44.77,32.43 44.77,32.37 44.77,32.31 44.71,32.24 
	44.64,32.24 44.58,32.24 44.52,32.24 44.46,32.24 44.4,32.24 44.4,32.31 44.33,32.31 44.33,32.37 44.27,32.37 44.21,32.37 
	44.15,32.31 44.09,32.31 44.09,32.24 44.03,32.24 44.03,32.18 44.09,32.12 44.15,32.12 44.21,32.06 44.27,32.06 44.33,32.06 
	44.4,32.06 44.4,32 44.46,31.93 44.46,31.87 44.4,31.87 44.33,31.81 44.27,31.81 44.27,31.75 44.21,31.75 44.21,31.69 44.15,31.63 
	44.15,31.56 44.15,31.5 44.21,31.5 44.21,31.44 44.21,31.38 44.15,31.38 44.09,31.32 44.03,31.38 43.96,31.38 43.96,31.44 
	43.9,31.5 43.84,31.5 43.78,31.5 43.72,31.5 43.65,31.5 43.59,31.5 43.53,31.44 43.47,31.38 43.41,31.38 43.35,31.38 43.35,31.32 
	43.35,31.25 43.35,31.19 43.35,31.13 43.41,31.07 43.41,31.01 43.47,31.01 43.47,30.95 43.53,30.95 43.53,30.88 43.53,30.82 
	43.59,30.82 43.59,30.76 43.53,30.76 43.53,30.7 43.47,30.7 43.47,30.64 43.47,30.57 43.53,30.51 43.59,30.51 43.59,30.45 
	43.53,30.39 43.47,30.33 43.41,30.33 43.35,30.33 43.28,30.33 43.22,30.39 43.16,30.39 43.1,30.45 43.04,30.45 42.97,30.45 
	42.91,30.45 42.85,30.39 42.79,30.45 42.73,30.45 42.73,30.39 42.73,30.33 42.79,30.33 42.85,30.27 42.91,30.27 42.91,30.2 
	42.91,30.14 42.97,30.14 42.97,30.08 42.97,30.02 42.97,29.96 42.97,29.89 42.91,29.89 42.85,29.89 42.85,29.83 42.79,29.83 
	42.73,29.83 42.73,29.77 42.67,29.77 42.6,29.83 42.54,29.83 42.48,29.83 42.48,29.77 42.48,29.71 42.48,29.65 42.48,29.59 
	42.42,29.59 42.36,29.59 42.36,29.65 42.29,29.65 42.23,29.65 42.17,29.65 42.17,29.59 42.17,29.52 42.11,29.52 42.11,29.46 
	42.11,29.4 42.11,29.34 42.11,29.28 42.05,29.28 42.05,29.21 41.99,29.21 41.92,29.21 41.86,29.21 41.8,29.15 41.8,29.21 
	41.74,29.21 41.74,29.28 41.68,29.34 41.68,29.4 41.68,29.46 41.61,29.46 41.55,29.52 41.55,29.46 41.49,29.46 41.49,29.4 
	41.43,29.4 41.43,29.34 41.37,29.34 41.31,29.28 41.37,29.28 41.37,29.21 41.37,29.15 41.43,29.15 41.43,29.09 41.37,29.03 
	41.31,29.03 41.24,29.03 41.18,29.03 41.18,29.09 41.12,29.09 41.12,29.15 41.06,29.15 41,29.09 40.93,29.09 40.87,29.09 
	40.87,29.15 40.81,29.15 40.81,29.21 40.75,29.15 40.69,29.15 40.62,29.15 40.56,29.21 40.5,29.21 40.5,29.28 40.44,29.34 
	40.38,29.4 40.32,29.4 40.25,29.4 40.19,29.4 40.13,29.4 40.07,29.4 40.01,29.4 39.94,29.4 39.88,29.4 39.82,29.46 39.76,29.46 
	39.7,29.46 39.64,29.4 39.57,29.4 39.57,29.34 39.51,29.34 39.45,29.34 39.45,29.28 39.45,29.21 39.39,29.21 39.39,29.15 
	39.33,29.15 39.33,29.09 39.26,29.09 39.2,29.03 39.14,29.03 39.08,28.97 39.08,28.91 39.02,28.91 38.96,28.91 38.96,28.84 
	38.96,28.78 38.89,28.78 38.83,28.72 38.77,28.66 38.77,28.6 38.71,28.6 38.71,28.53 38.71,28.47 38.71,28.41 38.65,28.41 
	38.65,28.35 38.58,28.29 38.58,28.23 38.58,28.16 38.65,28.1 38.65,28.04 38.65,27.98 38.58,27.98 38.52,27.98 38.46,27.92 
	38.4,27.98 38.34,27.98 38.28,27.98 38.21,27.98 38.21,27.92 38.21,27.85 38.28,27.85 38.28,27.79 38.34,27.79 38.4,27.79 
	38.4,27.73 38.46,27.67 38.46,27.61 38.46,27.54 38.52,27.54 38.58,27.61 38.65,27.67 38.65,27.73 38.65,27.79 38.71,27.79 
	38.77,27.79 38.77,27.73 38.77,27.67 38.77,27.61 38.77,27.54 38.77,27.48 38.77,27.42 38.83,27.42 38.83,27.36 38.89,27.3 
	38.96,27.3 38.96,27.24 39.02,27.24 39.02,27.17 38.96,27.17 38.89,27.17 38.89,27.11 38.83,27.11 38.83,27.17 38.77,27.17 
	38.71,27.17 38.65,27.17 38.58,27.17 38.52,27.17 38.46,27.17 38.4,27.17 38.4,27.24 38.34,27.3 38.28,27.3 38.21,27.3 38.21,27.24 
	38.15,27.17 38.15,27.11 38.15,27.05 38.21,26.99 38.21,26.93 38.21,26.86 38.21,26.8 38.21,26.74 38.15,26.68 38.15,26.62 
	38.09,26.62 38.03,26.68 37.97,26.74 37.97,26.8 37.97,26.86 38.03,26.86 38.03,26.93 38.03,26.99 38.03,27.05 37.97,27.05 
	37.97,27.11 37.9,27.11 37.84,27.11 37.84,27.17 37.78,27.17 37.72,27.17 37.66,27.17 37.66,27.11 37.6,27.11 37.6,27.05 
	37.53,27.05 37.53,26.99 37.47,26.99 37.47,26.93 37.53,26.86 37.53,26.8 37.6,26.74 37.66,26.62 37.66,26.56 37.72,26.56 
	37.72,26.49 37.72,26.43 37.72,26.37 37.72,26.31 37.72,26.25 37.72,26.18 37.72,26.12 37.66,26.06 37.66,26 37.72,26 37.78,25.94 
	37.84,25.94 37.84,26 37.9,26 37.97,26 38.03,26.06 38.09,26.06 38.15,26.06 38.15,26 38.15,25.94 38.15,25.88 38.09,25.81 
	38.09,25.75 38.03,25.75 37.97,25.69 37.9,25.69 37.9,25.63 37.84,25.63 37.84,25.57 37.78,25.57 37.72,25.57 37.66,25.57 
	37.66,25.63 37.6,25.63 37.6,25.69 37.53,25.69 37.47,25.69 37.41,25.69 37.35,25.69 37.29,25.75 37.22,25.75 37.22,25.69 
	37.16,25.63 37.16,25.57 37.1,25.5 37.1,25.44 37.04,25.44 37.1,25.38 37.1,25.32 37.16,25.26 37.22,25.26 37.29,25.2 37.41,25.2 
	37.47,25.13 37.53,25.13 37.53,25.07 37.53,25.01 37.53,24.95 37.47,24.95 37.41,24.89 37.35,24.89 37.29,24.89 37.22,24.82 
	37.16,24.82 37.1,24.82 37.1,24.76 37.04,24.76 36.98,24.76 36.98,24.82 36.92,24.82 36.85,24.82 36.85,24.89 36.79,24.89 
	36.79,24.82 36.79,24.76 36.79,24.7 36.85,24.7 36.85,24.64 36.92,24.64 36.92,24.58 36.98,24.58 36.98,24.52 36.98,24.45 
	36.92,24.45 36.92,24.39 36.85,24.39 36.79,24.45 36.73,24.45 36.61,24.52 36.61,24.58 36.54,24.58 36.48,24.58 36.42,24.58 
	36.42,24.52 36.48,24.45 36.48,24.39 36.48,24.33 36.48,24.27 36.48,24.21 36.54,24.21 36.54,24.14 36.54,24.08 36.54,24.02 
	36.48,24.02 36.42,24.02 36.42,24.08 36.36,24.08 36.3,24.08 36.3,24.02 36.3,23.96 36.3,23.9 36.3,23.84 36.36,23.77 36.36,23.71 
	36.42,23.71 36.42,23.59 36.36,23.59 36.24,23.59 36.17,23.59 36.11,23.59 36.05,23.65 35.99,23.71 35.93,23.71 35.86,23.84 
	35.74,23.84 35.74,23.77 35.68,23.71 35.74,23.65 35.74,23.53 35.86,23.46 35.93,23.4 35.99,23.34 36.05,23.28 36.17,23.28 
	36.24,23.22 36.3,23.22 36.3,23.09 36.3,23.03 36.24,22.97 36.24,22.91 36.17,22.91 36.11,22.91 36.05,22.91 35.99,22.97 
	35.93,23.03 35.86,23.03 35.86,23.16 35.74,23.22 35.62,23.16 35.55,23.09 35.49,23.03 35.43,22.97 35.37,22.97 35.25,22.97 
	35.18,22.91 35.12,22.85 35.12,22.78 35.06,22.66 35.06,22.6 35.06,22.54 35.06,22.41 35.06,22.35 35,22.35 35,22.29 35,22.23 
	34.94,22.17 34.87,22.1 34.81,22.1 34.81,22.04 34.75,22.04 34.69,21.98 34.63,21.98 34.57,21.98 34.5,21.98 34.44,21.98 
	34.38,21.98 34.32,21.98 34.32,21.92 34.26,21.92 34.19,21.86 34.13,21.86 34.07,21.86 34.01,21.86 33.95,21.86 33.89,21.86 
	33.82,21.86 33.82,21.79 33.82,21.73 33.76,21.67 33.7,21.67 33.7,21.73 33.64,21.73 33.64,21.67 33.58,21.67 33.58,21.61 
	33.58,21.55 33.58,21.49 33.64,21.49 33.64,21.42 33.64,21.36 33.64,21.3 33.58,21.3 33.51,21.24 33.45,21.24 33.45,21.18 
	33.45,21.11 33.39,21.05 33.33,21.05 33.33,20.99 33.27,20.99 33.21,20.99 33.14,20.99 33.14,20.93 33.08,20.93 33.08,20.87 
	33.02,20.81 32.96,20.81 32.96,20.74 32.96,20.68 32.9,20.62 32.9,20.68 32.83,20.68 32.77,20.68 32.71,20.62 32.65,20.68 
	32.59,20.68 32.53,20.68 32.53,20.62 32.53,20.56 32.59,20.56 32.59,20.5 32.59,20.43 32.59,20.37 32.59,20.31 32.59,20.25 
	32.53,20.25 32.53,20.19 32.53,20.13 32.46,20.13 32.4,20.13 32.34,20.13 32.28,20.06 32.34,20.06 32.34,20 32.34,19.94 
	32.34,19.88 32.28,19.88 32.28,19.82 32.28,19.75 32.28,19.69 32.22,19.69 32.22,19.63 32.15,19.63 32.15,19.57 32.09,19.57 
	32.03,19.57 32.03,19.51 31.97,19.51 31.91,19.57 31.91,19.63 31.85,19.63 31.85,19.69 31.78,19.69 31.72,19.69 31.72,19.63 
	31.72,19.57 31.66,19.57 31.66,19.51 31.66,19.45 31.6,19.45 31.6,19.38 31.6,19.32 31.6,19.26 31.54,19.2 31.54,19.14 31.54,19.07 
	31.47,19.01 31.47,18.95 31.47,18.89 31.47,18.83 31.47,18.77 31.47,18.7 31.47,18.64 31.54,18.64 31.54,18.58 31.54,18.52 
	31.54,18.46 31.47,18.46 31.47,18.39 31.54,18.39 31.54,18.33 31.6,18.33 31.66,18.27 31.66,18.21 31.66,18.15 31.66,18.09 
	31.72,18.02 31.78,17.96 31.85,17.9 31.91,17.84 31.97,17.84 31.97,17.78 31.97,17.71 31.97,17.65 31.91,17.65 31.85,17.65 
	31.78,17.65 31.72,17.65 31.66,17.59 31.6,17.53 31.66,17.47 31.6,17.41 31.6,17.34 31.66,17.34 31.72,17.28 31.66,17.28 
	31.6,17.22 31.54,17.22 31.54,17.16 31.47,17.16 31.47,17.1 31.41,17.1 31.35,17.1 31.29,17.1 31.23,17.1 31.16,17.1 31.1,17.1 
	31.1,17.03 31.04,17.03 30.98,16.97 30.98,16.91 30.92,16.91 30.86,16.91 30.86,16.97 30.79,16.97 30.73,17.03 30.73,17.1 
	30.67,17.1 30.61,17.1 30.61,17.03 30.61,16.97 30.61,16.91 30.55,16.85 30.48,16.79 30.42,16.79 30.42,16.73 30.36,16.73 
	30.36,16.66 30.36,16.6 30.3,16.6 30.3,16.54 30.3,16.48 30.3,16.42 30.24,16.42 30.18,16.42 30.11,16.35 30.11,16.29 30.05,16.23 
	30.05,16.17 29.99,16.11 29.99,16.04 29.93,15.98 29.93,15.92 29.87,15.92 29.8,15.86 29.74,15.86 29.68,15.86 29.62,15.86 
	29.62,15.8 29.56,15.8 29.56,15.74 29.5,15.74 29.43,15.67 29.43,15.61 29.43,15.55 29.5,15.55 29.5,15.49 29.56,15.49 29.62,15.49 
	29.62,15.55 29.68,15.55 29.68,15.49 29.74,15.49 29.8,15.43 29.8,15.36 29.87,15.36 29.87,15.3 29.8,15.3 29.8,15.24 29.8,15.18 
	29.74,15.18 29.68,15.18 29.62,15.18 29.56,15.18 29.5,15.12 29.43,15.06 29.37,14.99 29.37,14.93 29.31,14.93 29.31,14.87 
	29.25,14.87 29.19,14.87 29.12,14.87 29.12,14.81 29.06,14.75 29.06,14.68 29,14.62 28.94,14.56 28.94,14.5 28.88,14.5 28.88,14.44 
	28.82,14.44 28.82,14.38 28.75,14.31 28.75,14.25 28.69,14.25 28.69,14.19 28.63,14.13 28.57,14.13 28.57,14.07 28.51,14 
	28.44,13.94 28.44,13.88 28.38,13.88 28.38,13.82 28.32,13.76 28.32,13.7 28.26,13.7 28.26,13.63 28.2,13.63 28.2,13.57 28.2,13.51 
	28.14,13.51 28.07,13.45 28.01,13.45 28.01,13.39 28.01,13.32 27.95,13.32 27.95,13.26 27.89,13.2 27.89,13.14 27.83,13.14 
	27.83,13.08 27.76,13.02 27.76,12.95 27.7,12.95 27.7,12.89 27.64,12.83 27.64,12.77 27.58,12.77 27.58,12.71 27.52,12.71 
	27.46,12.71 27.39,12.77 27.33,12.77 27.27,12.83 27.27,12.77 27.21,12.77 27.15,12.77 27.08,12.77 27.02,12.77 27.02,12.83 
	26.96,12.83 26.9,12.83 26.84,12.83 26.84,12.77 26.84,12.71 26.78,12.64 26.78,12.58 26.71,12.58 26.71,12.52 26.65,12.52 
	26.65,12.46 26.71,12.46 26.78,12.46 26.78,12.4 26.78,12.34 26.71,12.34 26.71,12.27 26.65,12.27 26.65,12.21 26.65,12.15 
	26.59,12.15 26.53,12.09 26.47,12.09 26.4,12.09 26.34,12.09 26.28,12.09 26.28,12.03 26.22,12.03 26.16,12.03 26.09,12.03 
	26.03,12.03 26.03,11.96 25.97,11.96 25.91,11.96 25.85,11.96 25.79,11.96 25.72,11.96 25.66,11.9 25.6,11.84 25.6,11.78 
	25.54,11.72 25.48,11.72 25.41,11.72 25.35,11.78 25.35,11.72 25.29,11.72 25.23,11.72 25.23,11.66 25.17,11.59 25.23,11.53 
	25.23,11.47 25.23,11.41 25.23,11.35 25.17,11.35 25.17,11.28 25.17,11.22 25.17,11.16 25.11,11.16 25.11,11.1 25.11,11.04 
	25.04,11.04 24.98,11.04 24.98,10.98 24.92,10.98 24.86,10.91 24.86,10.85 24.8,10.85 24.8,10.79 24.8,10.73 24.8,10.67 24.8,10.6 
	24.73,10.54 24.73,10.48 24.67,10.42 24.67,10.36 24.73,10.36 24.73,10.29 24.73,10.23 24.67,10.17 24.67,10.11 24.61,10.05 
	24.55,9.99 24.49,9.92 24.43,9.86 24.36,9.86 24.3,9.86 24.3,9.8 24.24,9.8 24.24,9.74 24.18,9.74 24.18,9.68 24.12,9.68 
	24.12,9.61 24.05,9.61 23.99,9.55 23.93,9.49 23.87,9.49 23.81,9.49 23.75,9.43 23.68,9.37 23.68,9.31 23.68,9.24 23.62,9.24 
	23.56,9.18 23.56,9.24 23.5,9.24 23.5,9.18 23.44,9.12 23.37,9.12 23.37,9.06 23.31,9.06 23.25,9 23.19,8.93 23.13,8.87 23.07,8.87 
	23,8.81 22.94,8.75 22.94,8.69 22.88,8.69 22.82,8.69 22.82,8.63 22.76,8.63 22.69,8.56 22.63,8.5 22.63,8.44 22.63,8.38 
	22.57,8.38 22.57,8.32 22.51,8.32 22.51,8.25 22.45,8.25 22.39,8.25 22.39,8.19 22.39,8.13 22.32,8.13 22.26,8.07 22.2,8.01 
	22.14,7.95 22.08,7.95 22.08,7.88 22.01,7.82 21.95,7.82 21.95,7.76 21.95,7.7 21.95,7.64 21.89,7.64 21.83,7.64 21.83,7.57 
	21.77,7.57 21.77,7.51 21.71,7.51 21.71,7.45 21.71,7.39 21.71,7.33 21.64,7.27 21.58,7.27 21.58,7.2 21.52,7.2 21.46,7.14 
	21.4,7.08 21.33,7.02 21.27,6.96 21.21,6.96 21.15,6.96 21.15,6.89 21.09,6.89 21.09,6.83 21.09,6.77 21.02,6.71 20.96,6.71 
	20.96,6.65 20.9,6.65 20.84,6.65 20.78,6.65 20.78,6.59 20.78,6.52 20.78,6.46 20.78,6.4 20.78,6.28 20.72,6.21 20.72,6.15 
	20.65,6.09 20.59,6.09 20.59,6.03 20.53,5.97 20.47,5.97 20.47,5.91 20.41,5.91 20.41,5.84 20.34,5.78 20.28,5.72 20.28,5.66 
	20.22,5.66 20.22,5.6 20.16,5.6 20.1,5.6 20.1,5.53 20.1,5.47 20.04,5.47 20.04,5.35 19.97,5.29 19.97,5.23 19.91,5.16 19.91,5.1 
	19.85,5.1 19.79,5.04 19.79,4.98 19.73,4.98 19.73,4.92 19.79,4.92 19.79,4.85 19.79,4.79 19.79,4.73 19.79,4.67 19.73,4.67 
	19.73,4.61 19.73,4.55 19.73,4.48 19.73,4.42 19.73,4.36 19.73,4.3 19.73,4.24 19.79,4.24 19.85,4.17 19.91,4.17 19.97,4.24 
	19.97,4.17 20.04,4.17 20.04,4.11 20.1,4.11 20.16,4.05 20.16,3.99 20.1,3.99 20.04,3.93 19.97,3.93 19.97,3.86 19.91,3.86 
	19.91,3.8 19.85,3.8 19.85,3.74 19.79,3.74 19.79,3.68 19.79,3.62 19.73,3.62 19.73,3.56 19.73,3.49 19.66,3.49 19.66,3.43 
	19.66,3.37 19.6,3.37 19.6,3.31 19.54,3.31 19.48,3.31 19.48,3.37 19.42,3.37 19.36,3.37 19.29,3.37 19.23,3.37 19.17,3.37 
	19.17,3.31 19.11,3.31 19.11,3.25 19.11,3.18 19.11,3.12 19.11,3.06 19.11,3 19.11,2.94 19.05,2.88 19.05,2.81 19.05,2.75 
	19.11,2.75 19.17,2.75 19.17,2.81 19.17,2.88 19.23,2.88 19.29,2.94 19.36,3 19.36,3.06 19.42,3.06 19.48,3.06 19.54,3.06 
	19.6,3.06 19.66,3.06 19.73,3.12 19.79,3.12 19.79,3.06 19.85,3.06 19.97,3.06 20.04,3.06 20.1,3.06 20.16,3 20.22,3 20.28,2.94 
	20.34,2.94 20.41,2.88 20.47,2.88 20.53,2.81 20.59,2.81 20.59,2.88 20.65,2.94 20.72,2.94 20.72,3 20.78,3 20.78,3.06 20.84,3.06 
	20.84,3.12 20.9,3.12 20.96,3.06 21.02,3.06 21.02,3 21.09,3 21.15,3 21.21,3 21.27,3 21.33,2.94 21.4,2.88 21.46,2.81 21.52,2.81 
	21.58,2.81 21.58,2.75 21.64,2.81 21.83,2.88 21.89,2.94 21.95,2.94 21.95,3 22.01,3 22.08,3 22.14,3 22.2,3 22.26,3 22.39,3 
	22.45,3 22.51,3.06 22.57,3.06 22.63,3.06 22.76,3 22.82,2.94 22.88,2.94 22.94,2.94 22.94,2.88 23,2.88 23,2.81 23.07,2.81 
	23.13,2.81 23.19,2.75 23.19,2.69 23.19,2.63 23.25,2.63 23.25,2.69 23.31,2.69 23.37,2.69 23.44,2.63 23.44,2.57 23.44,2.5 
	23.5,2.5 23.56,2.44 23.62,2.44 23.62,2.5 23.68,2.5 23.75,2.5 23.75,2.44 23.81,2.38 23.87,2.32 23.93,2.26 23.99,2.26 24.05,2.26 
	24.18,2.2 24.24,2.2 24.3,2.13 24.36,2.13 24.36,2.07 24.43,2.07 24.49,2.01 24.55,2.01 24.61,1.89 24.67,1.82 24.67,1.76 
	24.67,1.64 24.67,1.58 24.67,1.52 24.61,1.45 24.61,1.39 24.55,1.39 24.55,1.33 24.49,1.33 24.49,1.27 24.49,1.21 24.49,1.14 
	24.49,1.08 24.55,1.02 24.55,0.96 24.61,0.96 24.67,0.9 24.73,0.9 24.73,0.84 24.73,0.77 24.73,0.71 24.8,0.71 24.8,0.65 24.8,0.59 
	24.86,0.59 24.86,0.53 24.86,0.46 24.86,0.4 24.92,0.34 25.04,0.28 25.11,0.28 25.11,0.22 25.17,0.22 25.23,0.22 25.29,0.22 
	25.35,0.22 25.41,0.22 25.48,0.22 25.54,0.22 25.6,0.22 25.66,0.22 25.72,0.22 25.79,0.22 25.85,0.22 25.91,0.22 25.97,0.22 
	26.09,0.16 26.16,0.16 26.22,0.16 26.28,0.16 26.4,0.09 26.4,0.03 26.47,0.03 26.47,-0.03 26.53,-0.03 26.65,-0.09 26.71,-0.09 
	26.71,-0.03 26.78,-0.03 26.84,-0.03 26.84,-0.09 26.84,-0.15 26.9,-0.15 26.96,-0.09 27.02,-0.09 27.02,-0.03 27.02,0.03 
	26.96,0.09 26.96,0.16 26.9,0.16 26.84,0.22 26.84,0.28 26.84,0.34 26.9,0.34 26.9,0.4 26.96,0.46 26.96,0.53 26.96,0.59 
	26.96,0.65 27.02,0.65 27.02,0.59 27.08,0.59 27.15,0.71 27.21,0.77 27.27,0.84 27.33,0.9 27.33,0.96 27.33,1.02 27.33,1.08 
	27.33,1.14 27.27,1.14 27.21,1.14 27.21,1.21 27.15,1.21 27.15,1.27 27.15,1.33 27.08,1.39 27.08,1.45 27.08,1.52 27.15,1.52 
	27.21,1.45 27.27,1.45 27.27,1.52 27.27,1.58 27.27,1.64 27.27,1.7 27.27,1.76 27.27,1.82 27.33,1.82 27.33,1.89 27.39,1.89 
	27.46,1.89 27.52,1.89 27.52,1.95 27.58,1.95 27.64,1.95 27.64,2.01 27.58,2.01 27.52,2.01 27.46,2.01 27.46,2.07 27.46,2.13 
	27.46,2.2 27.52,2.2 27.52,2.38 27.58,2.44 27.64,2.44 27.64,2.5 27.64,2.57 27.64,2.63 27.7,2.63 27.7,2.69 27.76,2.69 27.76,2.75 
	27.76,2.81 27.7,2.81 27.64,2.81 27.58,2.75 27.58,2.81 27.64,2.88 27.7,2.88 27.76,2.81 27.83,2.81 27.83,2.88 27.83,2.94 27.89,3 
	27.89,3.06 27.83,3.12 27.83,3.18 27.89,3.25 27.95,3.25 28.01,3.25 28.07,3.25 28.14,3.25 28.2,3.31 28.2,3.37 28.26,3.43 
	28.32,3.49 28.32,3.56 28.26,3.56 28.26,3.62 28.2,3.62 28.2,3.68 28.26,3.74 28.26,3.8 28.26,3.86 28.32,3.86 28.32,3.93 
	28.38,3.93 28.44,3.93 28.44,3.99 28.38,3.99 28.32,4.05 28.32,4.11 28.32,4.17 28.38,4.17 28.44,4.17 28.44,4.24 28.51,4.24 
	28.51,4.3 28.57,4.3 28.57,4.36 28.63,4.42 28.63,4.48 28.69,4.55 28.69,4.61 28.63,4.61 28.51,4.48 28.44,4.48 28.38,4.48 
	28.38,4.55 28.44,4.55 28.44,4.61 28.44,4.67 28.44,4.73 28.51,4.73 28.51,4.79 28.57,4.79 28.57,4.73 28.63,4.73 28.63,4.79 
	28.63,4.85 28.63,4.92 28.69,4.98 28.69,5.04 28.75,5.04 28.75,5.1 28.82,5.1 28.88,5.16 28.88,5.23 28.82,5.29 28.75,5.35 
	28.75,5.41 28.75,5.47 28.75,5.53 28.75,5.6 28.82,5.6 28.88,5.53 28.94,5.53 29,5.53 29,5.6 29,5.66 29,5.78 29,5.84 29,5.91 
	29.06,5.91 29.12,5.97 29.19,6.03 29.25,6.09 29.31,6.21 29.31,6.28 29.31,6.34 29.25,6.34 29.25,6.4 29.31,6.46 29.31,6.52 
	29.37,6.52 29.37,6.59 29.43,6.65 29.43,6.71 29.37,6.71 29.31,6.77 29.31,6.83 29.37,6.83 29.43,6.83 29.43,6.89 29.43,6.96 
	29.5,7.02 29.56,7.02 29.56,7.08 29.56,7.14 29.5,7.2 29.56,7.2 29.62,7.14 29.68,7.14 29.74,7.14 29.87,7.2 29.93,7.27 29.93,7.33 
	29.93,7.45 29.99,7.45 30.05,7.51 30.05,7.57 30.05,7.64 30.11,7.64 30.11,7.7 30.05,7.7 30.05,7.76 30.05,7.82 30.11,7.82 
	30.18,7.76 30.24,7.76 30.3,7.82 30.36,7.82 30.42,7.82 30.42,7.88 30.48,7.88 30.55,7.88 30.55,7.95 30.61,7.95 30.73,8.07 
	30.86,8.13 30.86,8.19 30.92,8.19 30.92,8.25 30.98,8.25 30.98,8.19 31.04,8.19 31.04,8.25 31.1,8.32 31.1,8.38 31.1,8.44 
	31.16,8.44 31.16,8.5 31.23,8.56 31.23,8.63 31.29,8.75 31.35,8.75 31.41,8.75 31.41,8.81 31.41,8.87 31.35,8.87 31.35,8.93 
	31.35,9 31.35,9.06 31.41,9.06 31.47,9.06 31.54,9.06 31.54,9.12 31.6,9.12 31.6,9.18 31.54,9.18 31.54,9.24 31.54,9.31 31.6,9.31 
	31.6,9.37 31.54,9.37 31.54,9.43 31.54,9.49 31.47,9.49 31.47,9.55 31.54,9.61 31.6,9.61 31.6,9.68 31.54,9.68 31.54,9.74 
	31.6,9.74 31.6,9.8 31.66,9.8 31.72,9.8 31.72,9.86 31.66,9.86 31.66,9.92 31.6,9.92 31.54,9.99 31.6,9.99 31.6,10.05 31.66,10.05 
	31.66,10.11 31.66,10.17 31.66,10.23 31.72,10.23 31.78,10.23 31.78,10.29 31.78,10.36 31.78,10.42 31.85,10.42 31.91,10.42 
	31.91,10.48 31.97,10.48 31.97,10.54 32.03,10.54 32.09,10.54 32.09,10.6 32.15,10.6 32.15,10.67 32.22,10.67 32.22,10.73 
	32.28,10.73 32.28,10.79 32.28,10.85 32.28,10.91 32.28,10.98 32.22,10.98 32.22,11.04 32.28,11.04 32.28,11.1 32.34,11.1 
	32.34,11.16 32.4,11.16 32.4,11.22 32.34,11.22 32.34,11.28 32.4,11.28 32.4,11.35 32.4,11.41 32.4,11.47 32.46,11.53 32.53,11.53 
	32.53,11.59 32.59,11.59 32.59,11.66 32.65,11.66 32.71,11.66 32.77,11.66 32.83,11.66 32.9,11.66 32.96,11.66 33.02,11.66 
	33.08,11.66 33.14,11.66 33.21,11.59 33.27,11.59 33.39,11.59 33.45,11.53 33.51,11.53 33.58,11.47 33.64,11.47 33.7,11.47 
	33.76,11.47 33.82,11.53 33.89,11.59 33.95,11.59 33.95,11.66 33.95,11.72 34.01,11.72 34.01,11.78 34.07,11.84 34.07,11.78 
	34.13,11.78 34.19,11.78 34.26,11.78 34.32,11.78 34.38,11.78 34.38,11.72 34.44,11.72 34.5,11.72 34.57,11.66 34.63,11.66 
	34.69,11.66 34.75,11.66 34.75,11.72 34.81,11.72 34.87,11.72 34.94,11.72 35,11.72 35.06,11.72 35.12,11.72 35.18,11.72 
	35.25,11.66 35.31,11.59 35.31,11.53 35.37,11.53 35.43,11.47 35.49,11.47 35.55,11.47 35.62,11.53 35.68,11.53 35.74,11.53 
	35.8,11.53 35.86,11.47 35.93,11.41 35.93,11.35 35.99,11.35 36.05,11.35 36.11,11.41 36.11,11.35 36.17,11.35 36.17,11.22 
	36.17,11.16 36.24,11.16 36.3,11.1 36.36,11.1 36.42,11.1 36.48,11.1 36.54,11.04 36.48,11.04 36.48,10.98 36.48,10.91 36.54,10.85 
	36.54,10.79 36.54,10.73 36.61,10.67 36.67,10.6 36.73,10.54 36.79,10.54 36.85,10.54 36.92,10.48 36.98,10.48 36.98,10.42 
	37.04,10.36 37.1,10.36 37.1,10.29 37.16,10.29 37.22,10.29 37.29,10.29 37.35,10.29 37.47,10.36 37.53,10.42 37.6,10.42 
	37.66,10.42 37.72,10.42 37.78,10.42 37.84,10.42 37.9,10.48 37.97,10.48 38.03,10.48 38.09,10.42 38.15,10.42 38.21,10.42 
	38.21,10.48 38.21,10.54 38.28,10.54 38.28,10.6 38.34,10.67 38.34,10.73 38.34,10.79 38.34,10.85 38.34,10.91 38.28,10.98 
	38.28,11.04 38.21,11.1 38.21,11.16 38.21,11.22 38.21,11.28 38.28,11.28 38.34,11.35 38.4,11.35 38.46,11.35 38.46,11.41 
	38.52,11.53 38.52,11.59 38.52,11.66 38.52,11.72 38.52,11.78 38.58,11.84 38.58,11.9 38.52,11.9 38.46,11.9 38.46,11.96 
	38.52,11.96 38.52,12.03 38.58,12.09 38.71,12.15 38.77,12.15 38.77,12.21 38.77,12.27 38.77,12.34 38.77,12.4 38.71,12.4 
	38.71,12.46 38.71,12.52 38.71,12.58 38.77,12.64 38.77,12.71 38.77,12.77 38.83,12.77 38.83,12.83 38.83,12.89 38.83,12.95 
	38.83,13.02 38.83,13.08 38.89,13.08 38.96,13.14 38.96,13.2 39.02,13.32 39.08,13.39 39.14,13.45 39.2,13.51 39.2,13.57 
	39.2,13.63 39.2,13.7 39.2,13.76 39.2,13.82 39.2,13.94 39.2,14 39.2,14.07 39.26,14.13 39.26,14.19 39.26,14.25 39.26,14.31 
	39.2,14.31 39.2,14.38 39.2,14.44 39.14,14.5 39.14,14.56 39.08,14.56 39.08,14.62 39.08,14.68 39.08,14.81 39.08,14.93 
	39.02,14.99 39.02,15.06 38.96,15.12 38.89,15.18 38.96,15.24 38.96,15.3 38.96,15.43 38.89,15.49 38.96,15.49 39.02,15.55 
	39.08,15.61 39.14,15.67 39.14,15.74 39.2,15.74 39.14,15.8 39.08,15.86 39.08,15.92 39.02,15.98 39.02,16.04 39.02,16.11 
	39.02,16.17 38.96,16.23 38.89,16.17 38.83,16.17 38.77,16.23 38.71,16.29 38.65,16.29 38.58,16.29 38.52,16.29 38.52,16.35 
	38.46,16.35 38.4,16.35 38.34,16.29 38.28,16.29 38.21,16.29 38.15,16.35 38.09,16.35 38.03,16.42 37.97,16.48 37.97,16.54 
	38.03,16.54 38.03,16.6 38.09,16.6 38.09,16.66 38.15,16.66 38.15,16.73 38.21,16.79 38.28,16.85 38.28,16.91 38.34,17.03 
	38.4,17.1 38.46,17.16 38.52,17.22 38.58,17.22 38.65,17.28 38.71,17.41 38.77,17.47 38.83,17.47 38.89,17.47 38.89,17.53 
	38.96,17.59 38.96,17.65 38.89,17.65 38.89,17.71 38.83,17.71 38.83,17.78 38.83,17.84 38.83,17.9 38.83,17.96 38.83,18.02 
	38.89,18.09 38.96,18.09 39.02,18.09 39.02,18.15 39.08,18.15 39.08,18.21 39.08,18.27 39.14,18.27 39.14,18.33 39.2,18.39 
	39.26,18.46 39.33,18.52 39.39,18.58 39.39,18.64 39.39,18.7 39.33,18.7 39.33,18.77 39.33,18.83 39.26,18.95 39.26,19.01 
	39.26,19.07 39.26,19.14 39.33,19.2 39.33,19.26 39.33,19.32 39.26,19.38 39.2,19.45 39.08,19.51 38.96,19.51 38.89,19.57 
	38.83,19.57 38.83,19.63 38.89,19.63 38.89,19.69 38.96,19.69 38.96,19.75 38.96,19.82 39.02,19.88 38.96,19.94 39.02,20 
	39.02,20.06 39.08,20.06 39.14,20.06 39.14,20.13 39.2,20.19 39.2,20.25 39.26,20.25 39.33,20.37 39.39,20.37 39.45,20.43 
	39.57,20.5 39.7,20.56 39.76,20.56 39.82,20.56 39.88,20.56 39.94,20.56 40.01,20.62 40.07,20.62 40.07,20.68 40.13,20.74 
	40.19,20.74 40.25,20.74 40.69,20.5 41,20.43 41.61,20.19 42.11,20.13 42.48,20.06 42.73,20.13 42.91,20.19 43.28,20.19 
	43.53,19.94 43.78,19.94 44.21,20.13 44.46,20.31 44.58,20.37 44.58,20.5 44.58,20.62 44.58,20.68 44.71,20.68 44.83,20.68 
	44.89,20.68 44.95,21.05 45.01,21.24 45.01,21.3 45.01,21.36 45.08,21.36 45.14,21.3 45.14,21.24 45.2,21.18 45.26,21.11 
	45.32,21.11 45.39,21.11 45.39,21.18 45.45,21.18 45.57,21.11 45.63,21.11 45.69,21.11 45.76,21.11 45.82,21.11 45.88,21.11 
	45.94,21.11 45.94,21.18 45.94,21.24 46,21.24 46.07,21.24 46.13,21.24 46.19,21.3 46.25,21.3 46.31,21.3 46.38,21.3 46.44,21.24 
	46.44,21.18 46.5,21.18 46.62,21.11 46.68,21.05 46.68,20.99 46.81,20.99 46.87,21.05 46.93,21.05 46.99,21.05 47.06,21.05 
	47.12,21.05 47.18,21.05 47.18,20.99 47.24,20.99 47.3,20.99 47.3,21.05 47.36,21.05 47.36,20.99 47.43,20.93 47.49,20.93 
	47.55,20.93 47.67,20.99 47.74,20.99 47.74,20.93 47.8,20.87 47.8,20.81 47.8,20.74 47.8,20.68 47.86,20.68 47.86,20.62 
	47.86,20.56 47.86,20.5 47.86,20.43 47.86,20.37 47.8,20.37 47.74,20.37 47.74,20.43 47.67,20.43 47.61,20.5 47.55,20.56 
	47.49,20.62 47.43,20.62 47.3,20.68 47.24,20.68 47.18,20.62 47.12,20.62 47.12,20.56 47.18,20.56 47.18,20.5 47.18,20.43 
	47.12,20.37 47.12,20.31 47.12,20.25 47.12,20.19 47.18,20.13 47.18,20.06 47.12,20.06 47.06,20 47.12,19.94 47.12,19.88 
	47.18,19.82 47.24,19.82 47.24,19.75 47.24,19.69 47.24,19.63 47.24,19.57 47.18,19.51 47.18,19.45 47.12,19.38 47.12,19.32 
	47.06,19.26 47.12,19.2 47.06,19.14 47.06,19.07 47.06,19.01 47.06,18.95 47.12,18.89 47.12,18.83 47.18,18.77 47.18,18.7 
	47.24,18.7 47.24,18.64 47.3,18.64 47.3,18.58 47.3,18.52 47.24,18.46 47.18,18.46 47.12,18.39 47.06,18.39 47.06,18.33 
	46.99,18.33 46.99,18.39 46.93,18.39 46.87,18.46 46.81,18.46 46.75,18.39 46.68,18.33 46.62,18.33 46.56,18.27 46.5,18.21 
	46.44,18.21 46.44,18.15 46.44,18.09 46.5,18.09 46.5,18.02 46.56,17.96 46.56,17.9 46.62,17.9 46.62,17.84 46.62,17.78 
	46.68,17.71 46.75,17.53 46.81,17.41 46.87,17.41 46.87,17.34 46.87,17.28 46.87,17.22 46.93,17.22 46.99,17.1 47.06,17.1 
	47.06,17.03 47.06,16.97 47.12,16.91 47.12,16.85 47.12,16.79 47.06,16.73 47.06,16.66 47.06,16.6 47.06,16.54 47.06,16.48 
	47.06,16.35 47.12,16.29 47.12,16.17 47.12,16.11 47.12,16.04 47.12,15.98 47.06,15.92 47.06,15.86 47.06,15.8 46.99,15.8 
	46.99,15.74 46.93,15.74 46.87,15.74 46.87,15.67 46.81,15.61 46.75,15.61 46.75,15.55 46.75,15.49 46.75,15.43 46.75,15.36 
	46.75,15.3 46.81,15.24 46.81,15.18 46.81,15.12 46.75,15.12 46.68,15.06 46.62,15.06 46.56,15.06 46.5,15.06 46.44,14.99 
	46.31,14.99 46.25,14.93 46.19,14.87 46.13,14.87 46.13,14.81 46.13,14.75 46.13,14.68 46.07,14.62 46.07,14.56 45.94,14.31 
	45.94,14.25 45.88,14.25 45.88,14.19 45.88,14.13 45.82,14 45.82,13.94 45.82,13.82 45.82,13.76 45.88,13.7 45.88,13.63 
	45.94,13.63 45.94,13.57 45.94,13.51 46,13.51 46,13.45 46,13.39 46,13.32 46,13.26 45.94,13.14 45.94,13.02 45.88,12.95 
	45.88,12.89 45.88,12.83 45.82,12.83 45.82,12.77 45.88,12.77 45.88,12.71 45.88,12.64 45.94,12.64 46,12.64 46,12.58 46.07,12.58 
	46.07,12.52 46.07,12.46 46,12.46 46,12.4 46,12.34 46,12.27 46.07,12.21 46,12.21 46,12.15 46.07,12.15 46.07,12.09 46.13,12.09 
	46.13,12.03 46.13,11.96 46.13,11.9 46.13,11.84 46.19,11.84 46.25,11.84 46.38,11.78 46.44,11.72 46.44,11.66 46.38,11.59 
	46.38,11.53 46.44,11.47 46.5,11.41 46.5,11.35 46.5,11.28 46.75,11.1 46.87,10.98 46.93,10.98 47.12,10.85 47.36,10.67 
	47.67,10.48 47.98,10.36 48.11,10.29 48.04,10.11 48.04,9.92 47.86,9.74 47.61,9.37 47.49,9.18 47.24,9.06 46.87,9 46.56,9 
	46.38,8.93 46.31,8.87 46.31,8.81 46.31,8.75 46.25,8.75 46.25,8.69 46.25,8.63 46.25,8.56 46.25,8.5 46.19,8.44 46.19,8.38 
	46.19,8.32 46.19,8.25 46.25,8.25 46.31,8.19 46.31,8.13 46.31,8.07 46.25,8.01 46.25,7.95 46.25,7.88 46.25,7.82 46.19,7.7 
	46.19,7.64 46.19,7.57 46.13,7.51 46.19,7.51 46.19,7.45 46.19,7.39 46.13,7.33 46.07,7.27 46.07,7.2 46.07,7.08 46,6.96 46,6.83 
	45.94,6.71 45.94,6.59 45.94,6.52 46,6.4 46,6.34 46,6.28 46,6.21 45.94,6.15 45.94,6.09 45.94,6.03 46,6.03 46.07,5.97 46.07,5.91 
	46.07,5.84 46.07,5.78 46.07,5.72 46.07,5.66 46.07,5.6 46,5.53 46,5.47 45.94,5.47 45.94,5.41 45.94,5.35 45.88,5.29 45.88,5.23 
	45.88,5.04 45.88,4.98 45.82,4.98 45.82,4.92 45.82,4.85 45.82,4.79 45.82,4.73 45.82,4.67 45.76,4.61 45.76,4.55 45.69,4.48 
	45.69,4.42 45.63,4.36 45.57,4.3 45.57,4.24 45.51,4.17 45.45,4.17 45.45,4.11 45.39,4.05 45.39,3.99 45.39,3.93 45.39,3.86 
	45.32,3.8 45.32,3.74 45.39,3.74 45.39,3.68 45.39,3.62 45.39,3.56 45.39,3.49 45.45,3.43 45.51,3.43 45.51,3.37 45.57,3.37 
	45.57,3.31 45.57,3.18 45.57,3.12 45.51,3.12 45.51,3.06 45.51,3 45.51,2.94 45.57,2.88 45.57,2.81 45.57,2.75 45.51,2.75 
	45.45,2.75 45.45,2.69 45.39,2.69 45.39,2.63 45.32,2.57 45.26,2.5 45.2,2.5 45.14,2.5 45.08,2.5 45.08,2.44 45.01,2.38 45.01,2.32 
	44.95,2.32 44.95,2.26 44.95,2.2 44.95,2.13 44.95,2.07 44.95,2.01 44.95,1.95 44.95,1.89 45.01,1.89 45.01,1.82 45.08,1.82 
	45.14,1.82 45.2,1.82 45.26,1.82 45.32,1.82 45.39,1.89 45.45,1.89 45.51,1.95 45.57,1.89 45.63,1.89 45.69,1.82 45.76,1.76 
	45.76,1.7 45.69,1.64 45.69,1.58 45.76,1.52 45.82,1.52 45.88,1.52 45.94,1.52 46,1.52 46,1.58 46,1.64 46.07,1.64 46.07,1.7 
	46.13,1.7 46.19,1.7 46.19,1.76 46.25,1.82 46.31,1.89 46.38,1.89 46.44,1.89 46.5,1.89 46.56,1.89 46.62,1.89 46.62,1.95 
	46.68,1.95 46.75,1.95 46.75,2.01 46.81,2.07 46.81,2.13 46.87,2.13 46.87,2.2 46.93,2.2 46.99,2.26 47.06,2.32 47.12,2.38 
	47.12,2.44 47.18,2.44 47.24,2.5 47.3,2.5 47.36,2.5 47.43,2.44 47.49,2.38 47.49,2.32 47.55,2.32 47.61,2.26 47.61,2.2 47.61,2.13 
	47.67,2.07 47.74,2.07 47.8,2.07 47.86,2.07 47.92,2.07 47.98,2.13 47.98,2.2 47.98,2.26 47.98,2.32 48.04,2.32 48.11,2.32 
	48.17,2.32 48.17,2.38 48.23,2.38 48.29,2.38 48.29,2.32 48.29,2.26 48.29,2.2 48.35,2.2 48.35,2.26 48.42,2.26 48.48,2.26 
	48.54,2.26 48.6,2.32 48.66,2.38 48.66,2.44 48.72,2.44 48.72,2.5 48.72,2.57 48.79,2.57 48.79,2.63 48.79,2.69 48.85,2.69 
	48.85,2.75 48.91,2.81 48.91,2.88 48.91,2.94 48.97,2.94 49.03,2.94 49.03,3 49.1,3 49.1,3.06 49.1,3.12 49.16,3.12 49.22,3.12 
	49.28,3.12 49.28,3.18 49.34,3.12 49.4,3.12 49.47,3.18 49.53,3.18 49.53,3.12 49.59,3.12 49.65,3.06 49.71,3 49.71,2.94 
	49.78,2.88 49.78,2.81 49.78,2.75 49.78,2.63 49.78,2.57 49.78,2.5 49.71,2.38 49.78,2.32 49.84,2.26 49.9,2.2 49.9,2.13 49.9,2.07 
	49.96,2.07 49.96,2.01 49.96,1.95 49.96,1.89 50.02,1.89 50.08,1.89 50.15,1.89 50.15,1.82 50.21,1.82 50.27,1.82 50.33,1.76 
	50.39,1.7 50.39,1.64 50.46,1.58 50.46,1.52 50.52,1.52 "/>
</svg>
