<?xml version="1.0" encoding="utf-8"?>
<!-- Generator: Adobe Illustrator 24.2.1, SVG Export Plug-In . SVG Version: 6.00 Build 0)  -->
<svg version="1.1" id="Layer_1" xmlns="http://www.w3.org/2000/svg" xmlns:xlink="http://www.w3.org/1999/xlink" x="0px" y="0px"
	 viewBox="0 0 97.23 97.23" style="enable-background:new 0 0 97.23 97.23;" xml:space="preserve">
<style type="text/css">
	.st0{fill-rule:evenodd;clip-rule:evenodd;fill:#1D1D1B;}
</style>
<path class="st0" d="M44.41,87.38v-0.14V87.1v-0.14l0.14-0.14h0.14h-0.14v0.14v0.14v0.14L44.41,87.38L44.41,87.38z M43.71,83.62
	h0.14h0.14h0.14h0.14v0.14h0.14l0.14,0.14v0.14v0.14h0.14v0.14v0.14v0.14h-0.14v0.14l-0.14,0.14v0.14h-0.14v-0.14h-0.14v-0.14V84.6
	h-0.14v-0.14v-0.14h-0.14v-0.14v-0.14V83.9h-0.14v-0.14V83.62v-0.14V83.62L43.71,83.62z M47.61,81.82h-0.14v-0.14l-0.14-0.14V81.4
	v-0.14v-0.14v-0.14l-0.14-0.14l-0.14-0.14h-0.14h-0.14h-0.14v0.14h-0.14l-0.14,0.14v0.14l-0.14,0.14v0.14l0.14,0.14v0.14v0.14h-0.14
	v0.14v0.14h0.14h-0.14v0.14h0.14v0.14v0.14h0.14v0.14h-0.14h-0.14h-0.14v0.14h-0.14v0.14H45.8v0.14v0.14h0.14v0.14v0.14H45.8h0.14
	v0.14H45.8v-0.14h-0.14h-0.14v0.14h-0.14v0.14v0.14l0.14,0.14v0.14v0.14v0.14h0.14v0.14h0.14v0.14v0.14v0.14v0.14h0.14v0.14h0.14
	h0.14h-0.14h-0.14v0.14v0.14H45.8h-0.14v0.14v0.14h-0.14v0.14v-0.14v0.14h-0.14h-0.14v-0.14v-0.14H45.1h-0.14v0.14l-0.14,0.14v0.14
	h0.14v0.14h-0.14v0.14v0.14l0.14,0.14v0.14h0.14v0.14v-0.14h0.14v-0.14v0.14v0.14H45.1v0.14v0.14h0.14V87.1v0.14h0.14v0.14v0.14
	v0.14v0.14h0.14h-0.14v0.14V87.8h-0.14v0.14v0.14h0.14v0.14v0.14h0.14v0.14h-0.14h-0.14l-0.14,0.14v0.14v0.14h-0.14l-0.14,0.14
	h-0.14v0.14h0.14h0.14v0.14h0.14v-0.14l0.14,0.14v0.14h0.14v0.14h0.14v0.14v0.14h0.14v0.14v0.14v0.14h0.14v0.14h-0.14l0.14,0.14
	l0.14,0.14h0.14h0.14h0.14v0.14V91v0.14v0.14v0.14v0.14v0.14v0.14v0.14v0.14h-0.14h-0.14h0.14v0.14h-0.14h-0.14H45.8h-0.14h-0.14
	h-0.14v0.14h-0.14v0.14h0.14h0.14h0.14v0.14v0.14v0.14h-0.14h-0.14h-0.14H45.1h-0.14v0.14h-0.14v0.14v0.14l0.14,0.14h0.14h0.14h0.14
	h0.14h0.14h0.14h0.14v0.14h0.14l0.14,0.14v0.14l0.14,0.14v0.14h0.14v-0.14l0.14,0.14h-0.14v0.14l0.14,0.14h-0.14h0.14v-0.14V94.2
	h0.14v-0.14h0.14v0.14h0.14v-0.14h0.14l0.14,0.14v0.14v0.14h0.14h0.14h0.14h0.14v-0.14l0.14-0.14h0.14v0.14h0.14v0.14h0.14v0.14
	h0.14v0.14h-0.14v0.14v0.14v0.14v0.14H48.3v0.14v0.14h-0.14h0.14v0.14h0.14v0.14h0.14h0.14h0.14v0.14H49l0.14,0.14l0.14,0.14
	l0.14,0.14l0.14,0.14v0.14h0.14h0.14h0.14v0.14h0.14h0.14h0.14v-0.14v-0.14v-0.14v-0.14v-0.14v-0.14v-0.14v-0.14l0.14-0.14v-0.14
	l-0.14-0.14h-0.14v-0.14h0.14v-0.14h-0.14V94.9h0.14v-0.14l-0.14-0.14v-0.14v-0.14V94.2h0.14v-0.14h0.14v-0.14v-0.14v-0.14v-0.14
	v-0.14h0.14h0.14v-0.14v-0.14v-0.14h-0.14h-0.14h-0.14v0.14h-0.14v0.14h-0.14v0.14h-0.14l-0.14-0.14v-0.14v-0.14v-0.14v-0.14h0.14
	h0.14v-0.14v-0.14h0.14h0.14v-0.14h-0.14l-0.14-0.14l0.14-0.14h0.14h0.14h0.14v-0.14h0.14h0.14V91.7l0.14-0.14h-0.14h-0.14v-0.14
	h-0.14v0.14h-0.14v-0.14h-0.14h0.14v-0.14h0.14h0.14v-0.14h0.14L51.09,91l0.14-0.14v-0.14v-0.14v-0.14v-0.14l0.14-0.14v-0.14v-0.14
	v-0.14l0.14-0.14v-0.14l-0.14-0.14v-0.14v-0.14h-0.14v-0.14v-0.14v-0.14V88.5h-0.14v-0.14v-0.14h-0.14v-0.14v-0.14V87.8l-0.14-0.14
	v-0.14v-0.14v-0.14V87.1v-0.14v-0.14v-0.14h0.14v-0.14h0.14v0.14v-0.14h0.14h0.14v-0.14l-0.14-0.14l-0.14-0.14v-0.14v-0.14
	l-0.14-0.14h-0.14v-0.14h-0.14v0.14l-0.14,0.14v0.14v0.14v-0.14h-0.14h-0.14h-0.14h-0.14v0.14v-0.14h-0.14v-0.14l-0.14-0.14
	l0.14-0.14v-0.14v-0.14h-0.14h-0.14l-0.14-0.14v-0.14v-0.14h-0.14v-0.14h-0.14H49V84.6v0.14v0.14v0.14h-0.14h-0.14h-0.14h-0.14
	v-0.14H48.3v0.14v0.14v0.14v0.14h0.14v0.14v-0.14h0.14h-0.14v0.14H48.3v-0.14v0.14h-0.14h-0.14v0.14l-0.14-0.14l-0.14-0.14v-0.14
	h0.14v-0.14l-0.14-0.14v-0.14v-0.14h-0.14V84.6v-0.14h0.14v-0.14h0.14v-0.14v-0.14h-0.14V83.9v-0.14h0.14v-0.14h0.14v-0.14v-0.14
	h-0.14v-0.14h0.14v0.14l0.14-0.14v-0.14h0.14v-0.14h-0.14l-0.14-0.14h-0.14v-0.14v-0.14l0.14-0.14l-0.14-0.14l-0.14-0.14v-0.14
	v-0.14H47.61L47.61,81.82z M34.25,80.01h-0.14h-0.14h-0.14v-0.14h-0.14v-0.14l0.14-0.14h0.14h0.14h0.14v0.14v0.14V80.01L34.25,80.01
	z M33.41,76.81h-0.14h-0.14v0.14h-0.14v0.14v0.14v0.14v0.14v0.14h0.14v0.14v0.14l0.14,0.14h0.14v0.14v0.14l-0.14,0.14h0.14
	l-0.14,0.14v0.14l0.14,0.14v0.14h-0.14v0.14h0.14v0.14v0.14h0.14h-0.14v0.14h0.14h0.14v-0.14v-0.14v-0.14v-0.14v-0.14h0.14h0.14
	v-0.14l-0.14-0.14v-0.14v-0.14V78.2h0.14v-0.14v-0.14h-0.14v-0.14v-0.14V77.5l-0.14-0.14v-0.14h-0.14v-0.14l-0.14-0.14V76.81
	L33.41,76.81z M39.67,75h-0.14H39.4h-0.14v-0.14v-0.14v-0.14h0.14v0.14v0.14h0.14h0.14V75L39.67,75z M40.09,74.44h-0.14v0.14h0.14
	v0.14h-0.14v0.14h0.14V75v0.14l0.14,0.14v0.14l-0.14,0.14v0.14l-0.14,0.14l-0.14,0.14h-0.14l-0.14,0.14v-0.14H39.4l-0.14,0.14h-0.14
	l-0.14,0.14h-0.14H38.7l-0.14-0.14l0.14-0.14v-0.14h-0.14l-0.14,0.14l-0.28,0.14v0.14v0.14v0.14L38,76.67l0.14,0.14v0.14l0.14,0.14
	h0.14v-0.14v-0.14l0.14-0.14l0.28-0.14h0.14h0.14h0.14h0.28h0.14l0.14,0.14h0.14l0.14,0.14h0.14l0.14,0.14l0.14,0.14l0.14,0.14h0.14
	l0.14,0.14l-0.14,0.14l0.14,0.14v0.14h0.14h0.14h0.14v0.14v0.14l0.14,0.14v0.14h0.14V78.2v-0.14l0.14-0.14v-0.14l-0.14-0.14
	l-0.14-0.14v-0.14v-0.14v-0.14v-0.14l0.14-0.14v-0.14v-0.14h0.14l0.14-0.14h0.14h0.14h0.14h0.14h0.14h0.28v0.14v0.14l0.14-0.14
	l0.14-0.14l0.14-0.14l-0.14-0.14l0.14-0.14v-0.14v-0.14h0.14v-0.14v-0.14l-0.14-0.14h-0.14h-0.14h-0.14h-0.14H42.6h-0.14h-0.14
	h-0.14l-0.14,0.14h-0.28h-0.14l-0.14-0.14v-0.14v0.14h-0.14H41.2h-0.14l-0.14-0.14h-0.14V75h-0.14h-0.14h-0.14h-0.14v-0.14v-0.14
	v-0.14h-0.14V74.44L40.09,74.44z M38.42,69.43h0.14h0.14v0.14v0.14v0.14v0.14v0.14h-0.14h-0.14v-0.14h0.14v-0.14h-0.14v-0.14h-0.14
	v-0.14v-0.14h-0.14h0.14v-0.14h0.14V69.43L38.42,69.43z M34.25,68.87h0.14v0.14v0.14h0.14h0.14v0.14h0.14v0.14h0.14h0.14h0.14v-0.14
	h0.14h0.14h0.14l0.14,0.14v0.14h-0.14v0.14H35.5h-0.14v0.14h-0.14v0.14v0.14h-0.14v-0.14v-0.14h-0.14H34.8h-0.14h-0.14h-0.14h-0.14
	v-0.14h0.14v-0.14v0.14h0.14h0.14v-0.14h-0.14v-0.14h-0.14v-0.14h-0.14v-0.14h-0.14h-0.14v-0.14l0.14-0.14H34.25L34.25,68.87z
	 M30.49,69.15v0.14l-0.14,0.14v0.14h-0.14h-0.14h-0.14h0.14v-0.14v-0.14h-0.14v-0.14v-0.14v-0.14h0.14v-0.14V68.6l0.14-0.14v-0.14
	l0.14-0.14h0.14v-0.14h0.14l0.14-0.14v-0.14h0.14h0.14h0.14v-0.14h0.14l0.14-0.14v-0.14h0.14h0.14v0.14l-0.14,0.14v0.14l-0.14,0.14
	v0.14v0.14h-0.14v0.14h-0.14v0.14l-0.14,0.14h-0.14v0.14l-0.14,0.14h-0.14v0.14L30.49,69.15L30.49,69.15z M35.78,67.9h-0.14v-0.14
	H35.5v-0.14v-0.14l-0.14-0.14h-0.14V67.2h-0.14v-0.14v-0.14l-0.14-0.14v-0.14l-0.14-0.14v-0.14v-0.14h-0.14l-0.14-0.14v-0.14v-0.14
	l0.14-0.14h0.14v0.14h0.14v0.14l0.14,0.14h0.14v0.14h0.14v0.14h0.14v0.14v0.14v0.14l0.14,0.14v0.14l0.14,0.14v0.14l0.14,0.14v0.14
	v0.14L35.78,67.9L35.78,67.9z M38,65.39v0.14v0.14h-0.14v-0.14h-0.14h-0.14v-0.14v0.14v0.14l0.14,0.14l0.14,0.14v0.14h-0.14v-0.14
	h-0.14v-0.14h-0.14h0.14v-0.14h-0.14l-0.14-0.14v-0.14h0.14h0.14l-0.14-0.14v-0.14h0.14h0.14h0.14v0.14H38V65.39L38,65.39z
	 M40.93,65.67v0.14l-0.14,0.14v0.14h0.14v0.14h-0.14v0.14v0.14h-0.14l-0.14,0.14v0.14v0.14h-0.14v0.14h-0.14h-0.14h-0.14v-0.14
	h-0.14v-0.14v-0.14v-0.14v-0.14v-0.14v-0.14v-0.14v-0.14v-0.14h0.14v-0.14v-0.14v-0.14v-0.14h0.14l0.14-0.14l0.14-0.14l0.14-0.14
	v-0.14h0.14h0.14v0.14h0.14v0.14v0.14h0.14h-0.14v0.14v0.14v0.14v0.14V65.67L40.93,65.67z M33.41,62.89h0.14v0.14h-0.14v0.14v0.14
	h-0.14v-0.14l-0.14-0.14v-0.14v-0.14v-0.14h0.14v-0.14h0.14v-0.14v0.14v0.14v0.14V62.89L33.41,62.89z M22.28,48.83v0.14v0.14v0.14
	h0.14h0.14h0.14l0.14,0.14v0.14h0.14v0.14h0.14h0.14v0.14h0.14h0.14h0.14v0.14h0.14h-0.14h0.14v0.14v0.14h-0.14v0.14v0.14v0.14h0.14
	v0.14h-0.14h-0.14h-0.14h-0.14h-0.14h-0.14l-0.14-0.14h-0.14V50.5h-0.14h-0.14v-0.14h-0.14h-0.14v0.14l0.14,0.14V50.5v0.14v0.14
	h0.14v0.14v0.14h0.14v0.14l0.14,0.14h0.14v0.14h0.14v0.14h0.14v0.14v0.14h0.14h0.14v0.14v0.14h0.14v0.14h0.14v0.14v0.14h0.14v0.14
	h0.14v0.14v0.14h0.14v0.14v0.14h0.14v0.14h-0.14l0.14,0.14v0.14v0.14l0.14,0.14v0.14v0.14v0.14v0.14v0.14v0.14h-0.14h0.14v0.14v0.14
	v0.14v0.14v0.14h-0.14v0.14v0.14h0.14v0.14h0.14v0.14v0.14h0.14v0.14v-0.14h0.14h0.14h0.14v0.14l0.14,0.14v0.14h0.14l0.14,0.14
	l0.14,0.14h-0.14l0.14,0.28v0.14l0.14,0.28v0.14v0.14v0.14h0.14v0.14v0.14h-0.14v0.14h-0.14v0.14h0.14v0.14l-0.14,0.14v0.14v0.14
	v0.28v0.14v0.14v0.14l-0.14,0.14l0.14,0.14l-0.14,0.14h-0.14v0.14v0.14l0.14,0.14l0.14,0.14h0.14v0.14h0.14v0.14v0.14v0.14v0.14
	v0.14h0.14h0.14v0.14v0.14v0.14h0.14l-0.14,0.14v0.14v0.14v0.14h-0.14H25.9v0.14h-0.14v0.14h0.14v0.14h0.14h0.14v0.14h0.14h0.14
	h0.14v0.14h0.14v0.14v0.14h0.14v0.14v0.14h0.14V64v0.14h0.14v0.14h0.14h-0.14v0.14h0.14v0.14l0.14,0.14l0.14,0.14v0.14h0.14v0.14
	h0.14v-0.14h0.14v-0.14V64.7v-0.14h-0.14H27.7l-0.14-0.14h-0.14v-0.14l-0.14,0.14v-0.14v-0.14V64l0.14-0.14h0.14v-0.14h0.14v-0.14
	h0.14v0.14h0.14v-0.14h0.14v0.14v-0.14h0.14h0.14h0.14h0.14h0.14h0.14h0.14h0.14h0.14v0.14h0.14v0.14h0.14h0.14h0.14V64h0.14v0.14
	h0.14h0.14v0.14v0.14l0.14-0.14v0.14v-0.14h0.14v0.14h0.14h0.14v-0.14h0.14h0.14v0.14h0.14v0.14h0.14l0.14-0.14h0.14v0.14h0.14h0.14
	h0.14v-0.14v0.14v-0.14h0.14h0.14h0.14v-0.14h0.14v-0.14V64v-0.14v-0.14v-0.14v-0.14h-0.14v-0.14v-0.14v-0.14v-0.14h-0.14v-0.14
	H32.3v-0.14v-0.14h-0.14v-0.14h-0.14v-0.14h-0.14h0.14v-0.14h-0.14l0.14-0.14v-0.14h0.14v-0.14h0.14h0.14h0.14V61.5h0.14h0.14h0.14
	l0.14,0.14v0.14h0.14v0.14h-0.14h0.14v0.14l0.14-0.14h0.14v0.14h0.14h0.14v0.14h0.14h-0.14h0.14v0.14v0.14h0.14v0.14h0.14l0.14,0.14
	v0.14v0.14v0.14h0.14v0.14h0.14h0.14v0.14h0.14v0.14h0.14v0.14h0.14v0.14h0.14V64h0.14v0.14h0.14h0.14h0.14v0.14h0.14h0.14v0.14
	h0.14v0.14v0.14h0.14h0.14h0.14h0.14v0.14v0.14v0.14h0.14v0.14h0.14h0.14v0.14v-0.14v-0.14h-0.14h0.14h0.14v-0.14h-0.14v-0.14V64.7
	h-0.14v-0.14h0.14v-0.14v-0.14v-0.14V64h0.14v-0.14h0.14l0.14-0.14h0.14v-0.14v-0.14H38h0.14v-0.14v-0.14H38h-0.14v-0.14H38h-0.14
	v-0.14h-0.14v-0.14h-0.14h-0.14h-0.14v-0.14h-0.14v-0.14h-0.14v-0.14h-0.14h-0.14v-0.14v-0.14v-0.14h-0.14v-0.14l-0.14-0.14V61.5
	h-0.14v-0.14v-0.14h-0.14v-0.14v-0.14V60.8h-0.14h-0.14v-0.14v-0.14h-0.14v-0.14v-0.14v-0.14h-0.14v-0.14H35.5v-0.14h-0.14v-0.14
	v-0.14l-0.14-0.14l-0.14-0.14v-0.14h-0.14v-0.14H34.8v-0.14h-0.14h-0.14l-0.14-0.14h-0.14v-0.14h-0.14v0.14v0.14l-0.14,0.14v0.14
	h-0.14h-0.14v0.14v-0.14v-0.14v-0.14h-0.14h0.14v-0.14h0.14l0.14-0.14h0.14v-0.14h0.14V58.3v-0.14v-0.14v-0.14v-0.14V57.6h-0.14
	v-0.14l-0.14-0.14h-0.14v-0.14v0.14h-0.14h-0.14h-0.14v0.14l-0.14,0.14v-0.14h-0.14v-0.14l-0.14-0.14h0.14v-0.14h-0.14V56.9h-0.14
	v-0.14l0.14-0.14h0.14v-0.14h-0.14v-0.14h-0.14v-0.14h0.14v-0.14v-0.14h-0.14v-0.14h-0.14h-0.14h-0.14v-0.14v-0.14H32.3l-0.14-0.14
	l-0.14-0.14h-0.14V55.1v-0.14v-0.14h-0.14H31.6v-0.14v-0.14h-0.14V54.4v-0.14l-0.14-0.14h0.14v-0.14h-0.14v-0.14V53.7h-0.14h-0.14
	v-0.14h-0.14v-0.14h-0.14v-0.14v-0.14v-0.14v-0.14v-0.14h-0.14v-0.14h-0.14v-0.14v-0.14h-0.14h-0.14h-0.14h-0.14h-0.14v-0.14h-0.14
	v-0.14h-0.14h-0.14v-0.14v-0.14h-0.14l-0.14-0.14l-0.14-0.14h-0.14v-0.14l-0.14-0.14h-0.14v-0.14v-0.14H28.4v-0.14v-0.14h-0.14V50.5
	h-0.14h-0.14h-0.14H27.7h-0.14h-0.14v-0.14h-0.14v-0.14h-0.14h-0.14h-0.14h-0.14v-0.14h-0.14h-0.14v-0.14l-0.14,0.14h-0.14v-0.14
	h-0.14H25.9h-0.14h-0.14v-0.14v0.14h-0.14h-0.14H25.2h-0.14v0.14h-0.14h-0.14h-0.14H24.5h-0.14l-0.14-0.14v-0.14h0.14l0.14-0.14
	v-0.14h-0.14v0.14h-0.14h-0.14v0.14h-0.14h-0.14h-0.14v-0.14h-0.14v-0.14v-0.14h-0.14h-0.14v-0.14h-0.14h-0.14v-0.14h-0.14v-0.14
	h-0.14v-0.14v0.14h-0.14v-0.14h-0.14H22.28L22.28,48.83z M22,48.28l0.14,0.14v0.14v0.14H22h-0.14v-0.14v0.14v-0.14v0.14h-0.14v-0.14
	v-0.14h0.14L22,48.28L22,48.28z M29.24,46.47v-0.14v-0.14v0.14h0.14v0.14H29.24L29.24,46.47z M48.3,46.33l-0.14-0.14v-0.14h-0.14
	v-0.14l-0.14-0.14v-0.14h-0.14l-0.14-0.14h-0.14l-0.14-0.14h-0.14v-0.14h0.14h0.14v0.14h0.14h0.14h0.14v0.14h0.14v0.14h0.14v0.14
	v0.14l0.14,0.28l0.14,0.14H48.3L48.3,46.33z M41.2-0.15h-0.14h-0.14v0.14h-0.14v0.14v0.14h-0.14V0.4l-0.28,0.14l-0.14,0.28
	l-0.14,0.14l-0.14,0.28l-0.14,0.14v0.14l-0.14,0.14h-0.14L39.4,1.79h-0.14l-0.14,0.14h-0.14l-0.14-0.14H38.7h-0.14V1.66h-0.14v0.14
	h-0.14v0.14V1.79h-0.14H38h-0.14h-0.28l-0.14-0.14h-0.14l-0.14-0.14h-0.14h-0.14v0.14l-0.14,0.14l0.14,0.14h-0.14l0.14,0.14h-0.14
	h-0.14v0.14h-0.14l-0.14-0.14v0.14h0.14h-0.14v0.14l-0.14,0.14v0.14h-0.14v0.14V2.63h-0.14h-0.14h-0.14v0.14v0.14v0.14v0.14v0.14
	H35.5l0.14,0.14H35.5V3.6v0.14V3.6h-0.14v0.14v0.14h-0.14h-0.14v0.14h-0.14H34.8v0.14h-0.14V4.3l-0.14,0.28h-0.14V4.44h-0.14v0.14
	v0.14h-0.14V4.58h-0.14h-0.14v0.14h-0.14v0.14h0.14V5l0.14,0.14v0.14h-0.14h-0.14h-0.14v0.14h-0.14v0.14h-0.14h-0.14v0.14v0.14v0.14
	h0.14v0.14v0.14h-0.14h0.14l-0.14,0.14l-0.14-0.14h-0.14v0.14h-0.14h-0.14V6.25h-0.14v0.14v0.14v0.14V6.8H32.3v0.14l0.14,0.14h0.14
	v0.14v0.14V7.5l-0.14,0.14v0.14h0.14v0.14h0.14v0.14V8.2v0.14v0.14h0.14v0.14h-0.14v0.14l0.14,0.14v0.14v0.14h0.14v0.14h0.14
	l0.14,0.14v0.14l-0.14,0.14v0.14h-0.14v0.14v0.14l0.14,0.14h-0.14h0.14v0.14h0.14h0.14h0.14v0.28v0.14v0.14h0.14v0.14h0.14v0.14
	h-0.14v0.14h0.14v0.14h-0.14V11.4h-0.14v0.14h-0.14v0.14v0.14h0.14v0.14v0.14h-0.14v-0.14h-0.14l-0.14,0.14v-0.14h-0.14h-0.14v0.14
	v0.14v0.14h-0.14l0.14,0.14v-0.14v-0.14h0.14v0.14v-0.14h0.14v0.14v0.14v0.14h0.14h0.14v0.14v0.14h0.14h0.14v0.14h0.14v0.14v0.14
	h0.14v0.14h0.14h0.14l0.14,0.14v0.14v0.14h0.14v-0.14h0.14l0.28,0.28l-0.14,0.14h0.14h0.14v0.14v0.14h0.14v-0.14h0.14v0.14
	l-0.14,0.14h0.14l0.28,0.28v0.14v0.14H35.5h-0.14v0.14l-0.14,0.14v-0.14l-0.28-0.14H34.8h-0.14l-0.14,0.14v-0.14h-0.14v0.14h-0.14
	v0.14l-0.14-0.14l-0.14,0.14v-0.14h-0.14l-0.14,0.14v-0.14h-0.14v-0.14h0.14h-0.14v-0.14v-0.14h-0.14h-0.14v-0.14h-0.14V14.6v0.14
	l-0.14-0.14h-0.14v-0.14l-0.28-0.28v-0.14h-0.14l-0.14,0.14h-0.14v-0.14V13.9l-0.14-0.14l0.14-0.14v-0.14h-0.14l-0.14-0.14v-0.14
	v-0.14h-0.14H31.6h-0.14h-0.14h-0.14h-0.14v0.14h-0.14h-0.14l-0.28-0.14h-0.14v0.14h-0.14l-0.14,0.14l-0.14,0.14l-0.14,0.14h-0.14
	h-0.14l-0.14,0.14v0.14v0.14v0.14v0.14l-0.14,0.14v0.14l-0.14,0.14v0.14v0.14v0.14h-0.14v0.14h-0.14h-0.14h-0.14H28.4v0.14v0.28
	h-0.14h-0.14v0.14h-0.14h-0.14v0.14v0.14H27.7h-0.14h-0.14h-0.14h-0.14l-0.14,0.14v-0.14h-0.14v0.14h-0.14v0.14l-0.14-0.14h-0.14
	v0.14h-0.14h-0.14v0.14h0.14v0.14v0.14v0.14v0.14h0.14v0.14h0.14h0.14h0.14v0.14l0.14,0.14l0.14,0.14v0.14v0.14v0.14h0.14h-0.14
	v0.14v-0.14v0.14h-0.14v0.14v0.14h-0.14h0.14v0.14h-0.14h0.14v0.14v0.14h0.14h-0.14v0.14h0.14v0.14h-0.14h0.14v0.14h0.14h0.14v0.14
	h-0.14v0.14h-0.14v0.14v0.14h0.14l-0.14,0.14l0.14,0.14h0.14h0.14v0.14h0.14v0.14h0.14v0.14l0.28,0.14h0.14v0.14V21v0.14h0.14v0.14
	v-0.14h0.14l0.14,0.14h-0.14h0.14v0.14l0.14,0.14v0.28l0.14,0.14h-0.14h0.14v0.14h0.14v0.14v0.14v-0.14v0.14h0.14v0.14v0.14v0.14
	l-0.14,0.14v0.14h-0.14v0.14v0.14v0.14v0.14v0.14h-0.14v0.14h-0.14v0.14h-0.14H28.4v0.14h-0.14v0.14h-0.14h-0.14v0.14h0.14v0.14
	h-0.14h-0.14H27.7v0.14h-0.14v0.14v0.14v0.14h0.14h0.14h0.14v0.14h0.14h0.14v0.14v0.28v0.14l-0.14,0.14v0.14v0.28l-0.14,0.14v0.14
	v0.14v0.14h0.14l0.14,0.14h0.14l0.14,0.14l0.14,0.28l0.14,0.14h0.14h0.14h0.14h0.14l0.14,0.14h0.14l0.14,0.14h0.14l0.14,0.14h0.14
	l0.14,0.14v0.14l0.14,0.14h0.14l0.14,0.14h0.14v0.14h0.28h0.14h0.14v0.14v0.14v0.14v0.14l0.14,0.14v0.14h0.14v0.14v0.14v0.14H31.6
	h-0.14h-0.14l-0.14,0.14h-0.14v0.14l-0.14,0.14v0.14v0.14l-0.14,0.14v0.14h-0.14l-0.14,0.14h-0.14h-0.14l-0.14,0.14v0.14l-0.14,0.14
	l-0.14,0.14l-0.14,0.14v0.14l-0.14,0.14v0.14v0.14v0.14l0.14,0.14l0.14,0.14v0.14v0.14v0.14l0.14,0.14v0.14l-0.14,0.14v0.14v0.14
	v0.14l-0.14,0.14l-0.14,0.14v0.14l-0.14,0.14l-0.14,0.14l-0.14,0.14l-0.14,0.14l-0.14,0.14l-0.14,0.14l-0.14,0.14H28.4l-0.14,0.14
	l-0.14,0.14l-0.14,0.14l-0.14,0.14H27.7v0.14l-0.14,0.14h-0.14v0.14l-0.14,0.14h-0.14v0.14h-0.14l-0.14,0.14L26.73,37h-0.14
	l-0.14,0.14h-0.14h-0.14h-0.14H25.9l-0.14,0.14h-0.28h-0.14h-0.28l-0.97-0.14h-0.14l-0.14,0.14l-0.14-0.14h-0.14h-0.14l-0.14,0.14
	l-0.14,0.14h-0.14l-0.14,0.14l-0.14,0.14l0.14,0.42v0.14l0.14,0.14l0.14,0.14v0.14h0.14v0.14v0.14l0.14,0.14v0.14v0.14v0.14h-0.14
	h-0.14h-0.14v0.14v0.14h0.14h0.14h0.14v0.14h0.14v0.14h0.14v0.14h0.14v0.14l0.14,0.14l0.14,0.14v0.14h0.14v0.14l0.14,0.14v0.14h0.14
	v0.14h0.14v0.14v0.14h0.14v0.14l0.14,0.14v0.14l0.14,0.14v0.14v0.14v0.14h0.14v0.14v0.14h0.14v0.14H25.2v0.14v0.14v0.14h-0.14v0.14
	h-0.14h-0.14h-0.14h0.14h-0.14v-0.14H24.5h-0.14v0.14v0.14h0.14v0.14v0.14h0.14v0.14H24.5v0.14h0.14v0.14H24.5v0.14h0.14l-0.14,0.14
	h-0.14v0.14h-0.14v0.14h0.14v0.14h0.14h0.14v0.14v0.14v0.14l0.14,0.14h0.14h0.14v0.14l0.14,0.14v0.14h0.14v0.14h0.14l0.14,0.14h0.14
	v0.14l0.14-0.14h0.14h0.14v0.14h0.14h0.14v-0.14h0.14v-0.14h0.14v0.14h0.14v0.14h0.14h0.14v0.14h0.14v0.14h0.14h0.14v-0.14h0.14
	h0.14v0.14h0.14v0.14h0.14h0.14v-0.14h0.14v-0.14h-0.14v-0.14v-0.14v-0.14v-0.14h0.14v-0.14h0.14l0.14-0.14v-0.14h0.14h0.14
	l0.14-0.14h0.14h0.14v-0.14h0.14h0.14h0.14h0.14l0.14,0.14h0.14v0.14h0.14h0.14v0.14v0.14h0.14v-0.14h0.14h0.14h0.14v0.14v-0.14
	h0.14v-0.14h0.14v0.14h0.14h0.14h0.14v0.14h0.14v0.14h0.14v0.14h0.14v0.14h0.14v0.14h0.14v0.14h0.14l0.14,0.14h0.14h0.14h0.14v0.14
	h0.14v0.14l0.14,0.14v0.14v0.14h0.14v0.14l0.14,0.14v-0.14v0.14h0.14h0.14v0.14h0.14v-0.14h0.14h0.14h0.14h0.14h0.14h0.14h0.14h0.14
	h0.14h0.14h0.14h0.14v-0.14v0.14h0.14v-0.14v0.14h0.14v-0.14v0.14h0.14h0.14h0.14h0.14h0.14h0.14h0.14h0.14v0.14h0.14h0.14h0.14
	L37.72,48h0.14H38h0.14h0.14v0.14h0.14h0.14h0.14h0.14h0.14h0.14h0.14h0.14V48h0.14h0.14h0.14v0.14h0.14V48v0.14v0.14h0.14v-0.14
	v0.14v0.14h-0.14h-0.14h-0.14v0.14l-0.14,0.14v0.14v0.14v0.14h0.14v0.14v0.14l0.14,0.14l0.14,0.14l0.14,0.14l0.14,0.14h0.14v0.14
	h0.14l0.14,0.14h0.14l0.14,0.14h0.14h0.14l0.14,0.14h0.14l0.28,0.14h0.14h0.14l0.14,0.14h0.14h0.14v0.14h0.14h0.14l0.28,0.14h0.14
	v0.14h0.14h0.14l0.14,0.14h0.14v0.14h0.14h0.14v0.14v-0.14v0.14h0.14h0.14v0.14h0.14l0.14,0.14l0.14,0.14h0.14v0.14l0.28,0.28v0.14
	h0.14l0.14,0.14v0.14l0.14,0.14v0.14h-0.14h0.14v0.14h0.14v0.14v0.14v0.14h0.14h0.14v0.14l0.14,0.14v0.14h0.14v0.14l0.14,0.14v0.14
	v0.14v0.14v0.14h-0.14v0.14v0.14v0.14h0.14v0.14v0.14v0.14h-0.14v0.14v0.14h0.14h-0.14v0.14v0.14v0.14h-0.14l0.14,0.14h0.14v0.14
	l0.14-0.14v0.14h0.14h0.14v0.14h0.14v-0.14l0.14,0.14v0.14h0.14h0.14V56.9l0.14,0.14v0.14h0.14v0.14h0.14v-0.14h0.14v-0.14h0.14
	h0.14l0.14,0.14h0.14v0.14l0.14-0.14v0.14v0.14h0.14h0.14v0.14H49h-0.14H49v0.14h0.14V57.6h0.14v-0.14v-0.14v-0.14h0.14v-0.14V56.9
	v-0.14v-0.14h-0.14v-0.14h0.14h-0.14v-0.14l-0.14-0.14v-0.14v-0.14H49v-0.14h0.14H49v-0.14v-0.14h-0.14v-0.14h-0.14v-0.14h-0.14
	V55.1h-0.14H48.3v-0.14h-0.14v-0.14v-0.14v-0.14V54.4v-0.14h-0.14v-0.14h-0.14h-0.14v-0.14h-0.14h-0.14h-0.14v-0.14h-0.14
	l-0.14-0.14v-0.14v-0.14v-0.14v-0.14v-0.14h0.14v-0.14v0.14h0.14v-0.14h-0.14v-0.14h-0.14v-0.14h0.14v-0.14v-0.14h0.14v-0.14h0.14
	h-0.14v-0.14h0.14v-0.14h0.14v-0.14h-0.14v-0.14v-0.14h-0.14h-0.14v-0.14V51.2v-0.14h0.14v-0.14v0.14h-0.14h-0.14v-0.14h-0.14v-0.14
	h-0.14v-0.14V50.5l0.14-0.14v-0.14l0.14-0.14v-0.14v-0.14h0.14v-0.14h-0.14v-0.14v-0.14v-0.14v-0.14h-0.14v-0.14v-0.14v-0.14
	l-0.14-0.14v-0.14v-0.14h-0.14v-0.14L46.77,48v-0.14h0.14h0.14h0.14h0.14h0.14v-0.14h0.14v0.14h0.14h0.14h0.14V48v-0.14h0.14v-0.14
	h-0.14v-0.14v-0.14h-0.14V47.3h-0.14v-0.14h-0.14h-0.14v-0.14v-0.14v-0.14h-0.14v-0.14h-0.14h-0.14v-0.14l0.14-0.14v-0.14h-0.14
	h0.14v-0.14l0.14-0.14v-0.14h0.14v-0.14v-0.14h-0.14h-0.14v-0.14h-0.14v-0.14h0.14h0.14h0.14h0.14h0.14h0.14v-0.14l0.14-0.14h0.14
	V44.8h0.14h0.14h0.14v-0.14h0.14h0.14v-0.14H49v-0.14h0.14v-0.14h0.14h0.14h0.28v0.14h0.14v0.14h0.14v0.14h0.14v0.14h0.14h0.14h0.14
	h0.14v0.14h0.14h0.14h0.14v0.14v0.14h0.14v0.14h0.14h0.14v0.14h0.14h0.14v0.14h0.14v0.14h0.14h0.14l0.14,0.14l0.28,0.14l0.14,0.14
	h0.14l0.28,0.14v0.14h0.14v0.14h0.14l0.14,0.14v0.14h0.14v0.14v0.14l0.14,0.14v0.14v0.14v0.14h0.14v0.14V48h-0.14v0.14l-0.14,0.14
	l0.14,0.14h0.14h-0.14v0.14v0.14h-0.14v-0.14h-0.14h-0.14h-0.14l-0.14-0.14h-0.14h-0.14h-0.14v0.14v-0.14h-0.14v0.14h-0.14h-0.14
	v0.14H52.2v0.14v0.14v0.14l0.14,0.14v0.14h0.14h0.14v0.14h0.14l0.14,0.14h0.14v0.14h0.14l0.14,0.28v0.14h0.14l0.14,0.14l0.28,0.28
	h0.28l0.14,0.14l0.28,0.14l0.14,0.14h0.14l0.28,0.28l0.28,0.14l0.14,0.14l0.14,0.14v0.14l0.14,0.14l0.14,0.14l0.14,0.14l0.28,0.28
	h0.14l0.14,0.14l0.14,0.14v0.14h0.14l0.14,0.14l0.14,0.14l0.28,0.14l0.14,0.14l0.14,0.14h0.14l0.14,0.28v0.14h0.14l0.14,0.14
	l0.14,0.14l0.14,0.14l0.14,0.14l0.14,0.14h0.14l0.14,0.14l0.14,0.14h0.14v0.14h0.14l0.14,0.14l0.14,0.14l0.14,0.14h0.14l0.14,0.14
	l0.28,0.28l0.14,0.14l0.28,0.28l0.28,0.14l0.14,0.14v0.14l0.28,0.14l0.14,0.14v0.14h0.28l0.14,0.14v0.14l0.14,0.14l0.28,0.28
	l0.14,0.14l0.14,0.14v0.14h0.14v0.14l0.14,0.14v0.14l0.14,0.14l0.14,0.28v0.14v0.14v0.28v0.14l0.14,0.28v0.14v0.14v0.14l0.14,0.14
	v0.14v0.14v0.14h0.14v0.14v0.14h0.14v0.14v0.14v0.14v0.14v0.14v0.14h-0.14h-0.14h-0.14v0.14h0.14v0.14v0.14v0.14l0.14,0.14
	l0.14,0.14v0.14l0.14,0.14v0.14l0.14,0.14L64.45,64l0.14,0.14v0.14h0.14v0.14v0.14v0.14l0.14,0.14v0.14H65v0.14v0.14l0.14,0.14v0.14
	v0.14v0.28v0.14v0.14L65,66.37v0.14v0.14v0.14h-0.14h-0.14h-0.14v0.14h-0.14v0.14v0.14h-0.14v0.14v0.14v0.14v0.14v0.14v0.14v0.14
	h0.14v0.14v0.14h0.14v0.14v0.14h0.14v0.14l0.14,0.14v0.14H65v0.14h0.14v0.14h0.14l0.14,0.14l0.14,0.14v0.14l0.28,0.28l0.14,0.14
	v0.14l0.28,0.14v0.14h0.14v0.14l0.14,0.14v0.14h0.14v0.14h0.14v0.14l0.14,0.14l0.14,0.14v0.14l0.14,0.14l0.14,0.14l0.14,0.14
	l0.14,0.14v0.14l0.14,0.14l0.14,0.14l0.14,0.14l0.14,0.28l0.14,0.14l0.14,0.14v0.14l0.14,0.14l0.14,0.14l0.14,0.28l0.14,0.28
	l0.14,0.14l0.14,0.14l0.14,0.14h0.14V75l0.14,0.14l0.14,0.14l0.14,0.14v0.14l0.14,0.14l0.14,0.14l0.14,0.14l0.14,0.14l0.14,0.14
	l0.28,0.28v0.14l0.14,0.14l0.14,0.14l0.14,0.14l0.14,0.14l0.14,0.14v0.14h0.14v0.14l0.14,0.14l0.28,0.28v0.14h0.14v0.14h0.14v0.14
	l0.14,0.28l0.14,0.14v0.14h0.14v0.14l0.14,0.14v0.14h-0.14v0.14h0.14h0.14l0.14,0.14l0.14,0.42l0.14,0.14v0.14h0.14h-0.14v0.14v0.14
	h0.14v0.14h0.14v0.14l0.14,0.14v0.14h0.14v0.14v0.14l0.14,0.14v0.14l0.14,0.14v0.14v0.14l0.14,0.14h-0.14h-0.14v0.14l0.28-0.14
	l-0.14,0.14l-0.28,0.14v0.14v-0.14h0.14h0.14h0.14h-0.14v0.14l0.14-0.14l0.14,0.28v0.14l0.14,0.28v0.14v0.14h0.14v0.14v0.14h0.14
	v0.14v0.14v0.14l0.14-0.14v0.14h-0.14v0.14v0.14v0.14v0.14v0.14v0.14v0.14h-0.14v0.14v0.14v0.14v0.14v0.14h-0.14v0.14v0.14h-0.14
	v0.14v0.14v0.14h0.14v0.14v0.14h0.14v0.14v0.14v0.14v0.14v0.14v0.14h0.14v0.14h-0.14v0.14l0.14,0.14v0.14v0.14v0.14h0.14v0.14h-0.14
	v0.14h0.14v0.14v0.14h0.14v0.14h0.14h0.14h0.14L76,89.19v-0.14l-0.14-0.28v-0.14l-0.14-0.28v-0.28h0.14v-0.14V87.8v-0.14l-0.14-0.14
	v-0.14h0.14v-0.14l-0.14-0.14v-0.14h-0.14v-0.28v-0.14l0.14-0.14v-0.14l-0.14-0.14v-0.42h0.14v-0.14v-0.14v-0.14v-0.14v-0.14
	l-0.14-0.14v-0.14V84.6v-0.14v-0.28v-0.14v-0.28v-0.14v-0.14v-0.14v-0.42v-0.14v-0.14v-0.14v-0.28v-0.14v-0.14v-0.28v-0.14
	l-0.14-0.14l-0.14-0.28v-0.14v-0.14V80.7l-0.14-0.14v-0.14v-0.14v-0.14l-0.14-0.14v-0.14v-0.14l-0.14-0.14l-0.14-0.14v-0.14h-0.14
	v-0.14l-0.14-0.14l-0.14-0.14l-0.14-0.14v-0.14l-0.14-0.14v-0.14V78.2h-0.14h-0.14v-0.14h-0.14h-0.14h-0.14h-0.14l-0.14-0.14
	l0.14-0.14v-0.14l0.14-0.14v-0.14l0.14-0.14h-0.14h-0.14h-0.14v-0.14h-0.14H72.8v-0.14h-0.14h-0.14h-0.14v-0.14h-0.14H72.1h-0.14
	v-0.14h-0.14v-0.14v-0.14h-0.14v-0.14l-0.14-0.14h0.14v-0.14v-0.14l-0.14-0.14v-0.14l0.14-0.14l-0.14-0.14l-0.14-0.14L71.27,75v0.14
	h-0.14h-0.14h-0.14V75h-0.14v-0.14h-0.14v-0.14l-0.14-0.14v-0.14V74.3h-0.14v-0.14v-0.14v-0.14v-0.14l-0.14-0.14l-0.14-0.14
	l-0.14-0.14h-0.14v-0.14H69.6h-0.14v-0.14l-0.14-0.14v-0.14h-0.14v-0.14v-0.14v-0.14h-0.14v-0.14l-0.14-0.14v-0.14V71.8l-0.14-0.14
	v-0.14h-0.14v-0.14l-0.14-0.14V71.1v-0.14l-0.14-0.14v-0.14v-0.14l-0.14-0.42l-0.14-0.14v-0.14v-0.14v-0.14l0.14-0.14v-0.14v-0.14
	v-0.14v-0.14v-0.14V68.6v-0.14v-0.14h-0.14v-0.14h-0.14v-0.14l0.14-0.14v-0.14h-0.14v-0.14h-0.14l-0.14-0.14l-0.14-0.14V67.2v-0.14
	v-0.14h0.14v-0.14v-0.14h0.14v-0.14l-0.14-0.14v-0.14l-0.14-0.14l-0.14-0.14v-0.14l-0.14-0.14v-0.14l-0.14-0.14h-0.14h-0.14
	l-0.28-0.14l-0.14-0.14v-0.14l-0.14-0.14V64.7h-0.14v-0.14v-0.14v-0.14v-0.14V64h-0.14v-0.14v-0.14v-0.14v-0.14h-0.14v-0.14
	l-0.14-0.14v-0.14v-0.14h-0.14h-0.14h-0.14l-0.14,0.14v-0.14v-0.14v-0.14L65,62.47v-0.14l-0.14-0.28v-0.14l-0.14-0.14l0.14-0.14
	l-0.14-0.14v-0.14v-0.14l-0.14-0.14v-0.14V60.8l-0.14-0.14v-0.14v-0.14v-0.14v-0.14v-0.14v-0.14l0.14-0.14l0.14-0.28v-0.14v-0.14
	v-0.14h-0.14v-0.14l-0.14-0.14v-0.14h-0.14v-0.14V58.3v-0.14v-0.14v-0.14V57.6v-0.14v-0.14h-0.14v-0.14v-0.14h0.14V56.9v-0.14
	l-0.14-0.14v-0.28v-0.14h-0.14l-0.14-0.14v-0.14v-0.14v-0.14v-0.14h0.14v-0.14v-0.14h-0.14V55.1v-0.14h-0.14h-0.14h-0.14l-0.14-0.14
	v-0.14h-0.14h-0.14l-0.14-0.14l-0.14-0.14v-0.14v-0.14v-0.14h-0.14v-0.14V53.7H62.5v-0.14h-0.14v-0.14h-0.14h-0.14v-0.14l-0.14-0.14
	l-0.14-0.14v-0.14h-0.14l-0.14-0.14l-0.14-0.14l-0.14-0.14l-0.14-0.14v-0.14l-0.14-0.14v-0.14v-0.14v-0.14v-0.14l-0.14-0.14V51.2
	v-0.14l-0.14-0.14v-0.14l-0.14-0.14V50.5h-0.14h-0.14h-0.14v-0.14h-0.14v-0.14h-0.14v-0.14h-0.14v-0.14l-0.14-0.14v-0.14v-0.14
	h-0.14v-0.14l-0.14-0.14v-0.14h-0.14v-0.14l-0.14-0.14v-0.14v-0.14l-0.14-0.14v-0.14v-0.14L59.02,48v-0.14l-0.14-0.14v-0.14v-0.14
	h-0.14V47.3H58.6l-0.14-0.14v-0.14l0.14-0.14v-0.14v-0.14v-0.14v-0.14h0.14v-0.14v-0.14v-0.14l0.14-0.14l0.14-0.14v-0.14l0.14-0.14
	v-0.14v-0.14h-0.14v-0.14V44.8h-0.14v-0.14v-0.14v-0.14v-0.14l0.14-0.14v-0.14v-0.14v-0.14v-0.14h0.14v-0.14v-0.14v-0.14h0.14h0.14
	v0.14h0.14v-0.14v-0.14v-0.14v-0.14v-0.14v-0.14v-0.14v-0.14v-0.14v-0.28V41.6v-0.14v-0.14v-0.14v-0.14V40.9l-0.14-0.14v-0.14
	l-0.28-0.42v-0.28v-0.14v-0.14l0.14-0.14l0.14-0.14v-0.14v-0.14l0.14-0.14v-0.14v-0.14l0.14-0.28v-0.14l0.14-0.14v-0.14v-0.14V37.7
	l0.14-0.14v-0.14l0.14-0.28V37v-0.14v-0.14v-0.14h0.14v-0.14l-0.14-0.14v-0.14v-0.14l0.14-0.14v-0.14l-0.14-0.14v-0.14v-0.14v-0.14
	v-0.14l0.14-0.14v-0.14l-0.14-0.14V34.5v-0.14v-0.14h-0.14v-0.14v-0.14V33.8v-0.14v-0.14v-0.14h0.14l-0.14-0.14v-0.14v-0.14v-0.14
	v-0.42v-0.28v-0.42v-0.14l0.14-0.14l0.14-0.14v-0.14h0.14l0.14-0.14v-0.14l0.14-0.14V30.6h0.14h0.14v-0.14l0.14-0.14v-0.14
	l0.14-0.14v-0.14v-0.14h0.14v-0.14l0.28-0.14h0.14l0.14-0.14l0.14-0.14h0.14h0.14h0.14l0.14-0.14h0.14h0.14h0.14h0.14h0.14h0.14
	h0.14h0.14v-0.14h0.14v-0.14h0.14v-0.14h0.14v-0.14h0.14h0.14h0.14h0.14v-0.14h-0.14v-0.14h0.14V28.1l0.14-0.14v-0.14v-0.14v-0.14
	V27.4v-0.14l-0.14-0.14v-0.14v-0.14v-0.14h-0.14v-0.14v-0.14v-0.14h-0.14v-0.14v-0.14v-0.14h-0.14v-0.14l-0.14-0.14h-0.14v0.14
	h-0.14h-0.14l-0.14-0.14v-0.14v-0.14h-0.14v-0.14h-0.14l0.14-0.14l-0.14-0.14v-0.14h0.14h-0.14v-0.14v-0.14v-0.14h-0.14V24.2
	l-0.14-0.14v-0.14h-0.14v0.14h-0.14h-0.14H62.5v-0.14h-0.14l-0.14,0.14h-0.14v-0.14v-0.14v-0.14h-0.14V23.5l-0.14,0.14l-0.14,0.14
	v0.14h-0.14l-0.14-0.14v-0.14V23.5l-0.14-0.14v-0.14h-0.14h-0.14h-0.14v-0.14v-0.14v-0.14v-0.14v-0.14v-0.14h0.14v-0.14v-0.14
	l0.14-0.14l-0.14-0.14h-0.14V21.7h-0.14l-0.14-0.14v-0.14h-0.14v-0.14h-0.14h-0.14l-0.14,0.14v0.14h-0.14v0.14h-0.14h-0.14h-0.14
	v-0.14v-0.14v-0.14v-0.14h0.14V21h0.14h0.14v-0.14v-0.14l-0.14-0.14v-0.14V20.3l0.14-0.14v-0.14l0.14-0.14l0.14-0.14v-0.14
	l-0.14-0.14h-0.14h-0.14l-0.14,0.14h-0.14v0.14l-0.14,0.14h-0.14v0.14h-0.14l-0.14-0.14h-0.14l-0.14-0.14v-0.14h-0.14h-0.14v-0.14
	h-0.14v-0.14l0.14-0.14l-0.14-0.14v-0.14h-0.14h-0.14h-0.14h-0.14h-0.14h-0.14v-0.14v-0.14h0.14v-0.14h0.14v-0.14h-0.14l-0.14-0.14
	h-0.14v-0.14v-0.14h-0.14V17.8h-0.14l-0.14-0.14h-0.14v-0.14h-0.14h-0.14h-0.14H56.1h-0.14v-0.14v-0.14V17.1h0.14v-0.14h0.14v-0.14
	h0.14h0.14v-0.14v-0.14h-0.14v-0.14v-0.14h-0.14v-0.14H56.1l-0.14-0.14l-0.14-0.14v-0.14h-0.14h-0.14l-0.14-0.14h-0.14l-0.14-0.14
	v-0.14l0.14-0.14h-0.14v-0.14v-0.14v-0.14V14.6v-0.14h-0.14l-0.14-0.14v-0.14l-0.14-0.14V13.9h-0.14h-0.14h-0.14h-0.14h-0.28h-0.14
	v-0.14h-0.14h-0.14h-0.14v-0.14v-0.14v-0.14v-0.14v-0.14v-0.14v-0.14l0.14,0.14v-0.14h0.14v-0.14v-0.14v-0.14l-0.14-0.14v-0.14
	v-0.14v-0.14l-0.14-0.14v-0.14h-0.14h-0.14v0.14h-0.14h-0.14h-0.14h-0.14h-0.14H52.2h-0.14v-0.14V11.4h-0.14v-0.14h-0.14h-0.14H51.5
	h-0.14h-0.14h-0.14l-0.14-0.14h-0.14v-0.14l-0.14-0.14l-0.14-0.14h-0.14v-0.14h-0.14v-0.14v-0.14h-0.14h-0.14v-0.14h-0.14h-0.14
	h-0.14v-0.14l-0.14-0.14l-0.14-0.14h-0.14V9.59L49,9.45h-0.14l-0.14-0.14V9.17h-0.14V9.03h-0.14H48.3V8.89h-0.14V8.75V8.61V8.47
	V8.34L48.02,8.2h-0.14h-0.14h-0.14h-0.14h-0.14h-0.14V8.06V7.92h-0.14h-0.14h-0.14l-0.14,0.14h-0.14L46.35,8.2l-0.14,0.14h-0.14
	h-0.14H45.8V8.2l-0.14-0.14h-0.14h-0.14h-0.14H45.1V8.2h-0.14l-0.14,0.14h-0.14h-0.14h-0.14h-0.14V8.2h-0.14h-0.14V8.06h-0.14
	l-0.14-0.14l-0.14-0.14l-0.14-0.14h-0.14V7.5h-0.14l-0.14-0.14h-0.14V7.22V7.08h-0.14V6.94H42.6h-0.14V6.8V6.67h-0.14V6.39
	l-0.14-0.14V6.11l-0.14-0.14V5.83h0.14l0.14-0.14V5.55h0.14V5.41V5.27V5.13h-0.14V5V4.86h-0.14V4.72h-0.14V4.58H41.9V4.44h-0.14
	h-0.14L41.48,4.3V4.16h-0.14h0.14V4.02l0.14-0.14l0.14-0.28l0.14-0.14V3.33V3.19l-0.14-0.14V2.91l0.14-0.14V2.49V2.35V2.21V2.07
	V1.93V1.79V1.66h-0.14V1.52h-0.14V1.38V1.24l0.14-0.14l0.14-0.14l0.14-0.14V0.68V0.54V0.4h0.14V0.26h-0.14H41.9h-0.14V0.12h-0.14
	v-0.14l-0.14-0.14h-0.14H41.2z"/>
</svg>
