<?xml version="1.0" encoding="utf-8"?>
<!-- Generator: Adobe Illustrator 24.2.1, SVG Export Plug-In . SVG Version: 6.00 Build 0)  -->
<svg version="1.1" id="Layer_1" xmlns="http://www.w3.org/2000/svg" xmlns:xlink="http://www.w3.org/1999/xlink" x="0px" y="0px"
	 viewBox="0 0 97.23 97.23" style="enable-background:new 0 0 97.23 97.23;" xml:space="preserve">
<style type="text/css">
	.st0{fill-rule:evenodd;clip-rule:evenodd;}
</style>
<polygon class="st0" points="96.39,44.21 96.24,44.21 95.94,44.21 95.78,44.36 95.48,44.51 95.33,44.67 95.18,44.97 95.18,45.12 
	95.18,45.27 95.18,45.58 95.18,45.88 95.33,45.88 95.33,46.03 95.33,46.18 95.48,46.33 95.63,46.49 95.78,46.64 95.94,46.79 
	96.24,46.94 96.39,47.09 96.54,47.09 96.54,47.24 96.69,47.39 96.85,47.55 96.85,47.7 96.85,47.85 96.85,48 96.69,48 96.69,48.15 
	96.54,48.15 96.39,48.15 96.24,48.15 96.09,48.15 96.09,48 95.94,48 95.78,48 95.48,47.85 95.33,47.85 95.18,47.7 95.03,47.55 
	94.87,47.55 94.72,47.55 94.57,47.55 94.42,47.55 94.27,47.7 94.12,47.7 94.12,47.85 93.96,48 93.96,48.15 93.96,48.3 93.96,48.46 
	94.12,48.61 94.12,48.76 94.27,48.76 94.42,48.91 94.57,49.06 94.72,49.21 95.03,49.37 95.48,49.67 95.94,49.82 95.94,49.97 
	96.09,49.97 96.09,50.12 96.24,50.28 96.24,50.43 96.39,50.58 96.39,50.88 96.39,51.03 96.39,51.19 96.24,51.34 96.24,51.49 
	96.24,51.64 96.09,51.79 96.09,51.94 95.94,52.1 95.78,52.1 95.78,52.25 95.63,52.25 95.33,52.4 95.18,52.55 95.03,52.55 
	94.72,52.85 94.57,52.85 94.42,53.01 94.42,53.16 94.42,53.31 94.42,53.46 94.57,53.61 94.57,53.76 94.57,53.92 94.72,54.07 
	94.72,54.22 94.57,54.22 94.42,54.37 94.42,54.52 94.42,54.67 94.42,54.83 94.42,54.98 94.27,55.13 94.27,55.28 94.12,55.28 
	93.96,55.43 93.81,55.58 93.66,55.74 93.51,55.74 93.36,55.74 93.21,55.74 93.21,55.89 93.05,55.89 93.05,56.04 92.9,56.19 
	92.75,56.34 92.75,56.65 92.6,56.8 92.6,56.95 92.45,56.49 92.3,56.49 92.3,56.34 92.3,56.19 92.3,56.04 92.45,55.89 92.3,55.74 
	92.3,55.58 92.14,55.58 91.99,55.58 91.84,55.58 91.69,55.58 91.54,55.43 91.39,55.43 91.39,55.28 91.23,55.13 91.23,54.98 
	91.08,54.98 91.08,55.13 90.93,55.13 90.93,55.28 90.78,55.28 90.63,55.28 90.63,55.43 90.63,55.28 90.63,55.43 90.48,55.43 
	90.32,55.43 90.32,55.28 90.17,55.28 90.02,55.28 90.02,55.43 90.02,55.58 89.87,55.58 89.87,55.43 89.72,55.43 89.57,55.43 
	89.42,55.43 89.42,55.28 89.26,55.28 89.11,55.28 89.11,55.13 89.11,54.98 88.96,54.83 88.81,54.83 88.66,54.83 88.66,54.67 
	88.51,54.67 88.35,54.67 88.2,54.67 88.2,54.52 88.05,54.52 88.05,54.67 88.05,54.52 87.9,54.52 87.75,54.52 87.6,54.52 
	87.44,54.52 87.44,54.67 87.29,54.67 87.29,54.52 87.14,54.52 87.14,54.67 86.99,54.67 86.99,54.52 86.84,54.52 86.84,54.37 
	86.84,54.52 86.69,54.52 86.53,54.52 86.38,54.52 86.23,54.52 86.08,54.67 86.08,54.52 85.93,54.52 85.93,54.67 85.78,54.67 
	85.62,54.67 85.62,54.83 85.47,54.83 85.47,54.67 85.32,54.67 85.17,54.83 85.17,54.67 85.02,54.67 85.02,54.83 84.87,54.83 
	84.87,54.67 84.71,54.67 84.56,54.67 84.56,54.52 84.56,54.67 84.41,54.67 84.41,54.52 84.26,54.52 84.26,54.37 84.26,54.22 
	84.11,54.22 84.11,54.37 84.11,54.22 84.11,54.07 84.11,54.22 83.96,54.22 83.8,54.22 83.8,54.37 83.65,54.37 83.5,54.37 
	83.35,54.37 83.2,54.37 83.05,54.37 82.89,54.37 82.89,54.52 82.74,54.52 82.59,54.52 82.44,54.52 82.29,54.52 82.29,54.67 
	82.14,54.67 81.98,54.52 81.98,54.67 81.98,54.83 81.83,54.83 81.68,54.83 81.68,54.98 81.68,54.83 81.53,54.67 81.53,54.83 
	81.38,54.83 81.38,54.67 81.23,54.83 81.07,54.83 80.92,54.83 80.77,54.83 80.62,54.83 80.47,54.83 80.47,54.98 80.32,54.98 
	80.16,54.98 80.16,55.13 80.01,54.98 80.01,55.13 79.86,55.13 79.71,55.13 79.71,55.28 79.56,55.28 79.41,55.28 79.25,55.28 
	79.1,55.28 78.95,55.28 78.95,55.43 78.8,55.43 78.8,55.58 78.65,55.58 78.5,55.43 78.5,55.58 78.34,55.58 78.34,55.43 78.19,55.43 
	78.19,55.58 78.04,55.58 78.04,55.74 77.89,55.74 77.89,55.89 77.74,55.89 77.59,55.89 77.59,55.74 77.43,55.74 77.28,55.58 
	77.28,55.43 77.28,55.28 77.43,55.28 77.43,55.13 77.28,55.13 77.28,54.98 77.28,54.83 77.13,54.67 77.28,54.67 77.13,54.67 
	77.13,54.52 76.98,54.52 76.98,54.37 76.83,54.37 76.68,54.37 76.68,54.22 76.37,54.22 76.37,54.37 76.22,54.37 76.07,54.37 
	76.07,54.22 75.92,54.22 75.77,54.22 75.77,54.37 75.77,54.22 75.61,54.22 75.46,54.22 75.46,54.07 75.31,54.07 75.31,53.92 
	75.31,54.07 75.16,54.07 75.16,53.92 75.01,53.92 75.01,53.76 74.86,53.76 74.7,53.76 74.55,53.76 74.55,53.92 74.4,53.92 
	74.25,53.92 74.1,53.92 73.95,53.92 73.79,53.92 73.64,53.92 73.49,53.92 73.49,53.76 73.34,53.76 73.34,53.92 73.19,53.92 
	73.19,53.76 73.04,53.76 73.04,53.61 72.88,53.61 72.73,53.61 72.58,53.61 72.43,53.61 72.28,53.61 72.28,53.46 72.13,53.46 
	71.97,53.46 71.97,53.31 71.82,53.31 71.67,53.31 71.52,53.31 71.52,53.16 71.37,53.16 71.22,53.16 71.06,53.16 70.91,53.16 
	70.76,53.16 70.61,53.16 70.46,53.16 70.31,53.16 70.15,53.16 70.15,53.31 70,53.31 70,53.16 70,53.31 69.85,53.16 69.7,53.16 
	69.55,53.16 69.55,53.01 69.4,53.01 69.4,53.16 69.24,53.16 69.09,53.46 69.09,53.61 68.94,53.76 68.94,53.92 68.79,53.92 
	68.64,53.92 68.64,54.07 68.49,54.07 68.33,54.22 68.33,54.37 68.18,54.37 68.03,54.52 67.88,54.52 67.73,54.67 67.58,54.67 
	67.42,54.83 67.27,54.83 67.12,54.83 67.12,54.98 66.97,54.98 66.82,55.13 66.82,55.28 66.67,55.28 66.67,55.13 66.51,55.13 
	66.51,54.98 66.36,54.98 66.21,55.13 66.06,55.13 65.91,55.13 65.76,55.28 65.6,55.28 65.45,55.28 65.3,55.43 65.15,55.43 65,55.58 
	64.85,55.74 64.69,55.89 64.39,56.04 64.24,56.34 64.09,56.49 63.94,56.49 63.94,56.65 63.78,56.65 63.78,56.8 63.63,56.8 
	63.63,56.95 63.63,57.1 63.78,57.25 63.78,57.4 63.78,57.56 63.94,57.56 64.09,57.56 64.09,57.71 64.24,57.71 64.24,57.86 
	64.24,58.01 64.09,58.01 64.09,58.16 63.94,58.16 63.94,58.31 63.78,58.31 63.78,58.47 63.94,58.62 64.09,58.77 64.24,58.92 
	64.24,59.07 64.39,59.07 64.39,59.22 64.54,59.22 64.54,59.38 64.69,59.38 64.69,59.53 64.69,59.68 64.54,59.83 64.39,59.83 
	64.24,59.98 64.09,60.13 63.94,60.29 63.94,60.44 63.78,60.59 63.78,60.74 63.78,60.89 63.78,61.04 63.94,61.04 63.94,61.2 
	63.94,61.35 63.94,61.5 64.09,61.65 64.09,61.8 64.24,62.11 64.24,62.26 64.39,62.41 64.54,62.56 64.54,62.71 64.69,62.86 
	64.85,63.02 65,63.32 65.15,63.32 65.15,63.47 65.3,63.62 65.45,63.77 65.6,63.93 65.6,64.08 65.76,64.23 65.76,64.38 65.91,64.53 
	66.06,64.53 66.21,64.68 66.51,64.84 66.51,64.99 66.67,64.99 66.67,65.14 66.67,65.29 66.82,65.29 66.82,65.44 66.97,65.44 
	66.97,65.59 67.12,65.59 67.12,65.74 67.12,65.9 66.97,65.9 66.97,66.05 66.67,66.2 66.51,66.35 66.36,66.5 66.21,66.5 66.21,66.65 
	66.21,66.81 66.36,66.96 66.51,66.96 66.51,67.11 66.67,67.11 66.67,67.26 66.82,67.41 66.97,67.56 67.12,67.72 67.27,67.72 
	67.27,67.87 67.42,68.02 67.42,68.17 67.58,68.32 67.73,68.47 67.73,68.63 67.88,68.63 68.03,68.78 68.18,68.78 68.33,68.93 
	68.33,69.08 68.49,69.08 68.49,69.23 68.64,69.38 68.64,69.54 68.64,69.69 68.79,69.84 68.94,69.99 69.09,69.99 69.24,70.14 
	69.24,70.29 69.4,70.29 69.55,70.45 69.55,70.6 69.7,70.6 69.7,70.75 69.7,70.9 69.85,70.9 70,71.05 70,71.2 70.15,71.2 
	70.15,71.36 70.15,71.51 70.31,71.51 70.31,71.66 70.46,71.81 70.61,71.96 70.61,72.11 70.76,72.11 70.76,72.27 70.91,72.27 
	70.91,72.42 70.91,72.57 71.06,72.57 71.06,72.72 71.22,72.72 71.06,72.87 70.61,73.48 70.15,73.93 69.85,74.54 69.4,75.15 
	68.79,75.75 68.49,76.06 68.33,76.36 68.49,76.36 68.49,76.51 68.64,76.51 68.64,76.66 68.79,76.66 68.79,76.82 68.94,76.82 
	68.94,76.97 68.94,76.82 69.09,76.82 69.09,76.97 69.24,76.97 69.24,77.12 69.24,77.27 69.24,77.42 69.4,77.42 69.4,77.57 
	69.4,77.73 69.4,77.88 69.24,77.88 69.24,78.03 69.24,78.18 69.09,78.18 68.94,78.18 68.94,78.33 68.79,78.33 68.64,78.33 
	68.64,78.48 68.64,78.64 68.64,78.79 68.79,78.79 68.94,78.79 68.94,78.94 68.79,78.94 68.64,78.94 68.64,79.09 68.49,79.09 
	68.33,79.09 68.18,79.09 68.03,79.24 67.88,79.24 67.73,79.24 67.58,79.39 67.27,79.55 67.12,79.7 66.97,79.85 66.97,80 66.82,80 
	66.82,80.15 66.67,80.15 66.51,80.3 66.36,80.3 66.21,80.46 66.06,80.61 65.91,80.61 65.76,80.76 65.6,80.76 65.3,80.76 
	65.15,80.91 65,80.91 64.69,81.06 64.69,81.21 64.54,81.37 64.54,81.52 64.54,81.67 64.39,81.82 64.39,81.97 64.24,82.12 
	64.09,82.12 64.09,82.28 64.09,82.43 64.09,82.58 64.09,82.73 64.09,82.88 64.09,83.03 64.09,83.19 63.94,83.19 63.78,83.19 
	63.63,83.19 63.48,83.19 63.03,82.88 62.57,83.19 62.42,83.34 62.12,83.49 61.81,83.49 61.66,83.49 61.51,83.34 61.36,83.34 
	61.36,83.49 61.21,83.49 61.05,83.49 60.9,83.49 60.75,83.34 60.6,83.34 60.45,83.19 60.3,83.03 60.3,82.88 60.14,82.88 
	59.99,82.88 59.84,82.88 59.69,82.88 59.54,82.73 59.39,82.73 59.23,82.58 59.08,82.58 59.08,82.43 59.08,82.28 58.93,82.28 
	58.78,82.28 58.63,82.28 58.48,82.28 58.33,82.28 58.17,82.28 58.02,82.28 57.87,82.28 57.57,82.28 57.42,82.28 57.42,82.43 
	57.26,82.43 57.11,82.43 57.11,82.28 56.96,82.28 56.81,82.12 56.66,82.12 56.5,82.12 56.35,82.28 56.2,82.28 56.05,82.43 
	56.2,82.58 56.2,82.73 56.05,82.88 55.9,82.88 55.9,83.03 55.75,83.03 55.75,83.19 55.9,83.19 55.75,83.19 55.75,83.34 55.9,83.34 
	55.9,83.49 56.05,83.49 56.05,83.64 56.05,83.79 56.05,83.94 56.2,83.94 56.2,84.1 56.35,84.1 56.35,84.25 56.5,84.25 56.5,84.4 
	56.5,84.55 56.35,84.7 56.5,84.7 56.5,84.85 56.35,84.85 56.35,85.01 56.2,85.01 56.2,85.16 56.2,85.31 56.35,85.31 56.35,85.46 
	56.35,85.61 56.2,85.76 56.2,85.91 56.2,86.07 56.05,86.07 56.2,86.07 56.2,86.22 56.2,86.37 56.05,86.37 55.9,86.37 55.75,86.37 
	55.59,86.37 55.44,86.37 55.29,86.37 55.14,86.37 54.99,86.37 54.84,86.37 54.84,86.22 54.68,86.22 54.68,86.37 54.53,86.37 
	54.53,86.22 54.38,86.22 54.23,86.22 54.38,86.22 54.38,86.07 54.23,86.07 54.23,86.22 54.23,86.07 54.08,86.07 54.08,86.22 
	53.93,86.22 53.93,86.07 53.78,86.07 53.78,86.22 53.78,86.07 53.62,86.07 53.47,86.07 53.47,86.22 53.32,86.22 53.17,86.07 
	53.17,85.91 53.02,85.91 52.87,85.91 52.87,86.07 52.71,86.07 52.56,86.07 52.41,86.07 52.26,86.07 52.11,86.07 52.11,85.91 
	51.96,85.91 51.96,85.76 51.8,85.76 51.8,85.61 51.8,85.46 51.65,85.46 51.65,85.31 51.5,85.31 51.35,85.31 51.35,85.16 51.2,85.31 
	51.05,85.31 50.89,85.16 50.89,85.01 50.74,85.01 50.59,84.85 50.59,84.7 50.44,84.7 50.29,84.7 50.29,84.55 50.14,84.55 
	49.98,84.55 49.83,84.55 49.68,84.55 49.53,84.55 49.38,84.55 49.23,84.55 49.23,84.7 49.07,84.7 48.92,84.7 48.92,84.55 
	48.77,84.55 48.62,84.55 48.62,84.4 48.62,84.55 48.62,84.4 48.47,84.4 48.32,84.4 48.32,84.25 48.16,84.25 48.01,84.25 
	47.86,84.25 47.86,84.1 47.71,84.1 47.71,83.94 47.56,83.94 47.56,83.79 47.56,83.64 47.56,83.49 47.56,83.34 47.41,83.34 
	47.41,83.19 47.25,83.19 47.25,83.03 47.1,83.03 46.95,83.03 46.95,82.88 46.8,82.88 46.8,82.73 46.8,82.88 46.65,82.88 46.5,82.88 
	46.34,82.88 46.19,82.88 46.19,82.73 46.04,82.73 45.89,82.73 45.89,82.58 45.74,82.58 45.59,82.58 45.43,82.58 45.28,82.58 
	45.13,82.58 45.13,82.73 44.98,82.73 44.83,82.73 44.68,82.73 44.52,82.73 44.37,82.73 44.07,82.73 43.92,82.58 43.77,82.43 
	43.61,82.28 43.46,82.28 43.31,82.12 43.01,82.28 42.86,82.28 42.55,82.28 42.4,82.28 42.25,82.28 41.95,82.28 41.79,82.28 
	41.64,82.28 41.34,82.28 41.19,82.28 41.04,82.28 40.88,82.12 40.73,81.97 40.58,82.12 40.73,82.28 40.58,82.43 40.43,82.58 
	40.13,82.73 39.97,82.73 39.82,82.58 39.67,82.58 39.67,82.43 39.52,82.28 39.52,82.12 39.37,81.97 39.37,81.67 39.22,81.52 
	39.06,81.37 38.76,81.21 38.76,81.06 38.61,81.06 38.61,80.91 38.61,80.76 38.61,80.61 38.46,80.61 38.46,80.46 38.61,80.3 
	38.61,80.15 38.46,80.15 38.46,80 38.46,79.85 38.31,79.7 38.31,79.55 38.31,79.39 38.31,79.24 38.15,79.24 38.15,79.09 
	38.15,78.94 38,78.94 38,78.79 37.85,78.79 37.85,78.64 37.85,78.48 37.85,78.33 37.85,78.18 37.7,78.18 37.7,78.03 37.7,77.88 
	37.85,77.73 38,77.57 38,77.42 38,77.27 38,77.12 37.85,76.97 37.7,76.97 37.55,76.97 37.4,77.12 37.24,77.27 37.09,77.27 
	36.94,77.27 36.79,77.42 36.64,77.42 36.49,77.42 36.33,77.27 36.18,77.27 36.18,77.12 36.03,77.12 36.03,76.97 35.88,76.97 
	35.73,76.97 35.58,76.97 35.42,76.97 35.27,77.12 35.12,77.12 34.97,77.12 34.82,76.97 34.82,76.82 34.67,76.82 34.51,76.82 
	34.36,76.97 34.21,76.97 34.06,76.97 33.91,76.97 33.91,76.82 33.76,76.82 33.76,76.97 33.6,76.97 33.45,76.97 33.45,77.12 
	33.3,77.12 33.15,76.97 33,76.97 33,76.82 32.85,76.82 32.85,76.66 32.69,76.66 32.69,76.51 32.54,76.51 32.54,76.36 32.54,76.21 
	32.54,76.06 32.39,75.91 32.24,75.91 32.24,75.75 32.24,75.6 32.09,75.6 32.09,75.45 32.09,75.3 31.94,75.3 31.94,75.15 31.78,75 
	31.63,75 31.48,75 31.48,74.84 31.48,74.69 31.33,74.54 31.18,74.39 31.18,74.24 31.03,74.24 31.03,74.09 30.87,74.09 30.72,74.09 
	30.57,74.09 30.42,74.09 30.42,74.24 30.27,74.39 30.12,74.39 29.96,74.39 29.96,74.24 29.81,74.24 29.66,74.24 29.66,74.09 
	29.51,74.09 29.36,74.09 29.36,74.24 29.36,74.39 29.51,74.54 29.51,74.69 29.51,74.84 29.51,75 29.36,75 29.36,75.15 29.21,75.15 
	29.21,75.3 29.05,75.3 28.9,75.3 28.75,75.3 28.75,75.45 28.75,75.6 28.75,75.75 28.6,75.75 28.45,75.75 28.3,75.75 28.14,75.75 
	28.14,75.91 28.14,76.06 27.99,76.21 27.99,76.36 27.84,76.36 27.69,76.51 27.54,76.66 27.69,76.66 27.69,76.82 27.54,76.97 
	27.54,77.12 27.69,77.12 27.69,77.27 27.84,77.42 27.84,77.57 27.69,77.73 27.54,77.73 27.39,77.73 27.39,77.88 27.39,78.03 
	27.39,78.18 27.54,78.18 27.54,78.33 27.69,78.33 27.69,78.48 27.84,78.48 27.84,78.64 27.99,78.64 27.99,78.79 28.14,78.94 
	28.3,78.94 28.3,79.09 28.3,79.24 28.14,79.24 28.14,79.39 28.14,79.55 27.99,79.55 27.84,79.55 27.84,79.7 27.84,79.85 27.84,80 
	27.84,80.15 27.69,80.15 27.54,80.3 27.39,80.46 27.23,80.46 27.08,80.46 26.93,80.46 26.93,80.61 26.78,80.61 26.63,80.61 
	26.48,80.61 26.48,80.76 26.32,80.76 26.32,80.91 26.32,81.06 26.32,81.21 26.32,81.37 26.32,81.52 26.17,81.52 26.17,81.67 
	26.02,81.67 26.02,81.82 25.87,81.97 25.72,82.12 25.57,82.12 25.41,82.12 25.26,82.12 25.11,82.12 24.96,82.12 24.81,82.12 
	24.66,82.12 24.5,82.12 24.35,82.12 24.2,82.12 24.2,82.28 24.05,82.43 23.9,82.43 23.75,82.28 23.75,82.12 23.6,82.12 23.6,81.97 
	23.6,81.82 23.44,81.82 23.44,81.67 23.44,81.52 23.44,81.37 23.29,81.37 23.14,81.21 22.99,81.06 22.84,80.91 22.69,80.91 
	22.53,80.91 22.53,80.76 22.38,80.61 22.23,80.61 22.08,80.46 21.93,80.3 21.78,80.3 21.78,80.46 21.62,80.46 21.47,80.46 
	21.32,80.3 21.17,80.3 21.02,80.3 20.86,80.15 20.71,80.15 20.56,80.15 20.41,80.15 20.26,80.15 20.26,80.3 20.11,80.3 19.96,80.15 
	19.8,80.15 19.65,80.15 19.5,80.15 19.35,80.15 19.35,80 19.2,79.85 19.05,79.7 18.89,79.7 18.89,79.55 18.74,79.55 18.74,79.39 
	18.59,79.24 18.59,79.09 18.44,78.94 18.44,78.79 18.44,78.94 18.29,78.94 18.29,79.09 18.14,79.09 17.98,79.09 17.98,79.24 
	17.83,79.39 17.83,79.55 17.68,79.55 17.68,79.7 17.53,79.85 17.38,79.85 17.23,79.85 17.07,79.85 17.07,80 16.92,80 16.92,79.85 
	16.77,79.85 16.62,80 16.62,80.15 16.47,80.15 16.32,80.15 16.16,80 16.01,80 15.86,80 15.71,79.85 15.56,79.85 15.41,79.85 
	15.41,79.7 15.41,79.55 15.41,79.39 15.25,79.39 15.25,79.24 15.1,79.24 14.95,79.24 14.8,79.24 14.65,79.24 14.65,79.09 
	14.5,79.09 14.5,78.94 14.34,78.94 14.34,78.64 14.19,78.48 14.19,78.33 14.04,78.18 13.89,78.18 13.74,78.18 13.59,78.03 
	13.59,77.88 13.59,77.73 13.74,77.57 13.89,77.42 14.04,77.42 14.19,77.42 14.34,77.42 14.34,77.27 14.5,77.27 14.5,77.12 
	14.34,76.97 14.19,76.97 14.19,76.82 14.04,76.82 14.04,76.97 13.89,76.97 13.89,76.82 13.74,76.82 13.59,76.82 13.43,76.97 
	13.28,76.97 13.13,76.97 12.98,76.97 12.83,76.82 12.68,76.82 12.52,76.82 12.52,76.66 12.37,76.66 12.22,76.51 12.07,76.51 
	12.07,76.66 12.07,76.82 11.92,76.97 11.92,77.12 11.77,77.27 11.77,77.42 11.61,77.42 11.61,77.27 11.46,77.27 11.46,77.12 
	11.46,77.27 11.31,77.27 11.16,77.27 11.01,77.27 11.01,77.42 10.86,77.42 10.7,77.42 10.7,77.57 10.55,77.57 10.4,77.57 
	10.25,77.57 10.1,77.57 10.1,77.73 10.1,77.57 9.95,77.57 9.79,77.73 9.49,77.88 9.34,77.88 9.19,77.88 9.04,77.88 8.88,77.88 
	8.73,77.88 8.58,77.88 8.58,78.03 8.58,77.88 8.43,77.88 8.43,77.73 8.28,77.73 8.28,77.57 8.13,77.57 7.97,77.57 7.97,77.42 
	7.97,77.27 7.82,77.27 7.82,77.12 7.67,77.12 7.52,77.12 7.37,77.27 7.22,77.27 7.06,77.42 6.91,77.42 6.76,77.42 6.61,77.57 
	6.31,77.57 6.15,77.57 6,77.42 5.85,77.42 5.7,77.42 5.7,77.27 5.55,77.27 5.24,76.97 5.09,76.97 4.94,76.97 4.79,76.97 4.79,77.12 
	4.64,77.12 4.49,76.97 4.33,76.97 4.18,76.82 4.18,76.66 4.03,76.51 3.88,76.51 3.73,76.51 3.58,76.51 3.58,76.36 3.58,76.21 
	3.42,76.21 3.42,76.06 3.27,76.06 3.12,76.06 3.12,75.91 2.97,75.75 2.97,75.6 2.82,75.45 2.82,75.3 2.82,75.15 2.67,75.15 
	2.51,75.15 2.36,75.15 2.21,75.15 2.06,75 1.91,75 2.06,75 2.06,74.84 2.21,74.69 2.36,74.39 2.36,74.24 2.51,74.09 2.67,74.09 
	2.67,73.93 2.82,73.78 2.82,73.63 2.82,73.48 2.67,73.33 2.67,73.18 2.51,72.87 2.51,72.72 2.36,72.57 2.36,72.42 2.21,72.42 
	2.21,72.27 2.06,72.27 1.91,72.27 1.76,72.11 1.76,71.96 1.76,71.81 1.91,71.66 1.91,71.51 1.91,71.36 1.91,71.05 1.91,70.9 
	1.91,70.75 1.91,70.14 1.91,69.99 2.06,69.84 2.06,69.69 2.06,69.54 2.06,69.38 1.91,69.38 1.91,69.23 2.06,69.08 2.21,69.08 
	2.21,68.93 2.21,68.78 2.36,68.78 2.51,68.63 2.51,68.47 2.36,68.47 2.36,68.32 2.21,68.17 2.21,68.02 2.21,67.87 2.21,67.72 
	2.06,67.56 2.06,67.41 2.06,67.26 2.06,67.11 2.06,66.96 1.91,66.81 1.76,66.81 1.6,66.81 1.45,66.81 1.3,66.65 1.3,66.5 1.3,66.35 
	1.3,66.2 1.15,66.2 1.15,66.05 1.15,65.9 1,65.9 1,65.74 0.85,65.74 0.69,65.59 0.69,65.44 0.54,65.44 0.69,65.29 0.69,65.14 
	0.69,64.99 0.85,64.99 0.85,64.84 1,64.84 1.15,64.84 1.3,64.99 1.45,65.14 1.6,65.14 1.76,64.99 1.91,64.99 1.91,65.14 2.06,65.14 
	2.06,64.99 2.06,64.84 2.06,64.68 2.06,64.53 2.06,64.38 2.06,64.23 2.21,64.23 2.21,64.08 2.21,63.93 2.36,63.93 2.36,63.77 
	2.36,63.62 2.36,63.47 2.36,63.32 2.51,63.32 2.51,63.17 2.51,63.02 2.67,63.02 2.67,62.86 2.51,62.86 2.51,62.71 2.67,62.56 
	2.51,62.56 2.51,62.41 2.36,62.41 2.36,62.26 2.51,62.26 2.36,62.26 2.36,62.11 2.36,61.95 2.36,61.8 2.36,61.65 2.51,61.65 
	2.51,61.5 2.51,61.35 2.36,61.35 2.51,61.2 2.51,61.04 2.67,61.04 2.67,60.89 2.67,60.74 2.51,60.59 2.51,60.44 2.51,60.29 
	2.51,60.13 2.67,60.13 2.82,59.98 2.82,59.83 2.97,59.83 2.97,59.68 3.12,59.68 3.27,59.68 3.42,59.68 3.58,59.68 3.58,59.53 
	3.58,59.38 3.58,59.22 3.58,58.92 3.73,58.92 3.58,58.92 3.58,58.77 3.58,58.62 3.58,58.47 3.58,58.31 3.42,58.16 3.42,58.01 
	3.27,58.01 3.42,58.01 3.42,57.86 3.58,57.71 3.73,57.56 3.88,57.4 3.88,57.25 3.88,57.1 3.88,56.95 3.88,56.8 4.03,56.8 
	4.03,56.65 4.18,56.65 4.18,56.49 4.33,56.49 4.33,56.34 4.49,56.34 4.49,56.19 4.64,56.19 4.79,56.19 4.79,56.04 4.94,56.04 
	5.09,56.04 5.09,55.89 5.24,55.89 5.24,55.74 5.24,55.58 5.24,55.43 5.24,55.28 5.09,55.13 5.09,54.98 4.94,54.98 4.79,54.98 
	4.64,54.98 4.64,54.83 4.64,54.67 4.64,54.52 4.64,54.37 4.64,54.22 4.64,54.07 4.49,53.92 4.64,53.76 4.64,53.46 4.64,53.31 
	4.64,53.16 4.64,53.01 4.64,52.85 4.64,52.7 4.64,52.55 4.49,52.4 4.64,52.25 4.64,52.1 4.64,51.94 4.64,51.79 4.64,51.64 
	4.64,51.49 4.79,51.34 4.79,51.19 4.94,51.19 5.09,51.03 5.24,51.03 5.24,50.88 5.4,50.88 5.55,50.88 5.55,50.73 5.55,50.58 
	5.55,50.43 5.55,50.28 5.7,50.28 5.7,50.12 5.7,49.97 5.7,49.82 5.85,49.82 5.85,49.67 5.85,49.52 5.85,49.37 5.85,49.21 
	5.85,49.06 5.7,48.91 5.7,48.76 5.7,48.61 5.85,48.46 5.85,48.3 5.7,48.3 5.7,48.15 5.55,48.15 5.7,48.15 5.85,48.15 6,48 6,47.85 
	6.15,47.85 6.15,47.7 6.15,47.55 6.31,47.55 6.46,47.55 6.61,47.55 6.76,47.39 6.76,47.24 6.76,47.09 6.91,46.79 6.91,46.49 
	7.06,46.49 7.22,46.64 7.37,46.64 7.52,46.64 7.67,46.64 7.67,46.49 7.82,46.49 7.82,46.33 7.82,46.18 7.67,46.18 7.67,46.03 
	7.67,45.88 7.67,45.58 7.67,45.42 7.67,45.27 7.67,45.12 7.82,44.82 7.82,44.67 7.82,44.51 7.67,44.36 7.67,44.21 7.67,44.06 
	7.52,44.06 7.37,44.06 7.37,43.91 7.37,43.76 7.52,43.76 7.52,43.6 7.37,43.6 7.37,43.45 7.37,43.15 7.22,43 7.22,42.85 7.22,42.69 
	7.06,42.69 7.06,42.54 6.91,42.54 6.91,42.39 6.76,42.39 6.76,42.24 6.76,42.09 6.76,41.94 6.91,41.94 6.91,41.78 7.06,41.78 
	7.06,41.63 7.06,41.48 6.91,41.48 6.91,41.33 7.06,41.33 7.06,41.18 7.06,41.03 6.91,40.87 6.91,40.72 7.06,40.72 7.22,40.57 
	7.37,40.42 7.52,40.42 7.52,40.27 7.52,40.12 7.37,40.12 7.37,39.96 7.37,39.81 7.52,39.66 7.52,39.51 7.52,39.36 7.67,39.36 
	7.67,39.21 7.82,39.05 7.82,38.9 7.97,38.9 8.13,38.9 8.13,38.75 8.28,38.6 8.28,38.45 8.43,38.3 8.43,38.14 8.43,37.99 8.43,37.84 
	8.58,37.69 8.58,37.54 8.58,37.39 8.73,37.39 8.73,37.23 8.58,37.23 8.58,37.08 8.58,36.93 8.43,36.93 8.43,36.78 8.43,36.63 
	8.28,36.63 8.28,36.48 8.28,36.32 8.13,36.17 7.97,36.02 7.67,35.87 7.52,35.72 7.22,35.57 7.06,35.41 6.91,35.41 6.91,35.26 
	6.76,35.26 6.76,35.11 6.61,34.96 6.61,34.66 6.61,34.5 6.61,34.35 6.61,34.2 6.61,33.9 6.61,33.75 6.61,33.59 6.46,33.44 
	6.31,33.44 6.31,33.29 6.31,33.14 6.31,32.99 6.15,32.84 6,32.53 6,32.38 6,32.23 6.15,32.23 6.15,32.08 6.31,31.93 6.31,31.77 
	6.31,31.62 6.31,31.47 6.46,31.47 6.61,31.47 6.76,31.47 6.91,31.32 7.06,31.17 7.22,31.17 7.52,31.17 7.67,31.17 7.67,31.02 
	7.82,31.02 7.97,30.86 8.28,30.56 8.58,30.56 8.73,30.41 8.88,30.41 9.04,30.26 9.19,30.26 9.34,30.11 9.49,30.11 9.64,29.95 
	9.79,29.95 9.95,29.95 9.95,29.8 9.95,29.65 9.79,29.5 9.79,29.35 9.79,29.2 9.79,29.04 9.79,28.89 9.79,28.74 9.95,28.59 
	10.1,28.44 10.1,28.29 10.1,28.13 10.25,27.98 10.25,27.83 10.25,27.68 10.25,27.53 10.25,27.38 10.4,27.22 10.55,27.07 
	10.86,27.07 11.01,26.92 11.16,26.92 11.16,26.77 11.16,26.62 11.31,26.47 11.31,26.16 11.46,26.01 11.46,25.86 11.61,25.71 
	11.77,25.56 11.77,25.4 11.77,25.25 11.92,25.1 11.92,24.95 11.92,24.8 11.92,24.65 11.92,24.49 11.92,24.34 11.92,24.19 
	11.77,24.19 11.61,24.19 11.61,24.04 11.46,24.04 11.46,23.89 11.46,23.74 11.61,23.74 11.61,23.58 11.77,23.28 11.77,23.13 
	11.77,22.98 11.77,22.83 11.77,22.68 11.61,22.52 11.46,22.37 11.46,22.22 11.61,22.22 11.61,22.07 11.61,21.92 11.61,21.77 
	11.77,21.77 11.92,21.61 11.92,21.46 11.92,21.31 12.07,21.31 11.92,21.16 11.92,21.01 12.07,21.01 12.07,20.86 12.22,20.55 
	12.37,20.4 12.52,20.1 12.68,19.95 12.68,19.79 12.68,19.64 12.52,19.64 12.52,19.49 12.68,19.49 12.83,19.49 12.83,19.34 
	12.83,19.19 12.98,19.19 12.98,19.04 12.98,18.88 13.13,18.88 12.98,18.73 12.98,18.58 12.83,18.43 12.83,18.28 12.98,18.28 
	12.98,18.13 13.13,17.97 13.13,17.82 13.13,17.67 13.13,17.52 13.13,17.37 13.13,17.22 13.28,17.06 13.43,16.91 13.59,16.91 
	13.74,16.91 13.74,16.76 13.89,16.76 13.74,16.76 13.74,16.61 13.74,16.46 13.59,16.31 13.59,16.15 13.43,16.15 13.43,16 
	13.43,15.85 13.43,15.7 13.43,15.55 13.28,15.55 13.28,15.4 13.13,15.24 13.13,14.94 13.13,14.79 13.13,14.64 13.13,14.49 
	12.98,14.18 12.98,14.03 12.98,13.88 12.83,13.73 12.83,13.58 12.83,13.42 12.83,13.27 12.83,13.12 12.83,12.97 12.83,12.82 
	12.98,12.82 12.98,12.67 12.98,12.51 13.13,12.36 13.13,12.21 13.28,12.21 13.28,12.06 13.28,11.91 13.43,11.76 13.59,11.76 
	13.59,11.6 13.59,11.45 13.59,11.3 13.43,11.15 13.43,11 13.43,10.85 13.59,10.85 13.74,10.85 13.74,11 13.89,11 14.04,11 14.19,11 
	14.34,11 14.5,11 14.65,11.15 14.65,11.3 14.8,11.3 14.95,11.3 15.25,11.3 15.41,11.3 15.56,11.3 15.56,11.45 15.71,11.45 
	15.86,11.45 15.86,11.6 16.01,11.6 16.01,11.76 16.01,11.91 16.01,12.21 16.01,12.36 16.01,12.51 16.01,12.67 16.16,12.67 
	16.32,12.67 16.32,12.51 16.47,12.51 16.62,12.36 16.77,12.36 16.77,12.21 16.92,12.21 17.07,12.21 17.07,12.36 17.23,12.36 
	17.38,12.36 17.38,12.21 17.53,12.21 17.68,12.36 17.68,12.21 17.83,12.21 17.98,12.21 17.98,12.36 18.14,12.36 18.14,12.51 
	18.29,12.51 18.44,12.51 18.59,12.51 18.59,12.67 18.59,12.82 18.59,12.97 18.74,12.97 18.89,13.12 19.05,13.12 19.05,13.27 
	19.2,13.27 19.05,13.42 19.2,13.42 19.2,13.58 19.35,13.58 19.5,13.73 19.65,13.73 19.8,13.73 19.96,13.73 19.96,13.58 20.11,13.58 
	20.26,13.58 20.41,13.42 20.41,13.58 20.56,13.58 20.56,13.73 20.56,13.88 20.71,14.03 20.71,14.18 20.86,14.18 21.02,14.18 
	21.17,14.18 21.17,14.33 21.17,14.49 21.32,14.49 21.32,14.64 21.32,14.79 21.47,14.79 21.47,14.94 21.47,15.09 21.47,15.24 
	21.62,15.24 21.78,15.24 21.93,15.24 22.08,15.24 22.08,15.4 22.08,15.55 22.23,15.55 22.23,15.7 22.38,15.7 22.38,15.85 22.53,16 
	22.53,16.31 22.53,16.46 22.53,16.61 22.38,16.61 22.38,16.76 22.53,16.76 22.69,16.91 22.84,17.06 22.84,17.22 22.84,17.37 
	22.84,17.52 22.99,17.52 23.14,17.52 23.29,17.67 23.44,17.82 23.6,17.82 23.75,17.82 23.9,17.82 24.2,17.82 24.35,17.82 
	24.5,17.82 24.66,17.82 24.81,17.82 24.96,17.82 24.96,17.97 25.11,17.97 25.26,17.97 25.41,17.97 25.57,17.97 25.72,18.13 
	25.72,18.28 25.87,18.28 25.87,18.43 26.02,18.43 26.02,18.58 26.02,18.73 26.17,18.73 26.32,18.88 26.32,19.04 26.48,19.04 
	26.63,19.04 26.63,19.19 26.63,19.34 26.63,19.49 26.63,19.64 26.63,19.79 26.78,19.79 26.93,19.79 27.08,19.79 27.08,19.95 
	27.23,20.1 27.39,20.1 27.54,20.1 27.69,20.1 27.84,20.1 27.99,20.1 27.99,19.95 28.14,19.95 28.14,20.1 28.3,20.1 28.45,20.1 
	28.6,20.1 28.6,19.95 28.75,19.95 28.75,20.1 28.9,20.1 28.9,20.25 29.05,20.25 29.21,20.4 29.21,20.55 29.36,20.55 29.51,20.4 
	29.66,20.4 29.81,20.25 29.96,20.25 30.12,20.25 30.27,20.25 30.42,20.25 30.57,20.4 30.72,20.4 30.72,20.55 30.87,20.7 
	31.03,20.86 31.18,20.86 31.33,20.86 31.48,20.86 31.63,20.86 31.94,21.01 32.09,21.01 32.24,21.01 32.24,21.16 32.39,21.16 
	32.39,21.31 32.54,21.31 32.54,21.46 32.69,21.46 32.85,21.61 32.85,21.77 33,22.07 33,22.22 33.3,22.37 33.45,22.52 33.45,22.68 
	33.6,22.68 33.76,22.68 33.76,22.83 33.6,22.83 33.6,22.98 33.6,23.13 33.6,23.28 33.6,23.43 33.45,23.43 33.45,23.58 33.45,23.74 
	33.45,23.89 33.45,24.04 33.6,24.19 33.6,24.34 33.76,24.49 33.76,24.65 33.91,24.8 33.91,24.95 34.06,24.95 34.21,25.1 
	34.21,25.25 34.06,25.25 34.06,25.4 33.91,25.4 34.06,25.4 34.06,25.56 34.21,25.71 34.21,25.86 34.36,26.01 34.36,26.16 
	34.51,26.16 34.82,26.16 34.97,26.01 35.12,26.16 35.27,26.16 35.42,26.16 35.58,26.16 35.73,26.16 35.73,26.31 35.88,26.31 
	36.03,26.31 36.18,26.31 36.18,26.47 36.33,26.47 36.33,26.62 36.49,26.62 36.49,26.77 36.64,26.77 36.79,26.92 36.94,26.92 
	37.09,26.92 37.24,26.92 37.4,26.92 37.55,26.92 37.7,27.07 37.85,27.07 38,27.07 38.15,27.07 38.15,27.22 38.31,27.22 38.31,27.38 
	38.46,27.38 38.46,27.53 38.61,27.53 38.61,27.68 38.61,27.83 38.46,27.83 38.61,27.83 38.61,27.98 38.61,27.83 38.76,27.83 
	38.76,27.98 38.91,27.98 39.06,27.98 39.06,28.13 39.22,28.13 39.22,28.29 39.06,28.29 39.22,28.29 39.22,28.44 39.37,28.44 
	39.52,28.44 39.67,28.44 39.67,28.59 39.82,28.59 39.67,28.59 39.67,28.74 39.82,28.74 39.82,28.89 39.97,28.89 39.97,29.04 
	40.13,29.04 40.13,28.89 40.28,29.04 40.43,29.04 40.43,29.2 40.43,29.04 40.43,29.2 40.58,29.2 40.58,29.35 40.73,29.35 
	40.58,29.5 40.73,29.5 40.73,29.65 40.73,29.8 40.88,29.8 40.88,29.95 40.88,29.8 40.88,29.95 41.04,29.95 41.04,29.8 41.19,29.8 
	41.19,29.95 41.34,29.95 41.34,29.8 41.34,29.95 41.34,29.8 41.49,29.8 41.49,29.95 41.49,30.11 41.64,30.11 41.64,30.26 
	41.79,30.26 41.79,30.41 41.79,30.56 41.95,30.56 41.95,30.71 41.79,30.71 41.95,30.71 41.95,30.86 41.95,31.02 42.1,31.02 
	42.1,31.17 41.95,31.17 42.1,31.17 42.1,31.32 42.25,31.32 42.1,31.47 42.25,31.47 42.4,31.47 42.55,31.32 42.55,31.47 42.7,31.47 
	42.86,31.47 43.01,31.47 43.16,31.47 43.16,31.32 43.31,31.32 43.46,31.32 43.46,31.17 43.61,31.17 43.61,31.02 43.77,31.02 
	43.77,31.17 43.92,31.02 43.92,30.86 44.07,31.02 44.22,31.02 44.37,31.02 44.52,31.02 44.52,31.17 44.68,31.17 44.68,31.32 
	44.83,31.32 44.98,31.32 44.98,31.47 45.13,31.47 45.13,31.62 45.28,31.62 45.43,31.62 45.59,31.62 45.74,31.62 45.89,31.62 
	46.04,31.62 46.19,31.62 46.34,31.47 46.5,31.47 46.5,31.32 46.5,31.17 46.65,31.32 46.65,31.17 46.8,31.17 46.95,31.02 46.8,30.86 
	46.95,30.86 46.95,30.71 47.1,30.56 47.25,30.56 47.41,30.56 47.56,30.56 47.56,30.41 47.71,30.41 47.86,30.41 47.86,30.26 
	47.86,30.41 48.01,30.26 48.01,29.95 48.16,29.95 48.16,29.8 48.16,29.65 48.32,29.5 48.47,29.5 48.47,29.35 48.62,29.35 
	48.62,29.2 48.77,29.2 48.92,29.2 49.07,29.2 49.23,29.2 49.23,29.04 49.38,29.04 49.53,29.04 49.53,28.89 49.53,29.04 49.68,29.04 
	49.68,28.89 49.83,28.89 49.98,28.89 50.14,28.74 50.29,28.74 50.44,28.74 50.59,28.74 50.59,28.59 50.59,28.44 50.74,28.44 
	50.74,28.29 50.74,28.13 50.89,28.13 50.74,27.98 50.89,27.98 50.89,27.83 51.05,27.83 51.05,27.68 51.05,27.83 51.2,27.68 
	51.35,27.68 51.35,27.53 51.5,27.53 51.5,27.38 51.65,27.38 51.8,27.22 51.8,27.07 51.8,26.92 51.96,26.92 51.96,26.77 52.11,26.77 
	52.11,26.62 52.26,26.47 52.41,26.62 52.41,26.47 52.41,26.31 52.56,26.31 52.71,26.31 52.71,26.16 52.71,26.01 52.87,26.01 
	52.87,25.86 53.02,25.86 53.02,25.71 53.17,25.71 53.32,25.71 53.47,25.71 53.47,25.56 53.62,25.56 53.78,25.56 53.78,25.4 
	53.93,25.4 53.93,25.25 54.08,25.25 54.23,25.25 54.23,25.4 54.23,25.25 54.23,25.4 54.38,25.4 54.38,25.25 54.53,25.25 
	54.68,25.25 54.84,25.25 54.84,25.1 54.68,25.1 54.84,24.95 54.99,24.95 55.14,24.95 55.29,24.8 55.44,24.8 55.44,24.65 
	55.59,24.49 55.59,24.65 55.75,24.65 55.75,24.49 55.9,24.49 56.05,24.49 56.05,24.34 56.2,24.34 56.2,24.19 56.66,24.04 
	56.81,23.89 56.96,23.74 57.11,23.74 57.11,23.58 57.26,23.58 57.42,23.43 57.57,23.28 57.57,23.13 57.72,23.13 57.87,23.13 
	57.87,22.98 58.17,22.68 58.33,22.52 58.33,22.37 58.33,22.22 58.48,22.22 58.63,22.22 58.63,22.07 58.78,22.22 58.93,22.22 
	59.08,22.22 59.23,22.22 59.23,22.07 59.39,22.22 59.39,22.07 59.54,22.07 59.54,21.92 59.54,21.77 59.54,21.92 59.69,21.92 
	59.84,21.92 59.99,21.92 59.99,21.77 60.14,21.61 60.3,21.61 60.3,21.46 60.45,21.46 60.45,21.61 60.45,21.46 60.6,21.46 
	60.6,21.31 60.75,21.31 60.75,21.16 60.9,21.16 60.9,21.31 60.9,21.16 61.05,21.16 61.05,21.31 61.21,21.31 61.21,21.16 
	61.05,21.16 61.21,21.16 61.36,21.01 61.51,21.01 61.66,21.01 61.81,21.01 61.96,21.01 61.96,20.86 62.12,20.86 62.12,20.7 
	62.27,20.7 62.42,20.7 62.42,20.86 62.57,20.86 62.72,20.86 62.72,20.7 62.87,20.7 62.87,20.86 62.87,20.7 62.87,20.86 63.03,20.86 
	63.18,20.86 63.18,21.01 63.33,21.01 63.48,21.01 63.63,21.01 63.78,20.86 63.94,20.86 64.09,20.86 64.09,20.7 64.09,20.55 
	64.24,20.55 64.39,20.55 64.39,20.4 64.54,20.55 64.54,20.4 64.69,20.55 64.69,20.4 64.69,20.55 64.85,20.55 65,20.55 65,20.7 
	65,20.86 65.15,20.86 65.15,21.01 65.3,21.01 65.3,21.16 65.45,21.16 65.45,21.31 65.6,21.31 65.6,21.46 65.76,21.46 65.76,21.31 
	65.76,21.46 65.91,21.46 66.06,21.46 66.06,21.61 66.21,21.61 66.36,21.61 66.36,21.77 66.51,21.77 66.51,21.92 66.67,21.92 
	66.82,21.92 66.82,22.07 66.97,22.22 66.97,22.37 67.12,22.37 67.12,22.52 67.27,22.52 67.42,22.52 67.42,22.68 67.42,22.83 
	67.58,22.98 67.73,22.98 67.88,22.98 68.18,23.13 68.18,23.28 68.33,23.28 68.49,23.28 68.64,23.28 68.79,23.43 68.94,23.43 
	69.09,23.58 69.24,23.58 69.4,23.74 69.55,23.74 69.7,23.89 69.85,24.04 69.85,24.34 70,24.49 70.15,24.49 70.31,24.65 70.46,24.65 
	70.61,24.65 70.76,24.65 70.91,24.8 71.06,24.8 71.22,24.8 71.67,24.95 71.67,25.1 71.82,25.1 71.97,25.1 72.28,25.4 72.43,25.4 
	72.58,25.56 72.73,25.56 72.88,25.71 73.19,25.71 74.4,26.31 74.55,26.31 74.7,26.47 75.01,26.47 75.16,26.62 75.46,26.62 
	75.61,26.62 75.77,26.62 75.92,26.62 76.07,26.62 76.07,26.47 75.92,26.31 75.92,26.47 75.77,26.47 75.77,26.31 75.92,26.31 
	75.92,26.16 75.92,26.31 75.92,26.16 75.92,26.01 75.92,25.86 75.92,25.71 76.07,25.71 76.07,25.56 75.92,25.56 75.77,25.56 
	75.77,25.4 75.92,25.4 75.92,25.25 75.77,25.25 75.92,25.25 75.92,25.1 75.92,24.95 75.92,24.8 75.92,24.65 75.77,24.65 
	75.77,24.49 75.77,24.34 75.92,24.34 75.92,24.19 75.92,24.04 75.92,23.89 75.92,23.74 75.92,23.58 75.92,23.43 76.07,23.43 
	76.07,23.28 76.22,23.28 76.52,23.13 76.83,23.13 76.98,22.98 77.13,22.98 77.28,22.98 77.43,22.98 77.59,22.98 77.74,22.98 
	77.89,22.83 78.19,22.83 78.5,22.68 78.65,22.68 78.8,22.68 78.95,22.52 79.25,22.37 79.41,22.22 79.56,22.22 79.86,22.07 
	80.01,22.07 80.16,21.92 80.32,21.92 80.47,21.92 80.62,21.92 80.77,21.92 81.07,21.77 81.23,21.61 81.38,21.61 81.53,21.77 
	81.68,21.77 81.68,21.61 81.83,21.92 81.83,22.07 81.83,22.22 81.98,22.22 81.98,22.37 81.98,22.52 81.98,22.68 81.83,22.98 
	81.83,23.13 81.83,23.28 81.98,23.43 81.98,23.58 81.98,23.74 81.98,23.89 81.98,24.04 81.98,24.19 82.14,24.49 82.14,24.8 
	82.14,24.95 82.29,25.1 82.29,25.4 82.29,25.56 82.44,25.56 82.44,25.71 82.59,25.86 82.59,26.01 82.59,26.16 82.59,26.31 
	82.59,26.47 82.59,26.62 82.59,26.77 82.59,26.92 82.44,27.07 82.44,27.38 82.44,27.53 82.44,27.68 82.44,27.83 82.29,27.98 
	82.29,28.13 82.14,28.29 82.14,28.44 82.29,28.59 82.29,28.74 82.29,28.89 82.29,29.04 82.29,29.2 82.29,29.35 82.29,29.5 
	82.44,29.5 82.44,29.65 82.44,29.8 82.44,29.95 82.44,30.11 82.44,30.26 82.59,30.26 82.59,30.41 82.59,30.56 82.59,30.71 
	82.59,30.86 82.59,31.17 82.59,31.32 82.59,31.62 82.44,31.62 82.44,31.77 82.44,31.93 82.44,32.08 82.44,32.23 82.44,32.53 
	82.44,32.68 82.44,32.84 82.44,33.14 82.44,33.29 82.44,33.44 82.59,33.59 82.44,33.9 82.44,34.05 82.59,34.2 82.59,34.35 
	82.74,34.5 82.74,34.66 82.89,34.66 82.89,34.81 82.89,34.96 82.74,35.11 82.74,35.26 82.89,35.41 83.05,35.57 83.05,35.72 
	83.05,35.87 83.05,36.02 83.05,36.17 83.05,36.32 83.05,36.48 82.89,36.48 82.89,36.63 83.05,36.63 83.05,36.78 83.05,36.93 
	83.05,37.08 83.2,37.08 83.35,37.08 83.35,36.93 83.5,36.78 83.65,36.78 83.8,36.63 83.96,36.63 83.96,36.48 84.11,36.48 
	84.26,36.48 84.26,36.63 84.41,36.63 84.56,36.63 84.71,36.63 84.71,36.78 84.87,36.78 84.87,36.93 84.87,37.08 85.02,37.08 
	85.02,36.93 85.17,36.93 85.32,37.08 85.47,37.08 85.62,37.08 85.78,37.08 85.78,37.23 85.93,37.39 85.93,37.23 86.08,37.23 
	86.23,37.23 86.38,37.39 86.38,37.54 86.23,37.54 86.23,37.69 86.38,37.69 86.53,37.69 86.53,37.84 86.69,37.84 86.84,37.84 
	86.84,37.69 86.99,37.69 87.14,37.69 87.14,37.84 87.14,37.99 87.14,38.14 87.29,38.14 87.29,38.3 87.44,38.3 87.6,38.3 87.6,38.45 
	87.75,38.45 87.9,38.3 88.05,38.3 88.2,38.14 88.51,38.14 88.66,37.99 88.66,37.84 88.81,37.84 88.81,37.69 88.81,37.54 
	88.66,37.54 88.51,37.23 88.35,37.08 88.35,36.93 88.35,36.78 88.35,36.63 88.51,36.63 88.66,36.63 88.81,36.48 88.96,36.48 
	89.26,36.48 89.57,36.48 89.57,36.32 89.72,36.32 89.87,36.48 89.72,36.78 89.87,37.39 89.72,37.99 89.87,38.6 90.02,38.9 
	90.32,39.21 90.93,39.96 91.54,40.27 92.14,40.57 92.75,40.57 93.21,40.72 93.36,40.72 93.36,40.87 93.21,40.87 93.21,41.03 
	93.36,41.18 93.36,41.33 93.21,41.33 93.21,41.48 93.36,41.48 93.36,41.63 93.21,41.63 93.21,41.78 93.21,41.94 93.21,42.09 
	93.05,42.24 93.05,42.39 93.05,42.54 92.9,42.54 92.9,42.69 92.75,42.69 92.75,42.85 92.6,42.85 92.6,43 92.6,43.15 92.6,43.3 
	92.45,43.3 92.45,43.45 92.3,43.6 92.6,43.6 92.75,43.6 92.9,43.6 93.05,43.6 93.21,43.45 93.51,43.45 93.66,43.45 93.81,43.45 
	93.96,43.45 94.12,43.45 94.27,43.45 94.42,43.45 94.57,43.45 95.33,43.6 95.63,43.76 95.78,43.76 95.94,43.76 96.09,43.91 
	96.24,43.91 96.24,44.06 96.39,44.06 "/>
</svg>
