<?xml version="1.0" encoding="utf-8"?>
<!-- Generator: Adobe Illustrator 24.2.1, SVG Export Plug-In . SVG Version: 6.00 Build 0)  -->
<svg version="1.1" id="Layer_1" xmlns="http://www.w3.org/2000/svg" xmlns:xlink="http://www.w3.org/1999/xlink" x="0px" y="0px"
	 viewBox="0 0 97.23 97.23" style="enable-background:new 0 0 97.23 97.23;" xml:space="preserve">
<style type="text/css">
	.st0{fill-rule:evenodd;clip-rule:evenodd;fill:#1D1D1B;}
</style>
<path class="st0" d="M57.36,90.77v-0.14V90.77h0.14l0.14,0.14h0.14v-0.14h0.14v0.14h0.14h0.14v0.14l0.14,0.14h0.14v0.14h0.14v0.14
	h0.14h-0.14v0.14l-0.14,0.14v0.14h0.14v0.14v0.14v0.14l-0.14-0.14v-0.14v-0.14v-0.14h-0.14h-0.14V91.6h-0.14h-0.14h-0.14l-0.14-0.14
	v-0.14l-0.14-0.14h-0.14v-0.14l-0.14-0.14h-0.14v-0.14v-0.14h0.14L57.36,90.77L57.36,90.77z M59.43,89.39H59.3h-0.14v-0.14v-0.14
	h0.14v0.14h0.14V89.39L59.43,89.39z M59.16,86.64h0.14v0.14h0.14h0.14v0.14v0.14h0.14v0.14v0.14h-0.14h0.14v0.14h-0.14v0.14h-0.14
	v-0.14H59.3l-0.14-0.14v-0.14h-0.14v-0.14v-0.14v-0.14v-0.14H59.16L59.16,86.64z M59.71,85.53h-0.14v-0.14v-0.14h-0.14v-0.14h0.14
	v-0.14v-0.14h0.14h-0.14V84.7h0.14v0.14h0.14v0.14v0.14v0.14v0.14v0.14H59.71L59.71,85.53z M59.02,82.91h-0.14v0.14h-0.14h0.14v0.14
	h0.14l-0.14,0.14h0.14v0.14h0.14v0.14v0.14v0.14v0.14v0.14h0.14v0.14v0.14v0.14v0.14v0.14v0.14h0.14v-0.14h0.14V84.7v-0.14v-0.14
	v-0.14v-0.14h0.14v-0.14v-0.14v-0.14V83.6v-0.14h-0.14v-0.14l-0.14-0.14v-0.14H59.3h-0.14v-0.14H59.02L59.02,82.91z M63.16,82.22
	h-0.14v-0.14h0.14V82.22L63.16,82.22z M58.74,81.12v-0.14V81.12L58.74,81.12z M57.92,80.43v-0.14V80.43L57.92,80.43z M67.57,80.29
	l0.14-0.14v0.14H67.57L67.57,80.29z M62.47,80.15v-0.14h0.14v0.14H62.47L62.47,80.15z M53.36,79.18l-0.14-0.14h-0.14v0.14h-0.14
	h-0.14h-0.14h-0.14H52.4h-0.14h-0.14h-0.14l-0.14,0.14h-0.14h-0.14h-0.14h0.14v-0.14h-0.14h-0.14l-0.14,0.14h-0.14h-0.14v0.14v0.14
	v0.41l0.14,0.28v0.28v0.28v0.14v0.14l-0.14,0.28v0.14v0.14l-0.14,0.28l-0.14,0.14h-0.14l-0.14,0.14v0.14l-0.14,0.14h-0.14h-0.14
	h-0.14h-0.14H49.5v-0.14v-0.14h-0.14l-0.14-0.14h-0.14h0.14v0.14v0.14v0.14v0.14h0.14v0.14h0.14l-0.14-0.14h0.14h0.14h0.14
	l0.14,0.14l0.28,0.69l0.14,0.28v0.14v0.14l-0.14,0.14h-0.14l-0.14,0.14v0.14v0.14l0.14,0.28l0.14,0.28l0.14,0.28v0.41l0.14,0.14
	v0.14l-0.14,0.14v0.14l-0.14,0.14v0.14v0.28v0.14v0.14v0.14v0.14v0.28v0.14v0.14l0.14,0.14v0.14v0.14v0.14v0.14l0.14,0.14v0.28
	l0.14,0.28l0.14,0.14l0.14,0.28l0.14,0.14v0.14l0.14,0.14l0.14,0.14l0.14,0.28l0.14,0.69l0.28,0.41v0.14v0.14l0.14,0.14v0.14
	l0.14,0.14h0.14v0.14v0.14l0.14,0.14l0.14,0.14v0.28l0.14,0.14v0.14l0.14,0.14v0.14h0.14v0.14v0.14h0.14v0.14v0.14l0.14,0.14h0.14
	v-0.14h0.14v0.14h0.14v0.14l0.14,0.14v0.14v0.14h0.14h0.14v0.14v0.14h0.14h0.14l0.14,0.14v0.14h0.14h0.14v0.14l0.14,0.14v0.14v0.14
	v0.14h0.14l0.14,0.14h0.14h0.14v0.14h0.14v0.14v0.14v-0.14v-0.14h0.14h0.14h0.14v-0.14l0.14-0.14v-0.14v-0.14v-0.14h0.14l0.14-0.14
	V95.6v-0.14l0.14-0.14v-0.14v-0.14l0.14-0.14v-0.14v-0.14h-0.14V94.5v-0.14v-0.14H56.4v-0.14v-0.14l-0.14-0.14v-0.14h-0.14v-0.14
	h-0.14V93.4v-0.14v-0.14l-0.14-0.14v-0.14v-0.14v-0.14h-0.14v-0.14h-0.14v-0.14l-0.14-0.14l-0.14-0.14v-0.14h0.14v-0.14h-0.14V91.6
	h-0.14v-0.14h-0.14v-0.14l-0.14-0.14l-0.14-0.14v-0.14v-0.14v-0.14H54.6h-0.14V90.5l-0.14-0.14l-0.14-0.14v-0.14l-0.14-0.14v-0.14
	v-0.14v-0.14h-0.14v-0.14v-0.14v-0.14v-0.14l-0.14-0.14V88.7v-0.14v-0.14v-0.14h0.14v-0.14v-0.14v-0.14h-0.14v-0.14h0.14V87.6v-0.14
	l0.14-0.14v-0.14h0.14v-0.14v-0.14v-0.28V86.5v-0.14h0.14l0.14,0.14h0.14h0.14v0.14V86.5h0.14l0.14-0.14v-0.14v-0.14v-0.14h0.14
	v0.14v0.14v0.14v0.14l0.14,0.14h0.14h0.14h0.14h0.14V86.5h0.14v-0.14h-0.14v-0.14v-0.14v-0.14h0.14h0.14h0.14h0.14h0.14v0.14h0.14
	v-0.14v0.14l0.14,0.14h0.14h0.14v0.14v0.14v0.14v0.14v0.14h-0.14v0.14h0.14l-0.14,0.14h0.14h-0.14v0.14h0.14v-0.14h0.14h0.14v-0.14
	h0.14v-0.14v-0.14h0.14v-0.14L57.5,86.5v-0.14v-0.14v-0.14h-0.14v-0.14v-0.14h0.14l-0.14-0.14h0.14l0.14-0.14v-0.14h0.14v-0.14
	h-0.14H57.5h-0.14v-0.14v-0.14l-0.14-0.14V84.7v-0.14h0.14v-0.14h-0.14v-0.14h-0.14v-0.14h0.14v-0.14v-0.14h0.14v-0.14l0.14-0.14
	h0.14v-0.14h0.14h0.14v-0.14v-0.14h0.14v-0.14v-0.14h0.14l-0.14-0.14v-0.14V82.5v-0.14h0.14v-0.14l-0.14-0.14v-0.14v-0.14v-0.14
	h-0.14v-0.14h-0.14v-0.14l-0.14-0.14v-0.14l-0.14-0.14v-0.14V80.7v-0.14h-0.14v-0.14v-0.14h-0.14v-0.14l-0.14-0.14v-0.14l-0.14-0.14
	V79.6h-0.14v-0.14h-0.14l-0.14-0.14v-0.14H56.4v0.14h-0.14v0.14h-0.14v0.14h-0.14v0.14h-0.14h-0.14h-0.14h-0.14h-0.14h-0.14h-0.14
	h-0.14l-0.14-0.14H54.6h-0.14v-0.14h-0.14l-0.14-0.14h-0.14h-0.14v-0.14h-0.14h-0.14H53.5H53.36L53.36,79.18z M63.71,79.18h-0.14
	H63.71v-0.14V79.18L63.71,79.18z M63.16,79.05v0.14l-0.14,0.14h-0.14v-0.14h-0.14v-0.14h0.14l0.14-0.14h0.14V79.05L63.16,79.05z
	 M55.98,79.05h-0.14v-0.14h0.14V79.05L55.98,79.05z M63.85,79.18v-0.14v-0.14h0.14v0.14v0.14H63.85L63.85,79.18z M63.85,78.91v-0.14
	V78.91L63.85,78.91z M56.81,79.05v0.14V79.05h-0.14v-0.14v-0.14v-0.14h0.14v0.14v0.14V79.05L56.81,79.05z M64.12,78.77h-0.14v-0.14
	L64.12,78.77L64.12,78.77z M57.64,78.63v-0.14V78.63L57.64,78.63z M57.23,78.36h-0.14v-0.14l-0.14-0.28V77.8l-0.14-0.14l-0.14-0.55
	l0.14-0.14v-0.14v0.14h0.14v0.14l0.14,0.14v0.14v0.14v0.14h0.14v0.14l0.14,0.14v0.14h0.14h-0.14v0.14v0.14H57.23L57.23,78.36z
	 M57.09,76.56l-0.14-0.14l0.14-0.14v0.14V76.56L57.09,76.56z M59.57,75.18v-0.14h-0.14h0.14V75.18L59.57,75.18z M57.5,75.18v-0.14
	v-0.14v0.14V75.18L57.5,75.18z M59.02,74.91v-0.14V74.91L59.02,74.91z M59.99,74.91h-0.14v-0.14h0.14V74.91L59.99,74.91z
	 M58.19,75.46h-0.14h-0.28l-0.14-0.14H57.5v-0.14v-0.14v-0.14l0.14-0.14h0.14l0.14,0.14h0.14v0.14v0.14h0.14v0.14V75.46L58.19,75.46
	z M58.61,74.77h-0.14v-0.14h0.14V74.77L58.61,74.77z M57.64,74.77v-0.14H57.5v0.14H57.64L57.64,74.77z M58.47,74.63h0.14v-0.14
	h-0.14V74.63L58.47,74.63z M58.05,74.77v-0.14v-0.14l-0.14-0.14l-0.14-0.14v-0.14v0.14v0.14v0.14v0.14l0.14,0.14H58.05L58.05,74.77z
	 M58.74,74.63v-0.28v-0.14v-0.14h-0.14v0.28v0.14v0.14H58.74L58.74,74.63z M58.05,73.94h-0.14V73.8v-0.14h0.14v-0.14v0.14l0.14,0.14
	h-0.14V73.94L58.05,73.94z M58.33,74.63l0.14-0.28v-0.14v-0.14v-0.14l-0.14-0.28v-0.14h-0.14v-0.14h-0.14v0.14l0.14,0.14v0.14
	l-0.14,0.14v0.14v0.14l0.14,0.14v0.14h0.14V74.63L58.33,74.63z M49.77,70.77h-0.14v-0.14v-0.14h0.14v0.14h0.14v0.14H49.77
	L49.77,70.77z M47.57,70.77h-0.14v-0.14v-0.14l-0.14-0.14v-0.14l-0.14-0.14v-0.14V69.8h0.14h0.14v0.14v0.14v0.14h0.14v0.14v0.14
	v0.14V70.77L47.57,70.77z M47.15,69.66h-0.14h-0.14v-0.14h-0.14v-0.14h0.14h0.14l0.14,0.14h0.14v0.14H47.15L47.15,69.66z
	 M49.08,67.87v-0.14V67.87L49.08,67.87z M49.36,68.15h-0.14v-0.14h-0.14h0.14v-0.14v-0.14h0.14v0.14h0.14v0.14L49.36,68.15
	L49.36,68.15z M49.5,67.32v0.14v0.14h-0.14h-0.14l-0.14,0.14h-0.14v-0.14v-0.14v-0.14h0.14h0.14h0.14v-0.14h0.14V67.32L49.5,67.32z
	 M50.19,67.32l-0.14-0.14h0.14V67.32L50.19,67.32z M47.29,68.42v0.14l-0.14,0.14v-0.14h-0.14h-0.14v0.14v0.14h-0.14V68.7l-0.14-0.28
	v-0.14l-0.14-0.14l-0.14-0.14v-0.14v-0.14v-0.14v-0.14v-0.14h0.14v-0.14h-0.14h0.14v-0.14h0.14h-0.14l0.14-0.14l0.14-0.14h0.14
	l0.14-0.14v0.14v0.14v0.14v0.14v0.14h0.14h0.14v0.14v0.14v0.14h-0.14v0.14v0.14v0.14v0.14L47.29,68.42L47.29,68.42z M46.46,66.63
	v-0.14h0.14v-0.14v-0.14h-0.14h-0.14h-0.14v0.14v0.14h0.14v0.14H46.46L46.46,66.63z M53.91,66.63l-0.14-0.14v-0.14v-0.14v-0.14
	v-0.14l0.14,0.14v0.14v0.14v0.14h0.14L53.91,66.63L53.91,66.63z M53.36,65.94h-0.14h-0.14h-0.14h-0.14l0.14,0.14v0.14h0.14v0.14
	h0.14v0.14h0.14v0.14h0.14h0.14h0.14v-0.14h-0.14v-0.14v-0.14l-0.14-0.14v-0.14H53.36L53.36,65.94z M52.4,65.8h-0.28h-0.14h-0.14
	h-0.14v-0.14h0.14l0.14-0.14h0.14h0.14l0.14,0.14h0.14v0.14H52.4L52.4,65.8z M44.26,65.39h-0.14v0.14h-0.14h-0.14H43.7h-0.14v0.14
	h-0.14v0.14h-0.14l-0.14,0.14h-0.14V65.8h-0.14h-0.14v0.14v0.14v0.14v0.14v0.14H42.6h-0.14v0.14v0.14h0.14v0.14v0.14v0.14h0.14h0.14
	v-0.14h0.14l0.14,0.14v0.14h0.14h0.14v0.14h0.14v0.14h0.14l0.14,0.14h0.14v0.14h0.14v0.14l0.14,0.14l0.14,0.14h0.14v0.14h0.14v0.14
	l0.14,0.14v0.14l0.14,0.14l0.14,0.14l0.14,0.14v0.14l0.14,0.14v0.14v0.14l0.14,0.14v0.14h0.14v0.14h0.14v0.14h0.14v0.14h0.14v0.14
	l0.14,0.14v0.14l0.14,0.14l0.14,0.14v0.14v0.14h0.14h0.14v-0.14v-0.14h0.14h0.14v-0.14l0.14-0.14h-0.14v-0.14h0.14v-0.14v-0.14
	l-0.14-0.14l-0.14-0.14h-0.14v-0.14H46.6h-0.14v-0.14V69.8v-0.14v-0.14h0.14v-0.14h-0.14h-0.14v-0.14v-0.14v-0.14l0.14-0.14V68.7
	h0.14v-0.14h-0.14v-0.14v-0.14l-0.14-0.14v-0.14l-0.14-0.14h-0.14v-0.14v-0.14v-0.14v-0.14h-0.14v-0.14v-0.14h-0.14V66.9v-0.14
	v-0.14h-0.14v-0.14h0.14h-0.14v-0.14l0.14-0.14l-0.14-0.14v-0.14V65.8H45.5h-0.14h-0.14h-0.14h-0.14v-0.14h-0.14h-0.14h-0.14h-0.14
	v-0.14h-0.14V65.39L44.26,65.39z M51.02,65.66h-0.14l0.14-0.28h0.14l-0.14,0.14V65.66L51.02,65.66z M51.29,64.83l-0.14-0.14v-0.14
	v-0.14h0.14h0.14h0.14v0.14h0.14h-0.14l-0.14,0.14h-0.14V64.83L51.29,64.83z M51.43,63.73h0.14v0.14l-0.14,0.14h-0.14h-0.14
	l-0.14-0.14h-0.14v-0.14h0.14h0.14h0.14H51.43L51.43,63.73z M49.5,63.32h-0.14h-0.14h-0.14h-0.14h-0.14h-0.14h-0.14h-0.14h-0.14
	l-0.14,0.14v0.14l-0.14,0.28v0.14v0.14h-0.14v0.14h0.14v0.14v0.14v0.28v0.14h0.14v0.14v0.14l0.14,0.14v0.14v0.14l0.14,0.14v0.14
	v0.14h0.14v0.14v0.14l0.14,0.14v0.14v0.14l0.14,0.14v0.14h0.14v0.14h0.14h0.14v-0.14h0.14V66.9l0.14,0.14V66.9h0.14h0.14h0.14h0.14
	h0.14l0.14-0.14v-0.14v-0.14v-0.14v-0.14v-0.14v-0.14h0.14V65.8h0.14v0.14h0.14V65.8v-0.14h0.14v-0.14v-0.28v-0.14l-0.14-0.28V64.7
	l-0.14-0.14h-0.14h-0.14l-0.28-0.14l-0.14-0.14l-0.14-0.14v-0.14h-0.14v-0.14v-0.14v-0.14v-0.14v-0.14H49.5L49.5,63.32z
	 M43.57,63.46h0.14v0.14h-0.14h-0.14v-0.14v-0.14v-0.14l0.14,0.14V63.46L43.57,63.46z M48.95,63.18h-0.14H48.95v-0.14h0.14v0.14
	H48.95L48.95,63.18z M51.98,63.46v0.14h-0.14h-0.14v-0.14h-0.14h-0.14h-0.14v-0.14h0.14l0.14-0.14l0.14-0.14h0.14V62.9l0.14-0.14
	v-0.14h0.14v-0.14h0.14v0.14v0.14v0.14l-0.14,0.14v0.14v0.14L51.98,63.46L51.98,63.46z M54.33,61.39v-0.14v-0.14h-0.14v-0.14v-0.14
	h0.14v0.14v0.14v0.14h0.14h-0.14V61.39L54.33,61.39z M53.64,60.83H53.5h-0.14V60.7h-0.14v-0.14v-0.14v-0.14h-0.14v0.14h-0.14v0.14
	v0.14l-0.14,0.14v0.14v0.14v0.14h0.14v0.14h-0.14v0.14v0.14v0.14v0.14v0.14v0.14l-0.14,0.14v0.14v0.14v0.14v0.14l-0.14,0.14v0.14
	v0.28v0.14l-0.14,0.14v0.14h0.14h0.14h0.14h0.14h0.14l0.14-0.28v-0.14l0.14-0.14v-0.14l0.14-0.14V62.9l0.14-0.14v-0.14l0.14-0.14
	l0.14-0.14l0.14-0.28v-0.14V61.8h0.14v-0.14v-0.14v-0.14v-0.14v-0.14l-0.14-0.14v-0.14V60.7v0.14h-0.14h-0.14H53.64L53.64,60.83z
	 M48.67,61.8v0.14l-0.14-0.14h-0.14h-0.14h-0.14v-0.14h-0.14v-0.14l-0.14-0.14v-0.14v-0.14l-0.14-0.14v-0.14V60.7h-0.14v-0.14v-0.14
	h-0.14v-0.28h-0.14h0.14v-0.14v0.14h0.14l0.28,0.14h0.14l0.14,0.14h0.14v0.14h0.14l0.14,0.14v0.28l0.14,0.14v0.14v0.14v0.14v0.14
	V61.8L48.67,61.8z M47.01,66.08h-0.14v-0.14V65.8v-0.14h-0.14v-0.14v-0.14v-0.14H46.6v-0.14v-0.14v-0.14V64.7l-0.14-0.14v-0.14
	v-0.14h-0.14v-0.14v-0.14l-0.14-0.14l-0.14-0.14v-0.14l-0.14-0.14l-0.14-0.14v-0.14v-0.14l-0.14-0.28v-0.14v-0.14v-0.14v-0.14
	l-0.14-0.14v-0.14V61.8l-0.14-0.28v-0.14v-0.14v-0.14l-0.14-0.14v-0.14V60.7v-0.14v-0.14l-0.14-0.14v-0.14v-0.14h0.14l0.14-0.14
	h0.14h0.28h0.28h0.14h0.14l0.14-0.14v0.14h0.14h0.14h0.14v0.14h0.14v0.14v0.14h0.14v0.14v0.14h0.14v0.14v0.14v0.14v0.14v0.14
	l0.14,0.14v0.14l0.14,0.14v0.14v0.14h0.14v0.14l0.14,0.14v0.14H47.7v0.14h-0.14h-0.14v0.14h-0.14v0.14v0.14h-0.14v0.14v0.14v0.14
	v0.14l-0.14,0.14v0.14v0.14v0.14h0.14v0.14v0.28v0.14v0.14v0.14h0.14v0.14v0.14v0.14v0.14v0.14h-0.14v0.14v0.14v0.14v0.14H47.01
	L47.01,66.08z M55.16,59.73h-0.14H55.16v-0.14h0.14L55.16,59.73L55.16,59.73z M56.26,59.04V58.9V59.04h-0.14h-0.14l-0.14,0.14h-0.14
	h-0.14l-0.14,0.14v0.14h-0.14v0.14l0.14-0.14h0.14v-0.14h0.14h0.14l0.14-0.14h0.14h0.14V59.04L56.26,59.04z M54.33,58.49v-0.14
	v-0.14l0.14-0.14h0.14v0.14l-0.14,0.14L54.33,58.49L54.33,58.49z M53.78,58.9l-0.14,0.28v0.14H53.5h-0.14h-0.14v-0.14h-0.14
	l-0.14-0.14l0.14-0.14v-0.14h0.14v-0.14l0.28-0.28l0.28-0.14v-0.14h0.14v0.14v0.14v0.14v0.14l-0.14,0.14V58.9L53.78,58.9z
	 M53.36,58.35l0.28-0.28h0.14v-0.14h-0.14l-0.14,0.14v0.14h-0.14V58.35L53.36,58.35z M53.91,57.94h-0.14H53.91V57.8V57.94
	L53.91,57.94z M55.02,58.35v-0.14h0.14v-0.14v-0.14h0.14l0.14-0.14v-0.14h-0.14l-0.14,0.14h-0.14l-0.14,0.14h-0.14v0.14l-0.14,0.14
	v0.14h0.14h0.14H55.02L55.02,58.35z M55.29,58.21h-0.14v-0.14h0.14v-0.14h0.14V57.8l0.28-0.14v-0.14h0.14v0.14v0.14l-0.14,0.14v0.14
	h-0.14l-0.14,0.14H55.29L55.29,58.21z M56.26,56.56h0.14H56.26L56.26,56.56z M40.25,51.73h-0.14v-0.14h0.14v-0.14v0.14V51.73
	L40.25,51.73z M27.56,49.79h-0.14v-0.14h0.14V49.79L27.56,49.79z M21.76,47.45h0.14h0.14h0.14v0.14h0.14l-0.14,0.14v-0.14v0.14
	h-0.14v0.14V48H21.9v0.14L21.76,48v-0.14l-0.14-0.14v-0.14v-0.14v-0.14h0.14V47.45L21.76,47.45z M23.01,45.79h0.14v-0.14h0.14v0.14
	h0.14h-0.14v0.14h-0.14v0.14h-0.14h-0.14h-0.14v-0.14v-0.14l0.14-0.14h0.14V45.79L23.01,45.79z M24.52,45.52h-0.14v0.14h-0.14h-0.14
	v-0.14h-0.14v-0.14h0.14v-0.14h0.14h0.14v0.14L24.52,45.52L24.52,45.52z M22.73,45.24h-0.14v0.14v0.14l0.14,0.14v-0.14h0.14v-0.14
	v-0.14H22.73L22.73,45.24z M24.25,44.83h0.14h0.14v0.14h-0.14h-0.14v0.14l-0.14-0.14v-0.14H24.25L24.25,44.83z M22.04,44.41
	l-0.14,0.14v0.14h-0.14l-0.14-0.14v-0.14h0.14h0.14v-0.14v-0.14h0.14h0.14v0.14L22.04,44.41L22.04,44.41z M21.49,44.14h-0.14h-0.14
	h-0.14V44h0.14l0.14-0.14h0.14V44V44.14L21.49,44.14z M18.73,34.34V34.2h0.14H19v0.14h0.14v0.14v0.14v-0.14H19v0.14l0.14,0.14v0.14
	v0.14v0.14l0.14,0.14l-0.14,0.14v0.14H19v-0.14v-0.14h-0.14v-0.14v-0.14H19h-0.14v-0.14v-0.14v-0.14h-0.14v-0.14v0.14v-0.14h-0.14
	v-0.14V34.2v-0.14v0.14L18.73,34.34L18.73,34.34z M18.04,32.69v-0.14h0.14v-0.14h0.14h0.14v0.14v0.14v0.14h-0.14v0.14h0.14v0.14
	v0.14h0.14h0.14v0.14h0.14v0.14L19,33.65v0.14v0.14h-0.14v-0.14h-0.14v-0.14v-0.14h-0.14l-0.14,0.14h-0.14h-0.14v-0.14v-0.14h-0.14
	v-0.14H17.9V33.1h-0.14h0.14v-0.14h-0.14v0.14h-0.14l-0.14-0.14v-0.14h0.14v-0.14v-0.28h-0.14v-0.14v-0.14V32h-0.14v-0.14v-0.14
	v-0.14l-0.14-0.14v-0.14v-0.14v-0.14v-0.14v-0.14h0.14l0.14,0.14v0.14v0.14l0.14,0.14v0.14v0.14v0.14v0.14L17.76,32v0.14v0.14
	l0.14,0.14v0.14v0.14H18.04L18.04,32.69z M27.97-0.02h0.14h0.14h0.14h0.14h0.14v0.14h0.14v0.14V0.4v0.14h0.14v0.14l0.14,0.14
	l0.28,0.28h0.14h0.14v0.14h0.14h0.14v0.14h0.14V1.5h0.14v0.14h0.14v0.14h0.14v0.14l0.14,0.14l0.28,0.14h0.14l0.14,0.14l0.14,0.14
	h0.14l0.14-0.14h0.14V2.19V2.05V1.92V1.78V1.5V1.36h0.14h0.14h0.14h0.14h0.14h0.14h0.14h0.14h0.14h0.14h0.14h0.14h0.14h0.14h0.14
	h0.14h0.14h0.14h0.28h0.14h0.14h0.14h0.14h0.14h0.14l0.14,0.28v0.14l0.14,0.14v0.14l0.14,0.14v0.14l0.14,0.14v0.14l0.14,0.14v0.14
	l0.14,0.14v0.14V3.3h0.14l0.14,0.14v0.14l0.14,0.14h0.14v0.14h0.14h0.14V3.71h0.14h0.14h0.14h0.14h0.14v0.14h0.14v0.14h0.14v0.14
	h0.14h0.14l0.14,0.14h0.14h0.28V4.4h0.14v0.14v0.14h0.14v0.14v0.14h0.14v0.14h0.14v0.14v0.14h0.14l0.14,0.14l0.14,0.14v0.14h0.14
	l0.14,0.14h0.14l0.14,0.14h0.14v0.14l0.14,0.14v0.14l0.14,0.14v0.14v0.14v0.14l0.14,0.14h0.14V7.3h0.14v0.14l0.14,0.14h0.14v0.14
	h0.14v0.14v0.14h0.14v0.14v0.14V8.4h0.14h0.14h0.14h0.14l0.14,0.14v0.14h0.14v0.14l0.14,0.14v0.14v0.14l-0.14,0.14V9.5l-0.14,0.14
	v0.14v0.14v0.14v0.14v0.14v0.14l0.14,0.14v0.14l0.14,0.14h0.14v0.14h0.14l0.14,0.14v0.14v0.14v0.14v0.28h0.14v0.14v0.14v0.14v0.14
	v0.41v0.14v0.28v0.14l0.14,0.14v0.14v0.14l0.14,0.14v0.14v0.14h0.14v0.14h0.14v0.14v0.14v0.14v0.14v0.14h-0.14v0.14h-0.14v0.14v0.14
	v0.28h0.14v0.14v0.14v0.14v0.14h-0.14v0.14h-0.14v0.14v0.14h0.14v0.14l-0.14,0.14v0.14l-0.14,0.14l-0.14,0.14v0.14h0.14v0.14v0.14
	h-0.14v0.14v0.14v0.14h-0.14v0.14v0.14v0.14v0.28h0.14v0.14h0.14v0.14v0.14l0.14,0.14v0.14l0.14,0.28h0.14h0.14l0.14,0.14h0.14h0.28
	l0.14,0.14h0.14l0.14,0.14h0.14l0.14,0.14h0.14l0.28,0.14l0.14,0.14h0.14l0.14,0.14v0.14h0.14l0.14,0.14l0.14,0.14h0.14v0.14
	l0.14,0.14l0.14,0.14h0.14v0.14l0.28,0.14l0.14,0.14l0.14,0.14v0.14h0.14v0.14l0.14,0.14h0.14l0.14,0.14h0.14l0.14,0.14l0.14,0.14
	l0.14,0.14l0.14,0.14h0.14l0.14,0.14v0.14l0.28,0.14l0.14,0.14l0.14,0.14h0.14l0.14,0.14l0.14,0.14l0.14,0.14h0.28v0.14h0.14h0.14
	l0.14,0.14l0.14,0.14h0.14l0.28,0.14h0.14h0.14l0.41,0.14h0.28h0.14h0.28h0.14h0.14l0.14-0.14h0.14h0.28h0.14v-0.14h0.14h0.14h0.14
	h0.14h0.14h0.14h0.14h0.14h0.28h0.14h0.14v-0.14h0.14h0.14h0.14h0.28h0.14h0.14l0.14-0.14h0.14h0.28h0.14h0.28h0.28h0.14h0.28h0.14
	l0.14,0.14h0.14h0.14l0.14,0.14h0.14l0.28,0.14h0.14l0.14,0.14h0.14l0.14,0.14h0.14l0.14,0.14h0.14l0.28,0.14l0.14,0.14h0.14
	l0.14,0.14h0.14l0.14,0.14h0.14l0.14,0.14h0.14l0.14,0.14h0.14h0.14l0.14,0.14h0.14l0.28,0.14h0.14h0.14l0.14,0.14h0.14h0.14h0.14
	h0.14l0.14,0.14h0.28h0.28l0.14,0.14h0.28h0.14l0.14,0.14l0.14,0.14v0.14l0.14,0.14h0.14l0.14,0.14l0.14,0.14v0.14h0.28v0.14
	l0.14,0.14l0.28,0.14h0.14l0.14,0.14l0.28,0.14l0.14,0.14h0.14l0.14,0.14l0.14,0.14h0.28l0.14,0.14h0.14l0.14,0.14h0.14l0.14,0.14
	h0.14l0.14,0.14l0.14,0.14h0.28l0.14,0.14h0.14l0.14-0.14l0.14,0.14h0.14h0.14l0.14,0.14l0.14-0.14h0.14l0.14-0.14h0.14l0.14-0.14
	h0.14l0.14-0.14l0.14-0.14h0.14l0.14-0.14v-0.14h0.14h0.14v-0.14h0.14v-0.14h0.14h0.14v0.14l-0.14,0.14v0.14h0.14v-0.14h0.14v0.14
	h-0.14v0.14h-0.14v0.14h0.14h0.14h0.14v0.14h-0.14l0.14,0.14v-0.14h0.14v0.14v-0.14h0.14v0.14h-0.14h0.14h0.14v0.14h0.14v0.14h0.14
	h0.14v0.14h0.14v0.14h0.14h0.14v0.14h-0.14h0.14v0.14v-0.14h0.14v0.14h0.14v-0.14h0.14V30.2h0.14v0.14h0.14v0.14h0.14h-0.14v0.14
	h0.14h0.14v0.14h0.14l-0.14,0.14l0.14,0.14v0.14l-0.14,0.14v0.14v-0.14h0.14v0.14H74.2v0.14h0.14v0.14v0.14V32v0.14h0.14v0.14h0.14
	v0.14h-0.14v0.14v0.14v0.14v0.14h-0.14v0.14v0.14h0.14v0.14h-0.14l-0.14,0.14h-0.14h-0.14v0.14v-0.14h-0.14v0.14h0.14h-0.14h-0.14
	v0.14v0.14v-0.14h-0.14v0.14h0.14v0.14h-0.14v-0.14v0.14v0.14h-0.14v0.14v0.14v0.14h-0.14v-0.14v0.14h-0.14v-0.14v0.14h-0.14v0.14
	h-0.14v0.14h0.14v0.14l-0.14,0.14v-0.14h-0.14v0.14v0.14h0.14v0.14v0.14h0.14v0.14h-0.14h0.14v0.14V36h0.14h-0.14h0.14v0.14v0.14
	h0.14h-0.14v0.14h0.14v0.14l0.14-0.14v0.14v0.14v0.14v0.14v0.14l0.14,0.14v0.14h-0.14v0.14h-0.14v0.14h0.14h-0.14v0.14h0.14v0.14
	h-0.14h0.14v0.14h-0.14v0.14h0.14h-0.14h-0.14v0.14v0.14h-0.14h-0.14v-0.14h-0.14v0.14h-0.14v0.14H72.4v0.14h-0.14h0.14v0.14h-0.14
	v0.14h0.14v0.14h-0.14v0.14l0.14,0.14v0.14v0.14v0.14V40h-0.14v0.14h-0.14v0.14h-0.14v0.14v-0.14h-0.14v0.14v-0.14h-0.14h-0.14v0.14
	v0.14h-0.14v0.14H71.3h-0.14h-0.14v0.14h-0.14v-0.14v0.14v0.14v0.14v0.14V41.1v0.14v0.14v0.14v0.14h0.14v0.14h-0.14l-0.14,0.14h0.14
	h0.14l0.14,0.14h0.14v0.14h-0.14v0.14h0.14v-0.14h0.14v0.14v0.14h0.14v0.14v0.14h-0.14v0.14v0.14l0.14,0.14h-0.14v0.14h0.14h-0.14
	v0.14h0.28l0.14-0.14h0.14h0.14h0.28h0.14h0.28h0.28h0.14h0.14l0.28-0.14h0.14h0.28h0.14h0.28h0.28h0.14h0.14h0.14h0.28h0.14
	l0.28,0.14l0.14,0.14l0.28,0.14l0.14,0.14l0.14,0.14l0.28,0.28h0.14l0.14,0.14l0.28,0.14l0.14,0.14l0.14,0.14l0.28,0.14l0.14,0.14
	l0.14,0.14h0.14l0.14,0.14l0.14,0.14l0.14,0.14v0.28l0.14,0.28v0.14v0.14l0.14,0.14v0.28l0.14,0.14v0.14v0.14v0.28v0.14v0.14V48
	v0.14v0.28v0.14v0.14v0.14v0.14v0.14v0.14l0.14,0.14v0.14h-0.14v0.14l0.14,0.14v0.14v0.14v0.14l0.14,0.14v0.14v0.14v0.14h0.14
	l0.14,0.14v0.14v0.14h0.14v0.14v0.14v0.14v0.14v0.14h0.14V52l0.14,0.14v0.14h0.14v0.14h-0.14v0.14v0.14v0.14h0.14v0.14h0.14v0.14
	l0.14,0.14v0.14h0.14v0.14l0.28,0.14v0.14h0.14v0.14h-0.14v0.14h-0.14h-0.14l-0.14,0.14h-0.14v0.14l-0.14,0.14l-0.14,0.14
	l-0.14,0.28h-0.14l-0.14,0.14v0.14l-0.14,0.14v0.14v0.14v0.14v0.14L79.44,56v0.14v0.14l-0.14,0.14v0.14v0.14l-0.14,0.14v0.14
	l0.14,0.14l0.14,0.28l0.14,0.14l-0.14,0.14v0.14H79.3h-0.14v0.14v0.14h-0.14v0.14h-0.14v0.14l-0.14,0.14v0.14h-0.14v0.14h-0.14
	v-0.14h-0.14H78.2h-0.14h-0.14l-0.14-0.14v-0.14h-0.14h-0.14h-0.14h-0.14H77.1l-0.14,0.14h-0.14v0.14l0.14,0.14v0.14v0.14h-0.14
	v0.14h-0.14h-0.14l-0.14,0.14v0.14h-0.14h-0.14h-0.14h-0.14h-0.14h-0.14h-0.14H75.3v0.14h-0.14l-0.14,0.14h-0.14h-0.14h-0.14h-0.14
	v0.14v0.14v0.14v0.14v0.14v0.14h-0.14H74.2h-0.14v-0.14h-0.14h-0.14h-0.14h-0.14h-0.14v0.14v0.14h-0.14v0.14h-0.14h-0.14l-0.14,0.14
	h-0.14v0.14v0.14l-0.14,0.14v0.14l-0.14,0.14l-0.14,0.14h-0.14v0.14h-0.14v0.14h0.14v0.14v0.14v0.14v0.14v0.14l0.14,0.14h0.14v0.14
	h0.14h0.28h0.14h0.14h0.14v0.14l-0.14,0.14l-0.14,0.14l-0.14,0.14v0.14h-0.14h-0.14H72.4h-0.14l-0.14,0.14l-0.14,0.14l-0.14,0.14
	l-0.28,0.28l-0.14,0.14L71.3,64.7l-0.14,0.14l-0.14,0.14v0.14l-0.14,0.14h-0.14l-0.14,0.14h-0.14v0.14h-0.14v0.14H70.2l-0.14,0.14
	v0.14v0.14v0.14v0.14l0.14,0.14l0.14,0.14v0.14l0.14,0.14h0.14v0.14h0.14l0.14,0.14v0.14v0.14v0.14l0.14,0.14v0.14h0.14l0.14,0.14
	v0.14v0.14v0.14h-0.14v0.14h-0.28h-0.14v0.14v0.14v0.14v0.14l0.14,0.14h0.14h0.14h0.14h0.14h0.14h0.14l0.14-0.14l0.14,0.14v0.14
	v0.14v0.28v0.14v0.14l-0.14,0.14v0.14l-0.14,0.14v0.14v0.14h0.14v0.14l-0.14,0.14h-0.14v0.14l-0.14,0.14l-0.14,0.14v0.14h-0.14
	l-0.14,0.14v0.14v0.14h-0.14l-0.14,0.14v0.14v0.14l0.14,0.14v0.14v0.14v0.14v0.14h0.14v0.14l0.14,0.14h0.14h0.14h0.14l0.14,0.14
	v0.14h0.14v-0.14h0.14h0.14l0.14,0.14v0.14v0.14v0.14v0.14v0.14l0.14,0.14v0.14v0.14v0.14v0.14h0.14l0.14,0.14v0.14h0.14v0.14h-0.14
	v0.14v0.14h0.14v0.14v0.14h-0.14v0.14h-0.14v0.14l-0.14,0.14v0.14v0.14v0.14h0.14H72.4v0.14h0.14v0.14h0.14v0.14h-0.14v0.14H72.4
	v0.14h0.14v0.14H72.4v0.14v0.14v0.14h-0.14v0.14v0.14h-0.14l-0.14,0.14h-0.14v0.14v0.14h-0.14v0.14h-0.14v0.14h-0.14v-0.14H71.3
	v0.14h-0.14v-0.14h-0.14v0.14h0.14v0.14h-0.14h-0.14v-0.14h-0.14v0.14h-0.14v0.14v0.14l0.14,0.14v0.14h-0.14v0.14h-0.14v-0.14h-0.14
	H70.2h-0.14h-0.14l-0.14,0.14h-0.14v0.14l-0.14,0.14v0.14h-0.14v0.14l-0.14,0.14v0.14h-0.14v0.14l-0.14,0.14l-0.14,0.14l-0.14,0.14
	l-0.14,0.14l-0.14,0.14v-0.14h-0.14h-0.14v-0.14h-0.14l-0.14-0.14v-0.14h-0.14v-0.14h-0.14V80.7h-0.14l0.14-0.14l0.14-0.14v-0.14
	h0.14v-0.14h-0.14h-0.14v0.14v0.14h-0.14v-0.14H67.3v-0.14v-0.14v-0.14v-0.14V79.6h0.14v-0.14l-0.14-0.14v0.14l-0.14,0.14h-0.14
	h-0.14v0.14h-0.14v0.14h-0.14h-0.14v0.14h-0.14l-0.14,0.14h-0.14v0.14h-0.14v0.14l-0.14-0.14l-0.14-0.14l-0.14-0.14v-0.14h-0.14
	h-0.14h-0.14l-0.14-0.14h-0.14v0.14h-0.14h-0.14l-0.14,0.14l-0.14,0.14v0.14v0.14h-0.14v0.14h-0.14h-0.14h-0.14h-0.14v-0.14h-0.14
	v-0.14v-0.14v-0.14h0.14v-0.14h0.14h0.14v-0.14h0.14l0.14-0.14v-0.14v-0.14l0.14-0.14v-0.14v-0.14l-0.14-0.14v-0.14h-0.14v-0.14
	v-0.14h-0.14l-0.14,0.14l-0.14,0.14v0.14h-0.14l-0.14-0.14h-0.14v-0.14h-0.14v-0.14v-0.14v-0.14h-0.14l-0.14-0.14l-0.14-0.14h-0.14
	h-0.14h-0.14l-0.14,0.14V77.8h-0.14v-0.14v-0.14v-0.14v-0.28l-0.14-0.28V76.7h-0.14l-0.14-0.28l-0.14-0.28v-0.14v-0.14l-0.14-0.14
	h-0.14V75.6h-0.14v-0.14h-0.14v-0.14l-0.14-0.14l-0.14-0.14H60.4v-0.14h-0.14l-0.14-0.14h-0.14h-0.14l-0.14,0.14h-0.14h-0.14
	l-0.14-0.14v-0.14h-0.14v-0.14h-0.14v-0.14h-0.14v-0.14v-0.14h-0.14v-0.14h-0.14l-0.28-0.28v-0.14l-0.14-0.14v-0.14h-0.41h-0.14
	h-0.69v0.28v0.14v0.14v0.14v0.14v0.14v0.14v0.14h-0.14v0.14v0.14h-0.14h0.14v0.14h-0.14v0.14v0.14v0.14v0.14v0.14v0.14v0.14v0.14
	h-0.14v-0.14H56.4h-0.14v0.14v0.14h0.14v0.14v0.14h-0.14v0.14h0.14v0.14v0.14v0.14v0.14v0.14v0.14v0.14v0.14h-0.14v0.14h-0.14v0.14
	v0.14h-0.14v0.14v0.14v0.14h-0.14l-0.14,0.14l-0.14,0.14h-0.14h-0.14v0.14h-0.14h-0.14h-0.14h-0.14H54.6h-0.14v-0.14h-0.14h-0.14
	h-0.14v-0.14h-0.14h-0.14h-0.14H53.5v-0.14h-0.14h-0.14h-0.14l-0.14-0.14h-0.28h-0.41h-0.14h-0.14h-0.14l-0.14-0.14h-0.14v-0.14
	h-0.14h-0.14h-0.14v-0.14h-0.14V77.8v-0.14h-0.14v-0.28v-0.14l-0.14-0.14v-0.14L50.6,76.7l-0.14-0.28v-0.14l-0.14-0.14v-0.14
	l-0.14-0.28V75.6v-0.14h-0.14v-0.14v-0.14h-0.14v-0.14l-0.14-0.41v-0.28h-0.14v-0.41L49.5,73.8v-0.14v-0.28l-0.14-0.14v-0.14v-0.14
	v-0.14h0.14V72.7v-0.14v-0.14h0.14l0.14-0.28l0.14-0.14l-0.14-0.14v-0.14h-0.14V71.6v0.14L49.5,71.6v-0.14v-0.14v-0.14h0.14v-0.14
	v-0.14h0.14h0.14v-0.14v-0.14h0.14v-0.14h-0.14l0.14-0.14h0.14v-0.14v-0.14h-0.14h-0.14v-0.14l-0.14-0.14v-0.14v-0.14v-0.14v-0.14
	h-0.14v-0.14H49.5l-0.14-0.14h-0.14v-0.14V68.7v-0.14h-0.14v-0.14v-0.14v-0.14h0.14h0.14h0.14v-0.14h0.14l-0.14-0.14h0.14v-0.14
	h0.14v0.14v-0.14h0.14h0.14h0.14v-0.14h0.14h0.14h0.14h0.14v-0.14h0.14h0.14v-0.14h0.14v-0.14h0.14v-0.14V66.9v-0.28v-0.14v-0.14
	v-0.14l0.14-0.14v-0.14l0.14-0.14h0.14v0.14h0.14h0.14h0.14h0.14h0.14h0.14h0.14v0.14l0.14,0.14h0.14v0.14h0.14v0.14l0.14,0.14h0.14
	v0.14h0.14h0.14h0.14v0.14h0.14h0.14v0.14h0.14h0.14h0.14h0.14l0.14-0.14h0.14h0.14v-0.14h0.14h0.14l0.28-0.28h-0.14v0.14h-0.14
	h-0.14h-0.14v0.14h-0.14h-0.14H54.6h-0.14h-0.14h-0.14h-0.14v-0.14v-0.14v-0.14v-0.14l-0.14-0.14v-0.14l-0.14-0.14h-0.14H53.5
	l-0.14-0.14h-0.14h-0.14h-0.14v-0.14v0.14v-0.14v-0.14v-0.14h-0.14v-0.14l0.14-0.14v-0.14V64.7v-0.14l0.14-0.14v-0.14h0.14v-0.14
	h0.14v-0.14h0.14v-0.14h0.14v-0.14v-0.14h0.14v-0.14l0.14-0.14v-0.14v-0.14l0.14-0.14l0.14-0.14v-0.28v-0.14v-0.14v-0.14h0.14v-0.14
	V61.8v-0.14h0.14v-0.14l0.14-0.14v-0.14v-0.14v-0.14v-0.14V60.7v-0.14h-0.14h0.14v-0.14v-0.14v-0.14h0.14v-0.14h0.14h0.14v-0.14
	h0.14l0.14-0.14l0.14-0.14l0.14-0.14h0.14h0.14l0.14-0.14h-0.14l0.14-0.14h0.14h0.14v-0.14l0.14-0.14l-0.14-0.14v0.14h-0.14h-0.14
	l-0.28,0.14h-0.14h-0.14l-0.14,0.14v0.14l-0.14,0.14l-0.14,0.14l-0.28,0.28l-0.28,0.28l-0.28,0.28h-0.14l-0.14,0.14l-0.14,0.14
	l-0.14,0.14H53.5l-0.14-0.14v-0.14v-0.14h0.14v-0.14h-0.14h0.14v-0.14l0.14-0.14v-0.14h0.14l0.14-0.14v0.14h0.14h-0.14v-0.14h-0.14
	v0.14v-0.14l0.14-0.14v-0.14l0.14-0.14v-0.14l0.14-0.14V58.9l0.14-0.14h0.14v-0.14h0.14h0.14v-0.14h0.14h0.14h0.14h0.14h0.14v-0.14
	h0.14v-0.14h0.14v-0.14h0.14v-0.14h0.14V57.8v-0.14v-0.14v-0.14v-0.14v-0.14v-0.14v-0.14v-0.14v-0.14h0.14h0.14l0.14,0.14h0.14
	l0.14-0.14h0.14h0.14v0.14v0.14h0.14h0.14h0.14v-0.14v-0.14h0.14v-0.14h-0.14h-0.14l-0.14-0.14h-0.14v-0.14h0.14V56h0.14h0.14
	l0.14-0.14v-0.14l-0.14,0.14V56h-0.14h-0.14l-0.14,0.14v0.14h0.14v0.14h0.14h0.14v0.14v0.14v0.14h-0.14h-0.14h-0.14v-0.14v-0.14
	l-0.14-0.14l-0.14,0.14h-0.14H56.4h-0.14h-0.14h-0.14h-0.14v0.14v0.14v0.14v0.14l-0.14,0.14v0.14l-0.14,0.14h-0.14v0.14h-0.14
	l-0.14,0.14h-0.14h-0.14h-0.14v0.14H54.6l-0.14,0.14h-0.14v-0.14l-0.14-0.14v-0.14v-0.14v-0.14v-0.14v-0.14l-0.14-0.14v-0.14h-0.14
	h-0.14l-0.14-0.14v-0.14v-0.14l-0.14-0.14v0.14v0.14v0.14l0.14,0.14h0.14v0.14h0.14l0.14,0.14v0.14v0.14v0.28l-0.14,0.14h-0.14v0.14
	h-0.14H53.5v0.14l-0.14,0.14v0.14v0.14h-0.14l-0.14,0.14v0.14h-0.14v0.14v0.14v0.14l0.14,0.14v0.14v0.14v0.14l-0.14,0.14l-0.14,0.28
	l-0.14,0.14h-0.14v0.14v0.14H52.4v0.14v0.14v0.14l-0.14,0.14v0.14v0.14v0.14h-0.14v0.14l-0.28,0.14v0.14h-0.14v0.14h-0.14h-0.14
	l-0.14,0.14h-0.14h-0.14l-0.14,0.14l-0.14,0.14H50.6v0.14h-0.14h-0.14v0.14h-0.14l-0.14,0.14h-0.14h-0.14v-0.14l-0.14-0.14v-0.14
	l-0.14-0.14l-0.14-0.14v-0.14v-0.14V61.8v-0.14v-0.14v-0.14v-0.14v-0.14v-0.14v-0.14l-0.14-0.14v-0.14v-0.14h-0.14v-0.14v-0.14
	h-0.14v-0.14l-0.14-0.14l-0.14-0.14h-0.14h-0.14h-0.14v-0.14h-0.14v-0.14l-0.14-0.14h-0.14v0.14H47.7h-0.14v-0.14h-0.14v-0.14h-0.14
	v-0.14V58.9h-0.14v-0.14h-0.14h-0.14h-0.14v0.14H46.6h-0.14v0.14h-0.14V58.9h-0.14h-0.14h-0.14l-0.14,0.14h-0.14v0.14v0.14v0.14
	H45.5v-0.14h-0.14v-0.14v-0.14h-0.14V58.9v-0.14l-0.14-0.14v-0.14l-0.14-0.14v-0.14l-0.14-0.28h-0.14V57.8v-0.14h-0.14v-0.14v-0.14
	l-0.14-0.14v-0.14l-0.14-0.14l-0.14-0.28h-0.14l-0.14-0.28l-0.14-0.14l-0.14-0.14V56v-0.14h-0.14v-0.14l-0.14-0.14v-0.14l-0.14-0.14
	v-0.14v-0.14l-0.14-0.14h0.14v-0.14v-0.14l0.14-0.14l0.14-0.14h0.14l0.14-0.14h0.14l0.14-0.14v-0.14V53.8l-0.14-0.14l-0.14-0.28
	h-0.14v-0.14h-0.14v-0.14l-0.14-0.14l-0.14-0.14l-0.14-0.14l-0.14-0.14l-0.14-0.14H42.6v-0.14v-0.14h-0.14V52h-0.14v-0.14h-0.14
	h-0.14v-0.14l-0.28-0.14l-0.28-0.28l-0.28-0.14v-0.14V50.9h0.14l-0.28-0.28l-0.28-0.28h-0.14h-0.14h-0.14v-0.14v0.14h-0.14v-0.14
	l-0.28,0.14v0.14v0.14v0.14v0.14h-0.14l-0.14,0.14V50.9v0.14V50.9h-0.14v0.14v0.14v0.14h-0.14v0.14l-0.14,0.14h-0.14l-0.14,0.14
	h-0.14v0.14h-0.14V52H38.6h-0.14v0.14h0.14l-0.14,0.14h-0.14h-0.14v0.14h-0.14v-0.14h-0.14l-0.14-0.14h-0.14L37.49,52h-0.14v-0.14
	h-0.14v-0.14h-0.14h-0.14l-0.14-0.14v0.14h-0.14h-0.14l-0.14,0.14V52h-0.14v0.14v0.14h-0.14v0.14h-0.14v0.14h-0.14v0.14H35.7v0.14
	v0.14v0.14h-0.14v-0.14h-0.14h-0.14h-0.14v0.14l-0.14,0.14v0.14h0.14v0.14h0.14v0.14h-0.14v0.14h-0.14l-0.14-0.14l-0.14-0.14H34.6
	v-0.14h-0.14l0.14-0.14h0.14v-0.14l-0.14-0.14v-0.14h-0.14v-0.14l-0.14-0.14h-0.14v0.14h-0.14v0.14h-0.14v-0.14h-0.14v-0.14h0.14
	h0.14v-0.14v-0.14v-0.14h-0.14V52l-0.14-0.14l-0.14-0.14l-0.14-0.14l-0.14-0.14l-0.14-0.14h-0.14v-0.14h-0.14v-0.14H32.8h0.14V50.9
	l-0.14-0.14h-0.14l-0.14-0.14l-0.14-0.14h-0.14l-0.14-0.14h-0.14h-0.14H31.7h-0.14v-0.14l-0.14-0.14v0.14h-0.14v0.14v0.14h-0.14
	v-0.14h-0.14h-0.14h-0.14h-0.14l-0.14,0.14h-0.14l-0.28,0.14H29.9h-0.14h-0.14l-0.14,0.14v0.14l-0.14,0.14h-0.14l0.14,0.14v0.14
	v0.14v0.14l0.14,0.14l0.14,0.14V52v0.14h-0.14h-0.14v0.14v0.14h-0.14v-0.14h-0.14h-0.14v-0.14H28.8V52v-0.14v-0.14v-0.14v-0.14
	v-0.14v-0.14v-0.14V50.9l-0.14-0.14v-0.14h-0.14v-0.14v-0.14v-0.14h-0.14v-0.14h-0.14l-0.14-0.14h-0.14v-0.14h-0.14H27.7v-0.14
	h-0.14v-0.14v-0.14l-0.14-0.14v-0.14l-0.14-0.14v-0.14h-0.14v-0.14v-0.14h0.14v-0.14v-0.14l-0.14-0.14V48h-0.14v-0.14h-0.14v-0.14
	l0.14-0.14v-0.14l0.14-0.14v-0.14v-0.14h0.14V46.9h0.14v-0.14v-0.14v-0.14v-0.14v-0.14v-0.14v-0.14v-0.14v-0.14v-0.14v-0.14v-0.14
	V45.1v-0.14h-0.14v-0.14h0.14h0.14v0.14h0.14v-0.14h-0.14v-0.14v-0.14v-0.14v-0.14h0.14h0.14v-0.14h0.14V44l0.14-0.14v-0.14h0.14
	v-0.14h0.14l-0.14-0.14v-0.14v-0.14v-0.14h-0.14h-0.14h-0.14L27.7,42.9h0.14v-0.14H27.7v-0.14h-0.28h-0.14v0.14v0.14h-0.14v0.14
	v0.14h-0.14h-0.14h-0.14h-0.14v-0.14h-0.14h0.14l0.14-0.14h0.14v-0.14l0.14-0.14v-0.14v-0.14v-0.14l-0.14-0.14v-0.14v-0.14v-0.14
	v-0.14h-0.14v-0.14h0.14h0.14v-0.14h0.14V41.1h0.14v-0.14l0.14-0.14v-0.14v-0.14v-0.14v-0.14v-0.14L27.56,40v-0.14v-0.14v-0.14h0.14
	v-0.14l0.14-0.14v-0.14v-0.14v-0.14l-0.14-0.14v-0.14v-0.14l-0.14-0.14V38.2v-0.14v-0.14v-0.14h0.14h0.14l0.14,0.14h0.14v-0.14
	h-0.14v-0.14v-0.14h-0.14H27.7h-0.14h-0.14v-0.14l-0.14-0.14l-0.14-0.14v-0.14l-0.14-0.28v-0.14v-0.14h-0.14v-0.14h0.14h-0.14v-0.14
	V36h-0.14v-0.14v-0.14l-0.14-0.14v-0.14v-0.14h0.14v-0.14h0.14l-0.14-0.28v0.14l-0.14-0.14v-0.14h-0.14v0.14h-0.14h-0.14v-0.14h0.14
	h-0.14v-0.14v-0.14h-0.14v-0.14V34.2h-0.28h-0.14v0.14l-0.14,0.14v0.14v0.14v0.14v0.14v0.14v0.14v0.14v0.14l-0.14,0.14l-0.14,0.14
	h-0.14V36l-0.14,0.14v0.14H24.8v-0.14v0.14h-0.14v-0.14h-0.14h-0.14L24.25,36h0.14v-0.14v-0.14h0.14v-0.14v-0.14h0.14v-0.14v-0.14
	v-0.14h0.14v-0.14h0.14v-0.14v-0.14v-0.14v-0.14l0.14-0.14v-0.14v-0.14v-0.14h0.14v-0.14v-0.14v-0.14v-0.14V33.1v-0.14v-0.14h0.14
	v-0.14l-0.14-0.14l-0.14-0.14v0.14v0.14h-0.14H24.8v-0.14l-0.14-0.28l0.14-0.14V32l0.14-0.14v-0.14l-0.14-0.14v-0.14v-0.14v-0.14
	h-0.14v-0.14v-0.14h0.14h-0.14v-0.14l-0.14,0.14l-0.14,0.14v-0.14h-0.14v-0.14v-0.14v-0.55v-0.14v-0.14v-0.14v-0.14v-0.14l0.14-0.14
	V29.1l0.14-0.14v-0.14v-0.14v-0.14v-0.14l-0.14-0.14h-0.14h-0.14l0.14,0.14v0.14v0.14h-0.14v0.14h-0.14l-0.28,0.14l-0.14,0.28h-0.28
	l-0.14,0.14h-0.14h-0.14h-0.14v0.14h-0.14h-0.14h-0.14v-0.14v-0.14V29.1l-0.14-0.14h-0.14v-0.14h0.14l0.14-0.14l-0.14-0.14v0.14
	v0.14h-0.14v0.14v0.14h0.14v0.14h0.14v0.14v0.14v0.14v0.14l-0.28,0.14v0.14L21.9,30.2h-0.41l-0.14,0.14l-0.41,0.14l-0.41,0.28
	l-0.14,0.28l-0.28,0.41l-0.14,0.14l-0.14,0.28L19.69,32l-0.14,0.14L19.42,32v-0.14v-0.14h-0.14v-0.28h-0.14v-0.14v-0.28v-0.14v-0.14
	H19v0.14l-0.14,0.14l-0.14,0.14h-0.14v-0.14l-0.14,0.14v0.14h0.14v0.14v0.14v0.14l-0.14,0.14l-0.14-0.14v-0.14h-0.14v-0.14v-0.14
	h-0.14H17.9l-0.14-0.14v-0.41v-0.14v-0.14h-0.14v-0.14l-0.14-0.14h0.14l-0.14-0.14h0.14v-0.14h0.14v0.14h0.14h0.14v-0.14l-0.14-0.14
	v-0.14l-0.14-0.14V29.1v-0.28v-0.14l0.14,0.14h0.14l0.14-0.14v-0.14h0.14v-0.14v-0.14v-0.14l-0.14-0.14v-0.14v-0.14h0.14v0.14v-0.14
	h0.14h0.14v-0.14h0.14v-0.14l-0.14-0.14v-0.14v-0.14v-0.14v-0.14h0.14l-0.14-0.14v-0.14h-0.14v-0.14h-0.14l0.14-0.14v-0.14h0.14
	h0.14v-0.14h0.14v-0.14l-0.14-0.14h0.14v-0.14v-0.14h-0.14l-0.14-0.28v-0.14v-0.14v-0.14h-0.14v-0.14l0.14-0.14v-0.14h0.14
	l-0.14-0.41h0.14l0.14-0.14H19h0.14h0.14h0.14h0.14h0.14l0.14-0.14h0.14h0.28l0.14-0.14h0.14l0.14-0.14v-0.14l0.14-0.14v-0.14v-0.14
	l-0.14-0.14v-0.14h-0.14v-0.14l-0.28-0.14v-0.14l-0.14-0.14l-0.14-0.14l-0.14-0.14v-0.14h-0.14l-0.14-0.14h-0.14v-0.14h-0.14v-0.14
	v-0.14v-0.14v-0.14v-0.14l0.14-0.14l0.14-0.14h0.14v-0.14h0.14l0.14-0.14h0.14h0.14l0.14-0.14h0.14h0.14h0.14v-0.14h0.14v-0.14
	v-0.14V19.3v-0.14v-0.14v-0.14v-0.14H20.8v-0.14v-0.14v-0.14V18.2v-0.14h0.14v-0.14v-0.14v-0.14v-0.14v-0.14l0.14,0.14h0.14v-0.14
	v-0.14h0.14v-0.14v-0.14h-0.14v0.14h-0.14h-0.14v-0.14h0.14h-0.14v-0.14v-0.14H20.8h0.14v-0.14H20.8V16.4h-0.14v0.14V16.4
	l-0.14-0.14v-0.14h-0.14v0.14v-0.14h-0.14v-0.14v-0.14h-0.14v-0.14v0.14h-0.14v-0.14h-0.14v-0.14v-0.14h-0.14V15.3v-0.14h0.14h0.14
	v0.14h0.14v-0.14l0.14-0.14v-0.14v-0.14h0.14v-0.14v-0.14l0.14-0.14l0.28-0.55l0.14-0.14h0.14v-0.14l0.14-0.14l0.14-0.14v-0.14h0.14
	l0.14-0.28v-0.14l0.14-0.28l0.14-0.41v-0.28v-0.14v-0.69v-0.14v-0.14l0.14-0.14l0.14-0.14v-0.14V9.92l0.14-0.41l0.14-0.28V9.09V8.95
	l0.14-0.14V8.68l0.14-0.28l0.14-0.14l0.14-0.14V7.99V7.85V7.71l0.14-0.14h0.14V7.44h0.14V7.3V7.16h0.14V7.02V6.88h0.14l0.14-0.14
	l0.14-0.14V6.47V6.33l0.14-0.14h0.14V6.06V5.92V5.78V5.64V5.5h-0.14l-0.14-0.14V5.23V5.09V4.95V4.81V4.68V4.54V4.4V4.26V4.12V3.99
	h-0.14V3.85V3.71V3.57l0.14-0.14V3.3V3.16h0.14V3.3l0.14,0.14h0.14V3.3h0.14V3.16h0.14h0.14h0.14h0.14h0.14l0.14,0.14v0.14h0.14
	l0.14-0.14l0.14-0.28V2.74h0.14l0.14-0.14V2.47l0.14-0.28l0.14-0.14V1.92l0.14-0.14V1.64l0.14-0.14V1.09l0.14-0.14l0.14-0.14
	l0.14-0.14l0.14-0.14V0.4l0.14-0.14V0.12l0.14-0.28h0.14h0.14l0.14,0.14H27.97z"/>
</svg>
