<?xml version="1.0" encoding="utf-8"?>
<!-- Generator: Adobe Illustrator 24.2.1, SVG Export Plug-In . SVG Version: 6.00 Build 0)  -->
<svg version="1.1" id="Layer_1" xmlns="http://www.w3.org/2000/svg" xmlns:xlink="http://www.w3.org/1999/xlink" x="0px" y="0px"
	 viewBox="0 0 97.23 97.23" style="enable-background:new 0 0 97.23 97.23;" xml:space="preserve">
<style type="text/css">
	.st0{fill-rule:evenodd;clip-rule:evenodd;fill:#1D1D1B;}
</style>
<path class="st0" d="M48.4,0.63h0.11v0.11h0.11v0.11h0.11h0.11h0.11V0.74h0.11V0.63V0.52V0.41h0.11v0.11v0.11v0.11v0.11h0.11h0.11
	h0.11V0.74h0.11V0.63h0.11v0.11V0.63V0.52V0.41h0.11v0.11v0.11v0.11v0.11v0.11h0.11V0.85V0.74V0.63h0.11V0.52V0.41V0.29h0.11v0.11
	h0.11v0.11h0.11V0.41v0.11v0.11v0.11H50.3h-0.11v0.11l-0.11,0.11v0.11v0.11l0.11,0.11h0.11v0.11h0.11l0.11,0.11h0.11h0.11h0.11v0.11
	h0.11h0.11h0.11v0.11h0.11h0.11V1.64h0.11h0.11l0.11-0.11V1.41V1.3V1.19h0.11V1.08V0.97l0.11-0.11h0.11v0.11l0.11,0.11h0.11v0.11
	h0.11V1.3h0.11h-0.11v0.11l0.11,0.11v0.11v0.11v0.11h0.11v0.11h0.11V1.86h0.11v0.11v0.11h-0.11V2.2v0.22l0.11,0.11v0.11l0.11,0.11
	V2.64h0.11v0.11l-0.11,0.11v0.11h0.11l-0.11,0.11V3.2v0.11v0.22v0.11v0.22v0.11h0.11V4.1v0.11h0.11v0.11v0.11v0.11h0.11v0.11
	l0.11-0.11h0.11v0.11h0.11h0.11h0.11h0.11h0.11v0.11v0.11h0.11v0.11V5.1v0.11v0.11v0.11v0.11v0.11h0.11h0.11V5.55h0.11h0.11v0.11
	v0.11h-0.11l0.11,0.11V6v0.11v0.11h0.11l0.11,0.11v0.11v0.11H55v0.11h0.11v0.11h0.11v0.11v0.11v0.11v0.11v0.11h0.11v0.11v0.11h-0.11
	h-0.11L55,7.68v0.11V7.9v0.11v0.11v0.11v0.11v0.22v0.11L54.89,8.8v0.22v0.11v0.11v0.22v0.11V9.8v0.11v0.11v0.11v0.11v0.22v0.22v0.22
	v0.11v0.11v0.11v0.11v0.11L55,11.59v0.11v0.11v0.11h0.11v0.11v0.11v0.11l0.11,0.11v0.22v0.11h0.11v0.11h0.11v0.11h0.11l0.11-0.11
	h0.11h0.11v0.11H56l0.11,0.11h0.11v0.11v0.11h0.11l0.11,0.11v0.11v0.11h0.11v0.11v0.11l0.11,0.11h0.11v0.11h0.11v0.11v0.11
	l0.11,0.11v0.11h0.11v0.11v0.11h0.11l-0.11,0.11v0.11v0.11h0.11l-0.11,0.11h0.11v0.11h0.11v0.11v0.11l0.11,0.11h-0.11v0.11v0.11
	h-0.11v0.11v0.22v0.11v0.11v0.11v0.11v0.11v0.11v0.11v0.11v0.11v0.11v0.11v0.11v0.11l0.11,0.11v0.11v0.11v0.11v0.11v0.11v0.11v0.11
	v0.11v0.11l0.11,0.11v0.34v0.22v0.11v0.11l0.11,0.11v0.11h0.11v0.11v0.11h0.11v0.11h0.11v0.11h0.11v0.11v0.11h0.11v0.11h0.11v-0.11
	h0.11h0.11v0.11v0.11h-0.11h-0.11h-0.11h-0.11h-0.11v0.11l-0.11,0.11v0.11h-0.11v0.11v0.11v0.11v0.11l-0.11,0.11v0.11v0.11V22v0.11
	v0.11v0.11v0.11v0.11v0.11l-0.11,0.11v0.11v0.11v0.11v0.11v0.11v0.22v0.22v0.11v0.22v0.11v0.11v0.22v0.11v0.11v0.22v0.11v0.11v0.11
	v0.11l0.11,0.11v0.11h-0.11h0.11v0.22v0.11v0.11v0.11v0.11v0.11v0.11v0.11v0.11v0.11h0.11v0.11v0.11v0.11v0.11v0.11v0.11v0.22v0.11
	v0.11v0.11h0.11v0.22v0.11v0.11v0.11v0.11v0.11l0.11,0.11v0.11v0.11v0.11v0.11v0.11l0.11,0.11v0.11v0.11v0.11v0.22v0.11v0.11
	l0.11,0.11v0.11v0.11v0.11v0.11v0.11l0.11,0.11v0.22v0.11v0.11v0.11l0.11,0.11v0.11v0.11v0.11v0.11v0.11l0.11,0.11v0.11v0.11v0.11
	v0.11l0.11,0.11v0.11v0.11v0.22h0.11v0.11v0.11v0.11h0.11v0.11v0.11v0.11v0.11v0.11v0.11l0.11,0.22v0.11v0.11v0.11v0.11v0.11v0.11
	v0.11v0.11v0.11v0.11v0.22l0.11,0.22v0.11v0.11v0.11v0.22v0.11v0.11v0.11v0.11h0.11v0.11v0.34V38v0.22v0.11l0.11,0.22v0.11v0.11V39
	v0.11v0.11l0.11,0.11v0.11v0.11v0.11v0.11v0.11v0.11l0.11,0.11v0.34v0.22v0.11l0.11,0.11v0.22v0.34l0.11,0.11v0.11v0.11v0.11v0.11
	l0.11,0.22v0.22v0.11l0.11,0.11v0.11v0.11v0.11v0.11v0.11v0.11v0.11v0.11v0.11v0.11v0.11v0.11v0.11v0.11v0.11h0.11v0.11v0.11v0.11
	v0.11v0.11v0.11l0.11,0.11v0.11v0.11h0.11v0.11v0.11v0.11h0.11v0.22v0.11l0.11,0.11v0.11v0.11l0.11,0.11v0.22h0.11v0.11l0.11,0.11
	l0.11,0.11l0.11,0.11v0.11h0.11l0.11,0.11h0.11v0.11v0.11v0.11h-0.11v0.11h0.11h0.11h0.11l0.11,0.11l0.11-0.11v-0.11l0.11-0.11h0.11
	v-0.11h0.11h0.11l0.11,0.11h0.11h0.11l0.11,0.11h0.11l0.11,0.11l0.11,0.11h0.11l0.11,0.11l0.22,0.11l0.11,0.11l0.11,0.22l0.11,0.11
	v0.11v0.11v0.11h-0.11l-0.11,0.11H63.5v0.11v0.11h0.11h0.11h0.11h0.11l0.11,0.11h0.11v0.11v0.11h0.11v0.11l0.11,0.11l0.11,0.11v0.11
	l0.11,0.11v0.11h0.11v0.11l0.11,0.11l0.11,0.11l0.11,0.22v0.11h0.11l0.11,0.11v0.11h0.11v0.11v0.11h0.11v0.11h0.11l0.11,0.22
	l0.11,0.11v0.11h0.11l0.11,0.11v0.11v0.11l0.11,0.11l0.11,0.11v0.11v0.11v0.11v0.11h0.11v0.11v0.11h0.11v0.11v0.11l0.11,0.11v0.11
	v0.11h0.11V54l0.11,0.22v0.11l0.11,0.11v0.11l0.11,0.11v0.11v0.11V55h0.11v0.11v0.11v0.11v0.11h0.11v0.11l0.11,0.11l0.11,0.11v0.11
	h0.11v0.11v0.11v0.11h0.11v0.11v0.11v0.11h0.11v0.11v0.11v0.11v0.11v0.11h0.11v0.11v0.11v0.11v0.11v0.11h0.11v0.11v0.11h0.11v0.11
	v0.11h0.11l0.11,0.34l0.11,0.11v0.11l0.11,0.11v0.11h0.11v0.11l0.11,0.11v0.11h0.22v-0.11v-0.11h0.11v0.11h0.11v0.11h0.11v0.11h0.11
	v0.11h0.11l0.11,0.11h0.11v0.11h0.11h0.11v0.11h0.11v0.11h0.11h0.11v0.11h0.11h0.11h0.11h0.11L71,60.15h0.11h0.11h0.11l0.11,0.11
	h0.11v0.11h-0.11h0.11v0.11h0.11v0.11h0.22v0.11H72v0.11l0.11,0.11h0.11v-0.11h0.11h0.11v0.11h0.11v-0.11v0.11h0.11h0.11h0.11h0.11
	h0.11v-0.11v-0.11h0.11V60.6h0.11l0.11,0.11l0.22,0.11h0.11l0.11,0.11h0.11l0.11-0.11v0.11h0.11h0.11h-0.11h0.11h0.11l-0.11-0.11
	v-0.11h-0.11V60.6v-0.11h-0.11h0.11l-0.11-0.11l-0.11-0.11l-0.11-0.11v-0.11h-0.11v-0.11h-0.11v-0.11h-0.11V59.7l-0.11-0.11v-0.11
	l-0.11-0.11v-0.11l-0.11-0.11v-0.11l0.11-0.11V58.7v-0.11l0.11-0.11v-0.11v-0.11l-0.11-0.11v-0.11v-0.11l-0.11-0.11v-0.11v-0.11
	v-0.11l0.11-0.11l0.11-0.11h0.22v-0.11h0.11v-0.11l0.11-0.11v-0.11h0.11v-0.11v-0.11h0.11v-0.11h0.11h0.11v-0.11v-0.11h-0.11v-0.11
	v-0.11h-0.11V55.9v-0.11v-0.11h-0.11v-0.11h-0.11v-0.11v-0.11h0.11v-0.11h0.11v-0.11h-0.11V55l-0.11-0.11v-0.11v-0.11v-0.11v-0.11
	v-0.11h-0.11v-0.11v-0.11L73.68,54h-0.11l-0.11-0.11v-0.11l-0.11-0.11h-0.11l-0.11-0.11v-0.11h-0.11v-0.11l-0.11-0.11V53.1h-0.11
	l-0.11-0.11l-0.11-0.11h-0.11h-0.11h-0.11v-0.11h-0.11L72,52.65h-0.11h-0.22v0.11h-0.11v-0.11h-0.11v-0.11l0.11-0.11h0.11v-0.11
	h0.11h0.11H72v0.11h0.11h0.11h0.11h0.11l0.22,0.11h0.22l0.11,0.11h0.11l0.11,0.11l0.22,0.11h0.11l0.11,0.11l0.11,0.11l0.22,0.11
	l0.11,0.11l0.11,0.11l0.34,0.22l0.11,0.22L74.8,54h0.11v0.11l0.11,0.11l0.11,0.11l0.11,0.11l0.11,0.11l0.22,0.22L75.81,55l0.11,0.11
	l0.11,0.22l0.11,0.22l0.11,0.22l0.11,0.11l0.11,0.11v0.11l0.11,0.11v0.11l0.11,0.22l0.11,0.22l0.11,0.22l0.11,0.11l0.11,0.34
	l0.11,0.34l0.11,0.11l0.11,0.45l0.11,0.22l0.11,0.22l0.11,0.22v0.11l0.11,0.11v0.11l0.11,0.22v0.11v0.11l0.22,0.45v0.22l0.11,0.22
	v0.11v0.11h0.11v0.11v0.11h0.11v0.11v0.22l0.11,0.11v0.11l0.11,0.11v0.22l0.11,0.11v0.11v0.11l0.11,0.11v0.11l0.11,0.22v0.11v0.11
	l0.11,0.22l0.11,0.11v0.11l0.11,0.22v0.22l0.11,0.11v0.22l0.11,0.22l0.11,0.34v0.22h0.11v0.11l0.11,0.34v0.11l0.11,0.22v0.11v0.11
	v0.11l0.11,0.11v0.11v0.11l0.11,0.11v0.11v0.11l0.11,0.11v0.22l0.11,0.22v0.11v0.11v0.11l0.11,0.11v0.11v0.11v0.11l0.11,0.11v0.11
	l0.11,0.22v0.34l0.11,0.11v0.22l0.11,0.11v0.22v0.11l0.11,0.22v0.11l0.11,0.22v0.22v0.11v0.11l0.11,0.11v0.22l0.11,0.11v0.22v0.22
	l0.11,0.11v0.22v0.11l0.11,0.11v0.22v0.22l0.11,0.22v0.11v0.11v0.11v0.11l0.11,0.11v0.11v0.22l0.11,0.22v0.11v0.11l0.11,0.11v0.11
	v0.11v0.22l0.11,0.11v0.11v0.11v0.11v0.11l0.11,0.11v0.22v0.11v0.11v0.11l0.11,0.11v0.11v0.22v0.11l0.11,0.11v0.11v0.22v0.22
	l0.11,0.11v0.22v0.11v0.22l0.11,0.11v0.11v0.11v0.11v0.11v0.11l0.11,0.11v0.11v0.11v0.11v0.11l0.11,0.22v0.11v0.11v0.11v0.11v0.11
	h0.11v0.11v0.11v0.11v0.11v0.11v0.11l0.11,0.11v0.11v0.11v0.11v0.11v0.11l0.11,0.11v0.11v0.11v0.11v0.11l0.11,0.11v0.11v0.11v0.11
	v0.11v0.11v0.11l0.11,0.11v0.11v0.11v0.11v0.11v0.11l0.11,0.11v0.11v0.11v0.11v0.11v0.11l0.11,0.11v0.11v0.11v0.11v0.11v0.11
	l0.11,0.22v0.11v0.11v0.11l0.11,0.22v0.11v0.11v0.11v0.11l0.11,0.22v0.22v0.11v0.11v0.11h0.11v0.11v0.11V87v0.11v0.11l0.11,0.11
	v0.11v0.11v0.11v0.11l0.11,0.11v0.22v0.11v0.11v0.11l0.11,0.11v0.11v0.11v0.11v0.11v0.11l0.11,0.22v0.11v0.11v0.11h0.11v0.22v0.11
	v0.11v0.11h0.11v0.11v0.11v0.11h-0.11h-0.11v0.11h-0.11h-0.11v-0.11h-0.11l-0.11,0.11h-0.11H84.2h-0.11v-0.11v-0.11v-0.11
	l-0.11-0.11h-0.11h-0.11h-0.11h-0.11v0.11v0.11l-0.11,0.22v0.11l-0.11,0.11v0.11l-0.11,0.11v0.11v0.11v0.11v0.11l0.11,0.11v0.11
	h-0.11h-0.11l-0.11-0.11h-0.11h-0.11h-0.11v-0.11l-0.11,0.11l-0.11-0.11H82.3v0.11h-0.11h-0.11h-0.11h-0.11l-0.11,0.11h-0.22H81.4
	h-0.11h-0.11h-0.11h-0.11l-0.11-0.11h-0.11h-0.11h-0.11h-0.11h-0.11h-0.11h-0.22h-0.11l-0.56-0.11l-0.11,0.11v0.11v0.11v0.11v0.22
	l-0.11,0.11l-0.11,0.11l-0.11,0.11l-0.11,0.11l-0.22,0.11h-0.11l-0.11,0.11h-0.11l-0.11,0.11h-0.22h-0.11H77.6h-0.22l-0.11,0.11
	h-0.22l-0.22,0.11l-0.34,0.11h-0.11l-0.22,0.11h-0.34L75.7,93.6h-0.11l-0.22,0.11h-0.11h-0.11l-0.22,0.11h-0.22l-0.11,0.11h-0.11
	v0.11h-0.11h-0.22l-0.22,0.11l-0.11,0.11l-0.11,0.11h-0.11h-0.11h-0.11h-0.11l-0.11,0.11h-0.11l-0.11,0.11h-0.11h-0.11l-0.11,0.11
	h-0.11h-0.22l-0.34,0.11l-0.45,0.11h-0.56l-0.45,0.11H70.1l-0.45,0.11h-0.11l-0.34,0.22l-0.34,0.11l-0.11,0.11l-0.34,0.11
	l-0.22,0.22l-0.22,0.11v0.11v0.11v0.11h-0.11v0.11V96.4v0.11h-0.11h-0.11V96.4h-0.11h-0.11v0.11H67.3h-0.11v0.11h-0.11v0.11h-0.11
	h-0.11h-0.11h-0.11h-0.11h-0.11v0.11H66.3v-0.11v-0.11h-0.11v-0.11h-0.11h-0.11l-0.11-0.11h-0.11v-0.11h-0.11h-0.11l-0.11-0.11
	h-0.11h-0.11h-0.11h-0.11v-0.11h-0.11h-0.22l-0.22-0.11h-0.11l-0.11-0.11h-0.11l-0.11-0.11h-0.11h-0.11h-0.11H63.5l-0.11-0.11h-0.11
	h-0.11h-0.11l-0.11-0.11h-0.11h-0.11v-0.11h-0.11h-0.11v-0.11h-0.11v-0.11h-0.11v-0.11h-0.11h-0.11v-0.11l-0.11-0.11l-0.11-0.22
	l-0.34-0.34l-0.22-0.34l-0.11-0.11l-0.11-0.11L60.7,93.6l-0.45-0.22h-0.34h-0.11H59.7h-0.11h-0.11h-0.11v0.11h-0.11h-0.11h-0.11
	v-0.11l-0.11,0.11H58.8h-0.11h-0.11h-0.11v0.11l-0.11,0.11l-0.11,0.11h-0.11h-0.11h-0.11l-0.11-0.11h-0.11h-0.11V93.6h-0.11
	l-0.11-0.11l-0.11-0.11v-0.11h-0.11h-0.11v-0.11H56.9h-0.11v0.11h-0.11h-0.11h-0.11h-0.11h-0.11l-0.11,0.11L56,93.27h-0.11v0.11H56
	h-0.11h-0.11h-0.11v-0.11v-0.11h-0.11v0.11h-0.11h-0.11l-0.11,0.11h-0.11v0.11H55h-0.11h-0.11v0.11h-0.11h-0.11h-0.11h-0.11h-0.11
	v-0.11H54.1h-0.22h-0.11h-0.11l-0.11,0.11v-0.11h-0.11v-0.11h-0.11v0.11v-0.11h-0.11H53.1h-0.11h-0.11l-0.11,0.11v0.11v0.11h-0.11
	h-0.11h-0.11V93.6h-0.11l-0.11,0.11h-0.11h-0.11V93.6h-0.11h-0.11v0.11h-0.11l-0.11,0.11l-0.11-0.11h-0.11V93.6h-0.11v-0.11h-0.11
	v-0.11h-0.11v0.11h-0.11h-0.11v-0.11h-0.11l-0.11,0.11h-0.11v0.11h0.11v0.11h-0.11H50.3v0.11h-0.11v0.11v0.11h-0.11v0.11h0.11h0.11
	v0.11h-0.11h-0.11v0.11h-0.11v0.11l-0.11,0.11v0.11v0.11h-0.11v0.11v0.11h-0.11v0.11h-0.11l-0.11,0.11h-0.11v0.11h-0.11v0.11
	l-0.11,0.11h-0.11V95.5h-0.11h-0.11h-0.11h-0.11v0.11H48.4V95.5h-0.11l-0.11-0.11v-0.11v0.11h-0.11h0.11h-0.11v0.11v-0.11h-0.11
	v-0.11v0.11h-0.11h-0.11v0.11h-0.11H47.5h-0.11h-0.11h-0.11l-0.11,0.11h-0.11h-0.11V95.5v-0.11h-0.11v0.11h-0.11h-0.11v0.11h-0.11
	h-0.11h-0.11V95.5l0.11-0.11l0.11-0.11l0.11-0.11v-0.11v-0.34v-0.34l-0.11-0.34h-0.22l-0.22-0.11v-0.22l0.11-0.34l0.22-0.34
	l0.11-0.34l0.22-0.45l-0.11-0.22h-0.22h-0.11v-0.22V91.7v-0.11v-0.11h0.11v-0.11v-0.11l0.11-0.11l0.11-0.11v-0.11V90.8l-0.11-0.11
	v-0.11l-0.11-0.11v-0.11l-0.11-0.11l-0.11-0.11h-0.11v-0.22V89.8l0.11-0.11l0.11-0.11l0.34-0.11l0.22-0.11l0.22-0.11l0.22-0.11
	l0.22-0.11v-0.22v-0.22l-0.11-0.22l-0.11-0.11v-0.11v-0.11v-0.22v-0.11l-0.11-0.11h-0.11l-0.11-0.11l-0.22-0.11l-0.11-0.11h-0.11
	v-0.11h-0.11L46.16,87l-0.11-0.11v-0.11l-0.11-0.11v-0.11h-0.11v-0.11h-0.11l-0.11-0.11l-0.11,0.11h-0.22l-0.22,0.11h-0.11v0.11
	h-0.11l-0.11,0.11h-0.11h-0.11h-0.11h-0.11h-0.11h-0.11v0.11h-0.11l-0.11-0.11H43.7h-0.11v-0.11h-0.11v-0.11h-0.11v-0.11h-0.11
	h-0.11v0.11h-0.11v-0.11h-0.11H42.8v-0.11h-0.11h-0.11v-0.11h-0.11h-0.11v-0.11h-0.11v-0.11l-0.11-0.11l-0.22-0.11h-0.22l-0.34-0.22
	l-0.22-0.11l-0.34,0.11h-0.11h-0.34l-0.22-0.11l-0.22,0.11l-0.34,0.11l-0.11-0.11l-0.22,0.11L39,85.88l-0.22,0.22v0.11l-0.22,0.22
	l-0.11,0.22h-0.11v0.11v0.11L38.21,87H38.1h-0.11v0.11h-0.11v0.11h-0.11h-0.11h-0.11h-0.11v0.11h0.11v0.11v0.11h0.11v0.11h-0.11
	h-0.11l-0.11,0.11v0.11v0.11h-0.11v0.11l-0.11,0.11h0.11v0.11H37.1h-0.11h0.11v0.11h-0.11h0.11v0.11h-0.11h-0.11h-0.11v0.11h0.11
	h0.11v0.11l0.11,0.11l-0.11,0.11h-0.11v0.11h-0.11h-0.11l-0.11-0.11h-0.11h-0.11v0.11v0.11v0.11H36.2v0.11h0.11l-0.11,0.11h-0.11
	h-0.11l0.11,0.11h0.11v0.11h-0.11v-0.11h-0.11v0.11v0.11V89.8h-0.11h-0.11v0.11h-0.11V89.8l-0.11,0.11V89.8v-0.11h-0.11v0.11h-0.11
	v0.11v0.11h-0.11v0.11v0.11v0.11v0.11h-0.11v-0.11v0.11h-0.11h-0.11l-0.11-0.11v0.11v0.11v0.11h0.11h0.11v0.11h-0.11h-0.11v0.11
	l0.11,0.22v0.11h-0.11l-0.11,0.11v0.11h-0.11v0.11h-0.11H34.3v-0.11h-0.11v0.11h-0.11h-0.11h-0.11v0.11h-0.11v0.11v0.11h-0.11v0.11
	v0.11h-0.11v-0.11H33.4l0.11,0.11v0.11v0.11l-0.11,0.11v0.11h0.11l-0.11,0.11l-0.11,0.11h-0.11h-0.11v0.11v0.11h0.11h-0.11v0.11
	l-0.11,0.11v0.11v0.11h0.11h0.11v0.11h-0.11v0.11v0.11v0.11h0.11v-0.11h0.11v0.11l-0.11,0.11h-0.11l-0.11,0.11h-0.11h-0.11
	l-0.11,0.11h-0.11H32.4h-0.34h-0.11l-0.11,0.11h-0.11l-0.11-0.11l-0.11-0.11l-0.11-0.11l-0.11-0.11h-0.11l-0.11-0.11h-0.11h-0.11
	h-0.11l-0.11,0.11h-0.22h-0.11v-0.11l-0.11-0.11V93.6h-0.11l-0.11,0.11v0.11h-0.11v0.11h-0.11l-0.11,0.11h-0.11v-0.11h-0.11v-0.11
	v-0.11h-0.11V93.6l-0.11-0.11v-0.11v-0.11v-0.11l-0.11-0.11v-0.11v-0.11v-0.11v-0.11l-0.11-0.11h-0.11v0.11H28.7v0.11h-0.11h-0.11
	l-0.11,0.11l-0.11,0.11l-0.11,0.11v0.11l-0.11,0.11l-0.11,0.11l-0.11,0.11H27.7h-0.11h-0.11l-0.11,0.11h-0.11l-0.11,0.11v0.11v0.11
	v0.11h-0.11v0.11h-0.11H26.8h-0.11v0.11v0.11h-0.11h-0.11v-0.11l-0.11,0.11h-0.11h-0.11h-0.11h-0.11v-0.11v-0.11l-0.11-0.11v-0.11
	h-0.11l-0.11-0.11l-0.11-0.11V93.6v-0.11v-0.11v-0.11v-0.11l0.11-0.11v-0.11v-0.11l-0.11-0.11v-0.11v-0.11v-0.22l0.11-0.11v-0.11
	v-0.11v-0.11v-0.22v-0.11h0.11v-0.11l0.11-0.22v-0.11v-0.11h-0.11l-0.11-0.11l-0.11-0.11v-0.11v-0.11v-0.11h0.11v-0.11v-0.11h-0.11
	l0.11-0.11v-0.11V89.8v-0.22v-0.22v-0.11h-0.11v-0.11h-0.11h-0.11l-0.11,0.11h-0.11H24.9v-0.11h-0.11h-0.11h-0.11h-0.11h-0.11v0.11
	l-0.11-0.11h-0.11l-0.11-0.11l-0.11-0.22l-0.11-0.11v-0.11l0.11-0.11v-0.11v-0.11l0.11-0.11v-0.11V87.9l0.11-0.11v-0.11v-0.11v-0.11
	v-0.11l0.11-0.11v-0.11L24.34,87h0.11l0.11-0.22l0.11-0.11l0.11-0.11v-0.11h0.11l0.11-0.11h0.11h0.11v-0.11h0.11v-0.11h-0.11v-0.11
	l-0.22-0.11v-0.11H24.9v-0.11l-0.11-0.11v-0.11h-0.11v-0.11h-0.11v-0.11V85.1v-0.11h0.11v-0.11h-0.11v-0.11l-0.11-0.11v-0.11h-0.11
	v-0.11v-0.11V84.2v-0.11v-0.11h-0.11v-0.11v-0.11l-0.11-0.11h-0.11v-0.11v-0.11v-0.11l-0.11-0.11v-0.11v-0.11v-0.11l-0.11-0.11
	v-0.11h0.11v-0.11l-0.11-0.11V82.3v-0.11v-0.11v-0.11v-0.11v-0.11v-0.22v-0.11v-0.22v-0.11v-0.11v-0.22v-0.11v-0.11l-0.11-0.11
	v-0.22l-0.11-0.11v-0.11v-0.11l-0.11-0.22v-0.22l-0.11-0.11l-0.11-0.11l-0.11-0.11H23l-0.11-0.11l-0.11-0.11l-0.22-0.11l-0.11-0.11
	l-0.11-0.11l-0.22-0.11l-0.11-0.11h-0.11l-0.22-0.22l-0.11-0.11l-0.11-0.11l-0.22-0.11L21.1,77.6l-0.22-0.11h-0.11h-0.22h-0.11
	h-0.11H20.2h-0.22h-0.22h-0.11h-0.22h-0.11l-0.22,0.11h-0.11h-0.11h-0.22h-0.22H18.3h-0.22h-0.11h-0.11l-0.11,0.11h-0.22V77.6h0.11
	h-0.11v-0.11h0.11l-0.11-0.11v-0.11v-0.11h0.11v-0.11v-0.11h-0.11v-0.11v-0.11H17.4v0.11h-0.11v-0.11h0.11V76.6h-0.11l-0.11-0.11
	h-0.11h-0.11l0.11-0.11h0.11v-0.11h-0.11v-0.11v-0.11v-0.11v-0.11v0.11v-0.11V75.7v-0.11v-0.11v0.11h0.11v-0.11h0.11h0.11h0.11
	v-0.11h0.11v-0.11v-0.11h0.11h0.11v0.11v-0.11h0.11v0.11v-0.11h0.11v-0.11h0.11v-0.11h0.11v-0.11v-0.11v-0.11v-0.11l-0.11-0.11
	v-0.11h0.11v-0.11h-0.11v-0.11h0.11v-0.11h-0.11h0.11V73.8h0.11v-0.11h0.11v-0.11h0.11v0.11h0.11h0.11v-0.11v-0.11h0.11h0.11h-0.11
	v-0.11h0.11v-0.11h-0.11h0.11v-0.11h-0.11v-0.11h0.11h-0.11V72.9h0.11v-0.11h0.11v-0.11l-0.11-0.11v-0.11v-0.11v-0.11v-0.11v-0.11
	l-0.11,0.11v-0.11h-0.11V71.9h0.11h-0.11v-0.11v-0.11h-0.11h0.11h-0.11v-0.11v-0.11h-0.11h0.11v-0.11h-0.11v-0.11v-0.11h-0.11V71
	v-0.11h0.11V71l0.11-0.11v-0.11h-0.11v-0.11h0.11v-0.11h0.11v-0.11v0.11h0.11v-0.11v0.11h0.11v-0.11v-0.11v-0.11h0.11v-0.11v-0.11
	v0.11h0.11v-0.11h-0.11v-0.11h0.11v0.11v-0.11v-0.11h0.11h0.11h-0.11v-0.11h0.11v0.11v-0.11h0.11h0.11l0.11-0.11h0.11v-0.11h-0.11
	v-0.11v-0.11h0.11V69.1v-0.11v-0.11v-0.11h0.11v-0.11h-0.11v-0.11h-0.11v-0.11v-0.11V68.2v-0.11h-0.11v-0.11h0.11v-0.11h-0.11v0.11
	v-0.11l0.11-0.11v-0.11l-0.11-0.11l0.11-0.11h-0.11v-0.11h-0.11h-0.11V67.2h0.11h-0.11v-0.11h-0.11v-0.11h-0.11v0.11h-0.11v0.11
	h-0.11v-0.11h-0.11v0.11v-0.11h-0.11h0.11v-0.11h-0.11h-0.11v-0.11h-0.11v-0.11h-0.11h-0.11v-0.11H18.3v-0.11h-0.11h-0.11h0.11
	v-0.11h-0.11v0.11v-0.11h-0.11v0.11l-0.11-0.11h0.11V66.3h-0.11h-0.11h-0.11v-0.11h0.11v-0.11h0.11v-0.11h-0.11v0.11h-0.11v-0.11
	l0.11-0.11v-0.11h-0.11h-0.11v0.11H17.4v0.11h-0.11h-0.11v-0.11h-0.11h0.11v0.11h-0.11v-0.11v-0.11v-0.11h-0.11h-0.11h-0.11v0.11
	v-0.11l-0.11,0.11v-0.11v-0.11v-0.11V65.3v-0.11v-0.11v-0.11h-0.11v-0.11h0.11v-0.11h-0.11v-0.11v-0.11V64.4h0.11v-0.11h-0.11
	l-0.11-0.11v-0.11h0.11H16.4v-0.11l-0.11,0.11v-0.11h-0.11h-0.11v-0.11h0.11v-0.11h0.11v-0.11h-0.11v-0.11v-0.11h-0.11l-0.11,0.11
	h-0.11h0.11v-0.11h-0.11v-0.11h-0.11v0.11v0.11v-0.11h-0.11v0.11H15.5v-0.11h-0.11l-0.11-0.11v0.11h-0.11v-0.11h-0.11v-0.11v-0.11
	v-0.11h-0.11v0.11v-0.11h-0.11h-0.11h-0.11v-0.11l0.11-0.11h-0.11v-0.11H14.5v0.11l-0.11-0.11h0.11V62.5h-0.11v-0.11h-0.11v-0.11
	l-0.11,0.11h-0.11v0.11h-0.11l0.11-0.11h-0.11h0.11v-0.11h-0.11l-0.11-0.11v-0.11h0.11v-0.11h-0.11h0.11v-0.11h-0.11h-0.11
	l0.11-0.11V61.6h-0.11h0.11v-0.11v-0.11h-0.11H13.6v-0.11h0.11v-0.11H13.6h-0.11l0.11-0.11v-0.11h0.11v-0.11v-0.11H13.6V60.6h0.11
	H13.6v-0.11v-0.11h-0.11h0.11v-0.11h-0.11h0.11h0.11v-0.11h0.11v0.11v-0.11h0.11h0.11v-0.11h0.11v-0.11h0.11v-0.11V59.7v-0.11h0.11
	h0.11v-0.11h-0.11v-0.11h0.11v-0.11h-0.11v-0.11l0.11-0.11v-0.11v-0.11l0.11-0.11h0.11v-0.11v-0.11h0.11v-0.11h-0.11h0.11v-0.11
	h0.11v-0.11v-0.11h0.11h0.11v-0.11V57.8h0.11v-0.11v-0.11l-0.11-0.11v-0.11h0.11v-0.11h-0.11v0.11v-0.11h-0.11l0.11-0.11v-0.11h0.11
	h0.11h0.11V56.9h-0.11h0.11v-0.11h0.11v-0.11h0.11h0.11h0.11h-0.11v-0.11v-0.11h0.11h0.11v0.11v0.11h0.11v-0.11h0.11v-0.11h0.11
	h-0.11v-0.11v-0.11v-0.11h0.11h0.11v-0.11h0.11h0.11h0.11l0.11,0.11v-0.11V55.9h0.11h-0.11h-0.11v-0.11v-0.11h0.11h0.11h0.11v-0.11
	h0.11h0.11v-0.11v-0.11v-0.11v-0.11V55l-0.11-0.11h-0.11h-0.11h-0.11v-0.11v-0.11h0.11v-0.11l0.34,0.22l0.45,0.34l0.22-0.22
	l0.45-0.34v-0.22l0.56-0.22l0.34-0.34h0.34v-0.56l0.22-0.45l0.11-0.22l0.22-0.11l0.34,0.11l0.34,0.45l0.45,0.22l0.34,0.45l0.11-0.11
	l0.34-0.34l0.22-0.22l0.22-0.22h0.22H23l0.11-0.11h0.11h0.11h0.11h0.11v0.11h0.11v0.11h0.11v-0.11v-0.11h0.11v-0.11v-0.11v-0.22
	v-0.11h-0.11v-0.11h0.11v-0.11h0.11h0.11v-0.11h0.11h0.11h0.11h0.11h0.11h0.11h0.11v-0.11v-0.11v-0.11l-0.11-0.11V51.2v-0.11h0.11
	v-0.11h0.11h0.11v-0.11l0.11-0.11h-0.22h-0.34l-0.22-0.22l0.11-0.34l0.22-0.34l0.34-0.34v-0.11V49.3h0.11h0.11l0.11-0.11l0.11-0.11
	l0.11-0.11l0.11-0.11l0.11-0.11l0.11-0.11v-0.11h0.11V48.4l0.11-0.11l0.11-0.11v-0.11h0.11v-0.11l0.11-0.11v-0.11v-0.11h0.11v-0.11
	l0.11-0.11v-0.11l0.11-0.11h0.11h0.11h0.11h0.11h0.11h0.11v-0.11h0.11l0.11-0.11v-0.11h0.11v-0.11l-0.11-0.11V46.5v-0.11l-0.11-0.11
	v-0.11l-0.11-0.11l-0.11-0.11l-0.11-0.11v-0.11v-0.11v-0.11l0.11-0.11v-0.11l-0.11-0.11v-0.11h0.11v-0.11l0.11-0.11l0.11-0.11V44.6
	v-0.11v-0.11l0.11-0.11h0.11v-0.11h0.11l0.11-0.11l0.11-0.11h0.11l0.11,0.11h0.11v0.11h0.11h0.11h0.11h0.11h0.11h0.11h0.11v-0.11
	h0.11v-0.11v-0.11h-0.11V43.7h-0.11v-0.11v-0.11v-0.11h0.11l0.11-0.11l0.11-0.11v-0.11v-0.11h0.11h0.11v-0.11V42.7l0.11-0.11v-0.11
	h0.11h0.11h0.11h0.11v-0.11v-0.11v-0.11h-0.11v-0.11h-0.11v-0.11V41.8h0.11h0.11v-0.11h0.11l0.11-0.11h-0.11v-0.11v-0.11l-0.11-0.11
	v-0.11v-0.11h-0.11v-0.11h-0.11v-0.11h0.11v-0.11h0.11h0.11h0.11l0.11-0.11v-0.11h0.11h0.11v-0.11l0.11-0.11h0.11v-0.11v-0.11V39.9
	v-0.11l0.11-0.11h0.11h0.11v-0.11h0.11l0.11-0.11h0.11h0.11h0.11h0.11v-0.11v-0.11v-0.11h0.11V39v-0.11h0.11v-0.11v-0.11v-0.22
	v-0.11v-0.11v-0.11V38l0.11-0.11l-0.11-0.11h0.11v-0.11h0.11v-0.11v-0.11v-0.11v-0.11V37.1v-0.11v-0.11v-0.11v-0.11h-0.11H32.4
	l-0.11-0.11h-0.11v-0.11v-0.11v-0.11V36.1v-0.11v-0.11v-0.11v-0.11v-0.11v-0.11v-0.11V35.2v-0.11v-0.11v-0.11l-0.11-0.11v-0.11
	l0.11-0.11v-0.11v-0.11l0.11-0.11h-0.11v-0.11h0.11v-0.11v-0.11v-0.11v-0.11h0.11v-0.11v-0.11h-0.11V33.3v-0.11l-0.11-0.11v-0.11
	l-0.11-0.11v-0.11h0.11v-0.11v-0.11V32.4l-0.11-0.11v-0.11l-0.11-0.11v-0.11h-0.11v-0.11l0.11-0.11h0.11v-0.11v-0.11h0.11V31.4
	v-0.11v-0.11h0.11h0.11h0.11v-0.11l0.11-0.11l0.11-0.11h0.11h0.11h0.11v-0.11h0.11h0.11v0.11h0.11l0.11,0.11h0.11v0.11v-0.11h0.11
	h0.11h0.11h0.11h0.11l0.11-0.11h0.11h0.11v-0.11v-0.11V30.5v-0.11v-0.11v-0.11v-0.11h-0.11v-0.11H34.3v-0.11h0.11v-0.11H34.3v-0.11
	v-0.11v-0.11l0.11-0.11v-0.11v-0.11h0.11v-0.11h0.11l0.11-0.11l0.11-0.11h0.11V28.6h0.11v-0.11h0.11v-0.11h0.11l0.11-0.11v-0.11
	h0.11v-0.11v-0.11v-0.11V27.7v-0.11v-0.11v-0.11v-0.11v-0.11v-0.11l0.11-0.11v-0.11h0.11h0.11V26.7v-0.11h0.11v-0.11h0.11h0.11h0.11
	v-0.11h0.11v-0.11h0.11h0.11h0.11v-0.11v-0.11h0.11h0.11h0.11v-0.11h0.11h0.11V25.8h0.11h0.11h0.11h0.11h0.11h0.11h0.11h0.11v0.11
	v0.11h0.11v0.11h0.11v0.11h-0.11v-0.11h-0.11v0.11v0.11v0.11h0.11l0.11,0.11l0.11,0.11l0.11,0.11h0.11h0.11H39h0.11l0.11-0.11h0.11
	v-0.11h0.11v-0.11l0.11,0.11h0.11v-0.11v-0.11h-0.11v-0.11v-0.11h-0.11l-0.11,0.11v-0.11h0.11l0.11-0.11h0.11v-0.11h0.11V25.8h0.11
	H40h0.11l0.11-0.11v0.11v0.11v0.11v0.11h0.11h0.11h0.11v-0.11h0.11h0.11h0.11h0.11h0.11h0.11l0.11-0.11V25.8h0.11l0.11,0.11
	l0.11-0.11v-0.11h0.11v0.11h0.11h0.11l0.11-0.11v-0.11h0.11h0.11h0.11h0.11h0.11h0.11h0.11l0.11-0.11h0.11v-0.11h0.11h0.11v-0.11
	v-0.11v-0.11h0.11v-0.11V24.8v-0.11v-0.11l-0.11-0.22v-0.11l-0.11-0.11l-0.11-0.11V23.9h-0.11v-0.11h-0.11v-0.11l0.11-0.11h0.11
	v-0.11v-0.11l0.11-0.11v-0.11v-0.22v-0.11v-0.11h0.11h0.11l0.11,0.11h0.11h0.11h0.11v0.11h0.11h0.11v0.11h0.11h0.11h0.11v-0.11
	l0.11-0.11l0.11-0.11v-0.11h0.11h0.11h0.11h0.11v-0.11h0.11v-0.11v-0.11v-0.11V22v-0.11v-0.11h0.11h0.11v-0.11l0.11-0.11l0.11-0.11
	v-0.11v-0.11V21.1H45.6v-0.11l0.11-0.11v-0.11H45.6l0.11-0.11h0.11v-0.11v-0.11v-0.11h-0.11v-0.11h0.11h0.11V20.1h0.11v-0.11h0.11
	v-0.11h0.11v-0.11v-0.11v-0.11h0.11l0.11-0.11v-0.11V19.2h-0.11v-0.11v-0.11v-0.11v-0.11h-0.11v-0.11h-0.11h0.11v-0.11l0.11-0.11
	l0.11-0.11v-0.11v-0.11v-0.11v-0.11v-0.11l-0.11-0.11v-0.11v-0.11h-0.11V17.3l0.11-0.11v-0.11h0.11v-0.11h0.11v0.11h0.11h0.11
	l0.11,0.11l0.11-0.11h0.11l0.11,0.11l0.11,0.11v0.11v0.11v0.11h0.11l0.11,0.11h0.11l0.11,0.11h0.11h0.11h0.11h0.11l0.11-0.11h0.11
	l0.11-0.11h0.11l0.11-0.11l0.22-0.11l0.11-0.11v-0.11v-0.11v-0.11v-0.11v-0.11v-0.11h-0.11v-0.34l-0.11-0.11v-0.11v-0.11l0.11-0.11
	v-0.11v-0.11v-0.11V15.4l0.11-0.11v-0.11v-0.11v-0.11v-0.11v-0.11v-0.11v-0.22v-0.22v-0.11l-0.11-0.11v-0.11l-0.11-0.11l-0.11-0.11
	h-0.11V13.5v-0.11l-0.11-0.11l-0.11-0.11l-0.11-0.11l-0.11-0.11h-0.11l-0.11,0.11h-0.11h-0.11h-0.11h-0.11v0.11H47.5h-0.11
	l-0.11-0.11h-0.11l-0.11-0.11l-0.11-0.11l-0.11-0.11h-0.11h-0.11V12.6v-0.11l-0.11-0.11v-0.11l0.11-0.11v-0.22v-0.11h-0.11v-0.11
	v-0.11v-0.11h-0.11h-0.11h-0.11l-0.11-0.11h-0.11h-0.11l-0.11-0.11H45.6v-0.11h-0.11h-0.11l-0.11-0.11v-0.11v-0.11V10.7l0.11-0.11
	h0.11h0.11h0.11v-0.11l0.11-0.11v-0.11h0.11v-0.11h0.11v-0.11V9.92h0.11V9.8V9.69V9.58V9.47l0.11-0.11V9.24V9.13h0.11V9.02V8.91V8.8
	V8.68l-0.11-0.11V8.46V8.35V8.24h-0.11V8.13V8.01h0.11V7.9h0.11l0.11-0.11h0.11h0.11V7.68V7.57h-0.11V7.45V7.34h0.11V7.23V7.12V7.01
	h0.11l0.11-0.11l0.11-0.11V6.67V6.56V6.45h-0.11V6.34V6.22V6V5.89l-0.11-0.11V5.66V5.55V5.44l0.11-0.11V5.22L46.83,5.1V4.99V4.88
	V4.77V4.66V4.55V4.43l-0.11-0.11V4.21V4.1l0.11-0.11V3.87l-0.11-0.11V3.65V3.54V3.31V3.2l0.11-0.11V2.98V2.87V2.76V2.64h-0.11V2.53
	l-0.11-0.11l0.11-0.11V2.2V2.08V1.97h0.11l0.11-0.11V1.75l0.11-0.11l0.11-0.11l0.11-0.11h0.11h0.11h0.11V1.3V1.19V0.97l0.11-0.11
	V0.74V0.63V0.52l0.11-0.11V0.29h0.11V0.18h0.11V0.07h0.11h0.11v0.11l0.11,0.11v0.11h0.11v0.11H48.4V0.63L48.4,0.63z M48.28-0.15
	h-0.11h-0.11h-0.11v0.11h0.11h0.11h0.11v0.11h0.11v0.11h0.11V0.07h0.11v0.11h0.11V0.07h0.11h0.11v-0.11h-0.11h-0.11v-0.11h-0.11
	h-0.11H48.4H48.28z"/>
</svg>
