<?xml version="1.0" encoding="utf-8"?>
<!-- Generator: Adobe Illustrator 24.2.1, SVG Export Plug-In . SVG Version: 6.00 Build 0)  -->
<svg version="1.1" id="Layer_1" xmlns="http://www.w3.org/2000/svg" xmlns:xlink="http://www.w3.org/1999/xlink" x="0px" y="0px"
	 viewBox="0 0 97.23 97.23" style="enable-background:new 0 0 97.23 97.23;" xml:space="preserve">
<style type="text/css">
	.st0{fill-rule:evenodd;clip-rule:evenodd;fill:#1D1D1B;}
</style>
<polygon class="st0" points="48.04,6.12 48.04,6.3 48.04,6.48 48.23,6.48 48.41,6.67 48.41,6.85 48.78,7.41 48.96,7.59 48.96,7.78 
	49.15,7.78 49.15,7.96 49.33,8.14 49.52,8.33 49.52,8.51 49.7,8.51 49.7,8.7 49.7,8.88 49.89,8.88 49.89,9.07 50.07,9.07 
	50.07,9.25 50.07,9.44 50.25,9.44 50.25,9.62 50.44,9.8 50.44,9.99 50.62,9.99 50.62,10.17 50.81,10.36 50.81,10.54 50.99,10.54 
	50.99,10.73 51.18,10.73 51.18,10.91 51.18,11.1 51.36,11.1 51.36,11.28 51.73,11.65 51.91,11.83 51.91,12.02 52.1,12.02 52.1,12.2 
	52.28,12.39 52.28,12.57 52.47,12.57 52.47,12.75 52.65,12.94 52.84,13.12 52.84,13.31 53.21,13.68 53.21,13.86 53.39,13.86 
	53.57,14.05 53.57,14.23 53.76,14.41 53.94,14.6 53.94,14.78 54.13,14.78 54.5,15.34 54.5,15.52 54.68,15.52 54.68,15.71 
	54.87,15.71 54.87,15.89 54.87,16.07 55.05,16.07 55.05,16.26 55.23,16.26 55.23,16.44 55.42,16.44 55.42,16.63 55.6,16.81 55.6,17 
	55.79,17 55.79,17.18 55.97,17.18 55.97,17.37 56.16,17.37 56.16,17.55 56.34,17.55 56.34,17.73 56.34,17.92 56.53,17.92 
	56.53,18.1 56.71,18.1 56.71,18.29 56.89,18.29 56.89,18.47 57.08,18.47 57.08,18.66 57.26,18.66 57.26,18.84 57.45,18.84 
	57.45,19.03 57.63,19.03 57.63,19.21 57.82,19.21 57.82,19.39 58,19.39 58,19.58 58.18,19.58 58.37,19.76 58.55,19.76 58.55,19.95 
	58.74,19.95 58.92,20.13 59.11,20.13 59.11,20.32 59.29,20.32 59.29,20.5 59.48,20.5 59.48,20.32 59.66,20.32 59.66,20.5 
	59.84,20.5 59.84,20.68 60.03,20.68 60.21,20.87 60.4,21.05 60.58,21.05 60.58,21.24 60.77,21.24 60.95,21.42 61.14,21.42 
	61.14,21.61 61.32,21.61 61.32,21.79 61.5,21.79 61.69,21.79 61.87,21.98 62.06,21.98 62.06,22.16 62.24,22.16 62.43,22.16 
	62.43,21.98 62.61,21.98 62.8,21.98 62.98,21.98 62.98,22.16 63.16,22.16 63.35,22.16 63.35,21.98 63.35,22.16 63.53,22.16 
	63.53,22.34 63.72,22.34 63.9,22.34 64.09,22.34 64.09,22.53 64.27,22.53 64.27,22.71 64.45,22.71 64.45,22.9 64.64,22.9 
	64.64,23.08 64.82,23.27 65.01,23.45 65.01,23.64 65.19,23.64 65.19,23.82 65.38,23.82 65.38,24 65.56,24 65.56,24.19 65.75,24.19 
	65.75,24.37 65.93,24.56 66.11,24.74 66.3,24.93 66.3,25.11 66.48,25.11 66.48,25.29 66.67,25.29 66.67,25.48 66.85,25.66 
	67.04,25.85 67.04,26.03 67.22,26.03 67.22,26.22 67.41,26.4 67.59,26.4 67.59,26.59 67.77,26.59 67.77,26.77 67.96,26.77 
	67.96,26.95 68.14,26.95 68.14,27.14 68.33,27.32 68.51,27.32 68.51,27.51 68.88,27.88 68.88,28.06 69.07,28.06 69.25,28.25 
	69.25,28.43 69.43,28.43 69.43,28.61 69.62,28.61 69.62,28.8 69.8,28.8 69.99,28.98 69.99,29.17 70.17,29.17 70.17,29.35 
	70.36,29.35 70.36,29.54 70.54,29.54 70.54,29.72 70.73,29.72 70.73,29.91 70.91,29.91 70.91,30.09 71.09,30.09 71.09,30.27 
	71.28,30.27 71.28,30.46 71.46,30.46 71.46,30.64 71.65,30.64 71.65,30.83 71.83,30.83 71.83,31.01 72.02,31.01 72.02,31.2 
	72.2,31.2 72.38,31.38 72.57,31.38 72.57,31.56 72.75,31.56 72.75,31.75 72.94,31.93 73.12,31.93 73.12,32.12 73.31,32.12 
	73.31,32.3 73.49,32.3 73.68,32.3 73.68,32.49 73.86,32.49 73.86,32.67 74.04,32.67 74.23,32.86 74.41,33.04 74.6,33.04 74.6,33.22 
	74.78,33.22 74.78,33.41 74.97,33.41 74.97,33.59 75.15,33.59 75.34,33.78 75.52,33.78 75.52,33.96 75.7,33.96 75.7,34.15 
	75.89,34.15 76.07,34.15 76.07,34.33 76.26,34.33 76.26,34.52 76.44,34.52 76.63,34.7 76.81,34.7 76.81,34.88 77,34.88 77.18,34.88 
	77.18,35.07 77.36,35.07 77.36,35.25 77.55,35.25 77.73,35.44 77.92,35.44 77.92,35.62 78.1,35.62 78.29,35.81 78.47,35.81 
	78.47,35.99 78.65,35.99 78.65,36.17 78.84,36.17 79.02,36.17 79.39,36.36 79.76,36.73 79.95,36.73 80.13,36.91 80.31,36.91 
	80.31,37.1 80.5,37.1 80.68,37.28 80.87,37.28 81.05,37.47 81.05,37.65 81.24,37.65 81.42,37.65 81.42,37.83 81.61,37.83 
	81.79,38.02 81.97,38.02 81.97,38.2 82.16,38.2 82.16,38.39 82.34,38.39 82.53,38.39 82.53,38.57 82.71,38.57 82.9,38.57 
	82.9,38.76 83.08,38.94 83.27,38.94 83.45,39.13 83.63,39.31 83.82,39.31 83.82,39.49 84,39.49 84.19,39.49 84.19,39.68 
	84.37,39.68 84.74,39.86 84.74,40.05 84.92,40.05 84.92,40.23 85.11,40.23 85.29,40.42 85.48,40.42 85.66,40.6 85.85,40.6 
	85.85,40.79 86.03,40.79 86.03,40.97 86.22,40.97 86.22,41.15 86.4,41.15 86.59,41.15 86.59,41.34 86.77,41.34 86.77,41.52 
	86.95,41.52 86.95,41.71 87.14,41.71 87.32,41.89 87.32,42.08 87.51,42.08 87.32,42.08 87.32,42.26 87.51,42.26 87.51,42.44 
	87.51,42.63 87.51,42.81 87.32,43 87.14,43.18 86.77,43.37 86.59,43.55 86.4,43.55 86.4,43.74 86.4,43.92 86.4,44.1 86.59,44.1 
	86.59,44.29 86.4,44.29 86.4,44.47 86.4,44.66 86.4,44.84 86.4,45.03 86.4,45.21 86.22,45.21 86.22,45.4 86.4,45.58 86.4,45.76 
	86.4,45.95 86.4,46.13 86.4,46.32 86.22,46.5 86.22,46.69 86.22,46.87 86.22,47.06 86.22,47.24 86.22,47.42 86.03,47.42 
	86.22,47.42 86.22,47.61 86.22,47.79 86.4,47.79 86.4,47.98 86.4,48.16 86.4,48.35 86.4,48.53 86.4,48.72 86.4,48.9 86.4,49.08 
	86.22,49.27 86.22,49.45 86.22,49.64 86.4,49.64 86.59,49.64 86.59,49.45 86.77,49.64 86.77,49.82 86.77,50.01 86.95,50.01 
	86.95,50.19 86.95,50.37 86.77,50.56 86.95,50.74 86.95,50.93 87.14,50.93 87.32,50.93 87.32,50.74 87.32,50.93 87.51,50.93 
	87.51,51.11 87.51,51.3 87.69,51.3 87.69,51.48 87.51,51.48 87.51,51.67 87.51,51.85 87.69,51.85 87.88,51.85 87.88,52.03 
	87.88,52.22 87.69,52.4 87.51,52.4 87.51,52.59 87.51,52.77 87.32,52.77 87.14,52.77 87.32,52.96 87.51,52.96 87.51,53.14 
	87.32,53.14 87.32,52.96 87.14,52.96 87.14,53.14 87.14,53.33 86.95,53.33 86.95,53.14 86.77,53.14 86.77,53.33 86.77,53.51 
	86.59,53.51 86.59,53.69 86.59,53.88 86.77,54.06 86.59,54.06 86.4,54.06 86.4,54.25 86.22,54.25 86.22,54.43 86.4,54.43 
	86.4,54.62 86.22,54.62 86.4,54.62 86.4,54.8 86.22,54.8 86.22,54.98 86.03,54.98 86.03,54.8 86.03,54.98 85.85,54.98 85.85,55.17 
	86.03,55.17 86.03,55.35 85.85,55.35 85.85,55.17 85.66,55.17 85.66,55.35 85.85,55.35 85.85,55.54 85.66,55.54 85.48,55.54 
	85.48,55.72 85.66,55.91 85.48,55.91 85.48,56.09 85.29,56.09 85.48,56.09 85.48,56.28 85.29,56.28 85.11,56.28 85.11,56.09 
	85.11,56.28 84.92,56.28 84.92,56.46 84.74,56.46 84.74,56.64 84.56,56.64 84.37,56.83 84.37,57.01 84.37,57.2 84.37,57.38 
	84.37,57.57 84.19,57.57 84.19,57.38 84.19,57.57 84.19,57.75 84.37,57.75 84.37,57.94 84.37,58.12 84.19,58.12 84,58.12 84,58.3 
	84,58.49 84,58.67 84,58.86 83.82,58.86 83.82,59.04 83.63,59.04 83.63,59.23 83.63,59.41 83.45,59.41 83.27,59.41 83.08,59.41 
	83.08,59.6 82.9,59.6 82.9,59.78 82.71,59.78 82.53,59.78 82.53,59.96 82.34,59.96 82.16,60.15 81.97,60.15 81.79,60.15 
	81.61,60.33 81.42,60.52 81.42,60.33 81.24,60.33 81.24,60.52 81.05,60.7 81.05,60.89 80.87,60.89 80.68,60.89 80.68,61.07 
	80.5,61.25 80.31,61.25 80.13,61.44 80.13,61.62 80.13,61.81 80.13,61.99 79.95,61.99 79.95,62.18 79.95,62.36 79.76,62.36 
	79.58,62.18 79.39,62.18 79.39,62.36 79.21,62.36 79.02,62.55 78.84,62.55 78.65,62.55 78.47,62.55 78.29,62.55 78.1,62.55 
	78.1,62.73 78.29,62.73 78.29,62.91 78.29,63.1 78.29,63.28 78.1,63.28 77.92,63.28 77.92,63.47 77.92,63.65 77.73,63.65 
	77.55,63.65 77.36,63.65 77.18,63.65 77,63.65 76.81,63.65 76.81,63.84 76.63,63.84 76.63,64.02 76.44,64.02 76.44,64.21 
	76.26,64.21 76.26,64.39 76.07,64.39 76.07,64.57 76.07,64.76 75.89,64.94 75.7,64.94 75.52,64.76 75.52,64.57 75.34,64.57 
	75.34,64.76 75.52,64.94 75.34,65.13 75.34,65.31 75.15,65.5 75.15,65.68 74.97,65.68 74.97,65.86 74.78,65.86 74.6,66.05 
	74.78,66.05 74.78,66.23 74.78,66.42 74.78,66.6 74.78,66.79 74.78,66.97 74.97,66.97 74.97,67.16 74.78,67.16 74.78,67.34 
	74.78,67.52 74.6,67.52 74.41,67.52 74.41,67.71 74.23,67.89 74.04,67.89 74.04,68.08 74.04,68.26 73.86,68.26 73.86,68.45 
	73.68,68.45 73.68,68.26 73.49,68.26 73.49,68.45 73.49,68.63 73.31,68.63 73.12,68.63 73.12,68.45 72.94,68.45 72.94,68.63 
	72.94,68.82 73.12,68.82 72.94,68.82 72.94,69 72.75,69 72.75,69.18 72.75,69.37 72.57,69.37 72.57,69.18 72.57,69 72.38,69 
	72.2,69 72.2,69.18 72.38,69.18 72.38,69.37 72.38,69.55 72.38,69.74 72.2,69.74 72.2,69.55 72.2,69.37 72.02,69.37 72.02,69.55 
	72.02,69.74 71.83,69.74 71.83,69.92 71.65,69.92 71.65,70.11 71.83,70.11 71.83,70.29 71.83,70.48 72.02,70.48 72.02,70.29 
	72.02,70.48 72.02,70.66 71.83,70.66 71.65,70.66 71.65,70.84 71.46,70.84 71.46,71.03 71.46,71.21 71.46,71.4 71.46,71.58 
	71.65,71.58 71.65,71.77 71.65,71.95 71.65,72.14 71.65,72.32 71.65,72.5 71.83,72.5 71.83,72.69 71.83,72.87 71.83,73.06 
	71.65,73.06 71.46,73.06 71.46,73.24 71.46,73.43 71.28,73.43 71.09,73.61 70.91,73.61 70.91,73.43 70.73,73.43 70.54,73.43 
	70.36,73.43 70.36,73.61 70.17,73.61 70.36,73.61 70.36,73.79 70.17,73.79 70.17,73.98 70.36,73.98 70.54,73.79 70.54,73.98 
	70.36,73.98 70.36,74.16 70.54,74.35 70.36,74.35 70.36,74.53 70.17,74.53 70.17,74.72 70.36,74.72 70.54,74.9 70.36,74.9 
	70.36,75.09 70.36,75.27 70.36,75.45 70.36,75.64 70.17,75.64 70.17,75.82 70.17,76.01 70.17,76.19 69.99,76.19 69.8,76.19 
	69.62,76.19 69.62,76.38 69.8,76.38 69.8,76.56 69.62,76.56 69.62,76.75 69.43,76.75 69.43,76.93 69.43,77.11 69.43,77.3 
	69.43,77.48 69.43,77.67 69.62,77.67 69.8,77.67 69.8,77.85 69.99,77.85 69.99,77.67 70.17,77.67 70.36,77.67 70.36,77.85 
	70.36,78.04 70.36,78.22 70.54,78.22 70.54,78.04 70.73,78.04 70.73,78.22 70.73,78.4 70.91,78.59 70.73,78.59 70.73,78.77 
	70.91,78.77 70.91,78.96 70.91,79.14 71.09,79.33 71.28,79.51 71.28,79.7 71.28,79.88 71.09,79.88 71.09,80.06 71.28,80.06 
	71.28,79.88 71.46,79.88 71.46,80.06 71.46,80.25 71.65,80.43 71.46,80.62 71.46,80.8 71.46,80.99 71.46,81.17 71.65,81.17 
	71.65,81.36 71.83,81.36 71.83,81.54 71.83,81.72 71.83,81.91 71.65,81.91 71.65,82.09 71.65,82.28 71.46,82.46 71.28,82.65 
	71.28,82.83 71.09,82.83 71.09,82.65 70.91,82.83 70.73,82.83 70.54,82.83 70.54,83.02 70.36,83.02 70.36,83.2 70.17,83.2 
	70.17,83.38 70.17,83.57 70.17,83.75 70.17,83.57 70.36,83.57 70.36,83.75 70.36,83.94 70.17,83.94 69.99,84.12 69.8,84.12 
	69.8,84.31 69.62,84.31 69.43,84.49 69.43,84.67 69.25,84.67 69.07,84.67 69.07,84.86 68.88,84.86 68.88,85.04 68.7,85.04 
	68.51,85.04 68.33,85.04 68.14,85.04 67.96,85.04 67.77,85.04 67.59,85.04 67.41,85.04 67.22,84.86 67.04,84.86 66.85,84.86 
	66.85,84.67 66.67,84.67 66.67,84.86 66.48,85.04 66.48,85.23 66.3,85.23 66.3,85.41 66.11,85.41 65.93,85.41 65.75,85.41 
	65.56,85.41 65.38,85.6 65.56,85.6 65.56,85.78 65.38,85.97 65.19,85.97 65.19,86.15 65.01,86.15 65.01,86.33 64.82,86.7 
	64.82,86.89 64.82,87.07 64.82,87.26 64.82,87.44 64.82,87.63 65.01,87.63 65.01,87.81 65.01,87.99 65.01,88.18 65.19,88.36 
	65.01,88.55 65.01,88.36 65.01,88.55 64.82,88.55 64.64,88.55 64.64,88.73 64.64,88.92 64.64,89.1 64.45,89.1 64.27,89.1 
	64.09,89.1 63.9,89.1 63.72,89.29 63.53,89.29 63.53,89.1 63.53,89.29 63.35,89.29 63.16,89.29 62.98,89.47 62.98,89.65 
	63.16,89.65 63.35,89.84 63.35,90.02 63.35,90.21 63.53,90.21 63.72,90.39 63.72,90.58 63.53,90.58 63.35,90.58 63.16,90.58 
	62.98,90.58 62.8,90.39 62.61,90.39 62.61,90.21 62.43,90.21 62.43,90.39 62.43,90.58 62.06,90.58 61.87,90.58 61.69,90.58 
	61.5,90.58 61.32,90.58 61.14,90.76 61.14,90.58 60.95,90.58 60.77,90.58 60.95,90.58 60.77,90.58 60.58,90.58 60.58,90.76 
	60.4,90.76 60.21,90.94 60.21,91.13 60.21,91.31 60.21,91.5 60.03,91.5 60.03,91.68 59.84,91.87 59.84,92.05 59.66,92.24 
	59.48,92.42 59.48,92.6 59.29,92.79 59.29,92.97 59.29,93.16 59.11,93.16 59.11,93.34 59.11,93.53 58.92,93.53 58.92,93.71 
	58.92,93.9 58.74,94.08 58.55,94.08 58.55,94.26 58.55,94.45 58.74,94.63 58.92,94.63 59.11,94.63 59.11,94.82 59.29,95 
	59.29,95.19 59.29,95.37 59.48,95.56 59.48,95.74 59.48,95.92 59.48,96.11 59.48,96.29 59.48,96.48 59.48,96.66 59.29,96.66 
	59.11,96.85 58.92,96.85 58.74,96.66 58.55,96.66 58.37,96.85 58.18,96.85 58.18,96.66 58.18,96.48 58,96.29 57.82,96.29 
	57.82,96.11 57.63,95.92 57.63,95.74 57.45,95.74 57.26,95.56 57.08,95.56 56.89,95.56 56.71,95.37 56.53,95.37 56.53,95.19 
	56.53,95 56.34,94.82 55.97,94.82 55.6,94.82 55.42,94.63 55.42,94.45 55.23,94.45 55.05,94.26 54.87,94.08 54.68,93.9 54.5,93.9 
	54.5,93.71 54.31,93.53 54.13,93.34 54.13,93.16 53.94,92.97 53.76,92.97 53.76,92.79 53.76,92.6 53.76,92.42 53.76,92.24 
	53.76,92.05 53.76,91.87 53.94,91.68 53.94,91.5 53.94,91.31 53.76,91.31 53.76,91.13 53.57,91.13 53.39,91.13 53.39,90.94 
	53.21,90.94 53.21,90.76 53.02,90.76 52.84,90.76 52.65,90.58 52.47,90.39 52.28,90.21 52.1,90.02 51.91,90.02 51.73,90.02 
	51.55,90.02 51.36,90.02 51.18,90.02 51.18,90.21 50.99,90.21 50.99,90.39 50.81,90.39 50.81,90.21 50.62,90.21 50.44,90.21 
	50.44,90.39 50.44,90.58 50.44,90.76 50.25,90.94 50.25,91.13 50.07,91.13 50.07,91.31 50.07,91.5 49.89,91.5 49.7,91.5 49.52,91.5 
	49.52,91.31 49.33,91.31 49.15,91.31 48.96,91.31 48.78,91.31 48.6,91.31 48.41,91.31 48.41,91.5 48.41,91.68 48.23,91.68 
	48.04,91.87 48.04,91.68 48.04,91.5 48.04,91.31 47.86,91.31 47.86,91.13 47.86,90.94 47.67,90.94 47.49,90.94 47.49,91.13 
	47.49,91.5 47.49,91.68 47.67,91.68 47.49,91.87 47.49,92.05 47.49,92.24 47.49,92.42 47.49,92.6 47.49,92.79 47.49,92.97 
	47.3,92.97 47.3,93.16 47.3,93.34 47.3,93.53 47.12,93.71 46.94,93.71 46.75,93.71 46.75,93.9 46.57,94.08 46.57,94.26 46.57,94.45 
	46.38,94.45 46.2,94.63 46.01,94.63 45.83,94.82 45.64,94.82 45.46,94.82 45.46,94.63 45.28,94.63 45.09,94.63 44.91,94.45 
	44.72,94.45 44.72,94.26 44.72,94.08 44.72,93.9 44.54,93.9 44.54,93.71 44.54,93.53 44.35,93.53 44.54,93.34 44.54,93.16 
	44.72,92.97 44.72,92.79 44.72,92.6 44.54,92.42 44.54,92.24 44.54,91.87 44.35,91.68 44.17,91.5 43.99,91.5 43.8,91.5 43.8,91.68 
	43.62,91.68 43.43,91.68 43.25,91.5 43.06,91.5 43.06,91.31 42.88,91.31 42.88,91.13 42.69,91.13 42.69,90.94 42.51,90.94 
	42.51,90.76 42.33,90.76 42.33,90.58 42.51,90.58 42.51,90.39 42.51,90.21 42.33,90.02 42.14,89.84 41.96,89.65 41.96,89.47 
	41.96,89.29 42.14,89.1 42.14,88.92 42.14,88.73 41.96,88.55 41.96,88.36 41.96,88.18 41.59,87.99 41.59,88.18 41.4,88.36 
	41.22,88.36 41.22,88.18 41.22,87.99 41.03,87.81 41.03,87.63 41.22,87.44 41.03,87.26 41.03,87.07 41.22,87.07 41.22,86.89 
	41.22,86.7 41.22,86.52 41.22,86.33 41.22,86.15 41.22,85.97 41.22,85.78 41.03,85.78 41.03,85.6 41.03,85.41 41.22,85.41 
	41.22,85.23 41.4,85.23 41.4,85.04 41.4,84.86 41.4,84.67 41.59,84.49 41.4,84.49 41.4,84.31 41.4,84.12 41.22,83.94 41.03,83.94 
	41.03,83.75 41.03,83.57 40.85,83.57 40.85,83.38 41.03,83.38 41.03,83.2 41.22,83.2 41.22,83.02 41.22,82.83 41.4,82.83 
	41.4,82.65 41.59,82.65 41.59,82.46 41.59,82.28 41.4,82.28 41.4,82.09 41.22,82.09 41.22,81.91 41.22,81.72 41.22,81.54 
	41.03,81.54 40.85,81.54 40.85,81.36 40.67,81.36 40.48,81.54 40.3,81.54 40.11,81.54 39.93,81.72 39.74,81.72 39.56,81.91 
	39.56,82.09 39.38,82.09 39.19,82.09 39.01,82.09 38.82,82.09 38.82,81.91 38.64,81.91 38.64,81.72 38.45,81.72 38.27,81.54 
	38.08,81.54 37.9,81.54 37.72,81.54 37.35,81.36 37.35,81.17 37.35,80.99 37.35,80.8 37.35,80.62 37.16,80.43 37.35,80.25 
	37.35,80.06 37.35,79.88 37.35,79.7 37.35,79.51 37.35,79.33 37.16,79.33 36.98,79.33 36.79,79.33 36.79,79.14 36.61,78.96 
	36.42,78.77 36.42,78.59 36.42,78.4 36.42,78.22 36.61,78.22 36.61,78.04 36.42,78.04 36.42,77.85 36.61,77.85 36.42,77.67 
	36.24,77.67 36.06,77.48 35.87,77.48 35.87,77.3 35.69,77.3 35.69,77.48 35.5,77.48 35.32,77.48 35.13,77.48 34.95,77.48 
	34.95,77.67 34.76,77.67 34.58,77.67 34.58,77.48 34.4,77.48 34.21,77.3 34.21,77.11 34.03,77.11 33.84,77.11 33.84,76.93 
	33.66,76.93 33.66,76.75 33.66,76.56 33.66,76.38 33.66,76.19 33.47,76.01 33.66,76.01 33.66,75.82 33.47,75.82 33.47,75.64 
	33.29,75.45 33.1,75.45 32.92,75.45 32.92,75.27 32.74,75.27 32.74,75.45 32.55,75.45 32.37,75.64 32.18,75.64 32.18,75.82 
	32.18,76.01 32,76.19 31.81,76.38 31.63,76.38 31.45,76.38 31.26,76.56 31.08,76.56 31.08,76.75 31.08,76.56 30.89,76.75 
	30.71,76.75 30.52,76.93 30.34,76.93 30.15,76.93 29.97,76.75 29.79,76.75 29.6,76.75 29.42,76.93 29.23,76.93 29.05,76.93 
	28.86,76.93 28.68,76.93 28.49,76.93 28.31,76.93 28.31,77.11 28.13,77.11 28.13,77.3 27.94,77.48 27.76,77.3 27.76,77.48 
	27.57,77.48 27.39,77.67 27.2,77.67 27.2,77.85 27.02,77.85 27.02,78.04 26.83,78.04 26.83,78.22 26.83,78.4 26.83,78.59 
	26.83,78.77 26.83,78.96 26.65,78.96 26.65,79.14 26.47,79.14 26.47,78.96 26.28,78.96 26.1,78.96 25.91,78.96 25.91,78.77 
	25.73,78.59 25.54,78.59 25.54,78.77 25.54,78.96 25.36,79.14 25.18,79.14 24.99,79.33 24.99,79.51 24.99,79.7 24.81,79.7 
	24.81,79.88 24.62,79.88 24.62,80.06 24.44,80.06 24.25,80.06 24.25,79.88 24.07,79.51 24.07,79.33 24.07,79.14 24.07,78.96 
	23.88,78.96 23.7,79.14 23.52,79.14 23.33,79.14 23.15,79.14 22.96,78.96 23.15,78.77 23.15,78.59 23.33,78.4 23.33,78.22 
	23.33,78.04 23.15,77.85 23.15,77.67 23.15,77.48 23.15,77.11 23.15,76.75 23.33,76.75 23.33,76.56 23.33,76.38 23.15,76.38 
	23.15,76.19 23.15,76.01 23.15,75.82 23.15,75.64 23.15,75.45 23.15,75.27 23.15,75.09 22.96,75.09 23.15,74.9 23.33,74.9 
	23.33,74.72 23.33,74.53 23.52,74.53 23.7,74.35 23.7,73.98 23.88,73.79 23.7,73.79 23.7,73.61 23.7,73.43 23.7,73.61 23.52,73.61 
	23.33,73.79 23.15,73.61 23.15,73.43 23.15,73.24 23.15,73.06 22.96,73.06 22.78,73.06 22.59,73.06 22.59,72.87 22.41,72.5 
	22.41,72.32 22.59,72.14 22.59,71.95 22.59,71.77 22.59,71.58 22.41,71.58 22.41,71.4 22.22,71.21 22.41,71.03 22.41,70.84 
	22.41,70.66 22.22,70.66 22.04,70.84 21.86,70.84 21.67,70.66 21.67,70.48 21.49,70.29 21.49,70.11 21.49,69.92 21.49,69.74 
	21.49,69.55 21.49,69.37 21.3,69.37 21.3,69.55 21.12,69.55 21.12,69.37 21.3,69.37 21.3,69.18 21.3,69 21.49,69 21.49,68.82 
	21.67,68.82 21.67,68.63 21.67,68.45 21.67,68.26 21.67,68.08 21.67,67.89 21.67,67.71 21.67,67.52 21.67,67.34 21.86,67.34 
	21.86,67.16 22.04,67.16 22.22,66.97 22.22,66.79 22.04,66.79 22.04,66.6 22.04,66.42 21.86,66.42 21.86,66.23 21.67,66.23 
	21.67,66.05 21.67,65.86 21.67,65.68 21.67,65.5 21.67,65.31 21.86,65.13 21.86,64.94 21.67,64.76 21.67,64.57 21.67,64.39 
	21.49,64.39 21.49,64.21 21.3,64.21 21.3,64.02 21.49,63.84 21.67,63.84 21.67,63.65 21.67,63.47 21.67,63.28 21.67,62.73 
	21.67,62.55 21.67,62.36 21.49,62.18 21.49,61.99 21.49,61.81 21.49,61.62 21.49,61.25 21.49,61.07 21.3,61.07 21.12,60.89 
	21.12,60.7 20.93,60.52 20.93,60.33 20.75,60.15 20.75,59.96 20.75,59.78 20.56,59.78 20.38,59.6 20.38,59.78 20.2,59.78 
	20.01,59.96 19.83,59.96 19.64,59.96 19.46,59.96 19.27,59.96 19.09,59.78 18.9,59.78 18.72,59.78 18.72,59.6 18.54,59.6 
	18.35,59.6 18.35,59.41 18.17,59.23 18.17,59.04 17.98,58.86 17.8,58.67 17.61,58.49 17.61,58.3 17.43,58.3 17.43,58.12 
	17.25,57.94 17.25,57.75 17.25,57.57 17.43,57.38 17.43,57.2 17.43,57.01 17.61,56.46 17.61,56.28 17.61,56.09 17.43,56.09 
	17.25,56.09 17.25,55.91 17.06,55.72 17.25,55.72 17.25,55.35 17.25,55.17 17.25,54.98 17.25,54.8 17.06,54.8 17.06,54.62 
	17.06,54.43 16.88,54.43 16.69,54.43 16.69,54.62 16.69,54.43 16.51,54.43 16.32,54.06 16.32,53.88 16.32,53.69 16.32,53.51 
	16.32,53.33 16.14,53.33 16.14,53.14 16.14,52.96 15.95,52.77 15.77,52.77 15.4,52.77 15.22,52.77 15.22,52.96 15.03,52.96 
	14.85,52.96 14.85,52.77 14.66,52.4 14.48,52.4 14.48,52.22 14.48,52.03 14.48,51.85 14.48,51.67 14.48,51.48 14.48,51.3 
	14.48,51.48 14.29,51.48 14.11,51.48 13.93,51.48 13.74,51.48 13.74,51.3 13.56,51.3 13.37,51.3 13.19,51.3 13,51.3 12.63,51.11 
	12.45,51.11 12.45,50.93 12.27,50.74 12.08,50.56 11.9,50.37 11.71,50.19 11.9,50.19 11.71,50.19 11.71,50.01 11.71,49.82 
	11.71,49.27 11.71,48.72 11.71,48.53 11.53,48.53 11.53,48.35 11.53,48.16 11.53,47.98 11.34,47.79 11.16,47.61 11.16,47.42 
	10.98,47.24 10.98,47.06 10.79,47.06 10.79,46.87 10.79,46.69 10.61,46.5 10.61,46.32 10.42,46.13 10.24,46.13 10.24,45.95 
	10.05,45.95 10.24,45.76 10.42,45.76 10.42,45.58 10.61,45.58 10.61,45.4 10.79,45.4 10.79,45.21 10.98,45.21 11.16,45.03 
	11.34,45.03 11.53,45.03 11.53,44.84 11.71,44.84 11.9,44.66 12.08,44.47 12.27,44.47 12.45,44.47 12.63,44.47 12.63,44.29 
	12.82,44.1 12.82,43.92 12.82,43.74 13,43.55 13,43.37 13.19,43.37 13.19,43.18 13.19,43 13.37,43 13.37,42.81 13.56,42.81 
	13.56,42.63 13.56,42.44 13.37,42.26 13.19,42.26 13,42.26 12.82,42.08 12.63,41.89 12.63,41.71 12.82,41.71 12.82,41.52 
	12.82,41.34 12.82,41.15 12.82,40.97 13,40.97 13,40.79 13.19,40.79 13.37,40.6 13.37,40.42 13.19,40.23 13.19,40.05 13.19,39.86 
	13.19,39.68 13.19,39.49 13.37,39.49 13.37,39.31 13.56,39.13 13.56,38.94 13.37,38.94 13.37,38.76 13.19,38.76 13.19,38.57 
	13.19,38.39 13.19,38.2 13.19,38.02 13.19,37.83 13,37.83 12.82,37.83 12.82,37.65 12.63,37.65 12.63,37.47 12.63,37.1 12.63,36.91 
	12.63,36.73 12.63,36.54 12.63,36.36 12.45,36.17 12.45,35.99 12.63,35.81 12.82,35.62 13,35.44 13,35.25 13.19,35.07 13.19,34.88 
	13.19,34.7 13.19,34.33 13.19,34.15 13,33.96 12.82,33.78 12.63,33.59 12.45,33.59 12.27,33.41 12.08,33.22 11.9,33.04 11.9,32.86 
	11.9,32.67 11.9,32.49 11.9,32.3 11.9,32.12 11.9,31.93 11.9,31.75 12.08,31.56 12.27,31.56 12.45,31.38 12.63,31.2 12.63,31.01 
	12.82,30.83 12.82,30.64 12.82,30.46 12.82,30.27 12.82,30.09 12.82,29.91 12.82,29.72 13,29.72 13.19,29.54 13.37,29.35 
	13.56,29.35 13.74,29.17 13.93,28.98 14.11,28.8 14.29,28.61 14.48,28.61 14.66,28.61 14.85,28.43 15.03,28.25 15.03,28.06 
	15.03,27.88 15.03,27.69 15.22,27.51 15.22,27.32 15.22,27.14 15.22,26.95 15.22,26.77 15.22,26.59 15.22,26.4 15.22,26.22 
	15.03,26.22 14.85,26.03 14.66,25.85 14.48,25.85 14.48,25.66 14.48,25.48 14.66,25.48 14.66,25.29 14.85,25.29 15.03,25.29 
	15.22,25.11 15.22,24.93 15.4,24.93 15.4,24.74 15.4,24.56 15.59,24.56 15.59,24.37 15.4,24.37 15.4,24.19 15.59,24.19 15.59,24 
	15.77,24 15.77,23.82 15.77,23.64 15.59,23.64 15.59,23.45 15.59,23.27 15.59,23.08 15.77,22.9 15.95,22.71 16.14,22.71 
	16.32,22.53 16.51,22.34 16.69,22.34 16.88,22.16 17.06,22.16 17.25,22.16 17.43,22.16 17.43,22.34 17.61,22.34 17.8,22.34 
	17.8,22.16 17.98,22.16 18.17,22.16 18.35,22.16 18.54,21.98 18.72,21.98 18.9,21.98 19.09,21.98 19.09,21.79 19.27,21.79 
	19.27,21.98 19.46,21.98 19.46,22.16 19.64,22.34 19.64,22.53 19.83,22.53 19.83,22.71 20.01,22.71 20.2,22.71 20.38,22.71 
	20.56,22.53 20.56,22.34 20.56,22.16 20.38,21.98 20.38,21.79 20.38,21.61 20.38,21.42 20.38,21.24 20.38,21.05 20.2,20.87 
	20.01,20.87 20.01,20.68 20.01,20.5 20.01,20.32 20.2,20.13 20.2,19.95 20.2,19.76 20.2,19.58 20.01,19.58 19.83,19.58 19.83,19.39 
	19.83,19.21 19.83,19.03 20.01,19.03 20.01,18.84 20.01,18.66 20.2,18.66 20.2,18.47 20.01,18.47 20.01,18.29 20.01,18.1 
	20.01,18.29 20.2,18.29 20.38,18.29 20.56,18.29 20.75,18.29 20.93,18.29 21.12,18.47 21.3,18.47 21.49,18.47 21.67,18.47 
	21.86,18.47 21.86,18.66 22.04,18.66 22.22,18.66 22.22,18.47 22.41,18.47 22.59,18.66 22.78,18.84 22.96,18.84 22.96,19.03 
	23.15,19.03 23.33,19.21 23.33,19.39 23.52,19.39 23.7,19.39 23.88,19.58 24.07,19.58 24.25,19.39 24.44,19.39 24.62,19.58 
	24.81,19.76 25.18,19.95 25.54,19.95 25.91,19.95 26.28,20.13 26.65,20.32 27.2,20.5 27.76,20.5 27.94,20.5 28.13,20.68 28.13,20.5 
	28.31,20.32 28.49,20.32 28.68,20.5 28.86,20.5 29.05,20.32 29.23,20.13 29.23,19.95 29.23,19.76 29.23,19.39 29.05,19.21 
	28.86,19.03 28.49,19.03 28.31,19.03 27.94,18.84 27.57,18.66 27.39,18.1 27.39,17.92 27.57,17.73 27.76,17.55 27.76,17.37 
	27.94,17.37 27.94,17.18 28.13,17.18 28.31,17 28.31,16.81 28.49,16.63 28.49,16.44 28.68,16.44 28.86,16.44 28.86,16.26 
	29.05,16.26 29.23,16.44 29.42,16.44 29.6,16.26 29.79,16.26 29.97,16.07 29.97,15.89 30.15,15.89 30.34,15.71 30.34,15.52 
	30.52,15.15 30.71,15.15 30.71,14.97 30.89,14.97 30.89,14.78 31.08,14.78 31.26,14.6 31.45,14.6 31.63,14.6 31.81,14.6 
	31.81,14.41 32,14.23 32.18,14.05 32.18,13.86 32.37,13.86 32.37,13.68 32.55,13.68 32.55,13.49 32.55,13.31 32.74,13.31 
	32.92,13.12 33.1,13.12 33.29,12.94 33.47,12.75 33.66,12.57 33.66,12.39 33.84,12.39 33.84,12.2 33.84,12.02 33.84,11.83 
	33.84,11.65 33.84,11.46 34.03,11.28 34.4,11.1 34.58,10.91 34.76,10.91 34.95,10.73 34.95,10.54 34.95,10.36 35.13,10.17 
	35.13,9.99 35.32,9.99 35.5,9.8 35.5,9.62 35.32,9.62 35.13,9.44 34.95,9.25 34.76,9.25 34.58,9.25 34.58,9.07 34.4,8.88 34.21,8.7 
	34.21,8.51 34.4,8.33 34.4,8.14 34.21,7.96 34.21,7.78 33.84,7.59 33.66,7.41 33.84,7.41 33.84,7.22 34.03,7.22 34.03,7.04 
	34.03,6.85 33.84,6.67 33.84,6.48 34.03,6.3 34.21,6.12 34.21,5.93 34.21,5.75 34.03,5.75 34.03,5.56 33.84,5.56 33.84,5.38 
	33.66,5.38 33.47,5.19 33.47,5.01 33.29,4.83 33.1,4.83 32.92,4.83 32.55,4.64 32.37,4.46 32.18,4.46 32,4.27 32,4.09 31.81,3.9 
	31.63,3.72 31.63,3.53 31.81,3.35 31.81,3.17 31.81,2.98 32,2.8 32,2.61 32,2.43 32,2.24 32,2.06 32,1.87 32,1.69 32.18,1.51 
	32.37,1.51 32.37,1.32 32.55,1.14 32.74,1.14 32.74,0.95 32.92,0.95 33.1,0.95 33.29,0.95 33.47,0.95 33.66,0.95 33.84,0.95 
	34.03,1.14 34.21,1.14 34.4,1.14 34.58,1.14 34.76,0.95 34.95,0.77 34.95,0.58 34.95,0.4 35.13,0.4 35.13,0.22 35.32,0.4 35.5,0.4 
	35.5,0.22 35.69,0.22 35.87,0.22 35.87,0.03 36.06,0.03 36.06,0.22 36.06,0.4 36.06,0.58 36.24,0.58 36.42,0.58 36.61,0.58 
	36.79,0.58 36.79,0.4 36.98,0.22 36.98,0.03 37.16,0.03 37.16,0.22 37.35,0.22 37.35,0.4 37.35,0.58 37.16,0.58 36.98,0.58 
	36.98,0.77 36.98,0.95 37.16,0.95 37.16,1.14 37.35,1.14 37.53,0.95 37.72,0.95 37.72,0.77 37.72,0.58 37.72,0.4 37.72,0.22 
	37.72,0.03 37.9,-0.15 37.9,0.03 38.08,0.22 38.08,0.4 38.08,0.58 37.9,0.95 38.08,1.14 38.08,1.32 38.27,1.51 38.45,1.51 
	38.45,1.69 38.64,1.69 38.82,1.69 39.01,1.51 39.19,1.51 39.38,1.69 39.56,1.69 39.56,1.87 39.56,2.06 39.56,2.24 39.93,2.8 
	40.11,3.35 40.11,3.53 40.3,3.72 40.3,3.9 40.48,3.9 40.48,4.09 40.67,4.09 40.67,4.27 40.85,4.27 41.03,4.27 41.22,4.46 
	41.22,4.64 41.03,4.64 41.03,4.83 41.03,5.01 41.03,5.19 41.22,5.19 41.4,5.19 41.59,5.19 41.59,5.38 41.59,5.56 41.59,5.75 
	41.59,5.93 41.59,6.12 41.77,6.3 41.96,6.48 42.14,6.48 42.33,6.48 42.51,6.48 42.69,6.48 42.69,6.67 43.06,6.67 43.25,6.67 
	43.43,6.67 43.62,6.67 43.8,6.67 43.99,6.67 44.17,6.67 44.35,6.67 44.54,6.67 44.72,6.85 44.91,6.85 45.09,6.85 45.28,7.04 
	45.46,7.04 45.64,7.04 45.83,7.04 46.01,7.04 46.2,7.04 46.38,7.04 46.57,6.85 46.75,6.85 46.94,6.67 47.12,6.67 47.12,6.48 
	47.3,6.48 47.49,6.3 47.67,6.3 47.86,6.3 47.86,6.12 "/>
</svg>
