<?xml version="1.0" encoding="utf-8"?>
<!-- Generator: Adobe Illustrator 24.2.1, SVG Export Plug-In . SVG Version: 6.00 Build 0)  -->
<svg version="1.1" id="Layer_1" xmlns="http://www.w3.org/2000/svg" xmlns:xlink="http://www.w3.org/1999/xlink" x="0px" y="0px"
	 viewBox="0 0 97.23 97.23" style="enable-background:new 0 0 97.23 97.23;" xml:space="preserve">
<style type="text/css">
	.st0{fill-rule:evenodd;clip-rule:evenodd;fill:#1D1D1B;}
</style>
<path class="st0" d="M52.56,96.62h-0.11V96.5h-0.11h0.11v-0.11v0.11h0.11V96.62L52.56,96.62z M57.04,96.5v0.11v0.12h-0.11v0.11
	v-0.11v-0.12h-0.12V96.5v-0.11h0.12h0.11V96.5L57.04,96.5z M54.74,95.58h-0.11v-0.11h0.11h0.11h-0.11V95.58L54.74,95.58z
	 M55.89,89.72h-0.11v-0.12v-0.11h0.11H56v0.11v0.12H55.89L55.89,89.72z M54.05,82.37v-0.11h-0.12v-0.12h-0.11h-0.11v-0.11
	l-0.12-0.11V81.8h-0.11v-0.11v-0.11h-0.11v-0.12v0.12v0.11h0.11v0.11v0.12l0.11,0.11v0.11v0.12h0.12v0.11v0.11v0.12v-0.12h-0.12
	h-0.11v0.12h0.11v0.11v0.11v0.12h0.12v0.11h-0.12v0.11v0.12h-0.11v0.11h-0.11v-0.11v-0.12h-0.12h0.12v-0.11v-0.11h-0.12v0.11h-0.11
	v0.11v0.12v0.11h0.11v0.11h0.12v0.12v0.11h0.11v0.11h0.11v0.12v0.11v0.11v0.12v0.11v0.11h-0.11h0.11v0.12h0.12v-0.12h0.11v0.12h0.11
	l0.12,0.11l0.11,0.11v-0.11h0.12v0.11v0.12h-0.12h-0.11v0.11h0.11v0.12v0.11h0.12v0.11v0.12h0.11v0.11h0.11v-0.11l0.12-0.12v0.12
	v0.11h0.11v0.11v0.12h-0.11v-0.12h-0.12v0.12h0.12v0.11v0.11h0.11v0.12v0.11v0.11l0.11,0.12v0.11v0.11h0.12v0.12h0.11v-0.12v0.12
	h0.11h-0.11v0.11v0.11v0.12v0.11v0.11h0.11h0.12v-0.11v-0.11V87.2h0.11v-0.11h0.11l0.23,0.11h0.11H56h0.11v0.12h0.12v0.11h0.11v0.11
	h0.11v0.12l0.12,0.11v0.11L56.69,88v0.11h0.11h0.12h0.11v0.11h0.11v-0.11v0.11h0.12v0.12v0.11l0.11,0.11v0.12v0.11v0.11v0.12v0.11
	v0.11v0.12v0.11l-0.11,0.11v0.12v0.11l-0.12,0.12h-0.11v0.11h-0.11v0.11h-0.12v0.12l-0.11,0.11h-0.11l-0.12-0.11l-0.11-0.12v-0.11
	h-0.11v-0.11v-0.12h-0.12H56h-0.12v0.12v0.11h-0.11v0.11h0.11v0.12v0.11H56v0.11l0.11,0.12v0.11l0.12,0.11v0.12v0.11v0.11h-0.12
	v0.12v0.11H56v0.11l-0.12,0.12v0.11v0.11h-0.11v0.12l0.11,0.11v0.11v0.12H56v0.11v0.11v0.12l0.11,0.11v0.11v0.12h0.12v0.11v0.11
	v0.12v0.11l0.11,0.11h0.11v0.12v0.11v0.11h0.12v0.12v0.11v0.11v0.12l-0.12,0.11h0.12v0.11v0.12h-0.12v0.11v0.12h0.12v0.11
	l-0.12,0.11v0.12h0.12v0.11v0.11v0.12v0.11v0.11v0.12h0.11v0.11h0.11v0.11h0.12h0.11v-0.11v-0.11h-0.11v-0.12v-0.11V95.7v-0.12
	v-0.11h-0.12v-0.11h0.12v-0.12h-0.12v-0.11h0.12v-0.11h0.11v0.11h0.11h0.12v-0.11h0.11v0.11h0.11v0.11v0.12h0.12v0.11v0.11v0.12
	h0.11v0.11h0.11v0.11h-0.11v0.12v0.11v0.11v0.12v0.11l0.11,0.11v0.12v0.11h0.12v-0.11v-0.12V96.5v-0.11v-0.12v-0.11h0.11v-0.11
	v-0.12v-0.11V95.7v-0.12h0.11v-0.11v-0.11v-0.12v-0.11v-0.11v-0.12v-0.11h0.12v-0.12h0.11v-0.11v-0.11v-0.12V94.2v-0.11h0.12v-0.12
	h0.11v-0.11v-0.11v-0.12h0.11v-0.11V93.4v-0.12l0.12-0.11v-0.11v-0.12v-0.11v-0.11V92.6v-0.11l0.11-0.11v-0.12v-0.11v-0.11h0.11
	v-0.12l-0.11-0.11h0.11v-0.11v-0.12l-0.11-0.11v-0.11v-0.12V91.1v-0.11v-0.12v-0.11v-0.11l-0.11-0.12v-0.11V90.3h-0.12h-0.11
	l-0.11-0.12v-0.11v-0.11h-0.12v-0.12v-0.11H58.3v-0.12h0.11v-0.11v-0.11v-0.12v-0.11v-0.11v-0.12V88.8H58.3v-0.11v-0.12l-0.12-0.11
	v-0.11v-0.12v-0.11V88v-0.12v-0.11v-0.11l0.12-0.12h-0.12v-0.11h0.12v-0.11h0.11l0.12-0.12v-0.11l0.11-0.11h0.11v-0.12v-0.23
	l0.12-0.12v-0.11v-0.11v-0.12h-0.12l-0.11-0.11v-0.11h-0.11h-0.12v-0.12H58.3V85.7h-0.12l-0.11-0.11l-0.11-0.12v-0.11h-0.12v-0.11
	v-0.12h-0.11v-0.11V84.9h0.11v-0.11h0.12v-0.23l0.11-0.11v-0.11l0.11-0.12h0.12l0.11-0.11v-0.11v-0.12H58.3v-0.11v-0.11h-0.12h-0.11
	h-0.11h-0.12l-0.11,0.11h-0.11l-0.12,0.11l-0.11,0.12h-0.11h-0.12h-0.11h-0.11h-0.12h-0.11h-0.11l-0.12-0.12h-0.11h-0.11l-0.12-0.11
	L56,83.63l-0.12-0.12h-0.11l-0.11-0.11h-0.12h-0.11l-0.11-0.11l-0.12-0.12v-0.11h-0.11l-0.11-0.11v-0.12h-0.12v-0.11h-0.11h-0.11
	h-0.12V82.6H54.4v-0.12l-0.11-0.11h-0.12H54.05L54.05,82.37z M48.54,81.57h-0.11h-0.11v-0.12v-0.11h0.11v0.11h0.11V81.57
	L48.54,81.57z M46.93,80.76v-0.11V80.76L46.93,80.76z M47.85,80.65h0.11v0.11h0.11v0.12v0.11v0.11h-0.11v0.12h-0.11v-0.12v-0.11
	h-0.11l-0.11-0.11v-0.12v-0.11v-0.11h0.11h0.11V80.65L47.85,80.65z M55.2,80.3v0.11l0.12,0.12v0.11v0.11H55.2v-0.11h-0.11h-0.11
	v-0.11h-0.12h-0.11v-0.12h-0.11V80.3h-0.12v0.11L54.4,80.3l-0.11-0.11l-0.12-0.12v-0.11h-0.11v-0.12h-0.12v-0.11v-0.11h-0.11V79.5
	v-0.11v-0.11v-0.12v-0.11v-0.11h0.11h0.12v0.11h0.11v0.11l0.12,0.12h0.11l0.11,0.11v0.11h0.12v0.12h0.11h0.11l0.12,0.11h0.11v0.11
	v0.12l0.11,0.11v0.12V80.3L55.2,80.3z M45.55,78.69h0.11v0.11v0.12h0.11v0.11v0.11l-0.11,0.12v0.11h-0.11v-0.11v-0.12h-0.12v-0.11
	v-0.11v-0.23H45.55z M45.55,78.69v-0.11v-0.12h-0.12v0.12v0.11H45.55L45.55,78.69z M60.6,76.97v0.11h0.11v0.12H60.6h-0.11v0.11h0.11
	h0.11v0.11v0.12l-0.11,0.11v0.11v0.12V78h-0.11l0.11,0.11v0.12v0.23h-0.11v0.12v0.11v0.11v0.12h-0.12v0.11v0.11v-0.11h-0.11v0.11
	h-0.11v0.12v0.11h0.11h0.11h0.12v0.11v0.12v0.11v0.11v0.12h-0.12v0.11h-0.11l-0.11,0.12l-0.12,0.11h-0.11v0.11v0.12v0.11v0.11H59.8
	h0.12v0.12h0.11l-0.11,0.11v0.11v0.12v0.11v0.11l-0.12,0.12v0.23h-0.11v0.12v0.11v0.11v0.12v0.11h0.11v0.11v0.12l-0.11-0.12h-0.11
	v0.12l-0.23,0.11v0.11v0.12h0.11v0.11v0.11h-0.11v0.12v0.11l0.11,0.11v0.12h-0.11v0.11v0.11v0.12l-0.11-0.12h-0.12h-0.11h-0.11
	h-0.12v-0.11v-0.11v-0.12V83.4l-0.11-0.11l-0.11-0.12l-0.12-0.11H58.3h-0.12h-0.11h-0.11h-0.12h-0.11l-0.23-0.11h-0.23h-0.12
	l-0.11-0.12l-0.11-0.11l-0.23-0.23l-0.11-0.11h-0.12v-0.11l-0.11-0.12h-0.11h-0.12L56,82.03l-0.12-0.11l-0.11-0.12v-0.11l-0.11-0.11
	v-0.12h-0.12v-0.11h-0.11v-0.11v-0.12l0.11-0.11l0.12-0.11h0.11h0.11v0.11L56,81.11h0.11h0.12h0.23h0.12l0.11-0.11v-0.11h0.11v-0.12
	l0.12-0.11v-0.11l0.11-0.12V80.3l0.11-0.11v-0.12l0.12-0.11l0.11-0.12l0.11-0.11l0.12-0.11l0.11-0.12h0.11l0.12-0.11v-0.11
	l0.11-0.12v-0.11v-0.11l0.11-0.12v-0.11l0.12-0.11l0.11-0.12v-0.11h0.12v-0.11h0.11l0.11-0.12h0.12h0.11L59.11,78h0.12v-0.11h0.11
	v-0.12h0.11v-0.11h0.12v-0.11v-0.12v-0.11V77.2v-0.12h0.11v0.12h0.11v0.11v0.11h0.12v-0.11h0.11V77.2v-0.12h-0.11h0.11h-0.11v-0.11
	l0.11-0.11h0.12h0.11v0.11v-0.11h0.11h0.12h0.11V76.97L60.6,76.97z M40.03,76.4v0.12h-0.12V76.4H39.8v-0.11v-0.11h0.11l-0.11,0.11
	h0.11v0.11H40.03h-0.12v-0.11v-0.11v-0.12v0.12h0.12v0.11V76.4L40.03,76.4z M51.06,76.05h-0.12l0.12,0.12v0.11v0.11v0.12v0.11v0.11
	h-0.12v0.12h0.12v0.11v0.11v0.12h0.11v0.11h-0.11h0.11v0.11v0.12v0.11v0.11l-0.11,0.12V78v0.11h-0.12v0.12v-0.12V78l-0.11-0.11
	v-0.12v-0.11v-0.11v-0.12h-0.11l-0.12-0.11V77.2v-0.12v-0.11v-0.11v-0.12v-0.11h0.12v-0.11L50.6,76.4v-0.11v-0.11v-0.12l0.12-0.11
	v-0.11h0.11v-0.12h0.11v0.12l0.12,0.11V76.05L51.06,76.05z M40.03,75.94v-0.11v-0.12l-0.12-0.11h0.12h0.11l-0.11,0.11v0.12V75.94
	L40.03,75.94z M40.49,75.48h-0.11h-0.12h0.12H40.49L40.49,75.48z M49.91,73.75v0.12h0.11v0.11v0.11h-0.11v-0.11v-0.11V73.75
	L49.91,73.75z M50.37,71.46l-0.12-0.12v-0.11l-0.11-0.11V71v-0.11v-0.11v-0.12h0.11v-0.11h0.12v0.11v0.12v0.11V71h0.11v0.12v0.11
	l-0.11,0.11V71.46L50.37,71.46z M56.92,70.88h-0.12l-0.11-0.11h-0.11h-0.12v-0.12h-0.11v-0.11v-0.11v-0.12v-0.11l0.11-0.11v-0.12
	l0.12-0.11v-0.12h0.11l0.11-0.11h0.12h0.11h0.11h0.12l0.11,0.11h0.11h0.12h0.11h0.11l0.12,0.12h0.11v0.11l0.11,0.12v0.11h-0.11
	l-0.11,0.11l-0.12,0.12l-0.23,0.11H57.5l-0.11,0.11h-0.11l-0.12,0.12h-0.11L56.92,70.88L56.92,70.88z M51.41,69.5h0.11v0.11h-0.11
	v0.11h0.11v0.12v0.11v0.12l0.11,0.11v0.11h-0.11v0.12h-0.11v0.11v0.11v0.12h-0.12h-0.11l-0.11-0.12v-0.11h-0.12v-0.11h-0.11v-0.12
	v-0.11v0.11v0.12h-0.11v-0.12v-0.11v0.11H50.6v-0.11v-0.11v-0.12v-0.11v-0.12v-0.11V69.5v-0.12v-0.11v-0.11h0.12v-0.12v-0.11
	l0.11-0.11h0.11v0.11v0.11v0.12l0.12,0.11l0.11,0.11h0.11L51.41,69.5L51.41,69.5z M50.26,68.7v0.12v0.11v0.11v0.12h-0.11v0.11v0.11
	h0.11v0.12h-0.11v-0.12l-0.11-0.11h0.11v-0.11l-0.11-0.23v-0.11V68.7h0.11v-0.11v0.11H50.26L50.26,68.7z M51.18,68.35v0.12h-0.11
	v0.11h-0.12l-0.11-0.11h-0.11v-0.12l0.11-0.11l0.11,0.11h0.12H51.18L51.18,68.35z M59.45,65.94h-0.11v-0.11v-0.11h0.11v0.11V65.94
	L59.45,65.94z M35.32,65.25v-0.23l-0.11-0.34v0.11l0.11,0.11v0.23V65.25L35.32,65.25z M36.82,31.24H36.7v-0.11l0.11-0.11v0.11V31.24
	L36.82,31.24z M38.31,26.3v-0.12V26.3L38.31,26.3z M40.03,23.78h-0.12v-0.11h0.12v-0.12v0.12V23.78L40.03,23.78z M36.24,21.36h-0.11
	h-0.12H35.9h-0.11h-0.12v0.11h-0.11h-0.11h-0.12v0.12h-0.11h-0.11v0.11h-0.12l-0.11,0.11v0.12v0.11h0.11l0.12,0.11v0.12l0.11,0.11
	l0.11,0.11v0.23l0.12,0.23l0.11,0.34l0.11,0.11v0.11v0.12v0.11v0.11v0.12v0.11v0.11v0.12l0.12,0.11v0.11v0.12v0.11v0.11v0.12v0.11
	v0.23v0.23v0.11v0.11v0.12v0.11v0.11v0.12v0.11h-0.12v0.11l-0.11,0.23v0.11l-0.11,0.12v0.11l-0.12,0.11v0.12h-0.11v0.11l-0.11,0.11
	l-0.12,0.23v0.11h-0.11v0.12v0.11v0.11l0.11,0.12v0.11l0.12,0.11l0.11,0.12v0.11h0.11l0.12,0.23l0.11,0.11v0.11l0.11,0.12l0.12,0.23
	v0.12h0.11v0.11v0.11l0.11,0.23v0.12v0.23v0.12v0.11l0.12,0.11v0.12v0.11v0.11v0.12l-0.12,0.11h0.12v-0.11v-0.12v-0.11v0.11h0.11
	v-0.11h0.11v-0.11V30.9l0.12-0.11v-0.11l0.11-0.12v-0.11l0.12-0.23V30.1h0.11v-0.12v-0.11h0.11v-0.11h0.12v-0.23l0.11-0.11v-0.12
	v-0.11v-0.11v-0.12l0.11-0.23V28.6v-0.11v-0.11v-0.34v-0.12V27.8h0.12v-0.11l0.11-0.12h0.11v-0.11l0.12-0.11h0.11h0.11v-0.12
	l0.12-0.11v-0.11l-0.12-0.23v-0.11v-0.12v-0.11V26.3h0.12h0.11v-0.23h0.11v0.11h0.12v0.12h0.11l0.12-0.12v-0.11h0.11l0.11-0.11
	L39,25.84v-0.11V25.5v-0.11l0.11-0.11v-0.12v-0.11l0.11-0.12v-0.11h0.12V24.7v-0.12l0.11-0.11v-0.11l0.11-0.12v-0.11l0.12-0.11
	v-0.12v-0.11h0.11v-0.11v-0.12h0.11v-0.11l-0.11-0.11V23.2v-0.11l-0.11-0.11h-0.12v-0.12h-0.11h-0.11l-0.12-0.11h-0.11v-0.11H39
	v-0.12h-0.12h-0.11l-0.11-0.11h-0.12h-0.11v-0.11h-0.12H38.2h-0.11l-0.12-0.12h-0.11h-0.11v-0.11h-0.12h-0.11l-0.11-0.11v0.11h-0.12
	l-0.11-0.11v-0.12h-0.11v0.12v-0.12h-0.12v0.12v-0.12h-0.11H36.7v-0.11h-0.12v-0.11v-0.12h-0.11v-0.11v0.11h-0.12h-0.11V21.36
	L36.24,21.36z M43.48,21.13h-0.11h-0.11l0.11-0.11V20.9h0.11v0.11V21.13L43.48,21.13z M43.37,17.34v-0.11h0.11v0.11H43.37
	L43.37,17.34z M43.48,17.34h0.12v-0.11h-0.12V17.34L43.48,17.34z M44.28,17.11h0.11l-0.11,0.12V17.11v0.12l-0.12-0.12H44.28
	L44.28,17.11z M44.74,17.11v0.12l-0.11-0.12h-0.11h0.11H44.74L44.74,17.11z M44.51,16.42h0.11h0.11v0.12h0.12v0.11h0.11v0.11h-0.11
	l-0.12-0.11h-0.11v0.11h-0.11H44.4l-0.11,0.12h-0.23h-0.11L43.6,17h-0.12v-0.11v-0.12l0.12-0.11v-0.11h0.11l0.11-0.12h0.23h0.11
	h0.12h0.11H44.51L44.51,16.42z M41.76,15.96h-0.11l-0.12-0.11l-0.11-0.12v-0.11v-0.11v-0.23v0.11h0.11v0.12l0.12,0.11v0.11
	l0.11,0.12V15.96L41.76,15.96z M40.84,12.52V12.4h0.12L40.84,12.52L40.84,12.52z M37.74,11.14v0.11v0.11l-0.12,0.12l0.23,0.11h0.11
	v0.11h0.12v0.12l0.11,0.11v0.11v0.12v0.11v0.11v0.12v0.11l-0.11,0.11v0.12h0.11v0.11l-0.11,0.11l0.34,0.12l0.11-0.12v-0.11h0.12
	l0.11,0.11h0.11v0.12v0.11v0.23v0.11l0.23,0.23h0.11l0.12,0.23l0.23,0.23l0.23,0.11l0.11,0.12v0.11v0.34v0.12l0.12,0.11l0.11,0.11
	v0.12v0.11h0.11v0.11v0.12v0.11h0.12v0.11v0.12v0.11l0.11,0.11v0.12v0.11v0.11v0.12h0.12V17l-0.12,0.11l-0.11,0.12v0.11l-0.12,0.11
	l-0.11,0.12v0.11v0.11v0.12h-0.11v0.11h-0.12v0.11H39.8h-0.11l-0.23,0.12v0.11v0.11h-0.11v0.12v0.11h-0.12l-0.11,0.23L39,19.07v0.11
	h-0.12v0.12h-0.11h-0.11l-0.12,0.11v0.11v0.12v0.11l-0.11,0.11h-0.12v0.12H38.2h-0.11h-0.12h-0.11h-0.11l-0.23,0.23v0.11v0.11h-0.11
	h-0.12v-0.11h-0.11h-0.11h-0.12v0.11h-0.11l-0.11-0.11h-0.23h-0.12v0.11h-0.11l-0.11-0.11v0.11h-0.12H35.9v-0.11h-0.11h-0.12h-0.11
	h-0.11h-0.12h-0.11h-0.11h-0.12h-0.11h-0.11v-0.11V20.1v-0.11v-0.12l0.11-0.11v-0.11v-0.12v-0.11V19.3v-0.12v-0.11v-0.11l0.11-0.12
	v-0.11v-0.23v-0.23v-0.12l0.12-0.11v-0.34v-0.11v-0.12v-0.23v-0.12V17v-0.11v-0.34v-0.57v-0.46l-0.12-0.69v-0.34v-0.46V13.9v-0.12
	h0.12v0.12h0.11h0.11l0.12-0.23v-0.11v-0.12h0.11v-0.11v-0.11l0.11-0.23l0.12-0.11v-0.12l-0.12-0.11v-0.11v-0.23v-0.11v-0.23V11.6
	v-0.11v-0.12v-0.11h0.12h0.11h0.11l0.12,0.11h0.11l0.11-0.11h0.23h0.12l0.11-0.11h0.11h0.12h0.11l0.11,0.11h0.12l0.11-0.11h0.11
	H37.74L37.74,11.14z M40.49,12.06v-0.11h-0.11v-0.11h-0.12v-0.12h-0.11l-0.11-0.11l-0.12-0.23v-0.11l-0.34-0.23v-0.23l-0.11-0.12
	l-0.11-0.11l-0.12-0.11v-0.12l-0.11-0.11H39v0.11l-0.12,0.34v0.23v0.11v0.23v0.34L39,11.83l0.11,0.34v0.11h0.11l0.12,0.11v0.12
	l0.11,0.11l0.11,0.11v0.12h0.12l0.11,0.23l0.11,0.23l0.12,0.11v0.12l0.23,0.11l0.12,0.23h0.11l0.23-0.12v-0.34v-0.11v-0.11
	l0.11-0.23v-0.11v-0.12v-0.11v-0.11V12.4h-0.11v-0.11l-0.11-0.11L40.49,12.06L40.49,12.06z M43.83,9.99l0.12,0.23v0.11v-0.11h-0.12
	h-0.11v-0.12H43.6v0.12h-0.12v-0.12h-0.11V9.99l-0.11-0.11l-0.23-0.12h-0.11h-0.12V9.65V9.53h0.12V9.42h0.11l0.11-0.11l0.12,0.11
	l0.11,0.12h0.11l0.12,0.11l0.11,0.11v0.12v0.11H43.83L43.83,9.99z M43.48,9.42L43.37,9.3l-0.11-0.11V9.07l-0.12-0.11v0.23l0.12,0.11
	L43.48,9.42L43.48,9.42z M42.79,8.84v0.11h0.12v0.11l-0.12-0.11l-0.11,0.11v0.12h0.11V9.3v0.11h-0.11V9.3h-0.11v0.11v0.12h0.11v0.11
	h0.11V9.53V9.42h0.12V9.3h0.11V9.19V9.07L42.79,8.84L42.79,8.84z M43.48,9.3V9.19l-0.11-0.23l-0.11-0.23L43.14,8.5h-0.11h-0.11
	l0.11,0.23l0.11,0.12l0.12,0.11v0.11l0.23,0.12V9.3L43.48,9.3z M42.56,8.38l-0.12-0.11V8.15V8.04l0.12,0.12V8.38L42.56,8.38z
	 M42.33,8.15v0.11l-0.12-0.11H42.1V8.04l-0.11-0.11V7.81l-0.12-0.12h-0.11V7.58V7.46l0.11-0.12h0.12l0.11,0.12v0.11l0.11,0.11v0.12
	h0.12v0.11v0.11V8.15L42.33,8.15z M38.66,7V6.89V6.77l0.11-0.12V6.54l0.11-0.23L39,6.2l0.11-0.11h0.11V5.97V5.85l0.12-0.11V5.62
	l0.11-0.11V5.39l-0.11-0.12V5.17h-0.12L39,5.05l-0.12-0.12V4.82h-0.11V4.71l-0.11,0.12l-0.12,0.11h0.12h-0.12v0.12l-0.11,0.11v0.11
	v0.12l-0.12,0.11L38.2,5.62v0.23v0.11v0.12L38.08,6.2l-0.12,0.11h-0.11v0.12h-0.11v0.11v0.11h-0.12v0.23L37.51,7h-0.11h-0.12
	l-0.11,0.12h-0.11v0.11v0.23v0.11v0.11l-0.12,0.12v0.11v0.11l-0.11,0.12v0.11L36.59,8.5v0.11h-0.11h-0.12h-0.11h-0.11L36.01,8.5
	H35.9v0.11v0.11v0.23v0.11l-0.11,0.12V9.3v0.11l0.11,0.12v0.23v0.34v0.12v0.11v0.12l-0.11,0.11v0.11l-0.12,0.23v0.11l-0.11,0.12
	h0.11h0.12v-0.12l0.11-0.11h0.11h0.12h0.11l0.11-0.11h0.12l0.11-0.12l0.12-0.11h0.11l0.11-0.11h0.12h0.11l0.11-0.12v-0.11v-0.12
	l0.12-0.11V9.88V9.76V9.65l0.11-0.11l0.11-0.12l0.12-0.11h0.11h0.11l0.12-0.11h-0.12V9.07V8.96l-0.11-0.11h-0.11h-0.12V8.73V8.61
	h-0.11V8.5l0.11-0.12V8.27l0.23-0.23V7.92V7.81l0.11-0.23V7.46V7.35h0.12h0.11l0.11-0.11h0.12h0.11V7.12L38.66,7L38.66,7z
	 M40.03,2.87h-0.12V2.75H39.8V2.64l-0.11-0.11V2.41h-0.12V2.29V2.18h0.12V2.06V1.95V1.83V1.72L39.57,1.6V1.49l0.12-0.11h0.11v0.11
	V1.6h0.11v0.12v0.11h0.12v0.11l0.11,0.12l0.11,0.11h0.12v0.11v0.12v0.11h-0.12v0.11h-0.11v0.12h-0.11V2.87L40.03,2.87z M48.77-0.46
	l0.11,0.11L49-0.23v0.11h0.11v0.11l0.11,0.12v0.11h0.11h0.11h0.11v0.12v0.11h-0.11v0.11l-0.11,0.12L49.23,0.8l-0.11,0.11v0.12H49
	h-0.11l-0.11,0.11h-0.11v0.11h0.11h0.11H49h0.11l0.11,0.12l0.11-0.12h0.11V1.14V1.03h0.11V0.91h0.11h0.11v0.12v0.11h0.11v0.11h0.11
	h0.11v0.12l0.11,0.11h0.12V1.6v0.12v0.11l-0.12,0.11v0.12h0.12V1.95h0.11V1.83h0.11V1.72h0.12h0.11h0.11v0.11h0.12h0.11h0.11
	l0.12,0.11h0.11l0.11-0.11l0.12-0.11h0.23h0.12l0.11,0.11h0.12v0.11h0.11h0.11v0.12h0.12v0.11h0.11v0.11h0.11v0.12h0.12h0.11h0.11
	h0.12v0.11l0.11,0.11v0.12l-0.11,0.11v0.11L53.25,3.1v0.11v0.11v0.12v0.11h0.12v0.11v0.12V3.9v0.11l0.11,0.23v0.11v0.12l-0.11,0.11
	v0.11l0.11,0.12v0.11h0.11v0.12v0.11l0.12,0.11l-0.12,0.12v0.11l-0.11,0.11v0.12v0.11v0.11v0.12V6.2h-0.11v0.11v0.12l-0.12,0.11
	v0.11h-0.11v0.12h-0.11H52.9h-0.11v0.11V7v0.12h-0.11l-0.23,0.11h-0.11v0.11l0.11,0.12h-0.11l-0.12,0.11v0.11H52.1v0.12h-0.12v0.11
	h-0.11h-0.11v0.11h-0.12v0.12v0.11v0.11V8.5l-0.11,0.11v0.11v0.12h-0.11v0.11v0.11v0.12l0.11,0.11v0.11h-0.11l-0.12,0.12l-0.11,0.11
	v0.11h-0.11v0.12h0.11v0.11v0.11h0.11v0.12v0.11v0.12v0.11v0.11v0.12h-0.11v0.11l0.11,0.11v0.12v0.11v0.11h0.12h0.11v0.12v0.11h0.11
	l0.12,0.11v0.12v0.11v0.11h-0.12l-0.11,0.12h-0.11h-0.12l-0.11,0.11h-0.11v0.11h-0.12h-0.11h-0.11H50.6h-0.11h-0.11v0.12v0.11v0.11
	l0.11,0.12v0.11v0.11v0.12l0.11,0.11v0.11v0.12v0.11l-0.11,0.11v0.12h-0.11v0.11h-0.12v0.11l0.12,0.12v0.11h0.11v0.11h0.11v0.12
	h0.12v0.11H50.6v0.11v0.12h0.12v0.11h0.11v0.12h0.11v0.11v0.11v0.12v0.11v0.11v0.12v0.11l0.12,0.23v0.11v0.11v0.12l-0.12,0.11h0.12
	v0.11h0.11v0.12V17l-0.11,0.11v0.12h-0.12v0.11l-0.11,0.11l-0.11,0.12l-0.12,0.11h-0.11h-0.11l-0.12,0.11h-0.11v0.12h-0.11v0.11
	h-0.11H49.8v0.11v0.12v0.11l0.11,0.11v0.12v0.11l-0.11,0.11h0.11v0.12l-0.11,0.11l0.11,0.11v0.12v0.11l0.11,0.11l0.11,0.12
	l0.11,0.11v0.11v0.12h0.12h0.11h0.11v0.11v0.12v0.11v0.11v0.12v0.11l0.12,0.11v0.12h0.11v0.11v0.11v0.12v0.11h0.11h0.12h0.11v0.11
	h0.11v0.12h0.12v0.11v0.11h0.11v0.12h0.11h0.12v0.11v0.11l0.11,0.12l0.11,0.11l0.12,0.11h0.11h0.12v0.12v0.11h-0.12v0.11l-0.11,0.12
	v0.11h-0.12v0.11v0.12v0.11v0.11h-0.11h-0.11h-0.12h-0.11l-0.11-0.11h-0.12l-0.11-0.11v0.11h-0.11h-0.12v0.11l-0.11,0.12l-0.11,0.11
	H50.6h-0.11v0.11h-0.11h-0.12h-0.11h-0.11l-0.11,0.12l-0.11,0.11h-0.11h-0.11v0.11h-0.11l-0.11,0.12h-0.11l-0.11,0.11H49h-0.11
	l-0.11,0.11h-0.11h-0.11l-0.11,0.12v-0.12h-0.11v0.12v0.11l-0.11,0.11v0.12v0.11v0.12v0.11v0.11v0.12v0.11h-0.11v0.11h-0.11
	l-0.11,0.12l-0.11,0.11h0.11v0.11h0.11v0.12l0.11,0.11h0.11h0.11l0.11,0.11l0.11,0.12h0.11v0.11v0.11v0.12v0.11h-0.11v0.11v0.12
	v0.11v0.11v0.12v0.11v0.23v0.11l-0.11,0.11v0.12l-0.11,0.11l-0.11,0.11v0.12l-0.11,0.11v0.11v0.12l-0.11,0.11v0.11v0.12h0.11h0.11
	h0.11h0.11l0.11,0.11v0.11l0.11,0.12h0.11h0.11H49h0.11h0.23h0.11h0.11h0.11h0.11h0.11l0.11,0.11h0.11h0.11l0.12,0.11h0.11
	l0.11,0.12h0.12h0.11h0.11l0.12,0.11h0.11l0.23,0.12h0.11h0.11h0.12h0.11h0.11v0.11l0.12,0.11v0.12v0.11v0.11v0.12h0.11v0.11v0.11
	h0.12v0.12v0.11h0.11v0.11v0.12h0.11h0.12h0.11h0.11l0.12,0.11h0.11V31.7h0.11h0.12l0.11,0.11h0.11h0.12h0.11h0.11v0.11h0.12v0.12
	h-0.12v0.11v0.11v0.12v0.11h-0.11v0.11v0.12h-0.11l0.11,0.11h0.11v0.11h0.12h0.11h0.12h0.11v0.12l0.11,0.11l0.12,0.11l0.11,0.23
	l0.11,0.11v0.12h0.12h0.11v0.11L55.2,34v0.23h0.12v0.11l-0.12,0.12v0.11v0.11v0.12l0.12,0.11h0.11v0.12h0.11l0.12,0.11h0.11v0.11
	h0.11H56h0.11h0.12l0.11,0.12h0.11v0.11h0.12h0.23h0.12l0.11-0.11h0.11h0.12l0.11,0.11v0.11h0.11h0.12v0.12h0.11h0.11l0.12,0.11
	l0.11,0.11h0.11v0.12h-0.11l0.11,0.11v0.11v0.12v0.23v0.12v0.11h0.12v0.11v0.12l-0.12,0.11l-0.11,0.11v0.12v0.11v0.11v0.23v0.11
	v0.12v0.11v0.11h-0.11v0.12v0.11v0.23h0.11l-0.11,0.11v0.11v0.23v0.11v0.12h-0.12v0.11v0.11v0.12v0.23v0.12v0.11v0.12v0.11v0.11
	l0.12,0.12v0.11v0.11v0.12v0.11v0.11v0.12h-0.12v0.11v0.11h-0.11l-0.11,0.12v0.11H57.5v0.11v0.12h-0.11h-0.11h-0.12h-0.11v0.11v0.11
	l-0.11,0.12v0.11v0.11h-0.12v0.12h-0.11l-0.11,0.11h-0.12v0.11h-0.11v0.12h0.11l-0.11,0.11v0.11v0.12h-0.11v0.11h-0.12H56h-0.12
	h-0.11v0.11v0.12L55.66,44v0.11h-0.12h-0.23l-0.12,0.12h-0.11h-0.11h-0.12h-0.11h-0.11l-0.12,0.11l-0.11,0.11h-0.11v0.12l-0.12,0.11
	v0.11v0.12h-0.11v0.11v0.12h0.11h0.12l0.11,0.11v0.11h0.11h0.12h0.11v0.12h0.11h0.12v0.11h0.11v0.11h0.11v0.12v0.11h0.12h0.11v0.11
	h0.11v0.12h0.12v0.11l0.11,0.11v0.12h0.11v0.11H56h0.11v0.11h0.12h0.11l0.11,0.12h0.12h0.11l0.11,0.11l0.23,0.11l0.11,0.12h0.12
	l0.11,0.11l0.11-0.11l0.12-0.12h0.11h0.11h0.12h0.11h0.11h0.12l0.11,0.12v0.11l0.12,0.11v-0.11h0.11v-0.11h0.11V47.1h0.12v-0.11
	l-0.12-0.11v-0.12h0.12v-0.11h0.11h0.11h0.12h0.11h0.11l0.12,0.11v-0.11h0.11v-0.11h0.11v-0.12h0.12l0.11-0.11l0.12-0.11h0.11h0.11
	v0.11h0.12h0.11l0.11-0.11h0.12v-0.12h0.11v-0.11l0.11-0.11h0.12v-0.12v-0.11v-0.11h0.11v-0.12h0.11v-0.11v-0.11h0.12l0.11,0.11
	h0.11v0.11h0.12v-0.11h0.11l0.12,0.11h0.11l0.11,0.12h0.12v-0.12h0.11h0.11v-0.11l0.12-0.11h0.11v-0.12h0.11h0.12v0.12h0.11v0.11
	h0.11h0.12l0.11,0.11h0.11h0.12v0.12h0.11v0.11l0.12,0.11l0.11,0.12l0.11,0.11l0.23,0.23l0.11,0.11l0.12,0.11v0.12v0.23l0.11,0.12
	h0.11l0.12,0.11v0.11v0.12l-0.12,0.11v0.11v0.12v0.11h0.12v0.11v0.12v0.11v0.11v0.12v0.11v0.11v0.12v0.11v0.11l0.11,0.12h0.11v0.11
	v0.11v0.12v0.11v0.11H65.2l-0.11,0.12v0.11v0.12l-0.12,0.11l-0.11,0.11h-0.11v0.12v0.11h-0.12v0.11v0.12h-0.11v0.11h-0.11
	l-0.12,0.11v0.12v0.11v0.11l-0.11,0.12l-0.11,0.11l-0.12,0.23v0.11l-0.11,0.11v0.12v0.11l-0.12,0.23l-0.11,0.34v0.23v0.12
	l-0.11,0.11l-0.12,0.11v0.12v0.11v0.57v0.11v0.23l-0.11,0.34l-0.11,0.23v0.12l-0.12,0.23H62.9v0.11l-0.11,0.11l-0.12,0.11v0.11
	h-0.11l-0.11,0.11l-0.23,0.46l-0.11,0.11v0.11v0.11h-0.12v0.11v0.11l-0.11,0.11v0.11h-0.12v-0.11h-0.11h-0.11v0.11v0.11h0.11v0.11
	v0.11h0.11v0.11h0.12v-0.11v0.11h0.11v0.11v0.11h0.12v0.11v-0.11h0.11v0.11l0.11,0.11v0.11v-0.11h0.12v0.11h0.11v0.11h-0.11h0.11
	v0.11v0.11h0.11h-0.11v0.11h0.11h0.12v-0.11h0.11v0.11v0.11h-0.11v0.11v0.11h-0.12l-0.11-0.11v0.11v0.11v0.11v0.11v0.11h-0.11v0.11
	v0.11v0.11v0.11v0.11h0.11v0.11v0.11v0.11v0.11v0.11v0.11v0.11h-0.11v0.11h-0.12h-0.11h-0.11L61.98,61h-0.11h-0.12l-0.11,0.11h-0.11
	v0.11H61.4l-0.11,0.11l-0.11,0.11v0.11v0.11v0.11v0.11v0.11h0.11v0.11h0.11l0.12,0.11h0.11v0.11l0.11,0.11l0.12,0.11l0.11,0.11v0.11
	l0.23,0.11v0.11h0.11v0.11l0.12,0.11v0.11v0.11l-0.12,0.11v0.11l-0.11,0.11h-0.11l-0.12,0.11h-0.23h-0.11l-0.11,0.11H61.4h-0.11
	h-0.11h-0.12h-0.11h-0.11l-0.12,0.11H60.6l-0.11-0.23h-0.12h-0.11l-0.11-0.11h-0.12h-0.11H59.8h-0.11v-0.11h-0.46h-0.46v0.11
	l0.12,0.11v0.23l-0.12,0.11v0.11v0.23h-0.11v0.11h-0.11v-0.11l-0.12-0.11l-0.34,0.23h-0.11l-0.12,0.11v0.11h-0.23l-0.23,0.11h-0.11
	l-0.12,0.11h-0.11h-0.11h-0.12l-0.11-0.11l-0.23-0.11v0.11l-0.11,0.11h-0.11v-0.11v0.11v0.12l-0.12,0.11H56h-0.12h-0.11l-0.34,0.23
	v0.11h-0.11l-0.34,0.23l-0.12,0.11v0.11v0.12v0.11h-0.11h-0.23H54.4l-0.23-0.11h-0.11v0.11v0.11l-0.12,0.12l-0.11,0.11h-0.11v0.11
	h-0.12v0.12h-0.11l-0.11-0.12h-0.12h-0.11v0.12h-0.11l-0.12,0.23l-0.23,0.23h-0.12h-0.11l-0.11-0.11l-0.12-0.23l-0.11-0.34
	l-0.12-0.23l-0.11-0.11l-0.11-0.11l-0.23,0.11v0.11v0.12h-0.11l-0.12,0.11l-0.11,0.11l0.23,0.23l0.11,0.11l0.11,0.34v0.23v0.11v0.12
	h-0.11h-0.11h-0.12h-0.11h-0.23l-0.23,0.11l-0.12-0.11l-0.23-0.12l-0.12-0.23h-0.57v0.11l-0.11,0.11l-0.11-0.11v0.92v0.11v0.11v0.12
	h-0.11l-0.11,0.11v0.11l0.11,0.23v0.11v0.34v0.11v0.11v0.12h-0.11h-0.11L49,70.31l-0.11-0.11l-0.23,0.11v0.12v0.11v0.11h-0.11v0.23
	h0.11V71v0.12v0.23v0.12v0.11h-0.11v-0.11v0.11h0.11h0.11v0.11l0.11,0.12v0.11v0.11v0.12v0.11H49v0.11h0.23h0.11h0.11h0.11h0.11
	v0.12v-0.12v0.12v0.11h0.11v0.11h-0.11h-0.11h-0.11v0.12h-0.11v0.11h-0.11v0.11l-0.11,0.23h0.11v0.11h-0.11h0.11v0.12v0.11v0.11
	v0.12h0.11v0.11v0.11v0.12v0.11v0.11l0.11,0.12v0.11l-0.11,0.11l-0.11-0.11v-0.11h-0.11v0.11H49v0.11v0.12v0.11h0.11v0.12l0.11,0.11
	h0.11v0.11v0.12v0.11h0.11v0.11v0.23l-0.11-0.11l-0.11,0.11h-0.11L49,76.05l-0.23,0.12h-0.11l-0.11,0.11h-0.23l-0.23-0.11h-0.11
	v0.11h-0.11v0.11v0.12l-0.11,0.11v0.11v0.12l-0.11,0.11v0.11v0.12v0.11l-0.11,0.11v0.12v0.11l-0.11,0.11v0.12V78l-0.11,0.11v0.12
	v0.11h-0.11l0.11,0.11h0.11v0.12h-0.11v0.11l0.11,0.11v0.12h0.11v-0.12h0.11l0.11,0.12h-0.11v0.11h0.11v0.11v0.12h-0.11v0.11v0.11
	v0.12H47.5h-0.11h-0.11v0.11v0.11l-0.11,0.12v0.11l-0.11,0.12h-0.11v0.11h-0.11H46.7v-0.11v-0.12l-0.11-0.11h-0.11v-0.12h-0.11h0.11
	v-0.11h0.11v-0.11V79.5l-0.11-0.11l-0.11-0.11v-0.12v-0.11v-0.11v-0.12h-0.11v-0.11h-0.12v-0.11h-0.11v0.11l-0.11-0.11v-0.12h-0.12
	h-0.11h-0.34v0.12v0.11v0.11v0.12v0.11v0.11v0.12H45.2v0.11h-0.12v0.11h-0.11v0.12v0.11v0.11h0.11v0.12v0.11h-0.11h-0.11h-0.12
	l-0.11,0.12v0.11h-0.11l-0.12,0.23l-0.11,0.23h-0.12h-0.23l-0.12-0.11l-0.11-0.11l-0.23-0.12l-0.11-0.11v-0.11v-0.12l-0.23-0.11
	l-0.11-0.12v-0.11v-0.11v-0.34v-0.12h-0.11v-0.11v-0.11v-0.12l-0.23-0.23v-0.12v-0.11v-0.23V78v-0.11v-0.12h-0.11l-0.23-0.23v-0.12
	l0.11-0.11V77.2l-0.11-0.12h-0.12l0.12-0.11v-0.11l-0.12-0.12l-0.11-0.11h-0.11v-0.11l-0.12,0.11v-0.11h-0.11h-0.11l-0.12,0.11
	h-0.11H41.3v0.11h-0.12l-0.11,0.23l-0.11,0.11h-0.12l-0.11,0.12h-0.11h-0.12h-0.11v-0.12h-0.12v-0.11h-0.11l-0.11-0.11v-0.12v-0.11
	v-0.11V76.4v-0.11v-0.11v-0.12v-0.11h0.11v-0.11v-0.12h-0.11h0.11v-0.11h0.11h0.12h0.23l-0.12-0.11v-0.12h-0.11h-0.12h-0.11h-0.11
	v0.12h-0.12H39.8v0.11h-0.11h0.11l-0.11,0.11h-0.12l-0.11,0.12h-0.11v0.11h-0.12h-0.11H39h-0.12l-0.11-0.11h-0.11v-0.12v-0.11
	l-0.12,0.11v-0.11h-0.11h-0.12l0.12,0.11h-0.12h0.12v0.12h-0.12v-0.12H38.2h-0.11v-0.11l-0.12-0.11h-0.11v-0.12h-0.11h-0.12h-0.11
	h-0.11h-0.12v0.12h-0.11v0.11v0.11h-0.11v-0.11h-0.12l0.12-0.11v-0.12v-0.11v-0.11v-0.12v-0.23v-0.11v-0.11v-0.23v-0.11l-0.12-0.23
	v-0.11v-0.23v-0.11h-0.11v-0.12h0.11h0.12v-0.11v-0.11v-0.23l-0.12-0.34l-0.11-0.57l-0.11-0.69l-0.12-0.69l-0.11-0.11v-0.23v-0.11
	l-0.12-0.11v-0.23l-0.11-0.34v-0.23v-0.11v-0.12l-0.11-0.23l-0.12-0.34v-0.12l-0.11-0.23v-0.12v-0.11v-0.11v-0.12l-0.11-0.11v-0.11
	v-0.12V67.2v-0.23l-0.12-0.11v-0.11v-0.23l-0.11-0.23v-0.23l-0.11-0.12v-0.11v-0.11V65.6l-0.12-0.11v-0.11h0.12v-0.12v-0.11v-0.11
	h-0.12v-0.11v-0.11v-0.11v-0.11l-0.11-0.11v-0.11h-0.11v-0.11V64.1l-0.12-0.23v-0.11l-0.11-0.23v-0.11V63.3v-0.23l-0.11-0.11
	l-0.23-0.69l-0.12-0.46l-0.11-0.46l-0.11-0.46l-0.12-0.11v-0.23l-0.11-0.23V60.2l-0.11-0.23v-0.23v-0.11v-0.23l-0.12-0.11v-0.11
	v-0.11v-0.23l-0.11-0.23v-0.23l-0.11-0.11v-0.23l-0.12-0.11v-0.23v-0.11l-0.11-0.23v-0.11v-0.11l-0.11-0.11v-0.23v-0.11v-0.11v-0.11
	l-0.12-0.34v-0.34l-0.11-0.11v-0.34l-0.11-0.34l-0.12-0.46l-0.11-0.34l-0.12-0.23v-0.11l-0.11-0.46v-0.12h-0.11v-0.11v-0.11h-0.12
	v-0.12v-0.11v-0.11h-0.11V52.5v-0.11v-0.11h-0.11v-0.12v-0.11h0.11v-0.11v-0.12v-0.11v-0.11v-0.12h0.11v-0.11v-0.11v-0.12h0.12
	v-0.11l0.11-0.11v-0.12v-0.11h0.11v-0.11v-0.12v-0.11V50.2h0.12v-0.12l0.11-0.11h0.12h0.11v0.11v0.12H32.8h-0.12v0.11v0.11v0.12
	h-0.11v0.11v0.11v0.12h0.11v0.11h-0.11v0.11v0.12h-0.12v0.11l0.12,0.11v0.12v0.11h0.11v0.11v0.12h0.12l0.23,0.11h0.23h0.11v-0.34
	v-0.11h-0.11v-0.12v-0.11h-0.11v-0.11v-0.12v-0.11v-0.11h-0.12v-0.12v-0.11v-0.11h0.12h0.11v-0.12h0.11h0.12h0.11l0.11-0.11h0.12
	l0.11-0.11h0.11v-0.12h0.12v-0.11v-0.11l0.11-0.12v-0.23V49.4l0.11-0.11v-0.12h-0.11h-0.11v-0.11v-0.11v-0.12h-0.12v-0.11v-0.11
	v-0.12v-0.11l0.12-0.23h-0.12v-0.11h-0.11h-0.11h-0.12V47.9H33.6v-0.12v-0.11v-0.11h0.11h0.12h-0.12v-0.12h0.12v-0.11h0.11h0.11
	h0.12v-0.11h0.11l0.11-0.12h0.12v-0.11v-0.11v-0.12v-0.11h0.11v-0.11v-0.12V46.3v-0.11v-0.12v-0.11v-0.11v-0.12l0.12-0.11v-0.11
	l-0.12-0.12v-0.11v-0.11v-0.12v-0.11h-0.11V44.8v-0.11l-0.12-0.11v-0.12v-0.11v-0.11v-0.12L34.29,44v-0.11v-0.12v-0.11v-0.23v-0.11
	v-0.11v-0.12l-0.11-0.23v-0.12V42.5v-0.12v-0.23l-0.12-0.12v-0.11v-0.11V41.7v-0.11v-0.11l-0.11-0.12v-0.11v-0.11l-0.11-0.12
	l-0.12-0.11l-0.11-0.11h-0.11v-0.12h-0.12h-0.11h-0.11v-0.11h-0.12v-0.11v-0.12v-0.11v-0.12v-0.11v-0.11v0.11h0.12v0.11h0.11v0.12
	h0.11h0.12h0.11h0.11h0.12l0.11-0.12h0.11h0.12v-0.11h0.11h0.11v-0.11l0.12-0.12h0.11v-0.11h0.12h0.11v-0.11h0.11l0.23-0.23
	l0.11-0.23v-0.11v-0.11h0.12V38.6v-0.11h0.11l0.11-0.12v-0.11v-0.11l0.12-0.12v-0.11v-0.11v-0.12v-0.23v-0.12v-0.11V37.1v-0.12
	v-0.11v-0.11l-0.12-0.23v-0.11V36.3v-0.11v-0.11l-0.11-0.12v-0.11v-0.11v-0.12l-0.11-0.11l-0.12-0.11l-0.11-0.12l-0.11-0.11v-0.11
	h0.11h0.11l0.12-0.12l0.11-0.11l0.23-0.23v-0.11h0.11v-0.12v-0.11v-0.11L36.01,34v-0.11v-0.11v-0.12v-0.11v-0.11v-0.12V33.2v-0.11
	v-0.12v-0.11v-0.11v-0.12v-0.11l-0.11-0.23v-0.23v-0.12v-0.11h0.11V31.7h0.12l0.11-0.12h0.11v-0.11h0.12v-0.11h0.11h0.12h-0.12h0.12
	h-0.12h0.12v-0.12v0.12h0.11v-0.12v-0.11v-0.11l0.11-0.12v-0.11v-0.11v-0.12l0.12-0.23V30.1l0.11-0.12l0.23-0.57v-0.12v-0.11
	l0.11-0.34v-0.11v-0.46v-0.23l0.11-0.23v-0.11l0.12-0.12h0.11l0.23-0.11v-0.11l0.11-0.12v-0.11v-0.11v-0.12v-0.23v-0.12l0.11-0.11
	h0.12V26.3h0.11v0.11h0.12V26.3l0.11-0.12h0.11v-0.11L39,25.96v-0.12h0.11v-0.23h0.11V25.5v-0.11v-0.11l0.12-0.12v-0.11h0.11
	l0.11-0.12v-0.11l0.12-0.11v-0.12v-0.11v-0.11h0.11v-0.12h0.11l0.12-0.11h0.11v-0.11h0.11v-0.12h0.12l0.11-0.11v0.11h0.12v0.12h0.11
	h0.11v0.11h0.12h0.11l0.34-0.11l0.11-0.23h0.12l0.23-0.11l0.12-0.12h0.23v-0.11v-0.11V23.2v-0.11h0.12l0.11-0.11h0.12h0.11v-0.12
	h0.11h0.12v0.12h0.11h0.11h0.12h0.11v0.11h0.11v0.11h0.12v0.12h0.11V23.2v-0.11H43.6v-0.11h-0.12v-0.12v-0.11h-0.11h-0.11
	l-0.23-0.11h-0.23l-0.23-0.12h-0.12h-0.11l-0.12-0.11l0.12-0.11v-0.12h0.11l0.12-0.11l0.11-0.11l0.11-0.12h0.12l0.11-0.11h0.11
	v-0.11h0.12h0.11v-0.12h0.11v-0.11l0.12-0.23h0.11v-0.11h0.11V20.9l0.12-0.12v-0.11v-0.11h0.11h0.11v-0.12l0.12,0.12h0.11h0.12
	v-0.12h0.11v-0.11h0.11l0.12-0.11l0.11-0.12h0.11l0.12-0.11h0.11h0.11v0.11h0.12v-0.11l0.11-0.12l0.11-0.11v-0.11v0.11h-0.11v0.11
	h-0.11v0.12h-0.12h-0.11v-0.12H45.2h0.11v-0.11v-0.11h0.11v-0.12h0.12v-0.11h-0.12v0.11v0.12h-0.11v0.11l-0.11,0.11h-0.12v0.12
	l-0.23,0.11h-0.12h-0.11h-0.11H44.4h-0.11h-0.12h-0.11v0.12h-0.11v0.11h-0.12v0.11h-0.11v0.12H43.6v0.11h-0.12l-0.11,0.11h-0.11
	v0.12h-0.12v0.11h-0.11v0.11h-0.11l-0.12,0.12h-0.11h-0.11h-0.12v0.11h-0.11v0.11h-0.12H42.1v0.12h-0.11v0.11h-0.12v0.11v0.12h-0.11
	v0.11l-0.11,0.11h-0.12h-0.11H41.3h-0.12h-0.11v-0.11h-0.11l-0.12-0.11h-0.11v-0.12h-0.11v-0.11v-0.11l-0.12-0.12l-0.23-0.11h-0.11
	v-0.11h-0.11v-0.12h0.11v-0.11l-0.11-0.11v-0.12l-0.12-0.11v-0.11H39.8v-0.12h-0.11l-0.12-0.11v-0.11V20.1v-0.11v-0.12v-0.11v-0.11
	h0.12v-0.12l0.11-0.11h0.11V19.3h0.12v-0.12h0.11v-0.11v-0.11v-0.12l0.11-0.11v-0.11h0.12v-0.12h0.11v-0.11h0.12v-0.11h0.11v-0.12
	h0.11h0.12v-0.11h0.11l0.11-0.11h0.12V17.8h0.11h0.11h0.12v-0.11h0.11v0.11v-0.11h0.11h0.12l-0.12,0.11v0.12V17.8h0.12v-0.11h0.11
	v0.11l0.11-0.11l0.12,0.11v-0.11h0.11l0.12,0.11l0.11-0.11h0.11v0.11l0.12,0.23v0.11l0.11,0.12h-0.11v0.11h0.11h0.11v-0.11h0.12
	v0.11h0.11h0.11v0.11h0.12h0.11l0.11,0.12h0.12h0.11l-0.11-0.12v-0.11v-0.11h0.11h0.11h-0.11v-0.12v0.12v-0.12h-0.11v-0.11h-0.12
	v-0.11h-0.11V17.8H43.6v-0.11h-0.12h-0.11v-0.11v-0.12h0.11v0.12v-0.12l0.12-0.11l0.11-0.11l0.11-0.12h0.23l0.11,0.12h0.12h0.11
	h0.23h0.11h0.12v-0.12h-0.12h-0.11h-0.11H44.4h-0.11L44.17,17h0.12v-0.11h0.11l0.12-0.12h0.11h0.11h0.12h0.11h0.11h-0.11v-0.11
	l-0.11-0.11v-0.12h-0.12l-0.11-0.11h-0.11H44.4v-0.11l-0.11,0.11h-0.12l-0.11-0.11h-0.11h-0.12h-0.11l-0.11,0.11h-0.12l-0.11,0.11
	v0.12v0.11h-0.11v0.11v0.12V17l-0.12,0.11h-0.11h-0.11V17l-0.12-0.11v-0.12v-0.11v-0.11l-0.11-0.12v-0.11v-0.11v-0.12l0.11-0.11
	h0.12l0.11-0.11h0.11h0.12h0.11h0.11h0.12h0.11v-0.12h0.11v-0.11v-0.11v0.11h-0.11v0.11H43.6h-0.12h-0.11h-0.11l-0.12-0.11
	l-0.11,0.11l-0.11-0.11h-0.12l-0.11,0.11l-0.11,0.12l-0.12,0.11h-0.11v0.11h-0.12h-0.23h-0.12l-0.11-0.11v-0.11v-0.12v-0.11v-0.11
	v-0.12h-0.11v-0.11v-0.11l-0.12-0.12h-0.11v-0.11v-0.12l0.11-0.11v-0.11h0.12v-0.12h-0.12h-0.11l-0.11,0.12h-0.12v-0.12v-0.11v-0.11
	l0.12-0.12v-0.11l0.11-0.11v-0.12H41.3h-0.12h-0.11v-0.11v-0.11l0.11-0.12l-0.11-0.11h-0.11v-0.11v-0.12v-0.11h0.11v-0.11v-0.12
	v-0.11v-0.11V12.4h-0.11v-0.11v-0.11v-0.12h-0.12v-0.11h-0.11l-0.11-0.11v-0.12l-0.12-0.11v-0.11h-0.11l-0.12-0.12l-0.11-0.11v-0.11
	l-0.11-0.12v-0.11v-0.11l-0.12-0.12l-0.11-0.11l-0.11-0.23l-0.12-0.23l-0.11-0.23V9.65V9.53L39.34,9.3V9.07l0.11-0.23V8.61
	l0.11-0.11V8.38V8.27l0.12-0.11l0.11-0.23l0.11-0.23l0.12-0.11h0.11V7.46h0.11h0.12v0.11h0.11v0.23h0.12v0.11h0.57l0.12-0.23h0.11
	h0.11h0.12v0.12h0.11v0.11v0.11l0.11,0.12l0.12,0.11l0.11,0.11l0.11,0.12h0.12l0.11,0.11h0.12l0.11,0.11h-0.11l0.11,0.12h0.11h-0.11
	v0.11v0.11v0.12h0.11V9.3v0.11h-0.11V9.3h-0.11v0.11v0.12h0.11v0.11V9.53v0.11h0.11v0.11h0.12v0.12h0.11h0.11h0.12v0.11h0.11v0.11
	l0.11,0.12h0.12v-0.12h0.11v0.12h0.11h0.12v0.11h0.11v-0.11l-0.11-0.12V9.88l-0.12-0.12V9.65h-0.11V9.53L43.6,9.42V9.3V9.19h-0.12
	V9.07V8.96l-0.11-0.11V8.73V8.61h-0.11V8.5l-0.12-0.12h-0.11h-0.11h-0.12V8.27l-0.11-0.11V8.04h0.11V7.92l-0.11-0.11V7.69V7.58V7.46
	V7.12h-0.11L42.33,7L42.1,6.89h-0.23l-0.23-0.11l-0.23-0.12L41.3,6.54l-0.12-0.11V6.31V6.2l0.12-0.11l0.23-0.12l0.12-0.23l0.46-0.23
	V5.39l0.23-0.23V5.05l0.11-0.12l0.12-0.23l0.11-0.11V4.36V4.25V4.13V4.02V3.9h0.11h0.12v0.11l0.23,0.23l0.12,0.11l0.11,0.12h0.11
	v0.11l0.23,0.11h0.11h0.12h0.11h-0.11V4.59h-0.23H43.6l-0.12-0.11V4.36V4.25l0.12-0.11l0.11-0.12V3.9V3.79V3.67H43.6l-0.12-0.11
	v0.11h0.12l0.11,0.12V3.9H43.6v0.11h-0.12v0.12l-0.11-0.12V3.9l-0.11-0.11l-0.12-0.12l-0.11-0.11h-0.23h-0.11h-0.11l-0.12,0.11
	h-0.11V3.56V3.44V3.33h0.11V3.21h0.12V3.1h0.11h0.11l0.12-0.12V2.87h0.11v0.11h0.11V3.1l0.23-0.12V2.87V2.64l0.11-0.34V2.18V1.95
	l0.12-0.11V1.6V1.49V1.37V1.14V1.03l0.11-0.23V0.68h0.11V0.57h0.12V0.45V0.34l0.11-0.12l0.11-0.11h0.12v-0.12l0.11-0.11v-0.23v-0.46
	h0.12l0.11-0.11h0.11h0.12l0.11-0.12h0.11h0.12h0.11v0.12h0.11l0.12,0.11h0.11v0.11l0.11,0.12v0.11l0.12,0.11h0.11h0.11l0.12-0.11
	h0.11h0.11h0.11l0.11-0.11h0.11h0.11v-0.12h0.23h0.11l0.11-0.11h0.11v-0.11h0.11v-0.12h0.11l0.11-0.11h0.11h0.23v0.11h0.11
	l0.11,0.12h0.11v0.11h0.11v0.11v0.12h0.11V-0.46z"/>
</svg>
