<?xml version="1.0" encoding="utf-8"?>
<!-- Generator: Adobe Illustrator 24.2.1, SVG Export Plug-In . SVG Version: 6.00 Build 0)  -->
<svg version="1.1" id="Layer_1" xmlns="http://www.w3.org/2000/svg" xmlns:xlink="http://www.w3.org/1999/xlink" x="0px" y="0px"
	 viewBox="0 0 97.23 97.23" style="enable-background:new 0 0 97.23 97.23;" xml:space="preserve">
<style type="text/css">
	.st0{fill-rule:evenodd;clip-rule:evenodd;fill:#1D1D1B;}
</style>
<path class="st0" d="M86.05,58.71v0.21l0.21-0.21h0.21h0.21l0.21,0.21v0.21v0.21v0.21v0.41l0.21,0.21l0.21,0.41v0.41l0.21,0.21
	L87.3,61.4l0.21,0.62v0.21l-0.21,0.41v0.21v0.21v0.21l0.21,0.21v0.21v0.21h0.21v0.21v0.21v0.21l-0.21,0.21v0.21v0.21h0.21v0.21v0.21
	v0.21v0.21l-0.21-0.21H87.3v0.21v0.21v0.21v0.21v0.21V67v0.21v0.21h0.21v0.21v0.21h0.21h0.21v0.21h0.21h0.21l0.62,0.21l0.21,0.21
	l0.41,0.41l0.21,0.21l0.21,0.41l0.21,0.21l0.21,0.21h0.21l0.21,0.21h0.21v0.21v0.21v0.21v0.21v0.21l-0.21,0.21v0.21v0.21v0.21v0.21
	v0.21v0.21v0.21v0.21h-0.21v0.21h-0.21H90.2h-0.21l-0.21,0.21h-0.21h-0.21v0.21h-0.41v0.21l-0.21,0.21v0.21v0.21l-0.21,0.21
	l0.21,0.21l-0.21,0.21v0.21h-0.21v0.21h-0.21v0.21l-0.21-0.21l-0.21-0.21l-0.21-0.41H87.3l-0.41-0.21l-0.21-0.21l-0.21-0.21
	l-0.21-0.21l-0.21-0.21v-0.21v-0.41v-0.21V72.8V72.6v-0.21v-0.21v-0.21v-0.21l-0.21-0.21v-0.21h-0.21l-0.21-0.21v-0.21v-0.21
	l0.21-0.21v-0.21v-0.21V69.9v-0.21h-0.21v-0.21v-0.21v-0.21v-0.21v-0.21v-0.21l0.41-0.21v-0.21l0.21-0.21l-0.21-0.21l-0.21,0.41
	h-0.21l-0.21,0.21h-0.21v-0.21l-0.21-0.21v-0.21l-0.21-0.21L84.4,67l-0.41-0.62l-0.21-0.21l-0.41-0.41l-0.21-0.21v-0.21h-0.21
	l-0.21-0.21h-0.21v-0.21h-0.21v-0.21h-0.21h-0.21v-0.41V64.1h0.21h0.21h0.21h0.21h0.21v0.21h0.21h0.21h0.21v0.21v0.21h0.21v0.21
	v0.21v-0.21v-0.21v-0.21v-0.21h-0.21V64.1h-0.21h-0.21h-0.21l-0.21-0.21h-0.21v-0.21l0.21-0.21v-0.21v-0.21l0.21-0.21l0.21-0.41
	l0.21-0.21l0.21-0.41l-0.21-0.41V61.2v-0.21v-0.21v-0.21h0.21v-0.21h0.21l0.21-0.21v-0.21h0.21v-0.21l0.21,0.21h0.21h0.21l0.21-0.21
	l0.21-0.21v-0.21l0.21-0.21v-0.21h0.21v-0.21h0.21H86.05L86.05,58.71z M85.64,47.31V47.1v-0.21l-0.21-0.21h-0.21v-0.21h-0.21h-0.21
	l-0.41,0.21v0.21v0.21v0.21v0.21l-0.21,0.41l-0.21,0.21h-0.21l-0.21,0.21h-0.21h-0.21l-0.41,0.21h-0.41h-0.21h-0.21H81.7h-0.21
	h-0.21v0.21h-0.21h-0.21h-0.21h-0.21v0.21h-0.21l-0.21,0.21v0.21v0.21v0.21h0.21V50v0.21l-0.21,0.21v0.21v0.21l0.21,0.21v0.21h0.21
	l0.21,0.21v0.21v0.21v0.21h-0.21h-0.21v0.21h-0.21v0.21v0.21v0.21v0.21v0.21v0.21v0.21v0.21v0.21v0.21v0.41v0.21v0.21v0.21v0.21
	l-0.21,0.21h0.21v0.21l0.21,0.21v-0.21l0.21-0.21V55.6l0.21-0.21v-0.21h0.21l0.21,0.21l0.21,0.21v0.21h0.21v0.21v0.21v0.21v0.21
	l-0.21,0.21v0.21l-0.21,0.21l-0.41-0.21l-0.21,0.21l-0.21-0.21l-0.21,0.21v-0.21l-0.21-0.21h-0.21h-0.21v0.21v0.62v0.21v0.21v0.21
	v0.41v0.21v0.41v0.21l-0.21,0.21l-0.21,0.41l-0.21,0.41v0.21l-0.21,0.41v0.21l-0.21,0.21v0.21v0.21v0.21v0.21v0.21v0.21v0.21
	l0.21,0.21v0.21v0.21v0.21v0.21v0.21l0.21,0.21h0.21v0.21h0.21h0.21h0.21h0.21h0.21l0.21,0.21h0.21h0.21h0.21h0.21v-0.21h0.21h0.21
	h0.21h0.21v-0.21v-0.21L81.7,64.1v-0.21v-0.21v-0.21l-0.21-0.21v-0.21v-0.21h0.21h0.21l-0.21-0.21v-0.21v-0.21l-0.21-0.21h0.21
	v-0.41l-0.21-0.21v-0.41v-0.21v-0.21l-0.21-0.21l0.21-0.21v-0.21v-0.21v-0.21v-0.21l0.21-0.21l0.21-0.21h0.21v-0.21V58.5h0.41h0.21
	h0.21h0.21h0.21v-0.21l0.21-0.21v-0.21v-0.21l-0.21-0.21v-0.21v-0.21v-0.21v-0.21v-0.21v-0.21v-0.21v-0.21V55.6l0.21-0.21v-0.21
	h0.21v-0.21h0.21v-0.21h0.21v-0.21l-0.21-0.21l-0.21-0.21v-0.21v-0.21v-0.21h-0.21v-0.21h0.21v-0.21v-0.21V52.7v-0.21v-0.21v-0.21
	v-0.21v0.21h-0.21h-0.21v0.21h-0.21h-0.21h-0.21h-0.21l-0.21-0.41v-0.21l-0.21-0.41l-0.21-0.62v-0.41V50l0.41-0.21v-0.21v-0.21
	v-0.21l1.87-0.21h0.41h0.21v-0.21l0.21-0.21v-0.21v-0.21l0.21-0.21v-0.21l-0.21-0.21l0.21-0.21h0.21H85.64L85.64,47.31z M25.53,0.05
	v-0.21h-0.21v0.21h-0.21h-0.21L24.7,0.26h-0.21v0.21h-0.21h-0.21h-0.21v0.21h-0.21h-0.21h-0.21h-0.21h-0.21V0.47h-0.21h-0.41h-0.21
	H21.8l-0.21,0.21V0.47h-0.21V0.26h-0.21v0.21V0.26h-0.21h-0.21h-0.21h-0.21l-0.21,0.21v0.21v0.21h-0.21h-0.21h-0.21V0.68h-0.21
	L19.1,0.88H18.9h-0.21V0.68h-0.21h-0.21v0.21h-0.21l-0.21,0.21l-0.21-0.21h-0.21V0.68h-0.21V0.47h-0.21V0.26h-0.21v0.21h-0.21h-0.21
	V0.26H16.2L16,0.47h-0.21v0.21H16v0.21h-0.21h-0.21v0.21h-0.21V1.3V1.5h-0.21v0.21h0.21h0.21v0.21h-0.21h-0.21v0.21h-0.21v0.21
	l-0.21,0.21v0.21v0.21h-0.21v0.21v0.21h-0.21v0.21h-0.21l-0.21,0.21h-0.21v0.21h-0.21V4.2L13.3,4.41h-0.21V4.2h-0.21h-0.21h-0.21
	h-0.21v0.21h-0.21V4.2h-0.21l-0.21-0.21V3.78v0.21h-0.21h0.21h-0.21V4.2V3.99h-0.21V3.78v0.21h-0.21h-0.21V4.2h-0.21H10.4h-0.21
	H9.98H9.78L9.57,4.41H9.36H9.16V4.2V3.99H8.95V4.2H8.74H8.53v0.21H8.33H8.12H7.91H7.7L7.5,4.61v0.21v0.21L7.29,5.23L7.5,5.44H7.7
	v0.21h0.21v0.21l0.21,0.21v0.21H7.91v0.21h0.21h0.21h0.21v0.21h0.21h0.21l0.21-0.21v0.21h0.21v0.21h0.21V7.1v0.21h0.21v0.41v0.21
	v0.21v0.21h0.21h0.21v0.21v0.21h0.21v0.41v0.21v0.21v0.21V10v0.21v0.21l0.21,0.41l0.21,0.21h0.21l0.21,0.21v0.21l0.21,0.21h0.21
	v0.21l0.21,0.21v0.21l0.21,0.21v0.21v0.41v0.21h-0.21h-0.21l-0.21,0.21v0.21v0.21v0.21h0.21v0.21h0.21v0.21h-0.21v0.21v0.21h0.21
	v0.21h0.21h0.21l0.21,0.21v0.21l0.21,0.21l0.21,0.21h0.21h0.21h0.21v0.21v0.21H13.3v0.21v0.21l0.21,0.21v0.21v0.21h0.21v0.21h0.21
	v0.21h0.21v0.21l-0.21,0.21v0.21l-0.21,0.21v0.21l-0.21,0.21l0.21,0.21v0.21v0.21v0.21v0.21l0.21,0.21v0.21v0.21h0.21v0.21v0.21
	l-0.21,0.21v0.21l0.21,0.21v0.21v0.21v0.21v0.21v0.21v0.21v0.21h0.21l0.21,0.21h0.21h0.21h0.21v0.21h0.21h-0.21v0.21h0.21v0.21v0.21
	l0.21,0.21l0.21,0.21H16v0.21h0.21v0.21h0.21h0.21v0.21h0.21l0.21,0.21h0.21h0.21h0.21v0.21v0.21v0.21l-0.21,0.21v0.21h0.21
	l0.21,0.21V27l-0.21,0.21v0.21v0.21v0.21v0.21v0.21l-0.21,0.21v0.21l-0.21,0.21v0.21v0.21l-0.21,0.21h-0.21h-0.21h-0.21v0.21h0.21
	v0.21h-0.21H16.2H16h-0.21h-0.21h-0.21l-0.21-0.21h-0.21l-0.21,0.21h-0.21h-0.21h-0.41h-0.21v0.21h0.21h0.21v0.21h0.21l0.21,0.21
	h0.21l0.21,0.21h0.21v0.21v0.21h0.21v0.21v0.21v0.21l0.21,0.21h0.21v0.21H16v0.21h0.21h0.21v0.21h0.21h0.21v0.21h-0.21h-0.21v0.21
	v0.41v0.21H16.2v0.21v0.21H16l-0.21,0.21v0.21l-0.21,0.41v0.21v0.21l0.21,0.21h-0.21v0.21l-0.21,0.21v0.21v0.21l-0.21,0.21h0.21
	v0.21v0.21v0.21h0.21v0.21h0.21L16,37.57l0.21,0.21l0.21,0.21v0.21h0.21l0.21,0.21h0.21l0.21,0.21v0.21l0.21,0.21v0.21l0.21,0.21
	v0.21h0.21l0.21,0.21v0.21l0.21,0.21v0.21l0.21,0.21h0.41v0.21l0.21,0.21h0.21v0.21h0.21h0.21v0.21h0.21v0.21v0.21v0.21v0.21v0.21
	l-0.21,0.21l-0.21,0.21l-0.21,0.21l-0.21,0.21v0.21v0.21v0.21H18.9v0.21l-0.21,0.21l-0.21,0.21h-0.21l-0.21,0.21h-0.21l0.21,0.21
	v0.21v0.21v0.21v0.21v0.21h0.21l0.21,0.21v0.21h0.21l0.21,0.21h0.41l0.21,0.21h0.21v0.21v0.21h0.21h0.21l0.21,0.21h0.21v0.21h0.21
	v0.41h0.21v0.21l0.21,0.21l0.21,0.21l0.21,0.21l0.21,0.21v0.21h0.21v0.21v0.21V50H21.8l-0.21,0.21v0.21v0.21l-0.21,0.21v0.21v0.21
	v0.21l0.21,0.21l0.21,0.21h0.21h0.21v0.21h0.21l0.21,0.21v0.21l0.21,0.41v0.21h0.21v0.21v0.21h-0.21v0.21v0.21h0.21v0.21v0.21v0.21
	h0.21h0.21v0.21h0.21v0.21l0.21,0.21h0.21v0.21l0.21,0.21v0.21v0.21v0.21v0.21h0.21l0.21,0.21h0.21v0.21v0.21v0.21v0.21h0.21
	l0.21,0.21h0.21h0.21l0.21,0.21v0.21l0.21,0.21v0.21v0.21l0.21,0.21l0.21,0.21l0.21,0.21v0.21l0.21,0.21l0.21,0.21l0.21,0.21
	l0.21,0.21v0.21l0.21,0.21v0.21v0.21v0.21v0.21l0.21,0.41l-0.21,0.21v0.21v0.21l-0.21,0.21l-0.21,0.21l-0.21,0.21v0.21v0.21v0.21
	l0.21,0.21v0.21l0.21,0.21h0.21h0.21v0.21l0.21,0.21v0.21v0.21v0.21v0.21l-0.21,0.21v0.21v0.21l0.21,0.21v0.21L28.02,67v0.21v0.21
	l0.21,0.21v0.21v0.21l0.21,0.21l0.21,0.21l0.21,0.21h0.21v0.21h0.21h0.21l0.21,0.21h0.21l0.21,0.21h0.21h0.21h0.21h0.21h0.21h0.21
	h0.21h0.21h0.21h0.21h0.21v0.21v0.21v0.21v0.21v0.21v0.21v0.21v0.21v0.21v0.21l0.21,0.21v0.21v0.21v0.21v0.21v0.21v0.21v0.21v0.21
	v0.21v0.21v0.21v0.21l0.21,0.21v0.21v0.21l0.21,0.21v0.21h0.21v0.21v0.21v0.21l-0.21,0.21v0.21h-0.21v0.21v0.21v0.21h-0.21
	l-0.21,0.21h-0.21v0.21h-0.21v0.21l-0.21,0.21v0.21v0.21v0.21h-0.21v0.21h0.21v0.21v0.21h0.21v0.21h0.21v0.21h0.21v0.21h-0.21v0.21
	h0.21h0.21v0.21l0.21,0.21v0.21l0.21,0.21v0.21v0.21h0.21v0.21v0.21h0.21v0.21v0.21h0.21h-0.21v0.21v0.21H33.2v0.21h0.21v0.21
	l0.21,0.41v0.21l0.21,0.21h0.21h0.21h0.21l0.21,0.21h0.21v0.21V84v0.21l-0.21,0.21v0.21h-0.21v0.21v0.21v0.21l0.21,0.21l0.21,0.21
	v0.21v0.21h-0.21v0.21l0.21,0.21l0.21,0.21v0.21v0.21v0.21v0.21h0.21h0.21l0.21,0.21h0.21h0.21v0.21v0.21v0.21v0.21l0.21,0.21v0.21
	v0.21v0.41l0.21,0.21v0.21h0.21l0.21,0.21h0.21h0.21v0.21v0.21h0.21v0.21h0.21h0.21v0.21l0.21,0.41l0.21,0.62l0.21,0.41l0.21,0.41
	v0.21L39,93.32l0.41,0.41l0.21,0.21l0.21,0.21l0.21-0.21v0.21h0.21v0.21h0.21h0.21h0.21h0.21v0.21h0.21h0.21h0.21v0.21h0.21h0.21
	v0.21h0.21h0.21l0.21,0.21l0.21,0.21v0.21h0.21v0.21l-0.21,0.41v0.21v0.21h0.21v0.21l0.21-0.21l0.21-0.41v-0.21l0.21-0.21V95.6h0.21
	V95.4h0.21h0.21v-0.21v-0.41v-0.21h0.21v-0.21h0.21l0.21,0.21h0.21h0.21h0.21v0.21v-0.21h0.21l0.21-0.21h0.21l0.21,0.21h0.21v0.21
	l0.21-0.21h0.21h0.21h0.21h0.21v-0.21v-0.21v-0.21l-0.21-0.21v-0.21v-0.21l0.21-0.21v-0.21H47.5h-0.21V92.7h-0.21v-0.21v-0.21
	l0.21-0.21v-0.21v-0.21l0.21-0.21v-0.21h-0.21v-0.21h0.21h0.21h0.21h0.21v-0.21v-0.21h0.21l0.21-0.21l0.21-0.21v-0.21h0.21h0.21
	h0.21h0.21h0.21h0.21l0.21-0.21h0.21h0.21h0.21v-0.21h0.21h0.21v-0.21h0.21v-0.21v-0.21h0.21v-0.21l0.21,0.21v-0.21h0.21v-0.21h0.21
	v-0.21h0.21v-0.21v0.21v-0.21h0.21h0.21v-0.21h0.21v-0.21h0.21h0.21v-0.21h0.21h0.21v0.21h0.21v-0.21v0.21h0.21v-0.21v0.21h0.21
	h0.21h0.21v0.21v0.21h0.21v0.21h0.21h0.21v0.21v-0.21v0.21h0.21H56v0.21v0.21l0.21,0.21v0.21v-0.21h0.21h0.21v0.21h0.21v-0.21v0.21
	h0.21v0.21h0.21v-0.21l0.21,0.21h0.21v-0.21h0.21l0.21,0.21v-0.21h0.21h0.21v0.21v0.21h0.21v-0.21h0.21v-0.21h0.21v-0.21v-0.21h0.21
	h0.21v-0.21h0.21v-0.21v-0.21h0.21h0.21h-0.21v-0.21h-0.21v-0.21h0.21h0.21h-0.21v-0.21h0.21h0.21v-0.21l0.21-0.21V87.1V86.9v-0.21
	h0.21h0.21h-0.21v-0.21h0.21h0.21v0.21v-0.21h0.21h0.21h0.21v-0.21v0.21h0.21v-0.21h0.21h0.21l0.21-0.21v-0.21h0.21h0.21v-0.21h0.21
	h0.21v0.21h0.21l0.21-0.21h-0.21h0.21v-0.21h0.21h0.21h0.21h0.21v-0.21l0.21-0.21h0.21v0.21h0.21h0.21v-0.21h0.21v-0.21l0.21-0.21
	h0.21h0.21v-0.21h0.21h0.21V84.2v0.21h0.21h0.21h0.21V84.2h0.21h0.21h0.21l0.21,0.21h0.21h0.21h0.21h0.21V84.2h0.21L69.47,84v-0.21
	h0.21v-0.21h0.21h0.21h0.21h0.21v0.21h0.21h0.21h0.21v-0.21h0.21h-0.21l0.21-0.21h0.21v-0.21h0.21h0.21h0.21l0.21,0.21h0.21
	l0.21,0.21H73l0.21-0.21v-0.21l0.21-0.21v-0.21h0.21l0.21-0.21v-0.21h0.21v-0.21v0.21v-0.21h0.21h0.21h0.21h0.21h0.21h0.21h0.21
	v0.21h0.21h0.21l0.21,0.21h0.21l0.21-0.21l0.21-0.21v-0.21h0.21v-0.21v-0.21h0.21h-0.21h0.21V81.3h0.21v-0.21v-0.21v-0.21h0.21
	v-0.21v-0.21h0.21h-0.21v-0.21h0.21v-0.21h0.21v-0.21h0.21v-0.21h0.21v0.21v-0.21h0.21h0.21h0.21h0.21v-0.21h0.21v-0.21h0.21v-0.21
	h0.21h0.21v-0.21V78.4v-0.21h0.21v-0.21h0.21v-0.21h0.21v-0.21h0.21v-0.21v-0.21v-0.21v-0.21l-0.21-0.21v-0.21v-0.21l0.21-0.21
	h-0.21V75.7V75.5h0.21v-0.21v-0.21v-0.21v-0.21v-0.21h0.21h0.21h0.21h0.21v-0.21v-0.21v-0.21l0.21-0.21v-0.21v-0.21h0.21h0.21
	l0.21-0.21v0.21h0.21v-0.21V72.8h0.21v0.21h0.21V72.8h-0.21V72.6v-0.21h-0.21v-0.21v-0.21v-0.21l0.21-0.41l0.21-0.21h0.21l0.21-0.21
	h0.21h0.21h0.21v-0.21h0.21h0.21h0.21v-0.21v-0.21l0.21-0.21V69.9l0.21-0.21l-0.21-0.83l-0.41-1.24l-0.21-0.21v-0.21L84.19,67
	l-0.21-0.21l-0.21-0.21l-0.21-0.41l-0.21-0.21l-0.21-0.21h-0.21h-0.41h-0.21h-0.41v0.21H81.7h-0.21h-0.21h-0.21h-0.41l-1.04-0.21
	v-0.21h-0.21v-0.21v-0.21v-0.21h-0.21h-0.21h-0.41l-0.21,0.21h-0.21l-0.21,0.41l-0.21,0.62v0.41h-0.21h-0.21v0.21h-0.21h-0.21h-0.21
	h-0.41H76.1H75.9v-0.21v-0.21l-0.21-0.21v-0.41v-0.21v-0.41v-0.21l-0.21-0.21l-0.21-0.21h-0.21l-0.21-0.21l0.21-0.21h-0.21h-0.21
	h-0.41l-0.21-0.21l-0.21-0.41l-0.41-0.41l-0.21-0.41v-0.41l-0.41-0.41l-0.21-0.41l-0.41-0.21l-0.21-0.21h-0.62h-0.41h-0.21
	l-0.21-0.21v-0.41v-0.21l-0.21-0.21v-0.21v-0.41l-0.21-1.04l-0.21-0.62l-0.21-0.62l-0.41-0.41l-0.41-0.41l-0.41-0.62l-0.62-1.24
	l-0.62-1.24l-0.41-2.07V49.8v-0.21v-1.04v-0.83v-0.21h-0.41l-0.41,0.41l-0.21,0.41h-0.62l-0.62-0.21l-0.21-0.41l-0.41-0.62
	l-0.41-0.41l-0.83-0.41l-0.41-0.21v-0.21l-0.21-0.21l-0.21-0.21l-0.21,0.41l-0.41-0.21l-0.21-0.83v-0.41l-0.21-0.41v-1.04
	l-0.62-2.69v-0.41l0.21-0.62l-0.41-0.62h-0.21l-0.21-1.04l-1.04-3.73v-0.21v-0.21l-0.21-0.41V32.8l0.21-0.21l0.21-0.21h0.21v-0.21
	h-0.21l-0.21-0.21l-0.21-0.21l-0.21-0.21v-0.21v-0.21l-0.83-3.94v-4.15v-2.9l-0.21-0.41l0.41-0.41l1.87-1.04l0.62-0.41h0.21v-0.21
	l0.21-0.21v-0.21h0.21l0.21-0.21h0.21l0.21-0.21v-0.21h0.21v-0.21h0.21h0.21v-0.21h0.21h0.21l0.21-0.21h0.21v-0.21V15.6h0.21
	l0.21-0.21h0.41v-0.21v-0.21l0.21-0.21v-0.21h0.21l0.21-0.21v-0.21v-0.21v-0.21h-0.41h-0.21l-0.21-0.21h-0.21v-0.21v-0.21h-0.21
	v0.21h-0.21h-0.21v-0.21h-0.21V12.9h-0.21H61.8L61.6,12.7v-0.21v-0.21h0.21v-0.21v-0.21v-0.21H61.6v-0.21l-0.21-0.21v-0.21h-0.21
	h-0.21v-0.21h-0.21l-0.21-0.21h-0.21h-0.21h-0.21l-0.21-0.21h-0.21h-0.21h-0.21l-0.21-0.21h-0.21h-0.21V10h-0.21h-0.21h-0.21h-0.21
	h-0.21h-0.21h-0.21h-0.21l-0.21,0.21h-0.21l-0.21,0.21H56v0.21h-0.21h-0.21v0.21h-0.21v0.21v0.21h-0.21h-0.21v-0.21v-0.21l0.21-0.62
	l0.21-0.41l0.21-0.41V8.76l0.21-0.21V8.34L56,7.93V7.72V7.31V7.1h0.21V6.89V6.69V6.27V6.06V5.44l0.21-0.41V4.82V4.61V4.41V4.2
	l0.21-0.21V3.78V3.58V3.37V3.16V2.96V2.75h0.21h-0.21h-0.41l-0.62,0.21l-0.83,0.21h-1.04l-0.83,0.21h-0.62l-0.83,0.21h-0.21
	l-0.62,0.41L49.99,4.2l-0.21,0.21l-0.62,0.21l-0.41,0.41l-0.41,0.21v0.21v0.21v0.21h-0.21v0.21V5.86v0.21h-0.21h-0.21V5.86H47.5
	h-0.21v0.21h-0.21h-0.21v0.21h-0.21v0.21h-0.21h-0.21h-0.21h-0.21h-0.21h-0.21v0.21h-0.21V6.48V6.27h-0.21V6.06h-0.21H44.6
	l-0.21-0.21h-0.21V5.65h-0.21h-0.21l-0.21-0.21h-0.21h-0.21h-0.21h-0.21V5.23h-0.21h-0.41L41.7,5.03h-0.21l-0.21-0.21h-0.21
	l-0.21-0.21h-0.21h-0.21h-0.21h-0.21l-0.21-0.21h-0.21h-0.21h-0.21L39,4.2H38.8h-0.21V3.99h-0.21h-0.21V3.78h-0.21V3.58h-0.21V3.37
	h-0.21h-0.21V3.16l-0.21-0.21l-0.21-0.41l-0.62-0.62L35.89,1.3l-0.21-0.21l-0.21-0.21l-0.62-0.21l-0.83-0.41h-0.62H33.2h-0.21h-0.21
	h-0.21h-0.21v0.21h-0.21h-0.21h-0.21V0.26l-0.21,0.21h-0.21h-0.21h-0.21h-0.21v0.21L30.5,0.88L30.3,1.09h-0.21h-0.21h-0.21
	l-0.21-0.21h-0.21h-0.21V0.68h-0.21l-0.21-0.21l-0.21-0.21V0.05h-0.21h-0.21v-0.21h-0.21H27.6v0.21H27.4h-0.21h-0.21h-0.21h-0.21
	l-0.21,0.21l-0.21-0.21h-0.21v0.21h0.21h-0.21h-0.21h-0.21V0.05z"/>
</svg>
