<?xml version="1.0" encoding="utf-8"?>
<!-- Generator: Adobe Illustrator 24.2.1, SVG Export Plug-In . SVG Version: 6.00 Build 0)  -->
<svg version="1.1" id="Layer_1" xmlns="http://www.w3.org/2000/svg" xmlns:xlink="http://www.w3.org/1999/xlink" x="0px" y="0px"
	 viewBox="0 0 97.23 97.23" style="enable-background:new 0 0 97.23 97.23;" xml:space="preserve">
<style type="text/css">
	.st0{fill-rule:evenodd;clip-rule:evenodd;fill:#1D1D1B;}
</style>
<polygon class="st0" points="96.85,71.36 96.61,71.36 96.61,71.6 96.38,71.6 96.14,71.6 95.91,71.83 95.67,71.83 95.67,72.07 
	95.44,72.07 95.2,72.3 94.97,72.3 94.73,72.54 94.5,72.54 94.26,72.54 94.03,72.54 93.79,72.54 93.56,72.54 93.32,72.54 93.09,72.3 
	92.85,72.3 92.62,72.3 92.38,72.07 92.15,72.07 91.91,72.07 91.68,72.07 91.44,72.07 91.21,72.07 90.97,72.07 90.74,72.07 
	90.5,72.07 90.04,72.07 90.04,71.83 89.8,71.83 89.57,71.83 89.33,71.83 89.1,71.83 88.86,71.6 88.63,71.36 88.63,71.13 
	88.63,70.89 88.63,70.66 88.63,70.42 88.63,70.19 88.39,70.19 88.16,70.19 87.92,70.19 87.92,69.95 87.92,69.72 87.92,69.48 
	88.16,69.48 88.16,69.25 87.92,69.01 87.69,69.01 87.45,69.01 87.45,68.78 87.22,68.78 87.22,68.54 86.98,68.54 86.98,68.31 
	86.75,68.07 86.75,67.84 86.51,67.14 86.04,66.43 86.04,66.2 86.04,65.96 86.04,65.73 85.81,65.73 85.57,65.49 85.34,65.49 
	85.1,65.73 84.87,65.73 84.63,65.73 84.63,65.49 84.4,65.49 84.16,65.26 84.16,65.02 83.93,64.79 84.16,64.32 84.16,64.08 
	84.16,63.85 83.93,63.61 83.93,63.38 83.69,63.61 83.69,63.85 83.69,64.08 83.69,64.32 83.69,64.55 83.69,64.79 83.46,64.79 
	83.22,65.02 82.99,65.02 82.99,64.79 82.75,64.79 82.75,64.55 82.75,64.32 82.99,64.32 83.22,64.32 83.22,64.08 83.22,63.85 
	82.99,63.85 82.99,63.61 82.75,63.61 82.75,63.85 82.52,64.08 82.52,64.32 82.28,64.32 82.05,64.32 81.82,64.32 81.58,64.32 
	81.58,64.08 81.58,63.85 81.58,63.61 81.35,63.61 81.35,63.85 81.11,63.85 80.88,63.85 80.88,64.08 80.64,64.08 80.41,63.85 
	80.41,64.08 80.17,64.08 80.17,64.32 80.17,64.55 79.94,64.79 79.7,65.02 79.47,65.02 79.23,65.02 79,65.02 78.76,64.79 
	78.53,64.79 78.29,64.79 78.06,64.79 77.82,64.79 77.59,64.79 77.35,64.79 77.35,65.02 77.12,65.02 76.88,65.26 76.88,65.49 
	76.65,65.49 76.41,65.73 76.41,65.96 76.41,66.2 76.41,66.43 76.41,66.67 76.41,66.9 76.41,67.14 76.18,67.37 76.18,67.6 
	76.18,67.84 75.94,68.07 75.94,68.31 76.18,68.54 76.41,68.78 76.41,69.01 76.65,69.25 76.88,69.25 77.12,69.48 77.59,69.72 
	77.82,69.72 78.06,69.72 78.29,69.95 78.29,70.19 78.53,70.42 78.76,70.42 78.76,70.66 79,70.66 79,70.89 79.23,70.89 79.23,71.13 
	79.23,71.36 79,71.6 78.76,71.83 78.76,72.07 79,72.3 79,72.54 79,72.77 78.76,72.77 78.76,73.01 78.53,73.01 78.29,73.01 
	78.06,73.24 77.82,73.48 77.82,73.71 77.59,73.95 77.35,74.18 77.12,74.42 76.65,74.42 76.41,74.42 76.18,74.42 76.18,74.65 
	75.94,74.65 75.71,74.65 75.47,74.89 75.24,74.89 75,75.12 74.77,75.12 74.3,75.12 74.06,75.12 73.83,74.89 73.59,74.65 
	73.36,74.65 73.12,74.65 72.89,74.42 72.66,74.42 72.42,74.42 72.19,74.42 71.95,74.42 71.48,74.42 71.25,74.42 71.01,74.42 
	70.78,74.42 70.54,74.18 70.31,73.95 70.07,73.71 70.07,73.48 69.84,73.24 69.84,73.01 69.84,72.77 69.6,72.54 69.6,72.3 
	69.37,72.07 68.9,71.83 68.66,71.6 68.43,71.6 68.43,71.36 68.43,71.13 68.66,70.89 68.9,70.66 68.9,70.42 68.9,70.19 68.9,69.95 
	68.9,69.72 68.66,69.72 68.66,69.48 68.43,69.48 68.19,69.25 67.96,69.01 67.72,68.78 67.72,68.54 67.49,68.54 67.49,68.31 
	67.49,68.07 67.25,68.07 67.02,68.07 66.78,68.07 66.78,67.84 66.55,67.84 66.31,67.84 66.08,67.84 66.08,68.07 65.84,68.31 
	65.61,68.31 65.37,68.54 65.14,68.54 65.14,68.31 65.37,68.31 65.14,68.07 65.14,67.84 65.14,67.6 65.37,67.6 65.14,67.6 
	65.14,67.84 64.9,67.84 64.9,68.07 64.9,67.84 64.9,67.6 64.67,67.6 64.67,67.84 64.67,68.07 64.67,67.84 64.43,67.84 64.43,68.07 
	64.2,68.07 63.96,68.07 63.96,68.31 63.73,68.31 63.73,68.07 63.5,68.31 63.73,68.54 63.5,68.54 63.26,68.54 63.03,68.54 
	63.26,68.78 63.03,68.78 62.79,68.78 62.56,68.78 62.79,68.78 62.79,69.01 62.79,69.25 62.56,69.25 62.56,69.01 62.32,69.01 
	62.32,69.25 62.32,69.01 62.09,69.01 61.85,69.01 61.85,68.78 61.62,68.78 61.38,68.78 61.15,68.78 60.91,68.78 60.68,68.78 
	60.44,68.78 60.21,68.78 60.44,69.01 60.44,69.25 60.44,69.48 60.44,69.72 60.44,69.95 60.44,70.19 60.21,70.19 60.21,70.42 
	59.97,70.42 59.97,70.66 60.21,70.66 60.21,70.89 59.97,70.89 59.97,70.66 59.74,70.66 59.74,70.89 59.74,71.13 59.74,71.36 
	59.5,71.36 59.5,71.6 59.27,71.6 59.03,71.6 59.03,71.36 58.8,71.36 58.56,71.13 58.56,70.89 58.8,70.89 58.8,70.66 58.56,70.89 
	58.56,70.66 58.33,70.66 58.09,70.42 58.09,70.19 57.86,70.19 57.62,70.19 57.39,69.72 57.39,69.48 57.15,69.48 56.92,69.48 
	56.68,69.48 56.45,69.25 56.21,69.25 55.98,69.25 55.51,69.25 55.27,69.25 55.04,69.48 54.81,69.72 54.57,69.72 54.57,69.95 
	54.57,69.72 54.57,69.95 54.34,69.95 54.34,70.19 54.1,70.42 53.87,70.66 53.63,70.66 53.63,70.89 53.4,70.89 53.16,70.89 
	53.16,71.13 53.16,71.36 52.93,71.36 52.69,71.36 52.46,71.6 52.22,71.6 52.22,71.83 52.46,71.83 52.46,72.07 52.22,72.07 
	51.99,72.07 51.99,72.3 51.75,72.3 51.52,72.3 51.52,72.54 51.28,72.54 51.05,72.54 50.81,72.54 50.81,72.77 50.58,72.77 
	50.34,72.77 50.11,72.77 50.11,72.54 49.87,72.54 49.87,72.77 49.87,73.01 49.87,72.77 49.64,72.77 49.64,73.01 49.4,73.01 
	49.17,73.01 48.93,73.01 48.7,73.01 48.46,73.01 48.23,73.01 47.99,73.01 47.76,73.24 47.52,73.48 47.29,73.48 47.05,73.48 
	47.05,73.71 46.82,73.71 46.58,73.71 45.41,73.71 44.94,73.71 44.71,73.71 44.47,73.95 44.24,74.18 44.24,74.42 44.24,74.65 
	40.71,72.77 40.48,72.77 40.24,73.01 40.24,73.24 40.01,73.24 39.77,73.24 39.54,73.24 39.54,73.01 39.3,73.01 39.07,73.01 
	38.83,73.01 38.6,73.01 38.6,72.77 38.6,72.54 38.6,72.3 38.6,72.07 38.83,71.83 38.6,71.83 38.6,71.6 38.36,71.6 38.36,71.36 
	38.36,71.13 38.36,70.89 38.36,70.66 38.6,70.66 38.6,70.42 38.6,70.19 38.6,69.95 38.36,69.95 38.36,69.72 38.36,69.48 
	38.36,69.25 38.13,69.25 38.13,69.01 38.13,68.78 37.89,68.78 37.66,68.54 37.66,68.31 37.66,68.07 37.66,67.84 37.66,67.6 
	37.66,67.37 37.66,67.14 37.42,66.67 37.42,66.43 37.66,66.43 37.66,66.2 37.89,66.2 37.89,65.96 38.13,65.96 38.36,65.96 
	38.6,65.96 38.83,65.96 39.07,65.73 39.07,65.49 38.83,65.02 38.6,65.02 38.6,64.55 38.36,64.08 38.13,63.85 38.13,63.61 
	38.36,63.61 38.36,63.38 38.36,63.14 38.36,62.91 38.36,62.44 38.36,62.2 38.36,61.97 38.36,61.73 38.13,61.5 38.13,61.26 
	37.89,61.03 37.89,60.79 37.66,60.79 37.42,60.56 37.19,60.09 37.19,59.85 36.96,59.62 36.96,59.38 37.19,59.38 37.19,58.92 
	37.19,58.68 37.42,58.68 37.66,58.45 37.89,58.45 38.13,58.45 38.13,58.21 38.13,57.98 38.13,57.74 37.89,57.74 37.66,57.74 
	37.42,57.51 37.42,57.27 37.19,57.27 37.19,57.04 36.96,57.04 36.72,57.27 36.49,57.51 36.25,57.51 36.02,57.51 35.78,57.27 
	35.78,57.51 35.78,57.74 36.02,57.98 36.25,58.21 36.25,58.45 36.02,58.45 36.02,58.68 36.02,58.92 36.25,58.92 36.49,58.92 
	36.49,59.15 36.25,59.15 36.02,59.15 35.78,59.15 35.78,59.38 35.55,59.38 35.55,59.62 35.55,59.85 35.55,60.09 35.55,60.32 
	35.55,60.56 35.55,60.79 35.55,61.03 35.31,61.03 35.31,61.26 35.31,61.5 35.08,61.5 35.08,61.73 34.84,61.73 34.84,61.97 
	34.61,61.97 34.61,62.2 34.37,62.2 34.14,62.44 33.9,62.44 33.67,62.44 33.43,62.44 33.43,62.67 33.2,62.67 32.96,62.67 
	32.49,62.91 32.26,62.91 32.02,62.91 32.02,62.67 31.79,62.67 31.79,62.44 31.55,62.44 31.55,62.67 31.32,62.67 31.08,62.91 
	30.85,63.14 30.85,63.38 30.61,63.38 30.38,63.85 30.14,63.85 30.14,64.08 29.91,64.32 29.91,64.55 29.91,64.79 29.91,65.02 
	29.67,65.26 29.67,65.49 29.67,65.73 29.44,65.73 29.44,65.96 29.44,66.2 29.2,66.2 29.2,66.43 28.97,66.9 28.73,67.14 28.5,67.14 
	28.27,67.37 28.27,67.6 28.03,67.84 28.03,68.07 27.8,68.31 27.56,68.54 27.56,68.78 27.33,68.78 27.09,69.01 26.86,69.01 
	26.62,69.25 26.39,69.25 26.15,69.01 25.92,69.01 25.68,69.01 25.45,69.01 25.21,69.01 24.98,69.01 24.74,69.01 24.51,69.01 
	24.51,68.78 24.27,68.78 24.04,68.78 23.8,68.78 23.57,68.78 23.33,68.78 23.1,68.78 23.1,68.54 22.86,68.54 22.63,68.78 
	22.39,68.78 22.16,68.78 21.92,68.78 21.69,68.54 21.45,68.54 21.22,68.31 20.98,68.31 20.98,68.07 20.75,68.07 20.51,68.07 
	20.28,68.07 20.04,68.07 19.81,68.07 19.58,68.07 19.34,68.07 19.11,67.84 19.11,67.6 18.87,67.6 18.64,67.6 18.64,67.37 
	18.4,67.37 18.17,67.14 17.93,67.14 17.7,67.14 17.46,67.14 16.99,67.37 16.76,67.37 16.52,67.37 16.29,67.37 16.05,67.37 
	15.82,67.37 15.58,67.37 15.35,67.14 15.11,66.9 14.88,66.9 14.64,66.43 14.41,66.43 14.17,66.2 13.94,65.96 13.7,65.73 
	13.47,65.49 13.23,65.26 13,65.02 13,64.79 12.76,64.79 12.53,64.79 12.29,64.55 11.82,64.32 11.59,64.08 11.35,63.85 11.12,63.61 
	10.89,63.61 10.89,63.38 10.65,63.38 10.42,63.14 10.18,62.91 9.95,62.91 9.71,62.91 9.48,62.91 9.48,62.67 9.24,62.67 9.01,62.67 
	8.77,62.44 8.77,62.2 8.54,61.73 8.3,61.5 8.07,61.26 7.83,61.03 7.83,60.79 7.6,60.79 7.36,60.56 7.13,60.32 6.89,60.09 
	6.66,59.85 6.42,59.85 6.42,59.62 6.19,59.62 6.19,59.38 5.95,59.38 5.72,59.15 5.48,59.15 5.48,58.92 5.25,58.68 5.25,58.45 
	5.25,58.21 5.48,58.21 5.48,57.98 5.72,57.74 5.72,57.51 5.95,57.27 5.95,57.04 5.95,56.8 5.95,55.86 5.95,54.92 5.95,54.69 
	5.95,54.45 5.95,54.22 5.95,53.98 5.72,53.75 5.72,53.51 5.48,53.28 5.48,53.04 5.25,52.81 5.01,52.57 4.78,52.34 4.54,52.34 
	4.31,52.34 4.07,52.34 3.6,52.34 3.37,52.1 2.9,52.1 2.66,52.1 2.43,52.1 2.2,52.1 1.96,52.1 1.73,52.1 1.49,52.1 1.26,52.1 
	1.02,51.87 0.79,51.87 0.32,51.87 0.08,51.63 0.08,51.4 -0.15,51.4 0.08,51.4 0.08,51.16 0.32,50.93 0.55,50.93 0.55,50.7 
	0.55,50.46 0.79,50.46 0.79,50.23 1.02,49.99 1.26,49.99 1.49,49.99 1.49,49.76 1.73,49.52 1.73,49.29 1.49,49.29 1.73,49.29 
	1.73,49.05 1.96,48.82 1.73,48.82 1.96,48.82 1.73,48.82 1.73,48.58 1.73,48.35 1.49,48.35 1.49,48.11 1.49,47.88 1.26,47.88 
	1.26,47.64 1.26,47.41 1.49,47.41 1.49,47.17 1.73,47.17 1.73,46.94 1.96,46.94 1.96,46.7 1.96,46.47 1.73,46.47 1.49,46.47 
	1.49,46.23 1.49,46 1.26,46 1.26,45.76 1.26,45.53 1.26,45.29 1.26,45.06 1.26,44.82 1.49,44.82 1.49,44.59 1.49,44.35 1.26,44.12 
	1.49,44.12 1.49,43.88 1.73,43.88 1.49,43.88 1.73,43.88 1.73,43.65 1.73,43.88 1.96,43.88 1.96,43.65 2.2,43.65 2.2,43.41 
	2.2,43.18 2.2,43.41 2.43,43.41 2.43,43.18 2.66,43.18 2.66,42.94 2.43,42.94 2.66,42.94 2.9,42.94 2.9,42.71 2.66,42.71 2.9,42.71 
	2.9,42.47 2.9,42.24 2.9,42 3.13,42 3.13,41.77 3.37,41.77 3.6,41.77 3.6,41.54 3.84,41.54 4.07,41.54 4.31,41.54 4.31,41.3 
	4.54,41.3 4.78,41.07 5.01,40.83 5.25,40.83 5.25,40.6 5.25,40.36 5.48,40.13 5.72,39.66 5.72,39.42 5.72,39.19 5.72,38.95 
	5.48,38.72 5.72,38.72 5.72,38.48 5.95,38.25 6.19,38.25 6.19,38.01 6.19,37.78 6.19,37.54 5.95,37.54 5.95,37.31 6.19,37.31 
	6.19,37.07 6.19,37.31 6.42,37.31 6.42,37.54 6.66,37.54 6.89,37.54 7.13,37.54 7.36,37.54 7.6,37.54 7.6,37.31 7.36,37.31 
	7.13,37.31 6.89,37.31 6.89,37.07 6.66,36.84 6.42,36.84 6.19,36.84 5.95,36.84 5.72,36.84 5.48,36.84 5.48,36.6 5.25,36.84 
	5.01,36.84 5.01,36.6 4.78,36.6 4.54,36.6 4.31,36.6 4.31,36.37 4.07,36.13 3.84,36.13 3.84,35.9 3.6,36.13 3.37,36.13 3.37,35.9 
	3.13,35.9 3.13,35.66 3.37,35.43 3.6,35.43 3.6,35.19 3.6,34.96 3.84,34.96 4.07,34.96 4.07,34.72 4.31,34.72 4.54,34.72 
	4.54,34.49 4.78,34.49 5.01,34.49 5.01,34.25 5.25,34.25 5.48,34.25 5.72,34.25 5.95,34.25 5.95,34.02 6.19,34.02 6.19,33.78 
	5.95,33.78 5.95,33.55 6.19,33.55 6.42,33.55 6.66,33.32 6.89,33.32 7.13,33.32 7.36,33.32 7.6,33.32 7.83,33.32 8.07,33.32 
	8.3,33.32 8.54,33.32 8.77,33.08 9.01,33.08 9.24,33.08 9.48,33.08 9.95,33.08 10.42,33.08 10.65,33.08 10.89,33.08 11.12,32.85 
	11.35,32.85 11.59,32.85 11.59,33.08 11.82,33.08 12.06,33.08 12.06,32.85 12.53,32.85 13.23,32.85 14.17,32.85 14.64,33.08 
	14.88,33.08 15.35,33.08 15.58,33.08 15.82,33.08 16.05,33.08 16.29,33.08 16.52,33.08 16.52,32.85 16.76,32.85 16.99,32.85 
	17.46,33.08 17.7,33.08 17.93,32.85 18.17,32.85 18.4,32.85 18.87,32.85 19.11,32.85 19.58,32.85 19.81,32.85 20.04,32.85 
	20.28,32.85 20.28,32.61 20.28,32.85 20.28,32.61 20.51,32.61 20.51,32.38 20.75,32.38 20.98,32.38 21.22,32.38 21.45,32.38 
	21.69,32.38 21.92,32.38 22.16,32.38 22.39,32.38 22.63,32.38 22.86,32.38 23.1,32.14 23.33,32.14 23.57,32.14 23.8,32.14 
	24.04,31.91 24.27,31.91 24.51,31.91 24.74,31.91 24.98,31.67 25.21,31.67 25.45,31.44 25.68,31.44 25.92,31.44 26.15,31.44 
	26.39,31.2 26.86,31.2 27.09,30.97 27.33,30.97 27.8,30.73 28.03,30.73 28.03,30.5 28.27,30.5 28.5,30.26 28.73,30.03 28.97,30.03 
	29.2,29.79 29.44,29.79 29.44,29.56 29.67,29.56 29.67,29.32 29.91,29.32 29.91,29.09 30.14,29.09 30.14,28.85 30.38,28.62 
	30.38,28.38 30.61,28.15 30.85,27.91 31.08,27.68 31.32,27.68 31.32,27.44 31.32,27.21 31.55,27.21 31.79,27.21 32.02,27.21 
	32.02,27.44 32.26,27.44 32.26,27.21 32.49,27.21 32.73,27.21 32.96,27.21 33.2,27.21 33.43,27.21 33.67,27.44 33.9,27.68 
	34.14,27.91 34.14,28.15 34.37,28.15 34.37,28.38 34.61,28.38 34.61,28.62 34.84,28.62 35.08,28.62 35.31,28.62 35.55,28.62 
	35.78,28.62 36.02,28.62 36.25,28.62 36.25,28.85 36.25,29.09 36.02,29.09 36.25,29.32 36.25,29.56 36.25,29.79 36.02,30.03 
	36.25,30.03 36.25,30.26 36.49,30.26 36.49,30.5 36.49,30.26 36.72,30.26 36.72,30.5 36.96,30.5 37.19,30.5 37.42,30.5 37.42,30.26 
	37.66,30.26 37.89,30.26 38.13,30.03 38.36,30.03 38.6,29.79 38.83,29.79 38.83,29.56 39.07,29.56 39.3,29.32 39.54,29.32 
	39.77,29.32 40.01,29.56 40.24,29.79 40.48,30.03 40.71,30.26 40.95,30.26 41.18,30.5 41.42,30.26 41.42,30.5 41.65,30.5 
	41.65,30.73 41.89,30.73 41.89,30.97 42.12,30.97 42.36,30.97 42.36,31.2 42.36,31.44 42.59,31.44 42.83,31.44 42.83,31.67 
	43.06,31.67 43.06,31.44 43.3,31.44 43.3,31.2 43.3,30.97 43.3,30.73 43.06,30.73 43.06,30.5 43.3,30.5 43.06,30.26 43.3,30.26 
	43.3,30.03 43.53,30.03 43.53,29.79 43.77,29.56 44,29.56 44.24,29.32 44.47,29.32 44.47,29.09 44.71,29.09 44.71,28.85 
	44.71,28.62 44.71,28.38 44.47,28.15 44.47,27.91 44.24,27.44 44,27.44 44,27.21 44.24,27.21 44,27.21 44,26.97 44.24,26.97 
	44.24,26.74 44.24,26.5 44.24,26.27 44.24,26.03 44,25.8 43.77,25.56 43.53,25.56 43.3,25.8 43.06,25.8 42.83,25.8 42.83,26.03 
	42.59,26.03 42.36,26.03 42.36,25.8 42.36,25.56 42.36,25.33 42.36,24.86 42.36,24.63 42.12,24.63 42.12,24.39 42.12,24.16 
	42.12,23.92 41.89,23.92 41.89,23.69 41.65,23.69 41.42,23.69 41.18,23.69 40.95,23.69 40.71,23.92 40.48,24.16 40.24,24.39 
	40.01,24.39 40.01,24.16 39.77,23.92 39.77,23.69 39.54,23.69 39.54,23.45 39.3,23.45 39.07,23.45 38.83,23.45 38.6,23.69 
	38.36,23.45 38.36,23.22 38.36,22.98 38.13,22.75 37.89,22.51 37.89,22.28 37.66,22.28 37.42,22.28 37.19,22.28 37.19,22.04 
	36.96,22.04 36.96,22.28 36.72,22.28 36.49,22.28 36.25,22.28 36.49,22.28 36.49,22.04 36.49,21.81 36.49,21.57 36.49,21.34 
	36.49,21.1 36.72,21.1 36.72,20.87 36.49,20.87 36.25,20.87 36.02,20.87 35.78,20.87 35.55,20.87 35.55,21.1 35.55,21.34 
	35.31,21.34 35.08,21.57 35.08,21.81 34.84,21.81 34.84,21.57 34.61,21.57 34.61,21.34 34.37,21.57 34.37,21.34 34.14,21.57 
	33.9,21.57 33.67,21.57 33.43,21.81 33.2,21.81 32.96,21.81 32.73,22.04 32.49,22.04 32.49,22.28 32.26,22.28 32.02,22.28 
	32.02,22.04 31.79,22.04 31.55,22.28 31.32,22.51 31.08,22.51 31.08,22.75 30.85,22.98 30.61,22.75 30.61,22.51 30.38,22.51 
	30.38,22.75 30.14,22.98 30.14,23.22 30.14,23.45 29.91,23.45 29.91,23.69 29.67,23.69 29.67,23.92 29.67,23.69 29.67,23.45 
	29.91,23.22 29.91,22.98 30.14,22.98 30.14,22.75 30.14,22.51 30.14,22.28 30.38,22.28 30.61,22.04 30.85,22.04 30.85,21.81 
	31.08,21.81 31.08,21.57 31.32,21.57 31.55,21.57 31.79,21.34 32.02,21.34 32.26,21.34 32.73,21.1 32.96,21.1 33.2,21.1 33.43,21.1 
	33.9,21.1 34.14,20.87 34.37,20.87 34.61,20.63 34.84,20.63 35.08,20.4 35.31,20.4 35.55,20.4 35.78,20.4 36.02,20.4 36.25,20.4 
	36.49,20.4 36.72,20.4 36.72,20.63 36.96,20.63 37.19,20.63 37.42,20.87 37.66,20.87 37.89,21.1 38.13,21.1 38.36,21.34 38.6,21.34 
	38.83,21.34 38.83,21.57 39.07,21.57 39.3,21.81 39.54,21.81 39.77,22.04 40.01,22.28 40.24,22.28 40.48,22.51 40.71,22.51 
	40.71,22.75 41.18,22.98 41.42,23.22 41.65,23.22 41.65,23.45 41.89,23.69 42.36,24.16 42.83,24.39 42.83,24.63 43.06,24.86 
	43.3,25.1 43.53,25.1 43.77,25.33 44,25.56 44.24,25.56 44.47,25.8 45.18,26.27 45.41,26.5 45.65,26.5 45.65,26.74 46.12,26.74 
	46.35,26.97 46.58,26.97 46.82,27.21 47.05,27.21 47.29,27.21 47.52,27.21 47.76,27.44 47.99,27.44 48.23,27.44 48.46,27.44 
	48.7,27.68 48.93,27.68 49.17,27.68 49.4,27.91 49.64,27.91 49.87,27.91 50.11,28.15 50.34,28.15 50.58,28.15 50.81,28.15 
	51.05,28.15 51.28,28.15 51.28,28.38 51.52,28.38 51.75,28.38 51.99,28.38 52.22,28.38 52.22,28.62 52.46,28.62 52.69,28.62 
	52.93,28.62 53.16,28.62 53.4,28.62 53.63,28.62 53.63,28.85 53.87,28.85 54.1,28.85 54.34,28.85 54.57,28.85 54.81,28.85 
	54.81,29.09 55.04,29.09 55.27,29.09 55.51,29.09 55.74,29.09 55.98,29.09 56.21,29.09 56.45,29.09 56.68,29.32 56.92,29.32 
	57.15,29.32 57.39,29.32 57.62,29.32 57.86,29.32 58.09,29.32 58.33,29.32 58.56,29.32 58.8,29.32 58.8,29.56 59.03,29.56 
	59.27,29.56 59.5,29.56 59.74,29.56 59.74,29.79 59.97,29.79 60.21,29.79 60.44,29.79 60.68,29.79 60.91,30.03 61.15,30.03 
	61.38,30.26 61.62,30.5 61.85,30.5 62.09,30.73 62.32,30.73 62.56,30.97 62.79,30.97 63.03,31.2 63.26,31.44 63.5,31.44 
	63.73,31.44 63.96,31.44 64.2,31.44 64.43,31.44 64.67,31.44 64.9,31.67 65.14,31.67 65.37,31.67 65.61,31.67 65.84,31.67 
	65.84,31.91 66.08,31.91 66.31,31.91 66.55,31.91 66.78,31.91 67.02,32.14 67.25,32.14 67.49,32.38 67.72,32.38 67.96,32.38 
	68.19,32.38 68.19,32.61 68.43,32.61 68.66,32.61 68.9,32.61 68.9,32.38 69.13,32.38 69.13,32.14 69.37,32.14 69.6,32.38 
	69.84,32.61 69.84,32.85 70.07,33.08 70.54,33.55 71.01,33.78 71.01,34.02 71.25,34.25 71.48,34.25 71.72,34.72 71.95,34.72 
	72.19,34.72 72.19,34.96 72.42,34.96 72.66,34.72 72.89,34.72 73.12,34.72 73.36,34.72 73.59,34.72 73.83,34.96 74.06,35.43 
	74.3,35.66 74.53,35.9 74.77,36.6 75,37.07 75.24,37.31 75.47,37.54 75.71,38.01 75.94,38.48 76.18,38.72 76.41,39.19 76.65,39.42 
	76.88,39.89 77.12,40.6 77.35,40.83 77.59,41.07 77.82,41.54 78.06,42 78.29,42.47 78.29,42.71 78.53,42.94 78.76,43.18 
	78.76,43.41 79,43.65 79.23,43.88 79.23,44.12 79.47,44.35 79.7,45.06 79.94,45.29 80.17,45.53 80.17,45.76 80.41,46 80.64,46.23 
	80.64,46.47 80.88,46.94 81.11,47.17 81.35,47.41 81.58,47.88 81.58,48.11 81.82,48.35 81.82,48.58 82.05,48.82 82.28,49.05 
	82.28,49.29 82.52,49.52 82.52,49.76 82.75,49.76 82.99,50.46 83.22,50.7 83.22,50.93 83.46,51.4 83.69,51.4 83.69,51.63 
	83.93,51.63 83.93,51.87 84.16,52.1 84.4,52.34 84.63,52.34 84.63,52.57 84.87,52.81 85.1,52.81 85.1,53.04 85.57,53.51 
	85.57,53.75 85.81,53.75 85.81,54.22 86.04,54.22 86.04,54.45 86.28,54.69 86.28,54.92 86.51,55.16 86.51,55.39 86.75,55.39 
	86.75,55.63 86.75,55.86 86.98,55.86 86.98,56.1 86.98,56.33 87.22,56.33 87.22,56.57 87.45,56.8 87.45,57.04 87.69,57.27 
	87.69,57.51 87.92,57.74 88.16,58.21 88.39,58.45 88.39,58.68 88.63,59.15 88.86,59.38 88.86,59.62 89.1,59.62 89.1,59.85 
	89.33,59.85 89.33,60.09 89.57,60.32 89.57,60.56 89.8,60.56 90.04,60.79 90.04,61.03 90.04,61.26 90.27,61.26 90.27,61.5 
	90.5,61.5 90.5,61.73 90.74,61.97 90.74,62.2 90.97,62.2 90.97,62.44 91.21,62.67 91.44,62.91 91.44,63.14 91.68,63.38 91.68,63.61 
	91.91,63.61 91.91,63.85 92.15,64.08 92.15,64.32 92.38,64.32 92.38,64.55 92.38,64.79 92.62,64.79 92.62,65.02 92.85,65.26 
	92.85,65.49 93.09,65.73 93.09,65.96 93.32,65.96 93.32,66.2 93.56,66.2 93.56,66.43 93.56,66.67 93.79,66.67 93.79,66.9 
	94.03,67.14 94.03,67.37 94.26,67.6 94.26,67.84 94.5,67.84 94.5,68.07 94.73,68.31 94.73,68.54 94.97,68.54 94.97,68.78 
	95.2,68.78 95.2,69.01 95.2,69.25 95.44,69.25 95.44,69.48 95.67,69.72 95.67,69.95 95.91,69.95 95.91,70.19 96.14,70.42 
	96.38,70.66 96.38,70.89 96.61,70.89 96.61,71.13 96.61,71.36 "/>
</svg>
