<?xml version="1.0" encoding="utf-8"?>
<!-- Generator: Adobe Illustrator 24.2.1, SVG Export Plug-In . SVG Version: 6.00 Build 0)  -->
<svg version="1.1" id="Layer_1" xmlns="http://www.w3.org/2000/svg" xmlns:xlink="http://www.w3.org/1999/xlink" x="0px" y="0px"
	 viewBox="0 0 97.23 97.23" style="enable-background:new 0 0 97.23 97.23;" xml:space="preserve">
<style type="text/css">
	.st0{fill-rule:evenodd;clip-rule:evenodd;fill:#1D1D1B;}
</style>
<path class="st0" d="M42.07,94.61h0.37v0.37h-0.37v0.37v0.37v0.37v0.37H41.7v0.37h-0.37h-0.37v-0.37V96.1h0.37v-0.37v-0.37h0.37
	v-0.37h0.37V94.61L42.07,94.61z M35.35,94.23h-0.37v0.37v-0.37h-0.37h-0.37v-0.37h0.37h0.37h0.37V94.23L35.35,94.23z M54.75,96.1
	h-0.37l-0.37-0.37v-0.37l0.37-0.37h0.37v-0.37h0.37h0.37v-0.37l0.37-0.37h0.37h0.37v0.37v0.37h-0.37v0.37h-0.37v0.37H55.5v0.37
	h-0.37v0.37H54.75L54.75,96.1z M52.52,87.89h0.37v0.37h-0.37h0.37v0.37v0.37h0.37l0.37,0.37v0.37h0.37v0.37v0.37v0.37l-0.37-0.37
	h-0.37h-0.37v0.37h-0.37l-0.37,0.37h-0.37H51.4h-0.37l-0.37-0.37h-0.37H49.9h-0.37h-0.37h-0.37h-0.37h-0.37V90.5h-0.37v-0.37v-0.37
	h-0.37h-0.37v-0.37h-0.37v-0.37v-0.37l0.37-0.37v-0.37h0.37h0.37v-0.37h0.37h0.37l0.37-0.37h0.37h0.37h0.37h0.37l0.37,0.37h0.37
	h0.37h0.37l0.37,0.37H52.52L52.52,87.89z M31.62,82.67V82.3H32v0.37H31.62L31.62,82.67z M59.98,80.06h0.37h0.37v0.37v0.37
	l-0.37,0.37v0.37h-0.37v-0.37H59.6V80.8h-0.37h-0.37h-0.37v-0.37h0.37h0.37h0.37v-0.37H59.98L59.98,80.06z M61.84,80.06h-0.37v-0.37
	v-0.37v-0.37l0.37-0.37v0.37v0.37v0.37V80.06L61.84,80.06z M65.95,55.81h-0.37H65.95h-0.37v-0.37h0.37V55.81L65.95,55.81z
	 M64.83,55.43h-0.37v0.37h0.37v0.37v0.37h0.37h-0.37v0.37h0.37v0.37h-0.37v0.37v0.37h-0.37v0.37l-0.37,0.37h-0.37v0.37h-0.37v-0.37
	h-0.37h-0.37v-0.37h-0.37v0.37h-0.37v-0.37h-0.37H61.1v0.37h-0.37h-0.37l-0.37-0.37v-0.37h0.37h-0.37v-0.37v0.37H59.6v-0.37V57.3
	v-0.37v-0.37v-0.37l0.37-0.37l0.37-0.37h0.37v0.37h0.37h0.37l0.37,0.37h0.37h0.37v-0.37h0.37l0.37-0.37h0.37h0.37v-0.37h0.37h0.37
	V55.43L64.83,55.43z M67.44,51.7v0.37v0.37h-0.37v0.37v0.37h0.37h0.37v-0.37h0.37v0.37v0.37h-0.37v0.37h-0.37v-0.37h-0.37h-0.37
	V53.2h-0.37v-0.37v-0.37v-0.37V51.7h0.37h0.37H67.44L67.44,51.7z M67.81,50.96h-0.37v-0.37h0.37v-0.37l0.37,0.37h-0.37V50.96
	L67.81,50.96z M55.13,48.35h0.37v0.37v0.37v-0.37v-0.37H55.13h-0.37l0.37-0.37V48.35L55.13,48.35z M31.25,36.41h0.37l-0.37,0.37
	h-0.37H30.5v-0.37h0.37H31.25L31.25,36.41z M70.05,38.27h-0.37H69.3V37.9v-0.37v-0.37v-0.37v-0.37v-0.37h0.37v0.37h0.37v0.37v0.37
	v0.37v0.37V38.27L70.05,38.27z M70.8,29.69h0.37v0.37h0.37v0.37v0.37v0.37v0.37h0.37v0.75v0.37v0.37v0.37v0.37v0.37v0.37l-0.37,0.37
	h-0.37H70.8v-0.37v-0.37V33.8v-0.37l-0.37-0.37l-0.37-0.37V32.3h-0.37H69.3v-0.37l-0.37-0.37v-0.37v-0.37h0.37v-0.37h-0.37v-0.37
	h0.37h0.37v0.37v0.37h0.37h0.37v-0.37v-0.37v-0.37H70.8L70.8,29.69z M67.07,30.81l0.37-0.37v0.37v0.37h-0.37V30.81h-0.37h-0.37
	h-0.37v-0.37h-0.37v-0.37h0.37v-0.37h0.37h0.37l0.37-0.37h0.37v0.37v0.37h-0.37v0.37V30.81L67.07,30.81z M68.93,22.6h0.37H68.93
	L68.93,22.6z M59.98,21.86v0.37V21.86v-0.37V21.86L59.98,21.86z M57.74,19.62v0.37l-0.37,0.37h-0.37h-0.37v0.37h-0.37v-0.37v-0.37
	h0.37h0.37l0.37-0.37H57.74L57.74,19.62z M61.84,18.5v-0.37v-0.37h0.37v-0.37v0.37v0.37v0.37H61.84L61.84,18.5z M46.92,14.77V14.4
	h0.37v0.37H46.92L46.92,14.77z M34.23-0.15h0.37H34.23h-0.37h-0.37h-0.37h-0.37h-0.37H32h-0.37v0.37v0.37v0.37L32,1.34v0.37v0.37
	h0.37v0.37v0.37V3.2l0.37,0.75V4.7l0.37,1.49l0.37,0.37v0.37v0.75v0.37l0.37,0.37V8.8v0.37v0.37v0.37l0.37,0.37v0.37v0.37v0.37v0.37
	v0.37v0.37v0.37l0.37,0.37v0.37v0.37v0.37v0.37h0.37v0.37v0.37v0.37v0.37v0.37v0.37h0.37v0.37v0.37v0.37v0.37v0.37v0.37v0.37v0.37
	l-0.37,0.37v0.37v0.37h-0.37l-0.37,0.37v0.37v0.37v0.37l0.37,0.37h-0.37v0.37v0.37l-0.37,0.37h-0.37v-0.37h-0.37h-0.37h-0.37H32
	v0.37h-0.37l-0.37,0.37l-0.37,0.37l-0.37,0.37l-0.75,0.37l-0.37,0.37h-0.37v0.37h-0.37v0.37v0.37v0.37v0.37v0.37v0.37l0.37,0.37
	v0.37h0.37l0.37,0.37v0.37v0.37v0.37v0.37v0.37v0.37v0.37v0.37v0.37h0.37l-0.37,0.37v0.37v0.37h-0.37v0.37h-0.37h-0.37v0.37h0.37
	v0.37h0.37v0.37l0.37,0.37h0.37h0.37v-0.37h0.37h0.37h0.37v0.37v0.37h-0.37h0.37H32v0.37h0.37v0.37v0.37h0.37v0.37v0.37v0.37v0.37
	l0.37,0.37v0.37v0.37v0.37v0.37v0.37v0.37V42v0.37v0.37v0.37l-0.37,0.37v0.37v0.37v0.37v0.37l-0.37,0.37v0.37H32v0.37h-0.37v0.37
	h-0.37h-0.37v-0.37H30.5v-0.37h-0.37h-0.37l-0.37-0.37h-0.37h-0.37v0.37h-0.37v0.37h0.37h0.37v0.37v0.37h0.37h0.37v0.37v0.37v0.37
	l0.37,0.37v0.37v0.37v0.37h-0.37v0.37h0.37l0.37,0.37h-0.37v0.37h0.37v0.37v0.37h0.37h0.37v0.37v0.37l-0.37,0.37v0.37v0.37
	l-0.37,0.37h-0.37v0.37h-0.37h-0.37h-0.37l-0.37,0.37h-0.37h-0.37h-0.37h-0.37h-0.37v0.37v0.37v0.37H26.4v0.37v0.37h-0.37v0.37v0.37
	v0.37h-0.37h0.37h0.37v0.37v0.37h0.37v0.37H26.4v0.37v0.37h0.37v0.37v0.37h0.37v-0.37h0.37v-0.37v0.37h0.37v0.37h0.37h0.37v-0.37
	h0.37h0.37v0.37h0.37v0.37h0.37h0.37v0.37h0.37v0.37l0.37,0.37h0.37H32h0.37h0.37h0.37v0.37h0.37v0.37v0.37h0.37v0.37h0.37h-0.37
	v0.37h0.37l-0.37,0.37v0.37v0.37v0.37v0.37v0.37v0.37h-0.37v0.37v0.37V67h-0.37v0.37h-0.37v0.37h-0.37H32h-0.37h-0.37h-0.37v-0.37
	H30.5h-0.37h-0.37h-0.37h-0.37V67h-0.37h-0.37h-0.37h-0.37v-0.37V67h-0.37v-0.37v-0.37v0.37h-0.37h0.37V67h-0.37v0.37v0.37H26.4
	v0.37h0.37v0.37h0.37v0.37v0.37h0.37h0.37v-0.37h0.37h0.37v0.37v0.37h0.37v0.37h0.37v0.37v0.37h-0.37v0.37v0.37h-0.37h0.37v0.37
	l0.37,0.37v-0.37v0.37h0.37h-0.37h0.37v0.37h0.37h0.37h0.37v0.37h0.37l-0.37,0.37h0.37l-0.37,0.37h0.37h0.37v0.37H32h0.37v0.37v0.37
	h0.37v0.37v0.37v0.37v0.37l0.37,0.37v0.37v0.37v0.37v0.37v0.37v0.37h0.37v0.37v0.37v0.37h-0.37v0.37l-0.37,0.37v0.37h-0.37v0.37
	h0.37h0.37h0.37v0.37h0.37v0.37h0.37v0.37v0.37v0.37h-0.37v0.37v0.37v0.37h0.37v0.37h0.37v0.37v0.37v0.37h-0.37v0.37v0.37h-0.37
	v0.37v0.37h-0.37v0.37l-0.37,0.37h-0.37h-0.37H32h-0.37v0.37v0.37v0.37H32h0.37h0.37v0.37v0.37h-0.37v0.37H32v0.37v0.37h0.37v0.37
	V92h0.37h0.37l0.37-0.37h0.37h0.37h0.37h0.37h0.37h0.37V92h0.37v0.37v0.37h-0.37v0.37h0.37v0.37v0.37l-0.37,0.37v0.37v0.37v0.37
	h-0.37h0.37l0.37-0.37h0.37v0.37h0.37v0.37h0.37l0.37-0.37h0.37l0.37-0.37h0.37l0.37-0.37v-0.37h-0.37v-0.37v-0.37v-0.37h0.37
	l0.37-0.37h0.37l0.37-0.37h0.37V92h0.37h0.37h0.37v0.37h0.37V92h0.37v-0.37h0.37v-0.37h0.37v-0.37l-0.37-0.37v-0.37h-0.37
	l-0.37-0.37v-1.12v-0.37h0.37v-0.37v-0.37h0.37v-0.37v-0.37V86.4h0.37v-0.37v-0.37v-0.37v-0.37h0.37v-0.37l0.37-0.37v-0.37v-0.37
	h0.37v-0.37v-0.37V82.3h0.37v-0.37v-0.37v-0.37h0.37V80.8l0.37-0.37v0.37h0.37v-0.37h0.37v-0.37h0.37l0.37-0.37h0.37h0.37h0.37
	v-0.37h0.37h0.37v-0.37l0.37-0.37h0.37v-0.37v0.37h0.37h0.37h0.37h0.37v-0.37v-0.37h0.37v0.37v0.37h0.37v0.37v0.37v0.37v0.37h0.37
	v0.37v0.37v0.37h0.37v0.37v0.37h0.37v0.37v0.37h0.37v0.37v0.37v0.37l0.37,0.37v0.37h-0.37v0.37h0.37v0.37h0.37v0.37h0.37v-0.37
	v-0.37h-0.37v-0.37h0.37v-0.37h0.37v-0.37h0.37h0.37h0.37v0.37h0.37v0.37h0.37v0.37v0.37h0.37h0.37l0.37,0.37l0.37,0.37v0.37v0.37
	h0.37h0.37l0.37-0.37v-0.37h-0.37v-0.37v-0.37v-0.37h-0.37v-0.37h-0.37h-0.37v0.37h-0.37v-0.37v-0.37h-0.37v-0.37v-0.37h0.37
	l0.37-0.37v-0.37V82.3v-0.37h-0.37v-0.37h-0.37h-0.37v-0.37h0.37V80.8h0.37h0.37v-0.37h0.37h-0.37v-0.37h-0.37h-0.37v0.37v-0.37
	v-0.37v-0.37v-0.37l0.37,0.37v-0.37h0.37v0.37h0.37v-0.37h0.37h0.37v-0.37h-0.37v-0.37h-0.37h-0.37v0.37v-0.37h-0.37v0.37h-0.37
	v-0.37h-0.37h-0.37h-0.37v0.37v-0.37v-0.37H55.5v-0.37v-0.37V76.7v-0.37v-0.37h-0.37h0.37h-0.37v-0.37h-0.37v-0.37h0.37v-0.37h0.37
	h-0.37v-0.37l0.37-0.37v-0.37h0.37h0.37v-0.37h0.37h0.37v-0.37l-0.37-0.37h-0.37v-0.37l0.37-0.37h-0.37v-0.37h-0.37V71.1h0.37h0.37
	h0.37v-0.37h0.37v-0.37h0.37l0.37-0.37h0.37h0.37h0.37h0.37v0.37v0.37v0.37h0.37v0.37h0.37V71.1h0.37v-0.37h0.37h0.37v-0.37h0.37
	h0.37v0.37h0.37v0.37h0.37h-0.37v0.37h0.37h0.37h0.37v0.37v0.37h0.37h0.37v0.37h0.37v-0.37v-0.37v-0.37h-0.37h-0.37h-0.37V71.1
	h-0.37v-0.37h-0.37v-0.37v-0.37v-0.37h0.37h0.37v0.37l0.37-0.37l0.37-0.37v-0.37h0.37h0.37v0.37h0.37v0.37h0.37v-0.37v-0.37h0.37
	v-0.37v-0.37h-0.37v-0.37h-0.37H65.2v-0.37V67h-0.37v-0.37v-0.37v-0.37v-0.37v-0.37v-0.37h0.37v-0.37v-0.37v-0.37h0.37v-0.37V62.9
	v-0.37v-0.37v-0.37H65.2h-0.37v0.37h-0.37l-0.37,0.37h-0.37h-0.37v0.37v0.37v0.37h-0.37h0.37v0.37h-0.37v0.37v0.37v-0.37h-0.37h0.37
	h-0.37v0.37v0.37v0.37v0.37h-0.37v-0.37h-0.37h-0.37v-0.37H61.1v-0.37v-0.37h0.37v-0.37H61.1v-0.37h-0.37v-0.37h-0.37h-0.37V62.9
	v-0.37l-0.37-0.37h-0.37h-0.37h0.37v-0.37h0.37V61.4h-0.37l-0.37-0.37h0.37l0.37-0.37v-0.37v-0.37v-0.37h-0.37v-0.37v-0.37
	l-0.37-0.37v-0.37h-0.37v-0.37h-0.37V57.3h-0.37v-0.37h-0.37v-0.37h-0.37v-0.37l-0.37-0.37v0.37v-0.37h-0.37v-0.37v-0.37v-0.37
	h-0.37v-0.37l-0.37-0.37v-0.37v0.37h0.37v-0.37V53.2h0.37h-0.37v-0.37v-0.37H55.5v-0.37h-0.37V51.7v-0.37h0.37v-0.37v-0.37h0.37
	v-0.37h0.37h-0.37v-0.37H55.5v-0.37v-0.37v-0.37v-0.37h-0.37h-0.37v0.37v-0.37v-0.37h0.37V47.6h0.37v-0.37h0.37h0.37v-0.37
	l0.37-0.37h-0.37h0.37v-0.37h0.37l0.37-0.37h0.37v-0.37h0.37h0.37v-0.37h0.37v0.37h0.37v-0.37v0.37h0.37h0.37h0.37v0.37h0.37v0.37
	v0.37h0.37v0.37h0.37v-0.37h0.37v-0.37h0.37v-0.37h-0.37h-0.37H61.1v-0.37h-0.37v-0.37l-0.37-0.37l-0.37-0.37v-0.37L59.6,43.5v-0.37
	v-0.37v-0.37V42h0.37v-0.37H59.6h0.37H59.6v-0.37v-0.37v-0.37h0.37v-0.37H59.6h0.37H59.6v-0.37v-0.37v-0.37h0.37H59.6h0.37v-0.37
	v-0.37V37.9v-0.37H59.6v-0.37v-0.37v-0.37l0.37-0.37v-0.37H59.6h0.37v-0.37h0.37v-0.37v-0.37v-0.37h0.37v0.37h0.37v-0.37V33.8
	l-0.37-0.37h0.37h0.37h0.37v0.37h0.37h0.37v0.37v0.37h0.37v0.37h0.37v-0.37h0.37v-0.37h-0.37V33.8v-0.37v-0.37h-0.37v-0.37h0.37
	V32.3h-0.37v-0.37v-0.37v-0.37l0.37-0.37v-0.37v-0.37h0.37v-0.37v-0.37h0.37v-0.37h0.37v-0.37h0.37v0.37h0.37v0.37v-0.37h0.37h0.37
	v-0.37V28.2v-0.37v-0.37h-0.37v-0.37H65.2l-0.37-0.37v-0.37v-0.37v-0.37v-0.37v-0.37v-0.37l0.37-0.37v-0.37v-0.37v-0.37h-0.37h-0.37
	V22.6h-0.37v-0.37v-0.37h-0.37h-0.37h-0.37v0.37h-0.37v-0.37h-0.37v-0.37h-0.37v0.37v0.37h0.37h-0.37v0.37v0.37h-0.37v0.37H61.1
	v0.37v0.37h-0.37l-0.37,0.37v0.37h-0.37H59.6h-0.37h-0.37v0.37l-0.37,0.37h-0.37v0.37h-0.37h-0.37v-0.37h-0.37v-0.37l0.37-0.37
	h-0.37v0.37h-0.37v0.37h-0.37H55.5l-0.37-0.37h-0.37h-0.37v-0.37h-0.37h-0.37v-0.37l-0.37-0.37v-0.37h-0.37v-0.37h-0.37v-0.37h-0.37
	V22.6v-0.37h-0.37v-0.37H51.4v-0.37h-0.37h0.37v-0.37v-0.37l-0.37-0.37v-0.37v-0.37v-0.37v-0.37V18.5l0.37-0.37h-0.37v-0.37v-0.37
	h-0.37v-0.37h-0.37H49.9h-0.37l-0.37,0.37h-0.37v0.37h-0.37v0.37h-0.37v0.37h-0.37h-0.37v0.37h-0.37h-0.37h-0.37V18.5H45.8v-0.37
	h0.37H45.8h0.37v-0.37h0.37v-0.37h-0.37v-0.37h0.37v-0.37v-0.37v-0.37h-0.37H45.8l-0.37,0.75h-0.37v-0.37v-0.37v0.37l-0.37-0.37
	v-0.37v-0.37v-0.37V14.4v-0.37v-0.37h0.37v-0.37V12.9h0.37v-0.37v-0.37h-0.37v-0.37h-0.75v-0.37l-0.37-0.37v-0.37V9.92V9.55V9.17
	V8.8V8.43l-0.37-0.37V7.68V7.31V6.93l-0.37-0.37V5.81h-0.37h-0.37h-0.37L41.7,5.44h-0.37V5.07h-0.37L40.58,4.7H40.2V4.32h-0.37
	h-0.37V3.95V3.58h-0.37L38.71,3.2l-0.37-0.37h-0.37V2.46h-0.37v0.37h-0.37V2.46h-0.37V2.08h-0.37V1.71L36.1,1.34h-0.37h-0.37v0.37
	h-0.37h-0.37l0.37-0.37V0.97h0.37V0.59V0.22h-0.37h-0.37v-0.37H34.23z"/>
</svg>
