<?xml version="1.0" encoding="utf-8"?>
<!-- Generator: Adobe Illustrator 24.2.1, SVG Export Plug-In . SVG Version: 6.00 Build 0)  -->
<svg version="1.1" id="Layer_1" xmlns="http://www.w3.org/2000/svg" xmlns:xlink="http://www.w3.org/1999/xlink" x="0px" y="0px"
	 viewBox="0 0 97.23 97.23" style="enable-background:new 0 0 97.23 97.23;" xml:space="preserve">
<style type="text/css">
	.st0{fill-rule:evenodd;clip-rule:evenodd;fill:#1D1D1B;}
</style>
<path class="st0" d="M32.77,85.41h-0.11h-0.11v0.11h-0.11h-0.11v-0.11h-0.11H32.1V85.3h0.11l-0.11-0.11v-0.11v-0.11v-0.11
	l-0.11-0.11v-0.11v-0.11V84.4h0.11v0.11h0.11v0.11v0.11h0.11v0.11h0.11h0.11h0.11v0.11h0.11l0.11,0.11v0.11v0.11h-0.11V85.41
	L32.77,85.41z M29.52,86.08h-0.11v-0.11v-0.11v-0.11l0.11-0.11v-0.11v-0.11V85.3l0.11-0.11v-0.11h0.11v-0.11h0.11h0.11v-0.11v-0.11
	l-0.11-0.11v-0.11h0.11V84.4h0.11v-0.11h0.11v-0.11h0.11v-0.11h0.11v-0.11h0.11v-0.11h0.11h0.11v-0.11v-0.11h0.11V83.5h0.11v0.11
	v0.11h-0.11v0.11v0.11h-0.11v0.11v0.11v0.11v0.11h0.11v0.11v0.11h-0.11v0.11h-0.11v0.11h-0.11v0.11h-0.11h-0.11v0.11l-0.11,0.11
	v0.11h0.11v0.11v0.11l-0.11,0.11h-0.11v0.11h-0.11v0.11h-0.11v0.11h-0.11h-0.11h-0.11V86.08L29.52,86.08z M38.94,78.68l0.11,0.11
	l0.11-0.11h0.11h0.11l0.11,0.11l0.11,0.11h0.11v0.11v0.11l-0.11,0.11H39.5h-0.11v0.11h-0.11h-0.11v-0.11l-0.11-0.11v-0.11h-0.11
	l-0.11,0.11h-0.11h-0.11v-0.11l-0.11,0.11h-0.11l-0.11,0.11h-0.11h-0.11v-0.11h-0.11v-0.11l-0.11-0.11v-0.11h0.11v-0.11v-0.11v-0.11
	h0.11l0.11-0.11h0.11v-0.11v-0.11h-0.11h0.11v-0.11h0.11v0.11l0.11,0.11l0.11,0.11v0.22l0.11,0.11h0.11H38.94L38.94,78.68z
	 M30.19,74.64h0.11h0.11l0.11,0.11v0.11l0.11,0.11l0.11,0.11h0.11v0.11h0.11h0.11h0.11v0.11v0.11v0.11h-0.11v0.11v0.11h0.11v0.11
	h-0.11v0.11v0.11h-0.11h0.11v0.11h-0.11v0.11h0.11v0.11h0.11v0.11h-0.11v0.11l0.11,0.11h0.11v0.11V77l-0.11,0.11v0.11h-0.11v0.11
	h-0.11v-0.11h-0.11v-0.11L30.76,77v-0.11h-0.11v-0.11l-0.11,0.11h-0.11h-0.11v-0.11h-0.11h-0.11l-0.11-0.11h-0.11h-0.11h-0.11v-0.11
	h-0.11v0.11h-0.11v0.11h0.11v0.11V77h0.11v0.11l-0.11,0.11h0.11v0.11l0.11,0.11v0.11h0.11v0.11h-0.11v0.11h-0.11l-0.11-0.11h-0.11
	v-0.11H29.3h-0.11v0.11v0.11v0.11h-0.11v0.11h0.11h-0.11v0.11h0.11v0.11l0.11,0.11h0.11h0.11h-0.11v0.11v0.11h0.11v0.11h0.11v0.11
	h0.11v0.11v0.11v0.11v0.11h0.11v0.11v0.11v0.11v0.11v0.11v0.11h-0.11h-0.11h-0.11l-0.11,0.11H29.3h-0.11v-0.11V79.8v-0.11h-0.11
	v-0.11v-0.11v-0.11l-0.11-0.11h-0.11h-0.11v-0.11h-0.11v-0.11h-0.11L28.4,78.9h-0.11v-0.11v-0.11v-0.11h-0.11h-0.11h-0.11v0.11
	v-0.11h-0.11h-0.11v-0.11h-0.11H27.5l-0.11-0.11v-0.11v-0.11h-0.11v-0.11v-0.11h-0.11v-0.11l-0.11-0.11l0.11-0.11h0.11h0.11
	l0.11,0.11h0.11h0.11h0.11v-0.11l0.11-0.11v-0.11h0.11v-0.11v-0.11h0.11h0.11h0.11h0.11V77h0.11v-0.11v-0.11h-0.11H28.4h-0.11v-0.11
	h-0.11h-0.11h-0.11h-0.11v-0.11v-0.11h-0.11v-0.11h-0.11H27.5v-0.11h0.11h0.11l0.11-0.11h0.11l0.11,0.11h0.11l0.11-0.11h0.11v-0.11
	l-0.11-0.11v-0.11l-0.11-0.11h-0.11h-0.11h-0.11v-0.11h0.11v-0.11v-0.11h0.11V75.2v-0.11h-0.11h0.11h0.11v-0.11h0.11h0.11v0.11h0.11
	h0.11h0.11h0.11h0.11h0.11v-0.11v-0.11h0.11h0.11h0.11h0.11h0.11l-0.11-0.11v-0.11h0.11l0.11-0.11h0.11h0.11h0.11h0.11V74.64
	L30.19,74.64z M41.18,70.72h0.11h0.11v0.11v0.11v0.11l-0.11,0.11h-0.11l-0.11,0.11l-0.11,0.11l-0.11-0.11l0.11-0.11l-0.11-0.11
	v-0.11h-0.11l-0.11-0.11h-0.11H40.4h-0.11v-0.11v-0.22l0.11-0.11h0.11v-0.11h0.11v0.11h0.11v0.11h0.11l0.11,0.11h0.11L41.18,70.72
	L41.18,70.72z M40.51,68.92H40.4v-0.11l0.11-0.11h0.11v0.11L40.51,68.92L40.51,68.92z M34.91,66.34v0.11h0.11v0.11h-0.11v0.11v0.11
	h0.11v0.11h-0.11v0.11v0.11v0.11l0.11,0.11v0.11h0.11v0.11v0.11v0.11l0.11,0.11l0.11,0.11v0.11v0.11v0.11v0.11v0.11h0.11v0.11h0.11
	h0.11v0.11h-0.11v0.11h-0.11v0.11h-0.11h0.11v0.11h-0.11v0.11h-0.11v0.11v0.11h-0.11v0.11l-0.11,0.11v0.11h-0.11v0.11h-0.11h-0.11
	v0.11h-0.11v0.11h-0.11h-0.11h-0.11v0.11h-0.11v0.11v0.11h-0.11v0.11H33.9h-0.11h-0.11h-0.11h-0.11h-0.11v0.11h-0.11v-0.11h0.11
	v-0.11v-0.11h0.11h0.11v-0.11h0.11l0.11-0.11v-0.11v-0.11h-0.11l0.11-0.11v-0.11h-0.11l-0.11-0.11v-0.11l-0.11-0.11l-0.11-0.11
	v-0.11h-0.11l-0.11-0.11L33,68.92h-0.11h-0.11v0.11h-0.11v-0.11v-0.11V68.7h0.11v-0.11v-0.11h0.11v-0.11H33v-0.11v-0.11h0.11v-0.11
	v-0.11h0.11V67.8h-0.11v-0.11h0.11h0.11h0.11v0.11v0.11h0.11v0.11v0.11h0.11h0.11h0.11l0.11-0.11h0.11h0.11v-0.11h0.11V67.8v-0.11
	l0.11-0.11v-0.11v-0.11l0.11-0.22v-0.22l-0.11-0.11l-0.11-0.11l-0.11,0.11h-0.11h-0.11v-0.11l0.22-0.11v-0.11h0.11v-0.11h0.11h0.11
	h0.11l0.11-0.11v-0.11l0.11-0.11V65.9h0.11v0.11v0.11l-0.11,0.11V66.34L34.91,66.34z M37.6,60.4l0.11,0.11h0.11h0.11h0.11v0.11h0.11
	v-0.11h0.11V60.4h0.11v-0.11h0.11v0.11v0.11h0.11l-0.11,0.11v0.11h0.11l-0.11,0.11v0.11l-0.11,0.11v-0.11v0.11v0.11h-0.11v0.11v0.11
	h-0.11v0.11v0.11v0.11h-0.11h-0.11v0.11v0.11v0.11h0.11v0.11v0.11h0.11l0.11,0.11v0.11v0.11v0.11h0.11v0.11h-0.11v0.11v0.11h-0.11
	v0.11v0.11h-0.11v0.11v0.11h-0.11v-0.11v-0.11V63.2h-0.11h-0.11H37.6v0.11h-0.11v0.11h-0.11v0.11v0.11v0.11h-0.11v0.11v0.11v0.11
	v0.11h0.11h0.11v0.11l-0.11,0.11v0.11v0.11h0.11h0.11v0.11v0.11h-0.11V65h-0.11v0.11L37.26,65v-0.11v-0.11h-0.11v-0.11v-0.11
	l-0.11-0.11h-0.11h-0.11H36.7v0.11h-0.11h-0.11v-0.11h-0.11v-0.11h-0.11v-0.11h-0.11V64.1h0.11v-0.11h-0.11v-0.11v-0.11h0.11v-0.11
	v-0.11h-0.11h-0.11v-0.11v-0.11V63.2v-0.11v0.11h-0.11v-0.11v-0.11h0.11v-0.11h0.11v-0.11v-0.11h-0.11v-0.11v-0.11h0.11v0.11h0.11
	h0.11v0.11v-0.11h0.11v-0.11h0.11v-0.11h0.11V62.2v-0.11v-0.11h0.11v-0.11l-0.11-0.11v-0.11v-0.11v-0.11h-0.11V61.3v-0.11v-0.11
	h-0.11l-0.11-0.11v-0.11v-0.11l0.11-0.11v-0.11h0.11h0.11V60.4h0.11h0.11v-0.11v-0.11h0.11v-0.11v-0.11h0.11v-0.11l0.11-0.11v-0.11
	h0.11v0.11v0.11v0.11v0.11v0.11h0.11v0.11L37.6,60.4L37.6,60.4z M41.41,57.6v0.11h0.11v0.11h-0.11H41.3v0.11h-0.11h-0.11h-0.11
	v-0.11h0.11v-0.11h-0.11V57.6h0.11h0.11h0.11v-0.11h0.11V57.6L41.41,57.6z M39.28,57.04h0.11h0.11h0.11h0.11h0.11v0.11v0.11v0.11
	v0.11l-0.11,0.11l-0.11,0.11v0.11l-0.11,0.11l-0.11,0.11l-0.11,0.11l-0.11-0.11h-0.11h-0.11v0.11h-0.11h-0.11h-0.11h-0.11v0.11
	h-0.11v0.11v0.11v-0.11h-0.11h0.11h-0.11v-0.11v-0.11h0.11v-0.11h0.11h0.11v-0.11h0.11v-0.11l0.11-0.11V57.6v-0.11v-0.11v-0.11
	v-0.11h0.11l0.11-0.11h0.11v-0.11h0.11V57.04L39.28,57.04z M41.86,56.59v-0.11h-0.11v0.11h-0.11h-0.11h-0.11H41.3v0.11l-0.11,0.11
	h-0.11v0.11v0.11l-0.11,0.11v0.11v0.11v0.11h0.11l0.11-0.11v-0.11v-0.11h0.11v-0.11v0.11v-0.11h0.11v0.11h0.11v-0.11h0.11v-0.11
	h0.11v-0.11l0.11-0.11V56.59L41.86,56.59z M39.28,56.14h-0.11v-0.11l-0.11-0.11h0.11V55.8h-0.11h0.11l0.11-0.11h0.11v-0.11h0.11
	v0.11v0.11h0.11v0.11H39.5h-0.11v0.11L39.28,56.14L39.28,56.14z M65.07-0.04v-0.11h-0.11v0.11h-0.11h-0.11v0.11v0.11h-0.11
	l-0.11,0.11H64.4v0.11h-0.11v0.11v0.11h-0.11h-0.11v0.11l-0.11-0.11V0.52h-0.11v0.11l-0.11,0.11h0.11v0.11h-0.11v0.11h-0.11v0.11
	H63.5v0.11L63.39,1.3l-0.11,0.11l-0.11,0.11v0.11h-0.11l-0.11,0.11v0.11h-0.11v0.11v0.11V2.2h-0.11H62.6h-0.11l-0.11,0.11v0.11v0.11
	h0.11v0.11h-0.11V2.54v0.11h-0.11v0.11l-0.11,0.11v0.11h0.11h-0.11h-0.11h-0.11V3.1v0.11v0.11l-0.11,0.11l-0.11,0.11h-0.11h-0.11
	l-0.11,0.11v0.11l0.11,0.11V4h-0.11l-0.11,0.11h-0.11v0.11v0.11v0.11h-0.11v0.11h-0.11h-0.11H60.7l-0.11,0.11h-0.11v0.11h0.11h0.11
	v0.11L60.59,5l-0.11,0.11l-0.11,0.11h-0.11h-0.11h-0.11h-0.11l0.11,0.11h0.11v0.11v0.11v0.11h-0.11l-0.11,0.11H59.8h-0.11V5.9
	l-0.11,0.11v0.11h-0.11v0.22h-0.11v0.11h-0.11v0.11h0.11v0.11V6.8h-0.11h-0.11v0.11h-0.11H58.9V6.8h-0.11V6.69V6.8h-0.11v0.11v0.11
	h-0.11v0.11l0.11,0.11v0.11v0.11v0.11V7.7l0.11,0.11l-0.11,0.11l0.11,0.11v0.22v0.11v0.11v0.11l0.11,0.11v0.11v0.11l-0.11,0.11v0.11
	l-0.11,0.11l-0.11,0.11h-0.11l-0.11,0.11V9.6v0.11l0.11,0.11v0.11v0.11h-0.11l-0.11,0.11v0.11l0.11,0.11v0.11l-0.11,0.11l-0.11,0.11
	h-0.11v0.11l0.11,0.11v0.11l0.11,0.11h0.11h0.11h0.11h0.11v0.11v0.11v0.11v0.11v0.11v0.11l-0.11,0.11l0.11,0.11h0.11v-0.11v-0.11
	h0.11h0.11v-0.11l0.11,0.11h0.11v0.11h0.11h0.11h0.11l0.11-0.11h0.11h0.11v0.11h0.11v0.11v0.11h-0.11v0.11H59.8l-0.11,0.11v0.11
	h0.11l0.11,0.11h0.11v0.11v0.11v0.11v0.11h0.11v-0.11l0.11-0.11l0.11-0.11l0.11-0.11h0.11v0.11l-0.11,0.11l-0.11,0.11v0.11v0.11
	l0.11,0.11h0.11v0.11h-0.11l-0.11,0.11v0.11v0.22v0.11v0.11v0.11h-0.11v0.22v0.11h-0.11v0.11h-0.11h-0.11H59.8v0.11v0.11h0.11h0.11
	h0.11v0.11l0.11,0.11l0.11,0.11h0.11h0.11V15.1h0.11v0.11v0.11l0.11,0.22l0.11,0.11h0.11l-0.11,0.11v0.11h-0.11l-0.11,0.11h-0.11
	l-0.11,0.11l0.11,0.11h0.11v-0.11h0.11v0.11v0.11v0.11v0.11l-0.11,0.11v0.11h0.11h0.11l0.11-0.11h0.11l0.11,0.11v0.11h-0.11h-0.11
	V17v0.11v0.22v0.11v0.11v0.11l-0.11,0.11h0.11v0.11v0.11l0.11,0.11v0.11v0.11h-0.11v0.11v0.11v0.11v0.11h-0.11v0.11v0.11v0.11h-0.11
	v0.11H60.7v0.11l-0.11,0.11h-0.11h-0.11h-0.11l-0.11,0.11l0.11,0.11l0.11,0.11h-0.11v0.11h-0.11v-0.11h-0.11v-0.11h-0.11v0.11v0.11
	l0.11,0.11v0.11l0.11,0.11h0.11l0.11,0.11l0.11,0.11v0.11v0.11l-0.11,0.11v0.11h-0.11l-0.11,0.11v0.11l-0.11,0.11l-0.11,0.11H59.8
	v0.11l-0.11,0.11v0.11v0.11l0.11,0.11l0.11,0.11v0.11l-0.11,0.11h-0.11l-0.11,0.11h-0.11h-0.11h-0.11h-0.11h-0.11H58.9l-0.11,0.11
	h-0.11v0.11l-0.11,0.11v0.11l-0.11,0.11v0.11l-0.11,0.11v0.11h-0.11v0.11v0.11l-0.11,0.11v0.11l-0.11,0.11v0.11v0.11l-0.11,0.11
	v0.11v0.11v0.11v0.11v0.11l-0.11,0.11l-0.11,0.11v0.11l-0.11,0.11h-0.11l-0.11,0.11l-0.11,0.11l-0.11,0.11L57,25.75v0.11l-0.11,0.11
	v0.22l-0.22,0.78v0.22v0.11l-0.11,0.34l-0.11,0.34v0.22v0.22l-0.11,0.11v0.11v0.11V29v0.11h-0.11v0.22v0.22v0.11v0.22v0.11v0.11
	v0.11l-0.11,0.11l-0.11,0.22h-0.11l-0.11,0.22l-0.11,0.11l-0.11,0.11v0.11l-0.11,0.11v0.11v0.22v0.11l-0.11,0.11v0.22v0.11v0.22
	l-0.11,0.22v0.11h-0.11v0.11l-0.11,0.11v0.11v0.11v0.11l-0.11,0.11v0.11v0.11v0.11l-0.11,0.11v0.11v0.11l-0.11,0.22v0.22l-0.11,0.22
	l-0.22,0.22v0.11l-0.11,0.22v0.11v0.11l-0.11,0.22v0.11l-0.11,0.22l-0.11,0.11v0.22l-0.11,0.22l-0.11,0.34l-0.11,0.22l-0.11,0.22
	l-0.11,0.22l-0.11,0.22l-0.11,0.11v0.11l-0.11,0.11l-0.11,0.11l-0.22,0.11l-0.11,0.22l-0.22,0.11l-0.11,0.22l-0.11,0.11l-0.11,0.11
	l-0.11,0.22l-0.11,0.11v0.11l-0.11,0.22v0.11L51.5,40.1l-0.11,0.11h-0.22v0.11l-0.11,0.11h-0.11h-0.11H50.6l-0.11,0.11l-0.11,0.11
	l-0.11,0.11v0.11V41v0.11l-0.11,0.11v0.11v0.11l-0.11,0.11v0.11l-0.11,0.11v0.11v0.11l-0.11,0.22l-0.11,0.22l-0.11,0.11l-0.11,0.22
	v0.11v0.11l0.11,0.22v0.22v0.22v0.11v0.11l-0.11,0.11v0.11l-0.22,0.11v0.11l-0.11,0.22v0.11v0.22v0.22v0.22l-0.11,0.11v0.22
	l-0.11,0.22l-0.11,0.22l-0.11,0.22v0.11l-0.11,0.11l-0.11,0.11v0.11l-0.11,0.11v0.11v0.11v0.11l-0.11,0.11v0.22v0.22l-0.11,0.11
	l-0.11,0.11l-0.11,0.11L47.8,48.4l-0.34,0.45l-0.45,0.78l-0.11,0.22l-0.22,0.22l-0.11,0.22l-0.11,0.11l-0.22,0.56l-0.11,0.22
	l-0.11,0.22l-0.11,0.34l-0.22,0.22l-0.22,0.34v0.22l-0.11,0.11V53l-0.11,0.22l-0.11,0.11L45,53.67l-0.22,0.56l1.23,1.57l0.11,0.11
	h-0.11h-0.11h-0.11v0.11l-0.22,0.11l-0.11,0.11h-0.22L45,56.36h-0.11v0.11l-0.11,0.22h-0.11h-0.11v-0.11h-0.11h-0.11v0.11
	l-0.11,0.11l-0.11,0.11l0.11,0.11v0.22L44.1,57.6v0.22v0.11l0.11,0.22h0.11v-0.11l0.11-0.11v-0.11l0.11-0.11l0.11-0.11l0.11-0.11
	l0.11-0.11H45v-0.11l0.11-0.11h0.11h0.11h0.11l0.11,0.11v0.11l-0.22,0.11h-0.11h-0.11L45,57.6v0.11v0.11h-0.11v0.11v0.11l-0.11,0.11
	v0.11l-0.11,0.22l-0.11,0.11v0.11l-0.11,0.11l-0.11,0.11h-0.45v-0.11h-0.11v-0.11h-0.11h-0.11h-0.11h-0.11H43.2h-0.11l-0.22,0.11
	v0.11h-0.11v0.11h-0.11v0.11l-0.11,0.11l-0.11,0.22l-0.11,0.11l-0.11,0.11v0.11v0.22v0.11v0.11l0.11,0.22h0.11h0.11h0.11h0.11v0.11
	h-0.11h-0.11l-0.11,0.11h-0.11h-0.11h-0.11h-0.11h-0.11h-0.11h-0.11l-0.11,0.11l-0.11,0.11v0.11l0.11,0.11v0.11h0.11v0.11l0.11,0.11
	v0.11h0.11v0.11v0.11v0.22v0.11l0.11,0.11v0.11h0.11h0.11h0.11v0.11l-0.11,0.11v0.11v0.11l0.11,0.11v0.22l0.11,0.34l0.22,0.22
	l0.11,0.11l0.11,0.11v0.22h-0.11v0.11v0.11h0.11h0.11h0.11l0.11-0.11h0.11l0.11-0.11h0.11l0.11-0.11l0.11-0.11l0.11-0.22l0.11-0.11
	l0.11-0.22l0.11-0.11l0.11-0.11h0.11v-0.11h0.11v-0.11h0.11v-0.11l0.11-0.11v-0.11h0.11v-0.22H45v-0.11h0.11V62.2v-0.11l0.11-0.11
	v-0.11v-0.11v-0.11v-0.11v-0.11V61.3h-0.11l0.11-0.11v0.11h0.11h0.11h0.11h-0.11v0.11h-0.11v0.11v0.11v0.11v0.11l0.11,0.22v0.11
	v0.22v0.11v0.11h-0.11v0.11h-0.11l-0.11,0.11L45,62.98l-0.11,0.11v0.11h-0.11v0.11h-0.11l-0.22,0.22l-0.11,0.11h0.11l0.11-0.11h0.11
	l0.11-0.11l0.11-0.11L45,63.54h-0.11l-0.11,0.11h-0.11v0.11v0.11h-0.11l-0.11,0.11v0.11h-0.11v0.11h-0.11v0.11H44.1l-0.11,0.11
	l0.11,0.11h-0.11v0.11h-0.11h-0.11v0.11h0.11h0.11v0.11h-0.11h-0.11L43.65,65l-0.11,0.11h-0.11h-0.11l-0.11,0.11v0.11l-0.11,0.11
	h-0.11v0.11h-0.11v0.11l-0.11-0.11v-0.11l0.11-0.11v-0.11v-0.11V65h-0.11h-0.11l-0.11,0.11l-0.22,0.11h-0.11l-0.22,0.11l-0.11-0.11
	h-0.11v-0.11h-0.11h-0.11v0.11h-0.11l-0.11,0.11v0.11h-0.11l-0.11,0.11l-0.11-0.11l-0.11,0.11v0.11l0.11,0.22v0.11v0.11v0.11
	l-0.11,0.11h0.11v0.11v0.11h0.11l0.11,0.22l0.11,0.11v0.11v0.11v0.11v0.11v0.11h-0.11v0.11h-0.22l-0.11,0.11v0.11l0.11,0.11
	l-0.11,0.11h-0.11h-0.11h-0.11v0.11l-0.11,0.11v0.11h0.11v0.11h0.11v0.11h0.11v-0.11h0.11h0.11v0.11v-0.11h0.11v-0.11v-0.11h0.11
	h0.11l0.11-0.11h0.11h0.11v-0.11h0.11v-0.11V67.8h0.11v-0.11h0.11h0.11h0.11h0.11h0.11v0.11v0.11h0.11v0.11h0.11l0.22,0.11h0.11
	h0.22h0.11h0.11v-0.11h0.11h0.11v-0.11V67.8l-0.11-0.11h-0.11h-0.11H43.2h-0.11h-0.11h0.11h0.11v-0.11v0.11h0.11h0.11v-0.11v0.11
	h0.11l0.11,0.11h0.11v-0.11h0.11v-0.11h0.11l0.11,0.11h-0.11v0.11v0.22h-0.11v0.11h0.11v0.11h-0.11v0.11v0.11h0.11h0.11h0.11h0.11
	h0.11h0.11h0.11h0.11v0.11h0.11h-0.11h-0.11l-0.11-0.11v0.11h-0.11h-0.11h-0.11H44.1l-0.11,0.11l0.11,0.22v0.11h0.11l0.22,0.11
	l0.34,0.11h0.11L45,69.37h0.11h0.11h-0.11H45h-0.11h-0.22l-0.11-0.11h-0.22l-0.22-0.11h-0.11h-0.11l-0.11,0.11l-0.11,0.11v0.11v0.11
	l0.11,0.11v0.11l0.11,0.11l0.22,0.11h0.11v0.11h0.11h-0.11l-0.11-0.11h-0.11h-0.11l-0.11-0.11h-0.11l-0.11-0.11h-0.11v0.11
	l-0.11,0.11v0.11v0.11v0.11v0.11l0.11,0.22v0.11v0.11v0.11h-0.11v-0.11l0.11-0.11v-0.11h-0.11v-0.11v-0.11v-0.11v-0.11H43.2v0.11
	l-0.11,0.11h-0.11v0.11v0.11h0.11v0.11v0.11v0.11v0.11v0.11l-0.11,0.11l-0.11-0.11h-0.11l-0.11,0.11l-0.11,0.22l-0.11,0.11v0.22
	l-0.11,0.11v0.11l-0.22,0.11h-0.11h-0.11v-0.11h-0.11v0.11h-0.11v0.11l-0.11,0.11l-0.11,0.11l-0.22,0.11h-0.11h-0.11v-0.11h-0.11
	h-0.11h-0.11h-0.11l-0.11-0.11h-0.11h-0.11V72.4v-0.11h0.11v-0.11h-0.11h-0.11h-0.11v-0.11l-0.11-0.11h-0.11h-0.11H39.5v-0.11h-0.11
	v0.11h0.11v0.11h-0.11v0.11h0.11v0.11l0.11-0.11l0.11,0.11v0.11v0.11v0.11v0.11v0.11h0.11v0.11h0.11v0.11v0.11v0.11l-0.11,0.11
	l0.11,0.11l0.11-0.11h0.11v0.11v0.11v0.11v0.11v0.11l0.11,0.11h0.11v-0.11v-0.11v-0.11h0.11l0.11-0.11h0.11v0.11h0.11h0.11h0.11
	l0.11,0.22l-0.11,0.11v0.22v0.11l-0.22,0.34l-0.11,0.22l-0.22,0.11L40.4,75.2v0.11v0.11v0.11l0.11,0.22l-0.11-0.11h-0.34l-0.56-0.11
	h-0.11h-0.11h-0.11v-0.11v-0.11l-0.11-0.11h-0.11v0.11v0.11l-0.11,0.11v0.11l-0.11,0.11l-0.11,0.11h-0.11h-0.11h-0.11v-0.11
	l-0.11-0.11h-0.11v0.11h-0.11l0.11,0.11v0.11v0.11v0.11v0.11v0.34v0.11v0.11V77v0.11v0.11v0.11h0.11v0.11l0.22,0.11h0.11l0.11,0.11
	h0.11v0.11l0.11,0.11v-0.11h0.11v0.11h0.11l0.11,0.11h0.22h0.11l0.11-0.11h0.11l0.11,0.11h0.11h0.11h0.11l0.22-0.11h0.11h0.11v-0.11
	h0.11h0.11h0.11l0.11,0.11l0.11,0.11l0.11,0.11h0.11v0.11v0.11h0.11l0.11,0.11h0.11v0.11h0.11v-0.11h0.11v0.11l-0.11,0.11l0.11,0.11
	h0.11l0.11,0.45l0.22,0.34l-0.22,0.11l-0.45,0.11l-0.22,0.22l-0.11,0.11v0.11l-0.11,0.22h-0.11h-0.11h-0.22l-0.11,0.11h-0.11H40.4
	h-0.11v0.11v0.22v0.11v0.22v0.45v0.11v0.11v0.11v0.34v0.11l0.22,0.56v0.22l-0.11,0.11v0.11v0.11v0.11h-0.11l-0.11,0.11l-0.22,0.34
	v0.11v0.11v0.11v0.11h-0.11v-0.11V84.4l-0.11-0.22v-0.11h-0.11H39.5v0.11h-0.11l-0.11,0.11v0.11v0.11l-0.11,0.34v0.22l0.11,0.22
	v0.11l0.11,0.11v0.11l0.11,0.11l-0.11,0.11v0.11v-0.11l-0.11-0.11v-0.11v-0.11l-0.11-0.11V85.3l-0.11-0.11v-0.22v-0.11v-0.22V84.4
	l0.11-0.11v-0.11h0.11v-0.11h0.11l0.11-0.11l0.11-0.11l0.22-0.22l0.22-0.11v-0.11l0.11-0.11v-0.11v-0.11l-0.11-0.11l-0.11-0.22
	l-0.11-0.22l-0.11-0.11v-0.11v-0.11l-0.11-0.11v-0.22v-0.11V81.6H39.5l-0.11,0.11l-0.11,0.11l-0.11,0.11v0.11v0.11v0.22l0.11,0.22
	v0.22v0.11v0.22v0.11v0.11v0.11v0.22l-0.11,0.11v0.11l-0.11,0.22l-0.11,0.11l-0.11,0.11l-0.11,0.22l-0.11,0.11l-0.11,0.11v0.22v0.11
	l0.11,0.34l0.11,0.45l0.11,0.22v0.11l-0.11,0.11v0.22l0.11,0.34h-0.11l-0.11-0.22l-0.11-0.11v-0.11v-0.22v-0.11v-0.22l-0.11-0.22
	l-0.11-0.34l-0.22-0.22v-0.11v-0.22v-0.11v-0.11l-0.11-0.11l-0.11,0.11h-0.11v-0.11V84.4v-0.11h0.11h0.11v0.11l0.11,0.11h0.11h0.11
	V84.4v-0.11h0.11v-0.11v-0.11l0.11-0.11v-0.11v-0.11v-0.11V83.5v-0.11v-0.11v-0.11h0.11v-0.11v-0.11v-0.11v-0.11h0.11v-0.22
	l0.11-0.11v-0.11v-0.11l-0.11-0.11v-0.11l-0.11-0.11v-0.11l-0.11-0.11v-0.11l-0.11-0.11v-0.11h-0.11l-0.11,0.11h-0.11h-0.11
	l-0.11,0.11h-0.11v0.11v0.11H37.6V81.6h0.11v-0.11h0.11v-0.11h0.11h0.11h0.11v-0.11h0.11h0.11v-0.11l-0.11-0.11l-0.11-0.11v-0.11
	l-0.11-0.11v-0.11h-0.11v-0.11h-0.11v-0.11v-0.11h0.11v0.11h0.11v-0.11l0.11-0.11h0.11v-0.11v-0.11h0.11V79.8v-0.11h-0.11h-0.11
	v0.11h-0.11l-0.11,0.11v0.11h-0.11v-0.11h-0.11L37.6,79.8v0.11h-0.11v0.22l-0.11,0.34l-0.11,0.34v0.11v0.11l-0.11,0.34v0.11h-0.11
	h-0.11v0.11v0.11v0.11v0.11l-0.11,0.22l-0.11,0.22v0.11v0.11l-0.11,0.11v0.11l-0.22,0.56l-0.11,0.56h-0.11v0.22v0.11v0.22v0.22v0.22
	l0.11,0.11v0.22h-0.11v0.11h-0.11v0.11v0.22v0.22v0.11v0.22v0.22v0.34l-0.11,0.34v0.22l-0.11,0.22v0.22l-0.11,0.11v0.11h-0.11v0.11
	v0.22l-0.11,0.11v0.22v0.11L35.35,89l-0.11,0.34l-0.22,0.34l-0.11,0.34v0.11l-0.22,0.22v0.11v0.11v0.11l-0.11,0.11h-0.11h-0.11
	l-0.11-0.11v-0.11l-0.11-0.11v-0.11h-0.11H33.9h-0.11v0.11v0.11v0.11v0.34v0.22l0.11,0.22v0.11v0.11v0.11h0.11v0.11v0.11v0.11H33.9
	v-0.11v-0.11V91.8l-0.11-0.11h-0.11v0.11l-0.11,0.11v0.11v0.11v0.22v0.11v0.34v0.11l-0.11,0.11v0.11v0.11v0.34v0.11l-0.11,0.22v0.11
	h0.11l0.11-0.11h0.11h0.11l0.11-0.11h0.11h0.11h0.11v0.11h0.11l0.11,0.11h0.11v0.11l0.11,0.11v0.11l0.11,0.11h0.11h0.11l0.11-0.11
	h0.11h0.11h0.11l0.11-0.11h0.11h0.11v-0.11h0.22h0.11l0.11-0.11h0.11v-0.11h0.11v-0.11h0.11l0.11-0.11h0.11h0.22v0.11h0.11
	l0.11,0.11h0.11v0.11h0.11v0.11v0.11h0.11v0.11l0.11,0.11l0.11,0.11v0.11h0.11v0.11l0.11,0.11v0.11h0.11h0.11h0.11v0.11v0.11h-0.11
	v0.11l-0.11,0.11l-0.11,0.11l-0.11,0.11v0.11h-0.11h-0.11l-0.11,0.11h-0.11v0.11h0.11h0.11h0.11h0.11l0.11,0.11l0.11-0.11h0.11
	v-0.11v-0.11h0.11v-0.11h0.11h0.11v0.11v0.11h0.11v0.11h0.11h0.11v0.11l0.11,0.11h0.11v0.11v0.11v0.11l-0.11,0.11v0.11h0.11v-0.11
	h0.11v-0.11h0.11v-0.11h0.11h0.11h0.11v0.11h0.11h0.11h0.11l0.11,0.11h0.11l0.11-0.11l0.11-0.11h0.22V96.4v-0.11v-0.11v-0.11
	l0.11-0.11l0.11-0.11v-0.11h0.11h0.11v-0.11V95.5v-0.11v-0.11h0.11v-0.11h0.11v-0.11h0.11l0.11-0.11v-0.11h0.11v-0.11h0.11
	l0.11-0.11h0.11v-0.11h0.11v-0.11h0.11v-0.11v-0.11l0.11-0.11h0.11v-0.11h0.11h0.11h0.11v-0.11l0.11-0.11v-0.11v-0.11h0.11v-0.11
	h0.11l0.11-0.11v-0.11h0.11h0.11h0.11h0.11v0.11h0.11h0.11h0.11h0.11v-0.11h0.11h0.11v0.11h0.11h0.11h0.11v-0.11l0.11-0.11H45
	l0.11-0.11v-0.11h0.11h0.11h0.11h0.11V92.7h0.11v0.11h0.11l0.11-0.11h0.11l0.11,0.11l0.11,0.11v0.11v0.11h-0.11l0.11,0.11v0.11
	h-0.11h0.11v0.11l0.11,0.11l0.11,0.11h0.11v0.11l0.11,0.11h0.11l0.11,0.11h0.11l0.11,0.11h0.11l0.11,0.11h0.11l0.11,0.11h0.11v-0.11
	h0.11h0.11l0.11-0.11v-0.11h0.11l0.11-0.11h0.11v-0.11h0.11l0.11-0.11h0.11v-0.11h0.11v-0.11h0.11h0.11v-0.11h0.11h0.11v0.11h0.11
	v0.11l0.11,0.11h0.11h0.11l0.11,0.11h0.11l0.11,0.11h0.11h0.11h0.11l0.11,0.11h0.11h0.11v-0.11h0.11v-0.11h0.11v-0.11v-0.11h0.11
	v-0.11h0.11v-0.11h0.11v-0.11h0.11v-0.11v-0.11v-0.11l0.11-0.11V92.7v-0.11h-0.11v-0.11l0.11-0.11v-0.11v-0.11h0.11v-0.11v-0.11
	L51.5,91.8v-0.11v-0.11v-0.11l0.11-0.11H51.5h-0.11h-0.11h-0.11v0.11h-0.11h-0.11h-0.11h-0.11l-0.11,0.11v-0.11h-0.11h-0.11h-0.11
	h-0.11l-0.11-0.11h-0.11v-0.11h0.11v-0.11h0.11v-0.11h0.11V90.9l0.11-0.11v-0.11v-0.11v-0.11v-0.11v-0.11l-0.11-0.11h-0.11
	l-0.11-0.22v-0.11l-0.11-0.11v-0.11v-0.11v-0.11v-0.22V89v-0.11v-0.11h0.11v-0.11h0.11v0.11h0.11l0.11,0.11V89h0.11v0.11h0.11h0.11
	v0.11l0.11,0.11h0.11v-0.11h0.11h0.11l0.11-0.11L51.39,89h0.11v-0.11h0.11v-0.11v-0.11h0.11v-0.11h0.11l0.11-0.11l0.11-0.11h0.11
	v-0.11h-0.11V88.1l-0.11-0.11l-0.11-0.11h-0.11l-0.11-0.11v-0.11H51.5h0.11v-0.11H51.5l-0.11-0.11v0.11h-0.11v-0.11v-0.11h-0.11
	V87.2v-0.11v-0.11v-0.11v-0.11h-0.11v-0.11h0.11v-0.11h0.11v-0.11v-0.11h0.11v-0.11l0.11,0.11h0.11h0.11h0.11h0.11l0.11-0.11
	l0.11-0.11h0.11h0.11h0.11h0.11h0.11h0.11h0.11l0.11-0.11v-0.11l0.11-0.11v-0.11h0.11v-0.11h0.11v-0.11l0.11-0.11v-0.11v-0.11h0.11
	v-0.11h0.11h0.11h0.11h0.11l0.11-0.11h0.11v0.11l0.11-0.11v-0.11v-0.11v-0.11V84.4h0.11v-0.11h-0.11v-0.11l0.11-0.11h0.11v-0.11
	h0.11h0.11v-0.11v-0.11l0.11-0.11V83.5v-0.11v-0.11h0.11v-0.11h0.11v-0.11h0.11h0.11h0.11v-0.11l0.11-0.11v-0.11l0.11-0.11
	l0.11-0.11l0.11-0.11l0.11-0.11v-0.11l0.11-0.11h0.11v-0.22l0.11-0.11h0.11h0.11l0.11-0.11h0.11H57h0.11h0.11h0.11l0.11,0.11V81.6
	l0.11-0.11v-0.11l0.11-0.11l0.11-0.11v-0.11h-0.11v-0.11v-0.11h-0.11V80.7h-0.11v-0.11l-0.11-0.11v-0.11h-0.11v-0.11h-0.11v-0.11
	v-0.11v-0.11V79.8v-0.11l0.11-0.11v-0.11h-0.11v-0.11v-0.11v-0.11H57v-0.11h-0.11l-0.11,0.11h-0.11h-0.11v-0.11h-0.11h-0.11V78.9
	h-0.11H56.1v-0.11h-0.11l-0.11-0.11v-0.11h-0.11v-0.11l0.11-0.11v-0.11l0.11-0.11h-0.11v-0.11v-0.11v-0.11v-0.11h-0.11v-0.11h0.11
	v-0.11v-0.11h-0.11v-0.11h-0.11v-0.11L55.76,77v-0.11l-0.11-0.11l-0.11-0.11h-0.11h-0.11H55.2v-0.11l-0.11-0.11v-0.11l-0.11-0.11
	l-0.11-0.34v-0.11v-0.11h-0.11h-0.11h-0.11h-0.11h-0.11l-0.11-0.11v-0.11h-0.11v0.11h-0.11h-0.11v-0.11h-0.11l-0.11-0.11h-0.11
	l-0.11-0.11H53.3h-0.11v-0.11v-0.11h-0.11h-0.11v-0.11h-0.11h-0.11h-0.11h-0.11v-0.11v-0.11v-0.11v-0.11H52.4h-0.11h-0.11v-0.11
	h-0.11v-0.11h-0.11v-0.11h-0.11h-0.11v-0.11h-0.11H51.5h-0.11h-0.11h-0.11h-0.11h-0.11h-0.11v-0.11h-0.11v0.11H50.6h-0.11
	l-0.11,0.11v-0.11v-0.11l-0.11-0.11v-0.11l-0.11-0.11h-0.11l-0.11-0.11V73.3h0.11h0.11v-0.11h0.11l0.11-0.11v-0.11v-0.11l0.11-0.11
	l0.11-0.11l0.11-0.11V72.4v-0.11v-0.11v-0.11v-0.11v-0.11H50.6v-0.11h-0.11h-0.11h-0.11l-0.11-0.11h-0.11h-0.11V71.5v-0.11
	l0.11-0.22l0.11-0.11v-0.11v-0.11h-0.11h-0.11v-0.11v-0.11h-0.11v-0.11h-0.11v-0.11H49.6v-0.11l-0.11-0.11v-0.11v-0.11v-0.11h-0.11
	v-0.11V69.6v-0.11v-0.11l0.11-0.11v-0.11h-0.11v-0.11v-0.11h0.11h0.11v-0.11V68.7v-0.11v-0.11l-0.11-0.11l-0.11-0.11l-0.11-0.11
	h-0.11v-0.11h-0.11v-0.11V67.8l-0.11-0.11v-0.11h0.11v-0.11v-0.11v-0.11l-0.11-0.11l-0.11-0.11v-0.11l-0.11-0.11h0.11l0.11-0.11
	h0.11v-0.11v-0.11v-0.11v-0.11l-0.11-0.11v-0.11l-0.11-0.11v-0.11h0.11v-0.11l0.11-0.11v-0.11v-0.11v-0.11h0.11h0.11v-0.11h0.11
	h0.11V65h0.11h0.11v0.11h0.11V65h0.11v-0.11l0.11-0.11h0.11v-0.11l0.11-0.11l0.11-0.11v-0.11l0.11-0.11l0.11-0.11h0.11h0.11
	l0.11-0.11h0.11v-0.11v-0.11v-0.22v-0.11h0.11v-0.11h0.11h0.11V63.2h0.11v-0.11v-0.11h0.11v-0.11h0.11l0.11-0.11v-0.11h0.11h0.11
	v-0.11v-0.11l0.11-0.11l0.11-0.11h0.11h0.11l0.11,0.11h0.11h0.11h0.11V62.2l0.11-0.11l0.11-0.22v-0.11l0.11-0.11l0.11-0.11v-0.11
	h0.11V61.3h0.11v-0.11v-0.11l0.11-0.11h0.11l0.11-0.11h0.11l0.11-0.22h0.11v-0.11h0.11l0.11-0.11v-0.11h0.11v-0.11h0.11v-0.11v-0.11
	v-0.11v-0.11v-0.11l0.11-0.11l-0.11-0.11v-0.11v-0.11h-0.11v-0.11v-0.11h0.11v-0.11l-0.11-0.11v-0.11l0.11-0.11v-0.11v-0.11h0.11
	v-0.11h0.11h0.11v-0.11h0.11v-0.11h0.11v-0.11v-0.11h0.11V57.6h0.11h0.11h0.11v-0.11h0.11h0.11v-0.11v-0.11l0.11-0.11h0.11v-0.11
	l0.11-0.11v-0.11l0.11-0.11h0.11h0.11h0.11v-0.11v-0.11l0.11-0.11v-0.11v-0.11v-0.11v-0.11V55.8L57,55.69h0.11l0.11-0.11h0.11v-0.11
	h0.11v-0.11h0.11h0.11h0.11v-0.11l0.11-0.11l0.11-0.11l0.11-0.11h0.11l0.11-0.11h0.11v-0.11h0.11v-0.11h0.11v0.11h0.11v0.11h0.11
	l0.11,0.11h0.11h0.11v0.11l0.11,0.11l0.11,0.11h0.11h0.11l0.11-0.11h0.11h0.11h0.11v0.11h0.11l0.11,0.11h0.11v0.11h0.11l0.11,0.11
	h0.11v-0.11h0.11v-0.11h0.11v-0.11v-0.11h0.11l0.11-0.11v-0.11h0.11v-0.11v-0.11v-0.11v-0.11v-0.11v-0.11v-0.11v-0.11l0.11-0.11
	v-0.11l0.11-0.11v-0.11v-0.11l0.11-0.11h0.11v-0.11v-0.11V53v-0.11v-0.11h0.11h0.11l0.11-0.11v-0.11l0.11-0.11h0.11v-0.11h0.11
	l0.11-0.11V52.1v-0.11h0.11v-0.11v-0.11h0.11h0.11h0.11l0.11,0.11h0.11l0.11-0.11h0.11l0.11-0.11h0.11l0.11,0.11h0.11v0.11h0.11
	l0.11-0.11h0.11v-0.11l0.11-0.11l0.11-0.11h0.11h0.11l0.11-0.11l0.11-0.11v-0.11h0.11h0.11h0.11v-0.11h0.11v-0.11v-0.11l0.11-0.11
	v-0.11v-0.11h0.11v-0.11h0.11V50.2h0.11h0.11v-0.11l0.11-0.11h0.11l0.11-0.11v-0.11h0.11h0.11h0.11v-0.11v-0.11v-0.11V49.3h0.11
	v-0.11v-0.11h-0.11v-0.11l-0.11-0.11v-0.11l-0.11-0.11V48.4v-0.11v-0.11v-0.11v-0.11l0.11-0.11l-0.11-0.11v-0.11H66.3v-0.11h-0.11
	v-0.11h-0.11v-0.11h-0.11v-0.11h-0.11h-0.11v0.11l-0.11,0.11h-0.11l-0.11-0.11H65.3v-0.11h-0.11l-0.11,0.11l-0.11,0.11l-0.11-0.11
	h-0.11h-0.11v-0.11l-0.11,0.11H64.4v-0.11h-0.11v0.11h-0.11v0.11h-0.11h-0.11v-0.11v-0.11h-0.11v0.11h-0.11v0.11h-0.11H63.5v-0.11
	h-0.11h-0.11h-0.11h-0.11h-0.11h-0.11h-0.11H62.6h-0.11h-0.11v-0.11h-0.11h-0.11v-0.11l0.11-0.11h0.11v-0.11l0.11-0.11v-0.11h0.11
	V46.5h0.11v-0.11h0.11v-0.11v-0.11v-0.11h0.11v-0.11h0.11v-0.11h0.11l0.11,0.11h0.11h0.11v-0.11h0.11v-0.11V45.6l0.11-0.11
	l0.11-0.11v-0.11h0.11v-0.11v-0.11v-0.11l0.11-0.11V44.7v-0.11h0.11v-0.11v-0.11v-0.11h-0.11v-0.11h-0.11v-0.11v-0.11V43.8v-0.11
	l0.11-0.11v-0.11h-0.11v0.11h-0.11l-0.11,0.11v-0.11h-0.11l0.11-0.11v-0.11v-0.11l0.11-0.11h-0.11v-0.11v-0.11V42.8l0.11-0.11h0.11
	h0.11h0.11h0.11v-0.11v-0.11v-0.11v-0.11v-0.11v-0.11l0.11-0.11v-0.11v-0.11v-0.11l-0.11-0.11v-0.11h0.11v-0.11h0.11h0.11h0.11h0.11
	v-0.11v0.11h0.11h0.11h0.11h0.11v-0.11h0.11L65.52,41h0.11v-0.11v-0.11h-0.11v-0.11h0.11v-0.11v-0.11v-0.11v-0.11h-0.11h-0.11V40.1
	H65.3v-0.11h-0.11v-0.11h-0.11h-0.11v-0.11v-0.11h-0.11v-0.11v-0.11h-0.11l-0.11-0.11h-0.11v-0.11H64.4v-0.11l0.11-0.11v-0.11h0.11
	v-0.11h0.11v-0.11v-0.11v-0.11v-0.11V38.2v-0.11v-0.11l0.11-0.11v-0.11h0.11v-0.11v-0.11h0.11v-0.11h0.11h0.11l0.11-0.11l0.11-0.11
	v-0.11v-0.11h0.11l0.11-0.11v-0.11v-0.11v-0.11V36.4v-0.11h-0.11v-0.11v-0.11l0.11-0.11h0.11v-0.11h0.11h0.11l0.11-0.11h0.11v-0.11
	h0.11v-0.11l-0.11-0.11v-0.11h-0.11v-0.11h-0.11v-0.11h0.11l0.11-0.11l0.11-0.11h0.11v-0.11h0.11v-0.11l0.11-0.11v-0.11v-0.11
	l0.11-0.11v-0.11l0.11-0.11v-0.11h-0.11v-0.11h-0.11l-0.11-0.11h-0.11h-0.11v-0.11v-0.11l-0.11-0.11v-0.11v-0.11l0.11-0.11v-0.11
	V32.7v-0.11v-0.11l0.11-0.11v-0.11h0.11l-0.11-0.11l0.11-0.11v-0.11h0.11v-0.11h0.11h0.11l0.11-0.11v-0.11h0.11l0.11-0.11v-0.11
	v-0.11v-0.11v-0.11h0.11v-0.11h0.11V30.8l0.11-0.11l0.11-0.11h0.11v-0.11v-0.11h0.11v-0.11h0.11l0.11-0.11h0.11v-0.11V29.9v-0.11
	h0.11v-0.11h0.11v-0.11h0.11v-0.11v-0.11h0.11v-0.11l0.11-0.11V29H69v-0.11v-0.11v-0.11v-0.11h0.11v-0.11v-0.11v-0.11v-0.11v-0.11
	v-0.11H69h-0.11h-0.11v-0.11h-0.11l-0.11-0.11h-0.11v-0.11h-0.11v-0.11h0.11v-0.11v-0.11l0.11-0.11v-0.11h0.11v-0.11l0.11-0.11
	v-0.11v-0.11v-0.11v-0.11h-0.11h-0.11h-0.11l-0.11-0.11h-0.11v-0.11v-0.11v-0.11h0.11h-0.11v-0.11v-0.11v-0.11H68.1h-0.11h-0.11
	h-0.11h-0.11h-0.11h-0.11h-0.11H67.2h-0.11v-0.11h-0.11h-0.11h-0.11h-0.11h-0.11h-0.11V25.3v-0.11h0.11l0.11-0.11v-0.11v-0.11v-0.11
	v-0.11v-0.11h-0.11h-0.11H66.3V24.4h-0.11v-0.11h-0.11l-0.11-0.11v-0.11v-0.11v-0.11v-0.11v-0.11v-0.11V23.4v-0.11h0.11v-0.11v-0.11
	v-0.11h-0.11v-0.11v-0.11h0.11v-0.11h-0.11h-0.11V22.5v-0.11l-0.11-0.11v-0.11l-0.11-0.11v-0.11h-0.11v-0.11l0.11-0.11V21.6h-0.11
	h-0.11v-0.11v-0.11v-0.11h0.11v-0.11h0.11v-0.11v-0.11h0.11v-0.11V20.7l0.11-0.11l0.11-0.11v-0.11v-0.11v-0.11v-0.11v-0.11
	l0.11-0.11h0.11v-0.11h0.11h0.11v-0.11h0.11l0.11-0.11h0.11l0.11-0.11l0.11,0.11l0.11-0.11v-0.11v-0.11v-0.11l0.11-0.11V18.8
	l0.11-0.11v-0.11h0.11l0.11-0.11v-0.11v-0.11h0.11v-0.11h0.11v-0.11l0.11-0.11h0.11h0.11h0.11h0.11h0.11h0.11h0.11h0.11l0.11-0.11
	v-0.11H69h0.11l0.11-0.11h0.11v-0.11h-0.11v-0.11l0.11-0.11v-0.11V17h0.11v-0.11l0.11-0.11v-0.11h0.11v-0.11v-0.11h0.11h0.11v-0.11
	h0.11h0.11h0.11v-0.11h0.11l0.11-0.11l-0.11-0.11l-0.11-0.11v-0.11h-0.11h-0.11v-0.11h-0.11v-0.11h-0.11v-0.11l-0.11-0.11h-0.11
	h-0.11v-0.11V15.1h-0.11l-0.11-0.11v-0.11v-0.11v-0.11v-0.11h-0.11v-0.11v-0.11V14.2H69h0.11h0.11v-0.11h0.11v-0.11h0.11h0.11v-0.11
	h0.11v-0.11h0.11v-0.11h0.11l0.11-0.11h0.11v-0.11V13.3h0.11v-0.11v-0.11v-0.11h0.11v-0.11v-0.11v-0.11v-0.11l0.11-0.11v-0.11v-0.11
	v-0.11l0.11-0.11v-0.11l-0.11-0.11h-0.11v-0.11v-0.11l-0.11-0.11v-0.11v-0.11h-0.11h-0.11v0.11h-0.11v0.11h-0.11h-0.11v0.11h-0.11
	h-0.11h-0.11V11.4h-0.11l0.11-0.11v-0.11v-0.11v-0.11v-0.11l0.11-0.11v-0.11V10.5l0.11-0.11v-0.11v-0.11v-0.11V9.94l0.11-0.11V9.71
	h-0.11h-0.11V9.6V9.49h0.11V9.38h-0.11V9.27h-0.11l-0.11-0.11h-0.11L69,9.04V8.93h-0.11h-0.11v0.11h-0.11l-0.11-0.11h-0.11v0.11
	h-0.11h-0.11V8.93H68.1V8.82V8.71l-0.11-0.11V8.48l0.11-0.22V8.14V8.03h0.11V7.92V7.81V7.7h0.11V7.58V7.47h-0.11V7.36H68.1h-0.11
	V7.25V7.14h-0.11V7.02h-0.11h-0.11h-0.11h-0.11h-0.11H67.2l-0.11,0.11h-0.11V7.02V6.91V6.8l0.11-0.11V6.57h-0.11l-0.11-0.11V6.35
	h-0.11V6.24v0.11h-0.11v0.11h-0.11v0.11h-0.11v0.11H66.3V6.8h-0.11l-0.11,0.11h-0.11V6.8V6.69V6.57h-0.11V6.46V6.35V6.24V6.13h-0.11
	V6.01V5.9l0.11-0.11h0.11V5.68h0.11V5.57V5.45h0.11V5.34h0.11V5.23V5.12V5h-0.11V4.89l0.11-0.11h0.11V4.67h0.11V4.56V4.44V4.33h0.11
	V4.22h0.11V4.11h-0.11V4V3.88V3.77h0.11V3.66h0.11V3.55h0.11V3.43l0.11-0.11V3.21L66.98,3.1V2.99h0.11l0.11-0.11V2.76h0.11V2.65
	V2.54H67.2V2.43h-0.11l-0.11-0.11V2.2h-0.11h-0.11h-0.11h-0.11h-0.11H66.3h-0.11V2.09l-0.11-0.11h-0.11V1.86V1.75V1.64V1.53V1.42
	h-0.11V1.3V1.19l-0.11-0.11V0.97h-0.11V0.86V0.74V0.63V0.52h-0.11v0.11V0.52h-0.11V0.41V0.29V0.18V0.07H65.3h-0.11h-0.11V-0.04z"/>
</svg>
