<?xml version="1.0" encoding="utf-8"?>
<!-- Generator: Adobe Illustrator 24.2.1, SVG Export Plug-In . SVG Version: 6.00 Build 0)  -->
<svg version="1.1" id="Layer_1" xmlns="http://www.w3.org/2000/svg" xmlns:xlink="http://www.w3.org/1999/xlink" x="0px" y="0px"
	 viewBox="0 0 97.23 97.23" style="enable-background:new 0 0 97.23 97.23;" xml:space="preserve">
<style type="text/css">
	.st0{fill-rule:evenodd;clip-rule:evenodd;fill:#1D1D1B;}
</style>
<path class="st0" d="M82.89,77.83h-0.16v-0.16l0.16-0.16v-0.16v-0.16h0.16h0.16v0.16h-0.16v0.16h-0.16v0.16V77.83L82.89,77.83z
	 M83.2,76.58h-0.16l0.16-0.16l0.16-0.16v-0.16v-0.16l0.16-0.16v-0.16h0.16h-0.16V75.5h0.16h0.16v0.16v0.16l0.16,0.16v0.16h-0.16
	v0.16h-0.16l-0.16,0.16h-0.16L83.2,76.58L83.2,76.58z M15.16,74.25v0.16v0.16H15v0.16l-0.16,0.16h-0.16h-0.16h-0.16v-0.16v-0.16
	h-0.16v-0.16h-0.16v-0.16h-0.16v0.16h-0.16h-0.16v0.16h-0.16H13.3h-0.16h-0.16h-0.16v0.16h-0.16h-0.16h-0.16v-0.16h0.16v-0.16h0.16
	v-0.16h0.16V74.1l0.16-0.16h0.16h0.16l0.16-0.16v-0.16h0.16l0.16-0.16l0.16-0.16h0.16v-0.16h0.16h0.16v-0.16v0.16h0.16h0.16h0.16H15
	v0.16h0.16v0.16v0.16v0.16v0.16v0.16V74.25L15.16,74.25z M1.33,69.44h0.16h0.16v0.16H1.8v0.16l0.16,0.16l0.16,0.16h0.16l0.16,0.16
	l0.16,0.16v0.16h0.16v0.16h0.16h0.16l0.16,0.16h0.16h0.16v0.16v0.16H3.35H3.2v0.16H3.04H2.89v0.16H2.73H2.58H2.42L2.27,71.3H2.11
	v-0.16H1.96H1.8v-0.16H1.65H1.49v-0.16H1.33H1.18l-0.16,0.16v-0.16v-0.16H0.87H0.71v-0.16v-0.16l-0.16-0.16h0.16v-0.16H0.56V69.9
	v-0.16h0.16v-0.16l0.16-0.16v-0.16v-0.16h0.16l0.16,0.16L1.33,69.44L1.33,69.44z M10.5,68.97v0.16v0.16h-0.16v0.16l-0.16-0.16h-0.16
	l-0.16-0.16H9.72l0.16-0.16h0.16h0.16h0.16H10.5L10.5,68.97z M18.42,67.88h-0.16h-0.16v-0.16h-0.16v-0.16v-0.16v-0.16H17.8v-0.16
	v-0.16V66.8h-0.16v-0.16v-0.16h0.16v0.16h0.16v0.16h0.16v0.16h0.16v0.16l0.16,0.16l0.16,0.16v0.16l-0.16,0.16V67.88L18.42,67.88z
	 M12.52,66.33h0.16h0.16h0.16l0.16,0.16h0.16v0.16h0.16v0.16h0.16h0.16h0.16h0.16h0.16v0.16h0.16h0.16h0.16v0.16h0.16H15h0.16h0.16
	h0.16l0.16,0.16h0.16v0.16h0.16v0.16h0.16v0.16l0.16,0.16l0.16,0.16v0.16v0.16l-0.16,0.16v0.16v0.16v0.16v0.16v0.16h-0.16v0.16
	l0.16,0.16v0.16v0.16v0.16v0.16v0.16v0.16l-0.16,0.16v0.16l-0.16,0.16v0.16l-0.16,0.31v0.16l-0.16,0.16l-0.16,0.16l-0.16,0.16
	l-0.16,0.16H15v-0.16h0.16H15h-0.16h-0.16l-0.16,0.16h-0.16h-0.16h-0.16h-0.16h-0.16h-0.16h-0.16H13.3h-0.16h-0.16h-0.16h-0.16
	h-0.16h-0.16v-0.16v-0.16v-0.16h0.16v-0.16v-0.16v-0.31v-0.16l-0.16-0.16v-0.16v-0.16v-0.16v-0.16v-0.16l-0.16-0.16v-0.16v-0.16
	l-0.16-0.16v-0.16v-0.16H11.9v-0.16v-0.16h-0.16v-0.16v-0.16v-0.16h-0.16V68.2v-0.16v-0.16v-0.16h-0.16v-0.16v-0.16h0.16v-0.16
	v-0.16v-0.16V66.8v-0.16v-0.16v-0.16v-0.16v-0.16v-0.16h0.16h0.16v0.16h0.16h0.16v0.16h0.16L12.52,66.33L12.52,66.33z M9.26,65.55
	H9.1H8.95H8.79H8.64v0.16v-0.16H8.48v0.16H8.32v0.16H8.17l-0.16,0.16H7.86H7.7v-0.16v-0.16H7.55l-0.16,0.16H7.24H7.08v0.16H6.93
	v0.16H6.77v-0.16H6.62v0.16H6.46H6.31H6.15H5.99H5.84v-0.16H5.68l-0.16,0.16H5.37H5.22H5.06v-0.16v0.16H4.91v-0.16l-0.16,0.16v-0.16
	v-0.16H4.6l-0.16,0.16v0.16v-0.16H4.29H4.13v0.16v0.16H3.98v0.16h0.16l0.16,0.16v0.16H4.13H3.98v0.16v0.16v0.16v0.16H3.82
	l-0.16,0.16H3.51v0.16H3.35H3.2v0.16H3.04v0.16v0.16v0.16H3.2l0.16,0.16v0.16H3.2l-0.16,0.16H2.89v-0.16l-0.16-0.16H2.58v0.16H2.42
	H2.27v-0.16v-0.16V68.2H2.11H1.96H1.8v-0.16H1.65v0.16v0.16v0.16H1.49v0.16h0.16H1.8v0.16v0.16h0.16v0.16h0.16h0.16l0.16,0.16h0.16
	h0.16h0.31H3.2h0.16h0.16l0.16-0.16v-0.16h0.16h0.16h0.16l0.31,0.16l0.31,0.16l0.16,0.16h0.16h0.16h0.16h0.31h0.31h0.16h0.16h0.16
	h0.16h0.16v-0.16h0.16l0.16-0.16h0.16h0.16v-0.16v-0.16h0.16H7.7l0.16-0.16h0.16l0.31-0.16l0.31-0.16h0.31L9.1,68.2h0.16h0.16h0.31
	l0.16-0.16h0.16v-0.16l0.16-0.16v-0.16v-0.16v-0.16v-0.16V66.8v-0.16l-0.16-0.16v-0.16l-0.16-0.16l-0.16-0.16H9.57v-0.16v-0.16H9.41
	L9.26,65.55L9.26,65.55z M58.97,54.37h0.16H58.97L58.97,54.37z M66.27,54.84h-0.16h-0.16l-0.16-0.16v-0.16v-0.16h0.16l0.31-0.16
	h0.16l0.31-0.16h0.16h0.16v0.16h-0.16l-0.16,0.16v0.16h-0.16v0.16h-0.16v0.16H66.27L66.27,54.84z M69.06,54.68h0.16h0.16v0.16v0.16
	h0.16v0.16v0.16l-0.16,0.16l-0.16,0.16v0.16h-0.16v0.16h-0.16l-0.16-0.16v-0.16v-0.16V55.3h0.16l-0.16-0.16v-0.16l-0.16-0.16v-0.16
	v-0.16v-0.16v-0.16h0.16v-0.16h0.16V53.9h0.16l0.16-0.16h0.16v0.16h-0.16l-0.16,0.16h-0.16l-0.16,0.16v0.16v0.16h0.16v0.16H69.06
	L69.06,54.68z M66.11,53.9h-0.16H65.8v-0.16l-0.16-0.16v-0.16v-0.16l0.16,0.16h0.16h0.16l0.31,0.16h0.16h0.16h0.16v0.16h-0.31
	l-0.31,0.16H66.11L66.11,53.9z M67.2,53.59h0.16v-0.16h0.16h-0.16l-0.16-0.16h-0.16h-0.16h-0.16l-0.16,0.16h0.16v0.16h0.31H67.2
	L67.2,53.59z M61.14,53.13h0.16h0.16v0.16H61.3h-0.16h-0.16v0.16h-0.16h-0.16v0.16h-0.16h-0.16h-0.16v0.16h-0.16L59.9,53.9v-0.16
	l-0.16-0.16v-0.16h-0.16h0.16h0.16h0.16v-0.16v0.16l0.16-0.16h0.16v-0.16h0.16h0.16v-0.16h0.16v0.16h0.16v-0.16L61.14,53.13
	L61.14,53.13z M65.03,54.21v0.16h-0.16h-0.16H64.4l-0.16-0.16h-0.16h-0.16v0.16h-0.16h-0.16v0.16h-0.16h-0.16v-0.16h-0.16h-0.16
	l-0.16-0.16v-0.16V53.9v-0.16h0.16v-0.16v-0.16v-0.16v-0.16l0.16-0.16v-0.16v-0.16v-0.16l0.16-0.16V52.2v-0.16v-0.16h0.16h0.16h0.16
	h0.31l0.16,0.16h0.16h0.16v0.16h0.16v0.31v0.16v0.31v0.31v0.16l0.16,0.16l0.16,0.31h0.16v0.16v0.16H65.03L65.03,54.21z M46.38,52.97
	v0.16v0.16l0.16,0.16v-0.16h0.16v0.16v0.16h0.16v0.16v0.16v0.16v0.16v0.16v0.16v0.16h0.16v0.16h0.16v0.16h0.16v0.16h0.16v-0.16
	l0.16-0.16v0.16h0.16v-0.16v-0.16h0.16v0.16v0.16h0.16v0.16v0.16h-0.16h0.16v0.16v0.16v0.16h0.16l0.16,0.16v0.16h0.16v0.16v0.16
	v0.16v0.16l-0.16,0.16v0.16v0.16v0.16h0.16v0.16v0.16v0.16v0.16h0.16l-0.16,0.16v0.16h0.16v0.16v0.16v0.16v0.16h-0.16l0.16,0.16
	v0.16h-0.16v0.16v0.16H48.4h0.16v0.16h0.16v0.16h-0.16h0.16v0.16h-0.16v0.16H48.4h0.16v0.16h0.16v0.16h-0.16H48.4v-0.16l-0.16,0.16
	v0.16v0.16v0.16h0.16l-0.16,0.16h-0.16v0.16v0.16v0.16v0.16v0.16h0.16v0.16v0.16v0.16h-0.16v0.16h0.16v0.16h0.16v0.16v0.16h0.16
	v0.16l0.16,0.16h0.16v0.16v0.16h0.16v0.16v-0.16h0.16v-0.16v-0.16h0.16v0.16v0.16v0.16h0.16v0.16V64v0.16l-0.16,0.16h0.16v0.16v0.16
	v0.16v0.16h0.16v0.16v0.16v0.16v0.16v0.16v0.16v0.16v0.16v0.16h-0.16v0.16h-0.16v0.16h-0.16l0.16,0.16l-0.16,0.16h0.16v0.16v0.16
	h0.16v0.16v0.16v0.16h0.16v0.16l0.16-0.16l0.16,0.16v0.16v0.16v0.16v0.16v0.16v0.16v0.16v0.16H49.8h-0.16h-0.16v0.16v0.16v0.16v0.16
	h-0.16v0.16v0.16h0.16v0.16v0.16h-0.16v-0.16v0.16h-0.16v-0.16h-0.16v-0.16h-0.16V69.9h-0.16v-0.16l-0.16-0.16v0.16H48.4h-0.16
	v-0.16h-0.16v-0.16h-0.16v0.16h-0.16v0.16h-0.16v0.16l-0.16,0.16v0.16h-0.16l-0.16-0.16v0.16v0.16v0.16v0.16l0.16,0.16h0.16v0.16
	h0.16l-0.16,0.16v-0.16h-0.16v0.16v0.16v0.16v0.16h0.16h0.16v0.16v0.16v-0.16h-0.16h-0.16h-0.16h-0.16h-0.16v0.16v0.16v0.16H46.7
	v0.16h-0.16v0.16h-0.16v0.16h-0.16h-0.16h-0.16l-0.16-0.16v-0.16h-0.16v-0.16v-0.16v-0.16h-0.16v-0.16v-0.16H45.3l-0.16-0.16V71.3
	h-0.16v-0.16l0.16-0.16h-0.16v-0.16v-0.16h-0.16l0.16-0.16h-0.16v-0.16v-0.16v-0.16h-0.16V69.9v-0.16h-0.16l0.16-0.16v-0.16v-0.16
	v-0.16v-0.16v-0.16h-0.16v-0.16h-0.16v-0.16v-0.16h-0.16V68.2h-0.16l-0.16-0.16v-0.16h-0.16v-0.16v-0.16h-0.16v-0.16v-0.16h-0.16
	v-0.16h-0.16v-0.16h-0.16l-0.16,0.16h-0.16h-0.16H42.5h-0.16v-0.16h-0.16V66.8v-0.16h-0.16v-0.16v-0.16v-0.16h-0.16v-0.16h-0.16
	v-0.16h-0.16v-0.16h-0.16v-0.16l-0.16-0.16v-0.16H41.1v-0.16v-0.16l-0.16-0.16l-0.16-0.16v-0.16v-0.16h-0.16v-0.16V64v-0.16v-0.16
	v-0.16h0.16v-0.16v-0.16h0.16v-0.16v-0.16h0.16v-0.16h0.16h0.16V62.6h0.16h0.16v0.16h0.16V62.6h0.16v-0.16l0.16-0.16v-0.16v-0.16
	v-0.16l0.16-0.16v-0.16l0.16-0.47v-0.31v-0.16l0.16-0.16v-0.16v-0.16v-0.16v-0.16l-0.16-0.16V59.5h-0.16v-0.16v-0.16v-0.16v-0.16
	v-0.16v-0.16v-0.16h0.16h0.16v-0.16V58.1h0.16v0.16h0.16h0.16h0.16h0.16l0.16-0.16v-0.16v-0.16v-0.16h0.16v0.16h0.16v-0.16h0.16
	h0.16l0.16-0.16v-0.16v-0.16v-0.16h0.16l0.16-0.16V56.7v-0.16v-0.16l0.16-0.16v-0.16v-0.16v-0.16v-0.16l0.16-0.16V55.3v-0.16v-0.16
	v-0.16v-0.16v-0.16h-0.16h-0.16v-0.16v-0.16v-0.16h0.16V53.9h0.16v-0.16v-0.16h-0.16v-0.16v-0.16h-0.16h0.16v-0.16h-0.16h-0.16
	v-0.16h0.16v-0.16h-0.16v-0.16l0.16-0.16v-0.16h-0.16V52.2h0.16l-0.16-0.16v-0.16v-0.16l0.16-0.16h0.16v-0.16l0.16-0.16h0.16h0.16
	v0.16h0.16v0.16v0.16h0.16v0.16h0.16h0.16v0.16v0.16h0.16v0.16l0.16,0.16v0.16v0.16L46.38,52.97L46.38,52.97z M55.7,47.22h0.16v0.16
	h0.16h0.16v0.16h-0.16h-0.16v0.16v0.16H55.7v-0.16h-0.16v-0.16v-0.16h-0.16h0.16v-0.16H55.7L55.7,47.22z M56.95,47.54h0.16v-0.16
	v-0.16v-0.16h-0.16v-0.16h-0.16l-0.16-0.16V46.6h-0.16v-0.16h-0.16v0.16h-0.16v0.16v0.16v0.16v0.16v0.16l0.16,0.16v0.16h0.16h0.16
	h0.16h0.16V47.54L56.95,47.54z M48.4,42.88v0.16h0.16H48.4v0.16h0.16H48.4v0.16v0.16v0.16v0.16v0.16h-0.16v0.16h-0.16v0.16h0.16
	v0.16h-0.16h0.16v0.16v0.16h-0.16v-0.16h-0.16v-0.16v-0.16h0.16h-0.16v-0.16l0.16-0.16h-0.16v-0.16v-0.16h0.16V43.5v-0.16v-0.16
	v-0.16l0.16-0.16H48.4L48.4,42.88z M49.65,41.01h-0.16v0.16h-0.16v0.16h-0.16h-0.16v0.16l-0.16,0.16v0.16v0.16h-0.16v0.16h-0.16
	v0.16v0.16h0.16v0.16v0.16h-0.16v0.16v0.16v0.16h0.16v0.16v0.16v0.16v0.16v0.16v0.16h0.16h0.16v0.16h0.16v0.16v0.16l0.16-0.16h0.16
	h-0.16v-0.16h0.16v-0.16v-0.16v-0.16h0.16v-0.16V43.5h0.16v-0.16v-0.16v-0.16v0.16v-0.16v-0.16h0.16H49.8v-0.16v-0.16v-0.16v-0.16
	V42.1l-0.16-0.16v-0.16v-0.16v-0.16h0.16v-0.16v-0.16L49.65,41.01L49.65,41.01z M49.96,19.42h0.16h0.16v0.16v0.16l-0.16,0.16v0.16
	h-0.16H49.8v-0.16h-0.16v-0.16v-0.16v-0.16h0.16H49.96L49.96,19.42z M55.24,16.47h-0.16l-0.31-0.16h-0.16h-0.16v-0.16h-0.16
	L54.15,16H54v-0.16h-0.16h-0.16h-0.16V16h-0.16l-0.16,0.16v0.16v0.16v0.16h0.16v0.16v0.16v0.16v0.16l-0.16,0.16v0.16v0.16h-0.16
	v0.16h-0.16h-0.16v-0.16H52.6h-0.16v0.16h-0.16h-0.16h-0.16v0.16v0.16h-0.16h-0.16v0.16h-0.16l-0.16,0.16H51.2v0.16l-0.16,0.16
	l0.16,0.16v0.16h0.16v0.16l0.16,0.16v0.16l-0.16,0.16l-0.16,0.16l-0.16,0.16v0.16v0.16v0.16l-0.16,0.16v0.16h-0.16v0.16h-0.16v0.16
	v0.16h-0.16v0.16h-0.16v0.16h-0.16v-0.16h-0.16v-0.16v-0.16v-0.16v-0.16H49.8h-0.16v0.16l-0.16,0.16l-0.16,0.16l-0.16,0.31v0.16
	h-0.16v0.16h-0.16v0.31l-0.31,0.16v0.16H48.4v0.16v0.16h-0.16v0.16l-0.16,0.16v0.16l-0.16-0.16v-0.16h-0.16l-0.16,0.16l-0.16,0.16
	v0.16l-0.16,0.16v0.16l-0.16,0.16v0.16l0.16,0.16v0.16h0.16v0.16v0.16v0.16l0.16,0.16v0.16v0.16l0.16,0.16v0.16l0.16,0.16v0.16v0.16
	h0.16v0.16l0.16,0.16h0.16l0.16,0.31H48.4v0.16h-0.16l-0.16,0.16h-0.16h-0.16h-0.16h-0.16v0.16l-0.16,0.16v0.16v0.16v0.16v0.16h0.16
	v0.16v0.16l0.16,0.16v0.16v0.16l0.16,0.16v0.16l0.16,0.16v0.16v0.16h0.16l0.16,0.16l0.16,0.16h0.16v0.16v0.16v0.16H48.4v0.16v0.16
	l0.16,0.16v0.16H48.4v0.16l0.16,0.16v0.16v0.16v-0.16h0.16h0.16v-0.16v-0.16h0.16v-0.16l0.16-0.16h0.16V30.6h0.16h0.16v0.16V30.6
	h0.16h0.16h0.16h0.16v0.16h0.16v0.16h0.16v0.16v0.16v0.16v0.16v0.16l-0.31,0.47V32h-0.31l-0.16-0.16h-0.16h-0.16h-0.16h-0.16V32
	h-0.16v0.16h-0.16l-0.16,0.16l-0.16,0.16v0.16H48.4v0.16l-0.16,0.16v0.16v0.16h0.16v0.16v0.16v0.16v0.16v0.31v0.47v0.16h0.16v0.16
	v0.16v0.16h0.16l0.16,0.16v0.16v0.16v0.16v0.16v0.16h-0.16v0.16h-0.16V36.2H48.4h-0.16v0.16v0.16v0.16h-0.16h0.16h-0.16v0.16v0.16
	v-0.16h0.16v0.16h0.16v0.16h0.16h0.16v0.16l0.16,0.16v0.16v0.16v0.16h0.16v0.16v0.16v0.16h0.16v0.16v0.16l0.16,0.16v0.16l0.16,0.16
	v0.16h0.16v0.16l0.16,0.16v0.31v0.16h-0.16v0.16h0.16v0.16v0.16v0.16v0.16h0.16h0.16v0.16v-0.16V40.7h0.16v-0.16h0.16v-0.16h0.16
	v0.16h0.16h0.16h0.16v-0.16h0.16l0.16,0.16h0.16l0.16-0.16l0.16-0.16h0.16v0.16v0.16v0.16l0.16,0.16v0.16h0.31l0.16,0.16h0.16
	l0.31,0.16h0.16l0.31,0.16L54,41.79l0.47,0.31l0.16,0.16v0.16v0.16h0.16v0.16v0.16h0.16h0.16v-0.16v-0.16v-0.16h0.16h0.16h0.16v0.16
	h0.16v0.16h0.16l0.16-0.16h0.16v-0.16h0.16v-0.16V42.1h0.16v-0.16h0.16l0.16,0.16h0.16l0.16,0.16l0.16,0.16l0.16,0.16l0.16,0.16
	v0.16h0.16l0.16,0.16v0.16l0.31,0.31l0.16,0.16v0.16l0.16,0.16l0.16,0.31l0.16,0.31v0.16l0.16,0.16v0.16h0.16v0.16v0.16v0.16
	l0.16,0.16v0.16v0.16h-0.16l0.16,0.16v0.16v0.16l0.16,0.16v0.16v0.16v0.16v0.16l0.16,0.16v0.16v0.16v0.16V48l0.16,0.16v0.16h0.16
	l0.16,0.16h0.16v0.16v-0.16h0.16h0.16l0.16-0.16h0.16h0.16h0.16l0.16-0.16V48h0.16h0.16h0.16v0.16h0.16h0.16V48h0.16v-0.16h0.16
	h0.16v-0.16h0.16h0.16v0.16L63.01,48v0.16l0.16,0.16v0.16h0.16v0.16h0.16l0.16,0.16l0.16,0.16h0.16v0.16h0.16v0.16v0.16l0.16,0.16
	l0.16,0.16v0.16h0.16v0.16l0.16,0.16l0.16,0.16v0.16h0.16l0.16,0.16v0.16h0.16v0.16h0.16l-0.16,0.16v0.16v0.16v0.16l0.16,0.16v0.16
	v0.16h0.16v0.16v0.16v0.16h0.16v0.16l0.16,0.16v0.16h0.16h0.16h0.16h0.16v-0.16h0.16h0.16h0.16h0.16h0.16h0.16h0.16h0.16h0.16
	l0.16,0.16h0.16h0.16v-0.16h0.16v-0.16h0.62h0.31v0.16v0.16h0.16v0.16v0.16l-0.16,0.16v0.16h-0.16v0.16v0.16h-0.16v0.16h-0.16
	l-0.16,0.16l-0.16,0.16l0.16,0.16h0.16h0.16h0.16v-0.16h0.16v-0.16v0.16v0.16v0.16l0.16,0.16v0.16h0.16L70,55.15v0.16l0.16,0.16
	v0.16l0.16,0.16v0.16v0.16v0.16l-0.16,0.16v0.16v0.16L70,56.86v0.16v0.16l0.16,0.16l0.16,0.16l0.16,0.16h0.16v0.16l0.16,0.16
	l0.16,0.31l0.16,0.16v0.16l0.16,0.16h0.16h0.16h0.16v-0.16h0.16v-0.16h0.16h0.16l0.16-0.16h0.16l0.78,0.16v0.16v0.16h0.16v0.16v0.16
	l0.16,0.16l0.16,0.16v0.16v0.16l0.16,0.16v0.16v0.16v0.16v0.16l0.16,0.16h0.16v0.16h0.16v0.16l0.16,0.16h0.16v0.16h0.16v0.16v0.16
	l-0.16,0.16v0.16H74.5v0.16h-0.16l-0.16,0.16h-0.16h-0.16v0.16h-0.16v0.16h-0.16l-0.16-0.16h-0.16l-0.16-0.16l-0.16-0.16v0.16h-0.16
	l-0.16,0.16v0.16h0.16v0.16v0.16v0.16v0.16v0.16h-0.16v0.16v0.16v0.16v0.16h-0.16L72.64,64v0.16v0.16v0.16h-0.16v0.16v0.16v0.16
	h0.16v0.16v0.16l0.16,0.16l0.16-0.16h0.16l0.16-0.16v-0.16h0.16v-0.16h0.16h0.16l0.16-0.16h0.16v-0.16h0.16h0.16v-0.16h0.16h0.16
	v-0.16h0.16V64h0.16v-0.16h0.16v-0.16v-0.16h0.16l0.16-0.16h0.16h0.16l0.16-0.16h0.16l0.16-0.16h0.31v0.16l0.16,0.16h0.16h0.16v0.31
	l-0.16,0.16V64h-0.16h-0.16l-0.16,0.16v0.16h-0.16v0.16l0.16,0.16l0.16,0.31l0.16,0.16v0.16l0.16,0.16v0.16v0.16l0.16,0.16v0.16
	h0.16l0.16,0.16v0.16v0.16l0.16,0.16v0.16l0.16,0.16v0.16h0.16v0.16v0.16h0.16v0.16h0.16v0.16l0.16,0.16l0.16,0.16l0.16,0.16
	l0.16,0.16l0.16,0.16l0.16,0.16l0.16,0.16l0.16,0.16l0.16,0.16l0.16,0.16l0.16,0.16h0.16l0.16,0.16l0.16,0.16h0.16l0.16,0.16v0.16
	h0.16v0.16h0.16l0.16,0.16l0.16,0.16l0.16,0.16l0.16,0.16l0.16,0.16l0.16,0.16h0.16l0.16,0.16h0.16l0.16,0.16h0.31h0.16V71.3h0.16
	v-0.16h0.16v-0.16l0.16-0.16v-0.16v-0.16h0.16v-0.16v-0.16v-0.16V69.9l0.16-0.16v-0.16v-0.16v-0.16h0.16v-0.16l0.16-0.16v-0.16
	v-0.16h0.16v-0.16v-0.16V68.2v-0.16v-0.16v-0.16l0.16-0.16h0.16v0.16h0.16v0.16h0.16l0.16,0.16l0.16,0.16h0.16v0.16l0.16,0.16h0.16
	l0.16,0.16l0.16,0.16v0.16v0.16v0.16v0.16L86,69.59v0.16l0.16,0.16v0.16v0.16v0.16v0.16v0.16v0.16v0.16v0.16v0.16H86h-0.16v0.16
	h-0.16v0.16v0.16h-0.16v0.16v0.16v0.16v0.16v0.16h-0.16v0.16v0.16v0.16h-0.16h-0.16h-0.16v0.16v0.16h0.16v0.16h0.16l0.16-0.16h0.16
	h0.16h0.16H86l0.16-0.16h0.16l0.16,0.16v0.16v0.16v0.16v0.16l0.16,0.16v0.16h0.16v0.16l0.16,0.31l0.16,0.31v0.16v0.31h0.16v0.31
	l0.16,0.16v0.16v0.16v0.16l0.16,0.16v0.16h0.16l-0.16,0.16v0.16v0.16h0.16h-0.16v0.16v0.16l0.16,0.16v0.16l0.16,0.16v0.16h0.16v0.16
	l-0.16,0.16v0.16v0.16v0.16v0.16v0.16h0.16v0.16v0.16v0.16v0.16h0.16h0.16h0.16v-0.16h0.16l0.16-0.16h0.16v-0.16h0.16h0.16h0.16
	v-0.16v-0.16v-0.16v-0.16V78.6v-0.16v-0.16h0.16v-0.16v-0.16h-0.16h0.16v-0.16h0.16v-0.16h0.16v-0.16h0.16v0.16h0.16v-0.16h0.16
	v-0.16h0.16v-0.16h0.16v-0.16H90.5v-0.16l-0.16-0.16l0.16-0.16h-0.16v-0.16v-0.16v-0.16v-0.16h0.16l-0.16-0.16v-0.16h0.16v0.16h0.16
	v-0.16h0.16V75.5h0.16v-0.16v-0.16v-0.16h0.16v-0.16h0.16h0.16h0.16v-0.16v-0.16h-0.16v-0.16h-0.16v-0.16V74.1h0.16h0.16h0.16v-0.16
	v-0.16v-0.16v-0.16h-0.16v-0.16v-0.16h0.16v-0.16v-0.16V72.7v-0.16l-0.16-0.16v-0.16v-0.16v-0.16l-0.16-0.16v-0.16v-0.16l-0.16-0.16
	v-0.16v-0.16l-0.16-0.16h0.16h0.16v-0.16v-0.16v-0.16v-0.16l-0.16-0.16h0.16V69.9v-0.16h-0.16v-0.16v-0.16v-0.16v-0.16v-0.16v-0.16
	v-0.16h-0.16v-0.16v-0.16V68.2v-0.16v-0.16v-0.16v-0.16h0.16v-0.16h0.16h0.16v-0.16v-0.16v-0.16V66.8v-0.16v-0.16v-0.16h-0.16v-0.16
	v-0.16v0.16l-0.16-0.16v-0.16l0.16-0.16h0.16v0.16h0.16h0.16v0.16v0.16v0.16v0.16h0.16h0.16h0.16l0.16-0.16v-0.16h0.16h0.16v0.16
	v0.16h0.16v0.16v0.16h0.16v-0.16v-0.16v-0.16h0.16l0.16-0.16v0.16h0.16h0.16v-0.16v-0.16v-0.16h0.16v-0.16h-0.16v-0.16h-0.16V65.4
	v-0.16v-0.16v-0.16l-0.16-0.16v-0.16H93.3v-0.16v-0.16v-0.16h0.16L93.61,64l-0.16-0.16v-0.16v-0.16l-0.16-0.16h-0.16h-0.16
	l-0.16-0.16h-0.16l-0.16-0.16v-0.16v-0.16V62.6v-0.16v-0.16l-0.16-0.31v-0.16v-0.16v-0.16v-0.16v-0.16h-0.16v-0.16v-0.16h0.16
	l0.16-0.16v-0.16h-0.16v-0.16v-0.16h0.16v-0.16v-0.16v-0.16h-0.16v-0.16V59.5h0.16v-0.16h0.16v-0.16h0.16l0.16,0.16v-0.16h0.16
	v-0.16h0.16h0.16v-0.16v-0.16v-0.16v-0.16v-0.16V58.1v-0.16l-0.16-0.16v-0.16v-0.16l0.16-0.16v-0.16v-0.16v-0.16V56.7v-0.16v-0.16
	H93.3h-0.16h-0.16v-0.16v-0.16l-0.16-0.16v-0.16l-0.16-0.16v-0.16V55.3h0.16h0.16h0.16v-0.16h0.16v-0.16v-0.16v-0.16h0.16v-0.16
	h0.16v-0.16v-0.16h0.16v-0.16V53.9v-0.16h0.16v-0.16v-0.16v-0.16l0.16-0.16h0.16l0.16-0.16h0.16h0.16h0.16v-0.16h0.16h0.16v-0.16
	h0.16l0.16-0.16h0.16v-0.16h0.16V52.2l0.16-0.31v-0.16v-0.31v-0.16v-0.16v-0.16l-0.16-0.16v-0.16l0.16-0.16v-0.31l0.16-0.16
	l0.16-0.16l0.16-0.16l0.16-0.16V49.4v-0.16h-0.16v-0.16h0.16v-0.16v-0.16h-0.16v-0.16l-0.31-0.16l-0.16-0.16h-0.16l-0.16-0.16h-0.16
	V48h-0.16h-0.16v-0.16v-0.16v-0.16v-0.16v-0.16h-0.16v-0.16h-0.16v-0.16H94.7v-0.16l-0.16-0.16v-0.16l0.16-0.16h0.16v-0.16
	l-0.16-0.16l-0.16-0.16v-0.16l0.16-0.16h-0.16v-0.16h0.16v-0.16v-0.16h-0.16v-0.16v-0.16h0.16h0.16v-0.16v-0.16h0.16v-0.16
	l-0.16-0.31v-0.16v-0.16V43.5v-0.16l0.16-0.16v-0.16l0.16-0.16v-0.16v-0.16v-0.16h0.16v-0.16h0.16V42.1h0.16h0.16v-0.16h0.16h0.16
	h0.16v-0.16v-0.16v-0.16v-0.16v-0.16v-0.16v-0.16V40.7v-0.16v-0.16h0.16v-0.16h0.16v-0.16h0.16v-0.16l0.16-0.16v-0.16v-0.16h0.16
	h0.16V39.3h-0.16v-0.16v-0.16v-0.16v-0.16h-0.16v-0.16h-0.16l-0.16-0.16h-0.16v-0.16v-0.16h-0.16V37.9h-0.16v-0.16v-0.16v-0.16
	l-0.16-0.16v-0.16h-0.16v-0.16h-0.16l-0.16-0.16h-0.16v-0.16v-0.16h-0.16v-0.16V36.2l-0.16-0.16h-0.16v0.16v-0.16v-0.16H94.7h-0.16
	v-0.16h-0.16l-0.16,0.16v-0.16h-0.16l-0.16-0.16h-0.16h-0.16h-0.16H93.3v0.16h-0.16v-0.16h-0.16h-0.16h-0.16h-0.16h-0.16h-0.16
	h-0.16v-0.16H91.9h-0.16v-0.16h-0.16v-0.16h-0.16v-0.16h-0.16h-0.16l-0.16-0.16h-0.16l-0.16-0.16H90.5h-0.16h-0.16l-0.16-0.16
	l-0.16,0.16h-0.16h-0.16h-0.16h-0.16h-0.47h-0.31h-0.16h-0.16v-0.16h-0.16h0.16v-0.16v-0.16h-0.16v-0.16v-0.16v-0.16v-0.16V33.4
	h-0.16l-0.16-0.16l-0.16-0.16l-0.16-0.16h-0.16v-0.16h-0.16l-0.16-0.16h-0.16v-0.16v-0.16h-0.16h-0.16h-0.16v-0.16v-0.31h-0.16
	v-0.16v-0.16L86,31.38v-0.16h-0.16v-0.16l-0.16-0.16v-0.16l-0.31,0.16h-0.16h-0.31h-0.16l-0.16,0.16h-0.16h-0.16v-0.16V30.6v-0.31
	v-0.16l0.16-0.16v-0.16v-0.16v-0.16v-0.16v-0.16v-0.16h-0.16v-0.16l0.16-0.16l0.16-0.16v-0.31h0.16v-0.16v-0.16H84.6v-0.16v-0.16
	h-0.16V27.5l-0.16-0.16h-0.16h-0.16v-0.16h-0.16v-0.16h-0.16v-0.16l-0.16-0.16H83.2v-0.16h-0.16l-0.16-0.16v-0.16V26.1v-0.16v-0.16
	v-0.16h0.16v-0.16v-0.16h0.16v-0.16l-0.16-0.16l-0.16-0.16l0.16-0.16h0.16h0.16h0.16h0.16h0.16l0.16-0.16v-0.16h0.16l0.16-0.16
	v-0.16v-0.16l-0.16-0.16h-0.16h-0.16h-0.16h-0.16v-0.16h-0.16v-0.16h0.16h0.16h0.16V23.3h-0.16v-0.16h-0.16h-0.16v-0.16l-0.16-0.16
	v-0.16h-0.16l-0.16-0.16v-0.16v-0.31V21.9v-0.16h-0.16v-0.16h-0.16v-0.16v-0.16v-0.16v-0.16l0.16-0.16v-0.16v-0.16v-0.16V20.2
	l-0.16-0.16l-0.16-0.16v-0.16l-0.16-0.16v-0.16v-0.16h-0.16v-0.16v-0.16V18.8h0.16v-0.16v-0.16v-0.16v-0.16v-0.16v-0.16h-0.16
	l-0.16-0.16H81.8l-0.16,0.16h-0.16v0.16v-0.16h-0.16h-0.16h-0.16l-0.16-0.16h-0.16v0.16h-0.16v0.16v0.31v0.16H80.4h-0.16v0.16h-0.16
	v0.16l-0.16,0.16v0.16l-0.16,0.31l-0.16,0.16v-0.16h-0.16v-0.16v-0.16l0.16-0.31v-0.16h-0.16v-0.16l-0.16-0.16l-0.16-0.16h-0.16
	h-0.16v-0.16H78.7h-0.16v-0.16h-0.16h-0.16h-0.16v-0.16h-0.16h-0.16h-0.16h-0.16v-0.16H77.3V17.4l-0.16,0.16l-0.16-0.16l-0.16,0.16
	h-0.16h-0.16h-0.16h-0.16h-0.16H75.9h-0.16h-0.16h-0.16v0.16v0.47v0.16v0.16h-0.16h-0.16h-0.16h-0.16h-0.16l-0.16,0.16h-0.16h-0.16
	h-0.16v0.16h-0.16v0.16h-0.16l0.16-0.16h-0.16h-0.16h-0.16v0.16h-0.16H73.1V18.8h-0.16v0.16h-0.16V18.8l-0.16-0.16h-0.16h-0.16
	h-0.16v-0.16l-0.16-0.16h-0.16v-0.16v-0.16h-0.16l-0.16,0.16v0.16v0.16h-0.16h-0.16v0.16h-0.16v-0.16h-0.16h-0.16v0.16v-0.16h-0.16
	h-0.16l-0.16,0.16l-0.16,0.16H70v-0.16h-0.16h-0.16v0.16h-0.16h-0.16v0.16h-0.16v0.16h-0.47l-0.47-0.16h-0.16h-0.16v0.16h-0.16v0.16
	h0.16v0.16v0.16h-0.16h-0.16v0.16h-0.16v0.16v0.16h-0.16v0.16H67.2h-0.16v0.16v0.16h-0.16h-0.16v-0.16h-0.16V20.2h-0.16h-0.16v0.16
	h-0.16h-0.16H65.8v0.16l-0.16,0.16l-0.16,0.16h-0.16v-0.16h-0.16v-0.16h-0.16l-0.16,0.16v0.16h-0.16v0.16h0.16v0.16v0.16v0.16h-0.16
	h-0.47h-0.16l-0.16-0.16h-0.16l-0.16-0.16h-0.16v-0.16h-0.16v-0.16v-0.16h-0.16v-0.16h-0.16h-0.16H62.7v0.16h-0.16h-0.16v-0.16
	h-0.16l-0.16-0.16V20.2v-0.16v-0.16v-0.16h0.16v-0.16v-0.16v-0.16l-0.16-0.16h-0.16h-0.16h-0.16h-0.16H61.3h-0.16v-0.16h-0.16h-0.16
	V18.8v-0.16l-0.16-0.16l-0.16-0.16h-0.16l-0.16-0.16h-0.16v-0.16l-0.16-0.16v-0.16l-0.16-0.16V17.4h-0.16v-0.16h-0.16v0.16h-0.16
	h-0.16h-0.16l-0.16-0.16l-0.16-0.16l-0.16-0.16h-0.16v-0.16h-0.16v-0.16l-0.16-0.16v-0.16l-0.16-0.16h-0.16h-0.31h-0.16H57.1v0.16
	h-0.16h-0.16h-0.16h-0.16l-0.16,0.16l-0.16-0.16h-0.16l-0.16,0.16H55.7h-0.16h-0.16H55.24z"/>
</svg>
