<?xml version="1.0" encoding="utf-8"?>
<!-- Generator: Adobe Illustrator 24.2.1, SVG Export Plug-In . SVG Version: 6.00 Build 0)  -->
<svg version="1.1" id="Layer_1" xmlns="http://www.w3.org/2000/svg" xmlns:xlink="http://www.w3.org/1999/xlink" x="0px" y="0px"
	 viewBox="0 0 97.23 97.23" style="enable-background:new 0 0 97.23 97.23;" xml:space="preserve">
<style type="text/css">
	.st0{fill-rule:evenodd;clip-rule:evenodd;fill:#1D1D1B;}
</style>
<path class="st0" d="M46.63,45.96l-0.1,0.1l-0.1,0.2h-0.1l-0.2,0.1l-0.2,0.1h-0.2h-0.2l-0.2,0.1h-0.1h-0.2v-0.1l-0.1-0.1v-0.1h0.1
	l0.1-0.1v-0.1l-0.1-0.1l0.1-0.1l0.1,0.1l0.1,0.1h0.1h0.1l0.1-0.2l0.1-0.1v-0.2v-0.1v-0.2v-0.1v-0.2v-0.1h0.1l0.1-0.1v-0.1l-0.1-0.1
	v-0.1h0.1h0.1v0.1l0.1,0.1v0.1v0.1l0.1,0.1v0.1v0.1l0.1,0.1v0.1l0.2,0.1l0.1,0.2h0.1v0.1h0.1v0.1v0.1h-0.1H46.63L46.63,45.96z
	 M36.57,38.24v-0.1l-0.1-0.1v-0.1l-0.1-0.1v-0.1l-0.1-0.2v-0.1v-0.2v-0.1v-0.2v-0.1v-0.1h-0.1l-0.1,0.1v0.1l-0.1,0.1v0.1v0.1h-0.1
	h-0.1h-0.1v0.1h-0.1h-0.1h-0.1l-0.1,0.1h-0.1l-0.1,0.1l-0.1,0.2v0.1v0.1v0.1h0.1v0.1v0.1h0.1v0.1h-0.1v-0.1h-0.1v0.1v0.1h-0.1v-0.1
	l-0.1,0.1h-0.1h-0.1v0.1v0.1l-0.1,0.1v0.1v0.1v0.1h-0.1h-0.1h-0.1h-0.1v0.1v0.1v0.1v0.1v0.1h-0.1v0.1v0.1h0.1l-0.1,0.1v0.1v0.1
	l0.1,0.1v0.1v0.1v0.1v0.1h-0.1v0.1h-0.1v0.1h-0.1v0.1h-0.1v0.1v0.1v0.1h-0.1h-0.1v0.1h-0.1v0.1h-0.1v0.1h-0.1h-0.1h-0.1h-0.1v0.1
	v-0.1h-0.1v0.1h-0.1v0.1h-0.1v0.1h-0.1v0.1h0.1h-0.1V42v0.1h-0.1v0.1v0.1v0.1h-0.1v0.1h-0.1h0.1h-0.1v0.1v0.1H32v0.1l-0.1,0.1
	l-0.1,0.1h-0.1l-0.1-0.1h-0.1h-0.1v-0.1h-0.1h-0.1h-0.1h-0.1h-0.1h-0.1h-0.1v0.1v-0.1v0.1h-0.1v0.1l-0.1,0.1h-0.1v0.1l-0.1,0.1v0.1
	l-0.1,0.1h-0.1l-0.1-0.1h-0.1l-0.1-0.1h-0.1h-0.1h-0.1v0.1h-0.1l-0.1,0.1h0.1h-0.1v0.1h-0.1h-0.1h-0.1v-0.1h-0.1h-0.1h-0.1h-0.1v0.1
	h-0.1v0.1l-0.1,0.1h-0.1v0.1h-0.1h-0.1h-0.1h-0.1l-0.1-0.1h-0.1h-0.1h-0.1v0.1h-0.1h-0.1h-0.1v-0.1v0.1h-0.1h-0.1v0.1h-0.1h-0.1
	l-0.1,0.1v0.1h-0.1v0.1h-0.1h-0.1v-0.1h-0.1l-0.1,0.1v0.1h-0.1h-0.1h-0.1h-0.1v0.1h-0.1h0.1l-0.1,0.1h-0.1v-0.1h-0.1h-0.1v0.1h-0.1
	h-0.1v0.1l-0.1,0.1h-0.1h-0.1v0.1h-0.1v-0.1v0.1h-0.1h-0.1h-0.1v0.1v-0.1h-0.1h-0.1v0.1h0.1h-0.1h-0.1v0.1v0.1v0.1l-0.1,0.1v0.1
	h-0.1h-0.1v0.1h0.1h-0.1h-0.1v0.1h0.1v0.1h0.1h-0.1h-0.1v0.1v0.1h-0.1v0.1h-0.1h-0.1v0.1v0.1h-0.1v0.1h-0.1v0.1h-0.1v-0.1v-0.1h-0.1
	h-0.1v0.1l-0.1-0.1h-0.1v0.1h-0.1l-0.1-0.1v0.1h-0.1v-0.1h-0.1v-0.1v0.1h-0.1v-0.1h-0.1h-0.1v0.1v-0.1l-0.1-0.1v-0.1v-0.1h-0.1h-0.1
	v-0.1v0.1v-0.1h-0.1h-0.1v-0.1h-0.1v-0.1v-0.1h-0.1h-0.1h-0.1v-0.1v0.1h-0.1v-0.1v0.1h-0.1v-0.1h-0.1h-0.1v0.1h-0.1h-0.1v0.1h-0.1
	v0.1h-0.1h-0.1v0.1v-0.1v0.1h-0.1v0.1h-0.1v0.1h-0.1v0.1l-0.1-0.1v0.1h-0.1v0.1v0.1h-0.1v0.1h-0.1h-0.1v0.1h-0.1h-0.1H19l-0.1,0.1
	h-0.1h-0.1h-0.1h-0.1h-0.1h-0.1v0.1l-0.1,0.1l-0.1,0.1h-0.1v0.1v0.1h-0.1h-0.1h-0.1h-0.1v0.1h0.1v0.1l-0.1,0.1v0.1v0.1l-0.1,0.1v0.1
	v0.1h0.1v0.1h0.1h0.1v0.1l-0.1,0.1v0.1v0.1l0.1,0.1v0.1v0.1v0.1h-0.1h-0.1h-0.1h-0.1l-0.1,0.1v0.1v0.1v0.1v0.1v0.1h-0.1v0.1v0.1v0.1
	h0.1v0.1v0.1l0.1,0.1v0.1l0.1,0.1l0.1,0.1v0.1v0.1v0.1v0.1l-0.1,0.1v0.1v0.1v0.1v0.1h0.1v0.1h0.1v0.1v0.1v0.2v0.1l0.1,0.1h0.1v0.1
	l0.1,0.1v0.1h0.1h0.1v0.1h0.1v0.1h-0.1h-0.1h-0.1v0.1h0.1v0.1h0.1h0.1h0.1h0.1l0.1,0.1v0.1v0.1l-0.1,0.1h-0.1v0.1l-0.1,0.1h-0.1
	h-0.1h-0.1h-0.1h-0.1l-0.1,0.1l0.1,0.1l0.1,0.1v0.1h-0.1v0.1v0.1h-0.1v0.1v0.1v0.1v0.1v0.1l0.1,0.1h0.1v0.1h0.2l0.1,0.1v0.1h0.1V55
	h0.1v0.1h0.1h0.1l0.1,0.1v0.1h0.1v0.1v0.1h0.1v0.1v0.1h-0.1v0.2l-0.1,0.1l-0.1,0.1v0.1h0.1v0.1v0.1v0.1v0.1v0.1v0.1l-0.1,0.1v0.1
	v0.2v0.2v0.1h0.1h0.1l0.1-0.1H19h0.2h0.1l0.2-0.1v0.1l0.1,0.1v0.1h0.1v0.1l0.1,0.1v0.1v0.1h0.1v0.2v0.1h0.1h0.1h0.1v0.1v0.1h0.1
	l0.1,0.1h0.1v0.1h0.1l0.1,0.1l0.1,0.1l0.1,0.1h0.1v0.1v0.1v0.1v0.1v0.1h0.1v0.1v0.1h-0.1h0.1v0.1h0.1h0.1h0.2h0.3h0.1h0.1h0.1h0.1
	l0.1-0.1l0.1,0.1h0.1h0.1h0.1l0.1,0.1h0.1l0.1,0.1h0.1h0.1v0.1h0.1v0.1h0.1v0.1h0.1h0.1v0.1h0.1h0.1h0.1h0.1h0.1h0.1h0.1v0.1h0.1
	v-0.1h0.1h0.1h0.1h0.1l0.1,0.1h0.1v0.1l0.1-0.1h0.1v0.1h0.1h0.1v0.1v0.1v-0.1h0.1l0.1,0.1v0.1v0.1h0.1v0.1v0.1h0.1l0.1,0.1h0.1v0.1
	h0.1v0.1l0.1,0.1v0.1v0.1v0.1h0.1v0.1h0.1v0.1v0.1h0.1l0.1,0.1h0.1v0.1h0.1v0.1v0.1v0.1v0.1h0.1v0.1h-0.1h-0.1v0.1v0.1l-0.1,0.1v0.1
	h-0.1v0.1h-0.1v0.1h-0.1v0.1v0.1v0.1v0.1v0.1v0.1v0.1v0.1v0.1v0.1h-0.1h-0.1h-0.1v0.1h-0.1h-0.1v0.1h-0.1v0.1h-0.1v0.1v0.1v0.1
	l-0.1,0.1v0.1l-0.1,0.1v0.1v0.1v0.1v0.1l0.1,0.2v0.1h-0.1v0.1v0.1h-0.1h-0.1v0.1v0.1h0.1v0.1v0.1h-0.1v0.1h0.1l-0.1,0.1v0.1l0.1,0.1
	l0.1,0.1v0.1h-0.1l-0.1,0.1v0.1l0.1,0.1v0.1h0.1V68h0.1v0.1h0.1v0.1v0.1v0.1v0.1v0.1h0.1h0.1v0.1h0.1l0.1,0.1h0.1l0.1,0.1l0.2,0.1
	v0.1h0.1v0.1v0.1h-0.1v0.1h0.1v0.1v0.1l-0.1,0.1l-0.1,0.1l-0.1,0.1l-0.1,0.1v0.2l-0.1,0.1v0.1l0.1,0.1v0.1v0.1v0.1v0.2v0.1l-0.1,0.2
	v0.1h-0.1v0.1v0.1l0.1,0.1l0.1,0.1h0.1h0.1h0.1h0.1v0.1v0.1l0.1,0.1v0.1v0.1h0.1v0.1h0.1v0.1h-0.1l0.1,0.1h-0.1v0.1v0.1h0.1v0.1h0.1
	v0.1h0.1v0.1h0.1l0.1,0.1l0.1-0.1v0.1h0.1v0.1h-0.1h0.1h0.1h0.1h0.1h0.1v0.1h0.1h0.1h0.1v-0.1h0.1v-0.1h0.1h0.1v-0.1h0.1l0.1-0.1
	v-0.1v-0.1h0.1v-0.1h0.1v-0.1l-0.1-0.1h0.1v-0.1h0.1v0.1l0.1-0.1v-0.1v0.1h0.1l0.1,0.1v0.1h0.1v0.1v0.1l0.1,0.1v0.1h0.1h0.1v-0.1
	h0.1v-0.1h0.1v-0.1h0.1h0.1v-0.1h0.1h0.1h0.1l0.1-0.1h0.1h0.1h0.1l0.1-0.1h0.1h0.1l0.1,0.1l0.1,0.1v0.1v0.1h-0.1v0.1l-0.1,0.1v0.1
	v0.1h-0.1v0.1h0.1h-0.1v0.1v0.1v0.1l0.1,0.1v0.1v0.1h0.1v0.1v0.1h0.1v0.1h0.1h0.1l0.1-0.1h0.1v0.1h0.1v0.1v0.1v0.1l0.1,0.1h0.1v0.1
	v0.1l0.1,0.1h0.1h0.1h0.1h0.1h0.1v0.1h0.1h0.1h0.1h0.1h0.1h0.1v0.1l-0.1,0.1v0.1h-0.1v0.1v0.1h-0.1l-0.1,0.1h-0.1v0.1h0.1v0.1v0.1
	h0.1v0.1v0.1v0.1v0.1h-0.1v0.1h-0.1h-0.1v0.1v0.1v0.1v0.1h0.1v-0.1h0.1l0.1,0.1v0.1v0.1v0.1h0.1v0.1v0.1v0.1h0.1v0.1v0.1h-0.1
	l-0.1,0.1l-0.1,0.1h-0.1v0.1h-0.1l-0.1,0.1h-0.1h-0.1h-0.1v0.1l-0.1,0.1h-0.1H32v0.1v0.1v0.1h0.1v-0.1l0.1,0.1h0.1v0.1h0.1l0.1-0.1
	h0.1v0.1h0.1v0.1v0.1v0.1l0.1,0.1v0.1l0.1,0.1v0.1h0.1v0.1h0.1h0.1v0.1v0.1h0.1l0.1,0.1h0.1h0.1h0.1v-0.1v0.1h0.1v0.1h0.1v0.1h0.1
	h0.1v0.1h0.1l-0.1,0.1v0.1l0.1,0.1l0.1,0.1h0.1h0.1l0.1-0.1h0.1v0.1l0.1,0.1v0.1v0.1V81v0.1v0.1h0.1v0.1h0.1v0.1h0.1v0.1h0.1h-0.1
	v0.1v0.1v0.1h0.1v0.1v0.1v0.1l0.1,0.1h0.1h0.1v0.1v0.1h0.1v0.1h0.1l0.1-0.1v-0.1h0.1v-0.1h0.1l0.1,0.1h0.1h0.1v0.1h0.1h0.1v0.1h0.1
	v0.1l0.1-0.1h0.1v0.1v0.1h0.1h0.1v0.1h0.1h0.2h0.1h0.1l0.1-0.1h0.1v0.1v0.1v0.1l0.1,0.1H38h0.1v0.1h0.1v0.1v0.1h0.1v0.1h0.1v-0.1
	h0.1h0.1v0.1v0.1l0.1,0.1h0.1h0.1h0.1h0.1v-0.1h0.1v-0.1h0.1v-0.1h0.1h0.1v0.1l0.1-0.1h0.2v-0.1h0.1v-0.1h0.1h0.1h0.1h0.1h0.1h0.1
	h0.1h0.1h0.1v-0.1l0.1-0.1v-0.1h0.1h0.1v0.1v0.1h0.1v0.1l0.1,0.1h0.1h0.1l0.1,0.1v0.1v0.1h0.1h0.1v-0.1h0.1v-0.1h0.1h0.1h0.1h0.1
	h0.1h0.1h0.1h0.1h0.1v-0.1h0.1h0.1v0.1h0.2v0.1v0.1v0.1l-0.1,0.1h-0.1v0.1l0.1,0.2v0.1v0.1h0.1v0.1h0.1v0.1h0.1l0.1,0.1v0.1l0.1,0.1
	h0.1h0.1h0.1v-0.1h0.1v0.1v0.1l0.1,0.1v0.1h0.1h0.1v0.1v-0.1h0.1v0.1l0.1,0.2h0.1h0.1h0.1v-0.1h0.1v0.1l0.1,0.1v-0.1h0.1h0.1h0.1
	v-0.1h0.1v0.1h0.1v0.1h0.1h0.1v-0.1l0.1,0.1v-0.1l0.1-0.1h0.1l0.1,0.1v0.1h0.1v0.1h0.1h0.1v-0.1v-0.1h0.1v-0.1h0.1v-0.1h0.1h0.1
	l0.1-0.1h0.1v-0.1h0.1h0.1v0.1v0.1h0.1v0.1h0.1l0.1,0.1v0.1h0.1v0.1h0.1v0.1v0.1h0.1h0.1h0.1l0.1,0.1h0.1h0.1l0.1,0.1h0.1h0.1h0.1
	v-0.1v0.1h0.1h0.1h0.1v0.1h0.1v0.1h0.1h0.1v0.1v0.1h0.1v0.1l0.1,0.1l0.1-0.1v-0.1h0.1h0.1v0.1h0.1v0.1h0.1v0.1h0.1v0.1V87h0.1v0.1
	h0.1v0.1h0.1h0.1h0.1h0.1l0.1,0.1h0.1h0.1h0.1h0.1h0.1h0.1h0.1h0.1h0.1h0.1h0.2v0.1v0.1v0.1h-0.1v0.1h-0.1v0.1h0.1h0.1v0.1v0.1h0.1
	h0.1h0.1v0.1v0.1h0.1l0.1-0.1h0.1v-0.1l0.1-0.1l0.1-0.1l0.1-0.1h0.1h0.1h0.1h0.1h0.1h0.1l0.1-0.1h0.1h0.1h0.1v-0.1h0.1v0.1h0.1h0.1
	v-0.1h0.1v-0.1h-0.1v-0.1h0.1v-0.1v-0.1h0.1V87h-0.1v-0.1h0.1v-0.1v0.1h0.1h0.1v-0.1h0.1v0.1h0.1h0.1v-0.1h0.1v-0.1v-0.1v-0.1h0.1
	h0.1v0.1h0.1h0.1v-0.1h0.1l0.1,0.1v-0.1h0.1v-0.1v-0.1v-0.1h0.1v-0.1v-0.1v-0.1h0.1v-0.1h0.1h0.1v-0.1h0.1v-0.1h0.1v-0.1v-0.1v-0.1
	h0.1v-0.1h0.1v-0.1h0.1h0.1h0.1h0.1v-0.1v-0.1v-0.1h0.1v-0.1l-0.1-0.1v-0.1h0.1h0.1h-0.1h0.1v-0.1v-0.1h0.1h0.1h0.1v0.1h0.1v0.1v0.1
	v0.1h0.1v0.1h0.1v0.1h-0.1v0.1v0.1l-0.1,0.1l-0.1,0.1v0.1v0.1h0.1v0.1v0.1h0.1v0.1v0.1l0.1,0.1v0.1h-0.1l0.1,0.1v0.1v0.1v0.1v0.1
	h0.1v0.1h0.1v0.1v0.1h0.1V87l0.1,0.1h0.1v0.1v0.1h0.1h0.1h0.1v0.1v-0.1h0.1h0.1v0.1h0.1h0.1h0.1h0.1h0.1l0.1-0.1l0.1-0.1l0.1-0.1V87
	h0.1l0.1,0.1v0.1h0.1v0.1h0.1v0.1v0.1h0.1h0.1h0.1h0.1v0.1v0.1h0.1v0.1h0.1l0.1,0.1h0.1h0.1h0.1h0.1l0.1,0.1h0.1h0.1v0.1h0.1h0.1
	h0.1h0.1v0.1v0.1v0.1v0.1l0.1,0.1l0.1,0.1h-0.1v0.1v0.1v0.1h0.1v0.1v0.1v0.1h0.1v0.1h0.1v0.1v0.1h0.1v0.1v0.1v0.1v0.1l0.1,0.1v0.1
	h0.1v0.1v0.1l-0.1,0.1l-0.1,0.1v0.1v0.1v0.1h0.1v0.1v0.1h-0.1l0.1,0.1v0.1v0.1v0.1h0.1v0.1v0.1v0.1l-0.1,0.1v0.1l-0.1,0.1v0.1v0.1
	h0.1v0.1h-0.1v0.1v0.1h0.1v0.1v0.1v0.1v0.1l-0.1,0.1v0.1h0.1h0.1v0.1h0.1v0.1h0.1v0.1v0.1l0.1,0.1h0.1v0.1l0.1,0.1v0.1h0.1v0.1v0.1
	h0.1v0.1v0.1h0.1v0.1v0.1v0.1h0.1v0.1v0.1h0.1v0.1l-0.1,0.1v0.1h0.1h0.1v0.1H64v0.1l0.1,0.1h0.1v0.1h0.1v0.1v0.1v0.1h-0.1h-0.1H64
	v0.1h-0.1v0.1v0.1v0.1v0.1v0.1H64v0.1v0.1v0.1h0.1v0.1v0.1l0.1,0.1h0.1h0.1v-0.1h0.1h0.1l0.1-0.1l0.1-0.1h0.1l0.1,0.1v-0.1h0.1v-0.1
	l0.1-0.1v0.1h0.1v0.1h0.1h0.1h0.1h0.1h0.1v-0.1h0.1h0.1v0.1h0.1v-0.1h0.1h0.1h0.1h0.1h0.1h0.1v-0.2h0.1v-0.1h0.1v-0.1h0.1h0.1h0.1
	h0.1h0.1h0.1h0.1h0.1h0.1l0.1-0.1v-0.1h0.1v-0.1v-0.1v-0.1h0.1v-0.1v-0.1l0.1-0.1v-0.1h0.1v-0.1h0.1h0.1h0.1h0.1h0.1h0.1v-0.1v-0.1
	h-0.1v0.1l-0.1-0.1v-0.1h-0.1v-0.1h0.1h0.1h0.1v-0.1h-0.1h-0.1v-0.1h0.1v-0.1v-0.1v-0.1h-0.1v-0.1v-0.1h0.1v-0.1h-0.1h-0.1h-0.1
	v-0.1h-0.1V94v-0.1v-0.1v-0.1h0.1h0.1h-0.1v-0.1h-0.1v-0.1v-0.1h0.1h0.1h0.1h0.1v-0.1h-0.1v-0.1v-0.1v-0.1v-0.1h0.1v-0.1v-0.1v-0.1
	v-0.1h-0.1v-0.1h0.1v-0.1h-0.1h-0.1v-0.1h-0.1v-0.1v-0.1v-0.1v-0.1v-0.1h-0.1v-0.1v-0.1v-0.1l0.1-0.1v-0.1h-0.1h-0.1v-0.1v-0.1v-0.1
	h-0.1v-0.1v-0.1h0.1h0.1v-0.1h-0.1v-0.1v-0.1v-0.1v-0.1h0.1v-0.1v-0.1v-0.1v-0.1v-0.1v-0.1v-0.1h0.1v-0.1v-0.1v-0.1h0.1v-0.1h0.1
	v-0.1v-0.1v-0.1h0.1h0.1v-0.1h0.1v-0.1v-0.1v-0.1v-0.1h0.1v-0.1v-0.1h0.1l0.1-0.1v0.1h0.1v0.1h0.1h0.1v-0.1h0.1v0.1h0.1h0.1h0.1v0.1
	h0.1v-0.1h0.1v-0.1h0.1v-0.1v-0.1l-0.1-0.1h0.1v-0.1v0.1h0.1v-0.1h0.1h0.1v0.1h0.1v-0.1l0.1-0.1v-0.1v-0.1h-0.1h0.1v-0.1v-0.1V87
	v-0.1l0.1-0.1v-0.1v-0.1h0.1v0.1h0.1h0.1v0.1v-0.1h0.1h0.1h0.1v-0.1v-0.1v-0.1l-0.1-0.1v-0.1v-0.1h0.1v-0.1h0.1v-0.1v-0.1v-0.1
	l0.1-0.1h0.1h0.1l0.1,0.1h0.1h0.1h0.1h0.1h0.1h0.1v0.1h0.1h0.1h0.1l0.1,0.1h0.1v-0.1h0.1v-0.1v-0.1v-0.1h0.1h0.1l0.1-0.1h0.1v-0.1
	h0.1v-0.1h0.1v-0.1l0.1-0.1l0.1-0.1l0.1-0.1l0.1-0.1v-0.1l0.3-0.2l0.2-0.1l0.2-0.3l0.41-0.3l0.2-0.2l0.1-0.1v-0.1h0.1l0.1-0.1v-0.1
	l0.1-0.1l0.2-0.1v-0.1l0.2-0.2l0.1-0.1v-0.1h0.1v-0.1h0.1v-0.1h0.1H77h0.1h0.1l0.1-0.1l0.1-0.1v-0.1v-0.1h0.1v-0.1h0.1v-0.1h0.1h0.1
	h0.1v-0.1v-0.1v-0.1v-0.1V81v-0.1l0.1-0.1v-0.1v-0.1h0.1v-0.1l1.73-0.91l-0.1-0.1v-0.1l-0.1-0.2l-0.1-0.2l-0.2-0.2h-0.1l-0.1-0.1
	h-0.1h-0.1v-0.1h-0.1l-0.1-0.1l-0.1-0.1h-0.1h-0.1v-0.1v-0.1v-0.1h-0.1v-0.1h0.1l0.1-0.1h0.1h0.1l0.1-0.1l0.1-0.1h0.1v-0.1v-0.1
	l0.1-0.1v-0.1h0.1v-0.1h0.1h0.1v-0.1h0.1l-0.2-0.1l-0.1-0.1l-0.1-0.1l-0.1-0.1h-0.1v-0.1h-0.1l-0.1-0.1l-0.1-0.1h-0.1h-0.1h-0.1
	v-0.1h-0.1h-0.1l-0.1-0.1v-0.1l-0.1-0.2l-0.1-0.1l-0.1-0.1l-0.1-0.1v-0.1h-0.1l-0.1-0.1l-0.1-0.1l-0.1-0.1l-0.1-0.1H77v-0.1h-0.1
	v-0.1h-0.1l-0.1-0.1h-0.1v-0.1l-0.1-0.1v-0.1v-0.1h0.1v-0.1l0.1-0.1v-0.1l0.1-0.1v-0.1v-0.1v-0.41v-0.41v-0.1v-0.1v-0.1v-0.1
	l-0.1-0.1v-0.1l-0.1-0.1v-0.1l-0.1-0.1l-0.1-0.1l-0.1-0.1h-0.1h-0.1h-0.1h-0.2l-0.1-0.1h-0.2h-0.1h-0.1h-0.1h-0.1h-0.1h-0.1h-0.1
	l-0.1-0.1h-0.1h-0.2l-0.1-0.1v-0.1h-0.1h0.1v-0.1l0.1-0.1h0.1v-0.1v-0.1h0.1v-0.1l0.1-0.1h0.1h0.1v-0.1l0.1-0.1v-0.1h-0.1h0.1v-0.1
	l0.1-0.1h-0.1h0.1h-0.1v-0.1v-0.1h-0.1v-0.1v-0.1h-0.1v-0.1v-0.1h0.1v-0.1h0.1v-0.1h0.1v-0.1v-0.1h-0.1h-0.1v-0.1v-0.1h-0.1v-0.1
	v-0.1v-0.1v-0.1v-0.1h0.1v-0.1v-0.1l-0.1-0.1h0.1v-0.1h0.1h-0.1h0.1V68v0.1h0.1V68h0.1v-0.1v-0.1v0.1h0.1v-0.1h0.1v-0.1h-0.1h0.1
	h0.1v-0.1h-0.1h0.1v-0.1v-0.1v-0.1h0.1v-0.1h0.1h0.1v-0.1h0.1h0.1h0.1v-0.1h0.1l0.1-0.1l0.1-0.1h0.1v-0.1v-0.1l0.1-0.1l0.1-0.2v-0.1
	v-0.1v-0.1l-0.1-0.1h0.1v-0.1l0.1-0.1h0.1v-0.1v-0.1v-0.1h-0.1v-0.1h0.1v-0.1v0.1H77v0.1h0.1h0.1h0.1h0.1h0.1v-0.1h-0.1h-0.1h-0.1
	v-0.1l-0.1-0.1H77h-0.1h-0.1h-0.1h-0.1v-0.1l-0.1,0.1h-0.1v-0.1h-0.1h-0.1h-0.1v-0.1l-0.1-0.1h-0.1v-0.1l-0.1,0.1h-0.1v-0.1h-0.1
	v-0.1l0.1-0.1h0.1v-0.1v-0.1h0.1h0.1v-0.1h0.1h0.1v-0.1h0.1h0.1v-0.1h0.1h0.1h0.1h0.1v-0.1h0.1v-0.1h-0.1v-0.1h-0.1h-0.2v0.1h-0.1
	h-0.1h-0.1h-0.1h-0.1h-0.1h-0.1h-0.1v0.1h-0.1h-0.1h-0.1h-0.1h-0.1h-0.1h-0.1h-0.1h-0.1h-0.1h-0.1h-0.1h-0.1h-0.1h-0.1h-0.1h-0.1
	l-0.1-0.1h-0.1h-0.1h-0.1h-0.1v-0.1h-0.1h-0.1h-0.1l-0.1-0.1h-0.1h-0.1l-0.1-0.1h-0.1h-0.1v-0.1h-0.1h-0.1l-0.1-0.1h-0.1h-0.1
	l-0.1-0.1l-0.1-0.1l-0.2-0.1h-0.1l-0.1-0.1h-0.1v0.1l-0.1-0.1h-0.1v-0.1h-0.1v-0.1h-0.1v-0.1h-0.1h-0.1v-0.1h-0.1h-0.1v-0.1h-0.1
	h-0.1v-0.1h-0.1h-0.1l-0.1-0.1h-0.1h-0.1v-0.1h-0.1v-0.1h-0.1h-0.1v-0.1h-0.1l-0.1-0.1h-0.1l-0.1-0.1l-0.1-0.1l-0.1-0.1h-0.1
	l-0.1-0.1l-0.1-0.1h-0.1l-0.1-0.1l-0.1-0.1h-0.1l-0.1-0.1l-0.1-0.1l-0.1-0.1h-0.1l-0.1-0.1l-0.1-0.1l-0.2-0.1v-0.1h-0.1v-0.1h-0.1
	v-0.1h-0.1l-0.1-0.1l-0.1-0.1l-0.1-0.1l-0.1-0.1l-0.1-0.1h-0.1v-0.1h-0.1l-0.1-0.1l-0.1-0.2l-0.2-0.1l-0.1-0.1h-0.1v-0.1h-0.1v-0.1
	l-0.1-0.1h-0.1l-0.1-0.1v-0.1h-0.1l-0.1-0.1l-0.1-0.1v-0.1h-0.1l-0.1-0.1h-0.1v-0.1l-0.1-0.1h-0.1v-0.1l-0.1-0.1h-0.1v-0.1h-0.1
	v-0.1h-0.1v0.1H64h-0.1v0.1h-0.1l-0.1-0.1h-0.1h-0.1v0.1h-0.1v0.1h-0.1v0.1h-0.1v0.1l-0.1,0.1h-0.1h-0.1h-0.1h-0.1h-0.2v-0.1h-0.1
	h-0.1h-0.2h-0.1h-0.1v-0.1h-0.1h-0.1v-0.1h-0.1h-0.1v-0.1h-0.1l-0.1-0.1h-0.1l-0.1-0.1h-0.1l-0.1-0.1h-0.1v-0.1h-0.1l-0.1-0.1h-0.1
	l-0.1-0.2h-0.1l-0.1-0.1l-0.1-0.1h-0.1l-0.1-0.1h-0.1v-0.1l-0.2-0.1l-0.1-0.1l-0.1-0.1l-0.1-0.1l-0.1-0.1l-0.1-0.1l-0.2-0.2
	l-0.1-0.1l-0.1-0.1l-0.1-0.1l-0.1-0.1h-0.1v-0.1l-0.1-0.1l-0.1-0.1v-0.1l-0.2-0.1v-0.1l-0.2-0.2l-0.1-0.1v-0.1h-0.1l-0.1-0.1v-0.1
	h-0.1v-0.1h-0.1v-0.1l-0.1-0.1l-0.1-0.1l-0.1-0.2l-0.1-0.1l-0.1-0.1l-0.1-0.1l-0.1-0.1v-0.1l-0.1-0.2h-0.1l-0.1-0.1v-0.1l-0.1-0.1
	l-0.1-0.1v-0.1l-0.2-0.2l-0.1-0.1l-0.1-0.2l-0.1-0.1v-0.1l-0.2-0.2l-0.1-0.1v-0.1h-0.1h-0.1v-0.1h-0.1v-0.1v-0.1v-0.1h-0.1v-0.1
	h-0.1v-0.1l-0.1-0.1l-0.1-0.2h-0.1v-0.1l-0.1-0.1v-0.1l-0.1-0.1v-0.1l-0.2-0.1v-0.1l-0.3-0.41l-0.1-0.1v-0.1l-0.1-0.2l-0.1-0.1
	l-0.1-0.1l-0.1-0.1l-0.2-0.3v-0.1l-0.1-0.1l-0.1-0.2l-0.1-0.1l-0.1-0.1l-0.3-0.61l-0.2-0.2v-0.1l-0.1-0.2h-0.1v-0.1v-0.1h-0.1v-0.1
	l-0.1-0.1v-0.1h-0.1v-0.1l-0.1-0.1v-0.1h-0.1v-0.1l-0.1-0.1v-0.1l-0.1-0.1v-0.1l-0.1-0.1v-0.1h-0.1v-0.1l-0.1-0.1v-0.1h-0.1v-0.1
	h-0.1h-0.1h-0.1v-0.1h-0.1v-0.1v0.1l-0.1-0.1v-0.1h-0.1v-0.1l-0.1-0.1v-0.1h-0.1v-0.1v-0.1h-0.1v-0.1v-0.1h-0.1v-0.1h-0.1v-0.1v-0.1
	h-0.1v-0.1v-0.1h-0.1v-0.1h-0.1v-0.1v-0.1h-0.1v-0.1h-0.1h-0.1h-0.1h-0.1h-0.1h-0.1v-0.1v-0.1h-0.1v-0.1v-0.1h-0.1V42v-0.1l-0.1-0.1
	v-0.1v-0.1h-0.1h0.1v-0.1l-0.2,0.3h-0.1v0.1l0.2,0.3v0.3l0.2,0.3l0.2,0.3l0.1,0.2v0.3l0.1,0.2v0.1v0.2h0.1l-0.1,0.1l-0.1,0.1h0.1
	l0.1,0.1h0.1h0.1v0.1v0.1l-0.1,0.1v0.1v0.1l-0.1,0.1l-0.1,0.1l-0.3,0.2l-0.3,0.2h-0.2l-0.2,0.1h-0.1v0.1l-0.1,0.2v0.1l-0.2,0.1
	l-0.1,0.1h-0.2l-0.1,0.1l-0.1,0.1l-0.1,0.1v0.1l-0.1,0.1l-0.3,0.1l-0.2,0.1l-0.2,0.1l-0.2-0.1l-0.1,0.1h-0.2h-0.1h-0.2l-0.1,0.1
	h-0.2l-0.1-0.1l-0.1,0.1h-0.1l-0.1-0.1h-0.2h-0.1h-0.1l-0.2,0.1l-0.3,0.1l-0.3,0.1h-0.2l-0.2-0.1h-0.1h-0.1l-0.1-0.1l0.1-0.1v-0.2
	l-0.1-0.1l-0.3-0.1h-0.2h-0.1l-0.1-0.3v-0.2l-0.1-0.1l-0.2-0.1v0.1v0.1v0.2l-0.2,0.1v0.2v0.1h-0.1h-0.2l-0.2-0.1v-0.1l0.1-0.2
	l-0.1-0.2v-0.1l-0.1-0.1l-0.1-0.1l-0.1,0.1v0.1v0.1v0.1l-0.1,0.1h-0.1l-0.1-0.1l-0.2,0.1h-0.1l-0.1-0.1l-0.1-0.2l-0.1-0.1l-0.1-0.1
	l-0.1,0.1h-0.2l-0.1-0.2h-0.1h-0.1l-0.1-0.2l-0.1-0.3l-0.1-0.1v-0.2l-0.1-0.1l-0.1-0.1v-0.1l0.1-0.1v-0.1v-0.1h-0.1l-0.1-0.2v-0.1
	v-0.2v-0.2l0.1-0.1v-0.1l-0.1-0.1h-0.1H38l-0.1,0.1l0.1,0.1h-0.1l-0.1,0.1h-0.1l-0.2-0.1l-0.1-0.1h-0.2h-0.1l-0.1-0.1l-0.1-0.1
	l-0.1-0.41l0.1-0.1l0.1-0.1l-0.1-0.1v-0.1l0.1-0.1l0.1-0.1v-0.1l0.1-0.1l0.1-0.1h0.1l0.1-0.1v-0.1h0.1l-0.1-0.1v-0.1v-0.1h0.1h0.1
	h0.1l0.1-0.1l0.1-0.1l0.1-0.1h0.1h0.1h0.1l0.2-0.1h0.1h0.1h0.1l0.1-0.1l0.1-0.1l0.2-0.1l0.1-0.1l0.2-0.1h0.1l-0.1-0.1h-0.1l-0.1-0.1
	l-0.2-0.2l-0.2-0.1l-0.1-0.1h-0.1h-0.2l-0.3-0.1l-0.41-0.1h-0.2l-0.1,0.1h-0.1l-0.1-0.2h-0.1v-0.1l-0.1-0.1l-0.1-0.1l-0.1-0.1h-0.1
	l-0.1-0.1h-0.1l-0.1-0.2v-0.1l-0.1-0.1v-0.1l0.1-0.1V38.24L36.57,38.24z M32.51-0.15h0.1l0.1,0.1v0.1v0.1v0.1h0.1h0.1h0.1l0.1-0.1
	h0.1v0.1h0.1h0.1v-0.1h0.1h0.1v0.1l0.1,0.1v0.1v0.1v0.1v0.1l0.1,0.1v0.1v0.1v0.1v0.1l0.1,0.2v0.1v0.2l0.1,0.1v0.1v0.1v0.2l0.1,0.1
	v0.1v0.1v0.2l0.1,0.1v0.1v0.1v0.1v0.1l0.1,0.1v0.1v0.1v0.1v0.1l0.1,0.2v0.2v0.1l0.1,0.1v0.1l0.1,0.41v0.1l0.1,0.2v0.3v0.1l0.1,0.3
	v0.1l0.1,0.2v0.1l0.1,0.3v0.2v0.1l0.1,0.2v0.2v0.1l0.1,0.3l0.1,0.3l0.1,0.3v0.2v0.1l0.1,0.1v0.2v0.2l0.1,0.1v0.1v0.2l0.1,0.1v0.2V10
	l0.1,0.1v0.2l0.1,0.2v0.1v0.1l0.1,0.1v0.1v0.2l0.1,0.1v0.2v0.1v0.1l0.1,0.2l0.1,0.2v0.2v0.1h0.1v0.1v0.1v0.1h0.1v0.1v0.1v0.1v0.1
	v0.1l0.1,0.1v0.1v0.1h0.1v0.1v0.1v0.1v0.1l0.1,0.1v0.1v0.3l0.1,0.2l0.1,0.3v0.1v0.1v0.2h0.1v0.1v0.1v0.1l0.1,0.1v0.1v0.1V16l0.1,0.1
	v0.1v0.1v0.1l0.1,0.1v0.3v0.1v0.1l0.1,0.1v0.2l0.1,0.2v0.1v0.1v0.1h0.1v0.1v0.1v0.1v0.1l0.1,0.1v0.1v0.1l0.1,0.3v0.1v0.1l0.1,0.2
	v0.1v0.1v0.1l0.1,0.2v0.1v0.1l0.1,0.1l0.1,0.3v0.2l0.1,0.2v0.1v0.2v0.1l0.1,0.1v0.1v0.2h0.1v0.1v0.1v0.1v0.1h0.1v0.2v0.1l0.1,0.1
	v0.2l0.1,0.1v0.1v0.1V23h0.1v0.1v0.1v0.1v0.1l0.1,0.2v0.1l0.1,0.1v0.41v0.1l0.1,0.1v0.1v0.1v0.1h0.1v0.1v0.1v0.1l0.1,0.1v0.1v0.1
	l0.1,0.1v0.1l0.1,0.2v0.1v0.1l0.1,0.1v0.1v0.1v0.1l0.1,0.1v0.2l0.1,0.1v0.1v0.1l0.1,0.1v0.1l0.1,0.3v0.1v0.1l0.1,0.1v0.1v0.1
	l0.1,0.1v0.2l0.1,0.1v0.1v0.2l0.1,0.1l0.1,0.3l0.1,0.51l0.1,0.2l0.1,0.1v0.1v0.1l0.1,0.1v0.1v0.1v0.1l0.1,0.2l0.1,0.1v0.1l0.1,0.2
	v0.1l0.1,0.1v0.1l0.1,0.1v0.1l0.1,0.1v0.1v0.1v0.1h0.1v0.1v0.1l0.1,0.1v0.1v0.1l0.1,0.1v0.1l0.1,0.1l0.1,0.2v0.2l0.1,0.2l0.1,0.1
	v0.1v0.1h0.1v0.2l0.1,0.1l0.1,0.1v0.1v0.1l0.1,0.1l0.1,0.2v0.1l0.1,0.2l0.1,0.2v0.1l0.1,0.2l0.1,0.1v0.1l0.1,0.2l0.1,0.1v0.1h0.1
	v0.1l0.2,0.51l0.3,0.51l0.2,0.3l0.2,0.41l0.1,0.2l0.1,0.1l0.1,0.1v0.2l0.2,0.1v0.1l0.1,0.2h0.1v0.2l0.1,0.1h0.1v0.1v0.1h0.1v0.1v0.1
	l0.1,0.1h0.1v0.1l0.1,0.1h0.1l0.2,0.2l0.3,0.2h0.1v0.1h0.1v0.1l0.1,0.1v0.1v0.1l0.1,0.1v0.1v0.1v0.1h0.1v0.1v-0.1h0.1v0.1v-0.1h-0.1
	v0.1v0.1v-0.1h0.1v0.1v0.1v0.1h0.1v0.1h0.1l0.1-0.1v-0.1h0.3v0.1h-0.1h-0.2v0.1v0.1V42h0.1l0.1,0.1h0.1v0.1v0.1v0.1v0.1h-0.1
	l0.1,0.1h-0.1v0.1v0.1v0.1h0.1h-0.1v0.1h0.1v0.1h0.1h0.1h-0.1v0.1v0.1h0.1h-0.1v0.1h0.1v0.1h0.1l0.1,0.1v0.1h-0.1v0.1h-0.1v0.1h-0.1
	h-0.1h-0.1v0.1h-0.1h-0.1h-0.1v0.1l-0.1-0.1v-0.1h-0.1h0.1l-0.1-0.1v-0.1h-0.1v-0.1h-0.1h-0.1v-0.1h-0.1h-0.1l-0.1,0.1h-0.1
	l-0.2,0.1l-0.1-0.2v-0.2l-0.2-0.2L44.9,42.2L44.5,41.8l-1.32-1.02l-0.2-0.1l-0.41-0.3l-0.41-0.1l-0.3-0.1h-0.3l-0.3,0.1l-0.2,0.1
	l-0.3,0.1h-0.3l-0.1,0.1l-0.2-0.1l-0.2-0.1h-0.1h-0.1l-0.1-0.1l-0.2-0.1l-0.1-0.1l-0.2-0.2l-0.1-0.1l-0.2-0.1l-0.2-0.1h-0.3
	l-0.1-0.1l0.1-0.1l0.1-0.1l0.2-0.1h0.2l0.41-0.2l0.2-0.2v-0.3v-0.1l-0.2-0.3l-0.1-0.2l0.1-0.3l0.1-0.3v-0.3l-0.1-0.2l-0.3-0.3v-0.41
	l0.1-0.61v-1.12l-0.1-0.3l-0.1-0.3l-0.2-0.3l-0.3-0.2l-0.2-0.1l-0.3-0.2v-0.1l0.1-0.2v-0.61l0.2-0.3v-0.51L38,30.62l-0.1-0.2v-0.2
	l0.1-0.61l0.1-0.71v-0.91v-1.02L38,26.46l-0.1-0.61v-0.2l-0.1-0.71l-0.1-0.61l-0.2-1.02l-0.1-0.61l-0.3-0.61l-0.3-0.3l-0.41-0.3
	l-0.51-0.1l-0.51-0.1l-0.41-0.2h-0.3l-0.2-0.1h-0.1h-0.3h-0.41l-0.2,0.1h-0.3h-0.3l-0.1,0.2l-0.2,0.3l-0.1,0.1l-0.2,0.2l-0.2,0.2
	l-0.2,0.3l-0.1,0.3l-0.1,0.41l-0.1,0.41l-0.2,0.3l-0.2,0.3v0.3v0.3l0.1,0.1v0.3l-0.1,0.2l-0.3-0.2l-0.1-0.2l-0.2-0.2h-0.2l-0.3-0.1
	l-0.1-0.2v-0.2l-0.3-0.3l0.1-0.41l-0.2-0.61l0.1-0.61l0.3-0.61l0.41-0.3l0.3-0.51l0.2-0.41l0.1-0.41l0.3,0.3l0.41,0.3l0.51-0.1
	l0.41-0.81l0.1-0.61l0.1-1.12l0.1-1.02V16.4l-0.1-1.63l-0.2-1.12l-0.3-1.42l-0.41-1.32L31.39,9.7V9.5l-0.61-1.12l-0.3-0.41l-0.3-0.1
	l-0.3,0.1h-0.1l-0.51,0.2l-0.1,0.1l-0.1,0.3l-0.2,0.2l-0.3,0.2l-0.3,0.1h-0.41h-0.61l-0.51-0.1l-0.41-0.1l-0.2,0.1l-0.41,0.3h0.1
	h-0.2h-0.1l-0.1-0.1h-0.1v-0.1v-0.1h-0.1v0.1h-0.1H25v-0.1h-0.1v-0.1h-0.1h-0.1l-0.1-0.1v-0.1v-0.1h0.1v-0.1v-0.1v-0.1h-0.1v-0.1
	l-0.1-0.1v-0.1h-0.1h-0.1v-0.1h-0.1l-0.1-0.1h-0.1h-0.1h-0.1l-0.1-0.1h-0.1h-0.1h-0.1l-0.1-0.1h-0.1h-0.1v-0.1h-0.1h-0.1h-0.1h-0.1
	h-0.1h-0.1h-0.1h-0.1l-0.1,0.1h-0.1l-0.1,0.1h-0.1v0.1h-0.1h-0.1v0.1h-0.1v0.1v0.1h-0.1h-0.1v-0.1v-0.1l0.1-0.3l0.1-0.2l0.1-0.2
	v-0.3l0.1-0.1v-0.1l0.1-0.2v-0.1v-0.2v-0.1h0.1v-0.1v-0.1v-0.2v-0.1v-0.3l0.1-0.2v-0.1v-0.1v-0.1v-0.1l0.1-0.1v-0.1v-0.1v-0.1v-0.1
	v-0.1v-0.1h0.1l0.1-0.1h0.1h0.1l0.1-0.1h0.1l0.1-0.1h0.1h0.1h0.1h0.1l0.1-0.1l0.1-0.1l0.2-0.1h0.2h0.1V3.2h0.1l0.1-0.1h0.2l0.2-0.1
	h0.1h0.1l0.2-0.1h0.1l0.1-0.1h0.3l0.2-0.1h0.1l0.3-0.1l0.2-0.1h0.2l0.1-0.1h0.2h0.1h0.1h0.2l0.1-0.1h0.1l0.1-0.1h0.1l0.2-0.1
	l0.1-0.1l0.1-0.1l0.1-0.1l0.1-0.1v-0.2v-0.1v-0.1v-0.1l0.1-0.1l0.51,0.1h0.1h0.2h0.1h0.1h0.1h0.1h0.1h0.1l0.1,0.1h0.1h0.1h0.1h0.1
	h0.1h0.2l0.1-0.1h0.1h0.1h0.1h0.1v-0.1h0.1l0.1,0.1l0.1-0.1v0.1h0.1h0.1h0.1l0.1,0.1h0.1H32v-0.1l-0.1-0.1v-0.1v-0.1v-0.1v-0.1
	l0.1-0.1v-0.1l0.1-0.1v-0.1l0.1-0.2v-0.1v-0.1h0.1h0.1H32.51z"/>
</svg>
