<?xml version="1.0" encoding="utf-8"?>
<!-- Generator: Adobe Illustrator 24.2.1, SVG Export Plug-In . SVG Version: 6.00 Build 0)  -->
<svg version="1.1" id="Layer_1" xmlns="http://www.w3.org/2000/svg" xmlns:xlink="http://www.w3.org/1999/xlink" x="0px" y="0px"
	 viewBox="0 0 97.23 97.23" style="enable-background:new 0 0 97.23 97.23;" xml:space="preserve">
<style type="text/css">
	.st0{fill-rule:evenodd;clip-rule:evenodd;fill:#1D1D1B;}
</style>
<path class="st0" d="M26.92,7.31l0.1-0.1h0.1v0.1h0.1h0.1v0.1h0.1h0.1v0.1h0.1v0.1h0.1l0.1,0.1h0.1v0.1h0.1h0.1v0.1h0.1h0.1h0.1v0.1
	h0.1h0.1h0.1h0.1h0.1h0.1h0.1h0.1h0.1h0.1l0.1,0.1h0.1h0.1h0.1h0.1h0.1h0.1v-0.1h0.1v0.1v0.1v0.1h0.1v0.1v0.1h0.1v0.1h0.1h0.1h0.1
	h0.1h0.1l0.1-0.1l0.1,0.1h0.1v0.1h0.1v-0.1h0.1h0.1v0.1h0.1v0.1h0.1v-0.1h0.1v-0.1h0.1h0.1v0.1v0.1h0.1v0.1h0.1v-0.1l0.1,0.1v0.1
	h0.1h0.1h0.1l0.1-0.1h-0.1v-0.1h0.1v-0.1h0.1v-0.1h0.1v0.1h0.1v0.1v0.1v0.1v0.1v0.1v0.1l0.1-0.1v0.1h0.1l0.1,0.1h0.1h0.1v0.1h0.1
	v0.1h0.1h0.1v-0.1l0.1-0.1h0.1h0.1h0.1v0.1l0.1,0.1h0.1v-0.1h0.1v0.1h0.1v0.1v0.1h0.1v0.1h0.1h0.1v0.1v0.1v0.1h0.1v0.1h-0.1v0.1h0.1
	l0.1,0.1v-0.1h0.1v0.1h0.1h0.1v0.1h0.1v0.1h0.1v0.1v0.1v0.1h0.1v0.1h-0.1v0.1h0.1h0.1v0.1h0.1h0.1v0.1v0.1h0.1h0.1v0.1h0.1h0.1h0.1
	v0.1h0.1v0.1h0.1v0.1H37v0.1h0.1h0.1h0.1h0.1h0.1h0.1v-0.1h0.1h0.1v0.1l0.1-0.1v-0.1h0.1h0.1v-0.1h0.1v-0.1h0.1v-0.1h0.1v-0.1v-0.1
	l-0.1-0.1v-0.1h-0.1v-0.1l-0.1-0.1h-0.1v-0.1h-0.1h-0.1h-0.1v-0.1h-0.1v-0.1h-0.1l-0.1-0.1v-0.1v-0.1l0.1-0.1v-0.1h-0.1h-0.1
	l-0.1-0.1h-0.1H37v-0.1v-0.1v-0.1v-0.1h0.1v-0.1v-0.1v-0.1h0.1v-0.1h0.1v-0.1v-0.1h1.32l0.2,0.1l0.2,0.2l0.2,0.2l0.31,0.1h0.2
	l0.1-0.2l0.1-0.2l0.2-0.1l0.1-0.1h0.1l0.51,0.1h0.41h0.51h0.1h0.1v-0.1h0.1v0.1v0.1v0.1l0.1,0.1v0.1v0.1v0.2v0.31l0.1,0.1v0.1v0.1
	v0.1v0.1l0.1,0.1v0.1v0.1l0.1,0.1v0.1v0.1h0.1v0.1v0.1v0.1h0.1v0.2l0.1,0.1v0.1l0.2,0.2v0.1l0.2,0.41l0.31,0.31v0.1v0.1h0.1l0.1,0.1
	l0.1,0.2v0.1l0.1,0.1h0.1v0.1l0.1,0.1l0.2,0.31h0.1v0.1l0.1,0.1v0.1h0.1v0.1h0.1v0.1v0.1l0.1,0.1h0.1v0.1l0.1,0.2v0.1v0.1v0.1v0.1
	v0.1v0.1v0.2v0.31v0.1v0.2v0.31l0.1,0.1v0.2l0.1,0.1l0.1,0.31v0.2l0.1,0.2v0.1v0.1l0.2,0.41l0.31,0.71l0.2,0.31l0.2,0.51l0.1,0.1
	v0.1l0.1,0.31v0.1l0.1,0.2v0.1v0.1h0.1v0.1v0.1l0.1,0.1v0.1v0.1v0.1h0.1v0.1l0.1,0.2v0.1l0.1,0.1v0.1l0.1,0.1v0.1h0.1v0.2h0.1v0.1
	l0.1,0.1v0.1l0.1,0.1l0.1,0.2l0.1,0.1v0.1l0.1,0.1l0.1,0.1v0.2l0.1,0.1l0.1,0.1l0.1,0.1l0.1,0.2l0.2,0.1l0.1,0.2l0.1,0.1l0.1,0.1
	v0.1h0.1l0.1,0.1l0.1,0.1l0.1,0.1l0.1,0.1l0.1,0.1l0.1,0.1h0.1v0.1h0.1v0.1h0.1v0.1h0.1l0.1,0.1v0.1h0.1l0.1,0.1l0.1,0.1v0.1h0.1
	v0.1h0.1v0.1l0.1,0.1l0.1,0.1l0.1,0.1v0.1v0.1h0.1v0.1v0.2h-0.1v-0.1h-0.1v-0.1v-0.1h-0.1v-0.1h-0.1h-0.1l-0.1-0.1l-0.1-0.1
	l-0.1-0.1h-0.1v-0.1h-0.1h-0.1h-0.1v0.1h-0.1l-0.1,0.1v0.1h-0.1v0.1h-0.1v0.1l-0.1,0.1h-0.1l-0.1,0.1v0.1l-0.1,0.1v0.1l-0.1,0.1v0.1
	l-0.1,0.2v0.1v0.1h-0.1v0.1h-0.1h-0.1l-0.1,0.1h-0.1h-0.1v0.1h-0.1v0.1v0.1v0.1v0.1v0.1v0.1h-0.1v0.1l-0.1-0.1v0.1h-0.1h-0.1v0.1
	h-0.1h-0.1h-0.1h-0.1l-0.1,0.1h-0.1h-0.1l-0.1,0.1h-0.1l-0.1,0.1V30v0.1v0.1h-0.1l-0.1,0.1h-0.1l-0.1,0.1h-0.1h-0.1v0.1h-0.1h-0.1
	l-0.1,0.1h-0.1v0.1h-0.1l-0.1,0.2v0.1v0.1h-0.1v0.1v0.1v0.1v0.1v0.1v0.1v0.1v0.2v0.41v0.2v0.2l0.1,0.31v0.1l0.1,0.2l0.1,0.41
	l0.1,0.1v0.1h0.1v0.1h0.1v0.1v0.1v0.1v0.1l-0.1,0.1v0.1v0.2v0.41v0.2l0.1,0.2l0.2,0.1v0.1l0.1,0.1v0.1l0.1,0.1l0.1,0.1v0.1l0.1,0.1
	l0.1,0.1l0.1,0.1h-0.1l0.1,0.1h0.1h0.1h0.1h0.1l0.1,0.1v0.1v0.1h0.1l0.1-0.1v-0.1h0.1v0.1l0.1-0.1h0.1v0.1v0.1v0.1h0.1h0.1v0.1v0.1
	v0.1h0.1v0.1h0.1v0.1h0.1h0.1v-0.1h0.1v-0.1h0.1h0.1h0.1h0.1h0.1v-0.1h0.1v-0.1h0.1v-0.1h0.1v-0.1l0.1-0.1v-0.1h0.1h0.1v0.1h0.1h0.1
	v-0.1h0.1v-0.1v-0.1h0.1h0.1h0.1h0.2l0.2-0.1l0.1-0.1v-0.1v-0.1l0.1-0.1v-0.1h0.1v0.1h0.1l0.1-0.1h0.1h0.1h0.1h0.1h0.1v0.1l-0.1,0.1
	l-0.1,0.2h-0.1l-0.1,0.1v0.1h0.1h0.1v0.1h0.1l0.1-0.1v0.1v0.1l-0.1,0.1h-0.1h-0.1v0.1h-0.1v0.1l-0.1,0.1v0.1v0.1v0.1h0.1h0.1v0.1
	h0.1h0.1h0.1v-0.1h0.1h0.1l0.1-0.1h0.1h0.1v-0.1h0.1v-0.1h0.1v-0.1h0.1v0.1h-0.1v0.1h0.1v0.1h0.1h0.1l0.1-0.1v0.1h0.1h0.1v0.1h-0.1
	v0.1h-0.1h-0.1v0.1v0.1h-0.1v0.1v0.1v0.1h0.1h0.1h0.1h0.1h0.1h0.1l0.1-0.1h0.1h0.1v-0.1h0.1h0.1v-0.1h0.1v-0.1H54h0.1v0.1v0.1H54
	v0.1v0.1v0.1h-0.1v0.1l0.1,0.1v0.1v0.1v0.1v0.1h0.1h0.1h0.1h0.1v-0.1l0.1,0.2v0.1v0.1v0.1v0.1l0.1-0.1l0.1-0.1v-0.1v-0.1h0.1v-0.1
	v-0.1h0.1v0.1v0.1v0.1h0.1h0.31h0.1h0.1h0.1h0.1v-0.1h0.1v-0.1h0.1v-0.1h0.1h0.1v-0.1h0.1h0.1v-0.1h0.1h0.1l0.1-0.1h0.1h0.1h0.1h0.1
	v-0.1h0.1h0.1l0.2,0.1h0.2h0.51l0.41,0.1h0.1l0.31,0.1h0.1h0.1v0.1h0.1h0.2h0.1h0.2h0.1H60v0.1l0.1-0.1h0.1h0.1v-0.1l0.1-0.1v-0.1
	l0.1-0.1v-0.1l0.1-0.1h0.1h0.1l0.1-0.1h0.1h0.1h0.1h0.1h0.1v-0.1h0.1l0.1-0.1h0.1l0.1-0.1l0.1-0.1v-0.1h0.1v-0.1h0.1l-0.1-0.1v-0.1
	h-0.1v-0.1v-0.1h0.1v-0.1l0.1-0.2v-0.1v-0.1h0.1v-0.1l0.1-0.1v-0.1v-0.1l0.1-0.1v-0.1v-0.1l0.1-0.1v-0.1v-0.1v-0.1l0.1-0.1v-0.1h0.1
	v-0.1l0.1-0.1l0.1-0.1v-0.1h0.1v-0.1l0.2-0.31v-0.1l0.1-0.1l0.1-0.1l0.1-0.1l0.1-0.1l0.1-0.1l0.1-0.1h0.1h0.2l0.1-0.1h0.1h0.2v0.1
	h0.1h0.2l0.1,0.1l0.2,0.1l0.1,0.1l0.2,0.1h0.2v0.1h0.1h0.1h0.1v0.1h0.1h0.1h0.1v0.1h0.1h0.1v0.1h0.1h0.1h0.1v0.1h0.1h0.1h0.1h0.1
	v0.1h0.1h0.1h0.1h0.1h0.1h0.1h0.1h0.1h0.1h0.1h0.1h0.1h0.1h0.1h0.1v-0.1h0.1h0.1v-0.1h0.1v-0.1h0.1v-0.1h0.1v-0.1l0.1-0.1v-0.1h0.1
	v-0.1v-0.1v-0.1h0.1v-0.1h0.1v-0.1h0.1v-0.1h0.1h0.1v-0.1h0.1v-0.1h0.1v-0.1h0.1v-0.1h0.1v-0.1l0.1-0.1l0.1-0.1h0.1v-0.1h0.1h0.1
	v-0.1l0.1,0.1h0.1h0.1l0.1,0.1v-0.1h0.1h0.1h0.1v-0.1h0.1v0.1h0.1h0.1h0.1h0.1v-0.1h0.1l0.1-0.1h0.1v-0.1v-0.1h0.1l0.1,0.1l0.1-0.1
	h0.1v-0.1h0.1l0.1-0.2h-0.1l0.1-0.1v-0.1h-0.1v-0.1h-0.1v-0.1h0.1v-0.1h0.1v-0.1v-0.1v-0.1h0.1v-0.1v-0.1h-0.1v-0.1h-0.1v-0.1v-0.1
	h-0.1v0.1h0.1h0.1h0.1v0.1h0.1h0.1v0.1v0.1v0.1h-0.1v0.1h0.1l0.1,0.1h0.1l0.1,0.1h0.1v0.1h0.1h0.1h0.1h0.1v-0.1h0.1l0.1,0.1v0.1
	l0.1,0.1l0.2,0.1h0.1l0.1,0.1h0.1l0.1,0.1h0.1l0.1,0.1h0.1h0.1h0.1h0.1h0.1v-0.1h0.1v-0.1l0.1-0.1v-0.1v-0.1h0.1v-0.1h0.1v-0.1h0.1
	v-0.1h0.1v-0.1h0.1v-0.1h0.1v0.1h-0.1v0.1v0.1h0.1v0.1h0.1h0.1l0.1,0.1v0.1v0.1H77h0.1l0.1,0.1h0.1h0.1h0.1h0.1v-0.1v-0.1h0.1v-0.1
	h0.1v-0.1h0.1h0.1v0.1h-0.1v0.1h-0.1v0.1l-0.1,0.1v0.1v0.1v0.1l-0.1,0.1v0.2v0.1v0.1h-0.1h-0.1h-0.1l-0.1,0.1l-0.1,0.1l-0.1,0.1v0.1
	l-0.1,0.1h-0.1v0.1v0.1v0.1l-0.1,0.1l0.1,0.1v0.1h0.1v0.1v0.1v0.1v0.1l-0.1,0.1v0.1v0.2v0.1v0.1l0.1,0.1v0.1l-0.1,0.1v0.1v0.1
	l0.1,0.1v0.1v0.1v0.1v0.1v0.1v0.1l0.1,0.1v0.1l-0.1,0.1v0.1v0.1v0.1l0.1,0.1v0.1v0.2v0.1v0.1h0.1v0.1v0.1v0.1l-0.1,0.1l-0.1,0.1
	h-0.1v0.1v0.1v0.1h-0.1v0.1v0.1h0.1v0.1v0.1h-0.1h-0.1l-0.1,0.1h-0.1v0.1h-0.1v0.1v0.1h0.1v0.1v0.1v0.1l0.1,0.1v0.1v0.1v0.1v0.1
	h-0.1v0.1v0.1l-0.1,0.1v0.1v0.1v0.1v0.1h-0.1v0.1v0.1h-0.1v0.1h-0.1V41l-0.1,0.1v0.1h-0.1h-0.1h-0.1l-0.1,0.1v0.1v0.1v0.1l0.1,0.1
	h0.1h0.1v0.1h0.1l0.1,0.1h0.1h0.1l0.1,0.1h0.1h0.1h0.1v0.1v0.1v0.1h0.1v0.1v0.2l-0.1,0.1v0.1l0.1,0.1v0.1v0.1h0.1h0.1l0.1,0.1
	l0.1,0.1l0.1,0.1h0.1l0.1,0.1h0.1h0.1v-0.1h0.1h0.1h0.1h0.1l0.1-0.1h0.1l0.1,0.1l0.1,0.1l0.1,0.1l0.1,0.1v0.1v0.1h0.1l0.1,0.1
	l0.1,0.1v0.1l0.1,0.1v0.1v0.2v0.2v0.1v0.1v0.1v0.1v0.1v0.1l-0.1,0.1v0.1v0.1v0.1v0.1l-0.1,0.1v0.1v0.1l0.1,0.1v0.31h0.1v0.1v0.1V47
	v0.1v0.1v0.1l-0.1,0.1l-0.2,0.1l-0.1,0.1h-0.1l-0.1,0.1h-0.1l-0.1,0.1h-0.1h-0.1h-0.1h-0.1l-0.1-0.1h-0.1l-0.1-0.1h-0.1v-0.1v-0.1
	v-0.1l-0.1-0.1l-0.1-0.1h-0.1l-0.1,0.1l-0.1-0.1h-0.1h-0.1V47h-0.1v0.1h-0.1v0.1l-0.1,0.1v0.1h0.1v0.1v0.1l0.1,0.1v0.1v0.1v0.1v0.1
	v0.1l-0.1,0.1l-0.1,0.1v0.1v0.1h0.1v0.1v0.1v0.1v0.1h0.1v0.1v0.1l-0.1,0.1h-0.1v0.1v0.1v0.1h-0.1v0.1h-0.1v0.1h-0.1v0.1h-0.1h-0.1
	v0.1h0.1v0.1v0.1v0.1h-0.1l-0.1,0.1h0.1v0.1l-0.1,0.1v0.1h0.1v0.1v0.1v0.1l-0.1,0.1l-0.1,0.1v0.1h-0.1h-0.1v0.1v0.1v0.1v0.1v0.1v0.1
	h-0.1v0.1h-0.1h-0.1h-0.1h-0.1v0.1l-0.1,0.1l-0.1,0.1v0.1h-0.1h-0.1h-0.1v-0.1h-0.1h-0.1v-0.1h-0.1h-0.1h-0.1l-0.1-0.1h-0.1h-0.1
	v0.1v0.1v0.2v0.1l-0.1,0.1v0.1v0.1h-0.1l-0.1,0.1v0.1h0.1v0.1h0.1v0.1l0.1,0.1l0.1,0.1v0.1l0.1,0.2v0.1v0.1v0.1v0.1h-0.1v0.1v0.1
	v0.1h-0.1h-0.1v0.1h-0.1l-0.1,0.1h-0.1h-0.1h-0.1h-0.1h-0.1h-0.1h-0.1v0.1l-0.1,0.1h-0.1h-0.1v-0.1h-0.1v0.1l-0.1,0.1l-0.1-0.1h-0.1
	v0.1l-0.1,0.1h-0.1h-0.1h-0.1h-0.1h-0.1h-0.1v0.1h-0.1h-0.1h-0.1v-0.1v-0.1v-0.1v-0.1l-0.1,0.1h-0.1h-0.1h-0.1v0.1h-0.1v0.1h-0.1
	l-0.1,0.1h-0.1v0.1l0.1-0.1h0.1v0.1v0.1h0.1v0.1v0.1h-0.1l-0.1-0.1v0.1h-0.1v0.1h-0.1l-0.1,0.1h-0.1h-0.1h-0.1h-0.1l-0.1-0.1
	l-0.1-0.1l-0.1-0.1h-0.1v-0.1v-0.1v-0.1h0.1v0.1h0.1v-0.1h-0.1v-0.1h-0.1v-0.1v-0.1h-0.1h-0.1h-0.1h-0.1h-0.1h-0.1h-0.1h-0.1v0.1
	h-0.1h-0.1v0.1h-0.1h-0.1h-0.1v0.1v0.1h-0.1h-0.1h-0.1v0.1h-0.1v0.1h-0.1h-0.1h-0.1v0.1h-0.1v0.1v0.1h-0.1h-0.1v0.1l-0.1,0.1v0.1
	v0.1v0.1v0.1v0.1v0.1v0.1v0.1v0.1v0.1h-0.1v0.1l-0.1,0.1h-0.1v0.1h-0.1v0.1h-0.1v0.1h-0.1l-0.1,0.1l-0.1,0.1h-0.1v0.1h-0.1v0.1v0.1
	l-0.1,0.1v0.1v0.1v0.1h0.1v0.1h-0.1v0.1h0.1v0.1h0.1v0.1v0.1v0.1v0.1v0.1v0.1v0.1h-0.1h-0.1l-0.1,0.1h-0.1h-0.1h-0.1h-0.1h-0.1h-0.1
	l-0.1-0.1h-0.1v-0.1h-0.1h-0.1v0.1h-0.1h-0.1h-0.1l-0.1,0.1l-0.1,0.1v0.1h-0.1h-0.1h-0.1v0.1v0.1v0.1h-0.1v0.1v0.1h-0.1l-0.1,0.1
	v0.1h0.1v0.1l0.1,0.1v0.1l0.1,0.1v0.1v0.1v0.1h-0.1v0.1l0.1,0.1v0.1l0.1,0.1v0.1v0.1h0.1v0.1v0.1h-0.1v0.1v0.1v0.1v0.1h-0.1v0.1h0.1
	l-0.1,0.1v0.1v0.1l-0.1,0.1v0.1l0.1,0.1v0.1v0.1v0.1v0.1v0.1v0.1V64v0.1v0.1v0.1v0.1v0.1v0.1v0.1v0.1h0.1l0.1,0.1h0.1h0.1v0.1v0.1
	v0.1v0.1v0.1v0.1v0.1v0.1v0.1h-0.1v0.1h-0.1l0.1,0.1l-0.1,0.1v0.1v0.1v0.1v0.1v0.2v0.1v0.1h-0.1v0.1v0.1h-0.1v0.1v0.1v0.1h-0.1h-0.1
	h-0.1h-0.1l-0.1,0.1h-0.1v0.1h-0.1h-0.1l-0.1,0.1v0.1v0.1v0.1v0.1h-0.1l-0.1,0.1v0.1h-0.1h-0.1v0.1l-0.1,0.1h-0.1h-0.1h-0.1v0.1
	h-0.1v0.1h0.1v0.1h0.1v0.1v0.1l0.1,0.1v0.1v0.1h0.1l-0.1,0.1h-0.1v0.1h-0.1h-0.1v0.1v0.1h0.1v0.1h0.1V70v0.1v0.1h-0.1h-0.1h-0.1
	h-0.1v0.1l-0.1,0.1v0.1v0.1h-0.1h-0.1v0.1v0.1l-0.1,0.1l-0.1,0.1h-0.1v0.1v0.1v0.1h0.1v0.1h0.1v0.1v0.1h-0.1v0.1h-0.1h-0.1h-0.1
	h-0.1h-0.1h-0.1h-0.1v-0.1h-0.1l-0.1-0.1H60l-0.1,0.1l-0.1,0.1h-0.1v0.1h-0.1l-0.1,0.1v0.1v0.1v0.1l-0.1,0.1l-0.1,0.1v0.1h-0.1v0.1
	l0.1,0.1v0.1l-0.1,0.1v0.1v0.1v0.1l0.1,0.1l0.1,0.1l0.1,0.1v0.1l0.1,0.1v0.1v0.1l0.1,0.1v0.1h-0.1v0.1l-0.1,0.1h-0.1v0.1h-0.1h-0.1
	h-0.1h-0.1h-0.1h-0.1l-0.1,0.1v0.1l-0.1,0.1v0.1h-0.1v0.1v0.1l-0.1,0.1v0.1h-0.1v0.1l-0.1,0.1l-0.1,0.1v0.1h-0.1v0.1l-0.1,0.1
	l-0.1,0.1l-0.1,0.1l-0.1,0.1l-0.1,0.1l-0.1,0.1h-0.1h-0.1v0.1v0.1l-0.31,0.31l-0.2,0.31l-0.1,0.31l0.2,0.2h0.31h0.2l-0.1,0.1v0.1
	h-0.1h-0.1v0.1h-0.1v0.1v0.1l0.1,0.1v0.1v0.1v0.1h-0.1h-0.1h-0.1h-0.1h-0.1h-0.1h-0.1v0.1h-0.1h-0.1v0.1h-0.1v0.1h0.1v0.1v0.2v0.1
	v0.1h-0.1v0.1v0.1h-0.1v-0.1h-0.1v-0.1h-0.1h-0.1h-0.1h-0.1l-0.1,0.1h-0.1h-0.2l-0.2,0.2l-0.2,0.2l-0.31,0.31l-0.1,0.1l-0.31-0.41
	l-0.41-0.2l-0.31-0.41l-0.31-0.1l-0.2,0.1l-0.1,0.2l-0.2,0.41v0.51h-0.31l-0.31,0.31L51.15,81v0.2l-0.41,0.31l-0.2,0.2l-0.41-0.31
	l-0.31-0.2v0.1h-0.1v0.1v0.1h0.1h0.1h0.1l0.1,0.1v0.1v0.1v0.1v0.1v0.1h-0.1h-0.1v0.1h-0.1h-0.1h-0.1v0.1v0.1h0.1v0.1v0.1l-0.1-0.1
	h-0.1h-0.1h-0.1v0.1h-0.1h-0.1v0.1v0.1v0.1v0.1h-0.1v0.1h-0.1v-0.1v-0.1h-0.1h-0.1v0.1v0.1h-0.1h-0.1v0.1h-0.1v0.1v0.1h-0.1h-0.1
	h-0.1v0.1l-0.1,0.1h0.1h0.1v0.1h-0.1v0.1l0.1,0.1v0.1v0.1h-0.1v0.1v0.1h-0.1h-0.1v0.1v0.1h-0.1v0.1v0.1h-0.1v0.1v0.1h-0.1l-0.1,0.1
	v0.1v0.1l-0.1,0.1v0.1h0.1v0.1h-0.1v0.1h0.1v0.1h-0.1h-0.1v0.1v0.1v0.1h-0.1v0.1h-0.1v0.1h-0.1h-0.1h-0.1v0.1h-0.1v0.1v0.1v0.1v0.1
	h0.1v0.1V87h-0.1v0.1l-0.1,0.1h0.1h0.1v0.1h-0.1v0.1h0.1h0.1v0.1v0.1v0.1l-0.1,0.1h0.1h0.1v0.1v0.1h-0.1v0.1l0.1,0.1h0.1v0.1
	l-0.1,0.1h0.1v-0.1h0.1l0.1-0.1v0.1h0.1v0.1h0.1v0.1h-0.1l0.1,0.1v-0.1h0.1v0.1h0.1l-0.1,0.1v0.1h0.1h0.1h0.1h0.1v0.1v0.1v0.1h0.1
	v0.1h0.1v-0.1l0.1,0.1h0.1v0.1h0.1v-0.1h0.1v-0.1h0.1v0.1h0.1v0.1l0.1-0.1h0.1v0.1v0.1h0.1v0.1h-0.1v0.1h-0.1v0.1h0.1h0.1v0.1
	l0.1-0.1v0.1v0.1l0.1,0.1h0.1v0.1h-0.1v0.1v0.1v0.1h0.1v0.1h-0.1v0.1h0.1v0.1v0.1v0.1v0.1v0.1v0.1v0.1l0.1-0.1h0.1h0.1h0.1v0.1v0.1
	v0.1h0.1v0.1l-0.1,0.1h-0.1l-0.1,0.1l-0.1,0.1h-0.1l-0.1,0.1h-0.1l-0.1,0.1h-0.1l-0.1,0.1l-0.1-0.1h-0.1h-0.1l-0.1-0.1l-0.1,0.1
	h-0.1l-0.1-0.1h-0.2l-0.1-0.1l-0.1-0.1h-0.1l-0.1-0.1h-0.1l-0.1-0.1h-0.1l-0.1-0.1h-0.2l-0.1-0.1l-0.1-0.1h-0.1l-0.1-0.1l-0.2-0.1
	l-0.1-0.1h-0.1l-0.2-0.1l-0.1-0.1v-0.1h-0.2v-0.1l-0.1-0.1l-0.1-0.1h-0.1l-0.1-0.1v-0.1l-0.1-0.1l-0.1-0.1h-0.1h-0.2l-0.1-0.1h-0.2
	h-0.2l-0.1-0.1h-0.1h-0.1h-0.1h-0.1l-0.1-0.1h-0.1h-0.1l-0.2-0.1h-0.1l-0.1-0.1h-0.1h-0.1l-0.1-0.1h-0.1l-0.1-0.1h-0.1l-0.1-0.1
	h-0.1l-0.1-0.1h-0.1l-0.1-0.1l-0.2-0.1h-0.1l-0.1-0.1h-0.1l-0.1-0.1h-0.1l-0.1-0.1h-0.1l-0.2-0.1h-0.1l-0.1-0.1h-0.1h-0.1l-0.1-0.1
	h-0.1h-0.2h-0.1h-0.2h-0.2h-0.1h-0.2h-0.1l-0.1,0.1h-0.1h-0.1h-0.2h-0.1h-0.1h-0.1v0.1h-0.1h-0.1h-0.2h-0.1h-0.1h-0.1h-0.1h-0.1
	h-0.1h-0.1H37v0.1h-0.1h-0.2h-0.1l-0.1,0.1h-0.1h-0.1h-0.2h-0.1h-0.2l-0.31-0.1h-0.1h-0.1l-0.2-0.1h-0.1l-0.1-0.1l-0.1-0.1h-0.1
	h-0.1v-0.1h-0.2l-0.1-0.1l-0.1-0.1l-0.1-0.1h-0.1l-0.1-0.1l-0.1-0.1l-0.2-0.1v-0.1l-0.1-0.1h-0.1l-0.1-0.1l-0.1-0.1l-0.1-0.1
	l-0.1-0.1h-0.1l-0.1-0.1h-0.1l-0.1-0.1v-0.1h-0.1v-0.1l-0.1-0.1l-0.1-0.1l-0.2-0.1v-0.1h-0.1l-0.1-0.1l-0.1-0.1v-0.1h-0.1l-0.1-0.1
	l-0.1-0.1h-0.1v-0.1l-0.1-0.1h-0.1l-0.1-0.1l-0.2-0.1h-0.1l-0.1-0.1h-0.1l-0.1-0.1h-0.1l-0.1-0.1h-0.2h-0.1l-0.1-0.1h-0.1h-0.1
	l-0.1-0.2v-0.1l-0.1-0.1v-0.1v-0.1h-0.1v-0.1h-0.1v-0.2v-0.1v-0.1v-0.1h0.1v-0.1v-0.1v-0.1h0.1v-0.1v-0.1h-0.1v-0.1l0.1-0.1l0.1-0.1
	v-0.1l0.1-0.1v-0.1h-0.1v-0.1v-0.1h0.1v-0.1h0.1v-0.1v-0.1v-0.1v-0.1h-0.1v-0.2v-0.1v-0.1h0.1v-0.1h0.1v-0.1v-0.1V81v-0.1v-0.1h-0.1
	v-0.1h-0.1v-0.1v-0.1l-0.1-0.1v-0.1v-0.1l-0.1-0.1v-0.1v-0.2v-0.1v-0.31v-0.1v-0.1v-0.1v-0.1h-0.1v-0.2v-0.1v-0.1v-0.1l-0.1-0.1
	h-0.1v-0.1h-0.1l-0.1-0.1v-0.1l-0.1-0.1v-0.1v-0.1v-0.1v-0.1v-0.1v-0.1l0.1-0.1v-0.1l0.1-0.1v-0.1v-0.1l-0.1-0.1v-0.1h-0.1v-0.1
	l-0.1-0.1h-0.1h-0.1h-0.1h-0.1v-0.1v-0.1v-0.1h-0.1v-0.1v-0.1h-0.1v-0.1h-0.1l-0.1-0.1v-0.1h-0.1v-0.1h-0.1l-0.1-0.1v-0.1v-0.1v-0.1
	l-0.1-0.1v-0.1l-0.1-0.1v-0.1h-0.1l-0.1-0.1h-0.1l-0.1-0.1h-0.1v-0.1l-0.1-0.1l-0.1-0.1h-0.1v-0.1v-0.1h-0.1v-0.1h-0.1v-0.1v-0.1
	h-0.1v-0.1v-0.1h-0.1v-0.1h-0.2h-0.1l-0.1-0.1h-0.1h-0.1v-0.1h-0.1v-0.1h-0.1v-0.1h-0.1h-0.1h-0.1h-0.1h-0.1v0.1h-0.1h-0.1v-0.1
	h-0.1l-0.1-0.1v-0.1l-0.1-0.1h-0.1v-0.1v-0.1l-0.1-0.1v-0.1l-0.1-0.1v-0.1l-0.1-0.1v-0.1l-0.1-0.1v-0.1l-0.1-0.1v-0.1l-0.1-0.2h-0.1
	h-0.1h-0.1h-0.1h-0.1h-0.1h-0.2h-0.1h-0.1h-0.1h-0.1h-0.1h-0.1h-0.1h-0.1h-0.1h-0.1h-0.1h-0.1h-0.1h-0.1h-0.1h-0.1h-0.1h-0.1v0.1
	v0.2v0.1v0.1v0.1v0.1h-0.1l-0.1,0.1h-0.1l-0.1-0.1l-0.1-0.1h-0.1l-0.2-0.1l-0.1-0.1v-0.1h-0.1v-0.1h-0.1v-0.1h-0.1v-0.1h-0.1v-0.1
	h-0.1h-0.1v-0.1h-0.1h-0.1l-0.2-0.2l-0.1-0.1v-0.1h-0.1v-0.1v-0.1v-0.1h-0.1v-0.1h-0.1h-0.1h-0.1h-0.1h-0.1h-0.1l-0.1-0.1h-0.1h-0.1
	l-0.1,0.2v0.1l-0.1,0.1v0.1l-0.1,0.1l-0.1,0.1l-0.1,0.1l-0.1,0.1v0.31l-0.1,0.1v0.1l-0.1,0.1v0.1l-0.1,0.1l-0.1,0.2v0.1l-0.1,0.1
	h-0.1v0.2l-0.1,0.2l-0.1,0.1h-0.1v-0.1l-0.1-0.1h-0.1h-0.1h-0.1h-0.1h-0.1v0.1h-0.1v0.1h-0.1l-0.1-0.1v-0.1h-0.1l-0.1-0.1h-0.1
	l-0.1-0.1v-0.2v-0.1l-0.1-0.1l-0.1-0.1l-0.2-0.2l-0.1-0.1l-0.1-0.1l-0.1-0.1v-0.1h-0.1v-0.1h-0.1h-0.1l-0.1-0.1h-0.1h-0.1v-0.1h-0.1
	v-0.1h-0.1h-0.1v0.1h-0.1l-0.1,0.1v0.1h-0.1h-0.1v0.1h-0.1l-0.1-0.1h-0.1l-0.1-0.1h-0.1v0.1h-0.1v-0.1h-0.1l-0.1-0.1h-0.1v0.1v0.1
	h-0.1v0.1h-0.1v0.1v0.1v0.1h-0.1l-0.1,0.1v0.1h-0.1v0.1h-0.1l-0.1,0.1h-0.1h-0.1v-0.1h-0.1h-0.1l-0.1,0.1l-0.1,0.1h-0.1v0.1h-0.1
	v0.1h-0.1v0.1l-0.1-0.1h-0.1h-0.1h-0.1h-0.1h-0.1v0.1h-0.1v0.1l0.1,0.1v0.1h-0.1v0.1h-0.1v0.1h-0.1v0.1l-0.1-0.1v-0.1l-0.1-0.1h-0.1
	h-0.1H8.9H8.8H8.7H8.6l-0.1,0.1l-0.1,0.1l-0.1-0.1h-0.1l-0.1-0.1l-0.2-0.1l-0.1-0.1h-0.1h-0.1l-0.1-0.1h-0.1h-0.1v-0.1h-0.1h-0.1
	v-0.1h-0.1v-0.1l-0.1-0.1v-0.1h-0.1v-0.1h-0.1v-0.1h-0.1h-0.1v-0.1v-0.1h-0.1v-0.1h-0.1v-0.1h-0.1h-0.1v-0.1h-0.1h-0.1h-0.1v-0.1
	l-0.1-0.1h-0.1h-0.1v-0.1v-0.1h0.1v-0.1v-0.1l0.1-0.1v-0.1h0.1l0.1-0.1l0.1-0.1h0.1h0.1h0.1h0.1h0.1l0.1-0.1h0.2h0.1v-0.1l0.1-0.1
	v-0.1v-0.1h0.1h0.1h0.1h0.1v-0.1h0.1v-0.1v-0.1l0.1-0.1h-0.1v-0.1h0.1v-0.1h0.1l0.1-0.1h0.1v-0.1h0.1v-0.1v-0.1l0.1-0.1v-0.1v-0.1
	h0.1h0.1h0.1h0.1v-0.1v-0.1h0.1v-0.1l0.1-0.1h0.1v-0.1v-0.1h0.1v-0.1v-0.1v-0.1v-0.1v-0.1v-0.1l-0.1-0.1v-0.1v-0.1v-0.1v-0.1v-0.1
	v-0.2v-0.1v-0.1v-0.1h0.1v-0.1v-0.1v-0.2v-0.1l0.1-0.1H8.9v-0.2v-0.1v-0.1h0.1v-0.1v-0.1v-0.1v-0.1v-0.2v-0.1v-0.1V64l0.1-0.1
	l0.1-0.1v-0.1v-0.1h-0.1v-0.1v-0.1v-0.2v-0.1v-0.1l-0.1-0.1h0.1v-0.1h-0.1l-0.1-0.1l-0.1-0.1H8.7H8.6v-0.1H8.5H8.4v-0.1l-0.1-0.1
	h-0.1h-0.1l-0.1,0.1h-0.1h-0.2h-0.1v-0.1h-0.1l-0.1-0.1h-0.1h-0.1h-0.1h-0.1v-0.1h-0.1l-0.1-0.1h-0.1v-0.1h-0.1l-0.1-0.1v-0.1v-0.1
	v-0.1l0.1-0.1v-0.1h-0.1v-0.2l-0.1-0.1v-0.1h-0.1h-0.1v-0.1l-0.1-0.1l-0.1-0.2l-0.1-0.1l-0.1-0.1v-0.1h-0.1h-0.1h-0.1h-0.1v-0.1
	h-0.1l-0.1-0.1h0.1v-0.1v-0.1h0.1v-0.1v-0.1v-0.1v-0.1h0.1v-0.1h-0.1v-0.1h-0.1h-0.1h-0.1h-0.1l-0.1-0.1h-0.1h-0.1v0.1h-0.1
	l-0.1-0.1h-0.1h-0.1h-0.1h-0.1v-0.1v-0.1h-0.1v-0.1v-0.1h-0.1v-0.1v-0.1h-0.1v-0.1v-0.1v-0.1v-0.1l-0.1-0.1v-0.1h-0.1h-0.1h-0.1
	h-0.1H3.1l-0.2-0.1H2.8l-0.1-0.1h-0.1h-0.1h-0.1l-0.1-0.1h-0.1l-0.1-0.1h-0.1h-0.1l-0.1-0.1h-0.1h-0.1h-0.1h-0.1h-0.1h-0.2h-0.1
	h-0.1h-0.1h-0.1l-0.1-0.1v-0.1l-0.1-0.1h-0.1h-0.1h-0.1h-0.1v-0.1v-0.1l0.1-0.1v-0.1v-0.1l0.1-0.1v-0.1l0.1-0.1l0.1-0.1v-0.1
	l0.1-0.1v-0.1v-0.2v-0.1v-0.1v-0.1v-0.1v-0.1v-0.1h0.1v-0.1v-0.1v-0.1v-0.1h-0.1l-0.1-0.1l-0.1-0.1h-0.1h-0.1l-0.1-0.1v-0.1h-0.1
	v-0.1h-0.1l0.1-0.1l0.1-0.1h0.1v-0.1h0.1v-0.1v-0.1v-0.1v-0.1v-0.1v-0.1v-0.1l0.1-0.1v-0.1v-0.1h0.1v0.1l0.1-0.1h0.1h0.1l0.1-0.1
	h0.1h0.1l0.1-0.1h0.1l0.1-0.1h0.1v-0.1h0.1h0.1l0.1-0.1l0.1-0.1h0.1h0.1h0.1h0.1v-0.1h0.1h0.1l0.1-0.1l0.1-0.1v-0.1h0.1h0.1v-0.1
	l0.1,0.1h0.1l0.1,0.1h0.1h0.1h0.1h0.1v-0.1v-0.1v-0.1v-0.1h0.1v-0.1l0.1-0.1v-0.1h0.1v-0.1v-0.1h-0.1h-0.1l-0.1-0.1l-0.1-0.1
	l-0.1-0.1v-0.1v-0.1h-0.1h-0.1v-0.1H3.1v-0.1v-0.1H3v-0.1H2.9v-0.1H2.8H2.7h-0.1v-0.1v-0.1v-0.1v-0.1h-0.1v-0.1l-0.1-0.1v-0.1v-0.1
	v-0.1v-0.1v-0.1v-0.1h-0.1h-0.1h-0.1v-0.1v-0.1l-0.1-0.1l-0.1-0.1l-0.1-0.1v-0.1v-0.1l-0.1-0.1l0.1-0.1v-0.1h-0.1l0.1-0.1v-0.1v-0.1
	l-0.1-0.1v-0.1V47v-0.1h0.1h0.1v-0.1h0.1v-0.1h0.1l0.1-0.1h0.1h0.1l0.1-0.1l0.1-0.1l0.1-0.1v-0.1h0.1v-0.1l0.1-0.1v-0.1v-0.1H2.8
	v-0.1H2.7l0.1-0.1v-0.1v-0.1v-0.1l-0.1-0.2v-0.1v-0.1v-0.1v-0.1v-0.1v-0.1v-0.1h-0.1v-0.1h-0.1v-0.1h-0.1v-0.1v-0.1h0.1v-0.1h-0.1
	v-0.1h-0.1v-0.1h-0.1v-0.1l-0.1-0.1v-0.1h0.1v-0.1h0.1v-0.1l0.1-0.1v-0.1v-0.1v-0.1l-0.1-0.1v-0.1v-0.1v-0.1l-0.1-0.1v-0.1v-0.1
	v-0.1h0.1h0.1h0.1h0.1h0.1h0.1v-0.1h0.1l0.1-0.1h0.1h0.1l0.1-0.1h0.1v-0.1v-0.1v-0.1l-0.1-0.1h-0.1v-0.1V41H3.1H3v-0.1v-0.1v-0.1
	l-0.1-0.1v-0.1H3v-0.1v-0.1v-0.1v-0.1v-0.1v-0.1H2.9v-0.1v-0.1H2.8v-0.1h0.1v-0.1l0.1-0.1l0.1-0.1h0.1v-0.1l-0.1-0.1v-0.1v-0.1v-0.1
	h0.1v-0.1v-0.1l0.1-0.1v-0.1v-0.1v-0.1v-0.1h0.1v-0.1h0.1h0.1v-0.1h0.1v-0.1h0.1v-0.1l0.1-0.1h0.1l-0.1-0.1v-0.1h0.1l0.2-0.1h0.1
	v-0.1v-0.1v-0.1h0.1h0.1h0.1v-0.1h0.1v-0.1l0.1-0.1v-0.1v-0.1h0.1v-0.1v-0.1v-0.1v-0.1v-0.1l0.1-0.1v-0.1l0.1-0.1l-0.1-0.1v-0.1
	v-0.1h-0.1v-0.1l-0.1-0.1v-0.1l0.1-0.1v-0.1v-0.1l-0.1-0.2v-0.1v-0.1v-0.1v-0.1h-0.1v-0.1v-0.1v-0.1v-0.1l0.1-0.1v-0.1l0.1-0.1v-0.1
	l-0.1-0.1v-0.1h-0.1h-0.1h-0.1h-0.1v-0.1h-0.1v-0.1h-0.1v-0.1h-0.1v-0.1h-0.1h-0.1v-0.1h-0.1l-0.1-0.1h-0.1v-0.1v-0.1v-0.1v-0.1
	l0.1-0.1l0.1-0.1v-0.1h0.1h0.1v-0.1v-0.1v-0.1v-0.1h0.1v-0.1h0.1v-0.1h0.1l0.1-0.1v-0.1h0.1v-0.1h0.1l0.1-0.1h0.1v-0.1h0.1v-0.1h0.1
	v-0.1v-0.1l0.1-0.1h0.1v-0.1h0.1h0.1h0.1V30l0.1-0.1v-0.1v-0.1h0.1v-0.1h0.1l0.1-0.1v-0.1h0.1h0.1h0.1h0.1v0.1h0.1h0.1h0.1h0.1v-0.1
	h0.1h0.1v0.1h0.1h0.1h0.1v-0.1l0.1-0.1h0.1l0.1-0.1v-0.1h0.1h0.1h0.1h0.1v-0.1h0.1v0.1h0.1l0.1-0.1h0.1l0.1,0.1l0.1,0.1v0.1v0.1H8.5
	l0.1,0.1v0.1v0.1l0.1,0.1l0.1,0.1h0.1V30l0.1,0.1h0.1l0.1,0.1h0.1l0.1,0.1h0.1l0.1,0.1h0.1l0.1,0.1h0.1v-0.1h0.1h0.1l0.1-0.1v-0.1
	h0.1l0.1-0.1h0.1V30h0.1l0.1-0.1h0.1v-0.1h0.1v-0.1h0.1h0.1v-0.1h0.1h0.1v0.1h0.1v0.1l0.1,0.1h0.1h0.1l0.1,0.1h0.1l0.1,0.1h0.1h0.1
	h0.1l0.1,0.1h0.1h0.1v-0.1h0.1V30h0.1v-0.1v-0.1h0.1v-0.1h0.1v-0.1h0.1v-0.1h0.1v-0.1v-0.1v-0.1l0.1-0.1v-0.1v-0.1h-0.1v-0.1
	l0.1-0.1v-0.1v-0.1h0.1v-0.1v-0.1l-0.1-0.1v-0.1v-0.1v-0.1l0.1-0.1h-0.1h-0.1h-0.1h-0.1v0.1h-0.1h-0.1h-0.1h-0.1l-0.1,0.1v-0.1h-0.1
	h-0.1h-0.1h-0.1l-0.1-0.1h-0.1v-0.1h0.1v-0.1h0.1v-0.1h0.1v-0.1l0.1-0.1v-0.1v-0.1v-0.1v-0.1v-0.1l-0.1-0.1h-0.1l-0.1-0.2v-0.1
	l-0.1-0.1v-0.1v-0.1v-0.1v-0.2v-0.1v-0.1v-0.1h0.1v-0.1h0.1v0.1h0.1l0.1,0.1v0.1h0.1v0.1h0.1h0.1v0.1l0.1,0.1h0.1v-0.1h0.1h0.1
	l0.1-0.1l0.1-0.1h0.1v-0.1h0.1v-0.1v-0.1h0.1v-0.1h0.1l0.1-0.1l0.1-0.1h0.1v-0.1h-0.1v-0.1l-0.1-0.1l-0.1-0.1h-0.1l-0.1-0.1v-0.1
	v-0.1h-0.1l-0.1-0.1v0.1h-0.1v-0.1v-0.1h-0.1V24v-0.1v-0.1v-0.1v-0.1h-0.1v-0.1h0.1v-0.1h0.1v-0.1v-0.1h0.1v-0.1l0.1,0.1h0.1h0.1
	h0.1h0.1l0.1-0.1l0.1-0.1h0.1h0.1h0.1h0.1h0.1h0.1h0.1l0.1-0.1v-0.1l0.1-0.1v-0.1h0.1v-0.1h0.1v-0.1l0.1-0.1v-0.1v-0.1h0.1v-0.1h0.1
	h0.1h0.1h0.1l0.1-0.1h0.1v0.1l0.1-0.1v-0.1v-0.1v-0.1v-0.1h0.1v-0.1h-0.1v-0.1l0.1-0.1h0.1v-0.1h0.1h0.1v-0.1v-0.1l0.1-0.1v-0.1
	v-0.1v-0.1h0.1v-0.1h0.1v-0.1h0.1h0.1h0.1v-0.1l0.1-0.1v-0.1l0.1-0.1l0.1-0.1l0.1-0.1l0.1-0.1v-0.1l0.1-0.1h0.1v-0.2l0.1-0.1h0.1
	h0.1l0.1-0.1h0.1h0.1h0.1h0.1h0.1l0.1,0.1v-0.1l0.1-0.1v-0.1l0.1-0.1l0.1-0.1v-0.1h-0.1v-0.1v-0.1h-0.1v-0.1h-0.1v-0.1l-0.1-0.1
	v-0.1h-0.1v-0.1h-0.1v-0.1v-0.1v-0.1v-0.1v-0.1l0.1-0.1v-0.1h-0.1v-0.1v-0.1v-0.1h-0.1v-0.1h-0.1l-0.1,0.1h-0.1h-0.1v-0.1h-0.1h-0.1
	v-0.1h-0.1h-0.1v-0.1h-0.1l-0.1-0.1v-0.1h-0.1v-0.1l0.1-0.1v-0.1l0.1-0.1h-0.1v-0.1v-0.1v-0.1v-0.1h-0.1v-0.1h0.1v-0.1h0.1l0.1-0.1
	h0.1v-0.1l0.1,0.1h0.1v-0.1v-0.1v-0.1h0.1v-0.1l0.1-0.1v-0.1h0.1h0.1v-0.1v-0.1v-0.1h0.1h0.1v-0.1h0.1v-0.1v-0.1h0.1v-0.1h0.1
	l0.1-0.1h0.1v-0.1v-0.1v-0.1v-0.1h0.1v-0.1v-0.1v-0.1v-0.1h-0.1v-0.1h-0.1v-0.1v-0.1v-0.1h0.1v-0.1v-0.1h0.1v-0.1h-0.1v-0.1v-0.1
	h0.1v-0.1h-0.1v-0.1h0.1v-0.31v-0.1v-0.1v-0.1l-0.1-0.1v-0.1l0.1-0.1v-0.1h-0.1v-0.1l0.1-0.1v-0.1h-0.1l0.1-0.1v-0.1v-0.1l0.1-0.1
	h0.1h0.1h0.1h0.1h0.1v-0.1h0.1v-0.1h0.1H20h0.1h0.1l0.1,0.1l-0.1,0.1v0.1l0.1,0.1v0.1h0.1h0.1v-0.1h0.1v-0.1h0.1v-0.1h0.1h0.1h0.1
	h0.1h0.1h0.1v-0.1h0.1v-0.1h0.1l0.1-0.1l0.1-0.1h0.1v-0.1h0.1v-0.1v-0.1h0.1v-0.1h0.1h0.1h0.1v-0.1h0.1h0.1h0.1h0.1v0.1h0.1l0.1,0.1
	h0.1v-0.1v-0.1h0.1v-0.1h0.1v0.1h0.1h0.1h0.1h0.1l0.2-0.2h0.1v-0.1h0.1h0.1v-0.1v-0.1h0.1h0.1v-0.1h0.1v-0.1h0.1v-0.1v-0.1h0.1v-0.1
	l-0.1-0.1h0.1v-0.1v-0.1l0.1-0.1h0.1h0.1l0.1-0.1h0.1h0.1l0.1-0.1l0.1,0.1h0.1h0.1v0.1h0.1v0.1h0.1l0.1,0.1v-0.1v-0.1h0.1v-0.1h0.1
	v-0.1l0.1-0.1l0.1-0.1h0.1h0.1v0.1h0.1v0.1h0.1v-0.1H26.92L26.92,7.31z M71.71,19.42h0.1v0.1h-0.1l0.1,0.1v0.1h-0.1v0.1v0.1v0.1h0.1
	v0.1h-0.1v0.1h0.1h0.1h0.1v0.1h0.1l0.1,0.1l0.1,0.1h0.1l0.1,0.1h0.1h0.1h0.1h0.1h0.1h0.1l0.1-0.1h0.1h0.1h0.1v-0.1h0.1v-0.1h0.1h0.1
	h0.1v-0.1v-0.1h-0.1v-0.1v-0.1v-0.1l0.1-0.1h0.1v0.1h0.1v-0.1v-0.1v-0.1h-0.1h-0.1v-0.1h0.1h0.1v-0.1h0.1h0.1v-0.1h-0.1h-0.1v-0.1
	v-0.1h0.1l-0.1-0.1v-0.1l-0.1-0.1h0.1v-0.1v-0.1h0.1v-0.1h0.1v-0.1h-0.1v-0.1h-0.1v0.1h-0.1h-0.1v-0.1h-0.1h-0.1h-0.1h-0.1h-0.1
	v-0.1h-0.1v-0.1h-0.1h-0.1v0.1h-0.1h-0.1v0.1h0.1v0.1h0.1v0.1h-0.1h-0.1v-0.1h-0.1v0.1v0.1h0.1v0.1h-0.1v0.1h-0.1h-0.1h-0.1h-0.1
	v0.1h-0.1v0.1h-0.1h-0.1v-0.1h-0.1v0.1v0.1h0.1v0.1h0.1v0.1h-0.1v0.1h-0.1v0.1h-0.1h-0.1v-0.1h-0.1V19.42L71.71,19.42z M74.15,31.23
	h0.1v-0.1v-0.1h-0.1v0.1V31.23L74.15,31.23z M89.92,8.53l0.1-0.1h0.1l0.1,0.1h0.1l0.1,0.1v0.1v0.1h-0.1h-0.1h-0.1l-0.1,0.1h-0.1
	v-0.1v-0.1v-0.1V8.53L89.92,8.53z M72.42,9.14v0.1v0.1h-0.1v0.1h-0.1v0.1v0.1h0.1v0.1h0.1h0.1h0.1v-0.1h0.1v-0.1v-0.1h-0.1v-0.1
	h-0.1v-0.1v-0.1l0.1-0.1h-0.1h-0.1h-0.1v0.1H72.42L72.42,9.14z M92.98,3.13h-0.1h-0.1h-0.1h-0.1l-0.1,0.1v0.1h-0.1v0.1l-0.1-0.1v0.1
	v0.1l-0.1,0.1v0.1h-0.1l0.1,0.1l-0.1,0.1l-0.1,0.1h-0.1h-0.1l-0.1-0.1v-0.1h-0.1l-0.1-0.1h-0.1v-0.1v-0.1h-0.1v-0.1l-0.1-0.1v-0.1
	v-0.1h-0.1h-0.1v0.1v0.1h-0.1h-0.1h-0.1h-0.1h-0.1v-0.1v-0.1h-0.1l-0.1,0.1v0.1h0.1v0.1v0.1l-0.1,0.1v0.1h-0.1l-0.1,0.1h-0.1v-0.1
	h-0.1v0.1l0.1,0.1h-0.1v0.1v0.1h-0.1h-0.1v0.1h-0.1v0.1v0.1v0.1v0.1v0.1h-0.1l-0.1,0.1v0.1l-0.1,0.1v0.1v0.2v0.1l-0.1,0.1l-0.1,0.2
	v0.1v0.1h0.1h0.1h0.1v0.1l0.1,0.1v0.1l0.1,0.1v0.2h0.1v0.1v0.1l0.1,0.1V7l0.1,0.1V7h0.1v0.1h0.1v0.1v0.1v0.1v0.1v0.1v0.1v0.1v0.1
	v0.1v0.1l0.1,0.1l0.1,0.1l0.1,0.1h0.2v0.1h0.1v0.1h0.1v0.1h-0.1v0.1v0.1v0.1h0.1h0.1l0.1,0.1h0.1h0.1v-0.1h0.1h0.1l0.1-0.1h0.1v0.1
	l0.1,0.1l0.31,0.1h0.1h0.1l0.2,0.1v-0.1h0.2l0.1,0.1l0.1,0.1h0.2l0.1,0.1l0.1,0.1h0.2l0.2,0.1l0.2,0.1h0.1l0.2,0.1l0.2,0.1v0.1h0.1
	h0.1l0.1,0.1h0.2l0.1,0.1l0.1,0.1l0.1,0.1v0.1h0.1v0.1h0.1v0.1h0.1l0.1,0.1l0.1,0.1v0.1h0.1h0.1h0.1h0.1h0.1v-0.1h-0.1h-0.1v-0.1
	h-0.1v-0.1h-0.1v-0.1h-0.1v-0.1v-0.1v-0.1h0.1v-0.1h0.1l0.1-0.1h0.1h0.1v-0.1v-0.1h-0.1v-0.1h-0.1v-0.1v-0.1v-0.1h0.1v-0.1h0.1
	l-0.1-0.1h0.1v-0.1l0.1,0.1h0.1v-0.1h-0.1l-0.1-0.1h0.1v-0.1v-0.1l-0.1-0.1v-0.1v-0.1h-0.1v-0.1v-0.1v-0.1l-0.1-0.1h0.1v-0.1h0.1
	h0.1v-0.1l-0.1-0.1h-0.1v-0.1v-0.1l0.1-0.1v-0.1v-0.1v-0.1h0.1v-0.1v-0.1h0.1V7.1V7V6.9h-0.1V6.8V6.7v-0.1v-0.1h-0.1v-0.1h-0.1h-0.1
	l0.1-0.1h-0.1v-0.1v-0.1h0.1v-0.1h-0.1v-0.1v-0.1h-0.1v-0.1v-0.1h-0.1v-0.1h0.1v-0.1v-0.1h-0.1v-0.1h-0.1h-0.1v-0.1v-0.1l-0.1-0.1
	h-0.1l-0.1,0.1v0.1h-0.1h-0.1v-0.1h-0.1v-0.1v-0.1v-0.1l-0.1-0.1v-0.1v-0.1l0.1-0.1h0.1h0.1v-0.1l0.1,0.1v-0.1v-0.1h-0.1h-0.1v-0.1
	h-0.1h-0.1v-0.1h-0.1v-0.1h-0.1h-0.1h-0.1h-0.1l-0.1-0.1l-0.1,0.1H94v-0.1h-0.1h-0.1v0.1h-0.1h-0.1v-0.1h-0.1v-0.1v-0.1v-0.1
	l-0.1-0.1v-0.1h-0.1h-0.1v-0.1h-0.1h-0.1V3.13L92.98,3.13z M72.83,11.38h-0.1v0.1v0.1v0.1v0.1v0.1h-0.1v0.1v0.1h0.1h0.1v-0.1v-0.1
	h0.1v-0.1v-0.1v-0.1h0.1v-0.1h0.1l0.1-0.1v-0.1h-0.1v0.1h-0.1h-0.1v-0.1h-0.1V11.38L72.83,11.38z M71.71,11.79v0.1h-0.1v0.1v0.1h0.1
	v0.1h0.1h0.1v0.1v0.1h0.1l0.1-0.1h0.1v0.1h0.1h0.1h0.1v-0.1h-0.1h-0.1v-0.1l-0.1-0.1h-0.1v0.1h-0.1v-0.1v-0.1v-0.1h0.1l-0.1-0.1
	h-0.1v-0.1v-0.1h-0.1v0.1h-0.1V11.79L71.71,11.79z M72.01,12.8h-0.1h-0.1v0.1h-0.1v0.1v0.1h0.1h0.1v0.1h0.1v0.1v0.1v0.1v0.1h0.1v0.1
	v0.1h-0.1v0.1v0.1v0.1v0.1v0.1l0.1,0.1v0.1h0.1v0.1l0.1,0.1h0.1v0.1h0.1h0.1v-0.1h0.1v-0.1h0.1v-0.1v-0.1h0.1v-0.1h0.1v-0.1h-0.1
	v-0.1v-0.1v-0.1v-0.1h-0.1v-0.1v-0.1v-0.1v-0.1v-0.1h-0.1h-0.1h-0.1h-0.1v-0.1h-0.1v-0.1h-0.1v-0.1v-0.1v-0.1h-0.1v-0.1h-0.1V12.8
	L72.01,12.8z M74.56,14.02v0.1v0.1l-0.1,0.1v0.1v0.1v0.1h0.1v0.1v0.1v0.1l0.1,0.1l0.1-0.1h-0.1v-0.1v-0.1v-0.1v-0.1h0.1v-0.1v-0.1
	v-0.1h-0.1l0.1-0.1v-0.1h-0.1v-0.1h-0.1V14.02L74.56,14.02z M71.71,18.4v0.1h0.1h0.1v-0.1l-0.1-0.1h0.1v-0.1v-0.1v-0.1v-0.1v-0.1
	v-0.1h-0.1v0.1h-0.1v0.1v0.1v0.1v0.1h-0.1v0.1h-0.1v0.1h0.1H71.71L71.71,18.4z M74.05,19.01h-0.1v0.1h0.1V19.01L74.05,19.01z
	 M72.32,22.78h-0.1v-0.1h-0.1v0.1v0.1h-0.1v0.1v0.1h0.1v0.1l0.1,0.1h0.1h0.1h0.1v0.1h0.1h0.1v-0.1h0.1v-0.1v-0.1v-0.1h-0.1h-0.1
	h-0.1v-0.1v-0.1h-0.1v-0.1h-0.1V22.78L72.32,22.78z M72.11,25.22h-0.1v0.1v0.1l0.1,0.1h0.1h0.1h0.1h0.1v-0.1v-0.1v-0.1h-0.1v-0.1
	l-0.1-0.1h-0.1v0.1h-0.1V25.22L72.11,25.22z M95.52,15.76h-0.1v-0.1h0.1v-0.1h0.1v0.1v0.1h0.1h0.1v0.1h0.1v0.1h0.1v-0.1h0.1h0.1h0.1
	v0.1v0.1h-0.1v0.1h0.1v0.1v0.1v0.1v0.1v0.1v0.1h0.1h0.1h0.1h0.1v0.1h0.1v0.1v0.1v0.1h-0.1v0.1v0.1v0.1v0.1h-0.1v-0.1l-0.1,0.1h-0.1
	v0.1l-0.1,0.1h-0.1v0.1h-0.1v0.1v0.1h-0.1v0.1v0.1v0.1v0.1v0.1h0.1l-0.1,0.1h-0.1h-0.1v0.1h-0.1v0.1v0.1h-0.1v0.1h-0.1v0.1h-0.1v0.1
	h-0.1h-0.1v0.1v0.1h-0.1v0.1v0.1l-0.1,0.1v0.1v0.1h-0.1v0.1v0.1v0.1v0.1v0.1v0.1v0.1v0.1v0.1v0.1h0.1h0.1v0.1v0.1h0.1v0.1v0.1v0.1
	v0.1h0.1l0.1,0.1l0.1,0.1v0.1v0.1v0.1v0.1v0.1h0.1h0.1v0.1v0.1v0.1h0.1h0.1v0.1v0.1h-0.1v0.1h-0.1h-0.1v-0.1h-0.1h-0.1v-0.1h-0.1
	h-0.1h-0.1h-0.1h-0.1h-0.1h-0.1v0.1h-0.1h-0.1v0.1h-0.1v0.1h-0.1v0.1v0.1h-0.1v0.1l-0.1,0.1v0.1H94v0.1v0.1v0.1h-0.1h-0.1h-0.1h-0.1
	V24h-0.1h-0.1h-0.1h-0.1v0.1v0.1v0.1h-0.1v0.1h-0.1v0.1v0.1v0.1v0.1h-0.1v0.1v0.1h-0.1v0.1h-0.1v0.1v0.1h-0.1v0.1v0.1v0.1h-0.1
	l-0.1,0.1l-0.1,0.1h-0.1h-0.1v-0.1h-0.1h-0.1h-0.1v-0.1h-0.1v-0.1h-0.1v0.1h-0.1v-0.1h-0.1v0.1h-0.1h-0.1h-0.1h-0.1h-0.1v0.1h-0.1
	h-0.1l-0.1,0.1h-0.1l-0.1,0.1h-0.1v0.1h-0.1v0.1h-0.1h-0.1v0.1h-0.1v0.1h-0.1h-0.1v0.1h-0.1v-0.1h-0.1v-0.1h-0.1v-0.1h-0.1v-0.1
	v-0.1v-0.1h-0.1h-0.1v-0.1h-0.1h-0.1h-0.1h-0.1v0.1h-0.1v-0.1h-0.1h-0.1h-0.1h-0.1h-0.1v0.1h-0.1v0.1h-0.1l-0.1,0.1v-0.1l-0.1,0.1
	h-0.1v-0.1h-0.1v-0.1v-0.1v-0.1v-0.1v-0.1v-0.1h0.1h0.1v0.1h0.1h0.1v0.1l0.1-0.1v-0.1v-0.1l-0.1-0.1v-0.1v-0.1v-0.1h-0.1v-0.1h0.1
	v-0.1v-0.1h-0.1l0.1-0.1v-0.1v-0.1v-0.1V24v-0.1h-0.1v-0.1h0.1v-0.1h-0.1v-0.1v-0.1v-0.1v-0.1v-0.1v-0.1v-0.1l-0.1-0.1v-0.1v-0.1
	h-0.1v-0.1v-0.1h-0.1h-0.1v-0.1v-0.1v-0.1v-0.1l-0.1-0.1v-0.1h-0.1v-0.1l-0.1-0.1h-0.1l-0.1-0.1h0.1v-0.1h0.1v0.1h0.1h0.1h0.1h0.1
	v-0.1h0.1l0.1-0.1v-0.1h0.1v-0.1v-0.1l0.1-0.1v-0.1v-0.1v-0.1v-0.1v-0.1h-0.1v-0.1v-0.1h-0.1v-0.1v-0.1l0.1-0.1v-0.1v-0.1h0.1v-0.1
	h-0.1v-0.1v-0.1v-0.1v-0.1v-0.1l0.1-0.1l-0.1-0.1v-0.1v-0.1v-0.1h-0.1v-0.1v-0.1h-0.1v-0.1v-0.1v-0.1v-0.1l-0.1-0.1v-0.1l-0.1-0.1
	l-0.1-0.2l-0.1-0.1l-0.1-0.1h-0.1v-0.1h-0.1v-0.1v-0.1h-0.1h-0.1h-0.1h-0.1v-0.1h0.1h0.1v-0.1h0.1v-0.1v-0.1h0.1v-0.1h0.1v0.1h0.1
	v0.1h0.1h0.1v-0.1h0.1h0.1h0.1h0.1v-0.1h0.1h0.1h0.1h0.1l0.1-0.1h0.1v0.1l0.1-0.1h0.2h0.1h0.1h0.1h0.1h0.1h0.1v-0.1h0.1h0.1h0.1h0.1
	l0.1-0.1l0.1-0.1h0.1h0.1h0.1h0.1v-0.1h0.1h0.1h0.1v-0.1h0.1v0.1l0.1,0.1l0.1,0.1v0.1h0.1v0.1l0.1,0.1h0.1v0.1l0.1,0.1h0.1v0.1h0.1
	l0.1,0.1h0.1h0.1h0.1l0.1,0.1h0.1l0.1-0.1h0.1h0.1h0.1v-0.1h0.1v-0.1h0.1h0.1v0.1v0.1v0.1v0.1l0.1,0.1l0.1,0.1h0.1l0.1,0.1h0.1
	l0.1,0.1h0.1h0.1h0.1h0.1h0.1h0.1v-0.1H94v-0.1v-0.1l0.1,0.1v0.1v0.1h0.1v0.1h0.1h0.2v0.1h0.1h0.1l0.1-0.1h0.1v-0.1h0.1l0.1-0.1
	l0.1-0.1v-0.1v-0.1v-0.1l-0.1-0.1h0.1l0.1-0.1h0.1v-0.1v-0.1h0.1v-0.1v-0.1v-0.1h0.1v-0.1v-0.1v-0.1v-0.1h-0.1V15.76L95.52,15.76z
	 M72.11,26.85h-0.1v0.1l-0.1,0.1l-0.1,0.1v0.1v0.1v0.1v0.1v0.1v0.1l-0.1,0.1v0.1v0.1h0.1h0.1v0.1v0.1h0.1h0.1v-0.1l0.1-0.1v-0.1
	v-0.1h0.1l0.1-0.1l0.1-0.1v-0.1v-0.1l0.1-0.1h-0.1v-0.1l-0.1-0.1v-0.1v-0.1v-0.1h-0.1v-0.1h-0.1h-0.1V26.85L72.11,26.85z
	 M72.93,29.9V30h0.1v-0.1l-0.1-0.1h-0.1h-0.1v0.1h0.1H72.93z"/>
</svg>
