<?xml version="1.0" encoding="utf-8"?>
<!-- Generator: Adobe Illustrator 24.2.1, SVG Export Plug-In . SVG Version: 6.00 Build 0)  -->
<svg version="1.1" id="Layer_1" xmlns="http://www.w3.org/2000/svg" xmlns:xlink="http://www.w3.org/1999/xlink" x="0px" y="0px"
	 viewBox="0 0 97.23 97.23" style="enable-background:new 0 0 97.23 97.23;" xml:space="preserve">
<style type="text/css">
	.st0{fill-rule:evenodd;clip-rule:evenodd;fill:#1D1D1B;}
</style>
<path class="st0" d="M45.26,91.72h0.18H45.26v0.18V91.72L45.26,91.72z M42.78,91.02h0.18h0.18v0.18l0.18,0.18v0.18h0.18h0.18v0.18
	h0.18v0.18v0.18h0.18h0.18l0.18,0.18v0.18h0.18h0.18h0.18h0.18v0.18h0.18h0.18v-0.18h0.18h0.18v0.18v-0.18h0.18v0.18h0.18v0.18h0.18
	v0.18h0.18h0.18v0.18H46.5v0.18h0.18h0.18h0.18h0.18v0.18l0.18,0.18l0.18,0.18h0.18v0.18h0.18v0.18h0.18v0.18l0.18,0.18l0.18,0.18
	v0.18h0.18v0.18v0.18h0.18v0.18h0.18l0.18,0.18v0.18h-0.18h-0.18v0.18l-0.35-0.18h-0.18l-0.18-0.18l-0.53-0.35h-0.18v-0.18H47.2
	l-0.18-0.18h-0.35v-0.18H46.5h-0.18h-0.18h-0.18h-0.18v0.18h-0.18l-0.18-0.18h-0.18h-0.18h-0.18v-0.18h-0.18h-0.18h-0.18H44.2v-0.18
	h-0.18h-0.18V94.2v-0.18v-0.35l-0.18-0.18v-0.18v-0.18h-0.18v-0.18h-0.18v-0.18h-0.18v-0.18l-0.18-0.18v-0.18v-0.18V91.9v-0.18
	h-0.18v-0.18v-0.18v-0.18V91.02h-0.18l0.18-0.18V91.02L42.78,91.02z M57.63,91.37h-0.18v-0.18v-0.18v-0.18l0.35-0.18h0.18
	l-0.18,0.18v0.18l-0.18,0.18V91.37L57.63,91.37z M45.61,90.31h0.18v0.18h-0.18h-0.18h-0.18v-0.18h0.18H45.61L45.61,90.31z
	 M52.68,88.9l-0.18-0.18v-0.18v-0.18v-0.18h0.18v-0.18v0.18l0.18,0.18v0.18v0.18h-0.18V88.9L52.68,88.9z M26.71,76.53v0.18
	l-0.18,0.18l0.18,0.18v-0.18l0.18,0.18h0.18h0.18h0.35h0.18h0.18h0.18h0.18l0.18-0.18h0.18L29,76.7h0.18h0.18v-0.18h0.18v0.18h0.18
	l0.18-0.18v0.18v0.18h0.18h0.18v0.18h0.18v0.18l0.18,0.18h0.18l0.18,0.18h0.18h0.18h0.18h0.18h0.18l0.18,0.18v0.18l-0.18,0.18v0.18
	h-0.18l-0.18,0.18h-0.71v0.18h-0.18h-0.18h-0.18l-0.18,0.18v-0.18l-0.18,0.18l-0.18-0.18h-0.35v0.18L29.18,79H29v0.18h-0.18h-0.18
	h-0.18V79v0.18H28.3h-0.18l-0.18,0.18h-0.18l-0.18,0.18v0.18h-0.18v0.18l-0.18,0.18h-0.18v0.18h-0.18l-0.18,0.18l-0.35,0.18
	l-0.18,0.18v0.18v0.18H26v0.18v0.18h0.18v0.18v0.18V82v0.18v0.18h0.18h-0.18H26h-0.18v0.18h-0.18v0.18h-0.18l-0.18,0.18l-0.35-0.18
	h-0.18v-0.18h-0.18h-0.18v-0.18h-0.18h-0.18v-0.18V82h-0.18v-0.18v-0.18v-0.18H23.7l-0.18-0.18h-0.18v-0.18h-0.18v-0.18l0.18-0.53
	h0.18v-0.18v-0.18v-0.18h0.18v-0.18v-0.18v-0.18h0.18v-0.18H23.7h0.18V79v-0.18l-0.18-0.35l-0.18-0.53v-0.35v-0.18v-0.18v-0.18
	v-0.18V76.7v-0.18h0.18h0.18v-0.18v0.18h0.18l0.18,0.18v-0.18h0.18v-0.18l0.18-0.18V76h0.18v-0.18h0.18v-0.18h0.18v-0.18v-0.35h0.18
	h0.18v0.18v0.18l0.18,0.18l0.18,0.18L26,76h0.18l0.18,0.18l0.18,0.35H26.71L26.71,76.53z M41.02,73.88h-0.18V73.7v-0.18l0.35-0.35
	h0.35l0.18-0.18l0.18-0.18l0.18-0.18h0.18h0.18v0.18v0.18v0.18l-0.18,0.35l-0.18,0.18H41.9h-0.18h-0.18h-0.35h-0.18V73.88
	L41.02,73.88z M27.94,71.93h-0.18h-0.18l-0.18-0.18h0.18v-0.18h0.18h0.18v0.18V71.93L27.94,71.93z M37.84,71.58v0.18h-0.18
	l-0.18-0.18v-0.35l-0.18-0.18v-0.18l0.18-0.35l0.18,0.18v0.18h0.18v0.18v0.18V71.58L37.84,71.58z M36.78,69.81H36.6v-0.18v-0.18
	h0.18v0.18V69.81L36.78,69.81z M38.01,71.58l0.18-0.18v-0.35v-0.18V70.7v-0.18l-0.18-0.18v-0.35h-0.18v-0.18v-0.35v-0.18h-0.18
	l-0.18-0.18v0.18v0.18v0.53v0.35v0.18l0.18,0.18l0.18,0.18v0.18v0.18v0.18v0.18H38.01L38.01,71.58z M45.08,68.22v-0.18h0.18v-0.18
	v0.18L45.08,68.22L45.08,68.22z M45.44,67.69v-0.18h0.18v0.18H45.44L45.44,67.69z M37.48,67.52v-0.18v-0.18v0.18V67.52L37.48,67.52z
	 M37.66,67.34v-0.35v-0.18v-0.18v-0.18h0.18v0.18v0.35v0.18L37.66,67.34L37.66,67.34z M44.91,66.99h-0.18v-0.18h0.18v-0.18
	l0.18-0.18l0.18-0.18h0.18v0.18v0.18h-0.18v0.18h-0.18L44.91,66.99L44.91,66.99z M45.79,66.63h-0.18v-0.18v-0.18h0.18h0.18v0.18
	h-0.18V66.63L45.79,66.63z M36.95,65.57V65.4v-0.18l-0.18-0.53H36.6v0.18h-0.18v0.18v0.18v0.18v0.18h-0.18v0.18h-0.18h-0.18h-0.18
	v0.35v0.18v0.35v0.53v0.18v0.18v0.18v0.18h0.18v0.18l0.18,0.35v0.18l0.18,0.35v0.18h0.18v0.18v0.18h0.18v-0.18l0.18-0.18v-0.18
	v-0.18v-0.18l0.18-0.35v-0.18v-0.18v-0.18v-0.18v-0.18v-0.35v-0.18v-0.18v-0.18v-0.18h0.18V66.1v-0.18v-0.18L36.95,65.57
	L36.95,65.57z M15.93,63.98h0.18v-0.18h0.18v0.18h0.18v0.18v0.18v0.18l0.18,0.18l0.18,0.18v0.18h0.18l0.18,0.18v0.18l0.35,0.18h0.18
	h0.18h0.18h-0.18l-0.35,0.18l-0.18,0.18h-0.18v0.18v0.18v0.18l-0.18,0.18v0.18v0.18h0.18l-0.18,0.18v0.18v0.18h-0.18v0.18h-0.18
	h-0.18h-0.18H16.1v-0.18v-0.18h-0.18v-0.18v-0.18v-0.18h-0.18h-0.18v-0.18l-0.18-0.18h-0.18h-0.18h-0.18v-0.18V66.1v-0.18h0.18
	v-0.18v-0.18h0.18V65.4h0.18h-0.18v-0.18h-0.18v-0.18h-0.18h0.18v-0.18v-0.18v-0.18h-0.18v-0.18h-0.18h-0.18v-0.18h0.18h0.18h0.18
	l0.18-0.18h0.18l0.18-0.18l0.18,0.18H15.93L15.93,63.98z M14.51,47.73h0.18v0.18v0.18h-0.18V47.9h-0.18v-0.18v-0.18h0.18V47.73
	L14.51,47.73z M14.87,47.73v-0.18h-0.18v0.18H14.87L14.87,47.73z M15.57,46.49v0.18l-0.18,0.18l-0.18-0.18v-0.18h0.18h-0.18h0.18
	H15.57L15.57,46.49z M53.39-0.15l0.35,0.18l0.53,0.35h0.35l0.35,0.18l0.18,0.18v0.18h0.18v0.18h0.18h0.18v0.18h0.18h0.18v0.18h0.18
	h0.18v0.18h0.18V1.44h0.18h0.18v0.18h0.18v0.18h0.18v0.18h0.18h0.18l0.18,0.18h0.18V1.97h0.18h0.18h0.18h0.18h0.18h0.18l0.18-0.18
	h0.18V1.61h0.18l0.35-0.18h0.35l0.18-0.18l0.18,0.18h0.18v0.18h0.18v0.18l0.18,0.18v0.18l0.18,0.18l0.18,0.18h0.18v0.18h0.18
	l0.18,0.18l0.35,0.18l0.18,0.18h0.18l0.18,0.18v0.18v0.35v0.18v0.18l0.18,0.18l0.18,0.35v0.35V5.5l-0.35,0.18l-0.35,0.18l-0.35,0.18
	l-0.35,0.18l-0.53,0.18l-0.18,0.18l-0.18,0.18v0.18v0.35h0.18l0.18,0.18l0.18,0.18V7.8l0.18,0.18v0.18l0.18,0.18V8.5v0.18
	l-0.18,0.18l-0.18,0.18v0.18v0.18h-0.18v0.18v0.18v0.18v0.35h0.18h0.35l0.18,0.35l-0.35,0.71l-0.18,0.53l-0.35,0.53l-0.18,0.53v0.35
	l0.35,0.18h0.35l0.18,0.53v0.53v0.53v0.18l-0.18,0.18l-0.18,0.18l-0.18,0.18v0.18h-0.18l-0.18,0.18v0.18v0.18l-0.18,0.18l0.18,0.18
	h0.18v0.18h0.18v0.18l0.18,0.18v0.18h-0.18v0.18h0.18h0.18h0.18v0.18h0.18h0.18l0.18-0.18v0.18h0.18v0.18h0.18v0.18v0.18h0.18v0.35
	v0.18v0.18v0.18h0.18h0.18v0.18v0.18h0.18v0.35v0.18v0.18v0.18v0.18v0.18v0.18l0.18,0.35l0.18,0.18h0.18l0.18,0.18v0.18l0.18,0.18
	h0.18v0.18l0.18,0.18v0.18l0.18,0.18v0.18v0.35v0.18h-0.18h-0.18l-0.18,0.18v0.18v0.18v0.18h0.18v0.18h0.18v0.18h-0.18v0.18v0.18
	h0.18v0.18h0.18h0.18l0.18,0.18v0.18l0.18,0.18l0.18,0.18h0.18h0.18h0.18V26v0.18h-0.18v0.18v0.18l0.18,0.18v0.18v0.18h0.18v0.18
	h0.18v0.18h0.18v0.18l-0.18,0.18v0.18l-0.18,0.18v0.18l-0.18,0.18l0.18,0.18v0.18V29v0.18v0.18l0.18,0.18v0.18v0.18h0.18v0.18v0.18
	l-0.18,0.18v0.18l0.18,0.18v0.18v0.18v0.18v0.18v0.18v0.18V32h0.18l0.18,0.18h0.18h0.18h0.18v0.18h0.18h-0.18v0.18h0.18v0.18v0.18
	l0.18,0.18l0.18,0.18h0.18v0.18h0.18v0.18h0.18h0.18v0.18h0.18l0.18,0.18h0.18h0.18h0.18v0.18v0.18v0.18l-0.18,0.18v0.18h0.18
	l0.18,0.18v0.18l-0.18,0.18v0.18v0.18v0.18v0.18v0.18l-0.18,0.18v0.18l-0.18,0.18v0.18v0.18l-0.18,0.18h-0.18h-0.18h-0.18v0.18h0.18
	v0.18h-0.18h-0.18h-0.18h-0.18h-0.18H67.7l-0.18-0.18h-0.18l-0.18,0.18h-0.18h-0.18h-0.35h-0.18v0.18h0.18h0.18v0.18h0.18l0.18,0.18
	h0.18l0.18,0.18h0.18v0.18v0.18h0.18v0.18v0.18v0.18l0.18,0.18h0.18v0.18h0.18v0.18h0.18h0.18v0.18h0.18h0.18v0.18h-0.18h-0.18v0.18
	v0.35v0.18h-0.18v0.18v0.18h-0.18l-0.18,0.18v0.18l-0.18,0.35v0.18v0.18l0.18,0.18h-0.18v0.18l-0.18,0.18v0.18v0.18l-0.18,0.18h0.18
	v0.18v0.18v0.18h0.18v0.18h0.18l0.18,0.18l0.18,0.18l0.18,0.18v0.18h0.18l0.18,0.18h0.18l0.18,0.18v0.18l0.18,0.18v0.18l0.18,0.18
	v0.18h0.18L70,46.14v0.18l0.18,0.18v0.18l0.18,0.18h0.35v0.18l0.18,0.18h0.18v0.18h0.18h0.18v0.18h0.18v0.18v0.18v0.18v0.18v0.18
	l-0.18,0.18l-0.18,0.18l-0.18,0.18l-0.18,0.18v0.18v0.18v0.18H70.7v0.18l-0.18,0.18l-0.18,0.18h-0.18L70,50.38h-0.18L70,50.55v0.18
	v0.18v0.18v0.18v0.18h0.18l0.18,0.18v0.18h0.18l0.18,0.18h0.35l0.18,0.18h0.18v0.18v0.18h0.18h0.18l0.18,0.18h0.18v0.18h0.18v0.35
	h0.18v0.18l0.18,0.18l0.18,0.18L73,53.91l0.18,0.18v0.18h0.18v0.18v0.18v0.18h-0.18L73,54.97v0.18v0.18l-0.18,0.18v0.18v0.18v0.18
	L73,56.21l0.18,0.18h0.18h0.18v0.18h0.18l0.18,0.18v0.18l0.18,0.35v0.18h0.18v0.18v0.18h-0.18v0.18v0.18h0.18v0.18v0.18v0.18h0.18
	h0.18v0.18h0.18v0.18l0.18,0.18h0.18v0.18l0.18,0.18v0.18v0.18v0.18v0.18h0.18l0.18,0.18h0.18v0.18v0.18v0.18v0.18H76l0.18,0.18
	h0.18h0.18l0.18,0.18v0.18l0.18,0.18v0.18v0.18l0.18,0.18l0.18,0.18l0.18,0.18v0.18l0.18,0.18l0.18,0.18l0.18,0.18l0.18,0.18v0.18
	l0.18,0.18v0.18v0.18v0.18v0.18l0.18,0.35l-0.18,0.18v0.18v0.18l-0.18,0.18l-0.18,0.18l-0.18,0.18v0.18v0.18v0.18l0.18,0.18v0.18
	l0.18,0.18h0.18h0.18v0.18l0.18,0.18v0.18v0.18v0.18v0.18l-0.18,0.18v0.18v0.18l0.18,0.18v0.18l-0.18,0.18v0.18v0.18l0.18,0.18v0.18
	v0.18l0.18,0.18l0.18,0.18l0.18,0.18h0.18v0.18h0.18h0.18l0.18,0.18h0.18l0.18,0.18h0.18h0.18h0.18h0.18h0.18h0.18h0.18h0.18h0.18
	h0.18h0.18v0.18v0.18v0.18v0.18v0.18v0.18v0.18v0.18v0.18v0.18l0.18,0.18v0.18v0.18v0.18v0.18v0.18v0.18v0.18v0.18v0.18v0.18v0.18
	v0.18l0.18,0.18v0.18v0.18L82.72,76v0.18h0.18v0.18v0.18v0.18l-0.18,0.18v0.18h-0.18v0.18v0.18v0.18h-0.18l-0.18,0.18h-0.18v0.18
	h-0.18v0.18l-0.18,0.18v0.18v0.18v0.18h-0.18V79h0.18v0.18v0.18h0.18v0.18h0.18v0.18h0.18v0.18h-0.18v0.18h0.18h0.18v0.18l0.18,0.18
	v0.18l0.18,0.18v0.18v0.18h0.18v0.18v0.18h0.18v0.18v0.18h0.18h-0.18V82v0.18h-0.18v0.18h0.18v0.18l0.18,0.35v0.18l0.18,0.18h0.18
	h0.18h0.18l0.18,0.18h0.18v0.18v0.18v0.18l-0.18,0.18v0.18h-0.18v0.18v0.18v0.18l0.18,0.18l0.18,0.18v0.18v0.18h-0.18v0.18
	l0.18,0.18l0.18,0.18v0.18v0.18v0.18v0.18h0.18h0.18l0.18,0.18h0.18h0.18v0.18v0.18v0.18v0.18l0.18,0.18v0.18v0.18v0.35l0.18,0.18
	v0.18h0.18l0.18,0.18h0.18h0.18v0.18v0.18h0.18v0.18h0.18h0.18v0.18l0.18,0.35l0.18,0.53l0.18,0.35l0.18,0.35v0.18l0.18,0.18
	l0.35,0.35l0.18,0.18l-0.18,0.18h-0.18h-0.18h-0.18h-0.18h-0.18h-0.18h-0.18h-0.18H86.6v0.18v0.53v0.18v0.18h-0.18h-0.18h-0.18H85.9
	h-0.18l-0.18,0.18h-0.18h-0.18h-0.18v0.18h-0.18v0.18h-0.18l0.18-0.18h-0.18h-0.18h-0.18v0.18h-0.18h-0.18v-0.18h-0.18v0.18H83.6
	v-0.18l-0.18-0.18h-0.18h-0.18h-0.18v-0.18l-0.18-0.18h-0.18v-0.18v-0.18h-0.18l-0.18,0.18v0.18v0.18h-0.18h-0.18v0.18h-0.18v-0.18
	h-0.18H81.3v0.18v-0.18h-0.18h-0.18l-0.18,0.18l-0.18,0.18h-0.18v-0.18h-0.18h-0.18v0.18h-0.18h-0.18v0.18h-0.18v0.18h-0.53
	l-0.53-0.18H78.3h-0.18v0.18h-0.18v0.18h0.18v0.18v0.18h-0.18h-0.18v0.18h-0.18v0.18v0.18h-0.18v0.18h-0.18h-0.18v0.18v0.18h-0.18
	h-0.18v-0.18h-0.18v-0.18h-0.18h-0.18v0.18H76h-0.18h-0.18v0.18l-0.18,0.18l-0.18,0.18h-0.18v-0.18h-0.18v-0.18h-0.18l-0.18,0.18
	v0.18h-0.18v0.18h0.18v0.18v0.18v0.18h-0.18h-0.53h-0.18l-0.18-0.18h-0.18l-0.18-0.18H73v-0.18h-0.18v-0.18v-0.18h-0.18v-0.18h-0.18
	h-0.18h-0.18v0.18h-0.18h-0.18v-0.18h-0.18l-0.18-0.18v-0.18v-0.18v-0.18V94.9h0.18v-0.18v-0.18v-0.18l-0.18-0.18h-0.18h-0.18h-0.18
	H70.7h-0.18h-0.18v-0.18h-0.18H70v-0.18v-0.18l-0.18-0.18l-0.18-0.18h-0.18l-0.18-0.18h-0.18v-0.18l-0.18-0.18v-0.18l-0.18-0.18
	v-0.18h-0.18v-0.18h-0.18v0.18h-0.18h-0.18h-0.18l-0.18-0.18l-0.18-0.18l-0.18-0.18h-0.18v-0.18h-0.18v-0.18l-0.18-0.18v-0.18
	l-0.18-0.18h-0.18h-0.35h-0.18h-0.18v0.18h-0.18H65.4h-0.18h-0.18l-0.18,0.18l-0.18-0.18h-0.18l-0.18,0.18h-0.18h-0.18h-0.18h-0.18
	h-0.18l-0.35-0.18h-0.18h-0.18v-0.18h-0.18l-0.18-0.18h-0.18v-0.18h-0.18h-0.18h-0.18h0.18v-0.18v-0.18h-0.18l-0.35-0.18l-0.18,0.18
	l-0.18,0.18l-0.18,0.18l-0.18,0.18h-0.18h-0.18H60.1v0.18h-0.18h-0.18l-0.18-0.18h-0.18h-0.53h-0.18v-0.18h-1.06l-0.18,0.18h-0.18
	l-0.18,0.18v0.18h-0.18l-0.18,0.18h-0.18v0.18h-0.18h-0.18h-0.18l-0.18-0.18v0.18h-0.18l-0.18,0.18l-0.18,0.18h-0.18l-0.18,0.18
	H54.8h-0.18v0.18v0.18h-0.18h-0.18v-0.18l0.18-0.18v-0.18v-0.18v-0.18h0.18v-0.18v-0.18v-0.18v-0.18l-0.18-0.18v-0.18v-0.18v-0.18
	v-0.18V89.6v-0.18l-0.18-0.18v-0.18h-0.18V88.9v-0.18l-0.18-0.18v-0.18v-0.18l-0.18-0.18v-0.18l-0.18-0.18v-0.18v-0.18v-0.18
	l-0.71-0.18h-0.71H51.8l-0.53,0.18l-0.18,0.18l-0.18,0.18v0.18l-0.35,0.18v0.18h-0.18v0.18h-0.18v0.18h-0.18v0.18h-0.18v0.18
	l-0.18,0.18l-0.18,0.18l-0.18,0.18l-0.18,0.18v0.18h-0.18l-0.18,0.18h-0.18h-0.18v0.18h-0.18h-0.18h-0.18h-0.18h-0.18v-0.18V89.6
	v-0.18v-0.18v-0.18l-0.18-0.18v-0.18v-0.18v-0.18l0.18-0.18l-0.18-0.18H47.2v-0.18h-0.35l-0.18,0.35v0.18H46.5v0.18h-0.18
	l-0.18,0.18h-0.18v0.18h-0.18v-0.18l-0.18-0.18l-0.18-0.53h-0.18v-0.18h-0.18v-0.18v-0.18l-0.18-0.18v-0.18v-0.18v-0.18l-0.18-0.18
	v-0.18v-0.18l-0.18-0.18v-0.18l-0.18-0.35v-0.18H44.2v-0.18l-0.18-0.18v-0.18v-0.18v-0.18l-0.18-0.18v-0.18l-0.18-0.35v-0.18
	l-0.18-0.35l-0.18-0.35l-0.35-0.35l-0.18-0.18v-0.18L42.61,82l-0.18-0.18l-0.18-0.18l-0.18-0.18L41.9,81.3v-0.18l-0.18-0.18
	l-0.18-0.35v-0.18h-0.18v-0.18h-0.18v-0.18h-0.18l-0.18-0.18l-0.18-0.18l-0.18-0.18l-0.18-0.18l-0.18-0.18L39.96,79h-0.18v-0.18
	l-0.18-0.18l-0.18-0.18v-0.18v-0.18v-0.18v-0.18v-0.18v-0.18l0.18-0.18l0.18-0.18h0.18v-0.18V76.7l0.18-0.18v-0.18v-0.18V76v-0.18
	l0.18-0.18v-0.18v-0.18l0.18-0.18v-0.18h0.18l0.35-0.18h0.18h0.18h0.35l0.18-0.18h0.18l0.18-0.18h0.18l0.18-0.18h0.18h0.18v0.18
	h0.18h0.18v-0.18l0.18-0.35l0.18-0.18v-0.18v-0.18v-0.18l0.18-0.18l0.18-0.35l0.18-0.35l0.18-0.35l0.18-0.35v-0.35h0.18v-0.18V70.7
	v-0.18v-0.18v-0.18v-0.18h0.18v-0.18v-0.18v-0.18v-0.18l0.18-0.18l0.18-0.18v-0.18l0.18-0.35v-0.18l0.35-0.53v-0.18h0.18v-0.88
	v-0.18l0.18-0.18v-0.53h-0.18l-0.35-0.18h-0.18l-0.18,0.18h-0.18v0.18h-0.18h-0.18v0.18v0.18h-0.18l-0.18,0.18v0.35H44.2v0.35
	l-0.18,0.18l0.18,0.18v0.18l0.18,0.18v0.18v0.18l-0.18,0.35v0.35v0.18v0.18v0.18l-0.18,0.18v0.35l-0.18,0.18l-0.18,0.53l-0.35,0.35
	v0.18l-0.18,0.18h-0.18l-0.35,0.18l-0.18,0.18l-0.18,0.18l-0.35,0.18v0.18l-0.18,0.18h-0.18l-0.35,0.18l-0.53,0.35l-0.35,0.18
	l-0.18,0.18l-0.18,0.18h-0.18H39.6h-0.18l-0.35-0.18l-0.18-0.18l-0.18-0.18h-0.18l-0.35-0.35l-0.18-0.18v-0.18v-0.18v-0.18
	l0.18-0.18v-0.18V71.4v-0.18l0.18-0.18v-0.18V70.7l-0.18-0.18v-0.18l-0.18-0.18v-0.18v-0.18v-0.35v-0.18h-0.18v-0.18h-0.18v-0.18
	h-0.18v-0.18V68.4v-0.18v-0.18l0.18-0.18v-0.18v-0.18l0.18-0.18v-0.18h0.18v-0.18v-0.18l-0.18-0.35v-0.53v-0.35l-0.53-0.18
	l-0.18-0.35v-0.18l-0.35-0.35l-0.18-0.18h-0.18v0.18l-0.18,0.35v0.18h-0.18l0.18,0.35l-0.18,0.18h-0.18h-0.18h-0.18h-0.18v0.18v0.18
	v0.18v0.18v0.18v0.18v0.18h-0.18v0.18v0.18v0.18v0.18v0.18v0.18v0.18h0.18v0.18v0.18v0.18h0.18v0.18v0.18v0.18h0.18v0.18l0.18,0.71
	l0.18,0.35v0.35v0.18h0.18v0.53v0.35l-0.18,0.18v0.18h-0.18h-0.18v0.18v0.18v0.35v0.18v0.18v0.18l-0.18,0.18l0.18,0.18l-0.18,0.18
	l-0.18,0.18l-0.18,0.18l-0.35,0.18l-0.35,0.18l-0.18,0.18h-0.18v0.18h-0.18l-0.18-0.18H33.6l-0.18-0.18v-0.18h-0.18h-0.18
	l-0.18,0.18l-0.18-0.18l-0.18-0.18h-0.18h-0.18h-0.18l-0.18-0.18v-0.18h-0.35H31.3h-0.18V73.7h-0.18h-0.18l-0.18-0.18h-0.18
	l-0.18-0.18h-0.18h-0.18v-0.18h-0.18h-0.18h-0.18l-0.18,0.18H29h-0.18v-0.35v-0.18l-0.18-0.18v-0.18l-0.35-0.35l-0.18-0.18
	l-0.18-0.18v-0.18h-0.18h-0.18V71.4h-0.18h-0.18v0.18h-0.18v0.18v0.35v0.18v0.18h0.18v0.18h-0.18l-0.18,0.18h-0.18h-0.18v-0.18
	v-0.18h-0.18h-0.18v-0.18h0.18h-0.18v-0.18L26,71.93v-0.18v-0.18l-0.18-0.18v-0.18l-0.18-0.18l-0.18-0.35l-0.18-0.18l-0.35-0.53
	l-0.18-0.18l-0.18-0.18v-0.18l-0.18-0.18l-0.18-0.18h-0.18h-0.18v0.18l-0.18-0.18l-0.18-0.18v-0.18l-0.18-0.18l-0.18-0.18H23
	l-0.18-0.18v-0.18l-0.18-0.18v-0.18l0.18-0.18L23,67.34v-0.18l-0.35-0.18h-0.18l-0.18-0.35l-0.35-0.18l-0.35-0.35l-0.18-0.18
	l-0.35-0.18v-0.18h-0.18L20.7,65.4l-0.18-0.18v-0.18l-0.18-0.18v-0.18l0.18-0.18v-0.18l0.18-0.18l0.18-0.18v-0.18l0.18-0.18
	l0.18-0.18v-0.18l0.18-0.35l0.18-0.18v-0.18v-0.35l-0.18-0.35h-0.18h-0.18h-0.18l-0.35,0.18v-0.18h-0.18v-0.18l0.18-0.18h0.18h0.18
	l0.18,0.18v-0.18l0.18-0.18V60.8v-0.53V60.1v-0.71l-0.18-0.53v-0.18h0.18v-0.18h0.18h-0.18h-0.18v-0.18v-0.18l-0.18-0.35v-0.18
	l-0.18-0.35v-0.18v-0.18h-0.18v-0.18v-0.18h0.18v-0.18h-0.18v-0.18h-0.18l-0.18-0.35v-0.18l-0.18-0.18v-0.53l-0.18-0.53v-0.18
	l-0.18-0.18v-0.35l-0.18-0.18l-0.18-0.18v-0.35h-0.18l-0.18-0.35l-0.18-0.18l-0.18-0.18H18.4l-0.18-0.18h-0.18l-0.18-0.18v-0.18
	h-0.18v-0.18h0.18v-0.18v-0.18h-0.18h-0.18h-0.18v0.18h-0.18v0.18h-0.18l-0.18,0.18v0.18l-0.18,0.18v0.18h-0.18l-0.18,0.18v0.18
	v0.18H16.1v-0.18l-0.18-0.18l-0.18-0.18h-0.18v-0.18v-0.18l-0.18-0.18v-0.18v-0.18h-0.18v-0.18l-0.18-0.18v-0.18h-0.18h0.18v-0.18
	h0.18v-0.18h0.18v-0.18h0.18v0.18l0.18,0.18v0.18v0.18v0.18h0.18h0.18h0.18v-0.18h0.18v-0.18h-0.18v-0.18H16.1l-0.18-0.18h0.18
	v-0.18h0.18v0.18l0.18,0.18h0.18v0.18h0.18l0.18-0.18v-0.18v-0.18h0.18l0.18-0.18v-0.18v-0.35v-0.18v-0.18v-0.18l0.18-0.18h0.18
	l0.18-0.18v-0.18l-0.18-0.18l-0.35-0.71l-0.35-0.18l-0.18-0.53h-0.18l-0.18-0.18l-0.35-0.35v-0.18h-0.18v-0.18h0.18v-0.18l0.18-0.18
	H16.1v-0.18l-0.18-0.18l-0.18-0.35l-0.18-0.18v-0.18v-0.18v-0.18v-0.18H15.4v-0.18l-0.18-0.18v-0.18h-0.18v-0.18l-0.18-0.18
	l-0.18-0.18v-0.18v-0.18V42.6h-0.18v-0.18v-0.18h-0.18v-0.18V41.9v-0.18h0.18v-0.18v-0.18v-0.18l0.18-0.18v-0.18v-0.18v-0.18v-0.18
	v-0.18h-0.18v-0.18v-0.18l-0.18-0.18v-0.18h-0.53v0.18v0.18h-0.18v0.18h-0.18v0.18h-0.18H13.1v-0.18h-0.18v0.18v0.18h-0.18v0.18
	l-0.18,0.18l-0.18-0.18h-0.18l-0.18-0.18h-0.18h-0.18h-0.18v-0.18l-0.18-0.18l-0.18-0.18h-0.18V39.6H10.8h-0.18h-0.18h-0.18H10.1
	H9.92l-0.18-0.18v-0.18H9.57v-0.18h0.18h0.18l0.18-0.18h0.18l0.18,0.18h0.18l0.18,0.18h0.18v-0.18h0.18v0.18h0.18h0.18h0.18h0.18
	v-0.18l-0.18-0.18v-0.18v-0.18l-0.18-0.18v-0.18l0.18-0.18v-0.18h0.18v-0.18v-0.18V37.3l0.18-0.18l0.18-0.18l0.18-0.18l-0.18-0.35
	l0.18-0.18l0.18-0.18l0.18-0.18l0.18-0.18l0.18-0.18v-0.18h0.18v-0.18l0.18-0.18v-0.18h0.18v-0.18l0.18-0.18V34.3h0.18l0.18-0.18
	h0.18h0.18h0.18h0.18v0.18h0.18v-0.18h0.18v-0.18l-0.18-0.18v-0.18v-0.18h0.18v-0.18h0.18v0.18h0.18h0.18v-0.18h-0.18v-0.18h0.18
	v0.18h0.18v-0.18h0.18v0.18h0.18v-0.18h0.18v-0.18h0.18v-0.18v-0.18h0.18l0.18-0.18h0.18v-0.18V32h0.18v-0.18v-0.18v-0.18h0.18V31.3
	h-0.18v-0.18h0.18v-0.18h0.18v-0.18h-0.18v-0.18h-0.18v-0.18h0.18h-0.18v-0.18v-0.18v-0.18l0.18-0.18v-0.18h0.18v-0.18h0.18v-0.18
	V29h-0.18v-0.18v-0.18h0.18v-0.18h-0.18v-0.18l-0.18-0.18h-0.18v-0.18v-0.18v-0.18v-0.18l-0.18-0.18v-0.18v-0.18V26.7v-0.18v-0.18
	l-0.18-0.18h-0.18h-0.18v0.18h-0.18v-0.18L16.28,26H16.1h-0.18h-0.18l-0.18-0.18v-0.18H15.4v-0.18v-0.18v-0.18v-0.18l-0.18-0.18
	v-0.18v-0.18l0.18-0.18h0.18v-0.18v-0.18l0.18-0.18h0.18v-0.18l0.18-0.18l0.18-0.18v-0.18h0.18l0.18-0.18v-0.18h-0.18v-0.18v-0.18
	l0.18-0.18v-0.18l0.18-0.18v-0.18V21.4v-0.35v-0.18v-0.18l-0.18-0.18l-0.18,0.18h-0.18H16.1h-0.18h-0.18h-0.18H15.4l-0.18-0.18
	v-0.18v-0.18v-0.18v-0.18h0.18h0.35v-0.18h0.18v-0.18v-0.18V19.1l-0.18-0.18h-0.18v-0.18l-0.18-0.18V18.4v-0.18v-0.18l-0.18-0.18
	h-0.18v-0.18h-0.18l-0.18-0.18v-0.18l-0.18-0.18l-0.18-0.18v-0.18v-0.18v-0.18v-0.18l0.18-0.18h0.18v-0.18h0.18v-0.18h0.18
	l0.18-0.18h0.18l0.18-0.18v-0.18l0.18-0.18l0.18-0.18l0.18-0.18l0.18-0.18l0.35-0.35l0.18-0.18l0.18-0.18l0.18-0.18h0.18h0.18h0.18
	h0.18v-0.18l0.18-0.18l0.18-0.18l0.18-0.18v-0.18h-0.18h-0.18h-0.18h-0.35h-0.18v-0.18h-0.18l-0.18-0.18v-0.18v-0.18v-0.18v-0.18
	v-0.18h-0.18v-0.18h0.18v-0.18h0.18l0.18-0.18l0.18-0.18v-0.18l0.18-0.18v-0.18v-0.18h0.18l0.18-0.18h0.18h0.18V9.74h0.18V9.56V9.39
	h0.18h0.18h0.18h0.18h0.18v0.18h0.18h0.18h0.18V9.39V9.21V9.03V8.86V8.68V8.5h0.18h0.18h0.18h0.18l0.18-0.18h0.18V8.15h0.18h0.18
	h0.18h0.18h0.18h0.18h0.18h0.18V7.97l0.18-0.18h0.18H23V7.62h0.18V7.44V7.27L23,7.09V6.91h0.18l0.18-0.18h0.18h0.18h0.18h0.18h0.18
	v0.18l0.18,0.18h0.18h0.18h0.18h0.18v0.18h0.18V7.09h0.18V6.91l0.18-0.18V6.56h0.18V6.38H26V6.21V6.03h0.18h0.18V5.85l0.18-0.18
	h0.18l0.18,0.18V5.68h0.18h0.18h0.18h0.18h0.18v0.18h0.18h0.18l0.18-0.18h0.18h0.18v0.18h0.18v0.18v0.35v0.35v0.18v0.18l-0.18,0.18
	h0.18v0.18v0.18h-0.18V7.8v0.18v0.18l0.18,0.18L29,8.5h0.18v0.18v0.18L29,9.21v0.18h-0.18v0.18v0.35v0.18v0.18v0.18l-0.18,0.18v0.35
	v0.18v0.18l0.18,0.18v0.18v0.18l-0.18,0.18v0.18v0.18v0.18v0.18v0.18l0.18,0.18L29,13.27h0.18v0.18l0.18,0.18v0.18v0.18h0.18h0.18
	h0.18h0.18l0.18-0.18v0.18h0.18h0.18V13.8v-0.18h0.18h0.18h0.18v-0.18h0.18v-0.18V13.1v-0.18l0.18-0.18h0.18l0.18-0.18h0.18h0.18
	h0.18l0.18-0.18l0.18-0.18l0.18-0.18v-0.18l0.18-0.18l0.18-0.18l0.18-0.18h0.18h0.18v-0.18h0.18v-0.18h0.18l0.18,0.18v0.18v0.18
	v0.18v0.18l0.18,0.18v0.18v0.18v0.18l0.18,0.18v0.18h0.18v0.18v0.18h0.18v0.18h0.18l0.18-0.18h0.18V13.1h0.18v-0.18l0.18-0.18h0.18
	v0.18l0.18,0.18v0.18h0.18h0.35l0.18-0.18h0.18h0.18h0.18l0.18,0.18h0.18l0.18,0.18l0.18,0.18l0.18,0.18l0.18,0.18h0.18l0.18-0.18
	h0.18h0.53h0.18h0.18l0.18-0.18h0.18h0.18l0.18-0.18h0.18l0.18-0.18V13.1h-0.18v0.18h-0.18V13.1v-0.18v-0.18h0.18v-0.18h-0.18h-0.18
	v-0.18v-0.18l0.18-0.18v-0.18h0.18h-0.18v-0.18v-0.18h0.18h0.18l0.18-0.18l0.18-0.18h-0.18v-0.18l0.18-0.18v-0.18v-0.18l-0.18-0.18
	h0.18v0.18h0.18v-0.18v-0.18h0.18V9.92V9.74h0.18V9.56h0.18h0.18h0.18V9.39h0.18v0.18h0.18h0.18V9.39h0.18V9.21l0.18-0.18h0.18V8.86
	L43.31,8.5V8.33h0.18h0.18V8.15h-0.18h-0.18V7.97V7.8V7.62l0.18,0.18h0.18h0.18V7.62V7.8h0.18V7.62V7.44V7.27V7.09h0.18V6.91V6.74
	h0.18V6.56h0.18v0.18v0.18l0.18-0.18v0.18h0.18V6.74h0.18h0.18v0.18V6.74V6.56h0.18v0.18h0.18V6.56h-0.18l-0.18-0.18h0.18h0.18
	l0.18-0.18h-0.18V6.03h0.18V5.85V5.68V5.5h0.18h0.18l0.18,0.18h0.18h0.18V5.5h0.18l0.18-0.18l-0.18-0.18V4.97h-0.18H46.5V4.79h0.18
	h0.18h0.18V4.62h-0.18h0.18V4.44h-0.18h0.18h0.18V4.26h-0.18l0.18-0.18V3.91h0.18V3.73V3.56l0.18-0.18h0.18h0.18V3.2h-0.18V3.03
	V2.85h-0.18V2.67h0.18h0.18h0.18h0.18V2.5h0.18V2.32h0.18h0.18l0.18-0.18V1.97V1.79h0.18l0.18-0.35l0.35-0.35V0.91l0.35-0.35
	l0.35-0.35l0.35-0.18l0.18,0.18l0.53-0.18l0.35-0.18l0.35,0.18h0.53h0.18L53.39-0.15z"/>
</svg>
