<?xml version="1.0" encoding="utf-8"?>
<!-- Generator: Adobe Illustrator 24.2.1, SVG Export Plug-In . SVG Version: 6.00 Build 0)  -->
<svg version="1.1" id="Layer_1" xmlns="http://www.w3.org/2000/svg" xmlns:xlink="http://www.w3.org/1999/xlink" x="0px" y="0px"
	 viewBox="0 0 97.23 97.23" style="enable-background:new 0 0 97.23 97.23;" xml:space="preserve">
<style type="text/css">
	.st0{fill-rule:evenodd;clip-rule:evenodd;fill:#1D1D1B;}
</style>
<polygon class="st0" points="82.45,11.31 82.6,11.46 82.91,11.62 82.91,11.77 83.06,11.92 83.06,12.08 82.91,12.23 82.91,12.38 
	83.06,12.54 83.22,12.69 83.22,12.85 83.37,12.85 83.52,12.85 83.68,13 83.83,13.15 83.98,13.15 83.98,13.31 83.83,13.46 
	83.68,13.46 83.68,13.62 83.52,13.77 83.52,13.92 83.52,14.08 83.37,14.23 83.22,14.23 83.06,14.38 82.75,14.54 82.6,14.69 
	82.6,14.85 82.6,15 82.6,15.15 82.6,15.31 82.6,15.46 82.45,15.46 82.45,15.62 82.29,15.77 82.14,15.92 81.98,16.08 81.83,16.08 
	81.68,16.23 81.52,16.23 81.52,16.38 81.52,16.54 81.37,16.54 81.37,16.69 81.21,16.69 81.21,16.85 81.06,17 80.91,17.15 
	80.91,17.31 80.75,17.31 80.6,17.31 80.45,17.31 80.29,17.46 80.14,17.46 80.14,17.62 79.98,17.62 79.98,17.77 79.83,17.77 
	79.68,18.08 79.68,18.23 79.52,18.38 79.37,18.38 79.37,18.54 79.21,18.69 79.06,18.69 78.91,18.85 78.75,18.85 78.6,18.69 
	78.45,18.69 78.45,18.85 78.29,18.85 78.14,18.85 78.14,19 77.98,19.15 77.98,19.31 77.83,19.46 77.68,19.46 77.68,19.62 
	77.52,19.62 77.52,19.77 77.37,19.92 77.21,20.08 77.21,20.23 77.37,20.69 77.68,20.85 77.98,21 78.14,21 78.45,21 78.6,21.15 
	78.75,21.31 78.75,21.62 78.75,21.77 78.75,21.92 78.6,22.08 78.45,22.23 78.29,22.23 78.14,22.08 77.98,22.08 77.83,22.23 
	77.83,22.38 77.68,22.23 77.52,22.23 77.06,22.23 76.6,22.08 76.29,21.92 75.98,21.77 75.68,21.77 75.37,21.77 75.06,21.62 
	74.91,21.46 74.75,21.31 74.6,21.31 74.45,21.46 74.29,21.46 74.14,21.31 73.98,21.31 73.83,21.31 73.83,21.15 73.68,21 73.52,21 
	73.52,20.85 73.37,20.85 73.21,20.69 73.06,20.54 72.91,20.54 72.91,20.69 72.75,20.69 72.6,20.69 72.6,20.54 72.45,20.54 
	72.29,20.54 72.14,20.54 71.98,20.54 71.83,20.38 71.68,20.38 71.52,20.38 71.37,20.38 71.21,20.38 71.06,20.38 71.06,20.23 
	71.06,20.38 71.06,20.54 71.21,20.54 71.21,20.69 71.06,20.69 71.06,20.85 71.06,21 70.91,21 70.91,21.15 70.91,21.31 70.91,21.46 
	71.06,21.46 71.21,21.46 71.21,21.62 71.21,21.77 71.21,21.92 71.06,22.08 71.06,22.23 71.06,22.38 71.06,22.54 71.21,22.54 
	71.37,22.69 71.37,22.85 71.37,23 71.37,23.15 71.37,23.31 71.37,23.46 71.52,23.62 71.52,23.77 71.52,23.92 71.37,24.08 
	71.21,24.08 71.06,24.08 70.91,24.08 70.91,23.92 70.75,23.92 70.75,23.77 70.6,23.62 70.6,23.46 70.45,23.46 70.45,23.31 
	70.29,23.31 70.29,23.46 70.14,23.46 69.98,23.46 69.83,23.46 69.68,23.62 69.52,23.62 69.37,23.62 69.21,23.62 69.21,23.77 
	69.06,23.77 68.91,23.77 68.91,23.62 68.75,23.62 68.6,23.62 68.45,23.62 68.29,23.77 68.14,23.77 67.98,23.92 67.83,24.08 
	67.68,24.08 67.52,24.23 67.37,24.38 67.37,24.54 67.37,24.69 67.37,24.85 67.52,24.85 67.52,25 67.52,25.15 67.37,25.15 
	67.37,25.31 67.21,25.31 67.21,25.46 67.37,25.46 67.37,25.62 67.21,25.62 67.21,25.77 67.21,25.92 67.06,25.92 67.06,26.08 
	66.91,26.23 66.75,26.23 66.6,26.23 66.6,26.38 66.45,26.38 66.45,26.54 66.45,26.69 66.6,26.69 66.75,26.85 66.91,27 67.06,27 
	67.06,27.15 67.06,27.31 67.06,27.46 67.06,27.62 67.06,27.77 67.06,27.92 67.06,28.08 66.91,28.23 66.91,28.38 66.91,28.54 
	66.91,28.69 66.75,28.85 66.6,29 66.45,29 66.29,29 66.14,29.15 65.98,29.31 65.83,29.46 65.68,29.62 65.52,29.62 65.37,29.77 
	65.21,29.92 65.06,29.92 65.06,30.08 65.06,30.23 65.06,30.38 65.06,30.54 65.06,30.69 65.06,30.85 64.91,31 64.91,31.15 
	64.75,31.31 64.6,31.46 64.45,31.46 64.29,31.62 64.29,31.77 64.29,31.92 64.29,32.08 64.29,32.23 64.29,32.38 64.29,32.54 
	64.29,32.69 64.45,32.85 64.6,33 64.75,33.15 64.91,33.15 65.06,33.31 65.21,33.46 65.37,33.62 65.37,33.77 65.37,34.08 
	65.37,34.23 65.37,34.38 65.21,34.54 65.21,34.69 65.06,34.85 64.91,35 64.75,35.15 64.75,35.31 64.91,35.46 64.91,35.62 
	64.91,35.77 64.91,35.92 64.91,36.08 64.91,36.38 64.91,36.54 65.06,36.54 65.06,36.69 65.21,36.69 65.37,36.69 65.37,36.85 
	65.37,37 65.37,37.15 65.37,37.31 65.37,37.46 65.52,37.46 65.52,37.62 65.68,37.62 65.68,37.77 65.52,37.92 65.52,38.08 
	65.37,38.08 65.37,38.23 65.37,38.38 65.37,38.54 65.37,38.69 65.52,38.85 65.52,39 65.37,39.15 65.21,39.15 65.21,39.31 
	65.06,39.31 65.06,39.46 65.06,39.62 65.06,39.77 65.06,39.92 64.91,39.92 64.91,40.08 65.06,40.23 65.21,40.38 65.37,40.38 
	65.52,40.38 65.68,40.54 65.68,40.69 65.68,40.85 65.52,40.85 65.52,41 65.37,41 65.37,41.15 65.37,41.31 65.21,41.31 65.21,41.46 
	65.06,41.62 65.06,41.77 65.06,41.92 64.91,42.08 64.91,42.23 64.75,42.23 64.6,42.23 64.45,42.23 64.29,42.38 64.14,42.54 
	63.98,42.54 63.98,42.69 63.83,42.69 63.68,42.69 63.52,42.85 63.37,42.85 63.37,43 63.21,43 63.21,43.15 63.06,43.15 63.06,43.31 
	62.91,43.31 62.75,43.46 62.91,43.46 62.91,43.62 63.06,43.62 63.21,43.77 63.21,43.92 63.37,44.08 63.37,44.23 63.37,44.38 
	63.52,44.38 63.52,44.54 63.68,44.69 63.68,44.85 63.83,45 63.98,45.15 63.98,45.31 63.98,45.46 63.98,45.62 64.14,45.62 
	64.14,45.77 64.14,46.23 64.14,46.69 64.14,46.85 64.14,47 64.29,47 64.14,47 64.29,47.15 64.45,47.31 64.6,47.46 64.75,47.62 
	64.75,47.77 64.91,47.77 65.21,47.92 65.37,47.92 65.52,47.92 65.68,47.92 65.83,47.92 65.83,48.08 65.98,48.08 66.14,48.08 
	66.29,48.08 66.45,48.08 66.45,47.92 66.45,48.08 66.45,48.23 66.45,48.38 66.45,48.54 66.45,48.69 66.45,48.85 66.6,48.85 
	66.75,49.15 66.75,49.31 66.91,49.31 67.06,49.31 67.06,49.15 67.21,49.15 67.52,49.15 67.68,49.15 67.83,49.31 67.83,49.46 
	67.83,49.62 67.98,49.62 67.98,49.77 67.98,49.92 67.98,50.08 67.98,50.23 68.14,50.54 68.29,50.54 68.29,50.69 68.29,50.54 
	68.45,50.54 68.6,50.54 68.6,50.69 68.6,50.85 68.75,50.85 68.75,51 68.75,51.15 68.75,51.31 68.75,51.62 68.6,51.62 68.75,51.77 
	68.75,51.92 68.91,51.92 69.06,51.92 69.06,52.08 69.06,52.23 68.91,52.69 68.91,52.85 68.91,53 68.75,53.15 68.75,53.31 
	68.75,53.46 68.91,53.62 68.91,53.77 69.06,53.77 69.06,53.92 69.21,54.08 69.37,54.23 69.52,54.38 69.52,54.54 69.68,54.69 
	69.68,54.85 69.83,54.85 69.98,54.85 69.98,55 70.14,55 70.29,55 70.45,55.15 70.6,55.15 70.75,55.15 70.91,55.15 71.06,55.15 
	71.21,55 71.37,55 71.37,54.85 71.52,55 71.68,55 71.68,55.15 71.68,55.31 71.83,55.46 71.83,55.62 71.98,55.77 71.98,55.92 
	72.14,56.08 72.29,56.08 72.29,56.23 72.29,56.54 72.29,56.69 72.29,56.85 72.29,57 72.45,57.15 72.45,57.31 72.45,57.46 
	72.45,57.92 72.45,58.08 72.45,58.23 72.45,58.38 72.29,58.38 72.14,58.54 72.14,58.69 72.29,58.69 72.29,58.85 72.45,58.85 
	72.45,59 72.45,59.15 72.6,59.31 72.6,59.46 72.45,59.62 72.45,59.77 72.45,59.92 72.45,60.08 72.45,60.23 72.45,60.38 72.6,60.38 
	72.6,60.54 72.75,60.54 72.75,60.69 72.75,60.85 72.91,60.85 72.91,61 72.75,61.15 72.6,61.15 72.6,61.31 72.45,61.31 72.45,61.46 
	72.45,61.62 72.45,61.77 72.45,61.92 72.45,62.08 72.45,62.23 72.45,62.38 72.45,62.54 72.29,62.54 72.29,62.69 72.14,62.69 
	72.14,62.85 72.14,63 71.98,63 71.98,63.15 72.14,63.15 72.14,63 72.29,63 72.29,63.15 72.29,63.31 72.29,63.46 72.29,63.62 
	72.29,63.77 72.45,63.92 72.45,64.08 72.6,64.23 72.75,64.23 72.91,64.08 73.06,64.08 73.06,64.23 73.06,64.38 72.91,64.54 
	73.06,64.69 73.06,64.85 73.21,64.85 73.21,65 73.21,65.15 73.21,65.31 73.06,65.46 73.06,65.62 73.21,65.92 73.21,66.08 
	73.37,66.08 73.52,66.08 73.68,66.08 73.68,66.23 73.68,66.38 73.68,66.54 73.83,66.69 73.98,66.54 74.14,66.54 74.14,66.38 
	74.14,66.54 74.14,66.69 74.29,66.69 74.14,66.85 74.14,67.15 73.98,67.31 73.83,67.31 73.83,67.46 73.83,67.62 73.68,67.62 
	73.52,67.77 73.68,67.77 73.68,67.92 73.68,68.08 73.68,68.23 73.68,68.38 73.68,68.54 73.68,68.69 73.68,68.85 73.83,68.85 
	73.83,69 73.83,69.15 73.68,69.15 73.68,69.46 73.68,69.77 73.68,69.92 73.68,70.08 73.83,70.23 73.83,70.38 73.83,70.54 
	73.68,70.69 73.68,70.85 73.52,71 73.68,71.15 73.83,71.15 73.98,71.15 74.14,71.15 74.29,71 74.45,71 74.45,71.15 74.45,71.31 
	74.45,71.46 74.6,71.77 74.6,71.92 74.75,71.92 74.75,72.08 74.6,72.08 74.45,72.08 74.45,72.23 74.29,72.23 74.29,72.38 
	74.14,72.54 73.98,72.69 73.83,72.69 73.68,72.54 73.52,72.54 73.37,72.54 73.37,72.69 73.37,72.85 73.37,73 73.37,73.15 
	73.37,73.31 73.37,73.46 73.37,73.62 73.21,73.77 73.06,73.62 72.91,73.62 72.75,73.46 72.6,73.46 72.45,73.62 72.29,73.62 
	72.29,73.77 72.14,73.77 71.98,73.62 71.98,73.46 71.83,73.31 71.68,73.31 71.52,73.31 71.52,73.15 71.37,73.15 71.21,73.15 
	71.21,73.31 71.06,73.31 70.91,73.46 70.75,73.62 70.6,73.77 70.6,73.92 70.45,73.92 70.29,73.92 70.14,73.92 69.98,73.92 
	69.83,73.77 69.68,73.62 69.52,73.77 69.52,73.62 69.37,73.62 69.21,73.62 69.06,73.77 68.91,73.62 68.91,73.46 68.75,73.46 
	68.75,73.62 68.6,73.62 68.45,73.62 68.29,73.62 68.14,73.46 68.14,73.31 67.98,73.31 67.83,73.31 67.68,73.31 67.68,73.46 
	67.52,73.31 67.37,73.31 67.21,73.15 67.06,73.15 66.91,73.31 66.91,73.46 66.75,73.46 66.6,73.46 66.45,73.46 66.14,73.62 
	65.98,73.62 65.98,73.46 65.83,73.46 65.68,73.46 65.52,73.46 65.37,73.46 65.06,73.46 64.91,73.46 64.91,73.31 64.75,73.31 
	64.75,73.46 64.75,73.62 64.75,73.77 64.75,73.92 64.6,73.92 64.6,74.08 64.6,74.23 64.6,74.38 64.6,74.54 64.6,74.69 64.6,74.85 
	64.45,75 64.45,75.15 64.29,75.31 64.14,75.31 63.98,75.31 63.83,75.46 63.68,75.46 63.68,75.62 63.68,75.92 63.52,76.08 
	63.37,76.23 63.37,76.38 63.37,76.54 63.21,76.69 63.21,76.85 63.21,77 63.21,77.15 63.06,77.15 62.91,77.15 62.75,77.15 
	62.6,77.15 62.45,77.31 62.29,77.15 62.14,77.31 61.98,77.15 61.83,77 61.83,77.15 61.68,77.15 61.68,77.31 61.52,77.46 
	61.37,77.46 61.37,77.62 61.21,77.62 61.06,77.77 60.91,77.92 60.75,77.92 60.75,78.08 60.91,78.23 60.91,78.38 60.91,78.54 
	60.75,78.69 60.75,78.85 60.75,79 60.75,79.15 60.75,79.31 60.6,79.31 60.45,79.15 60.29,79.15 60.14,79.31 59.98,79.46 
	59.83,79.46 59.68,79.31 59.52,79.15 59.37,79 59.21,79 59.06,79 59.06,78.85 58.91,78.85 58.75,78.85 58.6,78.85 58.45,79 
	58.29,79.15 58.14,79.31 58.14,79.46 58.14,79.62 57.98,79.62 57.83,79.77 57.68,79.92 57.52,79.92 57.37,79.77 57.21,79.77 
	57.21,79.62 57.06,79.46 57.06,79.31 57.06,79.15 57.06,79 57.06,78.85 56.91,78.85 56.75,78.85 56.6,79 56.45,79 56.29,79 
	56.14,79 55.98,79 55.98,78.85 55.83,78.69 55.68,78.54 55.68,78.69 55.52,78.69 55.37,78.85 55.06,78.85 54.91,78.85 54.75,79 
	54.6,79 54.44,79 54.44,79.15 54.29,79.31 54.14,79.31 53.98,79.46 53.98,79.62 53.83,79.77 53.68,79.77 53.52,79.77 53.37,79.92 
	53.37,80.08 53.21,80.23 53.21,80.38 53.21,80.54 53.06,80.69 53.06,80.85 52.91,81 52.91,81.15 52.75,81.15 52.75,81.46 
	52.91,81.62 52.91,81.77 52.91,81.92 52.91,82.08 52.75,82.23 52.75,82.38 52.6,82.54 52.44,82.69 52.44,82.85 52.44,83 
	52.29,83.15 52.14,83.31 52.14,83.46 52.14,83.62 52.14,83.77 52.29,83.92 52.29,84.08 52.44,84.23 52.6,84.23 52.6,84.38 
	52.6,84.54 52.44,84.69 52.44,84.85 52.44,85 52.44,85.15 52.6,85.31 52.75,85.31 52.75,85.46 52.75,85.62 52.75,85.77 52.91,85.77 
	52.91,85.92 52.91,86.08 53.06,86.08 52.91,86.23 52.91,86.38 52.91,86.54 52.91,86.69 52.91,86.85 52.91,87 52.75,87.15 
	52.91,87.15 52.91,87.31 52.75,87.31 52.91,87.31 53.06,87.46 53.06,87.62 53.06,87.77 53.06,87.92 52.91,88.08 52.75,88.08 
	52.6,88.23 52.44,88.23 52.29,88.23 52.29,88.38 52.29,88.54 52.14,88.54 51.98,88.69 52.14,89 52.14,89.15 51.98,89.31 
	51.98,89.46 51.83,89.31 51.68,89.46 51.52,89.46 51.52,89.62 51.52,89.77 51.37,89.77 51.37,89.92 51.21,89.92 51.06,89.92 
	50.91,89.92 50.75,89.92 50.75,90.08 50.6,90.08 50.6,90.23 50.44,90.08 50.29,90.08 50.14,90.08 49.98,90.08 49.83,90.08 
	49.68,90.23 49.52,90.23 49.37,90.23 49.21,90.23 49.21,90.38 49.37,90.54 49.37,90.69 49.37,90.85 49.52,91 49.52,91.31 
	49.37,91.46 49.37,91.62 49.21,91.62 49.21,91.77 49.21,91.92 49.21,92.08 49.21,92.23 49.06,92.23 48.91,92.38 48.91,92.54 
	48.75,92.54 48.6,92.69 48.44,92.69 48.29,92.69 48.14,92.69 47.98,92.69 47.98,92.85 47.98,93 47.98,93.15 47.83,93.15 
	47.68,93.15 47.68,93.31 47.68,93.46 47.52,93.46 47.37,93.46 47.37,93.62 47.21,93.62 47.06,93.62 46.91,93.62 46.75,93.62 
	46.6,93.46 46.44,93.46 46.44,93.62 46.29,93.62 46.14,93.62 45.98,93.62 45.83,93.62 45.83,93.77 45.68,93.77 45.37,93.77 
	45.21,93.77 45.06,93.77 45.06,93.92 44.91,94.08 44.75,94.23 44.75,94.38 44.6,94.54 44.75,94.69 44.75,94.85 44.75,95 44.6,95.15 
	44.44,95.31 44.29,95.31 44.14,95.46 43.83,95.62 43.68,95.62 43.68,95.77 43.52,95.92 43.37,95.92 43.37,96.08 43.21,95.92 
	43.06,95.92 42.91,95.92 42.75,95.92 42.6,96.08 42.6,96.23 42.6,96.38 42.6,96.54 42.6,96.69 42.44,96.85 42.29,96.85 42.14,96.85 
	41.98,96.85 41.83,96.85 41.68,96.85 41.68,96.69 41.68,96.54 41.68,96.38 41.52,96.23 41.52,96.08 41.37,95.92 41.37,95.77 
	41.37,95.62 41.21,95.46 41.21,95.31 41.21,95.15 41.21,95 41.37,94.85 41.21,94.85 41.37,94.69 41.37,94.54 41.21,94.38 
	41.06,94.23 41.06,94.08 40.91,93.92 40.91,93.77 41.06,93.62 40.91,93.46 40.91,93.31 40.91,93.15 40.75,93 40.75,92.85 
	40.75,92.69 40.75,92.54 40.6,92.54 40.44,92.38 40.44,92.23 40.29,92.08 40.44,91.92 40.29,91.77 40.29,91.62 40.14,91.46 
	39.98,91.46 39.98,91.31 39.83,91.31 39.83,91.15 39.83,91 39.68,91 39.68,90.85 39.52,90.69 39.21,90.69 39.06,90.54 38.91,90.54 
	38.91,90.38 38.91,90.23 38.91,90.08 38.75,90.08 38.6,90.08 38.6,89.92 38.44,89.92 38.29,89.77 38.44,89.77 38.44,89.62 
	38.29,89.62 38.29,89.46 38.14,89.46 38.14,89.31 38.14,89.15 38.29,89.15 38.29,89 38.29,88.85 38.14,88.85 38.14,88.69 
	37.98,88.69 37.83,88.69 37.68,88.69 37.52,88.54 37.37,88.38 37.37,88.23 37.37,88.08 37.21,87.92 37.21,88.08 37.06,88.23 
	36.91,88.23 36.91,88.08 36.91,87.92 36.91,87.77 36.91,87.62 36.91,87.46 37.06,87.46 37.06,87.31 37.06,87.15 36.91,87.15 
	36.75,87.15 36.6,87 36.44,86.85 36.29,86.85 36.14,86.85 36.14,86.69 35.83,86.69 35.83,86.54 35.68,86.54 35.68,86.69 
	35.52,86.69 35.37,86.69 35.21,86.69 35.21,86.54 35.21,86.38 35.37,86.38 35.37,86.23 35.21,86.23 35.06,86.23 35.06,86.08 
	34.91,86.08 35.06,85.92 35.06,85.77 35.06,85.62 35.06,85.46 35.21,85.46 35.21,85.31 35.06,85.15 34.91,85.15 34.75,85.15 
	34.6,85.15 34.6,85.31 34.44,85.31 34.6,85.15 34.44,85.15 34.29,85.31 34.29,85.46 34.14,85.46 33.98,85.46 33.83,85.46 
	33.68,85.46 33.52,85.46 33.37,85.46 33.21,85.46 33.21,85.62 33.06,85.62 32.91,85.77 32.75,85.77 32.75,85.62 32.6,85.62 
	32.6,85.46 32.6,85.31 32.44,85.31 32.29,85.31 32.29,85.15 32.29,85 32.29,84.85 32.14,84.85 32.14,84.69 32.14,84.54 31.98,84.54 
	31.83,84.38 31.68,84.38 31.68,84.23 31.52,84.23 31.52,84.08 31.37,83.92 31.37,83.77 31.37,83.62 31.37,83.46 31.37,83.31 
	31.21,83.15 31.06,83.15 31.06,83 30.91,83 30.75,83 30.6,82.85 30.44,82.85 30.29,82.85 30.29,82.69 30.29,82.54 30.29,82.38 
	30.14,82.38 29.98,82.38 29.98,82.23 29.98,82.08 29.83,81.92 29.68,81.92 29.68,82.08 29.52,82.08 29.52,81.92 29.37,81.77 
	29.21,81.62 29.06,81.46 29.06,81.62 28.91,81.77 28.75,81.62 28.6,81.62 28.6,81.46 28.6,81.31 28.6,81.15 28.6,81 28.6,80.85 
	28.6,80.69 28.6,80.54 28.44,80.38 28.44,80.23 28.44,80.08 28.29,79.92 28.29,79.77 28.14,79.62 28.14,79.46 28.29,79.31 
	28.44,79.31 28.44,79.15 28.6,79.15 28.75,79.15 28.91,79 29.06,79 29.21,78.85 29.37,78.69 29.52,78.54 29.52,78.38 29.52,78.23 
	29.68,78.23 29.68,78.08 29.83,78.08 29.83,77.92 29.83,77.77 29.68,77.77 29.68,77.62 29.83,77.62 29.98,77.62 29.98,77.46 
	30.14,77.46 30.14,77.31 30.29,77.31 30.29,77.15 30.44,77 30.44,76.85 30.6,76.85 30.75,76.85 30.75,76.69 30.6,76.69 30.44,76.54 
	30.44,76.38 30.44,76.23 30.44,76.08 30.29,75.92 30.29,75.77 30.14,75.77 30.14,75.62 30.14,75.46 30.29,75.31 30.44,75.15 
	30.44,75 30.44,74.85 30.44,74.69 30.44,74.54 30.44,74.38 30.44,74.23 30.44,74.08 30.44,73.92 30.44,73.77 30.44,73.62 
	30.44,73.46 30.44,73.62 30.6,73.62 30.75,73.62 30.75,73.46 30.91,73.31 30.91,73.15 30.91,73 30.91,72.85 30.91,72.69 
	31.06,72.69 31.21,72.54 31.37,72.38 31.21,72.38 31.21,72.23 31.37,72.23 31.37,72.08 31.52,72.08 31.52,71.92 31.68,71.92 
	31.68,71.77 31.68,71.62 31.83,71.46 31.83,71.31 31.98,71.31 32.14,71.31 32.14,71.15 32.29,71 32.29,70.85 32.14,70.85 
	32.14,70.69 31.98,70.69 31.98,70.54 31.98,70.38 31.98,70.23 31.83,70.23 31.83,70.08 32.14,69.92 32.29,69.92 32.44,69.92 
	32.6,69.77 32.75,69.62 32.91,69.62 33.06,69.62 33.21,69.62 33.21,69.77 33.37,69.77 33.52,69.77 33.68,69.77 33.68,69.92 
	33.83,70.08 33.98,70.08 34.14,70.23 34.29,70.23 34.44,70.23 34.6,70.08 34.6,69.92 34.6,69.77 34.75,69.77 34.91,69.77 
	35.06,69.62 35.06,69.46 35.21,69.46 35.37,69.46 35.52,69.62 35.68,69.46 35.68,69.62 35.83,69.62 35.98,69.62 36.14,69.62 
	36.29,69.62 36.44,69.62 36.6,69.77 36.75,69.77 36.75,69.92 36.91,69.92 36.91,70.08 36.91,70.23 37.06,70.23 37.21,70.38 
	37.21,70.23 37.37,70.23 37.37,70.08 37.37,69.92 37.37,69.77 37.37,69.62 37.52,69.62 37.52,69.46 37.52,69.31 37.52,69.15 
	37.52,69 37.52,68.85 37.68,68.85 37.83,68.85 37.83,68.69 37.83,68.54 37.83,68.38 37.83,68.23 37.98,68.23 37.98,68.08 
	38.14,67.92 38.29,67.92 38.29,67.77 38.44,67.62 38.44,67.46 38.6,67.31 38.44,67.31 38.44,67.15 38.29,67 38.29,66.85 
	38.14,66.69 38.29,66.54 38.29,66.69 38.44,66.69 38.44,66.54 38.6,66.54 38.75,66.54 38.75,66.38 38.91,66.38 39.06,66.23 
	39.21,66.08 39.37,65.92 39.52,65.92 39.52,66.08 39.68,66.08 39.68,65.92 39.83,65.77 39.83,65.62 39.83,65.46 39.83,65.31 
	39.83,65.15 39.98,65.15 39.98,65 40.14,64.85 40.29,64.85 40.29,64.69 40.29,64.54 40.44,64.54 40.44,64.38 40.6,64.38 
	40.75,64.23 40.6,64.23 40.6,64.08 40.6,63.92 40.6,63.77 40.44,63.77 40.29,63.77 40.14,63.77 40.14,63.62 39.98,63.62 
	39.98,63.46 39.83,63.46 39.83,63.31 39.83,63.15 39.68,63.15 39.52,63.15 39.37,63.15 39.21,63.15 39.21,63 39.21,62.85 
	39.06,62.69 39.06,62.54 39.21,62.54 39.21,62.38 39.06,62.38 39.06,62.23 39.21,62.23 39.21,62.08 39.37,61.92 39.37,61.77 
	39.37,61.62 39.52,61.62 39.68,61.46 39.68,61.31 39.52,61.31 39.52,61.15 39.37,61.15 39.37,61 39.37,60.85 39.21,60.85 
	39.21,60.69 39.37,60.54 39.52,60.54 39.52,60.38 39.52,60.23 39.52,60.08 39.37,60.08 39.37,59.92 39.21,59.77 39.21,59.62 
	39.21,59.46 39.37,59.46 39.52,59.46 39.52,59.31 39.68,59.31 39.68,59.15 39.68,59 39.68,58.85 39.83,58.85 39.83,58.69 
	39.68,58.69 39.52,58.54 39.37,58.38 39.21,58.23 39.06,58.08 39.06,57.92 38.91,57.92 38.75,57.92 38.6,57.77 38.6,57.62 
	38.75,57.46 38.75,57.31 38.75,57.15 38.75,57 38.91,57 38.91,56.85 38.91,56.69 38.91,56.54 39.06,56.54 39.21,56.38 39.37,56.38 
	39.52,56.38 39.52,56.23 39.52,56.08 39.52,55.92 39.37,55.77 39.37,55.62 39.52,55.62 39.52,55.46 39.52,55.31 39.68,55.31 
	39.68,55.15 39.83,55.15 39.83,55 39.98,55 39.98,54.85 39.98,54.69 39.98,54.54 39.98,54.38 39.98,54.23 39.83,54.08 39.83,53.92 
	39.98,53.92 39.98,53.77 40.14,53.77 40.29,53.77 40.44,53.62 40.44,53.77 40.75,53.77 40.91,53.62 40.91,53.46 40.91,53.31 
	40.91,53.15 40.91,53 40.91,52.85 40.91,52.69 40.75,52.54 40.6,52.54 40.6,52.38 40.6,52.23 40.44,52.23 40.29,52.08 40.14,51.92 
	39.98,51.92 39.83,52.08 39.68,52.08 39.52,52.08 39.37,52.08 39.21,52.08 39.06,52.08 39.06,51.92 39.06,51.77 39.21,51.77 
	39.21,51.62 39.06,51.62 39.06,51.46 39.06,51.31 39.06,51.15 38.91,51.15 38.75,51.15 38.6,51.15 38.44,50.85 38.29,50.85 
	38.14,50.85 38.14,50.69 37.98,50.69 37.98,50.54 37.83,50.38 37.68,50.38 37.52,50.23 37.37,50.23 37.21,50.23 37.06,50.23 
	36.91,50.23 36.75,50.23 36.6,50.08 36.44,50.08 36.29,50.08 36.14,50.08 36.14,49.92 35.98,49.77 35.83,49.62 35.52,49.62 
	35.37,49.62 35.21,49.62 35.06,49.62 34.91,49.62 34.75,49.62 34.75,49.46 34.75,49.31 34.91,49.15 34.91,49 35.06,48.85 
	34.91,48.85 34.91,48.69 35.06,48.69 35.21,48.69 35.37,48.54 35.37,48.38 35.52,48.23 35.83,48.08 35.83,47.92 35.98,47.92 
	36.14,47.92 36.29,47.92 36.29,47.77 36.29,47.46 36.29,47.31 36.29,47.15 36.14,47.15 36.29,47 36.29,46.85 36.44,46.85 
	36.6,46.85 36.75,46.69 36.91,46.69 36.91,46.54 37.06,46.54 37.06,46.38 37.21,46.38 37.21,46.23 37.37,46.23 37.68,46.38 
	37.83,46.38 37.98,46.23 38.14,46.23 38.14,46.08 38.29,46.08 38.44,46.23 38.6,46.23 38.75,46.23 39.06,46.23 39.06,46.08 
	39.21,46.08 39.37,46.08 39.37,45.92 39.52,45.92 39.52,45.77 39.68,45.77 39.83,45.77 39.98,45.77 39.98,45.62 40.14,45.62 
	40.14,45.46 40.29,45.46 40.44,45.31 40.44,45.15 40.6,45.15 40.6,45 40.75,45 40.91,45 40.91,44.85 40.91,44.69 40.75,44.69 
	40.75,44.54 40.6,44.54 40.6,44.38 40.6,44.23 40.44,44.23 40.44,44.08 40.29,44.08 40.14,44.08 40.14,43.92 39.98,43.92 
	39.83,43.92 39.83,43.77 39.83,43.62 39.98,43.46 40.14,43.46 40.14,43.15 39.98,43 39.98,42.85 39.83,42.85 39.83,42.69 
	39.83,42.54 39.83,42.38 39.83,42.23 39.83,42.38 39.68,42.38 39.68,42.23 39.68,42.08 39.68,41.92 39.52,41.92 39.52,41.77 
	39.37,41.77 39.37,41.62 39.37,41.46 39.37,41.31 39.21,41.31 39.06,41.15 38.91,41 38.91,40.85 38.91,40.69 39.06,40.54 
	39.06,40.38 39.21,40.23 39.37,40.08 39.52,40.08 39.52,39.92 39.52,39.77 39.52,39.62 39.37,39.62 39.06,39.62 38.91,39.46 
	38.75,39.46 38.6,39.46 38.6,39.31 38.6,39.15 38.44,39.15 38.29,39.15 38.29,39 38.14,39 38.14,38.85 37.98,38.85 37.83,38.85 
	37.68,38.85 37.68,39 37.52,38.85 37.37,39 37.21,39 37.06,39 36.91,39 36.75,39 36.6,39.15 36.44,39.31 36.29,39.31 36.14,39.31 
	36.14,39.15 35.98,39.15 35.83,39.15 35.68,39.15 35.68,39.31 35.52,39.31 35.52,39.15 35.37,39.15 35.37,39 35.21,39 35.06,39 
	35.06,39.15 34.91,39.15 34.91,39.31 34.91,39.46 34.75,39.46 34.6,39.46 34.44,39.31 34.29,39.31 34.14,39.46 33.98,39.46 
	33.83,39.46 33.68,39.62 33.52,39.77 33.37,39.77 33.37,39.92 33.21,39.92 33.06,39.92 32.91,39.92 32.75,40.08 32.6,40.08 
	32.6,40.23 32.44,40.08 32.44,40.23 32.29,40.38 32.29,40.23 32.14,40.23 32.14,40.38 31.98,40.23 31.83,40.08 31.68,40.08 
	31.52,39.92 31.37,39.92 31.21,40.08 31.06,40.08 30.91,40.08 30.75,40.08 30.6,39.92 30.44,39.77 30.44,39.62 30.44,39.46 
	30.44,39.31 30.29,39.31 30.14,39.31 30.14,39.15 29.98,39.15 29.83,39 29.83,38.85 29.68,38.85 29.68,39 29.52,39 29.52,38.85 
	29.37,38.85 29.21,38.85 29.06,38.69 28.91,38.69 28.91,38.54 28.75,38.54 28.75,38.38 28.6,38.38 28.44,38.38 28.44,38.23 
	28.44,38.08 28.44,37.92 28.29,37.92 28.29,37.77 28.14,37.77 28.14,37.62 28.14,37.46 27.98,37.31 27.83,37.31 27.83,37.15 
	27.68,37.15 27.52,37.15 27.37,37.15 27.37,37.31 27.37,37.15 27.21,37.15 27.06,37.15 27.06,37 26.91,37 26.75,37 26.75,36.85 
	26.6,36.85 26.6,37 26.6,36.85 26.44,37 26.44,37.15 26.6,37.15 26.6,37.31 26.6,37.46 26.6,37.62 26.44,37.62 26.44,37.77 
	26.29,37.92 26.14,37.92 25.98,37.92 25.83,37.92 25.83,38.08 25.83,38.23 25.68,38.23 25.52,38.23 25.52,38.38 25.37,38.54 
	25.21,38.54 25.06,38.54 24.91,38.54 24.75,38.54 24.75,38.69 24.75,38.85 24.75,39 24.75,39.15 24.6,39.15 24.6,39.31 24.75,39.46 
	24.75,39.62 24.75,39.77 24.6,39.92 24.6,40.08 24.6,40.23 24.44,40.54 24.29,40.54 23.98,40.38 23.83,40.54 23.67,40.38 
	23.37,40.38 23.21,40.38 23.06,40.38 22.91,40.38 22.75,40.38 22.6,40.38 22.44,40.23 22.29,40.23 22.14,40.08 21.98,40.08 
	21.67,40.23 21.67,40.38 21.52,40.54 21.52,40.69 21.21,40.69 21.21,40.85 21.21,41 21.06,41.15 20.91,41.31 20.75,41.31 
	20.6,41.31 20.44,41.31 20.29,41.15 20.14,41 19.98,40.85 19.83,40.85 19.83,40.69 19.83,40.54 19.83,40.38 19.83,40.23 
	19.83,40.08 19.67,39.92 19.52,39.92 19.21,39.92 19.21,39.77 19.21,39.62 19.21,39.46 19.06,39.46 18.91,39.46 18.75,39.46 
	18.75,39.31 18.6,39.31 18.44,39.31 18.44,39.15 18.29,39.15 18.29,39 18.29,38.85 18.29,38.69 18.14,38.69 17.98,38.69 
	17.98,38.54 17.83,38.69 17.83,38.85 17.83,39 17.67,39 17.67,39.15 17.83,39.15 17.83,39.31 17.83,39.46 17.83,39.62 17.67,39.77 
	17.67,39.92 17.52,40.08 17.52,40.23 17.52,40.38 17.52,40.54 17.67,40.54 17.83,40.69 17.83,40.85 17.67,40.85 17.52,41 17.37,41 
	17.06,41.15 16.91,41.15 16.91,41.31 16.75,41.46 16.44,41.62 16.29,41.46 16.14,41.31 15.98,41.15 15.98,41 15.98,40.85 
	15.83,40.69 15.83,40.54 15.67,40.38 15.67,40.23 15.67,40.08 15.52,39.92 15.52,39.77 15.52,39.62 15.52,39.46 15.52,39.31 
	15.67,39.31 15.67,39.15 15.67,39 15.52,39 15.52,38.85 15.52,38.69 15.52,38.54 15.37,38.54 15.37,38.38 15.37,38.23 15.37,38.08 
	15.21,38.08 15.21,37.92 15.21,37.77 15.06,37.62 15.06,37.46 15.06,37.31 14.91,37.31 14.91,37.15 15.06,37.15 15.06,37 14.91,37 
	14.91,36.85 14.75,36.85 14.75,36.69 14.75,36.54 14.6,36.38 14.75,36.38 14.75,36.23 14.75,36.08 14.75,35.92 14.6,35.92 
	14.6,35.77 14.75,35.77 14.75,35.62 14.75,35.46 14.91,35.46 15.06,35.46 15.21,35.46 15.21,35.31 15.21,35.15 15.21,35 
	15.21,34.85 15.37,34.69 15.37,34.85 15.37,35 15.37,35.15 15.37,35.31 15.37,35.46 15.52,35.46 15.52,35.62 15.52,35.77 
	15.52,35.92 15.67,35.92 15.67,36.08 15.67,36.23 15.83,36.38 15.98,36.38 16.14,36.38 16.14,36.23 16.29,36.23 16.44,36.23 
	16.6,36.08 16.75,35.92 16.91,35.92 17.06,36.08 17.06,35.92 17.21,35.92 17.21,35.77 17.37,35.62 17.37,35.77 17.52,35.77 
	17.52,35.92 17.67,35.92 17.83,35.92 17.98,35.92 18.14,35.92 18.29,35.92 18.29,35.77 18.44,35.77 18.6,35.77 18.6,35.92 
	18.75,35.92 18.75,35.77 18.91,35.77 19.06,35.77 19.21,35.77 19.37,35.77 19.52,35.77 19.67,35.77 19.67,35.46 19.83,35.46 
	19.83,35.31 19.98,35.31 19.98,35.15 20.14,35.15 20.29,35.15 20.44,35.15 20.6,35.15 20.75,35.15 20.91,35.15 21.06,35.15 
	21.21,35.15 21.37,35.15 21.52,35 21.52,34.85 21.67,34.85 21.67,34.69 21.67,34.54 21.67,34.38 21.83,34.38 21.83,34.23 
	21.83,34.08 21.98,33.92 21.98,33.77 22.14,33.77 22.14,33.62 22.29,33.62 22.44,33.62 22.6,33.62 22.75,33.62 22.91,33.62 
	23.06,33.62 23.06,33.46 23.06,33.31 22.91,33.31 22.91,33.46 22.75,33.31 22.75,33.15 22.6,33.15 22.6,33 22.75,33 22.91,33 
	23.06,33 23.06,32.85 22.91,32.85 22.75,32.85 22.75,32.69 22.91,32.69 22.91,32.54 22.91,32.38 22.91,32.23 22.75,32.23 
	22.75,32.08 22.75,31.92 22.91,31.92 22.91,31.77 22.75,31.77 22.6,31.77 22.44,31.77 22.44,31.62 22.29,31.62 22.29,31.46 
	22.29,31.31 22.29,31.15 22.29,31 22.44,31 22.6,31 22.44,31 22.44,30.85 22.29,30.85 22.29,30.69 22.29,30.54 22.44,30.54 
	22.6,30.54 22.75,30.54 22.91,30.54 22.91,30.38 22.75,30.38 22.75,30.23 22.75,30.08 22.75,29.92 22.75,29.77 22.91,29.77 
	22.91,29.62 22.91,29.46 22.91,29.31 22.91,29.15 22.75,29.15 22.75,29 22.91,29 22.91,28.85 22.75,28.85 22.6,28.85 22.6,28.69 
	22.44,28.69 22.44,28.54 22.44,28.38 22.44,28.23 22.44,28.08 22.44,27.92 22.29,27.92 22.29,27.77 22.29,27.62 22.29,27.46 
	22.44,27.31 22.44,27.15 22.29,27.15 22.14,27.15 22.14,27 22.14,26.85 22.14,26.69 21.98,26.69 21.98,26.54 21.98,26.38 
	22.14,26.38 22.29,26.38 22.29,26.23 22.14,26.23 22.14,26.08 22.14,25.92 22.14,25.77 22.14,25.62 22.29,25.62 22.29,25.46 
	22.29,25.31 22.29,25.15 22.29,25 22.29,24.85 22.29,24.69 22.29,24.54 22.44,24.54 22.44,24.38 22.44,24.23 22.44,24.08 
	22.6,24.08 22.6,23.92 22.75,23.92 22.75,23.77 22.75,23.62 22.75,23.46 22.91,23.46 23.06,23.46 23.06,23.31 23.21,23.31 
	23.21,23.15 23.21,23 23.21,22.85 23.21,22.69 23.37,22.69 23.37,22.54 23.37,22.38 23.52,22.38 23.67,22.23 23.67,22.38 
	23.83,22.38 23.83,22.54 23.98,22.54 24.14,22.54 24.14,22.38 24.29,22.38 24.29,22.54 24.44,22.54 24.6,22.54 24.75,22.54 
	24.75,22.69 24.91,22.69 24.91,22.54 25.06,22.54 25.06,22.38 25.21,22.38 25.21,22.23 25.21,22.08 25.06,21.92 25.21,21.92 
	25.21,21.77 25.21,21.92 25.37,21.92 25.37,21.77 25.52,21.77 25.68,21.77 25.68,21.92 25.83,21.92 25.83,21.77 25.98,21.62 
	25.98,21.46 25.98,21.31 25.83,21.31 25.98,21.31 25.98,21.15 25.98,21 25.98,20.85 25.98,20.69 26.14,20.54 26.14,20.38 
	26.14,20.23 26.29,20.23 26.29,20.38 26.44,20.38 26.6,20.38 26.6,20.54 26.6,20.38 26.75,20.38 26.91,20.38 27.06,20.38 
	27.06,20.23 27.06,20.08 27.06,19.92 26.91,19.77 26.91,19.62 26.91,19.46 27.06,19.46 27.06,19.31 27.21,19.31 27.21,19.15 
	27.21,19 27.21,18.85 27.37,18.69 27.52,18.69 27.68,18.69 27.83,18.85 27.98,18.85 28.14,18.85 28.29,18.85 28.44,18.85 
	28.6,18.85 28.75,18.85 28.75,19 28.91,19 29.06,19 29.21,19 29.37,19.15 29.52,19.15 29.52,19 29.68,19 29.68,18.85 29.68,18.69 
	29.68,18.54 29.83,18.54 29.98,18.54 30.14,18.38 30.29,18.38 30.29,18.23 30.44,18.23 30.44,18.08 30.6,18.08 30.6,17.92 
	30.75,17.77 30.91,17.62 31.06,17.46 31.21,17.31 31.21,17.15 31.68,16.85 31.98,16.69 32.29,16.23 32.91,15.77 33.21,15.46 
	33.37,15.31 33.37,15.15 33.52,15.15 33.68,15 33.68,14.85 33.83,14.69 34.14,14.54 34.14,14.38 34.44,14.08 34.6,13.92 34.6,13.77 
	34.75,13.77 34.75,13.62 34.91,13.62 34.91,13.46 35.06,13.46 35.21,13.46 35.37,13.46 35.52,13.46 35.68,13.31 35.83,13.15 
	35.83,13 35.83,12.85 35.98,12.85 35.98,12.69 36.14,12.69 36.14,12.54 36.29,12.54 36.44,12.54 36.6,12.54 36.6,12.38 36.6,12.23 
	36.6,12.08 36.6,11.92 36.6,11.77 36.6,11.62 36.75,11.46 36.75,11.31 36.75,11.15 36.91,11.15 36.91,11 39.52,9.62 39.37,9.46 
	39.37,9.31 39.21,9 39.06,8.69 38.75,8.38 38.6,8.38 38.44,8.23 38.29,8.23 38.14,8.23 38.14,8.08 37.98,8.08 37.83,7.92 
	37.68,7.77 37.52,7.77 37.37,7.77 37.37,7.62 37.37,7.46 37.37,7.31 37.21,7.31 37.21,7.15 37.37,7.15 37.52,7 37.68,7 37.83,7 
	37.98,6.85 38.14,6.69 38.29,6.69 38.29,6.54 38.29,6.38 38.44,6.23 38.44,6.08 38.6,6.08 38.6,5.92 38.75,5.92 38.91,5.92 
	38.91,5.77 39.06,5.77 39.21,5.92 39.37,5.92 39.52,5.92 39.52,6.08 39.68,6.23 39.83,6.38 39.98,6.54 40.14,6.69 40.29,6.85 
	40.44,7 40.6,7 40.75,7.31 40.91,7.31 41.06,7.46 41.21,7.62 41.37,7.62 41.52,7.62 41.68,7.62 41.83,7.62 41.98,7.62 42.14,7.62 
	42.44,7.46 42.6,7.46 42.75,7.46 42.91,7.46 43.06,7.62 43.21,7.62 43.21,7.77 43.37,7.77 43.52,7.77 43.52,7.92 43.68,8.08 
	43.83,8.08 43.98,8.08 44.14,8.08 44.29,8.08 44.44,8.08 44.6,8.08 44.75,8.08 44.75,8.23 44.91,8.23 45.06,8.38 45.21,8.38 
	45.37,8.54 45.52,8.54 45.68,8.54 45.83,8.54 45.98,8.38 46.14,8.38 46.14,8.54 46.29,8.54 46.44,8.54 46.6,8.54 46.75,8.54 
	46.91,8.54 47.06,8.54 47.06,8.69 47.21,8.69 47.37,8.69 47.52,8.69 47.68,8.69 47.83,8.69 47.98,8.69 48.14,8.69 48.29,8.85 
	48.44,8.85 48.6,8.69 48.75,8.69 48.91,8.54 49.06,8.54 49.06,8.38 49.21,8.23 49.37,8.08 49.37,7.92 49.52,7.77 49.52,7.62 
	49.68,7.46 49.83,7.46 49.98,7.31 50.14,7 50.14,6.85 50.29,6.85 50.29,6.69 50.29,6.54 50.44,6.54 50.44,6.38 50.44,6.23 
	50.6,6.08 50.6,5.92 50.6,5.77 50.6,5.62 50.75,5.46 50.75,5.31 50.91,5.31 51.06,5 51.21,5 51.21,4.85 51.37,4.69 51.52,4.54 
	51.68,4.54 51.68,4.38 51.83,4.38 51.83,4.54 51.98,4.54 51.98,4.69 52.14,4.69 52.29,4.69 52.6,4.54 52.75,4.54 52.91,4.54 
	52.91,4.38 53.06,4.38 53.21,4.38 53.37,4.38 53.52,4.23 53.68,4.23 53.68,4.08 53.83,4.08 53.83,3.92 53.98,3.92 53.98,3.77 
	54.14,3.77 54.14,3.62 54.14,3.46 54.29,3.46 54.29,3.31 54.29,3.15 54.29,3 54.29,2.85 54.29,2.69 54.29,2.54 54.29,2.38 
	54.44,2.38 54.44,2.23 54.6,2.23 54.75,2.23 54.91,2.23 54.91,2.08 54.75,2.08 54.6,2.08 54.6,1.92 54.6,1.77 54.75,1.77 
	54.75,1.62 54.6,1.46 54.44,1.31 54.44,1.15 54.44,1 54.6,1.15 54.75,1.15 54.91,1.15 55.06,1 55.21,0.85 55.37,0.85 55.37,1 
	55.52,1 55.52,1.15 55.68,1.31 55.83,1.31 55.98,1.31 55.98,1.46 55.98,1.62 55.98,1.77 55.83,1.77 55.68,1.77 55.52,1.92 
	55.37,1.92 55.37,2.08 55.37,2.38 55.21,2.38 55.21,2.54 55.37,2.69 55.37,2.85 55.52,3.15 55.68,3.31 55.83,3.31 55.83,3.46 
	55.98,3.62 55.98,3.77 56.14,3.92 56.14,4.08 56.14,4.23 56.14,4.38 56.14,4.69 56.14,4.85 56.14,5 56.14,5.15 55.98,5.15 
	55.98,5.31 56.14,5.46 56.29,5.77 56.29,6.08 56.45,6.08 56.6,6.38 56.6,6.54 56.45,6.69 56.29,6.69 56.14,6.69 55.98,6.69 
	55.83,6.69 55.83,6.85 55.68,6.85 55.68,7 55.52,7 55.52,7.15 55.68,7.46 55.68,7.62 55.68,7.77 55.68,7.92 55.68,8.08 55.68,8.23 
	55.68,8.38 55.83,8.54 55.98,8.54 55.98,8.69 55.98,8.85 56.14,8.85 56.14,9 56.14,9.15 56.14,9.31 56.29,9.31 56.29,9.46 
	56.29,9.62 56.29,9.77 56.14,9.77 56.14,9.92 56.14,10.08 56.14,10.23 56.14,10.38 56.29,10.38 56.29,10.54 56.45,10.54 
	56.29,10.69 56.29,10.85 56.29,11 56.29,11.15 56.29,11.31 56.45,11.31 56.6,11.31 56.75,11.31 56.91,11.31 56.91,11.46 
	57.06,11.46 57.21,11.46 57.37,11.46 57.37,11.31 57.52,11.15 57.68,11.15 59.98,12.38 59.98,12.23 59.98,12.08 60.14,11.92 
	60.29,11.77 60.45,11.77 60.75,11.77 61.52,11.77 61.68,11.77 61.83,11.77 61.83,11.62 61.98,11.62 62.14,11.62 62.29,11.46 
	62.45,11.31 62.6,11.31 62.75,11.31 62.91,11.31 63.06,11.31 63.21,11.31 63.37,11.31 63.52,11.31 63.52,11.15 63.68,11.15 
	63.68,11.31 63.68,11.15 63.68,11 63.83,11 63.83,11.15 63.98,11.15 64.14,11.15 64.29,11.15 64.29,11 64.45,11 64.6,11 64.75,11 
	64.75,10.85 64.91,10.85 65.06,10.85 65.06,10.69 65.21,10.69 65.37,10.69 65.37,10.54 65.21,10.54 65.21,10.38 65.37,10.38 
	65.52,10.23 65.68,10.23 65.83,10.23 65.83,10.08 65.83,9.92 65.98,9.92 66.14,9.92 66.14,9.77 66.29,9.77 66.45,9.62 66.6,9.46 
	66.6,9.31 66.75,9.31 66.75,9.15 66.75,9.31 66.75,9.15 66.91,9.15 67.06,9 67.21,8.85 67.37,8.85 67.68,8.85 67.83,8.85 
	67.98,8.85 68.14,9 68.29,9 68.45,9 68.6,9 68.6,9.15 68.75,9.46 68.91,9.46 69.06,9.46 69.06,9.62 69.21,9.77 69.37,9.77 
	69.37,9.92 69.52,9.77 69.52,9.92 69.37,9.92 69.37,10.08 69.52,10.23 69.68,10.23 69.68,10.38 69.83,10.38 69.98,10.38 
	69.98,10.23 70.14,10.23 70.14,10.08 70.14,9.92 70.14,9.77 70.29,9.77 70.29,9.92 70.45,9.92 70.45,9.77 70.29,9.77 70.29,9.62 
	70.45,9.62 70.45,9.46 70.6,9.46 70.6,9.31 70.6,9.15 70.6,9 70.6,8.85 70.6,8.69 70.45,8.54 70.6,8.54 70.75,8.54 70.91,8.54 
	71.06,8.54 71.21,8.54 71.37,8.54 71.52,8.54 71.52,8.69 71.68,8.69 71.83,8.69 71.83,8.85 71.83,8.69 71.98,8.69 71.98,8.85 
	72.14,8.85 72.14,8.69 72.14,8.54 71.98,8.54 72.14,8.54 72.29,8.54 72.45,8.54 72.29,8.38 72.45,8.38 72.6,8.38 72.75,8.38 
	72.6,8.23 72.75,8.08 72.75,8.23 72.91,8.23 72.91,8.08 73.06,8.08 73.21,8.08 73.21,7.92 73.37,7.92 73.37,8.08 73.37,7.92 
	73.37,7.77 73.52,7.77 73.52,7.92 73.52,8.08 73.52,7.92 73.68,7.92 73.68,7.77 73.83,7.77 73.68,7.77 73.68,7.92 73.68,8.08 
	73.83,8.23 73.68,8.23 73.68,8.38 73.83,8.38 73.98,8.23 74.14,8.23 74.29,8.08 74.29,7.92 74.45,7.92 74.6,7.92 74.75,7.92 
	74.75,8.08 74.91,8.08 75.06,8.08 75.21,8.08 75.21,8.23 75.21,8.38 75.37,8.38 75.37,8.54 75.52,8.69 75.68,8.85 75.83,9 75.98,9 
	75.98,9.15 76.14,9.15 76.14,9.31 76.14,9.46 76.14,9.62 76.14,9.77 75.98,9.92 75.83,10.08 75.83,10.23 75.83,10.38 75.98,10.38 
	76.14,10.54 76.45,10.69 76.6,10.85 76.6,11 76.75,11.15 76.75,11.31 76.75,11.46 76.91,11.62 76.91,11.77 77.06,11.92 77.21,12.08 
	77.37,12.23 77.52,12.23 77.68,12.23 77.83,12.23 78.14,12.23 78.29,12.23 78.45,12.23 78.6,12.23 78.75,12.23 78.91,12.38 
	79.06,12.38 79.21,12.38 79.37,12.54 79.52,12.69 79.68,12.69 79.98,12.69 80.14,12.69 80.29,12.54 80.45,12.54 80.6,12.38 
	80.75,12.38 80.91,12.38 80.91,12.23 81.06,12.23 81.21,12.23 81.52,12.23 81.68,12.08 81.83,11.92 81.98,11.77 81.98,11.62 
	82.14,11.46 82.29,11.31 "/>
</svg>
