<?xml version="1.0" encoding="utf-8"?>
<!-- Generator: Adobe Illustrator 24.2.1, SVG Export Plug-In . SVG Version: 6.00 Build 0)  -->
<svg version="1.1" id="Layer_1" xmlns="http://www.w3.org/2000/svg" xmlns:xlink="http://www.w3.org/1999/xlink" x="0px" y="0px"
	 viewBox="0 0 97.23 97.23" style="enable-background:new 0 0 97.23 97.23;" xml:space="preserve">
<style type="text/css">
	.st0{fill-rule:evenodd;clip-rule:evenodd;}
</style>
<g>
	<path class="st0" d="M28.57,54.51h-0.06v0.06h0.06V54.51L28.57,54.51z M41.33,31.37v-0.06h23.83h0.06v0.06h0.06v0.06v0.06h-0.06
		h-0.06v0.06h-0.06v0.06v0.06v0.06l-0.06,0.06v0.06v0.06h-0.06l-0.06,0.06l0.06,0.06v0.06h0.06v0.06v0.06l-0.06,0.06v0.06v0.06
		l0.06,0.06v0.06v0.06h0.06v0.06l0.06,0.06h0.06h0.06v0.06h0.06l0.06,0.06v0.06v0.06h0.06v0.06V33v0.06v0.06v0.06v0.06v0.12
		l0.06,0.06v0.06v0.06h0.06v0.06h-0.06l0.06,0.06v0.06v0.06v0.06l0.06,0.06v0.06h-0.06v0.06h-0.06v0.06v0.06h-0.06l0.06,0.06v0.06
		v0.06v0.06h0.06l0.06,0.06v0.06h0.06l0.06,0.06h0.06v0.06v0.06v0.06l0.06,0.06l0.06,0.06l0.06,0.06v0.06l0.06,0.06v0.06l0.06,0.06
		v0.06h0.06v0.06l0.06,0.06v0.12h0.06v0.06v0.12l0.06,0.06h0.06l0.06-0.06h0.06h0.06l0.06,0.06l0.06,0.06h0.06h0.06l0.06,0.06
		l0.06,0.06v0.06v0.06v0.12v0.06v0.06l0.06,0.06h0.06l0.06,0.06h0.06l0.06-0.06h0.06h0.06l0.06,0.06h0.06l0.06,0.06h0.06v0.06
		l-0.06,0.06v0.06v0.06h0.06v0.06v0.06l-0.06,0.06v0.06v0.06v0.06v0.06l0.06,0.12v0.06l0.06,0.06v0.12l0.06,0.06v0.06v0.06v0.06
		v0.06l0.06,0.06v0.06v0.06v0.06h0.06h0.06l0.06,0.06v0.06h0.06v0.12v0.06v0.12v0.06l0.06,0.12h0.06v0.06v0.06h-0.06v0.06h-0.06
		h-0.06h-0.06v0.06h-0.06v0.06v0.06h-0.06h-0.06L67.6,38.8l-0.12,0.06h-0.06v0.06h-0.06h-0.06l-0.06,0.06v0.06l-0.06,0.06v0.06h0.06
		v0.06v0.06v0.06l-0.06,0.06l0.06,0.06l0.06,0.06l0.06,0.06v0.06h-0.06v0.06v0.06v0.06l-0.06,0.06v0.06h0.06l0.06,0.06h0.06v0.06
		h0.06v0.06h0.06v0.06l0.06,0.06v0.06v0.06v0.06h0.06v0.06H67.6v0.06v0.06v0.06v0.06h-0.06l0.06,0.06l-0.06,0.06v0.06l-0.06,0.06
		v0.06L67.43,41v0.06l-0.06,0.06v0.06v0.06v0.06h0.06l0.06,0.06v0.06l0.06,0.06v0.06v0.06v0.06v0.06h0.06v0.06v0.06l-0.06,0.06v0.06
		h0.06v0.06h0.06v0.06v0.06v0.06v0.06H67.6v0.06h0.06h0.06v0.06h0.06v0.06v0.06l-0.06,0.06l-0.06,0.06H67.6v0.06l0.06,0.06v0.06
		v0.06v0.06H67.6v0.06v0.06h-0.06l-0.06,0.06l-0.06,0.06l-0.06,0.06l-0.06,0.06l-0.06,0.06v0.06H67.2l-0.06,0.06h-0.12l-0.06,0.06
		h-0.06l-0.06,0.06h-0.06v0.06h-0.06v0.06h-0.06h-0.06v0.06h-0.06v0.06v0.06v0.06L66.5,43.9v0.06v0.06v0.06v0.06l0.06,0.06v0.06
		l0.06,0.06v0.06v0.06h-0.06v0.06v0.06h0.06v0.06l0.06,0.06v0.06v0.06v0.06v0.06v0.06V45h0.06v0.06v0.06v0.06v0.06h0.06v0.06h0.06
		h0.06v0.06v0.06l0.06,0.06v0.06v0.06v0.06v0.06h0.06v0.06h0.06v0.06h0.06v0.06v0.06v0.06h-0.06l-0.06,0.06v0.06v0.06v0.06v0.06
		v0.06l0.06,0.06v0.06v0.06h0.06v0.06v0.06v0.06v0.06v0.06v0.06l-0.06,0.06l-0.06,0.06h-0.06h-0.06l-0.06,0.06v0.06l-0.06,0.06
		h-0.06l-0.06,0.06v0.06l-0.06,0.06l-0.06,0.06H66.5h-0.06v0.06l-0.06,0.06v0.06v0.06l0.06,0.06v0.12l-0.06,0.06l-0.06,0.06v0.06
		v0.06h-0.06v0.06h-0.06h-0.06v0.06l0.06,0.06v0.06v0.06v0.06v0.06l-0.06,0.06h-0.06l-0.06,0.06h-0.06l-0.06,0.06v0.06l0.06,0.06
		v0.06l0.06,0.06v0.06h-0.06l-0.06,0.06V49l-0.06,0.06l-0.06,0.06h-0.06v0.06h0.06v0.06h0.06v0.06v0.06v0.06h0.06v0.06v0.06
		l0.06,0.06l-0.06,0.06v0.06h0.06l0.06,0.06h0.06v0.06h0.06v0.06h0.06v0.06h0.06l0.06,0.06v0.06l0.06,0.06h0.06v0.06h-0.06v0.06
		h-0.06h-0.06v0.06v0.06h-0.06h-0.06h-0.06v-0.06h-0.06v0.06h-0.06h-0.06l-0.06,0.06v0.06v0.06v0.06H65.8v0.06h-0.06v0.06v0.06v0.06
		v0.06l0.06,0.06l-0.06,0.06v0.06h0.06l0.06,0.06v0.06l-0.06,0.06v0.06l-0.06,0.06v0.06h0.06l0.06,0.06h0.06h0.06l0.06,0.06h0.06
		h0.06h0.06h0.06h0.06l0.06-0.06h0.06l0.06,0.06v0.06h0.06h0.06l0.06,0.06v0.06l0.06,0.06l0.06,0.06v0.06v0.06h-0.06l-0.06,0.06
		h0.06v0.06l-0.06,0.06l-0.06,0.06v0.06h-0.06H66.5h-0.06v0.06v0.06l0.06,0.06l0.06,0.06l-0.06,0.06v0.06v0.06l0.06,0.06v0.06H66.5
		h-0.06l-0.06,0.06h-0.06v0.06h-0.06v0.06l-0.06-0.06h-0.06l-0.06-0.06l-0.06,0.06h-0.06h-0.06l-0.06,0.06v0.06l-0.06,0.06v0.12
		v0.06h-0.06l0.06,0.06v0.06v0.06v0.06v0.06v0.06v0.06h-0.06v0.06v0.06v0.06v0.06v0.06v0.06l-0.06,0.06l-0.06,0.06v0.06v0.06h-0.06
		h-0.06l-0.06,0.06v0.06H65.4h-0.06h-0.06h-0.06l-0.06-0.06l-0.12-0.06h-0.12h-0.12h-0.06v-0.06H64.7v-0.06l-0.06-0.06l-0.06-0.06
		v-0.06l-0.06-0.06l-0.06-0.06h-0.06l-0.06-0.06l-0.06-0.06h-0.06l-0.06-0.06l-0.06-0.06l-0.06-0.06h-0.06v-0.06v-0.06V53.3
		l-0.06-0.06h-0.06v-0.06l-0.06-0.06h-0.06l-0.06-0.06v-0.06l-0.06-0.06H63.6h-0.06h-0.06h-0.06h-0.06v-0.06h-0.06h-0.06v-0.06
		l-0.06-0.06v-0.06l-0.06-0.06l-0.06-0.06h-0.06h-0.06H62.9h-0.06l-0.06-0.06l-0.06-0.06l-0.06-0.06h-0.06l-0.06-0.06H62.5h-0.06
		h-0.06h-0.06v-0.06h-0.06v-0.06v-0.06v-0.06h0.06v-0.06v-0.06l0.06-0.06V51.9l0.06-0.06l-0.06-0.06h0.06v-0.06h0.06v-0.06v-0.06
		h0.06h0.06l0.06-0.06h0.06V51.5h0.06v-0.06v-0.06h-0.06v-0.06v-0.06h-0.06v-0.06h0.06v-0.06v-0.06h-0.06v-0.06l0.06-0.12v-0.06
		V50.8v-0.06h-0.06v-0.06v-0.06v-0.06v-0.06l0.06-0.06V50.4v-0.06v-0.06v-0.06h-0.06h-0.06h-0.06H62.5h-0.06h-0.06h-0.06l-0.06-0.06
		h-0.06v-0.06h-0.06v-0.06h-0.06v-0.06h-0.06h-0.06h-0.06h-0.06v-0.06v-0.06v-0.06v-0.06L61.8,49.7h-0.06h-0.06v-0.06h-0.06v-0.06
		h-0.06l-0.06-0.06h-0.06v-0.06l-0.06-0.06h-0.06l-0.06-0.06v-0.06v-0.06v-0.06v-0.06h-0.06v-0.06V49v-0.06h0.06v-0.06v-0.06v-0.06
		h0.06v-0.06v-0.06V48.6v-0.06h-0.06l0.06-0.06v-0.06h-0.06v-0.06h-0.06v0.06h-0.06v-0.06h-0.06h-0.06h-0.06l-0.06,0.06h-0.06h-0.06
		h-0.06H60.7h-0.06h-0.06h-0.06h-0.06v-0.06h-0.06h-0.06h-0.06l-0.06-0.06h-0.06v0.06h-0.06h-0.06v0.06H60h-0.06v0.06h-0.06v0.06
		h-0.06h-0.06l-0.06,0.06h-0.06H59.6l-0.06,0.06v0.06h-0.06v0.06v0.06h-0.06v0.06h-0.06v0.06h-0.06V49l-0.06,0.06v0.06v0.06
		l-0.06,0.06l-0.06-0.06h-0.06v0.06h-0.06h-0.06v0.06H58.9h-0.06v0.06h-0.06v-0.06h-0.06l-0.06,0.06h-0.06h-0.06v-0.06H58.5h-0.06
		h-0.06h-0.06v0.06h-0.06h-0.06h-0.06h-0.06h-0.06v-0.06h-0.06h-0.06h-0.06H57.8h-0.06v-0.06h-0.06h-0.06v0.06l0.06,0.06h-0.06v0.06
		l0.06,0.06v0.06l-0.06,0.06v0.06l-0.06,0.06v0.06v0.06h-0.06v-0.06l-0.06-0.06v0.06v0.06H57.4v0.06h-0.06v-0.06h-0.06v-0.06h-0.06
		l-0.06-0.06h-0.06h-0.06h-0.06h-0.12l-0.06,0.06h-0.06L56.7,49.7h-0.06h-0.12h-0.06h-0.06l-0.06-0.06h-0.06h-0.06h-0.06h-0.06
		h-0.06L56,49.58h-0.06l-0.12-0.06h-0.06h-0.06h-0.06H55.6h-0.06v0.06v0.06h-0.06v0.06l-0.06,0.06v0.06l-0.06,0.06v0.06v0.06v0.06
		v0.06v0.06v0.06v0.06v0.06v0.06v0.06v0.06h-0.06l-0.06,0.06h-0.06v0.06h-0.06v0.06h-0.06v0.06h-0.06h-0.06H54.9h-0.06l-0.17,0.12
		H54.5l-0.06,0.17l-0.12,0.12l-0.06,0.17h-0.06l-0.06,0.17l-0.06,0.06v0.06v0.06v0.06l0.06,0.06v0.06h0.06v0.06v0.06l-0.06,0.06
		l-0.06,0.06v0.06h-0.06h-0.06l-0.06,0.06h-0.06v0.06H53.8v0.06v0.06v0.06h-0.06v0.06h-0.06v0.06v0.06v0.06v0.06v0.06h-0.06h-0.06
		v0.06h-0.06v0.06v0.06v0.06v0.06h-0.06v0.06h-0.06v0.06v0.06l-0.06,0.06h-0.06v-0.06h-0.06v0.06h-0.06v0.06v0.06l-0.06,0.06v0.06
		h-0.06v0.06v0.06v0.06v0.06v0.06h-0.06v0.06h0.06v0.06h0.06v0.06h-0.06h-0.06h-0.06l-0.06,0.06l-0.06,0.06h-0.06l-0.06,0.06v0.06
		h-0.06v-0.06h-0.06h-0.06h-0.06l-0.06,0.06l-0.06,0.06l-0.06,0.06l-0.06,0.06v0.06h-0.06h-0.06l-0.06,0.06H52v0.06h-0.12
		l-0.06,0.06h-0.06l-0.06,0.06v0.06h-0.06L51.6,54.8h-0.06l-0.06,0.06l-0.06,0.06h-0.06v0.06l-0.06,0.06h-0.06h-0.06v-0.06
		l-0.06-0.06v-0.06h-0.06h-0.06h-0.06l-0.06,0.06l-0.06,0.06h-0.06v0.06h-0.06v0.06v0.06v0.06v0.06v0.06l-0.06,0.06h-0.06v0.06
		h-0.06l-0.06-0.06h-0.06h-0.06h-0.06h-0.06v0.06H50.2v0.06v0.06l-0.06,0.06v0.06v0.06l-0.06,0.06h-0.06v0.06l-0.06,0.06l-0.06,0.06
		h-0.06H49.8l-0.06,0.06h-0.06l-0.06,0.06h-0.06l-0.06,0.06v0.06l-0.06,0.06h-0.06v0.06h-0.06h-0.06v0.06h-0.06v0.06v0.06v0.06v0.06
		v0.06v0.06h-0.06H49.1h-0.06v-0.06h-0.06h-0.06h-0.06v0.06v0.06h-0.06v0.06h-0.06v0.06v0.06H48.7v0.06h-0.06h-0.06h-0.06h-0.06
		v-0.06h-0.06h-0.06h-0.06v0.06h-0.06h-0.06v0.06h-0.06h-0.06L48,57.12h-0.06v0.06h-0.06v0.06v0.06h-0.06v0.06l-0.06,0.06
		l-0.06,0.06v0.06l-0.06,0.06h-0.06v0.06h-0.06h-0.06v-0.06h-0.06l-0.06-0.06H47.3h-0.06l-0.06,0.06h-0.06v0.06h-0.06l-0.06,0.06
		h-0.06H46.9h-0.06v-0.06v-0.06h-0.06v-0.06l-0.06-0.06h-0.06v-0.06h-0.06v-0.06h-0.06l-0.06-0.06h-0.06l-0.06-0.06h-0.06
		l-0.06,0.06v0.06v0.06v0.12H46.2v0.06h-0.06v0.06h-0.06h-0.06l-0.06-0.06l-0.06-0.06v-0.06v-0.06v-0.06h-0.06H45.8l-0.06,0.06
		l-0.06,0.12l-0.06,0.06v0.06l-0.06,0.06v0.06v0.06v0.06l-0.06,0.06v0.06h-0.06l-0.06,0.06l-0.06,0.06v0.06l-0.06,0.06v0.06h0.06
		v0.06v0.06h0.06h0.06h0.06h0.06l0.06-0.06l0.06-0.06l0.06-0.06h0.06l0.06,0.06l-0.06,0.06v0.06l-0.06,0.12l-0.12,0.12l-0.06,0.06
		v0.06l-0.06,0.12l-0.06,0.06l-0.06,0.06h-0.06h-0.06v0.06h-0.06v0.06h-0.06v0.06v0.06l-0.06,0.06v0.06v0.12v0.06v0.06l-0.06,0.06
		l-0.06,0.06v0.06h-0.06v0.06v0.06v0.06l0.06,0.06l0.06,0.06l0.06,0.06h0.06v0.06l0.06,0.06v0.06h0.06l0.06,0.12l0.06,0.06v0.06
		l0.06,0.06v0.06v0.06h0.06v0.06l0.06,0.06v0.06h0.06v0.06v0.06v0.06v0.06v0.06h-0.06h-0.06h-0.06h-0.06l-0.06-0.06l-0.06-0.06
		h-0.06h-0.06H45.1h-0.06l-0.06,0.06l-0.06,0.06l-0.06,0.06l-0.06,0.06h-0.06h-0.06h-0.06h-0.06v0.06v0.06l0.06,0.06l0.06,0.06v0.06
		l0.06,0.06v0.06l-0.06,0.06v0.06h-0.06v0.06h0.06v-0.06h0.06h0.06h0.06v0.06h0.06v0.06h0.06l0.06,0.06v0.06h0.06v0.06v0.06h0.06
		h0.06v0.06h0.06h0.06h0.06v0.06l0.06,0.06h0.06v0.06v0.06h0.06v0.06h0.06h0.06l0.06,0.06h0.06h0.06h0.06l0.06,0.06h0.12h0.06
		l0.06,0.06v0.06l0.06,0.06h0.06v0.06v0.06v0.06l0.06,0.06l0.06,0.06l0.06,0.06l0.06,0.06v0.06h0.06l0.06,0.06l0.06,0.06h0.06h0.06
		h0.06h0.06v0.06h0.06l0.06,0.06h0.06h0.06l0.06,0.06h0.06h0.06l0.06,0.06h0.06l0.06,0.06h0.06h0.06h0.06h0.06v0.06h0.06v0.06
		l0.06,0.06h0.06v0.06v0.06L48,63.97v0.06v0.06v0.06v0.06v0.06v0.06l-0.06,0.06v0.06v0.06h-0.06v0.06v0.06h0.06v0.06H48v0.06h0.06
		l0.06,0.06h0.06h0.06v0.06v0.06v0.06h0.06v0.06h-0.06v0.06v0.06v0.06v0.06l-0.06,0.06v0.06l0.06,0.06v0.06v0.06l-0.06,0.06h-0.06
		v0.06v0.06v0.06h0.06v0.06v0.06v0.06V66h0.06v0.06v0.06l-0.06,0.06v0.06l0.06,0.06v0.06h0.06v0.06l0.06,0.06l0.06,0.06v0.06h0.06
		v0.06v0.06v0.06v0.06v0.06h0.06v0.06l0.06-0.06h0.12h0.06l0.06,0.06l0.06,0.06v0.06v0.06v0.06v0.06h0.06v0.06h-0.06v0.06l0.06,0.06
		h-0.06v0.06v0.06v0.06l0.06,0.06h0.06v0.06h-0.06v0.06v0.06l-0.06,0.06l0.06,0.06v0.06v0.06h0.06v0.06v0.06h-0.06v0.06v0.06h0.06
		v0.06v0.06h0.06v0.06v0.06v0.06l-0.06,0.06v0.06l-0.06,0.06h-0.06h-0.06v0.06h-0.06l0.06,0.06v0.06v0.06v0.06h-0.06v0.06l0.06,0.06
		v0.06l-0.06,0.06H48.7v0.06h-0.06v0.06h0.06v0.06h0.06h0.06h0.06h0.06v0.06h0.06l0.06,0.06l0.06,0.06h0.06v0.06H49.1v0.06h-0.06
		l-0.06,0.12h-0.06v0.06l0.06,0.06V70v0.06v0.06l-0.06,0.06l-0.06,0.06h-0.06l-0.06,0.06l-0.06,0.06h-0.06v0.06v0.06h0.06v0.06
		l-0.06,0.06v0.06v0.06l-0.06,0.06v0.06v0.06l-0.06,0.06l-0.06,0.06v0.06v0.06v0.06v0.06h0.06v0.06v0.06h-0.06v0.06h-0.06
		l-0.06,0.06h-0.06v0.06v0.06l-0.06,0.06v0.06v0.06h-0.06l-0.06,0.06l-0.06,0.06v0.06v0.06v0.06v0.06v0.06L48,72.2h0.06h0.06v-0.06
		h0.06h0.06v-0.06h0.06v0.06h0.06h0.06v0.06h0.06h0.06h0.06v-0.06h0.06l0.06-0.06h0.06l0.06-0.06h0.06h0.06h0.06h0.06v0.06v0.06
		h0.06v0.06h0.06h0.06v0.06h0.06h0.06v0.06h0.06l0.06,0.06h0.06v0.06h0.06h0.06l0.06,0.06l0.06,0.06v0.06v0.06h0.06h0.06v0.06v0.06
		H49.8v0.06l-0.06,0.06v0.06v0.06l0.06,0.06h-0.06v0.06v0.06h0.06h0.06v0.06v0.06v0.06l0.06,0.06h0.06l0.06,0.06h0.06l-0.06,0.06
		v0.06h-0.06v0.06h0.06v0.06v0.06v0.06v0.06L50.09,74v0.06v0.06v0.06v0.06l0.06,0.06v0.06h0.06v0.06l0.06,0.06v0.06l0.06,0.06v0.06
		h0.06v0.06v0.06h-0.06v0.06v0.06h0.06v0.06v0.06v0.06v0.06l0.06,0.06v0.06h0.06v0.06l0.06,0.06v0.06v0.12l-0.06,0.06v0.06h0.06
		v0.06l-0.06,0.06v0.06h0.06h0.06h0.06h0.06v0.06v0.12v0.06v0.06v0.06v0.06h0.06v0.06l0.06,0.06h0.06v0.06v0.06v0.06v0.06
		l-0.06,0.06v0.06h0.06v0.06v0.06v0.06v0.06h0.06v0.06v0.06h0.06v0.06h-0.06v0.06h0.06v0.06v0.06v0.06v0.06v0.06l-0.06-0.06H50.9
		h-0.06l-0.06-0.06v-0.06l-0.06-0.06l-0.06-0.06v0.06v0.06h-0.06v0.06h-0.06v0.06l-0.06,0.06h-0.06v0.06v0.06v0.06v0.12v0.12
		l0.06,0.06v0.06V78v0.12v0.06h-0.06v0.06v0.06h-0.06v0.06h0.06v0.06l0.06,0.06h0.06v0.06v0.06h-0.06l-0.06,0.06h-0.06h-0.06
		l-0.06,0.06H50.2v0.06h-0.06h-0.06v0.06h-0.12v0.06h-0.06h-0.06H49.8v0.06l-0.06,0.06v0.06h-0.06h-0.06v0.06h-0.06v-0.06
		l-0.06,0.06h-0.06v0.06h-0.06h-0.06V79.1h-0.06v0.06h-0.06l-0.06-0.06H49.1h-0.06h-0.06h-0.06h-0.06h-0.06v0.06v0.06h-0.06H48.7
		v-0.06l-0.06-0.06h0.06v-0.06v-0.06l-0.06-0.06v-0.06h-0.06v-0.06l-0.06-0.06V78.7v-0.06v-0.06l0.06,0.06h0.06v-0.06v-0.06h-0.06
		l-0.06-0.06v-0.06v-0.06v-0.06h0.06v-0.06h-0.06h-0.06h-0.06h-0.06v-0.06h-0.06v-0.06h0.06v-0.06h0.06V78h-0.06h-0.06v-0.06h-0.06
		h-0.06V78h-0.06h-0.06H48v0.06v0.06l-0.06,0.06v0.06l-0.06,0.06v0.06l-0.06,0.06h-0.06l-0.06,0.06v0.06l-0.06,0.06v0.06v0.06v0.06
		l-0.06,0.06v0.06l-0.06,0.06v0.06h-0.06h-0.06h-0.06h-0.12l-0.12,0.06l-0.12-0.12h-0.06v-0.06H46.9h-0.06l-0.06,0.06v0.06h-0.06
		v0.06v0.06h-0.06l-0.06,0.06h-0.06l-0.06,0.06h-0.06l-0.06,0.06h-0.06v-0.06v-0.06h-0.06H46.2h-0.06l-0.06-0.06h-0.06h-0.06
		l-0.06,0.06h-0.06H45.8h-0.06h-0.06v0.06h-0.06l-0.06,0.06h-0.06h-0.06v0.06h-0.06h-0.06h-0.06h-0.06l-0.06,0.06h-0.12h-0.06v-0.12
		v-0.06V79.1l-0.06-0.06l-0.06-0.06v-0.06l-0.06-0.06l-0.06-0.06v-0.06V78.7l-0.06-0.12v-0.06h-0.06v-0.06l-0.06-0.06v-0.06v-0.12
		v-0.06l0.06-0.06v-0.06L44.58,78v-0.06h-0.06h-0.06H44.4L44.35,78l-0.06,0.06h-0.06h-0.06v0.06v0.06h-0.06v-0.06h-0.06L44,78.17
		v0.06h-0.06v0.06l-0.06,0.06v0.06l-0.06,0.06l-0.06,0.06h-0.06h-0.06v0.06h-0.06h-0.06h-0.06v0.06v0.06v0.06h-0.06v0.06v0.06
		l-0.06,0.06l-0.06,0.06l-0.06,0.06l0.06,0.12v0.06v0.06v0.12v0.06v0.06l-0.06,0.06v0.06l-0.06,0.06l-0.06,0.06h-0.06v0.06h-0.06
		l-0.06-0.06H42.9l-0.06,0.06v-0.06h-0.06h-0.06h-0.06v-0.06v-0.06h-0.06v-0.06h-0.06h-0.06v-0.06v-0.06l-0.06-0.06v-0.06h-0.06
		v-0.06v-0.06h-0.06v-0.06V79.1h-0.06v-0.06l-0.06-0.06l-0.06-0.06h-0.06h-0.06h-0.06v-0.06h-0.06v0.06v0.06v0.06h-0.06H41.8v-0.06
		h-0.06h-0.06h-0.06v-0.06v-0.06v-0.06l-0.06-0.06h-0.06h-0.06h-0.06h-0.06l-0.06,0.06v0.06v0.06l-0.06,0.06h-0.06v0.06L41.1,79.1
		l-0.06,0.06h-0.06h-0.06l-0.06-0.06h-0.06v-0.06l-0.06-0.06l-0.06-0.06l-0.06-0.06h-0.06v-0.06h-0.06v-0.06l-0.06-0.06v-0.06H40.4
		h-0.06v-0.06h-0.06h-0.06h-0.06h-0.06h-0.06L40,78.52l-0.06-0.06v-0.06h-0.06h-0.06v-0.06h-0.06v-0.06v-0.06h-0.06h-0.06h-0.06
		h-0.06l-0.06,0.06v0.06l0.06,0.06v0.06l-0.06,0.06l-0.06,0.06h-0.06l-0.06,0.06l-0.06-0.06h-0.06l-0.06-0.06h-0.06h-0.06h-0.06
		H38.9h-0.06v0.06h-0.06v0.06v0.06v0.06v0.06v0.06v0.06v0.06h0.06v0.06l0.06,0.06v0.06h0.06h0.06h0.06l0.06,0.06l0.06,0.06v0.06
		h0.06v0.06h0.06h0.06v0.06v0.06l-0.06,0.06v0.06v0.06v0.06h0.06v0.06v0.12v0.06H39.3v0.06h-0.06l-0.06,0.06v0.06v0.06v0.06v0.06
		h-0.06v0.06l0.06,0.06v0.06v0.06v0.06l0.06,0.06v0.06h0.06l0.06,0.06v0.06l0.06,0.06l0.06,0.06v0.06l0.06,0.06v0.06l0.06,0.06v0.06
		v0.06v0.06v0.06v0.06h0.06v0.06v0.17v0.06l0.06,0.06v0.06v0.06h0.06V82l0.06,0.06v0.06v0.06v0.06v0.06v0.06v0.06l-0.06,0.06h-0.06
		v0.06v0.06l0.06,0.06v0.06v0.06v0.06l-0.06,0.12v0.06v0.12l0.06,0.12v0.12l0.06,0.12v0.12v0.06l0.06,0.06l0.06,0.06v0.06v0.06
		h-0.06l0.06,0.06v0.06v0.06L40,84.15v0.06v0.06v0.06l0.06,0.06v0.06v0.06L40,84.55h-0.06v0.06v0.06v0.06L40,84.78v0.06v0.06v0.06
		v0.06h0.06v0.06v0.06l0.06,0.06l0.17,0.06h0.29l0.35,0.06l0.23,0.12l0.12,0.17l0.23,0.35l0.17,0.17v0.17l0.06,0.17l-0.12,0.06
		l-0.29,0.12l-0.29,0.17l-0.23,0.17l-0.17,0.12h-0.06l-0.12,0.12l-0.23,0.17v0.06v0.06l-0.06,0.06l-0.06,0.06v0.06l0.06,0.06v0.06
		l-0.06,0.06L40,87.92h-0.06h-0.06v0.06v0.06v0.06v0.06h-0.06v0.06h-0.06v0.06h0.06l-0.06,0.06v0.06v0.06v0.06h0.06v0.06v0.06h-0.06
		v0.06h-0.06h-0.06v0.06v0.06h-0.06v0.06h0.06v0.06v0.06l0.06,0.06v0.12l0.06,0.12v0.06v0.06v0.06v0.06h-0.06v0.06v0.06h-0.06v0.06
		l-0.06,0.06v0.06v0.12v0.06l0.06,0.12v0.06v0.06h0.06v0.06l0.12,0.23v0.06l0.06,0.06v0.06v0.06v0.06h0.06L40,90.82l0.06,0.06h0.12
		l0.06,0.06h0.06h0.06h0.06l0.06,0.06h0.06v0.06v0.06l-0.06,0.06v0.06v0.06v0.06v0.06v0.06h0.06l0.06,0.06v0.06h0.06h0.06v0.06h0.06
		v0.06v0.06l0.06,0.06v0.06v0.06v0.06v0.12l-0.06,0.06v0.12v0.06v0.06v0.06v0.06l0.06,0.06v0.06v0.06l-0.06,0.06v0.06v0.06h-0.06
		l-0.06,0.12h-0.06v0.06v0.06v0.06h-0.06l-0.06,0.12l-0.06,0.17l-0.06,0.06v0.06v0.06h-0.06v0.06l-0.06,0.06v0.06h-0.06v0.06v0.06
		h0.06l0.06,0.06L40.35,94h0.06l0.06,0.06l0.06,0.06h0.06l0.06-0.06h0.06V94h0.06v0.06h0.06l0.06,0.06h0.06l0.06,0.06v0.06v0.06
		h-0.06v0.06h-0.06v0.06l-0.06,0.06v0.06l-0.06,0.06v0.06v0.06v0.06l0.06,0.06l-0.06,0.06l0.06,0.06v0.06l0.06,0.06v0.06l0.06,0.06
		v0.06v0.06v0.06v0.06h-0.06l-0.06,0.06v0.06l-0.06,0.06l0.06,0.06h0.06v0.06l-0.06,0.06v0.06v0.06v0.06l0.06,0.06v0.06v0.06h-0.06
		v0.06h0.06l0.06,0.06h0.06l0.12-0.06h0.06l0.06-0.06l0.06-0.06l0.06-0.06h0.06v-0.06h0.06h0.06v0.06v0.06v0.06v0.06v0.06h-0.06
		v0.06v0.06v0.06l-0.06,0.06v0.06h-0.06l-0.12-0.06h-0.06H41.1l-0.06,0.06v0.06h-0.06V96.5h-0.06h-0.06v0.06h-0.06h-0.06h-0.06
		h-0.06h-0.06l-0.06-0.06H40.4v0.06l-0.06,0.06l-0.12,0.06h-0.06v0.06l-0.06,0.06h-0.06H40h-0.06l-0.06-0.06h-0.06h-0.06h-0.06
		v-0.06v-0.06h-0.06h-0.06h-0.06h-0.06h-0.06h-0.06l-0.12,0.06h-0.06v-0.06h-0.06h-0.06l-0.06,0.06l-0.06,0.06v0.06l-0.06,0.06
		h-0.06v-0.06v-0.06l-0.06-0.17l-0.06-0.35h-0.06h-0.12h-0.12v-0.06v-0.12v-0.12l-0.12-0.06l-0.23-0.17l-0.41-0.17h-0.23l-0.23,0.23
		h-0.35l-0.17-0.06l-0.23-0.06l-0.35,0.06l-0.46,0.06l-0.58,0.23l-0.29,0.06l-0.41,0.23h-0.06h-0.06l-0.06-0.06v-0.06h-0.06
		l-0.06-0.06h-0.06h-0.06h-0.06h-0.06l-0.12-0.06l-0.12-0.06l-0.06-0.06H33.5l-0.06-0.12h-0.06v-0.06l-0.06-0.06v-0.06h-0.06h-0.06
		v-0.06l-0.06-0.06l0.06-0.06l-0.06-0.06v-0.06v-0.06H33.1v-0.06h-0.06v-0.06h0.06l0.06-0.06h0.12l0.12-0.06l0.06-0.06l0.06-0.06
		v-0.06v-0.06l-0.06-0.06V94.7v-0.06v-0.06l0.06-0.12v-0.06v-0.06h0.06v-0.06v-0.06l-0.06-0.06l-0.06-0.06l-0.06-0.06L33.33,94
		v-0.06h-0.06v-0.06v-0.06h-0.06v-0.06h-0.06H33.1l-0.06-0.06v-0.06V93.6v-0.06v-0.06v-0.06h0.06v-0.06h0.06v-0.06l-0.06-0.06v-0.06
		h-0.06h-0.06l-0.06-0.06l-0.06-0.12l-0.06-0.06h-0.06l-0.06-0.06l-0.06-0.06l-0.06-0.06l-0.06-0.12v-0.06l-0.06-0.06L32.4,92.5
		v-0.06h-0.06v-0.06h-0.06v-0.06h-0.06v-0.06l0.06-0.06l0.06-0.06h0.06l0.06-0.06h0.06h0.06l0.06,0.06h0.06h0.06v-0.06h0.06h0.06
		h0.06l0.06-0.06l0.06-0.06h0.06l0.06,0.06l0.06-0.06v-0.06v-0.06V91.8l0.06-0.06v-0.06l0.06-0.06l0.06-0.06h-0.06v-0.06l-0.06-0.06
		l-0.06-0.06l-0.06-0.06H33.1l0.06-0.06v-0.12v-0.06l-0.06-0.06l0.06-0.06l0.06-0.06v-0.06l0.06-0.06V90.7v-0.12v-0.06v-0.06h0.06
		v-0.06l0.06-0.06v-0.06v-0.06h0.06v-0.06v-0.06v-0.06L33.39,90v-0.06v-0.06v-0.12v-0.06v-0.06V89.6v-0.06v-0.06l-0.06-0.06
		l-0.06-0.06l-0.06-0.06l-0.06-0.12v-0.06l-0.06-0.06h-0.06v-0.06v-0.06V88.9v-0.06v-0.06h-0.06v-0.06v-0.06l-0.06-0.06v-0.06V88.5
		v-0.06h0.06v-0.06v-0.06v-0.06v-0.06h-0.06l-0.12-0.06l-0.06-0.06v-0.06h-0.06v-0.06h0.06h0.06v-0.06l-0.06-0.06V87.8v-0.06v-0.06
		v-0.06l-0.06-0.12v-0.06h-0.06h-0.06l-0.06-0.06h-0.06v-0.06v-0.06v-0.06l0.06-0.06V87.1l0.06-0.06v-0.06v-0.06v-0.06v-0.06
		l-0.06-0.06V86.7h-0.06v-0.06v-0.06H32.4h-0.06l-0.06,0.06h-0.06h-0.06l-0.06-0.06h-0.06h-0.06h-0.06h-0.06h-0.06l-0.06-0.06
		l-0.12-0.06h-0.06h-0.06h-0.06h-0.06v0.06h-0.06l-0.06,0.06v0.06h-0.06l-0.06,0.06h-0.06h-0.06l-0.06,0.06l-0.06,0.06l-0.06,0.06
		v0.06v0.06l-0.06,0.06v0.06v0.06h0.06l-0.06,0.06h-0.06h-0.06h-0.06l-0.06,0.06h-0.06v0.06v0.12h-0.06v0.06l-0.06-0.06h-0.06h-0.06
		v0.06l-0.06,0.06l-0.06,0.06h-0.06h-0.06h-0.06l-0.06-0.06h-0.06h-0.06l-0.06,0.06h-0.06v0.06l-0.06,0.06l-0.06,0.06h-0.06H29.5
		h-0.06h-0.06h-0.06h-0.06h-0.06v-0.06h-0.06h-0.06h-0.06l-0.06,0.06h-0.06h-0.06v0.06H28.8h-0.06h-0.06h-0.06h-0.06v0.06
		l-0.06-0.06V87.8h-0.06v-0.06v-0.06H28.4l-0.06-0.06l-0.06-0.06h-0.06h-0.06h-0.06l-0.06,0.06h-0.06l-0.06,0.06h-0.12h-0.06
		l-0.06,0.06h-0.06h-0.06h-0.06h-0.06h-0.06h-0.06H27.3h-0.06h-0.06v-0.06h-0.06v-0.06h-0.06l-0.06-0.06v-0.06v-0.06v-0.06h-0.06
		v-0.06h0.06v-0.06h-0.06v-0.06h-0.06v-0.06h-0.06V87.1h0.06v-0.06v-0.06v-0.06v-0.06h-0.06v-0.06h-0.06v-0.06h-0.06V86.7h-0.06
		H26.6v-0.06h-0.06v-0.06h-0.06h-0.06v-0.06v-0.06v-0.06h-0.06h-0.06v-0.06v-0.06v-0.06h-0.06v-0.06H26.2l0.06-0.06h0.06v-0.06h0.06
		V86h-0.06h-0.06v-0.06H26.2v-0.06h0.06v-0.06H26.2l-0.06-0.06v-0.06h0.06v-0.06V85.6h0.06v-0.06H26.2v-0.06v-0.06h0.06v-0.06H26.2
		v-0.06h-0.06h-0.06h-0.06v-0.06v-0.06v-0.06h0.06v-0.06v-0.06h-0.06h-0.06l-0.06-0.12v-0.06l-0.06-0.06v-0.06h-0.06v-0.06v-0.06
		l-0.06-0.06v-0.06h0.06h0.06h0.06v-0.06v-0.06v-0.06h0.06h0.06h0.06v-0.06h-0.06V84.2h0.06h0.06h0.06v-0.06v-0.06h0.06h0.06v-0.06
		h0.06l0.06,0.06v-0.06h0.06v-0.06v-0.06h0.06h0.06h0.06v-0.06h0.06l0.06-0.06h0.06v-0.06h0.06v-0.06v-0.06h0.06v-0.06h0.06h0.06
		l0.06-0.06v-0.06v-0.06h0.06v-0.06h0.06l0.06-0.12v-0.06l0.06-0.06l0.06-0.06h0.06v-0.06l0.06-0.06v-0.06l-0.06-0.06v-0.06V82.7
		h0.06v-0.06l0.06-0.12v-0.06h0.06v-0.06h0.06v-0.06l-0.06-0.06v-0.06v-0.06v-0.06v-0.06V82v-0.06v-0.06v-0.06v-0.06v-0.06v-0.06
		v-0.06l0.06-0.12h0.06v-0.06v-0.06V81.3H27.7v-0.06l-0.06-0.06v-0.06v-0.06v-0.06v-0.06V80.9v-0.06l-0.06-0.06h-0.12v-0.06h-0.06
		h-0.06l-0.06-0.06v-0.06v-0.06l-0.06-0.12l-0.06-0.06h0.06v-0.06h0.06h0.06l0.06-0.06l0.06-0.12v-0.06l0.06-0.06v-0.06v-0.06v-0.06
		V79.8v-0.06h-0.06v-0.06h-0.06v-0.06h-0.06v-0.12H27.3v-0.06l-0.06-0.06v-0.06h-0.06v-0.06v-0.06l-0.06-0.06V79.1h-0.06h-0.12
		h-0.06h-0.06l-0.06-0.06l-0.06,0.06h-0.06l-0.12-0.06h-0.06v0.06v0.06h-0.06v0.06h-0.06h-0.06v-0.06V79.1h-0.06H26.2l-0.06-0.06
		l-0.06-0.06h-0.06v-0.06h-0.06v-0.06h-0.06l-0.06-0.06l-0.06-0.06h-0.06l-0.06-0.06l-0.06-0.06v-0.06v-0.06v-0.06h-0.06l-0.06-0.06
		v-0.06l-0.06-0.06l-0.06-0.06h-0.06v-0.06v-0.06l-0.06-0.06h-0.06V78v-0.06v-0.06h-0.06v-0.06v-0.06v-0.06v-0.06l-0.06-0.06v-0.06
		v-0.12h-0.06v-0.06l0.06-0.06v-0.06v-0.06h-0.06v-0.06h-0.06l-0.06-0.06v-0.06h-0.06H24.8h-0.06l-0.06-0.06V76.9v-0.06v-0.06h-0.06
		v-0.06l-0.06-0.06v-0.06h-0.06h-0.06l-0.06,0.06h-0.06v-0.06h-0.06h-0.06v-0.06h-0.06h-0.06v-0.06h-0.06v-0.06h-0.06h-0.06
		l-0.06-0.06h-0.06v-0.06l-0.06-0.06V76.2l-0.06-0.17v-0.06v-0.06h-0.06l-0.12,0.06h-0.06l-0.06-0.06l-0.06-0.06V75.8H23.3h-0.06
		l-0.06-0.06v-0.06h-0.06v-0.06v-0.06v-0.06v-0.06v-0.06h0.06v-0.06h0.06v-0.06l-0.06-0.06v-0.06v-0.12v-0.06v-0.06v-0.06v-0.06
		v-0.06v-0.06h0.06v0.06h0.06v0.06v0.06h0.06v0.06v0.06l0.06-0.06l0.06-0.06l0.06-0.06l0.06-0.06h-0.06v-0.06h-0.06v-0.06v-0.06
		h0.06l0.06-0.06v-0.06V74.4v-0.06h0.06h0.06h0.06v-0.06h0.06h0.06v-0.06h0.06v-0.06h0.06h0.06h0.06h0.06l0.06-0.06h0.06h0.06v0.06
		l0.06-0.06v-0.06h0.06h0.06L24.57,74v-0.06l0.06-0.06l0.06-0.06l0.06,0.06h0.06v0.06h0.06v-0.06h0.06h0.06l0.06-0.06v-0.06h0.06
		h0.06v-0.06l0.06-0.06h0.06h0.06h0.06v0.06h0.06v-0.06h0.06v-0.06h0.06h0.06h0.06v-0.06l0.06-0.06h0.06h0.06l0.06,0.06h0.06h0.06
		h0.06v0.06h0.06h0.06v0.06v0.06h0.06l0.06,0.06h0.06h0.06v0.06h0.06v0.06h0.06h0.06v0.06h0.06h0.06h0.06h0.06V74h-0.06v0.06h0.06
		h0.06h0.06h0.06v0.06h0.06h0.06v-0.06h0.06v0.06v0.06h0.06v0.06h0.06h0.06h0.06v0.06l0.06,0.06v0.06h0.06v-0.06h0.06v-0.06h0.06
		h0.06v-0.06h-0.06v-0.06h0.06v-0.06v-0.06V74v-0.06l0.06-0.06H27.7v-0.06h0.06h0.06v-0.06v-0.06h-0.06v-0.06h0.06v-0.06v-0.06
		l0.06,0.06v-0.06h0.06h0.06h0.06v-0.06h-0.06v-0.06h0.06v-0.06h0.06V73.3v-0.06h0.06v0.06h0.06h0.06h0.06v-0.06h-0.06v-0.06h0.06
		v-0.06h0.06h0.06h0.06l0.06,0.06h0.06h0.06v-0.06v-0.06h0.06v-0.06h0.06v-0.06V72.9h0.06v0.06h0.06v0.06h0.06v-0.06h0.06V72.9
		l0.06,0.06h0.06h0.06h0.06h0.06V72.9v-0.06h0.06h0.06v0.06l0.06-0.06v-0.06v-0.06l0.06,0.06h0.06v0.06l0.06,0.06h0.06v-0.06h0.06
		l0.06-0.06h0.06l0.06-0.06h0.06h0.06h0.06h0.06v-0.06v-0.06h0.06v0.06h0.06v0.06h0.06h0.06h0.06h0.06v-0.06h0.06h0.06v-0.06h0.06
		h0.06l0.06-0.06v-0.06v-0.06v-0.06h-0.06v-0.06v-0.06V72.2v-0.06l-0.06-0.06v-0.06l-0.06-0.06v-0.06l-0.06-0.06v-0.06v-0.06h-0.06
		h-0.06l-0.06-0.06l-0.06-0.06v-0.06v-0.12l0.06-0.06v-0.06l0.06-0.06l0.06-0.06l0.06-0.06h0.06h0.06l0.06-0.06h0.06h0.12h0.06
		l0.06-0.06h0.06l0.06-0.06h0.06l0.06-0.06h0.06v-0.06v-0.06v-0.06v-0.06l0.06-0.06h0.06h0.06v0.06v0.06h0.06v0.06h0.06h0.06v-0.06
		v-0.06v-0.06v-0.06l0.06-0.06l0.06-0.06l0.06-0.06l0.06-0.06v-0.06h0.06v-0.06v-0.06l0.06-0.06v-0.06V70h0.06v-0.06l0.06-0.06
		v-0.06h0.06v-0.06v-0.06v-0.06v-0.06l-0.06-0.06v-0.06h-0.06v-0.06h-0.06h-0.06v0.06h-0.06h-0.06v-0.06h-0.06h-0.06l-0.06,0.06
		h-0.06v-0.06l0.06-0.06l-0.06-0.06l-0.06,0.06h-0.06h-0.06h-0.06h-0.06H31.3l-0.06,0.06v-0.06h-0.06V69.3h-0.06v0.06v0.06h-0.06
		v0.06h0.06v0.06h-0.06h-0.06v0.06v0.06l-0.06-0.06l-0.06,0.06v0.06h-0.06v-0.06h-0.06h-0.06v-0.06h-0.06l0.06-0.06v-0.06h-0.06
		v-0.06h0.06v-0.06V69.3h-0.06H30.6l-0.06,0.06V69.3h-0.06v-0.06h-0.06v0.06h-0.06l-0.06-0.06h-0.06l0.06-0.06l0.06-0.06v-0.06
		v-0.06v-0.06h-0.06h-0.06l-0.06,0.06h-0.06v0.06l0.06,0.06h-0.06v0.06h-0.06h-0.06l-0.06,0.06h-0.06h-0.06v0.06h-0.06h-0.06
		l-0.06-0.06h-0.06h-0.06H29.5h-0.06l-0.06-0.06v-0.06h0.06v-0.06v-0.06v-0.06v-0.06h-0.06v-0.06v-0.06h-0.06l-0.06-0.06v-0.06
		h-0.06h-0.06V68.6h-0.06h-0.06v-0.06h-0.06v-0.06h0.06v-0.06v-0.06h-0.06v0.06h-0.06v-0.06h-0.06l-0.06-0.06v0.06v0.06h-0.06v-0.06
		h-0.06v-0.06h-0.06h-0.06l-0.06-0.06v0.06h-0.06H28.4h-0.06v-0.06V68.2l-0.06,0.06l-0.06-0.06v-0.06v-0.06v-0.06v-0.06h-0.06
		l0.06-0.06h-0.06v-0.06v-0.06v-0.06v-0.06h0.06v-0.06v-0.06h0.06V67.5v-0.06l-0.06-0.06h-0.06v-0.06h-0.06v-0.06h0.06l-0.06-0.06
		v-0.06h-0.06V67.1v-0.06h-0.06v-0.06h0.06l-0.06-0.06v-0.06l-0.06-0.06v-0.06v-0.06v-0.06h0.06h0.06h0.06h0.06h0.06v-0.06h0.06
		v-0.06l0.06-0.06h-0.06V66.4v-0.06v-0.06v-0.06v-0.12v-0.06h0.06L28.4,66v-0.06h0.06h0.06v-0.06l0.06-0.06v-0.06v-0.06h-0.06v-0.06
		v-0.06l-0.06-0.06v-0.06H28.4v-0.06h-0.06v-0.06h-0.06V65.3v-0.06l0.06-0.12v-0.06l0.06-0.06v-0.06l0.06-0.06v-0.06H28.4v-0.06
		l-0.17-0.06h-0.06h-0.06h-0.06h-0.06l-0.06-0.06h-0.06h-0.06h-0.06L27.7,64.6l-0.06-0.06v-0.06l-0.06-0.06v-0.06l-0.06-0.12V64.2
		h-0.06v-0.06h-0.06v-0.06v-0.12h0.06v-0.06l0.06-0.06v-0.06v-0.06v-0.06l-0.06-0.06l-0.06-0.06h-0.06V63.5v-0.06v-0.06v-0.06
		l-0.06-0.06v-0.06v-0.06l0.06-0.06v-0.06v-0.12l0.06-0.12v-0.06h0.06h0.06l0.06-0.06v-0.06h0.06h0.06h0.06l0.06-0.06l0.06,0.06
		h0.06v0.06h0.06h0.06h0.06h0.06h0.06h0.06h0.12h0.06h0.06h0.06h0.06l0.06-0.06h0.06v-0.06h0.06l0.06,0.06h0.06h0.06h0.06h0.06h0.06
		h0.06v-0.06h0.06v-0.06h0.06v-0.06l-0.23-0.06h-0.17l-0.12-0.12l-0.17-0.17l-0.17-0.06L28.4,61.7v-0.35l0.06-0.29l0.06-0.23
		l-0.06-0.17V60.6l-0.06-0.06v-0.06v-0.06h-0.06v-0.06h-0.06v-0.06h-0.06v-0.06h-0.06h-0.06V60.2l-0.17-0.06h-0.06h-0.06v-0.06
		h-0.06v-0.06l-0.06-0.06h-0.06v-0.06h-0.06v-0.06v-0.06h-0.06v-0.06h-0.06v-0.06h-0.06v-0.06v-0.06V59.5v-0.06v-0.06h-0.06v-0.06
		v-0.06H27.3v-0.06l-0.06-0.06h-0.06h-0.06h-0.06v-0.06v-0.06v-0.06h-0.06v-0.06h-0.06h-0.06v-0.06l0.06-0.06l0.06-0.06v-0.06
		l0.06-0.06v-0.06h-0.06v-0.06h-0.06h-0.06v-0.06h-0.06l-0.06-0.06h-0.06l-0.06,0.06H26.6l-0.06-0.06l-0.12-0.06v-0.06h-0.06h-0.06
		h-0.06v-0.06v-0.06l-0.06-0.06l-0.06-0.06h-0.12l-0.06-0.06h-0.06v0.06h-0.06h-0.06h-0.06l-0.06,0.06l-0.06,0.06l-0.06-0.06v-0.06
		H25.5v-0.06h-0.06v-0.06v-0.06l-0.06-0.06v-0.06h-0.06V57.7l0.06-0.06h0.06v-0.06l0.06-0.06v-0.06l0.06-0.06v-0.06h0.06V57.3v-0.06
		v-0.06v-0.06h0.06h0.06v-0.06h0.06v-0.06h0.06l0.06-0.06h0.06v-0.06h0.06l0.06-0.06h0.06v-0.06h0.06h0.06h0.06h0.06v-0.06v-0.06
		V56.6v-0.12l0.06-0.06v-0.06h0.06v-0.06v-0.06v-0.06v-0.06l0.06-0.06v-0.06v-0.06V55.9h0.06v-0.06h0.06l0.06-0.06l0.06-0.06v-0.06
		h0.06v-0.06l-0.06-0.06V55.5v-0.06h0.06v-0.06v-0.06l0.06-0.06l0.06-0.06l0.06,0.06h0.06h0.06h0.06v-0.06v-0.06h0.06l0.06-0.06
		h0.06l0.06-0.06h0.06h0.06l0.06-0.06v-0.06l0.06-0.06h0.06h0.06l0.06,0.06h0.06v0.06l0.06-0.06h0.06v-0.06V54.8h0.06v-0.06h0.06
		l0.06-0.06v-0.06v-0.06l0.06-0.06l0.06-0.06l0.06,0.06h0.06h0.06v-0.06V54.4v-0.06v-0.06l0.06-0.06v-0.06l0.06-0.06v-0.06v-0.06
		v-0.06v-0.06v-0.06v-0.06h0.06h0.06h0.06h0.06h0.06V53.7h0.06l0.06,0.06v0.06l0.06,0.06h0.06v0.06h0.06l0.06,0.06h0.06h0.06v-0.06
		h0.06h0.06v0.06h0.06h0.06v0.06h0.06v0.06h0.06h0.06v-0.06l0.06-0.06v-0.06h0.06l0.06-0.06h0.06v-0.06l0.06-0.06V53.7h0.06h0.06
		h0.06v-0.06v-0.06v-0.06v-0.06h0.06h0.06h0.06l0.06-0.06v-0.06V53.3v-0.06v-0.06v-0.06h0.06h0.06l0.06-0.06v-0.06v-0.06v-0.06
		l-0.06-0.12l-0.06-0.06l-0.06-0.06l-0.06-0.06v-0.06l-0.06-0.06v-0.06l-0.06-0.06H30.2h-0.06h-0.06h-0.06h-0.06v-0.06h-0.06h-0.06
		l-0.06-0.06l0.06-0.06v-0.12l0.06-0.06v-0.06l-0.06-0.06v-0.06l-0.06-0.06v-0.06h-0.06h-0.06h-0.06h-0.06l-0.06-0.06h-0.06h-0.06
		h-0.06h-0.06h-0.06h-0.06h-0.06l-0.06-0.06h-0.06h-0.06h-0.06v-0.06V51.5v-0.06v-0.06l0.06-0.06l-0.06-0.06v-0.12v-0.06H28.8h-0.06
		l-0.06-0.06h-0.06h-0.06h-0.06h-0.06l-0.06,0.06h-0.06h-0.06h-0.06v-0.06h-0.06l-0.06-0.06h-0.06h-0.06v-0.06v-0.06h-0.06
		l-0.06-0.06l-0.06-0.06h-0.06l-0.06-0.06l-0.06-0.06h-0.06l-0.06,0.06h-0.06l-0.06,0.06h-0.06H27.3h-0.06h-0.06l-0.12,0.06h-0.06
		h-0.06h-0.06h-0.06h-0.06l-0.06-0.06v-0.06h-0.06v-0.06H26.6v-0.06v-0.06h-0.06v-0.06l-0.06-0.06l-0.06-0.06h-0.06v-0.06v-0.06
		v-0.06l0.06-0.06l0.06-0.12v-0.06v-0.06v-0.06v-0.06l0.06-0.06l0.06-0.06v-0.06l-0.06-0.06v-0.06l-0.06-0.06l-0.06-0.06h-0.06
		v-0.06v-0.06v-0.06v-0.06l0.06-0.06V49v-0.06v-0.06l-0.06-0.12v-0.06v-0.06h-0.06V48.6l-0.06-0.06l-0.06-0.06v-0.06l0.06-0.06
		v-0.06h0.06h0.06v-0.06l0.06-0.12v-0.06l-0.06-0.06l-0.06-0.06V47.9v-0.06v-0.12l0.06-0.06l-0.06-0.06v-0.06l-0.06-0.06v-0.06
		v-0.06v-0.06H26.2l-0.06-0.06h-0.06v0.06h-0.06v-0.06l0.06-0.06h0.06l0.06-0.06h0.06l0.06-0.06h0.06l0.06-0.06l0.06-0.06v-0.06
		l-0.06-0.06h0.06V46.8h0.06l0.06-0.06l0.06,0.06v-0.06h0.06l0.06-0.06h0.06v-0.06h0.06v-0.06v-0.06h-0.06v-0.06v-0.06h0.06v-0.06
		h-0.06h-0.06v-0.06h0.06v-0.06v-0.06l0.06-0.06l0.06-0.06h-0.06v-0.06h-0.12l-0.12-0.06H26.6l-0.06-0.06h-0.06h-0.06l-0.06,0.06
		l-0.06,0.06h-0.06l-0.06,0.06h-0.06v-0.06h-0.06h-0.06h-0.06v-0.06v-0.06v-0.06h-0.06v-0.06V45.7h0.06v-0.06h-0.06v-0.06v-0.06
		h-0.06l0.06-0.06h-0.06v-0.06h-0.06v-0.06h-0.06v-0.06h0.06v-0.06v-0.06v-0.06l0.06-0.06V45h-0.06v-0.06h-0.06v-0.06l-0.06-0.06
		v-0.06h-0.06v-0.06l-0.06-0.06V44.6l0.06-0.06v-0.06h-0.06v-0.06h0.06v-0.06v-0.06v-0.06l0.06-0.06v-0.06l-0.06-0.06v-0.06v-0.06
		l0.06-0.06v-0.06v-0.06l0.06-0.06v-0.06l0.06-0.06v-0.06l0.06-0.06v-0.06v-0.06v-0.12v-0.12l0.06-0.06v-0.06h0.06v-0.06v-0.06
		v-0.06l0.06-0.06l0.06-0.06h0.06v-0.06v-0.06h0.06v-0.06l0.12-0.17v-0.06h0.06l0.06-0.06h0.06h0.06l0.06-0.06v-0.06V42.1v-0.06
		h0.06v-0.06h0.06h0.06v-0.06h0.06l0.06-0.06v-0.06l0.06-0.06V41.7h0.06v-0.06v-0.06l0.06-0.06h0.06v-0.06l0.06-0.06h0.06h0.06h0.06
		h0.06h0.06h0.06h0.06h0.06h0.06v-0.06v-0.06h0.06l0.06-0.06v-0.06h0.06h0.06h0.06h0.06l0.06-0.06v-0.06V41v-0.06v-0.06l0.06-0.06
		l-0.06-0.06v-0.06l-0.06-0.06V40.6l0.06-0.06h0.06h0.06h0.06l0.06-0.06h0.06v-0.06v-0.06h0.06v-0.06v-0.06h0.06l0.06-0.06v-0.06
		v-0.06v-0.06v-0.06V39.9v-0.06l0.06-0.06v-0.06h-0.06v-0.06l-0.06-0.06v-0.06l-0.06-0.06v-0.06l-0.06-0.06v-0.06l-0.06-0.06V39.2
		v-0.06l-0.06-0.06l0.06-0.06h0.06v-0.06v-0.06l0.06-0.06V38.8h0.06v-0.06v-0.06v-0.06v-0.06v-0.06h-0.06l0.06-0.06h0.06v-0.06
		l0.12-0.06v-0.06h0.06l0.06-0.06l0.06-0.06l0.12-0.17l0.06-0.06v-0.06v-0.06V37.7v-0.06v-0.06h-0.06v-0.06v-0.06v-0.06v-0.06h0.06
		h0.06h0.06h0.06v-0.06v-0.06v-0.06v-0.06v-0.06h0.06V37h0.06l0.06-0.06h0.06l0.06-0.06h0.06v-0.06h0.06l0.06-0.06v-0.12l0.06-0.06
		v-0.06v-0.06v-0.06v-0.06V36.3h0.06h0.06h0.06l0.06-0.17l0.06-0.06v-0.06l0.06-0.06l0.12-0.06l0.06-0.12l0.06-0.06v-0.06v-0.06
		v-0.06v-0.06v-0.06h0.06h0.06h0.06h0.06v-0.06v-0.06h0.06v-0.06h0.06l0.06-0.06v-0.06v-0.06v-0.06v-0.06h0.06h0.06v-0.06h0.06
		v-0.06h0.06h0.06h0.06l0.06-0.06v-0.06v-0.06l0.06-0.06v-0.06h-0.06v-0.06h-0.06v-0.06l-0.06-0.06v-0.06v-0.06h-0.06l-0.06-0.06
		h-0.06v-0.06V34.1h0.06v-0.06v-0.06v-0.06v-0.06l-0.06-0.06l-0.06-0.06v-0.12h0.06v-0.06l0.06-0.06l-0.06-0.06V33.4v-0.06
		l0.06-0.06l0.06-0.06h0.06l0.06-0.06l0.06-0.06l0.06-0.06V33l0.06,0.06h0.06h0.06l0.06,0.06h0.06v0.06v0.06h0.06v0.06h0.06h0.06
		v-0.06l0.06-0.06h0.06h0.06v0.06h0.06h0.06h0.06l0.06,0.06v-0.06h0.06l0.06,0.06h0.06h0.06h0.06l0.06-0.06h0.06v-0.06h0.06v0.06
		h0.06h0.06h0.06h0.06h0.06h0.06v0.06h0.06h0.06h0.06h0.06h0.06h0.06l0.06-0.06l0.06-0.06h0.06v0.06h0.06l0.06-0.06v0.06h0.06
		l0.06,0.06v0.06h0.06v0.06h0.06v-0.06h0.06h0.06h0.12h0.06l0.06-0.06v0.06v0.06l-0.06,0.06l-0.06,0.06v0.06v0.06l0.06,0.06v0.06
		l0.06,0.06h0.06v0.06v0.06h0.06v0.06h0.06h0.06v0.06l-0.06,0.06H34.2h-0.06v0.06v0.06v0.06h-0.06v0.06l0.06,0.06v0.06v0.06h0.06
		v0.06v0.06v0.06v0.06h0.06v0.06l0.06,0.06v0.06h0.06l0.06,0.06v0.06l-0.06,0.06v0.06v0.06v0.06l0.12,0.12l0.06,0.06h0.06v0.06h0.06
		h0.06h0.06h0.06l0.12,0.06v0.06h0.06v0.06v0.06l0.06,0.06v0.06v0.06h0.06v0.06h-0.06v0.06v0.06l-0.06,0.06v0.06l0.06,0.06v0.06
		l0.06,0.06h0.06l0.06,0.06h0.06v0.06h0.06v-0.06v-0.06h0.06h0.06v0.06v0.06v0.06h0.06l0.06,0.06v0.06l0.12,0.06v0.12l0.06,0.06
		l0.06,0.06L35.88,37v0.06h0.06v0.06v0.06v0.06L36,37.29h0.06h0.06h0.06l0.06,0.06h0.06v0.06h0.06v-0.06l0.06,0.06h0.06l0.06,0.06
		l0.12,0.06l0.06-0.06v-0.06v-0.06h0.06v-0.06v-0.06v-0.06l0.06-0.06l0.06-0.06V37h0.06h0.06v-0.06h0.06l0.06-0.06l0.06-0.06
		l0.06,0.06h0.06h0.06h0.06h0.06h0.06h0.06h0.06h0.06h0.06l0.06,0.06h0.06h0.06V37h0.06h0.06h0.06v0.06h0.06h0.06h0.06h0.06V37h0.06
		l0.06,0.06h0.06h0.06v0.06h0.06h0.06h0.06h0.06v0.06h0.06h0.06h0.06h0.06l0.06,0.06h0.06h0.06v0.06h0.12h0.06l0.06,0.06h0.06h0.06
		h0.06l0.06,0.06h0.06v0.06h0.06h0.06v0.06l0.06,0.06h0.06L40,37.64h0.06h0.06h0.06h0.06h0.06v-0.06h0.06l0.12,0.06l0.06-0.06h0.06
		h0.06v-0.06h0.06v-0.06h0.06v-0.06h0.06v-0.06l0.06-0.06v-0.06h0.06v-0.06h0.06h0.06v0.06h0.06h0.06l0.06-0.06v-0.06v-0.06V37
		l0.06-0.06h0.06h0.06h0.06h0.06v-0.06h0.06h0.06h0.06l0.06-0.06h0.06v0.06h0.06h0.06v0.06h0.06L42.03,37l0.06,0.06h0.06L42.2,37
		l0.06-0.06l0.06-0.06v-0.06h0.06v-0.06v-0.06h0.06l0.06-0.06h0.06h0.06h0.06l0.06-0.06h0.06l0.06-0.06h0.06h0.06h0.06l0.06-0.06
		h0.06v-0.06h0.06h0.06h0.06l0.06-0.06h0.06l0.06-0.06v-0.06h0.06v-0.06h0.06h0.06v-0.06v-0.06v-0.06v-0.06h0.06h0.06l0.06-0.06
		l0.06-0.06v-0.06l0.06-0.06h-0.06v-0.06l0.06-0.06v-0.12v-0.06L44,35.38v-0.06v-0.06l-0.06-0.12l-0.06-0.06h-0.06v-0.06v-0.06
		h-0.06v-0.06v-0.06V34.8v-0.06l-0.06-0.06h-0.06v-0.06h0.06v-0.06v-0.06h-0.06v-0.06h0.06v-0.06v-0.06h-0.06v-0.06v-0.06l0.06-0.06
		h-0.06V34.1l-0.06-0.06h0.06v-0.06h-0.06v-0.06l-0.06-0.06l-0.06-0.06l-0.06-0.06v-0.06l-0.06-0.06h0.06v-0.06v-0.06v-0.06V33.4
		v-0.06v-0.06v-0.06v-0.06h-0.06v0.06H43.3h-0.06v-0.06h-0.06h-0.06h-0.06h-0.06v-0.06v-0.06h-0.06V33h0.06v-0.06v-0.06v-0.06v-0.06
		h-0.06H42.9h-0.06h-0.06v-0.06h-0.06l-0.06-0.06h-0.06v-0.06v-0.06v-0.06v-0.06h-0.06v-0.06h-0.06h-0.06V32.3h-0.06h-0.06h-0.06
		v-0.06H42.2h-0.06v-0.06h-0.06h-0.06h-0.06h-0.06v-0.06h-0.06H41.8v-0.06l-0.06-0.06v-0.06l-0.06-0.06v-0.06h-0.06v-0.06v-0.06
		v-0.06l-0.12-0.06l-0.06-0.06h-0.06l-0.06-0.06v-0.06V31.37z"/>
	<polygon class="st0" points="71.49,-0.23 71.49,-0.29 71.55,-0.29 71.6,-0.29 71.6,-0.23 71.66,-0.23 71.72,-0.17 71.72,-0.11 
		71.78,-0.06 71.78,0 71.84,0 71.89,0 72.01,0 72.07,0.06 72.13,0.12 72.18,0.12 72.24,0.12 72.24,0.18 72.3,0.18 72.36,0.18 
		72.42,0.18 72.47,0.18 72.53,0.23 72.53,0.29 72.59,0.29 72.65,0.29 72.7,0.29 72.76,0.29 72.82,0.23 72.88,0.23 72.88,0.29 
		72.94,0.29 72.99,0.29 73.05,0.35 73.11,0.35 73.11,0.41 73.17,0.47 73.23,0.47 73.28,0.47 73.34,0.47 73.4,0.52 73.46,0.52 
		73.46,0.58 73.46,0.64 73.52,0.7 73.46,0.76 73.46,0.81 73.46,0.87 73.46,0.93 73.4,0.99 73.4,1.05 73.34,1.1 73.28,1.1 
		73.23,1.16 73.17,1.22 73.11,1.22 73.11,1.28 73.05,1.28 73.05,1.34 72.99,1.34 72.99,1.28 72.94,1.28 72.94,1.22 72.88,1.22 
		72.88,1.16 72.82,1.16 72.76,1.16 72.7,1.22 72.65,1.22 72.59,1.22 72.53,1.28 72.47,1.28 72.42,1.34 72.42,1.28 72.36,1.28 
		72.36,1.34 72.3,1.34 72.3,1.39 72.24,1.39 72.18,1.39 72.18,1.45 72.18,1.51 72.13,1.51 72.07,1.51 72.01,1.51 71.95,1.51 
		71.95,1.57 71.89,1.57 71.84,1.57 71.78,1.57 71.72,1.57 71.72,1.63 71.66,1.63 71.6,1.68 71.55,1.68 71.49,1.68 71.43,1.68 
		71.43,1.74 71.37,1.74 71.31,1.8 71.26,1.86 71.2,1.86 71.2,1.92 71.14,1.92 71.08,1.92 71.08,1.97 71.02,1.97 70.97,1.97 
		70.91,1.97 70.91,2.03 70.91,2.09 70.85,2.09 70.85,2.15 70.85,2.21 70.85,2.26 70.85,2.32 70.91,2.32 70.91,2.38 70.91,2.44 
		70.91,2.5 70.97,2.5 70.97,2.55 71.02,2.55 71.08,2.55 71.08,2.61 71.14,2.61 71.2,2.61 71.2,2.67 71.26,2.67 71.31,2.73 
		71.31,2.79 71.26,2.79 71.26,2.84 71.31,2.84 71.26,2.9 71.2,2.9 71.14,2.9 71.08,2.96 71.08,3.02 71.02,3.08 70.97,3.13 
		70.91,3.13 70.91,3.19 70.85,3.19 70.85,3.25 70.79,3.25 70.73,3.25 70.73,3.31 70.73,3.37 70.68,3.37 70.62,3.37 70.56,3.37 
		70.5,3.37 70.44,3.37 70.39,3.37 70.39,3.42 70.33,3.42 70.33,3.48 70.27,3.48 70.27,3.54 70.21,3.54 70.15,3.54 70.15,3.6 
		70.21,3.66 70.21,3.71 70.15,3.71 70.1,3.71 70.1,3.77 70.15,3.77 70.15,3.83 70.15,3.89 70.21,3.95 70.27,3.95 70.27,4 
		70.27,4.06 70.33,4.06 70.33,4.12 70.39,4.12 70.39,4.18 70.44,4.18 70.5,4.18 70.5,4.24 70.44,4.29 70.39,4.29 70.33,4.29 
		70.33,4.35 70.27,4.35 70.21,4.35 70.21,4.41 70.15,4.41 70.15,4.47 70.1,4.47 70.1,4.52 70.1,4.58 70.1,4.64 70.1,4.7 70.04,4.7 
		70.04,4.76 69.98,4.76 69.92,4.76 69.92,4.81 69.92,4.87 69.92,4.93 69.86,4.93 69.86,4.99 69.81,5.05 69.81,5.22 69.75,5.22 
		69.69,5.34 69.63,5.34 69.57,5.45 69.57,5.51 69.52,5.51 69.46,5.57 69.34,5.57 69.28,5.57 69.23,5.57 69.17,5.63 69.17,5.74 
		69.17,5.8 69.11,5.86 69.11,5.92 69.05,5.92 68.99,5.92 68.99,5.86 68.94,5.86 68.88,5.92 68.82,5.92 68.76,5.92 68.7,5.92 
		68.65,5.92 68.65,5.97 68.65,6.03 68.65,6.09 68.7,6.15 68.7,6.21 68.65,6.21 68.59,6.26 68.59,6.32 68.59,6.38 68.53,6.38 
		68.53,6.44 68.53,6.5 68.53,6.55 68.53,6.61 68.53,6.67 68.47,6.67 68.47,6.73 68.47,6.79 68.47,6.84 68.47,6.9 68.47,6.96 
		68.47,7.02 68.47,7.08 68.53,7.08 68.53,7.13 68.53,7.25 68.59,7.31 68.59,7.37 68.65,7.37 68.65,7.42 68.65,7.48 68.59,7.48 
		68.53,7.48 68.47,7.48 68.41,7.54 68.3,7.54 68.24,7.54 68.18,7.6 68.12,7.6 68.12,7.54 68.07,7.54 68.07,7.6 68.07,7.66 
		68.01,7.66 67.95,7.66 67.95,7.71 67.95,7.77 67.89,7.77 67.83,7.83 67.83,7.89 67.83,7.95 67.83,8 67.78,8 67.66,8.12 67.54,8.24 
		67.54,8.29 67.49,8.29 67.49,8.35 67.43,8.41 67.43,8.47 67.49,8.47 67.49,8.53 67.49,8.58 67.49,8.64 67.49,8.7 67.54,8.76 
		67.54,8.82 67.6,8.82 67.6,8.87 67.54,8.93 67.54,8.99 67.6,8.99 67.6,9.05 67.54,9.05 67.54,9.11 67.54,9.16 67.6,9.16 67.6,9.22 
		67.6,9.28 67.66,9.34 67.72,9.34 67.72,9.4 67.78,9.45 67.83,9.51 67.89,9.57 67.95,9.63 68.01,9.69 68.07,9.74 68.07,9.8 
		68.12,9.8 68.18,9.8 68.18,9.86 68.24,9.86 68.3,9.86 68.3,9.92 68.3,9.98 68.36,9.98 68.41,9.92 68.47,9.92 68.47,9.98 
		68.41,9.98 68.41,10.03 68.41,10.09 68.41,10.15 68.36,10.15 68.36,10.21 68.3,10.21 68.36,10.27 68.3,10.27 68.3,10.32 
		68.24,10.32 68.3,10.38 68.3,10.44 68.36,10.44 68.41,10.5 68.47,10.5 68.47,10.56 68.53,10.61 68.53,10.67 68.59,10.67 
		68.65,10.67 68.65,10.73 68.65,10.79 68.65,10.85 68.65,10.9 68.65,10.96 68.59,11.02 68.53,10.96 68.47,10.96 68.47,11.02 
		68.41,11.02 68.36,11.02 68.3,11.02 68.24,11.02 68.24,10.96 68.18,10.96 68.12,10.96 68.07,10.96 68.01,10.96 67.95,10.96 
		67.89,10.96 67.83,10.96 67.78,10.96 67.72,10.96 67.72,11.02 67.72,11.08 67.72,11.14 67.72,11.19 67.66,11.19 67.6,11.19 
		67.54,11.19 67.54,11.25 67.54,11.31 67.49,11.31 67.49,11.37 67.43,11.43 67.43,11.48 67.37,11.48 67.31,11.54 67.31,11.6 
		67.31,11.66 67.31,11.72 67.37,11.77 67.37,11.83 67.31,11.83 67.31,11.89 67.31,11.95 67.25,12.01 67.25,12.06 67.2,12.06 
		67.14,12.12 67.02,12.12 66.96,12.18 66.85,12.24 66.79,12.24 66.79,12.3 66.79,12.35 66.85,12.35 66.91,12.53 66.91,12.59 
		66.91,12.7 66.85,12.88 66.91,13.05 66.85,13.11 66.79,13.11 66.73,13.11 66.73,13.17 66.73,13.22 66.73,13.28 66.73,13.34 
		66.73,13.46 66.79,13.46 66.79,13.51 66.79,13.57 66.79,13.63 66.79,13.69 66.79,13.75 66.79,13.8 66.73,13.8 66.73,13.86 
		66.73,13.92 66.67,13.98 66.62,13.98 66.5,13.98 66.44,13.98 66.38,13.98 66.38,14.04 66.33,14.09 66.33,14.15 66.27,14.21 
		66.27,14.27 66.27,14.33 66.33,14.44 66.27,14.44 66.21,14.44 66.15,14.38 66.04,14.38 65.98,14.38 65.86,14.38 65.8,14.38 
		65.75,14.38 65.75,14.44 65.69,14.44 65.63,14.38 65.57,14.38 65.57,14.44 65.51,14.44 65.46,14.44 65.46,14.5 65.4,14.5 
		65.34,14.56 65.28,14.56 65.22,14.56 65.22,14.62 65.22,14.67 65.28,14.73 65.22,14.73 65.17,14.73 65.17,14.79 65.11,14.79 
		65.05,14.91 64.99,14.91 64.93,14.91 64.93,14.96 64.93,15.02 64.93,15.08 64.88,15.08 64.88,15.14 64.88,15.2 64.82,15.2 
		64.82,15.25 64.76,15.25 64.7,15.31 64.7,15.37 64.7,15.43 64.64,15.43 64.64,15.49 64.64,15.54 64.59,15.54 64.53,15.54 
		64.47,15.54 64.41,15.54 64.41,15.6 64.41,15.66 64.35,15.66 64.35,15.72 64.3,15.72 64.24,15.72 64.18,15.78 64.12,15.78 
		64.12,15.83 64.06,15.83 64.06,15.89 64.01,15.89 63.95,15.89 63.95,15.95 63.89,15.95 63.89,16.01 63.83,15.95 63.83,16.01 
		63.77,16.01 63.72,16.07 63.66,16.07 63.66,16.12 63.66,16.24 63.66,16.3 63.66,16.36 63.66,16.41 63.6,16.47 63.54,16.47 
		63.48,16.47 63.48,16.53 63.48,16.59 63.48,16.65 63.54,16.7 63.54,16.76 63.54,16.82 63.54,16.88 63.54,16.93 63.54,16.99 
		63.54,17.05 63.54,17.11 63.48,17.11 63.48,17.17 63.48,17.22 63.54,17.22 63.54,17.28 63.6,17.28 63.66,17.34 63.72,17.34 
		63.72,17.4 63.72,17.46 63.72,17.51 63.72,17.57 63.72,17.63 63.77,17.69 63.77,17.75 63.72,17.8 63.72,17.86 63.77,17.86 
		63.83,17.92 63.89,17.92 63.89,17.98 63.95,17.98 64.01,17.98 64.06,17.98 64.06,18.04 64.06,18.09 64.12,18.09 64.18,18.09 
		64.18,18.15 64.24,18.15 64.24,18.09 64.3,18.09 64.35,18.15 64.35,18.21 64.41,18.21 64.41,18.27 64.47,18.27 64.47,18.33 
		64.53,18.38 64.59,18.44 64.59,18.5 64.59,18.56 64.53,18.62 64.47,18.67 64.53,18.67 64.53,18.73 64.53,18.79 64.47,18.79 
		64.47,18.85 64.53,18.91 64.53,18.96 64.59,18.96 64.59,19.02 64.64,19.02 64.7,19.08 64.64,19.14 64.64,19.2 64.64,19.25 
		64.64,19.31 64.7,19.31 64.7,19.37 64.7,19.43 64.76,19.43 64.76,19.49 64.82,19.54 64.88,19.6 64.93,19.6 64.93,19.66 
		64.99,19.66 64.99,19.72 65.05,19.72 65.05,19.78 65.11,19.78 65.17,19.78 65.17,19.72 65.22,19.72 65.28,19.72 65.34,19.72 
		65.34,19.78 65.4,19.78 65.4,19.83 65.4,19.89 65.34,19.89 65.4,19.95 65.46,19.95 65.46,20.01 65.46,20.07 65.46,20.12 
		65.46,20.18 65.51,20.18 65.51,20.24 65.57,20.24 65.63,20.24 65.63,20.3 65.57,20.3 65.57,20.36 65.51,20.41 65.46,20.41 
		65.4,20.41 65.34,20.41 65.34,20.47 65.4,20.47 65.34,20.53 65.28,20.59 65.28,20.65 65.22,20.65 65.17,20.65 65.11,20.7 
		65.11,20.76 65.11,20.82 65.11,20.88 65.11,20.94 65.05,20.94 64.99,20.99 64.93,20.99 64.88,20.99 64.88,21.05 64.82,21.11 
		64.82,21.17 64.76,21.23 64.76,21.28 64.76,21.34 64.76,21.4 64.76,21.46 64.7,21.52 64.7,21.57 64.64,21.57 64.64,21.63 
		64.64,21.69 64.64,21.75 64.64,21.81 64.64,21.86 64.7,21.86 64.7,21.92 64.7,21.98 64.76,22.04 64.82,22.04 64.88,22.04 
		64.93,22.04 64.93,21.98 64.99,21.98 65.05,21.98 65.11,21.98 65.11,22.04 65.05,22.04 65.05,22.1 65.05,22.15 65.05,22.21 
		65.05,22.27 65.05,22.33 65.05,22.39 64.99,22.39 64.99,22.44 64.99,22.5 65.05,22.5 65.11,22.5 65.11,22.56 65.17,22.56 
		65.17,22.62 65.22,22.68 65.22,22.73 65.28,22.79 65.28,22.85 65.28,22.91 65.34,22.91 65.34,22.97 65.34,23.02 65.34,23.08 
		65.4,23.14 65.4,23.2 65.34,23.26 65.28,23.31 65.28,23.37 65.28,23.43 65.28,23.49 65.22,23.49 65.28,23.55 65.28,23.6 
		65.22,23.6 65.22,23.66 65.22,23.72 65.17,23.78 65.17,23.84 65.17,23.89 65.11,23.89 65.11,23.95 65.11,24.01 65.17,24.01 
		65.17,24.07 65.22,24.07 65.22,24.13 65.22,24.18 65.22,24.24 65.28,24.3 65.28,24.36 65.34,24.42 65.4,24.42 65.4,24.47 
		65.4,24.53 65.46,24.53 65.46,24.59 65.46,24.65 65.46,24.71 65.46,24.76 65.51,24.76 65.57,24.76 65.57,24.82 65.57,24.88 
		65.63,24.88 65.63,24.94 65.69,24.94 65.75,24.94 65.8,25 65.75,25.05 65.63,25.05 65.57,25.05 65.57,25.11 65.63,25.17 
		65.63,25.23 65.63,25.29 65.69,25.34 65.69,25.4 65.69,25.46 65.75,25.46 65.75,25.52 65.75,25.58 65.8,25.58 65.8,25.63 
		65.8,25.69 65.86,25.69 65.86,25.75 65.86,25.81 65.86,25.87 65.8,25.92 65.8,26.04 65.8,26.16 65.8,26.21 65.86,26.21 
		65.86,26.27 65.8,26.27 65.75,26.27 65.69,26.27 65.69,26.33 65.63,26.33 65.63,26.39 65.57,26.39 65.51,26.39 65.51,26.45 
		65.46,26.45 65.46,26.5 65.46,26.56 65.4,26.56 65.34,26.62 65.34,26.68 65.4,26.74 65.4,26.79 65.46,26.79 65.46,26.85 
		65.46,26.91 65.46,26.97 65.51,26.97 65.51,27.03 65.57,27.03 65.57,27.08 65.57,27.14 65.57,27.2 65.63,27.26 65.63,27.32 
		65.69,27.37 65.69,27.43 65.75,27.43 65.75,27.49 65.75,27.55 65.69,27.61 65.69,27.66 65.75,27.66 65.75,27.72 65.75,27.78 
		65.75,27.84 65.75,27.9 65.8,27.9 65.8,27.95 65.86,28.01 65.86,28.07 65.86,28.13 65.86,28.19 65.86,28.24 65.92,28.3 
		65.98,28.36 66.04,28.36 66.04,28.42 66.04,28.48 66.04,28.53 66.04,28.59 66.04,28.65 66.04,28.71 66.04,28.77 66.09,28.77 
		66.09,28.82 66.04,28.82 66.04,28.88 66.04,28.94 66.04,29 66.09,29.06 66.09,29.11 66.09,29.23 66.15,29.29 66.21,29.4 
		66.21,29.46 66.15,29.52 66.09,29.52 66.04,29.58 66.04,29.63 65.98,29.63 65.98,29.69 66.04,29.69 66.04,29.75 65.98,29.81 
		66.04,29.87 65.98,29.92 65.92,29.98 65.86,30.04 65.8,30.04 65.75,30.1 65.75,30.16 65.69,30.16 65.69,30.21 65.63,30.21 
		65.57,30.21 65.51,30.27 65.57,30.27 65.57,30.33 65.57,30.39 65.57,30.45 65.51,30.5 65.51,30.56 65.46,30.56 65.46,30.62 
		65.46,30.68 65.46,30.74 65.4,30.74 65.4,30.79 65.34,30.79 65.28,30.85 65.22,30.85 65.17,30.91 65.17,30.97 65.17,31.03 
		65.17,31.08 65.17,31.14 65.17,31.2 65.17,31.26 65.17,31.32 41.33,31.32 41.39,31.26 41.39,31.2 41.33,31.2 41.39,31.14 
		41.45,31.14 41.51,31.14 41.56,31.14 41.56,31.2 41.62,31.2 41.68,31.2 41.68,31.14 41.74,31.14 41.8,31.14 41.85,31.14 
		41.91,31.08 42.03,31.03 42.09,30.97 42.09,30.91 42.14,30.91 42.2,30.85 42.2,30.79 42.26,30.79 42.32,30.79 42.32,30.74 
		42.32,30.68 42.32,30.62 42.26,30.62 42.26,30.56 42.26,30.5 42.26,30.45 42.2,30.39 42.14,30.33 42.09,30.33 42.09,30.27 
		42.09,30.21 42.09,30.16 42.09,30.1 42.03,30.04 42.03,29.98 42.03,29.92 41.97,29.92 41.97,29.87 41.97,29.81 42.03,29.81 
		42.03,29.75 42.03,29.69 42.03,29.63 42.03,29.58 42.09,29.52 42.09,29.46 42.14,29.4 42.14,29.34 42.2,29.34 42.26,29.34 
		42.26,29.29 42.26,29.17 42.32,29.17 42.32,29.11 42.37,29.11 42.43,29.11 42.49,29.06 42.49,29 42.43,29 42.43,28.94 42.37,28.94 
		42.32,28.94 42.32,28.88 42.26,28.88 42.26,28.82 42.2,28.77 42.14,28.71 42.2,28.71 42.2,28.65 42.2,28.59 42.26,28.59 
		42.26,28.53 42.32,28.48 42.32,28.42 42.37,28.42 42.37,28.36 42.32,28.36 42.32,28.3 42.32,28.24 42.32,28.19 42.37,28.13 
		42.43,28.13 42.43,28.07 42.43,28.01 42.37,27.95 42.37,27.9 42.43,27.84 42.37,27.84 42.32,27.78 42.26,27.72 42.26,27.66 
		42.2,27.66 42.2,27.61 42.14,27.61 42.14,27.55 42.14,27.49 42.14,27.43 42.09,27.43 42.03,27.43 42.03,27.37 42.03,27.32 
		42.03,27.26 42.03,27.2 42.09,27.2 42.09,27.14 42.14,27.08 42.14,27.03 42.14,26.97 42.09,26.91 42.09,26.85 42.03,26.79 
		42.03,26.74 42.09,26.68 42.03,26.62 42.03,26.56 42.09,26.56 42.14,26.56 42.2,26.56 42.2,26.5 42.2,26.45 42.2,26.39 
		42.14,26.39 42.09,26.33 42.03,26.33 42.03,26.27 41.97,26.21 41.91,26.21 41.91,26.16 41.85,26.16 41.8,26.16 41.74,26.16 
		41.74,26.1 41.74,26.04 41.68,25.92 41.62,25.87 41.68,25.81 41.68,25.75 41.62,25.75 41.62,25.69 41.56,25.69 41.56,25.63 
		41.62,25.58 41.56,25.52 41.51,25.46 41.51,25.4 41.51,25.34 41.51,25.29 41.56,25.23 41.56,25.17 41.62,25.11 41.62,25.05 
		41.68,25 41.74,25 41.8,25 41.85,25 41.85,25.05 41.91,25.05 41.97,25.05 42.03,25.05 42.03,25 42.09,24.94 42.09,24.88 
		42.14,24.88 42.2,24.88 42.2,24.82 42.2,24.76 42.26,24.76 42.26,24.71 42.2,24.71 42.14,24.71 42.09,24.65 42.09,24.59 
		42.03,24.53 41.97,24.53 41.97,24.47 41.91,24.47 41.91,24.42 41.91,24.36 41.91,24.3 41.97,24.24 42.03,24.24 42.03,24.18 
		42.03,24.13 42.03,24.07 41.97,24.07 41.97,24.01 42.03,23.95 41.97,23.89 41.91,23.89 41.91,23.84 41.91,23.78 41.91,23.72 
		41.91,23.66 41.85,23.66 41.85,23.6 41.91,23.6 41.91,23.55 41.85,23.49 41.91,23.43 41.97,23.37 42.03,23.37 42.03,23.31 
		42.09,23.26 42.09,23.2 42.09,23.14 42.14,23.08 42.09,23.02 42.09,22.97 42.09,22.91 42.09,22.85 42.09,22.79 42.14,22.79 
		42.14,22.85 42.2,22.85 42.26,22.85 42.26,22.79 42.32,22.79 42.32,22.73 42.32,22.68 42.32,22.62 42.32,22.56 42.32,22.5 
		42.26,22.5 42.26,22.44 42.32,22.44 42.26,22.39 42.26,22.33 42.26,22.27 42.2,22.21 42.14,22.21 42.14,22.15 42.14,22.1 
		42.14,22.04 42.2,22.04 42.2,21.98 42.2,21.92 42.2,21.86 42.14,21.81 42.14,21.75 42.09,21.69 42.03,21.69 41.97,21.69 
		41.97,21.63 41.97,21.57 41.97,21.52 41.91,21.46 41.85,21.4 41.85,21.34 41.8,21.34 41.74,21.34 41.74,21.28 41.68,21.28 
		41.68,21.23 41.62,21.23 41.62,21.17 41.56,21.17 41.51,21.17 41.45,21.23 41.39,21.28 41.39,21.34 41.33,21.34 41.33,21.28 
		41.33,21.23 41.27,21.17 41.27,21.11 41.22,21.05 41.22,20.99 41.22,20.94 41.22,20.88 41.27,20.82 41.27,20.76 41.27,20.7 
		41.22,20.65 41.22,20.59 41.16,20.59 41.16,20.53 41.22,20.53 41.22,20.47 41.22,20.41 41.22,20.36 41.22,20.3 41.22,20.24 
		41.22,20.18 41.22,20.12 41.22,20.07 41.27,20.07 41.27,20.01 41.22,19.95 41.16,19.95 41.1,19.95 41.1,19.89 41.04,19.89 
		40.98,19.89 40.93,19.83 40.87,19.78 40.75,19.72 40.69,19.72 40.64,19.66 40.58,19.66 40.58,19.6 40.52,19.6 40.52,19.54 
		40.58,19.54 40.58,19.49 40.58,19.43 40.58,19.37 40.52,19.37 40.52,19.31 40.52,19.25 40.52,19.2 40.52,19.14 40.52,19.08 
		40.46,19.02 40.46,18.96 40.52,18.96 40.52,18.91 40.46,18.79 40.4,18.73 40.4,18.67 40.35,18.67 40.35,18.62 40.35,18.56 
		40.35,18.5 40.4,18.5 40.4,18.44 40.4,18.38 40.4,18.33 40.4,18.27 40.4,18.21 40.35,18.21 40.35,18.15 40.35,18.09 40.35,18.04 
		40.4,18.04 40.4,17.98 40.4,17.92 40.46,17.92 40.46,17.86 40.4,17.8 40.35,17.8 40.35,17.75 40.29,17.75 40.23,17.75 40.17,17.75 
		40.11,17.75 40.06,17.75 40,17.69 39.94,17.63 39.94,17.57 39.88,17.57 39.88,17.51 39.88,17.46 39.88,17.4 39.88,17.34 
		39.88,17.28 39.82,17.28 39.77,17.28 39.77,17.34 39.71,17.34 39.65,17.34 39.59,17.28 39.59,17.22 39.53,17.22 39.48,17.22 
		39.36,17.17 39.3,17.11 39.24,17.05 39.24,16.99 39.24,16.93 39.19,16.93 39.13,16.88 39.07,16.88 39.01,16.88 38.95,16.82 
		38.9,16.82 38.9,16.76 38.84,16.76 38.84,16.7 38.84,16.65 38.84,16.59 38.78,16.59 38.72,16.53 38.66,16.53 38.66,16.47 
		38.61,16.41 38.61,16.36 38.55,16.36 38.55,16.3 38.49,16.3 38.43,16.3 38.37,16.3 38.32,16.3 38.32,16.24 38.26,16.18 38.2,16.12 
		38.2,16.07 38.2,16.01 38.26,16.01 38.26,15.95 38.26,15.89 38.26,15.83 38.26,15.78 38.26,15.72 38.26,15.66 38.26,15.6 
		38.2,15.54 38.2,15.49 38.2,15.43 38.2,15.37 38.26,15.37 38.2,15.25 38.2,15.2 38.2,15.14 38.14,15.14 38.14,15.08 38.14,15.02 
		38.2,15.02 38.26,15.02 38.32,15.02 38.37,14.96 38.43,14.91 38.43,14.85 38.49,14.85 38.55,14.79 38.61,14.79 38.61,14.73 
		38.66,14.73 38.66,14.67 38.72,14.67 38.78,14.67 38.84,14.67 38.9,14.67 38.9,14.62 38.95,14.62 39.01,14.62 39.07,14.62 
		39.13,14.62 39.19,14.62 39.19,14.56 39.24,14.56 39.3,14.5 39.36,14.5 39.42,14.5 39.48,14.44 39.48,14.38 39.48,14.33 
		39.48,14.27 39.48,14.21 39.53,14.21 39.59,14.27 39.65,14.27 39.71,14.27 39.77,14.33 39.82,14.33 39.82,14.38 39.88,14.44 
		39.94,14.44 39.94,14.5 40,14.56 40,14.62 40.06,14.62 40.06,14.67 40.11,14.67 40.11,14.62 40.17,14.62 40.17,14.67 40.17,14.73 
		40.17,14.79 40.23,14.85 40.23,14.91 40.29,14.91 40.29,14.96 40.35,14.96 40.35,15.02 40.4,15.02 40.46,15.08 40.46,15.14 
		40.4,15.14 40.4,15.2 40.46,15.2 40.46,15.25 40.52,15.25 40.58,15.2 40.58,15.25 40.64,15.25 40.69,15.25 40.75,15.25 
		40.81,15.31 40.81,15.37 40.87,15.37 40.87,15.43 40.93,15.43 40.98,15.49 41.04,15.49 41.04,15.54 41.04,15.6 41.1,15.66 
		41.16,15.66 41.22,15.66 41.22,15.72 41.27,15.72 41.33,15.78 41.39,15.72 41.33,15.72 41.33,15.66 41.39,15.66 41.39,15.6 
		41.39,15.54 41.39,15.49 41.39,15.43 41.39,15.37 41.39,15.31 41.45,15.31 41.45,15.25 41.45,15.2 41.51,15.2 41.45,15.14 
		41.45,15.08 41.45,15.02 41.51,15.02 41.45,14.96 41.51,14.96 41.51,14.91 41.56,14.91 41.56,14.85 41.51,14.85 41.51,14.79 
		41.51,14.73 41.51,14.67 41.56,14.67 41.56,14.73 41.62,14.67 41.68,14.67 41.68,14.62 41.74,14.62 41.8,14.62 41.8,14.56 
		41.85,14.56 41.85,14.5 41.91,14.5 41.97,14.44 42.03,14.44 42.03,14.38 42.09,14.38 42.09,14.33 42.14,14.33 42.2,14.33 
		42.26,14.38 42.32,14.38 42.37,14.38 42.43,14.38 42.49,14.44 42.49,14.5 42.55,14.5 42.61,14.5 42.66,14.56 42.72,14.56 
		42.72,14.5 42.78,14.5 42.84,14.5 42.9,14.44 42.9,14.38 42.9,14.33 42.9,14.27 42.95,14.27 43.01,14.27 43.01,14.33 43.07,14.33 
		43.07,14.38 43.13,14.38 43.19,14.38 43.19,14.33 43.24,14.33 43.3,14.33 43.3,14.27 43.3,14.21 43.3,14.15 43.3,14.09 
		43.24,14.09 43.24,14.04 43.24,13.98 43.24,13.92 43.24,13.86 43.3,13.86 43.3,13.92 43.36,13.92 43.42,13.92 43.48,13.86 
		43.53,13.86 43.59,13.8 43.59,13.75 43.71,13.75 43.77,13.75 43.82,13.75 43.82,13.69 43.88,13.69 43.88,13.63 43.94,13.63 
		44,13.57 44.06,13.57 44.06,13.51 44.11,13.51 44.17,13.51 44.23,13.51 44.23,13.57 44.23,13.63 44.29,13.63 44.35,13.69 
		44.35,13.63 44.35,13.57 44.4,13.57 44.46,13.51 44.52,13.46 44.52,13.4 44.46,13.34 44.46,13.28 44.46,13.22 44.52,13.22 
		44.52,13.17 44.58,13.17 44.64,13.11 44.69,13.11 44.75,13.11 44.81,13.11 44.81,13.17 44.87,13.17 44.93,13.17 44.98,13.17 
		44.98,13.11 45.04,13.11 45.04,13.05 45.1,13.05 45.16,12.99 45.22,12.99 45.27,12.99 45.33,12.99 45.39,12.99 45.45,12.99 
		45.56,12.93 45.62,12.88 45.68,12.88 45.74,12.88 45.8,12.82 45.8,12.76 45.85,12.76 45.85,12.7 45.91,12.64 45.97,12.59 
		46.03,12.64 46.09,12.7 46.2,12.76 46.26,12.76 46.38,12.76 46.43,12.76 46.49,12.76 46.55,12.82 46.61,12.88 46.67,12.93 
		46.72,12.99 46.78,12.99 46.9,12.99 46.96,12.99 47.01,12.93 47.07,12.93 47.13,12.93 47.13,12.88 47.19,12.88 47.19,12.82 
		47.25,12.82 47.3,12.82 47.3,12.88 47.36,12.88 47.42,12.88 47.42,12.93 47.48,12.93 47.54,12.93 47.59,12.93 47.65,12.93 
		47.71,12.93 47.77,12.99 47.83,12.99 47.88,12.99 47.88,13.05 47.94,13.05 48,13.05 48,13.11 48.06,13.11 48.06,13.05 48.12,13.05 
		48.17,13.05 48.17,12.99 48.23,12.99 48.23,12.93 48.23,12.88 48.29,12.88 48.29,12.82 48.35,12.82 48.35,12.76 48.41,12.76 
		48.41,12.7 48.41,12.64 48.46,12.64 48.52,12.59 48.52,12.53 48.58,12.53 48.58,12.47 48.64,12.41 48.7,12.35 48.7,12.3 
		48.75,12.3 48.81,12.3 48.87,12.3 48.93,12.3 48.93,12.24 48.99,12.24 48.99,12.18 49.04,12.18 49.04,12.12 49.1,12.12 
		49.16,12.12 49.22,12.12 49.28,12.06 49.33,12.01 49.39,12.01 49.39,11.95 49.45,11.89 49.51,11.89 49.57,11.83 49.57,11.77 
		49.62,11.77 49.62,11.72 49.68,11.72 49.74,11.66 49.74,11.6 49.74,11.54 49.74,11.48 49.74,11.43 49.68,11.37 49.74,11.37 
		49.74,11.31 49.8,11.31 49.8,11.25 49.8,11.19 49.8,11.14 49.86,11.14 49.86,11.08 49.91,11.08 49.91,11.02 49.97,11.02 
		50.03,11.02 50.09,11.02 50.15,11.02 50.15,11.08 50.2,11.08 50.2,11.14 50.26,11.14 50.32,11.14 50.38,11.19 50.38,11.25 
		50.38,11.31 50.38,11.37 50.44,11.43 50.44,11.48 50.49,11.48 50.55,11.54 50.61,11.6 50.67,11.6 50.73,11.66 50.78,11.66 
		50.84,11.66 50.9,11.66 51.02,11.72 51.07,11.72 51.07,11.77 51.13,11.77 51.13,11.83 51.07,11.89 51.07,11.95 51.13,11.95 
		51.19,12.01 51.19,12.06 51.25,12.06 51.31,12.06 51.36,12.06 51.42,12.06 51.48,12.06 51.54,12.12 51.6,12.18 51.65,12.24 
		51.65,12.3 51.71,12.3 51.77,12.3 51.77,12.35 51.83,12.35 51.83,12.41 51.89,12.41 51.89,12.47 51.89,12.53 51.94,12.59 
		51.94,12.64 52,12.64 52,12.59 52.06,12.59 52.12,12.64 52.18,12.64 52.18,12.7 52.23,12.7 52.29,12.64 52.29,12.7 52.35,12.7 
		52.35,12.76 52.41,12.76 52.47,12.76 52.47,12.7 52.52,12.7 52.52,12.76 52.58,12.7 52.58,12.76 52.64,12.76 52.64,12.7 52.7,12.7 
		52.7,12.64 52.76,12.64 52.76,12.59 52.81,12.59 52.87,12.59 52.87,12.53 52.87,12.47 52.87,12.41 52.93,12.41 52.93,12.35 
		52.99,12.35 53.05,12.35 53.1,12.35 53.1,12.41 53.16,12.41 53.22,12.41 53.22,12.47 53.28,12.47 53.28,12.53 53.34,12.53 
		53.39,12.53 53.45,12.47 53.51,12.47 53.57,12.47 53.57,12.53 53.63,12.53 53.63,12.59 53.57,12.59 53.57,12.64 53.51,12.64 
		53.51,12.7 53.45,12.7 53.51,12.76 53.57,12.76 53.63,12.82 53.68,12.82 53.68,12.88 53.74,12.93 53.74,12.99 53.74,13.05 
		53.8,13.11 53.86,13.11 53.92,13.17 53.97,13.22 54.03,13.22 54.09,13.22 54.15,13.28 54.21,13.28 54.26,13.28 54.26,13.34 
		54.32,13.34 54.32,13.4 54.38,13.4 54.38,13.46 54.44,13.46 54.44,13.51 54.5,13.51 54.55,13.51 54.61,13.51 54.67,13.51 
		54.79,13.51 54.84,13.51 54.84,13.46 54.9,13.46 54.9,13.4 54.96,13.4 54.96,13.34 54.9,13.34 54.84,13.28 54.84,13.22 
		54.84,13.17 54.9,13.11 54.84,13.05 54.9,13.05 54.9,12.99 54.9,12.93 54.84,12.93 54.84,12.88 54.84,12.82 54.84,12.76 
		54.84,12.7 54.79,12.7 54.84,12.64 54.84,12.59 54.84,12.53 54.84,12.47 54.9,12.41 54.9,12.35 54.9,12.3 54.9,12.24 54.9,12.18 
		54.96,12.12 54.96,12.06 54.96,12.01 55.02,11.95 55.02,11.89 55.02,11.83 55.02,11.77 55.02,11.72 55.02,11.66 55.08,11.66 
		55.13,11.66 55.13,11.72 55.19,11.77 55.25,11.77 55.31,11.83 55.31,11.89 55.37,11.89 55.42,11.89 55.42,11.83 55.42,11.77 
		55.42,11.72 55.48,11.72 55.54,11.72 55.6,11.72 55.66,11.66 55.71,11.66 55.71,11.6 55.77,11.54 55.77,11.48 55.71,11.48 
		55.71,11.43 55.71,11.37 55.71,11.31 55.77,11.19 55.77,11.14 55.83,11.08 55.83,11.02 55.89,11.02 55.95,10.96 55.95,10.9 
		55.95,10.85 55.95,10.79 55.95,10.73 56,10.67 56,10.61 56,10.56 56.06,10.56 56.12,10.56 56.12,10.5 56.12,10.44 56.12,10.38 
		56.18,10.32 56.18,10.27 56.18,10.21 56.18,10.15 56.18,10.09 56.18,10.03 56.18,9.98 56.18,9.92 56.24,9.86 56.24,9.8 56.29,9.8 
		56.29,9.74 56.29,9.69 56.29,9.63 56.29,9.57 56.24,9.51 56.18,9.51 56.12,9.51 56.12,9.45 56.12,9.4 56.06,9.4 55.95,9.28 
		55.95,9.22 55.95,9.16 56,9.16 56,9.11 56,9.05 56,8.99 56,8.93 56,8.87 56,8.82 56.06,8.82 56.06,8.76 56.06,8.7 56.06,8.64 
		56,8.64 56,8.58 56,8.53 56,8.47 56,8.41 56.06,8.35 56.06,8.29 56.06,8.24 56.06,8.18 56,8.18 55.95,8.12 55.89,8.12 55.95,8.06 
		55.95,8 55.95,7.95 55.95,7.89 55.95,7.83 55.95,7.77 56,7.77 56.06,7.77 56.06,7.71 56.06,7.66 56.06,7.6 56.06,7.54 56,7.48 
		55.95,7.48 55.95,7.42 55.95,7.37 55.95,7.31 55.95,7.25 55.95,7.19 55.89,7.19 55.89,7.13 55.95,7.13 56,7.08 56.06,7.08 
		56.06,7.13 56.06,7.19 56.06,7.25 56.12,7.25 56.18,7.25 56.24,7.25 56.24,7.19 56.29,7.13 56.29,7.08 56.35,7.08 56.41,7.02 
		56.41,7.08 56.47,7.08 56.53,7.08 56.53,7.02 56.58,7.02 56.58,6.96 56.58,6.9 56.53,6.84 56.53,6.79 56.53,6.73 56.53,6.67 
		56.53,6.61 56.58,6.55 56.64,6.5 56.64,6.44 56.64,6.38 56.58,6.38 56.53,6.32 56.53,6.26 56.47,6.21 56.47,6.15 56.47,6.09 
		56.47,6.03 56.47,5.97 56.47,5.92 56.47,5.86 56.41,5.8 56.35,5.8 56.35,5.74 56.29,5.68 56.24,5.63 56.24,5.57 56.24,5.51 
		56.29,5.45 56.29,5.39 56.35,5.34 56.35,5.28 56.35,5.22 56.35,5.16 56.35,5.1 56.41,4.99 56.47,4.93 56.53,4.93 56.53,4.87 
		56.58,4.81 56.64,4.81 56.64,4.76 56.7,4.76 56.76,4.76 56.82,4.76 56.87,4.7 56.87,4.64 56.93,4.64 56.93,4.58 56.93,4.52 
		56.87,4.52 56.82,4.52 56.76,4.47 56.76,4.41 56.7,4.41 56.7,4.35 56.7,4.29 56.7,4.24 56.64,4.24 56.64,4.18 56.58,4.12 
		56.58,4.06 56.58,4 56.64,4 56.64,3.95 56.64,3.89 56.64,3.83 56.64,3.77 56.64,3.71 56.64,3.66 56.64,3.6 56.64,3.54 56.64,3.48 
		56.64,3.42 56.64,3.37 56.64,3.31 56.7,3.25 56.76,3.19 56.76,3.13 56.87,3.08 56.87,3.02 56.93,3.02 56.93,2.96 56.93,2.9 
		56.93,2.84 56.99,2.79 56.99,2.73 56.99,2.67 56.99,2.61 56.99,2.55 57.05,2.55 57.11,2.5 57.16,2.5 57.22,2.5 57.22,2.44 
		57.28,2.44 57.34,2.44 57.34,2.38 57.34,2.32 57.4,2.32 57.4,2.26 57.4,2.21 57.4,2.15 57.4,2.09 57.4,1.97 57.45,1.92 57.4,1.86 
		57.4,1.8 57.34,1.8 57.34,1.74 57.4,1.68 57.4,1.63 57.4,1.57 57.45,1.57 57.45,1.51 57.51,1.45 57.51,1.39 57.57,1.39 57.57,1.34 
		57.63,1.34 57.63,1.28 57.69,1.28 57.74,1.28 57.8,1.28 57.86,1.34 57.86,1.39 57.92,1.39 57.97,1.39 58.03,1.39 58.09,1.39 
		58.15,1.39 58.15,1.34 58.15,1.28 58.21,1.22 58.21,1.16 58.26,1.1 58.26,1.16 58.32,1.16 58.32,1.22 58.32,1.28 58.38,1.34 
		58.38,1.39 58.44,1.39 58.5,1.39 58.55,1.39 58.61,1.39 58.67,1.39 58.73,1.34 58.79,1.28 58.84,1.34 58.9,1.34 58.9,1.28 
		58.96,1.28 59.02,1.28 59.08,1.22 59.13,1.22 59.19,1.16 59.25,1.16 59.25,1.22 59.31,1.22 59.31,1.16 59.37,1.16 59.42,1.16 
		59.42,1.1 59.37,1.1 59.37,1.05 59.31,1.05 59.31,0.99 59.31,0.93 59.31,0.87 59.25,0.81 59.25,0.76 59.19,0.76 59.25,0.7 
		59.31,0.7 59.31,0.64 59.37,0.64 59.42,0.64 59.48,0.64 59.54,0.64 59.6,0.64 59.6,0.58 59.66,0.58 59.71,0.58 59.77,0.58 
		59.83,0.52 59.89,0.52 59.89,0.47 59.95,0.41 59.95,0.35 60,0.35 60.06,0.35 60.06,0.29 60.12,0.29 60.18,0.29 60.24,0.29 
		60.24,0.23 60.29,0.23 60.35,0.23 60.41,0.29 60.47,0.29 60.53,0.29 60.53,0.23 60.58,0.23 60.64,0.23 60.7,0.23 60.7,0.29 
		60.76,0.35 60.82,0.35 60.87,0.35 60.93,0.41 60.99,0.41 61.05,0.41 61.11,0.41 61.16,0.41 61.22,0.41 61.28,0.41 61.34,0.41 
		61.4,0.35 61.45,0.35 61.51,0.29 61.57,0.29 61.57,0.23 61.63,0.23 61.63,0.29 61.69,0.29 61.74,0.29 61.8,0.29 61.86,0.29 
		61.92,0.29 61.98,0.29 62.03,0.29 62.03,0.35 62.09,0.35 62.15,0.35 62.15,0.41 62.21,0.41 62.21,0.47 62.27,0.47 62.27,0.52 
		62.27,0.58 62.27,0.64 62.32,0.64 62.38,0.64 62.44,0.64 62.5,0.58 62.56,0.52 62.56,0.47 62.61,0.47 62.67,0.47 62.67,0.52 
		62.73,0.52 62.73,0.58 62.79,0.58 62.79,0.64 62.79,0.7 62.85,0.7 62.85,0.76 62.9,0.76 62.9,0.81 62.96,0.87 63.02,0.87 
		63.08,0.87 63.14,0.87 63.19,0.87 63.25,0.87 63.31,0.81 63.37,0.81 63.37,0.87 63.43,0.81 63.48,0.87 63.54,0.93 63.54,0.99 
		63.6,1.05 63.6,1.1 63.6,1.16 63.66,1.16 63.72,1.16 63.77,1.16 63.83,1.22 63.89,1.28 63.95,1.28 63.95,1.34 64.01,1.34 
		64.01,1.39 64.06,1.45 64.12,1.45 64.18,1.45 64.18,1.51 64.24,1.51 64.3,1.51 64.3,1.57 64.3,1.63 64.35,1.63 64.41,1.63 
		64.41,1.68 64.47,1.68 64.47,1.74 64.47,1.8 64.53,1.8 64.59,1.8 64.59,1.86 64.59,1.92 64.64,1.92 64.7,1.92 64.76,1.97 
		64.82,1.97 64.88,1.97 64.93,1.97 64.99,2.03 65.05,2.09 65.11,2.15 65.17,2.21 65.22,2.26 65.22,2.32 65.28,2.32 65.34,2.32 
		65.4,2.32 65.46,2.38 65.51,2.38 65.51,2.32 65.57,2.32 65.57,2.26 65.63,2.26 65.63,2.21 65.69,2.21 65.75,2.21 65.8,2.21 
		65.86,2.21 65.92,2.21 65.98,2.21 65.98,2.26 66.04,2.26 66.09,2.26 66.09,2.21 66.09,2.15 66.15,2.15 66.21,2.15 66.21,2.21 
		66.27,2.21 66.27,2.15 66.33,2.15 66.38,2.15 66.38,2.09 66.44,2.03 66.44,1.97 66.5,1.97 66.56,1.97 66.62,1.97 66.67,1.97 
		66.67,1.92 66.73,1.92 66.79,1.92 66.85,1.92 66.91,1.86 67.02,1.8 67.08,1.8 67.2,1.74 67.25,1.68 67.31,1.68 67.37,1.68 
		67.43,1.68 67.43,1.74 67.49,1.74 67.54,1.74 67.6,1.74 67.66,1.74 67.72,1.74 67.78,1.74 67.78,1.68 67.83,1.68 67.89,1.68 
		67.95,1.74 67.95,1.8 68.01,1.8 68.01,1.74 68.07,1.74 68.12,1.68 68.18,1.68 68.24,1.68 68.3,1.68 68.36,1.68 68.41,1.68 
		68.47,1.63 68.47,1.57 68.47,1.51 68.53,1.51 68.59,1.51 68.65,1.51 68.7,1.51 68.7,1.57 68.76,1.57 68.82,1.57 68.82,1.63 
		68.88,1.63 68.94,1.63 68.99,1.63 69.05,1.63 69.11,1.63 69.17,1.63 69.23,1.63 69.28,1.57 69.34,1.51 69.34,1.45 69.4,1.39 
		69.4,1.34 69.46,1.34 69.52,1.34 69.57,1.34 69.63,1.34 69.63,1.39 69.69,1.39 69.75,1.39 69.75,1.34 69.81,1.34 69.86,1.28 
		69.86,1.22 69.92,1.16 69.98,1.16 70.04,1.16 70.1,1.1 70.15,1.05 70.21,1.05 70.27,0.99 70.33,0.99 70.39,0.99 70.44,0.99 
		70.5,0.99 70.56,0.99 70.62,0.99 70.68,0.99 70.68,0.93 70.73,0.93 70.79,0.93 70.79,0.87 70.85,0.87 70.85,0.81 70.91,0.76 
		70.97,0.76 71.02,0.76 71.08,0.76 71.14,0.76 71.14,0.7 71.14,0.64 71.14,0.58 71.14,0.52 71.14,0.47 71.08,0.47 71.08,0.41 
		71.08,0.35 71.02,0.29 71.02,0.23 70.97,0.23 70.97,0.18 71.02,0.18 71.08,0.18 71.08,0.12 71.14,0.12 71.2,0.12 71.2,0.06 
		71.26,0 71.31,-0.06 71.37,-0.11 71.43,-0.17 	"/>
</g>
</svg>
