<?xml version="1.0" encoding="utf-8"?>
<!-- Generator: Adobe Illustrator 24.2.1, SVG Export Plug-In . SVG Version: 6.00 Build 0)  -->
<svg version="1.1" id="Layer_1" xmlns="http://www.w3.org/2000/svg" xmlns:xlink="http://www.w3.org/1999/xlink" x="0px" y="0px"
	 viewBox="0 0 97.23 97.23" style="enable-background:new 0 0 97.23 97.23;" xml:space="preserve">
<style type="text/css">
	.st0{fill-rule:evenodd;clip-rule:evenodd;}
</style>
<polygon class="st0" points="79.43,48.1 79.31,48.1 79.31,48.21 79.31,48.32 79.2,48.32 79.2,48.44 79.09,48.44 78.97,48.44 
	78.86,48.44 78.75,48.55 78.63,48.66 78.63,48.78 78.52,48.89 78.41,49 78.41,49.12 78.41,49.23 78.41,49.34 78.3,49.46 78.3,49.57 
	78.18,49.57 78.07,49.68 78.07,49.8 77.96,49.8 77.84,49.8 77.73,49.8 77.62,49.91 77.5,49.91 77.39,49.91 77.28,49.91 77.16,50.02 
	77.16,50.14 77.05,50.25 77.05,50.36 77.05,50.48 76.94,50.48 76.94,50.59 76.82,50.59 76.71,50.7 76.71,50.82 76.71,50.93 
	76.6,50.93 76.6,51.04 76.48,51.16 76.37,51.27 76.26,51.27 76.26,51.38 76.14,51.5 76.14,51.38 76.03,51.27 75.92,51.27 
	75.8,51.16 75.69,51.27 75.58,51.38 75.46,51.38 75.35,51.27 75.24,51.27 75.24,51.38 75.12,51.38 75.01,51.5 74.9,51.61 
	74.78,51.61 74.78,51.72 74.78,51.84 74.67,51.84 74.67,51.95 74.67,52.06 74.56,52.17 74.56,52.29 74.56,52.4 74.56,52.51 
	74.44,52.63 74.33,52.74 74.33,52.85 74.22,52.85 74.22,52.97 74.22,53.08 74.11,53.19 73.99,53.31 73.99,53.42 73.99,53.53 
	73.99,53.65 73.88,53.65 73.88,53.76 73.88,53.87 73.77,53.87 73.77,53.76 73.77,53.87 73.65,53.87 73.65,53.76 73.54,53.76 
	73.54,53.87 73.54,53.99 73.43,53.99 73.43,54.1 73.31,54.1 73.2,54.1 73.09,54.1 73.09,54.21 72.97,54.21 72.97,54.1 72.97,53.99 
	72.86,53.99 72.86,54.1 72.75,54.1 72.63,54.1 72.41,54.1 72.29,54.21 72.18,54.21 72.07,54.21 72.07,54.33 72.07,54.21 
	71.95,54.21 71.95,54.1 71.84,54.1 71.84,54.21 71.73,54.21 71.61,54.1 71.61,53.99 71.5,53.87 71.5,53.76 71.61,53.76 71.61,53.65 
	71.5,53.65 71.5,53.76 71.39,53.76 71.27,53.76 71.16,53.76 71.16,53.87 71.16,53.99 71.16,54.1 71.05,54.1 70.93,54.1 70.93,53.99 
	70.82,53.99 70.82,54.1 70.82,54.21 70.93,54.33 70.82,54.33 70.71,54.33 70.71,54.21 70.71,54.1 70.71,53.99 70.59,53.99 
	70.48,53.99 70.48,53.87 70.37,53.87 70.25,53.87 70.25,53.99 70.37,53.99 70.37,54.1 70.25,54.1 70.14,54.1 70.03,54.1 
	70.14,54.33 70.03,54.33 69.46,54.67 69.35,54.67 69.35,54.89 69.35,55.01 69.24,55.23 69.12,55.23 69.12,55.35 69.01,55.46 
	68.9,55.57 68.9,55.69 68.9,55.8 68.78,55.91 68.78,56.14 68.67,56.14 68.67,56.25 68.56,56.48 68.33,56.59 68.22,56.48 68.1,56.48 
	67.99,56.48 67.88,56.48 67.76,56.36 67.54,56.48 67.42,56.48 67.31,56.59 67.2,56.7 67.08,56.93 66.97,57.04 66.74,57.16 
	66.63,57.16 66.52,57.16 66.29,57.27 66.18,57.5 65.95,57.61 65.39,57.95 65.05,58.06 64.82,57.95 64.71,57.95 64.59,58.06 
	64.59,57.95 64.48,57.95 64.48,58.06 64.37,58.06 64.37,58.18 64.37,58.29 64.48,58.29 64.59,58.29 64.48,58.29 64.48,58.4 
	64.48,58.52 64.48,58.63 64.48,58.74 64.59,58.74 64.59,58.86 64.48,58.86 64.37,58.86 64.37,58.74 64.25,58.74 64.14,58.86 
	64.25,58.86 64.25,58.97 64.25,59.08 64.14,59.08 64.14,59.2 64.25,59.2 64.25,59.31 64.37,59.31 64.37,59.42 64.48,59.42 
	64.59,59.42 64.59,59.54 64.48,59.54 64.37,59.54 64.37,59.65 64.48,59.76 64.48,59.88 64.48,59.99 64.37,59.99 64.37,59.88 
	64.25,59.88 64.25,59.99 64.14,59.99 64.14,60.1 64.25,60.1 64.37,60.1 64.37,60.22 64.37,60.33 64.37,60.44 64.25,60.44 
	64.25,60.33 64.14,60.44 64.14,60.55 64.25,60.55 64.25,60.67 64.14,60.78 64.25,60.78 64.25,60.89 64.14,60.89 64.14,61.01 
	64.14,60.89 64.03,60.89 63.91,60.89 63.91,60.78 63.8,60.78 63.57,60.78 63.46,60.67 62.55,60.55 61.08,60.33 60.97,60.33 
	60.86,60.33 60.74,60.33 60.63,60.33 60.63,60.22 60.52,60.22 60.52,60.33 60.4,60.33 60.29,60.22 60.18,60.22 60.06,60.22 
	60.06,60.33 59.95,60.33 59.84,60.22 59.72,60.33 59.5,60.44 59.38,60.44 59.27,60.33 59.16,60.44 59.04,60.55 58.93,60.55 
	58.93,60.67 58.82,60.67 58.82,60.78 58.7,60.78 58.59,60.78 58.59,60.89 58.48,60.89 58.48,61.01 58.36,61.01 58.36,61.12 
	58.25,61.12 58.25,61.23 58.25,61.35 58.36,61.57 58.36,61.69 58.36,61.8 58.36,61.91 58.25,61.91 58.25,62.03 58.14,62.14 
	58.14,62.25 58.25,62.48 58.25,62.59 58.25,62.82 58.14,62.93 58.14,63.05 58.14,63.16 58.25,63.27 58.25,63.39 58.14,63.39 
	58.14,63.5 58.14,63.61 58.14,63.73 58.14,63.84 58.25,63.84 58.25,63.95 58.25,64.07 58.25,64.18 58.25,64.29 58.36,64.29 
	58.36,64.41 58.36,64.52 58.36,64.63 58.36,64.74 58.48,64.86 58.36,64.86 58.36,64.97 58.25,65.2 58.25,65.31 58.25,65.42 
	58.25,65.54 58.14,65.65 58.14,65.76 58.25,65.76 58.25,65.88 58.36,65.88 58.36,65.99 58.36,66.1 58.48,66.22 58.48,66.33 
	58.48,66.44 58.48,66.56 58.48,66.67 58.36,66.78 58.36,66.9 58.25,67.01 58.25,67.12 58.14,67.24 58.14,67.35 58.25,67.46 
	58.36,67.58 58.36,67.69 58.48,67.8 58.48,67.92 58.48,68.03 58.59,68.14 58.48,68.26 58.36,68.26 58.36,68.37 58.25,68.37 
	58.25,68.26 58.14,68.26 58.02,68.14 57.91,68.26 57.8,68.26 57.8,68.14 57.8,68.03 57.8,68.14 57.68,68.14 57.57,68.14 
	57.57,68.03 57.57,68.14 57.57,68.26 57.46,68.37 57.34,68.37 57.34,68.26 57.23,68.26 57.23,68.14 57.12,68.14 57.12,68.03 
	57.23,68.03 57.23,67.92 57.23,67.8 57.23,67.69 57.12,67.69 57.12,67.58 57,67.58 56.89,67.58 56.89,67.46 56.78,67.46 
	56.78,67.58 56.67,67.58 56.67,67.46 56.55,67.46 56.55,67.58 56.44,67.58 56.44,67.69 56.44,67.58 56.33,67.58 56.21,67.58 
	56.1,67.58 55.99,67.58 55.99,67.69 56.1,67.69 55.99,67.8 55.87,67.8 55.76,67.92 55.87,67.92 55.87,68.03 55.76,68.03 
	55.65,68.03 55.65,67.92 55.53,67.92 55.42,68.03 55.31,68.03 55.19,68.03 55.19,67.92 55.08,67.92 54.97,67.92 54.85,67.92 
	54.85,67.8 54.74,67.8 54.74,67.92 54.63,67.92 54.63,68.03 54.63,68.14 54.63,68.26 54.74,68.26 54.74,68.37 54.74,68.48 
	54.85,68.48 54.85,68.6 54.74,68.6 54.74,68.71 54.63,68.6 54.63,68.48 54.51,68.48 54.4,68.48 54.29,68.48 54.29,68.37 
	54.29,68.48 54.29,68.37 54.17,68.37 54.17,68.26 54.17,68.14 54.06,68.14 53.95,68.03 53.95,68.14 53.83,68.14 53.83,68.26 
	53.95,68.26 53.95,68.37 53.83,68.37 53.83,68.48 53.72,68.48 53.61,68.48 53.49,68.48 53.49,68.37 53.38,68.37 53.38,68.26 
	53.27,68.26 53.15,68.26 53.04,68.37 52.93,68.37 52.93,68.48 52.81,68.48 52.7,68.48 52.59,68.48 52.48,68.48 52.48,68.6 
	52.36,68.6 52.25,68.6 52.25,68.48 52.14,68.48 52.02,68.48 51.91,68.48 51.91,68.6 51.8,68.6 51.68,68.6 51.57,68.6 51.46,68.6 
	51.46,68.48 51.34,68.48 51.23,68.6 51.12,68.6 51,68.6 50.89,68.6 50.78,68.6 50.66,68.6 50.66,68.71 50.55,68.71 50.55,68.82 
	50.66,68.82 50.66,68.93 50.55,68.93 50.55,69.05 50.44,69.16 50.32,69.16 50.21,69.16 50.21,69.27 50.1,69.27 50.1,69.16 
	49.98,69.27 49.98,69.39 49.87,69.39 49.76,69.39 49.64,69.39 49.64,69.5 49.53,69.5 49.53,69.61 49.53,69.73 49.42,69.73 
	49.42,69.84 49.3,69.84 49.3,69.95 49.19,69.95 49.08,69.84 49.08,69.73 49.08,69.61 49.08,69.5 48.96,69.39 48.96,69.27 
	48.96,69.16 48.96,69.05 48.96,68.93 48.85,68.93 48.85,68.82 48.85,68.6 48.74,68.48 48.74,68.37 48.74,68.26 48.62,68.26 
	48.51,68.37 48.4,68.37 48.28,68.37 48.17,68.37 48.06,68.48 48.06,68.6 47.94,68.71 47.83,68.71 47.72,68.71 47.72,68.6 
	47.61,68.48 47.61,68.37 47.61,68.26 47.61,68.14 47.49,68.03 47.49,67.92 47.38,67.92 47.38,67.8 47.27,67.8 47.27,67.69 
	47.15,67.69 47.15,67.58 47.04,67.46 47.04,67.35 46.93,67.24 46.81,67.24 46.7,67.24 46.59,67.24 46.59,67.12 46.47,67.01 
	46.47,66.9 46.47,66.78 46.36,66.78 46.25,66.78 46.13,66.78 46.02,66.9 45.91,67.01 45.79,67.12 45.79,67.24 45.68,67.35 
	45.68,67.46 45.57,67.46 45.45,67.46 45.34,67.46 45.23,67.46 45.11,67.35 45,67.35 44.89,67.35 44.77,67.35 44.66,67.46 
	44.55,67.46 44.32,67.46 44.09,67.46 43.98,67.46 43.87,67.46 43.75,67.46 43.53,67.46 43.42,67.46 43.3,67.46 43.19,67.35 
	42.96,67.35 42.85,67.35 42.62,67.24 42.51,67.24 42.28,67.12 42.17,67.12 42.06,67.12 41.94,67.12 41.83,67.12 41.6,67.12 
	41.49,67.12 41.38,67.12 41.26,67.12 41.15,67.12 41.04,67.12 40.92,67.12 40.81,67.12 40.7,67.12 40.58,67.24 40.47,67.46 
	40.36,67.46 40.24,67.58 40.13,67.58 40.13,67.69 40.02,67.69 39.9,67.69 39.79,67.69 39.79,67.58 39.68,67.69 39.56,67.69 
	39.45,67.69 39.45,67.8 39.34,67.8 39.23,67.8 39,67.8 38.89,67.8 38.77,67.8 38.66,67.8 38.66,67.92 38.55,68.03 38.55,68.14 
	38.43,68.14 38.32,68.26 38.21,68.26 38.09,68.37 37.98,68.37 37.87,68.37 37.87,68.48 37.75,68.48 37.75,68.6 37.64,68.6 
	37.53,68.6 37.53,68.71 37.41,68.71 37.41,68.82 37.3,68.82 37.3,68.93 37.19,68.93 37.07,68.82 36.96,68.93 36.85,68.93 
	36.73,69.05 36.62,69.05 36.51,69.05 36.39,69.05 36.28,69.05 36.28,69.16 36.17,69.16 36.05,69.16 36.05,69.05 35.94,69.05 
	35.94,68.93 35.83,68.93 35.71,68.93 35.71,68.82 35.6,68.93 35.6,69.05 35.49,69.05 35.37,69.05 35.37,69.16 35.26,69.16 
	35.15,69.16 35.03,69.16 34.92,69.16 34.81,69.16 34.7,69.16 34.58,69.16 34.47,69.16 34.36,69.16 34.24,69.05 34.24,69.16 
	34.24,69.27 34.24,69.39 34.24,69.5 34.36,69.5 34.36,69.61 34.36,69.73 34.36,69.84 34.36,69.95 34.36,70.07 34.36,70.18 
	34.47,70.18 34.47,70.29 34.47,70.41 34.47,70.52 34.47,70.63 34.58,70.75 34.58,70.86 34.58,70.97 34.7,71.09 34.7,71.2 
	34.7,71.31 34.81,71.31 34.81,71.43 34.81,71.54 34.92,71.54 34.92,71.65 34.81,71.65 34.7,71.65 34.58,71.77 34.47,71.65 
	34.36,71.65 34.36,71.54 34.24,71.54 34.24,71.43 34.24,71.31 34.24,71.2 34.24,71.09 34.13,71.09 34.02,71.09 33.9,71.09 
	33.79,71.09 33.68,71.09 33.56,71.2 33.45,71.2 33.34,71.31 33.22,71.31 33.11,71.31 33,71.43 32.88,71.43 32.77,71.43 32.77,71.54 
	32.66,71.43 32.54,71.43 32.43,71.43 32.43,71.31 32.43,71.43 32.32,71.43 32.2,71.43 32.09,71.43 31.98,71.31 31.98,71.2 
	31.86,71.2 31.86,71.31 31.75,71.31 31.64,71.31 31.52,71.31 31.52,71.43 31.52,71.54 31.41,71.54 31.41,71.43 31.3,71.43 
	31.18,71.43 31.18,71.31 31.18,71.43 31.18,71.54 31.07,71.54 31.07,71.65 30.96,71.65 30.96,71.54 30.84,71.54 30.84,71.43 
	30.96,71.43 30.84,71.31 30.73,71.2 30.62,71.2 30.51,71.2 30.51,71.09 30.51,71.2 30.39,71.2 30.39,71.09 30.28,71.09 30.28,71.2 
	30.28,71.09 30.17,71.09 30.17,70.97 30.05,70.97 30.05,70.86 29.94,70.75 29.83,70.75 29.71,70.75 29.6,70.75 29.6,70.63 
	29.6,70.52 29.49,70.52 29.37,70.41 29.26,70.41 29.15,70.41 29.03,70.41 29.03,70.29 28.92,70.29 28.92,70.18 28.81,70.18 
	28.69,70.18 28.58,70.18 28.47,70.18 28.47,70.07 28.35,70.07 28.24,70.18 28.13,70.18 28.01,70.18 27.9,70.07 27.9,69.95 
	27.79,69.95 27.67,69.95 27.56,69.95 27.45,69.84 27.33,69.73 27.22,69.73 27.11,69.61 26.99,69.5 26.88,69.39 26.77,69.39 
	26.77,69.5 26.65,69.61 26.65,69.73 26.65,69.84 26.77,69.95 26.77,70.07 26.77,70.18 26.77,70.29 26.77,70.41 26.88,70.41 
	26.88,70.52 26.99,70.63 27.11,70.75 27.11,70.86 27.22,70.86 27.22,70.97 27.33,71.09 27.45,71.09 27.45,71.2 27.56,71.31 
	27.45,71.31 27.45,71.43 27.45,71.54 27.56,71.54 27.45,71.65 27.56,71.77 27.56,71.88 27.56,71.99 27.56,72.11 27.56,72.22 
	27.56,72.33 27.56,72.45 27.45,72.56 27.56,72.79 27.56,72.9 27.56,73.01 27.56,73.12 27.67,73.12 27.79,73.24 27.79,73.35 
	27.79,73.46 27.79,73.58 27.9,73.58 27.79,73.69 27.79,73.8 27.79,73.92 27.67,73.92 27.67,74.03 27.56,74.03 27.45,74.03 
	27.33,74.03 27.33,74.14 27.45,74.14 27.45,74.26 27.56,74.26 27.56,74.37 27.67,74.37 27.67,74.48 27.79,74.48 27.79,74.6 
	27.9,74.6 27.9,74.71 27.9,74.82 27.9,74.94 27.9,75.05 27.79,75.05 27.79,75.16 27.67,75.28 27.56,75.28 27.56,75.39 27.56,75.5 
	27.56,75.62 27.67,75.62 27.79,75.62 27.79,75.73 27.79,75.84 27.67,75.96 27.67,76.07 27.67,76.18 27.67,76.3 27.79,76.3 
	27.79,76.41 27.79,76.52 27.67,76.52 27.67,76.64 27.67,76.75 27.56,76.75 27.56,76.86 27.56,76.98 27.56,77.09 27.56,77.2 
	27.67,77.2 27.67,77.31 27.67,77.43 27.67,77.54 27.67,77.65 27.45,77.65 27.45,77.54 27.33,77.54 27.22,77.54 27.22,77.65 
	27.22,77.77 27.22,77.88 27.11,77.88 27.11,77.99 26.99,77.99 26.99,78.11 26.99,78.22 26.88,78.33 26.77,78.45 26.77,78.56 
	26.77,78.67 26.65,78.79 26.65,78.9 26.54,79.01 26.54,79.13 26.54,79.24 26.65,79.24 26.65,79.35 26.77,79.35 26.77,79.47 
	26.65,79.58 26.54,79.69 26.54,79.81 26.54,79.92 26.43,79.92 26.43,80.03 26.43,79.92 26.31,79.92 26.2,79.92 26.09,79.92 
	25.98,80.03 25.98,80.15 25.86,80.26 25.86,80.37 25.86,80.49 25.86,80.6 25.86,80.71 25.75,80.83 25.75,80.94 25.64,81.05 
	25.75,81.17 25.75,81.28 25.86,81.28 25.86,81.39 25.86,81.62 25.86,81.73 25.86,81.84 25.86,81.96 25.86,82.07 25.86,82.18 
	25.75,82.3 25.64,82.3 25.64,82.41 25.52,82.41 25.52,82.52 25.52,82.64 25.52,82.75 25.52,82.86 25.52,82.98 25.52,83.09 
	25.41,83.2 25.41,83.32 25.41,83.43 25.41,83.54 25.41,83.66 25.41,83.77 25.41,84 25.52,84.11 25.41,84.22 25.41,84.34 25.3,84.45 
	25.18,84.56 25.18,84.68 25.18,84.79 25.18,84.9 25.3,85.02 25.41,85.13 25.41,85.24 25.3,85.47 25.3,85.58 25.3,85.69 25.18,85.81 
	25.18,85.92 25.18,86.03 25.07,86.15 25.07,86.26 25.18,86.37 25.3,86.37 25.41,86.37 25.52,86.37 25.64,86.37 25.64,86.49 
	25.75,86.6 25.86,86.6 25.98,86.6 25.98,86.71 25.98,86.83 26.09,86.94 26.09,87.17 26.09,87.28 26.09,87.39 26.2,87.39 
	26.31,87.51 26.54,87.51 26.54,87.62 26.54,87.73 26.54,87.85 26.54,87.96 26.54,88.07 26.43,88.3 26.43,88.41 26.31,88.41 
	26.2,88.41 26.2,88.53 26.09,88.64 26.09,88.75 26.09,88.87 25.98,88.98 25.98,89.09 25.86,89.09 25.86,89.21 25.75,89.21 
	25.64,89.32 25.64,89.43 25.52,89.43 25.41,89.55 25.3,89.66 25.18,89.66 25.18,89.77 25.18,89.88 25.18,90 25.3,90.11 25.3,90.22 
	25.18,90.34 25.18,90.45 25.18,90.56 25.07,90.56 24.96,90.68 25.07,90.79 25.07,90.9 25.18,90.9 25.18,91.02 25.07,91.13 
	25.18,91.24 25.3,91.24 25.3,91.36 25.18,91.36 25.07,91.36 24.96,91.47 24.84,91.58 24.73,91.7 24.73,91.81 24.73,91.92 
	24.62,91.92 24.5,91.92 24.39,91.92 24.16,92.04 24.05,92.04 24.05,91.92 24.05,91.81 23.94,91.7 23.82,91.7 23.71,91.92 
	23.6,91.92 23.48,91.92 23.37,91.92 23.26,91.81 23.14,91.81 23.03,91.81 22.92,91.92 22.8,92.04 22.69,92.04 22.58,91.92 
	22.46,91.81 22.46,91.92 22.35,91.92 22.35,92.04 22.24,92.15 22.12,92.15 22.01,92.26 21.9,92.26 21.79,92.38 21.79,92.49 
	21.67,92.6 21.67,92.83 21.56,92.94 21.45,93.06 21.45,93.17 21.33,93.28 21.33,93.4 21.22,93.62 21.22,93.73 21.11,93.85 
	20.99,94.07 20.88,94.19 20.77,94.3 20.77,94.41 20.77,94.53 20.65,94.53 20.65,94.64 20.54,94.64 20.43,94.64 20.31,94.64 
	20.31,94.75 20.2,94.87 20.2,94.98 20.09,94.98 19.97,94.98 19.86,95.09 19.75,95.21 19.75,95.32 19.63,95.43 19.41,95.55 
	19.29,95.66 19.29,95.77 19.18,95.89 19.07,95.89 19.07,96 18.95,96 18.95,96.11 18.95,96.23 18.95,96.34 18.84,96.45 18.73,96.45 
	18.61,96.45 18.5,96.45 18.39,96.45 18.27,96.45 18.16,96.57 18.05,96.57 17.93,96.68 17.93,96.79 17.82,96.79 17.71,96.79 
	17.48,96.79 17.37,96.91 17.26,96.91 17.03,96.91 16.92,96.91 16.8,96.91 16.8,97.02 16.69,97.02 16.58,97.02 16.58,96.91 
	16.58,96.79 16.46,96.79 16.35,96.57 16.35,96.45 16.35,96.23 16.35,96.11 16.35,95.89 16.24,95.89 16.24,95.77 16.12,95.66 
	16.01,95.66 15.9,95.66 15.9,95.55 15.9,95.43 15.9,95.32 15.78,95.21 15.78,95.09 15.78,94.98 15.78,94.87 15.78,94.75 
	15.67,94.64 15.67,94.41 15.56,94.3 15.56,94.19 15.44,93.96 15.44,93.85 15.44,93.73 15.44,93.62 15.44,93.51 15.56,93.4 
	15.56,93.28 15.56,93.17 15.44,93.17 15.44,93.06 15.44,92.94 15.56,92.83 15.56,92.72 15.44,92.72 15.33,92.6 15.22,92.6 
	15.1,92.49 14.99,92.49 14.88,92.49 14.76,92.6 14.65,92.6 14.54,92.49 14.42,92.49 14.31,92.38 14.31,92.26 14.31,92.15 
	14.31,91.92 14.31,91.81 14.31,91.7 14.2,91.58 14.08,91.47 13.97,91.47 13.86,91.47 13.74,91.36 13.63,91.24 13.52,91.24 
	13.4,91.24 13.29,91.36 13.18,91.36 13.07,91.24 13.07,91.02 13.07,90.9 12.95,90.9 12.95,90.68 12.84,90.56 12.84,90.45 
	12.73,90.45 12.73,90.34 12.61,90.22 12.61,90.11 12.5,90 12.5,89.88 12.39,89.77 12.27,89.66 12.16,89.55 12.16,89.43 12.16,89.32 
	12.16,89.21 12.05,89.21 11.93,89.09 11.82,89.09 11.82,88.98 11.71,88.87 11.59,88.87 11.59,88.75 11.59,88.64 11.59,88.53 
	11.48,88.41 11.59,88.41 11.59,88.3 11.59,88.19 11.71,88.19 11.71,88.07 11.82,88.07 11.82,87.96 11.71,87.85 11.71,87.73 
	11.71,87.62 11.71,87.51 11.59,87.39 11.71,87.39 11.71,87.28 11.59,87.28 11.59,87.17 11.59,87.05 11.48,86.94 11.48,86.71 
	11.48,86.6 11.48,86.49 11.48,86.37 11.48,86.26 11.48,86.15 11.48,86.03 11.37,86.03 11.37,85.92 11.37,85.81 11.25,85.69 
	11.14,85.69 11.14,85.58 11.03,85.58 10.91,85.58 10.8,85.47 10.8,85.36 10.69,85.36 10.69,85.24 10.69,85.13 10.57,85.02 
	10.57,84.9 10.57,84.79 10.69,84.68 10.69,84.56 10.69,84.45 10.57,84.45 10.57,84.34 10.46,84.22 10.57,84.11 10.69,84.11 
	10.69,84 10.69,83.88 10.8,83.77 10.8,83.66 10.8,83.54 10.8,83.43 10.91,83.43 10.91,83.32 11.03,83.32 11.14,83.32 11.14,83.2 
	11.14,83.09 11.03,83.09 11.03,82.98 10.91,82.98 10.91,82.86 10.91,82.75 11.03,82.75 10.91,82.75 10.91,82.64 10.91,82.52 
	10.91,82.41 10.91,82.3 10.91,82.18 11.03,82.07 11.14,82.07 11.25,81.96 11.37,81.96 11.37,81.84 11.48,81.84 11.48,81.73 
	11.48,81.62 11.48,81.5 11.59,81.5 11.59,81.39 11.71,81.28 11.71,81.17 11.71,81.05 11.71,80.94 11.59,80.94 11.71,80.83 
	11.82,80.83 11.93,80.83 11.93,80.71 12.05,80.71 12.05,80.6 12.16,80.49 12.27,80.49 12.39,80.37 12.5,80.26 12.61,80.15 
	12.5,80.03 12.61,79.92 12.61,79.81 12.5,79.81 12.5,79.69 12.61,79.69 12.61,79.58 12.73,79.47 12.84,79.47 12.95,79.35 
	12.95,79.24 12.84,79.01 12.73,78.9 12.73,78.67 12.73,78.56 12.61,78.45 12.61,78.33 12.61,78.22 12.61,78.11 12.73,78.11 
	12.73,77.99 12.61,77.99 12.61,77.88 12.61,77.77 12.61,77.65 12.61,77.54 12.61,77.43 12.61,77.31 12.61,77.2 12.5,77.2 
	12.39,77.09 12.27,76.98 12.27,76.86 12.27,76.75 12.27,76.64 12.27,76.52 12.16,76.41 12.16,76.3 12.05,76.3 12.05,76.18 
	12.05,76.07 12.05,75.96 12.05,75.84 11.93,75.84 11.93,75.73 12.05,75.62 12.05,75.5 12.05,75.39 11.93,75.39 11.93,75.28 
	11.82,75.16 11.82,75.05 11.71,74.94 11.71,74.82 11.71,74.71 11.71,74.6 11.59,74.6 11.59,74.48 11.48,74.48 11.48,74.37 
	11.48,74.26 11.48,74.14 11.37,74.14 11.37,74.03 11.25,73.92 11.25,73.8 11.37,73.69 11.48,73.69 11.48,73.58 11.48,73.46 
	11.59,73.46 11.59,73.35 11.71,73.35 11.82,73.35 11.82,73.24 11.93,73.24 11.93,73.12 12.05,73.12 12.16,73.12 12.27,73.12 
	12.27,73.01 12.16,73.01 12.16,72.9 12.16,72.67 12.16,72.45 12.27,72.33 12.27,72.22 12.27,72.11 12.27,71.99 12.16,71.99 
	12.16,71.88 12.16,71.77 12.05,71.77 12.05,71.65 12.05,71.54 11.93,71.54 11.93,71.43 11.93,71.31 11.82,71.2 11.82,71.09 
	11.82,70.97 11.71,70.86 11.71,70.75 11.82,70.75 12.05,70.75 12.16,70.63 12.05,70.52 11.93,70.52 11.82,70.52 11.82,70.41 
	11.71,70.41 11.71,70.29 11.71,70.18 11.59,70.18 11.48,70.18 11.48,70.07 11.48,69.95 11.48,69.84 11.48,69.73 11.37,69.73 
	11.37,69.61 11.37,69.5 11.25,69.5 11.14,69.39 11.14,69.27 11.03,69.16 11.03,69.05 11.03,68.93 11.03,68.82 10.91,68.82 
	10.91,68.71 10.8,68.71 10.8,68.6 10.8,68.48 10.91,68.48 10.91,68.37 10.91,68.26 11.03,68.14 11.03,68.03 11.03,67.92 
	11.14,67.92 11.14,67.8 11.03,67.69 11.14,67.69 11.14,67.58 11.14,67.46 11.14,67.35 11.25,67.24 11.37,67.12 11.37,67.01 
	11.25,66.9 11.25,66.78 11.25,66.67 11.25,66.56 11.14,66.56 11.14,66.44 11.14,66.33 11.03,66.22 11.03,66.1 10.91,65.99 
	10.91,65.88 10.8,65.88 10.8,65.76 10.69,65.76 10.57,65.76 10.57,65.65 10.57,65.54 10.69,65.54 10.69,65.42 10.69,65.31 
	10.69,65.2 10.69,65.08 10.69,64.97 10.69,64.86 10.8,64.86 10.8,64.74 10.69,64.74 10.57,64.74 10.46,64.74 10.46,64.86 
	10.35,64.86 10.23,64.86 10.12,64.86 10.01,64.74 10.01,64.63 10.01,64.52 9.89,64.52 9.89,64.41 9.89,64.29 9.89,64.18 9.89,64.07 
	9.89,63.95 10.01,63.95 10.01,63.84 10.12,63.73 10.12,63.61 10.12,63.5 10.12,63.39 10.12,63.27 10.23,63.16 10.23,63.05 
	10.35,62.93 10.35,62.82 10.46,62.82 10.57,62.82 10.69,62.71 10.8,62.71 10.8,62.59 10.8,62.48 10.8,62.37 10.8,62.25 10.69,62.25 
	10.8,62.25 10.91,62.14 11.03,62.14 11.14,62.14 11.14,62.03 11.25,61.91 11.37,61.8 11.25,61.8 11.25,61.69 11.37,61.69 
	11.48,61.69 11.59,61.69 11.71,61.57 11.71,61.46 11.82,61.46 11.82,61.35 11.71,61.35 11.59,61.35 11.59,61.23 11.48,61.23 
	11.48,61.12 11.48,61.01 11.48,60.89 11.48,60.78 11.37,60.78 11.25,60.67 11.37,60.67 11.37,60.55 11.37,60.44 11.25,60.44 
	11.25,60.33 11.14,60.33 11.03,60.33 10.91,60.33 10.91,60.44 10.8,60.44 10.69,60.44 10.69,60.33 10.57,60.33 10.57,60.22 
	10.46,60.22 10.46,60.1 10.35,60.1 10.23,59.99 10.12,59.88 10.12,59.76 10.01,59.76 10.01,59.65 10.01,59.54 9.89,59.54 
	9.89,59.42 9.89,59.31 9.89,59.2 10.01,59.08 9.89,58.97 9.78,58.97 9.78,58.86 9.67,58.86 9.67,58.74 9.55,58.63 9.55,58.52 
	9.67,58.52 9.67,58.4 9.67,58.29 9.55,58.29 9.67,58.18 9.78,58.06 9.78,57.95 9.78,57.84 9.67,57.72 9.55,57.61 9.55,57.5 
	9.44,57.5 9.44,57.38 9.33,57.38 9.33,57.27 9.22,57.16 9.1,57.16 9.1,57.27 8.99,57.27 8.99,57.16 8.88,57.16 8.76,57.16 
	8.76,57.04 8.76,56.93 8.65,56.93 8.54,56.93 8.42,56.93 8.42,56.82 8.31,56.82 8.2,56.7 8.08,56.7 8.08,56.59 8.2,56.48 8.2,56.36 
	8.08,56.25 8.08,56.14 8.08,56.03 8.08,55.91 8.08,55.8 8.08,55.69 7.97,55.69 7.86,55.57 7.74,55.57 7.74,55.46 7.63,55.46 
	7.63,55.35 7.63,55.23 7.74,55.23 7.74,55.12 7.74,55.01 7.74,54.89 7.74,54.78 7.63,54.78 7.74,54.78 7.74,54.67 7.74,54.55 
	7.74,54.44 7.63,54.33 7.63,54.21 7.63,54.1 7.63,53.99 7.74,53.99 7.86,53.99 7.97,53.87 7.97,53.76 7.97,53.65 7.97,53.53 
	7.97,53.31 7.97,53.19 8.08,53.19 8.2,53.08 8.31,53.08 8.31,52.97 8.42,53.08 8.42,52.97 8.54,52.97 8.54,52.85 8.65,52.85 
	8.76,52.85 8.76,52.74 8.88,52.74 8.88,52.63 8.99,52.63 9.1,52.51 9.22,52.51 9.33,52.51 9.33,52.4 9.44,52.4 9.44,52.29 
	9.44,52.17 9.55,52.17 9.67,52.17 9.78,52.17 9.89,52.17 9.89,52.06 9.89,51.95 10.01,51.95 10.01,51.84 10.01,51.72 10.12,51.61 
	10.23,51.61 10.23,51.5 10.35,51.5 10.35,51.38 10.35,51.27 10.46,51.27 10.46,51.16 10.46,51.04 10.46,50.93 10.57,50.93 
	10.69,50.93 10.8,50.7 10.91,50.7 10.91,50.59 11.03,50.59 11.14,50.59 11.03,50.48 11.03,50.36 11.03,50.25 11.14,50.25 
	11.25,50.25 11.37,50.14 11.48,50.14 11.48,50.02 11.59,50.02 11.71,50.02 11.71,49.91 11.82,49.91 11.93,50.02 12.05,50.02 
	12.05,49.91 12.16,49.91 12.27,49.91 12.5,49.91 12.61,49.91 12.84,49.91 12.95,50.02 13.07,50.02 13.18,50.02 13.07,49.8 
	13.07,49.68 13.07,49.57 13.18,49.46 13.18,49.34 13.29,49.23 13.29,49.12 13.4,49.12 13.52,49.12 13.74,49.12 13.86,49.12 
	13.97,49 13.97,48.89 13.97,48.78 14.08,48.78 14.08,48.66 14.08,48.55 14.08,48.44 14.08,48.32 14.08,48.21 14.08,48.1 13.97,48.1 
	13.97,47.87 13.97,47.76 13.97,47.65 13.97,47.53 13.97,47.42 14.08,47.42 14.2,47.42 14.31,47.31 14.2,46.97 14.31,46.63 
	14.31,46.4 14.31,46.29 14.2,45.95 14.08,45.95 14.08,45.83 14.08,45.72 14.2,45.72 14.42,45.61 14.54,45.49 14.76,45.49 
	14.88,45.38 14.99,45.38 14.99,45.27 15.1,45.15 15.1,45.04 15.1,44.93 15.22,44.93 15.22,44.81 15.1,44.7 15.1,44.59 15.1,44.47 
	15.1,44.36 15.22,44.25 15.33,44.25 15.33,44.13 15.44,44.02 15.44,43.91 15.56,43.91 15.56,43.79 15.56,43.68 15.67,43.68 
	15.78,43.68 15.9,43.68 15.9,43.57 15.9,43.46 15.9,43.34 15.9,43.23 16.01,43.23 16.12,43.23 16.24,43.23 16.35,43.23 16.46,43.23 
	16.58,43.23 16.69,43.23 16.8,43.23 16.92,43.23 16.92,43.34 17.03,43.34 17.14,43.34 17.26,43.34 17.37,43.34 17.37,43.23 
	17.48,43.23 17.6,43.34 17.71,43.23 17.71,43.12 17.71,43 17.71,42.89 17.71,42.78 17.71,42.66 17.6,42.66 17.48,42.66 17.48,42.55 
	17.37,42.44 17.37,42.32 17.26,42.32 17.14,42.21 17.03,42.21 17.03,42.1 16.92,41.98 17.03,41.98 17.03,41.87 17.14,41.87 
	17.03,41.76 17.14,41.76 17.14,41.64 17.26,41.64 17.26,41.53 17.26,41.42 17.26,41.3 17.37,41.3 17.37,41.19 17.26,41.19 
	17.14,41.3 17.03,41.3 17.03,41.19 17.03,41.08 16.92,41.08 16.8,41.08 16.8,40.96 16.69,40.96 16.58,40.96 16.58,40.85 
	16.46,40.74 16.35,40.62 16.24,40.51 16.12,40.4 16.01,40.28 15.9,40.17 15.9,40.06 15.78,40.06 15.67,39.94 15.67,39.83 
	15.67,39.72 15.56,39.72 15.56,39.6 15.56,39.49 15.67,39.49 15.67,39.38 15.56,39.38 15.56,39.27 15.67,39.15 15.67,39.04 
	15.56,39.04 15.56,38.93 15.44,38.81 15.44,38.7 15.44,38.59 15.44,38.47 15.44,38.36 15.33,38.36 15.33,38.25 15.44,38.13 
	15.44,38.02 15.56,38.02 15.56,37.91 15.78,37.68 16.01,37.45 16.12,37.45 16.12,37.34 16.12,37.23 16.12,37.11 16.24,37 16.35,37 
	16.35,36.89 16.35,36.77 16.46,36.77 16.58,36.77 16.58,36.66 16.58,36.55 16.69,36.55 16.69,36.66 16.8,36.66 16.92,36.55 
	17.03,36.55 17.26,36.55 17.37,36.43 17.48,36.43 17.6,36.43 17.71,36.43 17.71,36.32 17.71,36.21 17.6,36.21 17.6,36.09 
	17.48,35.98 17.48,35.75 17.48,35.64 17.37,35.64 17.37,35.53 17.37,35.42 17.37,35.3 17.37,35.19 17.37,35.08 17.37,34.96 
	17.37,34.85 17.48,34.85 17.48,34.74 17.48,34.62 17.48,34.51 17.48,34.4 17.48,34.28 17.6,34.28 17.6,34.17 17.6,34.06 
	17.71,33.94 17.82,33.94 17.82,33.83 17.71,33.72 17.71,33.6 17.71,33.49 17.71,33.38 17.82,33.38 17.93,33.38 18.05,33.38 
	18.16,33.38 18.27,33.26 18.39,33.26 18.39,33.38 18.5,33.38 18.61,33.38 18.61,33.26 18.73,33.15 18.73,33.04 18.73,32.81 
	18.84,32.7 18.95,32.7 19.07,32.7 19.29,32.7 19.41,32.58 19.52,32.58 19.52,32.47 19.63,32.24 19.75,32.24 19.86,32.02 
	19.97,32.02 19.97,31.68 20.09,31.56 20.09,31.45 20.2,31.45 20.2,31.34 20.2,31.22 20.2,31.11 20.31,31.11 20.43,31.11 20.43,31 
	20.54,31 20.54,30.89 20.54,30.77 20.54,30.66 20.54,30.55 20.65,30.55 20.65,30.43 20.77,30.43 20.77,30.32 20.88,30.32 
	20.99,30.32 20.99,30.21 21.11,30.21 21.22,30.21 21.33,30.09 21.33,29.98 21.22,29.98 21.11,29.98 21.11,29.87 20.99,29.87 
	20.99,29.75 20.88,29.75 20.99,29.75 20.88,29.75 20.88,29.64 20.99,29.64 20.88,29.64 20.88,29.53 20.77,29.53 20.65,29.41 
	20.65,29.3 20.65,29.19 20.54,29.19 20.54,29.3 20.54,29.19 20.54,29.07 20.65,29.07 20.77,29.07 20.77,28.96 20.65,28.85 
	20.65,28.73 20.77,28.73 20.88,28.73 20.88,28.62 20.99,28.62 20.99,28.51 21.11,28.51 21.11,28.39 21.22,28.39 21.33,28.39 
	21.45,28.39 21.56,28.39 21.67,28.39 21.79,28.39 21.79,28.28 21.79,28.17 21.9,28.17 22.01,28.17 22.01,28.05 22.12,28.05 
	22.12,27.94 22.24,27.94 22.35,27.83 22.46,27.71 22.46,27.6 22.58,27.49 22.69,27.49 22.8,27.49 22.92,27.37 22.8,27.37 
	22.8,27.26 22.92,27.26 22.92,27.15 22.8,27.04 22.69,27.04 22.69,26.92 22.58,26.92 22.46,26.92 22.46,26.81 22.35,26.81 
	22.24,26.81 22.24,26.7 22.12,26.7 22.12,26.58 22.12,26.47 22.12,26.36 22.01,26.36 22.01,26.24 22.01,26.13 22.01,26.02 
	22.01,25.9 22.12,25.9 22.12,25.79 22.12,25.68 22.24,25.68 22.35,25.68 22.46,25.68 22.46,25.56 22.58,25.56 22.69,25.56 
	22.69,25.45 22.8,25.45 22.92,25.34 23.03,25.22 23.14,25.22 23.14,25.11 23.26,25.11 23.37,25.11 23.48,25.11 23.6,25 23.71,25 
	23.71,24.88 23.82,24.88 23.94,24.88 24.05,24.88 24.16,24.88 24.16,24.77 24.28,24.77 24.39,24.77 24.5,24.77 24.62,24.77 
	24.62,24.66 24.62,24.54 24.73,24.54 24.84,24.54 24.84,24.43 24.96,24.43 24.96,24.32 25.07,24.32 25.07,24.43 25.18,24.32 
	25.3,24.32 25.41,24.2 25.52,24.2 25.64,24.2 25.75,24.09 25.86,24.09 25.98,24.09 25.98,24.2 26.09,24.2 26.09,24.32 26.2,24.32 
	26.2,24.43 26.31,24.43 26.31,24.32 26.43,24.32 26.43,24.2 26.54,24.2 26.65,24.09 26.77,23.98 26.88,23.98 26.99,23.86 
	26.99,23.75 27.11,23.64 27.11,23.52 27.11,23.41 27.11,23.3 27.22,23.18 27.11,23.07 27.11,22.96 27.11,22.84 26.99,22.84 
	26.88,22.73 26.77,22.73 26.65,22.73 26.54,22.73 26.43,22.62 26.43,22.51 26.31,22.51 26.2,22.39 26.09,22.39 25.98,22.39 
	25.98,22.28 25.86,22.28 25.75,22.39 25.64,22.39 25.52,22.39 25.41,22.39 25.3,22.39 25.3,22.28 25.18,22.17 25.07,22.17 
	24.96,22.17 24.84,22.17 24.73,22.17 24.73,22.05 24.62,22.05 24.5,22.05 24.39,21.94 24.28,21.83 24.05,21.83 23.94,21.83 
	23.82,21.83 23.82,21.71 23.71,21.6 23.71,21.49 23.6,21.37 23.48,21.37 23.48,21.26 23.48,21.15 23.37,21.15 23.37,21.03 
	23.37,20.92 23.48,20.92 23.6,20.92 23.71,20.92 23.82,20.92 23.94,20.92 23.94,21.03 24.05,21.03 24.16,21.03 24.28,21.15 
	24.39,21.15 24.5,21.26 24.62,21.26 24.73,21.26 24.84,21.26 24.96,21.26 25.07,21.26 25.07,21.15 24.96,21.03 24.96,20.92 
	24.96,20.81 24.96,20.69 24.96,20.58 25.07,20.47 25.07,20.35 25.07,20.24 24.96,20.13 24.96,20.01 25.07,20.01 25.07,19.9 
	25.18,19.9 25.18,19.79 25.18,19.67 25.18,19.56 25.3,19.56 25.41,19.56 25.52,19.56 25.64,19.45 25.75,19.33 25.86,19.22 
	25.98,19.11 25.98,18.88 26.09,18.77 26.09,18.65 25.98,18.65 25.98,18.54 25.98,18.43 26.09,18.43 26.09,18.32 26.09,18.2 
	26.2,18.2 26.2,18.09 26.2,17.98 26.31,17.86 26.31,17.75 26.43,17.75 26.43,17.64 26.43,17.52 26.43,17.41 26.54,17.41 26.54,17.3 
	26.54,17.18 26.43,17.07 26.31,16.96 26.31,16.84 26.2,16.73 26.09,16.62 25.98,16.62 25.86,16.62 25.75,16.62 25.52,16.62 
	25.41,16.62 25.41,16.5 25.3,16.5 25.3,16.39 25.3,16.28 25.3,16.16 25.18,16.16 25.18,16.05 25.07,16.05 25.07,15.94 24.84,15.71 
	24.73,15.6 24.62,15.6 24.5,15.6 24.39,15.6 24.28,15.6 24.16,15.6 24.05,15.6 24.05,15.48 24.05,15.37 24.05,15.26 24.05,15.14 
	23.94,15.03 23.94,14.92 23.94,14.8 23.94,14.69 23.94,14.58 23.94,14.47 23.94,14.35 23.82,14.35 23.82,14.24 23.71,14.24 
	23.71,14.13 23.6,14.13 23.6,14.01 23.71,14.01 23.71,13.9 23.82,13.79 23.82,13.67 23.71,13.67 23.71,13.56 23.71,13.45 
	23.71,13.33 23.6,13.22 23.6,13.11 23.6,12.99 23.6,12.88 23.48,12.77 23.48,12.65 23.48,12.54 23.37,12.43 23.37,12.31 23.26,12.2 
	23.26,12.09 23.26,11.97 23.14,11.86 23.14,11.75 23.03,11.75 23.03,11.63 22.92,11.63 22.92,11.52 22.92,11.41 23.03,11.29 
	23.03,11.18 23.03,11.07 23.03,10.95 22.92,10.95 22.92,10.84 23.03,10.84 23.03,10.73 22.92,10.73 22.92,10.61 23.03,10.61 
	23.03,10.5 23.14,10.39 23.14,10.27 23.14,10.16 23.14,10.05 23.14,9.94 23.03,9.82 23.03,9.71 23.03,9.6 23.03,9.48 23.03,9.37 
	22.92,9.37 22.8,9.03 22.69,8.92 22.69,8.8 22.58,8.8 22.58,8.69 22.46,8.69 22.46,8.58 22.35,8.46 22.24,8.46 22.12,8.35 
	22.01,8.24 21.9,8.24 21.9,8.12 21.79,8.12 21.67,8.12 21.67,8.01 21.56,8.01 21.45,7.9 21.33,7.9 21.22,7.9 21.11,7.9 20.99,7.9 
	20.99,7.78 20.88,7.78 20.77,7.67 20.65,7.56 20.65,7.44 20.54,7.44 20.54,7.33 20.54,7.22 20.43,7.22 20.31,7.22 20.2,7.1 
	20.09,7.1 19.97,7.1 19.97,6.99 19.86,6.99 19.86,6.88 19.86,6.76 19.86,6.65 19.86,6.54 19.97,6.42 19.97,6.31 19.97,6.2 
	19.97,6.08 19.86,5.97 19.97,5.86 19.97,5.75 20.09,5.63 20.09,5.52 20.09,5.41 20.09,5.29 19.97,5.18 19.97,5.07 20.09,5.07 
	20.2,4.95 20.31,4.95 20.43,4.95 20.54,4.95 20.65,4.95 20.77,4.95 20.88,4.95 20.99,4.95 20.99,5.07 21.11,5.07 21.22,5.07 
	21.22,5.18 21.33,5.29 21.45,5.29 21.56,5.41 21.67,5.41 21.67,5.52 21.79,5.52 21.79,5.63 21.9,5.63 22.01,5.63 22.12,5.63 
	22.24,5.63 22.24,5.52 22.35,5.52 22.46,5.63 22.58,5.63 22.69,5.63 22.69,5.75 22.69,5.86 22.69,5.97 22.8,5.97 22.8,6.08 
	22.92,6.08 23.03,6.2 23.03,6.31 23.14,6.31 23.14,6.42 23.26,6.54 23.26,6.65 23.37,6.65 23.48,6.65 23.48,6.76 23.6,6.88 
	23.6,6.99 23.71,7.1 23.82,7.1 23.94,7.1 24.05,6.99 24.16,6.99 24.28,7.1 24.5,7.22 24.62,7.33 24.73,7.44 24.84,7.44 24.96,7.44 
	25.07,7.44 25.18,7.44 25.3,7.44 25.41,7.44 25.52,7.33 25.64,7.33 25.75,7.33 25.75,7.44 25.86,7.44 25.98,7.44 26.09,7.33 
	26.2,7.33 26.2,7.44 26.31,7.56 26.31,7.67 26.43,7.67 26.54,7.67 26.65,7.67 26.65,7.78 26.77,7.78 26.88,7.78 26.88,7.9 
	26.99,7.9 27.11,7.9 27.22,7.9 27.33,8.01 27.33,8.12 27.45,8.12 27.56,8.24 27.67,8.24 27.67,8.35 27.79,8.35 27.9,8.35 
	28.01,8.35 28.13,8.35 28.24,8.24 28.35,8.24 28.47,8.35 28.58,8.46 28.58,8.58 28.69,8.58 28.81,8.58 28.92,8.58 29.03,8.69 
	29.15,8.69 29.15,8.8 29.15,8.92 29.26,8.92 29.37,8.92 29.49,8.92 29.49,9.03 29.6,9.03 29.6,8.92 29.6,8.8 29.71,8.8 29.71,8.69 
	29.83,8.69 29.94,8.69 29.94,8.8 30.05,8.69 30.17,8.58 30.28,8.58 30.39,8.58 30.39,8.69 30.51,8.69 30.51,8.8 30.62,8.8 
	30.73,8.69 30.73,8.58 30.84,8.46 30.96,8.35 31.07,8.35 31.18,8.35 31.3,8.35 31.41,8.35 31.52,8.35 31.52,8.24 31.64,8.24 
	31.75,8.35 31.86,8.35 31.86,8.46 31.86,8.58 31.86,8.69 31.98,8.8 32.09,8.8 32.2,8.8 32.2,8.92 32.2,9.03 32.32,9.14 32.43,9.26 
	32.54,9.26 32.54,9.37 32.66,9.37 32.77,9.37 32.88,9.37 33,9.48 33,9.6 33.11,9.6 33.22,9.6 33.34,9.71 33.45,9.82 33.56,9.94 
	33.68,9.94 33.79,9.94 33.9,10.05 34.02,9.94 34.13,9.94 34.13,9.82 34.13,9.71 34.24,9.71 34.36,9.71 34.47,9.6 34.58,9.6 
	34.7,9.6 34.81,9.48 34.92,9.37 35.03,9.37 35.15,9.37 35.26,9.37 35.37,9.37 35.49,9.37 35.6,9.48 35.71,9.48 35.83,9.48 
	35.83,9.37 35.94,9.26 36.05,9.26 36.17,9.26 36.28,9.26 36.28,9.14 36.28,9.03 36.28,8.92 36.17,8.92 36.17,8.8 36.28,8.8 
	36.28,8.69 36.17,8.69 36.17,8.58 36.17,8.46 36.17,8.35 36.17,8.24 36.28,8.24 36.28,8.12 36.39,8.12 36.51,8.12 36.62,8.12 
	36.73,8.01 36.85,8.01 36.85,7.9 36.96,7.78 37.07,7.78 37.07,7.9 37.19,7.9 37.3,8.01 37.41,8.01 37.53,8.01 37.53,8.12 
	37.64,8.12 37.75,8.12 37.75,8.01 37.87,8.01 37.87,8.12 37.98,8.12 38.09,8.24 38.21,8.24 38.32,8.35 38.43,8.35 38.55,8.46 
	38.66,8.46 38.77,8.46 38.77,8.35 38.89,8.35 39,8.24 39.11,8.35 39.23,8.35 39.34,8.35 39.45,8.35 39.56,8.46 39.56,8.58 
	39.68,8.58 39.79,8.69 39.79,8.8 39.9,8.8 40.02,8.8 40.13,8.8 40.24,8.69 40.36,8.69 40.47,8.69 40.58,8.69 40.7,8.69 40.81,8.8 
	40.92,8.8 41.04,8.69 41.04,8.8 41.15,8.8 41.26,8.8 41.38,8.8 41.49,8.8 41.6,8.69 41.72,8.69 41.83,8.69 41.94,8.69 41.94,8.58 
	41.94,8.46 41.94,8.35 42.06,8.35 42.06,8.24 42.17,8.24 42.17,8.12 42.28,8.12 42.28,8.01 42.4,7.9 42.51,7.9 42.51,7.78 
	42.62,7.67 42.74,7.67 42.85,7.56 42.96,7.44 42.96,7.33 42.96,7.22 42.96,7.1 43.08,6.99 43.08,6.88 43.08,6.76 43.19,6.76 
	43.19,6.65 43.19,6.54 43.3,6.54 43.42,6.42 43.42,6.31 43.53,6.31 43.64,6.2 43.75,6.2 43.75,6.08 43.75,5.97 43.75,5.86 
	43.75,5.75 43.75,5.63 43.87,5.63 43.87,5.52 43.75,5.41 43.75,5.29 43.64,5.18 43.64,5.07 43.75,5.07 43.75,4.95 43.75,4.84 
	43.75,4.73 43.75,4.61 43.87,4.5 43.75,4.5 43.75,4.39 43.87,4.27 43.87,4.16 43.98,4.05 44.09,4.05 44.09,3.93 44.21,3.93 
	44.32,3.82 44.32,3.71 44.43,3.71 44.43,3.59 44.55,3.59 44.55,3.48 44.66,3.48 44.66,3.37 44.77,3.37 44.77,3.25 44.89,3.14 
	44.89,3.03 45,2.91 45,2.8 45,2.69 45,2.57 45.11,2.57 45.11,2.46 45.11,2.35 45.23,2.35 45.23,2.23 45.23,2.12 45.23,2.01 
	45.11,2.01 45.11,1.89 45,1.78 45,1.67 45.23,1.44 45.34,1.44 45.45,1.44 45.57,1.44 45.68,1.56 45.79,1.56 45.91,1.56 46.13,1.44 
	46.25,1.56 46.36,1.44 46.47,1.44 46.59,1.44 46.7,1.44 46.81,1.44 46.81,1.56 46.93,1.44 46.93,1.56 47.04,1.56 47.04,1.44 
	47.15,1.44 47.27,1.33 47.27,1.22 47.38,1.22 47.49,1.33 47.61,1.33 47.72,1.22 47.83,1.22 47.94,1.22 48.17,1.22 48.28,1.22 
	48.4,1.22 48.51,1.22 48.51,1.33 48.62,1.33 48.74,1.33 48.74,1.44 48.85,1.44 48.85,1.33 48.85,1.22 48.96,1.22 49.08,1.22 
	49.08,1.1 49.19,0.99 49.19,0.88 49.3,0.88 49.42,0.88 49.42,0.76 49.53,0.76 49.53,0.88 49.64,0.88 49.76,0.76 49.87,0.76 
	49.98,0.76 50.1,0.65 50.21,0.65 50.32,0.65 50.44,0.42 50.55,0.42 50.66,0.42 50.78,0.2 50.89,0.2 51,0.2 51.12,0.2 51.23,0.2 
	51.23,0.31 51.34,0.31 51.46,0.31 51.46,0.42 51.57,0.31 51.57,0.42 51.46,0.42 51.46,0.54 51.46,0.65 51.57,0.65 51.68,0.65 
	51.68,0.54 51.68,0.42 51.8,0.42 51.8,0.54 51.8,0.65 51.68,0.65 51.57,0.65 51.57,0.76 51.57,0.88 51.68,0.88 51.8,0.88 
	51.91,0.88 52.02,0.99 52.14,1.1 52.14,1.22 52.25,1.22 52.36,1.22 52.36,1.33 52.25,1.44 52.14,1.44 52.02,1.44 52.02,1.56 
	52.14,1.56 52.25,1.56 52.25,1.67 52.25,1.78 52.36,1.78 52.36,1.67 52.48,1.67 52.59,1.67 52.59,1.78 52.7,1.89 52.81,1.89 
	52.93,1.89 52.81,1.89 52.81,2.01 52.7,2.01 52.81,2.01 52.93,2.01 53.04,2.01 53.04,2.12 52.81,2.12 52.7,2.12 52.7,2.23 
	52.81,2.23 52.93,2.23 52.93,2.35 52.81,2.35 52.7,2.46 52.81,2.46 52.93,2.57 53.04,2.57 53.04,2.69 52.93,2.8 52.93,2.91 
	53.04,2.91 53.15,2.91 53.38,2.91 53.38,3.03 53.27,3.14 53.15,3.14 53.04,3.14 53.04,3.25 53.15,3.25 53.38,3.14 53.49,3.14 
	53.61,3.14 53.61,3.25 53.72,3.37 53.83,3.37 53.83,3.48 53.83,3.59 53.95,3.59 54.06,3.48 53.95,3.37 54.06,3.25 54.17,3.14 
	54.29,3.25 54.4,3.25 54.4,3.37 54.4,3.48 54.29,3.48 54.4,3.48 54.51,3.37 54.63,3.48 54.74,3.48 54.85,3.48 54.85,3.59 
	54.85,3.71 54.74,3.71 54.74,3.82 54.85,3.82 54.85,3.93 54.97,3.93 55.08,3.93 55.08,4.05 55.19,3.93 55.08,3.93 55.19,3.82 
	55.19,3.93 55.19,4.05 55.31,4.05 55.42,4.05 55.42,4.16 55.53,4.27 55.53,4.39 55.65,4.39 55.65,4.27 55.76,4.27 55.76,4.16 
	55.76,4.27 55.76,4.39 55.87,4.27 55.99,4.27 55.99,4.39 55.99,4.5 55.99,4.61 56.1,4.61 56.1,4.73 56.1,4.84 56.21,4.84 
	56.21,4.73 56.33,4.73 56.21,4.61 56.21,4.5 56.33,4.5 56.44,4.5 56.44,4.61 56.44,4.73 56.44,4.84 56.55,4.84 56.55,4.95 
	56.67,4.95 56.67,4.84 56.78,4.84 56.89,4.84 57,4.84 57,4.95 57,5.07 57,5.18 57.12,5.18 57.23,5.18 57.23,5.07 57.23,4.95 
	57.23,4.84 57.12,4.84 57.12,4.73 57.23,4.61 57.34,4.61 57.46,4.61 57.46,4.73 57.46,4.84 57.57,4.84 57.68,4.84 57.68,4.73 
	57.8,4.73 57.8,4.84 57.68,4.84 57.68,4.95 57.57,5.07 57.57,5.18 57.68,5.18 57.68,5.29 57.8,5.29 57.91,5.29 57.91,5.18 
	58.02,5.18 58.02,5.07 58.14,5.07 58.14,5.18 58.14,5.29 58.02,5.41 58.02,5.52 57.91,5.52 57.8,5.52 57.8,5.63 57.91,5.75 
	57.91,5.86 57.91,5.97 57.91,6.08 58.02,6.08 58.14,5.97 58.25,5.97 58.36,5.86 58.48,5.75 58.48,5.63 58.59,5.63 58.59,5.75 
	58.59,5.86 58.59,5.97 58.48,5.97 58.48,6.08 58.59,6.08 58.59,6.2 58.7,6.2 58.7,6.31 58.82,6.31 58.82,6.42 58.93,6.42 
	59.04,6.42 59.04,6.54 58.93,6.54 58.82,6.54 58.7,6.65 58.59,6.76 58.59,6.88 58.7,6.88 58.7,6.99 58.7,7.1 58.7,7.22 58.82,7.22 
	58.82,7.33 58.93,7.33 58.93,7.44 59.04,7.44 59.04,7.56 59.04,7.67 59.04,7.78 59.04,7.9 59.16,8.01 59.16,8.12 59.27,8.24 
	59.27,8.35 59.27,8.46 59.38,8.58 59.38,8.69 59.38,8.8 59.5,8.92 59.5,9.03 59.61,9.14 59.61,9.26 59.72,9.48 59.72,9.6 
	59.72,9.94 59.72,10.05 59.72,10.27 59.72,10.61 59.72,10.73 59.72,10.95 59.72,11.07 59.61,11.29 59.61,11.41 59.61,11.52 
	59.5,11.75 59.5,11.97 59.38,12.2 59.38,12.31 59.38,12.43 59.38,12.65 59.38,12.77 59.38,12.88 59.5,12.88 59.5,12.99 59.5,13.11 
	59.61,13.22 59.61,13.33 59.72,13.33 59.72,13.45 59.84,13.45 59.84,13.56 59.95,13.56 60.06,13.67 60.18,13.79 60.29,13.9 
	60.29,14.01 60.52,14.13 60.63,14.24 60.74,14.24 60.86,14.24 60.97,14.24 61.08,14.24 61.19,14.24 61.31,14.35 61.53,14.35 
	61.65,14.35 61.76,14.35 61.87,14.35 61.99,14.35 62.1,14.35 62.33,14.47 62.55,14.47 62.67,14.47 62.89,14.47 63.01,14.58 
	63.12,14.58 63.23,14.58 63.35,14.58 63.46,14.58 63.69,14.58 63.8,14.58 63.91,14.58 64.03,14.58 64.14,14.58 64.25,14.58 
	64.37,14.58 64.48,14.47 64.59,14.47 64.59,14.35 64.71,14.35 64.71,14.24 64.71,14.13 64.71,14.01 64.82,13.9 64.82,13.79 
	64.93,13.67 64.93,13.56 65.05,13.33 65.05,13.22 65.05,13.11 64.93,12.99 64.93,12.88 64.82,12.88 64.82,12.77 64.82,12.65 
	64.82,12.54 64.71,12.54 64.71,12.43 64.71,12.31 64.59,12.31 64.48,12.2 64.37,12.09 64.37,11.97 64.25,11.97 64.25,11.86 
	64.25,11.75 64.25,11.63 64.14,11.52 64.14,11.29 64.14,11.18 64.14,11.07 64.25,10.95 64.25,10.84 64.37,10.84 64.59,10.73 
	64.71,10.61 64.82,10.61 64.93,10.5 65.05,10.5 65.16,10.39 65.27,10.39 65.39,10.39 65.5,10.39 65.61,10.27 65.72,10.27 
	65.84,10.16 65.95,10.16 66.06,10.16 66.18,10.16 66.29,10.16 66.4,10.16 66.52,10.16 66.63,10.16 66.74,10.16 66.86,10.05 
	66.97,10.05 67.2,10.05 67.31,9.94 67.42,9.94 67.42,9.82 67.54,9.71 67.65,9.48 67.76,9.37 67.88,9.26 67.88,9.03 67.99,8.92 
	67.99,8.8 67.99,8.69 67.99,8.58 67.99,8.46 67.88,8.35 67.88,8.24 67.76,8.12 67.76,8.01 67.76,7.9 67.65,7.9 67.65,7.78 
	67.65,7.67 67.76,7.56 67.76,7.44 67.76,7.33 67.88,7.33 67.88,7.22 67.99,7.1 68.1,6.99 68.22,6.99 68.33,6.88 68.44,6.76 
	68.56,6.76 68.67,6.65 68.78,6.65 68.9,6.54 69.01,6.42 69.12,6.31 69.12,6.2 69.24,6.2 69.24,6.08 69.24,5.97 69.24,5.86 
	69.24,5.63 69.24,5.52 69.24,5.41 69.24,5.29 69.24,5.18 69.35,5.18 69.35,5.07 69.58,4.95 69.69,4.84 69.8,4.73 69.91,4.73 
	69.91,4.61 70.03,4.61 70.14,4.5 70.14,4.39 70.25,4.39 70.37,4.27 70.48,4.27 70.59,4.27 70.71,4.16 70.82,4.27 70.93,4.27 
	71.05,4.27 71.16,4.39 71.27,4.39 71.39,4.39 71.61,4.39 71.84,4.39 71.95,4.39 72.07,4.39 72.18,4.39 72.29,4.39 72.41,4.39 
	72.52,4.39 72.63,4.39 72.75,4.27 72.97,4.27 72.97,4.16 73.2,4.16 73.31,4.16 73.43,4.27 73.54,4.27 73.65,4.39 73.77,4.39 
	73.88,4.39 73.99,4.39 74.11,4.39 74.22,4.39 74.33,4.39 74.44,4.5 74.56,4.61 74.67,4.61 74.67,4.73 74.78,4.84 74.9,4.95 
	75.01,5.07 75.12,5.18 75.24,5.29 75.35,5.29 75.46,5.41 75.58,5.41 75.58,5.52 75.58,5.63 75.69,5.63 75.8,5.63 75.8,5.75 
	75.92,5.86 75.92,5.97 76.03,6.08 76.03,6.2 76.03,6.31 76.14,6.31 76.03,6.42 76.03,6.54 76.03,6.65 76.03,6.76 76.03,6.88 
	76.03,6.99 76.03,7.1 76.03,7.22 76.14,7.22 76.26,7.22 76.37,7.22 76.48,7.22 76.6,7.22 76.82,7.22 76.94,7.33 77.05,7.44 
	77.16,7.56 77.16,7.67 77.16,7.78 77.16,8.12 77.16,8.24 77.16,8.35 77.16,8.46 77.28,8.58 77.28,8.69 77.28,8.8 77.28,8.92 
	77.39,8.92 77.39,9.03 77.5,9.14 77.5,9.26 77.5,9.37 77.39,9.48 77.39,9.6 77.5,9.6 77.5,9.71 77.5,9.82 77.62,9.94 77.62,10.05 
	77.73,10.16 77.73,10.27 77.84,10.39 77.96,10.39 77.96,10.5 78.07,10.5 78.07,10.61 78.18,10.73 78.3,10.84 78.3,10.95 78.3,11.07 
	78.41,11.18 78.41,11.29 78.52,11.29 78.63,11.41 78.75,11.63 78.86,11.63 78.86,11.75 78.97,11.86 78.97,11.97 79.09,12.09 
	79.2,12.2 79.2,12.31 79.2,12.43 79.2,12.54 79.2,12.65 79.2,12.77 79.31,13.11 79.31,13.22 79.43,13.33 79.43,13.45 79.43,13.56 
	79.54,13.67 79.54,13.79 79.65,13.79 79.65,13.9 79.77,13.9 79.77,14.01 79.99,14.13 80.11,14.24 80.22,14.35 80.33,14.35 
	80.33,14.47 80.45,14.47 80.56,14.58 80.67,14.58 80.79,14.58 80.9,14.69 81.01,14.69 81.13,14.8 81.24,14.8 81.35,14.92 
	81.47,15.03 81.58,15.03 81.81,15.14 81.92,15.26 82.03,15.37 82.03,15.48 82.15,15.48 82.15,15.6 82.15,15.71 82.26,15.71 
	82.26,15.82 82.26,15.94 82.15,16.05 82.15,16.16 82.15,16.28 82.15,16.39 82.15,16.5 82.03,16.62 82.03,16.73 82.03,16.84 
	82.03,16.96 82.03,17.07 82.03,17.18 82.15,17.18 82.15,17.3 82.15,17.41 82.26,17.52 82.37,17.52 82.49,17.52 82.6,17.52 
	82.71,17.52 82.82,17.52 82.82,17.64 82.94,17.64 83.05,17.75 83.16,17.75 83.16,17.86 83.28,17.86 83.39,17.86 83.5,17.98 
	83.5,18.09 83.62,18.09 83.62,18.2 83.73,18.32 83.73,18.43 83.84,18.54 83.96,18.54 84.07,18.65 84.3,18.77 84.3,18.88 
	84.41,18.99 84.41,19.11 84.52,19.11 84.52,19.22 84.52,19.33 84.52,19.45 84.64,19.45 84.64,19.56 84.75,19.67 84.75,19.79 
	84.86,19.79 84.86,19.9 84.98,19.9 85.09,20.01 85.09,20.13 85.2,20.24 85.32,20.35 85.32,20.47 85.43,20.47 85.43,20.58 
	85.43,20.69 85.54,20.69 85.66,20.69 85.66,20.81 85.77,20.92 85.88,20.92 85.88,21.03 86,21.03 86.11,21.03 86.22,21.03 
	86.22,21.15 86.34,21.15 86.45,21.15 86.56,21.15 86.68,21.15 86.79,21.03 86.9,20.92 86.9,20.81 87.02,20.81 87.02,20.69 
	87.02,20.58 87.13,20.47 87.24,20.35 87.35,20.24 87.47,20.13 87.47,20.01 87.58,20.01 87.58,19.9 87.58,19.79 87.69,19.67 
	87.81,19.45 87.92,19.33 87.92,19.22 88.03,19.11 88.15,19.11 88.15,18.99 88.26,18.99 88.37,18.99 88.49,18.99 88.6,18.99 
	88.71,18.99 88.71,18.88 88.94,18.88 89.05,18.88 89.05,18.99 89.17,18.99 89.28,19.11 89.39,19.11 89.51,19.22 89.62,19.22 
	89.62,19.33 89.73,19.33 89.85,19.45 89.85,19.56 89.73,19.56 89.73,19.67 89.73,19.79 89.73,19.9 89.73,20.01 89.73,20.13 
	89.73,20.24 89.73,20.35 89.73,20.47 89.62,20.58 89.62,20.69 89.62,20.81 89.51,20.92 89.51,21.03 89.51,21.15 89.51,21.26 
	89.51,21.37 89.39,21.49 89.39,21.6 89.39,21.71 89.39,21.83 89.39,21.94 89.39,22.05 89.51,22.05 89.51,22.17 89.51,22.28 
	89.39,22.39 89.39,22.51 89.39,22.62 89.39,22.73 89.39,22.84 89.28,22.84 89.28,22.96 89.28,23.07 89.28,23.18 89.28,23.3 
	89.28,23.41 89.39,23.41 89.39,23.52 89.39,23.64 89.39,23.75 89.28,23.75 89.28,23.86 89.39,23.98 89.39,24.09 89.28,24.09 
	89.17,24.2 89.05,24.32 89.05,24.43 88.94,24.54 88.94,24.66 88.83,24.66 88.83,24.77 88.83,24.88 88.83,25 88.71,25.11 
	88.83,25.11 88.71,25.22 88.71,25.34 88.83,25.34 88.83,25.45 88.83,25.56 88.71,25.56 88.71,25.68 88.71,25.79 88.71,25.9 
	88.71,26.02 88.71,26.13 88.6,26.24 88.6,26.36 88.6,26.47 88.6,26.58 88.49,26.7 88.49,26.81 88.37,26.92 88.37,27.04 88.37,27.15 
	88.37,27.26 88.37,27.37 88.37,27.49 88.26,27.6 88.26,27.71 88.15,27.71 88.15,27.83 88.15,27.94 88.15,28.05 88.26,28.05 
	88.26,28.17 88.26,28.28 88.26,28.39 88.26,28.51 88.15,28.51 88.15,28.62 88.03,28.62 88.03,28.73 87.92,28.73 87.81,28.85 
	87.81,28.96 87.69,28.96 87.69,29.07 87.69,29.19 87.69,29.3 87.58,29.3 87.58,29.41 87.69,29.41 87.69,29.53 87.81,29.64 
	87.81,29.75 87.69,29.87 87.69,29.98 87.69,30.09 87.58,30.21 87.58,30.32 87.58,30.43 87.47,30.43 87.47,30.55 87.47,30.66 
	87.47,30.77 87.35,30.77 87.35,30.89 87.47,30.89 87.47,31 87.35,31 87.35,31.11 87.24,31.22 87.24,31.34 87.13,31.45 87.13,31.56 
	87.13,31.68 87.02,31.79 87.02,31.9 87.02,32.02 87.02,32.13 87.02,32.24 86.9,32.24 86.9,32.36 86.9,32.47 86.79,32.58 86.79,32.7 
	86.68,32.81 86.68,32.92 86.68,33.04 86.68,33.15 86.68,33.26 86.68,33.38 86.56,33.49 86.45,33.72 86.45,33.83 86.34,33.83 
	86.34,33.94 86.34,34.06 86.22,34.06 86.22,34.17 86.22,34.28 86.22,34.4 86.11,34.51 86.11,34.62 86.11,34.74 86.11,34.85 
	86.22,34.85 86.22,34.96 86.34,34.96 86.34,35.08 86.45,35.08 86.45,35.19 86.56,35.19 86.56,35.3 86.45,35.3 86.45,35.42 
	86.45,35.53 86.45,35.64 86.45,35.75 86.45,35.87 86.45,35.98 86.45,36.09 86.34,36.21 86.22,36.32 86.22,36.43 86.11,36.43 
	86.11,36.55 86,36.55 86,36.66 86.11,36.66 86.22,36.66 86.22,36.77 86.34,36.89 86.45,36.89 86.45,37 86.34,37 86.22,37 
	86.22,37.11 86.11,37.11 86.11,37.23 86,37.34 86,37.45 86,37.57 86,37.68 85.88,37.68 85.88,37.79 85.77,37.91 85.66,37.91 
	85.66,38.02 85.54,38.02 85.43,38.13 85.32,38.13 85.2,38.25 85.2,38.36 85.2,38.47 85.2,38.59 85.2,38.7 85.09,38.7 85.2,38.7 
	85.2,38.81 85.2,38.93 85.2,39.04 85.2,39.15 85.2,39.27 85.09,39.27 85.09,39.38 84.98,39.38 84.98,39.49 84.86,39.49 84.64,39.49 
	84.52,39.49 84.41,39.49 84.3,39.49 84.3,39.6 84.18,39.72 84.07,39.72 83.96,39.83 83.84,39.94 83.73,39.94 83.62,40.06 
	83.5,40.06 83.39,40.06 83.28,40.06 83.16,40.06 83.05,40.06 82.94,40.06 82.82,40.06 82.71,40.06 82.6,40.17 82.49,40.28 
	82.37,40.4 82.26,40.51 82.15,40.51 82.03,40.74 81.92,40.85 81.81,40.96 81.69,41.08 81.69,41.19 81.58,41.3 81.58,41.42 
	81.58,41.53 81.69,41.64 81.81,41.76 81.92,41.87 81.92,41.98 81.92,42.1 81.92,42.21 81.81,42.21 81.69,42.32 81.69,42.44 
	81.69,42.55 81.69,42.66 81.69,42.78 81.58,42.89 81.58,43 81.58,43.12 81.47,43.23 81.47,43.34 81.58,43.34 81.58,43.46 
	81.58,43.57 81.58,43.68 81.47,43.91 81.47,44.13 81.35,44.25 81.35,44.36 81.24,44.47 81.13,44.47 81.13,44.59 81.01,44.59 
	81.01,44.7 80.9,44.7 80.79,44.7 80.67,44.7 80.56,44.7 80.45,44.7 80.45,44.81 80.33,44.81 80.22,44.81 80.11,44.93 79.99,44.93 
	79.88,45.04 79.88,45.15 79.77,45.15 79.77,45.27 79.77,45.38 79.77,45.49 79.77,45.61 79.77,45.72 79.65,45.72 79.65,45.83 
	79.65,45.95 79.54,45.95 79.54,46.06 79.54,46.17 79.43,46.29 79.43,46.4 79.31,46.51 79.31,46.74 79.31,46.85 79.2,46.85 
	79.2,46.97 79.2,47.08 79.2,47.31 79.2,47.42 79.2,47.53 79.2,47.65 79.2,47.76 79.31,47.76 79.31,47.87 79.31,47.98 "/>
</svg>
