<?xml version="1.0" encoding="utf-8"?>
<!-- Generator: Adobe Illustrator 24.2.1, SVG Export Plug-In . SVG Version: 6.00 Build 0)  -->
<svg version="1.1" id="Layer_1" xmlns="http://www.w3.org/2000/svg" xmlns:xlink="http://www.w3.org/1999/xlink" x="0px" y="0px"
	 viewBox="0 0 97.23 97.23" style="enable-background:new 0 0 97.23 97.23;" xml:space="preserve">
<style type="text/css">
	.st0{fill-rule:evenodd;clip-rule:evenodd;}
</style>
<polygon class="st0" points="71.71,13.96 71.84,14.09 71.71,14.09 71.71,14.22 71.71,14.35 71.71,14.48 71.71,14.61 71.84,14.73 
	71.84,14.86 71.97,14.99 71.97,15.12 71.97,15.25 71.84,15.38 71.84,15.5 71.97,15.5 71.97,15.63 71.97,15.76 71.97,15.89 
	71.97,16.02 71.97,16.14 71.97,16.27 72.1,16.4 71.84,16.4 71.71,16.53 71.58,16.53 71.58,16.66 71.33,16.79 71.2,16.66 
	71.07,16.79 71.07,16.91 70.94,16.91 70.81,17.04 70.68,17.17 70.56,17.17 70.43,17.17 70.3,17.17 70.17,17.17 70.04,17.17 
	69.91,17.04 69.79,17.04 69.53,17.04 69.53,16.91 69.53,16.79 69.4,16.66 69.4,16.53 69.27,16.4 69.14,16.53 68.89,16.53 
	68.76,16.66 68.63,16.79 68.5,16.79 68.37,16.79 68.25,16.79 67.99,16.79 67.86,16.79 67.73,16.79 67.48,16.79 67.48,16.91 
	67.35,17.17 67.22,17.3 67.09,17.3 66.96,17.43 66.96,17.56 66.83,17.68 66.71,17.81 66.58,17.81 66.45,17.94 66.45,18.07 
	66.45,18.2 66.32,18.33 66.32,18.45 66.19,18.45 66.19,18.58 66.32,18.71 66.32,18.84 66.19,18.84 66.19,18.97 66.06,19.1 
	66.06,19.22 66.06,19.35 66.19,19.48 66.06,19.61 65.94,19.61 65.94,19.74 66.06,19.74 66.06,19.87 66.06,19.99 66.06,20.12 
	66.06,20.25 65.94,20.25 65.94,20.38 65.81,20.51 65.68,20.64 65.55,20.64 65.55,20.76 65.42,20.89 65.42,21.02 65.3,21.15 
	65.17,21.28 65.17,21.41 65.04,21.41 65.04,21.53 65.04,21.66 64.91,21.66 64.78,21.66 64.65,21.66 64.53,21.66 64.4,21.66 
	64.4,21.79 64.27,21.79 64.14,21.92 64.14,22.05 64.01,22.05 63.88,22.05 63.76,22.05 63.63,22.05 63.63,22.17 63.63,22.3 
	63.5,22.3 63.37,22.3 63.37,22.43 63.24,22.43 63.24,22.56 63.24,22.69 63.24,22.82 63.11,22.82 63.11,22.94 63.11,23.07 
	63.11,23.2 63.11,23.33 63.11,23.46 62.99,23.46 62.86,23.59 62.86,23.71 62.73,23.84 62.73,23.97 62.73,24.1 62.6,24.23 
	62.6,24.36 62.73,24.48 62.73,24.61 62.73,24.74 62.73,24.87 62.6,24.87 62.47,25 62.34,25 62.22,25.13 62.09,25.13 61.96,25.25 
	61.96,25.38 61.83,25.38 61.7,25.51 61.57,25.51 61.57,25.64 61.45,25.64 61.45,25.77 61.32,25.77 61.19,25.77 61.06,25.77 
	61.06,25.9 61.06,26.02 61.19,26.28 61.06,26.41 61.06,26.54 61.06,26.67 61.19,26.67 61.32,26.79 61.32,26.92 61.19,26.92 
	61.19,27.05 61.32,27.18 61.32,27.31 61.19,27.31 61.32,27.44 61.19,27.69 61.32,27.69 61.32,27.82 61.19,27.95 61.19,28.08 
	61.06,28.08 61.06,28.21 61.06,28.33 60.93,28.33 60.8,28.33 60.68,28.33 60.55,28.33 60.55,28.46 60.55,28.59 60.55,28.72 
	60.42,28.85 60.42,28.97 60.29,28.97 60.16,29.1 60.03,29.23 60.03,29.36 60.03,29.49 60.03,29.62 60.03,29.74 60.03,29.87 
	60.03,30 60.03,30.13 60.03,30.26 59.91,30.26 59.78,30.26 59.65,30.39 59.52,30.39 59.39,30.39 59.26,30.39 59.14,30.39 
	59.01,30.39 58.88,30.39 58.75,30.39 58.62,30.39 58.49,30.39 58.37,30.39 58.24,30.39 58.11,30.39 57.98,30.51 57.85,30.51 
	57.85,30.64 57.98,30.64 57.98,30.77 57.98,30.9 58.11,31.03 58.11,31.16 57.98,31.16 57.98,31.28 57.98,31.41 57.85,31.41 
	57.73,31.28 57.73,31.41 57.73,31.54 57.6,31.54 57.6,31.67 57.47,31.67 57.34,31.67 57.34,31.8 57.21,31.8 57.21,31.93 
	57.34,32.05 57.34,32.18 57.34,32.31 57.34,32.44 57.34,32.57 57.34,32.7 57.47,32.82 57.47,32.95 57.47,33.08 57.47,33.21 
	57.47,33.34 57.47,33.47 57.47,33.59 57.34,33.72 57.21,33.85 57.08,33.85 56.96,33.85 56.96,33.98 56.83,33.98 56.7,33.98 
	56.7,33.85 56.57,33.85 56.44,33.85 56.44,33.72 56.44,33.59 56.31,33.59 56.19,33.47 56.19,33.34 56.06,33.34 56.06,33.21 
	55.93,33.08 55.8,32.95 55.67,32.95 55.67,32.82 55.67,32.95 55.54,32.95 55.42,32.95 55.29,32.95 55.16,32.95 55.03,33.08 
	55.03,33.21 55.03,33.34 55.03,33.47 55.03,33.59 55.03,33.72 54.9,33.72 54.77,33.72 54.65,33.72 54.52,33.72 54.39,33.59 
	54.26,33.59 54.13,33.59 54,33.59 54,33.47 53.88,33.47 53.75,33.47 53.62,33.47 53.49,33.59 53.36,33.59 53.23,33.59 53.11,33.59 
	52.98,33.59 52.98,33.72 52.98,33.85 52.85,33.85 52.85,33.98 52.72,33.98 52.59,33.98 52.46,33.98 52.34,33.98 52.21,33.98 
	52.21,34.11 52.08,34.11 51.95,33.98 51.82,33.98 51.69,33.98 51.57,33.98 51.44,34.11 51.31,33.98 51.31,34.11 51.18,34.11 
	51.18,34.24 51.18,34.36 51.05,34.36 50.92,34.49 50.8,34.62 50.67,34.62 50.67,34.75 50.54,34.75 50.41,34.88 50.41,35.01 
	50.54,35.01 50.54,35.13 50.67,35.13 50.54,35.26 50.54,35.39 50.67,35.39 50.67,35.52 50.67,35.65 50.67,35.77 50.67,35.9 
	50.8,36.29 50.92,36.29 51.05,36.42 51.05,36.54 51.18,36.67 51.18,36.8 51.18,36.93 51.18,37.06 51.31,37.06 51.31,37.19 
	51.31,37.31 51.31,37.44 51.31,37.57 51.18,37.57 51.18,37.7 51.31,37.7 51.31,37.83 51.44,37.96 51.44,38.08 51.57,38.21 
	51.57,38.34 51.69,38.34 51.69,38.47 51.69,38.6 51.69,38.73 51.82,38.73 51.82,38.85 51.82,38.98 51.95,38.98 52.08,39.11 
	52.21,39.11 52.34,39.24 52.34,39.37 52.34,39.5 52.34,39.62 52.46,39.62 52.59,39.62 52.59,39.75 52.59,39.88 52.72,39.88 
	52.72,40.01 52.72,40.14 52.85,40.14 52.85,40.27 52.98,40.39 52.98,40.52 53.11,40.52 53.11,40.65 53.23,40.65 53.23,40.78 
	53.23,40.91 53.11,41.04 52.98,41.16 52.98,41.29 52.85,41.42 52.85,41.55 52.85,41.68 52.85,41.8 52.98,41.93 52.98,42.06 
	53.11,42.06 53.23,42.19 53.36,42.32 53.36,42.45 53.36,42.57 53.49,42.7 53.62,42.83 53.75,43.09 53.75,43.22 53.75,43.34 
	53.75,43.47 53.88,43.6 53.75,43.73 53.75,43.86 53.75,43.99 53.75,44.11 53.75,44.24 53.75,44.37 53.75,44.5 53.75,44.63 
	53.75,44.76 53.88,44.88 53.88,45.01 53.88,45.14 53.88,45.27 53.88,45.53 53.88,45.65 53.88,45.78 54,45.78 54.13,45.78 
	54.13,45.91 54.13,46.04 54,46.17 54,46.3 53.88,46.42 54,46.55 54.13,46.68 54.26,46.81 54.39,46.94 54.39,47.07 54.39,47.32 
	54.39,47.45 54.39,47.58 54.39,47.71 54.26,47.84 54.26,47.96 54.26,48.09 54.26,48.22 54.26,48.35 54.26,48.6 54.26,48.73 
	54.26,48.99 54.13,48.99 54.13,49.25 54.26,49.25 54.39,49.37 54.39,49.5 54.52,49.63 54.52,49.76 54.65,49.89 54.65,50.02 
	54.77,50.14 54.9,50.27 55.03,50.4 55.03,50.53 55.16,50.66 55.16,50.91 55.16,51.04 55.16,51.17 55.16,51.3 55.16,51.56 
	55.29,51.68 55.42,51.81 55.42,51.94 55.54,51.94 55.67,51.94 55.8,51.94 55.8,52.07 55.67,52.07 55.67,52.2 55.67,52.33 
	55.8,52.33 55.8,52.45 55.8,52.58 55.8,52.71 55.8,52.84 55.93,52.84 56.06,52.97 56.06,53.1 56.19,53.1 56.19,53.22 56.31,53.22 
	56.31,53.35 56.31,53.61 56.44,53.74 56.44,53.87 56.31,53.87 56.31,53.99 56.19,53.99 56.06,53.99 55.93,54.12 55.93,54.25 
	55.93,54.38 56.06,54.51 56.06,54.64 56.19,54.64 56.19,54.76 56.31,54.89 56.31,55.02 56.44,55.02 56.44,55.15 56.44,55.28 
	56.31,55.28 56.31,55.4 56.19,55.4 56.06,55.4 56.06,55.53 55.93,55.53 55.93,55.66 56.06,55.79 56.06,55.92 56.06,56.05 
	56.19,56.05 56.19,56.17 56.19,56.3 56.06,56.3 56.06,56.43 55.93,56.56 55.93,56.69 55.93,56.82 55.93,56.94 55.93,57.07 
	55.93,57.2 56.06,57.33 56.06,57.46 56.19,57.59 56.31,57.71 56.44,57.71 56.57,57.84 56.7,57.84 56.7,57.71 56.83,57.71 
	56.96,57.71 57.08,57.71 57.21,57.71 57.34,57.71 57.34,57.84 57.47,57.84 57.47,57.97 57.34,58.1 57.34,58.23 57.34,58.36 
	57.47,58.48 57.47,58.61 57.47,59 57.34,59.25 57.34,59.38 57.21,59.51 57.21,59.64 57.21,59.77 57.08,59.9 57.08,60.02 
	56.96,60.15 56.83,60.28 56.7,60.28 56.83,60.41 56.96,60.41 57.08,60.41 57.21,60.41 57.34,60.41 57.47,60.28 57.6,60.15 
	57.73,60.15 57.85,60.15 57.98,60.28 58.11,60.28 58.24,60.28 58.37,60.28 58.49,60.28 58.62,60.28 58.75,60.41 58.88,60.41 
	59.01,60.54 59.14,60.54 59.26,60.67 59.26,60.54 59.39,60.54 59.52,60.54 59.65,60.54 59.65,60.67 59.52,60.79 59.52,61.05 
	59.52,61.18 59.52,61.31 59.65,61.43 59.65,61.56 59.78,61.69 59.91,61.69 60.03,61.82 60.16,61.82 60.29,61.95 60.42,61.95 
	60.42,62.08 60.55,62.08 60.55,62.2 60.68,62.2 60.68,62.33 60.8,62.33 60.8,62.46 60.8,62.59 60.8,62.72 60.8,62.85 60.8,62.97 
	60.8,63.1 60.93,63.23 61.06,63.23 61.19,63.36 61.32,63.36 61.45,63.36 61.45,63.49 61.57,63.62 61.7,63.74 61.83,63.87 61.96,64 
	61.96,64.13 61.96,64.26 62.09,64.26 62.22,64.26 62.34,64.26 62.34,64.39 62.34,64.51 62.34,64.64 62.34,64.77 62.34,64.9 
	62.34,65.03 62.22,65.03 62.22,65.16 62.09,65.16 61.96,65.16 61.83,65.03 61.83,65.16 61.7,65.16 61.7,65.28 61.57,65.28 
	61.45,65.28 61.32,65.28 61.19,65.28 61.06,65.28 60.93,65.28 60.8,65.28 60.68,65.28 60.68,65.41 60.68,65.54 60.55,65.67 
	60.68,65.8 60.68,65.93 60.8,65.93 60.8,66.05 60.8,66.18 60.93,66.18 60.93,66.31 60.93,66.44 60.93,66.57 61.06,66.57 61.06,66.7 
	61.19,66.7 61.19,66.82 61.19,66.95 61.32,66.95 61.45,67.08 61.57,67.21 61.57,67.34 61.57,67.47 61.45,67.47 61.32,67.47 
	61.32,67.59 61.32,67.72 61.45,67.72 61.57,67.72 61.57,67.59 61.7,67.59 61.7,67.72 61.7,67.85 61.7,67.98 61.57,67.98 
	61.57,68.11 61.45,68.11 61.32,68.11 61.19,68.11 61.06,68.11 60.93,68.11 60.8,68.11 60.68,68.11 60.68,68.23 60.55,68.23 
	60.55,68.11 60.42,68.11 60.29,67.98 60.29,67.85 60.16,67.85 60.16,67.72 60.03,67.72 60.03,67.59 59.91,67.59 59.78,67.59 
	59.65,67.72 59.52,67.72 59.39,67.59 59.14,67.47 58.88,67.34 58.88,67.21 58.75,67.21 58.75,67.34 58.62,67.34 58.49,67.34 
	58.49,67.47 58.37,67.59 58.24,67.59 58.24,67.47 58.11,67.47 58.11,67.34 57.98,67.34 57.85,67.34 57.73,67.47 57.6,67.47 
	57.47,67.47 57.47,67.59 57.34,67.59 57.21,67.59 57.08,67.59 56.96,67.59 56.83,67.72 56.7,67.72 56.7,67.85 56.57,67.85 
	56.57,67.98 56.7,67.98 56.7,68.11 56.83,68.23 56.96,68.49 56.96,68.62 56.96,68.75 56.96,68.88 57.08,69 57.08,69.13 57.08,69.26 
	57.08,69.39 57.21,69.52 57.34,69.52 57.47,69.52 57.6,69.65 57.6,69.77 57.47,69.9 57.6,69.9 57.6,70.03 57.6,70.16 57.73,70.29 
	57.85,70.29 57.98,70.29 57.98,70.42 57.98,70.54 57.98,70.67 57.85,70.67 57.85,70.8 57.98,70.8 58.11,70.8 58.11,70.93 
	57.98,71.06 57.98,71.19 57.85,71.19 57.73,71.06 57.6,71.06 57.47,71.06 57.34,71.06 57.34,71.19 57.21,71.19 57.21,71.31 
	57.08,71.31 57.08,71.44 57.08,71.57 57.08,71.7 57.21,71.7 57.21,71.83 57.08,71.96 57.08,72.21 57.08,72.34 56.96,72.34 
	56.96,72.47 56.83,72.47 56.83,72.6 56.7,72.6 56.7,72.73 56.7,72.85 56.83,72.85 56.83,72.98 56.7,72.98 56.7,73.11 56.7,73.24 
	56.57,73.24 56.44,73.24 56.31,73.24 56.19,73.24 56.06,73.11 55.93,73.11 55.8,73.11 55.67,73.11 55.67,73.24 55.54,73.24 
	55.42,73.24 55.42,73.37 55.29,73.37 55.29,73.5 55.16,73.62 55.16,73.88 55.16,74.14 55.16,74.27 55.16,74.39 55.16,74.52 
	55.29,74.52 55.29,74.65 55.29,74.78 55.29,74.91 55.16,74.91 55.16,75.03 55.29,75.03 55.29,75.16 55.29,75.29 55.16,75.42 
	55.16,75.55 55.16,75.68 55.29,75.8 55.42,75.8 55.42,75.93 55.42,76.06 55.29,76.06 55.29,76.19 55.16,76.19 55.16,76.32 
	55.03,76.32 55.03,76.45 54.9,76.45 54.77,76.45 54.65,76.45 54.52,76.45 54.52,76.57 54.39,76.57 54.26,76.57 54.13,76.57 54,76.7 
	53.88,76.7 53.88,76.83 53.75,76.83 53.75,76.96 53.75,77.09 53.75,77.22 53.75,77.34 53.75,77.47 53.62,77.47 53.62,77.6 
	53.62,77.73 53.62,77.86 53.75,77.99 53.75,78.11 53.88,78.24 53.88,78.37 53.75,78.5 53.62,78.5 53.49,78.5 53.49,78.63 
	53.49,78.76 53.49,78.88 53.49,79.01 53.49,79.14 53.36,79.27 53.49,79.27 53.49,79.4 53.49,79.53 53.49,79.65 53.49,79.78 
	53.49,79.91 53.49,80.04 53.62,80.17 53.62,80.3 53.75,80.42 53.75,80.55 53.62,80.55 53.62,80.68 53.49,80.68 53.49,80.81 
	53.49,80.94 53.62,81.07 53.62,81.19 53.49,81.19 53.49,81.32 53.36,81.45 53.36,81.58 53.36,81.71 53.36,81.83 53.23,81.83 
	53.23,81.96 53.11,81.96 53.11,82.09 52.98,82.22 52.98,82.35 52.98,82.48 52.85,82.6 52.85,82.73 52.72,82.73 52.72,82.86 
	52.59,82.86 52.46,82.86 52.34,82.86 52.34,82.73 52.21,82.73 52.08,82.6 51.95,82.6 51.82,82.73 51.82,82.86 51.69,82.86 
	51.69,82.73 51.44,82.73 51.31,82.6 51.05,82.6 50.92,82.6 50.8,82.73 50.67,82.73 50.54,82.6 50.41,82.6 50.41,82.48 50.28,82.22 
	50.15,82.09 50.03,82.09 49.9,82.09 49.77,82.09 49.77,81.96 49.64,81.83 49.64,81.71 49.51,81.58 49.51,81.45 49.39,81.45 
	49.26,81.32 49.26,81.19 49.13,81.19 49.13,81.07 49,81.07 48.87,81.07 48.74,81.07 48.62,81.07 48.62,81.19 48.49,81.19 
	48.49,81.32 48.49,81.19 48.36,81.19 48.23,81.19 48.23,81.07 48.23,80.94 48.1,80.94 47.97,80.94 47.85,80.81 47.85,80.68 
	47.85,80.81 47.72,80.81 47.59,80.81 47.46,80.81 47.33,80.68 47.2,80.68 47.08,80.55 47.08,80.68 46.95,80.68 46.82,80.68 
	46.82,80.81 46.56,80.81 46.43,80.81 46.31,80.81 46.18,80.68 46.05,80.68 45.92,80.68 45.92,80.55 45.79,80.55 45.79,80.42 
	45.66,80.42 45.54,80.3 45.41,80.3 45.28,80.3 45.15,80.42 45.02,80.55 44.89,80.68 44.89,80.81 44.77,80.81 44.77,80.68 
	44.64,80.68 44.51,80.68 44.38,80.68 44.25,80.55 44.12,80.55 44,80.55 43.87,80.55 43.74,80.55 43.61,80.55 43.48,80.55 
	43.36,80.55 43.23,80.55 43.1,80.42 42.97,80.42 42.84,80.3 42.71,80.3 42.71,80.17 42.59,80.17 42.46,80.17 42.33,80.17 
	42.33,80.3 42.33,80.42 42.33,80.55 42.33,80.68 42.33,80.81 42.2,80.81 42.07,80.68 41.94,80.68 41.94,80.81 41.69,80.94 
	41.56,81.07 41.56,81.19 41.56,81.32 41.43,81.32 41.3,81.45 41.17,81.45 41.17,81.58 40.79,81.71 40.66,81.71 40.66,81.83 
	40.66,81.96 40.79,81.96 40.92,82.09 40.92,82.22 40.79,82.35 40.79,82.48 40.66,82.6 40.53,82.86 40.53,82.99 40.66,83.12 
	40.66,83.25 40.53,83.37 40.66,83.37 40.79,83.5 40.92,83.5 41.05,83.5 41.05,83.63 41.05,83.76 41.05,84.02 41.05,84.27 
	41.17,84.4 41.17,84.53 41.3,84.66 41.43,84.79 41.56,84.79 42.07,84.79 42.2,84.91 42.33,84.91 42.59,85.04 42.71,85.04 
	42.71,85.17 42.84,85.17 42.84,85.3 42.71,85.3 42.71,85.43 42.71,85.56 42.59,85.56 42.59,85.68 42.59,85.81 42.59,85.94 
	42.59,86.07 42.46,86.2 42.33,86.33 42.33,86.45 42.33,86.71 42.33,86.84 42.46,86.97 42.46,87.35 42.46,87.48 42.46,87.61 
	42.33,87.74 42.46,87.99 42.46,88.12 42.71,88.51 42.71,88.63 42.59,88.63 42.46,88.63 42.33,88.76 42.2,88.76 42.07,88.89 
	42.07,89.02 41.94,89.02 41.82,89.15 41.69,89.15 41.69,89.28 41.56,89.4 41.56,89.53 41.56,89.66 41.56,89.79 41.43,89.79 
	41.3,89.92 41.17,89.92 41.17,90.05 41.17,90.17 41.17,90.3 41.05,90.3 40.92,90.43 40.79,90.43 40.66,90.56 40.66,90.69 
	40.66,90.82 40.66,91.07 40.53,91.2 40.53,91.33 40.53,91.46 40.53,91.59 40.53,91.71 40.4,91.84 40.53,91.84 40.53,91.97 
	40.53,91.84 40.4,91.84 40.28,91.84 40.15,91.84 40.02,91.84 39.89,91.84 39.89,91.71 39.89,91.59 39.89,91.46 39.89,91.33 
	39.89,91.2 39.89,91.07 39.76,91.07 39.51,90.94 39.51,90.82 39.38,90.69 39.12,90.56 39.12,90.43 38.99,90.43 38.86,90.43 
	38.86,90.3 38.74,90.3 38.61,90.3 38.48,90.3 38.35,90.3 38.22,90.3 38.09,90.3 37.97,90.3 37.97,90.17 37.84,90.17 37.71,90.17 
	37.58,90.17 37.45,90.3 37.32,90.3 37.2,90.3 37.2,90.43 37.07,90.3 37.07,90.17 36.94,90.17 36.81,90.3 36.68,90.3 36.55,90.3 
	36.43,90.3 36.3,90.43 36.04,90.56 35.91,90.69 35.91,90.82 35.91,90.94 35.91,91.07 35.91,91.2 35.79,91.2 35.66,91.2 35.53,91.2 
	35.4,91.2 35.27,91.2 35.14,91.2 35.02,91.2 34.89,91.2 34.76,91.2 34.63,91.2 34.5,91.2 34.37,91.33 34.25,91.33 34.25,91.46 
	34.12,91.46 34.12,91.59 33.99,91.59 33.86,91.59 33.73,91.59 33.6,91.59 33.48,91.59 33.48,91.71 33.35,91.71 33.35,91.84 
	33.22,91.97 33.09,91.97 33.09,92.1 32.96,92.1 32.83,92.1 32.71,92.23 32.58,92.36 32.45,92.36 32.32,92.36 32.19,92.36 
	32.19,92.48 31.94,92.48 31.94,92.61 31.81,92.74 31.68,92.87 31.68,93 31.55,93 31.55,93.13 31.55,93.25 31.55,93.38 31.42,93.38 
	31.42,93.51 31.29,93.51 31.17,93.64 30.91,93.64 30.78,93.64 30.65,93.64 30.52,93.64 30.4,93.77 30.27,93.77 30.14,93.9 
	29.88,93.9 29.75,93.9 29.63,93.9 29.37,93.9 29.24,93.9 29.11,93.9 28.98,93.9 28.86,93.9 28.73,94.15 28.6,94.41 28.6,94.54 
	28.6,94.67 28.6,94.79 28.47,94.67 28.34,94.67 28.21,94.67 28.21,94.79 28.21,94.92 28.09,94.92 27.96,95.05 27.83,95.18 
	27.7,95.44 27.7,95.56 27.7,95.69 27.7,95.82 27.7,95.95 27.7,96.08 27.57,96.08 27.45,96.2 27.32,96.33 27.19,96.46 27.19,96.59 
	27.06,96.72 27.06,96.85 26.93,96.85 26.93,96.72 26.93,96.59 26.93,96.46 26.93,96.33 26.93,96.2 26.93,96.08 26.8,95.95 
	26.8,95.82 26.8,95.69 26.68,95.56 26.55,95.56 26.42,95.44 26.29,95.31 26.29,95.18 26.29,95.05 26.42,94.92 26.42,94.79 
	26.42,94.67 26.42,94.54 26.42,94.41 26.42,94.28 26.42,94.15 26.55,94.02 26.55,93.9 26.55,93.77 26.55,93.64 26.55,93.51 
	26.68,93.38 26.68,93.25 26.8,93.13 26.93,93.13 27.06,93 27.19,92.87 27.45,92.87 27.57,92.87 27.7,92.74 27.7,92.61 27.7,92.48 
	27.83,92.48 27.96,92.36 27.96,92.23 27.96,92.1 27.96,91.97 27.96,91.84 27.83,91.84 27.83,91.71 27.96,91.59 27.96,91.46 
	27.96,91.33 28.09,91.2 27.96,91.07 27.96,90.94 27.83,90.94 27.83,90.82 27.7,90.82 27.57,90.69 27.45,90.43 27.45,90.17 
	27.32,90.17 27.32,90.05 27.45,89.92 27.45,89.79 27.57,89.66 27.7,89.53 27.7,89.4 27.7,89.28 27.7,89.15 27.7,89.02 27.7,88.89 
	27.7,88.76 27.7,88.63 27.7,88.51 27.83,88.38 27.83,88.25 27.83,88.12 27.83,87.87 27.83,87.61 27.83,87.35 27.83,87.22 
	27.83,87.1 27.7,86.97 27.7,86.84 27.57,86.58 27.57,86.45 27.57,86.33 27.45,86.07 27.45,85.94 27.32,85.81 27.32,85.68 
	27.32,85.56 27.32,85.43 27.32,85.04 27.19,84.91 27.19,84.79 27.06,84.66 26.93,84.53 26.8,84.53 26.68,84.4 26.55,84.27 
	26.42,84.14 26.42,84.02 26.42,83.76 26.42,83.5 26.55,83.37 26.68,83.25 26.68,82.99 26.8,82.86 26.93,82.73 26.93,82.6 
	26.93,82.48 26.93,82.35 26.93,82.22 26.8,81.96 26.8,81.83 26.8,81.71 26.93,81.71 26.93,81.58 27.06,81.58 27.06,81.45 
	27.06,81.32 26.93,81.19 26.8,80.94 26.68,80.68 26.55,80.42 26.55,80.17 26.55,80.04 26.68,79.91 26.68,79.78 26.8,79.65 
	26.8,79.53 26.8,79.4 26.68,79.27 26.55,79.14 26.42,79.01 26.42,78.88 26.55,78.76 26.68,78.63 26.8,78.63 26.93,78.76 
	27.06,78.76 27.32,78.76 27.45,78.76 27.57,78.76 27.7,78.63 27.83,78.63 27.96,78.5 28.21,78.5 28.34,78.5 28.47,78.37 28.6,78.24 
	28.73,78.24 28.98,78.11 29.11,78.11 29.24,78.11 29.5,77.99 29.63,77.73 29.75,77.6 29.88,77.6 30.14,77.6 30.27,77.6 30.4,77.47 
	30.52,77.34 30.78,77.22 30.91,77.09 30.91,76.96 30.91,76.83 30.78,76.19 30.78,76.06 30.65,75.93 30.52,75.8 30.4,75.55 
	30.27,75.55 30.14,75.42 30.01,75.42 29.88,75.29 29.63,75.16 29.5,75.16 29.5,75.03 29.37,75.03 29.37,74.91 29.37,74.78 
	29.5,74.65 29.5,74.52 29.5,74.39 29.37,74.27 29.24,74.14 29.11,74.01 28.98,73.88 28.86,73.75 28.73,73.62 28.47,73.62 
	28.34,73.5 28.21,73.5 28.09,73.37 28.09,73.24 27.96,73.11 27.83,72.85 27.83,72.73 27.83,72.6 27.96,72.47 27.96,72.34 
	27.96,72.21 27.96,71.96 28.09,71.83 27.96,71.7 27.96,71.57 27.83,71.44 27.7,71.44 27.57,71.31 27.45,71.19 27.32,70.93 
	27.32,70.8 27.19,70.67 27.06,70.54 26.93,70.42 26.8,70.42 26.8,70.29 26.68,70.16 26.68,70.03 26.68,69.9 26.68,69.65 
	26.55,69.52 26.68,69.52 26.93,69.52 27.06,69.39 27.19,69.39 27.32,69.39 27.45,69.39 27.57,69.39 27.57,69.26 27.7,69.26 
	27.83,69.26 27.96,69.13 28.09,69.13 28.09,69 28.21,69 28.34,69 28.47,69 28.6,69 28.73,68.88 28.86,68.88 28.98,68.88 29.11,69 
	29.24,69 29.37,69 29.5,69 29.5,69.13 29.5,69.26 29.63,69.26 29.75,69.13 29.88,69.13 30.01,69 30.14,69 30.27,68.88 30.4,68.88 
	30.4,68.75 30.4,68.62 30.52,68.62 30.52,68.49 30.65,68.36 30.78,68.36 30.91,68.36 30.91,68.49 31.04,68.49 31.29,68.75 
	31.55,68.62 31.81,68.62 31.94,68.62 32.06,68.62 32.19,68.62 32.19,68.49 32.32,68.36 32.32,68.23 32.45,68.11 32.45,67.98 
	32.45,67.85 32.45,67.72 32.58,67.59 32.58,67.47 32.71,67.34 32.83,67.34 32.96,67.21 32.96,67.08 33.09,66.95 33.09,66.82 
	33.22,66.7 33.22,66.57 33.22,66.44 33.35,66.44 33.48,66.44 33.6,66.44 33.6,66.31 33.73,66.31 33.86,66.31 33.86,66.44 
	33.99,66.44 34.12,66.44 34.12,66.57 33.99,66.57 33.99,66.7 33.86,66.7 33.86,66.82 33.99,66.82 33.99,66.95 34.12,66.95 
	34.25,66.95 34.37,66.95 34.5,66.95 34.5,67.08 34.37,67.08 34.37,67.21 34.37,67.34 34.37,67.47 34.5,67.59 34.63,67.59 
	34.63,67.72 34.63,67.85 34.5,67.85 34.37,67.72 34.37,67.85 34.37,67.98 34.37,68.11 34.5,68.23 34.5,68.36 34.63,68.36 
	34.63,68.49 34.76,68.62 34.76,68.75 34.76,68.88 34.63,68.88 34.76,69 34.76,69.13 34.89,69.13 35.02,69.13 35.02,69 35.02,68.88 
	35.14,68.88 35.27,68.88 35.4,68.88 35.53,68.88 35.66,68.88 35.79,68.88 35.91,69 36.04,69 36.04,68.88 36.17,68.88 36.17,69 
	36.3,69 36.3,68.88 36.3,69 36.43,69 36.43,68.88 36.55,68.88 36.68,68.75 36.68,68.88 36.81,68.88 36.81,68.75 36.94,68.75 
	37.07,68.75 37.07,68.62 37.2,68.49 37.2,68.36 37.32,68.36 37.45,68.36 37.58,68.36 37.58,68.23 37.84,68.23 37.84,68.11 
	37.97,68.11 38.09,68.11 38.09,67.98 38.22,67.98 38.35,67.85 38.48,67.85 38.61,67.85 38.74,67.72 38.86,67.72 38.86,67.59 
	38.86,67.47 38.74,67.47 38.61,67.34 38.61,67.21 38.48,67.21 38.48,67.08 38.61,67.08 38.61,66.95 38.61,66.82 38.74,66.82 
	38.74,66.7 38.74,66.44 38.74,66.31 38.74,66.18 38.61,66.05 38.61,65.8 38.61,65.54 38.61,65.41 38.61,65.28 38.61,65.16 
	38.74,65.16 38.86,65.03 38.86,64.9 38.99,64.9 38.99,64.77 39.12,64.77 39.12,64.64 39.12,64.51 39.25,64.64 39.38,64.77 
	39.38,64.9 39.51,65.03 39.63,65.03 39.76,65.03 39.89,65.16 39.89,65.03 39.89,64.9 39.89,64.77 39.89,64.64 39.89,64.51 
	39.76,64.51 39.76,64.39 39.89,64.39 39.89,64.26 39.76,64.26 39.76,64.13 39.76,64 39.63,64 39.63,63.87 39.63,63.74 39.63,63.62 
	39.63,63.49 39.51,63.49 39.51,63.36 39.63,63.23 39.63,63.1 39.63,62.97 39.63,62.85 39.63,62.72 39.51,62.72 39.38,62.59 
	39.38,62.46 39.25,62.46 39.25,62.33 39.25,62.2 39.25,62.08 39.25,61.95 39.25,61.69 39.25,61.56 39.12,61.56 38.99,61.56 
	38.86,61.56 38.74,61.56 38.74,61.43 38.86,61.31 38.86,61.18 38.74,61.18 38.74,61.05 38.86,60.92 38.86,60.67 38.99,60.67 
	38.86,60.67 38.86,60.54 38.74,60.41 38.74,60.28 38.61,60.28 38.61,60.15 38.48,60.02 38.48,59.9 38.48,59.77 38.48,59.64 
	38.48,59.51 38.35,59.51 38.35,59.38 38.35,59.25 38.48,59.25 38.48,59.13 38.48,59 38.35,59 38.35,58.87 38.22,58.74 38.22,58.61 
	38.09,58.48 38.09,58.36 37.97,58.36 37.97,58.23 37.84,58.1 37.84,57.97 37.84,57.84 37.84,57.71 37.84,57.59 37.71,57.33 
	37.71,57.2 37.71,57.07 37.71,56.94 37.71,56.82 37.58,56.82 37.58,56.69 37.71,56.69 37.71,56.56 37.84,56.43 37.71,56.43 
	37.58,56.3 37.45,56.3 37.32,56.17 37.32,56.05 37.32,55.92 37.32,55.79 37.2,55.79 37.07,55.79 37.07,55.66 37.07,55.53 
	37.2,55.53 37.07,55.4 37.07,55.28 37.07,55.15 37.2,55.02 37.2,54.89 37.32,54.89 37.32,54.76 37.32,54.64 37.2,54.64 37.07,54.64 
	37.07,54.51 37.07,54.38 36.94,54.25 36.81,54.12 36.68,54.12 36.55,54.12 36.55,53.99 36.43,53.99 36.3,53.87 36.17,53.87 
	36.17,53.74 36.04,53.74 35.91,53.74 35.91,53.61 35.79,53.61 35.66,53.61 35.66,53.48 35.53,53.48 35.53,53.35 35.53,53.22 
	35.4,53.22 35.27,53.22 35.14,53.22 35.02,53.22 34.89,53.35 34.76,53.35 34.63,53.48 34.5,53.48 34.5,53.61 34.37,53.61 
	34.25,53.61 34.12,53.61 34.12,53.48 33.99,53.48 33.86,53.48 33.86,53.35 33.73,53.35 33.73,53.48 33.6,53.48 33.48,53.48 
	33.48,53.61 33.35,53.61 33.22,53.61 33.35,53.48 33.35,53.35 33.35,53.22 33.35,53.1 33.35,52.97 33.35,52.84 33.48,52.71 
	33.6,52.58 33.73,52.58 33.73,52.45 33.73,52.33 33.86,52.2 33.86,52.07 33.86,51.94 33.99,51.94 34.12,51.81 34.25,51.81 
	34.25,51.68 34.37,51.68 34.37,51.56 34.37,51.43 34.25,51.43 34.25,51.3 34.25,51.17 34.25,51.04 34.25,50.91 34.37,50.79 
	34.5,50.66 34.5,50.53 34.5,50.4 34.63,50.27 34.63,50.14 34.63,50.02 34.76,49.89 34.76,49.76 34.63,49.76 34.63,49.63 34.63,49.5 
	34.76,49.5 34.89,49.37 35.02,49.25 35.14,49.25 35.27,49.12 35.4,48.99 35.4,48.86 35.4,48.73 35.4,48.6 35.27,48.48 35.27,48.35 
	35.4,48.35 35.53,48.09 35.66,48.09 35.66,47.96 35.79,47.96 35.79,47.84 35.66,47.84 35.53,47.71 35.4,47.58 35.27,47.58 
	35.27,47.45 35.14,47.45 35.02,47.45 34.89,47.45 34.76,47.45 34.76,47.32 34.63,47.32 34.63,47.19 34.76,47.19 34.76,47.07 
	34.89,47.07 35.02,46.94 35.02,46.81 34.89,46.68 34.89,46.55 35.02,46.55 35.02,46.42 35.02,46.3 35.02,46.17 34.89,46.04 
	35.02,46.04 35.02,45.91 35.14,45.91 35.27,45.91 35.4,45.78 35.4,45.65 35.53,45.53 35.53,45.4 35.53,45.27 35.53,45.14 
	35.4,45.14 35.4,45.01 35.4,44.88 35.27,44.88 35.27,44.76 35.27,44.63 35.4,44.63 35.4,44.5 35.4,44.37 35.27,44.37 35.27,44.24 
	35.27,44.11 35.14,43.99 35.27,43.86 35.27,43.73 35.27,43.6 35.4,43.6 35.4,43.47 35.27,43.47 35.14,43.34 35.14,43.22 
	35.14,43.09 35.14,42.96 35.27,42.96 35.14,42.83 35.14,42.7 35.27,42.7 35.27,42.57 35.14,42.57 35.14,42.45 35.14,42.32 
	35.14,42.19 35.14,42.06 35.02,41.93 34.89,41.8 34.76,41.8 34.5,41.8 34.37,41.93 34.37,41.8 34.25,41.8 34.25,41.68 34.25,41.55 
	34.25,41.42 34.25,41.29 34.25,41.16 34.12,41.16 34.12,41.04 33.99,40.91 33.86,40.78 33.86,40.65 33.73,40.65 33.73,40.52 
	33.6,40.39 33.6,40.27 33.73,40.14 33.73,40.01 33.73,39.88 33.6,39.88 33.6,39.75 33.6,39.62 33.6,39.5 33.6,39.37 33.48,39.37 
	33.48,39.24 33.48,39.11 33.48,38.98 33.6,38.98 33.73,38.85 33.73,38.73 33.73,38.6 33.6,38.47 33.6,38.34 33.73,38.21 
	33.73,38.08 33.73,37.96 33.73,37.83 33.73,37.7 33.86,37.7 33.86,37.57 33.73,37.57 33.73,37.44 33.73,37.31 33.73,37.19 
	33.6,37.19 33.48,37.19 33.35,37.06 33.22,37.06 33.22,36.93 33.09,36.93 33.09,36.8 32.96,36.8 32.96,36.67 32.96,36.54 
	33.09,36.54 33.09,36.42 33.09,36.29 33.22,36.16 33.22,36.03 33.22,35.9 33.22,35.77 33.22,35.65 33.22,35.52 33.22,35.39 
	33.09,35.26 33.09,35.13 33.09,35.01 32.96,35.01 32.83,34.88 32.83,34.75 32.71,34.75 32.71,34.62 32.58,34.62 32.45,34.62 
	32.32,34.62 32.19,34.62 32.06,34.49 31.94,34.49 31.81,34.36 31.68,34.36 31.55,34.36 31.42,34.24 31.29,34.24 31.17,34.24 
	31.04,34.11 30.91,34.11 30.91,33.98 30.78,33.98 30.65,33.98 30.52,33.98 30.4,33.98 30.27,33.85 30.14,33.72 30.01,33.72 
	30.01,33.59 29.88,33.47 29.75,33.34 29.63,33.21 29.5,33.08 29.5,32.95 29.5,32.82 29.5,32.7 29.37,32.7 29.24,32.57 29.24,32.44 
	29.11,32.31 28.98,32.31 28.73,32.31 28.6,32.18 28.47,32.18 28.34,32.18 28.21,32.18 28.09,32.05 27.96,32.05 27.83,32.05 
	27.83,31.93 27.7,31.93 27.7,31.8 27.7,31.67 27.57,31.67 27.45,31.54 27.45,31.41 27.32,31.41 27.19,31.41 27.06,31.41 
	27.06,31.28 26.93,31.28 26.8,31.28 26.8,31.16 26.8,31.03 26.68,31.03 26.68,30.9 26.55,30.77 26.42,30.77 26.42,30.64 
	26.29,30.64 26.29,30.51 26.16,30.51 26.03,30.51 25.91,30.51 25.91,30.64 25.78,30.64 25.78,30.51 25.91,30.51 25.91,30.39 
	26.03,30.26 26.03,30.13 25.91,30 25.91,29.87 25.78,29.74 25.65,29.62 25.65,29.49 25.65,29.36 25.78,29.36 25.91,29.36 
	26.03,29.36 26.16,29.36 26.29,29.23 26.42,29.1 26.55,28.97 26.68,28.85 26.8,28.85 26.93,28.85 27.06,28.85 27.19,28.85 
	27.32,28.97 27.45,29.1 27.57,29.1 27.7,29.1 27.83,29.1 27.96,29.1 27.96,28.97 27.96,28.85 27.96,28.72 27.96,28.59 27.96,28.46 
	27.83,28.46 27.83,28.33 27.7,28.21 27.7,28.08 27.57,28.08 27.57,27.95 27.57,27.82 27.45,27.69 27.45,27.56 27.32,27.44 
	27.19,27.18 27.06,27.18 27.06,27.05 26.93,26.92 26.93,26.79 26.8,26.79 26.68,26.67 26.55,26.54 26.42,26.41 26.42,26.28 
	26.42,26.15 26.42,26.02 26.55,26.02 26.55,25.9 26.68,25.77 26.8,25.64 26.8,25.51 26.8,25.38 26.8,25.13 26.8,25 26.93,24.87 
	26.93,24.74 26.93,24.61 27.06,24.61 27.06,24.48 27.19,24.48 27.19,24.36 27.32,24.36 27.45,24.36 27.57,24.23 27.7,24.1 
	27.83,23.84 27.83,23.71 27.96,23.59 28.21,23.33 28.34,23.07 28.34,22.94 28.47,22.82 28.34,22.69 28.21,22.69 28.09,22.82 
	27.96,22.94 27.83,23.07 27.7,23.07 27.57,23.07 27.45,23.07 27.32,23.07 27.32,22.94 27.32,22.82 27.19,22.82 27.19,22.69 
	27.32,22.56 27.32,22.43 27.45,22.3 27.57,22.17 27.7,22.17 27.7,22.05 27.83,21.92 27.83,21.79 27.83,21.66 27.83,21.53 
	27.96,21.41 27.96,21.28 28.09,21.15 28.21,20.89 28.34,20.76 28.47,20.76 28.6,20.76 28.6,20.89 28.6,21.02 28.6,21.15 
	28.73,21.28 28.86,21.41 28.98,21.41 29.11,21.41 29.11,21.28 29.24,21.28 29.24,21.15 29.37,21.15 29.37,20.89 29.37,20.76 
	29.37,20.64 29.5,20.51 29.63,20.51 29.75,20.64 29.88,20.64 30.01,20.76 30.14,20.76 30.14,20.89 30.27,20.89 30.27,21.02 
	30.4,21.02 30.52,21.15 30.52,21.28 30.65,21.28 30.65,21.41 30.65,21.53 30.78,21.53 30.91,21.53 31.04,21.53 31.17,21.41 
	31.29,21.41 31.29,21.28 31.42,21.28 31.55,21.15 31.68,21.15 31.81,21.15 31.94,21.28 32.06,21.28 32.06,21.41 32.19,21.41 
	32.32,21.41 32.32,21.28 32.45,21.28 32.58,21.15 32.58,21.02 32.71,20.89 32.83,20.76 32.83,20.64 32.96,20.64 32.96,20.51 
	32.96,20.38 33.09,20.38 33.09,20.25 33.22,20.25 33.35,20.12 33.48,20.12 33.6,20.12 33.6,19.99 33.73,19.99 33.86,19.99 
	33.86,19.87 33.99,19.87 34.12,19.87 34.25,19.87 34.25,19.99 34.37,19.99 34.5,19.99 34.63,19.99 34.76,19.99 34.76,19.87 
	34.89,19.87 34.89,19.74 34.89,19.61 35.02,19.61 35.02,19.48 35.14,19.48 35.14,19.35 35.14,19.22 35.27,19.22 35.4,19.22 
	35.53,19.22 35.53,19.35 35.66,19.35 35.79,19.35 35.91,19.35 35.91,19.22 35.91,19.1 35.91,18.97 35.91,18.84 35.91,18.71 
	35.91,18.58 36.04,18.58 36.04,18.45 36.17,18.45 36.3,18.45 36.3,18.33 36.43,18.33 36.55,18.2 36.55,18.07 36.68,17.94 
	36.81,17.94 36.94,17.81 37.07,17.81 37.2,17.68 37.32,17.68 37.45,17.68 37.58,17.56 37.71,17.43 37.71,17.3 37.84,17.3 
	37.97,17.17 37.97,17.04 37.97,16.91 38.09,16.79 38.09,16.66 38.09,16.53 38.22,16.53 38.22,16.4 38.35,16.4 38.48,16.4 
	38.61,16.4 38.74,16.4 38.86,16.53 38.99,16.53 38.99,16.4 39.12,16.4 39.25,16.27 39.25,16.14 39.25,16.02 39.25,15.89 
	39.25,15.76 39.25,15.63 39.38,15.63 39.38,15.5 39.51,15.5 39.63,15.38 39.76,15.25 39.89,15.25 40.02,15.25 40.15,15.25 
	40.15,15.38 40.28,15.5 40.28,15.63 40.4,15.63 40.53,15.63 40.66,15.5 40.66,15.38 40.79,15.38 40.92,15.25 41.05,15.12 
	41.17,15.12 41.3,14.99 41.43,14.99 41.43,14.86 41.56,14.73 41.69,14.73 41.82,14.61 42.07,14.61 42.07,14.48 42.2,14.48 
	42.33,14.35 42.46,14.35 42.59,14.35 42.59,14.22 42.71,14.09 42.84,13.96 42.97,13.84 43.1,13.71 43.23,13.71 43.36,13.71 
	43.48,13.71 43.48,13.84 43.61,13.84 43.61,13.71 43.74,13.58 43.87,13.58 44,13.45 44.12,13.32 44.25,13.32 44.38,13.32 
	44.51,13.32 44.51,13.19 44.38,13.19 44.38,13.07 44.25,13.07 44.25,12.94 44.38,12.94 44.38,12.81 44.38,12.68 44.38,12.55 
	44.38,12.42 44.38,12.3 44.51,12.3 44.51,12.17 44.64,12.04 44.64,11.91 44.64,11.78 44.77,11.78 44.77,11.65 44.89,11.65 
	44.89,11.78 45.02,11.78 45.15,11.65 45.15,11.53 45.15,11.4 45.28,11.4 45.28,11.27 45.41,11.27 45.41,11.14 45.41,11.01 
	45.41,10.88 45.41,10.76 45.54,10.76 45.54,10.63 45.66,10.63 45.79,10.63 45.79,10.5 45.79,10.37 45.79,10.24 45.79,10.11 
	45.79,9.99 45.92,9.99 45.92,9.86 46.05,9.86 46.05,9.73 46.05,9.6 46.05,9.47 46.18,9.47 46.18,9.34 46.31,9.34 46.43,9.22 
	46.56,9.22 46.69,9.22 46.69,9.09 46.82,8.96 46.95,8.83 46.95,8.7 46.95,8.58 46.82,8.58 46.82,8.45 46.69,8.32 46.69,8.19 
	46.69,8.06 46.69,7.93 46.82,7.81 46.95,7.42 47.08,7.42 47.2,7.04 47.46,6.78 47.59,6.39 47.97,6.39 48.36,6.14 48.49,6.14 
	48.62,6.14 48.74,6.14 48.87,6.14 48.87,6.01 49,6.01 49,5.88 49.13,5.88 49.13,5.75 49.26,5.75 49.39,5.62 49.51,5.62 49.51,5.5 
	49.51,5.37 49.51,5.24 49.51,5.11 49.51,4.98 49.51,4.85 49.51,4.73 49.51,4.6 49.51,4.47 49.51,4.34 49.51,4.21 49.64,4.08 
	49.64,3.96 49.77,3.83 49.77,3.7 49.9,3.7 49.9,3.57 49.9,3.44 50.03,3.44 50.15,3.44 50.28,3.44 50.41,3.44 50.54,3.44 50.8,3.57 
	50.92,3.57 51.05,3.7 51.18,3.7 51.31,3.7 51.44,3.7 51.57,3.7 51.69,3.7 51.82,3.83 51.95,3.83 52.08,3.83 52.34,3.83 52.46,3.83 
	52.59,3.96 52.72,3.96 52.85,3.83 53.11,3.83 53.23,3.83 53.36,3.83 53.49,3.83 53.62,3.96 53.75,3.96 53.75,4.08 53.88,4.08 
	53.88,4.21 54,4.21 54,4.08 54.13,4.08 54.13,3.96 54.13,3.83 54.26,3.96 54.26,4.08 54.39,4.08 54.39,3.96 54.39,3.83 54.52,3.7 
	54.52,3.57 54.65,3.44 54.65,3.31 54.52,3.19 54.52,3.06 54.65,3.06 54.52,2.93 54.52,2.8 54.65,2.8 54.77,2.8 54.77,2.93 
	54.9,2.93 55.03,2.93 55.16,2.93 55.29,2.93 55.42,2.93 55.42,3.06 55.54,3.06 55.54,2.93 55.54,3.06 55.67,3.06 55.8,3.06 
	55.93,3.06 56.06,3.06 56.06,2.93 56.19,2.93 56.31,2.93 56.44,2.93 56.57,2.93 56.57,3.06 56.7,3.06 56.7,2.93 56.7,3.06 
	56.83,3.06 56.96,2.93 57.08,2.93 57.08,3.06 57.21,3.06 57.21,2.93 57.21,3.06 57.21,2.93 57.34,2.93 57.34,2.8 57.34,2.93 
	57.47,2.93 57.47,2.8 57.6,2.8 57.73,2.8 57.73,2.67 57.85,2.67 57.98,2.8 58.11,2.67 58.11,2.54 58.11,2.42 58.24,2.29 58.24,2.16 
	58.37,2.16 58.37,2.03 58.49,2.03 58.49,1.9 58.62,1.9 58.62,1.78 58.62,1.65 58.75,1.65 58.75,1.52 58.88,1.39 59.01,1.39 
	59.14,1.39 59.26,1.26 59.39,1.26 59.52,1.26 59.52,1.13 59.65,1.13 59.65,1.01 59.78,1.01 59.91,1.01 59.91,0.88 60.03,0.88 
	60.16,0.88 60.16,0.75 60.29,0.75 60.42,0.88 60.55,0.88 60.68,0.88 60.8,0.88 60.8,1.01 60.93,1.01 61.06,1.01 61.19,1.01 
	61.32,1.01 61.45,1.01 61.57,1.01 61.7,1.01 61.83,1.01 61.96,0.88 62.09,0.88 62.22,0.88 62.34,0.88 62.34,1.01 62.47,1.01 
	62.47,0.88 62.6,0.88 62.6,1.01 62.73,1.01 62.73,1.13 62.6,1.26 62.73,1.26 62.73,1.39 62.73,1.52 62.73,1.65 62.73,1.78 
	62.6,1.78 62.6,1.9 62.6,2.03 62.6,2.16 62.47,2.16 62.47,2.29 62.47,2.42 62.47,2.54 62.6,2.54 62.6,2.67 62.6,2.8 62.6,2.93 
	62.6,3.06 62.73,3.19 62.86,3.19 62.99,3.31 62.99,3.44 63.11,3.44 63.24,3.57 63.37,3.57 63.37,3.7 63.5,3.7 63.5,3.83 63.63,3.83 
	63.76,3.83 63.88,3.96 63.88,4.08 63.88,4.21 63.88,4.34 63.88,4.47 64.01,4.47 64.14,4.47 64.27,4.47 64.4,4.47 64.4,4.6 
	64.53,4.6 64.53,4.73 64.65,4.73 64.65,4.85 64.78,4.85 64.91,4.98 65.04,4.98 65.17,4.98 65.3,4.98 65.42,4.98 65.55,4.98 
	65.68,4.98 65.81,4.98 65.81,5.11 65.81,5.24 65.81,5.37 65.81,5.5 65.68,5.62 65.68,5.75 65.68,5.88 65.68,6.01 65.68,6.14 
	65.81,6.14 65.81,6.27 65.81,6.39 65.81,6.52 65.68,6.78 65.68,6.91 65.81,6.91 65.81,7.04 65.81,7.16 65.68,7.16 65.68,7.29 
	65.81,7.29 65.81,7.42 65.81,7.55 65.94,7.55 65.94,7.68 65.94,7.81 65.81,7.81 65.81,7.93 65.68,7.93 65.55,8.06 65.42,8.06 
	65.3,8.06 65.3,8.19 65.3,8.32 65.17,8.32 65.17,8.45 65.04,8.45 65.17,8.58 65.04,8.7 65.04,8.83 64.91,8.96 65.04,8.96 
	64.91,8.96 64.91,9.09 64.91,9.22 64.78,9.22 64.78,9.34 64.78,9.47 64.78,9.6 64.91,9.6 64.91,9.73 65.04,9.73 65.17,9.73 
	65.3,9.73 65.42,9.73 65.55,9.86 65.68,9.86 65.81,9.99 65.94,10.11 66.06,10.24 66.19,10.24 66.32,10.24 66.45,10.24 66.58,10.24 
	66.71,10.37 66.83,10.5 66.83,10.63 66.96,10.76 66.96,10.88 67.09,10.88 67.22,10.88 67.22,11.01 67.35,11.01 67.48,11.01 
	67.6,11.01 67.73,11.01 67.86,11.01 67.99,11.14 67.99,11.27 68.12,11.4 68.25,11.4 68.37,11.53 68.37,11.65 68.5,11.65 
	68.63,11.78 68.63,11.91 68.63,12.04 68.63,12.17 68.76,12.17 68.89,12.3 69.02,12.42 69.14,12.55 69.27,12.55 69.4,12.68 
	69.53,12.81 69.66,12.81 69.79,12.94 69.91,13.07 69.91,13.19 70.04,13.32 70.17,13.45 70.17,13.58 70.3,13.58 70.3,13.71 
	70.43,13.71 70.68,13.71 70.94,13.71 71.2,13.84 71.33,13.96 71.45,13.96 71.58,13.96 "/>
</svg>
