<?xml version="1.0" encoding="utf-8"?>
<!-- Generator: Adobe Illustrator 24.2.1, SVG Export Plug-In . SVG Version: 6.00 Build 0)  -->
<svg version="1.1" id="Layer_1" xmlns="http://www.w3.org/2000/svg" xmlns:xlink="http://www.w3.org/1999/xlink" x="0px" y="0px"
	 viewBox="0 0 97.23 97.23" style="enable-background:new 0 0 97.23 97.23;" xml:space="preserve">
<g id="XMLID_1_">
	<g>
		<polygon points="23.16,77.57 23.16,77.49 23.16,77.43 23.16,77.35 23.16,77.27 23.16,77.2 23.24,77.2 23.31,77.2 23.38,77.2 
			23.38,77.27 23.46,77.27 23.53,77.35 23.61,77.35 23.69,77.43 23.76,77.43 23.83,77.43 23.91,77.43 23.98,77.43 24.06,77.43 
			24.14,77.43 24.2,77.43 24.28,77.43 24.36,77.49 24.43,77.49 24.51,77.49 24.58,77.49 24.58,77.57 24.65,77.57 24.65,77.49 
			24.73,77.43 24.81,77.35 24.88,77.27 24.95,77.27 25.03,77.27 25.1,77.35 25.18,77.35 25.18,77.43 25.26,77.43 25.26,77.49 
			25.33,77.49 25.4,77.49 25.48,77.57 25.55,77.57 25.63,77.57 25.77,77.57 25.77,77.49 25.85,77.49 25.93,77.49 25.93,77.43 
			26,77.49 26.08,77.49 26.15,77.57 26.22,77.57 26.3,77.57 26.38,77.57 26.45,77.65 26.52,77.65 26.6,77.65 26.6,77.72 26.6,77.8 
			26.67,77.8 26.75,77.8 26.83,77.8 26.83,77.72 26.89,77.72 26.97,77.72 27.05,77.72 27.12,77.72 27.12,77.8 27.2,77.8 27.2,77.87 
			27.28,77.94 27.34,77.94 27.34,78.02 27.42,78.1 27.42,78.17 27.5,78.25 27.5,78.32 27.57,78.32 27.65,78.32 27.72,78.32 
			27.79,78.39 27.87,78.55 27.87,78.62 27.95,78.62 28.02,78.69 28.09,78.69 28.17,78.62 28.24,78.62 28.4,78.62 28.46,78.69 
			28.62,78.69 28.62,78.77 28.69,78.77 28.69,78.69 28.77,78.62 28.85,78.62 28.91,78.69 28.99,78.69 28.99,78.77 29.07,78.77 
			29.14,78.77 29.22,78.77 29.22,78.69 29.29,78.69 29.29,78.62 29.36,78.55 29.36,78.47 29.36,78.39 29.44,78.32 29.44,78.25 
			29.52,78.25 29.52,78.17 29.59,78.17 29.59,78.1 29.59,78.02 29.59,77.94 29.66,77.87 29.66,77.8 29.74,77.8 29.74,77.72 
			29.66,77.65 29.66,77.57 29.66,77.49 29.74,77.49 29.74,77.43 29.81,77.43 29.81,77.35 29.74,77.27 29.74,77.2 29.66,77.12 
			29.66,77.05 29.66,76.98 29.66,76.9 29.66,76.82 29.66,76.75 29.66,76.68 29.59,76.68 29.66,76.6 29.66,76.53 29.66,76.45 
			29.66,76.37 29.66,76.3 29.66,76.23 29.74,76.23 29.81,76.23 29.89,76.15 29.89,76.08 29.81,76 29.81,75.92 29.74,75.86 
			29.74,75.78 29.74,75.7 29.74,75.63 29.81,75.63 29.81,75.55 29.81,75.48 29.81,75.41 29.81,75.33 29.81,75.25 29.89,75.25 
			29.89,75.18 29.97,75.18 30.03,75.11 30.11,75.11 30.19,75.11 30.26,75.11 30.26,75.03 30.34,75.03 30.41,75.03 30.48,75.03 
			30.56,75.03 30.56,74.96 30.64,74.96 30.64,74.88 30.71,74.88 30.71,74.8 30.79,74.8 30.79,74.74 30.79,74.66 30.71,74.66 
			30.64,74.58 30.64,74.51 30.64,74.43 30.71,74.35 30.71,74.29 30.71,74.21 30.64,74.21 30.64,74.13 30.71,74.13 30.71,74.06 
			30.71,73.98 30.71,73.91 30.64,73.91 30.64,73.84 30.64,73.76 30.64,73.68 30.64,73.54 30.64,73.39 30.71,73.31 30.71,73.23 
			30.79,73.23 30.79,73.17 30.86,73.17 30.93,73.17 30.93,73.09 31.01,73.09 31.09,73.09 31.16,73.09 31.23,73.17 31.31,73.17 
			31.38,73.17 31.46,73.17 31.54,73.17 31.54,73.09 31.54,73.01 31.6,73.01 31.6,72.94 31.54,72.94 31.54,72.86 31.54,72.78 
			31.6,72.78 31.6,72.72 31.68,72.72 31.68,72.64 31.76,72.64 31.76,72.56 31.76,72.41 31.83,72.34 31.83,72.26 31.76,72.26 
			31.76,72.19 31.76,72.11 31.76,72.03 31.83,72.03 31.83,71.97 31.91,71.97 31.91,71.89 31.98,71.89 32.05,71.89 32.13,71.89 
			32.21,71.97 32.28,71.97 32.28,71.89 32.36,71.81 32.36,71.74 32.28,71.74 32.21,71.74 32.21,71.66 32.28,71.66 32.28,71.59 
			32.28,71.52 32.28,71.44 32.21,71.44 32.13,71.44 32.05,71.36 32.05,71.29 32.05,71.22 31.98,71.22 32.05,71.14 32.05,71.07 
			31.98,70.99 31.91,70.99 31.83,70.99 31.76,70.91 31.76,70.84 31.76,70.77 31.76,70.69 31.68,70.62 31.68,70.54 31.68,70.46 
			31.68,70.4 31.6,70.24 31.54,70.17 31.54,70.09 31.46,70.09 31.46,70.02 31.54,70.02 31.54,69.95 31.6,69.95 31.68,69.87 
			31.76,69.87 31.83,69.87 31.91,69.87 31.98,69.87 31.98,69.79 32.05,69.79 32.13,69.79 32.21,69.72 32.28,69.72 32.36,69.72 
			32.36,69.79 32.43,69.79 32.43,69.87 32.5,69.87 32.58,69.79 32.58,69.72 32.66,69.72 32.73,69.72 32.73,69.65 32.8,69.65 
			32.8,69.72 32.95,69.79 33.11,69.87 33.17,69.95 33.25,69.95 33.33,69.87 33.4,69.87 33.48,69.87 33.48,69.95 33.55,69.95 
			33.55,70.02 33.62,70.02 33.62,70.09 33.7,70.17 33.78,70.17 33.78,70.24 33.85,70.24 33.85,70.17 33.93,70.17 34,70.17 
			34.07,70.17 34.15,70.17 34.23,70.17 34.3,70.17 34.37,70.17 34.37,70.09 34.45,70.09 34.45,70.02 34.45,69.95 34.45,69.87 
			34.37,69.87 34.37,69.95 34.3,69.95 34.23,69.95 34.23,69.87 34.23,69.79 34.3,69.79 34.37,69.79 34.37,69.72 34.37,69.65 
			34.3,69.57 34.23,69.5 34.15,69.5 34.15,69.42 34.15,69.34 34.07,69.34 34.07,69.27 34,69.27 34,69.2 34,69.12 34,69.05 
			33.93,69.05 33.93,68.97 33.93,68.89 33.85,68.89 33.85,68.83 33.78,68.75 33.85,68.67 33.85,68.6 33.85,68.52 33.93,68.52 
			34,68.52 34.07,68.52 34.15,68.52 34.23,68.52 34.3,68.52 34.37,68.52 34.45,68.52 34.45,68.45 34.52,68.45 34.52,68.38 
			34.6,68.45 34.68,68.45 34.74,68.45 34.74,68.38 34.82,68.38 34.82,68.3 34.82,68.22 34.82,68.15 34.82,68.08 34.82,68 
			34.82,67.93 34.74,67.93 34.68,67.93 34.6,67.93 34.6,67.85 34.6,67.77 34.52,67.7 34.45,67.63 34.37,67.55 34.3,67.48 34.3,67.4 
			34.23,67.4 34.15,67.4 34.07,67.32 34,67.32 33.93,67.26 33.93,67.18 33.93,67.1 33.93,67.03 33.93,66.95 33.93,66.88 
			33.93,66.81 33.85,66.81 33.85,66.73 33.78,66.73 33.78,66.65 33.7,66.65 33.7,66.58 33.62,66.58 33.55,66.51 33.48,66.51 
			33.4,66.43 33.33,66.43 33.25,66.36 33.25,66.28 33.17,66.2 33.17,66.14 33.17,66.06 33.17,65.91 33.25,65.83 33.25,65.75 
			33.17,65.75 33.11,65.75 33.03,65.75 33.03,65.83 32.95,65.75 32.88,65.75 32.8,65.69 32.73,65.69 32.66,65.61 32.58,65.61 
			32.5,65.61 32.43,65.61 32.36,65.61 32.28,65.61 32.21,65.53 32.13,65.53 32.05,65.53 31.98,65.61 31.91,65.69 31.83,65.69 
			31.76,65.69 31.68,65.69 31.6,65.69 31.54,65.61 31.6,65.61 31.68,65.53 31.76,65.46 31.76,65.38 31.83,65.31 31.83,65.24 
			31.83,65.16 31.91,65.08 31.91,65.01 31.98,64.86 31.98,64.63 31.98,64.57 31.91,64.49 31.91,64.41 31.91,64.34 31.98,64.26 
			31.98,64.19 31.91,64.19 31.91,64.12 31.83,64.12 31.76,64.12 31.68,64.12 31.6,64.12 31.54,64.12 31.54,64.19 31.46,64.19 
			31.38,64.12 31.31,64.12 31.23,64.04 31.16,63.96 31.16,63.89 31.09,63.81 31.09,63.74 31.09,63.67 31.09,63.59 31.09,63.51 
			31.09,63.44 31.16,63.37 31.16,63.29 31.23,63.29 31.23,63.22 31.23,63.14 31.16,63.14 31.16,63.06 31.16,63 31.09,62.92 
			31.09,62.84 31.16,62.84 31.16,62.77 31.23,62.77 31.31,62.77 31.31,62.69 31.38,62.69 31.38,62.62 31.38,62.55 31.31,62.55 
			31.31,62.47 31.23,62.39 31.23,62.32 31.16,62.32 31.16,62.24 31.09,62.17 31.09,62.1 31.09,62.02 31.16,61.94 31.23,61.94 
			31.31,61.94 31.31,61.87 31.38,61.87 31.38,61.8 31.31,61.72 31.31,61.57 31.31,61.49 31.23,61.49 31.23,61.43 31.16,61.43 
			31.16,61.35 31.09,61.27 31.01,61.27 31.01,61.2 31.01,61.12 31.01,61.05 31.01,60.98 30.93,60.98 30.93,60.9 30.93,60.82 
			31.01,60.82 31.01,60.75 30.93,60.75 30.86,60.75 30.79,60.75 30.79,60.67 30.71,60.6 30.64,60.53 30.64,60.37 30.64,60.3 
			30.64,60.23 30.64,60.15 30.64,60 30.56,59.92 30.56,59.86 30.48,59.78 30.41,59.7 30.34,59.63 30.34,59.55 30.26,59.48 
			30.26,59.41 30.19,59.33 30.19,59.25 30.11,59.18 30.03,59.18 30.03,59.03 30.11,59.03 30.11,58.88 30.11,58.8 30.11,58.66 
			30.11,58.58 30.11,58.51 30.11,58.43 30.11,58.35 30.19,58.29 30.19,58.21 30.19,58.13 30.19,58.06 30.19,57.91 30.19,57.84 
			30.11,57.76 30.03,57.68 29.97,57.61 29.89,57.54 29.97,57.46 29.97,57.39 30.03,57.31 30.03,57.23 30.03,57.16 29.97,57.16 
			29.89,57.16 29.89,57.09 29.89,57.01 29.89,56.86 29.89,56.78 29.89,56.72 29.89,56.64 29.81,56.56 29.81,56.49 29.81,56.41 
			29.81,56.34 29.81,56.27 29.81,56.19 29.81,56.11 29.81,56.04 29.81,55.97 29.89,55.89 29.81,55.82 29.81,55.74 29.81,55.66 
			29.81,55.59 29.74,55.44 29.66,55.37 29.59,55.29 29.59,55.21 29.59,55.15 29.52,55.07 29.44,54.99 29.36,54.99 29.36,54.92 
			29.29,54.84 29.29,54.77 29.29,54.7 29.29,54.62 29.36,54.54 29.36,54.47 29.44,54.4 29.52,54.32 29.52,54.25 29.52,54.17 
			29.44,54.17 29.44,54.09 29.36,54.09 29.36,54.02 29.29,53.95 29.29,53.87 29.22,53.87 29.22,53.8 29.22,53.72 29.14,53.72 
			29.14,53.64 29.14,53.58 29.07,53.58 28.99,53.58 28.99,53.5 28.99,53.42 28.99,53.35 28.91,53.27 28.85,53.27 28.77,53.2 
			28.69,53.2 28.69,53.13 28.69,53.05 28.62,53.05 28.62,52.97 28.62,52.9 28.62,52.83 28.54,52.83 28.54,52.75 28.46,52.68 
			28.46,52.6 28.4,52.52 28.4,52.46 28.32,52.46 28.32,52.38 28.4,52.38 28.4,52.3 28.4,52.23 28.4,52.15 28.4,52.07 28.32,52.07 
			28.32,52.01 28.32,51.93 28.32,51.85 28.24,51.78 28.24,51.7 28.17,51.63 28.09,51.63 28.02,51.4 28.02,51.33 28.02,51.26 
			28.02,51.18 28.02,51.11 27.95,51.11 27.95,51.03 28.02,50.95 27.95,50.95 27.95,50.89 27.87,50.89 27.87,50.81 27.95,50.73 
			28.02,50.73 28.02,50.66 28.09,50.66 28.17,50.58 28.24,50.51 28.32,50.51 28.32,50.44 28.32,50.36 28.4,50.36 28.4,50.28 
			28.46,50.36 28.54,50.28 28.62,50.28 28.69,50.28 28.77,50.28 28.85,50.36 28.91,50.36 28.91,50.28 28.99,50.28 29.07,50.28 
			29.14,50.28 29.22,50.28 29.29,50.28 29.29,50.21 29.36,50.21 29.36,50.13 29.36,50.06 29.44,50.06 29.52,50.06 29.59,50.06 
			29.66,50.06 29.74,49.99 29.81,49.99 29.89,49.99 29.97,49.99 29.97,50.06 30.03,50.06 30.11,50.06 30.19,50.06 30.26,50.13 
			30.34,50.13 30.41,50.13 30.48,50.13 30.56,50.13 30.56,50.06 30.56,49.99 30.56,49.91 30.56,49.83 30.56,49.76 30.64,49.69 
			30.71,49.69 30.79,49.69 30.86,49.69 30.93,49.69 31.01,49.69 31.09,49.76 31.16,49.83 31.16,49.91 31.23,49.91 31.23,49.99 
			31.31,50.06 31.38,50.06 31.38,50.13 31.38,50.21 31.46,50.21 31.54,50.21 31.54,50.28 31.6,50.28 31.68,50.28 31.68,50.21 
			31.76,50.21 31.83,50.21 31.91,50.13 31.98,50.06 31.98,49.99 31.98,49.91 31.98,49.83 31.98,49.76 31.98,49.69 31.98,49.61 
			31.91,49.54 31.91,49.46 31.91,49.38 31.91,49.32 31.91,49.24 31.91,49.16 31.83,49.09 31.83,49.01 31.91,49.01 31.91,48.94 
			31.98,48.94 32.05,48.94 32.05,48.87 32.13,48.87 32.13,48.79 32.13,48.71 32.21,48.79 32.28,48.79 32.28,48.71 32.28,48.64 
			32.36,48.64 32.36,48.56 32.28,48.49 32.28,48.42 32.28,48.34 32.21,48.34 32.21,48.26 32.28,48.26 32.36,48.19 32.43,48.19 
			32.5,48.19 32.58,48.19 32.66,48.19 32.73,48.19 32.8,48.19 32.88,48.19 32.95,48.19 33.03,48.19 33.11,48.19 33.17,48.19 
			33.25,48.19 33.33,48.12 33.4,48.12 33.48,48.12 33.48,48.04 33.48,47.97 33.48,47.89 33.48,47.81 33.48,47.75 33.48,47.67 
			33.48,47.59 33.48,47.52 33.55,47.44 33.62,47.37 33.7,47.37 33.7,47.3 33.78,47.22 33.78,47.14 33.78,47.07 33.78,46.99 
			33.85,46.99 33.93,46.99 34,46.99 34.07,46.99 34.07,46.92 34.07,46.85 34.15,46.85 34.15,46.77 34.23,46.69 34.23,46.62 
			34.15,46.62 34.23,46.47 34.15,46.4 34.23,46.4 34.23,46.32 34.15,46.24 34.15,46.18 34.23,46.18 34.23,46.1 34.15,46.02 
			34.07,46.02 34.07,45.95 34.07,45.87 34.15,45.8 34.07,45.65 34.07,45.57 34.07,45.5 34.15,45.5 34.23,45.5 34.3,45.5 34.3,45.42 
			34.37,45.42 34.37,45.35 34.45,45.35 34.52,45.28 34.6,45.28 34.6,45.2 34.68,45.12 34.74,45.12 34.82,45.05 34.9,45.05 
			34.97,44.98 35.05,44.98 35.05,44.9 35.05,44.83 35.05,44.75 34.97,44.67 34.97,44.61 35.05,44.53 35.05,44.45 35.05,44.38 
			35.12,44.3 35.12,44.23 35.19,44.16 35.27,44.16 35.27,44.08 35.27,44 35.27,43.93 35.27,43.86 35.27,43.78 35.35,43.78 
			35.35,43.71 35.35,43.63 35.35,43.55 35.42,43.55 35.42,43.48 35.49,43.48 35.57,43.48 35.57,43.41 35.57,43.33 35.64,43.33 
			35.72,43.33 35.8,43.33 35.87,43.33 35.87,43.26 35.94,43.18 36.02,43.18 36.02,43.1 36.09,43.1 36.17,43.1 36.25,43.1 
			36.31,43.1 36.39,43.1 36.39,43.04 36.39,42.96 36.47,42.96 36.47,42.88 36.54,42.81 36.62,42.73 36.62,42.66 36.69,42.59 
			36.69,42.51 36.76,42.51 36.84,42.43 36.92,42.36 36.92,42.29 36.99,42.29 36.99,42.21 36.99,42.14 36.99,42.06 36.99,41.98 
			36.92,41.98 36.92,41.91 36.99,41.91 37.06,41.84 36.99,41.76 36.99,41.69 36.99,41.61 37.06,41.53 37.06,41.47 37.14,41.47 
			37.14,41.39 37.06,41.31 37.06,41.24 37.14,41.24 37.14,41.16 37.21,41.09 37.21,41.02 37.21,40.94 37.29,40.86 37.37,40.86 
			37.44,40.79 37.51,40.72 37.51,40.64 37.59,40.57 37.66,40.57 37.74,40.49 37.82,40.34 37.82,40.27 37.96,40.27 38.04,40.27 
			38.11,40.27 38.26,40.27 38.33,40.27 38.41,40.27 38.49,40.27 38.56,40.19 38.63,40.12 38.78,40.12 38.86,40.04 38.94,40.12 
			38.94,40.19 39.01,40.27 39.01,40.34 39.01,40.41 39.16,40.41 39.23,40.41 39.31,40.49 39.39,40.49 39.45,40.49 39.53,40.49 
			39.61,40.49 39.68,40.49 39.76,40.41 39.83,40.34 39.9,40.34 39.9,40.27 39.98,40.19 40.06,40.27 40.2,40.19 40.2,40.12 
			40.28,40.12 40.35,40.04 40.51,40.04 40.43,39.96 40.43,39.9 40.43,39.82 40.43,39.74 40.43,39.67 40.43,39.59 40.43,39.52 
			40.35,39.52 40.35,39.45 40.43,39.37 40.43,39.29 40.43,39.22 40.35,39.15 40.35,39.07 40.28,39 40.28,38.92 40.28,38.84 
			40.28,38.78 40.28,38.7 40.35,38.7 40.28,38.62 40.35,38.62 40.35,38.55 40.43,38.47 40.51,38.47 40.57,38.47 40.57,38.39 
			40.57,38.33 40.65,38.25 40.73,38.17 40.73,38.1 40.73,38.02 40.73,37.95 40.73,37.88 40.73,37.8 40.73,37.72 40.8,37.72 
			40.8,37.65 40.8,37.58 40.8,37.5 40.8,37.43 40.8,37.35 40.8,37.27 40.73,37.21 40.8,37.21 40.8,37.13 40.8,36.98 40.88,36.9 
			40.88,36.83 40.96,36.76 41.02,36.76 41.1,36.76 41.18,36.68 41.25,36.76 41.33,36.76 41.4,36.83 41.4,36.76 41.47,36.76 
			41.47,36.68 41.55,36.68 41.63,36.6 41.7,36.6 41.77,36.6 41.77,36.53 41.7,36.45 41.7,36.38 41.7,36.31 41.77,36.23 41.7,36.15 
			41.63,36.08 41.63,36.01 41.63,35.93 41.7,35.93 41.77,35.93 41.85,35.93 41.85,35.86 41.92,35.78 42,35.7 42,35.64 41.92,35.64 
			42,35.56 42.08,35.56 42.08,35.48 42.08,35.41 42,35.33 41.92,35.26 41.92,35.19 41.85,35.11 41.77,35.11 41.7,35.11 41.7,35.03 
			41.63,34.96 41.55,34.96 41.47,35.03 41.4,35.03 41.33,35.03 41.25,35.03 41.18,35.03 41.1,35.03 41.02,34.96 40.96,34.96 
			40.88,34.96 40.8,34.88 40.73,34.88 40.73,34.81 40.8,34.74 40.8,34.66 40.88,34.58 40.88,34.51 40.8,34.44 40.73,34.44 
			40.73,34.36 40.8,34.29 40.73,34.21 40.73,34.13 40.73,34.07 40.73,33.99 40.73,33.91 40.8,33.91 40.8,33.84 40.88,33.84 
			40.88,33.76 40.88,33.69 40.88,33.62 40.96,33.54 41.02,33.54 41.1,33.54 41.1,33.46 41.18,33.46 41.18,33.54 41.25,33.54 
			41.33,33.54 41.4,33.54 41.4,33.46 41.4,33.39 41.47,33.39 41.55,33.39 41.55,33.31 41.63,33.31 41.63,33.24 41.55,33.24 
			41.47,33.17 41.47,33.09 41.4,33.01 41.33,33.01 41.33,32.94 41.25,32.94 41.25,32.87 41.18,32.87 41.18,32.79 41.1,32.79 
			41.02,32.72 40.96,32.72 40.96,32.64 41.02,32.56 40.96,32.5 40.96,32.42 40.96,32.34 40.88,32.34 40.88,32.27 40.88,32.19 
			40.88,32.12 40.8,32.12 40.8,32.05 40.73,32.05 40.73,31.97 40.8,31.97 40.88,31.89 40.96,31.82 40.96,31.75 41.02,31.67 
			41.1,31.67 41.1,31.6 41.02,31.52 41.02,31.44 40.96,31.37 40.96,31.3 41.02,31.22 41.1,31.22 41.18,31.15 41.25,31.15 
			41.33,31.07 41.33,30.99 41.33,30.93 41.33,30.85 41.33,30.77 41.25,30.7 41.25,30.62 41.33,30.62 41.4,30.62 41.4,30.55 
			41.47,30.55 41.47,30.48 41.47,30.4 41.55,30.32 41.63,30.25 41.63,30.1 41.55,30.03 41.55,29.95 41.55,29.87 41.63,29.8 
			41.63,29.73 41.7,29.73 41.77,29.73 41.85,29.65 41.92,29.58 41.92,29.5 42,29.42 42.08,29.42 42.14,29.36 42.14,29.28 
			42.22,29.2 42.3,29.2 42.37,29.2 42.45,29.13 42.53,29.05 42.53,28.98 42.53,28.91 42.53,28.83 42.53,28.75 42.53,28.68 
			42.53,28.61 42.45,28.61 42.45,28.53 42.45,28.46 42.37,28.38 42.37,28.3 42.37,28.23 42.37,28.16 42.37,28.08 42.37,28.01 
			42.45,27.93 42.53,27.93 42.53,27.85 42.53,27.79 42.53,27.71 42.45,27.71 42.45,27.63 42.37,27.63 42.37,27.56 42.3,27.56 
			42.3,27.48 42.3,27.41 42.3,27.34 42.3,27.26 42.22,27.18 42.22,27.11 42.22,27.04 42.14,27.04 42.08,27.04 42.08,26.96 42,26.96 
			42,26.89 42,26.81 42,26.73 42,26.66 41.92,26.66 41.92,26.59 41.92,26.51 41.92,26.44 41.92,26.36 41.92,26.28 41.92,26.22 
			41.85,26.14 41.85,26.06 41.77,26.06 41.77,25.99 41.77,25.91 41.85,25.91 41.85,25.84 41.85,25.77 41.77,25.69 41.77,25.61 
			41.7,25.54 41.7,25.47 41.7,25.39 41.7,25.32 41.7,25.24 41.77,25.16 41.77,25.1 41.77,25.02 41.77,24.94 41.85,24.94 
			41.85,24.87 41.92,24.87 42,24.87 42,24.79 42.08,24.79 42.08,24.71 42.14,24.71 42.22,24.65 42.3,24.65 42.37,24.57 42.53,24.57 
			42.59,24.49 42.67,24.49 42.67,24.42 42.75,24.34 42.82,24.27 42.9,24.2 42.97,24.12 43.04,24.04 43.12,24.04 43.12,23.97 
			43.12,23.9 43.2,23.9 43.2,23.82 43.2,23.75 43.2,23.67 43.12,23.59 43.12,23.53 43.2,23.53 43.27,23.45 43.34,23.37 43.34,23.3 
			43.34,23.22 43.27,23.22 43.27,23.15 43.2,23.15 43.12,23.15 43.12,23.08 43.2,23.08 43.2,23 43.2,22.92 43.2,22.85 43.2,22.77 
			43.12,22.77 43.12,22.7 43.04,22.7 43.04,22.63 43.12,22.55 43.12,22.47 43.12,22.4 43.04,22.4 43.04,22.33 43.04,22.25 
			43.04,22.18 43.04,22.1 42.97,22.02 42.97,21.96 42.9,21.88 42.82,21.88 42.82,21.8 42.82,21.73 42.82,21.65 42.9,21.58 
			42.9,21.51 42.97,21.43 42.97,21.35 43.04,21.28 43.04,21.2 43.12,21.13 43.04,21.06 43.12,21.06 43.12,20.98 43.12,20.9 
			43.12,20.83 43.12,20.76 43.2,20.76 43.2,20.68 43.12,20.68 43.12,20.61 43.12,20.53 43.12,20.45 43.04,20.39 43.04,20.31 
			42.97,20.31 42.97,20.23 42.9,20.23 42.9,20.16 42.82,20.16 42.75,20.08 42.67,20.08 42.67,20.01 42.75,19.94 42.75,19.86 
			42.75,19.78 42.75,19.71 42.82,19.71 42.82,19.63 42.75,19.56 42.67,19.49 42.59,19.41 42.67,19.33 42.67,19.26 42.67,19.19 
			42.67,19.11 42.59,19.11 42.59,19.04 42.67,18.96 42.67,18.88 42.75,18.82 42.82,18.82 42.9,18.82 42.9,18.74 42.97,18.74 
			43.12,18.66 43.2,18.59 43.27,18.59 43.34,18.59 43.34,18.51 43.34,18.44 43.42,18.44 43.42,18.37 43.49,18.37 43.57,18.37 
			43.65,18.37 43.65,18.29 43.71,18.29 43.79,18.29 43.87,18.29 43.87,18.21 43.94,18.21 44.02,18.21 44.16,18.21 44.24,18.21 
			44.32,18.14 44.47,18.14 44.54,18.14 44.61,18.14 44.61,18.07 44.69,17.99 44.77,17.99 44.84,17.92 44.91,17.92 44.99,17.92 
			45.06,17.92 45.14,17.92 45.22,17.92 45.28,17.84 45.28,17.76 45.28,17.69 45.28,17.62 45.36,17.62 45.36,17.54 45.44,17.54 
			45.51,17.47 45.51,17.39 45.59,17.31 45.73,17.25 45.81,17.17 45.81,17.09 45.89,17.02 45.96,16.94 46.04,16.94 46.11,16.94 
			46.11,16.87 46.18,16.8 46.18,16.72 46.26,16.72 46.34,16.72 46.41,16.72 46.41,16.64 46.48,16.64 46.48,16.57 46.48,16.5 
			46.56,16.42 46.63,16.35 46.71,16.19 46.79,16.12 46.79,16.05 46.85,15.9 46.85,15.82 46.93,15.74 46.93,15.68 47.01,15.6 
			47.08,15.52 47.08,15.37 47.16,15.3 47.16,15.23 47.23,15.15 47.3,15.15 47.38,15.07 47.46,15.07 47.53,15 47.53,14.93 
			47.61,14.93 47.61,14.85 47.68,14.93 47.75,15 47.83,15 47.91,14.93 47.98,14.85 48.05,14.85 48.13,14.85 48.2,14.93 48.28,14.93 
			48.36,14.93 48.42,14.93 48.5,14.78 48.58,14.78 48.65,14.85 48.65,14.93 48.65,15 48.73,15 48.87,14.93 48.95,14.93 49.03,14.93 
			49.1,14.93 49.1,14.85 49.1,14.78 49.17,14.7 49.25,14.62 49.32,14.55 49.4,14.55 49.48,14.55 49.48,14.48 49.4,14.48 49.32,14.4 
			49.4,14.33 49.4,14.25 49.32,14.25 49.32,14.17 49.25,14.11 49.32,14.03 49.4,14.03 49.4,13.95 49.4,13.88 49.48,13.8 
			49.48,13.73 49.4,13.66 49.4,13.58 49.4,13.5 49.4,13.43 49.48,13.43 49.55,13.36 49.62,13.28 49.7,13.28 49.7,13.21 49.77,13.13 
			49.85,13.13 49.85,13.05 49.93,13.05 49.93,12.98 49.99,12.91 49.99,12.83 49.99,12.76 50.07,12.68 50.07,12.6 50.15,12.6 
			50.22,12.6 50.22,12.54 50.3,12.38 50.3,12.31 50.3,12.23 50.3,12.16 50.3,12.09 50.3,12.01 50.15,12.01 50.07,11.93 49.99,11.93 
			49.99,11.86 49.99,11.79 49.99,11.64 49.93,11.56 49.93,11.48 49.93,11.42 49.85,11.42 49.77,11.42 49.7,11.34 49.7,11.26 
			49.62,11.26 49.55,11.26 49.48,11.26 49.4,11.26 49.32,11.19 49.32,11.11 49.4,11.03 49.4,10.97 49.4,10.89 49.48,10.81 
			49.48,10.74 49.48,10.66 49.55,10.52 49.55,10.44 49.48,10.36 49.4,10.29 49.4,10.22 49.4,10.14 49.4,10.07 49.48,9.99 
			49.55,9.91 49.55,9.85 49.62,9.77 49.55,9.69 49.55,9.54 49.55,9.47 49.55,9.4 49.55,9.32 49.55,9.24 49.55,9.17 49.62,9.09 
			49.62,9.02 49.62,8.95 49.62,8.87 49.62,8.79 49.62,8.72 49.62,8.65 49.7,8.65 49.7,8.57 49.77,8.57 49.85,8.5 49.85,8.42 
			49.85,8.34 49.85,8.28 49.85,8.2 49.85,8.12 49.85,7.97 49.85,7.9 49.77,7.9 49.77,7.83 49.7,7.75 49.77,7.67 49.77,7.6 
			49.85,7.52 49.85,7.45 49.85,7.38 49.85,7.3 49.85,7.22 49.93,7.15 49.93,7.08 49.99,7 50.07,7 50.15,7 50.22,7 50.3,7 50.3,6.93 
			50.3,6.85 50.37,6.77 50.44,6.71 50.44,6.63 50.37,6.63 50.37,6.55 50.3,6.55 50.3,6.48 50.3,6.4 50.37,6.33 50.37,6.26 
			50.44,6.18 50.44,6.1 50.44,6.03 50.52,5.95 50.6,5.88 50.6,5.81 50.6,5.73 50.67,5.73 50.67,5.65 50.74,5.65 50.74,5.58 
			50.74,5.51 50.74,5.43 50.82,5.43 50.89,5.43 50.89,5.51 51.05,5.51 51.05,5.43 51.05,5.36 51.05,5.28 51.05,5.2 50.97,5.2 
			50.97,5.14 50.97,5.06 50.97,4.98 50.97,4.9 51.05,4.9 51.05,4.83 51.05,4.76 51.12,4.76 51.12,4.68 51.12,4.61 51.05,4.61 
			51.05,4.53 51.05,4.45 51.05,4.39 51.12,4.31 51.12,4.23 51.12,4.16 51.05,4.16 50.97,4.16 50.97,4.08 50.97,4 50.97,3.94 
			51.05,3.94 51.12,3.86 51.12,3.78 51.19,3.78 51.19,3.71 51.19,3.63 51.19,3.56 51.19,3.49 51.12,3.49 51.12,3.41 51.05,3.41 
			51.05,3.33 50.97,3.33 50.97,3.26 50.89,3.26 50.89,3.19 50.82,3.19 50.82,3.11 50.89,3.11 50.97,3.11 51.05,3.11 51.05,3.04 
			51.12,3.04 51.12,2.96 51.12,2.88 51.19,2.82 51.12,2.82 51.12,2.74 51.12,2.66 51.12,2.59 51.05,2.51 50.97,2.51 50.97,2.43 
			50.97,2.37 50.97,2.29 50.89,2.14 50.97,2.06 50.97,1.99 50.97,1.92 50.97,1.84 50.97,1.76 50.97,1.69 50.97,1.62 50.89,1.54 
			50.97,1.47 50.89,1.47 50.89,1.39 50.89,1.31 50.97,1.31 50.89,1.25 50.89,1.17 50.82,1.17 50.74,1.09 50.74,1.02 50.67,1.02 
			50.67,0.94 50.6,0.87 50.52,0.8 50.52,0.72 50.44,0.72 50.44,0.64 50.44,0.57 50.44,0.49 50.44,0.42 50.37,0.35 50.37,0.27 
			50.37,0.19 50.44,0.12 50.44,0.05 50.52,0.05 50.6,0.12 50.67,0.19 50.74,0.27 50.82,0.27 50.89,0.35 50.97,0.42 51.05,0.42 
			51.12,0.42 51.19,0.42 51.19,0.49 51.27,0.57 51.34,0.57 51.42,0.57 51.5,0.49 51.56,0.49 51.56,0.57 51.64,0.57 51.72,0.57 
			51.79,0.57 51.87,0.57 51.87,0.64 51.94,0.64 51.94,0.72 52.01,0.72 52.09,0.72 52.17,0.72 52.24,0.8 52.31,0.8 52.31,0.87 
			52.31,0.94 52.39,0.94 52.46,0.94 52.54,0.94 52.62,1.02 52.62,1.09 52.69,1.09 52.69,1.17 52.76,1.17 52.84,1.17 52.84,1.25 
			52.91,1.25 52.99,1.25 53.07,1.25 53.13,1.31 53.21,1.39 53.13,1.39 53.13,1.47 53.21,1.47 53.21,1.54 53.29,1.54 53.29,1.47 
			53.36,1.47 53.36,1.39 53.44,1.39 53.51,1.39 53.51,1.47 53.58,1.47 53.58,1.39 53.58,1.31 53.66,1.31 53.74,1.31 53.81,1.31 
			53.81,1.25 53.88,1.25 53.88,1.31 53.96,1.39 54.03,1.39 54.11,1.39 54.19,1.39 54.25,1.39 54.33,1.39 54.41,1.47 54.41,1.39 
			54.48,1.39 54.56,1.39 54.64,1.31 54.7,1.31 54.78,1.31 54.86,1.25 54.93,1.25 55.01,1.17 55.08,1.17 55.15,1.17 55.23,1.17 
			55.31,1.17 55.38,1.17 55.38,1.25 55.38,1.31 55.38,1.39 55.38,1.47 55.45,1.47 55.45,1.54 55.53,1.54 55.6,1.62 55.68,1.54 
			55.76,1.54 55.82,1.54 55.82,1.62 55.9,1.62 55.9,1.69 55.82,1.76 55.82,1.84 55.82,1.92 55.82,1.99 55.82,2.06 55.82,2.14 
			55.82,2.21 55.76,2.21 55.76,2.29 55.76,2.37 55.76,2.43 55.76,2.51 55.76,2.59 55.82,2.59 55.82,2.66 55.9,2.66 55.9,2.74 
			55.9,2.82 55.98,2.82 56.05,2.82 56.05,2.88 56.05,2.96 56.13,2.96 56.13,3.04 56.13,3.11 56.21,3.11 56.27,3.11 56.35,3.11 
			56.35,3.19 56.35,3.26 56.35,3.33 56.43,3.33 56.43,3.41 56.43,3.49 56.35,3.49 56.35,3.56 56.43,3.56 56.43,3.63 56.43,3.71 
			56.43,3.78 56.43,3.86 56.43,3.94 56.35,3.94 56.35,4 56.35,4.08 56.27,4.08 56.27,4.16 56.27,4.23 56.21,4.31 56.21,4.39 
			56.13,4.45 56.13,4.53 56.13,4.61 56.05,4.68 56.05,4.76 56.05,4.83 56.05,4.98 56.05,5.06 56.05,5.14 56.13,5.2 56.21,5.2 
			56.21,5.28 56.21,5.36 56.21,5.51 56.21,5.58 56.21,5.65 56.21,5.73 56.21,5.81 56.21,5.88 56.27,5.88 56.27,5.95 56.27,6.03 
			56.27,6.1 56.35,6.18 56.35,6.26 56.35,6.33 56.27,6.33 56.27,6.4 56.27,6.48 56.27,6.55 56.27,6.63 56.27,6.71 56.27,6.77 
			56.27,6.85 56.27,6.93 56.27,7 56.27,7.08 56.21,7.08 56.21,7.15 56.27,7.22 56.27,7.3 56.35,7.3 56.35,7.38 56.35,7.45 
			56.27,7.45 56.27,7.52 56.27,7.6 56.27,7.67 56.35,7.67 56.35,7.75 56.43,7.83 56.5,7.83 56.58,7.9 56.58,7.97 56.58,8.05 
			56.58,8.12 56.5,8.2 56.58,8.2 56.58,8.28 56.58,8.34 56.65,8.42 56.65,8.5 56.72,8.57 56.72,8.65 56.72,8.79 56.8,8.87 
			56.72,8.87 56.72,8.95 56.72,9.02 56.8,9.09 56.88,9.17 56.95,9.24 56.95,9.32 56.95,9.4 56.95,9.47 57.02,9.47 57.02,9.54 
			57.02,9.62 57.02,9.69 57.02,9.77 57.02,9.85 57.1,9.85 57.1,9.91 57.17,9.99 57.33,10.29 57.33,10.36 57.33,10.44 57.33,10.52 
			57.25,10.59 57.25,10.66 57.25,10.74 57.17,10.81 57.25,10.81 57.33,10.81 57.39,10.89 57.47,10.97 57.47,11.03 57.55,11.11 
			57.62,11.19 57.7,11.26 57.77,11.34 57.77,11.42 57.77,11.48 57.84,11.56 57.84,11.64 57.84,11.71 57.84,11.79 57.84,11.93 
			57.92,11.93 57.92,12.01 58,12.01 58,12.09 58.07,12.09 58.29,12.23 58.37,12.23 58.37,12.31 58.45,12.31 58.52,12.31 
			58.52,12.38 58.52,12.46 58.59,12.54 58.59,12.6 58.52,12.6 58.52,12.68 58.52,12.76 58.52,12.83 58.52,12.91 58.52,12.98 
			58.52,13.05 58.52,13.13 58.59,13.13 58.59,13.21 58.59,13.28 58.67,13.28 58.67,13.36 58.67,13.43 58.67,13.5 58.67,13.58 
			58.67,13.66 58.74,13.66 58.74,13.73 58.74,13.8 58.74,13.88 58.74,13.95 58.82,13.95 58.82,14.03 58.82,14.11 58.74,14.11 
			58.74,14.17 58.74,14.25 58.74,14.33 58.82,14.33 58.82,14.4 58.82,14.48 58.82,14.55 58.9,14.62 58.96,14.7 58.96,14.78 
			58.96,14.85 59.04,14.85 59.12,14.85 59.19,14.85 59.19,14.93 59.19,15.07 59.19,15.15 59.19,15.23 59.12,15.23 59.12,15.3 
			59.19,15.37 59.19,15.45 59.27,15.45 59.34,15.52 59.41,15.52 59.49,15.52 59.49,15.6 59.49,15.68 59.49,15.74 59.57,15.74 
			59.64,15.74 59.72,15.74 59.79,15.74 59.86,15.82 59.94,15.82 60.02,15.82 60.02,15.9 60.09,15.9 60.16,15.82 60.24,15.74 
			60.31,15.74 60.39,15.74 60.47,15.68 60.53,15.68 60.61,15.68 60.69,15.68 60.76,15.68 60.84,15.68 60.84,15.6 60.91,15.6 
			60.91,15.52 60.98,15.52 61.06,15.52 61.14,15.52 61.14,15.6 61.14,15.68 61.14,15.74 61.14,15.82 61.14,15.9 61.14,15.97 
			61.14,16.05 61.14,16.12 61.14,16.19 61.14,16.27 61.21,16.27 61.21,16.35 61.29,16.35 61.36,16.35 61.36,16.42 61.43,16.42 
			61.51,16.42 61.59,16.42 61.66,16.42 61.66,16.5 61.59,16.5 61.59,16.57 61.59,16.64 61.51,16.72 61.51,16.8 61.51,16.87 
			61.59,16.87 61.59,16.94 61.66,16.94 61.73,17.02 61.73,17.09 61.73,17.17 61.66,17.17 61.66,17.25 61.66,17.31 61.66,17.39 
			61.66,17.47 61.66,17.54 61.59,17.54 61.51,17.62 61.51,17.69 61.51,17.76 61.59,17.84 61.66,17.92 61.73,17.92 61.73,17.99 
			61.81,17.99 61.81,18.07 61.88,18.14 61.88,18.21 61.96,18.21 61.96,18.14 62.04,18.07 62.11,18.07 62.18,18.07 62.26,18.07 
			62.34,18.07 62.41,18.07 62.48,18.07 62.56,18.07 62.63,18.14 62.71,18.21 62.79,18.21 62.85,18.21 62.93,18.21 63.01,18.29 
			63.08,18.29 63.16,18.29 63.24,18.37 63.3,18.37 63.38,18.37 63.38,18.29 63.46,18.21 63.53,18.21 63.61,18.21 63.68,18.21 
			63.75,18.21 63.75,18.29 63.75,18.37 63.75,18.44 63.83,18.44 63.83,18.51 63.91,18.51 63.91,18.59 63.98,18.59 63.98,18.66 
			63.98,18.74 64.05,18.74 64.05,18.66 64.13,18.66 64.2,18.66 64.28,18.74 64.36,18.74 64.42,18.74 64.5,18.82 64.58,18.82 
			64.58,18.88 64.65,18.88 64.65,18.96 64.73,18.96 64.8,18.88 64.8,18.82 64.87,18.74 64.95,18.74 65.03,18.88 65.03,18.96 
			65.1,18.96 65.18,18.96 65.25,19.04 65.32,19.04 65.4,19.04 65.4,19.11 65.48,19.11 65.55,19.11 65.55,19.19 65.62,19.26 
			65.62,19.33 65.7,19.41 65.7,19.49 65.77,19.49 65.85,19.49 65.85,19.56 65.85,19.63 65.93,19.71 65.99,19.78 65.99,19.86 
			66.07,19.86 66.07,19.94 66.15,19.94 66.15,20.01 66.15,20.08 66.15,20.16 66.15,20.23 66.22,20.31 66.22,20.39 66.3,20.45 
			66.3,20.53 66.3,20.61 66.3,20.68 66.37,20.68 66.44,20.68 66.44,20.76 66.52,20.76 66.6,20.76 66.6,20.83 66.67,20.9 
			66.67,20.98 66.75,21.06 66.82,21.06 66.89,21.13 66.97,21.2 67.05,21.28 67.12,21.28 67.12,21.35 67.19,21.35 67.27,21.35 
			67.27,21.43 67.34,21.43 67.34,21.51 67.42,21.58 67.5,21.58 67.5,21.65 67.56,21.65 67.56,21.73 67.64,21.73 67.72,21.73 
			67.72,21.65 67.79,21.65 67.87,21.73 67.87,21.8 67.94,21.8 67.94,21.88 68.01,21.88 68.01,21.96 68.09,21.96 68.17,21.96 
			68.17,22.02 68.24,22.02 68.24,22.1 68.32,22.1 68.32,22.18 68.39,22.18 68.46,22.25 68.46,22.33 68.54,22.33 68.54,22.25 
			68.62,22.25 68.69,22.18 68.76,22.18 68.76,22.25 68.84,22.25 68.91,22.33 68.99,22.33 69.07,22.33 69.07,22.4 69.07,22.47 
			69.13,22.55 69.21,22.63 69.29,22.63 69.29,22.7 69.36,22.7 69.44,22.7 69.51,22.7 69.58,22.7 69.58,22.63 69.66,22.63 
			69.66,22.55 69.74,22.55 69.81,22.55 69.81,22.47 69.88,22.47 69.96,22.4 70.03,22.4 70.03,22.47 70.11,22.47 70.11,22.55 
			70.19,22.63 70.19,22.7 70.19,22.77 70.19,22.85 70.26,22.85 70.26,22.92 70.33,22.92 70.41,23 70.41,23.08 70.48,23.15 
			70.56,23.15 70.64,23.15 70.7,23.15 70.78,23.15 70.78,23.22 70.86,23.22 70.86,23.3 70.93,23.3 71.01,23.37 71.08,23.37 
			71.15,23.45 71.15,23.53 71.23,23.53 71.23,23.59 71.23,23.67 71.23,23.75 71.31,23.75 71.31,23.82 71.31,23.9 71.38,23.97 
			71.45,23.97 71.53,23.97 71.53,24.04 71.53,24.12 71.53,24.2 71.53,24.27 71.53,24.34 71.45,24.42 71.45,24.49 71.45,24.57 
			71.38,24.57 71.38,24.65 71.45,24.65 71.45,24.71 71.45,24.79 71.45,24.87 71.38,24.94 71.38,25.02 71.31,25.02 71.31,25.1 
			71.23,25.16 71.23,25.24 71.23,25.32 71.15,25.32 71.15,25.39 71.15,25.47 71.23,25.47 71.23,25.54 71.31,25.54 71.38,25.54 
			71.38,25.61 71.38,25.69 71.38,25.77 71.38,25.84 71.38,25.91 71.38,25.99 71.38,26.06 71.38,26.14 71.45,26.14 71.53,26.14 
			71.53,26.06 71.6,26.06 71.68,26.06 71.68,25.99 71.68,25.91 71.76,25.91 71.83,25.91 71.83,25.84 71.9,25.84 71.98,25.84 
			71.98,25.77 72.05,25.77 72.13,25.77 72.13,25.69 72.13,25.61 72.21,25.61 72.27,25.61 72.27,25.69 72.35,25.69 72.35,25.77 
			72.43,25.84 72.5,25.84 72.5,25.91 72.58,25.91 72.65,25.91 72.65,25.99 72.65,26.06 72.65,26.14 72.72,26.22 72.8,26.22 
			72.8,26.28 72.88,26.28 72.88,26.22 72.95,26.22 73.02,26.22 73.02,26.28 73.1,26.28 73.1,26.36 73.17,26.36 73.17,26.44 
			73.25,26.44 73.25,26.51 73.33,26.51 73.33,26.44 73.4,26.44 73.4,26.51 73.4,26.59 73.4,26.66 73.47,26.66 73.47,26.73 
			73.4,26.81 73.4,26.89 73.47,26.89 73.55,26.89 73.55,26.96 73.62,26.96 73.62,26.89 73.7,26.89 73.7,26.96 73.7,27.04 
			73.78,27.04 73.78,27.11 73.78,27.18 73.78,27.26 73.84,27.26 73.84,27.34 73.84,27.41 73.84,27.48 73.84,27.56 73.78,27.56 
			73.78,27.63 73.7,27.63 73.7,27.71 73.62,27.71 73.55,27.71 73.55,27.79 73.47,27.79 73.47,27.85 73.4,27.85 73.4,27.93 
			73.4,28.01 73.47,28.01 73.4,28.08 73.4,28.16 73.47,28.16 73.47,28.23 73.4,28.23 73.4,28.3 73.4,28.38 73.4,28.46 73.33,28.46 
			73.25,28.46 73.17,28.46 73.17,28.53 73.1,28.53 73.1,28.61 73.17,28.61 73.17,28.68 73.1,28.68 73.02,28.75 72.95,28.75 
			72.95,28.83 72.88,28.83 72.88,28.91 72.8,28.98 72.88,29.05 72.88,29.13 72.88,29.2 72.88,29.28 72.88,29.36 72.88,29.5 
			72.88,29.58 72.8,29.58 72.8,29.65 72.72,29.73 72.72,29.8 72.72,29.87 72.65,29.87 72.65,29.95 72.72,29.95 72.72,30.03 
			72.72,30.1 72.8,30.18 72.88,30.18 72.88,30.25 72.88,30.32 72.88,30.4 72.88,30.48 72.8,30.55 72.88,30.55 72.88,30.62 
			72.95,30.7 72.95,30.77 72.95,30.85 72.95,30.93 72.95,30.99 73.02,31.07 73.1,31.07 73.17,31.07 73.17,31.15 73.1,31.22 
			73.17,31.3 73.17,31.37 73.17,31.44 73.17,31.52 73.17,31.6 73.1,31.67 73.1,31.6 73.02,31.6 73.02,31.67 73.02,31.75 
			73.02,31.82 73.02,31.89 73.02,31.97 73.1,31.97 73.17,31.97 73.17,32.05 73.17,32.12 73.25,32.12 73.17,32.19 73.17,32.27 
			73.25,32.27 73.25,32.34 73.25,32.42 73.25,32.5 73.25,32.56 73.17,32.56 73.17,32.64 73.17,32.72 73.1,32.72 73.02,32.79 
			73.02,32.87 73.02,32.94 73.1,33.01 73.1,33.09 73.1,33.17 73.1,33.24 73.1,33.31 73.02,33.31 73.02,33.39 72.95,33.39 
			72.95,33.46 72.95,33.54 72.95,33.62 72.95,33.69 72.95,33.76 72.95,33.84 72.88,33.84 72.88,33.91 72.88,33.99 72.88,34.07 
			72.88,34.13 72.8,34.21 72.8,34.29 72.8,34.36 72.88,34.36 72.88,34.44 72.95,34.44 72.95,34.51 73.02,34.58 73.1,34.58 
			73.1,34.66 73.02,34.66 73.1,34.74 73.1,34.81 73.1,34.88 73.17,34.88 73.17,34.96 73.25,34.96 73.33,35.03 73.33,35.11 
			73.4,35.11 73.47,35.11 73.47,35.19 73.55,35.19 73.55,35.26 73.62,35.26 73.62,35.33 73.62,35.41 73.7,35.48 73.7,35.56 
			73.62,35.56 73.62,35.64 73.55,35.64 73.55,35.7 73.47,35.78 73.47,35.86 73.4,35.86 73.4,35.93 73.33,35.93 73.25,35.93 
			73.25,36.01 73.25,36.08 73.33,36.08 73.33,36.15 73.33,36.23 73.25,36.23 73.25,36.31 73.33,36.38 73.33,36.45 73.33,36.53 
			73.33,36.6 73.25,36.6 73.25,36.68 73.17,36.68 73.17,36.76 73.1,36.83 73.1,36.9 73.1,36.98 73.17,36.98 73.17,37.05 73.1,37.05 
			73.1,37.13 73.17,37.13 73.17,37.21 73.17,37.27 73.1,37.35 73.02,37.35 73.02,37.27 72.95,37.27 72.95,37.21 72.88,37.21 
			72.88,37.13 72.8,37.13 72.8,37.05 72.72,37.05 72.72,36.98 72.65,36.9 72.58,36.9 72.58,36.83 72.5,36.83 72.43,36.76 
			72.35,36.83 72.27,36.83 72.27,36.9 72.21,36.98 72.13,37.05 72.05,37.05 72.05,37.13 71.98,37.21 71.9,37.21 71.9,37.27 
			71.83,37.27 71.76,37.27 71.68,37.27 71.6,37.27 71.53,37.21 71.45,37.27 71.38,37.27 71.31,37.27 71.23,37.27 71.23,37.35 
			71.15,37.35 71.08,37.35 71.08,37.43 71.01,37.43 71.01,37.5 71.01,37.58 71.01,37.65 71.01,37.72 71.01,37.8 70.93,37.8 
			70.93,37.88 70.93,37.95 70.93,38.02 70.86,38.02 70.86,38.1 70.86,38.17 70.86,38.25 70.93,38.25 70.93,38.33 70.86,38.33 
			70.86,38.39 70.78,38.39 70.86,38.47 70.78,38.55 70.7,38.55 70.7,38.62 70.78,38.7 70.86,38.7 70.93,38.78 71.01,38.78 
			71.08,38.78 71.08,38.84 71.01,38.84 71.01,38.92 71.01,39 71.01,39.07 71.01,39.15 71.01,39.22 71.01,39.29 70.93,39.29 
			70.93,39.37 70.86,39.37 70.86,39.45 70.78,39.52 70.86,39.59 70.78,39.59 70.78,39.67 70.78,39.74 70.78,39.82 70.78,39.9 
			70.78,39.96 70.78,40.04 70.78,40.12 70.7,40.12 70.7,40.19 70.64,40.19 70.64,40.27 70.56,40.27 70.56,40.34 70.48,40.34 
			70.48,40.41 70.48,40.49 70.41,40.49 70.33,40.57 70.33,40.64 70.33,40.72 70.26,40.72 70.26,40.79 70.19,40.94 70.11,41.02 
			70.11,41.09 70.03,41.09 70.03,41.16 70.03,41.24 69.96,41.24 69.96,41.31 69.88,41.31 69.81,41.31 69.74,41.31 69.74,41.39 
			69.81,41.39 69.88,41.47 69.88,41.53 69.88,41.61 69.81,41.69 69.81,41.84 69.74,41.98 69.66,42.06 69.66,42.14 69.66,42.21 
			69.58,42.21 69.58,42.29 69.51,42.29 69.44,42.29 69.36,42.29 69.29,42.29 69.21,42.29 69.21,42.36 69.13,42.36 69.13,42.29 
			69.07,42.29 68.99,42.29 68.91,42.29 68.91,42.36 68.99,42.36 69.07,42.36 69.07,42.43 69.13,42.43 69.13,42.51 69.21,42.51 
			69.21,42.59 69.29,42.66 69.29,42.73 69.29,42.81 69.21,42.81 69.21,42.88 69.21,42.96 69.13,42.96 69.13,43.04 69.13,43.1 
			69.07,43.18 69.07,43.26 68.99,43.33 68.99,43.48 68.99,43.55 68.91,43.55 68.91,43.63 68.91,43.71 68.99,43.71 68.99,43.78 
			68.99,43.86 68.91,43.93 68.84,43.93 68.84,44 68.84,44.08 68.76,44.16 68.76,44.23 68.69,44.23 68.62,44.16 68.54,44.23 
			68.54,44.3 68.46,44.3 68.39,44.3 68.32,44.38 68.32,44.45 68.24,44.53 68.24,44.61 68.24,44.67 68.17,44.67 68.09,44.67 
			68.01,44.67 67.94,44.67 67.87,44.67 67.79,44.67 67.72,44.67 67.64,44.67 67.56,44.67 67.56,44.61 67.5,44.61 67.42,44.61 
			67.34,44.61 67.42,44.67 67.5,44.75 67.5,44.83 67.42,44.83 67.42,44.9 67.42,44.98 67.42,45.05 67.34,45.05 67.27,45.05 
			67.19,45.05 67.12,45.05 67.05,45.05 67.05,45.12 67.05,45.2 66.97,45.28 66.89,45.28 66.89,45.35 66.89,45.42 66.82,45.57 
			66.75,45.65 66.75,45.73 66.67,45.87 66.67,45.95 66.67,46.02 66.67,46.1 66.67,46.18 66.75,46.24 66.67,46.24 66.6,46.32 
			66.52,46.24 66.44,46.24 66.44,46.32 66.3,46.32 66.22,46.4 66.22,46.47 66.22,46.62 66.22,46.69 66.15,46.69 66.22,46.77 
			66.22,46.85 66.22,46.92 66.22,46.99 66.15,46.99 66.15,47.07 66.07,47.14 66.07,47.22 66.15,47.3 66.15,47.37 66.07,47.44 
			66.07,47.52 66.07,47.59 65.99,47.59 65.93,47.67 65.93,47.75 65.85,47.81 65.85,47.89 65.77,47.97 65.77,48.04 65.7,48.12 
			65.7,48.19 65.62,48.19 65.55,48.19 65.55,48.26 65.55,48.34 65.48,48.34 65.48,48.42 65.48,48.49 65.4,48.56 65.4,48.64 
			65.4,48.71 65.32,48.79 65.32,48.87 65.25,48.94 65.18,49.01 65.18,49.09 65.18,49.16 65.1,49.16 65.1,49.24 65.1,49.32 
			65.03,49.32 65.03,49.38 64.95,49.38 64.95,49.46 64.95,49.54 64.87,49.54 64.8,49.54 64.73,49.54 64.65,49.54 64.58,49.61 
			64.5,49.54 64.42,49.54 64.36,49.54 64.28,49.54 64.2,49.46 64.13,49.46 64.05,49.46 63.98,49.46 63.91,49.46 63.91,49.54 
			63.83,49.54 63.83,49.46 63.75,49.46 63.75,49.54 63.68,49.54 63.61,49.61 63.53,49.61 63.46,49.61 63.38,49.61 63.3,49.61 
			63.24,49.61 63.16,49.61 63.08,49.54 63.01,49.46 62.93,49.46 62.93,49.38 62.85,49.38 62.85,49.46 62.79,49.46 62.79,49.54 
			62.79,49.61 62.85,49.69 62.85,49.76 62.85,49.83 62.79,49.83 62.79,49.91 62.79,49.99 62.71,50.06 62.71,50.21 62.63,50.28 
			62.56,50.36 62.48,50.36 62.56,50.44 62.56,50.51 62.56,50.58 62.56,50.66 62.48,50.66 62.41,50.66 62.34,50.58 62.26,50.66 
			62.26,50.73 62.26,50.81 62.18,50.89 62.18,50.95 62.11,51.03 62.11,51.11 62.04,51.11 62.04,51.18 61.96,51.18 61.96,51.26 
			61.88,51.33 61.81,51.4 61.81,51.48 61.73,51.48 61.66,51.4 61.59,51.4 61.51,51.4 61.43,51.4 61.36,51.4 61.29,51.4 61.29,51.48 
			61.29,51.56 61.21,51.56 61.14,51.56 61.14,51.63 61.06,51.7 60.98,51.78 60.98,51.85 60.91,51.85 60.91,51.93 60.84,51.93 
			60.84,52.01 60.76,52.01 60.76,52.07 60.69,52.07 60.69,52.15 60.69,52.23 60.61,52.23 60.61,52.3 60.53,52.38 60.47,52.46 
			60.47,52.52 60.47,52.6 60.47,52.68 60.47,52.75 60.47,52.83 60.47,52.9 60.47,52.97 60.39,52.97 60.39,53.05 60.39,53.13 
			60.31,53.13 60.31,53.2 60.24,53.2 60.16,53.27 60.09,53.35 60.02,53.42 60.02,53.5 60.02,53.58 59.94,53.58 59.94,53.64 
			59.94,53.72 59.86,53.72 59.86,53.8 59.79,53.8 59.79,53.87 59.79,53.95 59.72,54.02 59.72,54.09 59.64,54.09 59.57,54.17 
			59.57,54.25 59.49,54.32 59.41,54.4 59.41,54.47 59.34,54.47 59.34,54.54 59.34,54.62 59.27,54.62 59.27,54.77 59.12,54.92 
			59.04,54.99 58.9,55.15 58.82,55.21 58.82,55.29 58.74,55.37 58.67,55.44 58.59,55.59 58.52,55.66 58.52,55.74 58.59,55.74 
			58.59,55.82 58.59,55.89 58.59,55.97 58.52,56.11 58.59,56.19 58.82,56.34 58.82,56.41 58.82,56.49 58.74,56.49 58.67,56.49 
			58.59,56.49 58.52,56.56 58.52,56.64 58.45,56.72 58.37,56.72 58.29,56.94 58.22,57.01 58.15,57.01 58.07,57.01 58,57.01 
			57.92,57.01 57.92,57.09 57.84,57.16 57.84,57.23 57.84,57.31 57.77,57.39 57.77,57.46 57.77,57.54 57.77,57.61 57.7,57.68 
			57.7,57.76 57.62,57.84 57.55,57.91 57.47,57.98 57.39,58.06 57.39,58.13 57.39,58.21 57.33,58.29 57.33,58.35 57.25,58.43 
			57.25,58.51 57.17,58.58 57.17,58.66 57.17,58.73 57.1,58.73 57.02,58.73 57.02,58.66 56.95,58.66 56.88,58.66 56.88,58.73 
			56.8,58.73 56.8,58.8 56.72,58.8 56.65,58.8 56.65,58.73 56.58,58.73 56.5,58.73 56.43,58.73 56.43,58.8 56.35,58.8 56.35,58.88 
			56.27,58.88 56.21,58.88 56.13,58.88 56.05,58.88 55.98,58.96 55.9,58.96 55.9,59.03 55.9,59.1 55.9,59.18 55.98,59.25 
			55.98,59.33 55.98,59.41 55.9,59.41 55.82,59.48 55.76,59.48 55.68,59.48 55.68,59.55 55.6,59.55 55.6,59.63 55.6,59.7 
			55.53,59.78 55.45,59.86 55.38,59.86 55.31,59.86 55.23,59.86 55.15,59.86 55.08,59.92 55.08,60 55.01,60 54.93,60 54.86,60 
			54.78,60 54.7,60 54.64,60.08 54.56,60.08 54.48,60 54.48,59.92 54.41,59.86 54.41,59.78 54.41,59.7 54.41,59.63 54.33,59.63 
			54.25,59.55 54.25,59.48 54.25,59.41 54.25,59.33 54.19,59.33 54.11,59.33 54.11,59.41 54.03,59.41 53.96,59.41 53.88,59.41 
			53.81,59.33 53.74,59.33 53.74,59.25 53.66,59.18 53.58,59.1 53.51,59.1 53.44,59.1 53.29,59.18 53.21,59.25 53.21,59.33 
			53.13,59.41 53.13,59.48 53.07,59.55 52.99,59.55 52.99,59.63 52.91,59.7 52.84,59.7 52.76,59.7 52.69,59.7 52.62,59.7 
			52.62,59.63 52.54,59.7 52.46,59.7 52.46,59.78 52.39,59.86 52.31,59.92 52.31,60 52.24,60 52.17,60.08 52.09,60.15 52.01,60.15 
			51.94,60.15 51.87,60.15 51.79,60.23 51.72,60.23 51.64,60.23 51.56,60.23 51.56,60.3 51.5,60.3 51.5,60.37 51.56,60.45 
			51.56,60.53 51.64,60.6 51.72,60.67 51.72,60.75 51.64,60.75 51.64,60.82 51.72,60.9 51.79,60.98 51.79,61.05 51.79,61.12 
			51.79,61.2 51.79,61.27 51.87,61.27 51.94,61.35 51.94,61.43 51.87,61.43 51.87,61.49 51.79,61.49 51.72,61.49 51.72,61.57 
			51.64,61.57 51.56,61.65 51.5,61.65 51.5,61.72 51.42,61.72 51.34,61.8 51.27,61.87 51.19,61.94 51.19,62.02 51.12,62.02 
			51.05,62.02 51.05,62.1 50.97,62.02 50.97,62.1 50.89,62.1 50.82,62.1 50.82,62.17 50.74,62.17 50.67,62.17 50.67,62.24 
			50.6,62.24 50.6,62.32 50.6,62.39 50.52,62.39 50.52,62.47 50.52,62.55 50.52,62.62 50.52,62.69 50.52,62.77 50.52,62.84 
			50.44,62.92 50.44,63 50.37,63 50.3,63 50.22,63.06 50.15,63.06 50.07,63.06 49.99,63.06 49.99,63 49.93,63 49.93,63.06 
			49.85,63.06 49.77,63.06 49.77,63.14 49.7,63.22 49.7,63.29 49.62,63.29 49.62,63.37 49.62,63.44 49.55,63.44 49.55,63.51 
			49.48,63.51 49.4,63.51 49.32,63.51 49.25,63.51 49.17,63.59 49.1,63.59 49.03,63.67 48.95,63.67 48.95,63.74 48.87,63.74 
			48.87,63.89 48.87,63.96 48.8,63.96 48.73,63.96 48.73,64.04 48.73,64.12 48.65,64.12 48.58,64.12 48.58,64.19 48.58,64.26 
			48.5,64.26 48.42,64.34 48.36,64.34 48.36,64.26 48.28,64.26 48.28,64.34 48.2,64.34 48.2,64.41 48.2,64.49 48.13,64.49 
			48.05,64.57 48.05,64.63 47.98,64.63 47.98,64.79 47.91,64.86 47.91,64.94 47.91,65.01 47.83,65.01 47.83,65.08 47.75,65.08 
			47.68,65.08 47.68,65.16 47.61,65.16 47.61,65.24 47.53,65.24 47.46,65.24 47.46,65.31 47.38,65.31 47.3,65.31 47.3,65.38 
			47.3,65.46 47.3,65.53 47.3,65.61 47.3,65.69 47.23,65.69 47.23,65.75 47.16,65.83 47.16,65.91 47.16,65.98 47.08,66.06 
			47.01,66.14 47.08,66.2 47.08,66.28 47.01,66.28 47.01,66.36 47.01,66.43 46.93,66.43 46.93,66.51 46.85,66.51 46.79,66.51 
			46.71,66.51 46.71,66.58 46.71,66.65 46.63,66.73 46.56,66.81 46.48,66.81 46.48,66.88 46.41,66.88 46.41,66.95 46.34,66.95 
			46.26,66.95 46.18,67.03 46.11,67.03 46.11,67.1 46.04,67.1 45.96,67.18 45.96,67.26 45.96,67.32 45.96,67.4 45.89,67.48 
			45.89,67.55 45.81,67.55 45.73,67.55 45.66,67.55 45.66,67.63 45.66,67.7 45.59,67.77 45.51,67.77 45.44,67.77 45.36,67.77 
			45.36,67.85 45.28,67.85 45.28,67.93 45.22,67.93 45.14,68 45.06,68 45.06,68.08 45.06,68.15 44.99,68.22 44.99,68.3 44.91,68.3 
			44.84,68.3 44.77,68.3 44.77,68.38 44.69,68.38 44.77,68.45 44.69,68.52 44.69,68.6 44.69,68.67 44.61,68.67 44.54,68.67 
			44.54,68.75 44.54,68.83 44.54,68.89 44.54,68.97 44.47,68.97 44.47,69.05 44.39,69.12 44.39,69.2 44.39,69.27 44.39,69.34 
			44.32,69.42 44.32,69.5 44.24,69.5 44.24,69.57 44.16,69.57 44.09,69.57 44.02,69.57 43.94,69.57 43.94,69.65 43.94,69.72 
			43.87,69.79 43.79,69.79 43.71,69.87 43.65,69.87 43.57,69.87 43.57,69.95 43.49,69.95 43.57,70.02 43.57,70.09 43.57,70.17 
			43.57,70.32 43.49,70.4 43.34,70.62 43.34,70.69 43.27,70.77 43.27,70.84 43.27,70.91 43.27,70.99 43.2,70.99 43.2,71.07 
			43.12,71.07 43.12,71.14 43.04,71.14 42.97,71.22 42.97,71.29 42.9,71.29 42.9,71.36 42.82,71.36 42.82,71.44 42.75,71.44 
			42.67,71.44 42.59,71.52 42.53,71.52 42.53,71.59 42.53,71.66 42.45,71.66 42.67,71.81 42.75,71.97 42.97,72.11 43.12,72.34 
			43.12,72.41 43.2,72.49 43.12,72.56 42.97,72.72 42.97,72.94 43.04,73.01 43.2,73.17 43.42,73.23 43.71,73.31 43.87,73.54 
			44.16,73.91 44.24,74.06 44.24,74.21 44.39,74.43 44.47,74.51 44.47,74.58 44.54,74.66 44.61,74.66 44.69,74.58 44.69,74.51 
			44.77,74.51 44.84,74.43 44.91,74.43 44.99,74.43 45.06,74.43 45.06,74.51 45.14,74.51 45.14,74.58 45.22,74.58 45.28,74.58 
			45.36,74.58 45.44,74.58 45.51,74.58 45.59,74.58 45.59,74.66 45.66,74.66 45.66,74.58 45.73,74.51 45.81,74.51 45.89,74.51 
			45.96,74.51 45.96,74.43 46.04,74.43 46.11,74.35 46.11,74.29 46.18,74.21 46.18,74.13 46.18,74.06 46.26,74.06 46.26,73.98 
			46.26,73.91 46.18,73.91 46.18,73.84 46.18,73.76 46.18,73.68 46.26,73.68 46.34,73.68 46.34,73.61 46.34,73.54 46.41,73.54 
			46.41,73.46 46.48,73.46 46.48,73.39 46.48,73.31 46.56,73.31 46.63,73.31 46.63,73.23 46.71,73.23 46.79,73.23 46.85,73.23 
			46.85,73.31 46.93,73.39 46.93,73.46 46.93,73.54 46.93,73.61 47.01,73.61 47.01,73.68 47.01,73.76 47.08,73.76 47.08,73.84 
			47.08,73.91 47.01,73.98 47.01,74.06 47.01,74.13 46.93,74.13 46.93,74.21 46.93,74.29 46.93,74.35 46.93,74.43 46.93,74.51 
			46.93,74.58 46.93,74.66 46.93,74.74 46.93,74.8 47.01,74.88 47.01,74.96 47.01,75.03 46.93,75.03 46.93,75.11 46.85,75.11 
			46.85,75.18 46.79,75.25 46.79,75.33 46.79,75.41 46.85,75.41 46.85,75.48 46.85,75.55 46.93,75.63 46.93,75.7 47.01,75.7 
			47.01,75.78 47.01,75.86 47.01,75.92 47.01,76 46.93,76 46.93,76.08 46.85,76.08 46.85,76.15 46.79,76.23 46.79,76.3 46.79,76.37 
			46.71,76.45 46.63,76.53 46.63,76.6 46.56,76.6 46.48,76.6 46.48,76.68 46.41,76.68 46.34,76.75 46.26,76.75 46.26,76.82 
			46.18,76.82 46.11,76.9 46.04,76.9 45.96,76.9 45.96,76.98 45.96,77.05 45.89,77.12 45.89,77.2 45.89,77.27 45.81,77.35 
			45.81,77.43 45.81,77.49 45.89,77.49 45.89,77.57 45.89,77.65 45.89,77.72 45.89,77.8 45.89,77.87 45.96,77.94 45.89,78.02 
			45.89,78.1 45.81,78.17 45.81,78.25 45.81,78.32 45.81,78.39 45.81,78.47 45.89,78.47 45.89,78.55 45.96,78.55 45.96,78.62 
			45.96,78.69 45.96,78.77 46.04,78.77 46.04,78.84 46.11,78.84 46.11,78.92 46.11,79 46.04,79 46.11,79.06 46.04,79.06 
			46.04,79.14 46.04,79.22 46.11,79.29 46.11,79.37 46.04,79.37 45.96,79.37 45.96,79.29 45.89,79.29 45.81,79.29 45.81,79.22 
			45.73,79.22 45.73,79.14 45.66,79.14 45.66,79.06 45.66,79 45.59,78.92 45.59,78.84 45.51,78.84 45.36,78.84 45.28,78.84 
			45.22,78.84 45.14,78.84 44.99,78.84 44.91,78.84 44.91,78.92 44.84,78.92 44.84,79 44.77,79 44.77,79.06 44.77,79.14 
			44.77,79.22 44.69,79.22 44.69,79.29 44.61,79.29 44.61,79.37 44.61,79.44 44.69,79.51 44.77,79.59 44.77,79.67 44.69,79.67 
			44.69,79.74 44.69,79.82 44.61,79.89 44.54,79.89 44.54,79.96 44.47,80.04 44.47,80.12 44.47,80.19 44.54,80.19 44.54,80.26 
			44.47,80.26 44.47,80.34 44.39,80.34 44.39,80.41 44.47,80.49 44.47,80.57 44.54,80.57 44.61,80.57 44.61,80.63 44.69,80.63 
			44.77,80.63 44.84,80.63 44.91,80.63 44.99,80.63 45.06,80.63 45.14,80.63 45.14,80.71 45.14,80.79 45.22,80.79 45.28,80.79 
			45.28,80.86 45.36,80.86 45.36,80.94 45.28,81.01 45.28,81.08 45.22,81.16 45.22,81.24 45.22,81.31 45.14,81.31 45.14,81.38 
			45.14,81.46 45.14,81.53 45.22,81.61 45.22,81.69 45.22,81.76 45.22,81.83 45.22,81.91 45.28,81.91 45.28,81.98 45.36,81.98 
			45.36,82.06 45.44,82.14 45.44,82.2 45.51,82.28 45.51,82.36 45.51,82.43 45.44,82.43 45.44,82.51 45.36,82.51 45.36,82.58 
			45.28,82.58 45.22,82.65 45.14,82.73 45.06,82.73 44.99,82.73 44.91,82.73 44.84,82.73 44.77,82.81 44.77,82.88 44.77,82.95 
			44.77,83.03 44.69,83.03 44.69,83.1 44.69,83.18 44.61,83.26 44.69,83.33 44.61,83.33 44.61,83.4 44.69,83.48 44.69,83.55 
			44.77,83.55 44.77,83.63 44.69,83.71 44.69,83.77 44.61,83.85 44.61,83.93 44.61,84 44.61,84.08 44.69,84.15 44.69,84.22 
			44.61,84.22 44.61,84.3 44.54,84.38 44.54,84.45 44.54,84.52 44.47,84.52 44.39,84.52 44.32,84.52 44.24,84.52 44.24,84.6 
			44.16,84.6 44.16,84.67 44.16,84.75 44.16,84.83 44.09,84.83 44.09,84.9 44.09,84.97 44.16,84.97 44.16,85.05 44.24,85.12 
			44.32,85.2 44.32,85.28 44.39,85.34 44.47,85.42 44.54,85.42 44.61,85.5 44.61,85.57 44.54,85.65 44.54,85.72 44.47,85.72 
			44.47,85.79 44.47,85.87 44.54,85.87 44.61,85.87 44.61,85.95 44.61,86.02 44.69,86.02 44.69,86.09 44.77,86.17 44.84,86.09 
			44.91,86.17 44.99,86.17 45.06,86.24 45.14,86.32 45.14,86.4 45.22,86.4 45.22,86.46 45.28,86.46 45.28,86.54 45.36,86.54 
			45.44,86.54 45.44,86.46 45.51,86.46 45.59,86.46 45.66,86.46 45.66,86.54 45.59,86.54 45.59,86.62 45.59,86.69 45.59,86.77 
			45.59,86.85 45.59,86.91 45.59,86.99 45.51,86.99 45.51,87.07 45.51,87.14 45.44,87.14 45.36,87.14 45.28,87.14 45.22,87.14 
			45.22,87.22 45.14,87.22 45.14,87.36 45.14,87.44 45.06,87.44 45.06,87.52 45.06,87.59 44.99,87.59 44.99,87.66 45.06,87.66 
			45.06,87.74 45.06,87.81 45.06,87.89 45.14,87.97 45.06,88.03 45.06,88.11 45.06,88.19 45.14,88.34 45.22,88.34 45.28,88.42 
			45.36,88.42 45.44,88.42 45.51,88.42 45.59,88.42 45.59,88.48 45.66,88.48 45.66,88.56 45.73,88.64 45.73,88.71 45.73,88.79 
			45.81,88.79 45.81,88.86 45.89,88.86 45.89,88.93 45.89,89.01 45.96,89.01 46.04,89.09 46.11,89.16 46.18,89.16 46.18,89.23 
			46.18,89.31 46.18,89.38 46.26,89.38 46.26,89.31 46.34,89.31 46.41,89.31 46.48,89.31 46.56,89.31 46.63,89.31 46.71,89.31 
			46.79,89.38 46.79,89.46 46.85,89.46 46.85,89.54 46.85,89.6 46.85,89.68 46.85,89.76 46.85,89.83 46.85,89.91 46.93,89.91 
			46.93,89.98 46.93,90.13 46.93,90.21 46.93,90.28 46.93,90.36 47.01,90.36 47.01,90.43 47.01,90.5 47.08,90.5 47.08,90.58 
			47.08,90.66 47.08,90.73 47.08,90.8 47.08,90.88 47.08,90.95 47.08,91.03 47.16,91.03 47.16,91.11 47.08,91.11 47.08,91.17 
			47.08,91.25 47.01,91.25 46.93,91.33 46.93,91.4 46.85,91.4 46.79,91.48 46.71,91.55 46.71,91.62 46.63,91.62 46.56,91.7 
			46.48,91.78 46.48,91.85 46.41,91.93 46.34,91.93 46.26,91.85 46.18,91.85 46.18,91.93 46.18,92 46.18,92.07 46.26,92.07 
			46.26,92.15 46.18,92.15 46.18,92.23 46.18,92.3 46.11,92.37 46.11,92.45 46.04,92.45 46.04,92.52 46.04,92.6 46.04,92.68 
			46.04,92.74 46.04,92.82 46.04,92.9 46.04,92.97 46.04,93.05 46.04,93.12 46.04,93.19 46.11,93.27 46.04,93.35 46.11,93.35 
			46.11,93.42 46.11,93.5 46.11,93.57 46.11,93.64 46.11,93.72 46.18,93.72 46.18,93.8 46.18,93.87 46.18,93.94 46.18,94.02 
			46.18,94.09 46.18,94.25 46.18,94.31 46.18,94.39 46.11,94.39 46.11,94.47 46.04,94.47 45.96,94.47 45.89,94.47 45.81,94.47 
			45.73,94.39 45.66,94.39 45.59,94.47 45.66,94.54 45.66,94.62 45.66,94.69 45.73,94.76 45.73,94.84 45.66,94.92 45.66,94.99 
			45.66,95.06 45.59,95.06 45.59,95.14 45.59,95.21 45.51,95.29 45.51,95.37 45.51,95.44 45.44,95.44 45.36,95.44 45.28,95.37 
			45.22,95.37 45.22,95.29 45.14,95.29 45.06,95.29 45.06,95.37 44.99,95.37 44.99,95.44 44.91,95.44 44.91,95.51 44.84,95.51 
			44.84,95.59 44.77,95.59 44.69,95.59 44.69,95.74 44.77,95.82 44.77,95.88 44.69,95.88 44.61,95.88 44.54,95.88 44.47,95.88 
			44.39,95.88 44.16,95.88 44.09,95.88 44.02,95.82 43.94,95.82 43.87,95.82 43.87,95.88 43.79,95.88 43.79,95.96 43.79,96.04 
			43.79,96.11 43.79,96.19 43.71,96.19 43.71,96.26 43.71,96.33 43.65,96.41 43.57,96.41 43.49,96.41 43.42,96.41 43.2,96.33 
			43.12,96.33 42.97,96.26 42.9,96.26 42.82,96.26 42.82,96.19 42.75,96.19 42.75,96.11 42.67,96.04 42.67,95.96 42.59,95.82 
			42.59,95.74 42.59,95.66 42.59,95.59 42.59,95.51 42.59,95.44 42.53,95.37 42.53,95.29 42.45,95.21 42.37,95.21 42.3,95.14 
			42.22,95.06 42.22,94.99 42.22,94.92 42.22,94.84 42.22,94.76 42.14,94.69 42.14,94.62 42.08,94.54 42,94.47 41.92,94.39 
			41.85,94.31 41.77,94.31 41.7,94.31 41.63,94.25 41.63,94.17 41.55,94.17 41.55,94.09 41.47,94.09 41.47,94.02 41.4,94.02 
			41.4,93.94 41.4,93.8 41.33,93.8 41.25,93.8 41.18,93.8 41.1,93.8 41.02,93.8 41.02,93.87 40.96,93.87 40.96,93.8 40.88,93.8 
			40.8,93.8 40.8,93.72 40.73,93.8 40.65,93.8 40.65,93.72 40.57,93.72 40.57,93.64 40.51,93.64 40.43,93.64 40.35,93.72 
			40.28,93.64 40.2,93.64 40.13,93.64 40.06,93.64 39.98,93.57 39.9,93.57 39.83,93.57 39.83,93.5 39.76,93.42 39.76,93.35 
			39.76,93.27 39.76,93.19 39.68,93.12 39.68,93.05 39.61,92.97 39.61,92.9 39.61,92.82 39.61,92.74 39.53,92.74 39.53,92.68 
			39.61,92.68 39.68,92.6 39.61,92.52 39.61,92.45 39.53,92.45 39.53,92.37 39.53,92.23 39.53,92.15 39.45,92.15 39.45,92.07 
			39.45,92 39.39,92 39.31,92 39.31,91.93 39.23,91.93 39.16,91.85 39.16,91.78 39.08,91.7 39.08,91.62 39.08,91.55 39.08,91.48 
			39.01,91.48 39.01,91.4 38.94,91.4 38.94,91.33 38.94,91.25 38.86,91.25 38.86,91.17 38.86,91.11 38.78,91.11 38.78,91.03 
			38.71,91.03 38.71,90.95 38.71,90.88 38.71,90.8 38.78,90.73 38.78,90.66 38.71,90.58 38.71,90.5 38.78,90.43 38.78,90.36 
			38.71,90.36 38.63,90.36 38.56,90.36 38.56,90.28 38.49,90.28 38.49,90.21 38.49,90.13 38.49,90.05 38.49,89.98 38.49,89.91 
			38.49,89.83 38.41,89.76 38.49,89.6 38.49,89.54 38.49,89.46 38.49,89.38 38.49,89.31 38.56,89.31 38.56,89.23 38.56,89.16 
			38.56,89.09 38.56,89.01 38.56,88.93 38.63,88.86 38.63,88.79 38.63,88.71 38.63,88.64 38.63,88.56 38.56,88.56 38.56,88.48 
			38.56,88.42 38.49,88.42 38.49,88.34 38.49,88.26 38.49,88.19 38.49,88.11 38.49,88.03 38.49,87.97 38.41,87.97 38.33,87.97 
			38.33,87.89 38.26,87.89 38.19,87.89 38.19,87.81 38.11,87.81 38.11,87.74 38.04,87.74 37.96,87.74 37.88,87.74 37.82,87.74 
			37.74,87.74 37.66,87.74 37.59,87.74 37.51,87.74 37.44,87.81 37.37,87.81 37.29,87.81 37.29,87.74 37.21,87.74 37.21,87.81 
			37.14,87.81 37.14,87.89 37.06,87.89 36.99,87.89 36.92,87.81 36.84,87.81 36.76,87.74 36.69,87.74 36.62,87.74 36.54,87.81 
			36.47,87.81 36.39,87.97 36.25,88.19 36.17,88.26 36.02,88.34 36.02,88.42 35.94,88.48 35.94,88.56 35.87,88.71 35.8,88.71 
			35.8,88.79 35.8,88.86 35.8,88.93 35.87,89.01 35.87,89.09 35.87,89.16 35.87,89.23 35.8,89.31 35.8,89.38 35.72,89.38 
			35.64,89.38 35.57,89.38 35.57,89.46 35.49,89.54 35.42,89.54 35.42,89.6 35.35,89.68 35.27,89.83 35.19,89.83 35.12,89.83 
			35.12,89.91 35.05,89.98 35.05,90.05 34.97,90.05 34.9,90.13 34.82,90.13 34.82,90.21 34.74,90.21 34.68,90.21 34.6,90.21 
			34.52,90.21 34.52,90.28 34.52,90.36 34.52,90.43 34.52,90.5 34.45,90.66 34.45,90.73 34.37,90.73 34.37,90.8 34.3,90.8 
			34.23,90.8 34.23,90.73 34.15,90.73 34.07,90.73 34,90.73 33.93,90.73 33.85,90.73 33.78,90.73 33.7,90.66 33.62,90.66 
			33.62,90.58 33.55,90.58 33.48,90.58 33.48,90.5 33.48,90.43 33.48,90.36 33.4,90.36 33.4,90.28 33.4,90.21 33.4,90.13 
			33.33,90.13 33.33,90.05 33.33,89.98 33.25,89.98 33.25,89.91 33.17,89.91 33.17,89.83 33.11,89.83 33.11,89.76 33.11,89.68 
			33.03,89.68 32.95,89.68 32.88,89.68 32.8,89.68 32.8,89.6 32.73,89.68 32.73,89.6 32.66,89.6 32.58,89.6 32.58,89.54 32.5,89.54 
			32.5,89.46 32.43,89.46 32.36,89.46 32.36,89.54 32.28,89.54 32.21,89.54 32.21,89.46 32.13,89.46 32.05,89.46 32.05,89.38 
			31.98,89.38 31.91,89.38 31.83,89.31 31.83,89.38 31.83,89.46 31.83,89.54 31.83,89.6 31.83,89.68 31.76,89.76 31.68,89.76 
			31.6,89.76 31.6,89.68 31.54,89.68 31.54,89.6 31.46,89.54 31.46,89.46 31.38,89.46 31.31,89.38 31.23,89.31 31.16,89.31 
			31.16,89.23 31.09,89.23 31.01,89.16 30.93,89.16 30.93,89.09 30.86,89.09 30.86,89.16 30.79,89.16 30.56,89.23 30.48,89.23 
			30.41,89.23 30.34,89.23 30.26,89.16 30.11,89.09 30.03,89.09 29.97,89.01 29.89,89.01 29.89,88.93 29.89,88.86 29.89,88.79 
			29.89,88.71 29.81,88.71 29.74,88.71 29.66,88.64 29.59,88.56 29.52,88.56 29.52,88.48 29.44,88.48 29.36,88.48 29.36,88.56 
			29.29,88.56 29.22,88.56 29.14,88.64 29.14,88.56 29.07,88.56 29.07,88.48 28.99,88.48 28.91,88.48 28.91,88.42 28.85,88.42 
			28.85,88.34 28.91,88.34 28.91,88.26 28.91,88.19 28.91,88.11 28.85,88.11 28.77,88.03 28.69,88.03 28.69,87.97 28.62,87.97 
			28.62,87.89 28.54,87.89 28.54,87.81 28.54,87.74 28.46,87.66 28.46,87.59 28.46,87.52 28.4,87.52 28.32,87.52 28.24,87.52 
			28.17,87.52 28.09,87.52 28.02,87.52 27.95,87.52 27.95,87.44 27.87,87.44 27.87,87.36 27.79,87.36 27.72,87.36 27.65,87.36 
			27.65,87.29 27.65,87.22 27.65,87.14 27.65,87.07 27.72,87.07 27.72,86.99 27.65,86.99 27.65,86.91 27.57,86.91 27.57,86.85 
			27.5,86.77 27.42,86.77 27.42,86.69 27.42,86.62 27.34,86.54 27.34,86.46 27.34,86.4 27.28,86.4 27.2,86.4 27.2,86.32 
			27.12,86.32 27.12,86.24 27.12,86.17 27.12,86.09 27.05,86.09 26.97,86.02 26.89,86.02 26.89,85.95 26.83,85.95 26.83,85.87 
			26.75,85.87 26.83,85.79 26.83,85.72 26.83,85.65 26.75,85.65 26.67,85.65 26.67,85.57 26.6,85.57 26.6,85.5 26.52,85.5 
			26.6,85.42 26.52,85.34 26.45,85.28 26.38,85.2 26.3,85.12 26.3,85.05 26.22,85.12 26.15,85.12 26,85.2 25.93,85.2 25.93,85.12 
			25.85,85.12 25.85,85.2 25.77,85.12 25.71,85.12 25.63,85.12 25.55,85.12 25.55,85.2 25.48,85.2 25.48,85.28 25.4,85.28 
			25.4,85.2 25.33,85.2 25.33,85.12 25.33,85.05 25.33,84.97 25.33,84.9 25.26,84.9 25.26,84.83 25.33,84.83 25.33,84.75 
			25.26,84.75 25.18,84.75 25.18,84.83 25.1,84.83 25.1,84.9 25.03,84.9 25.03,84.97 24.95,84.97 24.88,85.05 24.81,85.05 
			24.81,84.97 24.73,84.97 24.65,84.97 24.58,84.97 24.51,84.9 24.51,84.83 24.51,84.75 24.43,84.75 24.36,84.75 24.28,84.75 
			24.28,84.67 24.28,84.6 24.28,84.45 24.36,84.38 24.28,84.38 24.28,84.3 24.2,84.3 24.14,84.22 24.14,84.15 24.06,84.08 24.06,84 
			24.06,83.93 24.14,83.93 24.2,83.93 24.2,83.85 24.2,83.77 24.14,83.77 24.14,83.71 24.06,83.71 24.06,83.63 24.06,83.55 
			24.06,83.48 24.14,83.4 24.14,83.33 24.06,83.33 24.06,83.26 23.98,83.18 23.91,83.18 23.91,83.1 23.91,83.03 23.98,82.88 
			23.98,82.81 24.06,82.73 24.06,82.65 23.98,82.58 23.98,82.43 23.91,82.43 23.91,82.36 23.83,82.36 23.76,82.28 23.69,82.28 
			23.61,82.28 23.53,82.28 23.53,82.2 23.46,82.2 23.46,82.14 23.38,82.14 23.38,82.06 23.24,81.83 23.24,81.76 23.16,81.61 
			23.24,81.53 23.24,81.46 23.24,81.38 23.24,81.16 23.16,81.08 23.16,81.01 23.16,80.86 23.16,80.79 23.24,80.71 23.31,80.63 
			23.31,80.57 23.31,80.49 23.31,80.41 23.31,80.34 23.38,80.34 23.38,80.26 23.38,80.19 23.46,80.19 23.46,80.12 23.38,80.12 
			23.38,80.04 23.31,80.04 23.16,79.96 23.08,79.96 23.01,79.89 22.71,79.89 22.63,79.89 22.57,79.82 22.49,79.74 22.49,79.67 
			22.41,79.59 22.41,79.44 22.41,79.29 22.41,79.22 22.41,79.14 22.34,79.14 22.26,79.14 22.19,79.06 22.12,79.06 22.19,79 
			22.19,78.92 22.12,78.84 22.12,78.77 22.19,78.62 22.26,78.55 22.26,78.47 22.34,78.39 22.34,78.32 22.26,78.25 22.19,78.25 
			22.19,78.17 22.19,78.1 22.26,78.1 22.49,78.02 22.49,77.94 22.57,77.94 22.63,77.87 22.71,77.87 22.71,77.8 22.71,77.72 
			22.79,77.65 22.94,77.57 22.94,77.49 23.01,77.49 23.08,77.57 		"/>
	</g>
	<g>
	</g>
</g>
</svg>
