<?xml version="1.0" encoding="utf-8"?>
<!-- Generator: Adobe Illustrator 24.2.1, SVG Export Plug-In . SVG Version: 6.00 Build 0)  -->
<svg version="1.1" id="Layer_1" xmlns="http://www.w3.org/2000/svg" xmlns:xlink="http://www.w3.org/1999/xlink" x="0px" y="0px"
	 viewBox="0 0 97.23 97.23" style="enable-background:new 0 0 97.23 97.23;" xml:space="preserve">
<style type="text/css">
	.st0{fill-rule:evenodd;clip-rule:evenodd;}
</style>
<g>
	<polygon class="st0" points="43.42,10.41 43.5,10.34 43.58,10.34 43.65,10.34 43.65,10.41 43.73,10.41 43.81,10.49 43.88,10.49 
		43.96,10.57 44.04,10.57 44.04,10.49 44.11,10.49 44.19,10.49 44.27,10.49 44.34,10.49 44.42,10.49 44.5,10.49 44.5,10.41 
		44.57,10.41 44.57,10.34 44.65,10.34 44.73,10.26 44.8,10.26 71.33,10.26 71.41,10.26 71.41,10.34 71.49,10.41 71.56,10.57 
		71.56,10.64 71.49,10.64 71.49,10.72 71.56,10.8 71.56,10.87 71.56,10.95 71.56,11.03 71.56,11.1 71.56,11.18 71.64,11.18 
		71.64,11.26 71.64,11.33 71.64,11.41 71.56,11.41 71.56,11.49 71.64,11.49 71.64,11.56 71.72,11.56 71.79,11.64 71.87,11.64 
		72.02,11.72 72.1,11.79 72.18,11.87 72.25,11.87 72.33,11.87 72.33,11.95 72.41,11.95 72.48,11.95 72.56,12.02 72.56,12.1 
		72.48,12.1 72.48,12.18 72.48,12.25 72.48,12.33 72.48,12.41 72.48,12.48 72.48,12.56 72.48,12.64 72.48,12.71 72.41,12.71 
		72.41,12.79 72.48,12.79 72.48,12.87 72.56,12.94 72.56,13.02 72.56,13.1 72.48,13.17 72.48,13.25 72.48,13.33 72.48,13.4 
		72.56,13.48 72.56,13.56 72.64,13.63 72.64,13.71 72.64,13.79 72.71,13.79 72.71,13.71 72.79,13.63 72.87,13.56 72.94,13.56 
		73.02,13.56 73.02,13.63 73.1,13.63 73.1,13.71 73.17,13.71 73.17,13.79 73.25,13.79 73.33,13.79 73.33,13.86 73.4,13.94 
		73.48,14.02 73.48,14.09 73.48,14.17 73.48,14.25 73.56,14.25 73.63,14.25 73.71,14.32 73.71,14.4 73.79,14.48 73.79,14.55 
		73.79,14.63 73.79,14.71 73.71,14.71 73.71,14.78 73.71,14.86 73.71,14.94 73.79,14.94 73.86,15.01 73.86,15.09 73.86,15.17 
		73.94,15.24 73.86,15.24 73.86,15.32 73.94,15.32 73.94,15.4 73.94,15.47 73.94,15.55 73.94,15.63 73.94,15.7 73.86,15.7 
		73.86,15.78 73.79,15.78 73.71,15.78 73.71,15.7 73.63,15.7 73.63,15.78 73.63,15.86 73.63,15.93 73.63,16.01 73.71,16.09 
		73.63,16.16 73.63,16.24 73.63,16.32 73.56,16.39 73.56,16.47 73.48,16.47 73.4,16.55 73.33,16.62 73.4,16.7 73.4,16.78 
		73.33,16.78 73.33,16.85 73.4,16.85 73.4,16.93 73.4,17.01 73.4,17.08 73.4,17.16 73.48,17.16 73.56,17.24 73.48,17.31 
		73.48,17.39 73.56,17.39 73.56,17.47 73.56,17.54 73.56,17.62 73.48,17.62 73.4,17.7 73.4,17.77 73.4,17.85 73.4,17.93 
		73.48,17.93 73.48,18 73.56,18 73.63,18.08 73.63,18.16 73.71,18.23 73.79,18.23 73.86,18.23 73.86,18.31 73.79,18.31 73.79,18.39 
		73.79,18.46 73.71,18.46 73.63,18.46 73.63,18.54 73.56,18.62 73.56,18.69 73.48,18.69 73.4,18.69 73.33,18.69 73.33,18.62 
		73.25,18.62 73.17,18.62 73.1,18.62 73.02,18.69 73.02,18.77 72.94,18.85 72.94,18.92 72.87,19 72.87,19.08 72.87,19.15 
		72.87,19.23 72.94,19.31 73.02,19.38 72.94,19.46 72.94,19.54 73.02,19.54 73.02,19.61 73.1,19.61 73.1,19.69 73.02,19.77 
		73.1,19.84 73.17,20 73.17,20.07 73.17,20.15 73.25,20.15 73.33,20.15 73.4,20.15 73.4,20.23 73.48,20.23 73.56,20.3 73.56,20.38 
		73.63,20.38 73.71,20.46 73.79,20.46 73.79,20.53 73.79,20.61 73.79,20.69 73.71,20.69 73.63,20.69 73.56,20.69 73.56,20.76 
		73.63,20.84 73.56,20.92 73.56,20.99 73.63,21.07 73.63,21.15 73.71,21.22 73.71,21.3 73.71,21.38 73.63,21.45 73.63,21.53 
		73.56,21.53 73.56,21.61 73.56,21.68 73.56,21.76 73.56,21.84 73.63,21.84 73.71,21.84 73.71,21.91 73.71,21.99 73.71,22.07 
		73.79,22.07 73.79,22.14 73.86,22.14 73.86,22.22 73.94,22.3 74.02,22.37 74.09,22.37 74.02,22.45 74.02,22.53 74.09,22.6 
		74.09,22.68 74.09,22.76 74.02,22.76 73.94,22.83 73.94,22.91 73.94,22.99 73.94,23.06 74.02,23.06 74.02,23.14 73.94,23.14 
		73.94,23.22 73.86,23.29 73.86,23.37 73.79,23.37 73.79,23.45 73.79,23.52 73.71,23.52 73.79,23.6 73.86,23.68 73.86,23.75 
		73.94,23.75 73.94,23.83 74.02,23.83 74.09,23.83 74.09,23.91 74.17,23.91 74.17,23.98 74.09,24.06 74.02,24.06 73.94,24.06 
		73.94,24.14 73.86,24.14 73.86,24.29 73.86,24.37 73.79,24.37 73.71,24.37 73.71,24.44 73.63,24.52 73.63,24.6 73.56,24.67 
		73.56,24.75 73.56,24.83 73.56,24.9 73.56,24.98 73.48,24.98 73.48,25.06 73.48,25.13 73.56,25.13 73.56,25.21 73.56,25.29 
		73.63,25.36 73.63,25.44 73.63,25.52 73.63,25.59 73.63,25.67 73.71,25.67 73.79,25.75 73.86,25.82 73.86,25.9 73.86,25.98 
		73.86,26.06 73.94,26.06 73.94,26.13 73.94,26.21 73.94,26.29 73.86,26.29 73.79,26.29 73.79,26.36 73.71,26.44 73.63,26.44 
		73.63,26.52 73.56,26.59 73.4,26.67 73.33,26.75 73.25,26.75 73.17,26.75 73.1,26.75 73.1,26.82 73.02,26.82 72.94,26.82 
		72.94,26.75 72.87,26.75 72.79,26.75 72.71,26.75 72.64,26.82 72.71,26.82 72.71,26.9 72.64,26.98 72.64,27.05 72.64,27.13 
		72.64,27.21 72.71,27.28 72.79,27.28 72.87,27.36 73.02,27.44 73.02,27.51 73.02,27.59 73.02,27.67 73.1,27.67 73.1,27.74 
		73.17,27.82 73.17,27.9 73.25,27.97 73.25,28.05 73.33,28.05 73.4,28.05 73.4,28.13 73.48,28.13 73.56,28.13 73.63,28.13 
		73.71,28.13 73.71,28.2 73.79,28.2 73.86,28.2 73.86,28.28 73.94,28.28 74.02,28.28 74.09,28.28 74.09,28.36 74.17,28.36 
		74.25,28.36 74.25,28.43 74.32,28.43 74.32,28.51 74.32,28.59 74.32,28.66 74.32,28.74 74.4,28.74 74.48,28.82 74.55,28.82 
		74.55,28.89 74.63,28.89 74.71,28.89 74.78,28.89 74.86,28.89 74.86,28.97 74.86,29.05 74.86,29.12 74.86,29.2 74.78,29.2 
		74.78,29.28 74.86,29.28 74.86,29.35 74.86,29.43 74.94,29.43 75.01,29.43 75.09,29.43 75.17,29.43 75.17,29.51 75.24,29.51 
		75.32,29.51 75.32,29.43 75.4,29.43 75.4,29.51 75.4,29.58 75.4,29.66 75.4,29.74 75.4,29.81 75.4,29.89 75.4,29.97 75.4,30.04 
		75.32,30.04 75.4,30.12 75.4,30.2 75.47,30.27 75.55,30.35 75.63,30.43 75.63,30.5 75.7,30.5 75.7,30.58 75.63,30.58 75.7,30.66 
		75.7,30.73 75.78,30.73 75.7,30.81 75.7,30.89 75.7,30.96 75.78,30.96 75.78,31.04 75.78,31.12 75.7,31.12 75.7,31.19 75.78,31.19 
		75.78,31.27 75.78,31.35 75.7,31.35 75.7,31.42 75.78,31.42 75.86,31.5 75.86,31.58 75.86,31.65 75.86,31.73 75.86,31.81 
		75.93,31.81 75.93,31.88 75.93,31.96 76.01,31.96 76.09,32.04 76.16,32.19 76.16,32.27 76.16,32.34 76.09,32.42 76.09,32.5 
		76.09,32.65 76.01,32.73 76.01,32.8 76.09,32.8 76.01,32.88 76.01,32.96 75.93,33.03 75.86,33.11 75.78,33.11 75.7,33.11 
		75.7,33.19 75.7,33.26 75.7,33.34 75.7,33.42 75.63,33.42 75.55,33.42 75.55,33.49 75.47,33.49 75.47,33.57 75.4,33.65 
		75.32,33.65 75.24,33.72 75.17,33.72 75.09,33.72 75.01,33.72 75.01,33.8 74.94,33.8 74.86,33.88 74.78,33.88 74.71,33.88 
		74.63,33.88 74.55,33.95 74.48,33.95 74.4,34.03 74.32,34.03 74.25,34.03 74.17,34.03 74.09,34.11 74.02,34.11 74.02,34.18 
		74.02,34.26 73.94,34.26 73.94,34.34 73.86,34.41 73.79,34.49 73.71,34.57 73.63,34.57 73.56,34.49 73.48,34.41 73.4,34.41 
		73.4,34.34 73.33,34.34 73.25,34.34 73.25,34.26 73.17,34.26 73.1,34.34 73.02,34.34 72.94,34.34 72.87,34.34 72.87,34.41 
		72.79,34.41 72.71,34.41 72.64,34.41 72.56,34.41 72.48,34.49 72.48,34.57 72.48,34.64 72.48,34.72 72.41,34.8 72.33,34.8 
		72.25,34.8 72.25,34.72 72.18,34.72 72.1,34.72 72.1,34.8 72.02,34.8 72.02,34.87 71.95,34.95 71.95,35.03 71.87,35.03 71.87,35.1 
		71.79,35.1 71.79,35.18 71.72,35.18 71.72,35.26 71.64,35.26 71.56,35.26 71.49,35.33 71.33,35.26 71.26,35.26 71.26,35.33 
		71.18,35.33 71.1,35.33 71.03,35.33 70.95,35.33 70.87,35.33 70.8,35.26 70.72,35.26 70.64,35.18 70.64,35.1 70.57,35.1 
		70.49,35.1 70.49,35.03 70.41,35.03 70.34,34.95 70.26,34.95 70.18,34.95 70.11,34.95 70.03,34.87 69.95,34.87 69.8,34.87 
		69.8,34.8 69.72,34.8 69.65,34.8 69.57,34.72 69.49,34.72 69.42,34.72 69.34,34.72 69.26,34.72 69.26,34.64 69.19,34.64 
		69.11,34.64 69.03,34.64 68.96,34.64 68.96,34.57 68.88,34.57 68.8,34.57 68.73,34.49 68.65,34.49 68.65,34.57 68.57,34.57 
		68.5,34.57 68.42,34.57 68.34,34.57 68.34,34.49 68.27,34.49 68.19,34.49 68.11,34.49 68.11,34.41 68.04,34.41 67.96,34.41 
		67.88,34.34 67.81,34.34 67.73,34.34 67.65,34.34 67.58,34.34 67.5,34.34 67.42,34.34 67.35,34.34 67.27,34.34 67.19,34.34 
		67.12,34.26 67.04,34.34 66.96,34.41 66.89,34.41 66.89,34.49 66.81,34.49 66.73,34.49 66.73,34.57 66.66,34.64 66.58,34.72 
		66.58,34.8 66.58,34.87 66.58,34.95 66.5,34.95 66.5,35.03 66.5,35.1 66.43,35.18 66.27,35.1 66.2,35.03 66.12,35.03 66.04,34.95 
		66.04,35.03 65.97,35.03 65.97,34.95 65.89,34.95 65.81,34.87 65.74,34.87 65.66,34.87 65.58,34.87 65.51,34.8 65.51,34.72 
		65.51,34.64 65.51,34.57 65.43,34.57 65.43,34.49 65.35,34.41 65.28,34.34 65.2,34.26 65.2,34.11 65.05,34.03 65.05,33.95 
		64.97,33.88 64.89,33.88 64.89,33.8 64.89,33.72 64.89,33.65 64.82,33.65 64.74,33.65 64.74,33.72 64.74,33.8 64.66,33.8 
		64.66,33.72 64.59,33.72 64.51,33.65 64.43,33.65 64.36,33.57 64.36,33.49 64.28,33.42 64.28,33.34 64.36,33.26 64.36,33.19 
		64.36,33.11 64.43,33.11 64.43,33.03 64.36,33.03 64.36,32.96 64.36,32.88 64.28,32.8 64.28,32.73 64.28,32.65 64.2,32.65 
		64.2,32.57 64.05,32.5 63.97,32.5 63.9,32.5 63.82,32.5 63.74,32.5 63.74,32.42 63.67,32.42 63.59,32.34 63.44,32.19 63.44,32.11 
		63.44,32.04 63.44,31.96 63.51,31.88 63.51,31.81 63.44,31.73 63.36,31.73 63.36,31.65 63.28,31.58 63.28,31.5 63.21,31.5 
		63.21,31.42 63.21,31.35 63.21,31.27 63.21,31.19 63.13,31.19 63.13,31.12 63.13,31.04 63.05,30.96 63.05,30.89 63.13,30.89 
		63.13,30.81 63.13,30.73 63.13,30.66 63.21,30.66 63.28,30.66 63.36,30.58 63.36,30.5 63.28,30.5 63.21,30.5 63.21,30.43 
		63.13,30.43 63.13,30.35 63.13,30.27 63.05,30.27 62.98,30.2 62.98,30.12 62.9,30.04 62.9,29.97 62.9,29.89 62.98,29.81 
		63.05,29.74 63.05,29.66 63.05,29.58 62.98,29.66 62.9,29.66 62.75,29.66 62.67,29.66 62.59,29.66 62.59,29.74 62.52,29.74 
		62.52,29.66 62.44,29.66 62.44,29.58 62.36,29.51 62.29,29.51 62.29,29.43 62.21,29.51 62.13,29.51 62.13,29.43 62.06,29.43 
		61.98,29.51 61.9,29.58 61.83,29.58 61.75,29.58 61.67,29.58 61.6,29.58 61.52,29.58 61.44,29.58 61.44,29.51 61.37,29.51 
		61.29,29.51 61.21,29.51 61.14,29.51 61.06,29.51 60.98,29.51 60.98,29.43 60.91,29.43 60.91,29.51 60.83,29.51 60.75,29.58 
		60.68,29.58 60.6,29.58 60.52,29.58 60.45,29.51 60.37,29.51 60.37,29.58 60.29,29.51 60.22,29.51 60.14,29.51 60.06,29.51 
		60.06,29.43 59.99,29.43 59.91,29.43 59.83,29.51 59.83,29.58 59.76,29.58 59.68,29.58 59.68,29.51 59.6,29.51 59.6,29.43 
		59.6,29.35 59.53,29.35 59.45,29.28 59.37,29.28 59.3,29.28 59.22,29.2 59.22,29.28 59.14,29.35 59.07,29.43 58.99,29.51 
		58.91,29.51 58.84,29.58 58.76,29.66 58.76,29.74 58.76,29.81 58.84,29.89 58.76,29.97 58.76,30.04 58.68,30.04 58.68,30.2 
		58.76,30.27 58.84,30.35 58.84,30.43 58.84,30.5 58.84,30.58 58.84,30.66 58.76,30.66 58.76,30.73 58.76,30.81 58.84,30.81 
		58.91,30.89 58.99,30.89 58.99,30.96 58.99,31.04 59.07,31.12 59.07,31.19 59.14,31.19 59.14,31.27 59.22,31.27 59.22,31.35 
		59.14,31.42 59.14,31.5 59.14,31.58 59.07,31.65 58.99,31.65 58.91,31.65 58.84,31.65 58.84,31.73 58.76,31.73 58.76,31.81 
		58.68,31.81 58.6,31.81 58.6,31.88 58.6,31.96 58.6,32.04 58.6,32.11 58.53,32.19 58.45,32.19 58.45,32.27 58.37,32.27 
		58.37,32.34 58.37,32.42 58.3,32.42 58.22,32.42 58.14,32.42 58.07,32.42 58.07,32.5 58.07,32.57 58.07,32.65 58.07,32.73 
		58.07,32.8 57.99,32.88 57.91,33.03 57.76,33.11 57.68,33.19 57.68,33.26 57.61,33.34 57.53,33.57 57.45,33.57 57.38,33.57 
		57.3,33.57 57.3,33.65 57.3,33.72 57.3,33.8 57.3,33.88 57.3,33.95 57.22,34.03 57.22,34.18 57.15,34.26 57.07,34.26 57.07,34.34 
		56.99,34.34 56.92,34.41 56.84,34.41 56.76,34.49 56.69,34.49 56.69,34.57 56.61,34.57 56.61,34.64 56.61,34.72 56.61,34.8 
		56.61,34.87 56.61,34.95 56.53,34.95 56.46,34.95 56.38,34.95 56.3,34.95 56.3,35.03 56.3,35.1 56.3,35.18 56.3,35.26 56.38,35.26 
		56.38,35.33 56.38,35.41 56.38,35.56 56.38,35.64 56.38,35.72 56.3,35.79 56.15,36.02 56.07,36.1 56,36.18 55.92,36.18 
		55.92,36.25 55.77,36.33 55.77,36.41 55.69,36.41 55.61,36.48 55.69,36.48 55.69,36.56 55.69,36.64 55.69,36.71 55.69,36.79 
		55.69,36.87 55.61,36.87 55.61,36.94 55.54,37.02 55.54,37.1 55.54,37.17 55.46,37.17 55.38,37.25 55.46,37.33 55.46,37.4 
		55.46,37.48 55.54,37.56 55.54,37.63 55.61,37.71 55.61,37.79 55.69,37.86 55.69,37.94 55.77,38.02 55.77,38.09 55.84,38.09 
		55.84,38.17 55.77,38.25 55.77,38.32 55.77,38.4 55.77,38.48 55.77,38.55 55.77,38.63 55.77,38.71 55.69,38.78 55.61,38.78 
		55.61,38.86 55.61,38.94 55.54,38.94 55.54,39.01 55.54,39.09 55.46,39.09 55.38,39.17 55.31,39.17 55.23,39.17 55.15,39.17 
		55.08,39.24 55.08,39.32 55.15,39.4 55.15,39.47 55.23,39.55 55.15,39.63 55.15,39.7 55.15,39.78 55.15,39.86 55.15,39.93 
		55.08,40.01 55,40.01 54.92,40.01 54.85,40.01 54.77,40.01 54.77,40.09 54.69,40.16 54.62,40.16 54.62,40.24 54.62,40.32 
		54.54,40.32 54.46,40.32 54.39,40.32 54.31,40.32 54.23,40.32 54.16,40.32 54.08,40.32 54,40.32 53.93,40.32 53.85,40.39 
		53.85,40.47 53.77,40.47 53.7,40.55 53.7,40.62 53.7,40.7 53.62,40.7 53.62,40.78 53.54,40.85 53.54,40.93 53.47,41.01 
		53.39,41.01 53.39,41.08 53.31,41.08 53.24,41.08 53.24,41.16 53.16,41.16 53.16,41.24 53.16,41.31 53.16,41.39 53.08,41.47 
		53.01,41.47 52.93,41.47 52.85,41.54 52.78,41.54 52.78,41.62 52.62,41.85 52.62,41.93 52.55,41.93 52.55,42 52.55,42.08 
		52.47,42.08 52.39,42.16 52.32,42.23 52.32,42.31 52.32,42.39 52.32,42.46 52.24,42.46 52.24,42.54 52.16,42.62 52.16,42.77 
		52.16,42.92 52.16,43 52.16,43.08 52.09,43.15 52.09,43.23 52.01,43.31 52.01,43.38 51.93,43.46 51.93,43.54 51.93,43.61 
		51.86,43.69 51.86,43.77 51.86,43.84 51.93,43.92 51.93,44 51.86,44.07 51.86,44.15 51.86,44.23 51.86,44.3 51.78,44.3 
		51.78,44.38 51.86,44.38 51.86,44.46 51.78,44.53 51.78,44.61 51.86,44.69 51.86,44.76 51.93,44.76 51.93,44.84 52.01,44.92 
		52.01,44.99 52.09,44.99 52.09,45.07 52.16,45.07 52.16,45.15 52.09,45.22 52.09,45.3 52.09,45.38 52.09,45.45 52.01,45.45 
		52.01,45.53 52.09,45.53 52.09,45.61 52.16,45.61 52.16,45.68 52.24,45.68 52.16,45.76 52.24,45.76 52.24,45.84 52.24,45.91 
		52.32,45.91 52.32,45.99 52.24,45.99 52.24,46.07 52.24,46.14 52.32,46.14 52.32,46.22 52.32,46.3 52.32,46.37 52.39,46.37 
		52.47,46.37 52.55,46.37 52.55,46.45 52.62,46.45 52.7,46.37 52.78,46.37 52.85,46.3 52.93,46.22 53.01,46.22 53.08,46.22 
		53.16,46.3 53.24,46.3 53.39,46.37 53.54,46.37 53.54,46.45 53.62,46.45 53.54,46.53 53.47,46.6 53.47,46.68 53.47,46.76 
		53.39,46.76 53.39,46.83 53.47,46.83 53.54,46.83 53.54,46.91 53.47,46.91 53.47,46.99 53.47,47.06 53.54,47.06 53.54,47.14 
		53.54,47.22 53.47,47.22 53.47,47.29 53.39,47.29 53.31,47.37 53.24,47.37 53.24,47.45 53.16,47.37 53.08,47.45 53.01,47.45 
		53.01,47.52 52.93,47.52 53.01,47.6 53.01,47.68 52.93,47.75 52.85,47.83 52.78,47.83 52.7,47.91 52.62,47.91 52.55,47.98 
		52.47,47.98 52.39,48.06 52.39,48.14 52.47,48.14 52.47,48.06 52.55,48.06 52.62,48.14 52.7,48.14 52.7,48.21 52.7,48.29 
		52.7,48.37 52.78,48.44 52.78,48.52 52.85,48.6 52.78,48.67 52.78,48.83 52.78,48.9 52.78,48.98 52.85,49.06 52.93,49.13 
		52.93,49.21 52.85,49.36 52.85,49.44 52.78,49.44 52.7,49.44 52.7,49.52 52.62,49.59 52.62,49.67 52.7,49.75 52.78,49.82 
		52.78,49.9 52.85,49.9 52.85,49.98 52.85,50.05 52.93,50.21 52.93,50.28 52.93,50.36 52.93,50.44 52.85,50.51 52.85,50.59 
		52.85,50.67 52.85,50.74 52.85,50.82 52.93,50.82 53.01,50.9 53.08,50.97 53.08,51.05 53.16,51.13 53.16,51.2 53.08,51.28 
		53.01,51.36 53.01,51.43 53.01,51.51 53.01,51.59 53.01,51.66 52.93,51.82 52.85,51.89 52.85,51.97 52.85,52.05 52.85,52.12 
		52.93,52.12 53.01,52.2 53.08,52.28 53.08,52.35 53.16,52.35 53.16,52.43 53.16,52.51 53.24,52.51 53.24,52.58 53.31,52.58 
		53.31,52.66 53.39,52.74 53.47,52.74 53.54,52.74 53.62,52.74 53.7,52.74 53.77,52.74 53.93,52.66 54,52.66 54.08,52.66 
		54.16,52.66 54.23,52.66 54.31,52.58 54.39,52.58 54.46,52.51 54.54,52.51 54.62,52.58 54.69,52.66 54.77,52.66 54.85,52.74 
		54.92,52.81 55,52.81 55,52.89 55,52.97 55.08,52.97 55.15,52.97 55.23,53.04 55.31,53.04 55.31,53.12 55.38,53.12 55.46,53.12 
		55.54,53.12 55.61,53.04 55.69,53.04 55.77,53.04 55.84,53.04 55.92,53.04 56,53.12 56.07,53.12 56.15,53.12 56.15,53.2 
		56.15,53.35 56.23,53.43 56.15,53.5 56.15,53.58 56.15,53.66 56.15,53.73 56.15,53.81 56.23,53.81 56.3,53.81 56.38,53.81 
		56.46,53.89 56.53,53.89 56.61,53.89 56.69,53.89 56.76,53.89 56.84,53.89 56.92,53.89 56.99,53.89 57.07,53.96 57.15,53.96 
		57.22,53.96 57.3,53.96 57.38,53.96 57.38,54.04 57.45,54.12 57.45,54.19 57.53,54.27 57.53,54.35 57.45,54.42 57.45,54.58 
		57.38,54.65 57.45,54.73 57.53,54.73 57.61,54.73 57.61,54.81 57.68,54.81 57.76,54.81 57.84,54.81 57.91,54.81 57.99,54.81 
		58.07,54.88 58.07,54.96 58.14,55.04 58.14,55.11 58.22,55.19 58.3,55.27 58.37,55.34 58.45,55.5 58.45,55.57 58.45,55.65 
		58.45,55.73 58.37,55.8 58.3,55.8 58.22,55.8 58.22,55.88 58.22,55.96 58.22,56.03 58.22,56.11 58.22,56.19 58.14,56.26 
		58.07,56.26 57.99,56.26 57.91,56.26 57.91,56.34 57.91,56.42 57.91,56.49 57.91,56.57 57.84,56.57 57.76,56.57 57.68,56.57 
		57.68,56.65 57.61,56.72 57.61,56.8 57.53,56.8 57.45,56.88 57.38,56.88 57.38,56.95 57.3,57.03 57.3,57.11 57.22,57.11 
		57.15,57.11 57.15,57.03 57.07,57.03 57.07,56.95 56.99,56.95 56.92,56.95 56.92,56.88 56.84,56.88 56.76,56.88 56.76,56.95 
		56.69,56.95 56.61,56.95 56.53,56.88 56.46,56.88 56.46,56.8 56.38,56.8 56.3,56.72 56.3,56.65 56.23,56.57 56.15,56.57 
		56.15,56.65 56.07,56.65 56,56.65 55.92,56.65 55.84,56.65 55.77,56.65 55.77,56.72 55.77,56.8 55.77,56.88 55.77,56.95 
		55.77,57.03 55.77,57.11 55.69,57.18 55.69,57.26 55.61,57.34 55.61,57.41 55.61,57.49 55.61,57.57 55.61,57.64 55.54,57.64 
		55.46,57.64 55.38,57.57 55.31,57.64 55.23,57.72 55.23,57.8 55.23,57.87 55.15,57.95 55.08,57.95 55.08,58.03 55,58.03 55,58.1 
		55,58.18 54.92,58.18 54.85,58.26 54.85,58.18 54.77,58.18 54.69,58.1 54.62,58.1 54.54,58.1 54.46,58.18 54.46,58.26 54.39,58.33 
		54.31,58.33 54.23,58.33 54.16,58.41 54.08,58.41 54,58.49 53.93,58.49 53.93,58.56 53.93,58.64 53.85,58.64 53.77,58.64 
		53.7,58.64 53.62,58.56 53.54,58.64 53.47,58.72 53.47,58.79 53.47,58.87 53.39,58.87 53.39,58.95 53.39,59.02 53.47,59.1 
		53.47,59.18 53.39,59.18 53.39,59.25 53.31,59.33 53.24,59.41 53.16,59.41 53.16,59.48 53.08,59.48 53.08,59.56 53.08,59.64 
		53.08,59.71 53.01,59.79 53.01,59.87 53.01,59.94 53.01,60.02 53.01,60.1 52.93,60.1 52.93,60.17 52.85,60.25 52.85,60.4 
		52.85,60.48 52.85,60.56 52.85,60.63 52.78,60.63 52.7,60.63 52.62,60.63 52.55,60.63 52.55,60.71 52.47,60.71 52.39,60.79 
		52.32,60.79 52.32,60.86 52.24,60.86 52.16,60.94 52.09,60.94 52.09,61.02 52.01,61.02 52.01,61.09 51.93,61.09 51.86,61.09 
		51.86,61.17 51.86,61.25 51.86,61.32 51.86,61.4 51.78,61.4 51.78,61.48 51.7,61.55 51.7,61.63 51.63,61.71 51.63,61.78 
		51.55,61.78 51.47,61.86 51.47,61.94 51.55,61.94 51.55,62.01 51.63,62.09 51.63,62.17 51.63,62.24 51.7,62.24 51.7,62.32 
		51.78,62.32 51.78,62.4 51.86,62.47 51.93,62.4 52.01,62.32 52.09,62.32 52.16,62.32 52.24,62.32 52.24,62.24 52.32,62.24 
		52.39,62.32 52.55,62.32 52.62,62.4 52.7,62.47 52.7,62.55 52.7,62.63 52.78,62.63 52.85,62.63 52.93,62.63 52.93,62.7 
		53.08,62.78 53.16,62.86 53.24,62.86 53.31,62.78 53.39,62.78 53.47,62.86 53.54,62.86 53.54,62.93 53.62,62.93 53.7,62.93 
		53.7,63.01 53.77,63.01 53.77,63.09 53.7,63.16 53.7,63.24 53.62,63.32 53.54,63.39 53.54,63.47 53.62,63.47 53.7,63.47 
		53.7,63.55 53.77,63.55 53.77,63.62 53.77,63.7 53.77,63.78 53.85,63.78 53.93,63.78 54,63.78 54.08,63.85 54.08,63.93 
		54.16,63.93 54.16,64.01 54.16,64.08 54.23,64.08 54.23,64.16 54.23,64.24 54.23,64.31 54.23,64.39 54.23,64.47 54.31,64.47 
		54.31,64.54 54.39,64.54 54.39,64.62 54.46,64.62 54.46,64.7 54.46,64.77 54.54,64.77 54.54,64.85 54.62,64.85 54.69,64.93 
		54.69,65 54.77,65 54.77,65.08 54.85,65.08 54.92,65.08 55.15,65.16 55.15,65.23 55.23,65.23 55.31,65.23 55.31,65.31 55.38,65.31 
		55.38,65.39 55.46,65.39 55.46,65.46 55.54,65.46 55.54,65.54 55.54,65.62 55.61,65.69 55.61,65.77 55.69,66 55.61,66.31 
		55.54,66.69 55.54,67.15 55.61,67.61 55.84,67.69 56.07,67.92 56.23,68.07 56.46,68.07 56.76,68.15 56.76,68.22 56.69,68.22 
		56.69,68.3 56.61,68.3 56.61,68.38 56.53,68.38 56.46,68.38 56.38,68.38 56.3,68.38 56.23,68.38 56.15,68.38 56.07,68.3 56,68.3 
		56,68.38 55.92,68.38 55.84,68.45 55.77,68.45 55.69,68.45 55.61,68.45 55.54,68.45 55.38,68.45 55.31,68.45 55.23,68.45 
		55.15,68.45 55.08,68.45 55,68.45 54.92,68.45 54.92,68.38 54.85,68.38 54.77,68.3 54.69,68.38 54.62,68.38 54.54,68.38 
		54.46,68.38 54.46,68.45 54.39,68.53 54.31,68.53 54.23,68.53 54.23,68.61 54.16,68.76 54.16,68.91 54.16,68.99 54.08,69.07 
		54.08,69.14 54.08,69.22 54.16,69.3 54.16,69.37 54.16,69.45 54.16,69.53 54.16,69.6 54.23,69.6 54.31,69.68 54.39,69.76 
		54.39,69.83 54.39,69.91 54.39,69.99 54.31,70.06 54.31,70.14 54.23,70.14 54.23,70.29 54.23,70.37 54.31,70.37 54.31,70.45 
		54.39,70.45 54.39,70.52 54.46,70.68 54.46,70.75 54.54,70.83 54.54,70.91 54.62,70.98 54.69,71.06 54.77,71.06 54.85,71.06 
		54.92,71.06 55,71.14 55.08,71.14 55.15,71.14 55.23,71.14 55.31,71.14 55.54,71.21 55.54,71.29 55.61,71.29 55.61,71.37 
		55.54,71.44 55.54,71.52 55.46,71.6 55.46,71.67 55.38,71.83 55.38,71.9 55.38,71.98 55.46,71.98 55.46,72.06 55.54,72.06 
		55.54,72.13 55.61,72.13 55.61,72.21 55.69,72.29 55.69,72.36 55.69,72.44 55.77,72.44 55.77,72.52 55.77,72.59 55.69,72.67 
		55.69,72.75 55.61,72.75 55.54,72.75 55.54,72.82 55.46,72.9 55.38,72.9 55.38,72.98 55.38,73.13 55.38,73.21 55.38,73.28 
		55.38,73.36 55.38,73.44 55.46,73.44 55.38,73.51 55.38,73.59 55.31,73.59 55.31,73.67 55.23,73.67 55.15,73.67 55.08,73.67 
		55,73.67 54.92,73.67 54.92,73.74 54.92,73.82 54.92,73.9 55,73.97 55,74.05 55.08,74.13 55,74.13 55,74.2 55.08,74.2 55.08,74.28 
		55.08,74.36 55.15,74.36 55.15,74.43 55.23,74.51 55.15,74.51 55.15,74.59 55.23,74.59 55.23,74.66 55.31,74.66 55.38,74.74 
		55.38,74.82 55.38,74.89 55.31,74.89 55.31,74.97 55.31,75.05 55.23,75.05 55.23,75.12 55.23,75.2 55.23,75.28 55.23,75.35 
		55.31,75.35 55.23,75.43 55.31,75.43 55.31,75.51 55.31,75.58 55.31,75.66 55.31,75.74 55.38,75.81 55.46,75.74 55.46,75.81 
		55.46,75.89 55.54,75.89 55.61,75.89 55.69,75.89 55.69,75.81 55.77,75.89 55.84,75.89 55.92,75.89 55.92,75.97 56,75.97 56,76.04 
		56.07,76.04 56.07,75.97 56.07,75.89 56.15,75.97 56.23,75.97 56.23,76.04 56.3,76.04 56.3,75.97 56.38,75.97 56.38,76.04 
		56.38,76.12 56.3,76.12 56.3,76.2 56.38,76.2 56.38,76.27 56.46,76.27 56.53,76.27 56.53,76.35 56.61,76.35 56.69,76.35 
		56.69,76.43 56.76,76.5 56.84,76.5 56.84,76.58 56.84,76.66 56.92,76.66 56.92,76.73 56.92,76.81 56.92,76.89 56.92,76.96 
		56.84,76.96 56.84,77.04 56.92,77.12 56.99,77.12 57.07,77.12 57.15,77.12 57.22,77.12 57.3,77.19 57.38,77.19 57.45,77.19 
		57.45,77.12 57.53,77.12 57.61,77.12 57.68,77.04 57.76,77.04 57.84,77.04 57.84,76.96 57.91,76.96 57.84,76.89 57.84,76.81 
		57.91,76.81 57.99,76.73 58.07,76.73 58.14,76.73 58.14,76.81 58.14,76.89 58.14,76.96 58.07,77.04 57.99,77.12 58.07,77.12 
		58.14,77.19 58.22,77.19 58.22,77.12 58.3,77.12 58.3,77.19 58.37,77.19 58.37,77.27 58.45,77.19 58.53,77.19 58.6,77.19 
		58.6,77.27 58.6,77.35 58.53,77.35 58.53,77.42 58.6,77.42 58.6,77.5 58.53,77.58 58.6,77.58 58.6,77.65 58.68,77.65 58.76,77.65 
		58.76,77.73 58.84,77.73 58.84,77.65 58.91,77.58 58.99,77.65 58.99,77.58 58.99,77.5 59.07,77.5 59.14,77.5 59.14,77.42 
		59.07,77.42 59.07,77.35 59.14,77.35 59.14,77.27 59.14,77.19 59.22,77.19 59.22,77.27 59.3,77.27 59.3,77.35 59.37,77.27 
		59.45,77.27 59.53,77.27 59.6,77.27 59.68,77.27 59.76,77.27 59.83,77.19 59.91,77.27 59.83,77.35 59.83,77.42 59.91,77.42 
		59.99,77.35 60.06,77.35 60.14,77.35 60.14,77.42 60.22,77.42 60.29,77.42 60.29,77.35 60.37,77.35 60.45,77.35 60.45,77.42 
		60.52,77.42 60.52,77.5 60.6,77.58 60.6,77.65 60.6,77.73 60.6,77.81 60.6,77.88 60.52,77.88 60.52,77.96 60.45,78.04 60.45,78.11 
		60.37,78.11 60.37,78.19 60.37,78.27 60.29,78.34 60.29,78.42 60.29,78.5 60.22,78.5 60.22,78.57 60.14,78.65 60.06,78.73 
		59.99,78.8 59.91,78.88 59.91,78.96 59.91,79.03 59.91,79.11 59.91,79.19 59.83,79.19 59.76,79.19 59.76,79.11 59.68,79.11 
		59.68,79.03 59.68,78.96 59.6,78.96 59.53,78.96 59.45,79.03 59.45,79.11 59.45,79.19 59.45,79.26 59.45,79.34 59.37,79.34 
		59.3,79.42 59.22,79.42 59.14,79.49 59.07,79.49 58.99,79.57 58.91,79.57 58.76,79.57 58.68,79.57 58.6,79.65 58.53,79.65 
		58.45,79.65 58.37,79.72 58.3,79.8 58.22,79.88 58.22,79.95 58.14,80.03 58.14,80.18 58.14,80.26 58.22,80.34 58.3,80.41 
		58.37,80.41 58.45,80.41 58.45,80.49 58.45,80.57 58.53,80.64 58.53,80.72 58.6,80.8 58.6,80.87 58.68,80.95 58.68,81.03 
		58.68,81.1 58.68,81.18 58.68,81.26 58.76,81.26 58.76,81.33 58.76,81.41 58.76,81.49 58.68,81.56 58.6,81.56 58.53,81.56 
		58.53,81.64 58.45,81.64 58.37,81.64 58.37,81.72 58.3,81.72 58.22,81.72 58.14,81.72 58.07,81.72 58.07,81.64 57.99,81.64 
		57.99,81.56 57.91,81.56 57.91,81.64 57.91,81.72 57.84,81.72 57.76,81.72 57.68,81.72 57.61,81.72 57.53,81.79 57.45,81.79 
		57.38,81.87 57.3,81.87 57.3,81.95 57.22,81.95 57.15,81.87 57.15,81.79 57.07,81.79 56.99,81.72 56.99,81.79 56.99,81.87 
		56.92,81.95 56.92,81.87 56.84,81.87 56.76,81.87 56.76,81.95 56.76,82.02 56.69,82.02 56.61,82.02 56.53,82.02 56.46,82.02 
		56.38,81.95 56.38,82.02 56.3,82.02 56.3,82.1 56.23,82.1 56.23,82.02 56.15,82.02 56.15,81.95 56.07,81.95 56.07,82.02 
		56.07,82.1 56,82.1 56,82.18 55.92,82.18 55.92,82.25 55.92,82.33 55.84,82.33 55.77,82.33 55.69,82.25 55.61,82.25 55.54,82.25 
		55.46,82.25 55.46,82.33 55.38,82.33 55.38,82.41 55.46,82.41 55.46,82.48 55.38,82.48 55.31,82.48 55.23,82.48 55.23,82.41 
		55.15,82.41 55.15,82.48 55.15,82.56 55.08,82.56 55.08,82.64 55,82.64 55,82.71 55.08,82.71 55.08,82.79 55,82.79 54.92,82.79 
		54.85,82.79 54.85,82.87 54.77,82.79 54.77,82.87 54.77,82.94 54.69,82.94 54.69,83.02 54.77,83.02 54.77,83.1 54.77,83.17 
		54.69,83.17 54.62,83.17 54.62,83.25 54.69,83.25 54.62,83.33 54.62,83.4 54.62,83.48 54.62,83.56 54.62,83.63 54.54,83.63 
		54.54,83.71 54.62,83.71 54.62,83.79 54.54,83.79 54.46,83.79 54.46,83.86 54.39,83.86 54.39,83.94 54.31,83.94 54.31,83.86 
		54.23,83.79 54.23,83.71 54.16,83.71 54.08,83.71 54,83.71 54,83.63 53.93,83.63 53.93,83.56 53.93,83.48 53.85,83.48 53.85,83.56 
		53.77,83.56 53.7,83.56 53.7,83.48 53.62,83.48 53.54,83.48 53.47,83.48 53.39,83.48 53.39,83.4 53.47,83.4 53.47,83.33 
		53.39,83.33 53.31,83.33 53.24,83.33 53.16,83.33 53.16,83.25 53.08,83.25 53.01,83.25 53.01,83.17 52.93,83.17 52.93,83.1 
		52.85,83.1 52.78,83.1 52.7,83.02 52.62,83.02 52.62,82.94 52.62,82.87 52.55,82.87 52.47,82.87 52.47,82.79 52.39,82.79 
		52.32,82.79 52.24,82.79 52.16,82.71 52.09,82.71 52.01,82.71 51.93,82.79 51.93,82.87 51.86,82.87 51.78,82.87 51.7,82.87 
		51.7,82.94 51.63,82.94 51.63,83.02 51.55,83.02 51.55,82.94 51.47,82.94 51.4,82.94 51.32,82.94 51.24,83.02 51.24,83.1 
		51.17,83.1 51.09,83.1 51.09,83.17 51.01,83.25 50.94,83.25 50.86,83.25 50.86,83.33 50.78,83.33 50.78,83.25 50.71,83.25 
		50.63,83.17 50.55,83.25 50.48,83.33 50.48,83.4 50.4,83.48 50.32,83.48 50.25,83.48 50.25,83.56 50.17,83.63 50.17,83.56 
		50.09,83.56 50.02,83.56 49.94,83.63 49.86,83.63 49.79,83.63 49.71,83.63 49.63,83.63 49.63,83.71 49.56,83.71 49.56,83.79 
		49.48,83.79 49.4,83.79 49.4,83.86 49.33,83.86 49.25,83.86 49.17,83.86 49.17,83.94 49.17,84.02 49.17,84.09 49.1,84.17 
		49.02,84.17 49.02,84.25 49.02,84.32 49.1,84.32 49.1,84.4 49.17,84.4 49.1,84.48 49.02,84.55 48.94,84.63 48.87,84.71 
		48.87,84.63 48.87,84.55 48.79,84.55 48.79,84.48 48.79,84.4 48.71,84.4 48.71,84.32 48.64,84.32 48.64,84.4 48.64,84.48 
		48.64,84.55 48.64,84.63 48.64,84.71 48.64,84.78 48.64,84.94 48.64,85.01 48.71,85.09 48.71,85.17 48.64,85.17 48.64,85.24 
		48.56,85.24 48.56,85.32 48.56,85.4 48.56,85.47 48.56,85.55 48.56,85.63 48.64,85.63 48.64,85.7 48.71,85.78 48.79,85.78 
		48.87,85.78 48.87,85.86 48.94,85.93 49.02,86.01 49.1,86.01 49.25,85.93 49.33,85.93 49.33,86.01 49.33,86.09 49.4,86.32 
		49.4,86.39 49.48,86.47 49.48,86.55 49.56,86.55 49.63,86.62 49.71,86.62 49.79,86.62 49.79,86.7 49.86,86.7 49.86,86.78 
		49.94,86.78 50.02,86.78 50.02,86.85 50.09,86.85 50.17,86.85 50.17,86.93 50.25,86.93 50.32,86.85 50.4,86.85 50.48,86.85 
		50.48,86.93 50.55,87.01 50.55,87.08 50.63,87.08 50.63,87.16 50.63,87.24 50.63,87.31 50.71,87.39 50.78,87.39 50.86,87.39 
		50.94,87.39 50.94,87.47 51.01,87.54 51.09,87.54 51.09,87.62 51.17,87.62 51.17,87.7 51.17,87.77 51.09,87.85 51.09,87.93 
		51.17,87.93 51.17,88.08 51.17,88.16 51.24,88.23 51.24,88.31 51.24,88.39 51.24,88.46 51.24,88.54 51.32,88.54 51.32,88.62 
		51.32,88.69 51.32,88.77 51.4,88.77 51.47,88.85 51.47,88.92 51.47,89 51.55,89 51.63,89.08 51.7,89.15 51.7,89.23 51.78,89.31 
		51.86,89.31 51.86,89.38 51.86,89.46 51.86,89.54 51.93,89.61 52.01,89.69 52.09,89.69 52.16,89.77 52.24,89.84 52.32,89.84 
		52.32,89.92 52.39,89.92 52.39,90 52.47,90 52.55,90.07 52.62,90.15 52.7,90.15 52.78,90.15 52.78,90.23 52.78,90.3 52.85,90.3 
		52.93,90.3 52.93,90.23 53.01,90.23 53.01,90.15 53.01,90.07 53.08,90.07 53.24,90.15 53.31,90.15 53.39,90.07 53.47,90.15 
		53.54,90.15 53.62,90.15 53.77,90.15 53.85,90.15 53.85,90.23 53.93,90.3 53.93,90.38 53.93,90.46 54,90.46 54,90.53 54.08,90.61 
		54.08,90.69 54.16,90.69 54.16,90.84 54.23,90.84 54.23,90.92 54.31,90.92 54.31,90.99 54.39,90.99 54.39,91.07 54.39,91.15 
		54.39,91.22 54.39,91.3 54.39,91.38 54.31,91.45 54.31,91.53 54.23,91.68 54.16,91.76 54.08,91.76 54,91.76 54,91.84 53.93,91.84 
		54,91.91 54.08,92.07 54.08,92.14 54.08,92.22 54.16,92.3 54.23,92.3 54.31,92.3 54.31,92.37 54.46,92.37 54.54,92.45 54.54,92.53 
		54.54,92.6 54.54,92.68 54.54,92.76 54.54,92.83 54.54,92.91 54.62,92.99 54.62,93.06 54.69,93.06 54.69,93.14 54.69,93.22 
		54.69,93.29 54.62,93.29 54.54,93.45 54.54,93.52 54.54,93.6 54.54,93.68 54.54,93.75 54.54,93.83 54.54,93.91 54.54,93.98 
		54.54,94.06 54.54,94.14 54.54,94.21 54.54,94.29 54.54,94.37 54.62,94.44 54.62,94.52 54.54,94.52 54.54,94.6 54.46,94.6 
		54.46,94.67 54.39,94.83 54.39,94.9 54.31,94.9 54.31,94.98 54.31,95.06 54.39,95.13 54.39,95.21 54.31,95.29 54.31,95.36 
		54.23,95.36 54.16,95.44 54.08,95.52 54.08,95.59 54,95.75 53.93,95.75 53.93,95.82 53.85,95.82 53.85,95.9 53.85,95.98 
		53.77,96.05 53.7,96.05 53.62,96.05 53.62,96.13 53.54,96.13 53.54,96.21 53.54,96.28 53.47,96.28 53.47,96.36 53.39,96.36 
		53.31,96.44 53.24,96.44 53.24,96.51 53.16,96.51 53.08,96.51 53.01,96.51 53.01,96.59 53.01,96.67 52.93,96.67 52.93,96.74 
		52.85,96.67 52.78,96.67 52.78,96.74 52.7,96.74 52.62,96.74 52.62,96.82 52.62,96.9 52.55,96.9 52.47,96.9 52.39,96.9 
		52.39,96.97 52.47,96.97 52.47,97.05 52.39,97.05 52.32,97.05 52.24,97.05 52.24,97.13 52.24,97.21 52.24,97.28 52.16,97.28 
		52.09,97.28 52.01,97.28 51.93,97.28 51.86,97.28 51.78,97.28 51.78,97.21 51.63,97.13 51.47,96.97 51.4,96.97 51.4,96.9 
		51.32,96.9 51.24,96.9 51.24,96.82 51.17,96.82 51.09,96.82 51.01,96.74 50.94,96.74 50.86,96.82 50.78,96.82 50.78,96.74 
		50.78,96.67 50.86,96.67 50.86,96.59 50.78,96.59 50.78,96.51 50.78,96.44 50.71,96.36 50.63,96.36 50.63,96.21 50.63,96.13 
		50.55,96.05 50.4,95.98 50.32,95.98 50.25,95.98 50.17,96.05 50.09,96.05 50.17,95.98 50.17,95.9 50.17,95.82 50.09,95.82 
		50.02,95.75 50.02,95.67 50.02,95.59 49.94,95.59 49.86,95.59 49.86,95.52 49.94,95.44 50.02,95.44 50.02,95.36 49.94,95.29 
		49.94,95.21 49.86,95.21 49.86,95.13 49.79,95.06 49.79,94.98 49.86,94.98 49.86,94.9 49.86,94.83 49.79,94.67 49.71,94.6 
		49.63,94.52 49.56,94.44 49.48,94.44 49.48,94.37 49.48,94.29 49.48,94.14 49.48,94.06 49.48,93.98 49.4,93.98 49.33,93.98 
		49.25,94.06 49.17,94.06 49.17,93.98 49.17,93.91 49.17,93.83 49.17,93.75 49.25,93.68 49.33,93.6 49.33,93.52 49.25,93.45 
		49.17,93.45 49.17,93.37 49.1,93.37 49.1,93.29 49.02,93.22 49.02,93.14 49.02,93.06 49.02,92.99 48.94,92.99 48.94,93.06 
		48.87,93.06 48.87,92.99 48.79,92.99 48.79,92.91 48.79,92.83 48.79,92.76 48.71,92.76 48.71,92.68 48.79,92.68 48.87,92.68 
		49.02,92.83 49.1,92.83 49.1,92.76 49.02,92.68 49.02,92.6 48.94,92.53 48.94,92.45 48.87,92.45 48.87,92.37 48.79,92.37 
		48.79,92.3 48.71,92.3 48.64,92.3 48.64,92.22 48.64,92.14 48.71,92.07 48.79,92.07 48.79,91.99 48.71,91.99 48.64,91.99 
		48.64,91.91 48.56,91.91 48.56,91.84 48.56,91.76 48.48,91.68 48.48,91.61 48.56,91.61 48.56,91.53 48.64,91.53 48.64,91.45 
		48.56,91.38 48.48,91.3 48.48,91.22 48.41,91.15 48.33,91.15 48.25,91.15 48.18,91.15 48.1,91.15 48.02,91.07 48.02,90.99 
		48.1,90.92 48.1,90.84 48.02,90.76 48.02,90.69 48.02,90.61 47.95,90.61 47.87,90.69 47.79,90.69 47.72,90.61 47.72,90.53 
		47.79,90.61 47.87,90.61 47.95,90.61 47.95,90.53 47.95,90.46 47.87,90.46 47.87,90.38 47.79,90.38 47.79,90.3 47.79,90.23 
		47.79,90.15 47.72,90.15 47.64,90.07 47.64,89.84 47.56,89.84 47.56,89.77 47.56,89.69 47.56,89.61 47.64,89.61 47.72,89.61 
		47.79,89.61 47.79,89.54 47.72,89.54 47.64,89.54 47.64,89.46 47.56,89.46 47.49,89.46 47.41,89.46 47.41,89.38 47.33,89.38 
		47.33,89.31 47.33,89.23 47.33,89.15 47.33,89.08 47.33,89 47.33,88.92 47.26,88.92 47.18,89 47.1,89 47.1,88.92 47.1,88.85 
		47.18,88.77 47.18,88.69 47.18,88.62 47.26,88.62 47.26,88.54 47.33,88.54 47.41,88.54 47.41,88.46 47.41,88.39 47.41,88.31 
		47.41,88.23 47.33,88.16 47.26,88.08 47.18,88 47.1,87.85 47.03,87.85 47.03,87.93 46.95,87.93 46.95,87.85 46.95,87.77 
		46.95,87.7 46.87,87.62 46.87,87.54 46.8,87.54 46.8,87.47 46.8,87.39 46.87,87.31 46.95,87.31 46.95,87.24 47.03,87.16 
		47.03,87.08 47.03,87.01 46.95,87.01 46.87,86.93 46.8,86.93 46.8,87.01 46.8,87.08 46.72,87.08 46.64,87.08 46.64,87.01 
		46.57,87.01 46.41,87.08 46.34,87.08 46.34,87.16 46.26,87.16 46.26,87.24 46.11,87.31 46.03,87.31 45.95,87.31 45.88,87.31 
		45.72,87.39 45.65,87.39 45.57,87.39 45.49,87.39 45.42,87.39 45.34,87.39 45.26,87.39 45.19,87.39 45.11,87.39 45.03,87.39 
		44.96,87.39 44.88,87.39 44.8,87.39 44.73,87.39 44.65,87.39 44.65,87.47 44.57,87.47 44.42,87.54 44.34,87.62 44.34,87.7 
		44.34,87.77 44.34,87.85 44.27,87.85 44.27,87.93 44.27,88 44.19,88 44.19,88.08 44.19,88.16 44.19,88.23 44.11,88.23 44.04,88.31 
		43.96,88.31 43.96,88.39 43.88,88.46 43.88,88.54 43.88,88.62 43.88,88.69 43.88,88.77 43.96,88.77 43.96,88.85 44.04,88.85 
		44.04,88.92 44.11,89 44.11,89.08 44.11,89.15 44.11,89.31 44.11,89.38 44.04,89.46 43.96,89.61 43.88,89.61 43.81,89.69 
		43.73,89.69 43.73,89.77 43.65,89.77 43.58,89.84 43.5,89.84 43.35,89.92 43.27,89.92 43.19,89.92 43.12,90 43.04,90.07 
		42.96,90.15 42.96,90.23 42.89,90.23 42.81,90.23 42.81,90.15 42.73,90.15 42.66,90.23 42.58,90.23 42.58,90.3 42.58,90.38 
		42.5,90.46 42.43,90.46 42.35,90.46 42.35,90.38 42.27,90.38 42.27,90.46 42.27,90.53 42.2,90.61 42.12,90.61 42.04,90.61 
		42.04,90.69 41.97,90.69 41.97,90.76 41.89,90.76 41.81,90.76 41.74,90.84 41.58,90.92 41.51,90.92 41.43,90.92 41.35,90.84 
		41.28,90.84 41.12,90.84 41.05,90.84 40.97,90.84 40.89,90.84 40.82,90.84 40.74,90.84 40.74,90.76 40.66,90.76 40.59,90.69 
		40.36,90.61 40.28,90.53 40.28,90.61 40.2,90.61 40.13,90.61 40.05,90.69 39.97,90.76 39.9,90.84 39.82,90.84 39.74,90.84 
		39.67,90.84 39.59,90.84 39.59,90.92 39.51,90.92 39.44,90.99 39.36,90.99 39.36,90.92 39.28,90.92 39.28,90.84 39.21,90.84 
		39.21,90.76 39.13,90.76 39.05,90.69 39.05,90.61 38.98,90.61 38.9,90.69 38.82,90.69 38.75,90.76 38.67,90.76 38.59,90.84 
		38.52,90.84 38.44,90.92 38.36,90.92 38.29,90.92 38.13,90.92 38.06,90.92 38.06,90.99 37.98,90.99 37.9,90.92 37.83,90.92 
		37.75,90.92 37.67,90.92 37.6,90.92 37.52,90.92 37.52,90.84 37.44,90.76 37.37,90.69 37.29,90.69 37.29,90.61 37.29,90.53 
		37.21,90.53 37.14,90.53 37.14,90.46 37.06,90.46 36.98,90.46 36.98,90.38 36.91,90.3 36.91,90.23 36.83,90.23 36.75,90.15 
		36.75,90.07 36.75,90 36.68,90 36.6,90 36.52,90 36.45,90 36.37,89.92 36.29,89.92 36.29,89.84 36.29,89.77 36.22,89.77 
		36.22,89.69 36.14,89.69 36.14,89.61 36.06,89.54 36.14,89.46 36.14,89.38 36.14,89.31 36.22,89.23 36.22,89.15 36.14,89.15 
		36.14,89.08 36.06,89 35.99,89 35.99,89.08 35.91,89.08 35.83,89.08 35.76,89.08 35.68,89.08 35.6,89.15 35.53,89.15 35.45,89.23 
		35.45,89.15 35.37,89.15 35.37,89.08 35.3,89.08 35.3,89 35.22,88.92 35.22,88.85 35.22,88.77 35.14,88.77 35.14,88.69 
		35.14,88.62 35.07,88.62 35.07,88.54 34.99,88.54 34.99,88.46 34.99,88.39 34.99,88.31 34.99,88.23 35.07,88.16 34.99,88.08 
		34.99,88 34.91,87.85 34.84,87.77 34.76,87.7 34.68,87.62 34.68,87.54 34.68,87.47 34.61,87.39 34.61,87.31 34.53,87.31 
		34.53,87.24 34.45,87.16 34.45,87.08 34.45,87.01 34.38,86.93 34.38,86.85 34.3,86.85 34.3,86.78 34.22,86.7 34.22,86.62 
		34.22,86.55 34.15,86.55 34.15,86.47 34.15,86.39 34.15,86.32 34.15,86.24 34.15,86.16 34.15,86.09 34.22,86.09 34.22,86.01 
		34.3,85.86 34.3,85.7 34.38,85.63 34.45,85.47 34.53,85.4 34.53,85.32 34.61,85.17 34.68,85.09 34.76,84.94 34.76,84.86 
		34.76,84.71 34.76,84.63 34.76,84.55 34.76,84.48 34.76,84.32 34.84,84.32 34.84,84.25 34.91,84.17 34.99,84.17 34.99,84.09 
		35.07,84.02 35.14,83.94 35.22,83.86 35.3,83.86 35.3,83.79 35.37,83.71 35.45,83.63 35.53,83.48 35.68,83.4 35.76,83.33 
		35.83,83.33 35.99,83.33 36.06,83.25 36.22,83.25 36.29,83.25 36.37,83.25 36.45,83.17 36.52,83.17 36.6,83.17 36.68,83.1 
		36.75,83.02 36.83,82.94 36.91,82.87 36.91,82.71 36.98,82.56 36.98,82.48 36.98,82.41 36.98,82.25 36.98,82.18 36.98,82.1 
		36.98,82.02 36.98,81.87 36.98,81.79 36.98,81.64 36.91,81.56 36.91,81.49 36.83,81.41 36.83,81.33 36.75,81.18 36.75,81.1 
		36.68,81.03 36.6,80.95 36.6,80.87 36.52,80.87 36.52,80.8 36.45,80.72 36.37,80.64 36.29,80.57 36.29,80.49 36.29,80.41 
		36.29,80.34 36.29,80.26 36.37,80.26 36.37,80.18 36.37,80.11 36.37,80.03 36.37,79.95 36.37,79.88 36.29,79.88 36.29,79.8 
		36.22,79.72 36.22,79.65 36.14,79.57 36.06,79.57 36.06,79.49 36.06,79.42 35.99,79.34 35.99,79.26 35.91,79.19 35.91,79.11 
		35.83,79.11 35.83,79.03 35.83,78.96 35.83,78.88 35.76,78.88 35.76,78.8 35.76,78.73 35.76,78.65 35.76,78.57 35.76,78.5 
		35.68,78.5 35.68,78.34 35.6,78.34 35.53,78.27 35.53,78.19 35.45,78.19 35.45,78.11 35.37,78.04 35.3,78.04 35.22,78.04 
		35.14,78.04 35.07,78.04 35.07,78.11 34.99,78.11 34.99,78.19 34.91,78.27 34.84,78.34 34.76,78.34 34.76,78.27 34.68,78.27 
		34.68,78.19 34.61,78.11 34.61,78.04 34.61,77.96 34.61,77.88 34.53,77.81 34.53,77.73 34.53,77.65 34.61,77.58 34.68,77.5 
		34.76,77.5 34.84,77.5 34.91,77.5 34.91,77.42 34.99,77.42 34.99,77.35 34.99,77.27 34.99,77.12 34.99,77.04 34.99,76.96 
		34.99,76.89 34.99,76.81 34.91,76.73 34.76,76.43 34.76,76.35 34.68,76.2 34.61,76.12 34.53,76.04 34.53,75.97 34.45,75.89 
		34.45,75.81 34.45,75.74 34.45,75.66 34.45,75.58 34.45,75.43 34.45,75.35 34.45,75.2 34.45,75.12 34.45,75.05 34.45,74.97 
		34.45,74.89 34.45,74.82 34.45,74.74 34.45,74.59 34.38,74.51 34.38,74.43 34.38,74.36 34.45,74.28 34.45,74.2 34.45,74.13 
		34.45,74.05 34.45,73.97 34.45,73.9 34.38,73.82 34.38,73.74 34.38,73.67 34.3,73.67 34.3,73.59 34.22,73.59 34.22,73.51 
		34.15,73.51 34.07,73.44 33.99,73.36 33.99,73.28 33.92,73.28 33.84,73.28 33.76,73.28 33.69,73.28 33.61,73.28 33.61,73.21 
		33.53,73.21 33.46,73.13 33.46,73.05 33.38,73.05 33.38,72.98 33.3,72.98 33.3,72.9 33.23,72.82 33.23,72.75 33.15,72.67 
		33.15,72.59 33.07,72.52 33.07,72.44 33,72.36 33,72.29 32.92,72.29 32.92,72.21 32.84,72.21 32.84,72.13 32.77,72.13 32.77,72.06 
		32.69,72.06 32.69,71.98 32.61,71.98 32.61,71.9 32.54,71.9 32.54,71.83 32.46,71.83 32.38,71.75 32.38,71.67 32.31,71.67 
		32.31,71.6 32.23,71.6 32.23,71.52 32.23,71.44 32.15,71.44 32.15,71.37 32.08,71.29 32,71.21 31.92,71.14 31.92,71.06 
		31.85,71.06 31.85,70.98 31.77,70.91 31.77,70.83 31.77,70.75 31.69,70.75 31.69,70.68 31.69,70.6 31.69,70.52 31.62,70.45 
		31.62,70.37 31.54,70.29 31.54,70.22 31.54,70.14 31.54,70.06 31.54,69.99 31.62,69.99 31.62,69.91 31.62,69.83 31.69,69.76 
		31.69,69.68 31.77,69.68 31.77,69.6 31.85,69.6 31.92,69.53 32,69.45 32.15,69.3 32.38,69.07 32.54,68.91 32.61,68.84 32.69,68.84 
		32.69,68.76 32.69,68.68 32.77,68.61 32.77,68.53 32.84,68.45 32.92,68.45 32.92,68.38 32.92,68.3 32.92,68.22 32.92,68.15 
		32.84,68.15 32.84,68.07 32.84,67.99 32.77,67.92 32.77,67.84 32.69,67.84 32.69,67.76 32.61,67.69 32.54,67.61 32.46,67.38 
		32.38,67.3 32.38,67.23 32.38,67.15 32.31,67.15 32.31,67.07 32.23,67 32.23,66.92 32.15,66.84 32.08,66.77 32,66.69 31.92,66.69 
		31.92,66.61 31.85,66.61 31.77,66.61 31.69,66.61 31.69,66.54 31.54,66.46 31.54,66.38 31.46,66.38 31.39,66.31 31.31,66.31 
		31.23,66.31 31.23,66.23 31.16,66.23 31.08,66.15 31,66.15 30.93,66.08 30.85,66.08 30.77,66.08 30.7,66.08 30.62,66.08 
		30.54,66.08 30.47,66.08 30.39,66 30.31,65.92 30.31,65.85 30.24,65.85 30.16,65.85 30.16,65.77 30.08,65.77 30.01,65.85 
		29.93,65.85 29.85,65.85 29.85,65.92 29.78,65.85 29.7,65.85 29.62,65.85 29.62,65.77 29.55,65.77 29.47,65.77 29.39,65.77 
		29.32,65.85 29.24,65.85 29.16,65.92 29.09,66 29.09,66.08 29.09,66.15 29.01,66.23 29.01,66.38 29.01,66.46 29.01,66.54 
		28.93,66.54 28.93,66.61 28.86,66.69 28.86,66.77 28.86,66.84 28.78,66.92 28.78,67 28.78,67.07 28.78,67.15 28.7,67.23 28.7,67.3 
		28.7,67.38 28.7,67.46 28.7,67.61 28.63,67.61 28.63,67.69 28.63,67.76 28.63,67.84 28.55,67.92 28.55,67.99 28.47,68.07 
		28.47,68.15 28.4,68.22 28.32,68.3 28.24,68.38 28.17,68.45 28.17,68.53 28.09,68.53 28.01,68.61 27.86,68.68 27.78,68.68 
		27.71,68.76 27.63,68.76 27.55,68.84 27.48,68.84 27.32,68.91 27.25,68.99 27.17,68.99 27.09,68.99 27.02,68.99 27.02,68.91 
		26.94,68.91 26.94,68.84 26.86,68.76 26.86,68.68 26.79,68.68 26.79,68.61 26.71,68.61 26.71,68.53 26.63,68.53 26.63,68.45 
		26.63,68.38 26.56,68.3 26.48,68.22 26.48,68.15 26.33,68.07 26.33,67.99 26.33,67.92 26.25,67.92 26.25,67.84 26.17,67.84 
		26.17,67.76 26.1,67.76 26.02,67.69 25.94,67.61 25.87,67.61 25.79,67.53 25.71,67.46 25.64,67.46 25.64,67.38 25.56,67.38 
		25.56,67.3 25.48,67.3 25.48,67.23 25.41,67.15 25.41,67.07 25.33,67.07 25.33,67 25.25,67 25.25,66.92 25.25,66.84 25.18,66.84 
		25.18,66.69 25.1,66.69 25.1,66.61 25.1,66.54 25.02,66.54 25.02,66.46 25.02,66.38 24.95,66.38 24.95,66.31 24.95,66.23 
		24.87,66.15 24.79,66.15 24.72,66.15 24.72,66.08 24.64,66 24.64,65.92 24.64,65.85 24.64,65.77 24.56,65.69 24.56,65.62 
		24.56,65.54 24.56,65.46 24.56,65.39 24.56,65.31 24.56,65.23 24.56,65.16 24.49,65.08 24.49,65 24.49,64.93 24.49,64.85 
		24.49,64.77 24.56,64.7 24.56,64.62 24.56,64.54 24.64,64.54 24.64,64.47 24.64,64.39 24.72,64.31 24.79,64.24 24.87,64.08 
		24.87,64.01 24.87,63.93 24.95,63.93 24.95,63.85 24.95,63.78 24.95,63.7 24.95,63.62 24.95,63.55 24.95,63.47 24.95,63.39 
		24.87,63.39 24.79,63.32 24.79,63.24 24.72,63.24 24.72,63.16 24.64,63.16 24.64,63.09 24.56,63.01 24.56,62.93 24.49,62.86 
		24.49,62.78 24.41,62.78 24.33,62.7 24.26,62.7 24.18,62.7 24.1,62.7 24.03,62.7 23.95,62.7 23.87,62.63 23.8,62.63 23.8,62.55 
		23.8,62.47 23.72,62.4 23.72,62.32 23.72,62.24 23.72,62.17 23.64,62.17 23.64,62.09 23.57,62.01 23.57,61.94 23.57,61.86 
		23.57,61.78 23.57,61.63 23.57,61.55 23.49,61.48 23.49,61.4 23.49,61.32 23.41,61.25 23.41,61.17 23.34,61.09 23.26,61.09 
		23.26,61.02 23.18,61.02 23.11,60.94 23.03,60.86 22.95,60.86 22.95,60.79 22.88,60.79 22.88,60.71 22.8,60.71 22.8,60.63 
		22.8,60.56 22.72,60.56 22.72,60.48 22.65,60.4 22.65,60.33 22.65,60.25 22.65,60.17 22.65,60.1 22.57,60.02 22.57,59.94 
		22.57,59.87 22.49,59.79 22.49,59.71 22.49,59.64 22.49,59.56 22.49,59.48 22.42,59.41 22.42,59.33 22.42,59.25 22.42,59.18 
		22.42,59.1 22.42,59.02 22.34,58.95 22.42,58.95 22.34,58.87 22.34,58.79 22.34,58.72 22.34,58.64 22.26,58.64 22.26,58.56 
		22.26,58.49 22.19,58.41 22.19,58.33 22.19,58.26 22.11,58.18 22.11,58.1 22.03,58.03 22.03,57.95 21.96,57.95 21.96,57.87 
		21.88,57.87 21.88,57.8 21.8,57.72 21.73,57.64 21.73,57.57 21.65,57.57 21.65,57.49 21.57,57.49 21.5,57.41 21.42,57.41 
		21.34,57.41 21.34,57.34 21.27,57.34 21.19,57.34 21.11,57.26 21.04,57.26 21.04,57.18 20.96,57.18 20.96,57.11 20.88,57.03 
		20.81,56.95 20.73,56.95 20.73,56.88 20.73,56.8 20.73,56.72 20.65,56.65 20.58,56.57 20.5,56.49 20.5,56.42 20.42,56.42 
		20.42,56.34 20.42,56.26 20.42,56.19 20.42,56.11 20.42,56.03 20.42,55.96 20.42,55.88 20.42,55.8 20.42,55.73 20.42,55.65 
		20.35,55.57 20.42,55.42 20.42,55.34 20.42,55.27 20.35,55.27 20.35,55.19 20.35,55.11 20.42,55.04 20.42,54.96 20.5,54.96 
		20.5,54.88 20.58,54.88 20.65,54.81 20.73,54.73 20.73,54.65 20.81,54.65 20.81,54.58 20.88,54.58 20.88,54.5 20.96,54.42 
		21.04,54.35 21.04,54.27 21.04,54.19 21.11,54.12 21.11,54.04 21.19,54.04 21.19,54.12 21.19,54.19 21.19,54.27 21.19,54.35 
		21.19,54.42 21.19,54.58 21.19,54.65 21.19,54.88 21.19,54.96 21.19,55.04 21.19,55.19 21.19,55.27 21.11,55.34 21.11,55.42 
		21.11,55.5 21.11,55.57 21.19,55.65 21.19,55.73 21.19,55.8 21.19,55.88 21.27,55.88 21.34,55.88 21.42,55.88 21.5,55.88 
		21.57,55.88 21.65,55.88 21.8,55.88 21.88,55.88 22.03,55.88 22.11,55.88 22.19,55.8 22.26,55.8 22.34,55.8 22.42,55.8 22.49,55.8 
		22.57,55.8 22.57,55.73 22.65,55.73 22.65,55.65 22.72,55.57 22.8,55.57 22.88,55.57 22.95,55.57 22.95,55.65 22.95,55.73 
		22.95,55.8 23.03,55.88 23.03,55.96 23.11,56.03 23.18,56.11 23.26,56.11 23.26,56.19 23.34,56.19 23.41,56.19 23.49,56.19 
		23.57,56.19 23.57,56.26 23.64,56.34 23.72,56.42 23.8,56.42 23.87,56.42 23.87,56.49 23.95,56.57 23.95,56.65 23.95,56.72 
		23.95,56.8 23.95,56.88 23.95,56.95 23.95,57.03 23.95,57.11 23.95,57.18 23.95,57.26 24.03,57.26 24.03,57.34 23.95,57.41 
		24.03,57.41 24.03,57.49 24.1,57.49 24.1,57.57 24.18,57.57 24.26,57.57 24.33,57.64 24.33,57.72 24.33,57.8 24.26,57.87 
		24.26,57.95 24.26,58.03 24.26,58.1 24.33,58.18 24.33,58.26 24.33,58.33 24.41,58.33 24.49,58.41 24.56,58.41 24.64,58.49 
		24.64,58.56 24.64,58.64 24.64,58.72 24.72,58.72 24.72,58.79 24.79,58.79 24.87,58.79 24.95,58.79 25.02,58.79 25.1,58.79 
		25.1,58.72 25.18,58.72 25.18,58.64 25.25,58.64 25.25,58.56 25.33,58.56 25.33,58.64 25.41,58.64 25.48,58.64 25.56,58.64 
		25.64,58.64 25.64,58.56 25.71,58.56 25.79,58.49 25.79,58.41 25.79,58.33 25.87,58.33 25.94,58.33 26.02,58.33 26.02,58.26 
		26.1,58.26 26.17,58.26 26.17,58.18 26.25,58.18 26.25,58.1 26.33,58.1 26.33,58.18 26.4,58.18 26.48,58.18 26.56,58.18 
		26.56,58.1 26.63,58.1 26.71,58.18 26.71,58.26 26.71,58.33 26.79,58.33 26.79,58.41 26.79,58.49 26.86,58.49 26.86,58.56 
		26.94,58.64 26.94,58.72 26.94,58.79 27.02,58.79 27.02,58.87 27.09,58.87 27.17,58.87 27.25,58.87 27.4,58.87 27.48,58.87 
		27.48,58.79 27.55,58.79 27.63,58.72 27.71,58.64 27.78,58.64 27.86,58.64 27.86,58.72 27.94,58.72 27.94,58.79 28.01,58.79 
		28.09,58.79 28.17,58.72 28.24,58.72 28.24,58.79 28.32,58.87 28.4,58.87 28.4,58.95 28.47,58.95 28.55,58.95 28.55,58.87 
		28.63,58.87 28.63,58.79 28.63,58.72 28.63,58.64 28.7,58.64 28.7,58.56 28.7,58.49 28.7,58.41 28.7,58.33 28.7,58.26 28.78,58.26 
		28.78,58.18 28.78,58.1 28.78,58.03 28.86,57.95 28.86,57.87 28.86,57.8 28.93,57.8 28.93,57.72 28.93,57.64 28.93,57.57 
		28.93,57.49 28.93,57.41 28.93,57.34 28.93,57.26 29.01,57.26 29.01,57.18 29.09,57.18 29.16,57.18 29.16,57.26 29.24,57.26 
		29.24,57.34 29.32,57.34 29.39,57.34 29.47,57.34 29.55,57.34 29.55,57.41 29.62,57.49 29.7,57.57 29.7,57.64 29.78,57.64 
		29.78,57.57 29.85,57.49 29.93,57.49 29.93,57.41 29.93,57.34 30.01,57.26 30.01,57.18 30.08,57.18 30.08,57.11 30.08,57.03 
		30.16,57.03 30.24,57.03 30.24,57.11 30.31,57.11 30.39,57.11 30.47,57.11 30.54,57.11 30.62,57.11 30.7,57.11 30.7,57.03 
		30.7,56.95 30.77,56.95 30.77,56.88 30.85,56.88 30.93,56.88 30.93,56.95 31,56.95 31,57.03 31.08,57.03 31.16,56.95 31.23,56.95 
		31.31,56.95 31.39,56.95 31.46,56.95 31.54,56.95 31.54,56.88 31.54,56.8 31.54,56.72 31.54,56.65 31.62,56.65 31.69,56.65 
		31.77,56.65 31.85,56.57 31.92,56.57 32,56.65 32.08,56.65 32.08,56.72 32.08,56.8 32.08,56.88 32.15,56.88 32.15,56.8 32.23,56.8 
		32.23,56.72 32.23,56.65 32.23,56.57 32.23,56.49 32.15,56.49 32.15,56.42 32.08,56.42 32.08,56.34 32,56.26 32,56.19 31.92,56.19 
		31.92,56.11 31.92,56.03 31.92,55.96 31.92,55.88 32,55.88 32,55.8 32.08,55.8 32.15,55.73 32.23,55.73 32.31,55.73 32.38,55.65 
		32.46,55.65 32.46,55.73 32.54,55.73 32.61,55.8 32.69,55.8 32.69,55.88 32.77,55.96 32.84,55.96 32.92,55.96 32.92,55.88 
		33,55.88 33,55.8 33,55.73 33.07,55.73 33.07,55.65 33.15,55.65 33.15,55.57 33.15,55.5 33.23,55.5 33.3,55.42 33.38,55.42 
		33.46,55.42 33.46,55.34 33.46,55.27 33.46,55.19 33.53,55.19 33.61,55.19 33.61,55.11 33.69,55.11 33.69,55.19 33.76,55.19 
		33.76,55.27 33.84,55.27 33.92,55.19 33.92,55.27 33.99,55.27 34.07,55.27 34.15,55.27 34.22,55.27 34.3,55.34 34.38,55.27 
		34.45,55.19 34.53,55.19 34.61,55.27 34.68,55.27 34.76,55.27 34.84,55.27 34.91,55.27 34.91,55.34 34.99,55.34 35.07,55.34 
		35.14,55.42 35.22,55.42 35.22,55.5 35.3,55.5 35.37,55.5 35.45,55.5 35.53,55.5 35.6,55.5 35.68,55.5 35.76,55.5 35.76,55.42 
		35.83,55.42 35.91,55.42 35.99,55.42 36.06,55.42 36.14,55.42 36.22,55.42 36.22,55.34 36.29,55.34 36.37,55.34 36.45,55.34 
		36.52,55.34 36.52,55.27 36.52,55.19 36.52,55.11 36.52,55.04 36.6,55.04 36.6,54.96 36.6,54.88 36.68,54.88 36.75,54.81 
		36.83,54.81 36.91,54.81 36.98,54.81 37.06,54.81 37.06,54.88 37.06,54.96 37.14,54.96 37.14,55.04 37.21,55.04 37.21,55.11 
		37.29,55.11 37.37,55.11 37.44,55.11 37.52,55.11 37.6,55.11 37.67,55.11 37.67,55.19 37.75,55.19 37.75,55.27 37.83,55.27 
		37.9,55.27 37.9,55.19 37.98,55.19 38.06,55.19 38.13,55.19 38.21,55.19 38.29,55.19 38.36,55.19 38.44,55.19 38.52,55.19 
		38.52,55.11 38.52,55.04 38.44,55.04 38.44,54.96 38.44,54.88 38.52,54.88 38.52,54.81 38.44,54.73 38.36,54.73 38.44,54.65 
		38.52,54.65 38.52,54.58 38.59,54.58 38.59,54.5 38.59,54.42 38.59,54.35 38.59,54.27 38.59,54.19 38.59,54.12 38.67,54.12 
		38.67,54.04 38.59,54.04 38.59,53.96 38.59,53.89 38.67,53.81 38.75,53.73 38.67,53.66 38.67,53.58 38.75,53.58 38.75,53.5 
		38.75,53.43 38.75,53.35 38.75,53.27 38.67,53.27 38.59,53.27 38.59,53.2 38.52,53.2 38.52,53.12 38.59,53.04 38.59,52.97 
		38.59,52.89 38.52,52.81 38.52,52.74 38.44,52.74 38.44,52.66 38.52,52.66 38.52,52.58 38.59,52.58 38.59,52.51 38.59,52.43 
		38.59,52.35 38.52,52.28 38.52,52.2 38.59,52.2 38.59,52.12 38.67,52.12 38.67,52.05 38.67,51.97 38.59,51.97 38.59,51.89 
		38.67,51.89 38.67,51.82 38.67,51.74 38.67,51.66 38.59,51.66 38.59,51.59 38.59,51.51 38.52,51.43 38.52,51.36 38.52,51.28 
		38.52,51.2 38.52,51.13 38.44,51.13 38.52,51.05 38.59,50.97 38.67,50.9 38.67,50.82 38.67,50.74 38.67,50.67 38.67,50.59 
		38.59,50.59 38.59,50.51 38.67,50.51 38.67,50.44 38.67,50.36 38.75,50.36 38.75,50.28 38.75,50.21 38.75,50.13 38.67,50.13 
		38.67,50.05 38.75,50.05 38.67,49.98 38.67,49.9 38.67,49.82 38.59,49.82 38.59,49.75 38.59,49.67 38.52,49.67 38.44,49.67 
		38.44,49.59 38.44,49.52 38.44,49.44 38.44,49.36 38.36,49.29 38.36,49.21 38.29,49.21 38.21,49.21 38.13,49.21 38.13,49.13 
		38.06,49.13 38.06,49.06 37.98,48.98 37.98,48.9 37.98,48.83 37.9,48.83 37.9,48.75 37.98,48.67 37.98,48.6 37.9,48.6 37.9,48.52 
		37.9,48.44 37.98,48.37 37.9,48.29 37.9,48.21 37.9,48.14 37.83,48.06 37.83,47.98 37.9,47.98 37.9,47.91 37.9,47.83 37.98,47.83 
		38.06,47.75 38.06,47.68 38.06,47.6 38.13,47.6 38.13,47.52 38.13,47.45 38.13,47.37 38.13,47.29 38.13,47.22 38.21,47.22 
		38.29,47.22 38.29,47.14 38.36,47.14 38.36,47.06 38.29,47.06 38.29,46.99 38.29,46.91 38.21,46.83 38.13,46.83 38.13,46.76 
		38.06,46.76 37.98,46.76 37.9,46.76 37.9,46.68 37.98,46.68 37.98,46.6 37.98,46.53 37.9,46.53 37.9,46.45 37.83,46.45 37.9,46.37 
		37.9,46.3 37.98,46.22 37.9,46.14 37.9,46.07 37.9,45.99 37.9,45.91 37.9,45.84 37.83,45.84 37.83,45.76 37.83,45.68 37.75,45.68 
		37.75,45.61 37.67,45.53 37.67,45.45 37.67,45.38 37.67,45.3 37.75,45.3 37.75,45.22 37.75,45.15 37.83,45.15 37.83,45.07 
		37.83,44.99 37.83,44.92 37.9,44.84 37.83,44.84 37.75,44.84 37.75,44.76 37.67,44.76 37.6,44.76 37.6,44.69 37.52,44.61 
		37.52,44.53 37.52,44.46 37.44,44.46 37.44,44.38 37.44,44.3 37.44,44.23 37.44,44.15 37.37,44.15 37.37,44.07 37.37,44 37.29,44 
		37.29,43.92 37.37,43.92 37.37,43.84 37.44,43.84 37.52,43.84 37.52,43.77 37.6,43.77 37.6,43.69 37.6,43.61 37.6,43.54 
		37.6,43.46 37.67,43.46 37.67,43.38 37.75,43.31 37.75,43.23 37.67,43.23 37.67,43.15 37.6,43.15 37.6,43.08 37.52,43 37.52,42.92 
		37.6,42.92 37.6,42.85 37.6,42.77 37.67,42.69 37.6,42.69 37.52,42.62 37.44,42.54 37.37,42.54 37.37,42.46 37.37,42.39 
		37.37,42.31 37.37,42.23 37.37,42.16 37.37,42.08 37.37,42 37.44,42 37.44,41.93 37.37,41.93 37.37,41.85 37.37,41.77 37.37,41.7 
		37.44,41.7 37.44,41.62 37.44,41.54 37.37,41.54 37.37,41.47 37.29,41.47 37.29,41.39 37.29,41.31 37.21,41.31 37.14,41.31 
		37.14,41.39 37.06,41.39 36.98,41.39 36.91,41.39 36.83,41.39 36.75,41.39 36.68,41.39 36.6,41.39 36.52,41.39 36.52,41.31 
		36.45,41.31 36.45,41.24 36.37,41.24 36.37,41.16 36.29,41.08 36.22,41.08 36.22,41.01 36.14,40.93 36.14,40.85 36.06,40.85 
		35.99,40.78 35.91,40.78 35.83,40.78 35.76,40.78 35.76,40.7 35.68,40.62 35.68,40.55 35.6,40.55 35.53,40.47 35.6,40.47 
		35.6,40.39 35.53,40.39 35.6,40.32 35.53,40.32 35.53,40.24 35.45,40.24 35.37,40.16 35.3,40.16 35.3,40.09 35.22,40.09 
		35.22,40.01 35.22,39.93 35.3,39.93 35.3,39.86 35.3,39.78 35.22,39.7 35.22,39.63 35.22,39.55 35.14,39.55 35.07,39.55 
		34.99,39.55 34.91,39.55 34.84,39.47 34.76,39.47 34.76,39.4 34.68,39.4 34.61,39.4 34.53,39.32 34.53,39.4 34.45,39.4 34.38,39.4 
		34.38,39.32 34.3,39.32 34.38,39.24 34.38,39.17 34.3,39.17 34.3,39.09 34.22,39.09 34.22,39.01 34.3,39.01 34.3,38.94 
		34.38,38.94 34.38,38.86 34.45,38.86 34.45,38.78 34.38,38.78 34.38,38.71 34.38,38.63 34.38,38.55 34.45,38.55 34.53,38.55 
		34.53,38.63 34.61,38.63 34.68,38.63 34.76,38.55 34.91,38.48 34.91,38.4 34.99,38.4 35.07,38.4 35.14,38.48 35.22,38.55 
		35.3,38.55 35.37,38.55 35.37,38.48 35.45,38.48 35.45,38.4 35.53,38.4 35.53,38.32 35.6,38.32 35.6,38.25 35.68,38.25 
		35.68,38.17 35.76,38.17 35.83,38.17 35.83,38.09 35.91,38.09 35.91,38.17 35.99,38.17 35.99,38.09 35.99,38.02 35.99,37.94 
		35.99,37.86 35.91,37.79 35.91,37.71 35.99,37.71 35.99,37.79 36.06,37.79 36.14,37.79 36.22,37.79 36.29,37.71 36.37,37.71 
		36.45,37.71 36.52,37.71 36.6,37.71 36.68,37.71 36.68,37.63 36.75,37.63 36.75,37.56 36.75,37.48 36.83,37.48 36.91,37.48 
		36.98,37.56 36.98,37.48 37.06,37.48 37.14,37.4 37.21,37.33 37.29,37.25 37.37,37.17 37.37,37.1 37.29,37.1 37.21,37.02 
		37.21,36.94 37.21,36.87 37.21,36.79 37.21,36.71 37.29,36.71 37.29,36.64 37.29,36.56 37.29,36.48 37.29,36.41 37.29,36.33 
		37.29,36.25 37.29,36.18 37.29,36.1 37.29,35.95 37.29,35.79 37.21,35.72 37.21,35.56 37.29,35.49 37.37,35.41 37.37,35.33 
		37.37,35.18 37.37,35.03 37.29,34.95 37.37,34.87 37.37,34.72 37.37,34.64 37.29,34.57 37.21,34.49 37.37,34.41 37.44,34.41 
		37.6,34.41 37.67,34.49 37.75,34.57 37.83,34.57 37.83,34.49 37.9,34.41 37.98,34.41 38.06,34.41 38.06,34.49 38.13,34.49 
		38.21,34.57 38.29,34.57 38.36,34.57 38.36,34.49 38.44,34.49 38.52,34.41 38.52,34.34 38.59,34.34 38.67,34.34 38.67,34.26 
		38.67,34.18 38.67,34.11 38.67,34.03 38.75,34.03 38.75,33.95 38.75,33.88 38.75,33.8 38.75,33.72 38.67,33.72 38.67,33.65 
		38.67,33.49 38.59,33.49 38.59,33.42 38.52,33.42 38.52,33.34 38.52,33.26 38.59,33.19 38.59,33.11 38.67,33.11 38.67,33.03 
		38.75,33.03 38.82,33.03 38.9,33.03 38.9,32.96 38.98,32.96 39.05,32.96 39.13,32.88 39.21,32.88 39.21,32.96 39.28,32.96 
		39.28,33.03 39.36,33.03 39.44,32.96 39.51,33.03 39.59,33.03 39.67,33.03 39.67,32.96 39.74,32.96 39.74,32.88 39.82,32.88 
		39.82,32.8 39.82,32.73 39.9,32.65 39.9,32.57 39.97,32.57 40.05,32.5 40.13,32.5 40.2,32.5 40.28,32.5 40.36,32.5 40.36,32.42 
		40.43,32.34 40.43,32.27 40.51,32.27 40.59,32.27 40.59,32.19 40.66,32.19 40.66,32.27 40.74,32.27 40.82,32.27 40.89,32.27 
		40.97,32.27 41.05,32.27 41.05,32.19 41.12,32.19 41.2,32.19 41.2,32.27 41.28,32.19 41.35,32.19 41.43,32.19 41.51,32.11 
		41.58,32.04 41.58,31.96 41.58,31.88 41.58,31.81 41.58,31.73 41.58,31.65 41.58,31.58 41.58,31.5 41.58,31.42 41.66,31.35 
		41.66,31.27 41.74,31.27 41.74,31.19 41.66,31.19 41.66,31.12 41.74,31.12 41.74,31.04 41.66,30.96 41.66,30.89 41.66,30.81 
		41.58,30.73 41.58,30.66 41.58,30.58 41.58,30.5 41.51,30.43 41.51,30.35 41.51,30.27 41.51,30.2 41.51,30.12 41.58,30.12 
		41.58,30.04 41.58,29.97 41.58,29.89 41.66,29.89 41.74,29.89 41.74,29.81 41.81,29.81 41.89,29.74 41.89,29.66 41.89,29.58 
		41.89,29.51 41.81,29.43 41.81,29.35 41.81,29.28 41.81,29.2 41.81,29.12 41.74,29.12 41.74,29.05 41.74,28.97 41.74,28.89 
		41.74,28.82 41.66,28.74 41.66,28.66 41.74,28.59 41.74,28.51 41.81,28.43 41.89,28.36 41.89,28.28 41.89,28.2 41.89,28.13 
		41.81,28.05 41.81,27.97 41.74,27.97 41.74,27.9 41.74,27.82 41.74,27.74 41.66,27.74 41.66,27.67 41.66,27.59 41.66,27.51 
		41.66,27.44 41.74,27.44 41.81,27.44 41.81,27.36 41.89,27.36 41.97,27.28 41.97,27.21 41.97,27.13 41.89,27.13 41.89,27.05 
		41.97,27.05 41.97,26.98 41.97,26.9 41.97,26.82 41.97,26.75 41.97,26.67 41.89,26.59 41.81,26.52 41.81,26.44 41.81,26.36 
		41.81,26.29 41.74,26.29 41.66,26.21 41.58,26.21 41.58,26.13 41.51,26.13 41.43,26.13 41.35,26.13 41.35,26.06 41.28,26.06 
		41.2,26.06 41.12,26.06 41.12,25.98 41.12,25.9 41.2,25.82 41.2,25.75 41.12,25.67 41.05,25.67 40.97,25.67 40.89,25.67 
		40.82,25.67 40.74,25.67 40.74,25.59 40.66,25.59 40.66,25.52 40.66,25.44 40.59,25.36 40.59,25.29 40.51,25.21 40.51,25.13 
		40.51,25.06 40.43,24.98 40.36,24.98 40.36,24.9 40.28,24.9 40.28,24.83 40.2,24.83 40.13,24.75 40.05,24.75 39.97,24.75 
		39.9,24.67 39.82,24.67 39.82,24.6 39.74,24.6 39.67,24.52 39.59,24.52 39.51,24.52 39.44,24.52 39.36,24.52 39.36,24.44 
		39.28,24.37 39.28,24.29 39.36,24.29 39.36,24.21 39.44,24.21 39.44,24.14 39.44,24.06 39.51,24.06 39.59,24.06 39.59,23.98 
		39.59,23.91 39.67,23.91 39.67,23.83 39.67,23.75 39.67,23.68 39.67,23.6 39.74,23.6 39.82,23.6 39.9,23.68 39.9,23.6 39.97,23.6 
		39.97,23.52 40.05,23.52 40.13,23.45 40.2,23.45 40.28,23.45 40.28,23.52 40.36,23.52 40.36,23.6 40.36,23.68 40.43,23.68 
		40.43,23.75 40.51,23.75 40.59,23.68 40.66,23.68 40.66,23.6 40.74,23.6 40.82,23.6 40.89,23.6 40.89,23.68 40.97,23.68 
		41.05,23.68 41.12,23.68 41.12,23.6 41.2,23.6 41.2,23.52 41.28,23.45 41.35,23.37 41.43,23.29 41.51,23.29 41.58,23.29 
		41.66,23.29 41.74,23.29 41.81,23.29 41.81,23.37 41.89,23.37 41.89,23.29 41.89,23.22 41.89,23.14 41.81,23.14 41.81,23.06 
		41.81,22.99 41.81,22.91 41.74,22.91 41.66,22.91 41.58,22.91 41.51,22.91 41.43,22.83 41.35,22.83 41.35,22.76 41.28,22.76 
		41.28,22.68 41.28,22.6 41.28,22.53 41.28,22.45 41.28,22.37 41.2,22.37 41.12,22.3 41.12,22.22 41.05,22.22 41.05,22.14 
		41.12,22.14 41.12,22.07 41.12,21.99 41.12,21.91 41.12,21.84 41.05,21.76 41.05,21.68 41.05,21.61 40.97,21.61 40.89,21.61 
		40.82,21.61 40.82,21.53 40.74,21.53 40.74,21.45 40.66,21.45 40.59,21.45 40.59,21.38 40.51,21.3 40.51,21.22 40.59,21.22 
		40.59,21.15 40.66,21.15 40.66,21.07 40.59,21.07 40.51,21.07 40.51,20.99 40.43,20.99 40.43,20.92 40.43,20.84 40.36,20.84 
		40.28,20.76 40.2,20.69 40.2,20.61 40.13,20.61 40.05,20.53 39.97,20.53 39.97,20.46 40.05,20.38 40.05,20.3 40.05,20.23 
		40.13,20.23 40.13,20.15 40.13,20.07 40.13,20 40.13,19.92 40.13,19.84 40.13,19.77 40.13,19.69 40.2,19.61 40.28,19.61 
		40.28,19.54 40.36,19.54 40.36,19.46 40.28,19.46 40.28,19.38 40.2,19.38 40.2,19.31 40.2,19.23 40.28,19.15 40.28,19.08 40.28,19 
		40.2,18.92 40.13,18.92 40.05,18.92 39.97,18.85 39.9,18.85 39.9,18.77 39.82,18.69 39.74,18.69 39.74,18.62 39.67,18.62 
		39.59,18.62 39.59,18.69 39.51,18.69 39.51,18.62 39.51,18.54 39.51,18.46 39.51,18.39 39.51,18.31 39.59,18.31 39.59,18.23 
		39.67,18.23 39.74,18.23 39.82,18.23 39.9,18.23 39.97,18.23 40.05,18.23 40.13,18.23 40.2,18.23 40.28,18.16 40.28,18.08 
		40.36,18.08 40.36,18 40.36,17.93 40.43,17.93 40.51,17.93 40.59,17.93 40.59,17.85 40.66,17.85 40.66,17.77 40.74,17.77 
		40.74,17.7 40.74,17.62 40.74,17.54 40.82,17.54 40.89,17.47 40.97,17.47 41.05,17.39 41.05,17.31 41.12,17.31 41.12,17.24 
		41.2,17.16 41.2,17.08 41.28,17.08 41.28,17.01 41.28,16.93 41.28,16.85 41.28,16.78 41.28,16.7 41.28,16.62 41.28,16.55 
		41.35,16.55 41.35,16.47 41.43,16.47 41.43,16.39 41.51,16.39 41.51,16.32 41.58,16.32 41.66,16.24 41.66,16.16 41.74,16.16 
		41.74,16.09 41.74,16.01 41.81,16.01 41.81,15.93 41.89,15.86 41.97,15.86 41.97,15.78 41.97,15.7 42.04,15.7 42.04,15.63 
		42.12,15.63 42.2,15.55 42.2,15.47 42.27,15.47 42.35,15.47 42.43,15.4 42.5,15.4 42.58,15.4 42.58,15.32 42.58,15.24 42.58,15.17 
		42.66,15.17 42.66,15.09 42.66,15.01 42.66,14.94 42.66,14.86 42.66,14.78 42.73,14.78 42.81,14.71 42.89,14.71 42.96,14.71 
		42.96,14.63 43.04,14.63 43.04,14.71 43.12,14.71 43.12,14.63 43.19,14.63 43.19,14.55 43.27,14.55 43.27,14.48 43.27,14.4 
		43.19,14.4 43.19,14.32 43.19,14.25 43.19,14.17 43.27,14.17 43.27,14.09 43.35,14.09 43.42,14.09 43.42,14.17 43.5,14.17 
		43.5,14.09 43.58,14.09 43.65,14.09 43.65,14.02 43.73,14.02 43.81,14.02 43.81,13.94 43.73,13.86 43.65,13.86 43.65,13.79 
		43.58,13.79 43.58,13.71 43.5,13.71 43.5,13.63 43.42,13.63 43.42,13.71 43.35,13.71 43.27,13.71 43.27,13.63 43.27,13.56 
		43.27,13.48 43.27,13.4 43.27,13.33 43.19,13.33 43.19,13.25 43.12,13.25 43.12,13.33 43.04,13.33 43.04,13.25 43.04,13.17 
		43.04,13.02 43.04,12.94 42.96,12.94 42.96,12.87 42.89,12.87 42.89,12.79 42.81,12.79 42.81,12.71 42.73,12.71 42.66,12.71 
		42.66,12.64 42.58,12.64 42.5,12.64 42.5,12.56 42.43,12.56 42.43,12.48 42.5,12.41 42.5,12.33 42.5,12.25 42.5,12.18 42.5,12.1 
		42.5,12.02 42.5,11.95 42.5,11.87 42.5,11.79 42.5,11.72 42.5,11.64 42.5,11.56 42.58,11.56 42.58,11.49 42.58,11.41 42.66,11.41 
		42.66,11.33 42.73,11.26 42.73,11.18 42.81,11.18 42.81,11.1 42.81,11.03 42.73,11.03 42.73,10.95 42.73,10.87 42.66,10.87 
		42.66,10.8 42.73,10.72 42.73,10.64 42.73,10.57 42.81,10.57 42.89,10.57 42.89,10.49 42.96,10.49 43.04,10.49 43.12,10.49 
		43.19,10.49 43.27,10.49 43.35,10.49 43.35,10.41 	"/>
	<polygon class="st0" points="51.47,0.22 51.55,0.14 51.63,0.14 51.7,0.14 51.7,0.22 51.78,0.22 51.86,0.14 51.93,0.14 52.01,0.14 
		52.09,0.14 52.16,0.14 52.24,0.14 52.24,0.22 52.24,0.29 52.32,0.37 52.32,0.45 52.24,0.45 52.24,0.52 52.24,0.75 52.24,0.83 
		52.16,0.91 52.16,0.98 52.24,0.98 52.32,1.06 52.39,1.06 52.47,1.06 52.55,1.06 52.55,1.14 52.55,1.21 52.62,1.29 52.7,1.37 
		52.7,1.44 52.7,1.52 52.7,1.6 52.78,1.6 52.85,1.67 52.85,1.75 52.85,1.83 52.93,1.9 53.01,1.9 53.08,1.83 53.16,1.83 53.24,1.83 
		53.31,1.83 53.39,1.83 53.47,1.83 53.47,1.75 53.54,1.67 53.54,1.6 53.54,1.52 53.62,1.6 53.7,1.6 53.77,1.6 53.85,1.6 53.93,1.52 
		53.93,1.44 54.08,1.37 54.16,1.29 54.23,1.29 54.31,1.21 54.39,1.21 54.46,1.21 54.54,1.29 54.54,1.37 54.54,1.44 54.62,1.44 
		54.69,1.44 54.77,1.52 54.85,1.52 54.85,1.6 54.92,1.67 55,1.75 55.08,1.83 55.15,1.83 55.23,1.9 55.31,1.9 55.38,1.9 55.46,1.9 
		55.54,1.9 55.54,1.83 55.61,1.9 55.69,1.9 55.69,1.98 55.77,1.98 55.84,1.98 55.84,2.06 55.92,2.06 55.92,2.13 56,2.21 56.07,2.29 
		56.15,2.36 56.23,2.44 56.3,2.44 56.38,2.44 56.46,2.44 56.46,2.52 56.46,2.59 56.38,2.67 56.38,2.75 56.38,2.82 56.46,2.82 
		56.38,2.9 56.46,2.9 56.46,2.98 56.53,2.98 56.53,3.05 56.53,3.13 56.61,3.13 56.61,3.21 56.69,3.21 56.61,3.28 56.69,3.28 
		56.76,3.36 56.76,3.44 56.84,3.44 56.92,3.44 56.99,3.44 57.07,3.44 57.07,3.51 57.15,3.51 57.15,3.59 57.22,3.67 57.3,3.67 
		57.38,3.67 57.45,3.67 57.45,3.74 57.53,3.74 57.61,3.74 57.68,3.82 57.68,3.9 57.76,3.97 57.76,4.05 57.84,4.05 57.91,4.05 
		57.99,3.97 58.07,4.05 58.07,3.97 58.14,3.97 58.14,3.9 58.22,3.9 58.3,3.9 58.37,3.97 58.37,4.05 58.37,4.13 58.45,4.2 58.37,4.2 
		58.37,4.28 58.37,4.36 58.45,4.36 58.53,4.36 58.53,4.43 58.6,4.43 58.6,4.51 58.6,4.59 58.68,4.59 58.68,4.66 58.68,4.74 
		58.68,4.82 58.68,4.89 58.6,4.89 58.6,4.97 58.53,5.05 58.45,5.05 58.45,5.12 58.45,5.2 58.45,5.28 58.45,5.35 58.45,5.43 
		58.53,5.43 58.6,5.51 58.6,5.58 58.6,5.66 58.68,5.66 58.68,5.74 58.76,5.74 58.76,5.81 58.84,5.81 58.91,5.81 58.91,5.89 
		58.99,6.04 59.07,6.12 59.14,6.2 59.14,6.12 59.22,6.12 59.3,6.12 59.3,6.04 59.37,6.04 59.45,6.04 59.45,6.12 59.53,6.12 
		59.6,6.12 59.68,6.12 59.68,6.04 59.76,6.04 59.76,5.97 59.83,5.97 59.91,5.97 59.91,5.89 59.99,5.89 59.99,5.81 60.06,5.81 
		60.06,5.89 60.14,5.89 60.22,5.89 60.29,5.89 60.37,5.89 60.37,5.97 60.45,5.97 60.52,5.89 60.6,5.89 60.68,5.89 60.68,5.81 
		60.75,5.81 60.83,5.81 60.91,5.81 60.98,5.81 60.98,5.89 60.98,5.97 61.06,5.97 61.06,5.89 61.14,5.89 61.21,5.89 61.29,5.81 
		61.29,5.74 61.37,5.74 61.44,5.74 61.44,5.66 61.52,5.66 61.6,5.66 61.6,5.74 61.67,5.74 61.67,5.66 61.75,5.66 61.75,5.58 
		61.83,5.58 61.9,5.58 61.9,5.51 61.98,5.51 61.98,5.43 62.06,5.43 62.13,5.43 62.13,5.35 62.21,5.28 62.29,5.28 62.29,5.2 
		62.36,5.2 62.44,5.2 62.52,5.2 62.59,5.28 62.67,5.28 62.75,5.35 62.67,5.35 62.67,5.43 62.75,5.43 62.82,5.43 62.9,5.43 
		62.98,5.43 62.98,5.35 62.98,5.28 63.05,5.28 63.13,5.28 63.21,5.28 63.21,5.2 63.28,5.2 63.36,5.2 63.36,5.28 63.44,5.35 
		63.44,5.43 63.51,5.43 63.51,5.35 63.59,5.35 63.67,5.35 63.74,5.35 63.82,5.35 63.82,5.43 63.9,5.43 63.97,5.43 64.05,5.43 
		64.13,5.43 64.13,5.51 64.2,5.51 64.2,5.58 64.28,5.58 64.28,5.66 64.36,5.66 64.36,5.58 64.43,5.58 64.43,5.51 64.43,5.43 
		64.51,5.35 64.59,5.28 64.66,5.28 64.74,5.2 64.82,5.2 64.82,5.12 64.89,5.12 64.97,5.12 65.05,5.12 65.12,5.12 65.12,5.05 
		65.2,5.05 65.2,4.97 65.28,4.97 65.35,5.05 65.43,5.05 65.51,5.12 65.58,5.12 65.66,5.12 65.74,5.12 65.74,5.2 65.81,5.2 
		65.81,5.28 65.81,5.35 65.89,5.43 65.97,5.43 66.04,5.43 66.12,5.43 66.2,5.51 66.2,5.43 66.27,5.43 66.35,5.35 66.43,5.35 
		66.5,5.35 66.58,5.35 66.58,5.43 66.66,5.43 66.73,5.35 66.81,5.35 66.89,5.35 66.96,5.35 67.04,5.28 67.12,5.35 67.19,5.35 
		67.19,5.43 67.27,5.43 67.35,5.43 67.42,5.43 67.5,5.43 67.58,5.43 67.65,5.43 67.73,5.43 67.73,5.35 67.81,5.35 67.88,5.35 
		67.88,5.28 67.96,5.28 68.04,5.28 68.11,5.28 68.19,5.28 68.19,5.35 68.19,5.43 68.27,5.51 68.34,5.51 68.42,5.51 68.42,5.58 
		68.5,5.58 68.5,5.66 68.5,5.74 68.57,5.89 68.5,5.89 68.5,5.97 68.5,6.04 68.5,6.12 68.57,6.2 68.57,6.27 68.57,6.35 68.57,6.43 
		68.57,6.5 68.57,6.58 68.57,6.66 68.57,6.73 68.5,6.73 68.5,6.81 68.5,6.89 68.57,6.96 68.65,7.04 68.65,7.12 68.73,7.12 
		68.8,7.12 68.88,7.12 68.96,7.12 68.96,7.19 69.03,7.19 69.03,7.27 69.11,7.35 69.11,7.42 69.19,7.42 69.26,7.5 69.34,7.5 
		69.34,7.58 69.34,7.65 69.34,7.73 69.42,7.73 69.42,7.81 69.49,7.81 69.57,7.88 69.65,7.88 69.72,7.88 69.8,7.96 69.88,7.96 
		69.88,8.04 69.88,8.11 69.95,8.19 70.03,8.27 70.18,8.34 70.26,8.34 70.34,8.34 70.34,8.42 70.41,8.5 70.49,8.5 70.57,8.5 
		70.57,8.42 70.64,8.42 70.72,8.42 70.72,8.5 70.72,8.57 70.72,8.65 70.72,8.73 70.72,8.8 70.8,8.8 70.8,8.88 70.87,8.96 
		70.95,9.03 71.03,9.03 71.1,9.03 71.18,9.03 71.26,9.03 71.33,9.03 71.33,9.11 71.41,9.11 71.49,9.19 71.49,9.26 71.41,9.26 
		71.41,9.34 71.41,9.42 71.33,9.42 71.33,9.49 71.33,9.57 71.33,9.65 71.41,9.65 71.41,9.72 71.41,9.8 71.41,9.88 71.41,9.95 
		71.41,10.03 71.33,10.03 71.33,10.11 71.33,10.18 71.33,10.26 44.8,10.26 44.88,10.18 44.96,10.18 45.03,10.18 45.11,10.18 
		45.19,10.18 45.26,10.18 45.26,10.11 45.34,10.11 45.42,10.03 45.49,10.03 45.57,10.03 45.57,9.95 45.65,9.95 45.72,9.95 
		45.8,9.88 45.88,9.88 45.88,9.8 45.95,9.8 46.03,9.8 46.03,9.72 46.11,9.72 46.11,9.65 46.18,9.65 46.26,9.65 46.26,9.72 
		46.34,9.72 46.34,9.65 46.41,9.65 46.41,9.72 46.41,9.8 46.49,9.8 46.57,9.8 46.64,9.8 46.72,9.8 46.8,9.8 46.87,9.8 46.95,9.8 
		46.87,9.72 46.87,9.65 46.95,9.57 47.03,9.57 47.1,9.57 47.18,9.57 47.26,9.49 47.41,9.49 47.49,9.49 47.56,9.42 47.56,9.34 
		47.56,9.26 47.56,9.19 47.56,9.11 47.56,9.03 47.49,8.96 47.56,8.88 47.56,8.8 47.56,8.73 47.56,8.65 47.49,8.65 47.49,8.57 
		47.41,8.5 47.49,8.5 47.49,8.42 47.49,8.34 47.56,8.27 47.56,8.19 47.56,8.11 47.49,8.04 47.49,7.96 47.56,7.96 47.64,7.96 
		47.72,7.96 47.72,8.04 47.79,7.96 47.87,7.96 47.87,7.88 47.87,7.81 47.87,7.73 47.95,7.73 48.02,7.73 48.02,7.81 48.1,7.81 
		48.18,7.81 48.25,7.88 48.33,7.88 48.41,7.88 48.48,7.88 48.48,7.96 48.56,7.96 48.56,8.04 48.64,8.04 48.71,8.04 48.71,7.96 
		48.79,7.96 48.87,7.96 48.94,7.96 48.94,7.88 49.02,7.88 49.1,7.96 49.17,7.96 49.25,7.88 49.25,7.81 49.33,7.81 49.4,7.88 
		49.48,7.88 49.56,7.88 49.63,7.88 49.71,7.88 49.79,7.88 49.79,7.81 49.71,7.73 49.79,7.73 49.86,7.73 49.94,7.65 50.02,7.65 
		50.02,7.58 50.09,7.58 50.09,7.65 50.17,7.65 50.25,7.65 50.25,7.58 50.25,7.5 50.32,7.5 50.32,7.42 50.32,7.35 50.32,7.27 
		50.4,7.27 50.48,7.19 50.48,7.12 50.48,7.04 50.48,6.96 50.48,6.89 50.48,6.81 50.4,6.81 50.4,6.73 50.48,6.66 50.4,6.58 
		50.32,6.58 50.25,6.5 50.17,6.43 50.09,6.43 50.02,6.35 49.94,6.27 49.94,6.2 50.02,6.2 50.02,6.12 50.09,6.12 50.09,6.04 
		50.02,6.04 50.02,5.97 50.02,5.89 49.94,5.89 49.94,5.81 49.86,5.81 49.86,5.74 49.86,5.66 49.86,5.58 49.94,5.51 49.94,5.43 
		49.94,5.35 49.94,5.28 49.94,5.2 50.02,5.2 50.09,5.12 50.09,5.05 50.09,4.97 50.02,4.97 50.02,4.89 49.94,4.89 49.94,4.82 
		49.86,4.82 49.86,4.74 49.79,4.66 49.79,4.59 49.79,4.51 49.71,4.51 49.71,4.43 49.71,4.36 49.71,4.28 49.79,4.28 49.79,4.2 
		49.71,4.2 49.71,4.13 49.71,4.05 49.79,4.05 49.86,4.05 49.94,4.05 49.94,3.97 50.02,3.97 50.02,3.9 49.94,3.9 49.94,3.82 
		49.94,3.74 49.94,3.67 49.94,3.59 49.94,3.51 49.94,3.44 50.02,3.36 50.02,3.28 50.09,3.21 50.09,3.13 50.02,3.05 50.02,2.98 
		50.09,2.98 50.09,2.9 50.09,2.82 50.09,2.75 50.09,2.67 50.09,2.59 50.09,2.52 50.17,2.52 50.17,2.44 50.17,2.36 50.25,2.29 
		50.25,2.21 50.25,2.13 50.25,2.06 50.25,1.98 50.17,1.98 50.17,1.9 50.09,1.9 50.09,1.83 50.09,1.75 50.09,1.67 50.09,1.6 
		50.17,1.6 50.17,1.52 50.09,1.44 50.09,1.37 50.09,1.29 50.09,1.21 50.09,1.14 50.17,1.06 50.17,0.98 50.17,0.91 50.17,0.83 
		50.25,0.83 50.32,0.75 50.32,0.68 50.32,0.6 50.25,0.6 50.25,0.52 50.17,0.52 50.17,0.45 50.09,0.45 50.09,0.37 50.17,0.37 
		50.25,0.29 50.32,0.29 50.4,0.29 50.48,0.29 50.55,0.22 50.63,0.14 50.71,0.06 50.71,-0.01 50.71,-0.09 50.78,-0.09 50.78,-0.01 
		50.86,0.06 50.86,0.14 50.86,0.22 50.94,0.22 51.01,0.29 51.01,0.37 51.09,0.37 51.09,0.45 51.17,0.45 51.24,0.45 51.32,0.45 
		51.4,0.45 51.4,0.37 51.47,0.37 51.47,0.29 	"/>
</g>
</svg>
