<?xml version="1.0" encoding="utf-8"?>
<!-- Generator: Adobe Illustrator 24.2.1, SVG Export Plug-In . SVG Version: 6.00 Build 0)  -->
<svg version="1.1" id="Layer_1" xmlns="http://www.w3.org/2000/svg" xmlns:xlink="http://www.w3.org/1999/xlink" x="0px" y="0px"
	 viewBox="0 0 97.23 97.23" style="enable-background:new 0 0 97.23 97.23;" xml:space="preserve">
<style type="text/css">
	.st0{fill-rule:evenodd;clip-rule:evenodd;}
</style>
<polygon class="st0" points="63.12,74.86 63.12,74.96 63.12,75.06 63.02,75.06 63.02,75.16 62.92,75.16 62.92,75.26 63.02,75.37 
	63.02,75.47 62.92,75.57 62.82,75.57 62.72,75.67 62.62,75.77 62.62,75.87 62.62,75.97 62.52,75.97 62.52,76.07 62.52,76.17 
	62.52,76.27 62.42,76.27 62.31,76.27 62.21,76.27 62.11,76.27 62.01,76.27 61.91,76.27 61.81,76.27 61.71,76.27 61.61,76.27 
	61.51,76.27 61.51,76.37 61.41,76.47 61.41,76.58 61.31,76.68 61.21,76.78 61.1,76.88 61,76.88 61,76.98 60.9,76.98 60.9,77.08 
	60.8,77.28 60.7,77.28 60.7,77.38 60.6,77.38 60.5,77.38 60.5,77.48 60.4,77.48 60.4,77.58 60.3,77.68 60.2,77.68 60.1,77.68 
	59.99,77.68 59.89,77.79 59.79,77.89 59.79,77.99 59.69,78.09 59.59,78.09 59.59,78.19 59.49,78.29 59.39,78.29 59.39,78.39 
	59.29,78.39 59.19,78.39 59.09,78.39 58.99,78.49 58.89,78.49 58.78,78.59 58.68,78.59 58.58,78.59 58.58,78.69 58.48,78.79 
	58.48,78.89 58.38,79 58.38,79.1 58.28,79.2 58.18,79.2 58.08,79.2 57.98,79.2 57.88,79.2 57.78,79.2 57.68,79.2 57.57,79.3 
	57.47,79.3 57.47,79.2 57.37,79.3 57.27,79.3 57.17,79.4 57.17,79.5 57.17,79.6 57.17,79.7 57.17,79.8 57.17,79.9 57.07,79.9 
	57.07,80 56.97,80 56.87,80.11 56.77,80.21 56.77,80.31 56.67,80.41 56.67,80.51 56.57,80.51 56.47,80.61 56.47,80.71 56.36,80.81 
	56.36,80.91 56.36,81.01 56.26,81.01 56.16,81.01 56.06,81.01 56.06,81.11 56.06,81.21 56.06,81.32 55.96,81.42 55.86,81.42 
	55.76,81.52 55.76,81.62 55.66,81.62 55.66,81.72 55.56,81.72 55.56,81.82 55.46,81.82 55.36,81.82 55.36,81.92 55.25,81.92 
	55.25,82.02 55.15,82.12 55.15,82.22 55.05,82.22 55.05,82.32 55.05,82.42 54.95,82.42 54.85,82.42 54.85,82.53 54.75,82.53 
	54.65,82.53 54.55,82.63 54.45,82.63 54.35,82.63 54.25,82.63 54.25,82.73 54.15,82.73 54.15,82.83 54.04,82.83 54.04,82.93 
	53.94,83.03 53.84,83.03 53.84,83.13 53.84,83.23 53.84,83.33 53.84,83.43 53.74,83.43 53.74,83.53 53.74,83.63 53.74,83.74 
	53.64,83.74 53.64,83.84 53.54,83.84 53.54,83.94 53.54,84.04 53.54,84.14 53.54,84.24 53.64,84.24 53.64,84.34 53.74,84.34 
	53.74,84.44 53.74,84.54 53.84,84.54 53.84,84.64 53.94,84.64 54.04,84.64 54.15,84.74 54.15,84.85 54.25,84.85 54.25,84.95 
	54.25,85.05 54.15,85.05 54.15,85.15 54.15,85.25 54.04,85.25 54.04,85.35 53.94,85.45 53.84,85.55 53.74,85.55 53.74,85.65 
	53.64,85.65 53.54,85.75 53.44,85.75 53.44,85.85 53.34,85.85 53.34,85.95 53.24,85.95 53.24,86.06 53.24,86.16 53.34,86.26 
	53.34,86.36 53.34,86.46 53.24,86.46 53.24,86.56 53.24,86.76 53.14,86.86 53.14,86.96 53.14,87.06 53.24,87.06 53.24,87.16 
	53.24,87.27 53.24,87.37 53.34,87.37 53.34,87.47 53.34,87.57 53.34,87.67 53.44,87.77 53.54,87.77 53.54,87.87 53.64,87.87 
	53.64,87.97 53.64,88.07 53.54,88.07 53.44,88.17 53.34,88.27 53.24,88.27 53.14,88.27 53.04,88.27 53.04,88.37 52.94,88.37 
	52.94,88.48 52.83,88.48 52.73,88.48 52.63,88.48 52.53,88.58 52.43,88.68 52.33,88.68 52.33,88.78 52.23,88.78 52.13,88.68 
	52.03,88.68 52.03,88.58 51.93,88.58 51.93,88.48 51.93,88.58 51.83,88.58 51.83,88.68 51.73,88.78 51.73,88.88 51.62,88.98 
	51.62,89.08 51.52,89.08 51.42,89.08 51.42,89.18 51.32,89.18 51.32,89.28 51.32,89.38 51.22,89.48 51.22,89.59 51.32,89.69 
	51.32,89.79 51.32,89.89 51.32,89.99 51.32,90.09 51.42,90.09 51.42,90.19 51.42,90.29 51.42,90.39 51.52,90.39 51.42,90.39 
	51.42,90.49 51.32,90.49 51.22,90.59 51.12,90.69 51.02,90.69 50.92,90.8 50.82,90.9 50.72,90.9 50.72,91 50.62,91.1 50.62,91.2 
	50.51,91.3 50.41,91.3 50.41,91.4 50.41,91.5 50.31,91.6 50.31,91.7 50.21,91.8 50.21,91.9 50.11,92.01 50.11,92.11 50.01,92.31 
	50.11,92.41 50.11,92.51 50.01,92.61 49.91,92.61 49.71,92.71 49.61,92.71 49.51,92.71 49.41,92.71 49.3,92.61 49.2,92.61 
	49.2,92.71 49.1,92.71 49.1,92.61 49,92.61 48.9,92.61 48.8,92.71 48.7,92.71 48.6,92.71 48.5,92.61 48.4,92.61 48.4,92.51 
	48.3,92.51 48.3,92.61 48.2,92.61 48.2,92.71 48.09,92.71 48.09,92.81 47.99,92.81 47.89,92.81 47.89,92.91 47.79,92.91 
	47.79,93.01 47.69,93.11 47.69,93.22 47.69,93.32 47.69,93.42 47.69,93.52 47.69,93.62 47.59,93.72 47.59,93.82 47.49,93.92 
	47.49,94.02 47.39,94.02 47.39,94.12 47.39,94.22 47.29,94.22 47.29,94.32 47.19,94.32 47.09,94.32 47.09,94.43 46.99,94.53 
	46.88,94.53 46.88,94.63 46.88,94.53 46.78,94.53 46.78,94.63 46.68,94.73 46.58,94.83 46.48,94.83 46.48,94.93 46.38,94.93 
	46.38,95.13 46.28,95.13 46.28,95.23 46.18,95.23 46.18,95.33 46.18,95.43 46.08,95.43 45.98,95.43 45.98,95.54 45.98,95.64 
	45.88,95.64 45.88,95.74 45.67,95.84 45.67,95.94 45.57,95.94 45.47,96.04 45.37,95.94 45.27,95.94 45.17,95.94 45.07,95.94 
	45.07,95.84 44.97,95.84 44.87,95.84 44.77,95.84 44.67,95.84 44.56,95.84 44.46,95.84 44.36,95.84 44.26,95.84 44.26,95.74 
	44.16,95.74 44.06,95.84 43.96,95.84 43.86,95.84 43.76,95.74 43.66,95.74 43.66,95.84 43.56,95.84 43.56,95.74 43.45,95.74 
	43.35,95.74 43.25,95.64 43.15,95.64 43.05,95.64 43.05,95.54 43.05,95.64 42.95,95.64 42.85,95.64 42.75,95.64 42.65,95.64 
	42.55,95.64 42.55,95.74 42.45,95.64 42.35,95.64 42.24,95.64 42.24,95.74 42.14,95.74 42.04,95.74 42.04,95.84 42.04,95.94 
	41.94,95.94 41.84,95.94 41.74,95.94 41.74,95.84 41.64,95.84 41.54,95.94 41.54,96.04 41.44,96.04 41.44,95.94 41.34,95.94 
	41.34,96.04 41.24,96.04 41.14,95.94 41.03,95.94 41.03,96.04 41.03,95.94 40.93,95.94 40.93,95.84 41.03,95.84 41.03,95.74 
	40.93,95.74 40.83,95.74 40.83,95.64 40.73,95.64 40.73,95.54 40.63,95.43 40.63,95.33 40.63,95.23 40.53,95.13 40.43,95.03 
	40.33,94.93 40.23,94.93 40.13,94.83 40.03,94.83 39.93,94.83 39.82,94.83 39.82,94.93 39.72,94.93 39.62,94.93 39.42,94.93 
	39.22,95.03 39.12,95.03 39.02,94.93 38.92,94.93 38.92,94.83 38.82,94.83 38.72,94.83 38.51,94.83 38.41,94.83 38.21,94.73 
	38.01,94.73 37.91,94.73 37.81,94.63 37.71,94.73 37.61,94.73 37.5,94.73 37.4,94.73 37.3,94.73 37.1,94.63 36.9,94.53 36.7,94.32 
	36.6,94.32 36.5,94.32 36.4,94.43 36.29,94.43 36.19,94.53 36.09,94.63 35.89,94.73 35.69,94.93 35.49,94.93 35.39,94.93 
	35.19,94.93 35.08,94.83 34.88,94.73 34.78,94.73 34.68,94.73 34.58,94.83 34.58,94.93 34.48,95.03 34.38,95.13 34.28,95.23 
	34.18,95.13 34.08,95.03 33.97,95.03 33.87,95.13 33.77,95.13 33.67,95.23 33.57,95.23 33.47,95.23 33.37,95.13 33.17,95.03 
	32.97,94.93 32.76,94.93 32.36,94.93 31.96,94.93 31.86,94.93 31.76,94.93 31.66,94.93 31.55,94.93 31.55,94.83 31.45,94.83 
	31.35,94.83 31.25,94.83 31.05,94.83 31.05,94.73 30.95,94.73 30.85,94.73 30.85,94.63 30.75,94.63 30.75,94.53 30.65,94.53 
	30.65,94.43 30.55,94.43 30.45,94.43 30.45,94.53 30.34,94.53 30.34,94.63 30.24,94.63 30.14,94.53 30.04,94.53 29.94,94.43 
	29.74,94.43 29.64,94.43 29.54,94.32 29.44,94.32 29.34,94.32 29.23,94.43 29.13,94.53 29.03,94.63 29.03,94.73 29.03,94.83 
	28.93,94.93 28.93,95.03 28.83,95.03 28.73,95.03 28.73,94.93 28.63,94.93 28.53,94.93 28.43,94.93 28.33,95.03 28.23,95.03 
	28.23,95.13 28.13,95.13 28.02,95.13 27.92,95.13 27.92,95.23 27.82,95.23 27.82,95.33 27.72,95.43 27.72,95.54 27.62,95.54 
	27.62,95.64 27.52,95.74 27.42,95.94 27.32,96.04 27.22,96.04 27.22,96.14 27.12,96.24 27.02,96.24 27.02,96.34 26.92,96.34 
	26.81,96.34 26.81,96.44 26.71,96.44 26.61,96.44 26.61,96.54 26.51,96.54 26.41,96.64 26.31,96.64 26.21,96.75 26.21,96.85 
	26.11,96.85 26.01,96.85 25.91,96.75 25.81,96.64 25.7,96.54 25.6,96.44 25.6,96.34 25.6,96.24 25.6,96.14 25.7,96.14 25.7,96.04 
	25.7,95.94 25.7,95.84 25.7,95.74 25.7,95.64 25.7,95.54 25.6,95.43 25.6,95.33 25.5,95.23 25.4,95.23 25.4,95.13 25.3,95.03 
	25.3,94.93 25.2,94.83 25.2,94.73 25.2,94.63 25.2,94.53 25.2,94.43 25.3,94.43 25.3,94.32 25.3,94.22 25.2,94.22 25.2,94.12 
	25.2,94.02 25.1,94.02 25,93.92 25,93.82 24.9,93.82 25,93.72 25.1,93.62 25.1,93.42 25.2,93.42 25.2,93.32 25.3,93.32 25.3,93.22 
	25.3,93.11 25.2,93.11 25.1,93.01 25,92.91 24.9,92.81 24.8,92.81 24.8,92.71 24.7,92.71 24.6,92.71 24.49,92.61 24.49,92.51 
	24.6,92.41 24.6,92.31 24.6,92.21 24.49,92.21 24.49,92.11 24.6,92.01 24.6,91.9 24.7,91.9 24.7,91.8 24.7,91.7 24.7,91.6 
	24.6,91.5 24.6,91.4 24.49,91.2 24.39,91.1 24.39,91 24.29,90.9 24.29,90.8 24.29,90.69 24.29,90.59 24.39,90.49 24.39,90.39 
	24.39,90.29 24.39,90.19 24.49,90.19 24.49,90.09 24.6,89.89 24.6,89.79 24.6,89.69 24.6,89.59 24.7,89.48 24.8,89.38 24.9,89.38 
	25,89.38 25.1,89.38 25.2,89.38 25.3,89.28 25.3,89.18 25.4,89.18 25.4,89.08 25.4,88.98 25.5,88.88 25.5,88.78 25.5,88.68 
	25.6,88.68 25.6,88.58 25.6,88.48 25.7,88.48 25.81,88.48 25.81,88.58 25.91,88.58 26.01,88.58 26.11,88.58 26.21,88.58 
	26.31,88.58 26.41,88.68 26.51,88.68 26.61,88.68 26.71,88.68 26.81,88.68 26.92,88.68 27.02,88.58 27.12,88.58 27.12,88.48 
	27.22,88.48 27.22,88.37 27.32,88.27 27.32,88.17 27.42,88.07 27.42,87.97 27.42,87.87 27.52,87.67 27.62,87.57 27.62,87.47 
	27.62,87.37 27.62,87.27 27.62,87.16 27.62,87.06 27.62,86.96 27.62,86.86 27.62,86.76 27.62,86.66 27.72,86.66 27.72,86.56 
	27.72,86.46 27.82,86.46 27.82,86.36 27.92,86.36 27.92,86.26 28.02,86.26 28.02,86.16 28.02,86.06 28.02,85.95 28.02,85.85 
	28.02,85.75 28.02,85.65 27.92,85.65 27.92,85.55 27.92,85.45 27.92,85.35 27.82,85.25 27.72,85.15 27.72,85.05 27.72,84.95 
	27.82,84.95 27.92,84.85 28.02,84.85 28.02,84.74 28.02,84.64 28.13,84.64 28.13,84.54 28.13,84.44 28.13,84.34 28.13,84.24 
	28.13,84.14 28.13,84.04 28.23,84.04 28.23,83.94 28.33,83.94 28.33,83.84 28.33,83.74 28.43,83.74 28.53,83.63 28.53,83.53 
	28.53,83.43 28.53,83.33 28.53,83.23 28.63,83.13 28.63,83.03 28.63,82.93 28.73,82.83 28.73,82.73 28.73,82.63 28.73,82.53 
	28.83,82.53 28.83,82.42 28.93,82.42 28.93,82.32 29.03,82.22 28.93,82.22 28.93,82.12 28.93,82.02 29.03,82.02 29.03,81.92 
	29.03,81.82 29.13,81.82 29.23,81.82 29.34,81.72 29.44,81.62 29.54,81.52 29.64,81.42 29.84,81.32 29.94,81.21 29.94,81.11 
	29.84,81.01 29.84,80.91 29.74,80.91 29.74,80.81 29.64,80.81 29.64,80.71 29.54,80.71 29.44,80.71 29.44,80.61 29.34,80.51 
	29.34,80.41 29.34,80.31 29.34,80.21 29.44,80.11 29.54,80 29.44,79.9 29.44,79.8 29.34,79.8 29.34,79.7 29.23,79.6 29.23,79.5 
	29.23,79.4 29.23,79.3 29.23,79.2 29.23,79.1 29.13,79.1 29.23,79 29.13,78.89 29.13,78.79 29.13,78.69 29.23,78.69 29.23,78.59 
	29.23,78.49 29.34,78.49 29.44,78.49 29.44,78.39 29.54,78.39 29.54,78.29 29.64,78.19 29.64,78.09 29.64,77.99 29.64,77.89 
	29.74,77.89 29.84,77.89 29.84,77.79 29.84,77.68 29.84,77.58 29.74,77.58 29.64,77.58 29.64,77.48 29.54,77.48 29.44,77.48 
	29.34,77.48 29.23,77.38 29.34,77.28 29.34,77.18 29.23,77.08 29.13,76.98 29.23,76.98 29.34,76.98 29.44,76.98 29.54,76.98 
	29.64,76.88 29.74,76.88 29.84,76.88 29.94,76.88 30.04,76.88 30.04,76.78 30.14,76.58 30.24,76.58 30.34,76.47 30.45,76.37 
	30.55,76.37 30.55,76.27 30.55,76.07 30.55,75.97 30.55,75.87 30.65,75.77 30.65,75.67 30.75,75.57 30.85,75.47 30.85,75.26 
	30.85,75.16 30.85,75.06 30.95,74.86 31.05,74.76 31.05,74.66 31.25,74.56 31.35,74.46 31.55,74.56 31.76,74.66 31.96,74.56 
	32.16,74.56 32.26,74.56 32.36,74.36 32.36,74.26 32.46,74.15 32.46,74.05 32.56,73.95 32.56,73.75 32.66,73.75 32.76,73.65 
	32.87,73.45 32.87,73.35 32.97,73.25 32.97,73.15 33.07,73.05 33.07,72.84 33.07,72.74 33.07,72.64 33.07,72.54 33.07,72.34 
	32.97,72.14 32.97,72.04 32.87,71.94 32.87,71.84 32.87,71.63 32.97,71.43 32.97,71.33 32.97,71.13 32.97,71.03 32.97,70.93 
	32.97,70.73 32.97,70.52 32.87,70.52 32.76,70.32 32.76,70.12 32.66,70.02 32.66,69.92 32.66,69.72 32.66,69.62 32.66,69.52 
	32.56,69.42 32.56,69.21 32.56,69.11 32.56,69.01 32.56,68.81 32.26,68.71 32.06,68.81 31.96,69.01 31.86,69.01 31.76,69.11 
	31.55,69.11 31.55,69.31 31.45,69.42 31.35,69.52 31.15,69.62 30.95,69.62 30.85,69.52 30.75,69.62 30.55,69.72 30.45,69.72 
	30.34,69.62 30.04,69.62 29.94,69.62 29.94,69.72 29.84,69.72 29.74,69.62 29.64,69.52 29.54,69.52 29.44,69.42 29.34,69.31 
	29.23,69.31 29.23,69.21 29.13,69.21 29.13,69.11 29.13,69.01 29.03,69.01 29.03,68.91 28.93,68.91 28.93,68.81 28.93,68.71 
	28.93,68.61 28.93,68.51 28.83,68.51 28.73,68.51 28.73,68.61 28.63,68.61 28.53,68.71 28.43,68.61 28.43,68.71 28.33,68.71 
	28.23,68.71 28.13,68.71 28.02,68.71 27.92,68.71 27.82,68.61 27.72,68.51 27.62,68.51 27.52,68.51 27.52,68.41 27.42,68.41 
	27.32,68.51 27.22,68.41 27.12,68.51 27.12,68.61 27.12,68.71 27.02,68.81 27.02,68.71 26.92,68.71 26.92,68.61 26.81,68.61 
	26.81,68.51 26.71,68.51 26.71,68.41 26.61,68.31 26.61,68.2 26.51,68.2 26.41,68.2 26.41,68.31 26.31,68.31 26.21,68.31 
	26.21,68.41 26.11,68.41 26.01,68.41 25.91,68.41 25.91,68.51 25.81,68.51 25.7,68.61 25.6,68.81 25.6,68.91 25.6,69.01 25.6,69.11 
	25.6,69.21 25.5,69.21 25.4,69.31 25.3,69.31 25.3,69.21 25.2,69.21 25.1,69.21 25.1,69.11 25,69.11 24.9,69.11 24.8,69.11 
	24.8,69.01 24.7,69.01 24.7,69.11 24.6,69.11 24.49,69.01 24.49,68.91 24.49,68.81 24.6,68.81 24.6,68.71 24.6,68.61 24.49,68.61 
	24.49,68.51 24.39,68.51 24.29,68.51 24.39,68.41 24.39,68.31 24.39,68.2 24.39,68.1 24.39,68 24.29,68 24.29,67.9 24.19,67.9 
	24.19,67.8 24.19,67.7 24.09,67.7 23.99,67.6 23.89,67.6 23.79,67.5 23.89,67.4 23.89,67.3 23.99,67.2 23.99,67.1 24.09,66.99 
	24.09,66.89 24.19,66.89 24.19,66.79 24.29,66.79 24.29,66.69 24.29,66.59 24.29,66.49 24.29,66.39 24.29,66.29 24.19,66.29 
	24.19,66.19 24.09,66.19 24.09,65.99 23.99,65.89 23.89,65.78 23.89,65.68 23.89,65.58 23.89,65.48 23.89,65.38 23.89,65.28 
	23.89,65.08 23.89,64.98 23.89,64.88 23.89,64.78 23.79,64.78 23.69,64.78 23.59,64.68 23.49,64.68 23.39,64.57 23.28,64.57 
	23.28,64.47 23.18,64.47 23.08,64.37 22.98,64.37 22.88,64.37 22.88,64.27 22.98,64.27 22.98,64.17 23.08,64.07 23.08,63.97 
	23.18,63.97 23.18,63.87 23.18,63.77 23.18,63.67 23.18,63.57 23.18,63.46 23.28,63.36 23.28,63.26 23.28,63.16 23.28,63.06 
	23.28,62.96 23.18,62.96 23.18,62.86 23.28,62.76 23.28,62.66 23.28,62.56 23.28,62.46 23.28,62.36 23.28,62.25 23.28,62.15 
	23.28,62.05 23.28,61.95 23.28,61.85 23.28,61.75 23.28,61.65 23.39,61.55 23.39,61.45 23.49,61.45 23.49,61.35 23.49,61.25 
	23.49,61.15 23.49,61.04 23.49,60.94 23.59,60.94 23.69,60.84 23.79,60.84 23.79,60.94 23.89,60.94 23.99,60.84 24.09,60.84 
	24.19,60.84 24.29,60.84 24.29,60.74 24.29,60.64 24.19,60.54 24.19,60.44 24.19,60.34 24.09,60.34 24.09,60.24 24.09,60.14 
	23.99,60.14 23.89,60.14 23.89,60.04 23.79,60.04 23.69,60.04 23.59,60.14 23.49,60.14 23.39,60.14 23.28,60.14 23.18,60.24 
	23.08,60.24 23.08,60.14 22.98,60.14 22.98,60.04 22.88,60.04 22.78,60.14 22.78,60.04 22.68,60.04 22.68,59.94 22.58,59.83 
	22.48,59.83 22.48,59.73 22.38,59.73 22.38,59.63 22.28,59.63 22.28,59.53 22.28,59.43 22.28,59.33 22.28,59.23 22.28,59.13 
	22.28,59.03 22.28,58.93 22.28,58.83 22.18,58.83 22.18,58.93 22.07,58.93 22.07,58.83 21.97,58.83 21.97,58.72 21.97,58.62 
	22.07,58.62 22.07,58.52 22.07,58.42 22.07,58.32 21.97,58.32 21.97,58.22 21.97,58.12 22.07,58.12 22.07,58.02 21.97,58.02 
	21.97,57.92 21.97,57.82 21.87,57.82 21.87,57.72 21.77,57.62 21.87,57.62 21.87,57.51 21.97,57.51 21.97,57.41 21.97,57.31 
	22.07,57.31 22.18,57.21 22.18,57.11 22.18,57.01 22.18,56.91 22.28,56.91 22.28,56.81 22.28,56.71 22.28,56.61 22.28,56.51 
	22.38,56.51 22.38,56.41 22.48,56.3 22.48,56.2 22.48,56.1 22.48,56 22.58,56 22.68,55.9 22.78,55.9 22.88,55.9 22.88,55.8 
	22.98,55.7 23.08,55.6 23.18,55.5 23.18,55.4 23.28,55.3 23.28,55.2 23.28,55.09 23.39,55.09 23.39,54.99 23.49,54.99 23.49,54.89 
	23.59,54.89 23.59,54.99 23.69,54.99 23.79,54.99 23.79,54.89 23.89,54.89 23.89,54.79 23.79,54.79 23.79,54.69 23.79,54.59 
	23.89,54.49 23.89,54.39 23.89,54.29 23.89,54.19 23.99,54.19 23.99,54.09 23.99,53.98 23.89,53.98 23.79,53.98 23.79,53.88 
	23.69,53.88 23.59,53.88 23.49,53.88 23.39,53.98 23.28,53.98 23.28,53.88 23.18,53.88 23.08,53.88 22.98,53.88 22.88,53.88 
	22.78,53.78 22.68,53.78 22.58,53.78 22.48,53.78 22.48,53.68 22.38,53.68 22.28,53.58 22.18,53.48 22.07,53.48 22.07,53.38 
	22.18,53.28 22.18,53.18 22.18,53.08 22.07,52.98 22.07,52.88 22.07,52.77 22.18,52.77 22.18,52.67 22.28,52.67 22.28,52.57 
	22.28,52.47 22.18,52.37 22.18,52.27 22.18,52.17 22.28,52.17 22.28,52.07 22.38,52.07 22.38,51.97 22.28,51.87 22.28,51.77 
	22.18,51.77 22.07,51.67 22.07,51.56 21.97,51.56 21.87,51.56 21.77,51.56 21.67,51.46 21.57,51.46 21.47,51.46 21.37,51.46 
	21.27,51.46 21.27,51.56 21.17,51.56 21.17,51.46 21.07,51.46 20.96,51.46 20.96,51.36 20.86,51.36 20.96,51.26 20.96,51.16 
	20.86,51.06 20.86,50.96 20.86,50.86 20.96,50.76 20.96,50.66 21.07,50.45 21.07,50.35 21.07,50.25 21.17,50.25 21.17,50.15 
	21.17,50.05 21.27,50.05 21.27,49.95 21.27,49.85 21.37,49.85 21.37,49.75 21.27,49.75 21.17,49.65 21.07,49.65 21.07,49.55 
	21.07,49.45 20.96,49.45 20.96,49.35 21.07,49.35 21.07,49.24 20.96,49.24 20.96,49.14 21.07,49.14 21.07,49.04 21.17,49.04 
	21.27,49.04 21.37,49.04 21.47,49.04 21.47,48.94 21.57,48.94 21.47,48.84 21.47,48.74 21.47,48.64 21.57,48.54 21.67,48.54 
	21.67,48.44 21.77,48.44 21.77,48.34 21.87,48.34 21.87,48.24 21.97,48.14 22.07,48.03 22.18,48.03 22.18,47.93 22.28,47.93 
	22.28,47.83 22.38,47.83 22.38,47.73 22.38,47.63 22.48,47.53 22.48,47.43 22.48,47.33 22.48,47.23 22.48,47.13 22.38,47.03 
	22.38,46.93 22.38,46.82 22.38,46.72 22.48,46.72 22.48,46.62 22.48,46.52 22.48,46.42 22.58,46.42 22.58,46.32 22.68,46.32 
	22.68,46.22 22.78,46.22 22.88,46.12 22.88,46.02 22.98,46.02 22.98,45.92 23.08,45.82 23.18,45.82 23.18,45.71 23.28,45.71 
	23.39,45.61 23.39,45.51 23.49,45.51 23.49,45.41 23.59,45.41 23.59,45.31 23.59,45.21 23.69,45.21 23.69,45.11 23.79,45.01 
	23.79,44.91 23.69,44.81 23.69,44.71 23.69,44.61 23.79,44.61 23.79,44.5 23.79,44.4 23.79,44.3 23.79,44.2 23.89,44.2 23.89,44.1 
	23.89,44 23.89,43.9 23.79,43.8 23.79,43.7 23.89,43.7 23.89,43.6 23.89,43.5 23.79,43.5 23.79,43.4 23.89,43.4 23.89,43.29 
	23.79,43.29 23.79,43.19 23.89,43.19 23.89,43.09 23.99,43.09 23.99,42.99 24.09,42.99 24.19,42.99 24.29,42.89 24.39,42.89 
	24.49,42.89 24.49,42.79 24.6,42.69 24.7,42.69 24.8,42.69 24.8,42.59 24.8,42.49 24.8,42.39 24.7,42.29 24.7,42.19 24.6,42.19 
	24.6,42.08 24.7,42.08 24.8,42.08 24.9,42.08 25,42.08 25.1,41.98 25.2,41.98 25.3,41.98 25.4,41.98 25.5,41.98 25.6,41.98 
	25.6,41.88 25.7,41.88 25.91,41.68 25.91,41.38 25.7,41.18 25.81,40.98 25.91,40.77 25.6,40.87 25.6,40.77 25.6,40.57 25.7,40.47 
	25.6,40.37 25.6,40.17 25.5,40.07 25.5,39.97 25.5,39.87 25.7,39.76 25.81,39.66 26.01,38.96 26.11,38.76 26.51,38.45 26.61,38.15 
	26.61,37.85 26.61,37.55 26.71,37.24 26.92,37.14 27.12,36.94 27.22,36.54 27.42,36.24 27.52,35.93 27.52,35.73 27.62,35.63 
	27.82,35.63 28.33,35.73 28.73,35.73 28.93,35.63 29.13,35.63 29.54,35.73 29.54,35.83 29.54,36.03 29.64,36.03 29.44,36.44 
	29.54,36.54 29.64,36.74 29.94,36.84 30.34,36.94 30.65,37.34 30.45,37.85 30.14,38.35 30.04,39.06 30.24,39.36 30.34,39.36 
	30.55,39.16 30.85,38.96 31.15,38.86 31.25,38.86 31.45,38.86 31.66,38.96 32.06,38.96 32.46,38.86 32.46,38.25 32.36,37.55 
	32.36,37.04 31.96,36.34 32.06,36.13 32.16,36.03 32.26,36.03 32.36,36.13 32.46,36.13 32.46,36.24 32.56,36.34 32.56,36.44 
	32.66,36.44 32.76,36.34 32.87,36.34 32.87,36.24 32.97,36.13 33.07,36.13 33.17,36.24 33.27,36.44 33.27,36.54 33.37,36.64 
	33.37,36.74 33.47,36.84 33.57,36.94 33.57,37.04 33.67,37.04 33.77,37.04 33.87,37.14 33.87,37.04 33.97,37.04 34.08,36.94 
	34.28,36.94 34.38,36.94 34.48,36.94 34.58,37.04 34.68,37.04 34.78,37.14 34.88,37.14 34.98,37.14 35.08,37.14 35.29,37.24 
	35.29,37.34 35.39,37.34 35.49,37.34 35.59,37.34 35.59,37.45 35.69,37.55 35.79,37.55 35.89,37.55 35.89,37.45 35.99,37.34 
	36.09,37.24 36.09,37.14 36.19,37.14 36.29,37.14 36.29,37.04 36.4,36.94 36.5,36.84 36.6,36.84 36.6,36.74 36.5,36.64 36.5,36.54 
	36.5,36.44 36.4,36.44 36.4,36.34 36.29,36.34 36.29,36.24 36.29,36.13 36.19,36.13 36.19,36.03 36.09,36.03 35.99,36.03 
	35.99,35.93 35.89,35.93 35.79,35.93 35.69,35.93 35.69,35.83 35.59,35.83 35.49,35.83 35.39,35.83 35.39,35.73 35.29,35.73 
	35.29,35.63 35.19,35.63 35.19,35.53 35.08,35.53 34.98,35.53 34.88,35.43 34.78,35.43 34.68,35.43 34.68,35.33 34.68,35.23 
	34.58,35.23 34.48,35.13 34.38,35.02 34.38,34.92 34.28,34.82 34.18,34.82 34.08,34.82 34.08,34.72 34.08,34.62 33.97,34.62 
	33.87,34.52 33.77,34.52 33.67,34.52 33.57,34.52 33.57,34.42 33.67,34.42 33.57,34.42 33.47,34.42 33.47,34.32 33.47,34.22 
	33.57,34.22 33.67,34.22 33.67,34.12 33.57,34.12 33.47,34.12 33.47,34.02 33.57,34.02 33.57,33.92 33.57,33.81 33.57,33.71 
	33.67,33.71 33.77,33.61 33.77,33.51 33.87,33.51 33.87,33.41 33.97,33.41 33.97,33.31 33.87,33.31 33.77,33.31 33.77,33.21 
	33.77,33.11 33.67,33.11 33.67,33.01 33.77,33.01 33.77,32.91 33.77,32.81 33.87,32.81 33.87,32.71 33.97,32.71 33.97,32.6 
	34.08,32.6 34.18,32.5 34.18,32.6 34.28,32.6 34.38,32.6 34.38,32.71 34.38,32.81 34.38,32.91 34.48,32.91 34.48,33.01 34.58,33.01 
	34.58,33.11 34.68,33.11 34.68,33.01 34.78,33.01 34.88,33.01 34.88,32.91 34.98,32.91 35.08,32.91 35.19,32.91 35.19,32.81 
	35.29,32.81 35.39,32.71 35.49,32.6 35.59,32.6 35.69,32.6 35.69,32.71 35.79,32.71 35.89,32.71 35.89,32.6 35.99,32.6 35.99,32.71 
	36.09,32.71 36.09,32.6 36.19,32.6 36.19,32.5 36.29,32.5 36.4,32.4 36.5,32.4 36.5,32.3 36.6,32.3 36.6,32.2 36.7,32.2 36.7,32.1 
	36.8,32.1 36.8,32 36.8,31.9 36.9,31.8 36.9,31.7 36.9,31.6 36.9,31.5 36.9,31.39 36.9,31.29 36.9,31.19 36.8,31.09 36.8,30.99 
	36.8,30.89 36.9,30.79 36.9,30.69 36.8,30.59 36.8,30.49 36.8,30.39 36.9,30.28 36.8,30.28 36.8,30.18 36.9,30.18 36.9,30.08 
	37,30.08 37,29.98 37,29.88 37,29.78 37.1,29.68 37.1,29.58 37,29.58 37,29.48 37,29.38 37,29.18 36.9,28.97 36.9,28.87 36.8,28.77 
	36.9,28.77 36.9,28.67 36.9,28.57 36.8,28.57 36.7,28.57 36.7,28.47 36.7,28.37 36.6,28.27 36.6,28.17 36.5,28.17 36.5,28.07 
	36.4,28.07 36.4,27.97 36.4,27.86 36.4,27.76 36.5,27.76 36.5,27.66 36.5,27.56 36.5,27.46 36.5,27.36 36.5,27.26 36.5,27.16 
	36.6,27.16 36.6,27.06 36.6,26.96 36.6,26.76 36.6,26.65 36.5,26.55 36.5,26.45 36.5,26.35 36.5,26.25 36.4,26.15 36.4,26.05 
	36.4,25.95 36.29,25.85 36.29,25.75 36.29,25.65 36.29,25.54 36.29,25.44 36.29,25.34 36.29,25.24 36.19,25.24 36.19,25.14 
	36.09,25.14 36.09,25.04 35.99,24.94 35.99,24.84 35.99,24.74 35.89,24.74 35.79,24.64 35.79,24.54 35.79,24.44 35.69,24.44 
	35.69,24.33 35.59,24.23 35.59,24.13 35.49,24.03 35.39,23.93 35.49,23.83 35.49,23.73 35.59,23.73 35.59,23.63 35.69,23.63 
	35.69,23.53 35.69,23.43 35.69,23.33 35.69,23.23 35.69,23.12 35.69,23.02 35.69,22.92 35.69,22.82 35.69,22.72 35.69,22.62 
	35.79,22.62 35.79,22.52 35.79,22.42 35.89,22.32 35.99,22.22 35.99,22.12 35.99,22.02 35.99,21.91 35.99,21.81 36.09,21.81 
	36.09,21.71 35.99,21.61 35.99,21.51 35.99,21.41 35.99,21.31 35.99,21.21 35.99,21.11 35.99,21.01 35.99,20.91 35.99,20.8 
	35.99,20.7 35.99,20.6 35.99,20.5 36.09,20.4 36.09,20.3 36.09,20.2 36.09,20.1 36.19,20.1 36.19,20 36.29,20 36.29,19.9 
	36.29,19.8 36.19,19.7 36.19,19.59 36.19,19.49 36.09,19.39 35.99,19.39 35.99,19.29 35.89,19.29 35.89,19.19 35.89,19.09 
	35.79,19.09 35.79,19.19 35.69,19.19 35.59,19.29 35.49,19.39 35.39,19.39 35.39,19.49 35.29,19.49 35.19,19.49 35.19,19.59 
	35.08,19.59 35.08,19.7 34.98,19.7 34.88,19.8 34.88,19.9 34.78,19.9 34.78,20 34.68,20 34.68,20.1 34.58,20.2 34.68,20.2 
	34.68,20.3 34.58,20.3 34.48,20.3 34.48,20.4 34.38,20.4 34.38,20.5 34.28,20.5 34.18,20.5 34.18,20.6 34.08,20.6 33.97,20.6 
	33.97,20.7 33.87,20.7 33.77,20.8 33.67,20.8 33.57,20.7 33.57,20.6 33.47,20.5 33.37,20.5 33.27,20.5 33.27,20.4 33.27,20.3 
	33.27,20.2 33.17,20.2 33.17,20.1 33.17,20 33.07,20 33.07,19.9 33.07,19.8 33.07,19.7 33.07,19.59 33.07,19.49 33.07,19.39 
	33.07,19.29 33.07,19.19 33.07,19.09 33.07,18.99 33.17,18.99 33.27,18.89 33.37,18.79 33.27,18.79 33.17,18.79 33.07,18.69 
	32.97,18.69 32.87,18.69 32.66,18.59 32.56,18.49 32.46,18.49 32.46,18.38 32.36,18.28 32.26,18.28 32.26,18.18 32.16,18.18 
	32.06,18.18 31.96,18.18 31.86,18.18 31.76,18.18 31.66,18.08 31.55,17.98 31.45,17.98 31.35,17.98 31.45,17.98 31.55,17.98 
	31.55,17.88 31.55,17.78 31.55,17.68 31.55,17.58 31.55,17.48 31.55,17.38 31.66,17.38 31.66,17.28 31.76,17.28 31.76,17.17 
	31.76,17.07 31.66,16.97 31.55,16.87 31.55,16.77 31.45,16.67 31.45,16.47 31.35,16.37 31.15,16.27 31.05,16.17 30.85,15.96 
	30.75,15.86 30.75,15.66 30.75,15.46 30.75,15.36 30.75,15.26 30.85,15.16 30.95,15.06 30.95,14.85 31.05,14.75 31.15,14.75 
	31.25,14.75 31.35,14.55 31.45,14.55 31.55,14.45 31.66,14.45 31.66,14.35 31.86,14.35 31.96,14.35 32.06,14.25 32.16,14.15 
	32.26,14.05 32.36,13.95 32.46,13.85 32.46,13.75 32.56,13.75 32.66,13.64 32.76,13.64 32.87,13.54 32.97,13.44 33.07,13.34 
	33.17,13.24 33.27,13.14 33.37,13.14 33.37,13.04 33.37,12.84 33.37,12.74 33.37,12.54 33.37,12.33 33.37,12.13 33.37,12.03 
	33.47,11.93 33.57,11.83 33.57,11.73 33.67,11.63 33.67,11.53 33.77,11.43 33.87,11.43 34.08,11.12 34.28,10.92 34.38,10.82 
	34.48,10.82 34.58,10.82 34.68,10.82 34.78,10.82 34.78,10.72 34.88,10.72 34.98,10.72 35.08,10.72 35.19,10.72 35.29,10.72 
	35.39,10.62 35.39,10.52 35.49,10.42 35.49,10.32 35.19,8.7 35.19,8.6 35.29,8.5 35.29,8.4 35.29,8.3 35.29,8.2 35.29,8.1 35.39,8 
	35.39,7.9 35.39,7.8 35.39,7.69 35.39,7.59 35.39,7.49 35.49,7.49 35.59,7.39 35.69,7.39 35.79,7.39 35.79,7.29 35.89,7.29 
	35.89,7.19 35.89,7.09 35.79,6.99 35.79,6.89 35.69,6.79 35.69,6.69 35.69,6.59 35.79,6.48 35.99,6.38 36.09,6.38 36.09,6.28 
	36.19,6.28 36.29,6.28 36.4,6.28 36.5,6.18 36.6,6.28 36.6,6.18 36.7,6.18 36.8,6.18 36.8,6.08 36.9,6.08 37,6.08 37.1,6.08 
	37.2,6.08 37.3,6.08 37.4,6.08 37.5,6.08 37.61,6.08 37.71,6.08 37.81,6.08 37.91,6.08 38.01,5.98 38.11,5.98 38.21,6.08 
	38.31,6.18 38.41,6.18 38.41,6.28 38.51,6.28 38.51,6.38 38.51,6.48 38.61,6.48 38.72,6.48 38.82,6.48 38.92,6.38 39.12,6.38 
	39.22,6.38 39.32,6.38 39.32,6.48 39.42,6.59 39.52,6.59 39.62,6.59 39.72,6.59 39.82,6.69 39.93,6.69 39.93,6.79 39.93,6.89 
	40.03,6.89 40.13,6.89 40.23,6.99 40.33,6.99 40.43,7.09 40.43,7.19 40.53,7.19 40.63,7.29 40.73,7.29 40.83,7.29 40.93,7.29 
	41.03,7.29 41.14,7.19 41.24,7.19 41.34,7.19 41.34,7.29 41.44,7.49 41.54,7.49 41.64,7.49 41.74,7.59 41.84,7.59 41.94,7.69 
	42.04,7.69 42.14,7.69 42.24,7.69 42.35,7.69 42.45,7.8 42.65,7.8 42.65,7.9 42.75,7.9 42.75,8 42.85,8 42.95,8 43.05,8.1 
	43.15,8.1 43.15,8.2 43.15,8.3 43.25,8.3 43.35,8.4 43.45,8.4 43.56,8.5 43.66,8.6 43.76,8.6 43.86,8.6 43.96,8.6 44.06,8.6 
	44.16,8.7 44.16,8.8 44.06,8.9 43.96,9.01 44.06,9.11 44.16,9.11 44.36,9.21 44.46,9.31 44.46,9.41 44.46,9.51 44.46,9.61 
	44.46,9.71 44.46,9.81 44.56,9.91 44.67,9.91 44.77,10.01 44.87,10.01 44.97,9.81 45.07,9.71 45.27,9.71 45.37,9.51 45.47,9.41 
	45.47,9.31 45.47,9.21 45.67,9.01 45.77,8.9 45.77,8.8 45.88,8.7 45.98,8.6 46.08,8.5 46.18,8.5 46.18,8.4 46.28,8.4 46.38,8.4 
	46.48,8.4 46.58,8.3 46.58,8.2 46.68,8.2 46.68,8.1 46.78,8.1 46.88,8 46.99,7.9 47.09,7.9 47.09,7.8 47.19,7.8 47.29,7.8 
	47.29,7.69 47.39,7.69 47.39,7.59 47.39,7.49 47.49,7.39 47.49,7.29 47.49,7.19 47.59,7.19 47.69,7.19 47.69,7.09 47.79,7.09 
	47.79,6.99 47.79,6.89 47.89,6.89 47.89,6.69 47.99,6.69 48.09,6.59 48.2,6.48 48.2,6.38 48.3,6.28 48.3,6.18 48.4,6.18 48.5,6.08 
	48.6,6.08 48.6,5.98 48.6,5.88 48.6,5.78 48.7,5.68 48.7,5.58 48.8,5.48 48.9,5.38 49,5.38 49,5.27 49,5.17 49.1,5.17 49.1,5.07 
	49.2,5.07 49.3,5.07 49.41,5.07 49.41,4.97 49.51,4.97 49.61,4.97 49.71,4.87 49.71,4.77 49.71,4.67 49.61,4.57 49.61,4.47 
	49.61,4.37 49.71,4.37 49.81,4.27 49.91,4.27 50.01,4.27 50.01,4.16 50.11,4.06 50.01,4.06 50.01,3.96 50.11,3.96 50.21,3.86 
	50.31,3.76 50.31,3.66 50.31,3.56 50.31,3.46 50.41,3.46 50.41,3.36 50.41,3.26 50.51,3.26 50.62,3.26 50.72,3.26 50.72,3.16 
	50.72,3.06 50.72,2.95 50.82,2.95 50.92,2.95 51.02,2.85 51.02,2.75 51.02,2.65 51.02,2.55 51.02,2.45 51.12,2.45 51.12,2.35 
	51.12,2.25 51.22,2.25 51.22,2.15 51.12,2.15 51.12,2.05 51.22,1.95 51.22,1.85 51.32,1.74 51.32,1.64 51.42,1.54 51.42,1.44 
	51.42,1.34 51.52,1.34 51.62,1.34 51.73,1.34 51.83,1.34 51.93,1.34 51.93,1.44 52.03,1.44 52.13,1.44 52.23,1.54 52.33,1.54 
	52.33,1.64 52.43,1.64 52.43,1.74 52.53,1.74 52.63,1.74 52.73,1.85 52.83,1.85 52.83,1.95 52.83,2.05 52.94,2.05 52.94,1.95 
	53.04,1.95 53.04,1.85 53.14,1.85 53.24,1.74 53.34,1.74 53.44,1.74 53.54,1.74 53.54,1.85 53.64,1.85 53.74,1.95 53.84,1.95 
	53.94,1.85 53.94,1.74 54.04,1.74 54.15,1.74 54.25,1.74 54.35,1.74 54.45,1.85 54.55,1.85 54.65,1.85 54.75,1.85 54.75,1.74 
	54.75,1.85 54.85,1.85 54.95,1.85 55.05,1.85 55.15,1.74 55.15,1.85 55.25,1.85 55.36,1.85 55.46,1.85 55.56,1.85 55.66,1.95 
	55.66,2.05 55.76,2.05 55.86,2.05 55.96,2.15 56.06,2.15 56.06,2.05 56.16,1.95 56.16,1.85 56.26,1.85 56.36,1.85 56.36,1.74 
	56.36,1.64 56.47,1.64 56.57,1.64 56.67,1.74 56.77,1.74 56.87,1.74 56.97,1.74 57.07,1.74 57.17,1.74 57.27,1.64 57.37,1.64 
	57.37,1.74 57.47,1.74 57.47,1.85 57.57,1.95 57.68,1.95 57.78,1.95 57.78,1.85 57.88,1.85 57.98,1.85 58.08,1.85 58.08,1.95 
	58.18,2.05 58.28,2.05 58.38,1.95 58.48,1.95 58.58,1.85 58.58,1.74 58.68,1.64 58.78,1.54 58.78,1.44 58.89,1.44 58.99,1.44 
	59.09,1.54 59.19,1.54 59.29,1.54 59.39,1.54 59.49,1.54 59.49,1.64 59.59,1.74 59.69,1.74 59.79,1.74 59.89,1.74 59.99,1.74 
	59.99,1.85 60.1,1.85 60.2,1.95 60.3,1.95 60.4,2.05 60.5,2.05 60.5,1.95 60.6,1.95 60.7,1.95 60.7,2.05 60.8,2.05 60.9,2.05 
	61,2.05 61,2.15 60.9,2.15 60.9,2.25 61,2.25 61.1,2.35 61.21,2.45 61.21,2.55 61.21,2.65 61.31,2.65 61.31,2.75 61.21,2.75 
	61.21,2.85 61.21,2.95 61.31,2.95 61.41,3.06 61.51,3.06 61.51,2.95 61.61,2.95 61.71,2.95 61.71,2.85 61.81,2.85 61.91,2.95 
	62.01,2.95 62.01,3.06 62.11,3.06 62.21,3.16 62.31,3.16 62.42,3.26 62.52,3.26 62.52,3.36 62.52,3.46 62.52,3.56 62.52,3.66 
	62.62,3.76 62.62,3.86 62.62,3.96 62.72,3.96 62.82,4.06 62.92,4.06 63.02,4.06 63.12,3.96 63.22,3.96 63.32,3.96 63.42,4.06 
	63.52,4.06 63.63,4.06 63.73,3.96 63.83,3.96 63.93,4.06 64.03,4.06 64.03,4.16 64.03,4.27 64.03,4.37 64.03,4.47 64.13,4.57 
	64.13,4.67 64.23,4.67 64.33,4.77 64.43,4.77 64.53,4.67 64.63,4.67 64.63,4.57 64.74,4.57 64.84,4.57 64.84,4.47 64.94,4.47 
	65.04,4.47 65.14,4.47 65.24,4.47 65.24,4.37 65.34,4.37 65.44,4.37 65.44,4.47 65.54,4.47 65.64,4.47 65.74,4.47 65.74,4.37 
	65.84,4.37 65.95,4.27 66.05,4.27 66.15,4.27 66.25,4.16 66.25,4.27 66.35,4.27 66.45,4.27 66.55,4.16 66.65,4.16 66.75,4.16 
	66.75,4.27 66.85,4.27 66.85,4.16 66.85,4.06 66.85,3.96 66.95,3.96 67.05,3.96 67.05,4.06 67.16,4.06 67.16,4.16 67.26,4.16 
	67.36,4.27 67.46,4.27 67.46,4.37 67.56,4.37 67.66,4.37 67.76,4.37 67.86,4.37 67.96,4.37 68.06,4.37 68.16,4.37 68.16,4.47 
	68.26,4.47 68.37,4.47 68.47,4.47 68.57,4.47 68.57,4.37 68.67,4.37 68.67,4.27 68.67,4.16 68.77,4.06 68.77,3.96 68.87,3.86 
	68.87,3.76 68.87,3.66 68.77,3.66 68.77,3.56 68.87,3.46 68.87,3.36 68.87,3.26 68.77,3.16 68.87,3.06 68.97,3.06 68.97,2.95 
	68.97,2.85 68.97,2.75 69.07,2.75 69.17,2.75 69.17,2.85 69.27,2.85 69.37,2.85 69.48,2.85 69.48,2.95 69.58,2.95 69.68,2.95 
	69.78,2.95 69.88,2.95 69.88,2.85 69.98,2.85 70.08,2.75 70.08,2.85 70.18,2.85 70.18,2.95 70.28,2.85 70.38,2.85 70.48,2.95 
	70.58,2.95 70.69,2.95 70.69,2.85 70.79,2.85 70.89,2.85 70.89,2.95 70.99,2.95 70.99,2.85 71.09,2.85 71.19,2.95 71.19,3.06 
	71.19,3.16 71.19,3.26 71.19,3.36 71.29,3.36 71.39,3.36 71.49,3.46 71.59,3.46 71.69,3.56 71.79,3.56 71.9,3.56 71.9,3.46 72,3.46 
	72.1,3.46 72.2,3.46 72.2,3.56 72.3,3.66 72.4,3.66 72.5,3.76 72.6,3.76 72.7,3.86 72.8,3.86 72.9,3.86 72.9,3.96 73.01,4.06 
	73.11,4.06 73.21,4.06 73.21,4.16 73.11,4.16 73.11,4.27 73.11,4.37 73.21,4.47 73.31,4.47 73.31,4.57 73.41,4.67 73.51,4.77 
	73.51,4.87 73.61,4.87 73.51,4.97 73.51,5.07 73.41,5.17 73.31,5.27 73.31,5.38 73.21,5.38 73.21,5.48 73.11,5.48 73.11,5.58 
	73.01,5.58 73.01,5.68 72.9,5.68 72.9,5.78 72.8,5.88 72.8,5.98 72.9,6.08 72.9,6.18 72.9,6.28 73.01,6.38 73.11,6.48 73.11,6.59 
	73.21,6.69 73.21,6.79 73.31,6.79 73.41,6.89 73.41,6.99 73.41,7.09 73.41,7.19 73.41,7.29 73.41,7.39 73.31,7.49 73.21,7.59 
	73.11,7.59 73.11,7.69 73.01,7.69 73.01,7.8 73.01,7.9 73.01,8 72.9,8 72.9,8.1 72.9,8.2 72.8,8.2 72.7,8.2 72.6,8.3 72.6,8.4 
	72.6,8.5 72.6,8.6 72.5,8.7 72.5,8.8 72.5,8.9 72.5,9.01 72.5,9.11 72.5,9.21 72.5,9.31 72.5,9.41 72.5,9.51 72.5,9.61 72.6,9.71 
	72.6,9.81 72.6,9.91 72.6,10.01 72.5,10.11 72.5,10.22 72.4,10.22 72.4,10.32 72.4,10.42 72.4,10.52 72.4,10.62 72.4,10.72 
	72.3,10.62 72.1,10.62 72,10.52 71.9,10.52 71.79,10.52 71.69,10.52 71.59,10.52 71.49,10.52 71.39,10.42 71.29,10.42 71.29,10.52 
	71.19,10.52 71.09,10.52 70.99,10.52 70.89,10.52 70.79,10.52 70.79,10.42 70.79,10.32 70.79,10.22 70.69,10.22 70.69,10.32 
	70.58,10.32 70.48,10.32 70.38,10.32 70.28,10.42 70.28,10.52 70.18,10.52 70.18,10.62 70.08,10.62 69.98,10.62 69.98,10.52 
	69.88,10.52 69.78,10.52 69.68,10.52 69.58,10.52 69.58,10.42 69.48,10.42 69.37,10.52 69.27,10.62 69.37,10.62 69.37,10.72 
	69.37,10.82 69.37,10.92 69.37,11.02 69.37,11.12 69.27,11.12 69.17,11.22 69.17,11.33 69.07,11.33 69.07,11.43 69.07,11.53 
	69.17,11.53 69.27,11.63 69.27,11.73 69.17,11.83 69.17,11.93 69.27,12.03 69.37,12.03 69.48,12.13 69.48,12.23 69.37,12.33 
	69.37,12.43 69.37,12.54 69.37,12.64 69.48,12.74 69.58,12.84 69.58,12.94 69.68,12.94 69.58,13.04 69.48,13.14 69.48,13.24 
	69.37,13.34 69.27,13.44 69.27,13.54 69.17,13.75 69.17,13.85 69.07,13.85 69.07,13.95 68.97,13.95 68.97,14.05 68.97,14.15 
	68.87,14.15 68.87,14.25 68.77,14.35 68.77,14.45 68.67,14.45 68.57,14.45 68.47,14.55 68.47,14.65 68.57,14.75 68.57,14.85 
	68.47,14.85 68.37,14.75 68.26,14.75 68.16,14.85 68.06,14.85 68.06,14.96 68.06,15.06 68.16,15.16 68.16,15.26 68.16,15.36 
	68.16,15.46 68.16,15.56 68.26,15.56 68.26,15.66 68.26,15.76 68.26,15.86 68.26,15.96 68.26,16.06 68.26,16.17 68.37,16.27 
	68.47,16.27 68.57,16.37 68.67,16.47 68.67,16.57 68.77,16.57 68.77,16.67 68.77,16.77 68.77,16.87 68.87,16.87 68.87,16.97 
	68.97,16.97 68.97,17.07 69.07,17.17 69.07,17.28 69.07,17.38 69.07,17.48 69.07,17.58 69.07,17.68 69.07,17.78 69.17,17.78 
	69.27,17.88 69.37,17.88 69.48,17.88 69.58,17.88 69.68,17.98 69.78,17.98 69.88,17.98 69.88,18.08 69.88,18.18 69.98,18.18 
	69.98,18.08 70.08,18.08 70.18,18.08 70.28,18.08 70.28,17.98 70.38,17.98 70.38,17.88 70.38,17.98 70.48,17.98 70.58,18.18 
	70.58,18.28 70.58,18.38 70.69,18.49 70.69,18.59 70.69,18.69 70.79,18.69 70.89,18.79 70.99,18.89 71.09,18.99 71.09,19.09 
	71.19,19.09 71.19,19.19 71.19,19.29 71.09,19.29 70.99,19.29 70.89,19.29 70.79,19.39 70.79,19.49 70.69,19.49 70.69,19.59 
	70.58,19.59 70.58,19.7 70.58,19.8 70.58,19.9 70.48,19.9 70.48,20 70.38,20.1 70.38,20.2 70.38,20.3 70.38,20.4 70.38,20.5 
	70.48,20.5 70.48,20.6 70.48,20.8 70.48,20.91 70.58,21.01 70.69,21.11 70.69,21.21 70.79,21.21 70.79,21.31 70.89,21.31 
	70.89,21.41 70.99,21.51 71.09,21.51 71.09,21.61 71.09,21.71 71.09,21.81 71.09,21.91 71.19,22.02 71.19,22.12 71.19,22.22 
	71.19,22.32 71.19,22.42 71.29,22.52 71.29,22.62 71.29,22.72 71.29,22.82 71.39,22.92 71.39,23.02 71.49,23.12 71.49,23.23 
	71.59,23.23 71.59,23.33 71.59,23.53 71.59,23.63 71.59,23.73 71.59,23.83 71.59,23.93 71.69,23.93 71.69,24.03 71.69,24.13 
	71.79,24.13 71.79,24.23 71.9,24.23 71.9,24.33 72,24.44 72,24.54 72.1,24.64 72.2,24.64 72.2,24.74 72.3,24.74 72.3,24.84 
	72.2,24.84 72.2,24.94 72.1,25.14 72,25.24 72,25.34 71.9,25.34 71.9,25.44 72,25.44 72,25.54 71.9,25.65 71.9,25.75 71.9,25.85 
	71.9,25.95 71.9,26.05 71.79,26.15 71.79,26.25 71.79,26.35 71.79,26.45 71.79,26.55 71.9,26.65 71.9,26.76 71.9,26.86 71.9,26.96 
	71.9,27.06 71.9,27.16 71.79,27.16 71.79,27.26 71.69,27.36 71.69,27.46 71.59,27.46 71.59,27.56 71.49,27.56 71.49,27.66 
	71.49,27.76 71.49,27.86 71.59,27.86 71.59,27.97 71.59,28.07 71.69,28.07 71.79,28.17 71.79,28.27 71.9,28.27 71.9,28.37 
	71.9,28.47 71.9,28.57 71.9,28.67 71.9,28.77 72,28.87 72,28.97 72,29.07 72,29.18 72,29.28 72.1,29.38 72.1,29.48 72.2,29.48 
	72.2,29.58 72.2,29.68 72.2,29.98 72.2,30.08 72.3,30.08 72.3,30.18 72.2,30.18 72.2,30.28 72.2,30.39 72.1,30.39 72.1,30.49 
	72,30.59 72,30.69 72.1,30.69 72.1,30.79 72.1,30.89 72.2,30.99 72.2,31.09 72.3,31.09 72.4,31.09 72.4,31.19 72.5,31.19 
	72.6,31.29 72.7,31.39 72.7,31.5 72.8,31.5 72.9,31.5 72.9,31.6 73.01,31.6 73.01,31.7 73.11,31.7 73.21,31.7 73.31,31.7 
	73.41,31.8 73.61,31.8 73.71,31.8 73.81,31.9 73.81,32 73.91,32.1 74.01,32.2 74.11,32.2 74.22,32.2 74.32,32.2 74.32,32.3 
	74.42,32.4 74.52,32.6 74.52,32.71 74.42,32.71 74.42,32.81 74.52,32.81 74.72,32.91 74.82,33.01 74.92,33.11 75.02,33.21 
	75.12,33.21 75.22,33.41 75.43,33.51 75.43,33.61 75.53,33.61 75.63,33.61 75.73,33.51 75.83,33.51 76.03,33.61 76.03,33.71 
	76.03,33.81 76.03,33.92 76.13,34.02 76.23,34.02 76.33,34.02 76.43,34.02 76.43,34.12 76.43,34.22 76.43,34.32 76.53,34.32 
	76.64,34.22 76.74,34.22 76.74,34.12 76.84,34.12 76.94,34.22 76.94,34.32 77.04,34.42 77.04,34.52 77.14,34.62 77.14,34.72 
	77.24,34.72 77.34,34.82 77.34,34.92 77.34,35.02 77.44,35.02 77.44,35.13 77.44,35.23 77.54,35.23 77.64,35.23 77.75,35.23 
	77.85,35.33 77.75,35.43 77.64,35.43 77.75,35.53 77.75,35.63 77.64,35.63 77.64,35.73 77.64,35.83 77.54,35.83 77.54,35.93 
	77.54,36.03 77.44,36.03 77.44,36.13 77.34,36.13 77.34,36.24 77.34,36.34 77.34,36.44 77.24,36.54 77.24,36.64 77.24,36.74 
	77.24,36.84 77.14,36.84 77.04,36.84 77.04,36.94 76.94,37.04 76.94,37.14 76.94,37.24 76.94,37.45 76.94,37.55 76.94,37.65 
	76.84,37.75 76.84,37.85 76.74,37.85 76.74,37.95 76.74,38.05 76.64,38.05 76.43,38.05 76.33,38.05 76.23,38.15 76.13,38.15 
	76.03,38.15 75.93,38.15 75.83,38.15 75.73,38.15 75.63,38.15 75.53,38.15 75.43,38.15 75.43,38.25 75.43,38.15 75.32,38.15 
	75.22,38.15 75.22,38.25 75.02,38.45 75.02,38.55 75.02,38.66 75.02,38.76 75.02,38.96 74.92,39.06 74.82,39.06 74.72,39.16 
	74.62,39.16 74.42,39.26 74.32,39.36 74.22,39.46 74.22,39.66 74.22,39.76 74.32,39.87 74.42,39.97 74.32,40.07 74.32,40.17 
	74.32,40.27 74.32,40.37 74.42,40.47 74.42,40.67 74.52,40.77 74.52,40.87 74.52,40.98 74.42,41.08 74.42,41.18 74.42,41.28 
	74.42,41.38 74.52,41.48 74.52,41.58 74.52,41.68 74.52,41.78 74.42,41.88 74.32,41.98 74.22,42.08 74.11,42.08 74.01,42.08 
	73.81,42.08 73.61,42.08 73.61,42.19 73.51,42.39 73.41,42.39 73.31,42.39 73.31,42.49 73.31,42.59 73.31,42.79 73.41,42.89 
	73.41,42.99 73.31,43.19 73.11,43.29 73.01,43.4 73.01,43.5 72.8,43.6 72.7,43.6 72.6,43.7 72.5,43.7 72.4,43.8 72.3,43.8 
	72.2,43.8 72.1,43.9 72.1,44 72,44.2 72,44.3 71.9,44.4 71.9,44.5 71.79,44.71 71.79,44.81 71.69,44.91 71.69,45.01 71.79,45.01 
	71.79,45.11 71.9,45.11 71.9,45.21 71.9,45.31 71.9,45.41 71.9,45.51 71.9,45.61 72,45.61 72,45.71 72,45.82 72.1,45.82 72.1,45.92 
	72.1,46.02 72.1,46.12 72.2,46.12 72.2,46.22 72.2,46.32 72.1,46.42 72.1,46.52 72.2,46.52 72.2,46.62 72.2,46.72 72.2,46.82 
	72.1,46.93 72.1,47.03 72.2,47.03 72.2,47.13 72.2,47.23 72.2,47.33 72.2,47.43 72.1,47.53 72,47.63 72,47.73 71.9,47.73 
	71.79,47.83 71.79,47.93 71.79,48.03 71.79,48.14 71.69,48.14 71.59,48.24 71.69,48.34 71.79,48.44 71.79,48.54 71.9,48.64 
	71.9,48.74 71.9,48.84 71.9,48.94 71.9,49.04 71.9,49.14 72,49.14 72.1,49.14 72.2,49.24 72.3,49.35 72.3,49.45 72.4,49.45 
	72.5,49.55 72.5,49.65 72.4,49.65 72.4,49.75 72.3,49.85 72.3,49.95 72.3,50.05 72.2,50.05 72.2,50.15 72.2,50.25 72.2,50.35 
	72.1,50.35 72.1,50.45 72,50.56 72,50.66 72,50.76 72,50.86 72.1,50.86 72.1,50.96 72.2,50.96 72.2,51.06 72.1,51.06 72.1,51.16 
	72.1,51.26 72.1,51.36 72,51.46 72,51.56 72.1,51.67 72.2,51.67 72.2,51.77 72.1,51.87 72,51.87 71.9,51.87 71.79,51.87 
	71.69,51.87 71.69,51.97 71.59,52.07 71.49,52.17 71.49,52.27 71.49,52.37 71.39,52.47 71.39,52.57 71.39,52.77 71.39,52.88 
	71.39,52.98 71.39,53.08 71.39,53.18 71.29,53.28 71.29,53.38 71.29,53.48 71.29,53.58 71.19,53.68 71.09,53.68 70.99,53.78 
	70.89,53.78 70.89,53.88 70.79,53.88 70.69,53.98 70.58,54.09 70.58,54.19 70.69,54.19 70.69,54.29 70.79,54.29 70.79,54.39 
	70.79,54.49 70.89,54.49 70.99,54.59 71.09,54.69 71.19,54.79 71.19,54.89 71.09,54.89 71.09,54.99 71.09,55.09 71.19,55.3 
	71.29,55.3 71.39,55.3 71.49,55.3 71.59,55.3 71.69,55.3 71.79,55.3 71.9,55.3 72,55.4 72.1,55.4 72.1,55.5 72.2,55.5 72.2,55.6 
	72.3,55.6 72.3,55.7 72.4,55.7 72.5,55.6 72.5,55.7 72.6,55.7 72.6,55.8 72.6,55.9 72.7,55.9 72.7,56 72.8,56 72.9,56 73.01,56 
	73.11,56 73.11,56.1 73.21,56.2 73.21,56.3 73.31,56.3 73.31,56.41 73.31,56.51 73.41,56.61 73.41,56.71 73.31,56.71 73.21,56.71 
	73.11,56.71 73.11,56.81 73.01,56.81 73.01,56.91 73.01,57.01 72.9,57.01 72.9,57.11 72.8,57.11 72.8,57.21 72.7,57.21 72.6,57.31 
	72.6,57.41 72.6,57.51 72.6,57.62 72.6,57.72 72.6,57.82 72.5,57.92 72.4,57.92 72.4,58.02 72.3,58.02 72.3,58.22 72.2,58.42 
	72.2,58.52 72.1,58.52 72.1,58.62 72,58.62 71.9,58.62 71.79,58.72 71.69,58.83 71.69,58.93 71.69,59.03 71.69,59.13 71.69,59.23 
	71.79,59.33 71.79,59.43 71.69,59.53 71.69,59.63 71.59,59.63 71.59,59.73 71.49,59.73 71.39,59.83 71.29,59.83 71.29,59.94 
	71.19,60.04 71.19,60.14 71.09,60.14 70.99,60.24 70.89,60.34 70.89,60.44 70.79,60.54 70.69,60.54 70.58,60.54 70.48,60.44 
	70.38,60.44 70.38,60.54 70.28,60.54 70.28,60.64 70.18,60.74 70.08,60.74 70.08,60.84 69.98,60.84 69.88,60.84 69.78,60.84 
	69.68,60.84 69.58,60.84 69.48,60.84 69.48,60.94 69.37,60.94 69.27,60.94 69.17,61.04 69.07,61.04 69.07,60.94 68.97,60.94 
	68.87,61.04 68.77,61.04 68.67,61.15 68.57,61.15 68.47,61.15 68.37,61.25 68.26,61.35 68.26,61.55 68.26,61.65 68.37,61.65 
	68.37,61.75 68.37,61.85 68.37,61.95 68.26,62.05 68.26,62.15 68.37,62.15 68.37,62.25 68.26,62.25 68.26,62.36 68.26,62.46 
	68.26,62.56 68.26,62.66 68.37,62.66 68.47,62.76 68.47,62.86 68.57,62.96 68.67,63.06 68.67,63.16 68.67,63.26 68.57,63.26 
	68.57,63.36 68.57,63.46 68.57,63.57 68.57,63.67 68.47,63.67 68.47,63.77 68.37,63.77 68.37,63.87 68.37,63.97 68.47,64.17 
	68.47,64.27 68.26,64.37 68.16,64.37 68.06,64.27 67.96,64.27 67.86,64.27 67.86,64.37 67.76,64.47 67.66,64.47 67.56,64.47 
	67.46,64.47 67.36,64.47 67.26,64.57 67.16,64.57 67.05,64.57 66.95,64.57 66.85,64.57 66.75,64.68 66.65,64.68 66.55,64.68 
	66.55,64.78 66.55,64.88 66.55,64.98 66.55,65.08 66.55,65.18 66.55,65.28 66.55,65.38 66.45,65.38 66.35,65.48 66.25,65.58 
	66.15,65.58 66.15,65.68 66.15,65.78 66.05,65.89 66.05,66.09 66.05,66.19 65.95,66.19 65.84,66.19 65.74,66.19 65.74,66.29 
	65.64,66.29 65.64,66.39 65.54,66.39 65.44,66.39 65.34,66.39 65.24,66.39 65.14,66.29 65.04,66.29 64.94,66.29 64.84,66.19 
	64.74,66.19 64.74,66.29 64.53,66.29 64.43,66.29 64.33,66.29 64.33,66.39 64.23,66.39 64.23,66.49 64.13,66.49 64.13,66.59 
	64.03,66.59 64.03,66.69 63.93,66.79 63.93,66.89 63.93,66.99 63.83,67.1 63.73,67.3 63.73,67.4 63.73,67.5 63.73,67.6 63.83,67.6 
	63.73,67.7 63.63,67.8 63.52,67.8 63.42,67.8 63.42,67.9 63.32,67.9 63.32,68 63.32,68.1 63.32,68.31 63.32,68.41 63.42,68.41 
	63.42,68.51 63.52,68.71 63.52,68.81 63.52,68.91 63.52,69.01 63.52,69.11 63.42,69.11 63.32,69.21 63.22,69.21 63.12,69.21 
	63.02,69.21 62.92,69.31 62.82,69.31 62.82,69.42 62.82,69.52 62.72,69.62 62.72,69.72 62.62,69.72 62.62,69.82 62.52,69.82 
	62.42,69.82 62.42,69.92 62.42,70.02 62.31,70.02 62.31,70.12 62.21,70.12 62.11,70.12 62.11,70.22 62.01,70.22 62.01,70.32 
	62.01,70.42 62.01,70.52 61.91,70.52 61.81,70.52 61.81,70.63 61.81,70.73 61.71,70.73 61.71,70.83 61.61,70.83 61.61,70.93 
	61.51,71.03 61.51,71.13 61.41,71.13 61.41,71.23 61.31,71.23 61.31,71.33 61.31,71.43 61.41,71.53 61.41,71.63 61.41,71.73 
	61.41,71.84 61.31,71.94 61.31,72.04 61.21,72.14 61.21,72.24 61.31,72.34 61.41,72.34 61.51,72.44 61.61,72.44 61.71,72.54 
	61.81,72.64 61.91,72.74 62.01,72.94 62.11,73.05 62.11,73.15 62.21,73.15 62.21,73.25 62.31,73.25 62.42,73.25 62.52,73.25 
	62.62,73.25 62.62,73.35 62.72,73.45 62.82,73.65 62.92,73.85 63.02,73.95 63.02,74.05 63.02,74.15 62.92,74.15 62.92,74.26 
	62.92,74.36 63.02,74.46 62.92,74.56 62.92,74.66 63.02,74.76 63.02,74.86 "/>
</svg>
