<?xml version="1.0" encoding="utf-8"?>
<!-- Generator: Adobe Illustrator 24.2.1, SVG Export Plug-In . SVG Version: 6.00 Build 0)  -->
<svg version="1.1" id="Layer_1" xmlns="http://www.w3.org/2000/svg" xmlns:xlink="http://www.w3.org/1999/xlink" x="0px" y="0px"
	 viewBox="0 0 97.23 97.23" style="enable-background:new 0 0 97.23 97.23;" xml:space="preserve">
<style type="text/css">
	.st0{fill-rule:evenodd;clip-rule:evenodd;}
</style>
<polygon class="st0" points="92.43,23.55 92.97,26.43 92.97,26.61 92.79,26.79 92.79,26.97 92.61,27.15 92.43,27.15 92.25,27.15 
	92.07,27.15 91.89,27.15 91.71,27.15 91.71,27.33 91.53,27.33 91.35,27.33 91.17,27.33 90.98,27.33 90.81,27.51 90.44,27.87 
	90.09,28.41 89.9,28.41 89.72,28.59 89.72,28.77 89.54,28.95 89.54,29.13 89.36,29.31 89.18,29.49 89.18,29.67 89.18,30.03 
	89.18,30.39 89.18,30.75 89.18,30.93 89.18,31.29 89.18,31.47 89,31.47 88.82,31.65 88.64,31.83 88.46,32.01 88.28,32.19 
	88.1,32.37 87.92,32.37 87.74,32.55 87.56,32.55 87.56,32.73 87.38,32.91 87.2,33.09 87.02,33.27 86.84,33.45 86.66,33.63 
	86.48,33.63 86.12,33.63 86.12,33.81 85.94,33.81 85.76,33.99 85.58,33.99 85.4,34.35 85.22,34.35 85.04,34.35 84.86,34.53 
	84.86,34.89 84.68,35.07 84.5,35.25 84.5,35.43 84.5,35.61 84.5,35.97 84.5,36.33 84.68,36.51 85.04,36.87 85.22,37.05 85.58,37.23 
	85.76,37.41 85.76,37.77 85.94,37.95 85.94,38.13 86.12,38.31 86.3,38.49 86.3,38.67 86.3,38.85 86.12,38.85 86.12,39.03 
	85.94,39.03 85.94,39.21 85.94,39.39 85.94,39.57 85.94,39.75 85.94,39.93 85.94,40.11 85.76,40.11 85.58,40.11 85.76,40.11 
	85.94,40.11 86.12,40.29 86.3,40.47 86.48,40.47 86.66,40.47 86.84,40.47 87.02,40.47 87.2,40.47 87.2,40.65 87.38,40.65 
	87.56,40.83 87.56,41.01 87.74,41.01 87.92,41.19 88.28,41.37 88.46,41.37 88.64,41.37 88.82,41.55 89,41.55 89.18,41.55 89,41.73 
	88.82,41.91 88.64,41.91 88.64,42.09 88.64,42.27 88.64,42.45 88.64,42.63 88.64,42.81 88.64,42.99 88.64,43.17 88.64,43.35 
	88.64,43.53 88.64,43.71 88.82,43.71 88.82,43.89 88.82,44.07 89,44.07 89,44.25 89,44.43 89,44.61 89.18,44.61 89.36,44.61 
	89.54,44.79 89.54,44.97 89.72,45.15 89.9,45.15 90.09,44.97 90.26,44.97 90.26,44.79 90.44,44.79 90.63,44.79 90.63,44.61 
	90.81,44.61 90.98,44.61 90.98,44.43 91.17,44.43 91.17,44.25 91.35,44.25 91.53,44.25 91.53,44.07 91.35,44.07 91.53,43.89 
	91.53,43.71 91.71,43.71 91.71,43.53 91.89,43.53 91.89,43.35 92.07,43.17 92.25,43.17 92.25,42.99 92.43,42.99 92.43,42.81 
	92.61,42.81 92.79,42.81 92.79,42.63 92.97,42.63 93.15,42.45 93.33,42.27 93.51,42.27 93.51,42.09 93.69,42.09 93.69,42.27 
	93.69,42.45 93.87,42.45 93.87,42.63 94.05,42.63 94.23,42.81 94.23,42.99 94.23,43.17 94.41,43.35 94.41,43.53 94.41,43.71 
	94.23,43.71 94.23,43.89 94.05,43.89 94.05,44.07 94.05,44.25 94.05,44.43 93.87,44.61 93.87,44.79 93.87,44.97 93.87,45.15 
	93.87,45.34 93.87,45.51 93.87,45.69 93.87,45.88 93.87,46.06 93.87,46.24 93.87,46.42 93.87,46.6 94.05,46.78 94.05,46.96 
	93.87,46.96 93.87,47.14 93.87,47.32 93.87,47.5 93.87,47.68 93.69,47.86 93.51,48.04 93.51,48.22 93.51,48.4 93.33,48.4 
	93.33,48.58 93.33,48.76 93.33,48.94 93.33,49.12 93.33,49.3 93.33,49.48 93.33,49.66 93.33,49.84 93.33,50.02 93.33,50.2 
	93.15,50.2 93.15,50.38 92.97,50.38 92.97,50.56 92.79,50.74 92.97,50.92 93.15,51.1 93.15,51.28 93.33,51.46 93.33,51.64 
	93.51,51.64 93.51,51.82 93.51,52 93.69,52.18 93.87,52.18 93.87,52.36 93.87,52.54 94.05,52.72 94.05,52.9 94.23,52.9 94.23,53.08 
	94.41,53.08 94.41,53.26 94.41,53.44 94.41,53.62 94.41,53.8 94.41,53.98 94.41,54.16 94.59,54.34 94.59,54.52 94.59,54.7 
	94.77,54.88 94.77,55.06 94.77,55.24 94.77,55.42 94.95,55.6 94.95,55.78 94.95,56.14 94.95,56.32 94.95,56.5 94.77,56.5 
	94.77,56.68 94.77,56.86 94.77,57.04 94.77,57.22 94.77,57.4 94.77,57.58 94.59,57.58 94.59,57.76 94.59,57.94 94.59,58.12 
	94.77,58.12 94.77,58.3 94.95,58.3 94.95,58.48 95.13,58.66 95.13,58.84 95.13,59.02 95.31,59.02 95.49,59.02 95.49,59.2 
	95.49,59.38 95.31,59.38 95.49,59.56 95.49,59.74 95.67,60.1 95.67,60.46 95.67,60.64 95.67,60.82 95.85,60.82 95.85,61 
	95.67,61.18 95.67,61.36 95.67,61.54 95.67,61.72 95.49,61.72 95.49,61.9 95.31,61.9 95.31,62.08 95.49,62.08 95.31,62.26 
	95.31,62.44 95.31,62.62 95.49,62.8 95.49,62.98 95.31,63.16 95.31,63.34 95.31,63.52 95.49,63.7 95.49,63.88 95.49,64.06 
	95.49,64.24 95.49,64.42 95.49,64.6 95.49,64.78 95.31,64.96 95.31,65.14 95.31,65.32 95.13,65.32 95.13,65.5 94.95,65.5 
	94.95,65.68 94.77,65.68 94.77,65.86 94.59,65.86 94.41,66.04 94.23,66.04 94.23,66.22 94.05,66.22 94.05,66.4 93.87,66.4 
	93.87,66.22 93.69,66.22 93.69,66.4 93.51,66.4 93.33,66.4 93.33,66.22 93.15,66.22 92.97,66.22 92.79,66.4 92.61,66.58 
	92.43,66.58 92.43,66.76 92.25,66.76 92.07,66.76 91.89,66.76 91.89,66.94 91.71,66.94 91.53,66.94 91.53,67.12 91.35,67.12 
	91.35,66.94 91.17,66.94 91.17,66.76 90.98,66.76 90.98,66.58 90.98,66.4 90.98,66.22 90.81,66.22 90.63,66.22 90.63,66.04 
	90.44,66.22 90.26,66.22 90.26,66.4 90.09,66.4 90.09,66.58 89.9,66.58 89.9,66.76 89.9,66.94 89.72,66.94 89.72,67.12 89.9,67.12 
	89.9,67.3 89.9,67.48 90.09,67.48 90.26,67.48 90.26,67.66 90.09,67.66 90.09,67.84 89.9,67.84 89.9,68.02 89.72,68.2 89.54,68.2 
	89.54,68.38 89.54,68.56 89.54,68.74 89.36,68.74 89.36,68.92 89.54,68.92 89.72,68.92 89.72,69.1 89.54,69.1 89.36,69.1 
	89.36,69.28 89.36,69.46 89.54,69.46 89.72,69.46 89.54,69.46 89.54,69.64 89.72,69.64 89.9,69.64 90.09,69.64 90.26,69.82 
	90.44,69.82 90.44,70 90.44,70.18 90.63,70.18 90.81,70.18 90.98,70.36 90.98,70.54 91.17,70.72 91.35,70.9 91.53,70.9 91.53,71.08 
	91.53,71.26 91.71,71.26 91.89,71.26 92.07,71.44 92.25,71.44 92.43,71.44 92.43,71.62 92.61,71.62 92.61,71.8 92.79,71.8 
	92.79,71.98 92.97,71.98 93.15,71.98 93.33,71.98 93.33,72.16 93.51,72.16 93.69,72.16 93.87,72.16 93.87,72.34 94.05,72.34 
	94.23,72.34 94.23,72.52 94.41,72.52 94.41,72.7 94.41,72.88 94.59,72.88 94.59,73.06 94.77,73.06 94.77,73.24 94.77,73.42 
	94.95,73.6 94.95,73.78 94.77,73.78 94.59,73.96 94.41,74.14 94.41,74.32 94.23,74.32 94.05,74.32 94.05,74.5 93.87,74.68 
	93.69,74.86 93.69,75.04 93.51,75.04 93.33,75.04 93.15,74.86 93.15,74.68 92.97,74.68 92.79,74.68 92.61,74.68 92.61,74.5 
	92.25,74.32 92.07,74.32 91.89,74.32 91.71,74.32 91.53,74.14 91.35,74.14 91.17,73.96 90.98,73.96 90.81,73.96 90.44,73.96 
	90.26,74.14 90.09,74.14 90.09,74.32 89.9,74.14 89.72,74.14 89.54,74.14 89.54,73.96 89.36,73.78 89.18,73.6 89.18,73.42 89,73.24 
	89,73.06 88.82,72.7 88.64,72.52 88.46,72.52 88.28,72.7 88.28,72.88 88.1,72.88 87.92,73.06 87.74,73.06 87.74,72.88 87.56,72.7 
	87.56,72.52 87.38,72.52 87.2,72.34 87.02,72.34 86.84,72.52 86.66,72.88 87.38,74.14 87.38,75.04 87.56,76.3 87.56,77.38 
	86.84,77.56 86.12,77.56 85.76,77.38 85.4,77.38 85.22,77.38 84.68,77.56 84.14,77.92 83.78,78.28 83.6,78.28 83.24,77.74 
	83.42,76.48 83.96,75.58 84.32,74.68 83.78,73.96 83.06,73.78 82.52,73.6 82.34,73.24 82.16,73.06 82.52,72.34 82.34,72.34 
	82.34,71.98 82.34,71.8 81.62,71.62 81.26,71.62 80.9,71.8 80.18,71.8 79.28,71.62 78.92,71.62 78.74,71.8 78.74,72.16 78.56,72.7 
	78.2,73.24 78.02,73.96 77.66,74.32 77.3,74.5 77.12,75.04 77.12,75.58 77.12,76.12 76.94,76.66 76.22,77.2 76.04,77.56 
	75.68,78.82 75.5,79 75.14,79.18 75.14,79.36 75.14,79.54 75.32,79.72 75.32,80.08 75.5,80.26 75.32,80.44 75.32,80.8 75.32,80.98 
	75.86,80.8 75.68,81.16 75.5,81.52 75.86,81.88 75.86,82.42 75.5,82.78 75.32,82.78 75.32,82.96 75.14,82.96 74.96,82.96 
	74.78,82.96 74.6,82.96 74.42,82.96 74.24,83.14 74.06,83.14 73.88,83.14 73.7,83.14 73.52,83.14 73.52,83.32 73.7,83.32 73.7,83.5 
	73.88,83.68 73.88,83.86 73.88,84.04 73.88,84.22 73.7,84.22 73.52,84.22 73.34,84.4 73.34,84.58 73.16,84.58 72.98,84.58 
	72.8,84.76 72.62,84.76 72.44,84.76 72.44,84.94 72.26,84.94 72.26,85.12 72.08,85.12 72.08,85.3 72.26,85.3 72.26,85.48 
	72.08,85.48 72.08,85.66 72.26,85.66 72.26,85.84 72.26,86.02 72.08,86.02 72.08,86.2 72.26,86.38 72.26,86.56 72.26,86.74 
	72.26,86.92 72.08,86.92 72.08,87.1 72.08,87.28 72.08,87.46 72.08,87.64 71.9,87.64 71.9,87.82 71.9,88 72.08,88.18 72.08,88.36 
	71.9,88.54 71.9,88.72 71.72,88.72 71.72,88.9 71.72,89.08 71.54,89.08 71.54,89.26 71.36,89.26 71.36,89.44 71.18,89.62 71,89.62 
	71,89.8 70.82,89.8 70.64,89.98 70.64,90.16 70.46,90.16 70.46,90.34 70.28,90.52 70.1,90.52 70.1,90.7 69.92,90.7 69.92,90.88 
	69.74,90.88 69.74,91.06 69.74,91.24 69.74,91.42 69.56,91.42 69.56,91.6 69.56,91.79 69.56,91.96 69.74,92.14 69.74,92.33 
	69.74,92.5 69.74,92.68 69.74,92.87 69.56,93.05 69.56,93.22 69.56,93.41 69.38,93.41 69.38,93.59 69.2,93.59 69.2,93.77 
	69.02,93.77 68.84,93.95 68.66,94.13 68.66,94.31 68.48,94.31 68.48,94.49 68.3,94.49 68.3,94.67 68.12,94.67 67.94,94.85 
	67.94,95.03 67.94,95.21 68.12,95.39 67.94,95.39 67.94,95.57 67.76,95.57 67.58,95.57 67.4,95.57 67.22,95.57 67.22,95.75 
	67.04,95.75 67.04,95.93 67.22,95.93 67.22,96.11 67.04,96.11 67.04,96.29 67.22,96.29 67.22,96.47 67.22,96.65 67.4,96.65 
	67.58,96.83 67.76,96.83 67.76,97.01 67.58,97.01 67.58,97.19 67.58,97.37 67.4,97.37 67.4,97.55 67.4,97.73 67.22,97.73 
	67.22,97.55 67.22,97.37 67.04,97.19 67.04,97.01 66.86,97.01 66.68,97.01 66.68,97.19 66.5,97.19 66.32,97.01 66.14,97.01 
	66.14,97.19 65.96,97.19 65.78,97.19 65.6,97.19 65.42,97.19 65.24,97.19 65.06,97.19 64.88,97.01 64.88,97.19 64.7,97.19 
	64.52,97.19 64.52,97.37 64.34,97.37 64.34,97.19 64.16,97.19 64.16,97.01 63.98,97.01 63.98,96.83 63.8,96.65 63.62,96.65 
	63.62,96.47 63.44,96.47 63.44,96.65 63.26,96.65 63.08,96.65 62.9,96.47 62.72,96.47 62.54,96.65 62.36,96.65 62.18,96.47 
	62,96.47 61.82,96.47 61.64,96.47 61.64,96.29 61.46,96.29 61.28,96.29 61.1,96.29 60.92,96.29 60.74,96.47 60.56,96.47 
	60.38,96.47 60.2,96.47 60.02,96.47 59.84,96.47 59.66,96.47 59.48,96.47 59.3,96.47 59.12,96.29 58.94,96.29 58.94,96.47 
	58.76,96.47 58.76,96.65 58.58,96.65 58.58,96.47 58.4,96.47 58.4,96.29 58.22,96.29 58.04,96.29 58.04,96.47 57.86,96.47 
	57.68,96.47 57.5,96.47 57.32,96.47 57.14,96.47 57.14,96.29 56.96,96.29 56.78,96.29 56.78,96.11 56.6,96.11 56.6,95.93 
	56.42,95.93 56.42,96.11 56.24,95.93 56.06,95.93 55.88,95.93 55.88,95.75 55.88,95.93 55.7,95.93 55.52,96.11 55.52,96.29 
	55.34,96.29 55.16,96.29 54.98,96.47 54.98,96.65 54.8,96.65 54.62,96.65 54.44,96.65 54.26,96.47 54.08,96.47 53.9,96.47 
	53.9,96.65 53.9,96.83 53.72,96.83 53.54,96.83 53.36,97.01 53.18,97.01 53,97.01 52.82,97.01 52.64,96.83 52.46,96.83 52.46,96.65 
	52.28,96.65 52.1,96.65 52.1,96.47 51.92,96.47 51.92,96.29 51.92,96.11 51.92,95.93 51.92,95.75 51.92,95.39 51.74,95.39 
	51.74,95.21 51.56,95.21 51.56,95.39 51.38,95.39 51.2,95.39 51.2,95.21 51.02,95.21 50.84,95.21 50.84,95.39 50.66,95.39 
	50.66,95.57 50.66,95.75 50.48,95.93 50.3,95.93 50.3,95.75 50.11,95.75 49.94,95.75 49.76,95.57 49.57,95.39 49.4,95.21 
	49.22,95.03 49.03,94.85 48.85,94.85 48.68,95.03 48.49,95.03 48.49,95.21 48.68,95.39 48.49,95.39 48.49,95.57 48.31,95.57 
	48.13,95.75 47.95,95.75 47.77,95.75 47.77,95.93 47.59,95.93 47.41,95.93 47.23,95.93 47.05,95.93 47.05,96.11 47.05,96.29 
	46.87,96.29 46.87,96.47 46.69,96.47 46.69,96.65 46.51,96.83 46.51,96.65 46.33,96.83 46.15,96.83 46.15,96.65 45.97,96.65 
	45.79,96.65 45.79,96.47 45.79,96.29 45.61,96.29 45.61,96.47 45.43,96.47 45.25,96.47 45.07,96.47 44.89,96.47 44.89,96.65 
	44.89,96.83 44.89,97.01 44.89,97.19 44.89,97.37 44.71,97.37 44.71,97.55 44.53,97.55 44.53,97.73 44.35,97.73 44.35,97.55 
	44.17,97.55 44.17,97.37 43.99,97.37 43.99,97.19 43.81,97.19 43.81,97.01 43.63,97.01 43.45,97.01 43.45,97.19 43.27,97.19 
	43.27,97.01 43.09,97.01 42.91,96.83 42.91,96.65 42.91,96.47 42.91,96.29 42.73,96.29 42.55,96.29 42.55,96.11 42.37,96.11 
	42.19,95.93 42.19,95.75 42.01,95.75 42.01,95.57 41.83,95.57 41.65,95.57 41.65,95.75 41.65,95.93 41.47,95.93 41.29,95.93 
	41.29,96.11 41.11,96.11 40.93,96.11 40.93,96.29 40.75,96.29 40.57,96.29 40.57,96.47 40.57,96.65 40.39,96.65 40.21,96.65 
	40.21,96.83 40.03,96.83 39.85,96.83 39.85,96.65 39.85,96.47 39.85,96.29 39.85,96.11 39.85,95.93 39.85,95.75 39.85,95.57 
	39.85,95.39 39.67,95.39 39.49,95.39 39.49,95.21 39.31,95.21 39.31,95.03 39.31,94.85 39.49,94.85 39.49,94.67 39.49,94.49 
	39.67,94.31 39.67,94.13 39.85,94.13 39.85,93.95 40.03,93.77 40.03,93.59 40.03,93.41 40.03,93.22 39.85,93.22 39.85,93.05 
	40.03,93.05 40.03,92.87 40.03,92.68 40.21,92.5 40.21,92.33 40.21,92.14 40.21,91.96 40.21,91.79 40.21,91.6 40.03,91.6 
	39.85,91.6 39.67,91.42 39.67,91.24 39.67,91.06 39.49,91.06 39.49,90.88 39.49,90.7 39.49,90.52 39.31,90.52 39.31,90.34 
	39.13,90.16 38.95,90.16 38.77,89.98 38.59,89.98 38.59,89.8 38.41,89.8 38.41,89.62 38.23,89.62 38.05,89.62 37.87,89.62 
	37.69,89.62 37.51,89.44 37.51,89.26 37.33,89.08 37.15,89.08 37.15,88.9 36.97,88.9 36.97,88.72 36.97,88.54 36.97,88.36 
	36.79,88.18 36.79,88 36.61,88 36.61,87.82 36.43,87.82 36.25,88 36.07,88 36.07,88.18 35.89,88.18 35.71,88.18 35.71,88.36 
	35.53,88.36 35.53,88.54 35.35,88.54 35.17,88.54 34.99,88.54 34.81,88.54 34.81,88.36 34.63,88.36 34.45,88.18 34.27,88 
	34.27,87.82 34.27,87.64 34.09,87.64 33.91,87.64 33.73,87.46 33.55,87.46 33.55,87.28 33.37,87.28 33.19,87.46 33.01,87.46 
	33.01,87.64 32.83,87.64 32.83,87.46 32.65,87.28 32.47,87.28 32.47,87.1 32.29,87.1 32.29,86.92 32.11,86.92 32.11,86.74 
	31.93,86.74 31.75,86.74 31.75,86.56 31.57,86.56 31.57,86.38 31.39,86.38 31.39,86.2 31.21,86.02 31.03,86.02 31.03,86.2 
	30.85,86.2 30.67,86.2 30.67,86.02 30.49,86.02 30.49,85.84 30.31,85.84 30.13,85.66 30.13,85.48 29.95,85.48 29.95,85.3 
	29.77,85.3 29.59,85.3 29.59,85.12 29.41,85.12 29.23,84.94 29.05,84.76 28.87,84.58 28.69,84.58 28.51,84.4 28.51,84.22 
	28.33,84.04 28.33,83.86 28.15,83.86 27.97,83.86 27.97,83.68 27.79,83.68 27.61,83.68 27.61,83.5 27.61,83.32 27.61,83.14 
	27.43,82.96 27.43,82.78 27.25,82.6 27.25,82.42 27.25,82.24 27.25,82.06 27.25,81.88 27.07,81.88 27.07,81.7 26.89,81.7 
	26.89,81.52 26.71,81.34 26.53,81.16 26.53,80.98 26.53,80.8 26.35,80.8 26.17,80.8 26.17,80.62 25.99,80.44 25.99,80.26 
	25.81,80.08 25.81,79.9 25.63,79.9 25.45,79.9 25.45,79.72 25.27,79.72 25.09,79.72 24.91,79.54 24.73,79.54 24.55,79.54 
	24.55,79.36 24.37,79 24.19,79 24.01,79.18 24.01,79.36 23.83,79.54 23.65,79.54 23.65,79.36 23.47,79.36 23.47,79.18 23.29,79.18 
	23.11,79 22.93,79 22.75,79 22.57,78.82 22.39,78.82 22.21,78.82 22.21,79 22.03,79 22.03,78.82 22.03,78.64 21.85,78.64 
	21.85,78.46 21.67,78.46 21.67,78.28 21.49,78.28 21.49,78.1 21.49,77.92 21.49,77.74 21.31,77.74 21.13,77.74 20.95,77.74 
	20.77,77.74 20.59,77.92 20.59,78.1 20.41,78.1 20.23,78.1 20.05,77.92 19.87,77.92 19.69,77.92 19.51,77.74 19.33,77.74 
	19.15,77.74 18.97,77.74 18.79,77.56 18.61,77.38 18.43,77.38 18.25,77.38 18.07,77.38 17.89,77.38 17.71,77.38 17.53,77.38 
	17.35,77.38 17.17,77.56 17.17,77.74 16.99,77.74 16.99,77.56 16.81,77.38 16.81,77.2 16.63,77.2 16.63,77.02 16.45,77.02 
	16.27,76.84 16.09,76.66 16.09,76.48 16.09,76.3 16.27,76.12 16.45,76.12 16.45,75.94 16.45,75.76 16.45,75.58 16.45,75.4 
	16.45,75.22 16.63,75.22 16.63,75.04 16.63,74.86 16.45,74.68 16.27,74.68 16.27,74.5 16.09,74.5 16.09,74.32 16.09,74.14 
	16.27,73.96 16.27,73.78 16.27,73.6 16.45,73.6 16.45,73.42 16.27,73.42 16.09,73.42 15.91,73.42 15.73,73.42 15.73,73.24 
	15.55,73.24 15.37,73.24 15.37,73.06 15.19,73.06 15.19,72.88 15.19,72.7 15.19,72.52 15.19,72.34 15.19,72.16 15.19,71.98 
	15.19,71.8 15.19,71.62 15.19,71.44 15.19,71.26 15.01,71.26 14.83,71.26 14.65,71.26 14.65,71.44 14.47,71.44 14.47,71.62 
	14.29,71.62 14.11,71.62 13.93,71.62 13.75,71.62 13.57,71.62 13.39,71.8 13.21,71.8 13.03,71.8 12.85,71.98 12.67,72.16 
	12.49,72.16 12.49,71.98 12.31,71.98 12.13,71.98 11.95,71.8 11.77,71.8 11.59,71.8 11.41,71.8 11.23,71.8 11.23,71.62 11.23,71.44 
	11.23,71.26 11.05,71.26 10.87,71.26 10.69,71.08 10.51,71.08 10.51,70.9 10.33,70.72 10.33,70.54 10.51,70.54 10.51,70.36 
	10.51,70.18 10.51,69.82 10.51,69.64 10.33,69.64 10.15,69.64 9.97,69.64 9.97,69.46 9.97,69.28 9.79,69.1 9.61,68.92 9.61,68.74 
	9.61,68.56 9.61,68.38 9.43,68.38 9.43,68.2 9.43,68.02 9.43,67.84 9.61,67.84 9.61,67.66 9.61,67.48 9.43,67.48 9.43,67.3 
	9.43,67.12 9.43,66.94 9.43,66.76 9.25,66.76 9.25,66.58 9.25,66.4 9.25,66.22 9.25,66.04 9.25,65.86 9.07,65.86 9.07,65.68 
	9.07,65.5 8.89,65.5 8.89,65.32 8.89,65.14 8.89,64.96 8.89,64.78 8.89,64.6 8.89,64.42 8.89,64.24 9.07,64.24 9.07,64.06 
	8.89,63.88 8.89,63.7 8.89,63.52 8.71,63.52 8.53,63.52 8.53,63.34 8.35,63.34 7.8,62.98 7.62,62.98 7.62,62.8 7.44,62.8 
	7.44,62.62 7.26,62.62 7.26,62.26 7.26,62.08 7.26,61.9 7.26,61.72 7.08,61.54 7.08,61.36 7.08,61.18 6.9,61 6.72,60.82 6.54,60.64 
	6.36,60.46 6.36,60.28 6.18,60.1 6,59.92 5.82,59.92 5.64,59.92 5.82,59.74 5.82,59.56 5.82,59.38 6,59.2 6,59.02 6,58.84 6,58.66 
	5.64,57.94 5.46,57.76 5.46,57.58 5.28,57.58 5.28,57.4 5.28,57.22 5.28,57.04 5.28,56.86 5.28,56.68 5.1,56.68 5.1,56.5 5.1,56.32 
	5.1,56.14 4.92,55.96 4.74,55.78 4.56,55.6 4.56,55.42 4.56,55.24 4.74,55.24 4.56,55.06 4.56,54.7 4.56,54.52 4.38,54.34 
	4.38,54.16 4.2,53.98 4.2,53.8 4.2,53.62 4.02,53.62 4.2,53.44 4.2,53.26 4.2,53.08 4.2,52.9 4.02,52.72 3.84,52.72 3.66,52.54 
	3.66,52.36 3.48,52.36 3.48,52.18 3.48,52 3.48,51.82 3.66,51.82 3.66,51.64 3.66,51.46 3.48,51.46 3.48,51.28 3.3,51.1 3.3,50.92 
	3.48,50.92 3.48,50.74 3.48,50.56 3.48,50.38 3.48,50.2 3.48,50.02 3.48,49.84 3.48,49.66 3.48,49.48 3.48,49.3 3.48,49.12 
	3.66,49.12 3.66,48.94 3.66,48.76 3.48,48.58 3.48,48.4 3.48,48.22 3.48,48.04 3.3,48.04 3.3,47.86 3.3,47.68 3.3,47.5 3.3,47.32 
	3.3,47.14 3.3,46.78 3.3,46.6 3.3,46.42 3.12,46.42 2.94,46.24 2.94,46.06 2.94,45.88 2.94,45.51 2.94,45.34 2.94,45.15 3.12,44.97 
	3.12,44.79 3.12,44.61 3.3,44.43 3.3,44.25 3.48,44.07 3.48,43.89 3.48,43.71 3.66,43.71 3.66,43.53 3.66,43.35 3.84,43.35 
	3.84,43.17 3.84,42.99 3.84,42.81 3.84,42.63 3.84,42.45 3.66,42.45 3.66,42.27 3.84,42.27 3.84,42.09 3.84,41.91 3.66,41.91 
	3.66,41.73 3.66,41.55 3.66,41.37 3.48,41.37 3.3,41.37 3.12,41.37 3.12,41.19 3.12,41.01 2.94,41.01 2.94,40.83 2.94,40.65 
	2.76,40.65 2.58,40.65 2.58,40.47 2.58,40.29 2.4,40.29 2.4,40.11 2.22,40.11 2.22,39.93 2.22,39.75 2.22,39.57 2.22,39.39 
	2.22,39.21 2.4,39.21 2.4,39.03 2.4,38.85 2.4,38.67 2.4,38.49 2.4,38.31 2.4,38.13 2.58,37.95 2.58,37.77 2.4,37.77 2.4,37.59 
	2.4,37.41 2.22,37.41 2.22,37.23 2.22,37.05 2.04,37.05 2.04,36.87 2.04,36.69 1.86,36.51 1.86,36.33 1.86,36.15 1.68,35.97 
	1.68,35.79 1.68,35.61 1.68,35.43 1.68,35.25 1.5,35.25 1.5,35.07 1.5,34.89 1.5,34.71 1.5,34.53 1.5,34.35 1.5,34.17 1.32,34.17 
	1.32,33.99 1.32,33.81 1.32,33.63 1.32,33.45 1.5,33.63 1.68,33.63 1.86,33.63 2.04,33.63 2.22,33.63 2.4,33.63 2.58,33.63 
	2.76,33.63 2.94,33.63 3.12,33.63 3.12,33.45 3.3,33.45 3.48,33.45 3.48,33.27 3.66,33.09 3.66,33.27 3.84,33.27 4.02,33.27 
	4.02,33.45 4.2,33.45 4.2,33.63 4.38,33.63 4.56,33.63 4.56,33.45 4.74,33.45 4.92,33.45 5.1,33.45 5.28,33.45 5.46,33.27 
	5.64,33.27 5.82,33.09 6,33.27 6.18,33.27 6.18,33.09 6.36,33.09 6.36,32.91 6.54,32.91 6.54,32.73 6.72,32.73 6.9,32.73 6.9,32.55 
	7.08,32.55 7.08,32.37 7.26,32.37 7.44,32.37 7.62,32.19 7.8,32.19 7.99,32.01 8.16,32.01 8.16,31.83 8.35,31.65 8.35,31.47 
	8.53,31.47 8.71,31.47 8.89,31.47 9.25,31.47 9.43,31.47 9.61,31.47 9.61,31.29 9.79,31.29 9.97,31.29 10.15,31.11 10.15,31.29 
	10.33,31.29 10.51,31.29 10.69,31.29 10.69,31.11 10.87,31.11 11.05,30.93 11.23,30.93 11.41,30.57 11.59,30.39 11.77,30.39 
	11.95,30.39 12.13,30.39 12.31,30.39 12.49,30.39 12.67,30.39 12.85,30.39 13.03,30.39 13.39,30.39 13.57,30.39 13.75,30.39 
	13.93,30.39 14.11,30.39 14.47,30.57 14.65,30.57 15.01,30.75 15.19,30.75 15.55,30.75 15.73,30.93 15.91,30.93 16.09,30.93 
	16.45,30.93 16.63,30.93 16.81,30.93 16.99,30.93 17.35,30.93 17.71,30.93 17.89,30.93 18.07,30.75 18.25,30.75 18.43,30.75 
	18.61,30.75 18.79,30.93 18.97,30.93 19.15,30.93 19.33,30.93 19.51,30.93 19.51,30.75 19.69,30.57 19.69,30.39 19.87,30.21 
	20.05,30.03 20.23,29.85 20.41,29.85 20.59,29.85 20.77,29.85 20.77,30.03 20.77,30.21 20.95,30.39 20.95,30.57 21.13,30.57 
	21.31,30.57 21.49,30.57 21.67,30.75 21.67,30.93 21.85,31.11 21.85,31.29 22.03,31.29 22.03,31.47 22.21,31.47 22.21,31.65 
	22.39,31.65 22.39,31.83 22.57,32.01 22.57,32.19 22.57,32.37 22.57,32.55 22.75,32.73 22.75,32.91 22.93,32.91 23.11,32.91 
	23.29,32.73 23.29,32.55 23.47,32.37 23.65,32.37 23.83,32.37 24.01,32.37 24.19,32.19 24.37,32.19 24.37,32.37 24.37,32.55 
	24.55,32.73 24.55,33.09 24.55,33.27 24.73,33.27 24.73,33.45 24.73,33.63 24.73,33.81 24.73,33.99 24.91,34.17 24.91,34.35 
	24.91,34.53 24.91,34.71 25.09,34.89 25.27,34.89 25.27,34.71 25.45,34.71 25.45,34.53 25.63,34.53 25.63,34.35 25.63,34.17 
	25.81,34.17 25.81,33.99 25.99,33.99 26.17,33.99 26.35,33.99 26.35,33.81 26.53,33.63 26.53,33.81 26.71,33.81 26.71,33.63 
	26.89,33.63 27.07,33.63 27.25,33.45 27.25,33.27 27.43,33.27 27.43,33.09 27.25,33.09 27.25,32.91 27.43,32.91 27.43,32.73 
	27.61,32.73 27.79,32.73 27.97,32.73 28.15,32.73 28.33,32.73 28.51,32.55 28.69,32.55 28.69,32.73 28.87,32.73 29.05,32.73 
	29.23,32.73 29.41,32.73 29.41,32.55 29.59,32.55 29.77,32.55 29.95,32.55 29.95,32.73 30.13,32.73 30.31,32.73 30.31,32.55 
	30.49,32.55 30.67,32.55 30.85,32.55 31.03,32.55 31.03,32.37 31.21,32.37 31.39,32.19 31.57,32.19 31.75,32.19 31.75,32.37 
	31.93,32.37 31.93,32.55 32.11,32.55 32.29,32.55 32.47,32.55 32.47,32.37 32.65,32.37 32.65,32.19 32.47,32.19 32.47,32.01 
	32.65,32.01 32.65,31.83 32.83,32.01 33.01,32.01 33.01,32.19 33.01,32.37 33.19,32.37 33.19,32.55 33.19,32.37 33.19,32.55 
	33.37,32.55 33.55,32.55 33.73,32.55 33.73,32.73 33.91,32.91 33.91,32.73 34.09,32.73 34.09,32.55 33.91,32.55 33.91,32.37 
	33.91,32.19 33.73,32.19 33.73,32.01 33.73,31.83 33.73,31.65 33.91,31.65 33.91,31.47 34.09,31.47 34.09,31.65 34.27,31.65 
	34.45,31.65 34.63,31.65 34.63,31.83 34.81,31.83 34.99,31.83 35.17,31.65 35.35,31.65 35.35,31.83 35.53,31.83 35.71,31.83 
	35.71,31.65 35.53,31.65 35.71,31.47 35.89,31.47 36.07,31.29 35.89,31.29 35.89,31.11 36.07,31.11 36.25,31.11 36.43,31.11 
	36.61,31.11 36.61,31.29 36.61,31.11 36.79,31.11 36.79,30.93 36.97,30.93 36.97,31.11 37.15,31.11 37.15,30.93 37.33,30.93 
	37.33,31.11 37.51,31.11 37.69,31.11 37.69,31.29 37.87,31.29 37.87,31.47 37.87,31.65 37.87,31.83 37.69,31.83 37.69,32.01 
	37.87,32.01 37.87,32.19 38.05,32.19 38.05,32.37 38.23,32.37 38.41,32.19 38.41,32.01 38.41,31.83 38.41,32.01 38.59,32.01 
	38.77,32.01 38.77,31.83 38.77,32.01 38.77,32.19 38.95,32.19 39.13,32.01 39.31,32.19 39.49,32.19 39.49,32.37 39.67,32.37 
	39.67,32.19 39.85,32.19 40.03,32.01 39.85,31.83 39.85,31.65 39.85,31.47 39.67,31.29 39.67,31.11 39.49,30.93 39.31,30.75 
	39.31,30.57 39.49,30.39 39.49,30.21 39.67,30.03 39.67,29.85 39.85,29.67 39.85,29.49 39.85,29.31 39.85,29.13 39.85,28.95 
	39.67,28.77 39.67,28.59 39.67,28.41 39.49,28.41 39.49,28.23 39.31,28.23 39.31,28.05 39.49,27.87 39.49,27.69 39.49,27.51 
	39.49,27.33 39.67,26.97 39.67,26.79 39.85,26.79 39.67,26.61 39.67,26.43 39.67,26.25 39.67,26.07 39.67,25.89 39.49,25.89 
	39.49,25.71 39.49,25.53 39.49,25.35 39.49,25.17 39.31,25.17 39.31,24.99 39.31,24.81 39.31,24.63 39.31,24.45 39.49,24.45 
	39.49,24.27 39.31,24.09 39.31,23.91 39.31,23.73 39.49,23.55 39.49,23.19 39.49,23.01 39.31,22.65 39.31,22.47 39.49,22.29 
	39.49,22.11 39.67,22.11 39.67,21.93 39.67,21.75 39.67,21.57 39.49,21.21 39.49,21.03 39.49,20.85 39.67,20.85 39.67,20.67 
	39.85,20.67 39.85,20.49 40.03,20.49 40.03,20.31 40.21,20.31 40.39,20.31 40.39,20.13 40.57,20.13 40.57,19.95 40.75,19.95 
	40.93,19.77 41.11,19.59 41.29,19.77 41.47,19.77 41.83,19.59 42.01,19.41 42.19,19.59 42.37,19.59 42.37,19.41 42.55,19.41 
	42.73,19.41 42.91,19.59 43.09,19.59 43.09,19.41 43.27,19.41 43.27,19.59 43.45,19.59 43.63,19.59 43.81,19.59 43.99,19.59 
	46.33,19.95 47.77,20.13 47.95,20.31 48.31,20.31 48.49,20.31 48.49,20.49 48.68,20.49 48.85,20.49 48.85,20.67 48.85,20.49 
	49.03,20.49 49.03,20.31 48.85,20.31 49.03,20.13 49.03,19.95 48.85,19.95 48.85,19.77 49.03,19.59 49.03,19.77 49.22,19.77 
	49.22,19.59 49.22,19.41 49.22,19.23 49.03,19.23 48.85,19.23 48.85,19.05 49.03,19.05 49.03,18.87 49.22,18.87 49.22,19.05 
	49.4,19.05 49.4,18.87 49.4,18.69 49.22,18.51 49.22,18.33 49.4,18.33 49.57,18.33 49.57,18.15 49.4,18.15 49.22,18.15 49.22,17.97 
	49.03,17.97 49.03,17.79 48.85,17.79 48.85,17.61 49.03,17.61 49.03,17.43 49.03,17.25 48.85,17.25 49.03,17.07 49.22,17.07 
	49.22,17.25 49.4,17.25 49.57,17.25 49.57,17.07 49.4,17.07 49.4,16.89 49.4,16.71 49.4,16.53 49.4,16.35 49.57,16.35 49.4,16.35 
	49.22,16.35 49.22,16.17 49.22,15.99 49.4,15.99 49.4,15.81 49.57,15.81 49.57,15.99 49.76,15.81 49.94,15.81 50.3,15.99 
	50.84,15.81 51.74,15.27 52.1,15.09 52.28,14.73 52.64,14.55 52.82,14.55 53,14.55 53.36,14.37 53.54,14.19 53.72,13.83 53.9,13.65 
	54.08,13.47 54.26,13.47 54.62,13.29 54.8,13.47 54.98,13.47 55.16,13.47 55.34,13.47 55.52,13.65 55.88,13.47 56.06,13.11 
	56.06,12.93 56.24,12.93 56.24,12.57 56.42,12.39 56.42,12.21 56.42,12.03 56.6,11.85 56.78,11.67 56.78,11.49 56.96,11.49 
	57.14,11.13 57.14,10.95 57.14,10.59 57.32,10.59 58.22,10.05 58.4,10.05 58.22,9.69 58.4,9.69 58.58,9.69 58.76,9.69 58.76,9.51 
	58.58,9.51 58.58,9.33 58.76,9.33 58.94,9.33 58.94,9.51 59.12,9.51 59.3,9.51 59.3,9.69 59.3,9.87 59.3,10.05 59.48,10.05 
	59.66,10.05 59.48,9.87 59.48,9.69 59.48,9.51 59.66,9.51 59.66,9.69 59.84,9.69 60.02,9.69 60.02,9.51 60.02,9.33 60.02,9.15 
	60.2,9.15 60.38,9.15 60.56,9.15 60.56,8.97 60.74,8.97 60.74,9.15 60.56,9.15 60.56,9.33 60.74,9.51 60.74,9.69 60.92,9.87 
	61.1,9.87 61.1,9.69 61.28,9.69 61.28,9.87 61.46,9.87 61.46,10.05 61.46,9.87 61.64,9.87 61.82,9.87 62,9.69 62.36,9.69 
	62.54,9.69 62.72,9.69 62.72,9.51 62.9,9.51 62.9,9.69 62.9,9.87 63.08,9.87 63.08,9.69 63.26,9.69 63.44,9.69 63.62,9.69 
	63.62,9.51 63.8,9.51 63.8,9.33 63.8,9.15 63.98,9.15 63.98,9.33 64.16,9.33 64.16,9.15 64.16,9.33 64.34,9.33 64.34,9.15 
	64.34,8.97 64.52,8.97 64.52,8.79 64.52,8.61 64.52,8.43 64.7,8.25 64.88,8.07 64.88,7.89 64.88,7.71 65.06,7.71 65.06,7.53 
	65.24,7.35 65.42,7.17 65.42,6.99 65.42,6.81 65.42,6.63 65.6,6.45 65.6,6.27 65.6,6.09 65.78,6.09 65.78,5.91 65.78,5.73 
	65.96,5.73 66.14,5.55 66.32,5.37 66.5,5.37 66.5,5.19 66.68,5.19 66.86,5.37 67.04,5.37 67.22,5.19 67.4,5.01 67.58,5.19 
	67.76,5.19 67.94,5.37 67.94,5.55 68.12,5.37 68.12,5.19 68.3,5.19 68.48,5.01 68.66,4.83 68.66,4.65 68.84,4.65 68.84,4.47 
	68.84,4.29 69.02,4.11 69.2,4.11 69.2,3.93 69.38,3.93 69.38,3.75 69.38,3.57 69.56,3.39 69.56,3.21 69.74,3.03 69.92,3.03 
	70.1,3.03 70.28,3.03 70.46,2.85 70.64,2.85 70.82,2.85 71,2.85 71,2.67 71.18,2.49 71.36,2.49 71.36,2.31 71.54,2.13 71.54,1.95 
	71.54,1.77 71.54,1.59 71.72,1.41 71.9,1.23 71.9,1.05 72.08,0.87 72.26,0.69 72.44,0.69 72.62,0.69 72.8,0.69 72.8,0.51 
	72.98,0.51 72.98,0.33 72.98,0.15 73.16,0.15 73.34,0.15 73.52,0.15 73.7,0.33 73.88,0.33 73.88,0.51 74.06,0.51 74.24,0.51 
	74.24,0.69 74.24,0.87 74.42,0.87 74.6,0.87 74.78,0.87 74.96,0.87 75.14,1.05 75.32,1.23 75.32,1.41 75.5,1.59 75.68,1.59 
	75.86,1.59 75.86,1.77 76.04,1.77 76.22,1.77 76.22,1.95 76.22,2.13 76.4,2.13 76.4,2.31 76.4,2.49 76.4,2.67 76.58,2.67 
	76.58,2.85 76.76,2.85 76.76,3.03 76.94,3.03 76.94,3.21 76.94,3.39 76.94,3.57 76.76,3.57 76.76,3.75 76.4,3.93 76.22,4.11 
	76.22,4.29 76.04,4.29 76.04,4.47 75.86,4.65 75.86,4.83 75.86,5.01 75.86,5.19 75.68,5.19 75.68,5.37 75.5,5.37 75.5,5.55 
	75.5,5.73 75.5,5.91 75.5,6.09 75.5,6.27 75.32,6.45 75.32,6.63 75.32,6.81 75.5,6.81 75.68,6.81 75.86,6.99 76.04,7.17 76.22,7.17 
	76.4,7.35 76.58,7.53 76.76,7.53 76.76,7.71 76.76,7.89 76.76,8.07 76.76,8.25 76.76,8.43 76.76,8.61 76.76,8.79 76.76,8.97 
	76.94,8.97 76.94,9.15 76.94,9.33 76.76,9.51 76.76,9.69 76.76,9.87 76.76,10.05 76.76,10.23 76.76,10.41 76.76,10.59 76.76,10.77 
	76.94,10.77 76.94,10.95 77.12,11.13 77.12,11.31 77.3,11.31 77.3,11.49 77.48,11.49 77.48,11.31 77.66,11.31 77.84,11.31 
	78.02,11.31 78.2,11.49 78.2,11.67 78.38,11.85 78.38,12.03 78.38,12.21 78.56,12.21 78.56,12.39 78.74,12.39 78.92,12.57 
	79.1,12.75 79.28,12.75 79.46,12.75 79.64,12.75 79.82,12.75 79.82,12.93 80,12.93 80.18,12.93 80.36,12.93 80.36,13.11 
	80.54,13.11 80.72,13.11 80.72,13.29 80.72,13.47 80.72,13.65 80.72,13.83 80.72,14.01 80.9,14.01 80.9,14.19 81.08,14.37 
	81.08,14.55 81.08,14.73 81.08,14.91 81.26,14.91 81.26,15.09 81.08,15.09 81.08,15.27 81.08,15.45 80.9,15.63 81.08,15.63 
	81.08,15.81 81.26,15.81 81.26,15.99 81.44,15.99 81.62,16.17 81.62,16.35 81.62,16.53 81.62,16.71 81.62,16.89 81.44,17.07 
	81.44,17.25 81.44,17.43 81.44,17.61 81.26,17.79 81.26,17.97 81.08,18.15 80.9,18.33 80.72,18.33 80.72,18.51 80.72,18.69 
	80.72,18.87 80.9,18.87 80.9,19.05 80.9,19.23 80.9,19.41 80.9,19.59 80.9,19.77 81.08,19.77 81.08,19.95 81.08,20.13 81.26,20.13 
	81.26,20.31 81.44,20.31 81.62,20.49 81.8,20.49 81.98,20.49 82.16,20.67 82.34,20.67 82.52,20.67 82.7,20.67 82.7,20.85 
	82.7,21.03 82.88,21.03 82.88,21.21 83.06,21.21 83.24,21.39 83.42,21.57 83.6,21.75 83.6,21.93 83.6,22.11 83.78,22.11 
	83.78,22.29 83.96,22.29 84.14,22.29 84.32,22.29 84.5,22.29 84.5,22.47 84.68,22.65 84.86,22.65 84.86,22.83 85.04,22.83 
	85.04,22.65 85.22,22.65 85.4,22.65 85.58,22.65 85.58,22.47 85.76,22.29 85.76,22.11 85.94,22.11 85.94,22.29 86.3,22.29 
	86.48,22.29 86.66,22.29 86.66,22.47 86.84,22.47 87.02,22.65 87.2,22.65 87.38,22.65 87.56,22.65 87.56,22.83 87.74,22.83 
	87.74,23.01 88.1,23.37 88.28,23.55 88.28,23.73 88.46,23.73 88.64,23.73 89,23.91 89.18,23.91 89.36,24.09 89.54,24.27 
	89.72,24.45 89.9,24.63 89.9,24.81 90.09,24.81 90.26,24.81 90.44,24.81 90.63,24.81 90.81,24.63 90.81,24.45 90.98,24.45 
	91.17,24.27 91.35,24.09 91.53,24.09 91.71,24.09 91.89,24.09 92.07,24.09 92.07,23.91 92.25,23.91 92.25,23.73 92.43,23.73 "/>
</svg>
