<?xml version="1.0" encoding="utf-8"?>
<!-- Generator: Adobe Illustrator 24.2.1, SVG Export Plug-In . SVG Version: 6.00 Build 0)  -->
<svg version="1.1" id="Layer_1" xmlns="http://www.w3.org/2000/svg" xmlns:xlink="http://www.w3.org/1999/xlink" x="0px" y="0px"
	 viewBox="0 0 97.23 97.23" style="enable-background:new 0 0 97.23 97.23;" xml:space="preserve">
<style type="text/css">
	.st0{fill-rule:evenodd;clip-rule:evenodd;}
</style>
<polygon class="st0" points="79.16,4.14 79.16,4.28 79.16,4.43 79.02,4.71 79.02,4.86 78.88,5 78.88,5.15 78.88,5.29 79.02,5.43 
	79.02,5.58 78.88,5.72 79.02,5.72 79.02,5.86 79.16,5.86 79.31,5.86 79.31,6.01 79.45,6.01 79.45,5.86 79.59,5.86 79.74,5.86 
	79.88,5.86 80.02,5.86 80.17,6.01 80.31,6.01 80.45,6.01 80.6,6.01 80.6,6.15 80.74,6.29 80.88,6.29 80.88,6.44 81.03,6.58 
	81.03,6.72 80.88,6.72 80.88,6.87 80.74,6.87 80.74,7.01 80.74,7.15 80.88,7.3 80.88,7.44 80.88,7.58 80.74,7.58 80.74,7.73 
	80.6,7.73 80.6,7.87 80.6,8.01 80.74,8.16 80.74,8.3 80.74,8.44 80.6,8.59 80.6,8.73 80.74,8.73 80.88,8.87 81.03,9.02 81.17,9.02 
	81.17,9.16 81.31,9.16 81.46,9.16 81.6,9.16 81.74,9.31 81.89,9.31 82.03,9.31 82.17,9.31 82.32,9.31 82.32,9.45 82.46,9.45 
	82.6,9.31 82.75,9.31 82.89,9.31 83.03,9.31 83.03,9.45 83.18,9.45 83.32,9.45 83.32,9.59 83.32,9.74 83.18,9.74 83.18,9.88 
	83.18,10.02 83.18,10.17 83.03,10.31 83.03,10.45 83.03,10.6 83.18,10.6 83.18,10.74 83.03,10.74 83.03,10.88 82.89,10.88 
	82.75,10.88 82.75,10.74 82.6,10.74 82.6,10.88 82.46,10.88 82.46,11.03 82.32,11.03 82.32,11.17 82.32,11.31 82.17,11.46 
	82.17,11.6 82.03,11.74 81.89,11.89 81.74,12.03 81.74,12.17 81.6,12.17 81.46,12.17 81.31,12.32 81.17,12.32 81.17,12.46 
	81.17,12.6 81.17,12.75 81.03,12.89 81.03,13.03 80.88,13.03 80.88,13.18 80.88,13.32 80.88,13.46 80.88,13.61 80.74,13.61 
	80.74,13.75 80.74,13.9 80.74,14.04 80.6,14.18 80.45,14.18 80.45,14.33 80.45,14.47 80.31,14.47 80.31,14.61 80.17,14.61 
	80.31,14.76 80.31,14.9 80.45,14.9 80.45,15.04 80.45,15.19 80.6,15.19 80.6,15.33 80.45,15.33 80.45,15.47 80.45,15.62 80.6,15.62 
	80.6,15.76 80.6,15.9 80.6,16.05 80.45,16.05 80.45,16.19 80.45,16.33 80.6,16.33 80.6,16.48 80.74,16.48 80.74,16.33 80.88,16.33 
	80.88,16.48 80.88,16.62 80.88,16.76 80.88,16.91 80.88,17.05 80.88,17.19 80.88,17.34 80.88,17.48 81.03,17.48 81.03,17.62 
	81.17,17.62 81.17,17.77 81.31,17.77 81.46,17.91 81.46,18.05 81.6,18.05 81.6,18.2 81.74,18.05 81.89,18.05 81.89,18.2 82.03,18.2 
	82.03,18.34 82.17,18.34 82.32,18.2 82.46,18.2 82.6,18.2 82.75,18.2 82.89,18.05 83.03,18.05 83.18,18.05 83.18,18.2 83.32,18.2 
	83.47,18.2 83.47,18.34 83.47,18.49 83.61,18.49 83.61,18.63 83.61,18.77 83.75,18.92 83.75,19.06 83.75,19.2 83.61,19.2 
	83.47,19.2 83.32,19.2 83.18,19.35 83.03,19.35 83.03,19.2 82.89,19.2 82.75,19.35 82.6,19.35 82.6,19.49 82.6,19.63 82.6,19.78 
	82.6,19.92 82.6,20.06 82.46,20.06 82.46,20.21 82.32,20.35 82.32,20.49 82.32,20.64 82.32,20.78 82.32,20.92 82.32,21.07 
	82.32,21.21 82.32,21.35 82.32,21.5 82.32,21.64 82.32,21.78 82.32,21.93 82.17,22.07 82.17,22.21 82.32,22.21 82.32,22.36 
	82.32,22.5 82.32,22.65 82.32,22.79 82.17,22.93 82.17,23.08 82.17,23.22 82.17,23.36 82.17,23.51 82.17,23.65 82.03,23.65 
	82.03,23.79 81.89,23.94 81.89,24.08 81.74,24.08 81.74,24.22 81.89,24.22 82.03,24.22 82.17,24.37 82.32,24.37 82.32,24.51 
	82.46,24.51 82.6,24.65 82.75,24.65 82.89,24.8 83.03,24.8 83.18,24.8 83.18,24.94 83.18,25.08 83.18,25.23 83.18,25.51 
	83.18,25.66 83.18,25.8 83.18,25.94 83.18,26.09 83.18,26.23 83.32,26.37 83.47,26.52 83.47,26.8 83.61,26.8 83.61,26.95 
	83.75,26.95 83.75,27.09 83.75,27.24 83.75,27.38 83.75,27.52 83.75,27.67 83.61,27.67 83.61,27.81 83.47,27.81 83.47,27.95 
	83.32,28.1 83.32,28.24 83.18,28.38 83.18,28.53 83.03,28.67 83.18,28.81 83.32,28.81 83.47,28.96 83.61,28.96 83.61,29.1 
	83.61,29.24 83.75,29.24 83.75,29.39 83.9,29.39 83.9,29.53 83.9,29.67 83.9,29.82 83.9,29.96 83.75,30.1 83.9,30.1 84.04,30.1 
	84.04,30.25 84.18,30.25 84.18,30.39 84.18,30.53 84.04,30.53 84.04,30.68 84.04,30.82 84.18,30.96 84.33,30.96 84.33,30.82 
	84.47,30.82 84.47,30.96 84.61,30.96 84.76,30.96 84.9,30.96 84.9,31.11 85.04,31.11 85.19,31.11 85.19,31.25 85.33,31.25 
	85.47,31.11 85.62,31.11 85.62,30.96 85.62,30.82 85.62,30.68 85.62,30.53 85.76,30.25 85.9,30.1 86.05,30.1 86.05,29.96 
	86.19,29.96 86.33,29.96 86.48,29.96 86.48,29.82 86.62,29.82 86.76,29.82 86.76,29.67 86.91,29.67 87.05,29.67 87.05,29.82 
	87.19,29.96 87.19,30.1 87.34,30.1 87.34,30.25 87.48,30.25 87.48,30.39 87.63,30.39 87.63,30.53 87.77,30.39 87.77,30.25 
	87.77,30.1 87.91,29.96 88.06,30.1 88.2,29.96 88.34,29.96 88.34,30.1 88.49,30.1 88.63,30.1 88.77,30.25 88.92,30.39 89.06,30.39 
	89.2,30.39 89.35,30.39 89.49,30.39 89.63,30.39 89.63,30.25 89.78,30.39 89.92,30.25 90.06,30.25 90.06,30.1 90.21,30.1 
	90.35,30.1 90.35,30.25 90.35,30.39 90.35,30.53 90.35,30.68 90.49,30.68 90.49,30.82 90.64,30.82 90.64,30.96 90.64,31.11 
	90.78,31.11 90.78,31.25 90.92,31.25 91.07,31.39 91.21,31.54 91.35,31.54 91.5,31.68 91.64,31.83 91.79,31.83 91.79,31.68 
	91.93,31.68 92.36,31.68 92.5,31.83 92.65,31.83 92.93,31.68 93.08,31.54 93.22,31.68 93.51,31.68 93.79,31.54 93.94,31.39 
	94.08,31.25 94.08,30.96 94.37,30.96 94.51,30.82 94.65,30.82 94.8,30.53 95.08,30.39 95.51,30.53 95.51,30.82 95.51,30.96 
	95.51,31.11 95.51,31.39 95.66,31.54 95.66,31.68 95.66,31.83 95.66,32.11 95.66,32.26 95.8,32.4 95.8,32.69 95.94,32.97 
	96.09,32.97 96.09,33.26 96.09,33.55 96.09,33.69 96.09,33.83 96.09,34.12 96.09,34.26 95.94,34.55 95.94,34.84 95.94,34.98 
	96.09,35.12 96.09,35.27 96.23,35.55 96.23,35.84 96.23,35.98 96.23,36.13 96.23,36.27 96.23,36.56 96.09,36.7 96.09,36.85 
	95.94,36.99 95.94,37.13 95.8,37.42 95.66,37.56 95.51,37.56 95.51,37.85 95.37,37.99 95.37,38.14 95.23,38.28 95.23,38.42 
	95.08,38.71 94.94,38.71 94.65,38.71 94.37,38.85 94.08,38.71 93.79,38.57 93.65,38.71 93.36,38.85 93.36,39 93.22,39.14 
	93.08,39.43 93.08,39.57 93.08,39.71 93.08,40 92.93,40.14 92.79,40.29 92.79,40.43 92.65,40.57 92.65,40.72 92.65,40.86 
	92.65,41.15 92.65,41.29 92.5,41.29 92.36,41.44 92.22,41.58 92.07,41.58 91.93,41.87 91.93,42.01 91.79,42.01 91.64,42.01 
	91.5,42.01 91.35,42.01 91.21,42.15 91.07,42.15 90.92,42.15 90.78,42.15 90.64,42.15 90.78,42.3 90.92,42.44 90.92,42.58 
	90.78,42.73 90.92,42.87 91.07,42.87 91.21,42.87 91.35,42.87 91.35,43.01 91.5,43.01 91.64,43.01 91.64,43.16 91.64,43.3 
	91.64,43.44 91.5,43.44 91.35,43.44 91.35,43.59 91.35,43.73 91.35,43.87 91.21,44.02 91.21,44.16 91.07,44.16 91.07,44.3 
	90.92,44.3 90.78,44.3 90.78,44.45 90.78,44.59 90.64,44.59 90.64,44.73 90.64,44.88 90.78,45.02 90.64,45.16 90.78,45.16 
	90.78,45.31 90.78,45.45 90.78,45.6 90.78,45.74 90.78,45.88 90.92,46.03 90.92,46.17 91.07,46.17 91.07,46.31 91.21,46.46 
	91.07,46.6 90.92,46.74 90.92,46.89 90.92,47.03 90.92,47.17 91.07,47.32 91.07,47.46 91.21,47.46 91.35,47.46 91.35,47.6 
	91.5,47.6 91.5,47.75 91.64,47.75 91.64,47.89 91.79,48.03 91.79,48.18 91.64,48.32 91.35,48.46 91.21,48.61 91.07,48.75 
	90.92,48.89 90.78,49.04 90.64,49.04 90.49,49.04 90.49,49.18 90.49,49.32 90.35,49.32 90.35,49.47 90.35,49.61 90.49,49.61 
	90.35,49.75 90.35,49.9 90.21,49.9 90.21,50.04 90.06,50.04 90.06,50.19 90.06,50.33 90.06,50.47 89.92,50.62 89.92,50.76 
	89.92,50.9 89.78,51.05 89.78,51.19 89.78,51.33 89.78,51.48 89.78,51.62 89.63,51.76 89.49,51.76 89.49,51.91 89.49,52.05 
	89.35,52.05 89.35,52.19 89.2,52.19 89.2,52.34 89.2,52.48 89.2,52.62 89.2,52.77 89.2,52.91 89.2,53.05 89.06,53.05 89.06,53.2 
	89.06,53.34 88.92,53.34 88.77,53.48 88.63,53.48 88.63,53.63 88.63,53.77 88.77,53.91 88.92,54.06 88.92,54.2 88.92,54.35 
	88.92,54.49 89.06,54.49 89.06,54.63 89.06,54.78 89.06,54.92 89.06,55.06 89.06,55.21 89.06,55.35 88.92,55.35 88.92,55.49 
	88.77,55.49 88.77,55.64 88.63,55.64 88.63,55.78 88.63,55.92 88.49,55.92 88.49,56.07 88.49,56.21 88.49,56.35 88.49,56.5 
	88.49,56.64 88.49,56.78 88.49,56.93 88.49,57.07 88.49,57.21 88.34,57.36 88.2,57.64 88.2,57.79 88.2,57.93 88.06,58.07 
	88.06,58.22 87.91,58.36 87.91,58.5 87.77,58.5 87.77,58.65 87.63,58.65 87.48,58.79 87.34,58.79 87.19,58.79 87.05,58.79 
	86.91,58.79 86.76,58.79 86.62,58.65 86.48,58.65 86.33,58.65 86.19,58.65 86.05,58.65 85.9,58.65 85.9,58.5 85.76,58.5 85.62,58.5 
	85.62,58.65 85.62,58.79 85.47,58.79 85.47,58.94 85.47,59.08 85.33,59.22 85.33,59.37 85.33,59.51 85.19,59.51 85.19,59.65 
	85.04,59.8 84.9,59.8 84.76,59.8 84.61,59.8 84.47,59.8 84.33,59.94 84.18,60.08 84.18,60.23 84.18,60.37 84.18,60.51 84.04,60.8 
	84.04,60.94 83.9,60.94 83.9,61.09 83.9,61.23 83.9,61.37 83.75,61.52 83.75,61.66 83.75,61.8 83.75,61.95 83.9,62.09 83.9,62.23 
	84.04,62.38 84.18,62.66 84.18,62.81 84.33,62.95 84.33,63.09 84.33,63.24 84.33,63.38 84.18,63.38 84.18,63.53 84.04,63.67 
	84.04,63.81 84.18,63.81 84.18,63.96 84.18,64.1 84.04,64.24 84.04,64.39 84.18,64.53 84.33,64.53 84.47,64.53 84.47,64.67 
	84.61,64.67 84.76,64.82 84.9,64.96 85.04,65.1 85.19,65.1 85.19,65.25 85.19,65.39 85.04,65.39 85.04,65.53 84.9,65.53 84.9,65.82 
	84.76,65.96 84.61,66.11 84.76,66.11 84.76,66.25 84.9,66.39 85.04,66.39 85.04,66.54 85.04,66.68 85.19,66.68 85.19,66.82 
	85.19,66.97 85.04,66.97 85.04,67.11 85.04,67.25 85.04,67.4 85.04,67.54 85.19,67.68 85.19,67.83 85.33,67.97 85.33,68.12 
	85.47,68.12 85.62,68.26 85.62,68.4 85.76,68.55 85.76,68.69 85.76,68.83 85.76,68.98 85.76,69.12 85.76,69.26 85.76,69.41 
	85.62,69.41 85.62,69.55 85.62,69.69 85.47,69.69 85.33,69.69 85.33,69.55 85.19,69.55 85.04,69.55 84.9,69.55 84.76,69.55 
	84.61,69.55 84.47,69.69 84.33,69.84 84.18,69.69 84.04,69.69 83.9,69.69 83.75,69.69 83.75,69.84 83.61,69.84 83.61,69.98 
	83.61,70.12 83.47,70.12 83.47,70.27 83.32,70.27 83.32,70.41 83.18,70.55 83.03,70.55 82.89,70.55 82.89,70.7 82.75,70.84 
	82.75,70.98 82.75,71.13 82.75,71.27 82.6,71.41 82.46,71.56 82.32,71.56 82.32,71.7 82.17,71.7 82.03,71.84 81.89,71.99 
	81.74,72.13 81.6,72.28 81.46,72.28 81.31,72.42 81.17,72.56 81.03,72.71 80.88,72.71 80.74,72.85 80.6,72.85 80.45,72.99 
	80.45,73.14 80.45,73.28 80.6,73.42 80.6,73.57 80.6,73.71 80.74,74 80.88,74.28 80.88,74.57 81.03,74.71 81.03,74.86 80.88,74.86 
	80.88,75 80.88,75.14 80.88,75.29 80.88,75.43 80.88,75.57 80.88,75.72 80.88,75.86 80.88,76 80.88,76.15 80.88,76.29 80.88,76.43 
	81.03,76.43 81.03,76.58 81.17,76.72 81.31,76.87 81.31,77.01 81.17,77.01 81.17,77.15 81.17,77.3 81.31,77.44 81.31,77.58 
	81.31,77.73 81.17,77.87 81.17,78.01 81.03,78.01 80.88,78.16 80.74,78.16 80.74,78.3 80.6,78.3 80.6,78.44 80.45,78.59 
	80.31,78.59 80.31,78.73 80.31,78.87 80.45,79.02 80.45,79.16 80.31,79.3 80.17,79.45 80.17,79.59 80.02,79.73 80.02,79.88 
	79.88,79.88 79.88,80.02 80.02,80.02 80.02,80.16 79.88,80.16 79.88,80.31 79.88,80.45 79.74,80.45 79.59,80.45 79.59,80.59 
	79.45,80.59 79.45,80.74 79.31,80.74 79.31,80.59 79.02,80.59 78.88,80.59 78.73,80.59 78.59,80.59 78.59,80.45 78.59,80.31 
	78.59,80.16 78.44,80.16 78.44,80.02 78.3,80.02 78.3,79.88 78.16,79.73 78.16,79.59 78.01,79.45 78.01,79.3 77.87,79.3 
	77.87,79.16 77.73,79.16 77.58,79.16 77.58,79.02 77.58,78.87 77.44,78.87 77.44,78.73 77.44,78.59 77.44,78.44 77.3,78.44 
	77.3,78.3 77.15,78.16 77.3,78.01 77.3,77.87 77.15,77.87 77.15,77.73 77.15,77.58 77.15,77.44 77.15,77.3 77.01,77.3 77.01,77.15 
	76.87,77.15 76.87,77.01 76.72,77.01 76.58,76.87 76.44,76.72 76.29,76.72 76.15,76.72 76.01,76.87 75.86,76.87 75.72,76.87 
	75.58,76.87 75.43,76.87 75.43,76.72 75.43,76.58 75.43,76.29 75.43,76.15 75.43,76 75.43,75.86 75.29,75.72 75.15,75.57 75,75.43 
	75,75.29 74.86,75.29 74.86,75.14 74.72,75.14 74.57,75.14 74.43,75.14 74.28,75.29 74.14,75.43 74,75.43 73.85,75.43 73.71,75.43 
	73.57,75.57 73.42,75.43 73.28,75.43 73.28,75.29 73.14,75.14 72.85,75 72.85,74.86 72.71,74.86 72.56,74.86 72.42,74.86 
	72.28,74.86 72.13,74.86 71.99,74.86 71.85,75 71.85,75.14 71.7,75.14 71.7,75.29 71.56,75.29 71.42,75.29 71.27,75.43 71.27,75.57 
	71.13,75.72 71.13,75.86 70.99,75.86 70.84,75.86 70.7,75.86 70.56,75.86 70.56,76 70.56,76.15 70.56,76.29 70.56,76.43 
	70.56,76.58 70.56,76.72 70.41,76.72 70.27,76.72 70.13,76.72 70.13,76.87 69.98,76.87 69.98,77.01 69.84,77.01 69.84,77.15 
	69.84,77.3 69.84,77.44 69.69,77.58 69.69,77.73 69.69,77.87 69.69,78.01 69.69,78.16 69.69,78.3 69.55,78.3 69.41,78.3 
	69.26,78.44 69.12,78.59 68.98,78.59 68.83,78.59 68.69,78.59 68.55,78.73 68.4,78.87 68.4,79.02 68.26,79.16 68.26,79.3 
	68.12,79.45 67.97,79.59 67.83,79.59 67.69,79.59 67.54,79.73 67.4,79.73 67.4,79.88 67.26,79.88 67.11,79.88 67.11,80.02 
	66.97,80.02 66.97,80.16 66.83,80.16 66.83,80.31 66.68,80.31 66.54,80.45 66.4,80.45 66.25,80.59 66.11,80.74 66.11,80.88 
	65.97,80.88 65.82,80.88 65.68,80.88 65.68,80.74 65.53,80.88 65.39,80.88 65.25,80.88 65.25,81.02 65.25,81.17 65.25,81.31 
	65.1,81.46 64.96,81.6 64.96,81.74 64.96,81.89 64.82,81.89 64.82,82.03 64.67,82.03 64.67,82.17 64.39,82.32 64.24,82.46 
	64.24,82.6 64.1,82.75 64.1,82.89 63.96,82.89 63.81,82.89 63.67,83.03 63.67,83.18 63.53,83.18 63.24,83.46 63.1,83.46 
	62.95,83.46 62.95,83.61 62.81,83.61 62.67,83.61 62.52,83.46 62.38,83.46 62.38,83.61 62.24,83.61 62.24,83.46 62.09,83.46 
	61.95,83.46 61.95,83.61 61.81,83.75 61.66,83.75 61.66,83.89 61.66,84.04 61.52,84.04 61.52,84.18 61.23,84.18 61.09,84.32 
	60.94,84.32 60.8,84.47 60.66,84.47 60.51,84.47 60.51,84.32 60.37,84.32 60.23,84.18 60.08,84.18 59.94,84.32 59.8,84.47 
	59.65,84.61 59.65,84.75 59.65,84.9 59.51,84.9 59.37,84.75 59.22,84.75 59.08,84.9 59.08,85.04 58.94,85.04 58.94,85.18 
	58.79,85.18 58.65,85.18 58.51,85.18 58.36,85.18 58.36,85.04 58.22,85.04 58.08,85.04 58.08,85.18 57.93,85.18 57.93,85.04 
	57.79,85.04 57.65,85.04 57.5,85.18 57.36,85.18 57.36,85.33 57.36,85.47 57.22,85.61 57.07,85.61 57.07,85.47 56.93,85.33 
	56.93,85.18 56.78,85.18 56.78,85.04 56.78,84.9 56.78,84.75 56.64,84.75 56.64,84.61 56.5,84.61 56.35,84.47 56.21,84.47 
	56.07,84.47 56.07,84.61 55.92,84.61 55.78,84.61 55.64,84.75 55.49,84.75 55.35,84.75 55.21,84.9 55.06,85.04 54.92,85.04 
	54.78,85.18 54.63,85.18 54.49,85.18 54.35,85.33 54.2,85.33 54.06,85.33 53.92,85.33 53.92,85.47 53.77,85.47 53.77,85.61 
	53.63,85.61 53.49,85.61 53.34,85.61 53.2,85.61 53.2,85.47 53.06,85.47 52.91,85.47 52.91,85.61 52.77,85.61 52.63,85.61 
	52.63,85.76 52.48,85.76 52.34,85.76 52.34,85.9 52.34,86.04 52.19,85.9 52.05,85.9 51.91,85.9 51.91,85.76 51.76,85.76 
	51.62,85.61 51.48,85.61 51.48,85.76 51.48,85.9 51.48,86.04 51.62,86.04 51.62,86.19 51.62,86.33 51.62,86.48 51.62,86.62 
	51.62,86.76 51.76,86.91 51.76,87.05 51.76,87.19 51.76,87.34 51.91,87.34 52.05,87.48 51.91,87.48 51.76,87.62 51.62,87.77 
	51.62,87.91 51.48,87.91 51.48,88.05 51.33,88.2 51.19,88.2 51.19,88.34 51.05,88.34 51.05,88.48 50.9,88.48 50.76,88.63 
	50.62,88.63 50.47,88.63 50.33,88.48 50.19,88.48 50.04,88.63 49.9,88.63 49.76,88.63 49.61,88.63 49.61,88.77 49.61,88.91 
	49.47,88.91 49.47,89.06 49.47,89.2 49.47,89.34 49.47,89.49 49.33,89.63 49.33,89.77 49.33,89.92 49.33,90.06 49.18,90.06 
	49.18,90.2 49.04,90.2 48.9,90.2 48.75,90.2 48.61,90.2 48.61,90.35 48.47,90.35 48.32,90.2 48.18,90.2 48.03,90.06 47.89,90.06 
	47.75,90.06 47.6,90.06 47.6,89.92 47.46,89.92 47.46,89.77 47.32,89.63 47.17,89.49 47.17,89.34 47.03,89.34 46.89,89.34 
	46.74,89.34 46.6,89.2 46.46,89.06 46.31,89.06 46.17,89.06 46.17,88.91 46.03,88.91 46.03,88.77 45.88,88.77 45.88,88.63 
	45.74,88.63 45.6,88.48 45.45,88.34 45.45,88.2 45.31,88.2 45.17,88.2 45.17,88.05 45.02,88.05 44.88,88.05 44.74,88.2 44.59,88.2 
	44.59,88.05 44.45,88.05 44.45,87.91 44.31,87.91 44.16,87.91 44.02,87.91 44.02,88.05 43.87,88.05 43.87,88.2 43.73,88.2 
	43.73,88.05 43.59,87.91 43.44,87.91 43.44,88.05 43.44,87.91 43.3,87.91 43.16,87.91 43.16,88.05 43.16,88.2 43.01,88.2 
	43.01,88.34 42.87,88.34 42.87,88.2 42.87,88.05 42.73,88.05 42.73,88.2 42.58,88.2 42.58,88.34 42.73,88.34 42.58,88.34 
	42.44,88.34 42.44,88.2 42.3,88.2 42.3,88.34 42.15,88.34 42.15,88.2 42.15,88.05 42.01,88.05 42.01,88.2 42.01,88.34 41.87,88.34 
	41.72,88.48 41.58,88.48 41.44,88.48 41.29,88.63 41.15,88.63 41.15,88.48 41.15,88.34 41.01,88.34 41.01,88.48 40.86,88.48 
	40.86,88.63 40.72,88.63 40.58,88.63 40.58,88.48 40.58,88.34 40.43,88.34 40.29,88.34 40.15,88.34 40.15,88.48 40,88.48 40,88.63 
	39.86,88.63 39.72,88.63 39.72,88.48 39.57,88.48 39.57,88.63 39.57,88.77 39.43,88.77 39.28,88.77 39.28,88.63 39.28,88.48 
	39.14,88.34 39,88.34 38.85,88.48 38.71,88.34 38.57,88.48 38.42,88.48 38.42,88.34 38.28,88.34 38.14,88.34 37.99,88.34 
	37.85,88.2 37.85,88.34 37.71,88.34 37.56,88.34 37.56,88.2 37.42,88.2 37.42,88.34 37.28,88.34 37.13,88.34 36.99,88.34 
	36.85,88.48 36.85,88.63 36.7,88.63 36.7,88.77 36.7,88.91 36.56,88.91 36.42,88.91 36.27,89.06 36.27,89.2 36.13,89.2 35.99,89.2 
	35.99,89.06 35.84,89.2 35.84,89.34 35.7,89.34 35.7,89.2 35.7,89.06 35.56,89.06 35.56,89.2 35.41,89.2 35.41,89.34 35.27,89.34 
	35.13,89.34 35.13,89.49 34.98,89.49 34.84,89.49 34.69,89.49 34.69,89.63 34.55,89.77 34.55,89.92 34.55,90.06 34.41,90.06 
	34.26,90.06 34.26,90.2 34.41,90.2 34.55,90.2 34.69,90.2 34.69,90.35 34.69,90.49 34.55,90.49 34.41,90.49 34.26,90.64 
	34.26,90.78 34.26,90.92 34.12,90.92 33.98,90.92 33.98,91.07 33.98,91.21 33.98,91.35 33.98,91.5 33.83,91.5 33.83,91.64 
	33.69,91.64 33.69,91.78 33.69,91.93 33.55,91.93 33.55,91.78 33.4,91.64 33.4,91.78 33.4,91.93 33.4,92.07 33.26,92.21 
	33.12,92.21 32.97,92.21 32.97,92.36 32.97,92.5 32.83,92.5 32.69,92.5 32.54,92.5 32.54,92.64 32.69,92.64 32.69,92.79 
	32.83,92.79 32.97,92.79 33.12,92.79 33.12,92.93 32.97,92.93 32.97,93.07 32.83,93.07 32.83,93.22 32.83,93.36 32.83,93.5 
	32.83,93.65 32.69,93.65 32.69,93.79 32.54,93.79 32.54,93.93 32.4,93.93 32.26,93.79 32.11,93.93 32.11,94.08 32.11,94.22 
	31.97,94.22 31.83,94.36 31.83,94.51 31.68,94.51 31.54,94.65 31.4,94.65 31.25,94.79 31.4,94.79 31.4,94.94 31.25,94.94 
	31.11,94.94 30.96,94.94 30.96,95.08 30.82,95.08 30.68,95.08 30.53,95.08 30.53,94.94 30.53,94.79 30.53,94.65 30.39,94.65 
	30.39,94.51 30.39,94.36 30.25,94.36 30.25,94.22 30.1,94.22 29.96,94.22 29.96,94.36 29.82,94.36 29.82,94.22 29.82,94.08 
	29.67,93.93 29.53,93.93 29.39,93.93 29.39,93.79 29.24,93.65 29.24,93.5 29.39,93.5 29.39,93.36 29.24,93.36 29.1,93.36 
	29.1,93.22 28.96,93.22 28.96,93.07 28.81,93.07 28.67,92.93 28.53,92.93 28.53,92.79 28.38,92.79 28.24,92.79 28.1,92.79 
	28.1,92.64 28.1,92.5 28.1,92.36 27.95,92.36 27.95,92.21 27.81,92.07 27.81,91.93 27.81,91.78 27.81,91.64 27.81,91.5 27.95,91.5 
	27.81,91.35 27.81,91.21 27.67,91.21 27.52,91.07 27.38,91.07 27.38,90.92 27.24,90.92 27.24,90.78 27.38,90.78 27.38,90.64 
	27.38,90.49 27.38,90.35 27.24,90.2 27.09,89.92 26.95,89.77 26.81,89.77 26.81,89.63 26.66,89.63 26.52,89.49 26.52,89.34 
	26.37,89.34 26.37,89.2 26.23,89.06 26.23,88.77 26.09,88.63 26.09,88.48 25.94,88.48 25.94,88.63 25.8,88.63 25.66,88.63 
	25.51,88.77 25.23,88.77 25.08,88.77 24.94,88.91 24.8,88.91 24.65,88.91 24.51,88.91 24.37,88.77 24.22,88.77 24.22,88.63 
	24.08,88.63 23.94,88.48 23.79,88.34 23.79,88.2 23.65,88.2 23.51,88.2 23.36,88.2 23.36,88.05 23.36,87.91 23.22,87.91 
	23.08,87.77 22.93,87.77 22.93,87.62 22.79,87.48 22.79,87.34 22.65,87.34 22.65,87.48 22.5,87.48 22.5,87.62 22.5,87.48 
	22.36,87.48 22.21,87.48 22.07,87.34 22.07,87.19 21.93,87.19 21.78,87.19 21.78,87.05 21.64,87.05 21.64,87.19 21.5,87.19 
	21.5,87.34 21.35,87.34 21.21,87.19 21.07,87.19 20.92,87.05 20.92,86.91 20.78,86.91 20.64,86.91 20.49,86.91 20.49,86.76 
	20.35,86.76 20.35,86.91 20.21,86.91 20.06,86.91 19.92,86.91 19.92,87.05 19.78,87.05 19.63,87.05 19.49,87.19 19.35,87.19 
	19.2,87.19 19.2,87.34 19.06,87.34 18.92,87.34 18.77,87.34 18.63,87.34 18.49,87.34 18.34,87.34 18.2,87.34 18.06,87.48 
	17.91,87.62 17.77,87.62 17.62,87.62 17.48,87.62 17.48,87.48 17.34,87.48 17.34,87.34 17.19,87.34 17.05,87.34 16.91,87.34 
	16.76,87.48 16.62,87.48 16.48,87.62 16.19,87.62 16.05,87.77 15.9,87.77 15.9,87.91 15.76,88.05 15.76,88.2 15.62,88.2 
	15.62,88.34 15.47,88.34 15.33,88.48 15.19,88.48 15.04,88.48 14.9,88.48 14.76,88.63 14.47,88.77 14.33,88.77 14.18,88.77 
	14.04,88.91 13.9,88.91 13.9,89.06 13.9,89.2 13.9,89.34 13.75,89.49 13.75,89.63 13.75,89.77 13.75,89.92 13.75,90.06 13.61,90.2 
	13.46,90.2 13.32,90.06 13.32,90.2 13.18,90.2 13.03,90.35 12.89,90.35 12.89,90.49 12.75,90.49 12.6,90.49 12.6,90.64 12.6,90.78 
	12.46,90.78 12.32,90.78 12.32,90.92 12.32,91.07 11.89,91.64 11.89,91.78 11.74,91.93 11.6,92.07 11.46,92.21 11.46,92.36 
	11.31,92.36 11.31,92.5 11.17,92.64 11.17,92.93 11.17,93.07 11.03,93.22 10.88,93.36 10.74,93.36 10.74,93.5 10.6,93.5 10.45,93.5 
	10.45,93.65 10.31,93.79 10.17,93.79 10.02,93.79 9.88,93.79 9.88,93.93 9.74,93.93 9.59,93.93 9.59,94.08 9.59,94.22 9.45,94.22 
	9.45,94.36 9.31,94.36 9.31,94.51 9.31,94.65 9.16,94.65 9.02,94.65 9.02,94.79 9.02,94.94 9.02,95.08 9.16,95.08 9.16,95.23 
	9.16,95.37 9.02,95.37 9.02,95.51 9.02,95.66 8.87,95.8 8.87,95.94 8.73,96.09 8.59,96.09 8.59,96.23 8.44,96.23 8.3,96.23 
	8.16,96.23 8.01,96.37 8.01,96.52 7.87,96.52 7.87,96.37 7.73,96.37 7.58,96.37 7.44,96.37 7.3,96.37 7.15,96.37 7.01,96.37 
	7.01,96.23 6.87,96.23 6.87,96.09 6.72,96.09 6.58,96.09 6.44,96.09 6.29,96.23 6.15,96.23 6.15,96.37 6.01,96.52 5.86,96.52 
	5.72,96.37 5.72,96.23 5.58,96.09 5.29,95.66 5.29,95.37 5.15,95.08 4.57,94.36 4.28,93.93 3.71,93.79 3.28,93.65 2.99,93.36 
	2.85,93.22 2.85,92.79 3.14,92.5 3.28,92.36 3.14,92.21 3.14,92.07 2.85,91.64 2.42,91.35 2.28,91.07 1.85,90.78 1.99,90.78 
	1.99,90.64 1.99,90.49 2.13,90.49 2.28,90.35 2.42,90.35 2.56,90.35 2.56,90.2 2.71,90.2 2.71,90.06 2.85,90.06 2.85,89.92 
	2.99,89.77 3.14,89.77 3.14,89.63 3.28,89.63 3.28,89.49 3.42,89.49 3.42,89.34 3.42,89.2 3.42,89.06 3.57,88.91 3.57,88.77 
	3.85,88.34 4,88.2 4,87.91 4,87.77 4,87.62 3.85,87.48 4,87.48 4,87.34 4.14,87.34 4.28,87.34 4.43,87.19 4.57,87.19 4.71,87.05 
	4.71,86.91 4.71,86.76 4.86,86.76 5,86.76 5.15,86.76 5.29,86.76 5.29,86.62 5.43,86.62 5.43,86.48 5.58,86.33 5.58,86.19 
	5.58,86.04 5.58,85.9 5.72,85.76 5.72,85.61 5.86,85.61 5.86,85.47 5.86,85.33 5.86,85.18 5.86,85.04 6.01,85.04 6.15,85.04 
	6.15,84.9 6.15,84.75 6.29,84.61 6.15,84.47 6.29,84.47 6.29,84.32 6.44,84.32 6.58,84.32 6.72,84.32 6.72,84.18 6.87,84.04 
	6.87,83.89 6.87,83.75 7.01,83.75 7.15,83.61 7.3,83.61 7.3,83.46 7.44,83.46 7.44,83.32 7.58,83.32 7.73,83.32 7.87,83.32 
	8.01,83.18 8.01,83.03 8.01,82.89 8.16,82.89 8.3,82.89 8.44,82.89 8.44,82.75 8.59,82.6 8.59,82.46 8.59,82.32 8.59,82.17 
	8.73,82.03 8.87,82.03 8.87,81.89 9.02,81.89 9.16,81.74 9.31,81.74 9.45,81.74 9.45,81.6 9.59,81.6 9.59,81.46 9.74,81.46 
	9.88,81.31 10.02,81.17 10.02,81.02 10.02,80.88 10.17,80.88 10.31,80.88 10.45,80.88 10.45,80.74 10.6,80.74 10.6,80.59 
	10.6,80.45 10.74,80.45 10.74,80.31 10.6,80.16 10.74,80.02 10.88,79.88 10.88,79.73 10.88,79.59 11.03,79.45 11.03,79.3 
	11.17,79.3 11.17,79.16 11.17,79.02 11.17,78.87 11.17,78.73 11.17,78.59 11.31,78.59 11.46,78.59 11.46,78.44 11.6,78.44 
	11.74,78.44 11.74,78.3 11.89,78.3 11.89,78.16 12.03,78.16 12.17,78.16 12.17,78.01 12.32,78.01 12.32,77.87 12.32,77.73 
	12.46,77.58 12.46,77.3 12.6,77.3 12.6,77.15 12.75,77.01 12.89,77.01 12.89,76.87 12.89,76.72 13.03,76.72 13.03,76.58 
	13.18,76.58 13.18,76.72 13.32,76.72 13.46,76.58 13.61,76.58 13.61,76.43 13.61,76.29 13.75,76.29 13.9,76.29 13.9,76.15 13.9,76 
	14.04,76 14.18,76 14.18,75.86 14.18,75.57 14.33,75.57 14.33,75.43 14.47,75.43 14.61,75.29 14.76,75.29 14.9,75.14 15.04,75.14 
	15.19,75.14 15.33,75.14 15.47,75.14 15.47,75 15.62,75 15.62,74.86 15.62,74.71 15.76,74.71 15.76,74.57 15.9,74.43 15.9,74.28 
	16.05,74.28 16.19,74.28 16.19,74.14 16.33,74.14 16.33,74.28 16.48,74.28 16.62,74.28 16.76,74.28 16.91,74.14 17.05,74.14 
	17.19,74.14 17.19,74 17.34,73.85 17.34,73.71 17.34,73.57 17.34,73.42 17.34,73.28 17.34,73.14 17.34,72.99 17.48,72.99 
	17.48,72.85 17.48,72.71 17.62,72.71 17.62,72.56 17.77,72.56 17.91,72.56 17.91,72.42 18.06,72.42 18.2,72.42 18.2,72.28 
	18.34,72.42 18.34,72.28 18.49,72.28 18.63,72.28 18.63,72.13 18.77,71.99 18.92,71.84 19.06,71.7 19.2,71.7 19.2,71.56 
	19.35,71.56 19.49,71.41 19.63,71.41 19.63,71.27 19.78,71.27 19.92,71.27 19.92,71.13 20.06,71.13 20.06,70.98 19.92,70.84 
	19.78,70.84 19.78,70.7 19.78,70.55 19.78,70.41 19.78,70.27 19.63,70.12 19.49,69.98 19.49,69.84 19.63,69.84 19.63,69.69 
	19.49,69.55 19.35,69.41 19.35,69.26 19.2,69.12 19.2,68.98 19.35,68.98 19.35,68.83 19.49,68.83 19.63,68.83 19.78,68.83 
	19.92,68.69 20.06,68.69 20.21,68.69 20.35,68.69 20.49,68.55 20.64,68.4 20.78,68.4 20.78,68.26 20.92,68.12 21.07,67.97 
	21.07,67.83 21.21,67.83 21.35,67.68 21.35,67.83 21.5,67.83 21.64,67.83 21.78,67.83 21.93,67.83 22.07,67.68 22.07,67.54 
	22.21,67.54 22.36,67.4 22.36,67.25 22.5,67.11 22.5,66.97 22.65,66.82 22.93,66.68 23.08,66.68 23.22,66.68 23.36,66.82 
	23.51,66.97 23.51,67.11 23.65,67.11 23.79,67.25 23.94,67.25 24.08,67.25 24.22,67.25 24.22,67.11 24.37,67.11 24.51,67.11 
	24.51,67.25 24.51,67.4 24.51,67.54 24.65,67.68 24.8,67.68 24.8,67.83 24.8,67.97 24.8,68.12 24.94,68.26 24.94,68.4 25.08,68.55 
	25.23,68.55 25.37,68.4 25.51,68.4 25.66,68.4 25.8,68.4 25.94,68.4 26.09,68.4 26.09,68.26 26.23,68.12 26.37,68.12 26.52,68.12 
	26.66,68.12 26.81,68.12 26.95,67.97 27.09,67.83 27.09,67.68 27.09,67.54 27.24,67.54 27.24,67.4 27.38,67.4 27.52,67.4 
	27.67,67.25 27.81,67.25 27.81,67.11 27.81,66.97 27.67,66.82 27.67,66.68 27.67,66.54 27.52,66.54 27.67,66.54 27.67,66.39 
	27.81,66.39 27.95,66.25 28.1,66.25 28.24,66.25 28.38,66.25 28.53,66.25 28.53,66.11 28.67,66.11 28.67,65.96 28.81,65.96 
	28.96,65.96 29.1,65.96 29.1,66.11 29.24,66.11 29.39,66.11 29.39,65.96 29.53,65.96 29.53,65.82 29.67,65.82 29.82,65.82 
	29.82,65.96 29.96,65.96 29.96,66.11 29.96,65.96 30.1,65.96 30.1,65.82 30.1,65.68 30.25,65.53 30.25,65.39 30.39,65.25 
	30.39,65.1 30.53,64.96 30.53,64.82 30.53,64.67 30.68,64.53 30.82,64.39 30.96,64.24 31.11,64.1 31.11,63.96 31.25,63.81 
	31.25,63.67 31.25,63.53 31.25,63.38 31.4,63.24 31.4,63.09 31.4,62.95 31.54,62.81 31.54,62.66 31.68,62.66 31.83,62.66 
	31.97,62.66 32.11,62.66 32.26,62.52 32.4,62.09 32.54,62.09 32.69,61.95 32.69,61.8 32.83,61.66 32.97,61.66 33.12,61.66 
	33.26,61.66 33.26,61.52 33.4,61.52 33.26,61.52 33.26,61.37 32.83,61.09 32.69,60.94 32.83,60.66 32.83,60.51 32.83,60.37 
	32.83,60.23 32.69,60.23 32.69,60.08 32.83,59.94 32.97,59.65 33.12,59.51 33.26,59.37 33.26,59.22 33.4,59.08 33.69,58.79 
	33.83,58.65 34.12,58.36 34.12,58.07 34.26,58.07 34.26,57.93 34.26,57.79 34.41,57.79 34.41,57.64 34.55,57.5 34.69,57.36 
	34.69,57.21 34.84,57.07 34.98,57.07 34.98,56.93 35.13,56.78 35.13,56.64 35.13,56.5 35.27,56.5 35.27,56.35 35.41,56.35 
	35.41,56.21 35.41,56.07 35.56,56.07 35.56,55.92 35.56,55.78 35.7,55.64 35.84,55.49 35.99,55.35 36.13,55.35 36.13,55.21 
	36.27,55.21 36.27,55.06 36.27,54.92 36.42,54.92 36.42,54.78 36.42,54.63 36.42,54.49 36.42,54.35 36.42,54.2 36.42,54.06 
	36.42,53.91 36.56,53.77 36.7,53.63 36.7,53.48 36.85,53.48 36.85,53.34 36.85,53.2 36.99,53.2 36.99,53.05 37.13,53.05 
	37.13,52.91 37.28,52.91 37.28,52.77 37.42,52.77 37.42,52.62 37.56,52.48 37.71,52.34 37.71,52.19 37.85,52.19 37.99,52.19 
	37.99,52.05 37.99,51.91 38.14,51.91 38.28,51.91 38.42,51.91 38.57,51.91 38.71,51.91 38.85,52.05 39,52.05 39,51.91 39.14,51.76 
	39.28,51.62 39.28,51.48 39.43,51.48 39.43,51.33 39.57,51.33 39.57,51.19 39.72,51.05 39.72,50.9 39.86,50.76 39.86,50.62 
	39.86,50.47 40,50.33 40.15,50.47 40.29,50.47 40.43,50.47 40.43,50.33 40.43,50.19 40.43,50.04 40.29,49.9 40.43,49.9 40.58,49.75 
	40.72,49.61 40.72,49.32 40.86,49.18 40.86,49.04 40.86,48.89 41.01,48.89 41.01,48.75 41.01,48.61 40.86,48.46 40.86,48.32 
	40.86,48.18 41.01,48.18 41.01,48.03 41.15,48.03 41.15,48.18 41.29,48.18 41.44,48.32 41.58,48.46 41.72,48.46 41.87,48.46 
	42.01,48.46 42.15,48.46 42.3,48.46 42.44,48.46 42.58,48.32 42.73,48.32 42.73,48.18 42.87,48.18 42.87,48.32 43.01,48.32 
	43.01,48.18 43.16,48.18 43.3,48.18 43.44,48.18 43.59,48.18 43.73,48.32 43.87,48.32 44.02,48.32 44.16,48.32 44.31,48.46 
	44.45,48.32 44.59,48.32 44.74,48.32 44.88,48.32 45.02,48.32 45.02,48.18 45.02,48.03 45.17,48.03 45.17,47.89 45.31,47.89 
	45.31,47.75 45.31,47.6 45.45,47.6 45.45,47.46 45.45,47.32 45.6,47.17 45.74,47.03 45.74,46.89 45.88,46.74 45.88,46.6 
	45.88,46.46 46.03,46.31 46.03,46.17 46.03,46.03 46.17,46.03 46.17,45.88 46.17,45.74 46.31,45.74 46.46,45.74 46.46,45.6 
	46.6,45.45 46.6,45.31 46.74,45.16 46.74,45.02 46.89,44.88 46.89,44.73 47.03,44.59 47.17,44.59 47.17,44.45 47.17,44.3 
	47.32,44.16 47.32,44.02 47.17,43.87 47.17,43.73 47.32,43.59 47.32,43.44 47.46,43.44 47.46,43.3 47.46,43.16 47.46,43.01 
	47.32,42.87 47.46,42.87 47.46,42.73 47.46,42.44 47.46,42.3 47.6,42.15 47.89,42.15 47.89,42.01 48.03,42.01 48.18,42.15 
	48.32,42.01 48.47,42.01 48.32,41.87 48.32,41.72 48.32,41.58 48.32,41.44 48.32,41.29 48.47,41.01 48.47,40.86 48.61,40.72 
	48.75,40.43 48.75,40.29 48.75,40.14 48.9,40.14 49.04,40 49.04,39.86 49.04,39.71 49.18,39.71 49.33,39.71 49.47,39.71 
	49.61,39.71 49.76,39.71 49.76,39.57 49.76,39.43 49.76,39.28 49.9,39.28 49.9,39.14 49.76,39 49.61,38.85 49.76,38.85 49.9,38.85 
	50.04,38.85 50.04,39 50.19,39 50.33,39 50.47,39 50.47,39.14 50.47,39 50.62,39 50.76,39 50.9,39 51.05,39 51.19,39 51.33,39 
	51.33,38.85 51.33,38.71 51.48,38.57 51.48,38.42 51.62,38.28 51.76,38.28 51.91,38.28 51.91,38.14 52.05,37.99 52.19,38.14 
	52.34,38.14 52.34,37.99 52.48,37.85 52.48,37.71 52.48,37.56 52.63,37.56 52.77,37.42 52.77,37.28 52.77,37.13 52.63,37.13 
	52.63,36.99 52.63,36.85 52.77,36.85 52.77,36.7 52.77,36.42 52.91,36.27 52.91,36.13 53.06,35.98 53.06,35.84 53.06,35.7 
	53.2,35.7 53.2,35.55 53.2,35.41 53.34,35.41 53.34,35.27 53.34,35.12 53.2,34.98 53.2,34.84 53.06,34.84 53.06,34.69 52.91,34.69 
	52.91,34.55 52.77,34.55 52.63,34.55 52.63,34.41 52.77,34.41 52.91,34.41 53.06,34.41 53.06,34.55 53.2,34.55 53.2,34.41 
	53.34,34.41 53.49,34.41 53.63,34.41 53.77,34.41 53.92,34.41 53.92,34.26 54.06,34.26 54.06,34.12 54.06,33.98 54.2,33.83 
	54.35,33.55 54.35,33.26 54.49,33.12 54.49,32.97 54.49,32.83 54.35,32.69 54.2,32.69 54.2,32.54 54.35,32.54 54.49,32.54 
	54.63,32.54 54.63,32.4 54.78,32.4 54.78,32.26 54.78,32.11 54.92,32.11 54.92,31.97 55.06,31.83 55.21,31.54 55.21,31.39 
	55.35,31.39 55.35,31.25 55.35,31.11 55.49,30.96 55.64,30.96 55.64,30.82 55.64,30.68 55.78,30.68 55.78,30.53 55.92,30.53 
	55.92,30.39 56.07,30.39 56.07,30.25 56.21,30.25 56.21,30.1 56.21,29.96 56.21,29.82 56.21,29.67 56.35,29.67 56.21,29.67 
	56.21,29.53 56.21,29.39 56.21,29.24 56.35,29.24 56.21,29.1 56.35,28.96 56.35,28.81 56.5,28.81 56.5,28.67 56.64,28.67 
	56.64,28.53 56.64,28.38 56.64,28.24 56.64,28.1 56.64,27.95 56.64,27.81 56.78,27.81 56.78,27.67 56.64,27.67 56.5,27.67 
	56.35,27.52 56.21,27.52 56.07,27.38 56.07,27.24 56.21,27.24 56.35,27.09 56.21,26.95 56.35,26.95 56.35,26.8 56.5,26.8 
	56.5,26.66 56.35,26.66 56.35,26.52 56.35,26.37 56.35,26.23 56.5,26.23 56.5,26.09 56.5,25.94 56.5,25.8 56.64,25.8 56.64,25.66 
	56.64,25.51 56.64,25.37 56.64,25.23 56.64,25.08 56.78,25.08 56.78,24.94 56.93,24.94 57.07,24.94 57.07,24.8 57.22,24.8 
	57.36,24.8 57.5,24.8 57.65,24.65 57.79,24.8 57.93,24.8 58.08,24.8 58.22,24.8 58.36,24.8 58.36,24.65 58.51,24.65 58.65,24.51 
	58.65,24.37 58.79,24.37 58.94,24.22 59.08,24.08 59.08,23.94 59.22,23.94 59.37,23.79 59.51,23.94 59.65,23.94 59.65,24.08 
	59.8,24.08 59.94,24.22 59.94,24.37 60.08,24.37 60.08,24.51 60.23,24.51 60.23,24.65 60.37,24.65 60.37,24.8 60.51,24.8 
	60.51,24.94 60.66,24.94 60.8,24.8 60.8,24.65 60.8,24.51 60.66,24.51 60.66,24.37 60.8,24.37 60.8,24.22 60.66,24.22 60.66,24.08 
	60.66,23.94 60.8,23.79 60.8,23.65 60.94,23.65 60.94,23.51 61.09,23.51 61.09,23.36 61.09,23.22 61.09,23.08 60.94,22.93 
	60.94,22.79 61.09,22.79 61.09,22.65 61.09,22.5 60.94,22.5 60.94,22.36 60.94,22.21 61.09,22.21 61.23,22.21 61.23,22.07 
	61.37,22.07 61.37,21.93 61.52,21.78 61.52,21.64 61.66,21.64 61.66,21.5 61.81,21.5 61.81,21.35 61.66,21.21 61.66,21.07 
	61.66,20.92 61.52,20.92 61.52,20.78 61.37,20.78 61.37,20.64 61.23,20.64 61.09,20.64 61.09,20.49 60.94,20.35 60.8,20.35 
	60.8,20.21 60.66,20.21 60.66,20.06 60.66,19.92 60.51,19.78 60.66,19.78 60.66,19.63 60.51,19.63 60.37,19.49 60.37,19.35 
	60.23,19.35 60.23,19.2 60.08,19.2 60.08,19.06 60.08,18.92 60.23,18.77 60.23,18.63 60.23,18.49 60.23,18.34 60.23,18.2 
	60.37,18.2 60.37,18.05 60.37,17.91 60.37,17.77 60.37,17.62 60.37,17.48 60.37,17.34 60.51,17.34 60.51,17.19 60.66,17.19 
	60.66,17.05 60.66,16.91 60.66,16.76 60.66,16.62 60.51,16.48 60.51,16.33 60.51,16.19 60.66,16.05 60.8,16.05 60.8,15.9 
	60.8,15.76 60.94,15.76 60.94,15.62 60.94,15.47 60.94,15.33 60.94,15.19 60.8,15.19 60.8,15.04 60.94,14.9 60.8,14.9 60.8,14.76 
	60.8,14.61 60.66,14.61 60.51,14.61 60.51,14.47 60.51,14.33 60.51,14.18 60.51,14.04 60.51,13.9 60.66,13.9 60.66,14.04 60.8,13.9 
	60.8,13.75 60.8,13.61 60.8,13.46 60.8,13.32 60.66,13.18 60.8,13.03 60.8,12.89 60.66,12.89 60.51,12.89 60.37,12.75 60.37,12.6 
	60.37,12.46 60.37,12.32 60.37,12.17 60.23,12.03 60.23,11.89 60.08,11.89 60.23,11.74 60.23,11.6 60.23,11.46 60.23,11.31 
	60.23,11.17 60.08,11.17 59.94,11.03 59.94,10.88 59.94,10.74 59.8,10.74 59.8,10.6 59.94,10.6 59.94,10.45 59.94,10.31 
	60.08,10.17 60.08,10.02 60.23,10.02 60.23,9.88 60.23,9.59 60.23,9.45 60.23,9.31 60.23,9.16 60.23,9.02 60.08,8.87 60.23,8.73 
	60.23,8.59 60.37,8.59 60.37,8.44 60.51,8.44 60.66,8.3 60.8,8.3 60.8,8.16 60.66,8.16 60.66,8.01 60.8,8.01 60.8,7.87 60.94,7.87 
	61.09,7.87 61.23,7.87 61.23,7.73 61.23,7.58 61.23,7.44 61.37,7.44 61.37,7.3 61.23,7.3 61.23,7.15 61.37,7.01 61.23,7.01 
	61.23,6.87 61.23,6.72 61.37,6.72 61.37,6.58 61.52,6.58 61.52,6.44 61.66,6.44 61.81,6.44 61.81,6.29 61.95,6.29 61.95,6.15 
	62.09,6.15 62.09,6.01 62.09,5.86 62.09,5.72 62.09,5.58 61.95,5.58 61.95,5.43 61.95,5.29 61.95,5.15 61.81,5.15 61.81,5 
	61.81,4.86 61.66,4.86 61.66,5 61.52,5 61.52,4.86 61.37,4.86 61.23,4.86 61.23,4.71 61.37,4.57 61.37,4.43 61.23,4.43 61.23,4.28 
	61.23,4.14 61.23,4 61.23,3.85 61.37,3.85 61.37,3.71 61.37,3.57 61.37,3.42 61.37,3.28 61.37,3.14 61.52,3.14 61.66,3.14 
	61.81,3.14 61.95,3.14 61.95,2.99 62.09,2.99 62.09,3.14 62.09,3.28 62.24,3.28 62.38,3.28 62.38,3.42 62.52,3.42 62.67,3.28 
	62.67,3.42 62.81,3.28 62.81,3.14 62.95,3.14 62.95,2.99 63.1,2.99 63.1,2.85 63.1,2.71 63.24,2.71 63.38,2.71 63.53,2.71 
	63.67,2.71 63.67,2.56 63.81,2.56 63.96,2.56 64.1,2.42 64.24,2.42 64.24,2.28 64.39,2.28 64.24,2.13 64.24,1.99 64.39,1.99 
	64.53,1.85 64.67,1.85 64.82,1.99 64.96,2.13 65.1,2.28 65.25,2.42 65.39,2.56 65.53,2.56 65.68,2.56 65.68,2.71 65.82,2.71 
	65.97,2.56 65.97,2.42 65.97,2.28 66.11,2.28 66.11,2.13 66.25,2.13 66.4,2.13 66.4,2.28 66.54,2.28 66.68,2.28 66.68,2.13 
	66.83,2.13 66.83,2.28 66.97,2.28 66.97,2.56 66.97,2.71 66.97,2.85 66.97,2.99 66.97,3.14 67.11,3.14 67.11,3.28 67.26,3.28 
	67.4,3.28 67.4,3.42 67.54,3.42 67.69,3.57 67.83,3.57 67.97,3.57 68.12,3.57 68.26,3.42 68.4,3.42 68.55,3.42 68.55,3.28 
	68.55,3.14 68.69,3.14 68.83,3.14 68.98,3.28 69.12,3.28 69.26,3.28 69.41,3.28 69.41,3.14 69.55,2.99 69.69,2.99 69.84,2.99 
	69.84,2.85 69.98,2.71 70.13,2.71 70.13,2.56 70.13,2.71 70.27,2.71 70.41,2.71 70.56,2.85 70.56,2.71 70.7,2.71 70.7,2.85 
	70.84,2.85 70.84,2.99 70.99,2.99 71.13,2.99 71.13,3.14 71.27,3.14 71.42,3.14 71.56,3.14 71.7,3.14 71.85,3.14 71.85,2.99 
	71.99,2.99 72.13,2.99 72.13,3.14 72.28,3.14 72.28,3.28 72.42,3.28 72.42,3.14 72.56,3.14 72.56,2.99 72.71,2.99 72.85,3.14 
	72.99,3.14 73.14,3.14 73.28,3.14 73.42,3.14 73.57,3.14 73.71,3.14 73.85,3.14 74,3.14 74.14,2.99 74.28,2.99 74.43,2.99 
	74.57,2.99 74.72,2.99 74.72,3.14 74.86,3.14 75,3.14 75.15,3.14 75.29,3.28 75.43,3.28 75.58,3.14 75.72,3.14 75.86,3.28 
	76.01,3.28 76.15,3.28 76.15,3.14 76.29,3.14 76.29,3.28 76.44,3.28 76.58,3.42 76.58,3.57 76.72,3.57 76.72,3.71 76.87,3.71 
	76.87,3.85 77.01,3.85 77.01,3.71 77.15,3.71 77.3,3.71 77.3,3.57 77.44,3.71 77.58,3.71 77.73,3.71 77.87,3.71 78.01,3.71 
	78.16,3.71 78.3,3.71 78.3,3.57 78.44,3.57 78.59,3.71 78.73,3.71 78.73,3.57 78.88,3.57 79.02,3.57 79.02,3.71 79.16,3.85 79.16,4 
	"/>
</svg>
