<?xml version="1.0" encoding="utf-8"?>
<!-- Generator: Adobe Illustrator 24.2.1, SVG Export Plug-In . SVG Version: 6.00 Build 0)  -->
<svg version="1.1" id="Layer_1" xmlns="http://www.w3.org/2000/svg" xmlns:xlink="http://www.w3.org/1999/xlink" x="0px" y="0px"
	 viewBox="0 0 97.2 97.2" style="enable-background:new 0 0 97.2 97.2;" xml:space="preserve">
<style type="text/css">
	.st0{fill-rule:evenodd;clip-rule:evenodd;}
</style>
<polygon class="st0" points="82.3,50.4 82.2,50.5 82.2,50.7 82.2,50.8 82.1,50.9 82.1,51.1 82.1,51.2 82.1,51.3 81.9,51.5 
	81.9,51.6 81.8,51.6 81.8,51.7 81.8,51.9 81.6,52 81.6,52.1 81.5,52.3 81.5,52.4 81.4,52.5 81.4,52.7 81.2,52.7 81.2,52.8 
	81.1,52.8 81.1,53 81,53 81,53.1 80.8,53.1 80.7,53.2 80.6,53.4 80.4,53.5 80.3,53.5 80.2,53.6 80,53.6 79.9,53.6 79.9,53.8 
	79.8,53.8 79.6,53.8 79.5,53.8 79.4,53.8 79.2,53.8 79.1,53.8 79,53.6 78.8,53.6 78.7,53.6 78.6,53.6 78.6,53.8 78.4,53.8 
	78.3,53.9 78.1,53.9 78,53.9 77.9,53.9 77.7,54 77.6,54 77.5,54 77.3,53.9 77.3,53.8 77.2,53.8 77.2,53.9 77.1,53.9 77.1,53.8 
	76.9,53.9 76.8,53.9 76.7,53.9 76.5,53.8 76.4,53.8 76.4,53.6 76.3,53.6 76.3,53.5 76.3,53.4 76.1,53.2 76.1,53 76.1,52.8 
	76.1,52.7 76,52.7 75.9,52.7 75.7,52.7 75.6,52.7 75.5,52.7 75.3,52.5 75.2,52.5 75.1,52.5 75.1,52.7 74.9,52.7 74.9,52.5 
	74.8,52.7 74.6,52.7 74.5,52.7 74.4,52.8 74.2,52.8 74.1,52.8 74,52.8 74,53 73.8,53 73.7,53 73.6,53.1 73.6,53.2 73.4,53.4 
	73.3,53.5 73.2,53.6 73.2,53.8 73.2,53.9 73,54 72.9,54.2 72.8,54.3 72.6,54.4 72.6,54.6 72.6,54.7 72.5,54.7 72.5,54.8 72.4,55 
	72.4,55.1 72.4,55.2 72.2,55.2 72.2,55.4 72.1,55.4 72.1,55.5 72.1,55.6 72.2,55.8 72.1,55.9 72,56.2 72,56.3 72,56.5 71.8,56.5 
	71.8,56.6 71.7,56.6 71.7,56.7 71.7,56.9 71.7,57 71.6,57 71.6,57.1 71.6,57.3 71.6,57.4 71.4,57.4 71.3,57.5 71.1,57.7 71,57.8 
	71,57.9 70.9,57.9 70.7,57.9 70.6,57.9 70.5,57.9 70.5,58.1 70.3,58.1 70.2,58.1 70.1,58.2 69.9,58.2 69.8,58.2 69.7,58.2 
	69.5,58.2 69.4,58.2 69.3,58.3 69,58.3 68.9,58.5 68.7,58.6 68.6,58.6 68.5,58.7 68.3,58.7 68.3,58.9 68.3,59 68.3,59.1 68.2,59.3 
	68.2,59.4 68.1,59.5 67.9,59.8 67.8,60.1 67.6,60.2 67.5,60.4 67.5,60.5 67.5,60.6 67.5,60.8 67.4,60.8 67.2,60.9 67.2,61 67.1,61 
	67.1,61.2 67.1,61.3 67,61.3 66.8,61.3 66.7,61.3 66.7,61.4 66.6,61.6 66.4,61.6 66.4,61.7 66.3,62 66.3,62.1 66.3,62.4 66.3,62.5 
	66.3,62.6 66.3,62.8 66.3,62.9 66.3,63 66.2,63.2 66,63.2 65.9,63.3 65.8,63.3 65.8,63.4 65.6,63.9 65.6,64 65.6,64.1 65.5,64.1 
	65.4,64.1 65.2,64.1 65.2,64.3 65.2,64.4 65.1,64.4 65,64.5 65,64.7 64.7,64.7 64.7,64.8 64.6,64.8 64.6,64.9 64.4,64.9 64.3,65.1 
	64.1,65.1 64.1,65.2 64.1,65.3 64,65.5 64,65.6 63.9,65.7 63.9,66 63.7,66.3 63.6,66.4 63.5,66.5 63.3,66.7 63.2,66.7 63.1,66.7 
	62.9,66.8 62.8,66.8 62.7,66.8 62.7,66.9 62.5,66.9 62.4,66.9 62.3,67.1 62.1,67.1 62,67.1 61.9,67.1 61.7,67.1 61.6,67.1 
	61.5,67.1 61.5,67.2 61.3,67.2 61.2,67.2 61.2,67.4 61.1,67.4 60.9,67.4 60.8,67.5 60.6,67.5 60.6,67.6 60.5,67.6 60.4,67.8 
	60.2,67.8 60.1,67.8 60,67.9 60,68 59.8,68.2 59.7,68.3 59.7,68.4 59.6,68.6 59.6,68.7 59.4,68.7 59.3,68.8 59,69.1 58.9,69.1 
	58.8,69.2 58.6,69.4 58.6,69.5 58.5,69.5 58.5,69.6 58.4,69.6 58.2,69.6 58.1,69.6 58,69.8 57.8,69.8 57.7,69.8 57.6,69.8 
	57.6,69.9 57.4,69.9 57.3,70 57.3,70.2 57.1,70.2 57,70.2 56.9,70.2 56.7,70.2 56.6,70.2 56.5,70.2 56.5,70.3 56.3,70.3 56.3,70.4 
	56.3,70.6 56.5,70.6 56.5,70.7 56.6,70.9 56.6,71 56.6,71.1 56.6,71.3 56.6,71.4 56.7,71.7 56.6,71.8 56.5,71.8 56.3,71.8 
	56.2,71.8 56.1,71.8 55.9,71.8 55.8,71.8 55.7,71.8 55.5,71.8 55.4,71.8 55.3,71.8 55.1,72.1 55,72.1 54.9,72.2 54.7,72.2 
	54.6,72.2 54.5,72.3 54.3,72.5 54.3,72.6 54.2,72.6 54.1,72.9 53.9,73 53.9,73.1 53.9,73.3 53.9,73.4 53.8,73.5 53.8,73.7 
	53.7,73.7 53.5,73.8 53.5,73.9 53.5,74.2 53.5,74.4 53.5,74.5 53.5,74.6 53.5,74.8 53.5,74.9 53.5,75 53.5,75.2 53.5,75.3 
	53.5,75.4 53.4,75.4 53.4,75.6 53.2,75.6 53.1,75.7 53.1,75.8 53,75.8 52.8,75.8 52.7,76 52.6,76 52.4,76 52.4,76.1 52.3,76.1 
	52.2,76.1 52,76 51.9,76 51.8,76 51.6,76 51.5,75.8 51.4,75.8 51.4,76 51.2,75.8 51.1,75.8 51,75.8 51,76 50.8,76 50.7,76 50.6,76 
	50.6,76.1 50.4,76.1 50.4,76.2 50.3,76.2 50.2,76.2 50,76.2 49.7,76.4 49.6,76.4 49.5,76.4 49.3,76.4 49.2,76.4 49.1,76.4 
	48.9,76.4 48.8,76.4 48.8,76.2 48.7,76.2 48.5,76.2 48.5,76.4 48.4,76.4 48.3,76.4 48.1,76.5 48.1,76.6 48,76.6 47.9,76.6 
	47.7,76.6 47.6,76.6 47.6,76.8 47.5,76.8 47.5,76.9 47.3,76.9 47.2,77 47.2,76.9 47.1,76.9 47.1,76.8 47.1,76.9 46.9,76.9 46.9,77 
	47.1,77 46.9,77 46.9,77.2 46.8,77.2 46.8,77.3 46.8,77.2 46.7,77.2 46.7,77 46.5,77 46.4,76.9 46.2,76.6 46.2,76.5 46.1,76.4 
	46.1,76.1 46.1,76 45.6,75.7 45.3,75.8 45.2,76 45,76 44.9,76.1 44.6,76.2 44.5,76.2 44.4,76.2 44.2,76.2 44.1,76.2 44,76.1 
	43.7,76.1 43.6,76.1 43.4,76 43.3,76.1 43.2,76.1 42.9,76.1 42.6,76.2 42.5,76.2 42.2,76.2 42.1,76 41.9,75.7 41.8,75.8 41.5,76 
	41.4,76 41.3,76.1 41,76.2 40.9,76.2 40.6,76.2 40.5,76.1 40.3,76 40.2,76 40.2,76.1 40.1,76.4 39.9,76.6 39.8,76.8 39.5,76.8 
	39.2,77 39.1,77 38.8,77 38.7,77.2 38.6,77.3 38,77.4 37.5,77.3 37.5,77.6 37.4,77.6 37.1,77.7 37,77.9 36.8,78 36.7,78 36.6,78.1 
	36.4,78.3 36.3,78.3 36.2,78.4 36,78.4 35.9,78.5 35.6,78.5 35.5,78.5 35.3,78.7 35.2,78.8 34.9,78.8 34.8,78.8 34.7,78.7 
	34.4,78.4 34.3,78.5 34.3,78.7 34,78.7 33.9,78.7 33.7,78.7 33.6,78.5 33.3,78.5 33.2,78.7 33.1,78.8 32.9,78.9 33.1,79.2 
	33.1,79.3 32.9,79.5 32.9,79.7 32.8,79.9 32.7,80 32.4,80 32.2,79.9 32.1,79.7 32,79.7 31.7,79.6 31.6,79.5 31.3,79.5 31.2,79.3 
	31,79.3 30.8,79.5 30.6,79.6 30.5,79.7 30.4,79.7 30.1,79.7 29.8,79.7 29.7,79.7 29.4,79.9 29.3,79.9 29.2,79.9 28.9,80.1 
	28.7,80.1 28.6,80.3 28.5,80.3 28.3,80.5 28.2,80.7 28.1,80.8 28.1,80.9 27.9,81.1 27.8,81.1 27.5,81.1 27.3,81.1 27.1,81.1 
	27.1,81.2 27,81.2 27,81.4 26.9,81.4 26.7,81.4 26.6,81.4 26.5,81.5 26.3,81.6 26.3,81.8 26.2,81.9 26.2,82 26.2,82.2 26.2,82.3 
	26.2,82.4 26.3,82.8 26.3,83 26.2,83.1 26.2,83.2 26.2,83.5 26.1,83.6 26.1,83.8 26.1,83.9 26.1,84 26.1,84.2 26.1,84.3 26.1,84.4 
	26.1,84.6 26.2,84.9 26.2,85.1 26.3,85.3 26.3,85.5 26.3,85.8 26.5,86.1 26.5,86.3 26.6,86.6 26.6,86.9 26.7,87.4 26.7,87.5 
	26.7,87.7 26.7,87.8 26.7,87.9 26.9,88.2 26.9,88.4 26.9,88.5 26.9,88.6 26.9,88.8 26.9,88.9 27,89.2 27.3,89.4 27.3,89.6 
	27.3,89.7 27.3,89.8 27.3,90 27.1,90.1 27,90.2 27,90.4 26.9,90.5 26.7,90.6 26.3,90.9 26.2,91 25.9,91.2 25.7,91.3 25.5,91.4 
	25.2,91.6 25.1,91.7 24.8,91.9 24.7,92.1 24.4,92.3 24.3,92.4 23.8,92.9 23.1,93.3 22.8,93.6 22.7,93.7 22.4,94 22.3,94 22.2,94.1 
	22,94.1 21.9,94.1 21.7,94.1 21.6,94.1 21.6,94.3 21.5,94.3 21.3,94.1 21.3,94 21.2,94 21.2,93.7 21.1,93.6 21.1,93.5 20.9,93.3 
	20.8,93.2 20.7,93.1 20.5,92.8 20.3,92.7 20.1,92.7 20,92.7 19.6,92.7 19.5,92.8 19.2,92.9 19.1,92.9 18.9,93.1 18.7,93.1 
	18.4,93.2 18.2,93.2 18,93.2 17.8,93.3 17.7,93.3 17.6,93.3 17.4,93.3 17.2,93.3 16.9,93.3 16.9,93.5 16.8,93.5 16.6,93.5 
	16.4,93.5 16.2,93.6 16.1,93.6 15.8,93.7 15.7,93.9 15.4,94.1 15,94.4 14.9,94.5 14.7,94.5 14.5,94.5 14.3,94.5 14.2,94.7 
	14.1,94.7 13.9,94.8 13.8,94.9 13.7,95.1 13.1,95.1 13,94.9 12.9,94.9 12.7,94.9 12.6,94.9 12.3,94.9 12.2,94.9 12.1,94.9 
	12.1,95.1 11.9,95.1 11.9,95.2 11.8,95.2 11.7,95.2 11.5,95.2 11.4,95.2 11.4,95.1 11.2,95.1 11.1,95.1 11.1,94.9 11,94.9 
	10.8,95.1 11,95.1 11,95.2 10.8,95.2 10.8,95.4 10.7,95.4 10.7,95.5 10.7,95.6 10.6,95.6 10.6,95.8 10.7,95.9 10.7,96.2 10.6,96.2 
	10.6,96.3 10.4,96.3 10.4,96.4 10.4,96.3 10.3,96.3 10.2,96.3 10,96.2 9.9,96.3 9.8,96.2 9.9,96.2 9.9,96 9.8,96 9.8,95.9 9.6,95.9 
	9.5,95.8 9.4,95.9 9.4,95.8 9.2,95.8 9.2,95.6 9.1,95.6 9.1,95.5 9,95.5 8.8,95.5 8.8,95.6 8.8,95.5 8.7,95.5 8.6,95.5 8.6,95.4 
	8.6,95.2 8.6,95.1 8.4,94.9 8.3,94.9 8.3,94.8 8.2,94.7 8.2,94.5 8,94.7 7.9,94.7 7.7,94.8 7.7,94.9 7.6,95.1 7.6,95.2 7.6,95.4 
	7.6,95.5 7.5,95.5 7.5,95.6 7.3,95.6 7.2,95.6 7.1,95.6 6.9,95.6 6.8,95.6 6.8,95.5 6.8,95.4 6.8,95.2 6.9,95.2 6.9,95.1 6.9,94.9 
	6.9,94.8 6.9,94.7 6.9,94.5 6.9,94.4 6.9,94.3 6.8,94.3 6.8,94.1 6.7,94 6.7,93.9 6.5,93.9 6.5,93.7 6.4,93.7 6.4,93.9 6.3,93.7 
	6.3,93.6 6.1,93.6 6.3,93.5 6.3,93.3 6.3,93.2 6.3,93.1 6.3,92.9 6.1,92.9 6.1,92.8 6,92.8 6,92.7 6.1,92.7 6.3,92.5 6.4,92.5 
	6.5,92.5 6.7,92.5 6.8,92.4 6.8,92.3 6.5,92.1 6.4,92 6.1,91.9 6,91.7 5.9,91.6 5.7,91.6 5.6,91.4 5.5,91.4 5.3,91.3 5.2,91.3 
	5.1,91.3 5.1,91.2 5.1,91 5.2,91 5.3,91 5.3,90.9 5.5,90.9 5.6,90.8 5.9,90.6 6,90.5 6.1,90.5 6.1,90.4 6.1,90.2 5.7,90.2 5.6,90.2 
	5.3,90.2 5.2,90.2 5.1,90.2 5.1,90.4 4.9,90.4 4.8,90.4 4.8,90.2 4.9,90 5.1,89.8 5.2,89.7 5.3,89.7 5.3,89.6 5.3,89.3 5.5,89 
	5.5,88.9 5.5,88.8 5.6,88.8 5.6,88.6 5.6,88.5 5.5,88.4 5.5,88.2 5.5,88.1 5.6,88.1 5.6,87.9 5.5,87.9 5.5,87.8 5.5,87.7 5.5,87.5 
	5.6,87.4 5.7,87.3 5.7,87.1 5.9,86.9 6,86.7 6.1,86.6 6.3,86.6 6.4,86.6 6.5,86.6 6.8,86.6 6.9,86.6 7.1,86.5 7.2,86.5 7.3,86.5 
	7.5,86.5 7.6,86.5 7.7,86.5 7.9,86.5 7.9,86.3 8.2,86.1 8.3,85.8 8.4,85.4 8.6,85.3 8.7,84.9 8.8,84.6 9,84.4 9,84.2 9.1,83.9 
	9.2,83.6 9.2,83.4 9.2,83.1 9.2,83 9.1,83 9.1,82.8 9,82.8 9,82.7 8.8,82.6 8.8,82.4 8.7,82.3 8.6,82.3 8.6,82.2 8.4,82.2 8.4,82 
	8.6,82 8.6,81.9 8.4,81.9 8.4,81.8 8.3,81.8 8.3,81.6 8.3,81.5 8.2,81.5 8.2,81.4 8.3,81.4 8.4,81.2 8.6,81.1 8.7,81.1 8.7,80.9 
	8.7,80.8 8.6,80.8 8.6,80.7 8.6,80.5 8.6,80.4 8.4,80.4 8.3,80.4 8.2,80.3 8.2,80.1 8.3,80.1 8.4,80.1 8.4,80 8.6,80 8.7,79.9 
	8.8,79.6 8.8,79.5 8.8,79.3 8.8,79.2 8.8,79.1 8.7,79.1 8.7,78.9 8.6,78.9 8.6,78.8 8.6,78.7 8.4,78.5 8.3,78.4 8.2,78.4 8,78.4 
	7.9,78.4 7.9,78.3 7.7,78.3 7.7,78.1 7.7,78 7.6,78 7.6,77.9 7.5,77.9 7.5,77.7 7.6,77.6 7.6,77.4 7.5,77.4 7.5,77.3 7.3,77.3 
	7.3,77.2 7.5,77.2 7.6,77.2 7.7,77 7.7,76.9 7.7,76.8 7.9,76.6 7.7,76.6 7.7,76.5 7.9,76.5 8,76.5 8.2,76.5 8.3,76.5 8.3,76.4 
	8.3,76.2 8.3,76.1 8.3,76 8.2,76 7.9,75.8 7.9,75.7 7.9,75.6 8,75.3 8,75 8,74.9 7.9,74.8 7.7,74.6 7.7,74.5 7.9,74.2 7.9,74.1 
	7.9,73.9 7.9,73.8 8,73.8 8.2,73.8 8.2,73.7 8.3,73.5 8.3,73.4 8.3,73.3 8.3,73.1 8.3,73 8.2,72.9 8.2,72.7 8,72.6 7.9,72.6 
	7.7,72.6 7.6,72.6 7.5,72.6 7.3,72.6 7.2,72.5 7.2,72.3 7.1,72.2 7.1,72.1 7.1,71.9 7.1,71.8 7.1,71.7 6.8,71.3 6.8,71.1 6.7,71 
	6.5,70.9 6.3,70.7 6.1,70.6 6,70.6 6,70.4 5.9,70.4 5.7,70.4 5.3,70.2 5.2,70 5.1,70 4.9,70 4.7,69.9 4.5,69.8 4.1,69.6 3.7,69.4 
	3.6,69.2 3.3,69.1 3.2,69.1 3,68.8 2.6,68.4 2.6,68.3 2.8,68.3 2.8,68.2 2.9,68.2 2.9,68 3,68 3,67.9 3.2,67.9 3.2,67.8 3.3,67.6 
	3.3,67.5 3.3,67.4 3.4,67.4 3.4,67.2 3.6,67.2 3.6,67.1 3.6,66.9 3.6,66.8 3.6,66.7 3.7,66.7 3.6,66.7 3.7,66.7 3.7,66.5 3.7,66.4 
	3.6,66.4 3.6,66.3 3.6,66.1 3.6,66 3.4,66 3.3,65.9 3.3,65.7 3.3,65.6 3.2,65.6 3.2,65.5 3,65.5 3,65.3 2.9,65.3 2.9,65.2 2.8,65.2 
	2.8,65.1 2.6,65.1 2.6,64.9 2.5,64.9 2.5,64.8 2.4,64.8 2.4,64.7 2.4,64.5 2.5,64.5 2.4,64.1 2.4,64 2.4,63.7 2.4,63.6 2.4,63.3 
	2.4,63.2 2.5,63.2 2.5,63 2.6,63 2.9,63 3,63 3,62.9 3.2,62.9 3.3,62.9 3.4,62.8 3.6,62.8 3.7,62.6 3.8,62.5 4,62.4 4.1,62.4 
	4.1,62.2 4.2,62.2 4.8,61.8 4.9,61.7 5.1,61.4 5.1,61.3 5.2,61.2 6,60.6 6.1,60.5 6.1,60.4 6,60.4 5.9,60.4 5.9,60.2 5.6,60 5.5,60 
	5.5,59.8 5.5,59.7 5.5,59.5 5.5,59.4 5.6,59.1 5.7,58.9 5.7,58.7 5.9,58.6 6,58.5 6.1,58.5 6.1,58.3 6.1,58.2 6.1,58.1 6.1,57.9 
	6.3,57.8 6.3,57.7 6,57.4 6,57.3 6,57.1 6,57 6,56.9 6,56.7 6,56.6 6,56.5 6,56.3 5.9,56.3 5.9,56.2 5.9,56 5.7,55.9 5.6,55.8 
	5.6,55.6 5.6,55.5 5.6,55.2 5.6,55 5.6,54.8 5.5,54.8 5.5,54.7 5.5,54.6 5.5,54.3 5.5,54.2 5.5,54 5.3,53.8 5.2,53.8 5.2,53.6 
	5.2,53.5 5.1,53.4 4.9,53.2 4.8,53.1 4.7,53 4.5,53 4.4,53 4.4,52.8 4.2,52.8 4.1,52.7 4,52.5 3.8,52.5 3.7,52.3 3.6,52.1 3.6,52 
	3.4,51.7 3.4,51.6 3.3,51.6 3.2,51.5 3,51.5 3,51.3 2.9,51.2 2.8,50.9 2.6,50.8 2.5,50.8 2.5,50.9 2.4,50.9 2.2,50.8 2.2,50.7 
	2.1,50.7 2,50.7 2,50.5 1.8,50.4 1.8,50.3 1.7,50.1 1.7,50 1.6,49.9 1.6,49.7 1.4,49.6 1.4,49.5 1.3,49.5 1.3,49.3 1.4,49.2 
	1.6,49.2 1.7,49.2 1.7,49 1.8,49 2,49 2.1,49 2.1,48.9 2.1,48.8 2.2,48.6 2.2,48.5 2.4,48.4 2.2,48.4 2.2,48.2 2.1,48.1 2,48 
	2,47.8 2,47.7 2.1,47.7 2.1,47.6 2,47.4 2,47.3 1.8,47.3 1.7,47.2 1.6,47.2 1.4,47.2 1.3,47.2 1.3,47 1.4,47 1.4,46.9 1.3,46.9 
	1.2,46.9 1,46.9 1,47 0.9,47 0.9,46.9 0.8,46.9 0.6,46.8 0.6,46.6 0.5,46.6 0.3,46.8 0.3,46.6 0.3,46.5 0.2,46.4 0.2,46.2 0.2,46.1 
	0.1,46.1 0.1,46 0.2,46 0.3,46 0.3,46.1 0.5,46.1 0.5,46.2 0.6,46.2 0.8,46.1 0.9,46.1 1,46.1 1,46.2 1.2,46.2 1.3,46.2 1.3,46.4 
	1.4,46.5 1.6,46.6 1.7,46.6 1.7,46.8 1.8,46.8 1.8,46.9 2,46.9 2,47 2.1,47 2.2,47 2.4,47.2 2.5,47.3 2.6,47.3 2.8,47.3 2.9,47.3 
	2.9,47.4 3,47.6 3.2,47.7 3.2,47.8 3.3,47.8 3.3,48 3.4,48 3.6,48 3.7,48 3.8,48.1 4,48.1 4.1,48.2 4.2,48.2 4.2,48.1 4.4,48.1 
	4.5,48.1 4.7,48.1 4.8,48.1 4.8,48 4.9,48 4.9,47.8 4.9,47.7 4.9,47.6 5.1,47.4 5.1,47.3 5.1,47.2 5.1,47 5.1,46.9 5.2,46.9 
	5.2,46.8 5.2,46.6 5.3,46.6 5.5,46.6 5.6,46.6 5.7,46.5 5.9,46.5 6,46.6 6.1,46.6 6.3,46.6 6.4,46.5 6.5,46.5 6.5,46.4 6.7,46.4 
	6.7,46.2 6.8,46.2 6.9,46.1 6.9,46 7.1,46 7.1,45.8 7.2,45.7 7.3,45.5 7.5,45.5 7.3,45.4 7.2,45.4 7.2,45.3 7.2,45.1 7.2,45 
	7.1,44.9 7.1,44.7 7.1,44.6 7.1,44.5 7.1,44.3 7.1,44.2 6.9,44.2 6.9,44.1 6.9,43.9 6.9,43.8 7.1,43.8 7.2,43.9 7.3,43.9 7.3,44.1 
	7.5,44.1 7.6,44.1 7.7,44.2 7.7,44.1 7.7,43.9 7.9,43.9 8,43.9 8,43.8 8.2,43.8 8.3,43.8 8.3,43.7 8.4,43.7 8.6,43.7 8.6,43.8 
	8.7,43.8 8.8,43.8 9,43.8 9.1,43.8 9.1,43.7 9.2,43.7 9.2,43.5 9.4,43.5 9.5,43.5 9.6,43.5 9.8,43.4 9.9,43.4 10,43.4 10.2,43.3 
	10.3,43.3 10.4,43.1 10.6,43 10.7,43 10.8,43 11,42.9 11.1,42.9 11.2,42.9 11.2,42.7 11.4,42.7 11.5,42.7 11.7,42.9 11.8,42.9 
	11.8,43 11.9,43 11.9,43.1 11.9,43.3 11.9,43.4 12.1,43.4 12.1,43.5 12.2,43.7 12.2,43.8 12.3,43.8 12.5,43.7 12.5,43.5 12.5,43.4 
	12.6,43.4 12.7,43.3 12.9,43.3 13,43.3 13,43.4 13.1,43.4 13.1,43.3 13.3,43.3 13.4,43.3 13.4,43.4 13.5,43.4 13.7,43.4 13.8,43.4 
	13.9,43.4 13.9,43.3 14.1,43.3 14.1,43.1 14.2,43 14.3,43 14.5,43.1 14.6,43.1 14.6,43 14.6,42.9 14.7,42.7 14.9,42.6 15,42.5 
	15.2,42.5 15.3,42.6 15.4,42.6 15.4,42.7 15.6,42.7 15.7,42.7 15.8,42.6 16,42.6 16.1,42.5 16.4,42.5 16.4,42.3 16.5,42.3 
	16.5,42.2 16.5,42 16.6,42 16.8,41.9 16.8,41.8 16.9,41.8 17,41.8 17,41.9 17.2,41.9 17.2,41.8 17.3,41.8 17.4,41.9 17.6,41.9 
	17.7,41.9 17.7,41.8 17.8,41.8 18,41.8 18.2,41.5 18.4,41.5 18.4,41.4 18.5,41.2 18.7,41.2 18.8,41.2 18.8,41.1 18.9,41 18.9,40.8 
	19.1,40.7 19.3,40.6 19.3,40.4 19.5,40.4 19.5,40.3 19.6,40.3 19.6,40.2 19.6,40 19.7,39.9 19.9,39.8 19.9,39.6 19.9,39.5 
	19.9,39.4 20,39.4 20.1,39.4 20.3,39.2 20.3,39.4 20.4,39.4 20.5,39.4 20.7,39.4 20.7,39.2 20.8,39.1 20.9,39 21.1,39 21.2,38.8 
	21.3,38.8 21.3,38.7 21.5,38.7 21.5,38.5 21.6,38.5 21.6,38.4 21.7,38.4 21.9,38.4 21.9,38.3 22,38.3 22.2,38.1 22.3,38.1 
	22.4,38.1 22.6,38 22.7,37.9 22.7,37.7 22.8,37.6 22.8,37.5 23,37.3 23.1,37.2 23.2,37.2 23.4,37.2 23.5,37.2 23.6,37.1 23.8,36.9 
	23.9,36.9 24,36.9 24,36.8 24,36.7 24,36.5 24,36.4 24,36.3 24.2,36.1 24.2,36 24.2,35.9 24.2,35.7 24.3,35.7 24.3,35.6 24.4,35.6 
	24.4,35.5 24.6,35.5 24.7,35.5 24.8,35.5 24.8,35.3 24.8,35.2 24.8,35 24.8,34.9 24.8,34.8 24.8,34.6 25,34.6 25.1,34.6 25.2,34.6 
	25.4,34.6 25.4,34.5 25.5,34.4 25.5,34.2 25.7,34.1 25.8,34.1 25.9,34.1 25.9,34 26.1,34 26.1,33.8 26.2,33.7 26.3,33.7 26.5,33.7 
	26.6,33.7 26.7,33.7 26.9,33.7 27,33.7 27,33.8 27.3,34 27.4,34.1 27.4,34.2 27.5,34.2 27.7,34.4 27.8,34.2 27.9,34.2 28.1,34.2 
	28.2,34.2 28.3,34.1 28.5,34 28.6,34 28.7,34 28.9,34 28.9,34.1 29,34.1 29,34.2 29.2,34.4 29.3,34.5 29.4,34.6 29.4,34.8 
	29.4,34.9 29.4,35 29.4,35.3 29.4,35.5 29.4,35.6 29.6,35.6 29.7,35.6 29.8,35.6 30,35.6 30.1,35.5 30.2,35.5 30.4,35.5 30.5,35.6 
	30.6,35.7 30.8,35.7 30.8,35.9 30.9,35.9 30.9,36 31,36 31,36.1 31,36.3 31,36.4 31,36.5 31.2,36.5 31.2,36.7 31,36.8 31.2,36.9 
	31.2,37.1 31.3,37.1 31.3,37.2 31.3,37.3 31.3,37.5 31.4,37.5 31.4,37.6 31.4,37.7 31.6,37.7 31.7,37.7 31.7,37.9 31.8,37.9 
	31.8,38 32,38.1 32,38.3 32.1,38.4 32.1,38.5 32.2,38.5 32.2,38.7 32.4,38.7 32.4,38.8 32.4,39 32.4,39.1 32.5,39.1 32.7,39.1 
	32.8,39.1 33.1,39.1 33.1,39.2 33.2,39.2 33.2,39.1 33.3,39.1 33.3,39 33.5,39 33.6,39 33.6,38.8 33.6,38.7 33.7,38.7 33.7,38.5 
	33.6,38.5 33.6,38.4 33.7,38.4 33.7,38.3 33.9,38.1 33.9,38 34,37.9 34.1,37.7 34.1,37.6 34,37.5 34,37.3 34,37.2 34.1,37.2 
	34.3,37.1 34.3,36.9 34.4,36.9 34.4,36.8 34.5,36.8 34.7,36.7 34.8,36.7 34.8,36.5 34.9,36.4 34.9,36.3 34.9,36.1 34.8,36 
	34.8,35.9 34.8,35.7 34.9,35.7 34.9,35.6 34.8,35.5 34.7,35.3 34.7,35.2 34.5,35.2 34.5,35 34.5,34.9 34.5,34.8 34.5,34.6 
	34.5,34.5 34.5,34.4 34.5,34.2 34.5,34.1 34.5,34 34.5,33.8 34.5,33.7 34.7,33.7 34.7,33.6 34.5,33.4 34.5,33.2 34.4,32.9 
	34.3,32.6 34.3,32.5 34.3,32.4 34.1,32.2 34.1,32.1 34.1,32 34.3,31.8 34.4,31.8 34.5,31.7 34.7,31.7 34.8,31.5 34.9,31.4 
	35.1,31.3 35.2,31.3 35.3,31.1 35.5,31 35.6,30.9 35.7,30.7 35.9,30.7 35.9,30.6 36,30.6 36.2,30.5 36.3,30.3 36.3,30.2 36.3,30.1 
	36.3,29.9 36.4,29.8 36.4,29.7 36.6,29.7 36.7,29.7 36.8,29.5 36.8,29.4 37,29.4 37,29.3 37.1,29.3 37.1,29.1 37.1,29 37.2,29 
	37.2,28.9 37.4,28.9 37.5,28.9 37.6,28.9 37.8,29 37.9,28.9 38,28.7 38.2,28.7 38.3,28.7 38.4,28.7 38.6,28.7 38.7,28.7 38.7,28.9 
	38.8,28.9 39,28.9 39,29 39.1,29.1 39.2,29.3 39.4,29.4 39.5,29.5 39.7,29.5 39.8,29.5 39.8,29.4 39.9,29.3 40.1,29.3 40.2,29.1 
	40.3,29.1 40.3,29 40.5,29 40.6,29 40.6,28.9 40.7,28.9 40.9,28.9 40.9,28.7 41,28.7 41.1,28.6 41.1,28.5 41.3,28.5 41.4,28.3 
	41.5,28 41.7,27.9 41.7,27.8 41.8,27.8 41.8,27.6 41.9,27.5 41.9,27.4 42.1,27.4 42.1,27.2 42.2,27.2 42.3,27.2 42.5,27.2 
	42.5,27.1 42.6,27.1 42.7,27 42.9,27 43,27 43.2,27 43.2,27.1 43.3,27.1 43.4,27.1 43.4,27 43.6,26.8 43.6,26.7 43.6,26.6 
	43.7,26.4 43.8,26.3 44,26.2 44.1,26.2 44.2,26.2 44.4,26.3 44.5,26.3 44.8,26.3 44.9,26.4 45,26.4 45.2,26.6 45.3,26.6 45.3,26.4 
	45.4,26.4 45.4,26.3 45.6,26.3 45.7,26.3 45.7,26.4 45.8,26.4 45.8,26.6 46,26.6 46,26.7 46.1,26.7 46.2,26.7 46.2,26.8 46.5,26.8 
	46.7,26.8 46.8,26.8 46.9,26.8 46.9,27 47.1,27 47.2,27 47.3,27 47.5,27 48,27 48.5,27 48.8,27 49.1,27.1 49.3,27.2 49.5,27.4 
	49.6,27.4 49.7,27.4 49.9,27.2 50,27.2 50.2,27.1 50.3,27.1 50.4,27.2 50.6,27.4 50.7,27.2 50.8,27.1 51,27 51,26.8 51.1,26.7 
	51.2,26.7 51.4,26.7 51.6,26.8 51.8,27 52,27 52.2,27 52.4,27 52.7,26.7 53,26.6 53.1,26.4 53.2,26.3 53.4,26.3 53.5,26.2 
	53.7,26.2 53.8,26.2 54.1,26.4 54.3,26.6 54.6,26.7 54.7,26.7 54.9,26.7 55,26.7 55.1,26.7 55.3,26.6 55.4,26.7 55.5,26.7 
	55.8,26.7 56.1,26.8 56.2,26.8 56.5,26.8 56.6,26.8 56.7,26.8 56.7,27 56.9,27 57,27.1 57.1,27.1 57.4,27 57.7,27 57.8,27 58,27 
	58,26.8 58.1,26.8 58.2,26.8 58.4,26.8 58.5,27 58.6,27 58.8,27.1 58.9,27.2 59,27.4 59,27.5 59,27.6 59.2,27.8 59.2,27.9 
	59.3,27.9 59.3,28 59.4,28 59.6,28 59.6,28.2 59.4,28.2 59.4,28.3 59.6,28.3 59.6,28.5 59.6,28.3 59.7,28.3 59.8,28.5 60,28.5 
	60,28.3 60.1,28.3 60.1,28.5 60.2,28.5 60.2,28.3 60.4,28.2 60.5,28.2 60.5,28.3 60.6,28.3 60.8,28.3 60.9,28.3 60.9,28.2 60.9,28 
	61.1,28 61.2,28 61.2,27.9 61.3,27.9 61.5,27.9 61.6,28 61.6,27.9 61.7,27.9 61.9,27.9 62,27.9 62.1,27.9 62.3,27.9 62.3,27.8 
	62.3,27.9 62.4,27.9 62.5,27.9 62.7,28 62.8,28 62.9,28 62.9,28.2 63.1,28.2 63.1,28 63.2,28 63.3,28.2 63.5,28.2 63.6,28.2 
	63.7,28 63.9,28 63.9,28.2 64,28.2 64.1,28.2 64.3,28.2 64.4,28.2 64.6,28.2 64.7,28.2 64.8,28.2 65,28.2 65,28.3 65.1,28.3 
	65.2,28.3 65.4,28.3 65.5,28.5 65.6,28.3 65.8,28.3 65.8,28.2 66,28 66,27.9 66.2,27.9 66.2,27.8 66.2,27.6 66.3,27.6 66.4,27.6 
	66.4,27.5 66.4,27.4 66.6,27.4 66.6,27.2 66.7,27.2 66.7,27 66.8,27 66.8,26.8 67,26.8 67.1,26.7 67.2,26.6 67.2,26.4 67.4,26.4 
	67.4,26.6 67.4,26.4 67.5,26.4 67.6,26.3 67.6,26.2 67.8,26.2 67.9,26.2 67.9,26 68.1,26 68.1,25.9 68.1,25.8 68.2,25.8 68.2,25.6 
	68.3,25.5 68.3,25.4 68.5,25.2 68.5,25.1 68.5,25 68.5,24.8 68.5,24.7 68.5,24.5 68.6,24.4 68.6,24.3 68.7,24.3 68.7,24.1 
	68.9,24.1 69,24.1 69,24 69.1,24 69.1,23.9 69.3,23.9 69.3,23.7 69.4,23.7 69.4,23.9 69.5,23.9 69.7,24 69.8,24 69.9,24 70.1,23.9 
	70.2,23.9 70.3,23.9 70.3,24 70.5,24 70.5,23.9 70.6,23.9 70.7,24 70.9,24 71,24 71.1,24 71.4,23.9 71.6,23.9 71.7,23.7 71.7,23.6 
	71.6,23.5 71.7,23.2 71.7,23.1 71.8,22.9 71.8,22.8 72,22.7 72,22.5 72.1,22.4 72.1,22.3 72.1,22.1 72.2,22.1 72.4,22 72.4,21.9 
	72.5,21.7 72.5,21.6 72.6,21.6 72.8,21.5 72.9,21.3 73,21.3 73.2,21.2 73.3,21.1 73.4,21.1 73.4,20.9 73.6,20.9 73.4,20.9 
	73.4,20.8 73.4,20.6 73.4,20.5 73.3,20.5 73.3,20.4 73.3,20.2 73.3,20.1 73.3,20 73.2,19.8 73.2,19.7 73.3,19.6 73.3,19.4 
	73.3,19.3 73.4,19.3 73.4,19.2 73.6,19.2 73.7,19.2 73.7,19 73.8,18.9 73.8,18.8 74,18.6 74,18.5 74.1,18.5 74.1,18.4 74.1,18.5 
	74.2,18.5 74.2,18.6 74.4,18.6 74.5,18.8 74.6,18.8 74.6,18.6 74.8,18.6 74.9,18.5 75.1,18.4 75.2,18.4 75.3,18.4 75.5,18.4 
	75.5,18.2 75.6,18.2 75.6,18.1 75.7,18.1 75.9,18.1 76,18.1 76.1,18 76.3,17.8 76.4,17.8 76.4,17.7 76.4,17.6 76.3,17.6 76.3,17.4 
	76.1,17.4 76,17.3 76,17.1 76,17 76,16.9 75.9,16.9 75.9,16.7 75.9,16.6 75.9,16.5 75.7,16.5 75.7,16.3 75.7,16.2 75.9,16.1 
	75.9,15.8 75.9,15.7 76,15.7 76,15.5 76,15.4 75.9,15.3 75.9,15.1 75.9,15 76,15 76,14.9 76.1,14.9 76.1,14.7 76.3,14.7 76.4,14.6 
	76.5,14.6 76.5,14.5 76.7,14.5 76.8,14.3 76.9,14.2 76.9,14.1 77.1,14.1 77.1,13.9 77.1,13.8 77.2,13.8 77.2,13.6 77.2,13.5 
	77.1,13.5 77.1,13.4 76.9,13.2 76.8,13.2 76.7,13.2 76.7,13.1 76.5,13.1 76.5,13 76.5,12.8 76.4,12.8 76.4,12.7 76.3,12.7 
	76.3,12.6 76.3,12.4 76.3,12.3 76.3,12.2 76.4,12.2 76.4,12 76.5,12 76.5,11.9 76.5,11.8 76.5,11.6 76.7,11.6 76.7,11.5 76.7,11.4 
	76.7,11.2 76.7,11.1 76.8,11.1 76.9,11 76.9,10.8 77.1,10.8 77.1,10.7 77.2,10.7 77.2,10.6 77.3,10.6 77.5,10.6 77.6,10.6 
	77.7,10.4 77.9,10.4 78,10.4 78,10.3 78.1,10.3 78.3,10.3 78.3,10.1 78.3,10 78.4,10 78.4,9.9 78.6,9.7 78.6,9.6 78.7,9.6 78.7,9.5 
	78.8,9.5 79,9.5 79,9.3 79.1,9.3 79.1,9.2 79.2,9.2 79.2,9.1 79.4,8.9 79.5,8.9 79.6,8.8 79.6,8.7 79.6,8.5 79.6,8.4 79.8,8.4 
	79.9,8.4 80,8.4 80,8.3 80,8.1 80.2,8 80.2,7.9 80.3,7.7 80.4,7.7 80.4,7.6 80.6,7.5 80.6,7.3 80.7,7.2 80.8,7.1 81,7.1 81,6.9 
	81.1,6.9 81.1,6.8 81.1,6.6 81.1,6.5 81.1,6.4 81.1,6.2 81.2,6.1 81.4,6.1 81.5,6 81.5,6.1 81.6,6.1 81.8,6 81.9,6 82.1,6 82.2,6 
	82.3,6 82.5,6 82.6,6 82.7,5.8 82.7,5.7 82.9,5.6 82.9,5.4 83,5.3 83,5.2 83.1,5.2 83.3,5.2 83.4,5 83.5,5 83.7,4.9 83.8,4.9 
	83.9,4.9 84.1,4.9 84.1,4.8 84.2,4.8 84.3,4.6 84.3,4.5 84.5,4.5 84.6,4.4 84.6,4.2 84.7,4.1 84.9,4 85,4 85.1,4 85.3,4 85.4,3.8 
	85.4,3.7 85.6,3.7 85.6,3.6 85.7,3.6 85.8,3.6 85.8,3.4 86,3.4 86.1,3.1 86.1,3 86.2,3 86.2,2.9 86.4,2.9 86.5,2.7 86.6,2.6 
	86.8,2.5 86.8,2.3 86.9,2.2 86.9,2.1 87,2.1 87.2,2.1 87.3,2.1 87.4,2.1 87.6,2.1 87.7,2.1 87.8,2.1 88,2.1 88.1,2.1 88.2,2.1 
	88.2,1.9 88.2,1.8 88.2,1.7 88.4,1.7 88.4,1.5 88.4,1.4 88.5,1.3 88.6,1.1 88.8,1.1 88.9,1 88.9,0.9 88.8,0.7 88.8,0.6 88.9,0.6 
	88.9,0.5 89.1,0.5 89.1,0.3 89.1,0.2 89.2,0.2 89.3,0.2 89.5,0.2 89.6,0.2 89.7,0.2 89.9,0.3 90,0.5 90.1,0.6 90.3,0.6 90.4,0.6 
	90.5,0.6 90.7,0.7 90.8,0.9 90.9,1 90.9,0.9 91.1,0.9 91.2,1 91.3,1 91.3,0.9 91.5,0.9 91.6,1 91.7,1 91.9,1.1 92,1.3 92.1,1.3 
	92.3,1.3 92.4,1.3 92.6,1.4 92.7,1.5 92.8,1.5 93,1.8 93,1.9 93.1,1.9 93.1,2.1 93.2,2.1 93.4,2.1 93.4,2.2 93.4,2.3 93.4,2.5 
	93.5,2.5 93.6,2.5 93.6,2.6 93.6,2.7 93.8,2.7 93.8,2.9 93.9,2.9 94,2.7 94.2,2.6 94.3,2.6 94.4,2.6 94.4,2.7 94.6,2.7 94.6,2.9 
	94.7,2.9 94.8,2.9 95,2.9 95.1,2.9 95.2,2.9 95.4,2.9 95.5,2.9 95.5,3 95.6,3 95.8,3.1 95.9,3.1 96.1,3.1 96.2,3.1 96.3,3.1 
	96.3,3.3 96.3,3.4 96.2,3.4 96.2,3.6 96.2,3.8 96.3,4 96.3,4.1 96.2,4.4 96.1,4.4 95.9,4.4 95.9,4.5 95.8,4.5 95.8,4.6 95.8,4.8 
	95.8,4.9 95.6,4.9 95.5,4.9 95.5,4.8 95.4,4.8 95.4,4.9 95.2,4.9 95.2,5 95.1,5 95.1,5.2 95.1,5.3 95.1,5.4 95,5.4 95,5.6 94.8,5.6 
	94.7,5.6 94.7,5.7 94.7,6 94.7,6.1 94.8,6.1 94.7,6.1 94.7,6.2 94.6,6.2 94.4,6.4 94.3,6.4 94.2,6.4 94.2,6.5 94,6.5 94,6.6 
	93.9,6.6 93.9,6.8 93.8,6.9 93.9,6.9 93.9,7.1 94,7.2 94.2,7.3 94.3,7.5 94.3,7.6 94.4,7.6 94.4,7.7 94.4,7.9 94.6,7.9 94.6,7.7 
	94.7,7.9 94.8,7.9 94.8,8 95,8.1 95,8.3 94.8,8.3 94.6,8.5 94.4,8.7 94.3,8.8 94.2,8.8 94,8.9 93.9,9.1 93.9,9.2 93.8,9.5 93.6,9.6 
	93.5,9.6 93.5,9.7 93.6,9.9 93.8,9.9 93.8,10 93.9,10 94,10 94,10.1 94.2,10.1 94.3,10.3 94.3,10.4 94.4,10.4 94.4,10.6 94.6,10.6 
	94.7,10.7 94.7,10.8 94.7,11 94.7,11.1 94.7,11.2 94.8,11.2 94.8,11.4 95,11.5 95,11.6 95,11.8 95.1,11.8 95.2,11.8 95.2,11.9 
	95.2,12 95.2,12.2 95.2,12.3 95.2,12.4 95.1,12.4 95.1,12.6 95.1,12.7 95.1,12.8 95.1,13 95.2,13 95.4,13 95.5,13 95.6,13 95.8,13 
	95.9,12.8 95.9,12.7 96.1,12.6 96.1,12.4 96.2,12.4 96.3,12.4 96.5,12.4 96.5,12.6 96.6,12.6 96.6,12.7 96.7,12.7 96.7,12.8 
	96.9,12.8 97,13 97.1,13.1 97.1,13.2 97.3,13.2 97.3,13.4 97.1,13.4 97.1,13.6 97,13.8 96.9,14.2 96.6,14.5 96.6,14.7 96.6,14.9 
	96.6,15 96.6,15.1 96.5,15.3 96.5,15.4 96.3,15.5 96.2,15.7 96.2,15.8 96.1,15.9 96.1,16.1 96.1,16.2 96.1,16.3 96.2,16.3 
	96.2,16.5 96.2,16.6 96.1,16.7 96.1,16.9 95.9,17 95.8,17.1 95.8,17.3 95.9,17.3 95.9,17.4 95.8,17.7 95.8,17.8 95.6,18 95.6,18.1 
	95.6,18.2 95.5,18.4 95.5,18.6 95.5,18.8 95.5,18.9 95.5,19 95.4,19.3 95.1,19.7 95.1,19.8 95,20.1 95,20.2 95,20.4 95,20.5 
	95.1,20.5 95.1,20.6 95.1,20.8 95.1,20.9 95.2,21.1 95.2,21.2 95.4,21.2 95.2,21.3 95.2,21.5 95.2,21.6 95.2,21.7 95.2,21.9 
	95.2,22 95.4,22 95.4,22.1 95.4,22.3 95.5,22.4 95.5,22.5 95.8,22.8 95.9,22.9 95.9,23.1 95.9,23.2 95.8,23.2 95.8,23.3 95.8,23.5 
	95.8,23.6 95.8,23.7 95.8,23.9 95.8,24 95.9,24 95.9,24.1 95.9,24.3 96.1,24.4 96.2,24.4 96.3,24.4 96.5,24.4 96.5,24.5 96.6,24.7 
	96.7,24.8 96.7,25 96.6,25 96.6,25.1 96.5,25.2 96.3,25.5 96.3,25.6 96.2,25.6 96.2,25.8 96.1,25.8 96.1,25.9 96.2,25.9 96.2,26 
	96.1,26.2 95.9,26.3 95.8,26.4 95.8,26.6 95.6,26.6 95.6,26.7 95.5,26.8 95.5,27 95.5,27.1 95.4,27.1 95.2,27.4 95.1,27.5 95,27.6 
	94.8,27.6 94.8,27.5 94.8,27.4 94.7,27.2 94.6,27.1 94.4,27.1 94.3,27.1 94.3,27.2 94.2,27.2 94,27.4 94,27.5 93.9,27.6 93.8,27.8 
	93.6,27.9 93.5,27.9 93.5,28 93.5,28.2 93.4,28.3 93.4,28.5 93.2,28.6 93.1,28.7 93.1,28.9 93,28.9 93,29 92.8,29.1 92.8,29.3 
	92.8,29.4 92.7,29.5 92.7,29.7 92.6,29.8 92.4,29.9 92.3,29.9 92.1,29.9 92.1,30.1 92,30.2 92,30.3 92,30.5 92,30.6 91.9,30.7 
	91.9,30.9 92,31 91.9,31 91.9,31.1 91.9,31.3 91.9,31.4 91.9,31.5 91.9,31.7 91.9,31.8 91.7,31.8 91.7,32 91.9,32.1 91.9,32.2 
	91.7,32.4 91.6,32.4 91.6,32.2 91.6,32.4 91.6,32.5 91.7,32.5 91.7,32.6 91.7,32.8 91.7,32.9 91.7,33 91.7,33.2 91.7,33.3 
	91.7,33.4 91.9,33.6 91.9,33.8 91.7,34 91.6,34 91.5,34 91.3,34.1 91.2,34.1 91.1,34.1 90.9,34.2 90.8,34.2 90.8,34.4 90.7,34.4 
	90.5,34.5 90.5,34.6 90.5,34.8 90.4,34.8 90.4,34.9 90.3,34.9 90.1,34.9 90.1,35 90.1,35.2 90.1,35.3 90.1,35.5 90,35.6 89.9,35.6 
	89.7,35.7 89.7,35.9 89.7,36 89.6,36 89.5,36 89.3,36 89.2,36 88.9,36 88.8,36.1 88.6,36.3 88.5,36.3 88.4,36.4 88.4,36.5 
	88.2,36.7 88.4,36.8 88.4,36.9 88.2,36.9 88.2,36.8 88.1,36.8 88,36.8 88,36.7 87.8,36.7 87.7,36.8 87.6,36.8 87.4,36.8 87.3,36.8 
	87.2,36.8 87.2,36.9 87,36.9 86.9,36.9 86.8,36.8 86.6,36.9 86.5,36.9 86.5,37.1 86.4,37.2 86.2,37.2 86.1,37.3 86,37.3 85.8,37.5 
	85.7,37.5 85.6,37.6 85.4,37.7 85.4,37.9 85.3,37.9 85.1,37.9 85.1,38 85.1,38.1 85,38.1 85,38.3 84.9,38.4 84.6,38.5 84.5,38.5 
	84.5,38.7 84.5,38.8 84.3,39 84.3,39.1 84.3,39.2 84.3,39.4 84.5,39.4 84.6,39.4 84.5,39.5 84.3,39.6 84.3,39.8 84.5,39.8 
	84.5,39.9 84.6,39.9 84.7,40 84.9,40 85,40.2 85.1,40.3 85.1,40.4 85.3,40.6 85.3,40.7 85.3,40.8 85.4,41 85.6,41 85.7,41 
	85.7,41.1 85.6,41.1 85.6,41.2 85.6,41.4 85.6,41.5 85.6,41.6 85.6,41.8 85.6,41.9 85.4,41.9 85.4,42 85.3,42.2 85.3,42.3 
	85.4,42.3 85.4,42.5 85.4,42.6 85.3,42.7 85.3,42.9 85.4,42.9 85.4,43 85.4,43.1 85.6,43.1 85.6,43.3 85.4,43.3 85.4,43.4 
	85.3,43.5 85.1,43.5 85,43.5 84.9,43.5 84.7,43.5 84.6,43.5 84.6,43.7 84.6,43.5 84.5,43.5 84.3,43.5 84.3,43.7 84.2,43.8 
	84.1,43.8 83.9,43.8 83.7,43.9 83.5,43.9 83.4,43.9 83.3,43.9 83.1,44.1 83.1,44.2 83,44.2 83,44.3 83.1,44.5 83.1,44.6 83,44.6 
	83,44.7 82.9,44.9 82.7,45 82.6,45.3 82.6,45.4 82.6,45.5 82.6,45.7 82.7,45.7 82.9,45.7 82.9,45.8 83,45.8 83,46 83.1,46 
	83.1,46.1 83.3,46.2 83.4,46.4 83.4,46.5 83.3,46.5 83.4,46.6 83.4,46.8 83.5,46.9 83.7,47 83.7,47.2 83.5,47.2 83.5,47.3 
	83.4,47.3 83.4,47.4 83.4,47.6 83.4,47.7 83.3,47.8 83.3,48 83.1,48.1 83,48.2 82.9,48.2 82.7,48.2 82.6,48.2 82.6,48.4 82.5,48.4 
	82.3,48.4 82.2,48.4 82.1,48.4 81.9,48.4 81.8,48.4 81.6,48.5 81.6,48.6 81.5,48.8 81.5,48.9 81.5,49 81.5,49.2 81.5,49.3 
	81.5,49.5 81.5,49.6 81.6,49.7 81.9,49.7 82.1,49.9 82.2,50 82.2,50.1 82.3,50.3 "/>
</svg>
